<svg version="1.1" viewBox="0 0 935.38 100" xmlns="http://www.w3.org/2000/svg">
	<path d="m876.36 10-41.118 60.401c-5.4077 7.9411-14.192 15.6-24.798 16.413v1.8562h45.732c12.141 0 20.998-8.0239 26.99-16.861l42.219-61.809h-49.02z" fill="#f00"/>
	<path d="m119.13 88.67v-72.035h20.7v72.035h-20.705zm477.42 0-49.741-42.774v42.774h-17.48v-72.035h14.849l49.079 42.102v-42.102h17.48v72.035zm108.18-48.796c-9.3539-4.6769-19.892-8.4623-33.859-8.4623-16.681 0-29.119 8.7595-29.119 20.939 0 12.477 12.662 21.319 28.968 21.319 13.466 0 24.135-3.4931 34.668-9.6608v17.826c-9.2906 4.6769-21.645 8.1652-35.545 8.1652-28.378 0-50.696-14.698-50.696-37.649 0-22.576 22.751-37.06 50.618-37.06 13.168 0 25.09 2.5236 34.965 6.6159zm-449.7 48.796v-72.035h69.194v15.444h-48.494v17.899h47.403v15.449h-47.403v23.248h-20.7zm462.21 0v-72.035h71.825v15.444h-51.13v12.482h50.326v15.444h-50.326v13.222h50.91v15.444zm-321.11-27.034 28.598 27.039h-22.089c-4.901 0-8.1164-1.559-10.679-4.0923l-19.458-19.161a2.3141 2.3141 0 0 0-1.6759-0.58949h-13.242v23.838h-20.7v-72.035h44.84c23.258 0 33.06 10.621 33.06 22.352 0 13.665-11.999 20.194-18.654 22.654zm-16.525-11.882c8.1846 0 12.136-4.2287 12.136-8.9836 0-4.7549-3.5077-8.6913-12.136-8.6913h-22.021v17.675zm-161.15 11.887 28.598 27.029h-22.084c-4.901 0-8.1213-1.559-10.679-4.0875l-19.458-19.161a2.319 2.319 0 0 0-1.6808-0.58949h-13.237v23.838h-20.705v-72.035h44.84c23.258 0 33.065 10.621 33.065 22.352 0 13.665-11.999 20.194-18.659 22.654zm-16.525-11.887c8.1944 0 12.145-4.2287 12.145-8.9836 0-4.7549-3.5126-8.6913-12.145-8.6913h-22.016v17.675zm-115.21 38.916-9.0664-15.819h-39.642l-8.2675 15.819h-19.75l39.501-71.962h17.996l44.767 71.962zm-40.811-30.824h23.117l-11.999-21.982zm454.16 30.824-8.8521-15.819h-38.609l-7.9752 15.819h-19.244l38.473-71.962h17.48l43.525 71.962zm-39.715-30.824h22.527l-11.702-21.982z" fill="#051039"/>
</svg>
