<svg version="1.1" viewBox="0 0 485.99 100" xmlns="http://www.w3.org/2000/svg">
	<path transform="matrix(.94335 0 0 .94335 18.62 10.003)" d="m59.301 0c-9.8-0.1-20.201 1.9-22.801 2.5-0.6 0.1-1.4992 0.40039-1.6992 0.40039-0.5 0-0.70039 0.7-0.40039 1l1 1c0.3 0.4 0.50039 0.99961-0.09961 1.5996l-18.201 16.301h12.5c0.8 0 1.5996 0.69961 1.5996 1.5996 0 0.8-0.7 1.5996-1.5 1.5996h-16.199l-4.9004 4.5h21.201c0.8 0 1.5 0.89961 1.5 1.5996 0 0.7-0.6 1.5996-1.5 1.5996h-24.801l-5 4.6016h42.801c0.8 0 1.5 0.89961 1.5 1.5996 0 0.9-0.6 1.6992-1.5 1.6992h-42.801v4.5h42.699c1 0 1.5 0.90117 1.5 1.7012 0 0.7-0.69961 1.5-1.5996 1.5h-42.6v4.5h55.801c0.9 0 1.5 0.79922 1.5 1.6992 0 0.8-0.7 1.5996-1.5 1.5996h-40.801v4.5h40.9c0.8 0 1.4004 0.90117 1.4004 1.7012s-0.70039 1.5996-1.4004 1.5996l-0.80078-0.09961h-40.1v4.5h47.1s1.7012-3.9008 1.7012-8.3008v-30.301c0-2.4 0.99844-6.4 5.8984-7.5 0.1 0 0.30039-0.09961 0.40039-0.09961 13.9-3.3 28.201-0.29882 36.301 3.2012 1.5 0.7 1.7992-0.5 1.6992-1 0.2-6.8-5-14.6-14.5-15-7.7-0.2-12 2.5984-13.6 3.3984-0.1 0.1-0.3 7.81e-4 -0.5-0.19922-1.4-1.4-4.5004-3.5-7.9004-4.5-0.5-0.1-0.6-0.90039 0-0.90039 7.3-0.8 13.7 5e-7 16.4 0.5 0.6 0.1 1.1008-0.29883 0.80078-0.79883-0.2-0.4-0.30156-0.60078-0.60156-1.3008-0.7-1.4-2.3996-2.9-4.5996-3.5-5.7-1.6-15.499-3-24.299-3zm15.398 25.6c-3.4-0.1-7.1996 2.7004-7.0996 6.9004v24.199c0 4.2 3.7004 8.1016 8.4004 8.1016h12.4c5.4 0 6.5-4.7016 6.5-6.1016v-10.199c0-0.8-0.10039-2.2004 1.5996-2.4004 1.2-0.1 2.3-0.3 3-0.5 1.2-0.3 1.3992-1.4992 1.1992-2.1992-1.7-6.2-4.8996-12.901-6.5996-16.201-0.5-1-1.9996-1.7992-3.5996-0.69922-0.3 0.2-4.9004 3.5-4.9004 3.5-2.9-1.4-5.0996-2.5004-7.0996-3.4004-0.9-0.5-2.1008-1-3.8008-1zm-44.699 46.9v4.5h27.301c1.3-1.3 2.8988-3.6 3.2988-4.5zm0 7.6992v4.6016h9.5c8.5-0.1 14-4.6016 14-4.6016z" fill="#020c41"/>
	<path transform="matrix(.94335 0 0 .94335 18.62 10.003)" d="m271.9 22.699s-0.40117 3.7008-0.70117 5.8008c-0.2 2.1-3.5996 36.199-3.5996 36.199h8.2012s0.59922-6.8996 1.1992-15.1c0.3-4.1 1.0996-13.6 1.0996-13.6l5.3008 17.1c0.6 1.5 3.5 11.6 3.5 11.6h5.9004l9.2988-28.5 1 13.5 1.0996 15.102h11s-1.3988-15.2-3.7988-39.5l-0.30078-2.4004h-10.5l-9 24.299-8.9004-24.5zm-136.5 0.20117s-2.6996 7.7-3.0996 9l-9 25.4c-1.2 3.3-2.8008 7.5-2.8008 7.5h7.8008s2.1992-7.1008 2.6992-8.3008l1.1992-3.5h13.602l1.8984 5.4004c0.4 1 2 6.4 2 6.5l11.301-0.09961c-0.3-0.8-2.2992-5.4016-3.6992-9.1016l-12.301-32.799zm283.98 4.6777c-5.5532-0.0293-10.559 1.1719-14.684 4.9219-3.9 3.5-6.1992 8.8004-6.1992 13.9 0 5.6 2.2992 10.8 6.6992 14.4 4.5 3.8 9.4016 4.6992 15.102 4.6992 3.8 0 5.9992-0.29922 9.6992-1.1992l-0.59961-5.6016c-0.7 0.3-3.4012 1.1016-7.2012 1.1016-8.4 0-12.999-6.2008-12.699-13.801 0.2-6.6 3.2-12.301 10.5-12.801 2.8-0.2 5.0004 0.30078 8.9004 1.3008l-0.40039-5.6992s-3.3-1.0012-8-1.2012c-0.375-0.0125-0.74697-0.01953-1.1172-0.02148zm30.816 0.02148c-7.1-0.1-13.098 2.7996-16.398 8.0996-1.6 2.4-2.8004 5.5-2.9004 9v0.20117c-1 11.6 5.8004 19.7 17.4 20.6 0.7 0.1 1.4 0.09961 2 0.09961 0.7 0 1.3 3.91e-4 2-0.09961 11.4-0.9 18.099-8.8996 17.199-20.6v-0.20117c-0.2-3.5-1.3004-6.6-2.9004-9-3.4-5.3-9.3004-8.1996-16.4-8.0996zm-206.3 0.20117c-7.1-0.1-13 2.7-16.4 8-1.6 2.4-2.8004 5.5-2.9004 9v0.19922c-1 11.6 5.8008 19.6 17.301 20.5 0.7 0.1 1.4 0.09961 2 0.09961 0.7 0 1.3 3.91e-4 2-0.09961 11.5-0.9 18.199-8.9 17.299-20.5v-0.19922c-0.2-3.5-1.2984-6.6-2.8984-9-3.4-5.3-9.3004-8.1-16.4-8zm-80.6 0.39844s0.19922 5.0004 0.19922 7.9004v20.801c0 2.6-0.19922 7.1004-0.19922 7.9004h24.1v-5.8008s-4.8004 0.09961-7.9004 0.09961h-6.5996c-0.1-3.7-0.0996-7.2004-0.0996-10.4v-0.59961h10.898v-5.1992h-10.898c0-5.5 0.0996-9.2012 0.0996-9.2012h13.6v-5.5zm29.699 0.10157s0.19922 4.9984 0.19922 7.8984v20.602c0 2.9-0.19922 7.8984-0.19922 7.8984h9.5s-0.30078-4.9984-0.30078-7.8984l0.10156-6.6016h3.5l6 11c0.8 1.4 1.9992 3.1016 2.1992 3.6016h11.1c-2.3-3.2-3.0988-4.6-4.7988-7l-6.5-10.201c3.1-1.5 6.1-4.0996 6.5-9.5996 0.3-3.4-1.5016-6.1992-2.6016-7.1992-1.6-1.4-3.0988-2.0012-5.2988-2.2012-1.7-0.2-3-0.19883-4-0.29883zm128.1 0s0.20117 4.9984 0.20117 7.8984v20.701c0 2.6-0.20117 7.1004-0.20117 7.9004h24.1v-5.8008c0.1 0-4.6984 0.09961-7.8984 0.09961h-6.6016c-0.1-3.7-0.0996-7.2004-0.0996-10.4v-0.59961h10.9v-5.0996h-10.9c0-5.5 0.0996-9.1992 0.0996-9.1992h13.602v-5.5zm27 0 10.5 18.898-10.9 17.602h7.2012c4.7-8 7.0996-11.602 7.0996-11.602l6.5 11.602h10.801l-11-19.602 10.5-16.799h-7.2012l-0.09961 0.19922c-2.2 3.8-4.9 8.3996-6 10.1l-0.40039 0.70117-6.0996-11.1zm35.4 0.09961s0.30078 5.1004 0.30078 7.9004v20.699c0 2.9-0.30078 7.8008-0.30078 7.8008h9.4004s-0.30078-4.9008-0.30078-7.8008l0.0996-20.699c0-2.9 0.30078-7.9004 0.30078-7.9004zm-244.4 4.0996 4.8008 14.4h-9.7012l4.6016-13.6zm310.3 0.69922h1.4004c7.7 0.6 9 9.8016 8.5 16.102-0.2 2.7-1.1 6.0996-3 8.0996-0.3 0.4-0.7 0.7-1 1-1.3 0.9-2.7008 1.4992-4.3008 1.6992h-1.8008c-1.7-0.2-2.9992-0.79922-4.1992-1.6992-0.3-0.3-0.7-0.6-1-1-1.8-2-2.7-5.3996-3-8.0996-0.5-6.3 0.7004-15.502 8.4004-16.102zm-206.2 0.10156h1.4004c7.7 0.6 8.9004 9.8 8.4004 16-0.2 2.7-1.1004 5.9996-2.9004 8.0996-0.3 0.4-0.7 0.7-1 1-1.3 0.9-2.7988 1.4992-4.2988 1.6992h-1.8008c-1.7-0.2-2.9992-0.79922-4.1992-1.6992-0.3-0.3-0.7-0.6-1-1-1.8-2-2.7-5.3996-3-8.0996-0.5-6.3 0.69845-15.4 8.3984-16zm-39.051 0.95117c2.357-0.051953 4.0641 0.29844 4.8516 0.64844 1.3 0.6 2.0996 1.8004 2.0996 3.9004 0.2 3.1-0.99883 4.6996-2.7988 5.5996-1.4 0.7-4.6012 0.50039-6.2012 0.40039l0.0996-10.4 0.90039-0.09961c0.3625-0.025 0.71211-0.04141 1.0488-0.04883zm267.95 23.348c-2 0-3.5996 1.5996-3.5996 3.5996s1.5996 3.6016 3.5996 3.6016 3.5996-1.6016 3.5996-3.6016-1.5996-3.5996-3.5996-3.5996zm0 0.70117c1.5 0 2.7012 1.1984 2.7012 2.8984 0 1.7-1.2012 2.9004-2.7012 2.9004s-2.6992-1.2004-2.6992-2.9004c0-1.7 1.1992-2.8984 2.6992-2.8984zm-1.5996 0.89844v4.1016h0.80078v-1.8008h0.5l1.0996 1.8008h0.79883l-1.0996-1.8008c0.7-0.1 1.0996-0.39961 1.0996-1.0996 0-0.9-0.5-1.2012-1.5-1.2012h-1.5zm0.90039 0.5h0.69922c0.4 0 0.80078 0.10156 0.80078 0.60156 0 0.5-0.40078 0.59961-0.80078 0.59961h-0.69922z" fill="#020c41"/>
</svg>
