<svg version="1.1" viewBox="0 0 100 100" xmlns="http://www.w3.org/2000/svg">
	<path d="m53.976 18.621c-7.2636-0.04433-14.922 1.4126-16.851 1.8412-0.46551 0.10345-1.1133 0.26828-1.224 0.29044-0.52472 0.10345-0.64928 0.60157-0.42011 0.8454 0.14021 0.16257 0.53904 0.49485 0.7313 0.7313 0.23634 0.29558 0.35434 0.72363-0.10372 1.167l-13.433 12.069h9.1853l0.10373-0.0052c0.59852-0.0074 1.167 0.53164 1.167 1.2188 0 0.61331-0.4944 1.2033-1.1151 1.2033l-0.0778 0.0052h-11.939l-3.6513 3.3194h15.622l0.08817-0.0052c0.61328 0.0074 1.0965 0.64245 1.0892 1.2188-0.0074 0.53941-0.46109 1.1877-1.0892 1.1877h-18.381l-3.6617 3.309h31.56l0.09855 0.01036c0.62059 0 1.1077 0.63378 1.1151 1.1877 0.0074 0.65033-0.45371 1.2344-1.0892 1.2344l-0.08816-0.0053h-31.601v3.2934h31.529l0.09855 0.0053c0.72415 0.0074 1.1433 0.65952 1.1358 1.2655 0 0.53933-0.52338 1.1307-1.1514 1.1307h-31.612l-0.010372 3.3245h41.176l0.10372-0.0053c0.6798 0.02231 1.1216 0.60187 1.0995 1.2448-0.01487 0.56164-0.47895 1.1618-1.0995 1.1618h-30.185v3.309h30.305c0.56164 0 1.0321 0.69575 1.0321 1.2499 0 0.56164-0.48604 1.167-1.0477 1.167h-30.3v3.3038h34.843s1.2551-2.9192 1.2551-6.1408c0-0.16995 0.01036-22.39 0.01036-22.39 0-1.766 0.71611-4.7411 4.3515-5.5392 0.09613-0.02215 0.19752-0.04007 0.30082-0.06224 10.286-2.431 20.891-0.21378 26.861 2.365 1.0789 0.51724 1.3209-0.33591 1.2914-0.70536 0.13277-5.0321-3.694-10.767-10.736-11.115-5.7117-0.13299-8.8789 1.9206-10.046 2.4895-0.08869 0.04435-0.23002 0.02329-0.36305-0.12448-1.0566-1.0419-3.3056-2.593-5.84-3.3246-0.37681-0.0739-0.41528-0.63511 0.02071-0.67943 5.4164-0.57637 10.148 0.02757 12.121 0.35268 0.45064 0.0739 0.79656-0.19304 0.61201-0.60682-0.13298-0.31761-0.2482-0.47168-0.4771-0.95936-0.48038-1.0345-1.7582-2.1344-3.3764-2.5777-4.2413-1.1897-11.484-2.2118-17.935-2.2561zm11.244 18.983c-2.5198-0.03696-5.2808 2.04-5.2954 5.1139-0.0074 1.5961-0.0074 15.815 0 17.862 0.01461 3.1106 2.7937 6.0208 6.2446 6.006h9.1282c3.9976 0.0074 4.8117-3.4586 4.782-4.5226 0-1.7218-0.0053-6.7742-0.0053-7.5204 0-0.60598-0.02257-1.6133 1.2188-1.7686 0.8941-0.11073 1.753-0.22553 2.2406-0.37343 0.85719-0.25121 1.0348-1.1181 0.88689-1.6649-1.2485-4.5738-3.602-9.5845-4.8804-11.986-0.36938-0.68719-1.4901-1.2908-2.6503-0.49272-0.17712 0.1256-3.6046 2.5643-3.6046 2.5569-2.1207-1.0197-3.816-1.8023-5.2643-2.4895-0.69468-0.32514-1.5518-0.70616-2.8007-0.72092zm-33.048 34.708-0.01038 3.309h20.16c0.93102-0.93845 2.1275-2.6683 2.4377-3.3038zm0 5.6792-0.01038 3.3816s4.4651 0.01461 7.007 0c6.2736-0.03691 10.378-3.3816 10.378-3.3816z" fill="#020c41"/>
</svg>
