<svg version="1.1" viewBox="0 0 100 100" xmlns="http://www.w3.org/2000/svg">
	<defs>
		<linearGradient id="a" x1="200" x2="200" y1="563.36" y2="963.36" gradientTransform="translate(0,-563.36)" gradientUnits="userSpaceOnUse">
			<stop stop-color="#b179d4" offset="0"/>
			<stop stop-color="#735ed1" offset=".5"/>
			<stop stop-color="#3d60d6" offset="1"/>
		</linearGradient>
	</defs>
	<style type="text/css">.st0{fill:url(#a);}</style>
	<path class="st0" d="m68.955 43.532c-2.9628-1.1715-6.043-2.0208-9.1875-2.5325l2.6375-9.5c0.294-1.1862-0.32175-2.4098-1.45-2.88-1.7572-0.78925-3.5832-1.4152-5.455-1.87 2.4048-3.0375 1.892-7.4495-1.1458-9.8542s-7.4495-1.892-9.8542 1.1455c-2.02 2.5515-2.02 6.1572 0 8.7088-1.87 0.45575-3.6942 1.0815-5.45 1.87-1.1205 0.4785-1.733 1.695-1.45 2.88l2.65 9.5c-3.1428 0.514-6.2208 1.3662-9.18 2.5425-2.72 1.1125-5.65 2.6175-4.56 7.25l4.86 20.91c0.6225 2.81 1.04 4.345 2.0225 5.555 1.945 2.3725 6.25 3.89 9.1175 4.2725v18.455h15v-18.4c3.4725-0.3 7.0675-1.8275 9.11-4.3325 0.985-1.195 1.4-2.7225 2.0225-5.555l4.8575-20.915c1.105-4.6325-1.8325-6.165-4.545-7.25zm-28.688 22.085-5.2675 1.3825c-0.335 0.09925-0.69625 0.05775-1-0.115-0.31975-0.176-0.55625-0.472-0.6575-0.8225l-2.665-11.812c-0.137-0.64025 0.23225-1.2805 0.855-1.4825l5.5575-1.6325c0.346-0.10975 0.72225-0.07 1.0375 0.11 0.31875 0.18 0.54275 0.49075 0.6125 0.85l2.4375 12.045c0.12025 0.653-0.27275 1.291-0.91 1.4775zm17.878-14.095-2.29 12.428c-0.10925 0.60625-0.634 1.0492-1.25 1.055h-9.165c-0.6215-5e-4 -1.1542-0.444-1.2675-1.055l-2.25-12.445c-0.126-0.69375 0.334-1.3582 1.0275-1.485 0.07675-0.01275 0.1545-0.0195 0.2325-0.02h13.7c0.3785 2.5e-4 0.7375 0.1665 0.9825 0.455 0.2425 0.299 0.34475 0.688 0.28 1.0675zm11.182 2.7325v-5e-3l-2.705 11.805c-0.139 0.67625-0.8 1.1118-1.476 0.97275-8e-3 -0.0018-0.016-0.0032-0.024-0.0053l-0.105-0.0275-5.2225-1.39c-0.6485-0.186-1.0455-0.83875-0.9125-1.5l2.4575-12.05c0.14925-0.69525 0.83375-1.138 1.529-0.98875 0.0425 0.0093 0.08475 0.0205 0.126 0.03375l5.4775 1.6725c0.62425 0.2 0.9945 0.84175 0.855 1.4825z" fill="url(#a)"/>
</svg>
