<svg version="1.1" viewBox="0 0 287.41 100" xmlns="http://www.w3.org/2000/svg">
	<style type="text/css">.st0{fill:#D51B1B;}
	.st1{fill:#1B1B1A;}</style>
	<path class="st1" transform="matrix(1.2476,0,0,1.2476,-52.555,-76.376)" d="m127.79 103.38c-0.234-0.031-0.43051 0.33502-0.43051 0.33502l-0.03445 0.20039v0.23169c0 0.098-5e-5 0.06727 0.16595 0.23327 0.167 0.168 0.06575 0.06682 0.06575 0.23482 0 0.131-0.03263 0.2972-0.09863 0.3632-0.034 0.101 0.03363 0.2329 0.09863 0.3679 0.067 0.163 1.2e-4 0.1347-0.03288 0.2317-0.066 0.101 0 0.20113 0 0.26613l-0.06575 0.16595 0.03288 0.16907-0.16595 0.29902 0.06576 0.33189c0.033 0.066 0.13287 0.06695 0.03287 0.20195-0.098 0.132-0.03256 0.36496 0.03444 0.46496 0.034 0.098 0.06575 0.13313 0.06575 0.26613v0.33189c0.033 0.066 0.06788 0.13414 0.03288 0.26614 0 0.17-0.03375 0.26577-0.06575 0.40077-0.068 0.134-0.13057 0.33328-0.26457 0.53228s-0.23427 0.40121-0.26927 0.43521l-0.39764 0.16595c-0.069 0.067-0.46579 0.33195-0.69979 0.46495-0.201 0.167-0.33296 0.16765-0.50096 0.43365-0.134 0.266-0.36509 0.20039-0.43209 0.20039l-0.29901 0.06575c0 0.098-0.03219 0.1677-0.10019 0.2317-0.101 0.065-0.16482 0.1342-0.19882 0.3992-0.069 0.267-0.03495 0.16571-0.20195 0.26771-0.165 0.066-0.33189 0.3012-0.33189 0.3992 0 0.101-0.13464 0.23309-0.13464 0.46809-0.031 0.266 0.16827 0.09931 0.26927 0.03131 0.099-0.032 0.06457-0.03182 0.26457-0.19882 0.201-0.134 0.33277-0.03444 0.40077-0.03444l0.36477-0.19882c0.069-0.033 0.16594-0.16514 0.16594-0.26614 0.035-0.101 0.26771-0.30189 0.26771-0.33189 0.034 0 0.13345-0.10214 0.33345-0.30214 0.197-0.201 0.46496-0.40077 0.46496-0.40077 0-0.032 0.13046-0.12994 0.33346-0.12994 0.198 0 0.10019-0.09951 0.10019-0.16751 0.034-0.033 0.12982-0.16602 0.19882-0.29902 0.101-0.099 0.16846-0.26569 0.36946-0.23169 0.166 0.031 0.22945 0.06507 0.29745 0.13307 0.032 0.032 0.10107 0.16701 0.13307 0.29901 0 0.167 0.03412 0.13089-0.03288 0.33189-0.035 0.2-0.035 0.16733 0 0.36633 0.032 0.232 5.6e-4 0.23201-0.03444 0.29901 0 0.101-0.03288 0.19989-0.03288 0.33189 0.033 0.168 0.03288 0.13571 0.03288 0.26771-0.033 0.101-0.03288 0.20013-0.03288 0.26613l0.03288 0.33502c0 0.065-0.03288 0.09882-0.03288 0.19882 0 0.133 0.03288 0.19846 0.03288 0.33346 0 0.132-0.03375 0.09782-0.06575 0.19882 0 0.099 0.03287 0.2007 0.03287 0.2677 0 0.064-0.19832 0.19802-0.33032 0.29902-0.136 0.1-0.50128 0.13294-0.56828 0.16594-0.065 0.032-0.26721 0.26646-0.39921 0.33346-0.1 0.065-0.33433 0.13326-0.36633 0.23326-0.033 0.101-0.40077 0.19882-0.40077 0.19882s-0.13257 0.06563-0.26457 0.13463c-0.103 0.03-0.23502 0.16502-0.29902 0.29902-0.071 0.133-0.20195 0.03131-0.20195 0.03131l-0.09863 0.20038-0.23169 0.1002c-0.069 0-0.13527-6.9e-4 -0.26927 0.03131-0.132 0.034-0.1315 0.13495-0.1315 0.20195v0.43365c-0.033 0.065-0.06933 0.13313-0.10333 0.23013-0.032 0.102 0.03444 0.13695 0.03444 0.20195 0.035 0.067 0.10139 0.19933 0.20039 0.36633 0.067 0.201 0.23514 0.20038 0.30214 0.20038 0.099 0.033 0.19889 6.9e-4 0.33189-0.06731 0.134-0.033 0.16758-0.13307 0.30058-0.13307 0.132 0 0.19702-0.03276 0.29902-0.10176 0.1-0.066 0.33189-0.33032 0.33189-0.33032s0.26433-0.20171 0.36633-0.26771c0.101-0.067 0.13338-0.20045 0.20038-0.33345 0.096-0.168 0.09657-0.1667 0.26457-0.2317 0.201-0.065 0.09964-0.13463 0.13464-0.13463l0.19882-0.1002h0.16907c0.031 0.034 0.20039 0.10039 0.20039 0.20039 0 0.099-0.03757 0.33309-0.03757 0.46809 0 0.132 5.7e-4 0.29821 0.03757 0.39921v1.1287c-0.037 0.202-0.07257 0.30441-0.03757 0.53541 0 0.234 0.10356 0.06726-0.03444 0.23326-0.098 0.2 2.5e-4 0.26546-0.02975 0.33346 0 0.067-8.1e-4 0.164 0.06419 0.263l0.07045 0.20195c0 0.068-0.06989 0.06695-0.10489 0.16595-0.064 0.066-0.03056 0.20133 0.03444 0.36633 0.069 0.167-0.06463 0.23458-0.09863 0.30058-0.034 0.101-0.06419 0.20014-0.06419 0.26614 0 0.067 3.2e-4 0.13301 0.03132 0.29901 0.034 0.167-0.03163 0.16802-0.09863 0.33502-0.068 0.198-0.06889 0.3632-0.06889 0.3632l-0.03287 0.33502v0.49783c0 0.068 0.06732 0.23522 0.06732 0.43522 0 0.166-0.13551 0.33339-0.16751 0.46339v0.46652c0 0.1 0.03131 0.16871 0.03131 0.26771l-0.16595 0.36789 0.03601 0.39921c0 0.064 0.03275 0.13057 0.06575 0.26457 0.032 0.133 8.8e-4 0.26646 0.03288 0.33346l0.06888 0.20038c0 0.067 0.09938 3.9e-4 0.20038 0.20039 0.099 0.166-0.068 0.26427-0.036 0.53227 0.035 0.235 0.13527 0.33278 0.26927 0.66378 0.064 0.2 0.59802 0.36633 0.59802 0.36633 0.5 0.034 0.56359-0.36577 0.56359-0.40077 0-0.03 0.03488-0.23076 0.06888-0.36476 0-0.098-0.03388-0.23177-0.06888-0.36477-0.033-0.134-1.9e-4 -0.16758-0.06419-0.30058-0.069-0.131 0-0.16701 0-0.29901 0-0.166 0.06407-0.26496 0.13307-0.46496 0.066-0.167 0-0.43284 0-0.53384s-0.16569-0.23121-0.23169-0.39921c-0.066-0.166-0.0662-0.20045-0.1362-0.33345-0.032-0.134-0.23302-0.0662-0.29902-0.1002l-0.03287-0.16437c0-0.069 0.00119-0.1669 0.10019-0.3679s1.2e-4 -0.20246-0.03288-0.33346c-0.033-0.1-0.03444-0.23288-0.03444-0.33188 0.033-0.1 0.23433-0.16883 0.33033-0.23483 0.069-0.033 0.06963-0.16589 0.13463-0.33189 0.036-0.168-0.02974-0.29989-0.02974-0.33189v-0.26927c0-0.098-0.06689-0.26464-0.10489-0.39764-0.064-0.102-0.03087-0.16626 0.03913-0.23326 0.066-0.099-0.03913-0.20102-0.03913-0.29902-0.032-0.068-0.16507-0.03506-0.13307-0.13306 0.069-0.067 0.06957-0.30153 0.03757-0.46653-0.069-0.169 0.03131-0.06626 0.03131-0.23326 0-0.133-0.09994-0.26833-0.12994-0.36633-0.035-0.1 0.02975-0.16739 0.02975-0.20039v-0.26613c-0.03-0.1-0.02975-0.1657-0.02975-0.2317l0.09863-0.23483 0.03131-0.29901c0-0.066 0.13382-0.30221 0.19882-0.39921l0.06888-0.26614c0.031-0.068 0.06363-0.16814 0.09863-0.30214 0-0.132-0.06763-0.39852-0.09863-0.43052v-0.13307l-0.03287-0.30057c-0.066-0.099-0.06575-0.20002-0.06575-0.29902 0.03-0.134 0.03024-0.26452-0.06576-0.46652-0.102-0.231-0.10313-0.36372-0.03913-0.56672 0.038-0.198 0.33633-0.19882 0.40233-0.19882l0.26458 0.09863 0.20195-0.03131 0.40077-0.20195 0.16594-0.06576 0.19726-0.36476c0.034-0.069 0.1319-0.10095 0.3679-0.20195 0.23299-0.098 0.40189-0.33296 0.36789-0.46496 0-0.133-0.035-0.19926 0-0.23326l0.03444-0.03288c0.099-0.033 0.23045-0.13394 0.29745-0.16594l0.26614-0.13307c0.032-0.034 0.13326-0.06732 0.23326-0.06732l0.26614-0.06732 0.23169-0.26613 0.23327-0.06732 0.23482-0.16595 0.26458-0.23169 0.2677-0.10019c0.033-0.068 0.26558-0.23402 0.30058-0.33502l0.19725-0.1002 0.20195-0.23169 0.13151-0.16751 0.03444-0.19882c0-0.033 0.066-0.16614 0-0.26614-0.034-0.099 0.06575-0.16595 0.06575-0.16595l0.03601-0.23169-0.03601-0.30058-0.10019-0.13464c-0.069-0.031-0.0692-0.20001-0.1002-0.29901l-0.03131-0.33346c0-0.09999-0.03406-0.20013-0.13306-0.26613-0.102-0.033-0.3009-0.23214-0.3679-0.26614l-0.2677-0.43365c-0.031-0.035-0.19858-0.33252-0.26458-0.46652-0.098-0.133-0.30076-0.36421-0.36476-0.39921-0.101 0-0.16883 0.03475-0.23483 0.06575h-0.69822l-0.40077 0.20039h-0.43208l-0.46809 0.09863-0.16595-0.03131-0.16438 0.03131c-0.033 0.035-0.10151 0.06919-0.20351 0.10019-0.065 0-0.3634 0.13426-0.4634 0.23326-0.103 0.068-0.16626 0.03469-0.23326-0.03131-0.1-0.067-0.03356-0.2337 0.03444-0.2677v-0.23326l0.06732-0.23327 0.06575-0.1315c0-0.033 0.033-0.16714 0-0.26614 0-0.133-0.066-0.13395-0.036-0.20195v-0.26457l-0.13151-0.20039c-0.033-0.1 0.03532-0.19982 0.06732-0.23482l0.16594-0.06576 0.26614-0.20038 0.10176-0.13307 0.13307-0.23483 0.03131-0.39607c0.033-0.099-0.06919-0.16871-0.10019-0.26771l-0.06419-0.3992-0.16751-0.20039-0.06575-0.26457c0-0.034-0.03464-1.4e-4 -0.13464-0.26614-0.066-0.267-0.46596-0.29901-0.50096-0.29901-0.033 0-0.36403-0.03601-0.59803-0.03601zm72.272 1.9162c-0.03114-0.00334-0.06003 0.00179-0.08453 0.01879-0.134 0.032-0.30333-3e-4 -0.36633 0.23169-0.068 0.233 2.4e-4 0.43296-0.10176 0.46496-0.1 0.035-0.13327 0.23415-0.23327 0.30215-0.09799 0.099-0.30214 0.43208-0.30214 0.43208h-0.02818c-0.065 0.066-0.2017 0.23332-0.2677 0.33032-0.1 0.135-0.29989 0.33522-0.33189 0.43522-0.034 0.101-0.10019 0.36476-0.10019 0.36476l-0.29902 0.23483c-0.101 0.032-0.26802 0.03094-0.33502 0.16594-0.099 0.132-0.2307 0.19989-0.2677 0.33189 0 0.168-0.031 0.23353 0 0.46653 0.037 0.234 0.10257 0.33452 0.03757 0.46652-0.068 0.134-0.03757 0.40128-0.03757 0.53228 0 0.168-0.0955 0.06684-0.0955 0.53384 0 0.498-0.16907 0.49822-0.16907 0.69822s0.03444 0.66553 0.03444 0.76553c0 0.067-3.2e-4 0.49879-0.06732 0.69979-0.034 0.199-0.23483 0.59854-0.23483 0.76554-0.033 0.167-0.03287 0.49891-0.03287 0.66691 0 0.167-0.06419 0.19844-0.06419 0.29744 0 0.069-0.06888 0.30172-0.06888 0.56672 0 0.268 0.07 0.43128 0 0.53228-0.031 0.134-0.13263 0.20077-0.09863 0.40077 0.035 0.164 0.03468 0.1634-0.06732 0.4994-0.1 0.297-0.06587 0.46559-0.03287 0.59959 0 0.135 0.065 0.43415 0 0.56515-0.099 0.1-0.0677 0.2639-0.2317 0.3679-0.166 0.098-0.59847 0.26614-0.66847 0.26614-0.066 0-0.33065 0.13182-0.43365 0.19882l-0.32876 0.13306c-0.103 0-0.23377-0.03199-0.40077 0-0.132 0.034-0.30165 0.06688-0.43365 0.03288-0.133-0.034-0.39921-0.19882-0.39921-0.19882s-0.26706-0.00104-0.13306 0.46496c0.097 0.468 1e-3 0.4341 0.036 0.7671 0.031 0.266 0.09669 0.49872 0.19569 0.56672 0.102 0.032 0.26777 0.09831 0.40077 0.03131 0.133-0.032 0.43091-0.03157 0.63091-0.26457 0.168-0.235 0.1684-0.33309 0.5354-0.46809 0.364-0.134 0.46271-0.23483 0.53071-0.23483 0.068 0.036 0.23151 0.10046 0.16751 0.36946-0.07 0.266-0.26457 0.59803-0.26457 0.59803s-0.00145 0.20089-0.07045 0.36789c-0.066 0.165-0.09851 0.29752-0.16751 0.43052-0.031 0.136-0.1315 0.33371-0.1315 0.53071 0 0.168-0.10026 0.13577-0.19726 0.40077-0.135 0.234-0.16538 0.36966-0.20038 0.46966 0 0.065-0.09864 0.13176-0.13464 0.36476-0.032 0.234 0 0.53191 0 0.66691-0.032 0.133-0.13307 0.33321-0.13307 0.39921 0 0.099 0.10176 0.33032 0.10176 0.33032s0.03195 0.2352 0.16595 0.1362c0.1-0.101 0.09938-0.20058 0.20038-0.30058 0.097-0.134 0.13371-0.16601 0.26771-0.29901 0 0 0.02974-0.10059 0.02974-0.33659 0 0 0.06732-0.06444 0.06732-0.26144 0.034-0.201-0.00125-0.3354 0.06575-0.5354 0.103-0.234 0.10332-0.56359 0.10332-0.56359s0.03194-0.20171 0.12994-0.30371c0.068-0.098 0.13464-0.29676 0.13464-0.36476 0-0.065 0.16751-0.30121 0.16751-0.39921 0.032-0.1 0.03218-0.40165 0.06418-0.43365l0.13307-0.43208 0.06732-0.36633s0.03419-0.43128 0.10019-0.53228c0.065-0.101 0.20039-0.36633 0.20039-0.36633s-0.102-0.10026 0-0.23326c0.133-0.133 0.10032-0.16582 0.33032-0.19882 0.202-0.066 0.26709-0.13326 0.46809-0.23326 0.234-0.1 0.29877-0.16882 0.40077-0.19882 0.097-0.036 0.46402-0.10355 0.29902 0.33345-0.135 0.431-0.33346 0.49627-0.33346 0.49627l-0.19882 0.06732-0.23639 0.2677-0.23013 0.09863s-0.13437 0.36633 0.13463 0.36633c0.265-0.034 0.49622-0.19752 0.69822-0.43052 0.167-0.236 0.53228-0.33502 0.53228-0.33502l0.03287-0.19882s0.10058-0.13326 0.30058-0.23326l0.13307-0.09863c0.099-0.101 0.16438-0.16682 0.16438-0.23482 0.034-0.134 0.06795-0.20263 0.16594-0.09863 0.133 0.064 0.13307 0.09776 0.13307 0.36476 0 0.232 2.5e-4 0.4324-0.06575 0.4994-0.033 0.067-0.033 0.19958 0 0.30058 0 0.131-0.03287 0.4314-0.03287 0.4994 0 0.033-0.06663 0.76373-0.09863 0.86573-0.033 0.099-0.06888 0.43171-0.06888 0.53071 0 0.103-0.06576 0.30134-0.06576 0.40234 0 0.065-0.06731 0.33196-0.06731 0.46496 0.034 0.135-1e-5 0.39864-0.03601 0.43364-0.029 0.064 0.07045 0.1317 0.07045 0.2317 0 0.098-0.03363 0.23257-0.09863 0.26457-0.065 0.067-0.23483 0.0352-0.23483 0.1362-0.032 0.101-2.4e-4 0.10121 0.10176 0.39921 0.068 0.267 0.13307 0.53147 0.13307 0.63247v0.10019c0.029 0.132 0.16326 0.33108 0.19726 0.43208 0 0.132-0.034 0.36709 0 0.43209 0 0.1 0.03526 0.43377 0.23326 0.40077 0.167-0.034 0.23546-0.00114 0.36946-0.26614 0.098-0.234 0.1967-0.23377 0.2317-0.40077 0.035-0.166 0-0.39853 0-0.46653 0-0.099-0.1002-0.23144-0.1002-0.29744v-0.16595s-0.0995-0.03495-0.1315-0.20195c-0.071-0.169-0.13351-0.23377-0.16751-0.40077 0-0.165 0.06288-0.46315 0.03288-0.52915-0.034-0.102-0.06688-0.27033-0.03288-0.40233 0-0.167 0.06419-0.33297 0.06419-0.50097 0.033-0.168 0.06987-0.56222 0.03287-0.69822-0.033-0.099-9.9e-4 -0.52965 0.03601-0.69665 0.066-0.133 0.09706-0.46747 0.09706-0.63247 0-0.167 0.06776-0.53348 0.10176-0.66848 0-0.101 0.06732-0.16601 0.06732-0.29901s-0.035-0.49879 0-0.69979c0.035-0.232 0.03562-0.29883 0.09862-0.49783 0.067-0.201 0.03601-0.33477 0.03601-0.40077s-0.03593-0.20002 0.13307-0.29902c0.164-0.102 0.22989-0.03375 0.33189-0.10175 0.132-0.065 0.29821-0.23001 0.3992-0.26301 0.101-0.034 0.19914-8.8e-4 0.26614-0.06888l0.19882-0.20039c0.1 0 0.20158 0.06624 0.30058-0.10176 0.099-0.164 0.1657-0.06281 0.2317-0.16281 0.068-0.101-5e-4 -0.23314 0.1315-0.26614 0.104-0.033 0.36922-0.10019 0.43522-0.10019 0.102-0.034 0.2642 3.7e-4 0.3992-0.09863 0.167-0.101 0.26602-0.10151 0.33502-0.16751 0.067-0.098 0.13413-0.13451 0.23013-0.16751 0.1-0.034 0.50304-0.13357 0.63404-0.26457 0.133-0.168 0.19944-0.16795 0.29744-0.20195 0.069-0.066 0.10203-3.1e-4 0.33502-0.03131 0.232-0.068 0.36527 0.03082 0.23327 0.19882-0.134 0.165-0.43284 0.39827-0.53384 0.53227-0.064 0.134-0.23102 0.29953-0.29902 0.72953-0.033 0.168-0.09807 0.33609-0.13307 0.46809-0.03 0.1-0.13451 0.30321-0.16751 0.43521-0.031 0.132-0.06418 0.59778-0.06418 0.66378l-0.09863 0.43365c-0.476 1.189-1.0967 2.801-1.6657 3.931v0.39921c0 0.165-0.03444 0.46339-0.03444 0.46339l-0.13463 0.36946-0.09707 0.23013-0.03444 0.26927 0.03444 0.46339 0.19726 0.20039s-0.06605 0.06937 0.20195-0.09863c0.229-0.2 0.40077-0.3992 0.40077-0.3992l0.16438-0.26771c-0.07-1.162 0.19086-2.3483 0.83286-3.3283l0.03131-0.30058s0.26658-0.66786 0.33658-0.83286c0.066-0.167 0.19726-0.29901 0.19726-0.29901l0.10176-0.16751 0.09862-0.16595s0.26502-0.33308 0.29902-0.43208c0.034-0.102 0.4684-0.59934 0.5354-0.66534 0.064-0.068 0.23089-0.29864 0.33189-0.13464 0.165 0.201 0.19882 0.09853 0.19882 0.46653 0 0.366-0.09751 0.66541-0.16751 0.79841-0.065 0.133-0.06431 0.30008-0.03131 0.43208 0.032 0.135-0.03432 0.26822-0.06732 0.43522 0 0.199 0.03356 0.56529-0.03444 0.83129-0.065 0.264-0.06544 0.76448-0.03444 0.96748 0 0.199-0.10112 0.69574 0.06888 1.1287 0.168 0.433 0.29946 0.60135 0.33346 0.70135 0.066 0.099 0.2317 0.59959 0.2317 0.59959s-0.09738 0.06695 0.09862 0.16595l0.20039 0.06732 0.30214 0.16594c0.1 0 0.12989-0.06712 0.33189 0.03288 0.199 0.133 0.3636 0.09818 0.5996 0.06418 0.232-0.031 0.59685-0.03011 0.83285 0.06889 0.233 0.1 0.29733-0.034 0.36633 0 0.097 0.067 0.23132 0.06719 0.33032 0.10019h0.40234l0.16438-0.16908 0.33502-0.16438s0.36477-0.13369 0.36477-0.23169c0-0.134 0.036-0.30233 0-0.36633l-0.09863-0.26927-0.06575-0.69822-0.10333-0.23326c-0.065-0.066-0.32764-0.29972-0.39764-0.56672-0.099-0.265-0.16682-0.73172-0.19882-0.82972-0.034-0.102-0.03432-0.36653-0.06732-0.46653-0.036-0.067-0.13313-0.23482-0.26613-0.23482-0.133 0.033-0.26614 0.09989-0.26614 0.36789 0 0.264 0.03105 0.6331 0.06105 0.7311 0.036 0.1 0.03601 0.53391 0.03601 0.66691 0.036 0.135-0.06575 0.29901-0.06575 0.29901l-0.1315 0.26614v0.26614s-0.06795 0.06662-0.16595 0.09862c-0.1 0.034-0.23365 0.1362-0.43365 0.1362-0.201 0-0.30221 0.03313-0.43521-0.03287-0.098-0.068-0.26564-0.13464-0.39764-0.13464-0.1-0.034-0.53234-0.09926-0.66534-0.23326-0.132-0.1-0.33189-0.20145-0.33189-0.33345 0-0.1-0.00101-0.19689-0.03601-0.33189-0.067-0.133-0.13319-0.26609-0.10019-0.43209 0.033-0.199 0.13588-0.16633 0.06888-0.40233-0.068-0.263-0.16907-0.53191-0.13307-0.63091 0.032-0.099-6.9e-4 -0.33295 0.03131-0.46495 0.033-0.135 0.10176-0.23546 0.10176-0.33346 0-0.135-6.9e-4 -0.29865 0.03131-0.43365 0.066-0.167 0.13307-0.26864 0.13307-0.43364 0-0.166-0.03213-0.26521 0.03287-0.39921 0.071-0.132 0.2024-0.46415 0.2364-0.56515l0.06262-0.33189c0.07-0.068 0.16951-0.10202 0.20351-0.33502 0.034-0.2 0.19883-0.26377 0.19883-0.40077 0-0.132-7.6e-4 -0.16545-0.06576-0.29745-0.036-0.133-0.16707-0.16796-0.13307-0.46496 0.034-0.301 0.06294-0.30058-0.13306-0.30058-0.233 0-0.33622 0.06619-0.43522 0.10019l-0.36633 0.09707s-0.09982 0.26801-0.19882 0.29901c-0.066 0-0.13414 0.03508-0.26614 0.16908-0.1 0.135-0.03495 0.06569-0.20195 0.23169-0.165 0.2-0.36476 0.33434-0.36476 0.40234 0 0.066-0.20227 0.26464-0.26927 0.39764-0.063 0.135-0.26457 0.33189-0.26457 0.33189s-0.23013 0.16544-0.23013 0.03444c0.032-0.134 0.16606-0.23133 0.13306-0.36633 0-0.1-0.03444-0.26577-0.03444-0.36477 0-0.101 0.16651-0.43471 0.13151-0.56671-0.034-0.168-0.03456-0.49947 0.03444-0.63247 0.066-0.166 0.19945-0.26721 0.29745-0.39921 0.067-0.1 0.36964-0.19758 0.43364-0.30058 0.067-0.1 0.23627-0.10113 0.26927-0.26613 0-0.168-0.00125-0.16802 0.06575-0.29902 0.065-0.136 0.33502-0.3322 0.33502-0.3992l0.09707-0.23483 0.13463-0.06419 0.09863-0.16907 0.19882-0.03131c0.103-0.035 0.23501-0.13464 0.29901-0.13464h0.16908s0.03338-0.10101 0.16438-0.29901c0.101-0.167 0.13269-0.33296 0.23169-0.46496 0.134-0.167 0.26771-0.40077 0.26771-0.40077s0.10188-0.03401 0.06888-0.29901c0-0.3-0.10014-0.46685-0.26614-0.53385-0.169-0.033-0.30214-0.03287-0.30214-0.03287s-0.36315 0.16501-0.52915 0.29901c-0.201 0.1-0.53447 0.4006-0.63247 0.59959-0.135 0.2-0.27009 0.29921-0.46809 0.39921-0.202 0.133-0.36708 0.1677-0.46808 0.2677-0.1 0.066-0.26452 7e-5 -0.43052 0.13307-0.2 0.1-0.40128 0.33177-0.53228 0.36477-0.103 0.035-0.29933 0.13382-0.40233 0.19882-0.1 0.069-0.0997 0.13463-0.2317 0.13463-0.168 0.032-0.36528 0.1347-0.53228 0.2317-0.168 0.066-0.50071 0.06732-0.56671 0.06732-0.033-0.031-0.33153-0.066-0.46653 0-0.1 0.069-0.13307 0.16714-0.13307 0.30214 0 0.131 0.03325 0.33052-0.06575 0.43052-0.131 0.068-0.19858 0.13551-0.30058 0.16751l-0.29901 0.13463c-0.065 0.03-0.23382 0.13312-0.19882-0.06888 0.033-0.199 0.06506-0.39828 0.09706-0.53228 0.037-0.098-0.06411 0.03536 0.06888-0.39764 0.167-0.4-0.03305-0.19947 0.16595-0.66847 0.234-0.465 0.09882-0.49847 0.19882-0.63247 0.099-0.1 0.23414-0.26633 0.30214-0.36633 0.065-0.133 0.16438-0.29977 0.16438-0.36477 0-0.101 0.03288-0.43208 0.03288-0.43208l-0.06419-0.23483c-0.035-0.033-0.10107-0.23533-0.13307-0.36633-0.034-0.101-0.26626-0.69984-0.23326-0.79684 0-0.067-0.06782-0.13395-0.19882-0.20195-0.134-0.033-0.46972-0.067-0.60272 0-0.132 0.068-0.23201 0.06795-0.29901 0.20195-0.065 0.131-0.19734 0.26395-0.36634 0.42895-0.197 0.135-0.1967 0.1357-0.2677 0.2677-0.063 0.134-0.29876 0.36697-0.36476 0.50097-0.034 0.132-0.03363 0.13258-0.09863 0.30058-0.068 0.097-0.16714 0.23176-0.26614 0.36476-0.065 0.1-0.16738 0.20001-0.20038 0.29901-0.1 0.235-0.16615 0.33491-0.30215 0.66691-0.131 0.332-0.19714 0.49847-0.26614 0.63247l-0.06418 0.09863c0 0.067-0.03489 0.2349-0.06889 0.3679-0.035 0.234-0.09694 0.13064-0.16594 0.39764-0.063 0.268-0.16582 0.4324-0.19882 0.4994-0.033 0.066-0.16626 0.33408-0.23326 0.43208-0.034 0.068-0.19751 0.23369-0.16751-0.03131 0.035-0.266 0.06575-0.19946 0.06575-0.33346 0-0.165 0.10288-0.16645 0.06888-0.33345-0.031-0.2-0.031-0.36453 0-0.46653 0.034-0.099 0.13451-0.46534 0.16751-0.66534 0.066-0.198 0.19882-0.49847 0.19882-0.63247v-0.79841s0.06663-0.13352 0.09863-0.46652c0.034-0.332-0.03312-0.39928 0.03288-0.53228 0.098-0.2 0.16751-0.4994 0.16751-0.4994l0.09862-0.40077v-0.46496s-0.19813-0.20133-0.23013-0.36633c0-0.167 0.06251-0.36552 0.13151-0.46652 0.035-0.133 0.16751-0.26614 0.16751-0.26614s0.03237-0.23314 0.16437-0.26614c0.135-0.034 0.33503 0 0.33503 0l0.20038-0.13463 0.16438-0.13151c0.102-0.067 0.40009-0.16638 0.46809-0.20038 0.097-0.032 0.53334-0.16733 0.62934-0.36633 0.102-0.167 0.30077-0.26589 0.40077-0.33189 0.102-0.067 0.2669-0.20039 0.36789-0.20039 0.135 0 0.46478-0.06596 0.40078-0.46496-0.035-0.232-0.20283-0.30009-0.23483-0.46809 0-0.133 0.13025-0.16889-0.06575-0.33189l-0.26614-0.20195c-0.202-0.165-0.36709-0.39908-0.46809-0.43208-0.07275-0.0255-0.1868-0.10582-0.28023-0.11585zm-15.42 0.02349c-0.06887 0.00609-0.11785 0.04011-0.1816 0.05948-0.132 0-0.13294 0.16714-0.16594 0.26614-0.068 0.099-0.13307 0.2317-0.13307 0.2317l-0.19882 0.10332c-0.067 0.065-0.10019 0.16445-0.10019 0.29745-0.035 0.166-0.03444 0.26852-0.03444 0.43052 0 0.168-0.09807 0.16771-0.13307 0.30371-0.065 0.131-0.20058 0.16576-0.30058 0.36476-0.063 0.233 0.09932 0.26721 0.06732 0.39921-0.068 0.168-0.06732 0.23377-0.06732 0.40077 0 0.133 0.09995 0.16438 0.20195 0.16438 0.134 0 0.26621-0.10019 0.39921-0.10019 0.131 0 0.26927 0.06827 0.26927 0.26927 0.031 0.198-0.07165 0.23201-0.20665 0.29901-0.129 0.033-0.03013 0.09882-0.23013 0.19882-0.198 0.099-0.26458 0.23483-0.26458 0.23483s-0.13169 0.19926-0.23169 0.23326c-0.069 0.033-0.10295 0.0657-0.16595 0.2317-0.037 0.133-0.2037 0.16726-0.2677 0.23326-0.07 0.067-0.26697-0.03444-0.50097-0.03444-0.19899 0-0.19957-1.2e-4 -0.30057 0.06888-0.101 0.033-0.26502 0.13296-0.29902 0.46496-0.034 0.3 0 0.2002 0 0.3992s0.16808 0.16627 0.43208 0.23327c0.3 0.032 0.33272-0.0672 0.56672-0.1002 0.2-0.067 0.26646-1.2e-4 0.36946 0.03288 0.131 0 0.22789 0.09863 0.29589 0.09863l0.2677 0.26926 0.29901 0.2317s0.26746 0.20001 0.33346 0.29901c0.099 0.132 0.23258 0.30058 0.30058 0.30058 0.064 0.034 0.39827 0.30021 0.53227 0.39921 0.135 0.134 0.26564 0.16614 0.39764 0.26614 0.132 0.101 0.43497 0.03444 0.50097 0.03444l0.23326 0.06732 0.2677 0.10019s0.29821 0.19845 0.39921 0.29745c0.097 0.099 0.4959 0.33477 0.6309 0.40077 0.134 0.098 0.33165 0.03099 0.43365-0.03601 0.132-0.098 0.166-0.29783 0-0.49783-0.133-0.165 0-0.23233 0-0.36633 0-0.133-0.06676-0.29996-0.10176-0.46496-0.065-0.132-0.43083-0.36877-0.49783-0.40077l-0.3679-0.06575c-0.363-0.201-0.2642-0.06607-0.3632-0.13307-0.101-0.033-0.26896-0.03288-0.50096-0.03288-0.235 0-0.19971-3.2e-4 -0.26771-0.06732-0.101-0.034-0.23296-0.09994-0.46496-0.16594-0.23299-0.066-0.23301-0.03364-0.29901-0.13464-0.099-0.098-0.46916-0.26488-0.60116-0.33188-0.134-0.034-0.16513-0.13283-0.26613-0.19883-0.064-0.1-0.1347-0.10107-0.2317-0.16907-0.1-0.065-0.13307-0.19726-0.13307-0.19726s-0.20121-0.16545-0.43521-0.33345c-0.231-0.133 0.06888-0.29901 0.06888-0.29901s0.09882-0.20027 0.19882-0.23327l0.56672-0.13306c0.099-0.033 0.33345-0.06707 0.33345-0.13307l0.23483-0.19882 0.36476-0.13464 0.16595-0.33345c0.032-0.068 0.23157-0.2659 0.26457-0.3679 0.035-0.065 0.16751-0.39715 0.16751-0.56515 0-0.132 0.09839-0.36496 0.20039-0.46496 0.101-0.133-0.06575-0.46652-0.06575-0.46652l-0.50097-0.23326c-0.066-0.034-0.1327-0.09883-0.2317-0.19882-0.134-0.068-0.16606-0.09871-0.13306-0.26771 0.067-0.2 0.033-0.3674 0-0.4994-0.033-0.164-0.2009-0.23245-0.3679-0.29745-0.06188-0.02587-0.11053-0.03183-0.15186-0.02817zm37.015 0.25517c-0.02916 3.9e-4 -0.0537 0.00314-0.07045 0.00314-0.065 0.036-0.23483 0.06738-0.23483 0.20038-0.034 0.1-0.06418 0.33346-0.06418 0.33346l-0.03288 0.13306s-0.07044 0.33296-0.03444 0.46496c0 0.168-0.03556 0.33478 0.03444 0.40078 0.063 0.066 0.09706 0.13413 0.09706 0.26613 0.036 0.134-0.03444 0.26646-0.03444 0.33346 0.034 0.1 0.16839 0.19869 0.23639 0.23169 0.032 0 0.23346 0.23346 0.33346 0.33346 0.1 0.101 0.30089 0.23414 0.36789 0.26614 0.066 0.033 0.23333 0.03362 0.36633 0.09862 0.165 0.07 0.29902-0.2642 0.29902-0.3992 0-0.1-8.2e-4 -0.19726 0.06418-0.23326v-0.39765c0.034-0.099-0.09894-0.23357-0.16594-0.30057l-0.26614-0.43209-0.03287-0.29901c-0.031-0.031-0.16682-0.23421-0.19882-0.39921-0.035-0.167-0.30221-0.26652-0.39921-0.46652-0.05175-0.12525-0.1771-0.13894-0.26457-0.13777zm-41.388 0.34285c-0.03797-0.00956-0.11227 0.02818-0.33502 0.02818-0.3-0.033-0.23483 0.23326-0.23483 0.23326s0.03288 0.2649 0.03288 0.3679c0 0.066 0.03236 0.19876-0.13464 0.36476-0.132 0.165-0.16313 0.20046-0.26613 0.33346-0.097 0.132-0.13151 0.33064-0.13151 0.39764l-0.16594 0.16751-0.23483 0.26614c-0.031 0.066-0.09794 7e-5 -0.16594 0.13307-0.064 0.132-1.9e-4 0.26733-0.06419 0.36633-0.036 0.065-0.0667 0.13414-0.2317 0.30214-0.133 0.131-0.06888 0.19701-0.06888 0.26301 0 0.034 0.20258 0.30077 0.30058 0.40077 0.132 0.067 0.2307 0.033 0.2677 0h0.3632c0.034-0.033 0.26614-0.16601 0.26614-0.29901 0-0.101 0.06876-0.16682 0.10176-0.19882l0.02974-0.26771c0.069-0.101 0.13464-0.10082 0.13464-0.23482-0.032-0.133 0.06888-0.19913 0.06888-0.23013 0.033-0.068 0.13213-0.16883 0.23013-0.23483 0.068-0.1 0.0997-0.1667 0.2677-0.2317 0.13-0.068 0.06732-0.20145 0.06732-0.33345 0-0.101 0.13314-0.13464 0.26614-0.13464 0.133 0.034 0.13351 0.10064 0.16751 0.13464 0 0.065 0.06563 0.16545 0.09863 0.33345 0.034 0.199 0 0.16345 0 0.29745-0.033 0.134 0 0.46784 0 0.53384 0 0.067-0.09907 0.29908-0.13307 0.43208-0.032 0.1-0.09851 0.46604-0.16751 0.63404-0.099 0.133-0.2317 0.33308-0.2317 0.43208 0 0.102-0.16594 0.29901-0.16594 0.29901v0.20039c0 0.032-0.16815 0.26652-0.30215 0.43052-0.133 0.135-0.03118 0.26921-0.06418 0.43521-0.033 0.165-0.0694 0.29827-0.2364 0.53227-0.23 0.334-0.26588 0.43228-0.29588 0.53228 0 0.134-3.2e-4 0.30108-0.06732 0.43208-0.099 0.167-0.16594 0.23446-0.16594 0.33346 0 0.1-0.20039 0.33502-0.20039 0.33502l-0.16751 0.16438c-0.1 0.099-0.03431 0.16401-0.06731 0.29901 0 0.134-0.1002 0.26927-0.1002 0.26927s-0.06307 0.16532-0.13307 0.33032c-0.064 0.201-0.26451 0.2339-0.16751 0.3679 0.07 0.099-0.0645 0.2007-0.1315 0.2677-0.064 0.098-0.16601-0.06767-0.29901 0.33033-0.134 0.432-0.20039 0.19882-0.20039 0.19882s-0.068-0.19909 0-0.43209c0.066-0.231 0.06607-0.23108 0.13307-0.43208 0.067-0.2-0.06763-0.13258-0.09863-0.30058 0-0.132 6.3e-4 -0.36496 0.09863-0.46496 0.101-0.099 0.1357-0.29927 0.2317-0.53227 0.103-0.201 0.36964-0.50016 0.43364-0.60116 0.07-0.098 0.13239-0.09706 0.20039-0.09706 0.1 0 0.06575-0.30177 0.06575-0.40077 0-0.101 0.13395-0.23102 0.20195-0.29902 0.065-0.099 0.16639-0.20113 0.20039-0.26613 0.032-0.035 0.09826-0.46667 0.23326-0.73267 0.164-0.269 0.02975-0.23402 0.02975-0.33502-0.03-0.066-0.09669-0.0655-0.19569-0.1315-0.102-0.067-0.26771 0.0335-0.26771 0.1315l-0.06888 0.26771-0.13307 0.13307c-0.033 0.067-0.09706 0.29964-0.09706 0.43364 0 0.098-0.23177 0.33272-0.36477 0.56672-0.135 0.232-0.33521 0.46615-0.43521 0.56515-0.102 0.067-0.20083 0.56478-0.23483 0.66378-0.063 0.133-0.33033 0.43472-0.36633 0.56672-0.032 0.167-0.1315 0.43364-0.1315 0.43364l-0.16908 0.39921-0.19725 0.63404 0.03287 0.33188-0.06575 0.23014v0.40077l-0.10019 0.43521-0.06888 0.33189v0.26614l0.10176 0.29901 0.23326 0.16908 0.23326 0.13307 0.16751-0.06732c0.689-0.53 0.75632-1.5275 1.4293-2.0665l0.03287-0.23326 0.13307-0.29589s0.13308-0.10126 0.16908-0.23326c0.065-0.133 0.26613-0.33502 0.26613-0.33502l0.09707-0.06575v-0.20039s0.20339-0.30008 0.23639-0.43208c0.066-0.098 0.29933-0.73217 0.36633-0.90017 0.098-0.166 0.09706-0.30058 0.09706-0.30058l0.16908-0.16438s0.13294-0.33265 0.16594-0.43365c0.062-0.1 0.13326-0.26801 0.19726-0.29901l0.1362-0.23483 0.06575-0.33189c0-0.065 0.2007-0.43327 0.2677-0.53227 0.032-0.099 0.19557-0.39803 0.26457-0.59803 0.067-0.166 0.06732-0.16627 0.06732-0.26927 0-0.098 0.03131-0.19645 0.03131-0.29745 0.036-0.1 0.13195-0.16757 0.20195-0.30057 0.067-0.099 0.06664-0.1987 0.13464-0.2317 0.099-0.067 0.16594-0.10051 0.16594-0.16751 0-0.066-0.03537-0.23346 0.09863-0.33346 0.133-0.098 0.06444-0.2652 0.03444-0.3992-0.066-0.131 0.03019-0.19882 0.06419-0.19882 0.035-0.035 0.06844-0.23477 0.03444-0.40077 0-0.166 0.16682-0.29921 0.19882-0.39921 0.068-0.065 0.16563-0.1317 0.13463-0.2317 0-0.1-0.06594-0.2342-0.16594-0.3992-0.067-0.168-0.33221-0.20039-0.39921-0.20039-0.103 0-0.50178 0.06688-0.69978 0.03288-0.201-0.069-0.2659-0.13395-0.3679-0.16595-0.065-0.066-0.26789-0.29934-0.33189-0.40234-0.033-0.133-0.16539-0.19757-0.20039-0.26457-0.00875-0.017-0.01708-0.02499-0.02974-0.02818zm-33.233 0.06262-0.16751 0.06575-0.23483 0.09863-0.19882-0.03287-0.16751 0.13306h-0.19882l-0.06575 0.1002-0.36633 0.30058h-0.1315l-0.2364 0.16594-0.26457 0.13464c-0.233 0-0.33345 0.09706-0.33345 0.09706l-0.29902 0.2677-0.16751 0.10019-0.33345 0.29902-0.33502 0.03444-0.06106 0.2317-0.16751 0.13306-0.23482 0.20196-0.26614 0.32875-0.10019 0.1362h-0.2317l-0.16908 0.16751-0.09706 0.19726-0.23326 0.43208-0.16438 0.2677-0.3679 0.66691-0.16751 0.13307-0.03131 0.19882s-0.13451 0.26533-0.20351 0.36633c-0.032 0.101-0.29746 0.46628-0.33346 0.53228 0 0.035-0.03106 0.1659-0.09706 0.3679-0.032 0.166-0.10263 0.16657-0.13463 0.26457-0.065 0.1 8.1e-4 0.16726-0.06419 0.23326l-0.10176 0.23483c0 0.098-0.06732 0.23326-0.06732 0.23326s0.00113 0.16632-0.03287 0.33032c-0.032 0.167-0.09951 0.23515-0.13151 0.30215-0.034 0.03-0.10332 0.16557-0.10332 0.26457 0 0.135-0.09594 0.3029-0.12994 0.3679-0.035 0.101-0.10019 0.36451-0.10019 0.43051-0.069 0.268-0.16726 0.26859-0.23326 0.33659-0.067 0.064 0 0.13045 0 0.29745 0 0.133-0.06719 0.13338-0.10019 0.20038-0.068 0.065-0.09907 0.46546-0.13307 0.59646-0.066 0.135-0.26645 0.59805-0.29745 0.93305-0.067 0.334-0.20352 0.19995-0.20352 0.16595v-0.69822c0-0.1-5.6e-4 -0.19902 0.03444-0.33502 0-0.163-1.2e-4 -0.19601 0.03288-0.26301 0.032-0.101 0.03219-0.33453 0.10019-0.46653 0.035-0.13299 0.03475-0.23557 0.06575-0.30057l0.06732-0.2317c0-0.1-0.06744-0.1007-0.03444-0.2677 0.067-0.165 0-0.26677 0-0.36477s0.03432-0.33577 0.06732-0.40077l0.03131-0.4994v-0.26614c0.037-0.1-3.1e-4 -0.33365-0.03131-0.43365 0-0.099 3.1e-4 -0.29932 0.03131-0.33032v-0.30058c-0.031-0.101 0.03757-0.23483 0.03757-0.23483v-0.23326c-0.037-0.101 0.06563-0.16525 0.09863-0.19725l0.13307-0.20195 0.03287-0.26614 0.03601-0.2317c0.031-0.069 0.0975-0.13383 0.1315-0.23483v-0.23326c0.034-0.098 0.09851-0.26532 0.16751-0.33032 0.065-0.069 0.03-0.30034 0-0.40234-0.034-0.132-0.03444-0.23057-0.03444-0.26457-0.035-0.067-0.20126-0.19946-0.23326-0.33346-0.031-0.098-0.19914-0.13282-0.26614-0.19882l-0.16751-0.06731c-0.067-0.034-0.13326-0.06882-0.23326-0.19882-0.101-0.134-0.29902-0.03445-0.29902-0.03445s-0.20038 0.06639-0.20038 0.20039l0.06732 0.20195-0.03288 0.16438-0.20195 0.13464v0.26457s0.06851 0.2662 0.16751 0.3992c0.1 0.135 0.03444 0.23258 0.03444 0.30058-0.034 0.032-4.4e-4 0.13558-0.03444 0.30058 0 0.132 0.06732 0.19882 0.06732 0.19882l0.06418 0.16438-0.06418 0.26771c-0.031 0.38099-0.00413 1.2354 0.03287 1.5984v0.33502l-0.03287 0.53071c-0.211 0.646-0.04807 1.2768-0.13307 1.9318l-0.03288 0.33189-0.03601 0.33346s-0.03287 0.09782-0.03287 0.19882c0 0.133 0.03287 0.20038 0.03287 0.20038l-0.1315 0.26301 0.09863 0.20195-0.03288 0.26771 0.13464 0.43051s3.1e-4 0.33566 0.03131 0.46966c0.068 0.166 0.03444 0.49783 0.03444 0.49783l0.03444 0.2677s-4.4e-4 0.13213-0.03444 0.23013v0.20196l-0.03444 0.20038-0.03131 0.19882 0.10019 0.16595v0.3992s-0.06888 0.2674-0.06888 0.4994c-0.031 0.2-0.1002 0.36633-0.1002 0.36633s-0.0985 0.06539-0.1315 0.20039c-0.067 0.132-0.09832 0.1677-0.06732 0.2677v0.43365c0 0.064 0.03238-0.03562-0.09862 0.16438-0.099 0.199 4.4e-4 0.33265 0.03444 0.43365 0 0.098 0.263 0.30058 0.263 0.30058s0.10064 0.13301 0.13464 0.29901c0.067 0.133 0.20176 0.23289 0.36476 0.33189 0.136 0.067 0.26946 0.033 0.33346 0 0.067-0.034 0.16907-0.2659 0.16907-0.3679l0.12994-0.23013 0.03601-0.1362v-0.36476c0.033-0.1 0.03288-0.19933 0.03288-0.36633 0-0.133-0.06788-0.10002-0.03288-0.29902 0.033-0.167 0.03288-0.26727 0.03288-0.53227 0-0.301-1.3e-4 -0.33397 0.03287-0.50097 0.036-0.166 0.03601-0.29901 0.03601-0.29901s-0.10176-0.26533-0.10176-0.36633c0-0.097-0.06575-0.33189-0.06575-0.33189l-0.06732-0.26614-0.03288-0.10019c0.146-0.809-0.03998-1.3776 0.29902-2.3326l0.03131-0.19725 0.03444-0.26927c0.071-0.576 0.69042-1.4728 0.83442-2.0618l0.1315-0.53227 0.09863-0.10176 0.13307 0.06419v0.20195l0.10176 0.16594 0.13307 0.16908 0.29744 0.06575h0.40078c0.103 0 0.20195 0.09863 0.20195 0.09863l0.03131 0.16751-0.16438 0.20195-0.06888 0.19569-0.03288 0.20038-0.26614 0.26771-0.03444 0.33345s4.4e-4 0.19764 0.03444 0.39764c0.034 0.199 0.10095 0.26746 0.16595 0.33346l0.03444 0.23326s-0.23415 0.3994-0.30215 0.4994c-0.063 0.099-0.23244 0.40072-0.29744 0.56672-0.068 0.168-0.13383 0.26808-0.23483 0.43208-0.098 0.168-0.13307 0.39927-0.13307 0.53227 0 0.099-6.2e-4 0.30322-0.06262 0.43522-0.103 0.134-0.16751 0.13269-0.16751 0.23169 0 0.098 0.23014 0.16639 0.26614 0.20039 0.067 0 0.29908-0.03332 0.43208-0.06732 0.134-0.034 0.19657-0.09982 0.26457-0.19882 0.068-0.133 0-0.20038 0-0.20038s0.10039-0.16658 0.20039-0.30058c0.1-0.165 0.20139-0.1002 0.23639-0.1002h0.19569l0.20195-0.13307c0.097-0.067 0.23013-0.13306 0.23013-0.13306h0.10176l0.16595-0.2317c0.035-0.034 0.03419-0.13326 0.10019-0.23326l0.06575-0.1002c0.134-0.133 0.06732-0.23302 0.06732-0.33502 0-0.132 0.09907-0.29776 0.13307-0.36476 0.069-0.034 0.06963-0.06726 0.13463-0.23326 0.032-0.133-0.03569-0.16614 0.03131-0.26614 0.035-0.131 0.20114-0.13095 0.26614-0.16595l0.13463 0.06576 0.1002 0.20038s0.03375 0.13214 0.06575 0.26614c0 0.134 0.10019 0.20039 0.10019 0.20039s-0.00144 0.3334-0.03444 0.4994c0 0.2-0.06575 0.23326-0.06575 0.23326s-0.1667 0.13326-0.2317 0.23326c-0.099 0.134-0.43208 0.33345-0.43208 0.33345l-0.06888 0.16438-0.26614 0.33189v0.03601l-0.13464 0.13307-0.16437 0.06732s-8.8e-4 0.13057-0.03288 0.26457c-0.036 0.135 0.09863 0.20038 0.09863 0.20038l0.23326-0.10019v-0.03131l0.16594-0.03444 0.30058-0.2317c0.098-0.035 0.16751-0.10332 0.16751-0.10332v-0.09706l0.16595-0.20196 0.23169-0.29901c0.066-0.099 0.20196-0.03444 0.20196-0.03444l0.16437 0.06888 0.13151 0.19882 0.13463 0.20039-0.03131 0.16438s0.1327 0.10395 0.2317 0.20195l0.29901 0.03131 0.23326-0.16438v-0.53541l-0.09862-0.1315s-0.06764-0.26408-0.13464-0.43208c-0.068-0.133-0.06732-0.56672-0.06732-0.56672l0.03601-0.33502 0.2317-0.46339 0.09862-0.33346v-0.20038l0.16908-0.29901 0.09863-0.1002 0.10019-0.33502-0.06575-0.29901-0.10019-0.33033-0.03288-0.23169-0.10176-0.03601-0.19882-0.19882h-0.16751l-0.26457 0.06575s-0.16783 0.13326-0.23483 0.23326c-0.065 0.102-0.06494 0.06576-0.16594 0.06576s-0.13307-0.36477-0.13307-0.36477l-0.1315-0.36633v-0.33502l-0.03445-0.13463 0.03445-0.52915-0.03445-0.20038-0.03444-0.76554-0.03287-0.39921-0.1002-0.16907-0.33345-0.09707-0.26614-0.036-0.39921 0.20038-0.03287 0.03288-0.16595 0.1362-0.13306 0.19882v0.29901l-0.3679 0.46496-0.16438 0.10176-0.16438 0.06575s-0.30134 0.06519-0.40234 0.10019c-0.102 0-0.33508 0.09951-0.43208 0.13151l-0.23326 0.10019-0.10176-0.16438 0.13307-0.33502 0.03444-0.3632 0.1315-0.23639s0.13352-0.29664 0.20352-0.39764l0.1315-0.26771 0.09863-0.19882 0.30058-0.10019 0.23483-0.43365 0.06575-0.09862 0.19882-0.33346 0.20039-0.33189 0.13307-0.16751c0.067-0.099 0-0.23145 0-0.29745l0.26457-0.20038 0.03444-0.06732 0.2317-0.33189c0.06599-0.101 0.30057-0.3679 0.30057-0.3679s0.43472-0.33464 0.56672-0.43364c0.135-0.098 0.56515-0.36477 0.56515-0.36477s0.10071-0.10176 0.26771-0.10176c0.13099 0 0.20038-0.06662 0.20038-0.09862l0.16595-0.2317 0.23169-0.13464 0.23483-0.13306 0.43208-0.13151 0.16751-0.16751 0.33033-0.10176c0.103-0.033 0.40077-0.06418 0.40077-0.06418l0.20195 0.16594 0.1315 0.06732 0.03444 0.29901c0.042 1.547-0.45364 3.1132-0.43364 4.7592l-0.03288 0.20195s-0.034 0.30021 0 0.39921c0.033 0.101-0.03444 0.29901-0.03444 0.29901l-0.20039 0.06732-0.13307-0.10176s-0.13151-0.09725-0.16751-0.19725c-0.031-0.101-0.30108-0.16595-0.43208-0.16595-0.097 0-0.23276 0.03288-0.36476 0.03288-0.134 0-0.30058 0.3992-0.30058 0.3992l-0.03288 0.16438 0.03288 0.26614v0.56672c0 0.135 0.16594 0.20195 0.16594 0.20195h0.30058s0.29921-0.03519 0.39921-0.10019c0.134-0.033 0.13463-0.20196 0.13463-0.20196l0.06575-0.16594s0.06695-0.16783 0.16595-0.23483l0.13307-0.02974 0.2677 0.1315 0.03288 0.33189-0.03288 0.33502c-0.225 1.88-0.09212 3.0924 0.03288 4.8954v0.23013l0.06575 0.13463 0.06888 0.20039-0.13463 0.66221v1.135l0.06575 0.2317-0.06575 0.30058 0.03287 0.40077v0.53071l0.06732 0.13463-0.03444 0.13307-0.19882 0.16595v0.16751l-0.16751 0.1315-0.20039 0.13463 0.13464 0.16595 0.06575 0.20038s2.5e-4 0.10227-0.06575 0.23327c-0.034 0.1-0.03445 0.26613-0.03445 0.26613l0.03445 0.26771 0.29901 0.39764 0.23483 0.39764 0.1315 0.40077 0.10019 0.03288 0.06732 0.10176 0.26614 0.13306s0.33351 0.06445 0.43051 0.03445c0.103-0.035 0.53385-0.40078 0.53385-0.40078l0.10175-0.40077 0.06419-0.1315-0.03288-0.30215 0.06732-0.09706v-0.23326l-0.13307-0.16751-0.10019-0.23326v-0.39921l0.03288-0.26614-0.03288-0.4994-0.03288-0.26613v-0.39921l-0.10019-0.56672-0.06732-0.4994-0.06575-0.13306-0.03131-0.16595v-0.33345l-0.10176-0.69979-0.03287-0.33345v-0.56672l-0.03444-0.1315-0.06576-0.40078-0.10175-0.66534 0.06888-0.33346-0.06888-0.53227s-0.1002-0.26733-0.1002-0.36633l0.03601-0.29902-0.06732-0.2677v-0.29901l-0.03287-0.69822 0.06418-0.26614 0.07045-0.83285s0.02975-0.50247 0.02975-0.63247v-0.30058l0.06888-0.43365v-0.26457l0.06418-0.73266 0.10176-0.26771-0.03287-0.23326s7.5e-4 -0.19747 0.06575-0.63247c0.033-0.431 0.16594-0.43051 0.16594-0.43051l0.16751-0.13464v-0.06575l0.2317-0.23326v-0.19882l0.10019-0.30058v-0.19882l0.26771-0.23483v-0.19882l-0.06889-0.13307v-0.13307l-0.06418-0.23482s-0.16439-0.73017-0.20039-0.86417l-0.03444-0.20038 0.10019-0.26458v-0.50253l-0.10019-0.23013-0.13307-0.20195-0.2317-0.06732-0.23326-0.16438h-0.90017l-0.16438-0.06575zm108.85 0.01566c-0.25354 0.01247-0.55216 0.09929-0.70291 0.15029-0.232 0.033-1.0973 0.23289-1.3323 0.33189-0.197 0.099-0.36476 0.3992-0.36476 0.3992l-0.9988 0.76554-0.29902 0.06732-0.33345 0.33345-0.23326 0.06575-0.16751 0.16751-0.3679 0.1002-0.23013 0.16438-0.30214 0.20038-0.29902 0.16751s-0.33158 0.06563-0.56358 0.09863c-0.2 0.034-0.26846 0.16858-0.33346 0.30058-0.069 0.1-0.10263 0.16645-0.13463 0.33345-0.034 0.132 0.06575 0.23289 0.06575 0.33189s-1.2e-4 0.20015 0.06888 0.30215l0.20039 0.36476c0.1 0.065 0.42983-1.2e-4 0.49783 0.03288 0.097 0 0.19958 0.03131 0.30058 0.03131 0.1-0.032 0.26521-0.1637 0.39921-0.2317 0.165-0.031 0.3312-0.0995 0.3992-0.1315l0.19882-0.33346s-0.03-0.16701 0-0.29901c0-0.135 0.10007-0.33377 0.13307-0.40077 0.068-0.066 0.26722-0.13251 0.47122-0.16751 0.197-0.033 0.16301-0.03263 0.26301-0.09863 0.101-0.067 0.13239-0.20026 0.20039-0.23326 0.098-0.034 0.23244-0.09982 0.29744-0.19882 0.103-0.099 0.2999-0.20227 0.3679-0.26927 0.063-0.064 0.13382-0.09982 0.19882-0.19882 0.068-0.099 0.06839-0.09907 0.20039-0.13307 0.101-0.034 0.16782-0.06407 0.19882-0.13307l0.20195-0.1315c0.096-0.035 0.19882-0.03444 0.19882-0.03444s0.13226-0.06582 0.23326-0.19882c0.098-0.133 0.16614-0.0672 0.26614-0.1002 0.132-0.033 0.43103-0.23357 0.59803-0.30057 0.165-0.098 0.16613-0.034 0.26613 0 0.101 0.067 0.13395 0.23457 0.16595 0.30057 0.037 0.067 0.16751 0.03314 0.16751 0.26614 0.034 0.232 0.034 0.33208 0 0.43208l0.03444 0.2317c0 0.067-4.4e-4 0.23421-0.03444 0.43521-0.033 0.233-0.03288 0.29878-0.03288 0.40078 0 0.098-0.03375 0.36407-0.06575 0.39607 0 0.069 6.9e-4 0.33272-0.03131 0.56672-0.037 0.267-0.03757 0.60116-0.03757 0.60116v0.49626c0.037 0.069 0.037 0.40397 0 0.50097-0.032 0.1-0.06575 0.26614-0.06575 0.26614v0.43364c0 0.066 0.03444 0.43279 0.03444 0.69979-0.034 0.232 0.03125 0.6331-0.06575 0.7671-0.101 0.099-0.03601 0.33121-0.03601 0.39921 0 0.066 0.037 0.26595 0 0.42895v0.53697c-0.033 0.264-0.09706 0.49715-0.09706 0.56515 0 0.097 0.033 0.26596 0 0.46496-0.036 0.2-0.03613 0.39859 0.03287 0.59959 0.064 0.2 0 0.20003 0 0.33502-0.033 0.13-0.06888 0.26458-0.06888 0.26458v1.1647c0 0.101-0.032 0.53235 0 0.66534 0 0.099 0.03601 0.53385 0.03601 0.53385v0.29901s0.06418 0.23345 0.06418 0.33345c-0.031 0.1 0 0.39996 0 0.46496l-0.03131 0.46653c-0.069 0.067 0.03131 0.29864 0.03131 0.39764 0 0.102-0.06507 0.27046-0.13307 0.36946l-0.16437 0.09863 0.03131 0.16594-0.03131 0.30215-0.06889 0.36633s-0.03444 0.19901-0.03444 0.29901c0 0.066-0.06506 0.33183-0.09706 0.49783-0.066 0.167-0.33452-0.06494-0.46652-0.16594-0.102-0.066-0.29745-0.50097-0.29745-0.50097l-0.2364-0.06418c-0.064-0.035-0.26676-0.16683-0.36476-0.23483l-0.16908-0.06575-0.23169-0.39921-0.13307-0.16594-0.26457-0.13307-0.16908-0.09863s-0.33096-0.16763-0.46496-0.13463c-0.136 0 0.03444 0.36496 0.03444 0.46496 0 0.06599 0.10095 0.13326 0.16595 0.23326l0.30058 0.16594 0.19725 0.2677s0.33365 0.60011 0.43365 0.76711c0.1 0.199 0.36821 0.69884 0.39921 0.79684 0.068 0.099 0.36653 0.43272 0.50253 0.56672 0.162 0.166 0.13145 0.09895 0.29745 0.16595 0.132 0.099 0.26613 0.3314 0.26613 0.4994 0.034 0.2 0.06889 0.16689 0.06889 0.36789 0.033 0.164 0.43202 0.19738 0.59802 0.16438 0.166 0 0.36477-0.23326 0.36477-0.23326l0.20038-0.36477 0.02975-0.36633s0.03601-0.36652 0.03601-0.46652c0.033-0.133 0.03444-0.39728 0.03444-0.53228 0-0.133 0.10007-0.23257 0.13307-0.30057 0.033-0.066 0.06551-0.2972 0.16751-0.3632 0.066-0.101 0-0.23659 0-0.33659 0-0.132 0.09862-0.20064 0.09862-0.39764 0-0.201 0.09864-0.43279 0.13464-0.69979 0-0.264-0.06851-0.2332-0.16751-0.3992-0.133-0.167-0.26626-0.29997-0.23326-0.50097 0-0.166 0.06519-0.39915 0.10019-0.56515 0.067-0.167 0.09863-0.36572 0.09863-0.56672 0-0.232-0.03169-0.3639 0.06731-0.6309 0.098-0.233-0.03287-0.29896-0.03287-0.50096 0.033-0.2 0.03287-0.69822 0.03287-0.69822s0.13395-0.83431 0.16595-1.1663c0.033-0.299 0.03276-1.1677 0.10176-1.3667 0.064-0.198 0-0.59585 0-0.79685 0-0.166 0.09706-0.59774 0.09706-1.1647 0-0.535 0.0337-0.56705 0.2677-0.93305 0.2-0.366 0.30215-0.79873 0.30215-0.86573 0.033-0.066 0-0.66441 0-0.79841 0-0.133 0.03287-0.63247 0.03287-0.63247l0.03288-0.36633s0.09938-0.53134 0.16438-0.66534c0.067-0.099 0.06714-0.63293 0.26613-0.96593 0.1-0.201 0.16596-0.60035 0.20196-0.70135 0-0.131-0.0672-0.36483-0.1362-0.49783-0.065-0.099-0.39608-0.46652-0.39608-0.46652s-0.16646-0.4021-0.36946-0.7311c-0.198-0.302-0.82986-0.3019-1.0959-0.3679-0.0675-0.0165-0.14718-0.01981-0.2317-0.01565zm-78.919 0.55106c-0.064 0-0.69672 0.09706-0.82972 0.09706s-0.43184 0.13339-0.49784 0.20039l-0.33658 0.16751s-0.09713 0.09738-0.23013 0.16438l-0.06732 0.06888c-0.132 0.032-0.33096 0.23232-0.46496 0.33032-0.099 0.068-0.23326 0.16751-0.23326 0.16751l-0.20039 0.03288-0.09862 0.13307-0.10176 0.06732c-0.101 0.068-0.19702 0.13294-0.29902 0.16594-0.133 0.034-0.23045 0.20014-0.33345 0.30214-0.133 0.067-0.5669 0.36509-0.6309 0.43209l-0.40078 0.23169c-0.067 0.035-0.23133 0.03425-0.36633-0.06575-0.134-0.134-0.26801-0.29945-0.29901-0.33345-0.068-0.068-0.10095-0.032-0.20195 0-0.066 0-0.06506 0.06551-0.09706 0.16751-0.033 0.065-6.9e-4 0.13169 0.03131 0.23169l0.06575 0.23326c-0.033 0.1-0.12994 0.16752-0.12994 0.16752-0.066 0.09899-0.16938 0.19988-0.20038 0.33188 0 0.134 0.06537 0.26746 0.16437 0.33346 0.068 0.067 0.03601 0.10082 0.03601 0.19882-0.035 0.134 0 0.20195 0 0.20195l0.19882 0.26301c0.033 0.101 0.19614 0.16751 0.26614 0.16751l0.53227-0.13151 0.3679-0.13306c0.097-0.1 0.09706-0.26765 0.09706-0.43365-0.03-0.166 0.0662-0.16682 0.1362-0.19882 0.098-0.035 0.2317-0.20195 0.2317-0.20195l0.16751-0.19726 0.20039-0.1362 0.33032-0.16594 0.13307-0.09863 0.06575-0.10019 0.10332-0.23327 0.16438-0.16594 0.13307-0.13307s0.06944-0.1017 0.03444-0.2677c0-0.167 0.03444-0.16751 0.03444-0.16751h0.26458c0.101 0 0.19769-0.1977 0.23169-0.2317l0.13464-0.19725 0.23013-0.10176 0.20508-0.16595 0.19726-0.06731 0.29901-0.16595 0.26614-0.16751 0.16751-0.1315 0.16594 0.06418 0.03444 0.16908v0.16594l-0.10176 0.29902-0.16594 0.19882-0.1315 0.2677-0.16751 0.16438-0.16595 0.26614-0.13307 0.13463-0.10019 0.16751-0.16438 0.29902-0.33502 0.56515-0.10019 0.13307c-0.067 0.102-0.13464 0.16751-0.13464 0.16751l-0.06418 0.23326-0.16751 0.13463h-0.29902v-0.16594c0.035-0.101-0.10019-0.16751-0.10019-0.16751l-0.13307-0.1002h-0.29901l-0.23326 0.03288-0.16751 0.30058-0.06732 0.10019 0.06732 0.09863 0.06575 0.20039-0.03131 0.06575-0.03444 0.09863v0.13306l-0.03131 0.10176-0.03601 0.16595-0.06419 0.19882v0.20038l0.06419 0.13151-0.02975 0.16751-0.06888 0.23482-0.06575 0.16595v0.23326l0.06575 0.16751v0.19882l0.13464 0.16595 0.06575 0.26613 0.13307 0.16751 0.29901 0.29902 0.10019 0.16751-0.03287 0.20038v0.23013l-0.10176 0.16751h-0.03131l-0.03444 0.43522-0.06732 0.53071c-0.024 1.671-0.16833 3.2179-0.36633 4.8609l-0.02975 0.53228v0.33345l-0.13463 0.33189v0.4994l-0.03288 0.53228-0.06888 0.13307-0.03444 0.30058v0.16751l0.03444 0.19882-0.09863 0.23482-0.06888 0.16438-0.03131 0.33189-0.06732 0.20195v0.19882l0.06732 0.13307s1.2e-4 0.06708-0.03288 0.16908c0 0.098 0.03288 0.26445 0.03288 0.29745l0.23326 0.50096c0.034 0.066 0.29977 0.33196 0.40077 0.46496 0.098 0.101 0.22933 0.13307 0.33033 0.13307l0.20038-0.06732 0.03288-0.13307 0.1315-0.19882s0.03601-0.13282 0.03601-0.23482c0-0.099-0.03601-0.33221-0.03601-0.39921 0-0.032-0.0965-0.16614-0.1315-0.26614 0-0.098-0.09863-0.33189-0.09863-0.33189s-0.06919-0.19858-0.10019-0.30058l-0.03444-0.16751c-0.031-0.099-0.06575-0.19757-0.06575-0.26457l0.06575-0.13307c0.034-0.099 0.06575-0.16638 0.06575-0.20038l-0.03131-0.16595 0.03131-0.16594-0.03131-0.23327 0.06732-0.23482-0.06732-0.13307 0.10019-0.16595c0.034-0.034 4.4e-4 -0.16413 0.03444-0.26613 0-0.1 0.06419-0.1327 0.06419-0.2317 0-0.068 1.2e-4 -0.2349-0.03288-0.3679 0-0.132-1.2e-4 -0.26733 0.03288-0.36633v-0.39764c-0.055-0.745 0.0805-1.4944 0.1315-2.2324l-0.09706-0.33189c-0.035-0.066 0.06575-0.20022 0.06575-0.43522 0-0.2 0.03131-0.39751 0.03131-0.43051l0.03601-0.50097v-0.29901s-0.10301-9.5e-4 -0.03601-0.16595c0.101-0.167 0.20195-0.39952 0.20195-0.46652l0.09863-0.26614c0.035-0.1-5.6e-4 -0.29976 0.03444-0.36476 0-0.1 5.6e-4 -0.26846-0.03444-0.36946 0-0.131-0.03156-0.19745 0.03444-0.29745 0.068-0.1 0.06831-0.23258 0.03131-0.30058-0.031-0.099-0.09738-0.19758-0.16438-0.30058-0.032-0.097 0.03432-0.19882 0.06732-0.19882l0.16595-0.13307 0.23169-0.13307 0.13464-0.06575c0.133 0 0.22957-0.03388 0.26457-0.06888l0.30214-0.03288 0.29902-0.13307 0.40077-0.06418 0.26457-0.16751h0.10019l0.13307-0.16595v-0.30058l-0.13307-0.20038v-0.29902c0-0.099-0.13306-0.39764-0.13306-0.39764l-0.06576-0.26614-0.16594-0.33502-0.06888-0.26613-0.16438-0.29902 0.03131-0.13307-0.06575-0.10019-0.06732-0.16594 0.16907-0.30058 0.13307-0.19882 0.23013-0.33502 0.23483-0.36477 0.19569-0.23326 0.10019-0.20195 0.26927-0.2317 0.1002-0.23326 0.23482-0.16594 0.09706-0.26614 0.07045-0.19882 0.16595-0.16751 0.03131-0.23483v-0.19726l-0.16595-0.10019-0.29901-0.13307-0.60429-0.1315zm28.225 1.1929c-0.16633 9e-3 -0.21917 0.1362-0.21917 0.1362l-0.03287 0.23326v0.43209l0.10332 0.33658-0.07045 0.19726s-7e-5 0.19958-0.13307 0.30058c-0.132 0.066-0.26614 0.26613-0.26614 0.26613l-0.13463 0.36477 0.2677 0.13307c0.098 0 0.29902-0.03131 0.29902-0.03131l0.23169-0.20039 0.26927-0.03287h0.33346l0.16438 0.33189s0.13526 0.16701 0.23326 0.29901c0.1 0.1 0.23169 0.13307 0.23169 0.13307l0.23796-0.2317 0.16438-0.03287 0.13307-0.16751 0.33346-0.26614 0.06731-0.26614-0.03287-0.66691s-0.3029-0.76461-0.3679-0.89861c-0.066-0.166-0.3679-0.13306-0.3679-0.13306l-0.79684-0.03445s-0.30185-0.16682-0.56985-0.19882c-0.0285-0.00425-0.05452-0.00441-0.07828-0.00313zm-41.84 0.1362-0.19882 0.16751-0.29745-0.06731-0.20195 0.03287-0.33345 0.16751-0.23483 0.2317-0.26614-0.03131-0.23013 0.263-0.2677 0.06889-0.16751 0.20038-0.26614 0.39921-0.2317 0.19882-0.16751 0.33345-0.23013 0.20039-0.30214 0.30058-0.19882 0.19725-0.06419 0.16595-0.10332 0.10019-0.23483 0.29902-0.23013 0.23326-0.03444 0.33345-0.16595 0.29902-0.20038 0.26926-0.06419 0.2317-0.23639 0.43521-0.26614 0.36477-0.09863 0.53071-0.23326 0.2317-0.16594 0.30371-0.03445 0.33188-0.13306 0.16595v0.20039l-0.06889 0.06888v0.12994l-0.26613 0.53384v0.26613l-0.06263 0.16438-0.036 0.33502-0.09863 0.29902-0.09863 0.23326s-0.06731 0.43259-0.06731 0.59959c-0.036 0.2-0.19927 0.66623-0.23327 0.73423 0 0.065-0.16594 0.43127-0.16594 0.53227 0 0.133-0.23326 0.56516-0.23326 0.56516l-0.16595 0.1315 0.03288 0.13463-0.03288 0.16595-0.30214 0.3992-0.16595 0.20196s-0.06607-7.6e-4 -0.13307-0.10176c-0.068-0.1 0.03445-0.29902 0.03445-0.29902l0.03287-0.29901 0.16438-0.26614-0.06575-0.23483 0.03444-0.39764 0.03131-0.23482 0.13464-0.36477s0.03287-0.23602 0.03287-0.33502 0.03288-0.23326 0.03288-0.23326l0.13307-0.06732 0.10175-0.1315c-0.047-1.011 0.39228-2.7272 0.53228-3.8292l-0.03288-0.26614 0.03288-0.26614 0.06732-0.23169 0.06731-0.3679-0.036-0.33189 0.19882-0.36633 0.03444-0.26457 0.13307-0.30371 0.06732-0.39764 0.03131-0.33189 0.07201-0.16595-0.13464-0.2677v-0.19882s-0.10263-0.20158-0.13463-0.30058c-0.034-0.102-0.2317-0.06575-0.2317-0.06575l-0.23482 0.13307-0.09863 0.26613c0 0.101-8e-5 0.19921-0.16908 0.39921l-0.13307 0.20039c-0.048 1.724-0.51522 3.1577-0.69822 4.9267l0.03445 0.23327s-0.06707 0.19751-0.13307 0.43051c-0.036 0.268-0.1002 0.79998-0.1002 0.79998l-0.06731 0.40077c-0.033 1.361-0.3502 2.2678-0.1002 3.6618l0.1002 0.3992s-0.034 0.20077 0 0.36477c0.068 0.166 0.43208 0.036 0.43208 0.036l0.23326-0.16751 0.06888-0.33032 0.19882-0.27083 0.16438-0.29745c0.068-0.133 0.16908-0.33189 0.16908-0.33189l0.06575-0.36633 0.2317-0.39921 0.16907-0.10019-0.036-0.16908 0.10019-0.16438 0.06575-0.23326 0.16595-0.33345 0.10332-0.19882 0.06419-0.46653 0.20195-0.46652 0.06575-0.36633 0.06732-0.36633 0.06575-0.53228 0.10019-0.40077 0.13307-0.39921 0.06732-0.36476 0.1315-0.16751 0.26614-0.46496s0.16814-0.2317 0.26614-0.2677l0.1315 0.06888s0.07232 0.09882 0.10332 0.19882l0.16595 0.16594c0.101 0.065 0.19857 0.16639 0.26457 0.20039 0.068 0.067 0.10019 0.03314 0.10019 0.26614s-0.16525 0.53159-0.19725 0.59959l-0.20039 0.23013s-0.10007 0.20022-0.13307 0.43522c-0.065 0.23199-0.031 0.39595 0 0.46495l0.06575 0.40078c0 0.098-0.06607 0.19901-0.16907 0.29901-0.131 0.131-0.19713 0.29976-0.23013 0.36476-0.07 0.102-0.09926 0.10234-0.23326 0.40234-0.133 0.299-0.20058 0.33165-0.26458 0.43365-0.035 0.065-0.03475 0.06408-0.10175 0.39607-0.067 0.301-0.0672 0.23715-0.1002 0.30215l-0.06575 0.13307s-7.5e-4 0.06826-0.06575 0.23326c-0.1 0.134-0.06732 0.26664-0.06732 0.39764 0 0.135 8.8e-4 0.30197 0.03288 0.50097 0.035 0.201 0.19914 0.13463 0.26614 0.13463 0.067-0.036 0.26495-0.06863 0.46495-0.13463 0.203-0.103 0.13527-0.26646 0.23327-0.33346 0.068-0.067 0.23357-0.09882 0.30057-0.19882l0.20039-0.30058 0.23326-0.23169 0.16595-0.06732 0.23169-0.03288-0.03444-0.1362s0.30259-0.36396 0.33659-0.46496c0.03-0.1 0.26457-0.43208 0.26457-0.43208l0.16908-0.06575 0.09862-0.23326 0.19882 0.29901s0.03288 0.29896 0.03288 0.46496c-0.033 0.132-0.03332 0.1327-0.06732 0.2677 0 0.1 8.2e-4 0.13527-0.06418 0.23327-0.067 0.101 0 0.13138 0 0.20038 0.034 0.034-0.03707 0.09814-0.13307 0.26614-0.101 0.198-0.0662 0.23345-0.1002 0.33345-0.035 0.099-0.06963 0.23276-0.13463 0.32876-0.069 0.07-0.20101 0.16871-0.29901 0.30371-0.1 0.099-0.2674 0.23233-0.4994 0.33033l-0.13464 0.03444c-0.264 0.068-0.59709 0.20001-0.73109 0.29901-0.1 0.068-0.23265 0.03288-0.43365 0.06888-0.197 0.066-0.43371 0.06563-0.53071 0.09863-0.1 0.033-0.26859 0.06551-0.33659 0.16751-0.031 0.099-0.09912 0.26689-0.19412 0.33189v0.23326l0.06105 0.20195s0.07033 0.16401 0.10333 0.26301l0.39764 0.20195s0.26733 0.03288 0.36633 0.03288c0.133-0.034 0.50228-0.19914 0.53228-0.26614 0.068-0.035 0.20257-0.1667 0.30057-0.2677 0.099-0.101 0.56829-0.16595 0.56829-0.16595h0.03131l0.2677 0.06575c0.099 0.034 0.1627-0.09969 0.2317-0.23169 0.064-0.1 0.2677-0.13307 0.2677-0.13307l0.26614 0.13307s0.19832 0.06663 0.33032 0.09863c0.102 0 0.23796-0.16595 0.23796-0.16595s0.195-0.20001 0.227-0.29901c0.035-0.099-0.13307-0.23321-0.13307-0.39921-0.031-0.167-0.2662-1.4e-4 -0.3632-0.30214-0.068-0.167 0.06575-0.33077 0.06575-0.36477l0.13151-0.29901c0.103-0.101 0.23482 0.10019 0.23482 0.10019l0.13464 0.19882s-0.03469 0.13346 0.03131 0.33346c0.069 0.198 0.26834 0.33364 0.40234 0.39764 0.132 0.102 0.16357-1.9e-4 0.26457-0.06419 0.066-0.101 0.03444-0.1677 0.03444-0.2677l-0.1362-0.26614c-0.032-0.099 0.00101-0.23289 0.03601-0.33189 0.033-0.133 0.03287-0.26745 0.03287-0.33345 0.033-0.066-0.20195-0.23346-0.20195-0.33346-0.03-0.1-0.03099-0.26576 0.03601-0.36476 0.065-0.067-0.06575-0.2359-0.06575-0.3679 0-0.1-0.13489-0.33315-0.06889-0.56515 0.034-0.101 0.1677-0.30033 0.2317-0.36633 0.035-0.033 0.2347-0.36728 0.2677-0.53228 0.032-0.136 0.06732-0.20002 0.06732-0.33502 0-0.134 1.9e-4 -0.26364 0.06419-0.39764 0.102-0.101 0.10175-0.16571 0.10175-0.30371 0.031-0.164-0.10194-0.2622-0.16594-0.3632-0.036-0.099-0.43109-0.00125-0.46809 0.06575-0.03 0.068-0.13307 0.33353-0.13307 0.46653 0 0.1-0.06594 0.20033-0.16594 0.36633-0.065 0.166-0.16483 2.5e-4 -0.23483-0.06575-0.032-0.1-0.09706-0.26734-0.09706-0.36634v-0.36633c0-0.067-0.03601-0.23402-0.03601-0.33502 0-0.065 0.06876-0.23345 0.10176-0.33345 0.067-0.097 0-0.26377 0-0.36477-0.033-0.098-0.033-0.33183 0-0.49783 0.032-0.167-0.065-0.69948 0-0.93148 0.032-0.235 0.13295-0.36572 0.20195-0.56672 0.033-0.2-0.2357-0.43227-0.2677-0.53227-0.067-0.101-0.2659-0.06676-0.3679-0.10176-0.098-0.032-0.29752-0.09919-0.43052-0.06419-0.166 0-0.20357 0.10039-0.30057 0.20039-0.069 0.066-0.09863 0.16351-0.09863 0.43051 0 0.268-0.13452 0.23171-0.20352 0.26771-0.064 0-0.19632 0.03106-0.33032 0.09706l-0.13464 0.03444c-0.099 0.033-0.36483 0.16726-0.49783 0.19726-0.098 0.038-0.13582-0.0297-0.19882-0.2317-0.098-0.232 0.23169-0.43208 0.23169-0.43208l0.2317-0.33346 0.23326-0.36476c0-0.033 0.06764-0.13414 0.13464-0.26614l0.10332-0.19882c0.064-0.099 0.26188-0.33365 0.29588-0.43365 0.031-0.132 0.19882-0.23326 0.19882-0.23326l0.20039-0.30058 0.13463-0.09863c0.034-0.067 0.03445-0.23502 0.03445-0.33502s0.23244-0.19814 0.29744-0.26614c0.098-0.067 0.16438-0.06575 0.16438-0.06575 0-0.131 0.0362-0.19601 0.1002-0.29901 0.103-0.1 0.29946-0.1987 0.36946-0.2677 0.065-0.066 0.29965-0.26377 0.43365-0.36477 0.1-0.133 0.33032-0.03444 0.33032-0.03444l0.26614-0.03131c0.233-0.1 0.33658-0.06732 0.33658-0.06732l0.2317 0.23326c0.666 0.032 0.62585 0.29929 0.79685 0.83129l0.10019 0.13464s0.06888 0.16657 0.03288 0.26457c-0.033 0.067 0.036 0.10045 0.036 0.33345 0.034 0.233-0.036 0.16827-0.036 0.23327l-0.03288 0.43364-0.06575 0.56672-0.06889 0.29901-0.16437 0.23327v0.19725l-0.19882 0.23326-0.16751 0.06732h-0.36634l-0.23169 0.26614-0.06732 0.36789v0.39921l0.03444 0.43208 0.16751 0.13307 0.19569-0.06575h0.30058l0.10019 0.06575v0.73266l-0.06575 0.20039 0.03131 0.56672-0.03131 0.49783-0.03444 0.33345v0.59803l0.16908 0.20039 0.06418 0.20195-0.06418 0.36633 0.09706 0.19725 0.03444 0.40078-0.03444 0.20038 0.06732 0.13307v0.13307l0.06418 0.29901v0.46653l0.03601 0.63247 0.03444 0.56515 0.02974 0.46652v0.29901l-0.06418 0.23327-0.20039 0.09862-0.36633 0.40234-0.16751 0.29901 0.16751 0.23327 0.30215 0.06731 0.1315 0.19882 0.19725 0.1002 0.13464 0.36789s0.20145 0.23084 0.29745 0.49784c0.102 0.298 0.26733 0.13307 0.40233 0.13307 0.133 0 0.2989-0.19958 0.3679-0.26458l0.10019-0.30058-0.036-0.2677-0.06419-0.33345-0.03444-0.19882-0.16751-0.20039s-0.03219-0.29928-0.10019-0.53228c-0.033-0.234-0.03288-0.33188-0.03288-0.33188l0.03288-0.26771-0.09863-0.26614v-0.33188l-0.03288-0.40078 0.06575-0.43364-0.06575-0.33189-0.09862-0.50097 0.06575-0.33189v-0.33189c-0.035-0.1-0.1002-0.20038-0.1002-0.20038v-0.43209l-0.13306-0.30058c-0.128-0.93299-0.07164-1.4203-0.13464-2.2653l0.16595-0.53071 0.06575-0.36633c0.033-0.885 0.73372-1.885 0.60272-2.699l0.10019-0.16594 0.16595-0.19882-0.06888-0.29901c0.039-0.702 0.05774-0.72745-0.19726-1.4324l0.10019-0.20039-0.16907-0.23326-0.16595-0.16594-0.13307-0.33189-0.09862-0.26614-0.1362-0.23483-0.13151-0.16594-0.06575-0.23326-0.03444-0.2317-0.12994-0.16595-0.16907-0.23482-0.13307-0.1002-0.20039-0.06575-0.23326-0.16751zm-32.964 0.83286h0.1362c0.165 0.034 0.36477 0.03287 0.36477 0.03287s0.29927 0.0662 0.49627 0.1002c0.169 0.034 0.26758 0.13337 0.33658 0.16437 0.033 0.036 0.19613 0.16758 0.23013 0.30058 0 0.101 0.06808 0.20134 0.16908 0.40234 0.098 0.198 0.19814 0.26421 0.26614 0.39921 0.065 0.133 0.098 0.53147 0 0.63247-0.135 0.097-0.16796 0.16594-0.20196 0.16594l-0.16594 0.16595c0 0.032 6e-5 0.13469-0.16594 0.23169-0.132 0.102-0.39928 0.40153-0.53228 0.50253-0.132 0.099-0.20145 0.23057-0.33345 0.26457-0.099 0.034-0.2984 0.16814-0.4634 0.26614-0.103 0.068-0.16795 0.10007-0.20195 0.13307l-0.3679 0.16751c-0.068 0.033-0.12926 0.06688-0.23326 0.03288-0.134-0.033-0.46339-0.06732-0.46339-0.06732s-0.3994-0.26601-0.4994-0.29901c-0.101-0.033-0.16663-0.16658-0.13463-0.30058 0.033-0.168 0.13463-0.70054 0.13463-0.76554 0-0.102 0.02875-0.10082 0.06575-0.19882l-0.036-0.23326c-0.03-0.099-0.03-0.26533 0-0.36633 0.037-0.1 0.10188-0.33109 0.06888-0.43209s-0.09907-0.29945-0.13307-0.33345c-0.032-0.067-0.032-0.16714 0-0.26614 0.034-0.067 0.06294-0.26658 0.16594-0.30058 0.134-0.032 0.36709-0.06494 0.43209-0.16594 0.031-0.099 0.43315-0.09907 0.60115-0.13307 0.167 0 0.36296-0.10019 0.46496-0.10019zm94.396 0.59802-0.6309 0.29902-0.39921 0.036-0.56671 0.16438-0.33502 0.10176-0.36477 0.20039-0.3679 0.06575-0.20038 0.19882s-0.4639 0.26733-0.6309 0.36633c-0.166 0.065-0.60116 0.29745-0.60116 0.29745l-0.16282 0.03601s-0.2359 0.16569-0.4039 0.23169c-0.199 0.101-0.59646 0.40077-0.59646 0.40077s-0.33597 0.23302-0.50097 0.29902c-0.197 0.066-0.73104 0.43415-0.89704 0.56515-0.201 0.102-0.66898 0.43584-0.83598 0.53384-0.131 0.101-0.49784 0.39921-0.49784 0.39921l-0.26457 0.09862-0.16751 0.23483-0.20195 0.10019s-0.13045 0.20095-0.29745 0.16595c-0.132-0.03-0.19725-0.26665-0.19725-0.43365 0-0.166 0.39607-0.43208 0.39607-0.43208s0.33409-0.33164 0.46809-0.39764c0.166-0.102 0.26457-0.23483 0.26457-0.23483s0.13382-0.30021 0.19882-0.39921c0.068-0.099 0.20196-0.56678 0.20196-0.69978 0.033-0.167 0.16751-0.29902 0.16751-0.29902s-0.10294 0.03323 0.09706-0.40077c0.168-0.431 0.0663-0.43158-0.2317-0.56358-0.299-0.133-0.43427 0.36483-0.53227 0.49783-0.102 0.099-0.53511 0.53191-0.76711 0.66691-0.198 0.1-0.43208 0.19882-0.43208 0.19882s-0.09907 0.30121-0.13307 0.39921c-0.033 0.102-0.29821 0.33252-0.43521 0.46652-0.099 0.099-0.16438 0.13201-0.16438 0.29901 0 0.166-0.13239 0.36753-0.20039 0.46653-0.066 0.101-0.09875 0.10076-0.06575 0.36476 0 0.234-0.19889 0.47035-0.36789 0.70135-0.131 0.234-0.03131 0.26721-0.03131 0.39921 0 0.134-0.06732 0.36428-0.06732 0.53228 0.034 0.199 0.40015 0.40027 0.56515 0.53227 0.167 0.165 0.46966 0.19882 0.46966 0.19882l0.36319 0.10176c0.034-0.168 0.80218-0.73241 0.90018-0.79841 0.099-0.034 0.16638-0.20258 0.20038-0.30058 0-0.133 0.39921-0.36477 0.39921-0.36477l0.26614-0.43521 0.23013-0.26457h0.33502l0.19882-0.26614h0.33502l0.46339-0.29901s0.23459-0.23615 0.33659-0.30215c0.132-0.066 0.26613-0.29901 0.26613-0.29901l0.23014-0.03288 0.26613-0.19882 0.33502-0.23483h0.19882l0.20196-0.30057 0.36476-0.16438 0.20195-0.1002c0.097-0.1 0.3632-0.13307 0.3632-0.13307l0.26614-0.16594 0.43365-0.2677 0.4994-0.30058s0.36609-0.19757 0.46809-0.26457c0.098-0.067 0.66272-0.26802 0.82972-0.29902 0.135-0.033 0.30233 0.031 0.36633 0 0.103-0.067 0.30214-0.16594 0.30214-0.16594l0.29902-0.06732 0.83285 0.09863h0.63091c0.16799 0 0.23257 0.06763 0.30057 0.13463 0.098 0.099 0.46496 0.19882 0.46496 0.19882s0.26689 0.23277 0.33189 0.36477c0.102 0.101 0.56816 0.43203 0.60116 0.63403 0.067 0.365-0.23333 0.26646-0.36633 0.33346-0.132 0.032-0.36622 0.39895-0.69822 0.46495-0.136 0-0.6693 0.29946-0.8673 0.33346-0.166 0.068-0.56434 0.16683-0.66534 0.23483-0.134 0.031-0.20295 0.13201-0.16595 0.29901 0 0.2 0.33265 0.1315 0.39765 0.1315 0.067 0 0.26776 0.033 0.36476 0 0.136-0.033 0.33634-0.19926 0.40234-0.23326l0.23326 0.03444 0.16438 0.33189c0.033 0.1 0.23639-0.10019 0.23639-0.10019l0.39764 0.03601s0.06726-0.06864 0.23326-0.13464c0.134-0.033 1.2317-0.033 1.6297 0s0.4362-0.46659 0.3992-0.59959c0-0.099-0.13157-0.36384-0.26457-0.53384-0.134-0.164-0.13401-0.23308-0.29901-0.43208-0.167-0.166-0.29977-0.46616-0.40077-0.60116-0.133-0.164-0.29784-0.29739-0.49784-0.46339-0.202-0.165-0.26614-0.29902-0.26614-0.29902s-0.29983-0.20033-0.49783-0.36633c-0.168-0.134-0.46809-0.13463-0.46809-0.13463l-0.39921-0.26457-0.40077-0.20196s-0.5666 0.10201-0.8986 0.03601l-0.66535-0.03601zm17.413 0.30058c-0.131 0-0.26613 0.1002-0.26613 0.1002l-0.10176 0.16751-0.03131 0.26457c0 0.033 0.06731-0.06623 0.06731 0.40077 0 0.465-7e-5 0.19845-0.13307 0.29745-0.1 0.067-0.13338-0.03242-0.20038 0.30058-0.066 0.3-0.03268 0.19833 0.06732 0.36633 0.1 0.134 0.19813 0.13394 0.26613 0.16594 0.066 0 0.26377 0.1012 0.36477 0.1362 0.135 0.065 0.20227 0.09838 0.26927 0.16438l0.40077 0.06575c0.065-0.033 0.13188-0.10019 0.29588-0.10019 0.201-0.032 0.36908-0.33264 0.43208-0.39764 0.032-0.101 0.09807-0.30033 0.13307-0.36633 0.033-0.068 0.03332-0.16702 0.06732-0.29902 0.065-0.167-4.4e-4 -0.36764-0.03444-0.43364-0.033-0.098-0.26308-0.19814-0.43208-0.26614-0.167-0.1-0.36583-0.16639-0.46183-0.20039-0.104-0.068-0.30277-0.16613-0.40077-0.26613-0.067-0.065-0.20115-0.0652-0.30215-0.1002zm-5.0613 0.1002c-0.063 0-0.09676 0.0985-0.36476 0.1315-0.234 0-0.36653-0.03288-0.46653-0.03288-0.066 0-0.36445 0.03371-0.33345 0.26771 0.064 0.232 0.036 0.20038 0.036 0.20038s-0.066 0.1656 0 0.59959c0.029 0.165-0.30214 0.66535-0.30214 0.66535s-0.20157 0.29908-0.26457 0.43208c-0.101 0.167-0.30058 0.63247-0.30058 0.63247l-0.20195 0.20195-0.06419 0.29901-0.20195 0.29902s-0.29877 0.16514-0.36477 0.26614c-0.033 0.131-6.2e-4 0.29808-0.09862 0.43208-0.135 0.132-0.46809 0.66691-0.46809 0.66691s-0.46496 0.53103-0.46496 0.63403c0 0.065-0.23501 0.33108-0.29901 0.43208-0.07 0.097-0.43209 0.43052-0.43209 0.43052s-0.26613 0.20115-0.26613 0.30215c-0.036 0.065-0.134 0.46652 0 0.46652 0.165 0 0.53134-0.36816 0.66534-0.60116 0.097-0.234 0.29821-0.53403 0.39921-0.59803 0.097-0.101 0.33364-0.33433 0.39764-0.36633 0.1-0.034 0.26457-0.19845 0.26457-0.33345 0-0.167 0.17083-0.50001 0.23483-0.29902 0.067 0.167 0.06613 0.56677 0.26613 0.36477 0.201-0.165 0.29909-0.33277 0.43209-0.36477 0.133-0.06799 0.53503-0.46527 0.63403-0.53227 0.101-0.1 0.39939-0.26865 0.46339-0.43365 0.104-0.2 0.26946-0.43252 0.36946-0.46652 0.133-0.033 0.23202-0.19889 0.29902-0.33189 0.032-0.134 1.9e-4 -0.16626 0.10019-0.23326l0.23483-0.03288c0.065-0.034 0.16457-0.10063 0.26457-0.13463 0.099-0.067 0.1337-0.06732 0.2317-0.06732 0.103 0 0.1689 0.06825 0.4039-0.06575 0.231-0.099 0.19913-0.06639 0.23013-0.20039 0.066-0.132-0.03049-0.06582 0.16751-0.19882 0.2-0.101 0.20039-0.03383 0.20039-0.23483 0.033-0.199 0-0.29783 0-0.49783s0.03287-0.23445 0.03287-0.33345 1.3e-4 -0.26678-0.03287-0.40078c0-0.096 0.06642-0.16633-0.03758-0.36633-0.097-0.197-0.3607-0.3322-0.4947-0.3992-0.134-0.1-0.0657-2e-4 -0.2677-0.1002-0.168-0.064-0.13314-0.09862-0.26614-0.09862h-0.33502zm-63.176 1.1992c0.05639 0.00436 0.11584 0.09863 0.11584 0.09863l0.03131 0.16594c0 0.101-0.03175 0.13583-0.06575 0.23483-0.032 0.1 0 0.13463 0 0.13463v0.16438s-0.10063 0.10183-0.13463 0.23483v0.03131l-0.16438 0.13464-0.06888-0.33346s0.06819-0.39941 0.10019-0.53541c0-0.098 0.06707-0.23144 0.13307-0.29744 0.01625-0.02525 0.03443-0.03433 0.05323-0.03288zm1.1131 0.03288 0.16751 0.03287 0.06262 0.09863s0.16708 0.23602 0.20508 0.33502c0.064 0.1 0.13106 0.06557 0.09706 0.26457-0.065 0.2 0.03432 0.10227 0.06732 0.26927 0.066 0.166 0.03319 0.36496 0.10019 0.46496 0.068 0.099-0.10007 0.19914-0.13307 0.26614-0.034 0.067-0.20014 0.26545-0.30214 0.33345-0.066 0.032-0.16457 0.10039-0.26457 0.20039l-0.06732 0.03131c-0.132 0.101-0.26496 0.03469-0.46496-0.03131-0.201-0.068-0.16707-0.36721-0.13307-0.39921 0.035-0.068 0.1002-0.2689 0.1002-0.3679 0.033-0.06699 0.03262-0.26589 0.09862-0.36789 0.031-0.099 0.10064-0.19845 0.13464-0.29745 0.03-0.133 0.06663-0.10151 0.09863-0.16751 0-0.065 0.06462-0.09965 0.09862-0.43365 0-0.166 0.06764-0.23169 0.13464-0.23169zm-54.378 0.31467c-0.09791-7.2e-4 -0.17575 0.09579-0.22857 0.15185-0.033 0.066-0.13362 0.29952-0.09862 0.46652 0 0.131-0.03532 0.19921-0.06732 0.39921-0.066 0.2 0.03163 0.13214 0.09863 0.26614 0.068 0.167-0.06663 0.23289-0.09863 0.33189-0.066 0.134-6.9e-4 0.2017 0.03131 0.2677 0.035 0.067 0.1687 0.33228 0.2677 0.56828 0.134 0.231 0.06744 0.29608 0.03444 0.39608 0 0.132 0.03332 0.16858 0.06732 0.30058 0 0.168 0.09795 0.3312 0.16595 0.3992 0.065 0.1 0.06506 0.16633 0.09706 0.36633 0.035 0.167 0.20195 0.23483 0.20195 0.23483 0.065 0.065 0.2994 0.13226 0.4994 0.19726 0.165 0.101 0.56578 0.034 0.66378 0 0.102-0.032 0.03607-0.09951 0.13307-0.13151l0.23482-0.06575 0.20039-0.16907 0.03444-0.39765s-0.16783-0.49915-0.23483-0.60115c-0.033-0.132-1.2e-4 -0.16426 0.03288-0.23326 0-0.066 0.1687-0.20014 0.2677-0.26614 0.101-0.099 0.16694-0.19814 0.12994-0.26614l-0.19569-0.03288c-0.067 0.033-0.33621 0.03332-0.43521 0.06732-0.097 0-0.13051-0.03432-0.16751-0.06732-0.033-0.033 0-0.19901 0-0.29901 0-0.101-0.16626-0.16739-0.19726-0.20039l-0.06731-0.13306-0.1002-0.39921c0-0.1-0.13369-0.16426-0.23169-0.23326l-0.20039-0.23326-0.2677-0.23327-0.23013-0.16438c-0.07-0.068-0.10327-0.2027-0.26927-0.2677-0.02475-0.01219-0.04786-0.01862-0.07045-0.01878zm79.506 0.50409c0.05836-5e-5 0.1184 0.02184 0.1769 0.07984 0.231 0.233 0.23095 0.33384 0.16595 0.53384-0.035 0.199-0.06732 0.39915-0.06732 0.56515-0.033 0.134-0.09807 0.43347-0.13307 0.63247-0.032 0.2-7.5e-4 0.50115-0.06575 0.56515-0.032 0.068 0 0.40297 0 0.50097l-0.13307 0.36633-0.09863 0.49783s-0.20101 0.30025-0.29901-0.06575c-0.071-0.267-0.2677-0.46652-0.2677-0.46652l-0.20196-0.13151s-0.13232-0.16699-0.33032 0l-0.06575 0.1002c-0.268 0.334-0.16908 0.46747-0.16908 0.63247-0.032 0.166 2.5e-4 0.43227-0.06575 0.53227-0.032 0.064-0.06575 0.16389-0.06575 0.33189-0.033 0.199-0.10108 0.43228-0.16908 0.53228-0.099 0.134-0.19608 0.36677-0.43208 0.40077-0.234 0-0.43127 0.16787-0.53227 0.03287-0.133-0.134-0.13307-0.16401-0.13307-0.29901 0.031-0.165 0.06794-0.33277 0.16594-0.40077 0.133-0.1 0.13339-0.23221 0.20039-0.39921 0.065-0.165 0.2317-0.53227 0.2317-0.53227l0.20195-0.43209 0.19882-0.36789 0.23326-0.23326 0.16594-0.53071 0.23483-0.16908 0.06419-0.06575 0.10019-0.29901 0.23326-0.29902 0.33189-0.40077s-0.03355-0.19901 0.07045-0.29901c0.098-0.101 0.06262-0.39921 0.06262-0.39921s0.03601-0.13383 0.03601-0.23483c0.02475-0.07425 0.18029-0.27852 0.35537-0.27866zm50.19 0.17847c-0.037 0-0.16895 0.03407-0.20195 0.13307-0.065 0.101-0.23201 0.16907-0.29901 0.16907-0.102 0.032-0.3679 0.16482-0.3679 0.19882l-0.16438 0.23327s-0.03332 0.09857-0.06732 0.26457c0 0.167 0.03464 0.20058 0.13464 0.30058 0.098 0.066 0.06575 0.23201 0.06575 0.29901l-0.10176 0.23326-0.03131 0.13464c0.03 0.032 0.10039 0.16757 0.20039 0.26457 0.067 0.102 0.06575 0.40077 0.06575 0.40077s0.13138 0.19933 0.16438 0.36633c0.037 0.168 9.4e-4 0.16689-0.09706 0.33189-0.101 0.165-0.03444 0.23326-0.03444 0.23326l-0.13464 0.16595-0.03131 0.33502-0.16594 0.1315s-0.07033 0.13226-0.10333 0.23326c-0.064 0.1-0.16438 0.23327-0.16438 0.23327l-0.10019 0.26613c-0.269 0.522-0.49035 1.2033-0.70135 1.7643v0.43365c0 0.133-8.8e-4 0.09757-0.03288 0.26457-0.033 0.167 0.032 0.33516 0 0.60116 0 0.298 0.16751 0.56634 0.16751 0.66534 0.032 0.066 5.1e-4 0.19977 0.16751 0.36477 0.167 0.133 0.29921 0.23533 0.39921 0.40233 0.069 0.132 0.06863 0.09795 0.13463 0.16595 0.1 0.066 0.16345 0.03287 0.29745 0.03287 0.102-0.032 0.20039-0.10126 0.20039-0.23326 0.035-0.167 0.10139-0.13194 0.23639-0.16594 0.165-0.035 0.36252 0 0.43052 0 0.098 0.034 0.16513 0.06563 0.23013 0.09863 0.069 0.034 0.1337 0.06851 0.2677 0.16751l0.20039 0.16594 0.13463 0.03131c0.065 0 0.32952 0.06732 0.43052 0.06732 0.102 0 0.23414-0.1977 0.30214-0.2317 0.031-0.067 0.39728-0.29977 0.53228-0.40077 0.133-0.131 0.26733-0.16438 0.36633-0.16438 0.1 0 0.19939-0.06895 0.46339-0.20195 0.27-0.132 0.1362-0.1977 0.1362-0.2317 0-0.033-0.10176-0.36516-0.10176-0.60116-0.035-0.23299 7e-5 -0.19639 0.13307-0.46339 0.102-0.267 0.03476-0.16759 0.10176-0.59959 0.03-0.399-0.10107-0.46572-0.13307-0.56672-0.033-0.066 0-0.16813 0-0.26613-0.033-0.067-0.06576-0.19989-0.10176-0.33189 0-0.135-0.06607-0.13502-0.13307-0.33502-0.065-0.199-0.26476-0.43296-0.36476-0.46496l-0.20195-0.06732c-0.064 0-0.09669-0.06819-0.19569-0.10019-0.103 0-0.13439 0.00131-0.23639 0.06731-0.1 0.066-0.23446 0.03376-0.33346 0.06576-0.099 0.067-0.06763 0.16594-0.09863 0.16594-0.069 0.033-0.43378 0.23333-0.69978 0.36633-0.131 0.066-0.23457 0.10064-0.26457 0.13464l-0.33502 0.10019v0.13307l-0.06576 0.19882v0.16594s-0.13501 0.13427-0.29901 0.26927c-0.202 0.132-0.29908 0.16526-0.43208 0.19726-0.133 0-0.26771 0.03349-0.26771-0.13151-0.036-0.167 0.13464-0.36633 0.13464-0.36633s0.13307-0.26708 0.13307-0.43208c0.032-0.134 0-0.30214 0-0.30214l0.33189-0.66535s0.06719-0.23333 0.10019-0.36633c0.065-0.101 0.19801-0.33252 0.29901-0.43052 0.102-0.102 0.29902-0.20038 0.29902-0.20038s0.26733-0.10095 0.36633-0.20195c0.102-0.097 0.19914-0.09651 0.26614-0.13151l0.33345-0.36633 0.03131-0.29901 0.16751-0.26614s0.06852-0.2029 0.20352-0.36789c0.13-0.167 0.12969-0.20014 0.23169-0.26614 0.101-0.099 0.10164-0.23164 0.13464-0.39764 0.062-0.168 0.03131-0.33309 0.03131-0.46809 0-0.133 2.4e-4 -0.23189-0.10176-0.33189-0.133-0.068-0.26614-0.20195-0.26614-0.20195l-0.19725-0.2317c-0.103-0.034-0.16653-0.03444-0.46653-0.03444-0.2 0-0.26589 0.00112-0.36789-0.03288l-0.16438-0.03287c-0.203-0.032-0.36921-0.06732-0.39921-0.06732zm-29.137 0.89234c-0.15586 0.01064-0.27419 0.24079-0.29744 0.34129v0.39764c0 0.1-0.06738 0.1667-0.16438 0.2677-0.072 0.102-2e-5 0.19814-0.07202 0.26614-0.063 0.101-0.16281 0.10176-0.16281 0.10176s-0.06639 0.26395-0.23639 0.46495c-0.167 0.233-0.09828 0.26765-0.53228 0.39765-0.434 0.102-0.46671 0.46884-0.53071 0.56984-0.101 0.098-0.26733 0.16289-0.36633 0.29589-0.134 0.168-0.40309 0.29945-0.46809 0.33345-0.1 0.034-0.19725 0.30058-0.19725 0.30058s-0.26947 0.2659-0.36946 0.3679c-0.098 0.132-0.09863 0.23064-0.09863 0.39764 0.033 0.134 0.26658-6.3e-4 0.30058-0.09863l0.23326-0.10019 0.26457 0.03131 0.26614-0.19882 0.30058-0.39921 0.49783-0.16594 0.29901-0.03445 0.36947-0.20195h0.1315s0.23602-0.23176 0.33502-0.36476c0.099-0.098 0.63141-0.46403 0.79841-0.59803s0.29977-0.33365 0.36477-0.43365c0.035-0.132 0.13695-0.49659 0.20195-0.59959 0.033-0.097 0.16751-0.3654 0.16751-0.4994 0-0.132-0.23258-0.36564-0.30058-0.39764-0.068-0.034-0.33728-0.13333-0.56828-0.36633-0.058-0.05825-0.11399-0.07869-0.16595-0.07515zm-38.989 0.20665-0.30058 0.06732-0.56672 0.03444-0.19725 0.2317-0.1002 0.06731-0.16594 0.1002c-0.034 0.066-0.10164 0.10126-0.13464 0.23326 0 0.168 0.06564 0.16751 0.13464 0.16751l0.16594 0.06575 0.1002 0.06732 0.06418 0.13307c0 0.067-0.09938 0.132-0.16438 0.263l-0.03287 0.07045c-0.071 0.198-0.13296 0.36521-0.20196 0.39921l-0.09862 0.09863-0.06419 0.16594c-0.034 0.069-0.10507-0.00105-0.16907 0.20195-0.069 0.164-0.10415 0.09745-0.30215 0.29745-0.166 0.166-0.29764 0.29983-0.39764 0.49783-0.133 0.235-0.09932 0.33465-0.06732 0.43365 0 0.1-0.03287 0.2337-0.03287 0.2677s0.06819 0.23303 0.10019 0.33502c0 0.064 0.06539 0.23152 0.20039 0.43052 0.165 0.168 0.39551 0.033 0.43051 0l0.23796-0.2677 0.2317-0.06575 0.13307-0.19882 0.03287-0.03288 0.16438-0.10176c0.102-0.065 0.13307-0.13307 0.13307-0.13307 0.132-0.5 0.56672-0.29744 0.56672-0.29744 0.1 0.032 0.09893 0.19933 0.12993 0.36633 0.036 0.166-0.02974 0.33064-0.02974 0.39764l-0.06732 0.30214c-0.034 0.097 0 0.29588 0 0.29588 0 0.236-0.0655 0.20102-0.1315 0.33502-0.069 0.133-0.03601 0.23346-0.03601 0.33346l-0.06418 0.36633c-0.032 0.066-0.13464 0.19801-0.13464 0.29901 0 0.135-0.03132 0.16502-0.06732 0.29902-0.06499 0.134-0.29808 0.10163-0.43208 0.13463h-0.03131c-0.104 0.034-0.20089 0.0977-0.36789 0.2317-0.167 0.168-0.30272 0.10019-0.56672 0.10019-0.267 0-0.1652-0.06507-0.3632-0.13307-0.202-0.034-0.13514-0.06575-0.26614-0.06575-0.134-0.034-0.13445 0-0.33345 0-0.236 0-0.19971 0.09894-0.26771 0.16594-0.066 0.033-0.19982 0.06683-0.23482 0.19883-0.034 0.133 6.3e-4 0.23402 0.13463 0.33502 0.132 0.131 0.13219 0.19757 0.10019 0.26457 0 0.069 0.0677 0.23332 0.2317 0.33032 0.101 0.103 0.26965 0.16908 0.43365 0.16908 0.166 0 0.33396 0.03419 0.50096 0.10019 0.166 0.033 0.23013 0.26701 0.23013 0.29901 0.037 0.034 0.09883 0.23502 0.23483 0.29902 0.102 0.102 0.13514 0.16902 0.26614 0.33502 0.134 0.166 0.1637 0.13101 0.2677 0.29901l0.1002 0.16595c0.167 0.334 0.03018 0.23602 0.06418 0.33502 0.067 0.098 0.06688 0.23176 0.03288 0.36476-0.033 0.099 0.03388 0.26646 0.06888 0.33346 0.031 0.067-0.03481 0.0335 0.10019 0.1315 0.096 0.134 0.09671 0.19877 0.26771 0.40077 0.063 0.066 0.13107 0.16839 0.39607 0.20039 0.231 0.034 0.4694-0.26709 0.4994-0.43208 0.069-0.201 0.06888-0.23409 0.06888-0.46809-0.037-0.232-0.037-0.29777 0-0.36477 0-0.068 0.03219-0.13414 0.06419-0.26614 0.032-0.136-0.06419-0.16714-0.06419-0.30214-0.037-0.132 0.09594-0.30008 0.12994-0.43208 0.036-0.1 0.10019-0.26664 0.10019-0.39764 0.035-0.167 0.03601-0.30103 0.03601-0.33503 0-0.066 0.03275-0.30027 0.06575-0.53227 0.032-0.201-0.1015-0.36796-0.1315-0.46496-0.034-0.102-0.03444-0.30089-0.03444-0.36789l-0.13307-0.36477c-0.032-0.099 0.06306-0.30008 0.09706-0.43208 0-0.102 0.10019-0.10176 0.10019-0.10176 0.035 0 0.13271-0.06588 0.26771-0.03288 0.1 0 0.13182 0.06575 0.19882 0.06575l0.29901 0.09863 0.20195 0.16908s-0.0338 0.16689 0.1002 0.33189c0.099 0.2 0.16526 0.33365 0.23326 0.43365 0.064 0.099 0.06418 0.1315 0.06418 0.1315l0.06889 0.26614c0.032 0.067 0.03218 0.19876 0.06418 0.36476 0.067 0.402 0.26733 0.40221 0.36633 0.43521 0.101 0.034 0.3011 0.10152 0.5041 0.16752 0.196 0.06599 0.49627 0.03131 0.49627 0.03131s0.26538-0.23135 0.20038-0.66535c-0.033-0.198-0.03312-0.43371 0.03288-0.53071 0.067-0.135-0.10251-0.43403-0.16751-0.63403-0.067-0.165-0.06694-0.26533-0.16594-0.36633-0.099-0.098-0.16758-0.19914-0.30058-0.26614-0.132-0.066-0.43315-0.20014-0.56515-0.26614-0.098-0.066-0.46496-0.23326-0.46496-0.23326-0.168-0.1-0.30215 0.03288-0.30215 0.03288s-0.09857 0.03375-0.26457 0.10175c-0.4 0.099-0.49841 2.5e-4 -0.79841-0.10175-0.234-0.065-0.13263-0.39971-0.09863-0.53071 0-0.101 0.02974-0.43429 0.02974-0.56829 0-0.097 0.03601-0.36652 0.03601-0.46652 0-0.132-0.03601-0.36503-0.03601-0.59803 0.035-0.233 0-0.59922 0-0.73422 0.035-0.232 0.20196-0.19882 0.20196-0.19882l0.06575-0.23327s0.26327-0.16557 0.53227-0.26457c0.233-0.131 0.16695-0.23221 0.20195-0.39921 0-0.16699-0.4004-0.33464-0.5354-0.43364-0.165-0.132-0.29902-0.06575-0.29902-0.06575s-0.19676 0.03337-0.36476 0.16437c-0.2 0.134-0.33189 0.43522-0.33189 0.43522s-0.26933 0.16769-0.36633 0.23169c-0.102 0.067-0.23601 0.26621-0.29901 0.39921-0.103 0.133-0.26734 0.16601-0.40234 0.29901-0.067 0.066-0.1317 0.09851-0.2317 0.16751-0.104 0.099-0.2007 0.16514-0.2677 0.26614-0.131 0.201-0.36734 0.06524-0.40234-0.10176-0.03-0.164 0.10333-0.29901 0.10333-0.29901l0.23326-0.26457 0.22856-0.26614 0.10489-0.23326 0.03131-0.06732 0.20039-0.10019 0.06575-0.16595 0.16594-0.26457 0.53071-0.07045s0.26834-0.06418 0.40234-0.06418 0.26589-0.19958 0.33189-0.30058c0.07-0.099 0.20195-0.36633 0.20195-0.36633s-0.23496-0.49803-0.46495-0.59803c-0.203-0.101-0.30058-0.10176-0.30058-0.10176zm41.023 0.10176-0.16595 0.16438v0.20195l0.02975 0.33189 0.06888 0.16595 0.23326 0.43364c0.033 0.101 0.23327 0.26771 0.23327 0.26771l0.13306 0.19882 0.13307 0.26613h0.26614c0.1-0.032 0.43052-0.06575 0.43052-0.06575l0.16751-0.13463s0.06744-0.23377 0.03444-0.36477c0-0.167-0.09895-0.26677-0.20195-0.40077-0.1-0.132-0.0642-0.26701-0.1002-0.29901l-0.23013-0.23326s-0.1687-0.13427-0.2677-0.23327-0.23202-0.13438-0.33502-0.20038l-0.42895-0.09863zm16.31 1.4512c-0.02439 0.00155-0.04537 0.00584-0.06262 0.01409l-0.06575 0.29902-0.03444 0.23326c-0.032 0.066-0.03163 0.29977-0.09863 0.40077-0.069 0.099-0.23414 0.39596-0.26614 0.46496l-0.1362 0.26457-0.16281 0.23639-0.16595 0.39764-0.16751 0.33502-0.13463 0.09863-0.19882 0.2317c-0.066 0-0.13307 0.09982-0.13307 0.19882 0 0.101-0.06576 0.13494-0.10176 0.16594l-0.03444 0.2364-0.2317 0.23169-0.26457 0.36633-0.1362 0.20039-0.12994 0.10019v0.19882l-0.13463 0.13464-0.06419 0.26614-0.20195 0.19725-0.20195 0.30214-0.06419 0.23327s-0.23457 0.2982-0.26457 0.3992l-0.10332 0.2317-0.2317 0.30214s-0.13538 0.2632-0.20038 0.3632c-0.033 0.134-0.16482 0.40209-0.19882 0.46809l-0.1362 0.29745-0.09707 0.13307s5.6e-4 0.23345-0.03444 0.33345c-0.033 0.134 0.03444 0.3679 0.03444 0.3679s-0.10069 0.20046 0.03131 0.33346c0.102 0.167 0.20315 0.16751 0.30215 0.16751s0.19732 0.09811 0.33032-0.06889c0.133-0.168 0.23433-0.19901 0.36633-0.29901 0.131-0.098 0.26634-0.1337 0.40234-0.2317 0.165-0.135 0.33189-0.20038 0.33189-0.20038h0.10019l0.16438-0.29902 0.20352-0.1362 0.26614-0.13306 0.03287-0.13151s0.10014-0.03507 0.26614-0.13307c0.167-0.101 0.36571-0.26758 0.53071-0.30058 0.165-0.034 0.53448-0.26758 0.66848-0.30058 0.097-0.065 0.36428-0.19794 0.56828-0.16594 0.231 0.067 0.46071 0.06694 0.53071 0.16594 0.064 0.102 0.13169 0.36696 0.19569 0.46496 0.104 0.102 0.10332 0.26927 0.10332 0.26927l0.03288 0.16438 0.16594 0.06732c0.034 0.101 0.16757 0.26701 0.26457 0.29901h0.30215c0.063-0.065 0.23132-0.19826 0.33032-0.23326 0.102 0 0.26959 2.5e-4 0.33659-0.06575 0.098-0.067 0.26501-0.39897 0.29901-0.50097 0.032-0.131 0.03131-0.46414 0.03131-0.52914 0-0.068-0.13238-0.26734-0.16438-0.40234-0.068-0.132-0.23326-0.43271-0.23326-0.53071-0.034-0.101 2.4e-4 -0.16638-0.10176-0.20038-0.065-0.033-0.1315-0.06651-0.1315-0.16751-0.035-0.098 0.09881 9.8e-4 -0.10019-0.29902-0.203-0.266-0.30133-0.26676-0.36633-0.36476-0.035-0.103-0.16583-0.23327-0.23483-0.23327l-0.26614-0.06575-0.39921-0.03444c-0.034 0-0.09825-0.13307-0.19725-0.13307-0.135 0-0.29965 0.03213-0.43365-0.03287-0.132-0.067-0.26701-0.035-0.29901 0-0.036 0.033-0.06732 0.16545-0.06732 0.29744 0 0.099 7e-5 0.29978 0.13307 0.40078 0.134 0.1 0.13425 0.03482 0.19725 0.23482 0.036 0.199 0.07202 0.4634 0.07202 0.4634s-0.03564 0.16582-0.13464 0.19882c-0.103 0-0.20046 0.06707-0.36946 0.13307-0.133 0.103-0.49672 0.16895-0.56671 0.20195l-0.33033 0.20038-0.63247 0.33346-0.40233 0.23013-0.19569 0.03444-0.30215 0.16751c-0.067 0.034-0.26576 0.13206-0.36476 0.09706-0.071-0.032-0.23496 4.3e-4 -0.20196-0.26457 0.035-0.265 0.33503-0.66691 0.33503-0.66691l0.19725-0.39921 0.20039-0.06731 0.10175-0.16438c0-0.066 0.06551-0.29965 0.16751-0.43365 0.133-0.168 0.56535-0.73205 0.66535-0.93305 0.066-0.166 0.29864-0.42983 0.39764-0.49783l0.26614-0.33346c0-0.034 0.0355-0.16769 0.1315-0.23169l0.56672-0.4994v-0.10176l0.20195-0.23326c0.065-0.066 0.13425-0.26477 0.19725-0.36477 0.036-0.101 0.07196-0.20182 0.20196-0.23482 0.133-0.066 0.16726-0.03195 0.23326-0.16595 0.098-0.134 0.23201-0.33333 0.29901-0.36633 0.102-0.032 0.23345-0.10151 0.29745-0.16751 0.103-0.032 0.20251-0.16621 0.16751-0.39921-0.064-0.2-0.13307-0.39607-0.13307-0.39607s0.03437-0.06751-0.09863-0.16751c-0.132-0.1-0.19958-0.13395-0.30058-0.20195-0.064-0.065 4.9e-4 -0.13151-0.16751-0.13151h-0.29744c-0.0975 0-0.19767-0.01873-0.27084-0.01409zm-96.79 0.01409 0.16594 0.03288c0.17 0.132 0.19882 0.23189 0.19882 0.33189-0.03 0.099 0.10176 0.26689 0.10176 0.33189 0 0.036-0.1015 0.03563-0.1315 0.13463-0.037 0.1-0.10295 0.20051-0.20195 0.16751l-0.13307-0.03444-0.06575-0.03288c-0.069 0-0.26615-1.9e-4 -0.30215-0.10019-0.064-0.135-0.16606-0.13526-0.09706-0.23326 0.066-0.134 0.19882 9.4e-4 0.19882-0.09706l0.03288-0.26927 0.16751-0.19882 0.06575-0.03288zm17.715 0.39921v0.2317l0.06576 1.9647 0.1315 0.23326-0.03131 0.26457-0.33189 0.23326-0.4994 0.60116-0.2677 0.16595-0.16595 0.13307-0.36633 0.43364s-0.19808 0.33346-0.43208 0.33346c-0.267 0-0.10332-0.40077-0.10332-0.40077s0.20258-0.26416 0.33658-0.56516c0.098-0.26599 0.1672-0.1672 0.3632-0.3992 0.233-0.201 0.17026-0.36709 0.23326-0.46809l0.13464-0.1315c0.103-0.101 0.26744-0.20127 0.29744-0.26927 0.034-0.066 0.1684-0.29795 0.2364-0.42895 0.064-0.168-0.10352-0.46704-0.20352-0.63404-0.064-0.134-0.03288-0.23289-0.03288-0.36789 0.034-0.164 0.20214-0.1324 0.26614-0.4634 0.034-0.302 0.16595-0.43364 0.16595-0.43364l0.20351-0.03288zm-18.249 1.996c0.069 0 0.06876 0.03451 0.10176 0.16751 0.033 0.166 1.2e-4 0.16614-0.03288 0.26614-0.037 0.1-0.03688 0.10026-0.06888 0.23326-0.03 0.099 2.5e-4 0.16726-0.02975 0.23326-0.035 0.031-0.1677 0.19802-0.2677 0.29902l-0.10019 0.10176c-0.099 0.131-0.26658 0.03168-0.30058-0.06732-0.033-0.101 0.03444-0.2349 0.03444-0.3679 0-0.101 0.2317-0.19882 0.2317-0.19882l0.10019-0.30214 0.03444-0.06575 0.13307-0.19726 0.10019-0.06732 0.06419-0.03444zm80.588 0.68413c-0.0915 0-0.20778 0.01566-0.34128 0.01566-0.233 0.032-0.23297 0.09963-0.50097 0.13463-0.298 0-0.29901 0.16438-0.29901 0.16438s-0.10026 0.09964-0.23326 0.13464c-0.098 0.033-0.46503 0.2677-0.59803 0.2677h-0.26614s-0.1317 0.16438-0.2677 0.16438c-0.099 0.034-0.36397-2.5e-4 -0.50097 0.06575-0.131 0.035-0.19725 0.30214-0.19725 0.30214l0.16594 0.06419s0.13395 0.1007 0.20195 0.2677c0.096 0.135 0.23202 0.16527 0.29902 0.23327 0.064 0.035 0.29864 0.0665 0.39764 0.1315 0.1 0.036 0.13482-0.03206 0.19882-0.09706l0.23483-0.16751c0.1-0.035 0.23389-0.03432 0.36789-0.06732 0.131 0 0.23157 0.10239 0.26457 0.20039 0.066 0.1 0.03132 0.36633 0.03132 0.36633s-0.13014 0.29795-0.23014 0.46495c-0.102 0.166-0.16738 0.33309-0.20038 0.43209-0.069 0.135-0.26709 0.19877-0.46809 0.40077-0.199 0.167-0.03131 0.33345-0.03131 0.33345l-0.13307 0.26614c-0.067 0.033-0.16589 0.29877-0.33189 0.36477-0.167 0.069-0.33321 0.5006-0.39921 0.6356-0.068 0.131-0.1707 0.06562-0.2677 0.09862-0.133 0.033-0.20327 0.09839-0.26927 0.20039-0.066 0.066-0.1972 0.032-0.3632 0-0.199 0-0.43521 0.03287-0.43521 0.03287s-0.09795 0.16421-0.42895 0.39921c-0.336 0.2-0.23552 0.23315-0.20352 0.30215 0.035 0.066 0.13152 0.3297 0.20352 0.4947 0.063 0.168 0.33115 0.27121 0.56515 0.43521 0.197 0.169 0.83136 0.13176 0.96436 0.10176 0.133-0.07 0.70173-0.10226 0.86573-0.23326 0.134-0.101 0.60036 0.13112 0.96435-0.03288 0.135-0.068 0.3354-0.068 0.4994 0 0.167 0.033 0.59967-4.4e-4 0.73267-0.03444 0.168 0 0.36784 0.0995 0.53384 0.1315 0.167 0.033 0.4979-0.06369 0.6309-0.23169 0.066-0.067 0.20183-0.53179 0.23483-0.69979 0.034-0.168-0.03351-0.43202-0.13151-0.59802-0.068-0.133-0.10207-0.26829-0.16907-0.56829-0.031-0.3-0.43415-0.36476-0.56515-0.36476-0.166 0-0.19802-0.06944-0.29902-0.03444-0.101 0-0.30058 0.23482-0.30058 0.23482-0.202 0-0.53103 0.16438-0.63403 0.16438-0.098 0-0.19664 0.06696-0.39764 0.20196-0.166 0.098-0.40147 0.16531-0.63247 0.03131-0.265-0.096 0.26646-0.29934 0.33346-0.36633 0.067-0.066 0.4304-0.30021 0.4994-0.39921 0.063-0.066 0.19676-0.13326 0.36476-0.23326 0.133-0.1 0.23326-0.36633 0.23326-0.36633l0.29902-0.39921c0.034-0.069 0.16719-0.26734 0.10019-0.40234-0.067-0.164-1.3e-4 -0.2302 0.03287-0.3632 0.034-0.101-0.065-0.33252 0-0.46652 0.067-0.098 0.16751-0.46679 0.16751-0.69979-0.032-0.2 0.03445-0.20013 0.03445-0.26613l0.12993-0.13151s-0.02906-0.2342-0.09706-0.3992c-0.099-0.203-0.09951-0.37041-0.16751-0.53541-0.0335-0.066-0.09949-0.08141-0.19099-0.08141zm28.793 0.44774c0.064 0.034 0.26614 0.06626 0.26614 0.23326 0.036 0.166 0.19969 0.19914-0.03131 0.26614-0.266 0.067-0.30371 0.13463-0.30371 0.13463l-0.16594 0.09863s-0.06495 0.03288-0.16595 0.03288c-0.1 0.035-0.13101 0.06838-0.26301 0.20038l-0.036 0.06575c-0.099 0.102-0.09951 0.13483-0.13151 0.23483 0 0.099-0.10306 0.20058-0.13306 0.30058l-0.06889 0.26457-0.13463 0.23327c-0.095 0-0.33164 1.2e-4 -0.39764-0.03288-0.033 0-0.13208 0.06525-0.16908-0.06575-0.03-0.167-0.03-0.26633 0-0.36633l0.03757-0.19882 0.06576-0.20352v-0.19882c0.032-0.034 0.10082-0.16526 0.19882-0.23326 0.068-0.099 0.26445-0.1657 0.33345-0.2317 0.065-0.102 0.23483-0.16594 0.23483-0.16594l0.16438-0.06889 0.16751-0.09706 0.29745-0.1362c0.035-0.066 0.13382-0.06575 0.23482-0.06575zm-70.188 2.0649c0.063 0.033 0.23171 0.03351 0.26771 0.16751 0.032 0.132 0 0.20145 0 0.33345s0.03111 0.23196-0.06889 0.46496l-0.13463 0.33345c-0.032 0.1-0.06419 0.33133-0.06419 0.36633-0.035 0.067-0.13382 0.2002-0.23482 0.1002l-0.13151-0.1002c-0.066-0.102-0.13294-0.16682-0.16594-0.19882-0.034-0.101-0.03389-0.13495-0.06889-0.20195-0.032-0.066-6.2e-4 -0.13082-0.09862-0.19882-0.134-0.064-0.23214-0.09951-0.26614-0.16751-0.07-0.165-0.03594-0.26665 0.09706-0.43365 0.104-0.131 0.20271-0.09694 0.2677-0.16594l0.23483-0.2317 0.1002-0.03444 0.26613-0.03287zm-36.226 0.50096-0.20195 0.06419c-0.031 0-0.33208 0.03444-0.43208 0.03444l-0.23327 0.03287-0.10019 0.06732c-0.918 0.103-0.41457 0.23621-1.3996 0.39921l-0.19725 0.06888h-0.10176c-0.29 0.219-0.70311 0.27996-1.0301 0.46496l-0.26771 0.03287-0.36633 0.20039c-0.033 0.034-0.06575 0.1317-0.06575 0.2317v0.16594c-0.035 0.1-0.035 0.16739 0 0.20039 0 0.035 0.09582 0.06469 0.19882 0.23169 0.065 0.136 0.1362 0.06732 0.1362 0.06732l0.19569 0.03601 0.26614 0.26457 0.43521 0.06888 0.30215-0.10332c0-0.03 0.09469 0.03425 0.19569-0.02975 0.101-0.101 0.06731-0.20139 0.06731-0.23639l0.43365-0.29901 0.26614-0.13307 0.36476-0.16595 0.23327-0.03287 0.16594-0.13307c0.035-0.032 0.3686-0.06813 0.6356 0.03287 0.232 0.1 0.19714 0.06688 0.26614 0.03288l0.16438-0.36476 0.36789-0.30058 0.03288-0.16751c0.029-0.098 0.00112-0.23121-0.03288-0.39921-0.032-0.201-0.29901-0.33189-0.29901-0.33189z"/>
	<path class="st1" transform="matrix(1.2476,0,0,1.2476,-52.555,-76.376)" d="m248.92 78.04c-3.43 0-4.3302 3.9952-4.3302 3.9952l-3.9279 17.214h5.293l2.6332-9.822h3.7917l-0.59646 2.3984-1.8316 7.4237h5.7627l4.7607-21.144s-10.756-0.065752-11.555-0.065752zm-67.128 0.23326c-2.33 0-3.0277 2.9291-3.0277 2.9291l-3.3283 14.816c0 2.931 2.0634 3.0637 2.0634 3.0637h8.59c2.898 0 3.7291-2.3968 3.7291-2.3968l1.1303-4.695h-5.592l-0.83442 3.5631c-0.299 1.064-0.89548 0.73266-0.89548 0.73266h-2.3639c-1.035 0-0.83598-0.90174-0.83598-0.90174l3.0308-13.717c0.168-0.566 0.76553-0.53071 0.76553-0.53071h2.7005c0.996 0 0.69822 0.83286 0.69822 0.83286l-1.0677 4.7576h5.4292s0.16418-0.93085 0.90018-4.6919c0.69799-3.762-1.8677-3.7619-1.8677-3.7619h-9.224zm-26.745 0.064186-4.684 21.011h5.4261l1.4966-6.6597c0.967 0 1.2008 0.7671 1.2008 0.7671l1.5295 5.7595h5.3979l-2.0665-6.9258c2.965 0 3.3656-1.9169 3.3956-2.0289 0.033-0.122 2.1248-9.2492 2.2058-9.7892 0.054-0.36 0.10542-0.74151-0.03758-1.0755-0.13-0.302-0.40522-0.52117-0.69822-0.67317-0.527-0.272-1.1452-0.38199-1.7362-0.38199-0.412 0-11.339-0.003131-11.43-0.003131zm-25.696 0.068883c-2.898 0-3.7619 3.261-3.7619 3.261l-4.2926 17.615 5.2899 0.032876 2.331-9.4228h3.8668l-2.331 9.4228h5.6593l4.7279-20.909h-11.489zm15.949 0.032876-4.6621 20.907h5.4276l4.6966-20.907h-5.4621zm52.81 0-4.659 20.907h5.3901l2.1964-9.7563h4.0296l-2.1948 9.7563h5.459l4.6652-20.907h-5.4323l-1.8958 8.4914h-4.0281l1.8958-8.4914h-5.4261zm19.278 0-4.6605 20.907h5.4292l4.6918-20.907h-5.4605zm9.6905 0-4.3631 20.907h5.0613l2.2966-10.985 2.032 10.985h5.0613l4.3615-20.907h-5.0613l-2.4328 11.687-1.8974-11.687h-5.0582zm23.539 2.6958h3.7948l-1.3651 5.7282h-3.859l1.4293-5.7282zm-90.737 0.16751h3.9654l-1.5295 8.1908h-4.0281l1.5921-8.1908zm-29.128 0.2317h3.9279l-1.4309 5.7298h-3.8621l1.3651-5.7298z"/>
	<path class="st0" transform="matrix(1.2476,0,0,1.2476,-52.555,-76.376)" d="m112.68 69.234c-8.275 5.821-12.844 5.2096-19.613 5.7126-8.162 0.613-22.204 8.1048-22.204 26.16v12.23c0 1.476-1.1696 2.5628-2.5346 2.5628-1.533 0-2.5361-1.3098-2.5361-2.5628v-17.44c0-2.063-1.8647-3.261-3.0637-3.261 0.279-1.894 2.3968-1.5859 2.3968-1.5859s2.6151 0.72431 4.3161-0.19569c3.007-1.672 2.2559-4.8484 2.2559-4.8484-0.39 0.891-1.2524 2.0073-3.1764 2.6473-1.476 0.307-1.6707 0.054793-2.8117 0.054793-2.925 0-4.0672 2.5909-4.0672 3.9279h-7.4941v0.53071h2.2825c1.73 0 2.8148 1.3656 2.8148 2.8696v18.302c0 5.016 3.9293 9.4714 9.5293 9.4714 5.795 0 9.5841-4.7634 9.5841-9.4714v-10.78c0-6.102 0.49906-10.727 5.3181-15.74 6.073-6.326 12.536-5.5734 14.685-6.0194 11.725-2.424 14.318-12.565 14.318-12.565zm-3.2578 8.9704s-3.3421 4.7346-10.838 5.6546c-2.925 0.362-7.1578 0.11258-11.729 3.7056-6.548 5.211-6.3231 12.482-6.3231 12.482v14.514s-0.1685 6.4923-5.5435 9.6123c-8.11 4.709-14.263-1.5311-14.263-1.5311 4.818 8.663 14.206 9.2753 20.001 5.4323 5.629-3.763 6.3529-9.084 6.3529-12.092v-14.376c0-11.923 10.305-10.92 12.231-11.422 9.386-2.481 10.194-11.17 10.112-11.979zm-11.785 17.831c-5.517 0-8.5837 4.8457-8.5837 8.5227v12.593c0 10.671-10.5 17.106-19.666 14.542 12.203 5.488 25.241-3.3699 25.241-15.35v-11.201c0-0.833 0.61321-2.533 2.4782-2.533 2.231 0 2.508 2.0063 2.508 2.2293 0.17 1.086-0.33285 1.9506-1.2508 1.9506-0.951 0-1.4212-0.86551-1.1992-1.7565-1.004 2.646 1.0315 5.8801 4.2065 5.8801 3.983 0 4.8186-4.2374 4.8186-6.3544 0-3.315-2.7554-8.5227-8.5524-8.5227z"/>
</svg>
