<svg version="1.1" viewBox="0 0 445.93 100" xmlns="http://www.w3.org/2000/svg">
	<style type="text/css">.st0{fill:#008ACA;}
	.st1{fill-rule:evenodd;clip-rule:evenodd;fill:#FFFFFF;}
	.st2{fill:#E30421;}
	.st3{fill:#00234E;}</style>
	<path class="st3" transform="matrix(2.2655 0 0 2.2655 -1982.8 -215.11)" d="m980.45 122.81c-2.145 0-3.8847 1.7531-3.8847 3.9321 0 2.173 1.7397 3.9329 3.8847 3.9329 2.149 0 3.8872-1.7599 3.8872-3.9329 0-2.179-1.7382-3.9321-3.8872-3.9321zm-6.5046 0.02069c-2.7282 0.07787-2.7692 2.8139-1.5432 3.6433 0.586 0.39499 1.5776 1.045 2.1286 1.419 1.358 0.895-0.18641 3.2205-2.7984 1.4725v1.0242c4.196 1.452 5.4357-2.0043 3.5467-3.4493-0.734-0.559-1.274-0.91655-1.938-1.3346-1.375-0.873-0.65971-2.8582 2.4053-1.5932v-0.92332c-0.69859-0.19687-1.2957-0.27305-1.8009-0.25863zm90.859 0.00345c-2.7254 0.07426-2.7684 2.8104-1.5483 3.6398 0.592 0.39499 1.5857 1.0443 2.1337 1.4233 1.355 0.883-0.1838 3.2163-2.7958 1.4613v1.0294c4.198 1.458 5.4372-2.0106 3.5372-3.4476-0.732-0.563-1.2711-0.91714-1.9311-1.3371-1.383-0.87399-0.6694-2.8546 2.4156-1.5906l-0.0121-0.91728c-0.6976-0.19781-1.2945-0.27497-1.7992-0.26122zm-122.03 0.0069c-5.476 0-5.1536 7.8702-0.02759 7.8702 1.001 0 1.8693-0.18139 2.5053-0.36639v-0.88625c-0.68699 0.337-1.2035 0.5483-1.9535 0.5483-4.298 0-3.9404-6.4822-0.44743-6.4822 1.38 0 1.962 0.2414 2.401 0.3914v-0.82935c-0.64799-0.13-1.3507-0.2457-2.4777-0.2457zm85.488 0.03362-2.3268 7.74h0.919l0.6854-2.3708h2.2923l0.6544 2.3708h1.3397l-2.3545-7.74h-1.2095zm-63.994 0.00603-2.3191 7.7297 0.91297 0.00344 0.69486-2.3699h2.2949l0.64572 2.3699 1.338-0.00344-2.3544-7.7297h-1.213zm20.792 0.0069v5.0451c0 1.363 1.1643 2.7027 2.8743 2.7027 2.068 0 2.8924-1.5864 2.8924-2.7174v-5.0304h-0.69831v5.1063c0 1.116-0.97026 1.9156-1.8553 1.9156-1.027 0-2.0699-0.72809-2.0699-1.9001v-5.1218h-1.1432zm12.547 0.03448v7.7055h1.1432v-3.6303h3.639v3.6303h1.1371v-7.7055h-1.1371v3.3407h-3.639v-3.3407h-1.1432zm-51.557 8.7e-4v7.6892h1.1397v-3.626h3.6355v3.626h1.144v-7.6892h-1.144v3.3407h-3.6355v-3.3407h-1.1397zm86.817 0.00258v7.6892h1.1423v-7.6892h-1.1423zm14.49 0v7.6892h1.1509v-7.6892h-1.1509zm-94.185 0.01035v7.6745h1.1449v-7.6745h-1.1449zm81.879 0.00603v7.6719h1.1501v-3.6821h1.0156l1.8983 3.6821h1.2285l-1.9483-3.7984c0.846-0.237 1.6328-0.53495 1.6328-1.951 0-1.452-1.2519-1.9225-2.3079-1.9225h-2.6691zm-24.702 0.00518v7.6667h1.1475v-3.6881h1.0112l1.907 3.6881h1.2251l-1.9492-3.7967c0.847-0.229 1.6302-0.53609 1.6302-1.9501 0-1.453-1.2544-1.9199-2.3104-1.9199h-2.6614zm39.2 8.6e-4v7.6659h0.7346v-5.3778l4.8933 5.3778h0.2871v-7.6659h-0.688v5.4339l-4.9278-5.4339h-0.2992zm-94 0.00172v7.6624h0.73624v-5.3744l4.8847 5.3744h0.29139v-7.6624h-0.69141v5.4356l-4.9235-5.4356h-0.29743zm60.667 0.00604v7.6719h0.7259v-5.3752l4.9123 5.3752h0.2854v-7.6719h-0.6914v5.4408l-4.9356-5.4408h-0.2966zm-11.707 0.0112v7.5935h4.9209v-0.72675h-3.7812v-2.9441h3.7847v-0.69055h-3.7847v-2.5242h3.7812v-0.7078h-4.9209zm36.877 0v7.5935h4.9313v-0.72675h-3.7838l0.0043-6.8667h-1.1518zm15.122 0v7.5935h4.9252v-0.72675h-3.7769v-2.9389h3.7838v-0.70175h-3.7838v-2.5225h3.7769v-0.70349h-4.9252zm-65.169 0.04139v0.69917h2.326v6.9064h1.1458v-6.9064h2.3104v-0.69917h-5.7822zm-10.888 0.4776c1.47 0 2.6682 1.4645 2.6682 3.2605 0 1.792-1.1982 3.2536-2.6682 3.2536-1.474 0-2.6656-1.4616-2.6656-3.2536 0-1.796 1.1916-3.2605 2.6656-3.2605zm55.75 0.18363h1.2509c0.725 0 1.3087 0.58044 1.3087 1.3164 0 0.724-0.5837 1.3096-1.3087 1.3096l-1.2509-0.00862v-2.6174zm-24.705 8.7e-4h1.2526c0.716 0 1.3061 0.58557 1.3061 1.3156 0 0.721-0.5901 1.3139-1.3061 1.3139l-1.2526-0.00431v-2.6251zm17.178 0.5595 0.9664 3.301h-1.9311l0.9647-3.301zm-63.985 8.7e-4 0.9647 3.2993h-1.9354l0.97074-3.2993z" stroke-width=".4414"/>
	<path class="st3" d="m158.25 15.691v7.707h-14.227v19.551h4.5801v-2.0117h9.6289v13.066h4.7109v-13.066h10.104v1.8379h4.7344v-19.377h-14.887l0.01172-7.7051-4.6562-0.001953zm103.11 0.10156 0.00976 4.5801h-16.545v3.8926h16.545l-0.03711 2.9863h-13.334v26.32h4.3418v-22.729l6.8438 0.019531-3.2129 1.4141c0.8609 1.0988 1.8078 2.6181 2.5078 3.7305h-4.0312v3.3027h7.0644v2.8789h-8.2207v3.5918h8.2207v6.748h4.1426v-6.748h8.2383v-3.5918h-8.2383v-2.8789h7.5273v-3.3027h-4.2656c0.72723-0.79293 2.4385-2.8505 2.9414-3.5098l-3.2598-1.6348 6.4336-0.019531v16.283c-0.0453 1.5677-0.64759 2.0605-2.6934 2.0605h-1.7656c0.89488 1.758 1.5663 2.9691 2.0488 4.5527 3.1989-0.43951 4.4542-0.9319 5.3106-1.5391 0.93113-0.65247 1.5039-1.2063 1.5039-3.7188l-0.02149-21.23h-13.404l-0.03711-2.9863h16.389v-3.8926h-16.396v-4.5664l-4.6055-0.013672zm51.277 0.013672-0.02344 6.6953h-15.746v4.1074h9.7207c-0.11102 11.656-0.03494 18.891-10.277 23.48 1.4816 1.2256 2.502 2.3769 3.5781 3.666 4.6738-3.1604 9.8611-6.0297 10.826-18.449h13.303c0.00906 4.667-0.36064 8.4068-0.57813 10.697-0.23788 2.4875-2.5676 2.1195-7.0352 2.3574 0.9198 1.6516 1.653 3.2178 1.9883 4.9668 3.7222-0.61169 6.781-0.88395 7.916-1.8105 1.3027-1.0716 1.7148-2.8449 1.9414-6.6465 0.25147-4.1867 0.54134-9.3177 0.76563-13.756h-17.963l0.125-4.5586h22.229v-4.0879l-15.953-0.021484-0.02344-6.6289-4.793-0.011718zm59.701 0.027343v6.3477h-6.6953v3.8809h18.568v-3.8809h-7.3125v-6.3477h-4.5606zm43.086 0.1875-0.0293 4.2578h-13.559v8.8613l4.4941-0.048828v-4.9609l23.604-0.019531v4.8828h4.5664v-8.7285l-14.279 0.003906 0.00196-4.2344-4.7988-0.013672zm-59.045 0.11719c-0.16992 1.2755-0.4194 3.4415-0.83399 5.3672h-4.6133v11.473h-2.9629v3.8711h2.9688v1.1289c-0.12007 5.4282-1.0424 9.6965-3.0859 12.592 1.0354 0.81559 2.3399 2.0413 3.4727 3.1582 2.3086-3.5138 3.3559-7.2749 3.3106-16.91h6.2246v10.307c-0.0226 1.2551-0.69315 1.3052-4.3066 1.2305 0.7816 1.391 1.1652 2.6592 1.4121 4.3516 5.0634-0.50521 6.6816-1.6866 6.6816-3.5488l-0.02343-27.652h-5.1953c0.3081-1.2845 0.86555-3.637 1.1465-4.5273-0.82918-0.21069-3.7807-0.74922-4.1953-0.83984zm-160.92 1.4004v35.893h4.4141v-3.1191h24.549v3.0312h4.4668v-35.805h-33.43zm4.4141 3.7051h24.549v25.475h-24.549v-25.475zm2.4219 2.7402v3.3477h7.6816v4.1445h-6.8144v3.3652h6.8144v5.7832h-8.4004v3.5449h21.102v-3.5508l-8.5645 0.005859v-5.7695l4.0547 0.02539-2.7031 1.6758c1.0648 1.092 2.3409 2.7629 3.1406 3.8027l2.7461-1.8008c-0.86316-1.2279-2.2652-2.9596-2.8633-3.6777l2.5176 0.015625v-3.4199h-6.8926v-4.1445h8.1562v-3.3477h-19.975zm152.34 0.9043h6.2246v8.1133h-6.2246v-8.1133zm4.1894 1.1328-3.3711 0.55078c0.53466 2.1658 0.87274 3.9921 1.1016 5.4375l3.2852-0.76367c-0.16765-1.1849-0.78-3.965-1.0156-5.2246zm53.574 0.36719c-3.0381 3.0381-9.006 6.0014-12.291 7.3086 0.93339 1.1894 2.0509 2.7658 2.6875 3.8125 3.9012-1.86 10.89-6.1807 12.635-7.9297l-3.0312-3.1914zm10.861 0.22852-2.3613 3.4102c2.9678 1.6017 8.6998 4.5617 12.053 7.0605 1.1713-1.4386 2.9863-3.6758 2.9863-3.6758-2.8885-1.9234-8.149-4.3867-12.678-6.7949zm-274.65 0.78906h9.6426v9.6641h-9.6426v-9.6641zm14.275 0h10.168v9.6641h-10.168v-9.6641zm205.75 2.1523v8.2305c0 6.271-1.5928 11.151-4.6875 13.557 1.357 0.63888 2.6512 1.5443 3.793 2.2852 2.8228-2.9837 4.9843-7.3265 4.8574-19.18v-1.1191h3.5176l-0.27539 15.449c-0.0702 2.7798 0.36654 3.7666 3.0625 3.8301h3.4492c1.2936-0.06343 2.1266-1.8526 3.1348-5.7402-1.1713-0.54826-2.5622-1.4268-3.4707-2.1699-0.32171 1.6901-0.5711 3.3564-0.93359 3.6895-0.27412 0.24468-0.5279 0.16547-0.73633 0.12695-0.33303-0.03851-0.36055-0.22722-0.33789-0.8457-0.0227-4.2048 0.36718-18.113 0.36718-18.113h-11.74zm-109.18 1.3359 8.5723 0.017578c-1.357 2.0797-2.0983 3.4827-3.3828 5.0957l-3.6973 0.015626 1.6641-0.79492c-0.70231-1.2098-2.4562-3.5207-3.1562-4.334zm145.83 6.4004v3.9941h9.9004v6.6992h-14.494v4.0938h34.59v-4.0938h-14.932v-6.6992h10.387l-0.02539-3.9941h-25.426zm-46.539 0.60352-3.498 0.44922c0.47349 2.0639 0.83173 5.1734 1.0606 6.6211l3.5078-0.87305c-0.17671-1.6561-0.82338-4.9467-1.0703-6.1973z"/>
	<polygon class="st0" transform="matrix(2.2655 0 0 2.2655 -1982.8 -215.11)" points="929.09 99.364 914.94 99.364 879.62 134.68 914.94 134.68" stroke-width=".4414"/>
	<path class="st1" d="m84.574 40.802c-1.2279-0.60036-2.0888-1.8555-2.0888-3.2918 0-2.0231 1.6425-3.6724 3.6611-3.6724 2.0299 0 3.6679 1.6493 3.6679 3.6724 0 1.4545-0.84957 2.7164-2.0865 3.3009v1.0285c1.135 0.11781 2.5011 0.5913 3.3371 1.0195 0.37154-0.02719 0.8609-0.0589 1.3638-0.0589 4.6217 0 7.8682 3.0539 7.8682 7.2723 0 2.5986-2.329 4.9728-4.9411 4.9728-2.628 0-5.0068-2.5759-4.5333-5.1676 0 0-0.26507 0.89488-0.26507 1.9869v13.219c-0.11554 1.5088-2.1386 9.8324-11.484 9.8324-9.3498 0-11.382-8.3235-11.495-9.8324v-13.219c0-1.092-0.26733-1.9869-0.26733-1.9869 0.50295 2.4921-1.9076 5.1676-4.5174 5.1676-2.6325 0-4.9524-2.3743-4.9524-4.9728 0-4.2184 3.2374-7.2723 7.8795-7.2723 0.48709 0 0.97417 0.03172 1.3389 0.0589 0.84957-0.42818 2.2836-0.93566 3.3462-1.0195v-1.0421c-1.2166-0.59583-2.0797-1.8509-2.0797-3.2873 0-2.0231 1.6516-3.6724 3.6724-3.6724 2.0299 0 3.6724 1.6493 3.6724 3.6724 0 1.4545-0.8541 2.7277-2.1001 3.3122v1.3774c0.30811 0.09968 0.63208 0.21749 0.93566 0.35795 0.56864-1.2234 1.7127-2.1794 3.0063-2.6076v-1.1146c-1.2438-0.59357-2.0956-1.8464-2.0956-3.3122 0-2.0322 1.6357-3.6656 3.6565-3.6656 2.0299 0 3.6679 1.6334 3.6679 3.6656 0 1.4658-0.8473 2.7186-2.0911 3.3122v1.1146c1.2845 0.42139 2.4128 1.3842 2.9792 2.6076 0.28999-0.14046 0.63661-0.25827 0.94472-0.35795z"/>
	<path class="st2" d="m79.074 32.947c-1.4205 0-2.5684 1.1489-2.5684 2.5762 0 1.2166 0.84584 2.2369 1.9922 2.502v2.7852c-1.3548 0.18351-2.4919 1.141-3.0039 2.2715 1.6244 1.0557 2.9434 2.6557 3.5664 4.6426 0.63434-1.9869 1.9498-3.5868 3.5742-4.6426-0.41912-1.1305-1.6433-2.088-3.0117-2.2715l0.013672-2.7773c1.1554-0.256 2.0195-1.2864 2.0195-2.5098 0-1.4273-1.1593-2.5762-2.582-2.5762zm7.0723 1.9863c-1.4205 0-2.5645 1.1466-2.5645 2.5762 0 1.2098 0.85552 2.2336 1.9883 2.4941v2.9668c-3.5025 0.69551-5.9805 4.4067-5.9805 7.8027v9.4727c1.6493 0.913 3.2367 2.841 3.7578 4.4473 0.12914-0.14952 0.24462-0.2936 0.43945-0.45898v-12.248c0-3.6248 1.9704-7.3915 5.5137-8.6035 0 0-1.1616-0.48234-2.5957-0.46875v-2.8945c1.1486-0.24694 2.0215-1.3 2.0215-2.5098 1e-6 -1.4295-1.1505-2.5762-2.5801-2.5762zm-14.148 0.003906c-1.4318 0-2.5664 1.145-2.5664 2.5723 0 1.212 0.85388 2.2359 1.9844 2.4941v2.9121c-1.4227-0.015859-2.5762 0.46875-2.5762 0.46875 3.5387 1.2098 5.5078 4.9065 5.5078 8.6016v12.248c0.18577 0.16538 0.30094 0.31173 0.44141 0.45898 0.51654-1.6063 2.0972-3.5326 3.7578-4.4434v-9.4766c0-3.396-2.4903-7.1053-5.9883-7.8008v-2.9688c1.1531-0.25827 2.0156-1.2821 2.0156-2.4941 0-1.4273-1.1534-2.5723-2.5762-2.5723zm-5.5957 8.9414c-4.7848 0-7.1274 2.7795-7.0957 6.1914 0.086089 2.0865 1.5792 3.5 3.498 3.5 1.9212 1e-6 3.5156-1.5856 3.5156-3.5 0-1.0399-0.4148-1.8194-1.1035-2.4492 1.2166 0 3.8066 1.0535 3.8066 4.6602v9.416c1.0421 0.015858 2.9552 0.84246 4.3281 1.7441v-10.1c1e-6 -6.8101-3.782-9.4629-6.9492-9.4629zm25.342 0c-3.1717 0-6.959 2.6527-6.959 9.4629v10.1c1.3774-0.90168 3.2872-1.7283 4.3203-1.7441v-9.416c0-3.6067 2.6037-4.6602 3.8066-4.6602-0.68192 0.62981-1.0957 1.4093-1.0957 2.4492 0 1.9144 1.5902 3.5 3.5137 3.5 1.928 0 3.4211-1.4135 3.5117-3.5 0.02039-3.4119-2.3242-6.1914-7.0977-6.1914zm-12.67 17.236c-1.8849 1.2732-3.3453 3.2393-3.8867 5.541-1.4884-1.971-3.7119-3.2861-6.1836-3.9023v2.2637c0.24014 1.7127 2.0504 8.4297 10.07 8.4297 8.0109 0 9.8117-6.717 10.059-8.4297v-2.2637c-2.4807 0.61622-4.6952 1.9313-6.1973 3.9023-0.5324-2.3018-1.9877-4.2678-3.8613-5.541z"/>
</svg>
