<svg version="1.1" viewBox="0 0 310.56 100" xmlns="http://www.w3.org/2000/svg">
	<style type="text/css">.st0{fill-rule:evenodd;clip-rule:evenodd;fill:#FFFFFF;}
	.st1{fill:#E6042E;}
	.st2{fill:#FFFFFF;}</style>
	<g transform="matrix(1.7466 0 0 1.7466 -379.67 -1174.3)">
		<path class="st1" d="m249.02 708.44-0.58399 7.4121-2.6289-7.377h-1.8535l-4.1465 7.0801 0.5664-7.0801h-1.791l-0.2793 3.0156h-3.207l0.21875-3.0156h-1.8848l-0.58789 7.502h1.8145l0.28515-2.7598h3.2285l-0.18555 2.7598h3.8027l1.0098-1.6602h3.0723l0.52929 1.6602h3.9082l0.31445-4.3887 2.9824 4.3613h1.916l0.5039-7.5098-1.7461 0.0156-0.44336 4.7676-3.0234-4.7832zm76.338 0-0.59571 7.5703h6.2422l0.12305-1.7246h-4.3555l0.0605-1.1309h4.209l0.0859-1.7266h-4.1699l0.0918-1.1914h4.2422l0.0899-1.7969zm-93.039 0.0352-4.6543 0.0312s-0.99689 2e-3 -1.7129 0.60352c-0.593 0.49599-0.87075 0.84465-0.84375 2.2226 0.027 1.668 1.2422 1.7441 1.2422 1.7441h3.8848c0.968 0.455 0 1.1992 0 1.1992h-5.4336l-0.10938 1.7129h5.5918c1.243-0.01 1.976-1.0994 2.002-2.5684 0.03-1.559-1.541-2.0664-1.541-2.0664l-3.4082-0.0215s-0.6282 0.0953-0.4082-0.5957c0.153-0.566 0.90234-0.46289 0.90234-0.46289l4.3027-4e-3zm27.121 0s-2.6709 0.10227-2.7949 2.3223c-0.123 2.231-0.0937 2.8887-0.0937 2.8887s-0.0568 2.291 2.0762 2.291h5.1445l0.1875-4.6465h-3.5723l-0.0684 1.6953h1.791l-0.0977 1.1953h-3.1308s-0.54102 0.0639-0.54102-0.53711c0-0.592 0.12891-2.6621 0.12891-2.6621s-5.5e-4 -0.82031 1.1894-0.82031h4.4277l0.14649-1.7266zm5.7148 0-0.59765 7.502h1.8203l0.2832-2.7598h3.2324l-0.18945 2.7598h3.832l1.002-1.6602h3.0762l0.5332 1.6602h2.0703l-2.668-7.502h-1.8516l-4.1738 7.127 0.57227-7.127h-1.7949l-0.28321 3.0156h-3.2031l0.22461-3.0156zm16.037 0-0.625 7.5352h1.8496l0.5625-7.5352zm10.574 0-4.3984 7.502h2.2422l0.9961-1.6602h3.0762l0.53906 1.6602h2.0644l-2.666-7.502zm5.5898 0-0.62305 7.5352h1.8457l0.56641-7.5352zm11.02 0-0.56836 7.4746h5.3438l0.21289-1.7285h-3.5781l0.4043-5.7461zm6.125 0-0.62696 7.5352h1.8457l0.5664-7.5352zm2.9785 0-0.59765 7.5352h1.8496l0.31445-4.4844 3.0156 4.4844h1.8535l0.53711-7.5352h-1.7949l-0.37696 4.7715-2.9844-4.7715zm21.594 0-4.6699 0.0312s-0.99422 2e-3 -1.6992 0.60352c-0.594 0.49599-0.87651 0.84465-0.85351 2.2226 0.035 1.668 1.2402 1.7441 1.2402 1.7441h3.8848c0.97499 0.455 0 1.1992 0 1.1992h-5.4199l-0.12109 1.7129h5.5957c1.244-0.01 1.9779-1.0994 2.0039-2.5684 0.027-1.559-1.5391-2.0664-1.5391-2.0664l-3.4062-0.0215s-0.63607 0.0953-0.41407-0.5957c0.159-0.566 0.89844-0.46289 0.89844-0.46289l4.3164-4e-3zm-38.711 2e-3 -0.55859 7.5h1.7891l0.47071-5.6133h2.9219s0.45489-0.0571 0.33789 0.62891c-0.094 0.561-0.4707 0.4375-0.4707 0.4375h-2.2852l2.5059 4.582h2.1055l-1.793-3.2324s1.7695-0.0972 1.7695-2.0762c0-1.973-1.4518-2.2266-1.9258-2.2266zm-55.594 2.5156 0.72266 2.1621h-1.9453zm31.742 0 0.72656 2.1621h-1.9512zm16.074 0 0.72461 2.1621h-1.9453z" stroke-width=".22431"/>
		<path class="st1" d="m253.72 688.19c-0.17484 0.01-0.3665 0.0515-0.57031 0.13086-1.093 0.426-0.42383 2.1172-0.42383 2.1172 0.301 0.366-1.3965 2.3027-1.3965 2.3027s-1.8774 2.847-1.9394 3.334c-0.061 0.483 0.48261 1.272 0.84961 0.79297 0.364-0.488 3.3945-1.1465 3.3945-1.1465l-2.6055 4.2324s-1.9401 0.0618-2.6641 0.42383c-0.729 0.363-0.36523 1.1523-0.36523 1.1523s2.1619-0.26827 1.7539 0.17773c-1.573 1.757-1.2656 3.1504-1.2656 3.1504l5.0879-0.72657s-0.60541 2.7895-0.0664 2.7285c2.133-0.238 2.2383-2.7852 2.2383-2.7852l0.54883-0.60937s0.36524-2.7255 0.36524-3.2695c0-0.545 2.1235-0.24224 2.6035-0.36524 0.486-0.118 0.42986-1.0297-0.24414-1.3887-0.658-0.364-1.8789 0.35937-1.8789 0.35937 0 0 0.54846-2.9094-0.0605-3.0254-0.594-0.123-2.9595 1.2655-3.0215 0.60352-0.057-0.66 3.332-3.0234 3.332-3.0234 0 0 0.413-0.36723-0.125-0.61523-1.21-0.545-5.5098 2.3037-5.7558 2.4277-0.24 0.121-0.30079-0.18164-0.30079-0.18164s3.2747-5.091 3.5117-5.75c0.20232-0.54925-0.24431-1.0903-1.002-1.0469zm41.115 0.35742c-1.3328-0.0201-1.1426 0.9122-1.1426 1.2832 0 0.424 1.5723 1.875 1.5723 1.875-0.481 0.424-4.2422 0.84766-4.2422 0.84766s-1.9238-0.474-2.4238 0c-1.452 1.398-0.41969 3.819-0.0547 4.248 0.359 0.413 0.90489-0.42882 1.0879-0.67382 0.18-0.232-0.18455-1.8131-0.0605-2.1191 0.121-0.298 3.2109-0.96875 3.2109-0.96875 0.364 2.914-1.1523 3.2715-1.1523 3.2715l-0.0645 0.42578s0.42602 0.4185 0.79102 0.0625c2.884-2.884 1.6344-4.306 1.9414-4.248 0.30099 0.066 3.0273-0.60156 3.0273-0.60156s3.693-1.3962 3.873-0.90625c0.354 0.947-1.5117 1.8145-1.5117 1.8145 0.301 0.30699 1.4512-0.24024 1.4512-0.24024s2.0014 0.3613 2.4844-1.0957c0.318-0.933-1.1894-2.2946-1.6934-1.9356-1.271 0.909-3.5143 1.3373-3.8203 1.2773-0.299-0.068-2.6035-2.2441-2.6035-2.2441-0.2575-0.0461-0.47953-0.0694-0.66993-0.0723zm44.777 0.36914c-0.0438-2e-3 -0.0791 8e-3 -0.10156 0.0312-0.184 0.179-4.7266 1.7578-4.7266 1.7578s-2.1241-0.60329-2.2441 0.9707c0.613 1.937 2.3047 0.66993 2.3047 0.66993 2.662-1.941 3.877-1.7598 3.877-1.7598l0.125 10.662s-1.8628 1.7434-0.92382 3.0234c0.85699 1.155 1.7678 1.7e-4 2.1328-0.42383 0.361-0.426 0.60547-13.325 0.60547-13.867 8.7e-4 -0.48125-0.7424-1.0535-1.0488-1.0644zm-64.158 1.0703c-0.68109-6e-3 -1.2517 0.46027-1.293 0.60352-0.557 2.039 2.0756 1.8228 2.0566 2.5098-0.022 0.482-2.7002 0.77639-3.2012 1.0254-0.36099 0.18-0.40654 0.73946-0.0605 0.93946 0.679 0.375 2.2145-0.86054 2.5195-1.1445 0.306-0.055 0.1295 0.35931 0.0625 0.57031-0.277 0.911-2.4262 3.386-4.2852 6.752-0.089 0.168 0.0261 0.79858 0.3711 0.51758 0.333-0.277 2.4472-4.0588 3.2012-4.7598 1.045-0.96 1.4611-0.5067 1.4551-0.2207-0.033 0.843-1.8086 4.6963-0.43555 6.1113 0.99 1.035 4.8375 0.53583 5.7695 0.0488 0.211-0.113 0.55445-0.56386-0.0605-1.1309-0.436-0.411 0.1211-3.0938 0.1211-3.0938s-0.022-0.21399-0.25-0.084c-0.958 0.543-0.48508 3.185-2.2051 3.541-2.098 0.427-2.8745-0.85017-3.0625-1.7012-0.222-1.046 1.1966-3.6152 1.4356-4.4082 0.245-0.783-1.6055-0.82422-1.6055-0.82422 0.791-1.254 1.4697-2.0675 2.2617-1.8965l0.0566-0.66406-0.54688 0.0254s0.10949-1.5394-1.6035-2.5234c-0.23625-0.136-0.47414-0.19137-0.70118-0.19336zm-5.4473 0.6836c-2.227 1.669-4.7832 6.2754-4.7832 6.2754s0.2595 0.63934 0.4375 0.15234c0.184-0.481 2.502-1.8516 2.502-1.8516 0.759 1.297 1.6856 0.21679 1.6856 0.21679s-0.0161 0.87638 6e-3 1.1094c0.023 0.157-1.1374-0.45449-1.6074-0.39649-1.064 0.122-0.0371 1.1758-0.0371 1.1758 0 0.356-0.0305 0.52487-0.0215 0.67187-0.224 0.174-0.69336 0.0664-0.69336 0.0664s0.19072-1.8166-0.11328-1.8496c-0.265-0.032-0.60547 0.58789-0.60547 0.58789s-0.21716 1.1422-0.28516 1.9102c-3.887 0.805-4.1367 1.3613-4.1367 1.3613s0.0468 0.62447 0.50781 0.85547c0.452 0.227 0.89087 0.3477 1.2969-0.2793 0.314-0.476 2.2539-1.3125 2.2539-1.3125l-0.12891 3.3984s0.0322 1.1429 0.65821 0.88086c0.863-0.348 0.64453-4.2969 0.64453-4.2969l0.27148 0.0312c0.269 1.857 1.5859 1.7266 1.5859 1.7266s0.30755 0.48301 0.18555 0.79101c-0.121 0.303-0.89453 0.20118-0.89453 0.20118 0.38799 0.525 0.65615 0.23772 0.91015 1.7617 0.085 0.47399 1.0792-0.0742 1.2402-0.49219 0.155-0.402-0.14258-5.0371-0.14258-5.0371 1.717-1.715 0.1012-1.4988 0.0332-1.5488-0.119-0.403 1.0157-1.4148 0.51367-2.1738-0.173-0.476-1.2051-0.40429-1.2051-0.4043 0 0 0.96744-1.5636 1.1484-2.3476 0.184-0.792-1.2266-1.1836-1.2266-1.1836zm-23.943 1.1113c-0.31766 9e-3 -0.54688 0.11719-0.54688 0.11719s-1.1568 0.4225-0.29882 1.6875c1.811 1.882 2.6543 0.67188 2.6543 0.67188-0.27365-2.1479-1.2022-2.4931-1.8086-2.4766zm-16.264 0.18164c-0.39798 0.0297-0.75464 0.45163-0.97852 0.92188-0.543 1.15 1.0293 6.666 1.0293 6.666s-0.96486 0.30233-1.7559 0.36133c-0.788 0.06-4.6692 0.86022-4.9062 1.5742-0.489 1.459 1.1496 1.5182 2.0606 1.6992 0.906 0.183 10.411-1.9381 10.957-2.1211 0.552-0.184 1.1587-0.66441 1.0957-1.6914-0.066-1.034-2.2635-1.1356-2.8535-0.84961-1.268 0.599-2.4141 0.53711-2.4141 0.53711l0.36133-4.2363h1.9941c1.998-0.788 0.1211-2.0586 0.1211-2.0586h-3.75c-0.31763-0.61163-0.6514-0.82586-0.96094-0.80274zm90.908 0.0703c-0.10141-3e-3 -0.20883 0.0189-0.32031 0.0644-2.104 0.872-0.43495 4.1522-0.12695 4.5742 0.308 0.436 1.6431 0.2889 1.7891-0.2461 0.34386-1.1975-0.14517-4.3622-1.3418-4.3926zm-22.322 0.0976c-0.59549 0.0719-1.181 2.3806-0.76368 3.3945 0.427 1.028 2.8535 0.60157 2.8535 0.60157s0.20992-0.21966 0.54492-0.84766c0.487-0.904-1.0885-1.0878-1.2695-0.84375-0.18 0.249-0.61328 0.11914-0.61328 0.11914 0.551-0.844-0.11566-2.4238-0.72266-2.4238-9e-3 0-0.0198-1e-3 -0.0293 0zm12.924 1.4648c-0.0734 2.1e-4 -0.14912 7e-3 -0.22656 0.0195-1.232 0.175-2.7292 3.2313-2.2832 3.8223 0.554 0.75 3.407-1.6036 3.832-2.1016 0.41062-0.46219-0.2209-1.7435-1.3223-1.7402zm24.121 0.0918c-1.3001 7.4e-4 -4.4043 1.9844-4.4043 1.9844l-1.4551 0.0625c-0.181 0.968 1.2116 1.3218 2.0606 0.96679 3.755-1.578 4.3047-2.7852 4.3047-2.7852-0.0859-0.16109-0.2651-0.22865-0.50586-0.22852zm-90.943 2.2109c-0.31817 7e-3 -0.54883 0.11328-0.54883 0.11328s-1.1507 0.42427-0.30469 1.6973c1.817 1.877 2.668 0.67187 2.668 0.67187-0.27694-2.1492-1.207-2.4967-1.8144-2.4824zm89.756 0.80078c-0.0251 3.4e-4 -0.0495-1e-5 -0.0742 2e-3 -0.783 0.056-4.291 2.9102-4.291 2.9102 0.236 2.425 2.9664 1.8757 3.5684 1.6367 0.607-0.249 2.0021-3.0921 2.2441-3.4551 0.23735-0.35165-0.67032-1.1043-1.4473-1.0938zm-80.734 0.40039s0.63102 0.0552 0.29102 0.86719c-0.193 0.439-0.33711 0.0244-0.53711-0.0176-0.598-0.113 0.24609-0.84961 0.24609-0.84961zm43.227 6e-3c-1.7009-4e-3 -3.8555 1.418-3.8555 1.418 0.363 0.833 1.9726 0.5957 1.9726 0.5957l-0.0547 1.5566s-2.1668 0.30274-2.7598 0.30274c-0.894 0-1.4336 0.48048-1.4336 0.89648 0 0.422 1.2558 0.66016 1.2559 0.66016 0.30099-0.487 2.8144-0.66016 2.8144-0.66016s3.848-0.52948 4.252-1.0215c0.596-0.717-0.84112-1.5541-1.0781-1.0801-0.239 0.482-1.6133 0.72266-1.6133 0.72266v-1.7344s2.9334-1.0166 1.1934-1.5586c-0.21687-0.067-0.45037-0.0971-0.69335-0.0977zm-41.766 0.54102s0.845 1e-3 0 1.5801c-0.215 0.382-1.209-1.3911 0-1.5801zm61.242 0.21875c-0.35175 8e-3 -0.70313 0.10156-0.70313 0.10156l-3.2402 3.8457s-0.36708 0.92166 0.79492 1.2227c1.896 0.489 4.9531-1.3477 4.9531-1.3477s0.48507 1.2889 1.0391 1.0449c0.55-0.248 1.5441-1.1093 1.0371-2.3223-0.976-2.322-2.0176-1.1602-2.0176-1.1602l-0.36719 1.584c-0.428-0.363-2.5039 0.80273-2.5039 0.80273s-0.48682 0.1756-0.54882-0.1914c-0.058-0.362 2.2598-2.4979 2.2598-3.1699 0-0.341-0.35137-0.41815-0.70312-0.41015zm17.314 0.13867c0.0238 1e-3 0.0389 0.0105 0.0469 0.0293 0.12 0.305 0.36312 1.449-0.54688 2-0.906 0.543-1.758 0.66876-1.877-0.24024 0 0 2.02-1.81 2.377-1.7891zm-64.068 0.46875c0.0355 3e-3 0.0527 0.0156 0.0527 0.0156s0.0526 0.72319-0.0664 0.74219c-0.122 0.011-0.21289-0.0566-0.21289-0.0566s-0.0904-0.5723 0.0586-0.6543c0.078-0.042 0.13247-0.0496 0.16797-0.0469zm-16.979 0.39062s0.48868 0.17202 0.42968 0.54102h-0.67187zm-4.8984 0.39258s-3.2483 3.6413-3.5293 4.4883c-0.362 1.076 1.0291 2.1288 1.6191 1.2578 2.209-3.296 1.9102-5.7461 1.9102-5.7461zm6.9023 0.69531s1.024 0.54458 0 1.3926c-0.425 0.353-1.276-1.2746 0-1.3926zm-2.7891 0.60157s1.7684 1.164 1.6934 1.584c-0.126 0.659-2.3021 1.1467-3.3301 0.84571-0.495-0.147 1.6367-2.4297 1.6367-2.4297z" stroke-width=".57253"/>
		<path class="st1" d="m343.65 716.62s4.89-0.608 11.604-7.127l21.982-24.216h12.216l-10.178 31.141z" stroke-width=".22431"/>
		<path class="st2" d="m359.3 707.31c-0.392 0-0.709 0.505-0.709 0.505h1.427s-0.326-0.505-0.718-0.505" stroke-width=".22431"/>
		<path class="st2" d="m381.57 696.22c0.145-0.011-4.516-0.233-6.014 0.06-1.498 0.289-2.908 0.485-4.287 2.474-1.381 1.977-2.628 3.977-3.454 5.121-2.585 3.59-2.585 4.169-5.472 4.428-1.539 0.138-1.952 0.055-2.34-0.129-0.477-0.226-0.702-0.488-1.365 0.035-0.765 0.612-1.812 0.464-1.783 0.553h21.98s1.066 0.035 1.441-0.631l-0.549-0.205s-0.119 0.698-2.305 0.491c-2.181-0.201-5.032-0.742-5.032-0.742l6.767-9.557c0.422-0.521 0.996-1.062 1.545-1.549 0 0-2.732 0.286-3.883 1.956-1.17 1.694-6.353 8.798-6.353 8.798l-0.35-0.057 6.618-9.202c1e-3 0 0.974-1.555 4.836-1.844m-22.571 12.195s0.165-0.196 0.312-0.196c0.152 0 0.291 0.196 0.291 0.196z" stroke-width=".22431"/>
	</g>
</svg>
