<svg version="1.1" viewBox="0 0 100 100" xmlns="http://www.w3.org/2000/svg">
	<circle cx="50" cy="50" r="50" fill="#e6042e"/>
	<path transform="matrix(1.7466,0,0,1.7466,-590.23,-1174.3)" d="m377.24 685.28-21.982 24.216c-6.714 6.519-11.604 7.1266-11.604 7.1266l35.625-0.20128 10.177-31.141h-12.216z" fill="#fff"/>
	<path transform="matrix(1.7466,0,0,1.7466,-590.23,-1174.3)" d="m359.3 707.31c-0.392 0-0.70897 0.50433-0.70897 0.50433h1.4269s-0.32591-0.50433-0.71791-0.50433z" fill="#e6042e"/>
	<path transform="matrix(1.7466,0,0,1.7466,-590.23,-1174.3)" d="m378.16 696.13c-1.0311 0.00331-2.037 0.04109-2.5988 0.15096-1.498 0.289-2.9084 0.48568-4.2873 2.4747-1.381 1.977-2.6283 3.9764-3.4543 5.1204-2.585 3.59-2.5846 4.1692-5.4716 4.4282-1.539 0.138-1.9525 0.0554-2.3405-0.1286-0.477-0.226-0.70126-0.48833-1.3643 0.03467-0.765 0.612-1.8126 0.46341-1.7836 0.55241h21.98s1.0664 0.03531 1.4414-0.63069l-0.54906-0.20464s-0.11982 0.69791-2.3058 0.49091c-2.181-0.201-5.0321-0.74251-5.0321-0.74251l6.7676-9.5565c0.422-0.521 0.99641-1.0618 1.5454-1.5488 0 0-2.7327 0.28581-3.8837 1.9558-1.17 1.694-6.3527 8.7983-6.3527 8.7983l-0.35001-0.05703 6.6178-9.202c1e-3 0 0.97441-1.555 4.8364-1.844 0.09062-0.00687-1.6966-0.09722-3.4151-0.09169zm-18.845 12.09c0.152 0 0.29187 0.1957 0.29187 0.1957h-0.60386s0.16499-0.1957 0.31199-0.1957z" fill="#e6042e"/>
</svg>
