<svg version="1.1" viewBox="0 0 100 100" xmlns="http://www.w3.org/2000/svg">
	<rect width="100" height="100" fill="#004489"/>
	<polygon transform="matrix(2.1282,0,0,2.1282,9.7972,7.7761)" points="30.58 36.18 36.89 29.86 36.89 18.58 25.61 18.58 19.3 24.89 30.58 24.89" fill="#099"/>
	<path d="m63.641 70.857c-4.2352 2.3836-8.9385 3.7244-13.791 3.7244-19.409 0-35.073-15.834-36.435-34.094-0.61718 2.9157-0.91514 5.8526-0.91514 8.7683 0 22.857 15.068 40.245 37.904 40.245 4.6608 0 9.1088-0.78744 13.259-2.1921v-16.43z" fill="#fff"/>
	<path d="m84.732 24.057-12.237 12.237c-4.1713-6.7252-11.535-11.216-19.622-11.216-13.514 0-22.58 11.088-22.58 24.411 0 3.469 0.57462 6.6188 1.66 9.4068-6.1931-5.6185-10.045-13.408-10.045-22.155 0-15.11 12.854-27.241 31.54-27.241 13.323 0 24.751 5.9165 31.285 14.578z" fill="#fff"/>
</svg>
