<svg version="1.1" viewBox="0 0 318.1 100" xmlns="http://www.w3.org/2000/svg">
	<style type="text/css">.st0{fill:none;}
	.st1{fill:#D1161B;}
	.st2{fill:#1F2A68;}</style>
	<g transform="matrix(2.4455 0 0 2.4455 -408.18 -390.85)" stroke-width=".40891">
		<path class="st2" d="m215.11 185c-1.093 0-1.9593 0.35146-2.5733 1.0415-0.609 0.69199-0.92005 1.6651-0.92005 2.8951 0 1.146 0.30867 2.0584 0.90967 2.7194 0.603 0.658 1.4436 0.99354 2.4926 0.99354 0.499 0 0.94119-0.0693 1.3202-0.20127 0.378-0.136 0.7396-0.35271 1.0726-0.64771 0.204-0.184 0.37037-0.38878 0.49437-0.60778 0.125-0.225 0.19088-0.43616 0.19088-0.62216 0-0.198-0.0764-0.36835-0.22442-0.50635-0.148-0.138-0.32651-0.20925-0.53351-0.20925-0.141 0-0.26815 0.037-0.38415 0.099-0.104 0.062-0.22262 0.17782-0.35062 0.34182l-0.11421 0.19647-0.15893 0.24919c-0.131 0.152-0.30454 0.27339-0.51354 0.35939-0.21 0.08-0.4526 0.1214-0.7156 0.1214-0.602 0-1.0729-0.20796-1.3969-0.62296-0.326-0.413-0.49197-1.0124-0.49197-1.7794 0-0.75 0.16478-1.3462 0.48878-1.7722 0.323-0.419 0.77496-0.63094 1.337-0.63094 0.266 0 0.508 0.0442 0.714 0.13018 0.206 0.084 0.3873 0.21794 0.5383 0.39294l0.13896 0.20366c0.07 0.112 0.12909 0.19278 0.19009 0.24678 0.109 0.104 0.22264 0.18201 0.33464 0.23401 0.116 0.049 0.23618 0.0775 0.36418 0.0775 0.224 0 0.4057-0.0709 0.5407-0.20685 0.137-0.137 0.20446-0.32149 0.20446-0.54549 0-0.203-0.0643-0.41653-0.19727-0.63653-0.127-0.217-0.30711-0.40923-0.53111-0.57823-0.324-0.25-0.67128-0.43787-1.0303-0.55587-0.362-0.12-0.76259-0.1789-1.1956-0.1789zm47.885 4e-3c-0.864 0-1.5446 0.19543-2.0286 0.57743-0.486 0.387-0.73476 0.92928-0.73476 1.6213 0 0.609 0.17295 1.0822 0.50395 1.4032 0.332 0.32 0.97141 0.58646 1.9024 0.79946l0.10383 0.024c1.174 0.269 1.7674 0.6085 1.7674 1.0095 0 0.291-0.10944 0.50371-0.33144 0.65171-0.226 0.151-0.55991 0.22602-1.0079 0.22602-0.282 0-0.52617-0.042-0.73317-0.12299-0.195-0.082-0.36915-0.20657-0.50715-0.37457l-0.19807-0.28752c-0.232-0.35-0.48453-0.52872-0.75953-0.52872-0.211 0-0.38653 0.0748-0.51753 0.21884-0.127 0.14-0.19647 0.32807-0.19647 0.55107 0 0.214 0.0697 0.43311 0.19967 0.65411 0.128 0.222 0.30792 0.41384 0.52392 0.57184 0.32 0.226 0.65832 0.39117 0.99832 0.49117 0.338 0.105 0.74757 0.15494 1.2116 0.15494 0.875 0 1.5791-0.21613 2.0861-0.63413 0.50999-0.42 0.76591-1.0007 0.76591-1.7227 0-0.394-0.0708-0.73412-0.21883-1.0071-0.144-0.277-0.37186-0.50506-0.67886-0.67806-0.171-0.093-0.37717-0.18096-0.61817-0.26196-0.237-0.08-0.61471-0.18448-1.1277-0.31148l-0.46003-0.10941c-0.78699-0.185-1.186-0.45685-1.186-0.80585 0-0.261 0.0955-0.46058 0.29551-0.60858 0.201-0.141 0.49255-0.21404 0.86255-0.21404 0.258 0 0.48268 0.034 0.67168 0.10702 0.182 0.07 0.33702 0.17826 0.46002 0.32026l0.13817 0.1813c0.248 0.325 0.51109 0.48798 0.78109 0.48798 0.208 0 0.37994-0.0643 0.51194-0.18928 0.126-0.129 0.19088-0.29936 0.19088-0.50636 0-0.189-0.0663-0.38739-0.19726-0.60139-0.129-0.208-0.29775-0.38691-0.50875-0.53191-0.259-0.185-0.55712-0.32829-0.88412-0.41929-0.323-0.09-0.68659-0.13577-1.0806-0.13577zm-43.089 0.0918c-0.26 0-0.45782 0.0681-0.58782 0.20606-0.131 0.139-0.19487 0.34775-0.19487 0.62375v5.7791c0 0.267 0.0639 0.47457 0.19487 0.61657 0.13 0.139 0.32782 0.21244 0.58782 0.21244 0.257 0 0.46161-0.0714 0.58861-0.21244 0.131-0.136 0.19567-0.34357 0.19567-0.61657v-2.4343h2.8608v2.4343c0 0.27 0.0677 0.47657 0.19966 0.61657 0.131 0.141 0.33022 0.21244 0.58622 0.21244 0.264 0 0.463-0.0709 0.595-0.21085 0.13-0.137 0.19567-0.34516 0.19567-0.61816v-5.7791c0-0.27-0.0677-0.48176-0.19966-0.61976-0.135-0.142-0.33001-0.21005-0.59101-0.21005-0.259 0-0.45921 0.0681-0.59021 0.20606-0.128 0.139-0.19567 0.34775-0.19567 0.62375v1.9352h-2.8608v-1.9352c0-0.27-0.0675-0.48176-0.19647-0.61976-0.133-0.142-0.33081-0.21005-0.58781-0.21005zm7.4371 0c-0.258 0-0.45622 0.0681-0.58622 0.20606-0.129 0.139-0.19887 0.34775-0.19887 0.62375v5.7791c0 0.267 0.0727 0.47457 0.19967 0.61657 0.132 0.141 0.33042 0.21244 0.58542 0.21244 0.259 0 0.46001-0.0714 0.59101-0.21244 0.128-0.136 0.19407-0.34357 0.19407-0.61657v-5.7791c0-0.27-0.0695-0.48176-0.19647-0.61976-0.134-0.142-0.33261-0.21005-0.58861-0.21005zm3.1691 5e-3c-0.35 0-0.59816 0.0858-0.73716 0.25078-0.138 0.167-0.20526 0.46707-0.20526 0.91607v5.3478c0 0.317 0.0609 0.55123 0.1829 0.69723 0.124 0.151 0.32201 0.22842 0.58701 0.22842 0.261 0 0.45922-0.0786 0.58622-0.23161 0.13-0.15 0.19008-0.38304 0.19008-0.69404v-3.9598c0.163 0.272 2.412 4.0588 2.412 4.0588 0.218 0.363 0.39867 0.58806 0.55666 0.68206 0.154 0.093 0.37014 0.14456 0.63814 0.14456 0.30699 0 0.53029-0.0906 0.65729-0.25957 0.124-0.172 0.18609-0.4633 0.18609-0.8913v-5.367c0-0.311-0.0621-0.54804-0.18609-0.69404-0.127-0.15-0.32282-0.22842-0.58382-0.22842-0.265 0-0.46241 0.0778-0.58941 0.23082-0.124 0.15-0.18689 0.38264-0.18689 0.69164v3.9725c-0.161-0.274-2.3121-3.8959-2.3121-3.8959-0.389-0.664-0.7946-0.99913-1.1956-0.99913zm57.327 0c-0.35 0-0.59497 0.0858-0.73397 0.25078-0.141 0.167-0.20845 0.46707-0.20845 0.91607v5.3478c0 0.321 0.0631 0.54923 0.18609 0.69723 0.122 0.151 0.31801 0.22842 0.58701 0.22842 0.26 0 0.45502-0.0786 0.58302-0.23161 0.128-0.152 0.19088-0.38304 0.19088-0.69404v-3.9598c0.162 0.27 2.4128 4.0588 2.4128 4.0588 0.215 0.363 0.39926 0.58806 0.55826 0.68206 0.154 0.093 0.36894 0.14456 0.63494 0.14456 0.308 0 0.5289-0.0906 0.6549-0.25957 0.129-0.172 0.18928-0.4633 0.18928-0.8913v-5.367c0-0.311-0.0631-0.54804-0.18609-0.69404-0.12599-0.15-0.32121-0.22842-0.58621-0.22842-0.262 0-0.45962 0.0778-0.58462 0.23082-0.127 0.15-0.19008 0.38264-0.19008 0.69164v3.9725c-0.162-0.274-2.3129-3.8959-2.3129-3.8959-0.38799-0.664-0.79279-0.99913-1.1948-0.99913zm-48.212 0.0128c-0.345 0-0.58157 0.0456-0.73157 0.14456-0.149 0.097-0.27694 0.30952-0.39694 0.64452l-1.9791 5.5603-0.0559 0.19886-0.0192 0.19567c0 0.206 0.0722 0.37836 0.21324 0.50236 0.14 0.126 0.32089 0.19168 0.54389 0.19168 0.194 0 0.35199-0.0496 0.47999-0.14056 0.124-0.095 0.21533-0.23669 0.28033-0.42569 0 0 0.26867-0.84053 0.31867-0.99353h2.7083l0.32825 0.99433c0.062 0.192 0.15493 0.33408 0.27793 0.42808 0.121 0.091 0.27881 0.13737 0.47281 0.13737 0.226 0 0.41128-0.0657 0.55028-0.19168 0.143-0.13 0.21643-0.30036 0.21643-0.50236l-0.0176-0.19567-0.0615-0.19886-2.0134-5.581c-0.123-0.331-0.25811-0.53674-0.40811-0.63174-0.151-0.092-0.37982-0.13657-0.70682-0.13657zm16.672 0c-0.346 0-0.58217 0.0456-0.73317 0.14456-0.15 0.097-0.27794 0.30952-0.39694 0.64452l-1.9775 5.5603-0.0591 0.19886-0.0176 0.19567c0 0.206 0.0716 0.37836 0.21164 0.50236 0.141 0.126 0.32349 0.19168 0.54549 0.19168 0.195 0 0.35359-0.0496 0.48159-0.14056 0.124-0.095 0.21514-0.23669 0.27714-0.42569 0 0 0.26966-0.84053 0.31866-0.99353h2.7107l0.32745 0.99433c0.062 0.192 0.15413 0.33408 0.27713 0.42808 0.123 0.091 0.28041 0.13737 0.47441 0.13737 0.223 0 0.41107-0.0657 0.55107-0.19168 0.141-0.13 0.21564-0.30036 0.21564-0.50236l-0.0192-0.19567-0.0607-0.19886-2.0134-5.581c-0.124-0.331-0.25791-0.53674-0.40891-0.63174-0.149-0.092-0.37942-0.13657-0.70442-0.13657zm-8.6423 0.0783c-0.35 0-0.59437 0.0834-0.73637 0.25238-0.137 0.169-0.20445 0.46865-0.20445 0.92165v4.9102c0 0.451 0.0675 0.74986 0.20445 0.91686 0.142 0.166 0.38437 0.25158 0.73637 0.25158h3.7809c0.271 0 0.48235-0.0573 0.62535-0.1773 0.144-0.12 0.21804-0.29632 0.21804-0.52632 0-0.233-0.071-0.41172-0.21804-0.52472-0.137-0.118-0.35035-0.1773-0.62535-0.1773h-3.1731v-1.7586h2.6771c0.264 0 0.47417-0.0545 0.61417-0.16453 0.146-0.113 0.21963-0.27798 0.21963-0.48798 0-0.223-0.0726-0.39176-0.21564-0.50076-0.13499-0.109-0.34516-0.16532-0.61816-0.16532h-2.6771v-1.432h2.9838c0.272 0 0.48136-0.0579 0.62136-0.16692 0.146-0.115 0.21883-0.27598 0.21883-0.49198 0-0.223-0.0728-0.39395-0.21883-0.50795-0.14-0.115-0.34936-0.17091-0.62136-0.17091zm26.5 0c-0.35 0-0.59657 0.0834-0.73557 0.25238-0.137 0.169-0.20286 0.46865-0.20286 0.92165v4.9102c0 0.451 0.0659 0.74986 0.20286 0.91686 0.139 0.166 0.38557 0.25158 0.73557 0.25158h3.7833c0.272 0 0.48235-0.0573 0.62535-0.1773s0.22043-0.29632 0.22043-0.52632c0-0.233-0.073-0.41212-0.21404-0.52712-0.144-0.116-0.35774-0.1749-0.63174-0.1749h-3.1779v-1.7586h2.6819c0.267 0 0.47217-0.0545 0.61417-0.16453 0.146-0.113 0.22123-0.27778 0.22123-0.48878 0-0.222-0.071-0.39096-0.21404-0.49996-0.14-0.109-0.34836-0.16532-0.62136-0.16532h-2.6819v-1.432h2.9878c0.271 0 0.48256-0.0579 0.62456-0.16692 0.147-0.115 0.22043-0.27598 0.22043-0.49198 0-0.223-0.0734-0.39395-0.22043-0.50795-0.14-0.116-0.35356-0.17091-0.62456-0.17091zm6.573 2e-3c-0.35 0-0.59777 0.0834-0.73477 0.25237-0.139 0.168-0.20446 0.46946-0.20446 0.92246v5.339c0 0.26799 0.0639 0.47436 0.19088 0.61736 0.133 0.141 0.32941 0.21165 0.58941 0.21165 0.259 0 0.45801-0.0707 0.59101-0.21165 0.127-0.137 0.19328-0.34437 0.19328-0.61736v-2.043h1.5143c0.362 0 0.61694 0.0627 0.75394 0.18769 0.137 0.125 0.22655 0.47227 0.26355 1.0303 0.05 0.744 0.14013 1.1931 0.28113 1.3801 0.136 0.187 0.37224 0.28353 0.69324 0.28353 0.233 0 0.42285-0.0651 0.56785-0.19408 0.14-0.128 0.21404-0.30172 0.21404-0.52072 0-0.068-0.0191-0.17982-0.0551-0.34582l-0.0711-0.36419c-0.017-0.079-0.0275-0.22388-0.0335-0.43288l-0.0303-0.52232c-0.03-0.333-0.11996-0.60106-0.26196-0.80106-0.124-0.177-0.3101-0.30073-0.5351-0.39773 0.303-0.116 0.5438-0.30843 0.7148-0.57743 0.186-0.296 0.28113-0.67273 0.28113-1.1157 0-0.701-0.19403-1.2296-0.57903-1.5686-0.383-0.34-0.97564-0.51194-1.7666-0.51194zm-13.623 0.0176c-0.248 0-0.44225 0.0597-0.57025 0.17171-0.131 0.118-0.19886 0.28594-0.19886 0.51194 0 0.224 0.0653 0.39575 0.19327 0.50875 0.124 0.11 0.31984 0.16452 0.57584 0.16452h1.4432v5.1434c0 0.268 0.0689 0.47656 0.19887 0.61656 0.131 0.142 0.33141 0.21245 0.58941 0.21245 0.259 0 0.45362-0.0705 0.58462-0.21245 0.128-0.136 0.19487-0.34256 0.19487-0.61656v-5.1434h1.4472c0.25 0 0.44225-0.0569 0.57025-0.17091 0.129-0.112 0.19168-0.28236 0.19168-0.50236 0-0.226-0.0627-0.39394-0.19168-0.51194-0.128-0.112-0.32025-0.17171-0.57025-0.17171zm14.248 1.3098h1.7507c0.323 0 0.57137 0.0792 0.73637 0.22922 0.162 0.15 0.24439 0.37727 0.24439 0.67327 0 0.315-0.0826 0.54185-0.24758 0.68285-0.167 0.144-0.43986 0.21724-0.80186 0.21724h-1.682zm-41.757 0.30509c0.079 0.241 0.89624 2.737 0.93124 2.848h-1.8609c0.04-0.111 0.84964-2.605 0.92964-2.848zm16.67 0c0.08 0.241 0.89484 2.737 0.93284 2.848h-1.8617c0.039-0.111 0.85084-2.605 0.92884-2.848z"/>
		<path class="st1" d="m217.39 169.57c-0.418 0-0.75634 0.34173-0.75634 0.75873v1.0822h-3.9781c-0.571 1e-3 -1.039 0.47585-1.039 1.0478l2e-3 5.0986c0 0.571 0.46566 1.0394 1.0367 1.0454 0 0 3.5281 6e-3 3.9781 6e-3v2.4431c0 0.415 0.33834 0.75553 0.75634 0.75553 0.41699 0 0.75553-0.34053 0.75553-0.75553v-2.4383c0.091 0 3.9989 7e-3 3.9989 7e-3 0.58 0 1.047-0.46885 1.047-1.0438v-5.121c0-0.577-0.46665-1.0454-1.0446-1.0454h-4.0013v-1.0822c0-0.417-0.33854-0.75873-0.75553-0.75873zm27.979 0.0663c-0.409 0-0.74516 0.33495-0.74516 0.74595v0.14216h-4.4406c-0.409 0-0.74595 0.32897-0.74595 0.73397 0 0.404 0.33695 0.73237 0.74595 0.73237h4.4406v0.70043h-3.4167c-0.655 0.023-1.0319 0.40006-1.0319 1.0391l-4e-3 2.9982 6e-3 0.0184c0 0.57 0.46547 1.0335 1.0335 1.0335 0 0 2.2135-3e-3 2.4695-3e-3 -1.411 1.049-3.9875 2.1398-4.0165 2.1508-0.253 0.133-0.41051 0.38848-0.41051 0.67248 0 0.413 0.33335 0.74754 0.74835 0.74754l0.19008-0.0272c0.034 0 2.7718-0.82501 4.4238-2.622 1e-3 0.214 0 2.4894 0 2.4894 0 0.416 0.34494 0.74595 0.75394 0.74595 0.41199 0 0.74435-0.32995 0.74435-0.74595 0 0 2e-3 -2.0277 0-2.5477 1.204 1.351 4.1426 2.6807 4.1746 2.6947 0.114 0.068 0.42486 0.11101 0.55986 0.11101 0.39 0 0.69963-0.33771 0.69963-0.77071 0-0.312-0.29525-0.56503-0.57025-0.69403-0.024-9e-3 -2.0349-0.85231-3.9709-2.2043h2.491c0.568 0 1.0327-0.46407 1.0327-1.0311l-6e-3 -0.0711v-0.0799c0-0.474-8e-3 -2.8728-8e-3 -2.8728 0-0.556-0.43494-1.0085-0.99194-1.0295 0 0-3.0033-2e-3 -3.4063-2e-3v-0.70043c0.093 0 4.4533-0.01 4.4533-0.01 0.42 0 0.74675-0.31679 0.74675-0.72279 0-0.405-0.34093-0.73397-0.75793-0.73397h-4.4422v-0.14216c0-0.411-0.33715-0.74595-0.74914-0.74595zm30.11 0.0264c-0.403 0-0.73237 0.33176-0.73237 0.73876v0.87533h-1.3649c-0.436 0-0.78908 0.33037-0.78908 0.73237s0.35308 0.73158 0.78908 0.73158h4.641c0.432 0 0.78428-0.32958 0.78428-0.73158s-0.35228-0.73237-0.78428-0.73237h-1.809v-0.87933c0-0.403-0.32977-0.73476-0.73477-0.73476zm-16.566 0.0296c-0.42 0-0.7763 0.34414-0.7763 0.74914v1.0047h-4.4214c-0.414 0-0.74994 0.33374-0.74994 0.75074 0 0.412 0.33594 0.74994 0.74994 0.74994 0 0 1.8534-0.0176 2.1644-0.0216l-8e-3 1.8361c-0.103 2.913-1.463 4.6749-2.043 5.4269l-0.15893 0.21084c-0.18 0.135-0.28752 0.35122-0.28752 0.58622 0 0.415 0.33754 0.75074 0.75154 0.75074 0.228 0 0.48177-0.10536 0.61577-0.26036l0.0152-0.0104c0.532-0.42 2.2928-2.078 2.6308-5.827h4.768c0 0.764-0.0221 1.6642-0.0671 2.7522-0.077 1.888-1.382 1.8418-2.011 1.8178l-0.0399-2e-3c-0.546-0.057-1.3689-0.25877-1.3769-0.25877l-0.20207-0.024c-0.41199 0-0.74994 0.33515-0.74994 0.74915 0 0.347 0.23525 0.64558 0.57025 0.72758 0 9e-3 0.79363 0.2829 1.5326 0.2939l0.14695 2e-3c0.942 0.014 2.0054 0.0306 2.7554-0.69643 0.633-0.615 0.95057-1.6624 0.96957-3.1994 0.03-0.636 0.0471-1.6525 0.0471-2.2315 0-0.17999-2e-4 -0.31794-3e-3 -0.38894-0.032-0.589-0.48086-1.0319-1.0359-1.0319 0 0-4.751-8e-3 -5.224-8e-3v-1.214l6.6984 0.0216c0.413 0 0.74914-0.33794 0.74914-0.74994 0-0.417-0.33614-0.75074-0.74914-0.75074h-4.4653v-1.0247c0-0.396-0.36746-0.72917-0.79546-0.72917zm11.033 0.012c-0.14288-7e-3 -0.28437 0.0289-0.40812 0.10462-0.167 0.1-0.28624 0.25725-0.33224 0.44725l-0.24759 0.98635-1.0175 6e-3 -0.0288-5e-3c-0.404 0-0.73078 0.33754-0.73078 0.75154v3.3104c-0.417 3e-3 -0.75313 0.32599-0.75313 0.72198 0 0.394 0.33594 0.715 0.74994 0.718l-7e-3 0.4185-6e-3 0.0743 5e-3 0.028c-0.014 0.573-0.0508 1.1027-0.10782 1.5877l-6e-3 0.0711c-0.167 1.418-0.44684 1.9763-0.44884 1.9823-0.027 0.103-0.0487 0.2027-0.0487 0.3027 0 0.398 0.32758 0.72199 0.72758 0.72199 0.28 0 0.54209-0.1659 0.66209-0.4209 0.032-0.06 0.35687-0.66536 0.55187-2.4104l0.0112-0.10862c0.052-0.531 0.0924-1.1219 0.11341-1.7499 0-4e-3 0.0104-0.36777 0.0104-0.49677h0.5335v1.8026c0 0.393 0.24543 0.67806 0.58143 0.67806 0.345 0 0.60618-0.29206 0.60618-0.67806v-1.8114l0.57025-2e-3v3.4902l-0.0583 0.14056c-0.153 0.128-0.54903 0.0593-0.69803 0.0343l-0.0807-0.0112c-0.394 0.016-0.66129 0.29683-0.66129 0.69883 0 0.319 0.12018 0.42272 0.24918 0.52872l0.0343 0.0279c0.179 0.153 0.47275 0.16593 0.50875 0.16293 0.945 0.037 1.462-0.075 1.773-0.38097 0.271-0.266 0.39214-0.6883 0.39214-1.3673v-3.324h0.0719c0.399 0 0.69164-0.30159 0.69164-0.71959s-0.29264-0.72359-0.69164-0.72359h-0.0719v-3.3096c0-0.415-0.32798-0.74994-0.72998-0.74994 0 0-1.0952 4e-3 -1.2092 4e-3 0.026-0.094 0.13018-0.51194 0.13018-0.51194l0.0415-0.11341 0.0232-0.1781c0-0.13-0.0362-0.25838-0.10622-0.37138-0.098-0.168-0.25565-0.28644-0.44565-0.33544-0.0473-0.0115-0.0953-0.0186-0.14296-0.0208zm17.021 0.0152c-0.416 0-0.74994 0.33654-0.74994 0.75154v0.50316h-3.8615c-0.572 7e-3 -1.0391 0.47305-1.0391 1.043l2e-3 0.0256v1.5055c0 0.415 0.33814 0.74994 0.74914 0.74994 0.417 0 0.74995-0.33494 0.74995-0.74994v-1.075h1.7499c4e-3 0.048 0.0144 0.131 0.0144 0.242 0 0.156-0.0175 0.36183-0.0775 0.57583-0.217 0.76-0.98716 1.2898-2.2922 1.5718l-0.0495 0.0104c-0.38199 0.041-0.66288 0.34598-0.66288 0.72598 0 0.404 0.35727 0.75074 0.78827 0.75074l0.0847-8e-3c2.91-0.267 3.6818-1.7848 3.8248-3.0118 0.036-0.342 0.0423-0.71597 0.0423-0.85697v-8e-3l1.4679 8e-3v2.7258c5e-3 0.564 0.4475 1.0173 1.0135 1.0303l2.1811 7.9e-4c1.132 0 1.6127-0.78886 1.6157-0.79386 0.088-0.126 0.13237-0.32283 0.14137-0.46482 0.02-0.361-0.13829-0.45746-0.30829-0.56546l-0.0383-0.0248c-0.268-0.169-0.56013-0.11526-0.87613 0.15574-0.373 0.318-0.68845 0.27155-0.68845 0.27155l-1.281-6e-3 -0.19488-0.0727-0.0703-0.19088 4e-3 -2.0661h2.0182c-0.027 0.098-0.16213 0.60379-0.16213 0.60379l-0.0224 0.1773c0 0.132 0.0366 0.25858 0.10862 0.37458 0.102 0.169 0.27042 0.28684 0.46642 0.33384 0.406 0.094 0.87956-0.19062 0.97356-0.58862 0.011-0.031 0.30072-0.82924 0.29072-1.2882-0.011-0.734-0.36579-1.0987-1.0838-1.1157-0.027 0-3.6136 4e-3 -4.0596 4e-3v-0.50316c0-0.407-0.35111-0.75154-0.76911-0.75154zm-50.943 0.48878-9.2062 4e-3c-0.57 7e-3 -1.0319 0.47586-1.0319 1.0438v9.2948c5e-3 0.575 0.46687 1.0444 1.0319 1.0574h9.2062c0.576-4e-3 1.043-0.47544 1.043-1.0494l5e-3 -9.3036c0-0.577-0.46965-1.0438-1.0446-1.0438zm-8.6439 1.4256 8.0681 3e-3 0.14615 0.0471 0.0375 0.1198-0.0208 8.1951c-1e-3 0.123-0.0621 0.18529-0.18609 0.18529l-3.3216-7e-3 -4.7369-9e-3c-0.11 0-0.16532-0.0581-0.16532-0.18209l5e-3 -8.1799 0.0391-0.13098zm4.6634 0.0687c-0.195 0-0.35942 0.0649-0.46642 0.1789-0.104 0.117-0.14318 0.2798-0.13018 0.4768l3e-3 0.0168 0.0232 0.20845c-0.104 0-3.455 8e-3 -3.455 8e-3 -0.309 0-0.65491 0.24599-0.65491 0.59899 0 0.324 0.28476 0.5958 0.62376 0.5958l3.6443 9e-3c0.219 1.37 0.50992 2.5203 0.88491 3.5173-0.47099 0.734-0.90896 1.3196-1.095 1.5526-0.083 0.086-0.15494 0.36544-0.15494 0.57344l0.0367 0.20605c0.099 0.168 0.25028 0.2725 0.42728 0.2955 0.2 0.028 0.40084-0.0524 0.57584-0.22442 0.165-0.167 0.26231-0.32126 0.40731-0.55826 0 0 0.31097-0.47303 0.38097-0.57903 0.352 0.683 0.65968 1.1363 0.66368 1.1413 0.115 0.183 0.31791 0.2995 0.53191 0.2995 0.237 0 0.45487-0.1406 0.55587-0.3546l0.0296-0.0559c0.106-0.196 0.37646-0.71937 0.56146-1.8074v-4e-3c0.018-0.234-0.0326-0.42586-0.15255-0.56386-0.092-0.109-0.22416-0.1685-0.38016-0.1765-0.238-0.011-0.50885 0.1265-0.56785 0.4145 0 0-0.10094 0.44986-0.15494 0.68286-0.082-0.179-0.29347-0.66723-0.31147-0.70123 0.57299-0.94999 0.96438-1.8305 1.2004-2.6915l0.0216-0.22203c-0.012-0.164-0.0851-0.31189-0.20206-0.42089-0.125-0.107-0.27887-0.16035-0.43687-0.14935-0.253 0.013-0.46969 0.18727-0.54469 0.43127-3e-3 8e-3 -0.3104 0.95763-0.5934 1.5366-0.171-0.57-0.32441-1.259-0.47441-2.142h2.0078c0.329 0 0.59581-0.27059 0.59581-0.60459 0-0.336-0.26681-0.60698-0.59581-0.60698h-0.31706l5e-3 -0.0647c0-0.152-0.0499-0.29831-0.15095-0.41531l-0.0727-0.0871c-0.109-0.132-0.26507-0.21422-0.43607-0.22522-0.172-0.015-0.33581 0.0387-0.46881 0.14775-0.08 0.068-0.12259 0.15995-0.12459 0.26995v6e-3c0 0.119 0.0639 0.24361 0.15095 0.35061-0.14 3e-3 -0.67037 0.01-0.73637 0.01l-0.0423-0.26036c-0.047-0.407-0.25077-0.61257-0.61177-0.61257zm38.851 1.0406v2.5573c-0.075 0-0.53807 2e-3 -0.67407 2e-3 0.096-0.117 0.16213-0.25889 0.16213-0.42089l-8e-3 -0.11501-0.16053-1.0247c-0.026-0.18-0.11738-0.33029-0.25238-0.42729-0.129-0.089-0.29064-0.12224-0.44964-0.0902-0.306 0.058-0.51354 0.33232-0.51354 0.64932l0.01 0.10782 0.15654 1.0247c0.02 0.12 0.0584 0.2143 0.11341 0.2963-0.124 0-0.56693 4e-4 -0.63893 2e-3v-2.5581zm-57.585 0.17171s3.2308 8e-3 3.3248 8e-3v4.1794c-0.094 0-3.3352-2e-3 -3.3352-2e-3 -0.015 0-0.15054-5e-3 -0.16054-0.18609v-3.8288l0.0439-0.12459zm4.8311 0h3.2905l0.14935 0.0511 0.0391 0.10702v0.016l8e-3 3.7912v0.0176l-0.0471 0.15893-0.12539 0.0431h-3.3144zm56.369 0.50635-0.0344 7e-3 -0.0351 2e-3c-0.521 0-0.93878 0.44148-0.96478 1.0255v3.586c-0.068 1.493-0.69362 2.3698-0.82262 2.5318l-0.0256 0.0351-0.0216 0.0256c-0.01 0.022-0.12859 0.2465-0.12859 0.4185 0 0.401 0.32918 0.72997 0.72918 0.72997 0.232 0 0.44582-0.10591 0.58382-0.28991 2e-3 -4e-3 1.2547-1.306 1.2547-3.356v-0.02c2e-3 -0.322-0.0144-3.1779-0.0144-3.1779h1.2699c0 0.329 2e-3 2.4114 2e-3 3.9214 0 0.821 4e-4 1.472-2e-3 1.575 7e-3 0.604 0.38498 1.2174 1.091 1.2164l0.8929-2e-3c0.027 3e-3 0.76725 0.0655 1.1652-1.2795l0.0288-0.11101 0.0439-0.27793 8e-4 -0.0463c0.013-0.15 0.032-0.46914-0.49597-0.63014-0.321-0.098-0.58321 0.043-0.70921 0.37697l-0.0727 0.21404c-0.062 0.207-0.0922 0.28032-0.20525 0.28832l-0.27873 3e-3v-5.7384c0-0.01-0.0257-0.96888-1.0047-1.0279h-2.1492zm-28.341 0.45364h2.9886l-0.0112 0.73797h-2.9806zm-4.5651 2e-3h3.0205v0.73796h-3.0237zm-13.469 0.27075c-0.169 0-0.32528 0.0772-0.43128 0.20924-0.084 0.105-0.13018 0.23099-0.13018 0.36499v2.2978l0.016 0.11581c0.05 0.263 0.27848 0.45523 0.54548 0.45523h2.8472l0.16532-0.024c0.235-0.07 0.39773-0.29589 0.39773-0.54388v-2.301l-0.0479-0.22123c-0.085-0.216-0.28613-0.353-0.51513-0.353zm0.55028 1.1373h1.7491v1.1684h-1.7491zm17.483 0.49517h2.9886l-0.0112 0.73557h-2.9806zm-4.5651 5e-3h3.0205v0.73876h-3.0237zm40.903 0.92565c-0.414 0-0.74994 0.33694-0.74994 0.74994 0 0.415 0.33594 0.75234 0.74994 0.75234h3.7226v1.9088h-4.431c-0.413 0-0.74915 0.33614-0.74915 0.74914s0.33615 0.74995 0.74915 0.74995h10.347c0.411 0 0.74994-0.33695 0.74994-0.74995s-0.33894-0.74914-0.74994-0.74914h-4.3743v-1.9088h3.7242c0.415 0 0.75314-0.33734 0.75314-0.75234 0-0.413-0.33814-0.74994-0.75314-0.74994zm-51.567 1.0542c-0.213-2e-3 -0.39953 0.0648-0.40253 0.0663-0.016 5e-3 -1.4537 0.46544-2.4407 0.45444-0.465-6e-3 -0.6974 0.31737-0.7164 0.61337-0.011 0.133 0.0457 0.27254 0.15574 0.39054 0.147 0.153 0.36129 0.25517 0.54229 0.25717 1.694 0.012 2.9712-0.55685 2.9822-0.56385h3e-3c0.32-0.149 0.58747-0.50274 0.43847-0.86974-0.11-0.2745-0.34926-0.34597-0.56226-0.34822z"/>
		<path class="st2" d="m203 177.35c-10.766 0.298-21.185 2.74-22.155 6.204-0.087 0.315-0.108 0.627-0.108 0.943 0 3.411 7.122 4.578 14.832 5.539 0.133 0.015 0.127-0.088 0.083-0.164-0.029-0.054-0.143-0.26-0.223-0.4-0.03-0.054-0.064-0.089-0.172-0.121-4.222-1.074-8.506-2.644-8.506-4.103 0-2.768 7.18-5.51 15.355-6.76 0.269-0.052 0.399-0.104 0.579-0.247 0.227-0.181 0.727-0.589 0.937-0.758 0.138-0.114 0.088-0.149 0.038-0.147-0.219 2e-3 -0.439 6e-3 -0.66 0.014" fill="#1f2a68"/>
		<path class="st1" d="m191.09 194.05c-5.592-1.401-11.135-6.094-10.262-10.44 1.276-6.343 9.808-12.49 20.457-15.376 0.24-0.071 0.329-0.232 0.021-0.232h-14.533c-2.517 0-3.062 0.327-4.036 1.644-0.519 0.702-4.869 6.696-6.831 9.401-0.252 0.321-0.608 0.666-1.403 0.666h-3.504l1e-3 6e-3c4.154 11.735 8.619 14.503 13.089 14.503h7.058c0.1 0 0.2-0.108-0.057-0.172" fill="#d1161b"/>
	</g>
</svg>
