<svg enable-background="new 0 0 308.4 100" version="1.1" viewBox="0 0 308.4 100" xmlns="http://www.w3.org/2000/svg">
	<style type="text/css">.st0{fill:url(#a);}
	.st1{fill:#FFFFFF;}
	.st2{fill:url(#SVGID_00000130615250817558126780000015104011101652272265_);}
	.st3{fill:url(#SVGID_00000085943087958481986820000002212113609107168946_);}
	.st4{fill:url(#SVGID_00000166636653281452668000000010051564591230537903_);}
	.st5{fill:#323232;}</style>
	<linearGradient id="a" x1="-1438.3" x2="-1436.8" y1="179.56" y2="179.56" gradientTransform="matrix(-26.469 -38.657 -38.657 26.469 -31068 -60274)" gradientUnits="userSpaceOnUse">
		<stop stop-color="#BE0000" offset="0"/>
		<stop stop-color="#d00" offset=".3828"/>
		<stop stop-color="#F60000" offset=".7663"/>
		<stop stop-color="#f00" offset="1"/>
	</linearGradient>
	<path class="st5" d="m96.301 41c-11.4 0-19.301 5.8996-19.301 13.6 0 7.5 7.4004 13.5 18.9 13.5v0.09961h15.5c2.7 0 4-1.0988 5-2.7988l1.5996-2.8008c0-0.1-6.8008-0.099609-6.8008-0.099609 2.8-2.3 4.3008-5.0008 4.3008-8.3008 0-7.4-7.7992-13.199-19.199-13.199zm63 2.0996v24.9h6.6992v-16.4l19.801 16.5h6.6992v-24.9h-6.6992v16.301l-17.801-14.801c-1.1-1-2.3004-1.5996-4.4004-1.5996h-4.2988zm119.9 0c-4.8 0-9.3996 0.90078-12.1 2.8008-1.4 1.1-2.4004 2.6996-2.4004 4.5996 0 2.6 1.4012 4.3008 3.7012 5.3008s5.4004 1.5992 12.4 2.6992c6.3 1 8.3996 1.3992 9.0996 1.6992 0.6 0.1 0.90039 0.40039 0.90039 0.90039 0 1-1.9 1.9004-9.5 1.9004-4.7 0-9.8012-0.59961-14.701-2.0996l-1.6992 5.4004 0.59961 0.09961c4.1 1.3 10.499 2.0988 16.699 2.2988 3.8 0 7.3008-0.39961 9.8008-1.0996 4.1-1.3 6.5-3.5992 6.5-6.6992-0.1-2.6-1.8-4.5996-4.5-5.5996-2-0.7-4.4008-1.3004-11.801-2.4004-6.7-1.1-7.9988-1.4012-8.7988-1.7012-0.7-0.3-1-0.6-1-1 0-0.4 0.3-0.7 1-1 1.3-0.3 3.6988-0.59961 7.2988-0.59961 5.1 0 8.7004 0.40039 15.4 1.9004l1.4004-5.3008-0.59961-0.09961c-6-1.4-11.201-2-17.701-2zm-143.2 0.09961c-2.8 0-4.3008 1.3-5.3008 3l-12.699 21.701h7.6992l2.6016-4.5996h18.1l2.6992 4.5996h7.7012l-12.701-21.801c-1-1.7-2.3988-2.9004-5.2988-2.9004h-2.8008zm59.9 0v5.5h13.799v19.4h6.8008v-19.4h13.9v-5.5h-34.5zm46.5 0c-2.8 0-4.3008 1.3-5.3008 3l-12.699 21.801h7.5l2.5996-4.5996h18.199l2.7012 4.5996h7.6992l-12.699-21.801c-1-1.8-2.4012-3-5.2012-3h-2.7988zm-146.1 3.8008c6.4 0 11.699 3.1004 11.699 7.4004 0 4.3-5.4992 7.4004-11.699 7.4004-6.3 0-11.501-3.0004-11.701-7.4004 0-4.3 5.4012-7.4004 11.701-7.4004zm41 0.69922c0.1 0 0.29844 7.81e-4 0.39844 0.30078l5.6016 10h-12l5.5996-10c0.1-0.3 0.30039-0.30078 0.40039-0.30078zm106.3 0c0.1 0 0.30039 7.81e-4 0.40039 0.30078l5.5996 10h-12l5.5996-10c0.1-0.3 0.30039-0.30078 0.40039-0.30078z" enable-background="new 0 0 308.4 100"/>
	<path class="st0" d="M43.3,31.5c-6.3-6.3-14.8-10-23.6-10H10l0.7,1.9l3.3,8.5l17.7,46.5H90L43.3,31.5z"/>
	<path class="st1" d="m47.6 60.1-2.4-1c-1.3-0.4-2-1.7-2-3.1 0.1-5.1 12.1-4 13.4-6.5l0.1-0.4c-2.4-2.1-5.4-3.7-8.7-4.6 0 0.1-0.1 0.7 0.6 1.9 0.7 1.1-0.7 3-3 1h-0.1c-16.2-14.8-28.3-7.1-34.7-23.8l3.3 8.4c6.3 10.9 23.1 12 24.9 29 0.1 0.7 0.6 1.3 1.3 1.4 9.7 1.6 19.1 5.5 27.4 12.1h0.1c0.1 0 0.1 0 0.1-0.1 0.1-0.1 0.1-0.3 0-0.4-5.7-6.1-12.5-10.8-20.3-13.9z"/>
	<linearGradient id="c" x1="-1597.9" x2="-1596.4" y1="-121.29" y2="-121.29" gradientTransform="matrix(.3568 -4.0783 -4.0783 -.3568 125.33 -6507.2)" gradientUnits="userSpaceOnUse">
		<stop stop-color="#fff" offset="0"/>
		<stop stop-color="#fff" offset=".65"/>
		<stop stop-color="#E0E0E0" offset=".7282"/>
		<stop stop-color="#C5C5C5" offset=".8147"/>
		<stop stop-color="#B5B5B5" offset=".8915"/>
		<stop stop-color="#AFAFAF" offset=".95"/>
		<stop stop-color="#AFAFAF" offset="1"/>
	</linearGradient>
	<path d="m52.8 48.9s-2.7 0.1-4.3-2.6c0.6 0.9 0 2-1.1 2v4c1.7-0.6 3.7-0.9 5.4-1.1v-2.3z" fill="url(#c)"/>
	<linearGradient id="d" x1="-1338.1" x2="-1336.7" y1="138.13" y2="138.13" gradientTransform="matrix(17.165 0 0 -17.165 23011 2439.3)" gradientUnits="userSpaceOnUse">
		<stop stop-color="#fff" offset="0"/>
		<stop stop-color="#F1F1F1" offset=".083276"/>
		<stop stop-color="#D4D4D4" offset=".2919"/>
		<stop stop-color="#C0C0C0" offset=".4994"/>
		<stop stop-color="#B3B3B3" offset=".7035"/>
		<stop stop-color="#AFAFAF" offset=".9"/>
		<stop stop-color="#AFAFAF" offset="1"/>
	</linearGradient>
	<path d="m42.2 62.7c9 1.7 17.7 5.6 25.2 11.7-12.2-10.4-19.6-12-23.1-12-1.1 0-2 0.3-2.1 0.3z" fill="url(#d)"/>
	<linearGradient id="b" x1="-1346" x2="-1344.5" y1="144.06" y2="144.06" gradientTransform="matrix(19.188 0 0 -19.188 25838 2806)" gradientUnits="userSpaceOnUse">
		<stop stop-color="#fff" offset="0"/>
		<stop stop-color="#fff" offset=".25"/>
		<stop stop-color="#ECECEC" offset=".4649"/>
		<stop stop-color="#bbb" offset=".8983"/>
		<stop stop-color="#AFAFAF" offset="1"/>
	</linearGradient>
	<path d="m38.9 60.1v-0.4c-2.1-20.1-11.5-17.2-21.5-26.9-2.7-2-5-4.7-6.7-9.3l3.3 8.5c6.2 10.7 22.5 12.2 24.9 28.1z" fill="url(#b)"/>
</svg>
