<svg version="1.1" viewBox="0 0 100 100" xmlns="http://www.w3.org/2000/svg">
	<circle cx="50" cy="50" r="50" fill="#223984"/>
	<path d="m49.994 10c-0.83342 0.0019-1.6681 0.0849-2.488 0.24415-0.81987 0.15925-1.6256 0.39712-2.4066 0.71307-0.78099 0.31595-1.5387 0.71004-2.2555 1.182-0.3584 0.23598-0.70488 0.48861-1.0425 0.76345s-0.66298 0.56996-0.9766 0.88359c-1.0057 1.0055-1.9495 2.0556-2.8135 3.1468-0.43199 0.54563-0.84473 1.1016-1.2362 1.6664-0.39152 0.56481-0.76063 1.1421-1.1083 1.7246-0.34771 0.58246-0.67219 1.1724-0.97271 1.7711-0.30053 0.59861-0.57933 1.2043-0.82933 1.8176-0.25003 0.61323-0.47044 1.2338-0.66657 1.8602-0.19624 0.62635-0.36488 1.2571-0.50381 1.8951-0.13889 0.63795-0.25106 1.2819-0.32939 1.9299-0.0784 0.64804-0.12521 1.3005-0.13949 1.9571-0.0139 0.65661 6e-3 1.3167 0.0581 1.9803 0.0528 0.66367 0.14009 1.3305 0.26352 1.9997 0.12342 0.66921 0.28311 1.342 0.48056 2.0152 0.19742 0.67324 0.43052 1.3472 0.70532 2.023 0.27479 0.67575 0.59011 1.354 0.94558 2.0307 0.35547 0.67675 0.75415 1.3545 1.1936 2.0307 0.0843 0.12996 0.21955 0.19935 0.36043 0.20927 0.14087 0.0099 0.28733-0.04083 0.38753-0.1589 0.20574-0.24195 0.44011-0.47605 0.70143-0.70144 0.26134-0.2254 0.54831-0.44204 0.86034-0.65107 0.62405-0.41807 1.3456-0.80498 2.1431-1.1587 0.79748-0.35376 1.6724-0.67399 2.6042-0.96497 0.93177-0.29098 1.9183-0.5531 2.9453-0.78283 1.0269-0.22973 2.091-0.4268 3.1739-0.59681 1.083-0.17001 2.1865-0.3106 3.2863-0.42242 1.0998-0.11181 2.1971-0.19675 3.2747-0.2519 1.0776-0.05514 2.1345-0.08139 3.1507-0.08139 1.67 0 3.29 0.06135 4.8558 0.17826s3.0769 0.29129 4.5381 0.50768c1.4612 0.21638 2.872 0.47665 4.228 0.77508s2.6599 0.63293 3.9102 0.99598c1.2503 0.36304 2.4444 0.75239 3.5886 1.1626 1.1442 0.41023 2.2372 0.84278 3.2747 1.2828 1.0374 0.43998 2.019 0.88858 2.9492 1.3409 0.93021 0.4523 1.8089 0.90533 2.6314 1.3525 0.10813 0.05877 0.21732 0.09558 0.32165 0.10852 0.10437 0.0129 0.20378 0.0056 0.2984-0.01945 0.1893-0.05004 0.35373-0.17102 0.46893-0.32553 0.11528-0.15453 0.18036-0.3428 0.17441-0.53868-2e-3 -0.09794-0.0238-0.19808-0.0659-0.29453s-0.10675-0.19197-0.19385-0.27903l-30.534-30.534c-0.31722-0.31735-0.64748-0.61408-0.98823-0.89134-0.34072-0.27726-0.693-0.53395-1.0541-0.7712-0.36108-0.23725-0.73008-0.45372-1.1084-0.65107-0.37826-0.19733-0.76645-0.37729-1.1587-0.5348-0.78459-0.31502-1.5927-0.54909-2.4144-0.70532-0.82165-0.15624-1.6546-0.23438-2.488-0.23252zm-15.73 10.413c-0.0423 7.08e-4 -0.0859 0.01944-0.12401 0.05814l-19.361 19.361c-0.50894 0.50895-0.93818 1.0283-1.2905 1.5579-0.35232 0.52956-0.62854 1.0676-0.82934 1.6083-0.20082 0.54069-0.32536 1.0854-0.37979 1.6277-0.0544 0.54232-0.0365 1.0816 0.0504 1.616 0.0869 0.53445 0.24205 1.0641 0.46505 1.5812 0.22299 0.5171 0.51405 1.0211 0.86809 1.5114 0.35402 0.49026 0.77181 0.96447 1.2517 1.4184 0.47996 0.45392 1.0192 0.89016 1.6199 1.2983 0.60076 0.40809 1.2639 0.79047 1.9803 1.1432 0.71641 0.35278 1.4866 0.67314 2.3136 0.9611 0.82699 0.28796 1.7106 0.54204 2.643 0.7557 0.93243 0.21366 1.9164 0.38944 2.9492 0.5193 1.0328 0.12987 2.1119 0.21532 3.2398 0.2519 1.128 0.03657 2.3047 0.02357 3.5227-0.04262s2.4793-0.18582 3.7824-0.36429c1.303-0.17848 2.6475-0.41671 4.0304-0.71695 0.22769-0.0496 0.4098-0.15864 0.54643-0.30616 0.13671-0.14751 0.22792-0.33434 0.26352-0.52705 0.0355-0.19273 0.0179-0.39222-0.0581-0.57743-0.0754-0.1852-0.21048-0.35554-0.40691-0.48055-0.79715-0.50845-1.5605-1.0622-2.2865-1.6625-0.726-0.60031-1.415-1.2459-2.0617-1.9299-0.64668-0.68404-1.2506-1.4067-1.8098-2.1663-0.55927-0.75963-1.071-1.5563-1.5347-2.3834-0.46368-0.8271-0.88014-1.6868-1.2401-2.5733-0.35998-0.88644-0.66647-1.7984-0.9146-2.736-0.2481-0.93764-0.43767-1.8987-0.56579-2.8794-0.12818-0.98072-0.19385-1.9839-0.19385-2.9996 0-1.1315 0.0891-2.2584 0.25578-3.3716 0.16667-1.1132 0.41087-2.2122 0.72857-3.2825 0.31771-1.0702 0.70927-2.1132 1.1626-3.1158s0.96898-1.9653 1.5424-2.8755c0.0575-0.09127 0.0236-0.18431-0.0427-0.2364-0.0331-0.02605-0.074-0.04333-0.11627-0.04262zm34.347 23.888c-0.58742 0.0069-1.1853 0.02504-1.7943 0.05814-1.218 0.06619-2.4794 0.18582-3.7824 0.36429-1.303 0.17848-2.6476 0.41671-4.0304 0.71695-0.22768 0.0496-0.41368 0.16253-0.55031 0.31003-0.13651 0.1475-0.22406 0.33046-0.25965 0.52318-0.0355 0.19272-0.0179 0.3961 0.0581 0.58131 0.0754 0.1852 0.20662 0.35167 0.40305 0.47667 0.79715 0.50845 1.5644 1.0661 2.2903 1.6664 0.726 0.60031 1.4111 1.242 2.0578 1.9261 0.64669 0.68404 1.2544 1.4106 1.8137 2.1702 0.55925 0.75963 1.071 1.5524 1.5346 2.3795 0.46369 0.8271 0.87628 1.6868 1.2362 2.5733 0.35997 0.88644 0.66647 1.8023 0.91459 2.7399 0.24811 0.93765 0.44155 1.8987 0.56968 2.8794 0.12818 0.98072 0.19366 1.98 0.19366 2.9957 0 1.1315-0.0891 2.2584-0.25576 3.3716-0.16667 1.1132-0.41087 2.2122-0.72858 3.2825-0.31772 1.0702-0.70928 2.1132-1.1626 3.1158-0.45333 1.0026-0.96896 1.9653-1.5424 2.8755-0.0575 0.0923-0.0236 0.18431 0.0427 0.2364 0.0663 0.0521 0.16389 0.0648 0.24029-0.0117l19.361-19.361c0.50894-0.50896 0.93818-1.0322 1.2905-1.5618s0.62466-1.0676 0.82544-1.6083c0.20082-0.54069 0.32926-1.0854 0.38367-1.6277 0.0544-0.54231 0.0365-1.0816-0.0504-1.616-0.0869-0.53445-0.24203-1.0641-0.46504-1.5812-0.223-0.5171-0.51404-1.0211-0.86808-1.5114-0.35404-0.49026-0.77179-0.96447-1.2517-1.4184-0.47996-0.45392-1.023-0.88629-1.6238-1.2944-0.60076-0.40809-1.26-0.79434-1.9764-1.1471-0.71643-0.35278-1.4905-0.67314-2.3175-0.9611-0.82699-0.28796-1.7067-0.54204-2.6391-0.7557-0.93243-0.21366-1.9164-0.38944-2.9492-0.5193-1.0328-0.12987-2.1118-0.21532-3.2398-0.2519-0.56399-0.01825-1.141-0.02246-1.7284-0.01548zm-57.669 9.9249c-0.10397-0.0129-0.20792-0.0058-0.30227 0.01945-0.18869 0.0502-0.35009 0.16701-0.46505 0.32166-0.11489 0.15465-0.18036 0.34677-0.17441 0.54256 4e-3 0.0979 0.0238 0.19822 0.0659 0.29453s0.10278 0.18834 0.18989 0.27515l16.253 16.25 14.281 14.289c0.31735 0.31722 0.64738 0.61417 0.98823 0.89134 0.34082 0.27718 0.69294 0.53402 1.0541 0.7712 0.36114 0.23719 0.73391 0.45377 1.1122 0.65107 0.37832 0.19729 0.76256 0.37344 1.1549 0.53094 0.78461 0.31496 1.5966 0.55294 2.4182 0.70919 0.82164 0.15626 1.6546 0.23044 2.488 0.22864 0.83336-2e-3 1.6644-0.0811 2.4841-0.24027 0.81979-0.15918 1.6257-0.3972 2.4066-0.71307 0.78089-0.31586 1.5387-0.7101 2.2554-1.182 0.35837-0.23595 0.70493-0.4925 1.0425-0.76732 0.33759-0.27484 0.66684-0.56609 0.98048-0.87972 1.0057-1.0055 1.9457-2.0594 2.8096-3.1507 0.43199-0.54564 0.84472-1.1016 1.2362-1.6664 0.39152-0.56482 0.76064-1.1382 1.1084-1.7207 0.34771-0.58247 0.67219-1.1724 0.97273-1.7711 0.30053-0.5986 0.57933-1.2043 0.82931-1.8176 0.25003-0.61323 0.4743-1.2338 0.67046-1.8602 0.19604-0.62634 0.36487-1.2571 0.50379-1.8951 0.13889-0.63796 0.24719-1.2819 0.32552-1.93 0.0784-0.64803 0.1252-1.3005 0.13949-1.9571 0.0139-0.6566-6e-3 -1.3205-0.0581-1.9842-0.0528-0.66367-0.14008-1.3305-0.26352-1.9997-0.12341-0.66921-0.2831-1.3381-0.48055-2.0113-0.19742-0.67323-0.43053-1.3472-0.70532-2.023-0.27479-0.67576-0.59011-1.354-0.94558-2.0307-0.35547-0.67675-0.75024-1.3545-1.1897-2.0307-0.0853-0.13096-0.2234-0.20323-0.36428-0.21315-0.14088-0.0099-0.28636 0.04371-0.38755 0.16276-0.20572 0.24195-0.44011 0.47606-0.70143 0.70145-0.26134 0.2254-0.54831 0.44204-0.86035 0.65107-0.62404 0.41807-1.3456 0.80498-2.1431 1.1587-0.7975 0.35376-1.6725 0.67399-2.6042 0.96497-0.93179 0.29098-1.9222 0.54923-2.9492 0.77896-1.0269 0.22973-2.091 0.43067-3.1739 0.60068-1.083 0.17-2.1826 0.3106-3.2824 0.42242-1.0998 0.11181-2.1971 0.19676-3.2747 0.2519-1.0776 0.0551-2.1345 0.0814-3.1507 0.0814-1.6699 0-3.29-0.0652-4.8558-0.18215-1.5658-0.11698-3.0807-0.28733-4.5419-0.50381s-2.8682-0.47653-4.2241-0.77507c-1.356-0.29855-2.6599-0.63669-3.9103-0.99986-1.2503-0.36317-2.4483-0.75227-3.5925-1.1626-1.1442-0.41034-2.2334-0.83881-3.2708-1.2789-1.0374-0.44008-2.0228-0.89241-2.953-1.3448-0.93021-0.45235-1.8051-0.90532-2.6275-1.3525-0.10754-0.05877-0.21383-0.09175-0.31778-0.10463z" fill="#fff"/>
</svg>
