<svg version="1.1" viewBox="0 0 100 100" xmlns="http://www.w3.org/2000/svg">
	<circle cx="50" cy="50" r="50" fill="#00307b"/>
	<path transform="matrix(3.3289 0 0 3.3289 -810.77 10.148)" d="m261.75 2.8162e-4 -0.69291 2.6836 0.61312 0.095047 0.22764-0.88183c0.107-0.431 0.1453-0.59023 0.2253-0.95223l0.06688-0.33208c0 0.151 1.1e-4 0.26008 0.00411 0.33208 3e-3 0.091 0.01171 0.22786 0.02171 0.39486 9e-3 0.131 0.01205 0.22701 0.02405 0.29101l0.15607 1.3131 0.49988 0.13729 0.78208-1.096c0.047-0.067 0.10704-0.15287 0.16604-0.25287a6.92 6.92 0 0 0 0.37491-0.59845l-0.06395 0.19303c-0.032 0.12-0.06995 0.23516-0.10795 0.34616-0.024 0.097-0.06624 0.23672-0.11324 0.40072-0.046 0.175-0.08561 0.30203-0.10561 0.39603l-0.22236 0.81846 0.5785 0.22178 0.71285-2.6801-0.8742-0.29688-0.72517 1.0361c-0.061 0.099-0.12763 0.19997-0.21063 0.32797-0.12 0.181-0.15292 0.25294-0.25992 0.45294 0.014-0.35 0.00384-0.60695-0.02816-0.90295l-0.13318-1.2743-0.91586-0.17249zm-3.5942 0.0035203-0.67706 0.10209-0.724 3.004 0.68645-0.17777 0.15196-0.66885 1.106-0.18247 0.35672 0.59845 0.72224-0.053391-1.6223-2.622zm-0.24466 0.65301a4.28 4.28 0 0 0 0.2916 0.55914l0.00117 0.0011734 0.26989 0.45764-0.79675 0.13025 0.11499-0.52393c0.069-0.285 0.0921-0.42726 0.1191-0.62426zm7.7986 0.38958a0.512 0.512 0 0 0-0.4019 0.29746 0.515 0.515 0 0 0 0.26813 0.65712 0.496 0.496 0 0 0 0.65477-0.26226 0.499 0.499 0 0 0-0.26461-0.65946 0.512 0.512 0 0 0-0.25639-0.032856zm-11.508 0.073339-1.9538 1.1482 1.3858 2.3703 1.9872-1.1605-0.2605-0.43769-1.4169 0.83313-0.33384-0.59023 1.2702-0.74102-0.2382-0.4107-1.2708 0.74982-0.29746-0.50692 1.3876-0.81201-0.25933-0.44238zm11.564 5.867e-4a0.413 0.413 0 0 1 0.20945 0.056911 0.418 0.418 0 0 1 0.1678 0.56676c-0.11 0.204-0.37263 0.27204-0.57263 0.16604a0.426 0.426 0 0 1-0.16487-0.57615 0.413 0.413 0 0 1 0.36025-0.21356zm-0.02171 0.088594-0.26578 0.477 0.06688 0.036963 0.12204-0.22002 0.08038 0.043417 0.02288 0.29981 0.08155 0.04283-0.02464-0.29394c0.084 0.04 0.17412 0.040129 0.22412-0.04987 0.059-0.107-0.01515-0.17519-0.09915-0.22119l-0.20828-0.115zm0.03227 0.10385 0.1279 0.070405c0.048 0.028 0.10521 0.071689 0.07921 0.11969-0.04 0.078-0.13531 0.0099448-0.19831-0.024055v-5.867e-4l-0.07686-0.040483 0.06806-0.12497zm-15.415 2.5311-1.5736 1.925 0.39251 0.32034 0.57615-0.70523 1.7372 1.4169 0.41364-0.50868-1.7326-1.4193 0.57908-0.70581-0.39251-0.32328zm16.49 1.3553-0.00997 0.0070405a10.634 10.634 0 0 1 3.075 6.773c0.40499 5.868-4.0149 10.954-9.8779 11.364a10.606 10.606 0 0 1-7.3521-2.27l-0.0088 0.009974a10.602 10.602 0 0 0 7.9957 2.8338c5.874-0.407 10.298-5.4959 9.8849-11.36a10.61 10.61 0 0 0-3.7068-7.358zm-4.794 2.1409c-0.93-5e-3 -2.0361 0.51681-3.1201 1.4568-0.337 0.299-0.98948 0.92888-1.6305 1.5419l-0.72341 0.69408a10.04 10.04 0 0 0-1.7701-0.15782c-1.335 0-2.5634 0.36915-3.1154 0.93815-0.217 0.224-0.32517 0.45758-0.31917 0.70757 0.016 0.648 0.75681 0.97602 0.97981 1.059 1.191 0.44 2.1851 0.31439 3.2351-0.42361 0.577-0.4 1.272-1.0463 1.82-1.5753 0.419 0.102 0.89697 0.22543 1.414 0.37843l0.47406 0.13788c-0.61799 0.604-1.2468 1.2469-1.8358 1.7619l-0.044 0.039896c-0.813 0.72-1.4044 1.2383-2.2594 1.4333-0.596 0.133-1.0199 0.003621-1.1599-0.080379-0.02 0-0.03168 0.022882-0.03168 0.022882 0.49 0.408 0.9579 0.63704 1.7619 0.57204 0.762-0.07 1.6448-0.5519 2.5498-1.3999l1.2192-1.1951 0.85602-0.8478a205.19 205.19 0 0 0 1.7601 0.51807c-0.019 0-1.0731 1.035-1.0731 1.035l-0.91645 0.91996c-0.941 0.906-1.4527 1.379-2.0007 1.773-0.90799 0.646-1.6851 0.97381-2.3721 1.0238-0.355 0.024-0.8667 3.01e-4 -1.2937-0.2517-0.019-2e-3 -0.04811 0.018775-0.04811 0.018775 0.467 0.399 1.0379 0.87121 2.0159 0.84721 1.104-0.033 2.0877-0.56231 3.6177-1.9643 0.69599-0.64 1.385-1.3546 1.996-1.9866l1.1353-1.15a8.607 8.607 0 0 0 2.1526 0.2165c1.073-0.02 1.9964-0.53649 2.0054-1.1265 0.01-0.434-0.34624-0.67049-0.56324-0.80849a2.458 2.458 0 0 0-1.316-0.38371c-0.807 0-1.6527 0.36019-2.5047 1.0602l-0.57028 0.50692c0.01-5e-3 -0.20594-0.059845-0.20594-0.059845l-1.5782-0.44649c0.468-0.436 0.86125-0.80707 1.2162-1.1271 0.873-0.765 1.8199-1.0888 2.3809-1.1218 0.412-0.026 1.1169 0.01091 1.4069 0.21591 0.017 0 0.03697-0.029922 0.03697-0.029922-0.78-0.664-1.451-0.75569-2.006-0.75569-0.545 0-1.426 0.16986-2.497 1.0039-0.442 0.343-1.0075 0.91296-1.6035 1.512 0-3e-3 -0.79734-0.24231-0.79734-0.24231l-0.19362-0.063951-0.84252-0.25463c0.023 0 0.48111-0.45236 0.48111-0.45236 0.566-0.555 1.0974-1.0751 1.5184-1.4351 1.514-1.271 2.4665-1.4398 3.1295-1.4468 0.729 0 1.3053 0.15325 1.7173 0.44825a0.12 0.12 0 0 0 0.02817-0.029922c-0.848-0.77-1.4614-1.0182-2.5164-1.0262zm-14.29 0.25581-0.15372 0.43006 0.724 0.99037a9.16 9.16 0 0 0 0.21591 0.26989c-0.104 0.023-0.14007 0.024937-0.20007 0.046937l-0.14198 0.041656-1.1781 0.32739-0.16017 0.45412 1.8951-0.57204 1.0602 0.36669 0.12379-0.36669-1.052-0.37432v0.0011734l-1.1329-1.6152zm7.869 3.7438a6.483 6.483 0 0 1 0.59903 0.04459c-0.024 0-0.31272 0.26695-0.31272 0.26695l-0.17425 0.15959c-0.658 0.602-1.7722 1.6105-2.7652 1.5425-0.49399-0.036-0.73397-0.23211-0.73397-0.61311 0-0.047 0.0343-1.2533 2.7863-1.3893a6.483 6.483 0 0 1 0.6008-0.011148zm10.344 0.23058c0.244 8e-3 0.53567 0.08071 0.53567 0.38371 0 0.307-0.29709 0.56377-0.87009 0.76977-0.5 0.18-1.2728 0.22653-2.1128 0.13553a4.55 4.55 0 0 1 0.59023-0.48345c0.79-0.536 1.4499-0.82056 1.8569-0.80556zm-16.684 0.5386-1.614 1.3559-1.1288-1.2485 0.01525 0.52276 1.2139 1.3101 0.09387 0.099741 0.08801 0.097394h-0.28807l-1.0801 0.024055 0.01291 0.39368 2.7435-0.056911-0.00704-0.39779-0.96221 0.018775-0.44414-0.48697 1.37-1.1312-0.01291-0.50105zm-0.05691 4.249c-0.11427-0.011953-0.23253 0.005141-0.35203 0.053391a0.636 0.636 0 0 0-0.38782 0.45998c-0.054 0.202-0.03906 0.40507 0.04694 0.88007l0.04107 0.18364c0.086 0.483 0.04896 0.66934-0.16604 0.75334-0.268 0.113-0.51883-0.067023-0.67883-0.46702-0.17-0.437-0.09727-0.72299 0.24173-0.90999l-0.14198-0.35496c-0.506 0.227-0.65182 0.71747-0.38782 1.3835 0.246 0.604 0.68105 0.87356 1.137 0.69056a0.576 0.576 0 0 0 0.36669-0.41246c0.036-0.158 0.02597-0.29008-0.03403-0.65008l-0.03168-0.18364-0.03344-0.20711c-0.087-0.489-0.03259-0.71028 0.20241-0.80028 0.291-0.123 0.56257 0.073333 0.73457 0.50633 0.215 0.534 0.12013 0.90716-0.27987 1.0702l0.13906 0.362c0.57899-0.235 0.73092-0.78817 0.43592-1.5202-0.20175-0.504-0.50911-0.80138-0.8519-0.83724z" fill="#fff"/>
</svg>
