<svg version="1.1" viewBox="0 0 100 100" xmlns="http://www.w3.org/2000/svg">
	<style type="text/css">.st0{fill:#d5d5d2;}
	.st1{fill:#353332;}
	.st2{fill:#868481;}</style>
	<rect width="100" height="100" fill="#000"/>
	<path class="st0" d="m29.569 33.159c2.8423-3.9316 5.9817-7.6949 9.4528-11.275 3.4662-3.5801 7.1404-6.8631 10.988-9.8341l-4.1198 16.43z"/>
	<path class="st1" d="m58.106 40.245c-4.8081-0.48527-9.6608-1.3122-14.499-2.5105-4.8576-1.2132-9.5419-2.7531-14.038-4.5754l16.321-4.6794z"/>
	<path class="st2" d="m50.01 12.05c1.9807 4.407 3.689 9.0022 5.0557 13.795 1.3815 4.7833 2.3966 9.6013 3.0453 14.4l-12.221-11.765z"/>
	<path class="st2" d="m23.8 66.94c-2.8522-3.9019-5.4815-8.0416-7.8187-12.449-2.3422-4.3971-4.3476-8.8933-5.9817-13.459l14.4 8.9774z"/>
	<path class="st1" d="m39.388 42.062c-1.951 4.412-4.2436 8.7645-6.8829 12.973-2.6492 4.2337-5.5657 8.205-8.7051 11.904l0.59916-16.93z"/>
	<path class="st0" d="m10 41.032c4.823-0.51993 9.7251-0.70809 14.712-0.53478 4.9963 0.16836 9.9084 0.70314 14.677 1.5598l-14.989 7.9524z"/>
	<path class="st1" d="m54.238 82.849c-4.6051 1.5152-9.3736 2.7185-14.286 3.585-4.922 0.8616-9.8242 1.3568-14.687 1.5103l13.013-10.889z"/>
	<path class="st2" d="m35.333 60.369c3.6098 3.2236 7.0413 6.7442 10.25 10.562 3.2087 3.8079 6.1005 7.7989 8.6605 11.929l-15.964-5.8083z"/>
	<path class="st0" d="m25.266 87.94c0.98539-4.7289 2.3322-9.4528 4.0307-14.127 1.7133-4.6794 3.7385-9.1705 6.0312-13.444l2.9463 16.682z"/>
	<path class="st2" d="m78.809 58.898c0.0099 4.8329-0.31196 9.7301-1.0002 14.657-0.70314 4.9319-1.7331 9.7499-3.0948 14.395l-6.3679-15.712z"/>
	<path class="st0" d="m51.535 69.896c4.1891-2.4362 8.6011-4.61 13.216-6.4719 4.6447-1.8668 9.3389-3.3771 14.058-4.5259l-10.463 13.34z"/>
	<path class="st1" d="m74.719 87.95c-4.2188-2.3966-8.2941-5.13-12.226-8.1852-3.9366-3.08-7.591-6.3778-10.963-9.8687l16.821 2.3471z"/>
	<path class="st2" d="m63.567 28.183c4.615 1.4806 9.1705 3.3028 13.662 5.4716 4.4912 2.1887 8.7546 4.6645 12.77 7.3978l-16.935 1.1785z"/>
	<path class="st0" d="m65.613 57.452c-1.03-4.7239-1.7281-9.5865-2.0748-14.538-0.34662-4.9765-0.33176-9.8984 0.02971-14.731l9.4924 14.053z"/>
	<path class="st1" d="m89.995 41.057c-3.585 3.2285-7.4573 6.2738-11.582 9.0567-4.1495 2.7878-8.4278 5.2389-12.805 7.3434l7.4523-15.222z"/>
</svg>
