<svg version="1.1" viewBox="0 0 162.22 100" xmlns="http://www.w3.org/2000/svg">
	<path d="m14.789 77.14c-3.7469 0-4.789 2.416-4.789 6.4523 0 4.0363 1.0121 6.3803 4.8313 6.3803 1.3599 0 3.6754-0.36206 4.0516-0.43438v-6.1344h-3.4434v1.2587h2.0681v3.8332c-0.46293 0.0868-1.6777 0.2458-2.5746 0.2458-2.8933 0-3.5005-1.6193-3.5005-5.1492 0-3.5299 0.63654-5.2085 3.5154-5.2085 1.6492 0 3.8756 0.37506 3.8756 0.37506l0.05932-1.157s-2.1988-0.46194-4.0939-0.46194zm133.12 0.15893c-2.4884 0-4.1808 1.0985-4.1808 3.6448 0 1.9675 1.057 2.8935 3.8057 3.6891 1.7649 0.50633 2.1973 0.85392 2.1973 1.6062 0 0.95481-0.63615 1.5914-1.9092 1.5914-1.273 0-3.6891-0.31785-3.6891-0.31785l-0.24579 1.9241s2.4158 0.56365 4.0939 0.56365c2.416 0 4.24-1.2434 4.24-3.9053 0-2.0254-0.81081-2.7636-3.4583-3.6171-2.0542-0.65101-2.547-0.88295-2.547-1.693 0-0.81014 0.63761-1.3011 1.9685-1.3011 1.0416 0 3.5874 0.28818 3.5874 0.28818l-0.0297-0.0128 0.20343-1.9685s-2.402-0.49161-4.0366-0.49161zm-126.76 0.01476v12.47h7.5798v-1.2163h-6.2066v-4.5134h5.1216v-1.1993h-5.1216v-4.3122h6.2066v-1.229zm9.5038 0v12.47h1.3879v-4.7742h3.5303l2.2567 4.7742h1.5342l-2.4007-5.0644c1.5624-0.50633 2.2843-1.7799 2.2843-3.6171 0-2.6329-1.3589-3.7888-3.9773-3.7888zm10.648 0v12.47h1.3879v-10.981h0.26064l3.6171 10.531h1.5469l3.6171-10.531h0.26064v10.981h1.3901v-12.47h-2.5045l-3.5282 10.546-3.5451-10.546zm17.013 0-3.4285 12.47h1.3731l0.89632-3.2123h5.3397l0.89632 3.2123h1.3752l-3.4306-12.47zm7.9568 0v12.47h1.3879v-11.241h0.34752l4.8462 11.241h2.5451v-12.47h-1.3731v11.254h-0.37717l-4.7742-11.254zm17.23 0.21612-2.7632 12.254h2.4876l0.49161-2.2144h4.2825l0.49161 2.2144h2.4876l-2.7632-12.254zm9.0269 0v12.254h2.4876v-12.254zm5.0624 0v12.254h2.4898v-4.1086h2.4156l1.4176 4.1086h2.7188l-1.7503-4.6873c1.1139-0.6944 1.7947-1.8377 1.7947-3.5303 0-2.792-1.5349-4.0366-4.3269-4.0366zm10.099 0 2.3287 12.254h3.7762l1.9241-9.3174 1.9241 9.3174h3.7762l2.3436-12.254h-2.619l-1.5193 10.127h-0.26062l-2.1995-10.127h-2.8924l-2.1995 10.127h-0.26062l-1.5173-10.127zm19.036 0-2.7632 12.254h2.4876l0.49373-2.2144h4.2804l0.49373 2.2144h2.4876l-2.7632-12.254zm6.7426 0 3.7762 7.3063v4.9479h2.4876v-4.9479l3.7465-7.3063h-2.7484l-2.2567 4.8907-2.2567-4.8907zm-74.114 0.97051h0.94084l1.8944 6.8274h-4.7296zm-24.087 0.02754c1.7505 0 2.5598 0.85479 2.5598 2.562 0 1.5769-0.66423 2.6891-2.5451 2.6891h-3.2421v-5.2359h3.2272zm50.157 1.0574h0.86667l1.2438 5.8144h-3.3543zm43.225 0h0.86879l1.2438 5.8144h-3.3564zm-28.571 0.07204h2.2693c1.1863 0 1.7799 0.77981 1.7799 1.9516 0 1.0705-0.50617 1.9388-1.7503 1.9388h-2.299z" fill="#231815"/>
	<path d="m48.755 57.22c41.591-11.66 35.486 22.032 72.016-0.02894-14.192 1.9675-17.432-6.4811-32.014-11.631 0 0-11.024-6.2062-23.118-2.6619-4.2532 1.3888-4.1954 1.3888-10.445 7.0597-1.0705 0.96926-4.803 5.4829-6.4233 7.2622" fill="#fdd000"/>
	<path d="m48.755 57.22c33.737-24.983 60.528-19.097 84.862-47.22-5.4828 60.5-51.415 25.332-84.848 47.22" fill="#b8193f"/>
	<path d="m53.356 46.052c2.5172-8.2894 9.8807-9.8807 16.391-9.0996-14.655-6.539-21.006-22.437-42.301-26.157 11.877 7.7108 12.051 22.871 25.924 35.255" fill="#231815"/>
</svg>
