<svg version="1.1" viewBox="0 0 100 100" xmlns="http://www.w3.org/2000/svg">
	<path fill="#2e3f42" d="m37.957 63.266 1.8794-3.1098h7.6125v3.1098h-9.4919zm-4.0852 3.1801 9.6314-16.432h6.4987v16.432h-4.1544v-13.346h-1.9259l3.5976-3.0862-9.5156 16.432h-4.1317z"/>
	<path fill="#2e3f42" d="m52.17 66.446v-16.432h6.9162l2.1821 9.028c0.07715 0.34023 0.16619 0.76261 0.26701 1.2651 0.09992 0.50248 0.18101 1.0406 0.24333 1.6134h0.11573c0.07715-0.57276 0.16618-1.1109 0.26709-1.6134s0.18896-0.92486 0.26709-1.2651l2.182-9.028h7.0547v16.432h-4.0377v-13.229h-1.7182l2.3681-3.2029-4.4799 16.432h-4.0387l-4.5718-16.432 2.46 3.2029h-1.7171v13.229h-3.7598z"/>
	<path fill="#2e3f42" d="M79.72126,66.72486c-1.17614,0-2.21273-.14735-3.1099-.44113-.89816-.29379-1.64005-.71912-2.22862-1.27599-.5875-.55687-.998-1.23053-1.22946-2.01984l3.57381-1.3927c.17011.60437.53016,1.09891,1.07917,1.48567.54892.38675,1.18696.58062,1.915.58062.80414,0,1.44217-.16619,1.91493-.49945.47185-.33237.70724-.76957.70724-1.31063,0-.55794-.26307-.97139-.78832-1.24241-.52624-.27004-1.36993-.55981-2.53027-.87048-1.37689-.35506-2.46393-.7577-3.26118-1.20669-.79628-.4481-1.36502-.98228-1.70533-1.60148-.34023-.61821-.51035-1.34618-.51035-2.18103,0-1.03666.26602-1.93081.8002-2.68065.5341-.75073,1.29974-1.32742,2.29774-1.729.99809-.40256,2.18504-.60339,3.56292-.60339,1.68551,0,3.07534.31656,4.16532.95058,1.09105.635,1.85366,1.57076,2.28694,2.80915l-3.62124,1.34626c-.18502-.60339-.54901-1.09498-1.09105-1.47387-.54106-.37881-1.13659-.56874-1.78641-.56874-.72805,0-1.30769.14341-1.74088.42934-.43327.28585-.64991.66965-.64991,1.14838,0,.51141.26316.90905.78931,1.19588.52525.28585,1.36108.57669,2.50651.8704,1.39278.35612,2.48678.7577,3.28404,1.20678.79619.4481,1.36501.98228,1.70623,1.60147.33933.61821.51043,1.3452.51043,2.18103,0,1.03666-.29084,1.95358-.87048,2.75084-.58062.79726-1.38083,1.41948-2.40266,1.8675-1.02077.44908-2.21273.67358-3.57373.67358Z"/>
	<path fill="#f70" d="m50 6.25c-5.9052 0-11.635 1.1563-17.03 3.4383-5.2098 2.2038-9.8886 5.3582-13.905 9.3752s-7.1713 8.6956-9.3751 13.905c-2.282 5.3958-3.4393 11.126-3.4393 17.031 0 5.9042 1.1573 11.634 3.4393 17.03 2.2038 5.2098 5.3582 9.8886 9.3751 13.905s8.6956 7.1714 13.905 9.3751c5.3949 2.2818 11.125 3.4392 17.03 3.4392s11.635-1.1573 17.03-3.4392c5.2098-2.2037 9.8886-5.3582 13.905-9.3751 4.0169-4.0169 7.1714-8.6956 9.3751-13.905 2.2818-5.3958 3.4392-11.126 3.4392-17.03 0-5.9052-1.1573-11.635-3.4392-17.031-2.2037-5.2098-5.3582-9.8886-9.3751-13.905-4.0169-4.0169-8.6956-7.1713-13.905-9.3752-5.3948-2.282-11.125-3.4383-17.03-3.4383zm0 2.6311c22.709 0 41.119 18.409 41.119 41.119s-18.41 41.118-41.119 41.118-41.119-18.409-41.119-41.118 18.41-41.119 41.119-41.119z"/>
</svg>
