<svg version="1.1" viewBox="0 0 100 100" xmlns="http://www.w3.org/2000/svg">
	<path fill="#95c11f" d="m89.952 88.142c-9.6712-12.628-16.55-24.994-20.824-37.621-4.3714-12.882-5.9733-25.997-5.0152-39.747 0-0.15719-0.09731-0.29193-0.22454-0.32187l-1.3249-0.29942c-0.247-0.07486-0.45665-0.03742-0.55396 0.21708-4.6259 10.607-11.775 19.971-21.094 27.816-8.6157 7.2234-18.96 13.137-30.72 17.314-0.09731 0.02991-0.2021 0.11978-0.19462 0.29194l0.19462 1.7964c0.02994 0.15714 0.12725 0.25445 0.29193 0.25445 1.0629-0.02991 2.0211-0.02991 2.9867-0.02991 8.9001 0 17.478 0.86837 30.72 5.1425 15.233 4.8804 30.106 13.945 44.179 26.865 0.14969 0.10476 0.29194 0.0674 0.38925-0.02991l1.1602-1.3174c0.07485-0.09731 0.11234-0.22454 0.03749-0.32943h-0.00745z"/>
</svg>