<svg id="a" version="1.1" viewBox="0 0 100 100" xmlns="http://www.w3.org/2000/svg">
	<path d="m17.244 80.422c0.11457 0.03967 0.23315 0.08023 0.35594 0.12165l8.7605-0.11241c-3.2144-0.52712-5.9872-1.2681-8.0697-1.927l-1.0467 1.9178z" fill="#004489"/>
	<path d="m80.53 67.758c-2.1306-0.73776-4.5017-1.3403-7.0293-1.6265 1.4127 0.61541 3.5934 1.504 7.0293 1.6265z" fill="#004489"/>
	<path d="m20.385 74.667-1.0735 1.9669c3.078 0.92597 7.5892 1.993 12.716 2.2881 0.53364-0.30776 1.0879-0.67407 1.6526-1.122 0 0 0.54293-0.42733 1.4388-1.131-0.14841 0.00141-0.29833 0.00616-0.44598 0.00616-5.5696 0-10.605-0.99569-14.288-2.0082z" fill="#004489"/>
	<path d="m22.52 70.755-1.0994 2.0142c4.2385 1.1006 10.187 2.1345 16.555 1.6585 1.0649-0.83467 2.2599-1.7701 3.5005-2.7393-2.3167 0.37175-4.6019 0.53131-6.8035 0.53131-4.5583 0-8.7578-0.6674-12.153-1.4647z" fill="#004489"/>
	<path d="m65.044 62.049c1.3147 0.63103 2.6631 1.2873 3.8504 1.869 3.6948-0.20359 7.5317 0.30892 11.442 1.5646 2.1018 0.67486 3.9929 1.4846 5.6162 2.29h3.5748c-3.5035-2.3431-13.49-8.0636-24.483-5.7236z" fill="#004489"/>
	<path d="m24.724 66.771c-0.36264 0.61959-0.70982 1.2435-1.0474 1.8648l-0.10463 0.19167c5.7886 1.2708 13.81 2.0996 21.731-0.12217 2.0887-1.6235 4.0697-3.1541 5.5643-4.2912-5.4171 2.489-11.034 3.3494-16.195 3.3494-3.6164 0-7.006-0.42079-9.9491-0.99239z" fill="#004489"/>
	<path d="m79.546 60.795c-3.6214-2.1946-6.123-3.242-8.4341-3.7428-3.7046-0.1036-7.6662 0.54153-11.64 2.4463 0.00519 0.00205 0.01157 0.00443 0.01675 0.00646 0.58303 0.22758 1.5368 0.6537 2.6669 1.1782 5.4295-1.7213 11.317-1.6888 17.39 0.1119z" fill="#004489"/>
	<path d="m56.68 56.592c-0.27098 0.17246-0.54174 0.35086-0.81218 0.53639-6.8615 4.7064-14.421 6.1799-21.195 6.1799-2.5328 0-4.9532-0.2074-7.1888-0.52715-0.56044 0.66059-1.0734 1.3505-1.5514 2.058 8.0659 1.4178 19.267 1.5711 28.773-4.9493 2.0401-1.3994 4.1835-2.4924 6.4055-3.2979h-4.4311z" fill="#004489"/>
	<path d="m52.878 56.592h-4.6688c-4.5752 1.6558-9.2156 2.2604-13.536 2.2604-0.78246 0-1.5529-0.02164-2.3121-0.05823-1.129 0.60189-2.1226 1.3042-3.0084 2.0806 7.0752 0.7847 15.748 0.28468 23.526-4.2828z" fill="#004489"/>
	<path d="m80.096 41.941c-6.2022 7.9365-9.1449 8.3504-14.711 9.2508l-17.543 2.8376c4.0574-0.6563 9.3701-4.7113 11.681-6.6505 2.5214-2.116 12.052-12.148 12.052-12.148 1.3262-1.1189 3.59-3.8966 8.5839-4.7044l9.841-1.5918-9.9037 13.007z" fill="#009669"/>
	<path d="m10 20.992 10.668-1.5117s3.1279-0.50595 7.2431 3.108c0 0 20.998 18.301 24.205 20.763 3.5659 2.7383 10.495 8.2887 16.542 7.3105l-26.146 4.2292c-12.094 1.9563-17.812-7.1759-22.666-16.02l-9.8464-17.879z" fill="#80cab4"/>
</svg>
