<svg id="a" version="1.1" viewBox="0 0 100 100" xmlns="http://www.w3.org/2000/svg">
	<path d="M81.80149,63.91597c-1.58523,7.75533-4.69017,14.86743-8.92645,21.50566l-1.23088-7.67134c.17362-.10527.25756-.13662.29456-.18925.1295-.2035.24193-.4155.34719-.63463,1.94098-4.22772,3.63291-8.54795,4.72721-13.07019.69582-2.84034,1.31482-5.70196.75557-8.67744-.4525-2.42336-1.80432-3.78373-4.28887-3.81361-1.64642-.01563-3.29992.24188-4.94634.36999-.13662.00712-1.0345.13662-1.0345.13662l-.56637-3.55748.96624-.1665.78549-.12811c1.72893-.27888,3.4735-.49801,5.2181-.5734,4.21348-.18925,7.16616,2.62825,8.07265,6.40347.80825,3.36111.51369,6.72786-.17362,10.06622" fill="#a21a40"/>
	<path d="m51.845 57.42c-0.50657-0.84525-1.5482-1.1626-2.6354-0.77837-0.31024 0.10674-0.6048 0.26464-0.89936 0.4155-6.7279 3.5717-12.844 8.02-18.553 13.042-0.30307 0.26473-0.619 0.52086-1.1554 0.96624l-1.2921 16.682c0.77125-1.0416 1.5112-2.1146 2.2583-3.1719 5.3163-7.475 11.153-14.499 17.851-20.789 1.2921-1.2238 2.651-2.3792 3.9573-3.5874 0.88368-0.80825 1.0345-1.8356 0.46818-2.7791" fill="#a21a40"/>
	<path d="m71.722 77.681c-0.05263-0.34724-0.10531-0.68587-0.15794-1.0345 0 0-4.713-29.156-4.75-29.361-0.30307-1.6009-0.62755-3.1932-0.96762-4.787-1.3661-6.5016-2.9143-12.951-5.2708-19.181-1.2608-3.3384-2.688-6.6241-5.1569-9.2807-3.2857-3.5418-8.6774-5.453-13.843-2.7877-2.9442 1.5255-5.2039 3.8066-7.0822 6.4789-2.9613 4.2149-5.0673 8.8666-6.6013 13.745-1.7659 5.6336-3.4138 11.32-4.787 17.059-1.2764 5.3618-2.2882 10.806-3.1277 16.259-0.9648 6.2896-1.6293 12.625-2.4006 18.947-0.41411 3.4209 2.439 6.449 5.7774 6.2526 1.4956-0.09823 2.7791-0.81676 3.7382-1.9794 0.10531-0.10674 0.19637-0.21913 0.27893-0.34011l1.2906-16.68c0-0.2576 0.55212-8.6319 0.92924-12.325 0.80825-7.9972 2.1985-15.896 4.3501-23.652 1.1853-4.2818 2.6354-8.4654 4.841-12.354 1.3063-2.3038 2.8545-4.4098 5.127-5.8756 1.783-1.1398 3.5874-1.1996 5.497-0.24901 2.1757 1.0886 3.3014 3.0352 4.3202 5.0672 2.56 5.12 3.9189 10.633 5.1043 16.182 1.8286 8.6319 2.9456 17.378 3.9644 26.129 0.73998 6.3807 1.359 12.784 2.0392 19.173 0.08394 0.77698 0.07543 1.5938 0.30168 2.3323 0.46814 1.5866 1.5938 2.5386 3.2472 2.7563 1.8286 0.23485 3.1576-0.59624 4.1238-2.0761 0.15082-0.23337 0.30168-0.46101 0.4525-0.70151l-1.238-7.7183z" fill="#c61037"/>
</svg>
