<svg data-name="图层_1" version="1.1" viewBox="0 0 100 100" xmlns="http://www.w3.org/2000/svg">
	<defs>
		<style>.st0 {
        fill: #031f73;
        fill-rule: evenodd;
      }</style>
	</defs>
	<path class="st0" d="m49.264 10v71.14c0.4901-0.01277 0.99313-0.01277 1.4705 0v-71.14h-1.4705zm-6.8755 25.431-1.405 0.86693 4.3216 45.206c0.46506-0.07837 1.0319-0.15577 1.4582-0.19504l-4.3747-45.878zm-6.0253 20.565 1.3025-0.94336 5.316 26.917c-0.46473 0.11586-0.99313 0.25806-1.4194 0.38749l-5.1991-26.361zm-2.543 8.0544-1.2257 1.0345 5.4714 18.588c0.34209-0.15997 0.85449-0.37101 1.2271-0.52436l0.14042-0.05785-5.6132-19.04zm-4.3866 7.2735 1.0965-1.1636 5.6262 14.487c-0.40058 0.2196-0.86485 0.49075-1.265 0.74978l-5.4578-14.073zm-2.0392 3.6342-1.0586 1.0857 5.6637 11.473c0.37439-0.32285 0.82692-0.67189 1.148-0.91734l-5.7532-11.641zm-4.1034 5.1854 1.0197-1.0481 6.2057 9.8179c-0.29671 0.29748-0.70949 0.73717-1.0062 1.0867l-6.2192-9.8565zm29.947 1.1662c0.42595 0.03927 0.99265 0.11667 1.4584 0.19504l4.3219-45.207-1.4058-0.86644-4.3744 45.878zm5.1995 1.0468c-0.42531-0.12895-0.95467-0.27115-1.4189-0.38701l5.316-26.917 1.3024 0.94336-5.1995 26.36zm2.1302 0.73377 0.15125 0.06238 4.8e-4 1.6e-4 3.2e-4 1.7e-4c0.37182 0.15335 0.87679 0.36163 1.215 0.51951l5.4718-18.588-1.2257-1.0345-5.6131 19.04zm4.5412 2.3064c-0.40009-0.25903-0.86402-0.53018-1.2646-0.74978l5.6254-14.487 1.097 1.1636-5.4578 14.073zm1.7416 1.2025c0.32205 0.24546 0.77369 0.59449 1.1486 0.91734l5.6632-11.472-1.0578-1.086-5.754 11.641zm3.639 3.4007c-0.29765-0.34903-0.71051-0.78904-1.0067-1.0865l6.2062-9.8179 1.0198 1.0484-6.2193 9.856z"/>
</svg>
