<?xml version="1.0" encoding="UTF-8"?>
<svg id="_图层_1" data-name="图层_1" xmlns="http://www.w3.org/2000/svg" version="1.1" viewBox="0 0 100 100">
  <!-- Generator: Adobe Illustrator 29.8.3, SVG Export Plug-In . SVG Version: 2.1.1 Build 3)  -->
  <defs>
    <style>
      .st0 {
        fill: #7e0c6e;
      }
    </style>
  </defs>
  <g id="Layer_2">
    <g id="Layer_1-2">
      <g id="Layer_1-2-2">
        <path class="st0" d="M59.16969,17.4768l2.52761-5.35572c-1.96539-.78375-4.00716-1.36035-6.09219-1.72043l-1.11947,2.22124-2.02681-.26513.71293-2.27427c-.16186.00582-.32387-.00604-.48314-.03535-.78953-.04714-1.87951-.04714-2.49229-.04714h-1.76757c-.32405,0-.64223.04124-.96628.0707l.75418,2.28605-2.27426.218-1.00163-2.12108c-2.10193.38181-4.1578.98414-6.13344,1.79702l2.2566,5.07291c4.20678-.84254,11.02959-1.56724,18.10575.15319Z"/>
        <path class="st0" d="M24.43702,90c3.4115-3.68632,6.53922-7.62549,9.35631-11.78377,12.25511,2.57398,24.23365,6.32283,35.76964,11.19458-14.97274-2.2627-30.21392-2.07365-45.12592.55973l-.00004.02946Z"/>
        <path class="st0" d="M69.54528,85.34541c-10.15706-5.85359-19.83962-12.49445-28.95862-19.86154,1.13299-2.86536,2.01998-5.82198,2.65135-8.83783,7.94818,11.44793,16.57387,20.85138,26.30728,28.69937Z"/>
        <path class="st0" d="M64.63734,85.05671c-9.60991-3.69649-19.4955-6.63184-29.56547-8.77891,1.73876-2.75298,3.27661-5.62783,4.60156-8.60215,7.92002,6.34976,16.26033,12.15669,24.96391,17.38106Z"/>
        <path class="st0" d="M63.5886,77.02607c-7.43559-7.1683-14.06238-15.13069-19.76137-23.74429.318-2.26233.47749-4.54412.47724-6.82869,0-.68346,0-1.36692-.03535-2.05627,4.44837,10.15171,11.18868,21.53483,19.31947,32.62925Z"/>
        <path class="st0" d="M62.02723,70.75122c-8.74357-12.68523-15.43085-25.3351-18.75388-35.7166-1.40817-7.54161-3.95933-12.49669-5.26145-14.65901,3.26711-.82448,6.61316-1.29656,9.98085-1.40816h3.39373c-.95448,4.71351-3.64118,23.95051,9.23257,48.82015.45369.98984.91913,1.97967,1.40817,2.96362Z"/>
        <path class="st0" d="M56.07645,50.10016c-4.75475-16.27339-2.86934-27.92753-2.22125-30.96774,2.78829.25139,5.54871.75024,8.24864,1.49065-2.05036,3.48211-6.10988,12.13139-6.10988,25.83002-.05304,1.20784,0,2.43335.0825,3.64708Z"/>
      </g>
    </g>
  </g>
</svg>