<?xml version="1.0" encoding="UTF-8"?>
<svg id="_图层_1" data-name="图层_1" xmlns="http://www.w3.org/2000/svg" xmlns:xlink="http://www.w3.org/1999/xlink" version="1.1" viewBox="0 0 100 100">
  <!-- Generator: Adobe Illustrator 29.8.3, SVG Export Plug-In . SVG Version: 2.1.1 Build 3)  -->
  <defs>
    <style>
      .st0 {
        fill: none;
      }

      .st1 {
        fill: url(#_未命名的渐变_2);
      }

      .st2 {
        fill: url(#_未命名的渐变_8);
      }

      .st3 {
        fill: url(#_未命名的渐变_2616);
      }

      .st4 {
        fill: url(#_未命名的渐变_2617);
      }

      .st5 {
        fill: url(#_未命名的渐变_2615);
      }

      .st6 {
        fill: url(#_未命名的渐变_2614);
      }

      .st7 {
        fill: url(#_未命名的渐变_2613);
      }

      .st8 {
        fill: url(#_未命名的渐变_2611);
      }

      .st9 {
        fill: url(#_未命名的渐变_2612);
      }

      .st10 {
        fill: url(#_未命名的渐变_2610);
      }

      .st11 {
        fill: url(#_未命名的渐变_262);
      }

      .st12 {
        fill: url(#_未命名的渐变_263);
      }

      .st13 {
        fill: url(#_未命名的渐变_265);
      }

      .st14 {
        fill: url(#_未命名的渐变_264);
      }

      .st15 {
        fill: url(#_未命名的渐变_267);
      }

      .st16 {
        fill: url(#_未命名的渐变_266);
      }

      .st17 {
        fill: url(#_未命名的渐变_269);
      }

      .st18 {
        fill: url(#_未命名的渐变_268);
      }

      .st19 {
        fill: url(#_未命名的渐变_261);
      }

      .st20 {
        clip-path: url(#clippath-17);
      }

      .st21 {
        clip-path: url(#clippath-19);
      }

      .st22 {
        clip-path: url(#clippath-11);
      }

      .st23 {
        clip-path: url(#clippath-16);
      }

      .st24 {
        clip-path: url(#clippath-18);
      }

      .st25 {
        clip-path: url(#clippath-10);
      }

      .st26 {
        clip-path: url(#clippath-15);
      }

      .st27 {
        clip-path: url(#clippath-13);
      }

      .st28 {
        clip-path: url(#clippath-14);
      }

      .st29 {
        clip-path: url(#clippath-12);
      }

      .st30 {
        clip-path: url(#clippath-20);
      }

      .st31 {
        clip-path: url(#clippath-21);
      }

      .st32 {
        clip-path: url(#clippath-22);
      }

      .st33 {
        clip-path: url(#clippath-23);
      }

      .st34 {
        clip-path: url(#clippath-24);
      }

      .st35 {
        clip-path: url(#clippath-25);
      }

      .st36 {
        clip-path: url(#clippath-1);
      }

      .st37 {
        clip-path: url(#clippath-3);
      }

      .st38 {
        clip-path: url(#clippath-4);
      }

      .st39 {
        clip-path: url(#clippath-2);
      }

      .st40 {
        clip-path: url(#clippath-7);
      }

      .st41 {
        clip-path: url(#clippath-6);
      }

      .st42 {
        clip-path: url(#clippath-9);
      }

      .st43 {
        clip-path: url(#clippath-8);
      }

      .st44 {
        clip-path: url(#clippath-5);
      }

      .st45 {
        fill: url(#_未命名的渐变_86);
      }

      .st46 {
        fill: url(#_未命名的渐变_84);
      }

      .st47 {
        fill: url(#_未命名的渐变_85);
      }

      .st48 {
        fill: url(#_未命名的渐变_82);
      }

      .st49 {
        fill: url(#_未命名的渐变_83);
      }

      .st50 {
        fill: url(#_未命名的渐变_81);
      }

      .st51 {
        fill: url(#_未命名的渐变_26);
      }

      .st52 {
        clip-path: url(#clippath);
      }
    </style>
    <clipPath id="clippath">
      <path class="st0" d="M83.09479,54.60706l.18483.61283.41811,1.37786h2.80914l.0168-.04941.20658-.58809c-1.17822-.48831-2.39102-.94102-3.63547-1.35319Z"/>
    </clipPath>
    <radialGradient id="_未命名的渐变_8" data-name="未命名的渐变 8" cx="-127.37464" cy="191.81994" fx="-127.37464" fy="191.81994" r=".98828" gradientTransform="translate(273.78342 340.03267) scale(1.4828 -1.4828)" gradientUnits="userSpaceOnUse">
      <stop offset="0" stop-color="#110f18"/>
      <stop offset=".68424" stop-color="#110f18"/>
      <stop offset=".73815" stop-color="#14101c"/>
      <stop offset=".7983" stop-color="#1d142a"/>
      <stop offset=".86146" stop-color="#2d1c40"/>
      <stop offset=".92672" stop-color="#44265f"/>
      <stop offset=".99298" stop-color="#603387"/>
      <stop offset="1" stop-color="#64358c"/>
    </radialGradient>
    <clipPath id="clippath-1">
      <path class="st0" d="M83.27962,55.21988l.41811,1.37786h2.80914l.0168-.04941.20658-.58809c-1.17822-.48831-2.39102-.94102-3.63547-1.35319l.18483.61283Z"/>
    </clipPath>
    <radialGradient id="_未命名的渐变_2" data-name="未命名的渐变 2" cx="-373.95761" cy="428.19649" fx="-373.95761" fy="428.19649" r=".98844" gradientTransform="translate(-29477.42125 -25679.81242) rotate(-90) scale(68.99216)" gradientUnits="userSpaceOnUse">
      <stop offset="0" stop-color="#100f17"/>
      <stop offset=".68424" stop-color="#100f17"/>
      <stop offset=".73964" stop-color="#13101b"/>
      <stop offset=".7996" stop-color="#1c1528"/>
      <stop offset=".86169" stop-color="#2c1d3e"/>
      <stop offset=".92525" stop-color="#42285c"/>
      <stop offset=".98936" stop-color="#5d3682"/>
      <stop offset="1" stop-color="#63398a"/>
    </radialGradient>
    <clipPath id="clippath-2">
      <path class="st0" d="M76.24821,53.19161h.00198l1.21281,3.40613h2.78838l.64446-2.17553.18287-.61482c-1.63092-.45072-3.30829-.83719-5.02125-1.15446l.19077.53868Z"/>
    </clipPath>
    <radialGradient id="_未命名的渐变_81" data-name="未命名的渐变 8" cx="-374.0737" cy="428.32717" fx="-374.0737" fy="428.32717" r=".98844" gradientTransform="translate(-28811.27744 -25100.2234) rotate(-90) scale(67.41718)" xlink:href="#_未命名的渐变_8"/>
    <clipPath id="clippath-3">
      <path class="st0" d="M64.19128,51.5953c0,.00392-.001.00694-.001.00989,0,2.84471,2.28625,5.13988,5.09341,5.13988,2.44242,0,4.48849-1.79999,4.91055-4.17123.01384-.07608.02175-.1542.03163-.2313-.74725-.11565-1.50143-.21845-2.26153-.30738-.00099.00591-.00099.01285-.00198.0178-.18583,1.34426-1.32451,2.39694-2.69843,2.39694-1.52911,0-2.75971-1.25431-2.78541-2.81702-.72354-.02274-1.44805-.03759-2.17357-.03759h-.11367"/>
    </clipPath>
    <radialGradient id="_未命名的渐变_82" data-name="未命名的渐变 8" cx="-374.03241" cy="428.28389" fx="-374.03241" fy="428.28389" r=".98844" gradientTransform="translate(-29044.63505 -25303.37262) rotate(-90) scale(67.96912)" xlink:href="#_未命名的渐变_8"/>
    <clipPath id="clippath-4">
      <path class="st0" d="M58.64318,51.8444v4.63576h2.35643v-4.7969c-.78778.04151-1.57359.09291-2.35643.16114"/>
    </clipPath>
    <radialGradient id="_未命名的渐变_83" data-name="未命名的渐变 8" cx="-374.06876" cy="428.32199" fx="-374.06876" fy="428.32199" r=".98844" gradientTransform="translate(-28838.91948 -25124.32731) rotate(-90) scale(67.4827)" xlink:href="#_未命名的渐变_8"/>
    <clipPath id="clippath-5">
      <path class="st0" d="M48.60662,53.47528v3.00488h2.35544v-3.53071c-.79174.16011-1.57656.33803-2.35544.52583"/>
    </clipPath>
    <radialGradient id="_未命名的渐变_84" data-name="未命名的渐变 8" cx="-373.98794" cy="428.23731" fx="-373.98794" fy="428.23731" r=".98844" gradientTransform="translate(-29300.44297 -25525.90453) rotate(-90) scale(68.57378)" xlink:href="#_未命名的渐变_8"/>
    <clipPath id="clippath-6">
      <path class="st0" d="M54.86934,52.28028v4.19988h2.35643v-4.49839c-.78877.085-1.57358.18684-2.35643.29851"/>
    </clipPath>
    <radialGradient id="_未命名的渐变_85" data-name="未命名的渐变 8" cx="-374.0323" cy="428.28378" fx="-374.0323" fy="428.28378" r=".98844" gradientTransform="translate(-29045.35272 -25304.00338) rotate(-90) scale(67.97073)" xlink:href="#_未命名的渐变_8"/>
    <clipPath id="clippath-7">
      <path class="st0" d="M45.42484,54.77212c-.32025,0-.55748-.07312-.70871-.23625-.78877.24216-1.54789.54664-2.31887.81746.42503,1.05166,1.44213,1.48066,2.79332,1.48066.92221,0,1.76633-.25501,2.63023-.55057l-.64742-1.90369c-.57033.19667-1.13868.39238-1.74854.39238"/>
    </clipPath>
    <radialGradient id="_未命名的渐变_86" data-name="未命名的渐变 8" cx="-374.04242" cy="428.29446" fx="-374.04242" fy="428.29446" r=".98844" gradientTransform="translate(-28988.05254 -25253.73448) rotate(-90) scale(67.8344)" xlink:href="#_未命名的渐变_8"/>
    <clipPath id="clippath-8">
      <path class="st0" d="M27.07157,48.39079c1.31561,0,1.98379.96177,2.00257,2.19924h-4.04566c.06029-1.1792.7858-2.19924,2.04309-2.19924M22.49611,51.59132c0,3.04343,2.00257,5.10531,5.02718,5.10531,1.15845,0,2.31689-.2748,3.3765-.72649l-.74528-1.82665c-.70673.31432-1.68924.51099-2.49481.51099-1.45201,0-2.47306-.70772-2.63121-2.21903h6.34279c.06029-.4319.13838-.86386.13838-1.29581,0-2.72906-1.62993-4.6941-4.45785-4.6941-3.00385,0-4.5557,2.29812-4.5557,5.14579"/>
    </clipPath>
    <radialGradient id="_未命名的渐变_26" data-name="未命名的渐变 26" cx="-295.34566" cy="352.77677" fx="-295.34566" fy="352.77677" r=".98852" gradientTransform="translate(1468.92476 1773.88024) scale(4.88215 -4.88215)" gradientUnits="userSpaceOnUse">
      <stop offset="0" stop-color="#cabfd1"/>
      <stop offset=".82191" stop-color="#cbc6d8"/>
      <stop offset=".83143" stop-color="#9c87b7"/>
      <stop offset=".84301" stop-color="#664091"/>
      <stop offset=".84841" stop-color="#522583"/>
      <stop offset=".8671" stop-color="#4a287d"/>
      <stop offset=".88079" stop-color="#412c77"/>
      <stop offset=".88169" stop-color="#3f2a73"/>
      <stop offset=".88831" stop-color="#382462"/>
      <stop offset=".89533" stop-color="#332157"/>
      <stop offset=".90338" stop-color="#322054"/>
      <stop offset="1" stop-color="#322054"/>
    </radialGradient>
    <clipPath id="clippath-9">
      <path class="st0" d="M27.07157,48.39079c1.31561,0,1.98379.96177,2.00257,2.19924h-4.04566c.06029-1.1792.7858-2.19924,2.04309-2.19924M22.49611,51.59132c0,3.04343,2.00257,5.10531,5.02718,5.10531,1.15845,0,2.31689-.2748,3.3765-.72649l-.74528-1.82665c-.70673.31432-1.68924.51099-2.49481.51099-1.45201,0-2.47306-.70772-2.63121-2.21903h6.34279c.06029-.4319.13838-.86386.13838-1.29581,0-2.72906-1.62993-4.6941-4.45785-4.6941-3.00385,0-4.5557,2.29812-4.5557,5.14579"/>
    </clipPath>
    <radialGradient id="_未命名的渐变_261" data-name="未命名的渐变 26" cx="-373.0311" cy="427.23253" fx="-373.0311" fy="427.23253" r=".98844" gradientTransform="translate(-36186.07919 -31533.23445) rotate(-90) scale(84.85231)" xlink:href="#_未命名的渐变_26"/>
    <clipPath id="clippath-10">
      <path class="st0" d="M73.94219,46.68968l1.63191,4.60313c.95087.1364,1.88988.29356,2.81901.47153l-1.69813-5.07466h-2.75279Z"/>
    </clipPath>
    <radialGradient id="_未命名的渐变_262" data-name="未命名的渐变 26" cx="-220.29506" cy="280.9837" fx="-220.29506" fy="280.9837" r=".98849" gradientTransform="translate(608.02307 727.60219) scale(2.41429 -2.41429)" xlink:href="#_未命名的渐变_26"/>
    <clipPath id="clippath-11">
      <path class="st0" d="M73.94219,46.68968l1.63191,4.60313c.95087.1364,1.88988.29356,2.81901.47153l-1.69813-5.07466h-2.75279Z"/>
    </clipPath>
    <radialGradient id="_未命名的渐变_263" data-name="未命名的渐变 26" cx="-373.04907" cy="427.25136" fx="-373.04907" fy="427.25136" r=".98844" gradientTransform="translate(-36027.12179 -31394.8633) rotate(-90) scale(84.47652)" xlink:href="#_未命名的渐变_26"/>
    <clipPath id="clippath-12">
      <path class="st0" d="M88.06396,46.68968l-2.19333,6.80937-2.4622-6.80937h-2.23584l-1.89681,5.24961c.7443.15414,1.4787.32222,2.20718.50212l.78086-2.63717.93605,3.08983c1.60522.45078,3.16991.96672,4.6921,1.54793l2.73302-7.75232h-2.56104Z"/>
    </clipPath>
    <radialGradient id="_未命名的渐变_264" data-name="未命名的渐变 26" cx="-295.99232" cy="353.25921" fx="-295.99232" fy="353.25921" r=".98845" gradientTransform="translate(1540.0781 1787.2233) scale(4.9161 -4.9161)" xlink:href="#_未命名的渐变_26"/>
    <clipPath id="clippath-13">
      <path class="st0" d="M88.06396,46.68968l-2.19333,6.80937-2.4622-6.80937h-2.23584l-1.89681,5.24961c.7443.15414,1.4787.32222,2.20718.50212l.78086-2.63717.93605,3.08983c1.60522.45078,3.16991.96672,4.6921,1.54793l2.73302-7.75232h-2.56104Z"/>
    </clipPath>
    <radialGradient id="_未命名的渐变_265" data-name="未命名的渐变 26" cx="-372.99953" cy="427.19944" fx="-372.99953" fy="427.19944" r=".98844" gradientTransform="translate(-36468.55083 -31779.18645) rotate(-90) scale(85.52044)" xlink:href="#_未命名的渐变_26"/>
    <clipPath id="clippath-14">
      <path class="st0" d="M64.28517,50.6217c.53277-.01188,1.06455-.02075,1.59138-.02075.26193,0,.52486.00591.7868.00887.40723-1.04279,1.43323-1.80686,2.57982-1.80686,1.22171,0,2.29119.87972,2.6322,2.0629.79767.07016,1.58842.15221,2.37225.24904-.26391-2.62034-2.39795-4.62883-5.02422-4.62883-2.45725,0-4.48947,1.76928-4.93822,4.13563"/>
    </clipPath>
    <radialGradient id="_未命名的渐变_266" data-name="未命名的渐变 26" cx="-277.61465" cy="335.74342" fx="-277.61465" fy="335.74342" r=".9884" gradientTransform="translate(1160.14692 1368.0967) scale(3.92948 -3.92948)" xlink:href="#_未命名的渐变_26"/>
    <clipPath id="clippath-15">
      <path class="st0" d="M64.28517,50.6217c.53277-.01188,1.06455-.02075,1.59138-.02075.26193,0,.52486.00591.7868.00887.40723-1.04279,1.43323-1.80686,2.57982-1.80686,1.22171,0,2.29119.87972,2.6322,2.0629.79767.07016,1.58842.15221,2.37225.24904-.26391-2.62034-2.39795-4.62883-5.02422-4.62883-2.45725,0-4.48947,1.76928-4.93822,4.13563"/>
    </clipPath>
    <radialGradient id="_未命名的渐变_267" data-name="未命名的渐变 26" cx="-373.01771" cy="427.21851" fx="-373.01771" fy="427.21851" r=".98844" gradientTransform="translate(-36305.5248 -31637.14727) rotate(-90) scale(85.13451)" xlink:href="#_未命名的渐变_26"/>
    <clipPath id="clippath-16">
      <path class="st0" d="M58.46625,47.52591s.17693.98252.17693,1.47276v1.95907c.78284-.0771,1.56766-.14431,2.35643-.19468v-1.82273c0-.0593-.02075-.19667-.02075-.19667.57032-.17695,1.1792-.25501,1.7683-.25501.43195,0,.98152.09785,1.29584.19667l.70673-2.02332c-.5298-.13737-1.19798-.21646-1.80686-.21646-1.55086,0-3.06217.49126-4.47663,1.08038"/>
    </clipPath>
    <radialGradient id="_未命名的渐变_268" data-name="未命名的渐变 26" cx="-239.1848" cy="299.08043" fx="-239.1848" fy="299.08043" r=".98847" gradientTransform="translate(723.40975 876.22893) scale(2.76691 -2.76691)" xlink:href="#_未命名的渐变_26"/>
    <clipPath id="clippath-17">
      <path class="st0" d="M58.46625,47.52591s.17693.98252.17693,1.47276v1.95907c.78284-.0771,1.56766-.14431,2.35643-.19468v-1.82273c0-.0593-.02075-.19667-.02075-.19667.57032-.17695,1.1792-.25501,1.7683-.25501.43195,0,.98152.09785,1.29584.19667l.70673-2.02332c-.5298-.13737-1.19798-.21646-1.80686-.21646-1.55086,0-3.06217.49126-4.47663,1.08038"/>
    </clipPath>
    <radialGradient id="_未命名的渐变_269" data-name="未命名的渐变 26" cx="-373.01745" cy="427.21824" fx="-373.01745" fy="427.21824" r=".98844" gradientTransform="translate(-36307.69105 -31639.02763) rotate(-90) scale(85.13981)" xlink:href="#_未命名的渐变_26"/>
    <clipPath id="clippath-18">
      <path class="st0" d="M48.60662,42.62524v10.08404c.77889-.1977,1.5637-.38647,2.35544-.5575v-2.93761c.64841-.39142,1.49254-.72552,2.25857-.72552.98152,0,1.64871.70676,1.64871,1.78707v1.15844c.78185-.12156,1.56766-.22931,2.35643-.32222v-1.18909c0-2.17952-1.15844-3.47732-3.35771-3.47732-1.00129,0-2.00257.25604-2.906.64842v-5.38994l-2.35544.92123Z"/>
    </clipPath>
    <radialGradient id="_未命名的渐变_2610" data-name="未命名的渐变 26" cx="-297.1461" cy="354.42532" fx="-297.1461" fy="354.42532" r=".9884" gradientTransform="translate(1538.72475 1819.42638) scale(5.00026 -5.00026)" xlink:href="#_未命名的渐变_26"/>
    <clipPath id="clippath-19">
      <path class="st0" d="M48.60662,42.62524v10.08404c.77889-.1977,1.5637-.38647,2.35544-.5575v-2.93761c.64841-.39142,1.49254-.72552,2.25857-.72552.98152,0,1.64871.70676,1.64871,1.78707v1.15844c.78185-.12156,1.56766-.22931,2.35643-.32222v-1.18909c0-2.17952-1.15844-3.47732-3.35771-3.47732-1.00129,0-2.00257.25604-2.906.64842v-5.38994l-2.35544.92123Z"/>
    </clipPath>
    <radialGradient id="_未命名的渐变_2611" data-name="未命名的渐变 26" cx="-373.01667" cy="427.21742" fx="-373.01667" fy="427.21742" r=".98844" gradientTransform="translate(-36314.71028 -31645.22421) rotate(-90) scale(85.1564)" xlink:href="#_未命名的渐变_26"/>
    <clipPath id="clippath-20">
      <path class="st0" d="M44.52042,43.5198l-2.35445.92123v2.26054l-1.11891.0593v1.86514l1.11891.0593v5.41866c0,.21248.01779.40915.04646.59503.76307-.28373,1.53109-.55654,2.30998-.81052v-5.18337h2.74884v-2.04311h-2.74884v-3.14219h-.00198Z"/>
    </clipPath>
    <radialGradient id="_未命名的渐变_2612" data-name="未命名的渐变 26" cx="-290.47132" cy="348.08131" fx="-290.47132" fy="348.08131" r=".98846" gradientTransform="translate(1373.51721 1642.12274) scale(4.57656 -4.57656)" xlink:href="#_未命名的渐变_26"/>
    <clipPath id="clippath-21">
      <path class="st0" d="M44.52042,43.5198l-2.35445.92123v2.26054l-1.11891.0593v1.86514l1.11891.0593v5.41866c0,.21248.01779.40915.04646.59503.76307-.28373,1.53109-.55654,2.30998-.81052v-5.18337h2.74884v-2.04311h-2.74884v-3.14219h-.00198Z"/>
    </clipPath>
    <radialGradient id="_未命名的渐变_2613" data-name="未命名的渐变 26" cx="-373.01757" cy="427.21836" fx="-373.01757" fy="427.21836" r=".98844" gradientTransform="translate(-36306.63251 -31638.17765) rotate(-90) scale(85.13731)" xlink:href="#_未命名的渐变_26"/>
    <clipPath id="clippath-22">
      <path class="st0" d="M34.43838,53.53458c0-1.09914,2.68953-.72057,3.49412-1.48561v2.03617c0,.13743.00791.40427.00791.40427-.54957.17695-1.10804.24415-1.67738.24415-.84412,0-1.82465-.17695-1.82465-1.19898M32.74816,47.29068l.80558,1.78707c.82435-.35389,1.84541-.58912,2.73006-.58912.58911,0,1.64871.07807,1.64871.90343,0,1.70804-6.08679.35287-6.08679,4.32042,0,2.29613,2.5126,2.98413,4.39755,2.98413.5901,0,1.05664-.03656,1.45103-.1028.85005-.39932,1.71296-.78187,2.59069-1.14264,0-.03855.00396-.36867.00396-.75816v-5.04594c0-2.27737-1.57062-3.20156-3.67204-3.20156-1.27607,0-2.71029.31534-3.86874.84515"/>
    </clipPath>
    <radialGradient id="_未命名的渐变_2614" data-name="未命名的渐变 26" cx="-293.3199" cy="350.82409" fx="-293.3199" fy="350.82409" r=".98849" gradientTransform="translate(1429.35628 1718.00875) scale(4.75007 -4.75007)" xlink:href="#_未命名的渐变_26"/>
    <clipPath id="clippath-23">
      <path class="st0" d="M34.43838,53.53458c0-1.09914,2.68953-.72057,3.49412-1.48561v2.03617c0,.13743.00791.40427.00791.40427-.54957.17695-1.10804.24415-1.67738.24415-.84412,0-1.82465-.17695-1.82465-1.19898M32.74816,47.29068l.80558,1.78707c.82435-.35389,1.84541-.58912,2.73006-.58912.58911,0,1.64871.07807,1.64871.90343,0,1.70804-6.08679.35287-6.08679,4.32042,0,2.29613,2.5126,2.98413,4.39755,2.98413.5901,0,1.05664-.03656,1.45103-.1028.85005-.39932,1.71296-.78187,2.59069-1.14264,0-.03855.00396-.36867.00396-.75816v-5.04594c0-2.27737-1.57062-3.20156-3.67204-3.20156-1.27607,0-2.71029.31534-3.86874.84515"/>
    </clipPath>
    <radialGradient id="_未命名的渐变_2615" data-name="未命名的渐变 26" cx="-373.02203" cy="427.22296" fx="-373.02203" fy="427.22296" r=".98844" gradientTransform="translate(-36266.75668 -31603.94247) rotate(-90) scale(85.04373)" xlink:href="#_未命名的渐变_26"/>
    <clipPath id="clippath-24">
      <polygon class="st0" points="10.625 43.58405 10.625 56.48016 13.07929 56.48016 13.07929 50.511 18.99013 50.511 18.99013 56.48016 21.4454 56.48016 21.4454 42.63018 18.99013 43.589 18.99013 48.46885 13.07929 48.46885 13.07929 42.62524 10.625 43.58405"/>
    </clipPath>
    <radialGradient id="_未命名的渐变_2616" data-name="未命名的渐变 26" cx="-311.79347" cy="368.47399" fx="-311.79347" fy="368.47399" r=".98843" gradientTransform="translate(1976.61947 2366.54903) scale(6.28809 -6.28809)" xlink:href="#_未命名的渐变_26"/>
    <clipPath id="clippath-25">
      <polygon class="st0" points="10.625 43.58405 10.625 56.48016 13.07929 56.48016 13.07929 50.511 18.99013 50.511 18.99013 56.48016 21.4454 56.48016 21.4454 42.63018 18.99013 43.589 18.99013 48.46885 13.07929 48.46885 13.07929 42.62524 10.625 43.58405"/>
    </clipPath>
    <radialGradient id="_未命名的渐变_2617" data-name="未命名的渐变 26" cx="-373.01757" cy="427.21838" fx="-373.01757" fy="427.21838" r=".98844" gradientTransform="translate(-36306.77942 -31638.17765) rotate(-90) scale(85.13731)" xlink:href="#_未命名的渐变_26"/>
  </defs>
  <g class="st52">
    <rect class="st2" x="83.09479" y="54.60706" width="3.63547" height="1.99069"/>
  </g>
  <g class="st36">
    <rect class="st1" x="83.09479" y="54.60706" width="3.63547" height="1.99069"/>
  </g>
  <g class="st39">
    <rect class="st50" x="76.05745" y="52.65293" width="5.02125" height="3.94481"/>
  </g>
  <g class="st37">
    <rect class="st48" x="64.19028" y="51.5953" width="10.03558" height="5.14977"/>
  </g>
  <g class="st38">
    <rect class="st49" x="58.64318" y="51.68326" width="2.35643" height="4.7969"/>
  </g>
  <g class="st44">
    <rect class="st46" x="48.60662" y="52.94945" width="2.35544" height="3.53071"/>
  </g>
  <g class="st41">
    <rect class="st47" x="54.86934" y="51.98177" width="2.35643" height="4.49839"/>
  </g>
  <g class="st40">
    <rect class="st45" x="42.39727" y="54.37974" width="5.42354" height="2.45426"/>
  </g>
  <g class="st43">
    <rect class="st51" x="22.49611" y="46.44553" width="9.01354" height="10.25109"/>
  </g>
  <g class="st42">
    <rect class="st19" x="22.49611" y="46.44553" width="9.01354" height="10.25109"/>
  </g>
  <g class="st25">
    <rect class="st11" x="73.94219" y="46.68968" width="4.45092" height="5.07466"/>
  </g>
  <g class="st22">
    <rect class="st12" x="73.94219" y="46.68968" width="4.45092" height="5.07466"/>
  </g>
  <g class="st29">
    <rect class="st14" x="79.27578" y="46.68968" width="11.34922" height="7.75232"/>
  </g>
  <g class="st27">
    <rect class="st13" x="79.27578" y="46.68968" width="11.34922" height="7.75232"/>
  </g>
  <g class="st28">
    <rect class="st16" x="64.28517" y="46.48607" width="9.96244" height="4.62883"/>
  </g>
  <g class="st26">
    <rect class="st15" x="64.28517" y="46.48607" width="9.96244" height="4.62883"/>
  </g>
  <g class="st23">
    <rect class="st18" x="58.46625" y="46.44553" width="6.28349" height="4.51221"/>
  </g>
  <g class="st20">
    <rect class="st17" x="58.46625" y="46.44553" width="6.28349" height="4.51221"/>
  </g>
  <g class="st24">
    <rect class="st10" x="48.60662" y="41.70401" width="8.61915" height="11.00527"/>
  </g>
  <g class="st21">
    <rect class="st8" x="48.60662" y="41.70401" width="8.61915" height="11.00527"/>
  </g>
  <g class="st30">
    <rect class="st9" x="41.04706" y="43.5198" width="6.22418" height="11.1792"/>
  </g>
  <g class="st31">
    <rect class="st7" x="41.04706" y="43.5198" width="6.22418" height="11.1792"/>
  </g>
  <g class="st32">
    <rect class="st6" x="31.84572" y="46.44553" width="8.44321" height="10.25109"/>
  </g>
  <g class="st33">
    <rect class="st5" x="31.84572" y="46.44553" width="8.44321" height="10.25109"/>
  </g>
  <g class="st34">
    <rect class="st3" x="10.625" y="42.62524" width="10.8204" height="13.85499"/>
  </g>
  <g class="st35">
    <rect class="st4" x="10.625" y="42.62524" width="10.8204" height="13.85493"/>
  </g>
</svg>