<?xml version="1.0" encoding="UTF-8"?>
<svg id="_图层_1" data-name="图层_1" xmlns="http://www.w3.org/2000/svg" xmlns:xlink="http://www.w3.org/1999/xlink" version="1.1" viewBox="0 0 100 100">
  <!-- Generator: Adobe Illustrator 29.8.3, SVG Export Plug-In . SVG Version: 2.1.1 Build 3)  -->
  <defs>
    <style>
      .st0 {
        fill: url(#_未命名的渐变_28);
      }

      .st1 {
        fill: url(#_未命名的渐变_55);
      }

      .st2 {
        fill: url(#_未命名的渐变_45);
      }
    </style>
    <linearGradient id="_未命名的渐变_45" data-name="未命名的渐变 45" x1="317.13969" y1="160.9647" x2="31.08374" y2="245.76969" gradientTransform="translate(5.84 5.84) scale(.23935)" gradientUnits="userSpaceOnUse">
      <stop offset="0" stop-color="#113d55"/>
      <stop offset=".24948" stop-color="#2f93bb"/>
      <stop offset=".50459" stop-color="#37b3e4"/>
      <stop offset="1" stop-color="#113d55"/>
    </linearGradient>
    <linearGradient id="_未命名的渐变_55" data-name="未命名的渐变 55" x1="346.42584" y1="264.89055" x2="139.10219" y2="265.31034" gradientTransform="translate(5.84 5.84) scale(.23935)" gradientUnits="userSpaceOnUse">
      <stop offset="0" stop-color="#35b2e3"/>
      <stop offset=".38767" stop-color="#33a0cb"/>
      <stop offset="1" stop-color="#17465f"/>
    </linearGradient>
    <linearGradient id="_未命名的渐变_28" data-name="未命名的渐变 28" x1="210.75548" y1="2.38517" x2="70.54775" y2="169.14068" gradientTransform="translate(5.84 5.84) scale(.23935)" gradientUnits="userSpaceOnUse">
      <stop offset="0" stop-color="#37b3e4"/>
      <stop offset=".45188" stop-color="#2e9cc6"/>
      <stop offset="1" stop-color="#113d55"/>
    </linearGradient>
  </defs>
  <path class="st2" d="M66.81196,40.01705l-2.24108.01828c-.25002-.24693-1.97651-1.26391-1.99511-1.37698-.18378-1.11674,3.29359.03827,3.29359.03827,0,0,2.13103-1.04001,3.25392-1.69981-.77827-.98577-2.42715-1.75321-3.29776-2.56697.26382-.60205.87061-.52927,1.54995-.48958,1.65332.09661,5.13961.94876,5.13961.94876,0,0,3.46344-1.99958,5.02254-2.69218.43568-.19354,1.39726-.54352,1.65933.05585.55682,1.27348-3.17487,2.99868-4.07185,3.53805-12.58808,7.56948-32.66381,18.17763-36.92275,33.46165-3.56709,11.8026,4.48997,18.86393,15.2092,20.61554-15.18147,1.22778-29.8469-6.17789-37.70019-19.18805-8.19634-13.57848-7.64946-31.68975,2.14979-44.4738-8.43231,18.31028,5.75492,27.58089,21.89256,24.68833,9.13214-1.42202,18.7872-6.9879,27.05825-10.87737Z"/>
  <path class="st1" d="M89.89543,49.74264c.67542,6.66038-2.0243,14.08652-5.12661,20.07519-6.57329,11.84191-21.87895,22.43405-35.89148,17.92605-10.91417-3.51122-12.64927-14.61099-7.13747-23.69233,15.4069,15.42646,42.22625,8.60188,48.15555-14.30892Z"/>
  <path class="st0" d="M70.13458,15.45823c-10.87105-2.98757-21.84085-.30493-30.02501,8.43857-5.70024,6.08983-8.50934,16.71256-6.54996,26.14486-10.81249-.11642-19.09001-6.58883-16.73074-18.20384,1.92826-9.49307,10.07907-15.81288,18.63876-19.1624,11.44012-4.47667,24.57773-3.19233,34.66695,2.7828Z"/>
</svg>