<?xml version="1.0" encoding="UTF-8"?>
<svg version="1.1" viewBox="0 0 100 100" xmlns="http://www.w3.org/2000/svg" xmlns:xlink="http://www.w3.org/1999/xlink">
	<defs>
		<style>
			.st0 {
				fill: url(#a);
			}

			.st1 {
				fill: url(#b);
			}

			.st2 {
				fill: url(#a1);
			}

			.st3 {
				fill: url(#b2);
			}

			.st4 {
				fill: url(#b1);
			}
		</style>
		<linearGradient id="a" x1="21.16333" y1="47.54593" x2="76.3952" y2="47.54593" gradientUnits="userSpaceOnUse">
			<stop offset="0" stop-color="#ded5cf"/>
			<stop offset=".38462" stop-color="#ded5cf"/>
			<stop offset=".53093" stop-color="#c0b5ad"/>
			<stop offset=".85066" stop-color="#847367"/>
			<stop offset="1" stop-color="#6d5a4c"/>
		</linearGradient>
		<linearGradient id="b" x1="68.34758" y1="70.34003" x2="12.94188" y2="70.34003" gradientUnits="userSpaceOnUse">
			<stop offset="0" stop-color="#ffcb05"/>
			<stop offset=".08915" stop-color="#fdb809"/>
			<stop offset=".26929" stop-color="#f88814"/>
			<stop offset=".52178" stop-color="#f03b27"/>
			<stop offset=".62088" stop-color="#ed1b2f"/>
			<stop offset=".87943" stop-color="#a0256c"/>
			<stop offset="1" stop-color="#822a85"/>
		</linearGradient>
		<linearGradient id="b1" x1="10" y1="28.33652" x2="88.68407" y2="28.33652" xlink:href="#b"/>
		<linearGradient id="a1" x1="21.13359" y1="42.34381" x2="86.64695" y2="42.34381" xlink:href="#a"/>
		<linearGradient id="b2" x1="10.14393" y1="46.62753" x2="89.4952" y2="46.62753" xlink:href="#b"/>
	</defs>
	<path class="st0" d="M32.93115,15.85913c10.79181.97589,20.46436,13.57117,25.67853,21.77515,8.10834,12.74841,13.55212,27.88385,13.86304,43.12933,0,.28223.22003.32526.42102.22003.34918-.24878.70325-.4975,1.04761-.7558v.00476c.43048-.3205.8515-.65533,1.26758-.995.29181-.2392.57886-.48792.86584-.73669.19128-.17688.31549-.47339.32043-.88422v-.00348c-.43591-16.48352-5.49207-33.01947-15.80029-46.03027-5.11371-6.44354-14.42261-15.42725-23.78418-17.23547,0,0-1.25208-.29138-3.1109-.29175h-.00647c-3.49713.00061-9.11548,1.01581-12.53003,6.84058l.86584,1.83215c1.55951-7.7782,10.90198-6.86932,10.90198-6.86932Z"/>
	<path class="st1" d="M65.66559,84.58093c-24.76978.48315-46.56403-15.07324-55.27979-32.04559-.04773-.04309-.08612-.06219-.12439-.06219-.13867,0-.15778.39703-.10522.82275,2.521,19.69427,19.36902,34.91101,39.776,34.91101,5.49164,0,10.72491-1.10022,15.48944-3.09497.58368-.25354.55487-.43054.24396-.53101Z"/>
	<path class="st4" d="M88.49316,37.24677c-.20569-.72711-.99023-2.72662-1.55945-3.98474-7.17078-14.75757-21.0719-21.46899-35.21716-21.46899-9.79211,0-19.70392,3.2146-27.57776,9.2085l-.10046.07178s-4.87457,3.50641-8.26129,8.26135c-3.38684,4.7597-4.85065,9.23242-5.37213,11.83954-.37781,1.88953-.44958,2.84143-.38263,3.31024,0,.00958-.00476.02393-.00958.03827.00482.18182.07178.27747.16742.3205.23926.15308.83722-.20569,1.26776-.44482.32043-.18658,1.41107-.72235,2.36786-1.15765,3.03766-1.32507,6.45312-2.39661,10.02655-3.14764-.19141-.30139-.4353-.59796-.64099-.90887-1.44952-2.17657-2.55927-4.68799-3.1955-7.09894-2.51154,1.63123-4.93195,3.58295-7.18512,5.87433,9.72046-22.07178,53.61993-36.81494,75.41888.19135v-.00958c.20569.35394.44012.35876.44012.06219.01917-.12921-.02875-.3349-.06219-.51184-.04303-.14832-.08612-.30139-.12433-.44495Z"/>
	<path class="st2" d="M86.64655,64.19305c-14.31744-.63623-28.08002-6.91718-40.32123-13.94434-6.58234-3.77905-13.51367-7.716-18.62744-13.43243-3.51605-3.92737-6.4054-9.36157-5.59692-14.65234.55011-2.25305,2.54968-4.74054,5.33374-5.73553h-.02393c-1.46851.45441-2.94672,1.15283-4.42963,2.14307-.22968.21045-.44965.43048-.66968.64099-4.64014,5.77863-3.20026,13.84387.88019,19.96692,4.85065,7.2616,13.20288,13.12152,20.69397,17.36462,7.98395,4.51575,16.62799,7.96478,25.55426,10.11743,4.19531,1.00452,7.9743,1.22461,12.27972,1.5116.63135.04309,1.2724.07178,1.91821.08612.62659.00476,1.08099-.28705,1.32495-.68408.18176-.3205.52631-.97107.52631-.97107.12915-.2439.92767-1.87915,1.15747-2.41052v-.00043Z"/>
	<path class="st3" d="M88.06744,43.95349c-9.50507-10.59583-26.61615-18.73755-43.58856-18.74231-7.27588,0-14.52802,1.50201-21.13892,4.94629,1.05237,2.45398,2.62146,4.73578,4.33881,6.66357.72217.80847,1.56891,1.65991,2.29126,2.31531,21.0719-2.2818,46.66443,5.4342,54.51917,28.90753.22015-.12915.38745-.30615.50232-.51184,3.18585-5.7356,5.00848-12.33704,5.00848-19.3642,0-.12915-.00964-.25354-.00964-.37787-.04291-.87543-.70306-2.41101-1.92291-3.83649Z"/>
</svg>