<svg data-name="图层_1" version="1.1" viewBox="0 0 100 100" xmlns="http://www.w3.org/2000/svg">
	<defs>
		<style>.st0 {
        fill: #00aeef;
      }

      .st1 {
        fill: #003e7a;
      }</style>
	</defs>
	<path class="st1" d="m34.098 66.068v-3.2134c0-2.3238-0.42402-4.4818-1.2587-6.4731l-4.0005 0.64943v-1.4346c0-0.89933 1.1367-1.8901 2.0966-2.5658-1.2522-1.6947-2.8739-3.2416-4.8675-4.638-5.3585-3.7474-8.0357-7.4986-8.0357-11.244v-3.2153c0-2.679 1.3395-4.0149 4.019-4.0149 2.6753 0 4.0167 1.3359 4.0167 4.0149v2.0096h8.0301v-2.0096c0-8.0297-4.0172-12.051-12.047-12.051-8.0343 0-12.051 4.0213-12.051 12.051v3.2153c0 5.8906 2.6772 10.71 8.032 14.457 5.3543 3.7492 8.0357 7.4998 8.0357 11.249v3.2134c0 2.6772-1.3414 4.0172-4.0167 4.0172-2.6795 0-4.019-1.34-4.019-4.0172v-2.0116h-8.032v2.0116c0 8.0316 4.0167 12.049 12.051 12.049 8.0297 0 12.047-4.0171 12.047-12.049"/>
	<path class="st0" d="m66.564 56.567v9.5018c0 7.8818 3.8324 11.716 11.718 11.716 7.8842 0 11.718-3.8342 11.718-11.716v-43.854h-7.3724v43.854c0 2.8435-1.5021 4.3478-4.346 4.3478-2.8458 0-4.3497-1.5044-4.3497-4.3478v-43.854h-7.3682v28.959l1.6582 0.72894c0.38984 0.20873 3.601 1.9889 3.601 3.6919v1.8273l-5.2592-0.85501z"/>
	<path class="st1" d="m46.626 36.238c0-4.7904 1.764-7.9447 3.5382-7.9447 1.7737 0 3.54 3.1542 3.54 7.9447v9.662l8.0888 3.546v-15.693c0-7.7516-3.873-11.87-11.629-11.87-7.7479 0-11.627 4.1188-11.627 11.87v15.693l8.0888-3.546v-9.662z"/>
	<path class="st1" d="m50.164 77.94c7.7539 0 11.629-3.8749 11.629-11.629v-10.856l-8.6371-1.4042-0.5298 11.326 5.5132 4.7885s0.70855 0.58662 0.2254 0.87255c-0.24989 0.15241-1.2282-0.091-2.1538-0.36306-2.6873-0.79169-5.0135-1.3256-5.0135-1.3256s-0.394 2.0887-1.0314 2.0887c-0.63927 0-1.0351-2.0887-1.0351-2.0887s-2.3238 0.53396-5.0116 1.3256c-0.92565 0.27205-1.904 0.51547-2.1534 0.36306-0.48315-0.28592 0.22309-0.87255 0.22309-0.87255l5.5151-4.7885-0.5298-11.326-8.6389 1.4042v10.856c0 7.7539 3.879 11.629 11.629 11.629"/>
</svg>
