<svg data-name="图层_1" version="1.1" viewBox="0 0 100 100" xmlns="http://www.w3.org/2000/svg">
	<defs>
		<style>.st0 {
        fill: #00479d;
      }

      .st1 {
        fill: #e60012;
      }</style>
	</defs>
	<path class="st1" d="m89.905 47.286c-0.08663-0.27905-0.25977-0.34178-0.41772-0.31154-0.25964 0.04332-0.42842 0.31154-0.42842 0.31154l-10.34 19.692s-1.4324 3.0898-4.6196 4.7905c-1.9602 1.1727-5.1885 2.0297-8.1074 2.0297h-48.135c7.294 9.8319 18.95 16.202 32.153 16.202 22.083 0 39.99-17.905 39.99-40.008 0-0.67075-0.03671-1.7116-0.09509-2.7069m-64.594-3.3884 10.09-18.387s1.876-3.8926 6.9239-3.8926h34.968c0.47173 0 0.41547-0.49339 0.14936-0.71843-7.1469-6.7638-16.812-10.899-27.432-10.899-21.523 0-39.088 16.994-39.966 38.305h7.9258c0.7249 0 4.9095 0.36133 7.3416-4.4075"/>
	<path class="st0" d="m40.982 25.161c-1.8976-0.01519-2.7284 1.5882-2.7284 1.5882l-10.507 19.603c-2.8647 5.0718-6.7573 4.8273-7.8284 4.8273h-9.897c0.02166 1.0212 0.08663 2.0231 0.17749 3.0248h18.937c5.8853 0 7.8263-4.1067 7.8263-4.1067l12.993-24.937h-8.973z"/>
	<path class="st0" d="m57.055 25.161c-2.7415 0-3.9466 2.6073-3.9466 2.6073l-12.814 24.463c-2.3585 5.0113-8.2244 5.1238-9.4382 5.1238h-20.209c0.25317 1.389 0.55388 2.7479 0.96288 4.1002h33.051c6.831 0 8.8649-4.8143 8.8649-4.8143l16.605-31.48h-13.076z"/>
	<path class="st0" d="m78.776 25.161c-3.7497 0-4.9528 2.7436-4.9528 2.7436l-17.368 32.662c-2.8649 4.8815-9.382 4.7884-9.8906 4.7884h-33.629c0.74009 1.8457 1.6596 3.6546 2.6549 5.3662h47.038c10.007 0 13.082-6.9456 13.082-6.9456l19.608-38.614h-16.542z"/>
</svg>
