<svg version="1.1" viewBox="0 0 371.98 100" xmlns="http://www.w3.org/2000/svg">
	<path d="m53.879 18.628c-7.2514-0.07399-14.947 1.4059-16.871 1.8498-0.44396 0.074-1.1093 0.29626-1.2573 0.29626-0.36997 0-0.51824 0.51796-0.29626 0.73994l0.73994 0.73994c0.22198 0.29598 0.37026 0.73965-0.07371 1.1836l-13.468 12.062h9.2492c0.59195 0 1.1836 0.51767 1.1836 1.1836 0 0.59195-0.51796 1.1836-1.1099 1.1836h-11.986l-3.626 3.3297h15.687c0.59195 0 1.1099 0.66566 1.1099 1.1836 0 0.51796-0.44396 1.1836-1.1099 1.1836h-18.351l-3.6997 3.4049h31.67c0.59195 0 1.1099 0.66566 1.1099 1.1836 0 0.66594-0.44396 1.2573-1.1099 1.2573h-31.67v3.3297h31.595c0.73994 0 1.1099 0.66681 1.1099 1.2588 0 0.51796-0.51767 1.1099-1.1836 1.1099h-31.521v3.3297h41.289c0.66594 0 1.1099 0.59137 1.1099 1.2573 0 0.59195-0.51796 1.1836-1.1099 1.1836h-30.19v3.3297h30.263c0.59195 0 1.0362 0.66681 1.0362 1.2588 0 0.59197-0.51824 1.1836-1.0362 1.1836l-0.59253-0.07371h-29.672v3.3297h34.851s1.2588-2.8863 1.2588-6.1421v-22.421c0-1.7759 0.73878-4.7356 4.3644-5.5495 0.074 0 0.22227-0.07371 0.29626-0.07371 10.285-2.4418 20.867-0.22111 26.86 2.3687 1.1099 0.51796 1.3313-0.36997 1.2573-0.73994 0.14799-5.0316-3.6997-10.803-10.729-11.099-5.6975-0.14799-8.8793 1.9227-10.063 2.5146-0.07399 0.074-0.22198 5.78e-4 -0.36997-0.14741-1.0359-1.0359-3.33-2.5898-5.8458-3.3297-0.36997-0.074-0.44396-0.66623 0-0.66623 5.4015-0.59195 10.137 1e-6 12.135 0.36997 0.44396 0.074 0.81452-0.22112 0.59253-0.59108-0.14799-0.29598-0.22314-0.44454-0.44512-0.96251-0.51796-1.0359-1.7756-2.1458-3.4034-2.5898-4.2176-1.1839-11.468-2.2198-17.98-2.2198zm11.394 18.942c-2.5158-0.074-5.3273 1.9981-5.2533 5.1059v17.906c0 3.1077 2.7381 5.9947 6.2158 5.9947h9.1752c3.9957 0 4.8096-3.4789 4.8096-4.5148v-7.5466c0-0.59195-0.07428-1.6282 1.1836-1.7761 0.88793-0.074 1.7019-0.22198 2.2198-0.36997 0.88793-0.22198 1.0353-1.1093 0.88733-1.6273-1.2579-4.5876-3.6254-9.5459-4.8833-11.988-0.36996-0.73994-1.4796-1.3313-2.6635-0.51738-0.22198 0.14799-3.626 2.5898-3.626 2.5898-2.1458-1.0359-3.7734-1.8501-5.2533-2.5161-0.66594-0.36997-1.5545-0.73994-2.8124-0.73994zm-33.074 34.703v3.3297h20.201c0.96192-0.96192 2.1449-2.6638 2.4409-3.3297zm0 5.6969v3.4049h7.0294c6.2895-0.07399 10.359-3.4049 10.359-3.4049z" fill="#020c41"/>
	<path d="m211.19 35.423s-0.29685 2.7384-0.51882 4.2922c-0.14799 1.5539-2.6635 26.785-2.6635 26.785h6.0684s0.44339-5.1053 0.88733-11.173c0.22198-3.0337 0.81364-10.063 0.81364-10.063l3.9223 12.653c0.44396 1.1099 2.5898 8.5833 2.5898 8.5833h4.3659l6.8805-21.088 0.73994 9.9892 0.81363 11.175h8.1393s-1.035-11.247-2.8109-29.228l-0.22256-1.7761h-7.7693l-6.6594 17.98-6.5857-18.128zm-101 0.14885s-1.9975 5.6975-2.2935 6.6594l-6.6594 18.794c-0.88793 2.4418-2.0724 5.5495-2.0724 5.5495h5.7721s1.6273-5.2541 1.9972-6.1421l0.88733-2.5898h10.065l1.4047 3.996c0.29597 0.73994 1.4799 4.7356 1.4799 4.8096l8.362-0.07371c-0.22198-0.59195-1.7013-3.9968-2.7372-6.7346l-9.102-24.269zm210.13 3.4612c-4.109-0.02168-7.813 0.86713-10.865 3.6419-2.8858 2.5898-4.587 6.5117-4.587 10.285 0 4.1436 1.7013 7.9913 4.957 10.655 3.3297 2.8118 6.9566 3.4771 11.175 3.4771 2.8118 0 4.439-0.2214 7.1768-0.88733l-0.44368-4.1448c-0.51795 0.22198-2.5167 0.81512-5.3284 0.81512-6.2155 0-9.6185-4.5882-9.3965-10.212 0.14799-4.8836 2.3678-9.102 7.7694-9.4719 2.0718-0.14799 3.7 0.22256 6.5857 0.96251l-0.29626-4.2171s-2.4418-0.74083-5.9195-0.88881c-0.27748-0.0092-0.55272-0.01445-0.82666-0.01589zm22.802 0.01589c-5.2536-0.074-9.6917 2.0715-12.134 5.9932-1.1839 1.7759-2.0721 4.0697-2.1461 6.6594v0.14885c-0.73994 8.5833 4.2919 14.577 12.875 15.243 0.51796 0.074 1.0359 0.07371 1.4799 0.07371 0.51796 0 0.96193 2.9e-4 1.4799-0.07371 8.4353-0.66594 13.392-6.5851 12.726-15.243v-0.14885c-0.14799-2.5898-0.96222-4.8836-2.1461-6.6594-2.5158-3.9217-6.8817-6.0672-12.135-5.9932zm-152.65 0.14886c-5.2536-0.074-9.6192 1.9978-12.135 5.9195-1.1839 1.7759-2.0721 4.0697-2.1461 6.6594v0.14741c-0.73994 8.5833 4.2922 14.503 12.802 15.169 0.51796 0.074 1.0359 0.07371 1.4799 0.07371 0.51795 0 0.96191 2.89e-4 1.4799-0.07371 8.5093-0.66594 13.466-6.5854 12.8-15.169v-0.14741c-0.14799-2.5898-0.96074-4.8836-2.1446-6.6594-2.5158-3.9217-6.8817-5.9935-12.135-5.9195zm-59.639 0.29482s0.14742 3.7 0.14742 5.8458v15.391c0 1.9238-0.14742 5.2539-0.14742 5.8458h17.832v-4.2922s-3.552 0.07371-5.8458 0.07371h-4.8833c-0.074-2.7378-0.0737-5.3278-0.0737-7.6954v-0.44368h8.0638v-3.8471h-8.0638c0-4.0697 0.0737-6.8083 0.0737-6.8083h10.063v-4.0697zm21.975 0.07516s0.14741 3.6985 0.14741 5.8443v15.244c0 2.1458-0.14741 5.8443-0.14741 5.8443h7.0294s-0.22256-3.6985-0.22256-5.8443l0.0751-4.8848h2.5898l4.4396 8.1393c0.59194 1.0359 1.4793 2.295 1.6273 2.665h8.2133c-1.7019-2.3678-2.2929-3.4037-3.5508-5.1796l-4.8096-7.5481c2.2938-1.1099 4.5136-3.0334 4.8096-7.1031 0.22199-2.5158-1.1111-4.587-1.925-5.327-1.1839-1.0359-2.2929-1.4808-3.9208-1.6288-1.2579-0.14799-2.2198-0.14712-2.9598-0.22112zm94.786 0s0.14886 3.6985 0.14886 5.8443v15.317c0 1.9238-0.14886 5.2539-0.14886 5.8458h17.832v-4.2922c0.074 0-3.4765 0.07371-5.8443 0.07371h-4.8848c-0.074-2.7378-0.0737-5.3278-0.0737-7.6954v-0.44367h8.0653v-3.7734h-8.0653c0-4.0697 0.0737-6.8068 0.0737-6.8068h10.065v-4.0697zm19.978 0 7.7693 13.983-8.0653 13.024h5.3284c3.4777-5.9195 5.2533-8.5848 5.2533-8.5848l4.8096 8.5848h7.9921l-8.1393-14.504 7.7694-12.43h-5.3284l-0.0737 0.14741c-1.6279 2.8118-3.6257 6.2152-4.4396 7.4734l-0.29627 0.51882-4.5133-8.2133zm26.194 0.07371s0.22256 3.774 0.22256 5.8458v15.316c0 2.1458-0.22256 5.7721-0.22256 5.7721h6.9557s-0.22256-3.6263-0.22256-5.7721l0.0737-15.316c0-2.1458 0.22256-5.8458 0.22256-5.8458zm-180.84 3.0334 3.5523 10.655h-7.1783l3.4049-10.063zm229.6 0.51738h1.0362c5.6975 0.44396 6.6594 7.2526 6.2895 11.914-0.14798 1.9978-0.81392 4.5133-2.2198 5.9932-0.22198 0.29598-0.51795 0.51796-0.73994 0.73994-0.96191 0.66594-1.9984 1.1093-3.1823 1.2573h-1.3325c-1.2579-0.14799-2.2192-0.59137-3.1072-1.2573-0.22197-0.22198-0.51795-0.44396-0.73993-0.73994-1.3319-1.4799-1.9978-3.9954-2.2198-5.9932-0.36996-4.6616 0.51826-11.471 6.2158-11.914zm-152.58 0.07515h1.0362c5.6975 0.44396 6.5857 7.2514 6.2158 11.839-0.14799 1.9978-0.81423 4.4393-2.1461 5.9932-0.22198 0.29598-0.51795 0.51796-0.73994 0.73994-0.96191 0.66594-2.0709 1.1093-3.1808 1.2573h-1.3325c-1.2579-0.14799-2.2192-0.59137-3.1071-1.2573-0.22199-0.22198-0.51796-0.44396-0.73994-0.73994-1.3319-1.4799-1.9978-3.9954-2.2198-5.9932-0.36997-4.6616 0.5168-11.395 6.2143-11.839zm-28.895 0.70381c1.744-0.03844 3.0072 0.22083 3.5899 0.4798 0.96192 0.44396 1.5536 1.3322 1.5536 2.8861 0.14799 2.2938-0.73907 3.4774-2.0709 4.1434-1.0359 0.51796-3.4046 0.37026-4.5885 0.29626l0.0737-7.6954 0.66623-0.07371c0.26823-0.0185 0.52692-0.03064 0.77605-0.03613zm198.27 17.276c-1.4799 0-2.6635 1.1836-2.6635 2.6635 0 1.4799 1.1836 2.665 2.6635 2.665 1.4799 0 2.6635-1.1851 2.6635-2.665 0-1.4799-1.1836-2.6635-2.6635-2.6635zm0 0.51882c1.1099 0 1.9987 0.88674 1.9987 2.1446s-0.88882 2.1461-1.9987 2.1461-1.9972-0.88822-1.9972-2.1461 0.88734-2.1446 1.9972-2.1446zm-1.1836 0.66479v3.0349h0.59252v-1.3325h0.36997l0.81364 1.3325h0.59108l-0.81364-1.3325c0.51796-0.074 0.81364-0.29569 0.81364-0.81364 0-0.66594-0.36997-0.88881-1.1099-0.88881h-1.1099zm0.66623 0.36997h0.51738c0.29597 0 0.59253 0.07515 0.59253 0.44512 0 0.36997-0.29656 0.44367-0.59253 0.44367h-0.51738z" fill="#020c41"/>
</svg>
