<svg version="1.1" viewBox="0 0 100 100" xmlns="http://www.w3.org/2000/svg">
	<defs>
		<linearGradient id="a" x1="200" x2="200" y1="563.36" y2="963.36" gradientTransform="translate(0,-563.36)" gradientUnits="userSpaceOnUse">
			<stop stop-color="#b179d4" offset="0"/>
			<stop stop-color="#735ed1" offset=".5"/>
			<stop stop-color="#3d60d6" offset="1"/>
		</linearGradient>
	</defs>
	<rect width="100" height="100" fill="url(#a)"/>
	<path d="m68.955 43.532a44.365 44.365 0 0 0-9.1875-2.5325l2.6375-9.5a2.475 2.475 0 0 0-1.45-2.88 31.398 31.398 0 0 0-5.455-1.87 7.015 7.015 0 1 0-11 0 31.52 31.52 0 0 0-5.45 1.87 2.5 2.5 0 0 0-1.45 2.88l2.65 9.5a44.142 44.142 0 0 0-9.18 2.5425c-2.72 1.1125-5.65 2.6175-4.56 7.25l4.86 20.91c0.6225 2.81 1.04 4.345 2.0225 5.555 1.945 2.3725 6.25 3.89 9.1175 4.2725v18.455h15v-18.4c3.4725-0.3 7.0675-1.8275 9.11-4.3325 0.985-1.195 1.4-2.7225 2.0225-5.555l4.8575-20.915c1.105-4.6325-1.8325-6.165-4.545-7.25zm-28.688 22.085-5.2675 1.3825a1.285 1.285 0 0 1-1-0.115 1.375 1.375 0 0 1-0.6575-0.8225l-2.665-11.812a1.2775 1.2775 0 0 1 0.855-1.4825l5.5575-1.6325a1.3 1.3 0 0 1 1.0375 0.11 1.25 1.25 0 0 1 0.6125 0.85l2.4375 12.045a1.295 1.295 0 0 1-0.91 1.4775zm15.588-1.6675a1.2825 1.2825 0 0 1-1.25 1.055h-9.165a1.29 1.29 0 0 1-1.2675-1.055l-2.25-12.445a1.2775 1.2775 0 0 1 1.0275-1.485 1.46 1.46 0 0 1 0.2325-0.02h13.7a1.29 1.29 0 0 1 0.9825 0.455 1.3375 1.3375 0 0 1 0.28 1.0675zm13.472-9.7-2.705 11.805a1.25 1.25 0 0 1-1.5 0.9675l-0.105-0.0275-5.2225-1.39a1.295 1.295 0 0 1-0.9125-1.5l2.4575-12.05a1.2875 1.2875 0 0 1 1.655-0.955l5.4775 1.6725a1.2725 1.2725 0 0 1 0.855 1.4825z" fill="#fff"/>
</svg>
