<svg version="1.1" viewBox="0 0 287.41 100" xmlns="http://www.w3.org/2000/svg">
	<path d="m106.88 52.601c-0.29194-0.03868-0.5371 0.41797-0.5371 0.41797l-0.0429 0.25001v0.28906c0 0.12226-6e-5 0.08396 0.20704 0.29103 0.20835 0.2096 0.082 0.08334 0.082 0.29296 0 0.16344-0.0407 0.37079-0.12302 0.45313-0.0424 0.12601 0.0419 0.29057 0.12302 0.45899 0.0836 0.20336 1.5e-4 0.16805-0.041 0.28907-0.0823 0.12601 0 0.25093 0 0.33202l-0.0821 0.20704 0.041 0.21093-0.20704 0.37306 0.0821 0.41406c0.0412 0.08234 0.16576 0.08346 0.041 0.25195-0.12226 0.16468-0.0407 0.45532 0.0429 0.58008 0.0424 0.12226 0.0821 0.16609 0.0821 0.33202v0.41406c0.0412 0.08234 0.0847 0.16735 0.041 0.33204 0 0.21209-0.0421 0.33157-0.082 0.5-0.0848 0.16718-0.1629 0.4158-0.33008 0.66407-0.16717 0.24827-0.29227 0.50055-0.33594 0.54297l-0.49609 0.20704c-0.0861 0.08359-0.58112 0.41414-0.87306 0.58007-0.25077 0.20835-0.4154 0.20916-0.62499 0.54102-0.16718 0.33186-0.45549 0.25001-0.53908 0.25001l-0.37304 0.08197c0 0.12226-0.0402 0.20922-0.125 0.28907-0.12601 0.08109-0.20563 0.16743-0.24805 0.49804-0.0861 0.33311-0.0435 0.20674-0.25195 0.33399-0.20585 0.08234-0.41406 0.37578-0.41406 0.49804 0 0.12601-0.16798 0.2908-0.16798 0.58399-0.0387 0.33186 0.20993 0.12389 0.33594 0.03905 0.12351-0.03992 0.0806-0.03967 0.33008-0.24805 0.25076-0.16718 0.41516-0.04292 0.5-0.04292l0.45508-0.24805c0.0861-0.04117 0.20703-0.20603 0.20703-0.33204 0.0437-0.12601 0.33399-0.37664 0.33399-0.41406 0.0424 0 0.16649-0.12743 0.41601-0.37695 0.24578-0.25077 0.58009-0.5 0.58009-0.5 0-0.03992 0.16276-0.16211 0.41602-0.16211 0.24703 0 0.125-0.12414 0.125-0.20898 0.0424-0.04117 0.16196-0.20713 0.24805-0.37306 0.126-0.12351 0.21017-0.33147 0.46093-0.28906 0.2071 0.03868 0.28626 0.08122 0.3711 0.16602 0.0399 0.03992 0.1261 0.20836 0.16602 0.37304 0 0.20835 0.0425 0.1633-0.041 0.41406-0.0437 0.24952-0.0437 0.20876 0 0.45703 0.0399 0.28944 7e-4 0.28946-0.0429 0.37304 0 0.12601-0.041 0.24938-0.041 0.41406 0.0412 0.2096 0.041 0.16931 0.041 0.334-0.0412 0.12601-0.041 0.24968-0.041 0.33202l0.041 0.41797c0 0.08109-0.041 0.12326-0.041 0.24805 0 0.16593 0.041 0.2476 0.041 0.41602 0 0.16468-0.0421 0.12202-0.082 0.24805 0 0.12351 0.041 0.25039 0.041 0.33398 0 0.07985-0.24742 0.24705-0.4121 0.37306-0.16968 0.12476-0.6254 0.16586-0.70899 0.20703-0.0811 0.03992-0.33337 0.33243-0.49805 0.41602-0.12476 0.08109-0.41711 0.16626-0.45703 0.29102-0.0412 0.12601-0.5 0.24805-0.5 0.24805s-0.1654 0.08184-0.33008 0.16796c-0.1285 0.03743-0.29321 0.20588-0.37306 0.37306-0.0886 0.16593-0.25195 0.03905-0.25195 0.03905l-0.12301 0.24999-0.28906 0.12501c-0.0861 0-0.16876-8.61e-4 -0.33594 0.03905-0.16468 0.04242-0.16406 0.16836-0.16406 0.25195v0.54102c-0.0412 0.08109-0.0865 0.16609-0.12891 0.28711-0.0399 0.12726 0.0429 0.17086 0.0429 0.25195 0.0437 0.08359 0.12649 0.24868 0.25 0.45703 0.0836 0.25077 0.29336 0.24999 0.37695 0.24999 0.12351 0.04117 0.24814 8.6e-4 0.41407-0.08396 0.16717-0.04117 0.20907-0.16602 0.375-0.16602 0.16468 0 0.2458-0.04092 0.37306-0.12696 0.12476-0.08234 0.41406-0.41211 0.41406-0.41211s0.32978-0.25165 0.45703-0.334c0.12601-0.08359 0.16641-0.25008 0.25-0.41601 0.11977-0.2096 0.12051-0.20798 0.33007-0.28907 0.25077-0.08109 0.12426-0.16796 0.16798-0.16796l0.24805-0.12501h0.21093c0.0387 0.04242 0.25001 0.12525 0.25001 0.25001 0 0.12351-0.0469 0.41556-0.0469 0.58399 0 0.16468 7.1e-4 0.37205 0.0469 0.49805v1.4082c-0.0462 0.25202-0.0906 0.37978-0.0469 0.66798 0 0.29194 0.1292 0.08396-0.0429 0.29102-0.12227 0.24952 3.1e-4 0.33119-0.0371 0.41602 0 0.08359-1e-3 0.20461 0.0801 0.32812l0.0878 0.25195c0 0.08484-0.0872 0.08346-0.13086 0.20704-0.0798 0.08234-0.0382 0.25118 0.0429 0.45703 0.0861 0.20835-0.0806 0.29266-0.12302 0.375-0.0424 0.12601-0.0801 0.2497-0.0801 0.33204 0 0.08359 4e-4 0.16594 0.0391 0.37304 0.0424 0.20835-0.0394 0.20962-0.12301 0.41797-0.0848 0.24702-0.086 0.45313-0.086 0.45313l-0.041 0.41797v0.62109c0 0.08484 0.084 0.29346 0.084 0.54298 0 0.2071-0.16906 0.41594-0.20898 0.57812v0.58203c0 0.12476 0.0391 0.21048 0.0391 0.334l-0.20704 0.45898 0.0449 0.49805c0 0.07985 0.0408 0.1629 0.082 0.33008 0.0399 0.16593 1e-3 0.33244 0.041 0.41602l0.086 0.24999c0 0.08359 0.12401 4.87e-4 0.24999 0.25001 0.12351 0.2071-0.0848 0.3297-0.0449 0.66406 0.0437 0.29318 0.16876 0.41518 0.33594 0.82813 0.0798 0.24952 0.74608 0.45703 0.74608 0.45703 0.6238 0.04242 0.70314-0.45633 0.70314-0.5 0-0.03743 0.0435-0.2879 0.086-0.45507 0-0.12226-0.0423-0.28916-0.086-0.45509-0.0412-0.16718-2.4e-4 -0.20907-0.0801-0.375-0.0861-0.16344 0-0.20836 0-0.37304 0-0.2071 0.08-0.33056 0.16602-0.58008 0.0823-0.20835 0-0.54001 0-0.66602 0-0.12601-0.20671-0.28846-0.28906-0.49805-0.0823-0.2071-0.0826-0.25008-0.16992-0.41601-0.0399-0.16718-0.29071-0.08259-0.37306-0.12501l-0.041-0.20507c0-0.08608 1e-3 -0.20822 0.125-0.45899 0.12351-0.25077 1.5e-4 -0.25259-0.041-0.41602-0.0412-0.12476-0.0429-0.29054-0.0429-0.41405 0.0412-0.12476 0.29235-0.21063 0.41212-0.29297 0.0861-0.04117 0.0868-0.20696 0.16797-0.41406 0.0449-0.2096-0.0371-0.37414-0.0371-0.41406v-0.33594c0-0.12226-0.0835-0.33016-0.13086-0.4961-0.0799-0.12726-0.0386-0.20742 0.0488-0.29101 0.0823-0.12351-0.0488-0.25079-0.0488-0.37306-0.0399-0.08484-0.20594-0.04379-0.16602-0.166 0.0861-0.08359 0.0868-0.37619 0.0469-0.58204-0.0861-0.21084 0.0391-0.08272 0.0391-0.29102 0-0.16593-0.12463-0.33477-0.16211-0.45703-0.0437-0.12476 0.0372-0.20884 0.0372-0.25001v-0.33202c-0.0374-0.12476-0.0372-0.20673-0.0372-0.28907l0.12301-0.29297 0.0391-0.37304c0-0.08234 0.16696-0.37704 0.24805-0.49805l0.086-0.33204c0.0387-0.08484 0.0793-0.20977 0.12301-0.37695 0-0.16468-0.0843-0.49719-0.12301-0.53712v-0.16602l-0.0411-0.37499c-0.0823-0.12351-0.0821-0.24954-0.0821-0.37306 0.0374-0.16718 0.0377-0.33002-0.0821-0.58203-0.12726-0.2882-0.12866-0.45378-0.0488-0.70704 0.0474-0.24702 0.4196-0.24805 0.50194-0.24805l0.33009 0.12301 0.25196-0.03905 0.5-0.25195 0.20702-0.08209 0.2461-0.45507c0.0424-0.08608 0.16456-0.12594 0.45899-0.25195 0.29068-0.12226 0.5014-0.4154 0.45898-0.58008 0-0.16593-0.0437-0.2486 0-0.29102l0.0429-0.04105c0.12351-0.04117 0.28751-0.1671 0.3711-0.20703l0.33203-0.16602c0.0399-0.04242 0.16626-0.08396 0.29102-0.08396l0.33203-0.08396 0.28906-0.33202 0.29103-0.08396 0.29296-0.20704 0.33009-0.28906 0.33398-0.125c0.0412-0.08484 0.33134-0.29196 0.375-0.41797l0.24609-0.12501 0.25195-0.28906 0.16408-0.20898 0.0429-0.24805c0-0.04117 0.0823-0.20728 0-0.33204-0.0424-0.12351 0.082-0.20704 0.082-0.20704l0.0449-0.28906-0.0449-0.375-0.125-0.16798c-0.0861-0.03868-0.0863-0.24953-0.12501-0.37304l-0.0391-0.41602c0-0.12476-0.0425-0.24968-0.166-0.33202-0.12726-0.04117-0.3754-0.28962-0.45899-0.33204l-0.33398-0.54102c-0.0387-0.04367-0.24775-0.41485-0.33009-0.58203-0.12227-0.16593-0.37523-0.45439-0.45508-0.49805-0.12601 0-0.21063 0.04342-0.29297 0.08209h-0.8711l-0.5 0.25001h-0.53906l-0.58399 0.12301-0.20704-0.03905-0.20508 0.03905c-0.0412 0.04367-0.12664 0.08633-0.2539 0.125-0.0811 0-0.45337 0.1675-0.57813 0.29101-0.12851 0.08484-0.20743 0.04329-0.29102-0.03905-0.12476-0.08359-0.0419-0.29156 0.0429-0.33398v-0.29102l0.084-0.29103 0.0821-0.16406c0-0.04117 0.0412-0.20852 0-0.33204 0-0.16593-0.0823-0.16712-0.0449-0.25195v-0.33008l-0.16407-0.25001c-0.0412-0.12476 0.044-0.2493 0.084-0.29296l0.20703-0.08209 0.33204-0.24999 0.12695-0.16602 0.16602-0.29297 0.0391-0.49414c0.0412-0.12351-0.0863-0.21048-0.125-0.33399l-0.0801-0.49804-0.20899-0.25001-0.082-0.33008c0-0.04242-0.0432-1.74e-4 -0.16797-0.33204-0.0823-0.33311-0.58133-0.37304-0.625-0.37304-0.0412 0-0.45416-0.04491-0.7461-0.04491zm90.166 2.3906c-0.0388-0.0037-0.0748 0.0025-0.10542 0.02345-0.16718 0.03992-0.37843-3.74e-4 -0.45703 0.28906-0.0848 0.29069 3e-4 0.54016-0.12696 0.58008-0.12476 0.04367-0.16626 0.29212-0.29102 0.37696-0.12227 0.12351-0.37695 0.53906-0.37695 0.53906h-0.0352c-0.0811 0.08234-0.25165 0.29109-0.33399 0.41211-0.12476 0.16843-0.37414 0.41822-0.41406 0.54298-0.0424 0.12601-0.125 0.45507-0.125 0.45507l-0.37306 0.29297c-0.126 0.03992-0.33438 0.03855-0.41797 0.20703-0.12351 0.16468-0.28782 0.24938-0.33398 0.41406 0 0.2096-0.0387 0.29135 0 0.58204 0.0462 0.29194 0.12797 0.41735 0.0469 0.58203-0.0848 0.16718-0.0469 0.50064-0.0469 0.66407 0 0.2096-0.11914 0.08334-0.11914 0.66602 0 0.6213-0.21093 0.62158-0.21093 0.8711 0 0.24952 0.0429 0.83031 0.0429 0.95507 0 0.08359-4e-4 0.62229-0.084 0.87306-0.0424 0.24827-0.29297 0.74674-0.29297 0.95509-0.0412 0.20835-0.041 0.62244-0.041 0.83204 0 0.20835-0.0801 0.24757-0.0801 0.37109 0 0.08608-0.0859 0.37642-0.0859 0.70704 0 0.33436 0.0873 0.53806 0 0.66407-0.0387 0.16718-0.16547 0.25048-0.12302 0.5 0.0437 0.20461 0.0433 0.20386-0.084 0.62305-0.12476 0.37054-0.0822 0.58087-0.0411 0.74805 0 0.16843 0.0811 0.54164 0 0.70508-0.12351 0.12476-0.0845 0.32924-0.28907 0.45899-0.2071 0.12226-0.74665 0.33204-0.83398 0.33204-0.0823 0-0.41252 0.16446-0.54102 0.24805l-0.41016 0.16601c-0.1285 0-0.29165-0.03992-0.5 0-0.16468 0.04242-0.37634 0.08346-0.54102 0.04104-0.16593-0.04242-0.49805-0.24805-0.49805-0.24805s-0.33319-0.0012-0.16601 0.58008c0.12102 0.58388 1e-3 0.54158 0.0449 0.95703 0.0387 0.33186 0.12064 0.6222 0.24414 0.70704 0.12725 0.03992 0.33407 0.12264 0.5 0.03905 0.16593-0.03992 0.5376-0.03943 0.78712-0.33008 0.2096-0.29319 0.2101-0.41556 0.66796-0.58399 0.45413-0.16718 0.57728-0.29297 0.66212-0.29297 0.0848 0.04491 0.28883 0.12533 0.20898 0.46094-0.0873 0.33186-0.33008 0.7461-0.33008 0.7461s-1e-3 0.25063-0.0878 0.45898c-0.0823 0.20585-0.12288 0.37118-0.20898 0.53712-0.0387 0.16967-0.16406 0.41634-0.16406 0.66211 0 0.2096-0.12508 0.16939-0.2461 0.5-0.16843 0.29194-0.20633 0.46119-0.24999 0.58595 0 0.08109-0.12302 0.16438-0.16798 0.45507-0.0399 0.29194 0 0.66361 0 0.83204-0.0399 0.16593-0.16602 0.41571-0.16602 0.49805 0 0.12351 0.12696 0.41211 0.12696 0.41211s0.0398 0.29344 0.20704 0.16992c0.12475-0.12601 0.12401-0.25024 0.24999-0.375 0.12102-0.16718 0.16682-0.20711 0.33399-0.37304 0 0 0.0371-0.1255 0.0371-0.41993 0 0 0.084-0.08035 0.084-0.32617 0.0424-0.25077-1e-3 -0.41844 0.082-0.66796 0.1285-0.29194 0.1289-0.70313 0.1289-0.70313s0.0398-0.25165 0.16211-0.37891c0.0848-0.12226 0.16798-0.37024 0.16798-0.45507 0-0.08109 0.20898-0.37579 0.20898-0.49805 0.0399-0.12476 0.0402-0.5011 0.0801-0.54102l0.16602-0.53906 0.084-0.45703s0.0427-0.53806 0.125-0.66407c0.0811-0.12601 0.25-0.45703 0.25-0.45703s-0.12725-0.12508 0-0.29102c0.16593-0.16593 0.12516-0.20688 0.41211-0.24805 0.25201-0.08234 0.33322-0.16626 0.58399-0.29102 0.29194-0.12476 0.37274-0.21062 0.5-0.24805 0.12101-0.04491 0.57891-0.12919 0.37305 0.41601-0.16842 0.53772-0.41602 0.61914-0.41602 0.61914l-0.24805 0.08396-0.29492 0.33398-0.28711 0.12301s-0.16764 0.45703 0.16797 0.45703c0.33061-0.04242 0.61908-0.24642 0.8711-0.53712 0.20834-0.29443 0.66407-0.41797 0.66407-0.41797l0.041-0.24805s0.12549-0.16626 0.37501-0.29102l0.16601-0.12301c0.12352-0.12601 0.20508-0.20812 0.20508-0.29296 0.0424-0.16718 0.0848-0.2528 0.20703-0.12301 0.16593 0.07985 0.16602 0.12202 0.16602 0.45507 0 0.28944 3.1e-4 0.53946-0.0821 0.62305-0.0412 0.08359-0.0412 0.249 0 0.375 0 0.16344-0.0411 0.53821-0.0411 0.62305 0 0.04117-0.0831 0.95283-0.12301 1.0801-0.0412 0.12351-0.086 0.5386-0.086 0.66211 0 0.1285-0.0821 0.37595-0.0821 0.50196 0 0.08109-0.084 0.41415-0.084 0.58008 0.0424 0.16843-1e-5 0.49734-0.0449 0.54101-0.0362 0.07985 0.0878 0.16431 0.0878 0.28907 0 0.12226-0.0419 0.29015-0.12301 0.33008-0.0811 0.08359-0.29298 0.04392-0.29298 0.16992-0.0399 0.12601-3e-4 0.12627 0.12696 0.49805 0.0848 0.33311 0.16602 0.66306 0.16602 0.78907v0.125c0.0362 0.16468 0.20368 0.41306 0.2461 0.53906 0 0.16468-0.0424 0.45798 0 0.53908 0 0.12476 0.044 0.54117 0.29101 0.5 0.20835-0.04242 0.29376-0.0012 0.46094-0.33204 0.12226-0.29194 0.2454-0.29165 0.28907-0.5 0.0437-0.2071 0-0.4972 0-0.58204 0-0.12351-0.12501-0.28874-0.12501-0.37108v-0.20704s-0.12414-0.04354-0.16406-0.25195c-0.0886-0.21084-0.16657-0.29165-0.20899-0.5 0-0.20585 0.0785-0.57782 0.041-0.66017-0.0424-0.12726-0.0835-0.33726-0.041-0.50195 0-0.20835 0.0801-0.41541 0.0801-0.62501 0.0412-0.2096 0.0872-0.70142 0.0411-0.8711-0.0412-0.12351-1e-3 -0.66079 0.0449-0.86914 0.0823-0.16593 0.12114-0.58322 0.12114-0.78907 0-0.20835 0.0846-0.66557 0.12696-0.834 0-0.12601 0.084-0.20711 0.084-0.37304 0-0.16593-0.0437-0.62229 0-0.87306 0.0437-0.28944 0.0444-0.37282 0.12301-0.62109 0.0836-0.25077 0.0449-0.41766 0.0449-0.5 0-0.08234-0.0448-0.24954 0.16601-0.37306 0.20461-0.12726 0.28681-0.04204 0.41407-0.12694 0.16468-0.08109 0.37205-0.28696 0.49804-0.32813 0.12601-0.04242 0.24845-0.0011 0.33204-0.08596l0.24804-0.25001c0.12476 0 0.25149 0.08259 0.37501-0.12696 0.12351-0.20461 0.20672-0.07835 0.28906-0.20312 0.0848-0.12601-6.2e-4 -0.29086 0.16406-0.33204 0.12975-0.04117 0.46064-0.125 0.54298-0.125 0.12726-0.04242 0.32962 4.61e-4 0.49804-0.12301 0.20835-0.12601 0.33189-0.12664 0.41797-0.20898 0.0836-0.12226 0.16734-0.16781 0.28711-0.20898 0.12476-0.04242 0.6276-0.16664 0.79103-0.33008 0.16593-0.2096 0.24882-0.20953 0.37109-0.25195 0.0861-0.08234 0.12729-3.87e-4 0.41797-0.03905 0.28944-0.08484 0.45571 0.03843 0.29102 0.24805-0.16717 0.20585-0.54001 0.49688-0.66601 0.66406-0.0798 0.16718-0.28822 0.37369-0.37306 0.91016-0.0412 0.2096-0.12239 0.4193-0.16602 0.58399-0.0374 0.12476-0.16781 0.37828-0.20898 0.54297-0.0387 0.16468-0.0801 0.74579-0.0801 0.82813l-0.12301 0.54102c-0.59386 1.4834-1.3682 3.4945-2.0781 4.9043v0.49805c0 0.20585-0.0429 0.57812-0.0429 0.57812l-0.16797 0.46094-0.12114 0.28711-0.0429 0.33594 0.0429 0.57812 0.2461 0.25001s-0.0825 0.08658 0.25195-0.12301c0.2857-0.24952 0.5-0.49804 0.5-0.49804l0.20508-0.33399c-0.0873-1.4497 0.23812-2.9297 1.0391-4.1524l0.0391-0.375s0.33258-0.83322 0.41991-1.0391c0.0823-0.20835 0.24611-0.37304 0.24611-0.37304l0.12695-0.20898 0.12301-0.20704s0.33064-0.41555 0.37306-0.53906c0.0424-0.12725 0.58438-0.74774 0.66796-0.83008 0.0799-0.08484 0.28806-0.37258 0.41407-0.16798 0.20585 0.25077 0.24805 0.12289 0.24805 0.58204 0 0.45662-0.12164 0.83016-0.20899 0.99609-0.0811 0.16593-0.0802 0.37438-0.0391 0.53906 0.0399 0.16843-0.0428 0.33463-0.084 0.54298 0 0.24827 0.0419 0.70525-0.0429 1.0371-0.0811 0.32937-0.0816 0.95376-0.0429 1.207 0 0.24827-0.12615 0.868 0.086 1.4082 0.2096 0.54021 0.37361 0.75024 0.41603 0.875 0.0823 0.12351 0.28907 0.74805 0.28907 0.74805s-0.12152 0.08346 0.12301 0.20704l0.25001 0.08396 0.37694 0.20703c0.12476 0 0.16205-0.08371 0.41407 0.04105 0.24827 0.16593 0.45363 0.12252 0.74806 0.0801 0.28944-0.03867 0.74463-0.03755 1.0391 0.08596 0.29069 0.12476 0.37095-0.04242 0.45703 0 0.12102 0.08359 0.2886 0.08384 0.41211 0.125h0.50196l0.20508-0.21094 0.41797-0.20508s0.45508-0.16679 0.45508-0.28906c0-0.16718 0.0449-0.37719 0-0.45703l-0.12301-0.33594-0.0821-0.8711-0.12892-0.29102c-0.0811-0.08234-0.40876-0.37393-0.49609-0.70704-0.12351-0.33061-0.20812-0.91289-0.24805-1.0352-0.0424-0.12726-0.0428-0.45728-0.084-0.58204-0.0449-0.08359-0.16609-0.29296-0.33202-0.29296-0.16593 0.04117-0.33204 0.12464-0.33204 0.45898 0 0.32937 0.0387 0.78985 0.0761 0.91212 0.0449 0.12476 0.0449 0.6661 0.0449 0.83204 0.0449 0.16843-0.0821 0.37304-0.0821 0.37304l-0.16406 0.33204v0.33204s-0.0847 0.08309-0.20704 0.12301c-0.12476 0.04242-0.2915 0.16992-0.54102 0.16992-0.25077 0-0.37704 0.0413-0.54297-0.04105-0.12226-0.08484-0.33141-0.16798-0.49609-0.16798-0.12476-0.04242-0.66415-0.12389-0.83008-0.29101-0.16468-0.12476-0.41407-0.25133-0.41407-0.41601 0-0.12476-1e-3 -0.24564-0.0449-0.41406-0.0836-0.16593-0.16617-0.33197-0.125-0.53908 0.0412-0.24827 0.16953-0.20751 0.086-0.50194-0.0848-0.32812-0.21093-0.66361-0.16601-0.78712 0.0399-0.12351-8.7e-4 -0.41539 0.039-0.58007 0.0412-0.16842 0.12696-0.29376 0.12696-0.41602 0-0.16842-8.6e-4 -0.3726 0.0391-0.54102 0.0823-0.20835 0.16602-0.33516 0.16602-0.54101 0-0.2071-0.0401-0.33088 0.041-0.49805 0.0886-0.16468 0.25252-0.57907 0.29494-0.70508l0.0781-0.41406c0.0873-0.08484 0.21148-0.12728 0.25389-0.41797 0.0424-0.24952 0.24806-0.32908 0.24806-0.5 0-0.16468-9.4e-4 -0.20642-0.0821-0.3711-0.0449-0.16593-0.20843-0.20955-0.16602-0.58008 0.0424-0.37553 0.0785-0.375-0.166-0.375-0.29069 0-0.41947 0.08259-0.54298 0.125l-0.45703 0.12114s-0.12451 0.33437-0.24805 0.37304c-0.0823 0-0.16735 0.04379-0.33204 0.21094-0.12476 0.16843-0.0435 0.08197-0.25195 0.28906-0.20585 0.24952-0.45507 0.41712-0.45507 0.50196 0 0.08234-0.25235 0.33016-0.33594 0.4961-0.0786 0.16843-0.33008 0.41406-0.33008 0.41406s-0.28711 0.2064-0.28711 0.04292c0.0399-0.16718 0.20718-0.28861 0.16601-0.45703 0-0.12476-0.0429-0.33157-0.0429-0.45509 0-0.12601 0.20774-0.54234 0.16407-0.70703-0.0424-0.2096-0.0432-0.62314 0.0429-0.78907 0.0823-0.2071 0.24883-0.33337 0.3711-0.49805 0.0836-0.12476 0.46116-0.2465 0.541-0.375 0.0836-0.12476 0.29477-0.12617 0.33594-0.33202 0-0.2096-1e-3 -0.20962 0.082-0.37306 0.0811-0.16967 0.41797-0.41445 0.41797-0.49804l0.12114-0.29297 0.16797-0.0801 0.12301-0.21093 0.24805-0.03905c0.1285-0.04366 0.2932-0.16798 0.37304-0.16798h0.21095s0.0417-0.12602 0.20508-0.37304c0.126-0.20835 0.16554-0.4154 0.28905-0.58008 0.16718-0.20835 0.334-0.5 0.334-0.5s0.1271-0.04242 0.086-0.37304c0-0.37428-0.12494-0.58244-0.33204-0.66603-0.21084-0.04117-0.37695-0.04105-0.37695-0.04105s-0.45306 0.20587-0.66016 0.37304c-0.25077 0.12476-0.66681 0.49979-0.78907 0.74805-0.16843 0.24952-0.33697 0.37329-0.58399 0.49805-0.25202 0.16593-0.45797 0.20922-0.58398 0.33398-0.12476 0.08234-0.33001 8.8e-5 -0.53711 0.16602-0.24952 0.12476-0.50064 0.41392-0.66407 0.45509-0.12851 0.04367-0.37345 0.16695-0.50195 0.24805-0.12476 0.08608-0.12438 0.16796-0.28907 0.16796-0.20959 0.03992-0.45572 0.16805-0.66407 0.28907-0.2096 0.08234-0.62468 0.08396-0.70702 0.08396-0.0412-0.03868-0.41362-0.08234-0.58205 0-0.12476 0.08608-0.16601 0.20852-0.16601 0.37695 0 0.16344 0.0415 0.41236-0.0821 0.53712-0.16343 0.08484-0.24774 0.16906-0.375 0.20899l-0.37304 0.16796c-0.0811 0.03743-0.29172 0.16608-0.24805-0.08596 0.0412-0.24827 0.0812-0.49689 0.12114-0.66407 0.0462-0.12226-0.08 0.04417 0.086-0.4961 0.20835-0.49904-0.0413-0.24886 0.20704-0.83398 0.29194-0.58013 0.12326-0.62189 0.24805-0.78907 0.12351-0.12476 0.29211-0.33227 0.37695-0.45703 0.0811-0.16593 0.20508-0.37399 0.20508-0.45509 0-0.12601 0.041-0.53906 0.041-0.53906l-0.0801-0.29297c-0.0437-0.04117-0.1261-0.2936-0.16602-0.45703-0.0424-0.12601-0.33219-0.87312-0.29102-0.99414 0-0.08359-0.0846-0.16712-0.24804-0.25195-0.16718-0.04117-0.58603-0.08359-0.75196 0-0.16468 0.08484-0.28945 0.08471-0.37304 0.25195-0.0811 0.16344-0.2462 0.3293-0.45704 0.53516-0.24578 0.16843-0.24541 0.1693-0.33399 0.33398-0.0786 0.16718-0.37273 0.45783-0.45507 0.62501-0.0424 0.16468-0.0419 0.16541-0.12301 0.375-0.0848 0.12102-0.20853 0.28914-0.33204 0.45507-0.0811 0.12476-0.20882 0.24953-0.24999 0.37304-0.12476 0.29319-0.20729 0.41783-0.37696 0.83204-0.16344 0.4142-0.24596 0.62189-0.33204 0.78907l-0.0801 0.12301c0 0.08359-0.0435 0.29306-0.086 0.45899-0.0437 0.29194-0.12089 0.16299-0.20702 0.49609-0.0786 0.33436-0.20688 0.53946-0.24805 0.62305-0.0412 0.08234-0.20742 0.4168-0.29101 0.53906-0.0424 0.08484-0.24642 0.29155-0.20899-0.03905 0.0437-0.33186 0.0821-0.24885 0.0821-0.41602 0-0.20585 0.12836-0.20766 0.086-0.41601-0.0387-0.24952-0.0387-0.45479 0-0.58204 0.0424-0.12351 0.16782-0.58056 0.20899-0.83008 0.0823-0.24702 0.24805-0.62189 0.24805-0.78907v-0.99609s0.0831-0.16658 0.12301-0.58203c0.0424-0.4142-0.0413-0.49814 0.041-0.66407 0.12227-0.24952 0.20899-0.62305 0.20899-0.62305l0.12301-0.5v-0.58008s-0.24718-0.25118-0.28711-0.45703c0-0.20835 0.078-0.45602 0.16407-0.58203 0.0437-0.16593 0.20899-0.33204 0.20899-0.33204s0.0404-0.29086 0.20507-0.33204c0.16842-0.04242 0.41798 0 0.41798 0l0.24999-0.16796 0.20508-0.16407c0.12726-0.08359 0.49915-0.20758 0.58399-0.24999 0.12102-0.03992 0.6654-0.20876 0.78516-0.45703 0.12726-0.20835 0.37524-0.33172 0.5-0.41406 0.12726-0.08359 0.33299-0.25001 0.45898-0.25001 0.16843 0 0.57986-0.08234 0.50001-0.58008-0.0437-0.28944-0.25305-0.37439-0.29297-0.58399 0-0.16593 0.1625-0.21071-0.082-0.41407l-0.33203-0.25195c-0.25202-0.20585-0.45798-0.49789-0.58399-0.53906-0.0908-0.03181-0.23305-0.13202-0.34961-0.14453zm-19.238 0.02932c-0.086 0.0075-0.14703 0.05003-0.22656 0.07423-0.16469 0-0.16586 0.20852-0.20703 0.33204-0.0848 0.12351-0.16602 0.28907-0.16602 0.28907l-0.24805 0.1289c-0.0836 0.08109-0.12499 0.20517-0.12499 0.3711-0.0437 0.2071-0.0429 0.335-0.0429 0.53712 0 0.2096-0.12239 0.20924-0.16602 0.37891-0.0811 0.16344-0.25024 0.2068-0.375 0.45507-0.0786 0.29069 0.12389 0.33337 0.084 0.49805-0.0848 0.2096-0.084 0.29165-0.084 0.5 0 0.16593 0.12476 0.20508 0.25195 0.20508 0.16718 0 0.33212-0.125 0.49805-0.125 0.16344 0 0.33595 0.08521 0.33595 0.33594 0.0387 0.24702-0.0893 0.28946-0.25782 0.37304-0.16094 0.04117-0.0376 0.12326-0.28711 0.24805-0.24702 0.12351-0.33009 0.29297-0.33009 0.29297s-0.1643 0.2486-0.28906 0.29101c-0.0861 0.04117-0.12844 0.08197-0.20703 0.28907-0.0462 0.16593-0.25414 0.20867-0.33399 0.29101-0.0873 0.08359-0.33307-0.04292-0.62501-0.04292-0.24825 0-0.24898-1.5e-4 -0.37499 0.08596-0.126 0.04117-0.33063 0.16588-0.37305 0.58008-0.0424 0.37428 0 0.24977 0 0.49804s0.20969 0.20744 0.53906 0.29103c0.37428 0.03992 0.4151-0.08384 0.70704-0.12501 0.24952-0.08359 0.33243-1.5e-4 0.46094 0.04105 0.16343 0 0.28431 0.12301 0.36915 0.12301l0.33398 0.33593 0.37304 0.28907s0.33369 0.24953 0.41603 0.37304c0.12351 0.16468 0.29016 0.375 0.375 0.375 0.0799 0.04242 0.49688 0.37454 0.66406 0.49805 0.16842 0.16718 0.33141 0.20728 0.49609 0.33204 0.16469 0.12601 0.54267 0.04292 0.62501 0.04292l0.29102 0.08396 0.33398 0.125s0.37204 0.24759 0.49805 0.3711c0.12102 0.12351 0.61869 0.41766 0.78711 0.5 0.16718 0.12226 0.41377 0.03867 0.54102-0.04491 0.16469-0.12226 0.2071-0.37157 0-0.62109-0.16593-0.20585 0-0.28985 0-0.45703 0-0.16593-0.0833-0.37423-0.12695-0.58008-0.0811-0.16468-0.53751-0.46008-0.62109-0.5l-0.459-0.08209c-0.45287-0.25077-0.32961-0.08247-0.45312-0.16602-0.12601-0.04117-0.33556-0.04105-0.625-0.04105-0.29319 0-0.24916-3.99e-4 -0.33399-0.08396-0.12601-0.04242-0.29064-0.12464-0.58009-0.20703-0.29068-0.08234-0.2907-0.04192-0.37304-0.16798-0.12351-0.12226-0.58532-0.33046-0.75001-0.41405-0.16718-0.04242-0.20601-0.16572-0.33202-0.24806-0.0798-0.12476-0.16805-0.12609-0.28907-0.21093-0.12476-0.08109-0.16602-0.2461-0.16602-0.2461s-0.25103-0.20642-0.54296-0.41601c-0.2882-0.16593 0.086-0.37304 0.086-0.37304s0.12326-0.24986 0.24804-0.29103l0.70704-0.166c0.12351-0.04117 0.41601-0.08371 0.41601-0.16602l0.29298-0.24805 0.45507-0.16798 0.20704-0.41601c0.0399-0.08484 0.28891-0.33174 0.33008-0.45899 0.0437-0.08109 0.20898-0.49548 0.20898-0.70508 0-0.16468 0.12276-0.45532 0.25001-0.58008 0.126-0.16593-0.0821-0.58203-0.0821-0.58203l-0.62501-0.29102c-0.0823-0.04242-0.16556-0.12326-0.28907-0.24805-0.16718-0.08484-0.20718-0.12314-0.16601-0.334 0.0836-0.24952 0.0412-0.45837 0-0.62305-0.0412-0.20461-0.25064-0.29-0.45899-0.3711-0.0772-0.03231-0.1379-0.03967-0.18946-0.03518zm46.18 0.31835c-0.0364 4.87e-4 -0.067 0.0037-0.0878 0.0037-0.0811 0.04491-0.29297 0.08409-0.29297 0.24999-0.0424 0.12476-0.0801 0.41602-0.0801 0.41602l-0.041 0.166s-0.0878 0.4154-0.0429 0.58008c0 0.2096-0.0444 0.41767 0.0429 0.50001 0.0786 0.08234 0.12114 0.16734 0.12114 0.33202 0.0449 0.16718-0.0429 0.33244-0.0429 0.41602 0.0424 0.12476 0.21009 0.24788 0.29492 0.28906 0.0399 0 0.29127 0.29126 0.41603 0.41602 0.12476 0.12601 0.37539 0.29211 0.45897 0.33204 0.0823 0.04117 0.29111 0.04192 0.45704 0.12301 0.20585 0.08733 0.37305-0.32962 0.37305-0.49804 0-0.12476-1e-3 -0.2461 0.0801-0.29102v-0.49611c0.0424-0.12351-0.12339-0.2914-0.20703-0.37499l-0.33203-0.53907-0.0411-0.37304c-0.0387-0.03868-0.20812-0.2922-0.24805-0.49805-0.0437-0.20835-0.37703-0.33251-0.49805-0.58203-0.0645-0.15626-0.22095-0.17334-0.33008-0.17188zm-51.636 0.42774c-0.0474-0.01248-0.14006 0.03518-0.41797 0.03518-0.37427-0.04117-0.29297 0.29102-0.29297 0.29102s0.0411 0.33049 0.0411 0.45899c0 0.08234 0.0404 0.24797-0.16798 0.45507-0.16468 0.20585-0.20352 0.25009-0.33202 0.41602-0.12102 0.16468-0.16407 0.4125-0.16407 0.49609l-0.20703 0.20898-0.29297 0.33204c-0.0387 0.08234-0.12214 8.7e-5 -0.20703 0.16602-0.0798 0.16468-2.4e-4 0.33352-0.0801 0.45703-0.0449 0.08109-0.0832 0.16735-0.28906 0.37695-0.16593 0.16344-0.086 0.24579-0.086 0.32813 0 0.04242 0.25273 0.37524 0.375 0.5 0.16468 0.08359 0.28782 0.04117 0.33398 0h0.45313c0.0424-0.04117 0.33203-0.20711 0.33203-0.37304 0-0.12601 0.0858-0.20812 0.12696-0.24805l0.037-0.33399c0.0861-0.12601 0.16798-0.12578 0.16798-0.29296-0.0399-0.16593 0.086-0.24843 0.086-0.28711 0.0412-0.08484 0.16484-0.21063 0.28711-0.29297 0.0848-0.12476 0.12438-0.20797 0.33398-0.28907 0.16219-0.08484 0.084-0.25133 0.084-0.41601 0-0.12601 0.16611-0.16798 0.33204-0.16798 0.16593 0.04242 0.16657 0.12556 0.20898 0.16798 0 0.08109 0.0819 0.20642 0.12302 0.41601 0.0424 0.24827 0 0.20392 0 0.3711-0.0412 0.16718 0 0.58368 0 0.66602 0 0.08359-0.12364 0.37313-0.16602 0.53906-0.0399 0.12476-0.12289 0.58143-0.20899 0.79103-0.12351 0.16593-0.28906 0.41555-0.28906 0.53906 0 0.12726-0.20703 0.37304-0.20703 0.37304v0.25001c0 0.03992-0.20978 0.33251-0.37696 0.53712-0.16593 0.16843-0.0389 0.33587-0.0801 0.54297-0.0412 0.20585-0.0866 0.37212-0.29493 0.66406-0.28695 0.4167-0.33171 0.53931-0.36914 0.66407 0 0.16718-4e-4 0.37563-0.084 0.53906-0.12351 0.20835-0.20703 0.29251-0.20703 0.41602 0 0.12476-0.25 0.41797-0.25 0.41797l-0.20899 0.20508c-0.12476 0.12351-0.0428 0.20462-0.084 0.37304 0 0.16718-0.12501 0.33594-0.12501 0.33594s-0.0787 0.20625-0.16602 0.41211c-0.0799 0.25077-0.33 0.29181-0.20898 0.45899 0.0873 0.12351-0.0805 0.25039-0.16406 0.33398-0.0798 0.12226-0.20712-0.08446-0.37305 0.41212-0.16718 0.53896-0.25 0.24805-0.25 0.24805s-0.0848-0.24838 0-0.53907c0.0823-0.2882 0.0825-0.2883 0.16601-0.53906 0.0836-0.24952-0.0843-0.16541-0.12301-0.375 0-0.16468 7.9e-4 -0.45532 0.12301-0.58008 0.12601-0.12351 0.1693-0.37337 0.28907-0.66406 0.1285-0.25077 0.46116-0.624 0.54101-0.75 0.0873-0.12226 0.16517-0.12114 0.25001-0.12114 0.12476 0 0.0821-0.37649 0.0821-0.5 0-0.12601 0.16711-0.28822 0.25195-0.37306 0.0811-0.12351 0.20759-0.25093 0.25001-0.33202 0.0399-0.04367 0.12264-0.58222 0.29101-0.91408 0.20461-0.3356 0.037-0.29196 0.037-0.41797-0.0374-0.08234-0.12064-0.08172-0.24414-0.16406-0.12725-0.08359-0.33399 0.04179-0.33399 0.16406l-0.086 0.33399-0.16602 0.16602c-0.0412 0.08359-0.12114 0.37383-0.12114 0.54101 0 0.12226-0.28916 0.4151-0.45509 0.70704-0.16842 0.28944-0.4182 0.58157-0.54296 0.70508-0.12726 0.08359-0.25056 0.70462-0.29298 0.82813-0.0786 0.16593-0.41212 0.54236-0.45703 0.70704-0.0399 0.20835-0.16406 0.54101-0.16406 0.54101l-0.21094 0.49805-0.24609 0.79103 0.041 0.41405-0.082 0.28712v0.5l-0.125 0.54297-0.086 0.41406v0.33204l0.12696 0.37304 0.29101 0.21094 0.29102 0.16602 0.20898-0.08396c0.8596-0.66123 0.94358-1.9057 1.7832-2.5782l0.041-0.29101 0.16602-0.36915s0.16603-0.12633 0.21094-0.29102c0.0811-0.16593 0.33202-0.41797 0.33202-0.41797l0.12114-0.08197v-0.25001s0.25375-0.37438 0.29492-0.53906c0.0823-0.12226 0.37345-0.91345 0.45704-1.123 0.12226-0.2071 0.12114-0.375 0.12114-0.375l0.21094-0.20508s0.16586-0.41501 0.20703-0.54102c0.0773-0.12476 0.16625-0.33437 0.2461-0.37304l0.16992-0.29297 0.082-0.41406c0-0.08109 0.25039-0.54055 0.33398-0.66406 0.0399-0.12351 0.24399-0.49658 0.33008-0.7461 0.0836-0.2071 0.084-0.20744 0.084-0.33594 0-0.12226 0.0391-0.24509 0.0391-0.3711 0.0449-0.12476 0.16462-0.20906 0.25195-0.37499 0.0836-0.12351 0.0831-0.2479 0.16798-0.28907 0.12351-0.08359 0.20703-0.1254 0.20703-0.20898 0-0.08234-0.0442-0.29126 0.12301-0.41602 0.16593-0.12226 0.0803-0.33086 0.0429-0.49804-0.0823-0.16344 0.0377-0.24805 0.0801-0.24805 0.0437-0.04367 0.0853-0.2929 0.0429-0.5 0-0.2071 0.20812-0.37329 0.24805-0.49805 0.0848-0.08109 0.20664-0.16431 0.16796-0.28907 0-0.12476-0.0822-0.29219-0.20702-0.49804-0.0836-0.2096-0.41447-0.25001-0.49806-0.25001-0.1285 0-0.62602 0.08346-0.87304 0.04105-0.25077-0.08608-0.33174-0.16712-0.45899-0.20704-0.0811-0.08234-0.33422-0.37346-0.41407-0.50196-0.0412-0.16593-0.20634-0.24649-0.25-0.33008-0.0112-0.02121-0.0213-0.03119-0.0371-0.03518zm-41.461 0.0781-0.20898 0.08209-0.29297 0.12301-0.24805-0.04105-0.20899 0.166h-0.24804l-0.082 0.12501-0.45703 0.375h-0.16406l-0.29494 0.20703-0.33007 0.16798c-0.29069 0-0.41601 0.12114-0.41601 0.12114l-0.37306 0.33398-0.20899 0.125-0.41601 0.37306-0.41797 0.04292-0.0762 0.28907-0.20898 0.166-0.29296 0.25196-0.33204 0.41015-0.12499 0.16992h-0.28907l-0.21095 0.20898-0.12114 0.2461-0.29101 0.53906-0.20508 0.33398-0.45899 0.83204-0.20899 0.16602-0.039 0.24805s-0.16781 0.33102-0.2539 0.45703c-0.0399 0.12601-0.37111 0.58173-0.41602 0.66407 0 0.04367-0.0388 0.20698-0.12114 0.45899-0.0399 0.2071-0.12804 0.20781-0.16797 0.33008-0.0811 0.12476 1e-3 0.20867-0.0801 0.29101l-0.12696 0.29297c0 0.12226-0.084 0.29101-0.084 0.29101s1e-3 0.2075-0.0411 0.41211c-0.0399 0.20835-0.12413 0.29337-0.16407 0.37696-0.0424 0.03743-0.1289 0.20656-0.1289 0.33008 0 0.16843-0.11965 0.3779-0.16211 0.45899-0.0437 0.12601-0.125 0.45476-0.125 0.5371-0.0861 0.33436-0.20867 0.33509-0.29101 0.41993-0.0836 0.07985 0 0.16275 0 0.3711 0 0.16593-0.0838 0.1664-0.125 0.24999-0.0848 0.08109-0.12364 0.58071-0.16602 0.74414-0.0823 0.16843-0.33242 0.74613-0.3711 1.1641-0.0836 0.4167-0.25391 0.24946-0.25391 0.20704v-0.8711c0-0.12476-7e-4 -0.2483 0.0429-0.41797 0-0.20336-1.5e-4 -0.24454 0.041-0.32813 0.0399-0.12601 0.0402-0.41736 0.125-0.58204 0.0437-0.16592 0.0434-0.2939 0.082-0.37499l0.084-0.28907c0-0.12476-0.0841-0.12563-0.0429-0.33398 0.0836-0.20585 0-0.33282 0-0.45509s0.0428-0.41891 0.084-0.5l0.0391-0.62305v-0.33204c0.0462-0.12476-3.9e-4 -0.41626-0.0391-0.54102 0-0.12351 3.8e-4 -0.37343 0.0391-0.41211v-0.375c-0.0387-0.12601 0.0469-0.29297 0.0469-0.29297v-0.29102c-0.0462-0.12601 0.0818-0.20616 0.12301-0.24609l0.16602-0.25195 0.041-0.33204 0.0449-0.28907c0.0387-0.08608 0.12164-0.16697 0.16406-0.29297v-0.29101c0.0424-0.12226 0.12289-0.33101 0.20898-0.41211 0.0811-0.08608 0.0374-0.3747 0-0.50196-0.0424-0.16468-0.0429-0.28766-0.0429-0.33008-0.0437-0.08359-0.25109-0.24885-0.29101-0.41602-0.0387-0.12226-0.24845-0.16571-0.33204-0.24805l-0.20898-0.08396c-0.0836-0.04242-0.16626-0.08583-0.29102-0.24805-0.126-0.16718-0.37305-0.04304-0.37305-0.04304s-0.25 0.08284-0.25 0.25001l0.084 0.25195-0.041 0.20508-0.25195 0.16798v0.33008s0.0855 0.33211 0.20898 0.49804c0.12476 0.16842 0.0429 0.29017 0.0429 0.375-0.0424 0.03992-5.5e-4 0.16915-0.0429 0.375 0 0.16468 0.084 0.24805 0.084 0.24805l0.0801 0.20508-0.0801 0.33399c-0.0387 0.47532-5e-3 1.5413 0.041 1.9942v0.41797l-0.041 0.66211c-0.26324 0.80595-0.06 1.5929-0.16602 2.4101l-0.041 0.41406-0.0449 0.41602s-0.041 0.12202-0.041 0.24805c0 0.16593 0.041 0.24999 0.041 0.24999l-0.16406 0.32813 0.12301 0.25195-0.041 0.33399 0.16798 0.5371s3.8e-4 0.41877 0.0391 0.58595c0.0848 0.2071 0.0429 0.62109 0.0429 0.62109l0.0429 0.33398s-5.5e-4 0.16484-0.0429 0.28711v0.25196l-0.0429 0.24999-0.0391 0.24805 0.12499 0.20704v0.49804s-0.086 0.33361-0.086 0.62305c-0.0387 0.24952-0.12501 0.45703-0.12501 0.45703s-0.12288 0.08159-0.16406 0.25001c-0.0836 0.16468-0.12263 0.20922-0.084 0.33398v0.54102c0 0.07985 0.0404-0.04441-0.12301 0.20508-0.12351 0.24827 5.5e-4 0.41501 0.0429 0.54102 0 0.12226 0.32811 0.375 0.32811 0.375s0.12556 0.16594 0.16798 0.37304c0.0836 0.16593 0.25172 0.29055 0.45507 0.41406 0.16968 0.08359 0.33618 0.04117 0.41603 0 0.0836-0.04242 0.21093-0.33174 0.21093-0.45899l0.16211-0.28711 0.0449-0.16992v-0.45507c0.0412-0.12476 0.041-0.24868 0.041-0.45703 0-0.16593-0.0847-0.12478-0.041-0.37306 0.0412-0.20835 0.041-0.33345 0.041-0.66406 0-0.37553-1.6e-4 -0.41666 0.041-0.62501 0.0449-0.2071 0.0449-0.37304 0.0449-0.37304s-0.12695-0.33102-0.12695-0.45703c0-0.12102-0.0821-0.41407-0.0821-0.41407l-0.084-0.33204-0.041-0.125c0.18215-1.0093-0.0499-1.7187 0.37306-2.9101l0.0391-0.24609 0.0429-0.33594c0.0886-0.71862 0.86136-1.8375 1.041-2.5723l0.16406-0.66406 0.12301-0.12696 0.16602 0.0801v0.25195l0.12695 0.20703 0.16602 0.21094 0.37109 0.08197h0.50001c0.1285 0 0.25195 0.12301 0.25195 0.12301l0.039 0.20898-0.20508 0.25195-0.086 0.24414-0.041 0.24999-0.33204 0.334-0.0429 0.41601s5.5e-4 0.24658 0.0429 0.4961c0.0424 0.24827 0.12595 0.33368 0.20704 0.41602l0.0429 0.29101s-0.29213 0.49829-0.37697 0.62305c-0.0786 0.12351-0.28999 0.49994-0.37108 0.70704-0.0848 0.2096-0.16697 0.33446-0.29297 0.53906-0.12227 0.2096-0.16602 0.49813-0.16602 0.66406 0 0.12351-7.8e-4 0.3783-0.0781 0.54298-0.1285 0.16718-0.20899 0.16554-0.20899 0.28906 0 0.12226 0.28713 0.20759 0.33204 0.25001 0.0836 0 0.37313-0.04154 0.53906-0.08396 0.16718-0.04242 0.24524-0.12451 0.33008-0.24805 0.0848-0.16593 0-0.24999 0-0.24999s0.12524-0.20782 0.25-0.375c0.12476-0.20585 0.25126-0.12501 0.29492-0.12501h0.24415l0.25195-0.16602c0.12102-0.08359 0.28711-0.166 0.28711-0.166h0.12695l0.20704-0.28907c0.0437-0.04242 0.0427-0.16626 0.125-0.29101l0.0821-0.12501c0.16718-0.16593 0.084-0.29072 0.084-0.41797 0-0.16468 0.12364-0.37148 0.16602-0.45507 0.0861-0.04242 0.0868-0.08396 0.16797-0.29102 0.0399-0.16593-0.0445-0.20728 0.0391-0.33204 0.0437-0.16344 0.25094-0.16337 0.33203-0.20704l0.16797 0.08209 0.12501 0.24999s0.042 0.16486 0.082 0.33204c0 0.16718 0.125 0.25001 0.125 0.25001s-1e-3 0.41595-0.0429 0.62305c0 0.24952-0.082 0.29102-0.082 0.29102s-0.20797 0.16625-0.28906 0.29101c-0.12352 0.16718-0.53907 0.41601-0.53907 0.41601l-0.086 0.20508-0.33203 0.41406v0.04491l-0.16798 0.16602-0.20507 0.08396s-1e-3 0.1629-0.041 0.33008c-0.0449 0.16843 0.12301 0.24999 0.12301 0.24999l0.29102-0.125v-0.03905l0.20702-0.04292 0.37501-0.28907c0.12216-0.043668 0.20888-0.1289 0.20888-0.1289v-0.12114l0.20704-0.25196 0.28906-0.37304c0.0823-0.12351 0.25196-0.04292 0.25196-0.04292l0.20507 0.08596 0.16407 0.24805 0.16796 0.25001-0.0391 0.20508s0.16556 0.12969 0.28907 0.25195l0.37305 0.03905 0.29101-0.20508v-0.66798l-0.12301-0.16406s-0.0843-0.32947-0.16798-0.53906c-0.0848-0.16593-0.084-0.70704-0.084-0.70704l0.0449-0.41797 0.28907-0.57812 0.12301-0.41602v-0.24999l0.21095-0.37304 0.12301-0.12501 0.125-0.41797-0.082-0.37304-0.125-0.41212-0.041-0.28906-0.12696-0.04491-0.24805-0.24805h-0.20898l-0.33008 0.08197s-0.20938 0.16626-0.29297 0.29102c-0.0811 0.12726-0.081 0.08209-0.20703 0.08209-0.12601 0-0.16602-0.45509-0.16602-0.45509l-0.16405-0.45703v-0.41797l-0.043-0.16796 0.043-0.66017-0.043-0.24999-0.0429-0.95509-0.041-0.49805-0.12501-0.21093-0.41601-0.12114-0.33204-0.04491-0.49805 0.24999-0.041 0.04105-0.20703 0.16992-0.16601 0.24805v0.37304l-0.45899 0.58008-0.20508 0.12696-0.20508 0.08197s-0.37595 0.08134-0.50196 0.125c-0.12725 0-0.41804 0.12414-0.53906 0.16407l-0.29102 0.125-0.12695-0.20508 0.16602-0.41797 0.0429-0.45313 0.16406-0.29492s0.16658-0.37009 0.25391-0.49609l0.16406-0.334 0.12302-0.24805 0.375-0.125 0.29297-0.54102 0.082-0.12301 0.24805-0.41602 0.25-0.41406 0.16602-0.20898c0.0836-0.12351 0-0.28876 0-0.3711l0.33008-0.24999 0.0429-0.08396 0.28907-0.41406c0.0823-0.12601 0.37499-0.45899 0.37499-0.45899s0.54236-0.4175 0.70704-0.54101c0.16843-0.12226 0.70508-0.45509 0.70508-0.45509s0.12565-0.12696 0.334-0.12696c0.16342 0 0.24999-0.08309 0.24999-0.12301l0.20704-0.28907 0.28905-0.16798 0.29298-0.166 0.53906-0.16407 0.20898-0.20898 0.41212-0.12696c0.12851-0.04117 0.5-0.0801 0.5-0.0801l0.25196 0.20703 0.16405 0.08396 0.0429 0.37304c0.0524 1.93-0.56596 3.884-0.54101 5.9376l-0.041 0.25195s-0.0424 0.37454 0 0.49805c0.0412 0.12601-0.0429 0.37304-0.0429 0.37304l-0.25001 0.08396-0.16601-0.12696s-0.16407-0.12139-0.20899-0.24609c-0.0387-0.12601-0.37563-0.20704-0.53906-0.20704-0.12102 0-0.29039 0.04105-0.45507 0.04105-0.16718 0-0.37501 0.49804-0.37501 0.49804l-0.041 0.20508 0.041 0.33204v0.70704c0 0.16842 0.20703 0.25195 0.20703 0.25195h0.375s0.3733-0.04392 0.49806-0.125c0.16717-0.04117 0.16796-0.25196 0.16796-0.25196l0.0821-0.20703s0.0835-0.20938 0.20704-0.29297l0.16602-0.03705 0.33398 0.16406 0.041 0.41406-0.041 0.41797c-0.28071 2.3455-0.1149 3.8581 0.041 6.1075v0.28711l0.0821 0.16796 0.086 0.25001-0.16797 0.82617v1.416l0.0821 0.28907-0.0821 0.375 0.0411 0.5v0.66211l0.084 0.16796-0.0429 0.16602-0.24805 0.20704v0.20899l-0.20899 0.16406-0.25 0.16796 0.16797 0.20704 0.082 0.24999s3.1e-4 0.12759-0.082 0.29103c-0.0424 0.12476-0.043 0.33202-0.043 0.33202l0.043 0.334 0.37305 0.49609 0.29297 0.4961 0.16406 0.5 0.125 0.04105 0.084 0.12696 0.33204 0.16601s0.41608 0.08047 0.5371 0.04304c0.1285-0.04367 0.66603-0.50001 0.66603-0.50001l0.12694-0.5 0.0801-0.16406-0.0411-0.37696 0.084-0.12114v-0.29102l-0.16602-0.20898-0.125-0.29102v-0.49805l0.041-0.33204-0.041-0.62305-0.0411-0.33202v-0.49805l-0.12499-0.70704-0.084-0.62305-0.0821-0.16601-0.0391-0.20704v-0.41601l-0.12695-0.87306-0.041-0.41601v-0.70704l-0.0429-0.16406-0.0821-0.50001-0.12694-0.83008 0.086-0.41602-0.086-0.66406s-0.12501-0.33352-0.12501-0.45703l0.0449-0.37306-0.084-0.33398v-0.37304l-0.0411-0.8711 0.0801-0.33204 0.0878-1.0391s0.0372-0.62688 0.0372-0.78907v-0.375l0.086-0.54102v-0.33008l0.0801-0.91406 0.12696-0.334-0.041-0.29101s9.4e-4 -0.24636 0.082-0.78907c0.0412-0.53772 0.20703-0.5371 0.20703-0.5371l0.20898-0.16798v-0.08197l0.28907-0.29102v-0.24805l0.125-0.375v-0.24805l0.33399-0.29297v-0.24806l-0.086-0.16602v-0.16602l-0.0801-0.29296s-0.2051-0.91096-0.25001-1.0781l-0.0429-0.24999 0.125-0.33009v-0.62696l-0.125-0.28711-0.16601-0.25195-0.28907-0.08396-0.29102-0.20508h-1.123l-0.20508-0.08209zm135.8 0.01959c-0.31631 0.0156-0.68887 0.12389-0.87695 0.1875-0.28944 0.04117-1.369 0.29055-1.6622 0.41407-0.24578 0.12351-0.45507 0.49804-0.45507 0.49804l-1.2461 0.95508-0.37305 0.08396-0.41601 0.41601-0.29102 0.08209-0.20898 0.20898-0.45899 0.12501-0.28711 0.20508-0.37695 0.24999-0.37306 0.20898s-0.41368 0.08184-0.70312 0.12301c-0.24952 0.04242-0.33493 0.21032-0.41602 0.375-0.0861 0.12476-0.12805 0.20766-0.16797 0.41601-0.0424 0.16468 0.0821 0.29055 0.0821 0.41406s-1.5e-4 0.24971 0.086 0.37696l0.25001 0.45507c0.12476 0.08109 0.53625-1.5e-4 0.62109 0.04105 0.12102 0 0.249 0.03905 0.375 0.03905 0.12476-0.03992 0.33088-0.20423 0.49806-0.28907 0.20585-0.03868 0.4132-0.12414 0.49804-0.16406l0.24805-0.41602s-0.0374-0.20836 0-0.37304c0-0.16842 0.12484-0.41641 0.16601-0.5 0.0848-0.08234 0.33339-0.16532 0.5879-0.20898 0.24577-0.04117 0.20337-0.04067 0.32813-0.12301 0.126-0.08359 0.16517-0.24984 0.25-0.29101 0.12227-0.04242 0.28999-0.12451 0.37109-0.24805 0.1285-0.12351 0.37415-0.25235 0.45899-0.33594 0.0786-0.07985 0.16695-0.12451 0.24805-0.24805 0.0848-0.12351 0.0853-0.12364 0.25-0.16602 0.12601-0.04242 0.20937-0.07997 0.24805-0.16602l0.25195-0.16406c0.11977-0.04367 0.24805-0.04292 0.24805-0.04292s0.16501-0.08209 0.29101-0.24805c0.12227-0.16593 0.20728-0.08384 0.33204-0.12501 0.16468-0.04117 0.53775-0.2914 0.7461-0.37499 0.20585-0.12226 0.20726-0.04242 0.33202 0 0.12601 0.08359 0.16712 0.29265 0.20704 0.37499 0.0462 0.08359 0.20899 0.04129 0.20899 0.33204 0.0424 0.28944 0.0424 0.4143 0 0.53906l0.0429 0.28907c0 0.08359-5.5e-4 0.2922-0.0429 0.54297-0.0412 0.29069-0.041 0.37276-0.041 0.50001 0 0.12226-0.042 0.45421-0.082 0.49414 0 0.08608 8.7e-4 0.4151-0.0391 0.70704-0.0462 0.33311-0.0469 0.75001-0.0469 0.75001v0.61913c0.0462 0.08608 0.0462 0.50399 0 0.62501-0.0399 0.12476-0.0821 0.33204-0.0821 0.33204v0.54101c0 0.08234 0.0429 0.53995 0.0429 0.87306-0.0424 0.28944 0.0389 0.78985-0.0821 0.95703-0.12601 0.12351-0.0449 0.41322-0.0449 0.49805 0 0.08234 0.0462 0.3318 0 0.53516v0.66992c-0.0412 0.32937-0.12115 0.62024-0.12115 0.70508 0 0.12102 0.0412 0.33181 0 0.58008-0.0449 0.24952-0.045 0.49728 0.0411 0.74805 0.0798 0.24952 0 0.24956 0 0.41797-0.0412 0.16219-0.086 0.33009-0.086 0.33009v1.4531c0 0.12601-0.0399 0.66416 0 0.83008 0 0.12351 0.0449 0.66603 0.0449 0.66603v0.37304s0.0801 0.29125 0.0801 0.41601c-0.0387 0.12476 0 0.49899 0 0.58008l-0.039 0.58204c-0.0861 0.08359 0.039 0.37258 0.039 0.4961 0 0.12726-0.0812 0.33742-0.16602 0.46094l-0.20507 0.12301 0.039 0.20703-0.039 0.37696-0.086 0.45703s-0.0429 0.24828-0.0429 0.37304c0 0.08234-0.0812 0.41399-0.12114 0.62109-0.0823 0.20835-0.41735-0.08097-0.58203-0.20703-0.12726-0.08234-0.3711-0.62501-0.3711-0.62501l-0.29493-0.0801c-0.0798-0.04366-0.33281-0.20814-0.45508-0.29297l-0.21094-0.08197-0.28906-0.49805-0.16602-0.20703-0.33007-0.16602-0.21095-0.12301s-0.4129-0.20914-0.58008-0.16796c-0.16967 0 0.0429 0.45532 0.0429 0.58008 0 0.08234 0.12594 0.16626 0.20704 0.29102l0.375 0.20703 0.24609 0.33398s0.41626 0.7487 0.54102 0.95704c0.12476 0.24827 0.45938 0.87187 0.49805 0.99414 0.0848 0.12351 0.45728 0.53986 0.62696 0.70704 0.20211 0.2071 0.16399 0.12351 0.3711 0.20704 0.16468 0.12351 0.33202 0.41345 0.33202 0.62305 0.0424 0.24952 0.086 0.20821 0.086 0.45898 0.0412 0.20461 0.53899 0.24625 0.74609 0.20508 0.2071 0 0.45508-0.29102 0.45508-0.29102l0.25-0.45509 0.0372-0.45703s0.0449-0.45727 0.0449-0.58203c0.0412-0.16593 0.0429-0.49564 0.0429-0.66407 0-0.16593 0.12484-0.29015 0.16601-0.37499 0.0412-0.08234 0.0817-0.37079 0.20899-0.45313 0.0823-0.12601 0-0.29517 0-0.41993 0-0.16468 0.12301-0.25032 0.12301-0.4961 0-0.25077 0.12302-0.53995 0.16798-0.87306 0-0.32937-0.0855-0.29094-0.20899-0.49804-0.16593-0.20835-0.33218-0.37424-0.29101-0.62501 0-0.2071 0.0813-0.49798 0.125-0.70508 0.0836-0.20835 0.12301-0.45627 0.12301-0.70704 0-0.28944-0.0395-0.454 0.084-0.78711 0.12227-0.29069-0.041-0.37298-0.041-0.625 0.0412-0.24952 0.041-0.8711 0.041-0.8711s0.16712-1.0409 0.20704-1.4551c0.0412-0.37303 0.0409-1.4568 0.12696-1.7051 0.0798-0.24702 0-0.74338 0-0.99415 0-0.2071 0.12114-0.74574 0.12114-1.4531 0-0.66746 0.042-0.70745 0.33398-1.1641 0.24952-0.45662 0.37696-0.99649 0.37696-1.0801 0.0412-0.08234 0-0.82892 0-0.99609 0-0.16593 0.041-0.78907 0.041-0.78907l0.041-0.45703s0.12401-0.6629 0.20508-0.83008c0.0836-0.12351 0.0837-0.78964 0.33203-1.2051 0.12476-0.25077 0.20705-0.749 0.25196-0.875 0-0.16344-0.0838-0.45516-0.16992-0.62109-0.0811-0.12351-0.49415-0.58203-0.49415-0.58203s-0.20767-0.50166-0.46094-0.91212c-0.24702-0.37678-1.0353-0.37665-1.3672-0.45899-0.0842-0.02059-0.18362-0.0247-0.28907-0.01959zm-98.459 0.6875c-0.0799 0-0.86923 0.12114-1.0352 0.12114s-0.53876 0.16642-0.6211 0.25001l-0.41992 0.20898s-0.12114 0.12152-0.28711 0.20508l-0.084 0.08596c-0.16469 0.03992-0.41291 0.28984-0.58009 0.41211-0.12351 0.08484-0.29101 0.20898-0.29101 0.20898l-0.25001 0.04105-0.12301 0.16602-0.12696 0.08396c-0.126 0.08484-0.2458 0.16586-0.37305 0.20703-0.16593 0.04242-0.28751 0.2497-0.41601 0.37695-0.16593 0.08359-0.70727 0.45548-0.78711 0.53907l-0.50001 0.28906c-0.0836 0.04367-0.28861 0.04279-0.45704-0.08209-0.16718-0.16718-0.33437-0.37359-0.37304-0.41601-0.0848-0.08484-0.12595-0.03992-0.25195 0-0.0824 0-0.0812 0.08172-0.12115 0.20898-0.0412 0.08109-8.6e-4 0.1643 0.0391 0.28906l0.0821 0.29101c-0.0412 0.12476-0.16212 0.209-0.16212 0.209-0.0823 0.12351-0.21131 0.24937-0.24999 0.41405 0 0.16718 0.0816 0.33368 0.20507 0.41602 0.0848 0.08359 0.0449 0.12578 0.0449 0.24805-0.0437 0.16718 0 0.25195 0 0.25195l0.24805 0.32813c0.0412 0.12601 0.2447 0.20898 0.33203 0.20898l0.66406-0.16407 0.45899-0.166c0.12102-0.12476 0.12115-0.33392 0.12115-0.54102-0.0374-0.2071 0.0826-0.20812 0.16992-0.24805 0.12226-0.04367 0.28907-0.25195 0.28907-0.25195l0.20898-0.2461 0.25001-0.16992 0.4121-0.20703 0.16602-0.12301 0.0821-0.125 0.12891-0.29103 0.20508-0.20703 0.16601-0.16602s0.0866-0.12688 0.0429-0.33398c0-0.20835 0.0429-0.20898 0.0429-0.20898h0.33009c0.12601 0 0.24664-0.24665 0.28905-0.28907l0.16798-0.24609 0.28711-0.12696 0.25586-0.20704 0.2461-0.08396 0.37304-0.20704 0.33204-0.20898 0.20898-0.16406 0.20703 0.0801 0.0429 0.21094v0.20703l-0.12696 0.37306-0.20702 0.24805-0.16406 0.33398-0.20899 0.20508-0.20704 0.33204-0.16602 0.16796-0.12499 0.20898-0.20508 0.37306-0.41797 0.70508-0.125 0.16602c-0.0836 0.12726-0.16798 0.20898-0.16798 0.20898l-0.0801 0.29102-0.20899 0.16796h-0.37305v-0.20703c0.0437-0.12601-0.125-0.20898-0.125-0.20898l-0.16602-0.12501h-0.37304l-0.29102 0.04105-0.20898 0.375-0.084 0.125 0.084 0.12301 0.0821 0.25001-0.0391 0.08209-0.0429 0.12301v0.16599l-0.039 0.12696-0.0449 0.20704-0.0801 0.24805v0.24999l0.0801 0.16407-0.0372 0.20899-0.086 0.29296-0.0821 0.20704v0.29102l0.0821 0.20898v0.24805l0.16798 0.20704 0.0821 0.33202 0.16602 0.20898 0.37304 0.37306 0.125 0.20898-0.041 0.24999v0.28711l-0.12695 0.20898h-0.0391l-0.0429 0.54298-0.084 0.66211c-0.03 2.0847-0.21001 4.0146-0.45704 6.0644l-0.0372 0.66407v0.41601l-0.16797 0.41406v0.62305l-0.041 0.66407-0.086 0.16602-0.0429 0.375v0.20898l0.0429 0.24805-0.12302 0.29296-0.086 0.20508-0.0391 0.41406-0.084 0.25195v0.24805l0.084 0.16602s1.5e-4 0.08371-0.041 0.21094c0 0.12226 0.041 0.32993 0.041 0.3711l0.29102 0.625c0.0424 0.08234 0.37399 0.41415 0.5 0.58008 0.12226 0.12601 0.28611 0.16602 0.41212 0.16602l0.24999-0.08396 0.041-0.16602 0.16406-0.24805s0.0449-0.16571 0.0449-0.29296c0-0.12351-0.0449-0.41446-0.0449-0.49805 0-0.03992-0.1204-0.20728-0.16406-0.33204 0-0.12226-0.12302-0.41406-0.12302-0.41406s-0.0863-0.24775-0.12499-0.375l-0.0429-0.20898c-0.0387-0.12351-0.0821-0.24649-0.0821-0.33008l0.0821-0.16602c0.0424-0.12351 0.0821-0.20758 0.0821-0.24999l-0.0391-0.20704 0.0391-0.20703-0.0391-0.29103 0.084-0.29296-0.084-0.16602 0.125-0.20704c0.0424-0.04242 5.5e-4 -0.20477 0.0429-0.33202 0-0.12476 0.0801-0.16556 0.0801-0.28907 0-0.08484 1.5e-4 -0.29306-0.041-0.45899 0-0.16468-1.5e-4 -0.33352 0.041-0.45703v-0.4961c-0.0686-0.92946 0.10043-1.8644 0.16406-2.7851l-0.12114-0.41406c-0.0437-0.08234 0.0821-0.24979 0.0821-0.54298 0-0.24952 0.0391-0.49593 0.0391-0.5371l0.0449-0.62501v-0.37304s-0.12851-0.0012-0.0449-0.20704c0.12601-0.20835 0.25195-0.49844 0.25195-0.58203l0.12302-0.33204c0.0437-0.12476-7e-4 -0.37398 0.0429-0.45507 0-0.12476 7e-4 -0.33493-0.0429-0.46094 0-0.16344-0.0394-0.24634 0.0429-0.3711 0.0848-0.12476 0.0852-0.29017 0.0391-0.375-0.0387-0.12351-0.12151-0.2465-0.20508-0.375-0.0399-0.12102 0.0428-0.24805 0.084-0.24805l0.20704-0.16602 0.28905-0.16602 0.16798-0.08197c0.16593 0 0.28641-0.04229 0.33007-0.08596l0.37695-0.04105 0.37306-0.16602 0.5-0.0801 0.33008-0.20898h0.12499l0.16602-0.20704v-0.375l-0.16602-0.24999v-0.37306c0-0.12351-0.166-0.4961-0.166-0.4961l-0.0821-0.33204-0.20703-0.41797-0.086-0.33202-0.20508-0.37306 0.0391-0.16602-0.0821-0.125-0.084-0.20703 0.21093-0.375 0.16601-0.24805 0.28711-0.41797 0.29298-0.45509 0.24414-0.29102 0.125-0.25195 0.33594-0.28907 0.12501-0.29102 0.29296-0.20703 0.12114-0.33204 0.0878-0.24805 0.20704-0.20898 0.0391-0.29297v-0.2461l-0.20704-0.125-0.37304-0.16602zm35.213 1.4883c-0.20751 0.01123-0.27344 0.16992-0.27344 0.16992l-0.041 0.29102v0.53907l0.1289 0.41992-0.0878 0.2461s-9e-5 0.249-0.16602 0.375c-0.16468 0.08234-0.33203 0.33202-0.33203 0.33202l-0.16797 0.45509 0.33398 0.16602c0.12227 0 0.37306-0.03905 0.37306-0.03905l0.28906-0.25001 0.33594-0.04105h0.41602l0.20508 0.41406s0.16875 0.20836 0.29101 0.37304c0.12476 0.12476 0.28906 0.16602 0.28906 0.16602l0.29688-0.28907 0.20508-0.04105 0.16602-0.20898 0.41602-0.33204 0.084-0.33204-0.041-0.83204s-0.3779-0.95393-0.45899-1.1211c-0.0823-0.2071-0.45899-0.166-0.45899-0.166l-0.99414-0.04292s-0.37659-0.20812-0.71094-0.24805c-0.0356-5e-3 -0.068-5e-3 -0.0977-0.0037zm-52.199 0.16992-0.24805 0.20898-0.3711-0.08396-0.25195 0.04105-0.41601 0.20898-0.29298 0.28907-0.33203-0.03905-0.28711 0.32812-0.33398 0.08596-0.20899 0.24999-0.33203 0.49805-0.28907 0.24805-0.20899 0.41601-0.28711 0.25001-0.37695 0.375-0.24804 0.24609-0.0801 0.20704-0.1289 0.125-0.29297 0.37306-0.28711 0.29101-0.0429 0.41601-0.20704 0.37306-0.24999 0.33593-0.0801 0.28907-0.29492 0.54297-0.33204 0.45509-0.12301 0.66211-0.29101 0.28907-0.20703 0.37891-0.0429 0.41405-0.166 0.20704v0.25001l-0.086 0.08596v0.16211l-0.33202 0.66602v0.33202l-0.0781 0.20508-0.0449 0.41797-0.12301 0.37306-0.12301 0.29102s-0.084 0.5397-0.084 0.74805c-0.0449 0.24952-0.24861 0.83119-0.29102 0.91602 0 0.08109-0.20703 0.53805-0.20703 0.66406 0 0.16593-0.29102 0.70509-0.29102 0.70509l-0.20703 0.16406 0.041 0.16796-0.041 0.20704-0.37695 0.49804-0.20704 0.25196s-0.0825-9.48e-4 -0.16602-0.12696c-0.0848-0.12476 0.043-0.37306 0.043-0.37306l0.0411-0.37304 0.20508-0.33204-0.0821-0.29297 0.0429-0.4961 0.0391-0.29296 0.16798-0.45509s0.041-0.29446 0.041-0.41797 0.041-0.29102 0.041-0.29102l0.16602-0.08396 0.12694-0.16406c-0.0586-1.2613 0.48941-3.4024 0.66407-4.7773l-0.041-0.33204 0.041-0.33204 0.084-0.28906 0.084-0.45899-0.0449-0.41406 0.24804-0.45703 0.0429-0.33008 0.16602-0.37891 0.084-0.4961 0.0391-0.41406 0.0898-0.20704-0.16798-0.33398v-0.24805s-0.12804-0.25149-0.16796-0.375c-0.0424-0.12726-0.28907-0.08209-0.28907-0.08209l-0.29296 0.16602-0.12301 0.33202c0 0.12601-1e-4 0.24853-0.21095 0.49805l-0.16601 0.25001c-0.0599 2.1509-0.64279 3.9395-0.8711 6.1465l0.043 0.29103s-0.0837 0.24641-0.16602 0.5371c-0.0449 0.33436-0.12501 0.99805-0.12501 0.99805l-0.084 0.5c-0.0412 1.698-0.43691 2.8293-0.12501 4.5685l0.12501 0.49804s-0.0424 0.25048 0 0.45509c0.0848 0.2071 0.53906 0.04491 0.53906 0.04491l0.29102-0.20898 0.086-0.41211 0.24804-0.33789 0.20508-0.3711c0.0848-0.16593 0.21095-0.41406 0.21095-0.41406l0.0821-0.45703 0.28907-0.49805 0.21093-0.125-0.0449-0.21094 0.125-0.20508 0.0821-0.29101 0.20704-0.41601 0.1289-0.24805 0.0801-0.58204 0.25195-0.58203 0.0821-0.45703 0.084-0.45703 0.0821-0.66407 0.125-0.5 0.16601-0.49805 0.084-0.45507 0.16406-0.20898 0.33203-0.58008s0.20977-0.28907 0.33204-0.33398l0.16406 0.08596s0.0902 0.12326 0.1289 0.24805l0.20704 0.20703c0.126 0.08109 0.24773 0.20759 0.33007 0.25001 0.0848 0.08359 0.125 0.0413 0.125 0.33204 0 0.29069-0.20616 0.66321-0.24609 0.74805l-0.25 0.28711s-0.12485 0.24979-0.16602 0.54298c-0.0811 0.28943-0.0387 0.49399 0 0.58007l0.082 0.50001c0 0.12226-0.0825 0.24828-0.21094 0.37304-0.16343 0.16344-0.24593 0.37398-0.28711 0.45507-0.0873 0.12726-0.12388 0.12768-0.29101 0.50196-0.16593 0.37303-0.25024 0.41377-0.33009 0.54102-0.0437 0.08109-0.0434 0.07997-0.12694 0.49414-0.0836 0.37553-0.0838 0.29587-0.12501 0.37696l-0.0821 0.16602s-9.4e-4 0.08521-0.0821 0.29102c-0.12476 0.16718-0.084 0.33266-0.084 0.49609 0 0.16843 1e-3 0.37674 0.041 0.62501 0.0437 0.25077 0.24844 0.16796 0.33203 0.16796 0.0836-0.04491 0.33055-0.08559 0.58007-0.16796 0.25327-0.1285 0.16877-0.33244 0.29103-0.41602 0.0848-0.08359 0.2914-0.12326 0.37499-0.24805l0.25001-0.375 0.29101-0.28906 0.20704-0.08396 0.28906-0.04105-0.0429-0.16992s0.37751-0.45408 0.41993-0.58008c0.0374-0.12476 0.33007-0.53906 0.33007-0.53906l0.21095-0.08209 0.12301-0.29101 0.24805 0.37304s0.041 0.37298 0.041 0.58008c-0.0412 0.16468-0.0415 0.16556-0.084 0.33398 0 0.12476 1e-3 0.16876-0.0801 0.29103-0.0836 0.12601 0 0.16391 0 0.24999 0.0424 0.04242-0.0463 0.12239-0.16602 0.33204-0.12601 0.24702-0.0826 0.29125-0.12501 0.41601-0.0437 0.12351-0.0868 0.29039-0.16797 0.41016-0.0861 0.08733-0.25077 0.21048-0.37304 0.37891-0.12476 0.12351-0.33361 0.28985-0.62305 0.41212l-0.16798 0.04292c-0.32936 0.08484-0.74492 0.24953-0.9121 0.37304-0.12476 0.08484-0.29026 0.04105-0.54102 0.08596-0.24578 0.08234-0.5411 0.08184-0.66212 0.12301-0.12476 0.04117-0.33509 0.08172-0.41992 0.20898-0.0387 0.12351-0.12364 0.33297-0.24219 0.41406v0.29101l0.0762 0.25195s0.0877 0.20462 0.12891 0.32813l0.4961 0.25195s0.33352 0.04105 0.45703 0.04105c0.16593-0.04242 0.62664-0.24845 0.66407-0.33204 0.0848-0.04367 0.25273-0.20797 0.37499-0.33398 0.12352-0.12601 0.709-0.20704 0.709-0.20704h0.039l0.33398 0.08209c0.12351 0.04242 0.20299-0.12438 0.28907-0.28906 0.0798-0.12476 0.33398-0.16602 0.33398-0.16602l0.33204 0.16602s0.24742 0.08309 0.4121 0.12301c0.12726 0 0.29688-0.20704 0.29688-0.20704s0.24328-0.24953 0.28321-0.37304c0.0437-0.12351-0.16602-0.29095-0.16602-0.49805-0.0387-0.20835-0.33211-1.75e-4 -0.45313-0.37695-0.0848-0.20835 0.0821-0.41267 0.0821-0.45509l0.16408-0.37304c0.1285-0.12601 0.29296 0.125 0.29296 0.125l0.16797 0.24805s-0.0433 0.1665 0.0391 0.41602c0.0861 0.24702 0.33478 0.41625 0.50196 0.49609 0.16468 0.12726 0.20407-2.37e-4 0.33008-0.0801 0.0823-0.12601 0.0429-0.20922 0.0429-0.33398l-0.16993-0.33204c-0.0399-0.12351 1e-3 -0.29055 0.0449-0.41406 0.0412-0.16593 0.041-0.33367 0.041-0.41601 0.0412-0.08234-0.25195-0.29126-0.25195-0.41602-0.0374-0.12476-0.0387-0.33156 0.0449-0.45507 0.0811-0.08359-0.0821-0.29431-0.0821-0.45899 0-0.12476-0.16829-0.41564-0.086-0.70508 0.0424-0.12601 0.20922-0.37469 0.28907-0.45703 0.0437-0.04117 0.29281-0.45822 0.33398-0.66407 0.0399-0.16967 0.084-0.24954 0.084-0.41797 0-0.16718 2.3e-4 -0.32892 0.0801-0.4961 0.12726-0.12601 0.12694-0.20674 0.12694-0.37891 0.0387-0.20461-0.12718-0.32712-0.20702-0.45313-0.0449-0.12351-0.53783-0.0012-0.58399 0.08197-0.0374 0.08484-0.16602 0.41611-0.16602 0.58204 0 0.12476-0.0822 0.24993-0.20702 0.45703-0.0811 0.2071-0.20565 3.12e-4 -0.29298-0.08197-0.0399-0.12476-0.12114-0.33353-0.12114-0.45704v-0.45703c0-0.08359-0.0449-0.29196-0.0449-0.41797 0-0.08109 0.0858-0.29125 0.12695-0.41601 0.0836-0.12102 0-0.32908 0-0.45509-0.0412-0.12226-0.0412-0.41399 0-0.62109 0.0399-0.20835-0.0811-0.87267 0-1.1621 0.0399-0.29318 0.16587-0.45627 0.25196-0.70704 0.0412-0.24952-0.29406-0.5393-0.33399-0.66406-0.0836-0.12601-0.33173-0.08334-0.45899-0.12696-0.12226-0.03992-0.37118-0.12376-0.53711-0.0801-0.2071 0-0.25398 0.12525-0.37499 0.25001-0.0861 0.08234-0.12302 0.204-0.12302 0.5371 0 0.33436-0.16782 0.28908-0.25391 0.334-0.0798 0-0.24493 0.0388-0.4121 0.12114l-0.16798 0.04292c-0.12351 0.04117-0.45516 0.20867-0.62109 0.2461-0.12227 0.04741-0.16945-0.03705-0.24805-0.28907-0.12226-0.28944 0.28906-0.53906 0.28906-0.53906l0.28906-0.41602 0.29102-0.45507c0-0.04117 0.0843-0.16735 0.16798-0.33204l0.1289-0.24805c0.0798-0.12351 0.32672-0.41626 0.36914-0.54102 0.0387-0.16468 0.24804-0.29101 0.24804-0.29101l0.25001-0.375 0.16796-0.12301c0.0424-0.08359 0.0429-0.29321 0.0429-0.41797 0-0.12476 0.28999-0.2472 0.37109-0.33204 0.12226-0.08359 0.20508-0.08197 0.20508-0.08197 0-0.16344 0.0452-0.24454 0.12501-0.37304 0.1285-0.12476 0.3736-0.2479 0.46093-0.33398 0.0811-0.08234 0.37385-0.32908 0.54102-0.45509 0.12476-0.16593 0.41211-0.04292 0.41211-0.04292l0.33204-0.03905c0.29069-0.12476 0.41991-0.08396 0.41991-0.08396l0.28907 0.29102c0.8309 0.03992 0.78081 0.37339 0.99415 1.0371l0.125 0.16798s0.086 0.20781 0.041 0.33008c-0.0412 0.08359 0.0449 0.12532 0.0449 0.41601 0.0424 0.29069-0.0449 0.20993-0.0449 0.29103l-0.041 0.54101-0.082 0.70704-0.086 0.37304-0.20507 0.29103v0.24609l-0.24805 0.29102-0.20898 0.08396h-0.45705l-0.28905 0.33204-0.084 0.45898v0.49805l0.0429 0.53906 0.20899 0.16602 0.24414-0.08197h0.375l0.125 0.08197v0.91406l-0.0821 0.25001 0.0391 0.70704-0.0391 0.62109-0.0429 0.41601v0.7461l0.21094 0.25001 0.0801 0.25195-0.0801 0.45703 0.12115 0.24609 0.0429 0.50001-0.0429 0.24999 0.084 0.16602v0.16602l0.0801 0.37304v0.58204l0.0449 0.78907 0.0429 0.70508 0.0371 0.58203v0.37304l-0.0801 0.29103-0.25 0.12301-0.45703 0.50196-0.20899 0.37304 0.20899 0.29103 0.37696 0.08396 0.16406 0.24805 0.24608 0.12501 0.16798 0.45898s0.25133 0.288 0.3711 0.6211c0.12725 0.37178 0.33352 0.16602 0.50194 0.16602 0.16594 0 0.37291-0.249 0.459-0.33009l0.12499-0.375-0.0449-0.33398-0.0801-0.41601-0.0429-0.24805-0.20899-0.25001s-0.0402-0.37338-0.125-0.66407c-0.0412-0.29194-0.041-0.41405-0.041-0.41405l0.041-0.33399-0.12301-0.33204v-0.41405l-0.041-0.50001 0.0821-0.54101-0.0821-0.41406-0.12302-0.62501 0.082-0.41406v-0.41406c-0.0437-0.12476-0.12501-0.24999-0.12501-0.24999v-0.53907l-0.16601-0.375c-0.15969-1.164-0.0893-1.772-0.16797-2.8262l0.20704-0.66211 0.0821-0.45703c0.0412-1.1041 0.91539-2.3517 0.75195-3.3673l0.125-0.20703 0.20704-0.24805-0.086-0.37304c0.0486-0.87581 0.072-0.90756-0.2461-1.7871l0.12499-0.25001-0.21093-0.29102-0.20704-0.20703-0.16602-0.41407-0.12301-0.33204-0.16992-0.29297-0.16407-0.20703-0.082-0.29102-0.0429-0.28907-0.16211-0.20704-0.21093-0.29296-0.16602-0.12501-0.25001-0.08197-0.29101-0.20898zm-41.126 1.0391h0.16992c0.20585 0.04242 0.45509 0.04105 0.45509 0.04105s0.37337 0.08259 0.61914 0.12501c0.21085 0.04242 0.33383 0.16639 0.41992 0.20507 0.0412 0.04491 0.24469 0.20907 0.28711 0.375 0 0.12601 0.085 0.25119 0.21094 0.50196 0.12227 0.24702 0.2472 0.32963 0.33204 0.49805 0.0811 0.16593 0.12226 0.66306 0 0.78907-0.16843 0.12102-0.20955 0.20703-0.25197 0.20703l-0.20702 0.20704c0 0.03992 7e-5 0.16804-0.20703 0.28906-0.16468 0.12726-0.49814 0.50095-0.66407 0.62696-0.16468 0.12351-0.25133 0.28766-0.41601 0.33008-0.12351 0.04242-0.37229 0.20977-0.57814 0.33204-0.1285 0.08484-0.20953 0.12485-0.25195 0.16602l-0.45899 0.20899c-0.0848 0.04117-0.16127 0.08346-0.29102 0.04105-0.16717-0.04117-0.57812-0.08396-0.57812-0.08396s-0.49829-0.33187-0.62305-0.37304c-0.12601-0.04117-0.20789-0.20782-0.16797-0.375 0.0412-0.2096 0.16797-0.87399 0.16797-0.95509 0-0.12726 0.0359-0.12578 0.0821-0.24805l-0.0449-0.29102c-0.0374-0.12351-0.0374-0.33102 0-0.45703 0.0462-0.12476 0.1271-0.41307 0.086-0.53908-0.0412-0.12601-0.12364-0.37359-0.16602-0.41601-0.0399-0.08359-0.0399-0.20852 0-0.33204 0.0424-0.08359 0.0785-0.33258 0.20703-0.375 0.16717-0.03992 0.45798-0.08097 0.53907-0.20703 0.0387-0.12351 0.5404-0.12364 0.74999-0.16602 0.20835 0 0.45283-0.125 0.58009-0.125zm117.77 0.74609-0.78711 0.37306-0.49805 0.04491-0.70703 0.20508-0.41797 0.12696-0.45508 0.25001-0.45899 0.08197-0.25 0.24805s-0.57876 0.33352-0.78711 0.45703c-0.2071 0.08109-0.75 0.3711-0.75 0.3711l-0.20314 0.04491s-0.29431 0.20671-0.5039 0.28906c-0.24827 0.12601-0.74414 0.5-0.74414 0.5s-0.41916 0.29072-0.62501 0.37306c-0.24578 0.08234-0.91205 0.54164-1.1192 0.70508-0.25076 0.12726-0.83462 0.54375-1.043 0.66602-0.16344 0.12601-0.62111 0.49805-0.62111 0.49805l-0.33008 0.12301-0.20898 0.29297-0.25195 0.125s-0.16275 0.2507-0.3711 0.20704c-0.16468-0.03743-0.24609-0.33267-0.24609-0.54102 0-0.2071 0.49414-0.53906 0.49414-0.53906s0.41681-0.41375 0.58398-0.4961c0.20711-0.12726 0.33008-0.29297 0.33008-0.29297s0.16696-0.37454 0.24805-0.49805c0.0848-0.12351 0.25196-0.70711 0.25196-0.87304 0.0412-0.20835 0.20899-0.37306 0.20899-0.37306s-0.12843 0.04142 0.12114-0.5c0.2096-0.53771 0.0827-0.53844-0.28907-0.70312-0.37303-0.16593-0.54179 0.45516-0.66406 0.62109-0.12725 0.12351-0.6676 0.66361-0.95704 0.83204-0.24703 0.12476-0.53906 0.24805-0.53906 0.24805s-0.12364 0.37579-0.16602 0.49805c-0.0412 0.12726-0.37205 0.41485-0.54297 0.58203-0.12351 0.12351-0.20508 0.1647-0.20508 0.37304 0 0.2071-0.16517 0.45853-0.25 0.58204-0.0823 0.12601-0.12327 0.12571-0.0821 0.45507 0 0.29194-0.24813 0.58681-0.45897 0.875-0.16344 0.29194-0.0391 0.33337-0.0391 0.49805 0 0.16718-0.084 0.45448-0.084 0.66407 0.0424 0.24827 0.49923 0.49938 0.70508 0.66406 0.20835 0.20585 0.58595 0.24805 0.58595 0.24805l0.45311 0.12696c0.0424-0.2096 1.0008-0.91375 1.1231-0.9961 0.12351-0.04242 0.20757-0.25274 0.24999-0.375 0-0.16593 0.49805-0.45509 0.49805-0.45509l0.33204-0.54297 0.28711-0.33008h0.41797l0.24805-0.33204h0.41797l0.57812-0.37304s0.29267-0.29462 0.41993-0.37696c0.16468-0.08234 0.33202-0.37304 0.33202-0.37304l0.28712-0.04105 0.33203-0.24805 0.41797-0.29297h0.24804l0.25197-0.37499 0.45507-0.20508 0.25196-0.12501c0.12101-0.12476 0.45312-0.16602 0.45312-0.16602l0.33204-0.20703 0.54102-0.33398 0.62305-0.375s0.45673-0.24649 0.58399-0.33008c0.12226-0.08359 0.82681-0.33438 1.0352-0.37306 0.16843-0.04117 0.37719 0.03867 0.45704 0 0.1285-0.08359 0.37695-0.20703 0.37695-0.20703l0.37305-0.08396 1.0391 0.12301h0.78713c0.20958 0 0.29015 0.08434 0.37499 0.16796 0.12226 0.12351 0.58008 0.24805 0.58008 0.24805s0.33297 0.2904 0.41406 0.45509c0.12726 0.12601 0.70884 0.539 0.75001 0.79101 0.0836 0.45537-0.2911 0.33244-0.45703 0.41602-0.16468 0.03992-0.4569 0.49773-0.8711 0.58007-0.16967 0-0.83502 0.3736-1.082 0.41602-0.2071 0.08484-0.70407 0.20814-0.83008 0.29297-0.16718 0.03867-0.2532 0.1647-0.20704 0.37304 0 0.24952 0.41502 0.16406 0.49611 0.16406 0.0836 0 0.33406 0.04117 0.45507 0 0.16968-0.04117 0.41962-0.2486 0.50196-0.29101l0.29102 0.04292 0.20508 0.41406c0.0412 0.12476 0.29492-0.125 0.29492-0.125l0.49609 0.04491s0.084-0.08558 0.29102-0.16798c0.16717-0.04117 1.5367-0.04117 2.0332 0 0.49654 0.04117 0.5442-0.58212 0.49804-0.74805 0-0.12351-0.16415-0.45393-0.33008-0.66602-0.16718-0.20461-0.16719-0.29079-0.37304-0.53906-0.20835-0.2071-0.374-0.58158-0.5-0.75001-0.16593-0.20461-0.37159-0.37102-0.62111-0.57812-0.25201-0.20585-0.33203-0.37306-0.33203-0.37306s-0.37407-0.24993-0.62109-0.45703c-0.2096-0.16718-0.58399-0.16796-0.58399-0.16796l-0.49806-0.33008-0.5-0.25196s-0.70688 0.12727-1.1211 0.04491l-0.83009-0.04491zm21.724 0.375c-0.16344 0-0.33202 0.12501-0.33202 0.12501l-0.12696 0.20898-0.0391 0.33008c0 0.04117 0.084-0.08259 0.084 0.5 0 0.58013-8e-5 0.24759-0.16601 0.3711-0.12476 0.08359-0.16641-0.04042-0.25 0.375-0.0823 0.37428-0.0408 0.24744 0.084 0.45703 0.12476 0.16718 0.24718 0.1671 0.33202 0.20703 0.0823 0 0.32908 0.12626 0.45508 0.16992 0.16843 0.08109 0.25236 0.12276 0.33595 0.20508l0.5 0.08197c0.0811-0.04117 0.16453-0.125 0.36913-0.125 0.25077-0.03992 0.46047-0.415 0.53907-0.4961 0.0399-0.12601 0.12239-0.37469 0.16601-0.45703 0.0412-0.08484 0.0416-0.20837 0.084-0.37306 0.0811-0.20835-5.5e-4 -0.45867-0.0429-0.54101-0.0412-0.12226-0.32822-0.2472-0.53906-0.33204-0.20835-0.12476-0.45641-0.20759-0.57618-0.25001-0.12975-0.08484-0.37774-0.20726-0.5-0.33202-0.0836-0.08109-0.25095-0.08134-0.37696-0.12501zm-6.3145 0.12501c-0.0786 0-0.12076 0.12289-0.45507 0.16406-0.29194 0-0.45728-0.04105-0.58204-0.04105-0.0823 0-0.45469 0.04204-0.41601 0.33399 0.0798 0.28944 0.0449 0.24999 0.0449 0.24999s-0.0823 0.2066 0 0.74805c0.0362 0.20585-0.37695 0.83009-0.37695 0.83009s-0.25148 0.37313-0.33008 0.53906c-0.126 0.20835-0.375 0.78907-0.375 0.78907l-0.25195 0.25195-0.0801 0.37304-0.25195 0.37306s-0.37274 0.20603-0.45509 0.33204c-0.0412 0.16344-7.7e-4 0.37188-0.12301 0.53906-0.16842 0.16468-0.58399 0.83204-0.58399 0.83204s-0.58008 0.66251-0.58008 0.79101c0 0.08109-0.2932 0.41306-0.37304 0.53906-0.0873 0.12102-0.53908 0.53712-0.53908 0.53712s-0.33202 0.25095-0.33202 0.37696c-0.0449 0.08109-0.16718 0.58203 0 0.58203 0.20585 0 0.6629-0.45932 0.83007-0.75001 0.12102-0.29194 0.37205-0.66626 0.49806-0.7461 0.12102-0.12601 0.41625-0.41711 0.49609-0.45703 0.12476-0.04242 0.33008-0.24759 0.33008-0.41601 0-0.20835 0.21313-0.62381 0.29297-0.37306 0.0836 0.20835 0.0825 0.7071 0.33203 0.45509 0.25076-0.20585 0.37314-0.41516 0.53907-0.45509 0.16593-0.08484 0.6675-0.58047 0.79102-0.66406 0.126-0.12476 0.49827-0.33517 0.57812-0.54102 0.12975-0.24952 0.33618-0.53961 0.46094-0.58203 0.16593-0.04117 0.28946-0.24814 0.37305-0.41406 0.0399-0.16718 2.4e-4 -0.20743 0.125-0.29102l0.29297-0.04105c0.0811-0.04242 0.20532-0.12554 0.33008-0.16796 0.12351-0.08359 0.1668-0.08396 0.28907-0.08396 0.1285 0 0.21072 0.08509 0.5039-0.08209 0.2882-0.12351 0.24844-0.08284 0.28711-0.25001 0.0823-0.16468-0.0381-0.08209 0.20899-0.24805 0.24952-0.12601 0.25-0.04217 0.25-0.29297 0.0412-0.24827 0-0.37157 0-0.62109 0-0.24952 0.041-0.2925 0.041-0.41601s1.6e-4 -0.33283-0.041-0.50001c0-0.11977 0.0828-0.20751-0.0469-0.45703-0.12101-0.24578-0.45-0.41445-0.61718-0.49804-0.16718-0.12476-0.082-2.5e-4 -0.33398-0.12501-0.2096-0.07985-0.16611-0.12301-0.33204-0.12301zm-78.818 1.4961c0.0704 5e-3 0.14452 0.12301 0.14452 0.12301l0.0391 0.20703c0 0.12601-0.0397 0.16946-0.0821 0.29297-0.0399 0.12476 0 0.16796 0 0.16796v0.20508s-0.12555 0.12704-0.16797 0.29297v0.03905l-0.20508 0.16798-0.086-0.41602s0.0851-0.4983 0.125-0.66798c0-0.12226 0.0837-0.28874 0.16602-0.37108 0.0203-0.03144 0.0429-0.04279 0.0664-0.04105zm1.3887 0.04105 0.20898 0.04105 0.0781 0.12301s0.20845 0.29446 0.25586 0.41797c0.0799 0.12476 0.16351 0.08184 0.12114 0.33008-0.0811 0.24952 0.0428 0.12759 0.084 0.33594 0.0823 0.2071 0.0414 0.45532 0.125 0.58008 0.0848 0.12351-0.12485 0.24845-0.16602 0.33204-0.0424 0.08359-0.24969 0.33118-0.37695 0.41601-0.0823 0.03992-0.20531 0.12525-0.33007 0.25001l-0.084 0.03905c-0.16468 0.12601-0.33056 0.04329-0.58008-0.03905-0.25077-0.08484-0.20843-0.45813-0.16602-0.49805 0.0437-0.08484 0.12501-0.33548 0.12501-0.45899 0.0412-0.08359 0.0407-0.33172 0.12302-0.45898 0.0387-0.12351 0.12555-0.24758 0.16797-0.3711 0.0374-0.16593 0.0831-0.12664 0.12302-0.20898 0-0.08109 0.0806-0.12438 0.12301-0.54102 0-0.2071 0.0843-0.28906 0.16798-0.28906zm-67.842 0.39258c-0.12215-8.98e-4 -0.21926 0.11952-0.28516 0.18945-0.04117 0.08234-0.1667 0.37368-0.12304 0.58203 0 0.16344-0.04407 0.24853-0.08399 0.49805-0.08234 0.24952 0.03946 0.16486 0.12305 0.33204 0.08484 0.20835-0.08313 0.29055-0.12305 0.41406-0.08234 0.16718-8.61e-4 0.25164 0.03906 0.33398 0.04367 0.08359 0.21047 0.41455 0.33398 0.70898 0.16718 0.2882 0.08414 0.36939 0.04297 0.49415 0 0.16468 0.04157 0.21032 0.08399 0.375 0 0.2096 0.1222 0.4132 0.20704 0.49804 0.08109 0.12476 0.08117 0.20751 0.12109 0.45703 0.04367 0.20835 0.25195 0.29297 0.25195 0.29297 0.08109 0.08109 0.37353 0.16501 0.62305 0.2461 0.20585 0.12601 0.70587 0.04242 0.82813 0 0.12725-0.03992 0.045-0.12414 0.16602-0.16407l0.29296-0.08197 0.25-0.21093 0.0429-0.49611s-0.20938-0.62274-0.29297-0.74999c-0.0412-0.16468-1.5e-4 -0.20493 0.041-0.29102 0-0.08234 0.21047-0.24969 0.33398-0.33204 0.12601-0.12351 0.20827-0.2472 0.16211-0.33204l-0.24414-0.04105c-0.0836 0.04117-0.41945 0.04154-0.54297 0.08396-0.12101 0-0.16282-0.04279-0.20898-0.08396-0.0412-0.04117 0-0.24828 0-0.37304 0-0.12601-0.20743-0.20884-0.2461-0.25001l-0.08398-0.16601-0.12501-0.49805c0-0.12476-0.16679-0.20493-0.28906-0.29102l-0.25001-0.29101-0.33398-0.29103-0.28711-0.20508c-0.08733-0.08484-0.12884-0.25289-0.33594-0.33398-0.03088-0.01522-0.05971-0.02321-0.08789-0.02346zm99.191 0.6289c0.0729-6.3e-5 0.14772 0.0272 0.2207 0.09956 0.2882 0.29069 0.28813 0.4165 0.20704 0.66602-0.0437 0.24827-0.084 0.49798-0.084 0.70508-0.0412 0.16718-0.12239 0.5408-0.16602 0.78907-0.0399 0.24952-9.4e-4 0.62523-0.082 0.70508-0.0399 0.08484 0 0.50274 0 0.62501l-0.16602 0.45703-0.12301 0.62109s-0.25078 0.37459-0.37304-0.08209c-0.0886-0.33311-0.33399-0.58203-0.33399-0.58203l-0.25196-0.16407s-0.16508-0.20834-0.41211 0l-0.0821 0.12501c-0.33436 0.4167-0.21094 0.58321-0.21094 0.78907-0.0399 0.2071 3.1e-4 0.5393-0.082 0.66406-0.0399 0.07985-0.0821 0.20447-0.0821 0.41407-0.0412 0.24827-0.12611 0.53931-0.21095 0.66407-0.12351 0.16718-0.24462 0.45758-0.53906 0.5-0.29194 0-0.53805 0.20943-0.66406 0.04105-0.16593-0.16718-0.16601-0.20462-0.16601-0.37304 0.0387-0.20585 0.0847-0.41516 0.20702-0.5 0.16593-0.12476 0.16642-0.2897 0.25001-0.49805 0.0811-0.20585 0.28907-0.66406 0.28907-0.66406l0.25195-0.53907 0.24805-0.45898 0.29101-0.29101 0.20703-0.66211 0.29297-0.21094 0.0801-0.08197 0.12499-0.37304 0.29102-0.37306 0.41406-0.5s-0.0418-0.24828 0.088-0.37304c0.12226-0.12601 0.0781-0.49805 0.0781-0.49805s0.0449-0.16697 0.0449-0.29297c0.0309-0.0927 0.22493-0.34748 0.44336-0.34766zm62.617 0.22266c-0.0462 0-0.21078 0.04254-0.25195 0.16602-0.0811 0.12601-0.28945 0.21093-0.37304 0.21093-0.12726 0.03992-0.45899 0.20563-0.45899 0.24805l-0.20508 0.29103s-0.0415 0.12301-0.084 0.33008c0 0.20835 0.0432 0.25024 0.16798 0.375 0.12226 0.08234 0.082 0.28946 0.082 0.37304l-0.12696 0.29102-0.039 0.16798c0.0374 0.03992 0.12525 0.20906 0.25001 0.33008 0.0836 0.12726 0.082 0.5 0.082 0.5s0.16391 0.24868 0.20508 0.45703c0.0462 0.2096 1e-3 0.20821-0.12114 0.41406-0.126 0.20585-0.0429 0.29102-0.0429 0.29102l-0.16798 0.20704-0.039 0.41797-0.20703 0.16406s-0.0877 0.16501-0.12891 0.29102c-0.0799 0.12476-0.20508 0.29103-0.20508 0.29103l-0.125 0.33202c-0.3356 0.65125-0.61176 1.5012-0.875 2.2011v0.54102c0 0.16593-1e-3 0.12177-0.041 0.33008-0.0412 0.20835 0.0399 0.41814 0 0.75001 0 0.37178 0.20899 0.70656 0.20899 0.83008 0.0399 0.08234 6.3e-4 0.24923 0.20898 0.45509 0.20835 0.16593 0.3733 0.2936 0.49806 0.50195 0.0861 0.16468 0.0856 0.12214 0.16796 0.20704 0.12476 0.08234 0.20392 0.04105 0.3711 0.04105 0.12725-0.03992 0.25-0.12633 0.25-0.29101 0.0437-0.20835 0.1265-0.16461 0.29492-0.20703 0.20586-0.04367 0.45228 0 0.53712 0 0.12226 0.04242 0.20602 0.08184 0.28711 0.12301 0.0861 0.04242 0.1668 0.08546 0.33398 0.20898l0.25001 0.20703 0.16796 0.03905c0.0811 0 0.41111 0.08396 0.53712 0.08396 0.12725 0 0.29211-0.24665 0.37695-0.28907 0.0387-0.08359 0.49564-0.37399 0.66407-0.5 0.16593-0.16344 0.33352-0.20508 0.45703-0.20508 0.12476 0 0.24876-0.08609 0.57812-0.25195 0.33686-0.16468 0.16993-0.24665 0.16993-0.28907 0-0.04117-0.12696-0.45557-0.12696-0.75001-0.0437-0.29068 9e-5 -0.24502 0.16602-0.57812 0.12725-0.33311 0.0434-0.20908 0.12696-0.74805 0.0374-0.49779-0.1261-0.58103-0.16602-0.70704-0.0412-0.08234 0-0.20976 0-0.33202-0.0412-0.08359-0.0821-0.24938-0.12696-0.41406 0-0.16843-0.0825-0.16845-0.16602-0.41797-0.0811-0.24827-0.33031-0.54016-0.45507-0.58008l-0.25195-0.08396c-0.0799 0-0.12064-0.08509-0.24414-0.125-0.12851 0-0.16767 0.0012-0.29492 0.08396-0.12476 0.08234-0.29252 0.04217-0.41603 0.08209-0.12351 0.08359-0.0843 0.20703-0.12301 0.20703-0.0861 0.04117-0.54118 0.2911-0.87304 0.45703-0.16344 0.08234-0.29265 0.12556-0.33008 0.16798l-0.41797 0.125v0.16602l-0.0821 0.24805v0.20703s-0.16844 0.16752-0.37305 0.33594c-0.25201 0.16468-0.37313 0.20618-0.53906 0.2461-0.16593 0-0.33399 0.0418-0.33399-0.16407-0.0449-0.20835 0.16797-0.45703 0.16797-0.45703s0.16602-0.33321 0.16602-0.53906c0.0399-0.16718 0-0.37695 0-0.37695l0.41407-0.83009s0.0838-0.2911 0.12499-0.45703c0.0811-0.12601 0.24704-0.41485 0.37305-0.53712 0.12725-0.12726 0.37305-0.24999 0.37305-0.24999s0.33352-0.12594 0.45704-0.25195c0.12725-0.12102 0.24844-0.12039 0.33203-0.16407l0.41601-0.45703 0.039-0.37304 0.20899-0.33204s0.0855-0.25314 0.25391-0.45898c0.16219-0.20835 0.1618-0.24969 0.28905-0.33204 0.12601-0.12351 0.12681-0.28899 0.16798-0.4961 0.0774-0.2096 0.039-0.41556 0.039-0.58399 0-0.16593 3e-4 -0.2893-0.12696-0.41406-0.16593-0.08484-0.33203-0.25195-0.33203-0.25195l-0.24609-0.28907c-0.1285-0.04242-0.20776-0.04292-0.58204-0.04292-0.24952 0-0.33172 0.0012-0.45898-0.04105l-0.20508-0.04105c-0.25326-0.03992-0.46063-0.08396-0.49805-0.08396zm-36.351 1.1133c-0.19445 0.01322-0.34208 0.30041-0.37108 0.42579v0.4961c0 0.12476-0.0841 0.20797-0.20508 0.33398-0.0898 0.12726-3e-5 0.2472-0.0898 0.33204-0.0786 0.12601-0.20312 0.12696-0.20312 0.12696s-0.0828 0.3293-0.29492 0.58007c-0.20835 0.29069-0.12264 0.33392-0.66407 0.49611-0.54146 0.12726-0.58227 0.58492-0.66211 0.71093-0.12601 0.12226-0.33352 0.20322-0.45704 0.36915-0.16718 0.2096-0.50289 0.37359-0.58399 0.41601-0.12475 0.04242-0.24608 0.375-0.24608 0.375s-0.33619 0.33174-0.46094 0.45899c-0.12227 0.16468-0.12301 0.28775-0.12301 0.4961 0.0412 0.16718 0.33258-7.86e-4 0.375-0.12301l0.29101-0.125 0.33008 0.03905 0.33204-0.24805 0.375-0.49805 0.62109-0.20703 0.37304-0.04292 0.46095-0.25195h0.16406s0.29446-0.28914 0.41797-0.45507c0.12352-0.12226 0.78775-0.57892 0.9961-0.7461s0.37399-0.41626 0.45508-0.54102c0.0437-0.16468 0.17086-0.61954 0.25196-0.74805 0.0412-0.12102 0.20898-0.45587 0.20898-0.62305 0-0.16468-0.29016-0.45617-0.375-0.4961-0.0848-0.04242-0.42079-0.16634-0.70899-0.45703-0.0724-0.07273-0.14221-0.09819-0.20704-0.09382zm-48.643 0.25782-0.375 0.08396-0.70704 0.04292-0.24609 0.28907-0.12501 0.08396-0.20703 0.12501c-0.0424 0.08234-0.1268 0.12633-0.16797 0.29102 0 0.2096 0.0818 0.20898 0.16797 0.20898l0.20703 0.08209 0.12501 0.08396 0.0801 0.16602c0 0.08359-0.12402 0.16468-0.20508 0.32812l-0.0411 0.08796c-0.0886 0.24702-0.16588 0.45564-0.25197 0.49805l-0.12301 0.12301-0.0801 0.20703c-0.0424 0.08608-0.13109-0.0012-0.21094 0.25195-0.0861 0.20461-0.12993 0.12152-0.37696 0.3711-0.2071 0.2071-0.37133 0.37407-0.49609 0.62109-0.16593 0.29318-0.12389 0.41751-0.084 0.54102 0 0.12476-0.041 0.29156-0.041 0.33398 0 0.04242 0.0851 0.29073 0.125 0.41797 0 0.07985 0.0816 0.28884 0.25 0.53712 0.20586 0.2096 0.49344 0.04117 0.5371 0l0.29688-0.33398 0.28907-0.08197 0.16602-0.24805 0.0411-0.04105 0.20508-0.12696c0.12725-0.08109 0.16601-0.16602 0.16601-0.16602 0.16469-0.6238 0.70704-0.37108 0.70704-0.37108 0.12476 0.03992 0.12339 0.24868 0.1621 0.45703 0.0449 0.2071-0.037 0.41251-0.037 0.4961l-0.084 0.37695c-0.0424 0.12102 0 0.36914 0 0.36914 0 0.29443-0.0817 0.25079-0.16406 0.41797-0.0861 0.16593-0.0449 0.29126-0.0449 0.41602l-0.0801 0.45703c-0.0399 0.08234-0.16798 0.24704-0.16798 0.37304 0 0.16843-0.0391 0.20588-0.084 0.37306-0.0811 0.16718-0.37189 0.12679-0.53906 0.16796h-0.0391c-0.12975 0.04242-0.25063 0.12189-0.45898 0.28907-0.20835 0.2096-0.37768 0.125-0.70704 0.125-0.33311 0-0.20611-0.08122-0.45313-0.16602-0.25201-0.04242-0.1686-0.08197-0.33204-0.08197-0.16717-0.04242-0.16773 0-0.41601 0-0.29443 0-0.24915 0.12339-0.33399 0.20703-0.0823 0.04117-0.2493 0.08334-0.29296 0.24806-0.0424 0.16593 7.8e-4 0.29196 0.16796 0.41797 0.16469 0.16344 0.16492 0.24649 0.125 0.33008 0 0.08608 0.0845 0.29109 0.28907 0.41211 0.126 0.1285 0.33641 0.21094 0.54102 0.21094 0.2071 0 0.41665 0.04267 0.62499 0.125 0.20711 0.04117 0.28711 0.33312 0.28711 0.37304 0.0462 0.04242 0.12327 0.29321 0.29298 0.37306 0.12725 0.12726 0.1686 0.21087 0.33203 0.41797 0.16718 0.2071 0.20424 0.16345 0.33399 0.37304l0.125 0.20704c0.20835 0.4167 0.0377 0.29446 0.0801 0.41797 0.0836 0.12226 0.0835 0.28914 0.0411 0.45507-0.0412 0.12351 0.0423 0.33244 0.086 0.41602 0.0387 0.08359-0.0434 0.04179 0.12499 0.16406 0.11977 0.16718 0.12065 0.24798 0.334 0.5 0.0786 0.08234 0.16352 0.21008 0.49413 0.25001 0.2882 0.04242 0.58563-0.33322 0.62305-0.53906 0.0861-0.25077 0.086-0.29205 0.086-0.58399-0.0462-0.28944-0.0462-0.3715 0-0.45509 0-0.08484 0.0402-0.16735 0.0801-0.33204 0.0399-0.16967-0.0801-0.20852-0.0801-0.37695-0.0462-0.16468 0.11965-0.37438 0.16212-0.53906 0.0449-0.12476 0.12499-0.33266 0.12499-0.4961 0.0437-0.20835 0.0449-0.37556 0.0449-0.41798 0-0.08234 0.0409-0.37462 0.0821-0.66406 0.0399-0.25077-0.12663-0.45907-0.16406-0.58008-0.0424-0.12726-0.0429-0.37539-0.0429-0.45898l-0.16602-0.45509c-0.0399-0.12351 0.0787-0.37438 0.12115-0.53906 0-0.12726 0.12499-0.12696 0.12499-0.12696 0.0437 0 0.16557-0.08222 0.334-0.04105 0.12476 0 0.16445 0.08209 0.24804 0.08209l0.37305 0.12301 0.25195 0.21094s-0.0422 0.20821 0.12501 0.41406c0.12351 0.24952 0.20618 0.41626 0.29101 0.54102 0.0798 0.12351 0.0801 0.16406 0.0801 0.16406l0.086 0.33204c0.0399 0.08359 0.0402 0.24797 0.0801 0.45507 0.0836 0.50153 0.33352 0.5018 0.45703 0.54297 0.126 0.04242 0.37565 0.12666 0.62891 0.209 0.24453 0.08234 0.61915 0.03905 0.61915 0.03905s0.33108-0.28863 0.24999-0.83009c-0.0412-0.24702-0.0413-0.5411 0.0411-0.66211 0.0836-0.16842-0.1279-0.5415-0.20899-0.79101-0.0836-0.20585-0.0835-0.33102-0.20703-0.45703-0.12351-0.12226-0.20907-0.24845-0.375-0.33204-0.16468-0.08234-0.54039-0.24969-0.70508-0.33204-0.12226-0.08234-0.58008-0.29101-0.58008-0.29101-0.2096-0.12476-0.37696 0.04105-0.37696 0.04105s-0.12302 0.04204-0.33008 0.12694c-0.49904 0.12351-0.62181 3.12e-4 -0.99609-0.12694-0.29194-0.08109-0.16547-0.49868-0.12302-0.66211 0-0.12601 0.0371-0.54182 0.0371-0.709 0-0.12102 0.0449-0.45727 0.0449-0.58203 0-0.16468-0.0449-0.45541-0.0449-0.7461 0.0437-0.29069 0-0.74759 0-0.91601 0.0437-0.28944 0.25196-0.24805 0.25196-0.24805l0.0821-0.29103s0.32846-0.20656 0.66406-0.33008c0.29069-0.16344 0.20829-0.2897 0.25195-0.49805 0-0.20834-0.49953-0.4175-0.66796-0.54101-0.20585-0.16468-0.37306-0.08209-0.37306-0.08209s-0.24547 0.04167-0.45507 0.20507c-0.24952 0.16718-0.41406 0.54298-0.41406 0.54298s-0.33602 0.20921-0.45704 0.28906c-0.12725 0.08359-0.29444 0.33212-0.37304 0.49805-0.1285 0.16593-0.33353 0.20711-0.50196 0.37304-0.0836 0.08234-0.16431 0.12289-0.28907 0.20898-0.12975 0.12351-0.25039 0.20603-0.33398 0.33204-0.16344 0.25077-0.45829 0.08134-0.50196-0.12696-0.0374-0.20461 0.12892-0.37304 0.12892-0.37304l0.29101-0.33008 0.28515-0.33204 0.13086-0.29102 0.039-0.08396 0.25001-0.125 0.0821-0.20704 0.20703-0.33008 0.66211-0.08796s0.33478-0.0801 0.50196-0.0801 0.33172-0.249 0.41406-0.375c0.0873-0.12351 0.25195-0.45703 0.25195-0.45703s-0.29313-0.62134-0.58007-0.7461c-0.25326-0.12601-0.375-0.12696-0.375-0.12696zm51.18 0.12696-0.20704 0.20508v0.25195l0.0372 0.41406 0.086 0.20704 0.29101 0.54101c0.0412 0.12601 0.29103 0.33399 0.29103 0.33399l0.166 0.24805 0.16602 0.33202h0.33204c0.12476-0.03992 0.53711-0.08197 0.53711-0.08197l0.20899-0.16796s0.0841-0.29165 0.0429-0.45509c0-0.20835-0.12338-0.33282-0.25195-0.5-0.12476-0.16468-0.0801-0.33312-0.12501-0.37304l-0.28711-0.29102s-0.21047-0.16752-0.33398-0.29103-0.28947-0.16765-0.41797-0.24999zm20.348 1.8105c-0.0304 0.0025-0.0566 0.0075-0.0781 0.01759l-0.0821 0.37306-0.0429 0.29101c-0.0399 0.08234-0.0394 0.37399-0.12301 0.5-0.0861 0.12351-0.29211 0.494-0.33203 0.58008l-0.16993 0.33008-0.20312 0.29492-0.20704 0.4961-0.20898 0.41797-0.16797 0.12301-0.24804 0.28907c-0.0824 0-0.16602 0.12451-0.16602 0.24805 0 0.12601-0.0821 0.16835-0.12696 0.20703l-0.0429 0.29493-0.28907 0.28906-0.33008 0.45703-0.16992 0.25001-0.16212 0.125v0.24805l-0.16796 0.16798-0.0801 0.33204-0.25195 0.24609-0.25195 0.37695-0.0801 0.29103s-0.29264 0.37203-0.33007 0.49804l-0.1289 0.28907-0.28907 0.37695s-0.1689 0.32837-0.25 0.45313c-0.0412 0.16718-0.20563 0.50165-0.24804 0.58399l-0.16993 0.3711-0.12114 0.16602s7e-4 0.29125-0.0429 0.41601c-0.0412 0.16718 0.0429 0.45899 0.0429 0.45899s-0.12562 0.25009 0.0391 0.41602c0.12726 0.20835 0.25345 0.20898 0.37696 0.20898 0.12352 0 0.24618 0.12239 0.41211-0.08596 0.16593-0.2096 0.29235-0.24828 0.45703-0.37304 0.16344-0.12226 0.33229-0.1668 0.50196-0.28907 0.20585-0.16842 0.41407-0.24999 0.41407-0.24999h0.12499l0.20508-0.37306 0.25391-0.16992 0.33204-0.166 0.041-0.16407s0.12494-0.04379 0.33204-0.16602c0.20835-0.12601 0.45626-0.33383 0.66211-0.375 0.20586-0.04242 0.66682-0.33383 0.834-0.375 0.12101-0.08109 0.45447-0.24695 0.70898-0.20703 0.2882 0.08359 0.57478 0.08347 0.66211 0.20703 0.0798 0.12726 0.1643 0.45782 0.24415 0.58008 0.12975 0.12726 0.1289 0.33594 0.1289 0.33594l0.041 0.20508 0.20703 0.08396c0.0424 0.12601 0.20906 0.33312 0.33008 0.37304h0.37696c0.0786-0.08109 0.28859-0.24735 0.41211-0.29102 0.12725 0 0.33634 3.12e-4 0.41992-0.08197 0.12227-0.08359 0.33063-0.49775 0.37305-0.62501 0.0399-0.16344 0.039-0.57906 0.039-0.66015 0-0.08484-0.16516-0.33353-0.20508-0.50196-0.0848-0.16468-0.29102-0.53985-0.29102-0.66211-0.0424-0.12601 3e-4 -0.20758-0.12695-0.24999-0.0811-0.04117-0.16406-0.08297-0.16406-0.20898-0.0437-0.12226 0.12326 0.0012-0.125-0.37306-0.25326-0.33186-0.37594-0.33281-0.45703-0.45507-0.0437-0.1285-0.20689-0.29103-0.29297-0.29103l-0.33204-0.08209-0.49805-0.04292c-0.0424 0-0.12252-0.16602-0.24609-0.16602-0.16843 0-0.37384 0.04005-0.54102-0.04105-0.16468-0.08359-0.33312-0.04367-0.37305 0-0.0449 0.04117-0.084 0.20642-0.084 0.37109 0 0.12351 9e-5 0.374 0.16602 0.50001 0.16718 0.12476 0.16749 0.04342 0.24609 0.29296 0.0449 0.24827 0.0898 0.57814 0.0898 0.57814s-0.0444 0.20688-0.16797 0.24805c-0.1285 0-0.2501 0.08371-0.46094 0.16602-0.16593 0.1285-0.61971 0.21078-0.70703 0.25195l-0.41211 0.24999-0.78907 0.41602-0.50195 0.28711-0.24414 0.04292-0.37696 0.20899c-0.0836 0.04242-0.33156 0.16476-0.45508 0.12114-0.0886-0.03992-0.29313 5.37e-4 -0.25196-0.33008 0.0437-0.33061 0.41798-0.83204 0.41798-0.83204l0.24609-0.49805 0.25001-0.08396 0.12694-0.20508c0-0.08234 0.0817-0.37384 0.20898-0.54102 0.16593-0.2096 0.70533-0.9133 0.83009-1.1641 0.0823-0.2071 0.37259-0.53626 0.4961-0.62109l0.33203-0.41602c0-0.04242 0.0443-0.20921 0.16406-0.28906l0.70704-0.62305v-0.12696l0.25195-0.29101c0.0811-0.08234 0.16749-0.33033 0.24609-0.45509 0.0449-0.12601 0.0898-0.25179 0.25197-0.29296 0.16593-0.08234 0.20867-0.0398 0.29101-0.20704 0.12227-0.16718 0.28946-0.41586 0.37305-0.45703 0.12725-0.03992 0.29125-0.12664 0.37109-0.20898 0.12851-0.03992 0.25265-0.20736 0.20899-0.49805-0.0798-0.24952-0.16602-0.49414-0.16602-0.49414s0.0429-0.08421-0.12301-0.20898c-0.16468-0.12476-0.249-0.16712-0.375-0.25195-0.0798-0.08109 6.1e-4 -0.16407-0.20899-0.16407h-0.37109c-0.12164 0-0.24661-0.02333-0.33789-0.01759zm-120.75 0.01759 0.20703 0.04105c0.21209 0.16468 0.24804 0.2893 0.24804 0.41406-0.0374 0.12351 0.12696 0.33297 0.12696 0.41406 0 0.04491-0.12663 0.04442-0.16406 0.16796-0.0462 0.12476-0.12844 0.25016-0.25195 0.20898l-0.16602-0.04292-0.0821-0.04105c-0.0861 0-0.33205-2.37e-4 -0.37696-0.125-0.0799-0.16842-0.20718-0.16875-0.12114-0.29101 0.0823-0.16718 0.24804 0.0012 0.24804-0.12114l0.041-0.33594 0.20898-0.24805zm22.101 0.49805v0.28907l0.0821 2.4512 0.16406 0.29101-0.0391 0.33008-0.41406 0.29102-0.62305 0.75001-0.33398 0.20704-0.20704 0.16602-0.45703 0.54101s-0.24713 0.41602-0.53907 0.41602c-0.33311 0-0.1289-0.5-0.1289-0.5s0.25274-0.32957 0.41992-0.70509c0.12226-0.33185 0.2086-0.2086 0.45313-0.49804 0.29069-0.25077 0.21241-0.45798 0.29101-0.58399l0.16798-0.16406c0.1285-0.12601 0.33365-0.2511 0.37108-0.33594 0.0424-0.08234 0.2101-0.37172 0.29493-0.53516 0.0798-0.2096-0.12915-0.58268-0.25391-0.79103-0.0798-0.16718-0.041-0.29055-0.041-0.45898 0.0424-0.20461 0.25219-0.16518 0.33203-0.57814 0.0424-0.37678 0.20704-0.54101 0.20704-0.54101l0.2539-0.04105zm-22.767 2.4902c0.0861 0 0.0858 0.04304 0.12696 0.20898 0.0412 0.2071 1.5e-4 0.20728-0.041 0.33204-0.0462 0.12476-0.046 0.12508-0.086 0.29102-0.0374 0.12351 3.2e-4 0.20867-0.037 0.29101-0.0437 0.03868-0.20922 0.24705-0.33398 0.37306l-0.125 0.12696c-0.12351 0.16344-0.33258 0.03955-0.375-0.08396-0.0412-0.12601 0.0429-0.29306 0.0429-0.45899 0-0.12601 0.28906-0.24805 0.28906-0.24805l0.125-0.37695 0.0429-0.08209 0.16602-0.2461 0.12499-0.08396zm100.54 0.85352c-0.11416 0-0.25923 0.01959-0.42578 0.01959-0.29069 0.03992-0.29065 0.12426-0.62501 0.16796-0.37178 0-0.37304 0.20508-0.37304 0.20508s-0.12509 0.12426-0.29102 0.16798c-0.12226 0.04117-0.58017 0.33398-0.7461 0.33398h-0.33203s-0.16431 0.20508-0.33399 0.20508c-0.12351 0.04242-0.45408-3.12e-4 -0.62501 0.08197-0.16343 0.04367-0.24608 0.37695-0.24608 0.37695l0.20702 0.0801s0.16712 0.12563 0.25195 0.33398c0.11977 0.16843 0.28947 0.20619 0.37306 0.29103 0.0798 0.04367 0.37258 0.08297 0.4961 0.16406 0.12476 0.04491 0.1682-0.04005 0.24804-0.12114l0.29298-0.20899c0.12476-0.04367 0.2918-0.04279 0.45898-0.08396 0.16343 0 0.2889 0.12774 0.33007 0.25001 0.0823 0.12476 0.0391 0.45703 0.0391 0.45703s-0.16236 0.37172-0.28712 0.58007c-0.12726 0.2071-0.20882 0.41556-0.24999 0.53908-0.0861 0.16842-0.33322 0.24798-0.58399 0.5-0.24827 0.20835-0.0391 0.41601-0.0391 0.41601l-0.16602 0.33204c-0.0836 0.04117-0.20696 0.37274-0.41406 0.45509-0.20835 0.08608-0.41572 0.62455-0.49806 0.79297-0.0848 0.16344-0.21296 0.08184-0.33398 0.12301-0.16593 0.04117-0.2536 0.12276-0.33594 0.25001-0.0823 0.08234-0.24603 0.03992-0.45313 0-0.24827 0-0.54296 0.04105-0.54296 0.04105s-0.12214 0.20487-0.53516 0.49805c-0.41919 0.24952-0.29384 0.29088-0.25391 0.37696 0.0437 0.08234 0.16408 0.41133 0.25391 0.61719 0.0786 0.2096 0.41314 0.33836 0.70508 0.54297 0.24577 0.21084 1.0372 0.16438 1.2031 0.12696 0.16593-0.08733 0.87548-0.12758 1.0801-0.29102 0.16718-0.12601 0.74901 0.16358 1.2031-0.04105 0.16843-0.08484 0.41845-0.08484 0.62305 0 0.20835 0.04117 0.74815-5.49e-4 0.91408-0.04292 0.2096 0 0.45892 0.12414 0.66602 0.16406 0.20835 0.04117 0.62118-0.07947 0.78711-0.28906 0.0823-0.08359 0.2518-0.66346 0.29297-0.87306 0.0424-0.2096-0.0418-0.53899-0.16407-0.74609-0.0848-0.16593-0.12734-0.33472-0.21093-0.709-0.0387-0.37428-0.54165-0.45507-0.70508-0.45507-0.2071 0-0.24705-0.08658-0.37306-0.04292-0.126 0-0.375 0.29296-0.375 0.29296-0.25201 0-0.66251 0.20508-0.79101 0.20508-0.12227 0-0.24533 0.08359-0.4961 0.25196-0.2071 0.12226-0.50087 0.20624-0.78907 0.03905-0.33061-0.11977 0.33244-0.37346 0.41603-0.45703 0.0836-0.08234 0.53696-0.37454 0.62305-0.49805 0.0786-0.08234 0.24547-0.16626 0.45507-0.29102 0.16593-0.12476 0.29102-0.45703 0.29102-0.45703l0.37305-0.49805c0.0424-0.08608 0.20859-0.33353 0.125-0.50196-0.0836-0.20461-1.6e-4 -0.2872 0.041-0.45313 0.0424-0.12601-0.0811-0.41485 0-0.58203 0.0836-0.12226 0.20899-0.58237 0.20899-0.87306-0.0399-0.24952 0.043-0.24968 0.043-0.33202l0.1621-0.16407s-0.0363-0.29219-0.12114-0.49804c-0.12351-0.25326-0.12414-0.46212-0.20898-0.66798-0.0418-0.08234-0.12414-0.10155-0.23828-0.10155zm35.922 0.5586c0.0798 0.04242 0.33203 0.08271 0.33203 0.29101 0.0449 0.2071 0.24914 0.24845-0.039 0.33204-0.33186 0.08359-0.3789 0.16796-0.3789 0.16796l-0.20703 0.12301s-0.081 0.04105-0.20704 0.04105c-0.12476 0.04367-0.16345 0.08534-0.32813 0.24999l-0.0449 0.08209c-0.12352 0.12726-0.12414 0.16821-0.16408 0.29297 0 0.12351-0.12857 0.25024-0.166 0.375l-0.086 0.33008-0.16796 0.29103c-0.11853 0-0.41376 1.49e-4 -0.4961-0.04105-0.0412 0-0.16478 0.08147-0.21094-0.08197-0.0374-0.20835-0.0374-0.33227 0-0.45703l0.0469-0.24805 0.0821-0.25391v-0.24805c0.0399-0.04242 0.12578-0.20618 0.24805-0.29101 0.0848-0.12351 0.32992-0.20673 0.41601-0.28907 0.0811-0.12726 0.29297-0.20703 0.29297-0.20703l0.20508-0.08596 0.20899-0.12114 0.37109-0.16992c0.0437-0.08234 0.16696-0.08197 0.29296-0.08197zm-87.566 2.5762c0.0786 0.04117 0.28908 0.04179 0.33399 0.20898 0.0399 0.16468 0 0.25133 0 0.41601s0.0388 0.28939-0.086 0.58008l-0.16796 0.41601c-0.0399 0.12476-0.0801 0.41337-0.0801 0.45703-0.0437 0.08359-0.16695 0.24977-0.29296 0.12501l-0.16403-0.12502c-0.0823-0.12726-0.16586-0.20812-0.20703-0.24805-0.0424-0.12601-0.0423-0.16836-0.086-0.25195-0.0399-0.08234-7.7e-4 -0.16321-0.12301-0.24805-0.16718-0.07985-0.28962-0.12414-0.33204-0.20898-0.0873-0.20585-0.0448-0.33267 0.12115-0.54102 0.12975-0.16344 0.2529-0.12089 0.33398-0.20703l0.29297-0.28907 0.12501-0.04292zm-45.195 0.625-0.25196 0.0801c-0.0387 0-0.4143 0.04292-0.53906 0.04292l-0.29103 0.04105-0.12499 0.08396c-1.1453 0.1285-0.51722 0.2947-1.7461 0.49805l-0.24609 0.08596h-0.12695c-0.36181 0.27322-0.8772 0.34928-1.2852 0.58008l-0.334 0.04105-0.45703 0.25001c-0.0412 0.04242-0.082 0.16431-0.082 0.28907v0.20703c-0.0437 0.12476-0.0437 0.20884 0 0.25001 0 0.04367 0.11952 0.08072 0.24805 0.28906 0.0811 0.16967 0.16992 0.08396 0.16992 0.08396l0.24414 0.04491 0.33204 0.33008 0.54297 0.08596 0.37696-0.1289c0-0.03743 0.11815 0.04279 0.24414-0.03718 0.12601-0.12601 0.084-0.25125 0.084-0.29492l0.54103-0.37304 0.33203-0.16602 0.45507-0.20704 0.29103-0.04105 0.20703-0.16602c0.0437-0.03992 0.45986-0.08496 0.79297 0.04105 0.28944 0.12476 0.24595 0.08346 0.33204 0.04105l0.20508-0.45507 0.45898-0.375 0.041-0.20899c0.0362-0.12226 1e-3 -0.28846-0.041-0.49805-0.0399-0.25077-0.37305-0.41406-0.37305-0.41406z" fill="#1B1B1A"/>
	<path d="m258 20.987c-4.2793 0-5.4024 4.9844-5.4024 4.9844l-4.9004 21.476h6.6035l3.2852-12.254h4.7305l-0.74414 2.9922-2.2851 9.2618h7.1895l5.9394-26.379s-13.419-0.08203-14.416-0.08203zm-83.749 0.29102c-2.9069 0-3.7774 3.6543-3.7774 3.6543l-4.1524 18.484c0 3.6567 2.5743 3.8223 2.5743 3.8223h10.717c3.6155 0 4.6524-2.9902 4.6524-2.9902l1.4102-5.8575h-6.9766l-1.041 4.4453c-0.37303 1.3274-1.1172 0.91406-1.1172 0.91406h-2.9492c-1.2913 0-1.043-1.125-1.043-1.125l3.7812-17.113c0.2096-0.70614 0.95507-0.66211 0.95507-0.66211h3.3691c1.2426 0 0.8711 1.0391 0.8711 1.0391l-1.3321 5.9356h6.7735s0.20483-1.1613 1.1231-5.8536c0.87081-4.6935-2.3301-4.6933-2.3301-4.6933h-11.508zm-33.367 0.08008-5.8438 26.213h6.7696l1.8672-8.3086c1.2064 0 1.4981 0.95703 1.4981 0.95703l1.9082 7.1855h6.7344l-2.5782-8.6406c3.6991 0 4.1989-2.3915 4.2363-2.5313 0.0412-0.15221 2.6509-11.539 2.752-12.213 0.0674-0.44914 0.13153-0.92511-0.0469-1.3418-0.16218-0.37678-0.50555-0.65021-0.87109-0.83985-0.65749-0.33935-1.4288-0.47657-2.1661-0.47657-0.51401 0-14.147-0.0039-14.26-0.0039zm-32.058 0.08593c-3.6155 0-4.6933 4.0684-4.6933 4.0684l-5.3554 21.976 6.5997 0.04102 2.9082-11.756h4.8242l-2.9082 11.756h7.0605l5.8985-26.086h-14.334zm19.898 0.04102-5.8164 26.084h6.7715l5.8595-26.084zm65.886 0-5.8126 26.084h6.7247l2.7402-12.172h5.0273l-2.7382 12.172h6.8106l5.8203-26.084h-6.7773l-2.3652 10.594h-5.0254l2.3652-10.594zm24.051 0-5.8144 26.084h6.7735l5.8535-26.084zm12.09 0-5.4434 26.084h6.3145l2.8652-13.705 2.5351 13.705h6.3145l5.4414-26.084h-6.3145l-3.0352 14.581-2.3672-14.581h-6.3106zm29.367 3.3633h4.7344l-1.7031 7.1465h-4.8145zm-113.2 0.20898h4.9472l-1.9082 10.219h-5.0254l1.9863-10.219zm-36.34 0.28907h4.9004l-1.7852 7.1485h-4.8184z" fill="#1B1B1A"/>
	<path d="m88.025 10.001c-10.324 7.2623-16.024 6.4995-24.469 7.127-10.183 0.76478-27.702 10.112-27.702 32.637v15.258c0 1.8415-1.4592 3.1973-3.1622 3.1973-1.9126 0-3.164-1.6341-3.164-3.1973v-21.758c0-2.5738-2.3264-4.0684-3.8223-4.0684 0.34808-2.363 2.9902-1.9786 2.9902-1.9786s3.2626 0.90365 5.3848-0.24414c3.7515-2.086 2.8145-6.0489 2.8145-6.0489-0.48656 1.1116-1.5625 2.5043-3.9629 3.3028-1.8415 0.38301-2.0844 0.06836-3.5079 0.06836-3.6492 0-5.0742 3.2324-5.0742 4.9004h-9.3496v0.66211h2.8476c2.1583 0 3.5117 1.7037 3.5117 3.5801v22.834c0 6.258 4.9022 11.817 11.889 11.817 7.2298 0 11.957-5.9428 11.957-11.817v-13.449c0-7.6128 0.62263-13.383 6.6349-19.637 7.5767-7.8923 15.64-6.9534 18.321-7.5098 14.628-3.0242 17.863-15.676 17.863-15.676zm-4.0644 11.191s-4.1696 5.9069-13.521 7.0547c-3.6492 0.45163-8.9301 0.14046-14.633 4.6231-8.1693 6.5012-7.8887 15.573-7.8887 15.573v18.108s-0.21022 8.0998-6.9161 11.992c-10.118 5.8749-17.795-1.9102-17.795-1.9102 6.0109 10.808 17.723 11.572 24.953 6.7773 7.0227-4.6947 7.9259-11.333 7.9259-15.086v-17.935c0-14.875 12.857-13.624 15.259-14.25 11.71-3.0953 12.718-13.936 12.616-14.945zm-14.703 22.246c-6.883 0-10.709 6.0455-10.709 10.633v15.711c0 13.313-13.1 21.341-24.535 18.143 15.224 6.8468 31.491-4.2043 31.491-19.151v-13.974c0-1.0392 0.76504-3.1602 3.0918-3.1602 2.7834 0 3.129 2.5031 3.129 2.7813 0.21209 1.3549-0.41526 2.4336-1.5605 2.4336-1.1865 0-1.7731-1.0798-1.4961-2.1914-1.2526 3.3012 1.2869 7.336 5.248 7.336 4.9692 0 6.0117-5.2866 6.0117-7.9277 0-4.1358-3.4376-10.633-10.67-10.633z" fill="#D51B1B"/>
</svg>
