<svg version="1.1" viewBox="0 0 100 100" xmlns="http://www.w3.org/2000/svg">
	<circle cx="50" cy="50" r="50" fill="#d51b1b"/>
	<path d="m88.024 10c-10.324 7.2623-16.025 6.4999-24.47 7.1275-10.183 0.76478-27.701 10.11-27.701 32.635v15.259c0 1.8415-1.4599 3.197-3.1629 3.197-1.9126 0-3.1629-1.6337-3.1629-3.197v-21.758c0-2.5738-2.3274-4.0694-3.8232-4.0694 0.34808-2.363 2.9923-1.9786 2.9923-1.9786s3.2606 0.90413 5.3828-0.24367c3.7516-2.086 2.8144-6.048 2.8144-6.048-0.48657 1.1116-1.5617 2.5033-3.9621 3.3018-1.8415 0.38302-2.0854 0.06823-3.5089 0.06823-3.6493 0-5.0733 3.2322-5.0733 4.9003h-9.3498v0.66279h2.8485c2.1584 0 3.5113 1.7032 3.5113 3.5796v22.835c0 6.258 4.8998 11.816 11.886 11.816 7.2299 0 11.957-5.942 11.957-11.816v-13.448c0-7.6129 0.62545-13.383 6.6377-19.638 7.5767-7.8924 15.638-6.9536 18.319-7.51 14.628-3.0242 17.864-15.676 17.864-15.676zm-4.0645 11.19s-4.1694 5.909-13.521 7.0568c-3.6493 0.45164-8.9322 0.13984-14.635 4.6225-8.1694 6.5013-7.8877 15.573-7.8877 15.573v18.107s-0.20957 8.1011-6.9155 11.994c-10.118 5.875-17.796-1.9128-17.796-1.9128 6.011 10.808 17.725 11.574 24.955 6.779 7.0228-4.6948 7.9243-11.333 7.9243-15.086v-17.937c0-14.875 12.858-13.624 15.261-14.25 11.71-3.0953 12.717-13.938 12.615-14.947zm-14.703 22.247c-6.8831 0-10.709 6.0465-10.709 10.634v15.71c0 13.313-13.1 21.343-24.536 18.144 15.225 6.8469 31.49-4.204 31.49-19.15v-13.975c0-1.0393 0.76543-3.1604 3.0922-3.1604 2.7834 0 3.1288 2.5021 3.1288 2.7803 0.21209 1.3549-0.41421 2.4343-1.5595 2.4343-1.1865 0-1.7731-1.079-1.4962-2.1906-1.2526 3.3012 1.2851 7.3346 5.2463 7.3346 4.9692 0 6.0139-5.2855 6.0139-7.9267 0-4.1358-3.4381-10.634-10.67-10.634z" fill="#fff"/>
</svg>
