<svg version="1.1" viewBox="0 0 100 100" xmlns="http://www.w3.org/2000/svg">
	<rect width="100" height="100" fill="#fff"/>
	<path d="m52.619 44.837c1.4097-0.96986 1.1898-0.21 0.21487 0.43993-4.7841 3.5844-8.8083 7.0739-13.387 11.643-8.9133 9.0236-9.2382 20.017 8.8183 20.997 1.3447 0.07014 1.5847 0.0038 0.64987-0.54494-10.123-5.4441-1.7397-17.082 5.219-24.036 15.342-0.33 30.679 0 46.031 0.75486 36.773 1.8347 84.529 6.7339 120.97 15.008 2.2845 0.54992 3.6093 0.74988 3.8143 0.65488 0.03-0.015 0.0499-0.03 0.0499-0.04987 0 0-0.0402-0.04501-0.0552-0.05512-0.22499-0.10987-1.1898-0.65488-3.2593-1.4198-27.74-10.553-85.738-20.232-126.96-23.051-11.093-0.7699-21.436-1.4198-32.754-1.4198 7.8285-7.6138 16.747-14.903 25.345-21.547 0.21488-0.16988 0.0038-0.23512-0.43492 0-12.843 6.7439-32.524 16.322-45.696 22.196-27.52 1.6348-48.845 4.2493-66.567 8.0587-8.7083 1.8447-16.652 3.9044-23.95 6.404-16.642 5.4441-24.495 10.908-25.56 15.348-0.21 0.88987-0.0601 1.3548 0 1.6297 1.1148 4.5543 11.098 7.1839 27.745 5.8741 7.1736-0.6499 14.462-1.6348 21.766-3.1545 13.157-2.6096 26.315-6.639 39.482-12.073 11.643-5.0092 24.26-12.068 38.517-21.657zm-113.91 31.885c-11.428 0.86988-12.843-2.8345-0.76486-7.1839 11.423-4.1343 23.17-7.1839 36.673-9.4735v0.0038c12.932-2.2796 27.625-3.9144 45.036-5.1042-17.957 7.5088-32.199 12.618-45.036 15.992v-0.0038c-12.528 3.2645-23.725 4.8942-35.908 5.7691z" fill="#00543d"/>
</svg>
