<svg version="1.1" viewBox="0 0 100 100" xmlns="http://www.w3.org/2000/svg">
	<rect width="100" height="100" fill="#fff"/>
	<path d="m67.051 21.443-57.117 57.109h57.117l22.883-57.109z" fill="#008aca"/>
	<path d="m59.32 37.047c-1.4425 0-2.6094 1.1666-2.6094 2.6172-1e-6 1.0463 0.60825 1.9396 1.4961 2.3633v0.79688c-0.92339 0.30565-1.7406 0.98805-2.1465 1.8613-0.2167-0.10026-0.44804-0.18471-0.66797-0.25586v-0.98242c0.88941-0.41722 1.5-1.327 1.5-2.3652 0-1.4441-1.1741-2.6211-2.623-2.6211-1.4425 0-2.6211 1.177-2.6211 2.6211 0 1.0253 0.61595 1.9223 1.4844 2.3477v0.74219c-0.7585 0.059846-1.7822 0.42288-2.3887 0.72852-0.26035-0.0194-0.60739-0.042969-0.95508-0.042969-3.3136 0-5.625 2.1803-5.625 5.1914 1e-6 1.8548 1.656 3.5508 3.5352 3.5508 1.8629 0 3.5836-1.9106 3.2246-3.6895 0 0 0.19141 0.63849 0.19141 1.418v9.4355c0.080661 1.0771 1.5311 7.0195 8.2051 7.0195 6.6709 0 8.1148-5.9425 8.1973-7.0195v-9.4355c0-0.7795 0.18945-1.418 0.18945-1.418-0.33799 1.85 1.3604 3.6895 3.2363 3.6895 1.8645 0 3.5273-1.6959 3.5273-3.5508 0-3.0111-2.3182-5.1914-5.6172-5.1914-0.35898 0-0.70745 0.023559-0.97266 0.042969-0.59675-0.30565-1.5726-0.64443-2.3828-0.72852v-0.73438c0.88294-0.41722 1.4902-1.3172 1.4902-2.3555 0-1.4441-1.1702-2.6211-2.6191-2.6211-1.4409 0-2.6133 1.177-2.6133 2.6211 0 1.0252 0.61375 1.9211 1.4902 2.3496v0.99805c-0.21993 0.071152-0.46683 0.1556-0.67383 0.25586-0.4043-0.87328-1.2101-1.5605-2.127-1.8613v-0.79688c0.88784-0.42372 1.4941-1.317 1.4941-2.3633 0-1.4506-1.1702-2.6172-2.6191-2.6172z" fill="#fff"/>
	<path d="m59.321 37.825c-1.014 0-1.8334 0.8201-1.8334 1.8389 0 0.86842 0.60377 1.5967 1.4221 1.786v1.9881c-0.96707 0.13099-1.7787 0.81446-2.1442 1.6214 1.1595 0.75357 2.101 1.8957 2.5457 3.3139 0.4528-1.4183 1.3918-2.5603 2.5513-3.3139-0.29917-0.80696-1.173-1.4904-2.1498-1.6214l0.0098-1.9825c0.82474-0.18274 1.4415-0.91825 1.4415-1.7915 0-1.0188-0.82752-1.8389-1.8431-1.8389zm5.0483 1.4178c-1.014 0-1.8306 0.81846-1.8306 1.8389 0 0.86357 0.61068 1.5944 1.4193 1.7803v2.1177c-2.5001 0.49646-4.269 3.1456-4.269 5.5697v6.7617c1.1773 0.65171 2.3104 2.0279 2.6824 3.1745 0.09218-0.10673 0.17461-0.20958 0.31368-0.32762v-8.7428c0-2.5874 1.4065-5.2761 3.9357-6.1413 0 0-0.82916-0.3443-1.8528-0.3346v-2.0661c0.81988-0.17627 1.443-0.92796 1.443-1.7915 1e-6 -1.0204-0.82124-1.8389-1.8417-1.8389zm-10.099 0.0028c-1.022 0-1.8319 0.81732-1.8319 1.8361 0 0.86514 0.60951 1.596 1.4165 1.7803v2.0787c-1.0155-0.01132-1.8389 0.3346-1.8389 0.3346 2.526 0.86357 3.9315 3.5023 3.9315 6.1399v8.7428c0.1326 0.11805 0.21482 0.22252 0.31508 0.32762 0.36871-1.1466 1.497-2.5216 2.6824-3.1718v-6.7645c0-2.4241-1.7776-5.0718-4.2745-5.5683v-2.1192c0.8231-0.18436 1.4388-0.91518 1.4388-1.7803 0-1.0188-0.82331-1.8361-1.8389-1.8361zm-3.9943 6.3825c-3.4154 0-5.0876 1.984-5.065 4.4195 0.06145 1.4894 1.1273 2.4983 2.4969 2.4983 1.3714 1e-6 2.5095-1.1318 2.5095-2.4983 0-0.74229-0.29609-1.2987-0.78769-1.7483 0.86842 0 2.7172 0.752 2.7172 3.3265v6.7213c0.74386 0.01132 2.1095 0.60136 3.0895 1.245v-7.2095c1e-6 -4.8611-2.6996-6.7547-4.9604-6.7547zm18.089 0c-2.264 0-4.9674 1.8935-4.9674 6.7547v7.2095c0.9832-0.64363 2.3464-1.2337 3.0839-1.245v-6.7213c0-2.5745 1.8586-3.3265 2.7172-3.3265-0.48676 0.44957-0.78212 1.006-0.78212 1.7483 0 1.3665 1.1351 2.4983 2.5081 2.4983 1.3762 0 2.442-1.009 2.5067-2.4983 0.01456-2.4355-1.659-4.4195-5.0664-4.4195zm-9.044 12.303c-1.3455 0.90883-2.3879 2.3123-2.7744 3.9552-1.0624-1.4069-2.6496-2.3457-4.4139-2.7855v1.6159c0.17142 1.2225 1.4636 6.0172 7.1881 6.0172 5.7183 0 7.0037-4.7947 7.1802-6.0172v-1.6159c-1.7708 0.43987-3.3515 1.3786-4.4237 2.7855-0.38003-1.6431-1.4188-3.0464-2.7562-3.9552z" fill="#e30421"/>
</svg>
