<svg version="1.1" viewBox="0 0 324.02 100" xmlns="http://www.w3.org/2000/svg">
	<path d="m173.04 59.359c-3.4684 0-6.2815 2.8347-6.2815 6.3581 0 3.5137 2.813 6.3594 6.2815 6.3594 3.4749 0 6.2855-2.8457 6.2855-6.3594 0-3.5234-2.8106-6.3581-6.2855-6.3581zm-10.518 0.03347c-4.4114 0.12596-4.4777 4.55-2.4953 5.8911 0.94755 0.63869 2.5509 1.6897 3.4419 2.2945 2.1959 1.4472-0.30142 5.2075-4.5249 2.381v1.6561c6.7848 2.3478 8.7894-3.2409 5.7349-5.5774-1.1869-0.90389-2.06-1.482-3.1337-2.158-2.2233-1.4116-1.0667-4.6216 3.8893-2.5762v-1.493c-1.1296-0.31833-2.0951-0.44152-2.912-0.4182zm146.92 0.0049c-4.4069 0.12014-4.4764 4.5444-2.5036 5.8855 0.95725 0.63869 2.564 1.6886 3.4501 2.3014 2.191 1.4278-0.2972 5.2007-4.5207 2.3629v1.6645c6.7881 2.3576 8.7918-3.2511 5.7196-5.5747-1.1836-0.91036-2.0553-1.483-3.1225-2.1621-2.2363-1.4132-1.0824-4.6158 3.906-2.572l-0.0194-1.4832c-1.128-0.31985-2.0932-0.44462-2.9093-0.42239zm-197.32 0.01132c-8.8546 0-8.3332 12.726-0.0446 12.726 1.6186 0 3.0226-0.2933 4.051-0.59244v-1.433c-1.1108 0.54492-1.946 0.88659-3.1588 0.88659-6.9498 0-6.3715-10.482-0.72349-10.482 2.2314 0 3.1725 0.39034 3.8824 0.63288v-1.341c-1.0478-0.21021-2.184-0.39729-4.0064-0.39729zm138.23 0.05433-3.7624 12.515h1.486l1.1083-3.8335h3.7066l1.0582 3.8335h2.1663l-3.8072-12.515zm-103.48 0.0097-3.7499 12.499 1.4762 0.0049 1.1236-3.8321h3.7108l1.0441 3.8321 2.1635-0.0049-3.807-12.499h-1.9614zm33.62 0.01132v8.1578c0 2.2039 1.8826 4.3702 4.6477 4.3702 3.3439 0 4.6769-2.5652 4.6769-4.394v-8.1341h-1.1292v8.2568c0 1.8045-1.5689 3.0975-3 3.0975-1.6606 0-3.347-1.1773-3.347-3.0724v-8.2818h-1.8485zm20.288 0.05579v12.46h1.8485v-5.8701h5.8842v5.8701h1.8387v-12.46h-1.8387v5.4018h-5.8842v-5.4018zm-83.366 0.0014v12.433h1.8429v-5.8632h5.8785v5.8632h1.8498v-12.433h-1.8498v5.4018h-5.8785v-5.4018zm140.38 0.0049v12.433h1.8471v-12.433zm23.43 0v12.433h1.861v-12.433zm-152.29 0.01666v12.409h1.8513v-12.41zm132.4 0.0097v12.405h1.8597v-5.9539h1.6422l3.0695 5.9539h1.9864l-3.1504-6.1419c1.368-0.38322 2.6402-0.865 2.6402-3.1547 0-2.3478-2.0243-3.1086-3.7318-3.1086zm-39.943 0.0081v12.397h1.8555v-5.9636h1.6351l3.0836 5.9636h1.981l-3.1518-6.1392c1.3696-0.37029 2.636-0.86684 2.636-3.1533 0-2.3495-2.0283-3.1044-3.7359-3.1044zm63.385 0.0014v12.396h1.1878v-8.6958l7.9123 8.6958h0.46423v-12.396h-1.1125v8.7865l-7.9681-8.7865zm-152 0.0032v12.39h1.1905v-8.6903l7.8984 8.6903h0.47117v-12.39h-1.118v8.7892l-7.9612-8.7892h-0.48094zm98.097 0.0097v12.405h1.1738v-8.6916l7.9431 8.6916h0.46148v-12.405h-1.118v8.7976l-7.9808-8.7976zm-18.93 0.01811v12.279h7.957v-1.1751h-6.1141v-4.7605h6.1198v-1.1168h-6.1198v-4.0816h6.1141v-1.1445h-7.957zm59.629 0v12.279h7.9738v-1.1751h-6.1183v-11.103h-1.8624zm24.452 0v12.279h7.9639v-1.1751h-6.1072v-4.7521h6.1183v-1.1349h-6.1183v-4.0788h6.1072v-1.1375h-7.9639zm-105.38 0.06694v1.1305h3.7611v11.167h1.8527v-11.168h3.7359v-1.1305zm-17.606 0.77218c2.377 0 4.3144 2.3681 4.3144 5.2722 0 2.8976-1.9375 5.261-4.3144 5.261-2.3834 0-4.3102-2.3634-4.3102-5.261 0-2.9041 1.9268-5.2722 4.3102-5.2722zm90.146 0.29693h2.0227c1.1723 0 2.1161 0.93856 2.1161 2.1286 0 1.1707-0.94383 2.1176-2.1161 2.1176l-2.0227-0.01455v-4.2323zm-39.947 0.0014h2.0254c1.1578 0 2.1119 0.94685 2.1119 2.1273 0 1.1658-0.95418 2.1245-2.1119 2.1245l-2.0254-0.0065v-4.2447zm27.776 0.9047 1.5626 5.3376h-3.1225zm-103.46 0.0014 1.5599 5.3349h-3.1295l1.5697-5.3349z" fill="#00234E"/>
	<path d="m115.83 25.51v5.5008h-10.154v13.954h3.269v-1.4358h6.8725v9.3257h3.3624v-9.3257h7.2116v1.3118h3.3791v-13.83h-10.625l8e-3 -5.4994-3.3233-0.0014zm73.594 0.07249 7e-3 3.269h-11.809v2.7783h11.809l-0.0265 2.1314h-9.517v18.786h3.0989v-16.223l4.8847 0.01394-2.2932 1.0093c0.61446 0.78426 1.2903 1.8686 1.7899 2.6626h-2.8772v2.3573h5.0421v2.0548h-5.8674v2.5636h5.8674v4.8163h2.9567v-4.8163h5.88v-2.5636h-5.88v-2.0548h5.3725v-2.3573h-3.0445c0.51905-0.56595 1.7404-2.0345 2.0994-2.5051l-2.3266-1.1668 4.5919-0.01394v11.622c-0.0323 1.1189-0.46221 1.4707-1.9224 1.4707h-1.2602c0.63871 1.2548 1.1179 2.1192 1.4623 3.2494 2.2832-0.3137 3.1791-0.66513 3.7904-1.0985 0.66458-0.46569 1.0734-0.86098 1.0734-2.6543l-0.0153-15.153h-9.567l-0.0265-2.1314h11.697v-2.7783h-11.702v-3.2592l-3.2871-0.0098zm36.598 0.0098-0.0167 4.7787h-11.239v2.9316h6.938c-0.0792 8.3193-0.0249 13.483-7.3351 16.759 1.0575 0.87476 1.7858 1.6965 2.5538 2.6166 3.3359-2.2557 7.0382-4.3036 7.7269-13.168h9.4949c6e-3 3.331-0.25741 6.0003-0.41264 7.6349-0.16978 1.7754-1.8326 1.5128-5.0213 1.6826 0.65649 1.1788 1.1798 2.2967 1.4191 3.545 2.6567-0.43659 4.8399-0.63091 5.65-1.2922 0.92979-0.76484 1.2239-2.0305 1.3856-4.7439 0.17949-2.9882 0.38638-6.6504 0.54646-9.8182h-12.821l0.0892-3.2537h15.866v-2.9177l-11.386-0.01533-0.0167-4.7313-3.421-0.0084zm42.611 0.01951v4.5306h-4.7787v2.77h13.253v-2.77h-5.2192v-4.5306h-3.2551zm30.752 0.13383-0.0209 3.039h-9.6776v6.3247l3.2076-0.03485v-3.5408l16.847-0.01394v3.485h3.2592v-6.2299l-10.191 0.0028 1e-3 -3.0223-3.4251-0.0098zm-42.143 0.08364c-0.12128 0.91037-0.29934 2.4563-0.59525 3.8308h-3.2927v8.1887h-2.1147v2.763h2.119v0.80574c-0.0857 3.8743-0.744 6.9208-2.2025 8.9874 0.73901 0.58212 1.6701 1.457 2.4786 2.2541 1.6477-2.5079 2.3952-5.1924 2.3629-12.069h4.4427v7.3565c-0.0161 0.89581-0.49473 0.93157-3.0738 0.87826 0.55786 0.99281 0.83165 1.898 1.0079 3.1059 3.614-0.36059 4.7689-1.2038 4.7689-2.5329l-0.0167-19.736h-3.7081c0.2199-0.9168 0.61778-2.5959 0.8183-3.2313-0.59182-0.15038-2.6984-0.53475-2.9944-0.59943zm-114.85 0.99952v25.618h3.1505v-2.2262h17.522v2.1635h3.1881v-25.555h-23.86zm3.1505 2.6445h17.522v18.183h-17.522zm1.7286 1.9558v2.3894h5.4826v2.9581h-4.8637v2.4019h4.8637v4.1277h-5.9957v2.5301h15.061v-2.5343l-6.1128 0.0042v-4.1179l2.894 0.01812-1.9293 1.1961c0.75999 0.7794 1.6708 1.972 2.2416 2.7141l1.96-1.2853c-0.61607-0.8764-1.6168-2.1124-2.0436-2.6249l1.7969 0.01115v-2.4409h-4.9195v-2.9581h5.8214v-2.3894h-14.257zm108.73 0.64543h4.4427v5.7908h-4.4427zm2.9901 0.80852-2.4061 0.39311c0.38161 1.5458 0.62291 2.8493 0.78626 3.881l2.3448-0.54506c-0.11965-0.84571-0.55671-2.83-0.72487-3.729zm38.238 0.26208c-2.1684 2.1684-6.4279 4.2834-8.7726 5.2164 0.6662 0.84892 1.4638 1.9741 1.9182 2.7211 2.7844-1.3276 7.7726-4.4114 9.0181-5.6597l-2.1635-2.2778zm7.7519 0.1631-1.6854 2.434c2.1182 1.1432 6.2094 3.2559 8.6027 5.0394 0.83601-1.0268 2.1314-2.6236 2.1314-2.6236-2.0616-1.3728-5.8163-3.131-9.0488-4.8498zm-196.03 0.56318h6.8823v6.8976h-6.8823zm10.189 0h7.2573v6.8976h-7.2573zm146.85 1.5362v5.8744c0 4.4759-1.1368 7.9589-3.3456 9.6762 0.96854 0.45599 1.8923 1.1022 2.7072 1.631 2.0147-2.1296 3.5575-5.2292 3.4669-13.69v-0.79874h2.5106l-0.19656 11.027c-0.0501 1.9841 0.26162 2.6884 2.1858 2.7337h2.4618c0.92329-0.04527 1.5178-1.3223 2.2374-4.097-0.83601-0.39132-1.8288-1.0184-2.4772-1.5487-0.22961 1.2063-0.40761 2.3956-0.66634 2.6333-0.19565 0.17464-0.37678 0.1181-0.52554 0.09061-0.2377-0.02749-0.25734-0.16218-0.24117-0.60361-0.0162-3.0011 0.26207-12.928 0.26207-12.928h-8.3793zm-77.926 0.95348 6.1184 0.01255c-0.96855 1.4844-1.4976 2.4857-2.4144 3.637l-2.6389 0.01116 1.1877-0.56737c-0.50127-0.86348-1.7531-2.5129-2.2527-3.0933zm104.08 4.5682v2.8507h7.0663v4.7815h-10.345v2.9219h24.688v-2.9219h-10.658v-4.7815h7.4136l-0.0181-2.8507zm-33.217 0.43076-2.4966 0.32062c0.33794 1.4731 0.59363 3.6925 0.75699 4.7257l2.5036-0.62313c-0.12612-1.182-0.58768-3.5307-0.76391-4.4233z" fill="#00234E"/>
	<path d="m67.117 21.444-57.117 57.111h57.117l22.883-57.111z" fill="#008aca"/>
	<path d="m63.247 43.432c-0.87649-0.42854-1.491-1.3245-1.491-2.3497 0-1.4441 1.1724-2.6214 2.6133-2.6214 1.449 0 2.6182 1.1773 2.6182 2.6214 0 1.0382-0.60643 1.939-1.4894 2.3562v0.73416c0.81018 0.0841 1.7853 0.42208 2.3821 0.72773 0.26521-0.01941 0.61452-0.04204 0.9735-0.04204 3.299 0 5.6164 2.1799 5.6164 5.1911 0 1.8549-1.6625 3.5496-3.527 3.5496-1.8759 0-3.5739-1.8387-3.2359-3.6887 0 0-0.18921 0.63878-0.18921 1.4183v9.4359c-0.08248 1.077-1.5266 7.0185-8.1974 7.0185-6.674 0-8.1246-5.9414-8.2053-7.0185v-9.4359c0-0.77948-0.19082-1.4183-0.19082-1.4183 0.35901 1.7789-1.3617 3.6887-3.2246 3.6887-1.8791 0-3.5351-1.6948-3.5351-3.5496 0-3.0111 2.3109-5.1911 5.6245-5.1911 0.34769 0 0.69537 0.02264 0.95572 0.04204 0.60643-0.30564 1.6301-0.66789 2.3886-0.72773v-0.74386c-0.86842-0.42531-1.4845-1.3212-1.4845-2.3465 0-1.4441 1.1789-2.6214 2.6214-2.6214 1.449 0 2.6214 1.1773 2.6214 2.6214 0 1.0382-0.60967 1.9471-1.4991 2.3643v0.98321c0.21993 0.07116 0.45119 0.15525 0.66788 0.25551 0.4059-0.87328 1.2225-1.5557 2.1459-1.8613v-0.79562c-0.88784-0.4237-1.4959-1.318-1.4959-2.3643 0-1.4506 1.1676-2.6166 2.6101-2.6166 1.449 0 2.6182 1.1659 2.6182 2.6166 0 1.0463-0.60481 1.9406-1.4927 2.3643v0.79562c0.91689 0.30079 1.7223 0.98806 2.1266 1.8613 0.207-0.10026 0.45442-0.18436 0.67435-0.25551z" fill="#FFFFFF"/>
	<path d="m59.321 37.825c-1.014 0-1.8334 0.8201-1.8334 1.8389 0 0.86843 0.60377 1.5967 1.4221 1.786v1.9881c-0.96707 0.13099-1.7787 0.81446-2.1442 1.6214 1.1595 0.75357 2.101 1.8957 2.5457 3.3139 0.4528-1.4183 1.3918-2.5603 2.5513-3.3139-0.29917-0.80697-1.173-1.4904-2.1498-1.6214l0.0098-1.9825c0.82474-0.18274 1.4415-0.91825 1.4415-1.7915 0-1.0188-0.82752-1.8389-1.8431-1.8389zm5.0483 1.4178c-1.014 0-1.8306 0.81846-1.8306 1.8389 0 0.86357 0.61068 1.5944 1.4193 1.7803v2.1177c-2.5001 0.49646-4.269 3.1456-4.269 5.5697v6.7617c1.1773 0.65171 2.3104 2.0279 2.6824 3.1745 0.09218-0.10673 0.17461-0.20958 0.31368-0.32763v-8.7428c0-2.5874 1.4065-5.2761 3.9357-6.1413 0 0-0.82916-0.3443-1.8528-0.3346v-2.0661c0.81988-0.17627 1.443-0.92796 1.443-1.7915 1e-6 -1.0204-0.82124-1.8389-1.8417-1.8389zm-10.099 0.0028c-1.022 0-1.8319 0.81732-1.8319 1.8361 0 0.86514 0.60951 1.596 1.4165 1.7803v2.0787c-1.0155-0.01132-1.8389 0.3346-1.8389 0.3346 2.526 0.86357 3.9315 3.5023 3.9315 6.1399v8.7428c0.1326 0.11805 0.21482 0.22252 0.31508 0.32763 0.36871-1.1466 1.497-2.5216 2.6824-3.1718v-6.7645c0-2.4241-1.7776-5.0719-4.2745-5.5683v-2.1192c0.8231-0.18436 1.4388-0.91518 1.4388-1.7803 0-1.0188-0.82331-1.8361-1.8389-1.8361zm-3.9943 6.3825c-3.4154 0-5.0876 1.984-5.065 4.4195 0.06146 1.4894 1.1273 2.4983 2.4969 2.4983 1.3714 1e-6 2.5095-1.1318 2.5095-2.4983 0-0.74229-0.29609-1.2987-0.78769-1.7483 0.86842 0 2.7172 0.752 2.7172 3.3265v6.7213c0.74386 0.01132 2.1095 0.60136 3.0895 1.245v-7.2095c1e-6 -4.8611-2.6996-6.7547-4.9604-6.7547zm18.089 0c-2.264 0-4.9674 1.8935-4.9674 6.7547v7.2095c0.9832-0.64363 2.3464-1.2337 3.0839-1.245v-6.7213c0-2.5745 1.8586-3.3265 2.7172-3.3265-0.48676 0.44957-0.78212 1.006-0.78212 1.7483 0 1.3665 1.1351 2.4983 2.5081 2.4983 1.3762 0 2.442-1.009 2.5067-2.4983 0.01455-2.4355-1.659-4.4195-5.0664-4.4195zm-9.044 12.303c-1.3455 0.90882-2.3879 2.3123-2.7744 3.9552-1.0624-1.4069-2.6496-2.3457-4.4139-2.7855v1.6159c0.17142 1.2225 1.4636 6.0172 7.1881 6.0172 5.7183 0 7.0037-4.7947 7.1802-6.0172v-1.6159c-1.7708 0.43987-3.3515 1.3786-4.4237 2.7855-0.38003-1.6431-1.4188-3.0464-2.7562-3.9552z" fill="#E30421"/>
</svg>
