<svg version="1.1" viewBox="0 0 537.36 100" xmlns="http://www.w3.org/2000/svg">
	<path d="m486.94 17.453v0.0083l-26.553 63.986h13.873l6.1943-15.957h25.836l6.2193 15.957h14.856l-26.103-63.994zm-338.25 0.26678v63.719h22.435c23.046 0 36.799-11.975 36.799-31.864 0-19.888-13.753-31.855-36.799-31.855zm93.215 0v63.719h45.661v-11.071h-31.463v-16.549h26.962v-11.063h-26.962v-13.973h30.471v-11.063zm84.886 0.01667v63.719h41.576v-11.08h-27.337v-52.639zm61.184 0v11.063h21.359v52.664h14.264v-52.664h21.359v-11.063zm-225.11 11.055h8.2452c14.966 0 22.443 7.4074 22.443 20.792 0 13.376-7.4774 20.792-22.443 20.792h-8.2452zm330.53 3.4181 8.8705 22.618h-17.766z" fill="#0b1f66"/>
	<path d="m59.88 59.127 46.218 22.337-46.218-71.462z" fill="#8b2332"/>
	<path d="m59.88 90 49.882 1.2e-5 -49.882-21.158z" fill="#8b2332"/>
	<path d="m59.88 10-46.228 71.464 46.228-22.337z" fill="#cf0a2c"/>
	<path d="m10 90 49.88 1.3e-5 5e-6 -21.158z" fill="#cf0a2c"/>
</svg>
