<svg version="1.1" viewBox="0 0 183.66 100" xmlns="http://www.w3.org/2000/svg">
	<path d="m138.9 46.049v0.59224s0.76234 0.50771 0.78747 0.50771c3e-3 0 5e-3 1.31e-4 8e-3 -0.0055v2.1612h17.409c3.5181 0 6.0952 0.46934 7.656 1.3852 2.4878 1.4519 3.7 3.3363 3.7056 5.7599 0 1.2174-0.32687 2.3286-0.96906 3.3058-0.63661 0.97166-1.6112 1.8035-2.9012 2.4737-1.6864 0.87394-4.255 1.3154-7.6391 1.3154h-9.0772v-12.749h-4.9642v14.634l-0.0283 0.21486c-0.0307 0.03909-0.0834 0.09226-0.13089 0.13416l-0.61187 0.38556-0.0529 0.03873v0.59496h14.888c2.8647 0 5.1154-0.16207 6.6929-0.48317 2.1611-0.45232 4.0793-1.2367 5.7015-2.334 1.6557-1.1113 2.8394-2.4014 3.5207-3.831 0.50537-1.0443 0.76238-2.2004 0.76238-3.4345 0-0.87673-0.12561-1.731-0.3741-2.5407v0.0088c-0.78459-2.485-2.5856-4.5263-5.3498-6.062-2.4906-1.3933-6.0225-2.0717-10.8-2.0717zm-17.521 0.0029-2.8761 3.0103h3e-3l3.194 3.3893 3.3004 3.3227h-5.5761l-3.0572 3.2 0.6615 0.45209 0.72039-0.38828c0.0698-0.02792 0.13981-0.05828 0.20122-0.06109 0.0475-0.0084 0.23151-0.01146 0.52189-0.01146h9.538l6.5811 7.0332s-0.10055 0.12326-0.67295 0.12326h-0.25685v0.71439h7.4411zm-50.685 0.01412v0.60587h0.0029l0.66422 0.42973c0.15358 0.10609 0.23177 0.20138 0.23177 0.28794l0.0059 18.012-0.04744 0.23177c-0.06143 0.05305-0.1314 0.11434-0.17888 0.14506l-0.67568 0.43572v0.60314h6.6449v-0.59769l-0.61412-0.43311c-0.08656-0.05863-0.13424-0.09762-0.15378-0.09762-0.0029 0-0.0053-6.7e-5 -0.0082 0.0029v-18.28l0.01412-0.19578 0.15051-0.1396 0.6086-0.40737v-0.60314zm-32.785 0.0055-3.0223 3.7923 0.61514 0.21432 0.08672 0.02236 0.94071-0.47444c0.25967-0.17311 0.51929-0.25685 0.79292-0.25685h11.984l0.0059 16.06-0.05344 0.22632c-0.05026 0.06143-0.10875 0.10049-0.14506 0.11724l-0.68385 0.45208v0.59496h6.6957v-0.60314l-0.69531-0.42427-0.16796-0.15378c0-0.03909-0.0082-0.09748-0.0055-0.17287v-16.097h10.63c0.40765 0.04746 0.46088 0.14208 0.45809 0.15325v0.56715h0.59714l3.2977-4.0181zm-3.0223 3.7922-0.0016-5.44e-4v0.0029zm44.89-3.7923v0.59769l0.6615 0.42973c0.09773 0.06702 0.14255 0.10362 0.15652 0.10362h0.0055v18.219l-0.03326 0.2345c-0.02792 0.04188-0.07796 0.092-0.12542 0.1227l-0.66477 0.44663v0.58624h6.6957v-0.59442l-0.69804-0.4439c-0.1089-0.05863-0.15938-0.09488-0.17614-0.09488h-0.0055v-8.36l-0.0029 0.0033v-9.9121l0.01964-0.19306s0.05313-0.04996 0.15924-0.10581l0.63641-0.39646 0.06708-0.03654v-0.60587zm5.816 11.247 0.72312 0.22086 0.9298-0.53334c0.16753-0.10331 0.31545-0.17338 0.42155-0.1985 0.05585-0.01964 0.16742-0.04417 0.37683-0.04417h13.989v6.4039l4.9948-5.3541v-10.607c0-0.07817 0.0976-0.15924 0.0976-0.15924l0.72366-0.36319v-0.61133h-6.7071v0.60042l0.68986 0.43845c0.19823 0.12007 0.21486 0.20069 0.21486 0.27049v6.0952h-13.427zm16.44 5.8487-6e-3 0.0065h6e-3zm-6e-3 0.0065h-3e-3v0.0029zm-75.493-17.082c-2.1164 0-3.7693 0.06992-4.9113 0.20396-0.60589 0.07539-1.1756 0.17579-1.7424 0.30702-1.4966 0.34064-2.957 0.91032-4.3447 1.6949-2.2393 1.2704-3.8421 2.8841-4.7663 4.7995-0.51934 1.0917-0.77887 2.3088-0.77329 3.6183-0.00558 3.345 1.7953 6.0148 5.3525 7.9358 1.6027 0.88231 3.4095 1.4905 5.3639 1.8116 1.4631 0.24012 3.4761 0.36047 5.9834 0.36047h13.837l3.2977-4.0066h-0.27049l-0.72912 0.01637v-0.0029l-0.0043 0.0029h-5.58e-4l-0.86872 0.50007c-0.23454 0.1424-0.36315 0.19007-0.38828 0.20124l-14.88 0.038723c-3.398 0-5.9835-0.441-7.6811-1.3094-2.5632-1.3318-3.8113-3.2276-3.8141-5.7991 0-1.1559 0.33534-2.2532 0.9887-3.2611 1.2844-1.8903 3.1325-3.1777 5.7822-3.6663 0.70082-0.12565 1.3769-0.15652 1.8236-0.15652h7.6642c0.45791-0.01964 0.38795 0.08934 0.40191 0.1396l-0.08343 0.53607h0.63368l3.2808-3.9646zm90.63 3.7748-16.169 16.898h7.4439v-0.71167h-0.25958c-0.12565 0-0.24019-0.01698-0.34629-0.03382h-3e-3c-0.14519-0.02234-0.22909-0.05286-0.27376-0.07798l12.498-12.998zm-99.405 3.9482-2.1835 3.2584h19.553c0.36856 0.0391 0.4943 0.13107 0.50826 0.19251l-0.08126 0.57806h0.67295v-0.0029l3.2224-4.0262z" fill="#bd8c11"/>
	<path d="m123.13 10v23.339h2.8843v-0.0027s-0.0503-16.301 0-16.837c0.0363-0.7092 0.40795-0.90478 0.80164-1.1114 0.32668-0.17311 0.66423-0.34895 0.73403-0.84037l6e-3 -0.23722c0-0.27084-0.20345-0.36016-0.45754-0.46626-0.24849-0.11448-0.72902-0.41315-1.6169-1.167-1.4854-1.2844-1.848-1.8736-1.8536-1.882zm-14.231 0.01084v19.928l3.5376 3.4787-2.9317 2.9372h3e-3v0.0088l4.7494 4.7466 4.727-4.7466-2.9399-2.9459 3.5431-3.747v-19.657s-1.3234 2.9991-3.6325 4.4985l6e-3 0.15597c0.0447 0.45791 0.3156 0.63406 0.57806 0.80438 0.31551 0.20662 0.61715 0.40222 0.64786 1.1338 0.0335 0.54167 0 11.835 0 11.835l-2.9317 3.0577-2.9459-3.0577c0-0.18148-0.0391-11.324 0-11.838 0.0279-0.73154 0.3269-0.92714 0.6424-1.1338 0.25967-0.17033 0.52774-0.34614 0.58079-0.81801l6e-3 -0.22904c-2.0916-1.4631-3.6382-4.4118-3.6382-4.4118zm-28.179 0.09216s-1.8564 2.4574-4.414 4.3365l0.0055 0.09488c0.0029 0.03909 0.0082 0.08052 0.0082 0.15869 0.06422 0.47745 0.4051 0.65641 0.73457 0.82673 0.3909 0.20662 0.85454 0.39941 0.85454 1.1114v16.703h18.556v0.34302c-0.01964 0.08097-0.02236 0.21822-0.02236 0.44718 0 1.3235 0.46633 2.239 1.3012 2.5713 0.01678 0.0084 0.42438 0.2345 1.0247 0.2345 0.4607 0 0.90744-0.1366 1.3263-0.40464v0.0065l0.31575-0.19633-0.30157-0.24049c-0.54176-0.40758-0.7234-1.6195-0.71502-2.5325v-0.22304h6.9187l-6e-3 -15.357s-0.92433 2.0523-4.2526 4.462c0 0 0.12054 0.6644 0.70131 0.9827 0.86276 0.47466 0.79837 0.92435 0.79837 0.92435v6.1618h-4.1298c0.0029-0.09214 0.0059-0.2038 0.0059-0.32666v-0.28467c-0.01677-1.5552-0.49467-5.1763-4.6577-5.1763-0.0698 0-0.14793-1.31e-4 -0.21213 0.0055-1.2844 0.03351-2.4122 0.06162-3.3838 0.06162h-0.23177c-2.471 0-3.7664-0.27413-4.0791-0.86327l-0.14288-0.25685-0.23449 0.16196c-0.45233 0.28759-0.71167 0.84362-0.71167 1.5193 0.01125 0.994 0.55265 2.0912 1.5439 2.1666 0.61985 0.02792 1.5135 0.03873 2.4126 0.03873 1.6055 0 3.2082-0.0278 3.2082-0.0278 3.4427 0.02512 3.4955 1.48 3.5234 2.1808v0.79838h-15.744zm19.375 26.429-3e-3 0.0017h3e-3zm-0.55843-23.586-2.1808 2.189 2.1808 2.195v0.0027l2.1977-2.2032-0.20122-0.17287zm4.3921 0-2.1835 2.189 2.1835 2.195v0.0027l2.189-2.2004-0.18978-0.17833zm-47.823 4.8977v8.3649h14.505s0.06409-0.0055 0.14506-0.0055c0.45232 0.01125 1.0555 0.13144 1.0667 1.0612v6.6984c0 0.05863-0.01391 1.449-1.449 1.449-2.2979 0-2.1445-1.167-2.1584-1.167l0.0082-3.7666h-12.121v2.8674h9.5129v2.3204s-0.30135 2.4431 4.8082 2.4431v-0.0055h0.0029c4.1519 0 4.2913-2.5772 4.2913-2.6024 0 0 0.01146-9.5048 0.01146-9.5941-0.0055-0.54726-0.15096-2.3287-1.8541-2.3482h-14.483v-1.0438c0-0.23454 0.21796-0.32696 0.38828-0.43027 0.8488-0.52492 0.98796-0.98846 0.71712-1.1616-1.7116-0.98004-3.392-3.0795-3.392-3.0795zm58.149 16.532 1.96 1.9796-1.96 1.9801-1.9796-1.9801z" fill="#bd8c11"/>
	<path d="m133.55 76.59c-1.4714 0-2.5965 0.34629-3.3811 1.0443-0.78738 0.69803-1.1785 1.672-1.1785 2.9285 0 1.921 1.0804 3.144 3.2388 3.6718l0.47227 0.1118c0.76783 0.17589 1.3038 0.39371 1.6109 0.65059 0.30713 0.25688 0.46081 0.62009 0.46081 1.0836 0 1.195-0.77092 1.7893-2.315 1.7893-1.2425 0-2.3536-0.43801-3.3336-1.3175v2.5996c0.8153 0.5668 1.9014 0.84854 3.2584 0.84854l-6e-3 -0.0055c1.5943 0 2.7918-0.3829 3.596-1.1479 0.80413-0.76504 1.2063-1.8006 1.2063-3.1073 0-1.0163-0.27094-1.804-0.80982-2.3624-0.53888-0.55842-1.3848-0.97404-2.5407-1.2505l-0.47172-0.1118c-0.779-0.18987-1.3014-0.40488-1.5722-0.65059-0.27084-0.24571-0.40464-0.60613-0.40464-1.0836 0-0.52771 0.16194-0.91573 0.48862-1.167 0.32668-0.25129 0.85437-0.37683 1.5831-0.37683 0.69245 0 1.3372 0.134 1.9403 0.39646 0.6031 0.26246 1.0808 0.5584 1.4326 0.88508v-2.5996c-0.79018-0.55285-1.882-0.82892-3.2753-0.82892zm-81.988 0.3043-5.0842 12.805h2.3929l3.0124-8.0023 0.35719-1.1114 0.35774 1.1114 1.3372 3.5207h-3.3702l0.71494 1.8263h3.3336l1.0165 2.6552h2.5996l-5.0286-12.805zm10.809 0v12.805h2.4851v-12.805zm7.9461 0v12.805h2.4851v-4.1991h1.413l2.9372 4.1991h2.7867l-3.4847-4.5372c0.82926-0.32668 1.4689-0.85697 1.9212-1.5913 0.45232-0.73433 0.6784-1.5975 0.6784-2.5887 0-1.357-0.39648-2.3758-1.1867-3.0599-0.79017-0.68407-1.9377-1.0274-3.4454-1.0274zm12.409 0 3.7857 12.805h2.0161l2.5996-7.927 2.58 7.927h2.0908l3.8784-12.805h-2.4486l-2.3733 9.1131h-0.07526l-2.9568-9.1131h-2.4491l0.65931 2.0325-2.2784 7.0807h-0.09488l-2.3537-9.1131zm23.993 0-5.0847 12.805h2.3929l3.013-8.0023 0.3572-1.1114 0.3572 1.1114 1.3377 3.5207h-3.3702l0.71494 1.8263h3.3336l1.0165 2.6552h2.5991l-5.0286-12.805zm8.0972 0 4.1795 7.5497v5.2549h2.4851v-5.2549l4.1996-7.5497h-2.4655l-2.8619 5.3858-2.7867-5.3858zm-42.013 1.9768h1.6c0.76504 2e-6 1.3121 0.20108 1.6387 0.60314 0.32668 0.40207 0.48862 0.98549 0.48862 1.7505 0 1.6837-0.7005 2.5238-2.1077 2.5238h-1.6197z" fill="#bd8c11"/>
</svg>
