<svg version="1.1" viewBox="0 0 100 100" xmlns="http://www.w3.org/2000/svg">
	<circle cx="50" cy="50" r="50" fill="#e6042e"/>
	<path d="m68.663 22.628-38.395 42.297c-11.727 11.386-20.268 12.448-20.268 12.448l62.224-0.35156 17.776-54.392h-21.337z" fill="#fff"/>
	<path d="m70.27 41.578c-1.801 5e-3 -3.5578 0.071802-4.5391 0.26367-2.6165 0.50479-5.0798 0.84815-7.4883 4.3223-2.4121 3.4531-4.5905 6.9452-6.0332 8.9434-4.5151 6.2705-4.5141 7.2839-9.5566 7.7363-2.6881 0.24104-3.4102 0.0968-4.0879-0.22461-0.83316-0.39475-1.2247-0.853-2.3828 0.060547-1.3362 1.0689-3.1659 0.80939-3.1152 0.96484h38.391s1.8626 0.061727 2.5176-1.1016l-0.95898-0.35742s-0.20921 1.219-4.0273 0.85742c-3.8094-0.35108-8.7891-1.2969-8.7891-1.2969l11.82-16.693c0.73708-0.91001 1.7403-1.8545 2.6992-2.7051 0 0-4.7728 0.49914-6.7832 3.416-2.0436 2.9588-11.096 15.367-11.096 15.367l-0.61133-0.099609 11.559-16.072c2e-3 0 1.7017-2.7159 8.4473-3.2207 0.15825-0.0122-2.9632-0.16976-5.9648-0.16016zm-32.941 19.527c-0.68468 0-1.2383 0.88086-1.2383 0.88086h2.4922s-0.56923-0.88086-1.2539-0.88086zm0.025391 1.5898c0.26549 0 0.50976 0.3418 0.50976 0.3418h-1.0547s0.28816-0.3418 0.54492-0.3418z" fill="#e6042e"/>
</svg>
