<svg version="1.1" viewBox="0 0 100 100" xmlns="http://www.w3.org/2000/svg">
	<rect width="100" height="100" fill="#213368"/>
	<path d="m77.499 19.475a44.255 44.255 0 0 0-27.397-9.4751l-0.1975 0.0025-0.2-0.0025a44.245 44.245 0 0 0-27.205 9.3351l8.0299 13.67a31.655 31.655 0 0 1 19.175-6.4625l0.145 0.0025v0.0025h0.1125l0.14-5e-3c7.2174 0 13.867 2.425 19.23 6.5l8.1674-13.567m-2.2325 31.205c-4.1925-10.11-13.917-17.235-25.267-17.235-15.165 0-27.5 12.685-27.5 28.277s12.335 28.277 27.5 28.277 27.5-12.685 27.5-28.275c0-2.0725-0.2325-4.085-0.64749-6.0275h-33.625l7.3549 12.625h12.6c-2.3825 5.015-7.3949 8.4826-13.182 8.4826-8.0874 0-14.667-6.7675-14.667-15.082 0-8.3151 6.5799-15.08 14.667-15.08 3.84 0 7.3249 1.5425 9.9424 4.0375h15.325" fill="#fff"/>
</svg>
