<svg version="1.1" viewBox="0 0 100 100" xmlns="http://www.w3.org/2000/svg">
	<rect width="100" height="100" fill="#fff"/>
	<path d="m67.064 46.841c-0.20877 0-0.41081-0.16267-0.41081-0.36272 0-0.20444 0.12796-0.36052 0.32326-0.36052 2.7253-0.20224 5.116-0.75621 7.3586-1.7169 2.7926-1.2354 4.7142-2.6357 5.4685-4.0339 0.83958-1.475 0.67795-3.2798 0.12571-4.2713-0.5657-1.0046-1.8857-1.8048-3.0373-1.3212-0.84182 0.35832-1.2481 1.3212-0.91815 2.1499 0.27836 0.6463 0.99672 0.96505 1.6298 0.72544 0.2402-0.12091 0.40408-0.27918 0.52081-0.52099 0.08306-0.23961 0.08306-0.47703 0-0.72104l0.20204-0.47703 0.48264 0.20224c0.15714 0.43746 0.15714 0.87712 0 1.2772-0.20204 0.39569-0.52081 0.71884-0.92713 0.91888-0.98998 0.39789-2.1528-0.07694-2.5951-1.1189-0.47816-1.1981 0.11449-2.5962 1.3155-3.1172 1.5692-0.6397 3.2416 0.32095 3.9599 1.6421 0.64203 1.1167 0.88223 3.1919-0.11449 4.9923-0.88447 1.5564-2.8442 2.9941-5.8411 4.3526-2.3122 1.0002-4.7883 1.5982-7.5427 1.7608m-1.7241 2.1961c0.95406-1.0816 2.3571-1.3234 3.401-0.55836 0.91815 0.6375 1.1561 1.9191 0.47366 2.8292-0.52081 0.765-1.5983 0.96285-2.3593 0.40229l-0.07408-0.47703 0.51856-0.11871c0.43101 0.31875 1.0326 0.19345 1.3132-0.23961 0.43775-0.56056 0.28285-1.3959-0.32101-1.796-0.8306-0.60013-1.834-0.20004-2.4334 0.43966-0.9159 1.0376-2.4312 1.7147-3.7961 0.87931-1.1179-0.68367-1.439-2.0774-0.76101-3.1985 0.24469-0.43746 0.68019-0.72104 1.2032-0.83974 0.47591-0.11651 0.99447-0.03957 1.439 0.20004l0.11 0.5144-0.50958 0.1253c-0.2402-0.15828-0.56346-0.20004-0.87998-0.15828-0.32326 0.07694-0.60162 0.27698-0.76325 0.55836-0.44224 0.75841-0.19979 1.7169 0.52081 2.1939 1.0775 0.6419 2.2426 0 2.9183-0.75621m-7.628-23.658c-1.2437 0.20224-3.3987 0.08353-5.8344-0.91449 1.5983-1.4377 3.4346-2.838 4.5526-3.0402 1.0775-0.19565 2.4312 0 2.8353 1.2816l0.04265 0.03957c-0.16163-0.20004-0.39958-0.36492-0.63978-0.43966-0.83509-0.40009-1.7622-0.08353-2.072 0.6397-0.32326 0.75621 0.07632 1.6377 0.91141 1.996 0.32551 0.16048 0.64428 0.20004 0.95856 0.11871-0.23796 0.16487-0.52081 0.24181-0.75427 0.31875m-41.034 28.055c-1.3267 2.1191-1.0057 5.0363 0.11673 7.1906 1.5579 2.9193 4.676 3.603 6.2721 4.0778-0.9608 1.3607-2.0361 4.1174-0.35693 6.9114 0.11449 0.19784 0.27612 0.43746 0.43326 0.71444 1.3626 2.0466 3.9958 4.0426 6.7997 5.6804 8.187 4.4383 16.578 2.2379 19.537-0.1253 1.7532-1.4729 2.833-2.794 4.1126-4.3504 1.0394-1.2047 2.0742-2.4753 3.5581-3.9591 3.3134-3.2359 8.7078-4.3922 12.273-2.594 2.0698 1.075 2.824 2.561 3.1069 3.5942 0.32326 1.2376 0.12122 2.6006-0.55897 3.5964-0.83733 1.2025-2.6736 1.996-4.4358 1.9609 0.79692 0.27918 1.7196 0.31875 2.7253 0.03517 2.0338-0.5166 3.6254-2.2335 3.7467-4.8318 0.16836-2.9501-2.0361-5.5573-4.5571-5.876h0.72733c8.1892 0.60453 13.985-2.5544 14.107-9.0679 0.03143-3.2359-1.3626-5.5551-3.3628-6.9576 1.4412 1.6817 2.0361 3.9525 1.8857 6.0805-0.32775 4.7483-4.1642 7.151-11.431 7.2324-1.4434 0-11.307-0.08134-20.857-0.16487-8.5596-0.03737-17.342-0.11651-19.701-0.11651-2.952 0-6.5909 0.79798-6.9142 4.6362-0.07632 0.91888 0.24244 1.8707 0.88223 2.6357 0.75427 0.88371 1.834 1.4421 2.9183 1.5146 1.2324 0.1231 2.3571-0.31875 3.0328-1.1167 0.43775-0.59354 0.60162-1.2772 0.39734-1.8751v-0.04397c-0.47816-0.99582-1.3963-1.2354-2.1169-0.55617 0.24244 0.84414-0.43775 1.5982-1.4771 1.4003-0.63978-0.08793-2.0002-1.0816-1.082-2.6753 0.55897-1.0046 1.4412-1.4047 5.0734-1.3629 2.8779 0.04177 19.308 0.31875 29.926 0.40009-1.073 0.27918-1.953 0.67487-2.5973 1.0398-1.834 1.0772-4.7097 3.2754-5.8299 5.4342-0.1953-2.3214-1.5557-4.6758-3.832-5.3506-2.164-0.6397-3.9936-0.23961-5.354 1.0728-0.28061 0.24841-0.47816 0.52319-0.68019 0.79798 0.83509-0.6375 1.953-1.0354 3.2752-1.075 1.7577-0.08353 3.3965 0.71444 4.3999 2.2005 0.99223 1.4707 1.1112 3.3106 0.39285 4.911l-0.47816 0.19785-0.19755-0.47923c0.63754-1.3937 0.52081-2.9545-0.32101-4.1921-0.87774-1.2816-2.2808-2.0004-3.7601-1.9235-1.5916 0.08573-2.8712 0.68586-3.5873 1.6421-0.36367 0.56496-0.5657 1.1541-0.5657 1.7982 0 0.19785 0 0.35612 0.04041 0.5166l0.04041 0.24181 0.04041 0.04616c0.2402 1.0728 0.95631 2.2313 1.76 2.55 0.95631 0.36272 2.0383-0.55836 1.8385-1.1563-0.55897-0.1209-0.88223-0.71884-0.79692-1.1145 0.07408-0.40229 0.58815-1.0838 1.3492-1.1233 0.7206-0.03957 1.8071 0.39569 1.8071 1.8378 0.03368 0.83974-0.60162 1.8795-1.6432 2.561-0.95855 0.6375-2.4761 1.4707-6.7929 1.3146-4.4291-0.16047-7.866-1.519-9.5878-2.6775-0.68019-0.48142-1.5534-1.275-2.081-1.7564 1.2863-0.36272 2.2449-1.042 2.7634-1.9169-0.84182 0.83755-2.0832 1.275-3.3965 1.1937-1.32-0.11651-2.5614-0.76061-3.4369-1.796-0.76101-0.92108-1.1606-2.0378-1.0439-3.1963 0.28285-3.3985 3.0059-5.2759 7.6348-5.2759 2.3593 0 11.188 0.03737 19.701 0.11871 9.5496 0.08134 19.414 0.16487 20.857 0.16487 6.7952-0.08353 10.387-2.2774 10.703-6.5553 0.24244-3.2754-1.4008-6.9158-5.4775-7.672-1.8745 0.99802-3.9914 1.6333-5.3113 1.8378-0.1953 0.04177-0.39958-0.11871-0.39958-0.32095-0.04041-0.20004 0.08306-0.39789 0.27836-0.39789 1.1651-0.20444 2.9632-0.72104 4.5975-1.5212 0.79917-0.44186 1.5557-0.87931 3.5559-2.2335 3.0732-2.1213 5.2373-6.0343 3.1159-9.7934-1.8408-3.2337-5.7087-3.6008-7.7111-1.9565-1.2347 1.042-1.3941 2.7962-0.95855 3.8382 0.40632 1.0002 1.3626 1.8356 2.3616 1.9103-0.20428 0.36492-0.44224 0.60453-0.76101 0.80897-2.2404 2.0334-5.4011 2.1148-10.077 2.1521l-1.073 0.04397h-0.59938c-2.6422 0-7.0242 0.03957-9.1882 2.9963-0.91815 1.1959-1.0843 2.7918-0.48264 3.9921 0.84856 1.596 2.9565 2.4775 6.0387 2.4775 0.1953 0 0.35918 0.19785 0.35918 0.40009 0 0.19785-0.16387 0.35832-0.35918 0.35832-4.3214 0-5.9915-1.5982-6.6717-2.9127-0.72284-1.4421-0.52081-3.3194 0.51856-4.7615 2.393-3.2359 7.188-3.271 9.7853-3.3106h1.6724c3.2461-0.03957 5.6817-0.08134 7.5944-0.7628-1.5579 0.11871-3.7152 0.08353-6.7862 0.08353-6.5572 0-13.07-0.40448-15.023 5.2759-2.4402 0.07694-3.6322 0.07694-4.8781 0.07694 0.47591-2.5588-0.4804-5.5573-2.6714-6.0739l0.1549 0.08134c1.1583 1.0354 2.2381 3.3194 1.3155 6.4718-0.87774 3.0336-4.2742 4.634-8.0276 3.7964-0.19979-0.04177-0.32102-0.23961-0.27387-0.44405 0.03592-0.19785 0.22898-0.31875 0.4355-0.27479 3.3897 0.76061 6.3956-0.6419 7.1499-3.2776 0.75652-2.6379 0-4.7549-1.0775-5.7155-0.68019-0.55617-1.4412-0.67268-2.1147-0.35832h-0.04714c-0.79468 0.5188-0.91815 1.3981-0.83733 1.9982 0.7206-0.27918 1.8812-0.19785 2.1169 0.95625 0.24244 1.1211-0.79692 2.2796-2.7567 1.8004-1.6387-0.43526-2.512-3.0358-1.32-5.3506 1.0439-2.04 2.9587-3.1194 4.3595-3.7942-0.32326-0.84414-0.28285-1.7674 0.07857-2.5654 0.35918-0.79578 1.0394-1.4333 1.843-1.7542 0.71836-0.23522 1.4322-0.23522 2.1147 0.07914 0.67346 0.28358 1.1988 0.83974 1.4367 1.5168 0.2402 0.56056 0.19979 1.1981-0.04266 1.7147-0.23571 0.56496-0.7206 1.009-1.2773 1.2091-0.43326 0.19565-0.95855 0.15828-1.439-0.04616-0.4355-0.19785-0.79244-0.56056-0.99447-1.0376-0.12122-0.39789-0.12122-0.83755 0.03816-1.2047 0.1953-0.39349 0.47816-0.67487 0.88223-0.83315 0.19755-0.08573 0.39509 0 0.47366 0.19784 0.08082 0.20664-0.04041 0.40229-0.20204 0.48142-0.23796 0.07914-0.39958 0.23742-0.47816 0.43966-0.08306 0.19785-0.11449 0.43966-0.04041 0.6375 0.11898 0.32095 0.36367 0.52099 0.64203 0.6397 0.28061 0.16048 0.60162 0.16048 0.87998 0.03737 0.35918-0.15608 0.68019-0.43086 0.83509-0.79358 0.15714-0.36492 0.20204-0.80677 0.04714-1.2003-0.20204-0.47703-0.5657-0.87931-1.0416-1.1211-0.52754-0.19125-1.0416-0.19125-1.5579-0.03297-0.63978 0.27479-1.1606 0.75181-1.4367 1.3937-0.28285 0.6375-0.32326 1.3234-0.08306 1.9982 0.4804 1.3146 2.5165 2.1961 4.1193 1.5586 2.1506-0.91888 3.2304-2.9941 6.1891-4.4361 3.5177-1.7586 5.6346-1.5608 6.6717-1.0046 1.5175 0.84634 0.95631 2.8072 0 2.9611-0.95631 0.15608-1.403-0.36052-1.2751-0.83974-0.83733-0.08354-1.3267 0.76061-1.0843 1.319 0.24693 0.55836 1.5243 1.6421 3.6412 1.4047 2.1551-0.28798 3.6322-2.1587 3.7938-3.9239 0.16163-1.8312-0.39734-3.0336-1.201-3.8712 1.2347-0.08354 3.7601 0.07914 4.602 0.20224 1.7128 0.23961 2.7118 0.99362 2.7522 1.796 0 0.63311-0.75876 1.3541-1.403 0.71884-0.79244 0.19785-1.1112 0.87492-0.8755 1.5586 0.36367 1.1211 2.1147 1.4003 3.3561 0.96065 1.1606-0.40229 2.1977-1.6773 2.5614-2.9963 0.47591-1.8817 0.08082-4.3988-2.1977-6.2409-2.283-1.8729-5.354-1.7125-7.3991-1.8729-2.191-0.16707-1.4816-0.56496-1.9553-2.5984-0.32102-1.5212-1.7532-3.2359-4.272-3.7173-2.5142-0.52099-4.2809-0.24181-7.7133 1.519-3.3538 1.6817-6.0342 3.4777-8.2274 4.3174-2.2022 0.80237-4.0385 1.2003-5.0352 0.71884-0.88223-0.43966-0.76101-1.3585-0.44224-1.7608 0.31652-0.39789 0.92264-0.83755 1.5983-1.1563-0.31877-0.67927-0.92039-1.4772-1.2414-1.9587-0.23796 0.04177-0.55224 0.15828-0.95856 0.27698l-1.1134 0.56496c-1.7173 0.91449-3.5559 3.2732-2.3234 5.7507 1.0012 2.0444 4.0385 2.6753 8.1084 1.7235 3.4481-0.80018 6.9613-3.0007 9.7921-4.7989 0.92264-0.55836 1.8408-1.1189 2.6018-1.5586 1.6724-0.91888 3.3942-1.1585 4.7097-0.60013 1.0057 0.39789 1.6859 1.1981 2.0047 2.2818l-0.27836 0.43086c-0.19979 0.08573-0.40408-0.03517-0.44224-0.23302-0.2402-0.87931-0.80366-1.4816-1.5647-1.8004-1.1202-0.47483-2.5906-0.28138-4.0722 0.55617-0.76101 0.44405-1.6387 0.96285-2.5591 1.563-2.9138 1.796-6.4719 4.0317-10.026 4.8714-4.4314 1.0464-7.7964 0.23961-8.948-2.1126-0.92264-1.8422-0.36367-3.636 0.63978-4.9989-0.48489 0.36052-0.92264 0.72324-1.2414 1.086-1.32 1.5916-0.83958 3.9129-0.08082 4.9461-1.8385 0.32535-3.915 0.72104-6.3529 1.8817-2.4424 1.1211-4.8354 2.7545-6.2295 4.4757-1.4861 1.7147-2.0832 3.315-2.3593 5.1902-0.24469 1.4421 0.08306 3.1238 0.71386 4.1174 0.68244 1.0816 2.0832 2.0774 3.8387 2.2005 1.4412 0.12091 3.0777-0.32315 3.915-1.4025 0.55897-0.67048 0.84182-1.4794 0.9608-2.3148-0.52305 1.1981-1.4412 2.1148-2.4761 2.4753-2.2 0.80237-4.3618 0.07914-5.4348-1.7586-1.32-2.3544-0.4355-5.5155 2.1169-7.7094 1.2863-1.1541 6.0723-4.8362 12.708-4.8714 0.19755 0 0.36142 0.15828 0.36142 0.35612l-0.36142 0.36272c-6.3552 0.03957-10.991 3.592-12.23 4.7153-2.3189 1.9543-3.1181 4.7505-1.9553 6.7861 0.87774 1.5212 2.7163 2.0752 4.5503 1.4443 0.92264-0.32095 1.7263-1.2025 2.1236-2.3214 0.28285-0.75621 0.31652-1.4772 0.15265-1.996-0.27612-0.47923-0.54999-0.87931-0.79468-1.075-0.39734 0.39569-0.88223 0.79578-1.201 0.99143 0.07857 0.80237 0.24469 1.4421-0.1953 1.8839-0.40407 0.39789-1.1628 0.55617-1.6769-0.08353-0.7206-0.92108-0.24244-2.7545 0.71611-3.7547 0.9608-0.96505 2.3975-1.9609 3.7983-2.5566 1.3581-0.56056 2.7589-0.91668 4.0318-0.6419-1.2414 1.5212-2.714 3.9173-3.2752 5.5573-0.55897 1.6355-1.6792 6.1904 0.32326 9.9868 2.4289 4.6362 6.3507 7.9138 15.22 7.9952h1.5153c-3.0395-0.47483-5.5897-1.1629-7.6235-2.1213-4.6783-2.1565-7.1162-5.6738-7.5158-10.71-0.55672-7.1928 4.9544-11.422 10.311-12.983l0.47366 0.23522c0.04714 0.20444-0.08082 0.40229-0.23571 0.48362-5.1138 1.4772-10.347 5.4298-9.8325 12.185 0.7206 9.2724 8.5933 13.108 26.33 12.829l0.12122 0.03737c6.0746-0.07694 11.586-0.15608 13.063-0.15608 1.522 0 3.2438 0.03957 3.2438 1.2354 0.63978-0.23522 0.87325-0.60013 0.87325-0.91449 0-0.6375-0.87325-1.3585-2.2696-1.4794-1.76-0.16267-5.1205-0.11651-8.7078-0.08134-4.2405 0.03737-8.6809 0.08134-11.352-0.16048-0.20653 0-0.36142-0.19784-0.32102-0.39789 0-0.19785 0.1953-0.32315 0.3951-0.32315 2.6377 0.24841 7.0376 0.20004 11.278 0.15828 3.5873-0.03297 6.986-0.07914 8.7415 0.04177 1.7196 0.15828 2.9991 1.1233 2.9587 2.2423 0 0.39789-0.20204 1.5564-2.521 1.9543-0.51183 0.1231-1.2392 0.16267-2.2314 0.23961-2.5973 0.19784-34.203-0.07694-38.124-0.03737-2.5569 0.03737-6.8693 0.47703-8.1892-0.32095-1.2818-0.83535-1.9149-1.7586-1.3896-2.8732 0.30979-0.7694 2.1842-0.72324 2.2651 0.6353 0.88447 0.56276 2.0428 0.03957 2.2785-1.319v-0.36272c-0.11672-0.76061-0.51406-1.319-1.1965-1.7542-1.1628-0.80237-2.8779-0.96285-3.9936-0.68147-1.0035 0.23961-1.9575 0.96065-2.5951 2.0026-0.7206 1.1167-0.96529 2.4335-0.7206 3.5173 0.52081 2.3148 2.4334 4.0756 4.7501 4.3944 0.20428 0.03517 0.36591 0.19345 0.32101 0.39349l-0.39958 0.32095c-2.6377-0.36272-4.7928-2.3544-5.3921-4.9505-0.27836-1.2794 0-2.8006 0.79692-4.0866 0.75876-1.1893 1.8789-2.0312 3.0777-2.3126 1.0439-0.23742 2.5951-0.16048 3.9195 0.40009-0.76101-0.67927-1.7218-1.2003-2.6804-1.275-2.5928-0.23961-4.8669 1.0794-6.2272 3.2359m33.242 25.016c-2.2785 1.8751-7.7941 3.6316-13.985 2.4753 1.0775 0.39569 1.9934 0.68367 2.7163 0.83974 3.6726 0.71884 7.0286 0.40009 9.7517-0.52099 3.0732-1.0794 6.1868-3.5942 8.8694-6.0717 3.1136-2.8732 5.987-5.2737 8.4294-5.5155 1.8789-0.15828 3.1159 0.52319 3.2438 1.6773 0.15265 1.6399-1.8812 1.5168-1.7667 0.56056-0.55897-0.35832-1.1606-0.28138-1.522 0.15608-0.47816 0.56056-0.47816 1.84 0 2.6401 0.5253 0.56276 1.32 0.68147 1.8049 0.72324 1.5175 0.07034 3.1899-0.6441 3.915-1.6421 0.39734-0.6397 0.75427-1.7608 0.43326-3.0336-0.23571-0.88151-0.87774-2.1631-2.7589-3.0798-2.7993-1.4333-7.9446-0.92548-11.388 2.4357-1.4704 1.4794-2.5142 2.7215-3.511 3.9151-1.2347 1.5234-2.3998 2.9193-4.2316 4.4405m0.07857-68.45c-22.098 0-39.999 17.898-39.999 39.958 0 22.093 17.9 40.042 39.999 40.042 22.094 0 40.001-17.949 40.001-40.042 0-22.06-17.907-39.958-40.001-39.958m0 77.753c-20.859 0-37.797-16.936-37.797-37.795 0-20.816 16.937-37.76 37.797-37.76 20.821 0 37.752 16.944 37.752 37.76 0 20.86-16.931 37.795-37.752 37.795m0-74.838c-20.453 0-37.081 16.623-37.081 37.043 0 20.462 16.628 37.078 37.081 37.078 20.415 0 37.036-16.617 37.036-37.078 0-20.42-16.621-37.043-37.036-37.043m-36.367 37.043c0-20.059 16.264-36.327 36.367-36.327 20.058 0 36.355 16.267 36.355 36.327 0 20.097-16.298 36.362-36.355 36.362-20.103 0-36.367-16.265-36.367-36.362" fill="#c69d63"/>
</svg>