<svg version="1.1" viewBox="0 0 305.12 100" xmlns="http://www.w3.org/2000/svg">
	<style type="text/css">.st0{fill:#C69D63;}
	.st1{fill:#8A1435;}</style>
	<path class="st1" d="m272.33 49.051c-1.0818 0.05595-2.1128 0.75058-2.5375 2.0609-0.37371 1.1563 0.46061 2.5922-0.50664 2.6405h-12.142c-0.5034 0-1.4773 0.18751-1.9192 0.88876-0.85293 1.3519-0.78045 3.6742-0.72992 5.4614 0.0484 1.9081 0.30987 3.5744 0.82867 5.4055 0.50121 1.7784 1.7417 2.2164 2.1725 0.89305 0.34293-1.0618 0.30989-1.8999 0.36925-2.9969 0.0879-1.7191-0.0677-6.0247 2.0909-6.4446 4.8296-0.93427 9.908-1.036 15.281-0.88876 3.4601 0.15168 5.8686 0.04902 9.5617 0.88876 1.9015 0.44405 1.721 4.5565 1.8419 6.0668 0.0747 0.93647-9e-3 2.1437 0.57534 2.9153 0.51659 0.67268 1.2363 1.0846 1.7947 0.24044 0.5056-0.765 0.48498-1.9907 0.58391-2.881 0.17146-1.5454 0.38078-3.1064 0.43794-4.6628 0.0506-1.3893 0.0437-3.0827-0.99609-4.0917-0.84854-0.82436-1.9456-0.90195-3.203-0.88876-3.6052 0.03957-7.0299-0.0044-10.635-0.0044 0.0857-0.92767 0.29406-1.6514 0.022-2.5461-0.2506-0.81556-0.78553-1.3982-1.434-1.7346-0.45959-0.23975-0.96381-0.34744-1.4555-0.32202zm-82.771 0.04722c-0.6419 0.07034-0.90956 0.37914-1.1206 0.78142-0.21104 0.41328-0.5917 2.4965-0.90165 3.3275-0.88152 2.361-1.5858 2.5064-1.799 2.735-0.44186 0.45065-2.634 0.22409-2.7264 0.18892-0.65949-0.21983-0.92642-0.58316-1.0605-0.7986-1.0881-1.785-1.0451-6.0441-3.993-5.7276-1.5124 0.16048-1.7003 1.764-1.331 3.1643 0.28797 1.0947 1.5398 1.8311 2.4301 2.3829 0.19564 0.1209 0.78239 0.37288 1.1077 0.58392 0.61772 0.3891 0.34206 0.56245 0.12882 0.56245-0.78918 0-1.6174-0.03016-2.4044-0.02576-2.1499 0.01099-5.3421-0.61122-5.3025 1.653 0.0242 1.2618 1.9088 1.017 3.6366 1.039 1.0046 0.0088 4.2132-0.12451 5.2596-0.12451 1.0266 0 1.0238 1.5218 1.0348 2.1725 0.0132 0.61992 0.0701 1.2203-0.35636 1.7303-0.36931 0.44186-2.5554 0.26139-3.0742 0.28337-1.5454 0.07034-4.9016-0.59817-4.9719 1.2924-0.0264 0.68366 0.40565 1.0843 0.86729 1.1678 1.0684 0.11211 2.177 0 3.087 0 0.89031 0 2.9462-0.10638 3.92 0.21897 0.21103 0.07035 0.52532 0.34194 0.64403 0.68267 0.36271 1.0266 0.13497 2.8813-0.58391 3.3232-1.0244 0.62871-6.2367 0.28186-8.1448 0.43794-1.8993 0.15168-3.8917 0.36464-4.0917 2.0265-0.11211 0.87931 0.58345 1.3159 0.97035 1.5929 0.39349 0.27259 1.1309 0.14997 2.2498-0.11163 1.6048-0.3803 2.0169-0.33984 3.8041-0.67838 1.1431-0.21983 2.3406-0.34781 3.5035-0.43794 0.73863-0.05716 1.2776-0.11592 1.6316 0.15887 0.40888 0.31655 0.57678 0.89559 0.51523 1.7947-0.0835 1.2596-0.28626 2.3428-0.43794 3.598-0.18466 1.5124 0.67081 3.2287 1.726 3.2287 2.1499-0.0044 2.3834-1.8997 2.4559-2.7307 0.0791-0.82655-0.10309-2.5589-0.10309-2.5589-4e-3 -0.84194-0.0266-1.614 4e-3 -2.4559 0.0835-2.1235 5.5307-0.47201 7.2432-0.30054 2.9127 0.28578 4.1002 0.39555 5.2939-0.63544 1.1519-1.0002 1.5134-1.7143 1.0562-2.3056-0.65289-0.84194-5.9234-0.18382-8.8361-0.30913-2.5192-0.10552-4.6246 0.16988-4.7873-0.85012-0.10332-0.63311-0.1763-2.3754 0.022-3.0613 0.23962-0.83315 1.8649-0.60707 2.443-0.62685 1.3476-0.04177 2.6652 0.12132 4.2678-0.01715 0.72983-0.06375 1.5589-0.64935 1.726-1.4297 0.18246-0.84414-0.79903-1.0171-1.4212-1.039-1.6707-0.05056-3.3527 0.02326-5.0234 0.03865-1.0684 0-2.0523-0.02431-2.0523-1.185 0-0.68586 7.3e-4 -1.6175 0.24474-2.3099 0.29677-0.85953 1.6131-0.70235 2.3099-0.68696 1.9499 0.04616 5.633 0.26609 6.7365-0.27908 1.1431-0.56496 1.4337-1.915 0.80719-2.0952-0.7782-0.22203-1.5035-0.16703-2.297-0.18461-1.4003-0.02198-2.7923 0-4.1948 0h-1.9192s3.7501-2.8458 4.0359-3.1557c0.64849-0.70565 0.55511-1.988-0.0473-2.808-0.60233-0.81996-1.3282-1.2365-2.1811-1.2365zm-60.663 0.02576c-0.37044 0.01143-0.78513 0.09745-1.039 0.31343-1.0156 0.86832-0.47724 2.9408-0.2662 4.0531 0.14508 0.7694-0.36176 1.2838-1.0476 1.2838h-4.4094c-1.9389 0-9.7611-0.40122-11.511 0.87158-1.1541 0.83974-1.4881 1.7037-1.288 2.6534 0.21543 1.0398 1.1984 1.0421 2.0008 0.91023 1.1827-0.19345 2.2949-0.70032 3.4863-0.863 2.8732-0.40668 5.765-0.4953 8.6558-0.70414 1.1255-0.08134 2.2663-0.21468 3.3962-0.21468 1.6091 0.29237 1.261 3.2596 0.76854 3.8642-0.47483 0.61332-2.2643 0.35468-3.1128 0.33489-2.5478-0.05716-5.1332-0.18142-7.6854-0.04293-1.1277 0.05935-2.9316 0.38707-3.4262 1.8247-0.2506 0.74082-0.0738 1.6049 0.60109 2.0094 0.776 0.45944 1.729 0.03449 2.516-0.15456 2.4555-0.60013 5.0977-0.54009 7.6081-0.66979 2.9259-0.15388 9.3406-0.11163 9.6132-0.11163l7.9774 0.23185c1.0992 0.03957 2.3668 0.11528 3.4219-0.22326 0.48802-0.16267 1.3269-0.81886 1.0433-1.5113-0.40229-0.99582-2.2753-1.065-3.1128-1.1464-2.3676-0.23961-4.7788-0.15313-7.1573-0.21468-0.65509-0.01539-1.3114-0.03174-1.9664-0.05153-0.49901-0.01759-1.0681 0.02981-1.477-0.32631-0.49242-0.41987-0.41847-1.4648-0.42506-2.0738-7e-3 -0.55617 0.0105-1.395 0.56674-1.6874 0.74083-0.3891 2.6-0.30463 4.9719-0.03865 3.0292 0.34293 4.2883 0.53065 6.2514 0.88017 0.98703 0.17806 2.0209 0.60068 3.6366 0.61827 1.0398 0.0066 2.0054-0.03579 2.8166-0.7986 0.67267-0.63091 1.2955-1.6986 1.0691-2.6835-0.20004-0.87492-2.8157-0.63242-3.7697-0.66979-1.1453-0.03957-14.4 0-14.4 0-1.231 0-0.52381-2.4559-0.52381-2.4559 0.74961-1.752-1.9488-3.0119-3.4348-3.1944-0.10496-0.01143-0.22429-0.01671-0.34777-0.01297zm87.528 0c-0.0873-0.0081-0.16531-0.0066-0.23185 0.0044-1.3805 0.18466-1.25 2.484-2.5074 5.5-1.2926 0.09892-2.922-0.2708-4.1003 0.56674-0.93207 0.65949-0.79644 2.0891-0.61398 3.0828 0.36052 1.9609 0.51092 3.3531 0.51092 5.3755h-5.5987c-1.1695 0-1.9104 0.71757-1.7389 2.1596 0.1253 0.85733 0.87056 1.3523 1.7389 1.2666 1.1651-0.18026 2.9938-0.58832 5.5987-0.8587-0.31435 2.8424-1.0036 5.7726-2.6062 8.5226-0.82876 1.4465-2.6931 2.5679-4.2978 3.8341-0.60233 0.44625-0.52262 1.2635 0.43364 1.6702 1.6487 0.71884 2.9898 0.58574 4.2978-0.40788 1.6004-1.2618 2.4256-2.9783 2.9883-4.6885 0.87052-2.5302 1.6054-5.5056 2.1682-8.9305 2.8622-0.27259 6.2086-0.40788 7.943-0.40788v10.193c0 0.45504-0.16597 0.97422-0.50664 1.2666-0.87711 0.75401-2.2123 0.65979-3.2631 0.53669-0.54297-0.06375-1.0332-0.21767-1.5585-0.36495-0.27918-0.07914-1.0632-0.26761-1.2236 0.15887-0.31436 0.84634 1.196 1.7181 1.7346 2.0566 1.0552 0.66608 2.51 1.4207 3.774 1.4383 2.3148 0.03297 3.6048-1.3941 3.8642-3.3747 0.86613 0.85513 1.9098 1.3942 3.0441 1.2623 1.2091-0.14289 2.1542-0.92984 2.9368-1.8333 1.8554-2.1455 2.7188-4.7023 3.0441-7.5051 0.15388-1.3454 0.0543-2.697 0.11585-4.0445 0.044-0.91229 0.0453-2.0793 0.94886-2.5761 1.7191-0.94966 4.0427-0.35196 4.212 1.8419 0.24401 3.1765-0.40057 5.7735-0.16311 8.9434 0.10772 1.4047 0.30262 2.7192 1.039 3.9415 1.5498 2.572 4.8076 2.9011 7.4192 2.1339 1.508-0.44186 4.2664-1.4186 4.2334-3.452-0.0176-0.88811-0.97681-1.217-1.7088-0.85871-1.8114 0.87492-5.0381 1.235-6.4274-0.43794-0.81776-0.98923-1.5563-1.7446-1.4684-5.8048 0-1.9543 0.33317-3.8446 0.49805-5.7791 0.0703-0.82216 0.0468-1.7761-0.57963-2.3872-0.7584-0.74302-2.0745-0.75965-3.0527-0.77284-1.6883-0.03297-3.3737-0.02724-5.0664-0.05581-0.8881-0.01319-2.0189-0.01209-2.619 0.77713-0.49902 0.65509-0.43364 1.5167-0.43364 2.2927 0 2.9897 0.57114 5.9026-0.5324 8.7846-0.65729 1.7235-2.0588 3.0498-3.7053 3.8127-0.65729 0.31655-1.1344 0.27039-1.7346 0-0.34733-5.9969-0.74117-12.076 0.47228-17.99 0.39349-1.8927 0.12794-3.4305-2.1253-3.4305h-5.5516c0.30336-0.31655 0.78336-0.80522 1.434-1.4383 0.34733-0.31655 1.3897-1.3109 1.082-2.1682-0.45589-1.2599-1.5054-1.7985-2.1167-1.8548zm-54.764 1.1721c-0.57303-0.02229-1.205 0.10752-1.6831 0.38642-0.99362 0.57595-1.3649 1.2767-1.3825 1.7603-0.0682 1.5718 1.0926 2.1596 3.4778 2.1596 5.1088 0.18905 8.3741 0.19112 9.493-0.63544 0.55617-0.3781 0.25008-1.0921-1.3525-1.1163-2.8578-0.04397-5.1082-0.93506-7.6296-2.3486-0.25555-0.12612-0.57932-0.19272-0.9231-0.20609zm73.673 0.15028c-0.73255-0.01451-1.5414 0.33139-1.975 1.0304-0.57156 0.92328-0.12465 2.1929-0.21478 3.2459-1.0816 0.07914-3.051 0.10626-4.1304 0.0601-0.83975-0.03078-1.488-0.06797-2.3014 0.17604-0.99802 0.29457-1.9349 1.4825-1.5414 2.6191 0.30337 0.88591 1.4517 0.70514 2.164 0.57104 1.7388-0.59134 5.933-0.70843 12.829-0.70843 3.4315 0 4.3844 0.56692 5.822-0.35636 0.36052-0.22422 1.2703-1.0089 1.2966-1.5628 0.0594-1.1497-3.8373-0.75137-4.6198-0.75137h-5.1479c0.0682-1.5564 0.12157-3.5421-1.4899-4.1862-0.20994-0.08463-0.44707-0.13258-0.69125-0.13739zm-18.767 5.7705c0.52291-0.01451 1.0427-1.39e-4 1.5714 0.05153 0.79798 0.07694 2.0254 0.1408 2.3486 1.0948 0.23742 0.68806 0.1508 1.6448 0.13322 2.3614-0.0352 1.3102-0.12684 2.6184-0.21038 3.9286h-7.943c0.044-1.8048 0.17806-3.6577 0-5.5043-0.0835-0.85953 1e-3 -1.3053 0.8716-1.4856 0.54517-0.14948 1.0989-0.25387 1.6573-0.32202 0.52537-0.06375 1.0485-0.10996 1.5714-0.12451zm-47.911 0.57533c-0.26813-0.0012-0.52484 0.01033-0.75566 0.02576-1.0464 0.07035-5.2732 0.24387-7.4407 0.18892-1.2816-0.03297-3.1982-0.18312-4.0445 0.75995-0.55177 0.61772-0.78382 1.3344-0.22325 2.1983 0.987 1.519 8.5463-0.5168 9.1838 0.0086 0.55177 0.45724 0.49259 1.0843 0.17608 1.6272-0.72543 1.2574-1.8273 2.5468-3.0012 3.3404-1.3278 0.8881-2.5446 1.6221-3.9801 2.3013-2.0862 0.98923-3.4544 1.3193-6.1913 1.4512-0.79798 0.03737-1.1698 0.66127-0.9961 1.3911 0.15168 0.6441 0.70603 1.2166 1.2666 1.5156 0.80018 0.42867 1.8084 0.42451 2.6878 0.35636 2.0444-0.14948 2.961-0.99081 5.135-2.4988 2.1301-1.4706 2.7058-2.5031 3.3103-2.5031 0.99363-3e-6 0.25856 7.1842 0.0343 8.6944-0.2396 1.6355-0.7008 3.2506 0.34779 4.6971 0.79797 1.0991 2.5148 0.04298 2.9325-0.96604 0.244-0.58694 0.25689-1.2498 0.28766-1.8763 0.12311-2.55-0.0644-5.9878-0.15893-8.5312l-0.0686-2.4988c0.10112-0.78039 0.53097-1.266 1.2322-1.1077 0.36052 0.11651 2.459 1.467 3.7912 1.434 0.58914-0.01099 1.1638-0.44498 1.0605-1.0605-0.17147-1.0112-1.5596-1.3218-2.4301-1.8076-0.87052-0.49022-1.2802-0.8393-2.2584-1.5757l1.4684-2.1511c0.54298-0.69466 1.4208-1.779 0.79431-2.6319-0.46494-0.64135-1.3553-0.77782-2.1596-0.78142zm47.246 0.863c-0.12354-0.0053-0.25586 0.0084-0.3993 0.04293-0.65069 0.18026-1.3009 0.86018-1.3009 1.7131 0 0.8991 0.52645 1.5735 0.87158 2.1253 0.52099 0.8969 1.3009 1.3009 2.1253 1.3009 0.60673 0 0.86729-0.31583 0.86729-0.85441 0-0.62431-0.48626-1.3103-0.62256-1.9192-0.15607-0.67048-0.20641-1.4022-0.65262-1.9364-0.22917-0.27533-0.51801-0.45662-0.88877-0.47228zm60.036 0.49376c-0.25909 0.01517-0.53143 0.11561-0.82436 0.3349-1.3234 0.98483-1.3641 2.6008-0.13321 3.5636 1.985 1.552 7.3369 2.8555 9.4758 2.018 0.83974-0.32754-1.8254-1.6637-1.9793-1.7561-1.5322-0.8881-3.0199-1.8136-4.418-2.9325-0.68917-0.55232-1.3438-1.2735-2.121-1.2279zm-7.3548 0.15456c-0.6729 0.01253-1.3012 0.52597-1.8634 1.0519-1.1453 1.0706-2.3782 1.7062-3.6796 2.5504-1.0486 0.68147-3.1214 1.5108-3.3017 2.1725-0.11871 0.43526 0.87461 0.50406 1.3868 0.61397 1.6179 0.33414 3.3802-0.25377 4.886-0.87588 1.5366-0.62651 3.015-1.524 4.0745-2.9067 0.91669-1.1893 0.51201-1.7442-0.81576-2.4344-0.23357-0.1253-0.46267-0.17591-0.68696-0.17175zm-4.1905 8.5613c-1.0068-0.0029-2.0135 0.07265-2.6963 0.51093-0.9035 0.58035-1.0011 2.0129 0.0343 2.413 1.0574 0.40668 2.3248 0.20565 3.3404 0.13311 1.1893-0.08573 4.9044-0.83387 5.0363 0.85441 0.0923 1.2003 0.1552 3.2484-0.15037 4.4223-0.33633 1.2992-3.0697 0.77641-4.6327 0.80718-2.6291 0.05056-3.9368-0.03865-6.4274-0.03865-1.5234 0-3.7624 0.27688-4.8088 0.82865-1.0002 0.52979-1.8508 1.3178-1.7475 2.2455 0.12091 1.0882 1.1379 1.3488 2.048 1.2322 1.3695-0.18026 2.7243-0.56211 4.096-0.75995 4.7571-0.70125 8.1139-1.0022 12.915-0.92311 5.6672 0.09672 11.23 0.77586 16.826 1.5628 1.9345 0.27039 3.9062 0.18204 5.5-1.082 0.58035-0.46604 1.9505-1.4255 1.1635-2.34-0.58473-0.67707-1.5818-0.61346-2.4216-0.63544-3.9657-0.09453-7.6323 0.04794-11.545 0.01715-1.8751-0.01099-5.1476 0.14803-6.1698-0.21468-1.2178-0.43306-1.228-5.4878-0.39929-5.9165 1.0024-0.5144 4.2272-0.16212 6.3244-0.20609 0.96065-0.01759 2.351-0.43829 2.5203-1.8892 0.1385-1.1717-4.2742-0.9918-5.646-0.9918h-11.421c-0.53335 0-1.1348-0.0284-1.7389-0.03005zm-49.251 0.23185c-0.7058-0.05507-1.4453 0.5259-1.5242 1.2838-0.12091 1.1233 1.2612 2.2701 1.9493 2.9625 0.43087 0.42867 0.89145 0.81876 1.3267 1.2408 0.32095 0.30776 0.67971 0.85012 1.1721 0.85012 1.3168 0-0.48241-3.6029-0.69125-4.0359-0.23961-0.50121-0.54669-1.065-0.94458-1.5156-0.28138-0.31655-0.6093-0.57842-0.9918-0.72131-0.0976-0.03517-0.19543-0.05654-0.29627-0.06441zm-85.025 0.71272c-6.0585 0.01099-11.954 0.23614-12.095 0.23614-0.72104 0.04836-1.5298 0.13005-2.1167 0.62686-0.60013 0.5034-0.85919 1.4929-0.74707 2.2799 0.0945 0.6441 0.60377 1.9734 0.76425 2.5933 0.5056 1.9587 0.49365 2.1818 0.77283 3.8942 0.17586 1.0728 0.28691 2.2936 1.0519 3.0828 0.83755 0.86393 2.261 0.51749 3.2502 0.14599 0.44406-0.16927 0.91009-0.2788 1.3739-0.38212 0.69905-0.15608 1.4067-0.27472 2.1167-0.36924 2.4357-0.32095 4.9123-0.34492 7.3634-0.28337 2.6357 0.05716 5.2514 0.43372 7.797 1.1635 1.1431 0.32535 2.7497 0.60886 3.2201-0.45511 0.57595-1.2992 1.3158-4.4661 1.7818-6.7194 0.255-1.1915 0.86588-2.5555 0.74278-3.7998-0.0374-0.39129-0.42376-1.1917-1.945-1.5457-0.46164-0.10552-6.9564-0.48118-13.331-0.468zm-2.1554 2.7865c3.2898-0.01121 7.4879 0.03434 7.4879 0.03434 1.0772 0.01099 2.1495 0.07492 3.2244 0.17604 0.67707 0.06155 1.5332 0.22416 1.8806 0.91881 0.36052 0.72543 0.30347 1.4371 0.2705 2.224-0.033 0.82656-8e-3 1.7998-0.48947 2.4988-0.5034 0.72324-1.3387 0.70496-2.1081 0.66979-2.6467-0.11211-5.2596-0.49722-7.913-0.5324-1.996-0.02638-3.9957 0.11128-5.9852 0.30913-0.95625 0.09233-2.2789 0.42599-3.1429-0.16316-0.78919-0.54298-0.8641-1.7096-1.0004-2.5933-0.1297-0.84634-0.28856-1.6322 0.11591-2.4301 0.37371-0.74082 1.0287-0.80512 1.7432-0.89305 1.031-0.1319 2.0795-0.15823 3.1171-0.18461 0.70675-0.01978 1.7028-0.03064 2.7994-0.03434z"/>
	<path class="st1" d="m231.03 18.58c-5.8958 0-10.013 4.5383-10.013 11.039 0 6.4278 3.881 10.747 9.6647 10.747 6.2387 0 10.116-4.2512 10.116-11.094 0-5.322-3.019-10.691-9.7678-10.691zm48.285 0.38212v21.051h2.4774c0.9013 0 1.6315-0.74271 1.6315-1.6616v-7.0457h1.7475c3.9459 0 5.3023 7.1377 5.5859 8.7073h4.2334c-0.3869-1.7454-2.12-8.6853-4.8173-9.6218l-0.67409-0.27049 0.88875-0.36495c1.7608-0.65289 3.5422-2.4499 3.5422-4.9977 0-1.8795-0.62785-3.3301-1.8677-4.3193-1.2926-1.0442-3.3296-1.477-6.8138-1.477zm-159.98 0.0086c-1.1585 0-2.1017 0.95969-2.0995 2.1468l9e-3 11.206c0 3.6074-1.4414 4.345-3.6023 4.345h-4.5597v3.6967h5.0921c4.9198 0 7.2131-2.5511 7.2131-8.016v-13.379zm8.8146 0c-1.1607 0-2.1038 0.9576-2.1038 2.1425v10.279c0 6.2058 2.5168 8.9735 8.162 8.9735 5.821 0 8.5312-2.833 8.5312-8.9091v-12.486h-2.0652c-1.1629 0-2.1082 0.96398-2.1038 2.1511l0.0344 10.335c0 3.6909-1.2261 5.1995-4.2377 5.1995-2.8908 0-4.1819-1.6075-4.1819-5.1995v-12.486zm19.141 0v21.043h3.8126v-15.869l0.28767 0.0044c0.20224 0 0.38634 0.1095 0.48087 0.29196l7.6768 14.731c0.255 0.3825 0.71677 0.84153 1.4598 0.84153h3.774v-21.043h-3.6495v15.397h-0.0558c-0.32754 0-0.62752-0.1863-0.7814-0.48088l-7.1831-14.036c-0.3781-0.58474-0.88292-0.88017-1.4984-0.88017zm22.447 0v21.043h11.528c0.69027 0 1.2537-0.57382 1.2537-1.2795v-2.0781h-9.0164v-5.5344h6.8439c0.69026 0 1.2537-0.57162 1.2537-1.2795v-2.048h-8.0976v-5.47h7.7627c0.69027 0 1.2537-0.57162 1.2537-1.2795v-2.0738zm15.027 0 6.4918 12.404v8.6386h2.9668c0.7694 0 1.3997-0.63847 1.3997-1.4254v-7.2174l6.7666-12.4h-3.9586l-4.5297 8.3724-0.30913 0.25761-0.24902-0.10734-4.5554-8.5227zm24.336 0c-0.92328 0-1.7412 0.61642-2.0094 1.5199l-5.8091 19.523h4.0531l1.5113-5.2939h6.8997l1.5328 5.2939h4.3064l-6.4274-21.043zm47.057 0c-0.92548 0-1.7455 0.61642-2.0137 1.5199l-5.8092 19.523h4.0488l1.5156-5.2939h6.8997l1.5328 5.2939h4.3064l-6.4274-21.043zm15.757 0c-1.1607 0-2.1038 0.96189-2.1038 2.1468v18.896h4.1432v-21.043zm11.511 2.838h2.5031c2.4555 0 3.8599 1.2126 3.8599 3.3318 0 2.1345-1.5865 3.4606-4.1476 3.4606h-2.2155zm-52.488 0.54957c3.2535 0 5.4399 2.5101 5.4399 7.0671 0 4.6867-2.1359 7.3462-5.4399 7.3462-3.3436 0-5.5043-2.6223-5.5043-7.2475-2e-5 -4.6164 2.2113-7.1659 5.5043-7.1659zm-20.278 0.49376 2.4731 8.8661h-5.7233l2.2627-8.3466c0.0835-0.30556 0.35124-0.51302 0.6612-0.51522zm47.053 0 2.4731 8.8661h-5.7233l2.2541-8.3123c0.0879-0.32315 0.37222-0.54737 0.70416-0.54957z"/>
	<path class="st0" d="m65.88 46.841c-0.20444 0-0.40229-0.16267-0.40229-0.36272 0-0.20444 0.1253-0.36052 0.31655-0.36052 2.6687-0.20224 5.0099-0.75621 7.206-1.7169 2.7347-1.2354 4.6164-2.6357 5.355-4.0339 0.82216-1.475 0.66388-3.2798 0.1231-4.2713-0.55397-1.0046-1.8466-1.8048-2.9743-1.3212-0.82436 0.35832-1.2222 1.3212-0.8991 2.1499 0.27259 0.6463 0.97604 0.96505 1.596 0.72544 0.23522-0.12091 0.39569-0.27918 0.51-0.52099 0.08134-0.23961 0.08134-0.47703 0-0.72104l0.19784-0.47703 0.47263 0.20224c0.15388 0.43746 0.15388 0.87712 0 1.2772-0.19785 0.39569-0.51 0.71884-0.90789 0.91888-0.96944 0.39789-2.1082-0.07694-2.5412-1.1189-0.46824-1.1981 0.11211-2.5962 1.2882-3.1172 1.5366-0.6397 3.1743 0.32095 3.8778 1.6421 0.62871 1.1167 0.86393 3.1919-0.11211 4.9923-0.86612 1.5564-2.7852 2.9941-5.7199 4.3526-2.2642 1.0002-4.6889 1.5982-7.3862 1.7608m-1.6883 2.1961c0.93427-1.0816 2.3082-1.3234 3.3304-0.55836 0.8991 0.6375 1.1321 1.9191 0.46384 2.8292-0.51 0.765-1.5652 0.96285-2.3104 0.40229l-0.07254-0.47703 0.5078-0.11871c0.42207 0.31875 1.0112 0.19345 1.286-0.23961 0.42867-0.56056 0.27698-1.3959-0.31436-1.796-0.81336-0.60013-1.796-0.20004-2.3829 0.43966-0.8969 1.0376-2.3807 1.7147-3.7173 0.87931-1.0947-0.68367-1.4091-2.0774-0.74522-3.1985 0.23961-0.43746 0.66608-0.72104 1.1783-0.83974 0.46604-0.11651 0.97384-0.03957 1.4091 0.20004l0.10772 0.5144-0.49901 0.1253c-0.23522-0.15828-0.55177-0.20004-0.86173-0.15828-0.31655 0.07694-0.58914 0.27698-0.74742 0.55836-0.43306 0.75841-0.19565 1.7169 0.51 2.1939 1.0552 0.6419 2.1961 0 2.8578-0.75621m-7.4698-23.658c-1.2178 0.20224-3.3282 0.08353-5.7133-0.91449 1.5652-1.4377 3.3634-2.838 4.4581-3.0402 1.0552-0.19565 2.3807 0 2.7764 1.2816l0.04177 0.03957c-0.15828-0.20004-0.39129-0.36492-0.62651-0.43966-0.81776-0.40009-1.7257-0.08353-2.029 0.6397-0.31655 0.75621 0.07474 1.6377 0.8925 1.996 0.31875 0.16048 0.63091 0.20004 0.93867 0.11871-0.23302 0.16487-0.51 0.24181-0.73862 0.31875m-40.182 28.055c-1.2992 2.1191-0.98483 5.0363 0.11431 7.1906 1.5256 2.9193 4.579 3.603 6.142 4.0778-0.94087 1.3607-1.9938 4.1174-0.34953 6.9114 0.11211 0.19784 0.27039 0.43746 0.42427 0.71444 1.3344 2.0466 3.9129 4.0426 6.6586 5.6804 8.0171 4.4383 16.234 2.2379 19.132-0.1253 1.7169-1.4729 2.7742-2.794 4.0273-4.3504 1.0178-1.2047 2.0312-2.4753 3.4843-3.9591 3.2447-3.2359 8.5271-4.3922 12.018-2.594 2.0268 1.075 2.7654 2.561 3.0424 3.5942 0.31655 1.2376 0.11871 2.6006-0.54737 3.5964-0.81996 1.2025-2.6182 1.996-4.3438 1.9609 0.78039 0.27918 1.6839 0.31875 2.6687 0.03517 1.9916-0.5166 3.5502-2.2335 3.6689-4.8318 0.16487-2.9501-1.9938-5.5573-4.4625-5.876h0.71224c8.0193 0.60453 13.695-2.5544 13.814-9.0679 0.03078-3.2359-1.3344-5.5551-3.293-6.9576 1.4113 1.6817 1.9938 3.9525 1.8466 6.0805-0.32095 4.7483-4.0778 7.151-11.194 7.2324-1.4135 0-11.073-0.08134-20.424-0.16487-8.3821-0.03737-16.982-0.11651-19.292-0.11651-2.8907 0-6.4542 0.79798-6.7707 4.6362-0.07474 0.91888 0.23742 1.8707 0.86393 2.6357 0.73862 0.88371 1.796 1.4421 2.8578 1.5146 1.2069 0.1231 2.3082-0.31875 2.9699-1.1167 0.42867-0.59354 0.58914-1.2772 0.3891-1.8751v-0.04397c-0.46824-0.99582-1.3673-1.2354-2.073-0.55617 0.23742 0.84414-0.42867 1.5982-1.4465 1.4003-0.62651-0.08793-1.9587-1.0816-1.0596-2.6753 0.54737-1.0046 1.4113-1.4047 4.9681-1.3629 2.8182 0.04177 18.907 0.31875 29.305 0.40009-1.0508 0.27918-1.9125 0.67487-2.5434 1.0398-1.796 1.0772-4.612 3.2754-5.7089 5.4342-0.19125-2.3214-1.5234-4.6758-3.7525-5.3506-2.1191-0.6397-3.9108-0.23961-5.2429 1.0728-0.27479 0.24841-0.46824 0.52319-0.66608 0.79798 0.81776-0.6375 1.9125-1.0354 3.2073-1.075 1.7213-0.08353 3.326 0.71444 4.3086 2.2005 0.97164 1.4707 1.0882 3.3106 0.3847 4.911l-0.46824 0.19785-0.19345-0.47923c0.62431-1.3937 0.51-2.9545-0.31436-4.1921-0.85953-1.2816-2.2335-2.0004-3.6821-1.9235-1.5586 0.08573-2.8116 0.68586-3.5129 1.6421-0.35612 0.56496-0.55397 1.1541-0.55397 1.7982 0 0.19785 0 0.35612 0.03957 0.5166l0.03957 0.24181 0.03957 0.04616c0.23522 1.0728 0.93647 2.2313 1.7235 2.55 0.93647 0.36272 1.996-0.55836 1.8004-1.1563-0.54737-0.1209-0.86393-0.71884-0.78039-1.1145 0.07254-0.40229 0.57595-1.0838 1.3212-1.1233 0.70565-0.03957 1.7696 0.39569 1.7696 1.8378 0.03298 0.83974-0.58914 1.8795-1.6091 2.561-0.93867 0.6375-2.4247 1.4707-6.652 1.3146-4.3372-0.16047-7.7028-1.519-9.3889-2.6775-0.66608-0.48142-1.5212-1.275-2.0378-1.7564 1.2596-0.36272 2.1983-1.042 2.7061-1.9169-0.82436 0.83755-2.04 1.275-3.326 1.1937-1.2926-0.11651-2.5082-0.76061-3.3656-1.796-0.74522-0.92108-1.1365-2.0378-1.0222-3.1963 0.27698-3.3985 2.9435-5.2759 7.4764-5.2759 2.3104 0 10.956 0.03737 19.292 0.11871 9.3515 0.08134 19.011 0.16487 20.424 0.16487 6.6542-0.08353 10.171-2.2774 10.481-6.5553 0.23742-3.2754-1.3717-6.9158-5.3638-7.672-1.8356 0.99802-3.9086 1.6333-5.2011 1.8378-0.19125 0.04177-0.3913-0.11871-0.3913-0.32095-0.03957-0.20004 0.08134-0.39789 0.27259-0.39789 1.1409-0.20444 2.9017-0.72104 4.5021-1.5212 0.78259-0.44186 1.5234-0.87931 3.4821-2.2335 3.0095-2.1213 5.1286-6.0343 3.0512-9.7934-1.8026-3.2337-5.5902-3.6008-7.5511-1.9565-1.2091 1.042-1.3651 2.7962-0.93867 3.8382 0.39789 1.0002 1.3344 1.8356 2.3126 1.9103-0.20004 0.36492-0.43306 0.60453-0.74522 0.80897-2.1939 2.0334-5.2891 2.1148-9.8681 2.1521l-1.0508 0.04397h-0.58694c-2.5874 0-6.8784 0.03957-8.9976 2.9963-0.8991 1.1959-1.0618 2.7918-0.47263 3.9921 0.83095 1.596 2.8951 2.4775 5.9134 2.4775 0.19125 0 0.35172 0.19785 0.35172 0.40009 0 0.19785-0.16047 0.35832-0.35172 0.35832-4.2317 0-5.8672-1.5982-6.5333-2.9127-0.70785-1.4421-0.51-3.3194 0.5078-4.7615 2.3434-3.2359 7.0389-3.271 9.5823-3.3106h1.6377c3.1787-0.03957 5.5639-0.08134 7.4368-0.7628-1.5256 0.11871-3.6382 0.08353-6.6454 0.08353-6.4212 0-12.798-0.40448-14.711 5.2759-2.3895 0.07694-3.5568 0.07694-4.7769 0.07694 0.46604-2.5588-0.47043-5.5573-2.616-6.0739l0.15168 0.08134c1.1343 1.0354 2.1917 3.3194 1.2882 6.4718-0.85953 3.0336-4.1855 4.634-7.8611 3.7964-0.19565-0.04177-0.31436-0.23961-0.26819-0.44405 0.03517-0.19785 0.22422-0.31875 0.42647-0.27479 3.3194 0.76061 6.2629-0.6419 7.0015-3.2776 0.74082-2.6379 0-4.7549-1.0552-5.7155-0.66608-0.55617-1.4113-0.67268-2.0708-0.35832h-0.04616c-0.77819 0.5188-0.8991 1.3981-0.81996 1.9982 0.70565-0.27918 1.8422-0.19785 2.073 0.95625 0.23742 1.1211-0.78039 2.2796-2.6995 1.8004-1.6047-0.43526-2.4599-3.0358-1.2926-5.3506 1.0222-2.04 2.8973-3.1194 4.2691-3.7942-0.31655-0.84414-0.27698-1.7674 0.07694-2.5654 0.35172-0.79578 1.0178-1.4333 1.8048-1.7542 0.70345-0.23522 1.4025-0.23522 2.0708 0.07914 0.65948 0.28358 1.1739 0.83974 1.4069 1.5168 0.23522 0.56056 0.19565 1.1981-0.04177 1.7147-0.23082 0.56496-0.70565 1.009-1.2508 1.2091-0.42427 0.19565-0.93867 0.15828-1.4091-0.04616-0.42647-0.19785-0.776-0.56056-0.97384-1.0376-0.11871-0.39789-0.11871-0.83755 0.03737-1.2047 0.19125-0.39349 0.46824-0.67487 0.86393-0.83315 0.19345-0.08573 0.3869 0 0.46384 0.19784 0.07914 0.20664-0.03957 0.40229-0.19784 0.48142-0.23302 0.07914-0.3913 0.23742-0.46824 0.43966-0.08134 0.19785-0.11211 0.43966-0.03957 0.6375 0.11651 0.32095 0.35612 0.52099 0.62871 0.6397 0.27479 0.16048 0.58914 0.16048 0.86173 0.03737 0.35173-0.15608 0.66608-0.43086 0.81776-0.79358 0.15388-0.36492 0.19785-0.80677 0.04616-1.2003-0.19784-0.47703-0.55397-0.87931-1.02-1.1211-0.5166-0.19125-1.02-0.19125-1.5256-0.03297-0.62651 0.27479-1.1365 0.75181-1.4069 1.3937-0.27698 0.6375-0.31655 1.3234-0.08134 1.9982 0.47043 1.3146 2.4643 2.1961 4.0339 1.5586 2.106-0.91888 3.1633-2.9941 6.0607-4.4361 3.4447-1.7586 5.5177-1.5608 6.5333-1.0046 1.486 0.84634 0.93647 2.8072 0 2.9611-0.93647 0.15608-1.3739-0.36052-1.2486-0.83974-0.81996-0.08354-1.2992 0.76061-1.0618 1.319 0.24181 0.55836 1.4926 1.6421 3.5656 1.4047 2.1104-0.28798 3.5568-2.1587 3.7151-3.9239 0.15828-1.8312-0.3891-3.0336-1.1761-3.8712 1.2091-0.08354 3.6821 0.07914 4.5065 0.20224 1.6773 0.23961 2.6555 0.99362 2.6951 1.796 0 0.63311-0.74302 1.3541-1.3739 0.71884-0.776 0.19785-1.0882 0.87492-0.85733 1.5586 0.35612 1.1211 2.0708 1.4003 3.2864 0.96065 1.1365-0.40229 2.1521-1.6773 2.5082-2.9963 0.46604-1.8817 0.07914-4.3988-2.1521-6.2409-2.2357-1.8729-5.2429-1.7125-7.2455-1.8729-2.1455-0.16707-1.4509-0.56496-1.9147-2.5984-0.31436-1.5212-1.7169-3.2359-4.1833-3.7173-2.4621-0.52099-4.1921-0.24181-7.5533 1.519-3.2842 1.6817-5.909 3.4777-8.0567 4.3174-2.1565 0.80237-3.9547 1.2003-4.9308 0.71884-0.86393-0.43966-0.74522-1.3585-0.43306-1.7608 0.30996-0.39789 0.9035-0.83755 1.5652-1.1563-0.31216-0.67927-0.9013-1.4772-1.2157-1.9587-0.23302 0.04177-0.54078 0.15828-0.93867 0.27698l-1.0904 0.56496c-1.6817 0.91449-3.4821 3.2732-2.2752 5.7507 0.98044 2.0444 3.9547 2.6753 7.9402 1.7235 3.3766-0.80018 6.8169-3.0007 9.5889-4.7989 0.9035-0.55836 1.8026-1.1189 2.5478-1.5586 1.6377-0.91888 3.3238-1.1585 4.612-0.60013 0.98483 0.39789 1.6509 1.1981 1.9631 2.2818l-0.27259 0.43086c-0.19565 0.08573-0.39569-0.03517-0.43306-0.23302-0.23522-0.87931-0.78699-1.4816-1.5322-1.8004-1.0969-0.47483-2.5368-0.28138-3.9877 0.55617-0.74522 0.44405-1.6047 0.96285-2.506 1.563-2.8534 1.796-6.3377 4.0317-9.8175 4.8714-4.3394 1.0464-7.6346 0.23961-8.7624-2.1126-0.9035-1.8422-0.35612-3.636 0.62651-4.9989-0.47483 0.36052-0.9035 0.72324-1.2157 1.086-1.2926 1.5916-0.82216 3.9129-0.07914 4.9461-1.8004 0.32535-3.8338 0.72104-6.2211 1.8817-2.3917 1.1211-4.7351 2.7545-6.1002 4.4757-1.4553 1.7147-2.04 3.315-2.3104 5.1902-0.23961 1.4421 0.08134 3.1238 0.69905 4.1174 0.66828 1.0816 2.04 2.0774 3.7591 2.2005 1.4113 0.12091 3.0138-0.32315 3.8338-1.4025 0.54737-0.67048 0.82436-1.4794 0.94087-2.3148-0.5122 1.1981-1.4113 2.1148-2.4247 2.4753-2.1543 0.80237-4.2713 0.07914-5.322-1.7586-1.2926-2.3544-0.42647-5.5155 2.073-7.7094 1.2596-1.1541 5.9464-4.8362 12.444-4.8714 0.19345 0 0.35392 0.15828 0.35392 0.35612l-0.35392 0.36272c-6.2233 0.03957-10.763 3.592-11.976 4.7153-2.2708 1.9543-3.0534 4.7505-1.9147 6.7861 0.85953 1.5212 2.6599 2.0752 4.4559 1.4443 0.9035-0.32095 1.6905-1.2025 2.0796-2.3214 0.27698-0.75621 0.30996-1.4772 0.14948-1.996-0.27039-0.47923-0.53858-0.87931-0.77819-1.075-0.3891 0.39569-0.86393 0.79578-1.1761 0.99143 0.07694 0.80237 0.23961 1.4421-0.19125 1.8839-0.39569 0.39789-1.1387 0.55617-1.6421-0.08353-0.70565-0.92108-0.23742-2.7545 0.70125-3.7547 0.94087-0.96505 2.3478-1.9609 3.7195-2.5566 1.33-0.56056 2.7017-0.91668 3.9481-0.6419-1.2157 1.5212-2.6577 3.9173-3.2073 5.5573-0.54737 1.6355-1.6443 6.1904 0.31655 9.9868 2.3785 4.6362 6.2189 7.9138 14.904 7.9952h1.4838c-2.9765-0.47483-5.4737-1.1629-7.4654-2.1213-4.5812-2.1565-6.9686-5.6738-7.3599-10.71-0.54518-7.1928 4.8516-11.422 10.097-12.983l0.46384 0.23522c0.04616 0.20444-0.07914 0.40229-0.23082 0.48362-5.0077 1.4772-10.132 5.4298-9.6285 12.185 0.70565 9.2724 8.415 13.108 25.784 12.829l0.11871 0.03737c5.9486-0.07694 11.345-0.15608 12.792-0.15608 1.4904 0 3.1765 0.03957 3.1765 1.2354 0.62651-0.23522 0.85513-0.60013 0.85513-0.91449 0-0.6375-0.85513-1.3585-2.2225-1.4794-1.7235-0.16267-5.0143-0.11651-8.5271-0.08134-4.1526 0.03737-8.5008 0.08134-11.117-0.16048-0.20224 0-0.35392-0.19784-0.31436-0.39789 0-0.19785 0.19125-0.32315 0.3869-0.32315 2.583 0.24841 6.8916 0.20004 11.044 0.15828 3.5129-0.03297 6.8411-0.07914 8.5601 0.04177 1.6839 0.15828 2.9369 1.1233 2.8973 2.2423 0 0.39789-0.19785 1.5564-2.4687 1.9543-0.50121 0.1231-1.2135 0.16267-2.1851 0.23961-2.5434 0.19784-33.493-0.07694-37.333-0.03737-2.5038 0.03737-6.7268 0.47703-8.0193-0.32095-1.2552-0.83535-1.8751-1.7586-1.3607-2.8732 0.30336-0.7694 2.1389-0.72324 2.2181 0.6353 0.86612 0.56276 2.0004 0.03957 2.2313-1.319v-0.36272c-0.11431-0.76061-0.50341-1.319-1.1717-1.7542-1.1387-0.80237-2.8182-0.96285-3.9107-0.68147-0.98263 0.23961-1.9169 0.96065-2.5412 2.0026-0.70565 1.1167-0.94526 2.4335-0.70565 3.5173 0.51 2.3148 2.3829 4.0756 4.6516 4.3944 0.20004 0.03517 0.35832 0.19345 0.31436 0.39349l-0.3913 0.32095c-2.583-0.36272-4.6933-2.3544-5.2803-4.9505-0.27259-1.2794 0-2.8006 0.78039-4.0866 0.74302-1.1893 1.84-2.0312 3.0138-2.3126 1.0222-0.23742 2.5412-0.16048 3.8382 0.40009-0.74522-0.67927-1.6861-1.2003-2.6248-1.275-2.539-0.23961-4.7659 1.0794-6.098 3.2359m32.552 25.016c-2.2313 1.8751-7.6324 3.6316-13.695 2.4753 1.0552 0.39569 1.9521 0.68367 2.6599 0.83974 3.5964 0.71884 6.8828 0.40009 9.5494-0.52099 3.0095-1.0794 6.0585-3.5942 8.6854-6.0717 3.049-2.8732 5.8628-5.2737 8.2546-5.5155 1.84-0.15828 3.0512 0.52319 3.1765 1.6773 0.14948 1.6399-1.8422 1.5168-1.73 0.56056-0.54737-0.35832-1.1365-0.28138-1.4904 0.15608-0.46824 0.56056-0.46824 1.84 0 2.6401 0.5144 0.56276 1.2926 0.68147 1.7674 0.72324 1.486 0.07034 3.1238-0.6441 3.8338-1.6421 0.3891-0.6397 0.73862-1.7608 0.42427-3.0336-0.23082-0.88151-0.85953-2.1631-2.7017-3.0798-2.7413-1.4333-7.7797-0.92548-11.152 2.4357-1.4399 1.4794-2.4621 2.7215-3.4381 3.9151-1.2091 1.5234-2.35 2.9193-4.1438 4.4405m0.07694-68.45c-21.64 0-39.169 17.898-39.169 39.958 0 22.093 17.529 40.042 39.169 40.042 21.636 0 39.171-17.949 39.171-40.042 0-22.06-17.536-39.958-39.171-39.958m0 77.753c-20.426 0-37.013-16.936-37.013-37.795 0-20.816 16.586-37.76 37.013-37.76 20.389 0 36.969 16.944 36.969 37.76 0 20.86-16.579 37.795-36.969 37.795m0-74.838c-20.029 0-36.311 16.623-36.311 37.043 0 20.462 16.283 37.078 36.311 37.078 19.991 0 36.267-16.617 36.267-37.078 0-20.42-16.276-37.043-36.267-37.043m-35.612 37.043c0-20.059 15.927-36.327 35.612-36.327 19.642 0 35.601 16.267 35.601 36.327 0 20.097-15.96 36.362-35.601 36.362-19.686 0-35.612-16.265-35.612-36.362"/>
</svg>
