<svg version="1.1" viewBox="0 0 412.39 100" xmlns="http://www.w3.org/2000/svg">
	<g fill="none" fill-rule="evenodd">
		<path d="m32.635 54.358h-7.5449l-7.5449 7.5213v-7.5213h-7.5449v20.053h7.5436v-7.5213l7.5449 7.5213h10.06l-11.317-11.281 8.8024-8.7735zm10.063 0h-7.5476v20.054h20.122v-5.0563h-12.575zm35.21 0-3.7712 11.281-3.7738-11.279h-12.575v20.053h7.5462v-15.04l5.0286 15.04h7.5449l5.03-15.04v15.04h7.5462v-20.054h-12.578zm-32.696-11.279a4.3933 4.3933 0 0 0 4.4012-4.3867 4.3933 4.3933 0 0 0-4.4012-4.3854 4.3933 4.3933 0 0 0-4.4012 4.3854 4.3933 4.3933 0 0 0 4.4012 4.3867zm5.6587-4.3867a4.3933 4.3933 0 0 0 4.4012 4.3867 4.3933 4.3933 0 0 0 4.4038-4.3867 4.3933 4.3933 0 0 0-4.4025-4.3854 4.3933 4.3933 0 0 0-4.4012 4.3854zm-11.317 0a4.3933 4.3933 0 0 0-4.4025-4.3854 4.3933 4.3933 0 0 0-4.3999 4.3854 4.3933 4.3933 0 0 0 4.3999 4.3867 4.3933 4.3933 0 0 0 4.4025-4.3867zm-4.4025 10.654h30.184v-5.0142h-30.184v5.0129zm30.184-15.041a4.3933 4.3933 0 0 0-4.4025 4.3854 4.3933 4.3933 0 0 0 4.4025 4.3867 4.3933 4.3933 0 0 0 4.3999-4.3867 4.3933 4.3933 0 0 0-4.3999-4.3854zm-16.35 0.62611h2.515v-2.5058h2.515v-2.5058h-2.515v-2.5058h-2.515v2.5045h-2.515v2.5058h2.515zm68.861 21.834h-3.6238c-0.14863 0-0.23676 0.11838-0.23676 0.23676v8.1211c0 0.17758 0.0579 0.23677 0.2657 0.23677h3.3871c2.9398 0 4.663-1.1825 4.663-4.4591 0-3.0122-1.6929-4.1355-4.4551-4.1355m8.2868 17.542c0 0.11838-0.0881 0.20651-0.20783 0.20651h-3.0595c-0.23676 0-0.32621-0.08813-0.41565-0.2657l-4.1881-6.3493c-0.0592-0.08813-0.14864-0.20651-0.32621-0.20651h-3.683c-0.17889 0-0.23808 0.05919-0.23808 0.23677v6.2901c0 0.20651-0.0894 0.29464-0.26834 0.29464h-2.6123c-0.20783 0-0.26702-0.08813-0.26702-0.29464v-19.461c0-0.23676 0.11838-0.3249 0.26702-0.3249h7.2477c3.8908 0 7.1582 1.535 7.1582 6.2888 0 3.5147-1.7521 5.5522-4.0092 6.4098 1.0983 1.7126 4.5748 7.028 4.5748 7.028 0.0289 0.05919 0.0289 0.08813 0.0289 0.14732m10.898-14.53c-2.9412 0-5.347 1.5942-5.347 6.4676 0 4.2526 2.198 6.0546 5.4062 6.0546 3.2082 0 5.4351-1.8612 5.4351-6.0546 0-4.9024-2.465-6.4676-5.4943-6.4676m0 15.032c-4.367 0-8.4959-2.7754-8.4959-8.5643 0-6.0244 3.683-8.7998 8.5249-8.7998 4.8708 0 8.5551 2.7162 8.5551 8.7998 0 5.7297-3.9803 8.563-8.5841 8.563m22.394-3.9856c-0.86156 2.9227-2.4663 6.7912-4.8721 9.1549a0.51825 0.51825 0 0 1-0.41565 0.20651h-2.7925c-0.11838 0-0.23677-0.08813-0.23677-0.20783 0-0.02894 0.0289-0.08681 0.0592-0.146 0.86157-0.79843 3.2674-3.4555 3.5344-5.0207v-0.03025c0-0.17757-0.11838-0.2657-0.23677-0.2657h-1.6337c-0.17889 0-0.26833-0.08813-0.32753-0.23676l-5.4364-16.389c0-0.03025-0.0289-0.05919-0.0289-0.05919 0-0.11838 0.14864-0.17626 0.29728-0.17626h2.7623c0.17889 0 0.26834 0.02894 0.32753 0.2052l4.4551 13.969c0.0592 0.20783 0.20783 0.23677 0.32621 0.23677h0.6248c0.11838 0 0.20651-0.02894 0.26702-0.20783l3.9198-13.998c0.0303-0.11707 0.14864-0.2052 0.29728-0.2052h2.6439c0.11838 0 0.20783 0.08813 0.20783 0.2052v0.03025zm17.255-4.5183c0-0.17757-0.0592-0.29596-0.32621-0.29596h-4.0119c-2.0493 0-4.1276 0.2657-4.1276 2.7478 0 2.9227 2.1388 3.3068 3.9803 3.3068h4.1592c0.26701 0 0.32621-0.05919 0.32621-0.29596zm3.1174 7.5002c0 0.23676-0.0579 0.35515-0.35515 0.41434-2.2585 0.23676-5.5548 0.5906-7.1885 0.5906-3.3266 0-7.2476-1.0641-7.2476-6.0533 0-4.7853 4.6038-5.1694 7.0701-5.1694 1.2167 0 3.6528 0.23677 4.5446 0.35515 0-3.3976-1.9901-3.9869-4.9616-3.9869-1.5732 0-3.0293 0.11838-4.1276 0.20651h-0.0894c-0.17889 0-0.26702-0.08813-0.29727-0.23677l-0.29727-1.802v-0.02894c0-0.14732 0.11838-0.23677 0.29727-0.23677a43.118 43.118 0 0 1 4.9905-0.35383c4.6038 0 7.6633 1.418 7.6633 5.9954v10.306zm7.2766 0.70898h-2.5847c-0.17889 0-0.26702-0.05788-0.26702-0.29464v-22.09c0-0.20651 0.0881-0.2657 0.26702-0.29464l2.5544-0.29596c0.23677 0 0.29728 0.08813 0.29728 0.29596v22.385c0 0.20651-0.0592 0.29464-0.26702 0.29464m22.514-17.748h-4.2197c-0.23677 0-0.32621 0.11838-0.32621 0.29464v14.707c0 0.20783 0.0592 0.29596 0.29595 0.29596h4.3078c3.5054 0 6.298-2.2151 6.298-7.7672 0-5.493-2.5558-7.5305-6.3572-7.5305m-0.5656 17.748h-6.861c-0.20782 0-0.26702-0.05788-0.26702-0.29464v-19.461c0-0.23676 0.0894-0.3249 0.26702-0.3249h7.2779c5.2575 0 9.6837 2.0664 9.6837 9.4206 0 8.15-4.4551 10.66-10.099 10.66m27.353-0.53009c-1.8113 0.29464-4.3657 0.70767-6.415 0.70767-5.0497 0-7.7238-1.6837-7.7238-6.7334v-10.01c0-0.17889 0.0908-0.29596 0.29728-0.29596h2.5255c0.20651 0 0.32621 0.08813 0.32621 0.2657v10.187c0 2.8938 1.3969 4.0461 4.4262 4.0461 1.1286 0 2.4347-0.08813 3.4462-0.17626 0.17758-0.03025 0.29596-0.08944 0.29596-0.29596v-13.761c0-0.20651 0.0592-0.2657 0.29727-0.2657h2.5255c0.20783 0 0.32621 0.08813 0.32621 0.2657v15.682c0 0.2052-0.0894 0.35383-0.32752 0.38277m13.573 0.14864c-0.0592 0.17626-0.14995 0.23545-0.35777 0.2657-1.2759 0.14732-2.0191 0.2657-3.0595 0.2657-2.8215 0-4.0684-1.2404-4.0684-4.2236v-10.483c0-0.20783-0.0894-0.29596-0.29728-0.29596h-2.0191c-0.20915 0-0.29727-0.11838-0.29727-0.32358v-1.418c0-0.17757 0.0881-0.2657 0.29727-0.2657h2.0493c0.17757 0 0.26702-0.08944 0.26702-0.29596v-3.8685c0-0.20783 0.0592-0.29596 0.29595-0.35515l2.5255-0.26439c0.20783 0 0.32753 0.08813 0.32753 0.29464v4.1934c0 0.20651 0.0592 0.29596 0.29727 0.29596h3.2069c0.23808 0 0.29727 0.08813 0.29727 0.29596v1.4166c0 0.17757-0.0592 0.2657-0.29727 0.2657h-3.2069c-0.20914 0-0.29727 0.11838-0.29727 0.3249v9.6863c0 1.7126 0.26702 2.4203 2.4939 2.4203h1.8126c0.26702 0 0.29727 0.11838 0.29727 0.29596zm15.413 0.23414c-1.0983 0.11838-2.9398 0.35515-4.4841 0.35515-5.5548 0-8.9708-2.6873-8.9708-8.7998 0-6.319 4.5143-8.446 8.9405-8.446 1.3364 0 3.2674 0.17757 4.3959 0.3249 0.20915 0.02894 0.29728 0.08813 0.29728 0.3249l-0.29728 1.6534c-0.0289 0.17757-0.0894 0.29596-0.26701 0.29596h-0.0592a45.384 45.384 0 0 0-3.6238-0.11838c-3.6238 0-6.1493 1.5653-6.1493 5.9349 0 4.6077 2.5255 6.173 6.1493 6.173 1.5745 0 2.9701-0.05919 4.0684-0.11838h0.0908c0.17626 0 0.23676 0.08813 0.23676 0.2657v1.8599c0 0.17758-0.0605 0.23677-0.32752 0.29596m18.682-0.14732c0 0.23676-0.0592 0.29464-0.29727 0.29464h-2.5531c-0.23809 0-0.29728-0.05919-0.29728-0.29464v-9.7745c0-3.1898-1.7534-4.4591-4.634-4.4591-1.7521 0-2.6149 0.05788-3.7422 0.2052-0.20914 0.03025-0.29727 0.08944-0.29727 0.29596v13.732c0 0.20651-0.0592 0.29464-0.26834 0.29464h-2.5834c-0.23677 0-0.26702-0.05919-0.26702-0.29464v-22.061c0-0.23676 0.0592-0.29464 0.26702-0.29464l2.5544-0.3249c0.20914 0 0.29727 0.05919 0.29727 0.3249v5.7876c0 0.20651 0.14732 0.20651 0.3854 0.20651 0.80237-0.11707 2.7925-0.32358 4.1592-0.32358 4.9892 0 7.2766 2.0375 7.2766 7.1766zm23.075-17.217c0-0.11838-0.11838-0.23676-0.26702-0.23676h-2.3177c-0.17757 0-0.29596 0.05919-0.32621 0.23676l-2.1388 7.9448v0.05788c0 0.11838 0.0894 0.17757 0.20914 0.17757h6.8307c0.0894 0 0.14863-0.05919 0.14863-0.14864v-0.08813l-2.1388-7.9448zm7.8725 17.305c0 0.11838-0.0894 0.20651-0.20914 0.20651h-2.6439c-0.17757 0-0.35515-0.08813-0.3854-0.29464l-1.7521-6.4387c-0.0303-0.17757-0.0894-0.2657-0.26702-0.2657h-8.05c-0.20783 0-0.26834 0.05919-0.32753 0.23677l-1.7521 6.4374c-0.0592 0.26702-0.17757 0.3249-0.3854 0.3249h-2.3466c-0.17889 0-0.32752-0.08813-0.32752-0.2657 0-0.02894 0.0303-0.05919 0.0303-0.08813l5.197-19.461c0.0303-0.14864 0.20915-0.2657 0.35778-0.2657h7.2477c0.17758 0 0.35515 0.11838 0.41566 0.3249l5.1681 19.402c0 0.05919 0.0302 0.08813 0.0302 0.14732zm5.7297 0.20651h-2.5847c-0.17889 0-0.26834-0.08813-0.26834-0.29464v-16.271c0-0.17889 0.0894-0.29596 0.29859-0.29596h2.5242c0.23808 0 0.29728 0.08813 0.29728 0.2657v16.303c0 0.20651-0.0592 0.29464-0.26702 0.29464zm0.26702-19.933c0 0.20651-0.0592 0.29464-0.26702 0.29464h-2.5847c-0.14864 0-0.26834-0.08813-0.26834-0.3249v-2.4203c0-0.20783 0.0894-0.29596 0.26834-0.29596h2.5847c0.20782 0 0.26702 0.08813 0.26702 0.29464zm11.879 5.4035c-1.3075 0-2.2861 0.08945-3.5646 0.17757-0.23677 0.02894-0.32621 0.11838-0.32621 0.29596v13.761c0 0.20651-0.0592 0.29464-0.26702 0.29464h-2.5847c-0.14733 0-0.26702-0.08813-0.26702-0.29464v-15.653c0-0.20651 0.0894-0.32358 0.29727-0.38277 2.0191-0.2657 4.3354-0.59191 6.7426-0.67873 0.17889 0 0.26702 0.11707 0.26702 0.29464v1.9481c0 0.14864-0.0881 0.23677-0.29728 0.23677m6.2664 14.53h-2.5847c-0.17757 0-0.26702-0.05788-0.26702-0.29464v-22.09c0-0.20651 0.0894-0.2657 0.26702-0.29464l2.5544-0.29596c0.23808 0 0.29727 0.08813 0.29727 0.29596v22.385c0 0.20651-0.0592 0.29464-0.26702 0.29464m8.0487 0h-2.5847c-0.17758 0-0.26834-0.08813-0.26834-0.29464v-16.271c0-0.17889 0.0908-0.29596 0.29859-0.29596h2.5242c0.23808 0 0.29728 0.08813 0.29728 0.2657v16.303c0 0.20651-0.0592 0.29464-0.26702 0.29464zm0.26702-19.933c0 0.20651-0.0592 0.29464-0.26702 0.29464h-2.5847c-0.14864 0-0.26834-0.08813-0.26834-0.3249v-2.4203c0-0.20783 0.0908-0.29596 0.26834-0.29596h2.5847c0.20782 0 0.26702 0.08813 0.26702 0.29464zm19.424 19.933h-2.5847c-0.20782 0-0.26702-0.05788-0.26702-0.29464v-10.07c0-3.249-1.6337-4.1644-4.8405-4.1644-1.0102 0-2.4952 0.11838-3.4462 0.20651-0.23677 0-0.26702 0.05919-0.26702 0.29596v13.732c0 0.23676-0.0894 0.29464-0.29859 0.29464h-2.5834c-0.20782 0-0.29595-0.05788-0.29595-0.29464v-15.653c0-0.23545 0.0592-0.29464 0.32621-0.35252 2.3769-0.35515 5.0497-0.68004 6.682-0.68004 4.8721 0 7.8435 1.4166 7.8435 6.4085v10.277c0 0.20651-0.0605 0.29464-0.26834 0.29464m11.79-14.618c-2.9109 0-4.7827 1.5955-4.7827 4.8721 0 0.23677 0.0605 0.29596 0.26702 0.29596h9.2076c0.20915 0 0.32753-0.02894 0.32753-0.2657-0.0881-3.3068-2.0493-4.9024-5.0194-4.9024m7.9316 7.5015h-12.417c-0.17888 0-0.26701 0.02894-0.26701 0.29464 0.11838 3.7225 2.6439 4.5485 6.298 4.5485 1.3654 0 2.8806-0.11838 4.4841-0.23676 0.11838 0 0.26702 0.03025 0.26702 0.20651v0.05919l-0.26702 1.802c-0.0592 0.2052-0.14864 0.2052-0.35646 0.26439a36.796 36.796 0 0 1-5.1378 0.3854c-5.0799 0-8.4959-2.0967-8.4959-8.6814 0-6.3506 3.683-8.5065 8.1395-8.5065 5.4351 0 8.0185 3.0122 8.0185 9.568 0 0.20651-0.0881 0.29596-0.26702 0.29596m8.5814 7.3226c-1.4259 0-3.0885-0.14732-4.8405-0.44328-0.23808-0.05788-0.29727-0.11707-0.29727-0.32358v-1.802c0-0.14732 0.0881-0.23676 0.23676-0.23676h0.0894c0.80237 0.03025 2.7031 0.17757 4.2776 0.17757 2.1085 0 4.634-0.08813 4.634-2.3913 0-3.9882-9.418-2.1861-9.418-7.8856 0-3.4844 3.6843-4.3118 6.8925-4.3118 1.4259 0 3.2082 0.23677 4.5446 0.44459 0.20782 0.05788 0.32752 0.17494 0.32752 0.32358l-0.29859 1.7126c0 0.11838-0.0881 0.20651-0.26702 0.20651h-0.0592c-0.94969-0.08813-2.465-0.26439-4.2473-0.26439-1.7521 0-3.7422 0.08813-3.7422 1.9191 0 3.1595 9.3864 1.7429 9.3864 7.5897 0 3.7488-2.8806 5.2864-7.2187 5.2864" fill="#00a1de" fill-rule="nonzero"/>
	</g>
</svg>
