<svg version="1.1" viewBox="0 0 100 100" xmlns="http://www.w3.org/2000/svg">
	<circle cx="50" cy="50" r="50" fill="#00a1de"/>
	<path d="m48.805 27.414v2.5078h-2.5117v2.5078h2.5117v2.5098h2.5098v-2.5098h2.5117v-2.5078h-2.5117v-2.5078h-2.5098zm-13.732 6.8984a4.3843 4.3843 0 0 0-1.6836 0.33203 4.3843 4.3843 0 0 0-1.4258 0.95117 4.3843 4.3843 0 0 0-0.95312 1.4258 4.3843 4.3843 0 0 0-0.33398 1.6816 4.3843 4.3843 0 0 0 0.33398 1.6816 4.3843 4.3843 0 0 0 0.95312 1.4258 4.3843 4.3843 0 0 0 1.4258 0.95117 4.3843 4.3843 0 0 0 1.6836 0.33203c0.29922 0 0.59034-0.031484 0.87305-0.089844 0.28271-0.05836 0.55618-0.14301 0.81641-0.25391 0.26023-0.1109 0.50845-0.2467 0.74023-0.4043s0.44717-0.33863 0.64453-0.53711c0.19736-0.19848 0.37623-0.41492 0.5332-0.64844 0.15698-0.23352 0.29172-0.48336 0.40234-0.74609 0.11062-0.26273 0.19756-0.53811 0.25586-0.82422 0.0583-0.28611 0.08789-0.58305 0.08789-0.88672 0-0.30385-0.0296-0.6005-0.08789-0.88672-0.0583-0.28621-0.14524-0.56145-0.25586-0.82422-0.11062-0.26277-0.24537-0.51259-0.40234-0.74609-0.15698-0.23351-0.33584-0.45196-0.5332-0.65039-0.19736-0.19843-0.41275-0.37762-0.64453-0.53516-0.23178-0.15754-0.48-0.29346-0.74023-0.4043-0.26023-0.11084-0.5337-0.19558-0.81641-0.25391-0.28271-0.058327-0.57383-0.089844-0.87305-0.089844zm9.9648 0a4.3843 4.3843 0 0 0-1.6816 0.33203 4.3843 4.3843 0 0 0-1.4258 0.95117 4.3843 4.3843 0 0 0-0.95313 1.4258 4.3843 4.3843 0 0 0-0.33398 1.6816c0.0048 0.30385 0.04052 0.6005 0.10156 0.88672 0.06105 0.28621 0.14787 0.56145 0.25976 0.82422 0.1119 0.26277 0.24693 0.51259 0.4043 0.74609s0.3377 0.45196 0.53516 0.65039c0.19746 0.19843 0.41236 0.37762 0.64453 0.53516 0.23217 0.15754 0.48068 0.29346 0.74219 0.4043s0.53681 0.19558 0.82227 0.25391c0.28546 0.05833 0.58073 0.089844 0.88476 0.089844a4.4095 4.4095 0 0 0 1.6777-0.33789 4.4095 4.4095 0 0 0 1.4238-0.95312 4.4095 4.4095 0 0 0 0.95312-1.4219 4.4095 4.4095 0 0 0 0.33984-1.6777 4.3843 4.3843 0 0 0-0.03711-0.57422 4.3843 4.3843 0 0 0-0.11133-0.5625 4.3843 4.3843 0 0 0-0.18555-0.54492 4.3843 4.3843 0 0 0-0.25391-0.51562 4.3843 4.3843 0 0 0-0.31836-0.47852 4.3843 4.3843 0 0 0-0.37891-0.43164 4.3843 4.3843 0 0 0-0.43359-0.37891 4.3843 4.3843 0 0 0-0.47656-0.31836 4.3843 4.3843 0 0 0-0.51758-0.25391 4.3843 4.3843 0 0 0-0.54297-0.18359 4.3843 4.3843 0 0 0-0.56445-0.11133 4.3843 4.3843 0 0 0-0.57422-0.037109zm10.045 0a4.3843 4.3843 0 0 0-1.6836 0.33203 4.3843 4.3843 0 0 0-1.4258 0.95117 4.3843 4.3843 0 0 0-0.95312 1.4258 4.3843 4.3843 0 0 0-0.33398 1.6816 4.3843 4.3843 0 0 0 0.33398 1.6816 4.3843 4.3843 0 0 0 0.95312 1.4258 4.3843 4.3843 0 0 0 1.4258 0.95117 4.3843 4.3843 0 0 0 1.6836 0.33203c0.30404 0 0.59942-0.031484 0.88477-0.089844 0.28534-0.05836 0.55918-0.14301 0.82031-0.25391 0.26113-0.1109 0.50883-0.2467 0.74024-0.4043 0.2314-0.1576 0.44642-0.33863 0.64258-0.53711 0.19616-0.19848 0.3739-0.41492 0.5293-0.64844 0.1554-0.23352 0.28932-0.48336 0.39844-0.74609 0.10912-0.26273 0.19268-0.53811 0.25-0.82422 0.05732-0.28611 0.087891-0.58305 0.087891-0.88672 0-0.30385-0.029601-0.6005-0.087891-0.88672-0.0583-0.28621-0.14524-0.56145-0.25586-0.82422-0.11062-0.26277-0.24537-0.51259-0.40234-0.74609s-0.33584-0.45196-0.5332-0.65039-0.41275-0.37762-0.64453-0.53516c-0.23178-0.15754-0.48-0.29346-0.74024-0.4043-0.26023-0.11084-0.5337-0.19558-0.81641-0.25391s-0.57383-0.089844-0.87305-0.089844zm9.9648 0a4.3843 4.3843 0 0 0-1.6816 0.33203 4.3843 4.3843 0 0 0-1.4277 0.95117 4.3843 4.3843 0 0 0-0.95117 1.4258 4.3843 4.3843 0 0 0-0.33398 1.6816 4.3843 4.3843 0 0 0 0.33398 1.6816 4.3843 4.3843 0 0 0 0.95117 1.4258 4.3843 4.3843 0 0 0 1.4277 0.95117 4.3843 4.3843 0 0 0 1.6816 0.33203 4.3843 4.3843 0 0 0 0.57422-0.037109 4.3843 4.3843 0 0 0 0.56445-0.11133 4.3843 4.3843 0 0 0 0.54297-0.18359 4.3843 4.3843 0 0 0 0.51562-0.25391 4.3843 4.3843 0 0 0 0.47852-0.31836 4.3843 4.3843 0 0 0 0.43359-0.37891 4.3843 4.3843 0 0 0 0.37891-0.43164 4.3843 4.3843 0 0 0 0.31836-0.47852 4.3843 4.3843 0 0 0 0.25391-0.51562 4.3843 4.3843 0 0 0 0.18555-0.54492 4.3843 4.3843 0 0 0 0.11133-0.5625 4.3843 4.3843 0 0 0 0.001953-0.013672 4.3843 4.3843 0 0 0 0.035156-0.56055 4.3843 4.3843 0 0 0 0-0.013672 4.3843 4.3843 0 0 0-0.037109-0.56055 4.3843 4.3843 0 0 0-0.11133-0.5625 4.3843 4.3843 0 0 0-0.18555-0.54492 4.3843 4.3843 0 0 0-0.25391-0.51562 4.3843 4.3843 0 0 0-0.31836-0.47852 4.3843 4.3843 0 0 0-0.37891-0.43164 4.3843 4.3843 0 0 0-0.43359-0.37891 4.3843 4.3843 0 0 0-0.47852-0.31836 4.3843 4.3843 0 0 0-0.51562-0.25391 4.3843 4.3843 0 0 0-0.54297-0.18359 4.3843 4.3843 0 0 0-0.56445-0.11133 4.3843 4.3843 0 0 0-0.57422-0.037109zm-30.014 10.035v5.0176h30.014v-5.0176h-30.014zm42.529 9.9941v0.039062 0.001953l-3.7656 11.289-3.7676-11.289h-12.516v20.029h7.4941v-15.051l5.0215 15.012h7.4941l4.9824-15.012v15.012h7.4941v-20.031h-12.438zm-67.562 0.041015v20.029h7.4941v-7.5254l7.5332 7.5254h10.006l-11.26-11.289 8.748-8.7402h-7.4941l-7.5332 7.5254v-7.5254h-7.4941zm25.033 20.029h20.01v-5.0547h-12.518v-14.975h-7.4922v20.029z" fill="#fff"/>
</svg>
