<svg version="1.1" viewBox="0 0 1171.1 100" xmlns="http://www.w3.org/2000/svg">
	<path d="m1112.4 13.363v64.491h7.4009v-31.037h15.167l18.718 31.037h7.3822l-19.074-31.665c7.7992-1.981 12.876-8.3825 12.891-16.067-0.024-9.2765-7.4363-16.76-18.118-16.76zm-485.88 0.0094 20.788 29.604-24.498 34.878h14.736l17.125-24.386 17.125 24.386h14.746l-24.507-34.878 20.797-29.604h-14.755l-13.415 19.102-13.406-19.102zm70.693 0v64.482h13.153v-64.482zm49.033 0-25.369 64.482h13.134l5.1525-13.087h27.796l5.1431 13.087h13.162l-25.866-64.482zm53.09 0-6.1831 64.482h13.144l4.2906-44.818 22.034 44.818h0.80567l21.678-44.808 4.2906 44.808h13.153l-6.1643-64.482h-14.287l-19.252 40.012-19.242-40.012zm86.937 0v64.482h43.038v-8.6562h-29.885v-20.067h23.627v-8.6375h-23.627v-18.474h27.711v-8.6469zm56.312 0v64.482h13.162v-44.958l39.047 44.958h8.2815v-64.482h-13.162v40.461l-34.972-40.461zm97.814 0-26.006 64.482h7.3916l7.1386-17.687h30.756l7.1386 17.687h7.4009l-26.409-64.482zm46.41 0v64.482h7.4009v-64.482zm32.995 5.5554h16.132c7.1276 0 12.164 5.0169 12.179 11.204-0.014 6.2019-5.0511 11.12-12.179 11.12h-16.132zm-75.499 3.1384 13.134 32.536h-26.268zm-291.24 7.3915 10.492 26.662h-20.985z" fill="#004384"/>
	<path d="m462.56 10c-0.47486 1.9522-1.1245 3.8309-1.9111 5.4617h-2.5856c-3.372 0-5.6959 2.5208-5.6959 6.2861v19.523h-3.8784v5.6959h3.8784c-0.1439 9.996-0.70224 20.628-3.9159 30.653h7.3072c2.0577-8.7825 3.0237-19.002 3.1196-30.653h11.626v23.58c0 0.89695-0.71806 1.4989-1.6582 1.4989h-6.1924l2.3421 5.5741h6.2954c4.3409 0 5.9395-2.7051 5.9395-5.6022v-50.514c0-3.9859-2.6728-6.0331-5.9488-6.0331h-3.2133a32.808 32.808 0 0 0 1.8924-5.4711zm26.699 0.0093c1.2135 4.0291 2.3242 6.4568 3.2883 8.9654h-13.35v5.6772h36.33v-5.6771h-14.933c-1.7459-3.6933-3.1626-6.711-3.9253-8.9654zm81.157 0a33.384 33.384 0 0 0 2.239 5.368h-22.409c-6.4178 0-8.5625 4.3264-8.5625 8.1972v7.5133h6.7451v-7.7568c0-1.4869 0.68557-2.2296 2.2109-2.2296h12.806c-4.504 13.402-20.535 21.238-20.535 21.238h13.134c7.6505-5.8518 13.172-13.707 15.355-21.238h6.5297v12.094c0 1.6452 0.52819 3.5974 1.5738 4.7965 1.2567 1.5253 3.4704 2.3889 5.2931 2.3889h17.978l2.3608-5.7708h-18.174c-0.71948 0-1.527-0.67586-1.527-1.8174v-11.692h13.05c1.4821 0 2.1735 0.89141 2.1735 2.2296v7.7569h6.7451v-7.5133c0-3.9811-2.4281-8.1972-8.7499-8.1972h-17.575c-1.0361-1.7124-1.9936-3.9003-2.4732-5.368zm-227.74 0.0094v67.845h2.5107v-67.845zm92.249 0v67.845h2.5107v-67.845zm92.258 0v67.845h2.5013v-67.845zm-141.44 0.58083v5.5835h28.404a1.8419 1.8419 0 0 1 1.8268 1.8455v52.106c0 1.1656-0.63104 1.8549-1.6863 1.8549h-10.155l2.7074 5.6022h9.312c3.9236 0 6.7451-1.6774 6.7451-6.0519v-54.345c0-2.1728-0.84262-3.9717-2.4638-5.19-1.2567-0.91614-2.7416-1.4052-4.2813-1.4052zm-27.974 0.01874v4.1408c0 2.9499 1.7035 6.2861 6.7639 6.2861h16.479v-5.1525h-14.483c-0.91614 0-1.8362-0.61111-1.8362-1.5177v-3.7567zm-83.546 1.3678c-4.8685 0-7.1761 2.4962-7.1761 7.1105v32.32c0 9.6938-0.81016 16.97-3.0166 26.4h7.4478c1.5493-6.8255 2.417-15.051 2.417-21.997v-37.229c0-0.90654 0.60407-1.4521 1.6113-1.4521h54.748v-5.1432h-56.031zm2.2671 7.8412v4.5436h24.414c-0.44128 1.0456-0.88609 2.0153-1.4521 3.1665h-12.928c-3.9092-1e-6 -6.1268 3.0717-6.1268 6.1175v14.399c0 3.2041 2.716 6.005 5.9488 6.005h3.0728c-1.8898 2.4894-7.9362 9.3703-14.277 13.678h9.6774c1.132-0.94012 2.1345-1.8081 2.9978-2.6044a443.66 443.66 0 0 0 9.5088 4.8902s-16.038 6.0687-22.053 7.7475c18.495 0 18.568 0.04701 18.568 0.04701 2.5662-1.0121 10.699-4.2719 10.699-4.2719s7.8997 3.7733 9.6024 4.2625l16.104 0.0096c-5.0268-1.698-17.959-7.4009-17.959-7.4009 2.8587-1.1847 9.6206-3.8588 12.244-5.0963 1.8179-0.85858 2.876-2.4197 2.876-4.1033 5e-3 -0.39811-0.0537-0.75988-0.15924-1.1148-0.49884-1.7843-2.3152-2.9229-4.4593-2.9229h-27.411c1.2567-1.4869 1.9102-2.2706 2.5482-3.1196h22.54c2.9834 0 5.8645-2.5063 5.8645-6.0894v-14.484c0-2.7724-2.2242-5.9488-6.0519-5.9488h-13.397l1.4989-3.1665h21.884v-4.5436zm183.72 1.4052h8.9279c0.9641 0 1.3584 0.71611 1.3584 1.3397l0.01 18.699h-11.627v-18.718c0-0.98808 0.85544-1.3209 1.3303-1.3209zm-102.44 3.3445v53.015h6.9138v-53.015zm102.74 1.2928a85.426 85.426 0 0 0 2.5763 11.635h5.8364c-1.1416-3.7077-2.324-7.5007-2.8948-11.635zm29.088 5.827c-3.4535 0-6.2767 2.7959-6.2767 6.614v13.603c0 11.042-1.4502 19.389-6.1268 25.706h8.3096c3.3672-6.7391 4.7684-15.049 4.7684-22.306v-16.507c0-0.71468 0.50714-1.3303 1.4521-1.3303h8.7499c1.06 0 1.3959 0.80447 1.3959 1.2553v31.037c0 2.4318 0.46958 4.2512 1.424 5.5366 1.1032 1.5589 2.9584 2.314 5.6397 2.314h5.3868l2.5107-5.8833h-6.5391c-0.91614 0-1.5551-0.63232-1.5551-1.4333v-31.993c0-2.7676-1.6892-6.614-6.7639-6.614zm-201.07 0.12182h29.594c0.89215 0 1.4333 0.50371 1.4333 1.3959v1.8081h-32.311v-1.9111a1.3143 1.3143 0 0 1 1.2834-1.2928zm-1.2834 7.3353h32.311v3.2133h-32.311zm259.58 6.6983v5.6772h24.329v20.057h-29.941v5.5835h66.683v-5.5835h-29.95v-20.057h24.357v-5.6772zm-259.58 0.71199h32.311v1.9205a1.3095 1.3095 0 0 1-1.2741 1.2834h-29.594c-0.89215 0-1.4427-0.50393-1.4427-1.3865zm172.89 4.1689c0.53721 4.9212 1.2655 8.8238 2.6325 13.265h5.9301c-1.2999-4.0579-2.2596-8.3826-2.7824-13.265zm-168.91 11.008h26.784c-4.4272 1.9762-8.6524 3.6707-13.012 5.3399-1.2999-0.57558-5.7896-2.8198-5.7896-2.8198l-10.474-0.0096a109.84 109.84 0 0 0 2.492-2.5107z" fill="#004384"/>
	<path d="m154.04 10.028c-2.83 0-6.3388-0.47829-8.4876 5.9395-1.5972 4.7773-9.0147 23.28-25.5 29.07-20.414 7.1756-37.436-4.554-63.386-25.098-9.6698-7.6792-11.252-8.3739-20.61-6.8294-4.8013 0.76744-15.217-1.7725-18.268-2.492-3.0602-0.81541-7.785-0.4837-7.785-0.43094 0 0.35015 18.804 3.0686 55.095 29.032 13.809 9.8808 38.419 29.123 64.023 40.246 27.671 12.025 67.85 18.446 104.62-7.148 0.048-0.49884 0.0834-1.0046 0.12179-1.5083 0 0.67152-21.046 8.369-39.824 8.8342-18.754 0.84419-35.228-6.2763-26.072-24.282 9.1374-18.021 53.981-38.733 68.716-45.314z" fill="#008cd5"/>
</svg>
