<svg version="1.1" viewBox="0 0 100 100" xmlns="http://www.w3.org/2000/svg">
	<path d="m60.834 40.003c-0.99876 0-2.2371-0.1688-2.9954 2.0962-0.56368 1.686-3.1815 8.216-8.9995 10.259-7.2045 2.5324-13.212-1.6072-22.37-8.8576-3.4127-2.7101-3.9711-2.9553-7.2737-2.4102-1.6945 0.27085-5.3704-0.62555-6.4472-0.87948-1.08-0.28778-2.7475-0.17071-2.7475-0.15209 0 0.12358 6.6363 1.083 19.444 10.246 4.8735 3.4871 13.559 10.278 22.595 14.204 9.7657 4.2439 23.946 6.51 36.923-2.5227 0.01694-0.17605 0.02943-0.35454 0.04298-0.53231 0 0.23699-7.4276 2.9536-14.055 3.1178-6.6187 0.29793-12.433-2.215-9.2013-8.5696 3.2248-6.36 19.051-13.67 24.251-15.992z" fill="#008cd5"/>
</svg>
