<svg version="1.1" viewBox="0 0 100 100" xmlns="http://www.w3.org/2000/svg">
	<rect width="100" height="100" fill="#d1161b"/>
	<path transform="matrix(.80152 0 0 .80152 10 20)" d="m99.652 28.479c-0.66819 0.0061-1.3385 0.019452-2.0128 0.043862-32.848 0.90923-64.64 8.3599-67.599 18.929-0.26545 0.9611-0.32896 1.9136-0.32896 2.8778 0 10.407 21.729 13.967 45.253 16.899 0.4058 0.04577 0.38768-0.26766 0.25342-0.49954-0.08848-0.16476-0.43577-0.79372-0.67986-1.2208-0.09153-0.16476-0.19439-0.27276-0.52391-0.37039-12.882-3.2769-25.954-8.0658-25.954-12.518 0-8.4455 21.906-16.812 46.849-20.625 0.82075-0.15866 1.2175-0.3191 1.7667-0.7554 0.6926-0.55225 2.2176-1.7969 2.8583-2.3125 0.42105-0.34783 0.26952-0.45448 0.11696-0.44837z" fill="#fff"/>
	<path transform="matrix(.80152 0 0 .80152 10 20)" d="m48.129 0c-7.6796 0-9.344 0.9966-12.315 5.0149-1.5835 2.1419-14.856 20.43-20.842 28.683-0.76888 0.9794-1.8534 2.0323-4.279 2.0323h-10.693l0.0024368 0.017057c12.674 35.805 26.297 44.252 39.936 44.252h21.536c0.30511 0 0.60868-0.33107-0.17545-0.52634v0.002436c-17.062-4.2746-33.974-18.593-31.31-31.854 3.8932-19.353 29.925-38.109 62.416-46.915 0.73227-0.21663 1.0055-0.70667 0.065793-0.70667h-44.342z" fill="#fff"/>
</svg>
