<svg version="1.1" viewBox="0 0 100 100" xmlns="http://www.w3.org/2000/svg">
	<linearGradient id="a" x1="-1190.1" x2="-1190.8" y1="49.293" y2="47.873" gradientTransform="matrix(56 0 0 40 66715 -1896)" gradientUnits="userSpaceOnUse">
		<stop stop-color="#be0000" offset="0"/>
		<stop stop-color="#de0000" offset=".3898"/>
		<stop stop-color="#f60000" offset=".768"/>
		<stop stop-color="#f00" offset="1"/>
	</linearGradient>
	<linearGradient id="b" x1="-1190.2" x2="-1190.9" y1="49.351" y2="47.931" gradientTransform="matrix(56 0 0 40 66715 -1896)" gradientUnits="userSpaceOnUse">
		<stop stop-color="#be0000" offset="0"/>
		<stop stop-color="#de0000" offset=".3898"/>
		<stop stop-color="#F60000" offset=".768"/>
		<stop stop-color="#f00" offset="1"/>
	</linearGradient>
	<linearGradient id="c" x1="-885.85" x2="-885.85" y1="207.34" y2="206.74" gradientTransform="matrix(3.7749 0 0 4.1318 3394.1 -807.43)" gradientUnits="userSpaceOnUse">
		<stop stop-opacity="0" offset="0"/>
		<stop stop-opacity=".03" offset=".512"/>
		<stop stop-opacity=".13" offset=".6655"/>
		<stop stop-opacity=".23" offset=".8242"/>
		<stop stop-opacity=".31" offset="1"/>
	</linearGradient>
	<linearGradient id="d" x1="-1143.7" x2="-1142.4" y1="119.09" y2="119.09" gradientTransform="matrix(17.65 0 0 8.37 20228 -928.55)" gradientUnits="userSpaceOnUse">
		<stop stop-opacity="0" offset="0"/>
		<stop stop-opacity="0" offset=".0839"/>
		<stop stop-opacity=".05" offset=".2483"/>
		<stop stop-opacity=".14" offset=".4453"/>
		<stop stop-opacity=".23" offset=".7032"/>
		<stop stop-opacity=".31" offset="1"/>
	</linearGradient>
	<linearGradient id="e" x1="-1151.2" x2="-1150.2" y1="59.238" y2="59.238" gradientTransform="matrix(19.759 0 0 26.253 22766 -1513.1)" gradientUnits="userSpaceOnUse">
		<stop stop-opacity="0" offset="0"/>
		<stop stop-opacity=".02" offset=".2858"/>
		<stop stop-opacity=".22" offset=".886"/>
		<stop stop-opacity=".31" offset="1"/>
	</linearGradient>
	<rect width="100" height="100" fill="url(#a)"/>
	<path d="m90 78.6-46.8-47.2c-6.2-6.3-14.7-10-23.5-10h-9.7l0.7 1.9 3.3 8.5 17.7 46.7 58.3 0.1z" fill="#fff"/>
	<path d="m39 60.8c0.1 0.7 0.6 1.3 1.3 1.4 9.7 1.5 19 5.5 27.2 12h0.2s0.1 0 0.2-0.1 0.1-0.3 0-0.4c-5.7-5.8-12.6-10.6-20.3-13.7l-2.4-1c-1.2-0.5-2-1.7-2-3.1 0.1-5.1 12.1-4 13.3-6.5l0.2-0.4c-2.5-2.1-5.4-3.7-8.6-4.6 0 0.1-0.1 0.7 0.5 1.8 0.7 1.2-0.8 3-3 1l-0.2-0.1c-16.1-14.8-28.3-7.1-34.7-23.8l3.3 8.5c6.3 10.9 23.1 12.1 25 29z" fill="url(#b)"/>
	<path d="m48.6 46.3c0.2 0.4 0.2 0.9 0 1.3s-0.6 0.7-1.2 0.7v4c1.7-0.5 3.7-0.8 5.4-1.2v-2.2c0.1-0.1-2.6 0-4.2-2.6z" fill="url(#c)"/>
	<path d="m42.2 62.5c8.9 1.7 17.6 5.6 25.2 11.7-16.9-14.4-24.6-11.9-25.2-11.7z" fill="url(#c)"/>
	<path d="m10.7 23.4 3.3 8.5c6.4 10.9 23.1 12 25 29-1.9-21.7-11.4-18.5-21.6-28.3-2.6-1.9-4.9-4.6-6.7-9.2z" fill="url(#e)"/>
</svg>
