<svg version="1.1" viewBox="0 0 100 100" xmlns="http://www.w3.org/2000/svg">
	<defs>
		<linearGradient id="a" x1="-608.59" x2="-606.08" y1="-396.42" y2="-396.42" gradientTransform="matrix(22.008 0 0 22.008 13415 8773.7)" gradientUnits="userSpaceOnUse">
			<stop stop-color="#E5DED9" offset="0"/>
			<stop stop-color="#E5DED9" offset=".3846"/>
			<stop stop-color="#6D5F51" offset="1"/>
		</linearGradient>
		<linearGradient id="e" x1="-656.41" x2="-653.9" y1="-422.84" y2="-422.84" gradientTransform="matrix(-22.135 0 0 -22.135 -14467 -9287.3)" gradientUnits="userSpaceOnUse">
			<stop stop-color="#fc0" offset="0"/>
			<stop stop-color="#FEC202" offset=".0639"/>
			<stop stop-color="#FAA706" offset=".1728"/>
			<stop stop-color="#F47B0D" offset=".3135"/>
			<stop stop-color="#EC3F17" offset=".4787"/>
			<stop stop-color="#E40521" offset=".6209"/>
			<stop stop-color="#D40A2F" offset=".6757"/>
			<stop stop-color="#9A1B65" offset=".8949"/>
			<stop stop-color="#83227A" offset="1"/>
		</linearGradient>
		<linearGradient id="d" x1="-615.79" x2="-613.28" y1="-400.29" y2="-400.29" gradientTransform="matrix(31.368 0 0 31.368 19326 12586)" gradientUnits="userSpaceOnUse">
			<stop stop-color="#fc0" offset="0"/>
			<stop stop-color="#FEC202" offset=".0639"/>
			<stop stop-color="#FAA706" offset=".1728"/>
			<stop stop-color="#F47B0D" offset=".3135"/>
			<stop stop-color="#EC3F17" offset=".4787"/>
			<stop stop-color="#E40521" offset=".6209"/>
			<stop stop-color="#D40A2F" offset=".6757"/>
			<stop stop-color="#9A1B65" offset=".8949"/>
			<stop stop-color="#83227A" offset="1"/>
		</linearGradient>
		<linearGradient id="c" x1="-612.81" x2="-610.3" y1="-398.65" y2="-398.65" gradientTransform="matrix(26.785 0 0 26.785 16434 10722)" gradientUnits="userSpaceOnUse">
			<stop stop-color="#E5DED9" offset="0"/>
			<stop stop-color="#E5DED9" offset=".3846"/>
			<stop stop-color="#6D5F51" offset="1"/>
		</linearGradient>
		<linearGradient id="b" x1="-615.92" x2="-613.41" y1="-400.07" y2="-400.07" gradientTransform="matrix(31.618 0 0 31.618 19484 12698)" gradientUnits="userSpaceOnUse">
			<stop stop-color="#fc0" offset="0"/>
			<stop stop-color="#FEC202" offset=".0639"/>
			<stop stop-color="#FAA706" offset=".1728"/>
			<stop stop-color="#F47B0D" offset=".3135"/>
			<stop stop-color="#EC3F17" offset=".4787"/>
			<stop stop-color="#E40521" offset=".6209"/>
			<stop stop-color="#D40A2F" offset=".6757"/>
			<stop stop-color="#9A1B65" offset=".8949"/>
			<stop stop-color="#83227A" offset="1"/>
		</linearGradient>
	</defs>
	<rect width="100" height="100" fill="#fff"/>
	<g enable-background="new 0 0 100 100">
		<path d="m33.7 15.8c-3.5 0-9.1 1-12.5 6.8l0.9 1.8c1.6-7.8 10.9-6.9 10.9-6.9 10.8 1 20.5 13.6 25.7 21.8 8.1 12.8 13.6 27.9 13.9 43.1 0 0.1 0 0.2 0.1 0.2h0.3c0.3-0.2 0.7-0.5 1-0.8 0.4-0.3 0.8-0.7 1.3-1 0.3-0.2 0.6-0.5 0.9-0.7 0.2-0.2 0.3-0.5 0.3-0.9-0.4-16.5-5.5-33-15.8-46-5.2-6.3-14.5-15.2-23.9-17.1 0 0-1.2-0.3-3.1-0.3z" fill="url(#a)"/>
		<path d="m10.3 54.3c-0.1 0-0.2 0.4-0.1 0.8 2.5 19.7 19.3 34.9 39.7 34.9 5.5 0 10.7-1.1 15.5-3.1 0.6-0.3 0.6-0.4 0.2-0.5-24.8 0.5-46.6-15.1-55.3-32z" fill="url(#e)"/>
		<path d="m51.7 13.6c-9.8 0-19.7 3.2-27.6 9.2l-0.1 0.1s-4.9 3.5-8.3 8.3-4.9 9.2-5.4 11.8c-0.3 1.8-0.3 2.8-0.3 3.3 0 0.2 0.1 0.3 0.2 0.3 0.2 0.2 0.8-0.2 1.3-0.5 0.3-0.2 1.4-0.7 2.4-1.2 3-1.3 6.5-2.4 10-3.1l-0.6-0.9c-1.5-2.2-2.6-4.7-3.2-7.1-2.5 1.6-4.9 3.6-7.2 5.9 9.7-22.1 53.6-36.8 75.4 0.2 0.2 0.3 0.4 0.3 0.4 0.1 0-0.1 0-0.3-0.1-0.5 0-0.2-0.1-0.3-0.1-0.4-0.2-0.7-1-2.7-1.6-4-7.1-14.8-21-21.5-35.2-21.5z" fill="url(#d)"/>
		<path d="m27.4 18.2c-1.5 0.5-3 1.2-4.4 2.1-0.2 0.2-0.5 0.4-0.7 0.6-4.6 5.8-3.2 13.8 0.9 20 4.8 7.3 13.2 13.1 20.7 17.4 8 4.5 16.6 8 25.6 10.1 4.2 1 8 1.2 12.3 1.5 0.6 0 1.3 0.1 1.9 0.1s1.1-0.3 1.3-0.7c0.2-0.3 0.5-1 0.5-1 0.1-0.2 0.9-1.9 1.2-2.4-14.4-0.6-28.1-6.8-40.4-13.9-6.6-3.8-13.5-7.7-18.6-13.4-3.5-3.9-6.4-9.4-5.6-14.7 0.6-2.2 2.6-4.7 5.3-5.7z" fill="url(#c)"/>
		<path d="m44.5 27c-7.3 0-14.5 1.5-21.1 4.9 1.1 2.5 2.6 4.7 4.3 6.7 0.7 0.8 1.6 1.7 2.3 2.3 21.1-2.3 46.7 5.4 54.5 28.9 0.2-0.1 0.4-0.3 0.5-0.5 3.2-5.7 5-12.3 5-19.4v-0.4c0-0.9-0.7-2.4-1.9-3.8-9.5-10.5-26.7-18.7-43.6-18.7z" fill="url(#b)"/>
	</g>
</svg>
