<svg version="1.1" viewBox="0 0 100 100" xmlns="http://www.w3.org/2000/svg">
	<rect width="100" height="100" fill="#fff"/>
	<path d="m52.471 10.004c-0.70869 0.0095-1.4218 0.03417-2.1387 0.07227-0.71691 0.0381-1.4374 0.09059-2.1621 0.15625-0.64445 0.05956-1.288 0.13281-1.9277 0.2207-0.63974 0.0879-1.2762 0.1909-1.9102 0.30664-0.63398 0.11574-1.2654 0.24363-1.8926 0.38672-0.62716 0.14309-1.2499 0.30075-1.8691 0.4707-0.61928 0.16996-1.2354 0.3525-1.8457 0.54883-0.61035 0.19633-1.216 0.40669-1.8164 0.62891-0.60036 0.22221-1.1939 0.45746-1.7832 0.70507-0.5893 0.24762-1.1728 0.50677-1.75 0.7793-0.5772 0.27252-1.1489 0.55852-1.7129 0.85547-0.56404 0.29694-1.1221 0.60491-1.6719 0.92578-0.54982 0.32087-1.0905 0.65374-1.625 0.99805-0.53454 0.34431-1.0619 0.7011-1.5801 1.0684-0.51821 0.36726-1.0285 0.74504-1.5293 1.1348-0.50082 0.38972-0.99224 0.79143-1.4746 1.2031-0.48237 0.41169-0.9551 0.8344-1.418 1.2676-0.46287 0.43318-0.91706 0.87591-1.3594 1.3301-0.44231 0.45417-0.87228 0.91986-1.293 1.3945-0.42069 0.47468-0.8305 0.95844-1.2285 1.4531-0.39802 0.49469-0.78587 0.99946-1.1602 1.5137-0.37429 0.51422-0.73644 1.039-1.0859 1.5723-0.3495 0.53325-0.68611 1.0752-1.0098 1.627-0.32365 0.5518-0.63294 1.1137-0.92969 1.6836-0.29675 0.56986-0.58082 1.147-0.84961 1.7344-0.26879 0.58742-0.5239 1.1846-0.76367 1.7891-0.23978 0.6045-0.46413 1.2168-0.67383 1.8379-0.2097 0.62109-0.40346 1.2515-0.58203 1.8887-0.17857 0.63719-0.34189 1.2808-0.48828 1.9336s-0.27553 1.3145-0.38867 1.9824c-0.11314 0.66793-0.21022 1.3428-0.28906 2.0254-0.07884 0.68256-0.14011 1.3717-0.18359 2.0684-0.04349 0.6967-0.0691 1.401-0.07617 2.1113-0.00707 0.71036 0.0048 1.4269 0.03516 2.1504 0.04139 0.96309 0.1078 1.9129 0.19922 2.8477 0.09142 0.93472 0.2078 1.8542 0.34961 2.7598 0.1418 0.90554 0.3094 1.7963 0.50195 2.6719 0.19255 0.87558 0.41063 1.7372 0.6543 2.582 0.24366 0.84481 0.5115 1.6731 0.80664 2.4863 0.29514 0.81325 0.61592 1.6117 0.96289 2.3926 0.34697 0.78089 0.71997 1.5452 1.1191 2.293 0.39917 0.74773 0.82561 1.4776 1.2773 2.1914 0.45173 0.71378 0.92894 1.4108 1.4336 2.0898 0.50465 0.67902 1.0358 1.3409 1.5938 1.9844 0.55794 0.64347 1.1423 1.2698 1.7539 1.877 0.61158 0.60713 1.2504 1.1956 1.916 1.7656 0.66559 0.56999 1.3582 1.1203 2.0781 1.6523 0.71996 0.53204 1.4675 1.0458 2.2422 1.5391 0.77469 0.49331 1.5765 0.96615 2.4062 1.4199 0.82978 0.45377 1.687 0.88734 2.5723 1.3008 0.90232 0.42317 1.8051 0.81362 2.707 1.1719 0.90191 0.35825 1.8037 0.68563 2.7051 0.98047 0.90134 0.29484 1.8025 0.55809 2.7031 0.79102s1.8015 0.4349 2.7012 0.60742c0.89969 0.17252 1.7987 0.31608 2.6973 0.42969 0.89861 0.11361 1.796 0.1977 2.6934 0.25391 0.89736 0.0562 1.7935 0.08369 2.6895 0.08398 0.89593 2.94e-4 1.7912-0.02792 2.6855-0.08203 0.89434-0.05411 1.7891-0.13322 2.6816-0.24024 0.89258-0.10702 1.7832-0.24197 2.6738-0.40039 0.89065-0.15842 1.7814-0.3405 2.6699-0.54883 0.88855-0.20833 1.7758-0.44249 2.6621-0.69922 0.88628-0.25673 1.7705-0.53621 2.6543-0.83984 0.88384-0.30363 1.7672-0.63144 2.6484-0.98047 0.88124-0.34903 1.7602-0.72035 2.6387-1.1133 0.87846-0.39293 1.7553-0.80686 2.6309-1.2422 0.48152-0.2432 0.95748-0.49457 1.4258-0.75586 0.4683-0.26129 0.92986-0.53295 1.3828-0.81445 0.45295-0.2815 0.89851-0.57311 1.334-0.87695 0.43547-0.30384 0.86148-0.61895 1.2773-0.94727 0.41587-0.32832 0.82071-0.67047 1.2148-1.0254 0.39413-0.35492 0.77622-0.72378 1.1465-1.1074 0.37026-0.38365 0.728-0.78081 1.0723-1.1953 0.34427-0.4145 0.67604-0.84548 0.99219-1.293 0.17753-0.25293 0.34389-0.50748 0.49805-0.76367 0.15416-0.2562 0.29491-0.51474 0.42578-0.77344s0.25172-0.51884 0.35938-0.7793c0.10765-0.26045 0.2026-0.52176 0.28711-0.7832s0.1573-0.52154 0.21875-0.7832c0.06145-0.26167 0.11194-0.52402 0.15039-0.78516 0.03846-0.26114 0.06454-0.5214 0.08008-0.78125s0.02097-0.51955 0.01367-0.77734-0.02658-0.51455-0.05664-0.76953-0.07031-0.50836-0.12305-0.75977-0.11801-0.50097-0.19336-0.74805-0.16188-0.49044-0.25977-0.73242-0.20778-0.48262-0.32812-0.71875-0.2518-0.46775-0.39453-0.69726-0.2959-0.45559-0.46094-0.67774c-0.16503-0.22214-0.34204-0.44224-0.5293-0.65625-0.22373-0.25779-0.44684-0.48697-0.67188-0.69141s-0.45078-0.38376-0.67969-0.53516c-0.22891-0.15139-0.45994-0.27635-0.69531-0.375s-0.47629-0.17059-0.7207-0.2168c-0.24442-0.04621-0.49396-0.06647-0.75-0.06055-0.25604 0.0059-0.51686 0.03794-0.78711 0.0957s-0.54889 0.14071-0.83594 0.25-0.5842 0.24574-0.89062 0.40625c-1.0507 0.56419-2.091 1.1566-3.1367 1.7402-0.52287 0.29184-1.0471 0.58117-1.5742 0.86328-0.52712 0.28211-1.0568 0.55766-1.5918 0.82031-0.55939 0.27238-1.1203 0.52323-1.6816 0.75195-0.56132 0.22872-1.1239 0.43581-1.6855 0.62109-0.56162 0.18529-1.1213 0.34815-1.6816 0.49024-0.56032 0.14208-1.1203 0.26223-1.6777 0.36133s-1.1132 0.17802-1.666 0.23438c-0.55286 0.05635-1.1037 0.08969-1.6504 0.10352-0.54671 0.01383-1.09 7e-3 -1.6289-0.02148-0.53894-0.02846-1.072-0.07791-1.6016-0.14844-0.52957-0.07053-1.0556-0.16107-1.5742-0.27344-0.51858-0.11236-1.0311-0.24641-1.5371-0.40039-0.50597-0.15397-1.0044-0.32808-1.4961-0.52344-0.49174-0.19536-0.97527-0.41193-1.4512-0.64844-0.4759-0.23651-0.94389-0.49405-1.4023-0.77148-0.45846-0.27743-0.90827-0.57444-1.3477-0.89257-0.43939-0.31813-0.8684-0.65702-1.2871-1.0156-0.41871-0.3586-0.82624-0.73787-1.2227-1.1367-0.45722-0.45724-0.88714-0.92865-1.2793-1.4199-0.19608-0.24563-0.38129-0.49598-0.55859-0.75195-0.17731-0.25597-0.34509-0.51764-0.50195-0.78516s-0.30471-0.54002-0.43945-0.82031c-0.13475-0.28029-0.25623-0.56901-0.36719-0.86328s-0.21138-0.59482-0.29688-0.9043c-0.0855-0.30947-0.15648-0.62723-0.21484-0.95312-0.06322-0.35021-0.10886-0.66762-0.13476-0.95703-0.02591-0.28941-0.03309-0.54973-0.01758-0.7832 0.01551-0.23348 0.0542-0.44064 0.11523-0.62305 0.06103-0.1824 0.1452-0.34037 0.25586-0.47656s0.24772-0.25086 0.41211-0.3457c0.16439-0.09485 0.35591-0.17015 0.57812-0.22852 0.22222-0.05837 0.47366-0.1002 0.75781-0.12695 0.28416-0.02675 0.60098-0.03906 0.95117-0.03906h17.51v2e-3c2.86 0 5.7112 0.01953 8.5566 0.01953 1.4227 0 2.8447-0.0049 4.2656-0.01953 1.4209-0.01459 2.8395-0.03921 4.2598-0.07813 0.32102-0.0049 0.63245-0.01866 0.93359-0.04102 0.30114-0.02234 0.59335-0.05365 0.875-0.09375s0.55387-0.08835 0.81641-0.14648c0.26254-0.05814 0.51596-0.12666 0.75977-0.20312 0.2438-0.07646 0.47768-0.16079 0.70312-0.25586 0.22545-0.09507 0.44096-0.20049 0.64844-0.31445s0.40582-0.23795 0.5957-0.37109 0.37225-0.27512 0.54492-0.42773 0.33635-0.31592 0.49219-0.48828 0.30398-0.35448 0.44336-0.54688c0.13938-0.19239 0.26927-0.39471 0.39258-0.60742 0.12331-0.21272 0.24004-0.43465 0.34766-0.66797s0.20653-0.47821 0.29883-0.73242 0.17654-0.51759 0.25391-0.79297c0.15474-0.55076 0.28162-1.1441 0.37891-1.7812 0.07782-0.50585 0.15452-1.0215 0.21289-1.5371 0.058372-0.51565 0.097658-1.0313 0.097658-1.5372-0.0049-0.57638-0.0264-1.1451-0.0625-1.707-0.0361-0.56192-0.08772-1.1183-0.1543-1.666-0.06657-0.54773-0.14785-1.0873-0.24414-1.6211-0.096289-0.53381-0.20679-1.0619-0.33203-1.582s-0.26453-1.0323-0.41797-1.5391c-0.15344-0.50675-0.32108-1.0083-0.50195-1.502-0.18087-0.49362-0.37448-0.98018-0.58203-1.4609-0.20755-0.48076-0.42864-0.95567-0.66211-1.4238-0.23347-0.46816-0.47966-0.92894-0.73828-1.3848-0.25862-0.45583-0.52948-0.90585-0.8125-1.3496-0.28302-0.44376-0.57811-0.88249-0.88476-1.3145-0.30666-0.43196-0.62555-0.85691-0.95508-1.2773-0.32953-0.42043-0.66984-0.83498-1.0215-1.2441-0.35165-0.40916-0.71489-0.81278-1.0879-1.2109-0.37301-0.39816-0.75679-0.79226-1.1504-1.1797-0.3936-0.38743-0.79555-0.76953-1.209-1.1465-0.54964-0.49856-1.1082-0.97409-1.6719-1.4297-0.56373-0.4556-1.1336-0.89102-1.7109-1.3047-0.57738-0.41366-1.1613-0.80693-1.752-1.1797-0.59063-0.37276-1.1876-0.72376-1.791-1.0566-0.60345-0.33288-1.2142-0.64738-1.8301-0.94141-0.61586-0.29402-1.2374-0.56802-1.8652-0.82422-0.62785-0.25619-1.261-0.4935-1.9004-0.71289-0.63942-0.21939-1.285-0.42185-1.9355-0.60547-0.65057-0.18362-1.3074-0.34918-1.9688-0.49805-0.6613-0.14886-1.3264-0.28134-1.998-0.39648-0.67162-0.11514-1.3497-0.21248-2.0312-0.29492-0.68151-0.08244-1.3676-0.14845-2.0586-0.19922-0.69099-0.05077-1.3859-0.0873-2.0859-0.10742-0.70005-0.02012-1.4046-0.02512-2.1133-0.01563zm-0.53906 13.902c0.37638-0.0085 0.75725 0.01026 1.1426 0.05859 0.38533 0.04834 0.77446 0.12689 1.166 0.23633 0.33075 0.09242 0.64702 0.19954 0.95117 0.32226 0.30415 0.12273 0.59519 0.25975 0.87305 0.41016s0.54306 0.31477 0.79492 0.49023c0.25186 0.17547 0.49062 0.36264 0.7168 0.56055s0.43983 0.40728 0.64062 0.625 0.38874 0.44477 0.56445 0.67969 0.3393 0.47708 0.49023 0.72656c0.15094 0.24949 0.28955 0.50614 0.41602 0.76758 0.12646 0.26144 0.24145 0.52806 0.34375 0.79883s0.19305 0.54479 0.27148 0.82227 0.14435 0.55828 0.19922 0.83984 0.09729 0.56463 0.12891 0.84766c0.03162 0.28302 0.05188 0.56579 0.06055 0.84766 0.0087 0.28186 0.0062 0.56176-0.0078 0.83984-0.01398 0.27809-0.03984 0.55449-0.07617 0.82617s-0.08226 0.54008-0.14062 0.80273c-0.04377 0.2043-0.10386 0.39434-0.17774 0.57227-0.07387 0.17792-0.16274 0.34183-0.26367 0.49414s-0.2149 0.29247-0.33984 0.41992c-0.12494 0.12746-0.26033 0.24234-0.40625 0.3457s-0.30099 0.19536-0.46484 0.27539-0.33687 0.14957-0.51562 0.20703-0.36408 0.10303-0.55469 0.13867-0.38652 0.06158-0.58594 0.07617c-0.87558 0.05834-1.7514 0.06737-2.627 0.0625-0.87551-0.0049-1.7495-0.02539-2.625-0.02539-0.46696 0.0097-0.93405 0.04447-1.4004 0.08398-0.46634 0.03952-0.93197 0.08557-1.3965 0.11719-0.46451 0.03161-0.92916 0.04914-1.3906 0.03516-0.23073-7e-3 -0.45971-0.02142-0.68945-0.04687-0.22975-0.02546-0.45889-0.06269-0.6875-0.11133-0.28696-0.05838-0.5541-0.12288-0.80078-0.19531-0.24669-0.07244-0.4731-0.1519-0.68164-0.24219s-0.39975-0.19079-0.57227-0.30273c-0.17251-0.11195-0.32622-0.23564-0.46484-0.37305s-0.26229-0.28841-0.36914-0.45508-0.19818-0.3491-0.27539-0.54883-0.13975-0.41771-0.18945-0.6543-0.08701-0.49228-0.11133-0.76953c-0.03404-0.3575-0.04223-0.71789-0.0293-1.0781s0.04828-0.71941 0.10547-1.0781c0.05719-0.35872 0.13564-0.71542 0.23438-1.0684 0.09873-0.35294 0.21791-0.70201 0.35547-1.0449 0.13756-0.34291 0.29313-0.68114 0.4668-1.0098 0.17367-0.32862 0.36521-0.6489 0.57226-0.95898 0.20706-0.31008 0.43024-0.6092 0.66797-0.89648s0.49017-0.56204 0.75586-0.82227c0.26569-0.26022 0.54501-0.50546 0.83594-0.73438 0.29093-0.22891 0.59279-0.44142 0.90625-0.63476s0.63744-0.36796 0.9707-0.52148 0.67504-0.28704 1.0254-0.39648c0.35035-0.10944 0.70949-0.19476 1.0742-0.25586 0.36473-0.0611 0.7369-0.09696 1.1133-0.10547z" fill="#fe6600"/>
</svg>
