<svg version="1.1" viewBox="0 0 607.5 155.76" xmlns="http://www.w3.org/2000/svg">
	<style type="text/css">.st0{fill:#FE6600;}</style>
	<g transform="matrix(.18345 0 0 .18345 -37.644 -67.224)" fill="#fe6600" stroke-width="29.716">
		<path class="st0" d="m2466.9 421.03c-36.245-0.60982-72.563 2.5795-108.94 8.9429-21.211 3.818-41.575 10.806-58.332 25.654-12.939 11.666-18.877 26.093-15.695 43.698 3.1817 17.181 16.97 21.014 30.758 25.045 32.666 9.5451 44.113 24.385 42.84 58.535-2.3332 61.513 2.9739 122.82 5.3071 184.12 0 14.424 0.6402 29.062-0.6325 43.698-1.0606 23.12-2.7715 46.443-12.104 68.291-5.7271 13.787-14.419 25.253-28.206 31.616-15.484 7.2119-32.025 10.799-47.085-0.65491-14.636-11.242-11.668-26.506-8.0622-41.778 5.9391-24.817 2.5483-47.937-13.572-68.088-28.635-35.847-89.296-45.815-128.11-21.634-34.786 21.848-51.961 66.592-42.84 111.56 9.3331 46.029 38.174 76.807 78.476 96.745 85.27 41.998 173.94 48.99 264.09 18.021 60.452-20.787 104.14-59.601 122.17-123.24 9.3329-32.665 7.2046-66.393 8.2652-99.907 2.1212-67.664 3.8175-135.54 4.878-203.2 0.4243-27.999 11.659-48.161 36.901-60.251 2.9695-1.2726 5.5215-3.1761 8.4911-4.4488 30.544-14.212 24.821-47.933 4.2456-62.781-10.606-7.6361-22.069-13.155-34.371-16.124-36.059-8.8027-72.221-13.211-108.47-13.821zm816.31 64.09c-9.7573-0.42422-18.046 2.1132-26.106 7.204l-190.26 120.91c-6.3634 3.8181-9.5525 9.3415-9.5525 16.553 0 11.454 0.021 22.7 0.6548 33.942 0.6363 11.454 4.2461 14.625 16.124 14.837 14.424 0.21211 29.048 0.21211 43.472 0 15.484-0.21211 17.389 1.2812 17.389 16.553v97.558c0.2121 0 0.434 8e-3 0.8582-0.20321 0 32.878-1.0695 65.742 0.2036 98.62 2.3333 62.149 38.831 109.47 99.072 124.95 71.058 18.03 136.17 1.2677 195.14-40.943 10.818-7.6361 19.3-17.827 25.451-29.493 8.4846-16.121 9.1072-32.455-0.2257-48.576-8.9087-15.272-20.351-18.878-36.472-10.817-7.8482 3.818-15.485 8.5026-23.757 11.472-26.302 9.5451-48.371-1.4976-57.067-27.8-3.6059-11.03-5.0812-22.682-5.0812-34.349v-131.52c0-22.272 3.1841-25.451 25.88-25.451 23.332 0 46.652 0.21212 69.984 0 20.575 0 28.004-6.9899 29.064-27.777 0.6364-13.363 0.6412-26.947 0.4291-40.311-0.4242-16.969-4.2501-21.427-21.431-22.064-25.454-0.84845-50.9-0.63233-76.353-0.63233-26.726 0-28.206-1.4887-28.206-28.003 0-18.878 0.4243-37.543 0-56.209-0.4242-14.636-4.0265-17.823-18.45-18.247-10.182-0.21211-20.576 0.22099-30.758-0.2032zm-1894.6 102.66c-11.666 0.63634-25.254 1.2809-38.617 4.6747-54.937 12.727-96.083 41.995-109.23 99.478-13.151 57.058 3.8169 105.21 50.27 142.11 18.878 15.06 40.088 26.305 61.087 37.759 12.727 6.9998 25.676 13.571 36.494 23.328 8.6966 7.6361 12.928 17.19 8.8976 28.432-3.818 11.242-13.351 15.687-24.593 16.96-15.484 1.909-28.215-4.4652-39.882-13.798-15.696-12.727-28.42-28.407-42.208-43.043-6.7877-7.2119-14.008-14.218-22.493-19.308-22.484-13.363-45.389-2.1206-48.147 23.757-0.6364 5.727-0.8622 11.445-0.2259 16.96 3.1817 32.665 16.762 61.519 35.004 88.457 13.787 20.151 32.465 26.089 55.374 21.634 10.818-2.1211 21.625-2.5461 32.655-1.0613 18.878 2.3332 37.76 4.8932 56.638 7.2265 48.998 5.9392 95.876 0.4211 138.3-26.941 73.603-47.301 79.327-141.07 12.511-197.28-19.514-16.545-41.99-28.622-64.474-40.288-20.151-10.606-41.584-19.514-59.19-34.575-12.302-10.606-15.053-23.346-8.2653-34.8 7.6361-12.727 23.335-18.238 37.759-12.511 7.6361 2.9696 14.431 7.6509 20.37 13.166 10.182 9.333 19.935 18.859 30.329 27.98 11.242 9.9693 23.534 18.033 38.594 21.002 29.484 5.7271 54.299-17.376 49.208-46.86-5.5149-32.029-19.719-60.243-41.778-84.212-15.696-17.181-34.149-22.918-56.209-12.737-12.303 5.515-25.028 5.9328-38.391 3.3874-22.484-4.2423-45.176-8.2614-69.781-8.8977zm-897.36 0.24843c-7.7264 0.10351-15.54 0.52617-23.441 1.2421-112.42 10.394-213.18 100.53-207.88 226.73 3.6059 83.997 42.006 148.49 119.22 184.55 78.694 36.908 157.17 28.009 233.53-9.9591 20.999-10.606 39.892-24.184 53.68-43.698 15.484-22.06 14.639-46.667-1.6937-65.332-9.7572-11.242-19.518-13.165-32.881-6.1652-11.454 6.1513-22.705 12.949-34.371 18.676-48.786 23.757-99.478 16.969-134.05-17.818-9.9693-9.9694-17.395-21.221-19.941-35.433-2.7575-15.272 0.62624-19.512 15.898-19.512h95.458c31.181 0 62.164 0.41936 93.132-0.42909 27.999-0.42422 41.985-12.93 46.227-40.717 0.84845-5.515 1.6937-11.242 1.6937-16.757-0.42422-50.271-22.905-90.358-58.964-123.24-41.945-38.048-91.53-52.869-145.61-52.144zm2350 0.11284c-7.9189 0.11136-15.937 0.56349-24.051 1.3324-115.39 10.818-215.51 104.78-207.45 231.41 5.0907 81.876 43.495 144.46 118.58 179.67 78.27 36.696 156.52 28.217 232.67-9.3267 23.333-11.454 44.554-26.314 58.129-49.434 12.091-20.575 10.824-40.302-3.3874-58.332-10.394-13.151-20.382-15.481-35.23-7.633-12.515 6.5755-24.603 14.214-37.33 19.941-48.786 22.06-98.204 13.997-131.93-21.002-9.3331-9.5451-16.131-20.565-18.676-33.716-2.9696-14.424 1.2763-19.737 16.124-19.737h95.458s0-0.20808 0.4291-0.63233c33.302 0 66.379 0.64521 99.681-0.2032 19.939-0.42423 32.041-11.044 37.556-29.922 3.3936-12.303 4.6737-25.032 3.6131-37.759-4.0301-44.12-24.198-80.17-55.802-109.87-42.502-39.718-92.959-55.566-148.39-54.786zm-1872.6 0.15803c-11.699-0.14912-23.524 0.54766-35.455 2.0324-52.816 6.5755-103.1 21.211-147.65 51.331-16.757 11.454-31.378 25.241-38.165 45.392-12.303 36.271 13.769 67.867 51.738 63.413 22.484-2.5454 40.109-13.157 54.109-30.126 11.454-13.787 21.847-28.42 33.513-42.208 10.818-12.515 24.38-19.924 41.349-15.469 16.121 4.2423 21.421 18.028 25.451 32.452 5.0907 18.242 4.4577 37.114 4.2456 55.78-0.21211 15.696-6.3672 21.414-22.064 21.838-16.757 0.42423-33.942 0.43475-50.699 1.9196-40.938 3.6059-80.174 13.357-114.11 37.962-38.817 28.211-58.754 65.551-50.27 114.34 8.2724 47.938 39.023 76.151 84.415 89.09 52.392 15.06 101.82 8.8953 147.42-22.922 24.393-16.969 26.316-16.32 46.679 5.1038 10.394 10.818 22.699 19.094 37.759 22.064 50.483 10.181 92.261-7.0193 127.68-42.23 13.999-13.999 23.537-30.742 25.022-51.105 1.0606-14.636-2.3328-18.681-16.757-19.105-10.394-0.21211-17.171-5.0701-21.838-13.979-4.0303-7.6361-5.9451-15.702-7.4299-24.186-5.0907-30.544-4.0198-61.314-4.0198-92.071 0-16.969 0.2033-33.928 0.2033-50.473-0.6364-51.756-23.965-89.948-69.781-113.71-32.294-16.704-66.254-24.687-101.35-25.135zm843.54 2.2131c-6.453-0.0365-12.573 0.0225-18.247 0.0225-37.544 1.2727-67.447 2.3439-97.355 7.8589-21.848 4.0302-43.924 8.4666-61.742 23.102-21.848 18.03-18.661 48.148 6.3683 61.087 5.7271 2.9696 11.459 5.7426 17.186 8.288 13.151 5.9392 22.055 15.687 28.206 28.838 33.726 71.27 68.304 142.55 102.03 213.82 12.302 26.09 26.726 51.335 34.574 79.334 4.4544 15.908 4.2518 31.397-5.0811 45.821-5.9392 8.9089-14.43 13.563-25.248 12.714-10.181-0.8485-14.004-8.4704-17.186-16.531-4.4544-11.242-8.0478-22.709-12.714-33.739-6.7876-16.333-18.039-28.631-35.433-34.145-47.089-14.848-95.238 19.93-96.723 69.352-1.2727 42.847 20.354 71.484 57.474 88.028 55.786 24.817 111.58 20.999 165.67-5.9393 40.726-20.363 67.676-54.505 89.948-93.11 28.211-49.21 45.38-103.1 65.107-155.91 18.666-50.271 34.994-101.38 56.841-150.38 14.212-32.241 34.155-58.119 69.578-69.149 17.181-5.3028 25.672-18.239 25.248-36.268-0.4242-17.605-11.452-27.159-26.512-33.31-15.06-6.3634-31.182-8.4872-47.515-9.1235-32.665-1.4848-64.905 0.22694-95.662 13.166-31.817 13.575-35.006 44.314-14.43 63.616 7.8482 7.424 12.931 17.411 13.143 28.229 0.4242 27.575-8.0577 52.798-25.451 74.433-9.3331 11.666-18.671 11.26-29.064-0.4065-14-15.696-23.754-34.165-31.39-53.68-7.424-18.666-7.194-35.618 5.5329-52.799 14.848-19.939 8.9035-43.072-12.308-56.435-6.5755-4.0302-13.804-7.0024-21.228-9.1235-21.954-6.5225-44.258-7.5463-63.616-7.6556zm-1323.9 73.304c4.1035-0.0927 8.3099 0.41025 12.579 1.6034 28.847 8.0603 39.033 38.179 33.942 61.087-1.909 8.9087-9.3246 13.139-18.021 13.776-9.5451 0.63634-19.09 0.22584-28.635 0.22584-10.181 0.21211-20.36 2.5276-30.329 0.40649-12.515-2.5454-17.819-7.1954-18.879-19.286-2.5984-27.283 20.619-57.163 49.344-57.812zm2351.7 0.83558c3.2352 0.12133 6.4907 0.5782 9.7784 1.4001 24.605 6.1513 41.574 35.429 34.574 59.822-3.1816 11.242-12.09 15.054-22.696 15.266-14.424 0.21211-28.845 0-43.269 0-26.514 1.0606-35.838-11.456-28.839-36.697 7.2384-24.87 27.804-40.641 50.45-39.791zm-1903.7 169.39c14.433-1.2035 22.232 6.3808 23.531 22.899 0.42422 5.9392 0 12.105 0 18.044 0.21211 12.727 0.0106 25.451-5.0812 37.33-9.333 20.999-35.011 25.664-50.495 8.6944-13.575-14.848-15.695-32.891-9.7558-51.557 5.515-17.393 16.329-30.106 35.207-34.349 2.3332-0.53029 4.5323-0.88948 6.5942-1.0614z" stroke-width="29.716"/>
	</g>
</svg>
