<svg version="1.1" viewBox="0 0 308.9 89" xmlns="http://www.w3.org/2000/svg">
	<style type="text/css">.st0{display:none;}
	.st1{display:inline;fill:#FFFFFF;}
	.st2{display:inline;fill:#5B056A;}
	.st3{fill:#5B056A;}
	.st4{fill:#FFFFFF;}
	.st5{fill:#0B1761;}</style>
	<path class="st3" d="m24.1 71.9h-2.5l-11.6-25h3.3l9.5 21.3 9.4-21.3h3.2zm16.9-27.8h-2.9v-3.3h2.9zm0 27.8h-2.9v-25h2.9zm47.1-27.9h-2.9v-3.3h2.9zm0 27.9h-2.9v-25h2.9zm71.9 0h-2.9v-31.2h2.9zm66.2-27.9h-2.8v-3.3h2.8zm0 27.9h-2.8v-25h2.8zm-76.9 0h-2.8v-31.2h2.8v6.1h4.9v2.7h-4.9zm66.3 0h-2.8v-31.2h2.8v6.1h4.9v2.7h-4.9zm-84.1 0.5c-4.6 0-9.3-2.7-9.3-7.9v-0.1c0-5.4 3.8-8.2 11.2-8.2h7v-0.1c0-4.6-2.6-6.9-7.7-6.9-2.5 0-4.8 0.6-7.4 1.9l-0.2 0.1-1.1-2.4 0.2-0.1c2.8-1.4 5.9-2.2 8.8-2.2 3.4 0 5.9 0.9 7.6 2.6s2.5 3.9 2.5 7v15.7h-2.8v-3.3c-1.1 1.4-4 3.9-8.8 3.9zm-6.4-8c0 3.1 2.8 5.4 6.6 5.4 4.3 0 8.7-2.5 8.7-7.9v-3h-6.7c-6.1-0.1-8.6 1.5-8.6 5.5zm47.7 8c-4.6 0-9.3-2.7-9.3-7.9v-0.1c0-5.4 3.8-8.2 11.2-8.2h7v-0.1c0-4.6-2.6-6.9-7.7-6.9-2.5 0-4.8 0.6-7.4 1.9l-0.2 0.1-1-2.4 0.2-0.1c2.8-1.4 5.9-2.2 8.8-2.2 3.4 0 5.9 0.9 7.6 2.6s2.5 3.9 2.5 7v15.7h-2.8v-3.3c-1.2 1.4-4.1 3.9-8.9 3.9zm-6.4-8c0 3.1 2.8 5.4 6.6 5.4 4.3 0 8.7-2.5 8.7-7.9v-3h-6.7c-6.2-0.1-8.6 1.5-8.6 5.5zm-53.4 7.5h-2.9v-13.3c0-2.9 0-9.6-7.3-9.6-5.2 0-8.3 4-8.3 10.6v12.2h-2.8v-25h2.8v4.2c1-1.5 3.6-4.6 8.7-4.6 6.4 0 9.9 3.9 9.9 10.9v14.6zm96.3 0h-2.9v-13.3c0-2.9 0-9.6-7.3-9.6-5.2 0-8.3 4-8.3 10.6v12.2h-2.8v-25h2.8v4.2c1-1.5 3.6-4.6 8.7-4.6 6.4 0 9.9 3.9 9.9 10.9v14.6zm-139.4 7.1c-6.5 0-10.6-3.4-11.1-3.8l-0.1-0.2 1.6-2.3 0.2 0.1c2.5 1.7 5.3 3.4 9.5 3.4 5.8 0 9-3.5 9-9.8v-1.3c-1.7 2.6-5.2 4.9-9.6 4.9-2.9 0-5.9-1.2-8-3.2-2.3-2.2-3.6-5.2-3.6-8.5v-0.1c0-3.3 1.3-6.4 3.6-8.6 2.2-2.1 5.1-3.2 8-3.2 4.4 0 8 2.2 9.6 4.7v-4.3h2.8v19.5c0 4.2-0.9 7.1-3.1 9.2-2.1 2.3-5.2 3.5-8.8 3.5zm-0.3-29.8c-5.2 0-8.9 3.8-8.9 9v0.1c0 5.1 3.9 9.1 8.9 9.1 4.5 0 9.4-3.5 9.4-9v-0.1c-0.1-5.7-4.8-9.1-9.4-9.1zm172.4 22.9c-7 0-12.5-5.6-12.5-12.8v-0.1c0-7.3 5.5-12.9 12.5-12.9 5.7 0 9 3.4 9.9 4.4l0.1 0.2-1.8 1.9-0.2-0.2c-2.5-2.4-5.1-3.6-8.1-3.6-5.3 0-9.5 4.5-9.5 10.1v0.1c0 5.7 4.2 10.2 9.7 10.2 4 0 6.7-2.3 7.9-3.7l0.2-0.2 1.9 1.7-0.1 0.2c-1.1 1.7-4.7 4.7-10 4.7zm-194.6-0.2h-2.9v-25h2.9v6c2.2-4 6.1-6.4 10.6-6.2h0.3v3h-0.5c-5.1 0-10.3 3.7-10.3 11.9v10.3z"/>
	<path transform="translate(10,10)" d="m264.4 0c-7.6 0-9.4004 1.1996-12.4 4.5996l-21.9 24c17.5-0.8 22.9 16.8 40.6 11.9l18.201-40.5h-24.5z" fill="#da0530"/>
	<path class="st4" transform="translate(10,10)" d="m256.8 9.4s1.1-2 1.9-2.7c0 0 0.9-0.6 1-1.5 0 0 0.1-0.6-0.4-1 0 0-1.3-1.1-2.4 0.8 0 0-5.1 9.6-6.8 19.3 0 0-0.1 0.3-0.2-0.6 0 0-0.7-8.1-0.8-8.4 0-0.3 0-1-0.7-1.1 0 0-0.8-0.1-1.3 1.1l-2.2 5.5s-0.4 0.7 0.2 1c0 0 0.7 0.4 1.1-0.6l1-2.2c0.2-0.5 0.4-0.4 0.4-0.4 0.1 0 0.2 0.5 0.2 0.5s0.9 10.9 0.9 11 0.1 1 0.8 1c0.5 0 0.7-0.6 0.8-1.1s1.1-5.7 2.7-11.3c1.2-3.7 2.6-7.4 3.8-9.3zm-1.5 9.5c-1 0.2-1.2 1.4-1.2 1.4l-0.6 4.8c-0.1 0.9 1.1 0.3 1.1 0.3 0.5-0.3 0.6-0.9 0.6-0.9l0.2-1.2 0.6-3.3c0.2-1.3-0.7-1.1-0.7-1.1zm2.1 0.4s-0.3 2.5-0.4 3c0 0-0.5 2.1 0.7 1.7 0 0 0.9-0.2 1-1.5l0.2-1.8s0.1-1.3 1.1-1.9c0 0 1.1-0.5 0.8-1.2 0 0-0.2-0.6-0.9-0.3-0.5 0.2-0.8 0.3-0.8 0.3s-0.7 0.1-0.8 0.1c0.1 0.1-0.8 0.1-0.9 1.6zm-0.9-2.8c0.7-0.6 0.5-1 0.5-1-0.3-0.7-1.2 0-1.2 0-0.8 0.6-0.5 1.1-0.5 1.1 0.4 0.7 1.2-0.1 1.2-0.1zm11.5 3.5s0.9-0.2 1-1.2c0 0 0.5-3.8 0.6-3.9 0-0.1 0.3-1.1-0.4-1 0 0-0.9 0.2-1 1l-0.7 3.7-0.1 0.8s-0.2 0.8 0.6 0.6zm2.1-8s0.7-0.6 0.4-1.1c0 0-0.3-0.5-1.2 0.2 0 0-0.8 0.7-0.3 1.1 0 0 0.5 0.5 1.1-0.2zm9.4 4.7c-0.2-0.3-0.6-0.5-1.4-0.2-0.9 0.4-1.2 0.5-1.2 0.6 0 0-1.1 0.5-0.9-0.9l0.3-3.3s0.1-1.2-0.8-1.2c0 0-0.5-0.1-1.3 0.6 0 0-0.4 0.4-0.7 0.4-0.2 0-0.4 0.1-0.7 0s-0.6-0.1-0.8 0c0 0-0.9 0.2-1 1.5l-0.4 2.9s-0.2 1.1-0.1 1.4c0 0 0.1 0.5 0.9 0.2 0 0 0.7-0.2 0.8-1.4 0 0 0.2-2.3 0.5-2.8 0 0 0.4-0.7 1-1.1 0 0 0.8-0.4 0.8 0.3l-0.3 2.7s-0.3 1.3 0.3 1.5c0 0 0.1 0-0.1 0.1 0 0-3.9 1.6-8.8 4.4 0.3-2.8 0.9-6.7 0.9-6.7 0.1-0.6-0.7-0.6-0.7-0.6-0.8 0-0.9 0.9-0.9 1.3-0.1 0.4-0.6 3.6-0.6 3.6-0.3 1.4-1.1 1.4-1.1 1.4-0.8 0.1-0.3-2.2-0.3-2.2 0.2-0.8 0.3-1.5 0.9-2.1 0.6-0.5 0.7-1.2 0.2-1.2-0.8 0-1.6 0.8-1.6 0.8-1.4 1.4-1.4 4.8-1.4 4.8 0 1.1 0.7 1.4 0.7 1.4 0.9 0.4 2.1-0.3 2.1-0.3 0.3-0.2 0.2 0.1 0.2 0.1l-0.1 0.9c-3.6 2.1-7.7 4.7-11.2 7.7 0 0-1.6 1.2-1 2s1.5 0.1 1.9-0.3c0 0 3.6-3.7 10.2-7.8l-0.2 2.8c-0.1 1.2-0.5 5.1-0.5 5.1-0.2 1.5 0.1 1.8 0.1 1.9 0.1 0.2 0.7 0.7 1.4 0.2 0.8-0.5 0.4-1.8 0.3-2.4s-0.1-1.6-0.1-1.6c0.1-0.8 0.5-6.2 0.5-6.2 0-0.2 0-0.5 0.1-0.9 2.5-1.5 5.4-3 8.7-4.4 0 0 1.4-0.6 2.6-0.9 0 0 0.4-0.2 0.9-0.3 0.7-0.2 1.6-0.5 1.8-0.9 0.2-0.3 0.3-0.6 0.1-0.9z"/>
</svg>
