<svg version="1.1" viewBox="0 0 100 100" xmlns="http://www.w3.org/2000/svg">
	<path d="m26.057 64.908c31.339-8.7859 26.739 16.602 54.264-0.0218-10.694 1.4825-13.135-4.8835-24.123-8.7641 0 0-8.3063-4.6764-17.419-2.0057-3.2048 1.0465-3.1612 1.0465-7.8703 5.3195-0.80665 0.73034-3.619 4.1314-4.8399 5.4721" fill="#fdd000"/>
	<path d="m26.057 64.908c25.42-18.825 45.608-14.389 63.943-35.58-4.1314 45.587-38.741 19.087-63.932 35.58" fill="#b8193f"/>
	<path d="m29.523 56.492c1.8967-6.2461 7.4452-7.4452 12.35-6.8565-11.042-4.9271-15.828-16.907-31.874-19.708 8.9494 5.8101 9.0803 17.234 19.534 26.565" fill="#231815"/>
</svg>
