<svg version="1.1" viewBox="0 0 100 100" xmlns="http://www.w3.org/2000/svg">
  <path fill="#020c41" d="M77.12777,31.88256c-.7394,0-1.44255.10958-1.93548.24652-6.08916-.32865-9.00151,1.00421-11.44817,1.00421-1.4698,0-7.04778-2.62012-11.44818-4.3638,0,0,5.56898-1.41503,10.85476-1.41503s10.49881,2.98527,12.0326,4.76549c-3.34129-7.96988-14.47926-12.65324-20.90613-12.65324-13.55714,0-21.01571,6.7283-30.86623,6.89263-1.15029.01827-4.3364,0-4.3364,0,0,6.02535,2.25494,9.54014,3.25003,10.49871-2.45579,1.41503-12.32456,13.79438-12.32456,19.57333l.42908,1.0771,7.95162,1.02261-1.54286,8.14338.42909,1.0771,7.8238,1.02261-2.83009,9.66792.42909,1.0771s2.70228,1.01336,6.5457,1.01336c3.45088,0,18.34065.41094,20.59559-18.67843.00925-.08224.0185-.15523.0275-.22822,2.62914,10.29784,9.52194,12.19658,23.69974,12.19658,4.0077,0,2.33693-5.31327,2.77512-7.05678.43844-.26496.78514-1.00436.52967-1.87149.25547-.21922.59342-.7669.59342-1.21433,0-1.03161-.53868-2.40092-.53868-4.62861,1.18684-.3377,3.3323-.75765,3.3323-2.39167,0-.97686-2.1912-6.36313-3.55151-9.90539-.20997-.55692-.66641-.99511-1.25058-.99511-.92212-.009-1.30557,1.23258-3.82522,1.23258-4.63761.009-2.9306-4.40957-16.92567-3.50577-1.71626.10953-2.2002.61166-2.41017,2.24594-.51118,3.9802-.41094,14.74372,1.92623,21.20734-2.94885-3.20456-3.89821-9.31197-4.3454-14.05007-.94037,8.78229-1.45155,20.81489-12.57127,24.79509-4.78364,1.64327-10.07864,1.32382-15.00846.74865,2.98529.04574,5.97055-.04575,8.91932-.44744,1.93541-.25546,3.84345-.69366,5.6327-1.48805,12.89973-5.43175,8.87378-22.76837,11.98685-31.2587-5.70571,5.74246-6.82881,21.28058-20.86958,22.04722-3.72474.21922-7.42213-.07299-11.0921-.62992,3.66085.10049,7.36734.05499,10.98254-.44719,12.59854-1.70727,12.79027-15.29165,18.7152-22.13861-2.41942.52033-4.78384,1.28722-6.94754,2.47406-3.19531,1.67052-5.47755,4.30891-8.14331,6.79206-3.44175,3.21356-7.26693,4.18143-11.89549,3.88922-3.18614-.15523-6.37225-.41094-9.54925-.80339.12781,0,5.45933-.14598,5.45933-.14598,3.48737-.17348,7.25778.0455,10.48956-1.39681,2.43752-1.04086,4.21775-2.98534,5.97968-4.92082,3.28657-3.73373,6.93832-6.31741,11.74941-7.71419,3.58776-1.09552,15.2734-2.29146,22.53115-2.01757,4.28166.16433,13.06396,1.23246,18.70593,3.49652-.09124-.01827-.17348-.04567-.26471-.06392-2.38292-.48386-5.18554-.20085-7.46773.69383,2.37343.06392,4.95707.21907,6.97479.73025,1.78001.44744,5.24928,1.20508,5.71471,3.14982.0185-.12798.10048-.62091.10048-1.80775,0-7.53164-6.27188-14.54295-12.87223-14.54295Z"/>
</svg>