<svg fill="none" version="1.1" viewBox="0 0 100 100" xmlns="http://www.w3.org/2000/svg">
	<g transform="matrix(1.5843 0 0 1.5843 -13.404 13.001)">
		<path d="m34.81 33.703v7e-3l7.258-5.285-0.297-0.913-5.226 3.801 0.88-2.713-0.777-0.565-1.538 4.744a7.951 7.951 0 0 1-2.856-7.942l-0.8-0.581a8.87 8.87 0 0 0 3.356 9.447z" style="fill:#c20831"/>
		<path d="m39.627 28.506-5.227-3.802h2.847l0.296-0.914h-4.987c1.031-2.804 3.591-4.87 6.664-5.178l0.306-0.94c-3.717 0.204-6.828 2.71-7.937 6.118l7.257 5.28 0.777-0.565h3e-3z" style="fill:#c20831"/>
		<path d="m34.788 16.742h0.051c-0.038-0.4-0.174-0.636-0.425-0.73-0.903-0.339-1.39-1.085-1.39-1.918 0-0.95 0.606-1.54 1.367-1.54 1.08 0 1.474 1.259 2.708 1.259 0.445 0 0.806-0.262 0.806-0.482v-0.131h-0.232c-1.55 0-1.79-1.563-3.282-1.563-1.273 0-2.28 1.01-2.28 2.455 0 1.443 1.126 2.648 2.674 2.648" style="fill:#c20831"/>
		<path d="m20.492 26.926h5.561v-0.049c-0.558-0.168-1.003-0.442-1.467-0.865h-4.094c-2.083 0-2.696-0.194-3.727-1.308h14.12a8.63 8.63 0 0 1 0.233-0.914h-16.345l0.632 0.752c1.657 1.967 2.276 2.387 5.084 2.387" style="fill:#c20831"/>
		<path d="m37.588 12.675c0.79 0 1.277-0.658 1.277-1.269 0-0.61-0.284-0.872-0.577-0.872a0.47 0.47 0 0 0-0.468 0.466 0.47 0.47 0 0 0 0.436 0.461c-0.239 0.365-0.6 0.491-1.07 0.456a0.474 0.474 0 0 0 0.086-0.268 0.463 0.463 0 0 0-0.46-0.462c-0.233 0-0.462 0.216-0.462 0.494 0 0.523 0.487 0.995 1.242 0.995" style="fill:#c20831"/>
		<path d="m33.028 32.681h-6.698c-1.844 0-2.534-0.155-3.385-0.962h-1.26c1.35 1.53 2.098 1.88 4.648 1.88h7.622a9.504 9.504 0 0 1-0.925-0.914" style="fill:#c20831"/>
		<path d="m29.945 31.37v-0.048c-0.557-0.171-1.002-0.443-1.467-0.866h-4.094c-1.844 0-2.537-0.155-3.388-0.962h-1.261c1.35 1.53 2.099 1.88 4.649 1.88h5.561z" style="fill:#c20831"/>
		<path d="m27.998 29.145v-0.049c-0.558-0.168-1.006-0.442-1.467-0.865h-4.094c-1.844 0-2.538-0.155-3.389-0.963h-1.26c1.35 1.531 2.099 1.88 4.649 1.88h5.561z" style="fill:#c20831"/>
		<path d="m41.879 13.987c-0.454 0-0.915 0.556-1.086 1.37 0.284 0.019 0.561 0.048 0.838 0.09 0.18-0.707 0.497-1.033 0.761-1.079-0.093-0.216-0.27-0.378-0.513-0.378" style="fill:#c20831"/>
		<path d="m40.012 17.647-2.772 8.546 0.777 0.565 1.996-6.153 0.88 2.713h0.96l-1.537-4.748a7.95 7.95 0 0 1 6.97 4.748h0.987c-1.287-3.314-4.501-5.671-8.257-5.671" style="fill:#c20831"/>
		<path d="m44.962 18.108v-0.94c-1.354-0.778-3.163-1.353-4.95-1.353-1.785 0-3.594 0.575-4.948 1.354v0.94a9.702 9.702 0 0 1 4.949-1.377 9.71 9.71 0 0 1 4.949 1.376z" style="fill:#c20831"/>
		<path d="m35.515 16.326c0.233-0.11 0.471-0.21 0.713-0.304-0.12-0.355-0.342-0.756-0.761-0.756-0.21 0-0.37 0.168-0.442 0.362 0.194 0.068 0.355 0.236 0.487 0.698" style="fill:#c20831"/>
		<path d="m36.021 33.389-0.799 0.581a8.786 8.786 0 0 0 4.8 1.421c1.941 0 3.74-0.63 5.2-1.699h4e-3l-2.773-8.543h-0.96l1.995 6.153-2.305-1.676-0.777 0.565 4.03 2.933a7.871 7.871 0 0 1-4.417 1.353 7.878 7.878 0 0 1-4.004-1.088" style="fill:#c20831"/>
		<path d="m38.41 15.451c0.274-0.043 0.555-0.072 0.839-0.091-0.171-0.81-0.632-1.37-1.087-1.37-0.238 0-0.416 0.165-0.512 0.378 0.264 0.049 0.58 0.375 0.76 1.079" style="fill:#c20831"/>
		<path d="m36.757 14.604a0.543 0.543 0 0 0-0.49 0.362c0.2 0.029 0.464 0.19 0.657 0.823 0.255-0.077 0.513-0.145 0.777-0.203-0.187-0.627-0.525-0.985-0.944-0.985" style="fill:#c20831"/>
		<path d="m58.354 31.719h-1.26c-0.852 0.81-1.545 0.962-3.386 0.962h-6.696c-0.287 0.327-0.596 0.63-0.925 0.915h7.621c2.55 0 3.298-0.35 4.65-1.88" style="fill:#c20831"/>
		<path d="m39.471 23.786-0.296 0.915h6.457l-2.302 1.676 0.297 0.914 4.036-2.936a7.946 7.946 0 0 1-2.357 8.11l0.307 0.94a8.864 8.864 0 0 0 2.834-9.619z" style="fill:#c20831"/>
		<path d="m63.274 24.701c-1.032 1.114-1.644 1.308-3.727 1.308h-4.091c-0.465 0.423-0.91 0.697-1.467 0.865v0.049h5.561c2.811 0 3.43-0.42 5.088-2.387l0.632-0.753h-16.346c0.09 0.297 0.168 0.604 0.229 0.914h14.12v4e-3z" style="fill:#c20831"/>
		<path d="m39.117 10.938 0.902-0.655 0.903 0.658-0.345-1.062 0.903-0.656h-1.116l-0.345-1.062-0.345 1.062h-1.114l0.902 0.659-0.344 1.063v-7e-3z" style="fill:#c20831"/>
		<path d="m60.298 29.5h-1.26c-0.852 0.81-1.545 0.963-3.389 0.963h-4.094c-0.465 0.423-0.91 0.697-1.467 0.865v0.049h5.561c2.55 0 3.298-0.35 4.65-1.88" style="fill:#c20831"/>
		<path d="m62.246 27.278h-1.26c-0.851 0.81-1.544 0.962-3.389 0.962h-4.094c-0.464 0.424-0.91 0.698-1.467 0.866v0.048h5.561c2.55 0 3.298-0.348 4.65-1.88" style="fill:#c20831"/>
		<path d="m45.011 15.64c-0.07-0.193-0.235-0.36-0.442-0.36-0.419 0-0.641 0.4-0.757 0.758 0.242 0.094 0.48 0.194 0.712 0.3 0.136-0.461 0.297-0.63 0.487-0.697z" style="fill:#c20831"/>
		<path d="m39.446 13.92c0.252 0.29 0.4 0.516 0.561 0.875a0.066 0.066 0 0 0 0.013 0.019 0.066 0.066 0 0 1 0.013-0.02c0.161-0.361 0.31-0.584 0.561-0.875-0.097-0.252-0.383-0.71-0.574-0.898-0.19 0.188-0.48 0.646-0.574 0.898z" style="fill:#c20831"/>
		<path d="m42.135 13.2v0.132c0 0.222 0.364 0.48 0.806 0.48 1.235 0 1.628-1.259 2.708-1.259 0.761 0 1.367 0.591 1.367 1.54 0 0.834-0.486 1.58-1.39 1.92-0.25 0.093-0.39 0.329-0.425 0.73h0.055c1.55 0 2.676-1.193 2.676-2.65 0-1.456-1.006-2.454-2.283-2.454-1.492 0-1.73 1.563-3.282 1.563h-0.229l-3e-3 -3e-3z" style="fill:#c20831"/>
		<path d="m41.178 11.41c0 0.61 0.49 1.27 1.276 1.27 0.787 0 1.242-0.473 1.242-0.996 0-0.277-0.232-0.494-0.461-0.494-0.245 0-0.465 0.2-0.465 0.462 0 0.107 0.036 0.19 0.087 0.268-0.467 0.036-0.831-0.09-1.07-0.455a0.473 0.473 0 0 0 0.435-0.462 0.468 0.468 0 0 0-0.467-0.465c-0.294 0-0.58 0.252-0.58 0.872" style="fill:#c20831"/>
		<path d="m40.023 11.058a0.731 0.731 0 1 0 0.732 0.73 0.727 0.727 0 0 0-0.732-0.73z" style="fill:#c20831"/>
		<path d="m43.783 14.969a0.543 0.543 0 0 0-0.49-0.362c-0.42 0-0.758 0.356-0.945 0.985 0.264 0.058 0.522 0.126 0.777 0.204 0.197-0.636 0.461-0.798 0.658-0.827z" style="fill:#c20831"/>
	</g>
</svg>
