<svg fill="none" version="1.1" viewBox="0 0 100 100" xmlns="http://www.w3.org/2000/svg">
	<path d="m57.079 26.512c-3.3 0-5.1827 0.39031-7.589 1.6229-0.79331 0.40571-9.4876 4.8223-15.776 8.0578-4.9765 2.5575-8.4405 6.173-10.625 10.595-6.2934 12.747-13.089 26.695-13.089 26.7h13.57c3.353 0 5.6905-1.3558 6.9333-3.8723 0.55002-1.1093 3.6068-7.3029 6.6847-13.543h22.09c3.0251 0 4.1938-0.52893 5.3573-2.8914l1.1371-2.3624h-26.586c2.4116-4.8891 6.0131-12.238 6.0131-12.238 1.5178-3.0762 3.3053-4.3139 7.3352-4.3139h28.606c3.3529 0 5.6905-1.3558 6.9333-3.8723l1.9251-3.8825h-32.921z" fill="#0c0243" style="stroke-width:.82413"/>
</svg>
