<svg version="1.1" viewBox="0 0 100 100" xmlns="http://www.w3.org/2000/svg">
	<defs>
		<linearGradient id="a" x1="247.71234" y1="35.895241" x2="234.45755" y2="12.97487" gradientTransform="matrix(0.76256531,0,0,-0.76256531,-107.26802,72.008022)" gradientUnits="userSpaceOnUse">
			<stop offset="0" stop-color="#e9eaf6" id="stop1" />
			<stop offset=".07" stop-color="#c7cbe8" id="stop2" />
			<stop offset=".181" stop-color="#96a0d1" id="stop3" />
			<stop offset=".277" stop-color="#7183c0" id="stop4" />
			<stop offset=".353" stop-color="#5972b6" id="stop5" />
			<stop offset=".4" stop-color="#506cb3" id="stop6" />
			<stop offset=".9" stop-color="#2e5c99" id="stop7" />
		</linearGradient>
	</defs>
	<path d="m84.492 47.358c-2.2572 2.2496-7.1529 4.1781-9.5603 5.0848-3.2889 1.2384-4.7493 1.6738-6.5901 2.2763-2.0833 0.67487-6.2515 1.9407-6.2515 1.9407 8.6361 2.5805 14.718 3.3599 14.718 3.3599s2.8352-0.87542 7.326-3.2828c2.4303-1.2384 3.6283-2.0719 4.4831-2.8703 0.3157-0.28596 1.1286-1.1347 1.333-2.2229 0.01144-0.08083 0.05033-0.2852 0.05033-0.48957 0 0 0-0.1426-0.0122-0.26995-0.0038-0.1426-0.0305-0.23944-0.0305-0.23944s-0.04652-0.25851-0.11134-0.44c-0.06558-0.18073-0.34316-0.74045-0.79382-1.1034-0.30045-0.2425-0.8205-0.85255-2.7041-1.516-0.63903-0.22343-1.6754-0.42856-1.6754-0.42856l-0.18073 0.20132h-1.6e-5z" fill="url(#a)" />
	<path d="m90 51.092s-0.0122-0.23944-0.07321-0.44381c-0.05155-0.19134-0.13509-0.3726-0.24708-0.53608-0.18573-0.27283-0.39995-0.52513-0.63904-0.75265-0.23602-0.21595-0.48842-0.41329-0.75493-0.59022-1.1789-0.77172-2.7002-1.2071-4.0446-1.3924-2.0833-0.27758-4.4755-0.22801-4.7027-0.23563-0.77018-0.01144-5.7391 0.0305-7.0179 0.05414-5.6735 0.11591-12.618 0.13116-14.436 0.13116-18.78 0.08464-26.954-0.32028-36.052-2.1451-7.7378-1.5396-12.033-3.0015-12.033-3.0015 6.8257-0.23563 46.66-1.8912 53.928-2.0871 4.7569-0.13497 8.1343-0.16243 10.838-0.0076 1.3863 0.07625 2.6766 0.19674 4.2948 0.4705 1.4519 0.25088 2.7734 0.67106 3.5398 0.95702 1.6174 0.60166 2.9809 1.4695 3.655 2.3563 0 0 0.20056 0.20589 0.46974 0.56811 0.30426 0.42017 0.65504 0.94101 0.774 1.1339 0.98676 1.4931 1.4527 2.4341 1.6143 2.762 0.17691 0.34316 0.33094 0.70232 0.48119 1.0501 0.1464 0.34697 0.20819 0.55515 0.2585 0.70156 0.1037 0.3668 0.13039 0.70232 0.13421 0.77553l0.0122 0.23182z" style="fill:#ce210f" />
</svg>