<svg version="1.1" viewBox="0 0 100 100" xmlns="http://www.w3.org/2000/svg">
	<path d="m73.01 53.73v0.2895s0.37264 0.24818 0.38493 0.24818c0.0014 0 0.0026 6.4e-5 4e-3 -0.0027v1.0564h8.5097c1.7197 0 2.9794 0.22942 3.7424 0.67709 1.2161 0.70971 1.8086 1.6308 1.8113 2.8155 0 0.59507-0.15978 1.1383-0.4737 1.6159-0.31118 0.47496-0.7876 0.8816-1.4182 1.2092-0.82436 0.42719-2.0799 0.64297-3.7341 0.64297h-4.4371v-6.2319h-2.4266v7.1531l-0.01386 0.10503c-0.01501 0.01911-0.04077 0.0451-0.06398 0.06558l-0.29909 0.18846-0.02586 0.01893v0.29083h7.2774c1.4003 0 2.5005-0.07922 3.2716-0.23618 1.0564-0.2211 1.994-0.60454 2.787-1.1409 0.80935-0.5432 1.388-1.1739 1.721-1.8727 0.24704-0.51045 0.37266-1.0756 0.37266-1.6789 0-0.42856-0.0614-0.84614-0.18287-1.2419v0.0043c-0.38352-1.2147-1.2639-2.2125-2.615-2.9632-1.2174-0.68105-2.9439-1.0127-5.2791-1.0127zm-8.5644 0.0014-1.4059 1.4715h0.0016l1.5613 1.6567 1.6133 1.6242h-2.7257l-1.4944 1.5642 0.32335 0.22099 0.35214-0.1898c0.03412-0.01365 0.06834-0.02849 0.09836-0.02986 0.0232-0.0041 0.11317-0.0056 0.25511-0.0056h4.6623l3.217 3.4379s-0.04915 0.06025-0.32895 0.06025h-0.12555v0.3492h3.6373zm-24.776 0.0069v0.29616h0.0014l0.32468 0.21006c0.07507 0.05186 0.11329 0.09844 0.11329 0.14075l0.0029 8.8045-0.02319 0.11329c-0.03003 0.02593-0.06423 0.05589-0.08744 0.07091l-0.33028 0.21299v0.29483h3.2482v-0.29216l-0.30019-0.21169c-0.04231-0.02866-0.06562-0.04772-0.07517-0.04772-0.0014 0-0.0026-3.3e-5 -4e-3 0.0014v-8.9354l0.0069-0.0957 0.07357-0.06824 0.29749-0.19913v-0.29483zm-16.026 0.0027-1.4773 1.8537 0.30069 0.10476 0.04239 0.01093 0.45983-0.23192c0.12693-0.08462 0.25384-0.12555 0.38759-0.12555h5.8579l0.0029 7.8505-0.02612 0.11063c-0.02457 0.03003-0.05316 0.04912-0.07091 0.05731l-0.33428 0.22099v0.29083h3.2729v-0.29483l-0.33988-0.20739-0.0821-0.07517c0-0.01911-4e-3 -0.04765-0.0027-0.0845v-7.8683h5.196c0.19927 0.0232 0.22528 0.06945 0.22392 0.07491v0.27723h0.29189l1.6119-1.9641zm-1.4773 1.8537-7.99e-4 -2.66e-4v0.0014zm21.943-1.8537v0.29216l0.32335 0.21006c0.04777 0.03276 0.06968 0.05065 0.07651 0.05065h0.0027v8.9056l-0.01626 0.11463c-0.01365 0.02047-0.03811 0.04497-0.06131 0.05998l-0.32495 0.21832v0.28656h3.2729v-0.29056l-0.34121-0.21699c-0.05323-0.02866-0.07791-0.04638-0.0861-0.04638h-0.0027v-4.0865l-0.0014 0.0016v-4.8452l0.0096-0.09437s0.02597-0.02442 0.07784-0.05172l0.31109-0.1938 0.03279-0.01786v-0.29616zm2.843 5.4975 0.35347 0.10796 0.4545-0.2607c0.08189-0.0505 0.1542-0.08475 0.20606-0.09703 0.0273-0.0096 0.08184-0.02159 0.1842-0.02159h6.838v3.1303l2.4415-2.6172v-5.185c0-0.03821 0.04772-0.07784 0.04772-0.07784l0.35374-0.17754v-0.29883h-3.2785v0.29349l0.33721 0.21432c0.0969 0.05869 0.10503 0.0981 0.10503 0.13222v2.9794h-6.5635zm8.0363 2.859-0.0029 0.0032h0.0029zm-0.0029 0.0032h-0.0014v0.0014zm-36.902-8.3501c-1.0345 0-1.8425 0.03418-2.4007 0.0997-0.29617 0.03685-0.57463 0.08593-0.85169 0.15008-0.73155 0.16651-1.4454 0.44498-2.1238 0.8285-1.0946 0.621-1.8781 1.4098-2.3298 2.3461-0.25386 0.53365-0.38073 1.1286-0.378 1.7687-0.00273 1.6351 0.87758 2.9401 2.6164 3.8791 0.78342 0.43129 1.6666 0.72859 2.622 0.88554 0.71517 0.11738 1.6992 0.1762 2.9248 0.1762h6.7639l1.6119-1.9585h-0.13222l-0.3564 8e-3v-0.0014l-0.0021 0.0014h-2.73e-4l-0.42464 0.24444c-0.11465 0.06961-0.17751 0.09291-0.1898 0.09837l-7.2734 0.01893c-1.661 0-2.9248-0.21557-3.7546-0.64003-1.2529-0.65103-1.863-1.5777-1.8644-2.8347 0-0.56504 0.16392-1.1014 0.48329-1.5941 0.62782-0.924 1.5312-1.5533 2.8264-1.7921 0.34257-0.06142 0.67304-0.07651 0.89141-0.07651h3.7464c0.22383-0.0096 0.18964 0.04367 0.19646 0.06824l-0.04078 0.26204h0.30975l1.6037-1.938zm44.301 1.8452-7.9038 8.2599h3.6387v-0.34787h-0.12689c-0.06142 0-0.11741-0.0083-0.16927-0.01653h-0.0014c-0.07097-0.01092-0.11198-0.02584-0.13382-0.03812l6.109-6.3534zm-48.591 1.93-1.0673 1.5928h9.5579c0.18016 0.01911 0.24162 0.06407 0.24844 0.0941l-0.03972 0.28256h0.32895v-0.0014l1.5752-1.9681z" fill="#bd8c11"/>
	<path d="m65.3 36.109v11.409h1.4099v-0.0013s-0.02457-7.968 0-8.2301c0.01774-0.34667 0.19942-0.44227 0.39186-0.54327 0.15969-0.08462 0.32468-0.17057 0.3588-0.41078l0.0027-0.11596c0-0.13239-0.09945-0.17605-0.22365-0.22792-0.12147-0.05596-0.35636-0.20195-0.79038-0.57046-0.72609-0.62782-0.90334-0.91584-0.90607-0.91993zm-6.9564 0.0053v9.741l1.7292 1.7004-1.4331 1.4357h0.0014v0.0043l2.3216 2.3202 2.3106-2.3202-1.4371-1.44 1.7319-1.8316v-9.6085s-0.6469 1.466-1.7756 2.1989l0.0027 0.07624c0.02184 0.22383 0.15427 0.30994 0.28256 0.39319 0.15423 0.101 0.30167 0.19661 0.31668 0.5542 0.01638 0.26478 0 5.7854 0 5.7854l-1.4331 1.4947-1.44-1.4947c0-0.08871-0.01911-5.5356 0-5.7867 0.01365-0.35759 0.15979-0.4532 0.31402-0.5542 0.12693-0.08326 0.25796-0.1692 0.2839-0.39986l0.0027-0.11196c-1.0224-0.71519-1.7784-2.1566-1.7784-2.1566zm-13.774 0.04505s-0.90743 1.2012-2.1576 2.1198l0.0027 0.04638c0.0014 0.01911 4e-3 0.03936 4e-3 0.07757 0.03139 0.23339 0.19802 0.32086 0.35907 0.40412 0.19108 0.101 0.41771 0.19524 0.41771 0.54327v8.1645h9.0706v0.16767c-0.0096 0.03958-0.01093 0.10667-0.01093 0.21859 0 0.64693 0.22795 1.0945 0.63604 1.2569 0.0082 0.0041 0.20744 0.11462 0.50088 0.11462 0.2252 0 0.44357-0.06677 0.6483-0.1978v0.0032l0.15434-0.09597-0.14741-0.11756c-0.26482-0.19923-0.35361-0.79161-0.34952-1.2379v-0.10903h3.382l-0.0027-7.5066s-0.45183 1.0032-2.0787 2.1811c0 0 0.05892 0.32477 0.34281 0.48036 0.42173 0.23202 0.39026 0.45184 0.39026 0.45184v3.012h-2.0187c0.0014-0.04504 0.0029-0.09962 0.0029-0.15968v-0.13915c-0.0082-0.76021-0.2418-2.5303-2.2768-2.5303-0.03412 0-0.07231-6.4e-5 -0.10369 0.0027-0.62782 0.01638-1.1791 0.03012-1.6541 0.03012h-0.11329c-1.2079 0-1.8411-0.134-1.9939-0.42198l-0.06984-0.12555-0.11462 0.07917c-0.2211 0.14058-0.34787 0.41237-0.34787 0.74266 0.0055 0.48588 0.27014 1.0222 0.75466 1.0591 0.30299 0.01365 0.73983 0.01893 1.1793 0.01893 0.78478 0 1.5682-0.01359 1.5682-0.01359 1.6828 0.01228 1.7087 0.72344 1.7223 1.066v0.39026h-7.6963zm9.4707 12.919-0.0014 8.19e-4h0.0014zm-0.27297-11.529-1.066 1.07 1.066 1.0729v0.0013l1.0743-1.0769-0.09836-0.0845zm2.147 0-1.0673 1.07 1.0673 1.0729v0.0013l1.07-1.0756-0.09277-0.08717zm-23.377 2.3941v4.0889h7.0902s0.03133-0.0027 0.07091-0.0027c0.2211 0.0055 0.51595 0.06425 0.52141 0.51874v3.2743c0 0.02866-0.0068 0.70828-0.70828 0.70828-1.1233 0-1.0483-0.57046-1.0551-0.57046l4e-3 -1.8412h-5.9248v1.4016h4.65v1.1343s-0.1473 1.1942 2.3503 1.1942v-0.0027h0.0014c2.0295 0 2.0976-1.2598 2.0976-1.2721 0 0 0.0056-4.6461 0.0056-4.6898-0.0027-0.26751-0.07379-1.1383-0.90634-1.1478h-7.0793v-0.51021c0-0.11465 0.10654-0.15982 0.1898-0.21032 0.41491-0.25659 0.48293-0.48317 0.35054-0.56779-0.83664-0.47906-1.6581-1.5053-1.6581-1.5053zm28.424 8.0811 0.95805 0.96765-0.95805 0.96792-0.96765-0.96792z" fill="#bd8c11"/>
</svg>