<?xml version="1.0" encoding="UTF-8"?>
<svg id="_图层_1" xmlns="http://www.w3.org/2000/svg" version="1.1" viewBox="0 0 100 100">
  <!-- Generator: Adobe Illustrator 29.8.3, SVG Export Plug-In . SVG Version: 2.1.1 Build 3)  -->
  <defs>
    <style>
      .st0 {
        fill: #f1c931;
      }
    </style>
  </defs>
  <path class="st0" d="M63.82164,13.86446c5.23567,1.4959,10.47134,2.99181,15.70701,3.73977h3.73977c2.24386,0,3.73977-.74795,5.98363-1.4959h.74796c0,.49863-.24931.99727-.74796,1.4959-2.99181,2.24386-5.98363,3.73977-8.97544,4.48772-.74796,0-2.24386.74795-2.99181.74795-3.73977,1.4959-8.22749,1.4959-11.96725,1.4959-7.47953-.74795-14.21111-2.99181-21.69064-2.99181-6.73158-.74795-13.46316,2.24386-17.20292,7.47953-.74795,2.99181-2.24386,5.98363-2.24386,8.97544s4.48772,3.73977,5.98363,5.98363l2.24386,4.48772c.74795,2.99181,2.24386,5.98363,4.48772,8.97544,1.4959,1.4959,2.99181,3.73977,5.23567,4.48772,2.99181,2.24386,5.23567,4.48772,6.73157,7.47953,1.4959,2.99181,2.99181,5.23567,3.73977,8.22749.74796,1.4959,1.4959,2.99181,1.4959,5.23567v.74796c.74796,1.4959.74796,2.99181,1.4959,3.73977v.74796c0,.74796.74796,2.24386,0,2.24386-1.4959-1.4959-2.24386-2.99181-2.99181-4.48772-.74796-2.99181-2.99181-5.98363-5.23567-8.97544-1.4959-1.4959-2.99181-3.73977-4.48772-5.23567-5.98363-6.73157-14.95906-11.2193-21.69064-17.20292,0,0,0-.74796-.74795-1.4959-.74795-1.4959-1.4959-2.24386-2.24386-3.73977-1.4959-2.99181-3.73977-5.98363-5.23567-9.72339,0-1.4959-.74795-2.99181-.74795-4.48772v-.74795c0-1.4959-3.73977-2.24386-1.4959-5.23567,1.4959-1.4959,5.98363-2.99181,7.47953-5.98363v-1.4959s0-.74795-.74795-.74795-2.99181,1.4959-2.99181-.74795v-2.24386c.74795-1.4959.74795-2.99181.74795-4.48772,0-.74795.74795-.74795,1.4959-.74795s2.24386-.74795,2.99181-.74795c2.24386,0,5.23567,0,6.73158,1.4959.74795,1.4959,0,2.99181,0,4.48772s-1.4959,2.24386-.74795,2.99181h1.4959c2.99181-2.24386,5.98363-5.23567,8.97544-8.22748,2.24386-2.24386,5.98363-2.99181,8.97544-2.24386,6.73157,0,11.96725,2.24386,18.69883,3.73975v-.00004Z"/>
  <path class="st0" d="M46.61872,25.83171c.74796,1.4959,0,2.24386-.74796,3.73977-3.73977,5.23567-5.23567,11.96725-7.47953,17.95088h-.74795c-.74795,0-.74795-.74796-.74795-1.4959,0-6.73158,2.24386-12.7152,5.23567-18.69883.74796-.74795,1.4959-2.24386,2.99181-1.4959.74796-.74795.74796,0,1.49591,0v-.00002ZM57.09006,27.32762c.74796,2.24386-.74796,3.73977-1.4959,5.98363-3.73977,7.47953-8.22749,14.95906-10.47134,23.18654,0,0,0,.74796-.74796.74796h-.74796c-.74796-2.99181,0-6.73157.74796-9.72339,2.24386-6.73158,4.48772-13.46316,8.22749-20.19473.74796,0,.74796-.74795.74796-.74795,1.4959,0,2.99181,0,3.73976.74795h-.00001ZM67.5614,28.07557c.74796.74795.74796,2.24386,0,2.99181-4.48772,9.72339-11.2193,17.95087-14.21111,28.42222l-2.24386,6.73157c0,.74796-.74796.74796-.74796,0-.74796-.74796,0-2.24386,0-2.99181.74796-8.22749,2.99181-16.45497,6.73157-23.18654,1.4959-3.73977,3.73977-6.73158,5.23567-10.47134.74796-.74795,1.4959-2.24386,2.99181-2.24386.74796,0,1.4959,0,2.24387.74795ZM79.52865,28.82352c.74796,1.4959,0,2.24386,0,3.73977-2.99181,7.47953-8.22749,14.21111-11.96725,21.69064-3.73977,5.98363-5.98363,12.7152-8.22749,18.69883-.74796,2.24386-1.4959,3.73977-2.24386,5.98363h-.74796c-.74796-.74796-.74796-1.4959-.74796-2.24386.74796-8.22749,3.73977-14.95906,6.73157-22.43859,3.73977-8.22749,8.22749-15.70701,11.96725-23.9345.74796-.74795,1.4959-2.24386,2.99181-2.99181.74796,0,1.4959,0,2.24388,1.4959Z"/>
</svg>