<svg version="1.1" viewBox="0 0 100 100" xmlns="http://www.w3.org/2000/svg">
	<defs>
		<style>.a{fill:#fff;}.b{fill:#c00;}</style>
	</defs>
	<g transform="matrix(2.6657 0 0 2.6664 -611.63 -1138.2)">
		<path class="b" transform="translate(-.107 -.16)" d="m248.54 455.08h1.151l-0.051-1.372z"/>
		<path class="b" d="m263.15 446.95a15.166 15.166 0 0 0-0.074-3.32c0-0.019-0.022-0.019-0.026 0a8.971 8.971 0 0 1-3.3 5.056 0.018439 0.018439 0 0 1-0.024-0.028 10.951 10.951 0 0 0 3.026-6.7 14.854 14.854 0 0 0-1.521-3.773c-0.01-0.014-0.027-0.01-0.023 9e-3a10.294 10.294 0 0 1-2.6 8.323 0.018 0.018 0 1 1-0.029-0.021 11.682 11.682 0 0 0 1.69-9.78 15 15 0 0 0-24.134 0 11.685 11.685 0 0 0 1.689 9.78 0.0175 0.0175 0 1 1-0.028 0.021 10.29 10.29 0 0 1-2.6-8.323c0-0.019-0.015-0.023-0.024-9e-3a14.854 14.854 0 0 0-1.521 3.773 10.956 10.956 0 0 0 3.026 6.7 0.018118 0.018118 0 0 1-0.023 0.028 8.968 8.968 0 0 1-3.3-5.056c0-0.019-0.025-0.019-0.026 0a15.17 15.17 0 0 0-0.073 3.32 9.028 9.028 0 0 0 2.744 3.944c0.02 0.018 0 0.044-0.02 0.033a8.136 8.136 0 0 1-2.444-2.227c-9e-3 -0.014-0.025-9e-3 -0.021 8e-3a15 15 0 0 0 29.361 0c0-0.017-0.011-0.022-0.021-8e-3a8.129 8.129 0 0 1-2.445 2.227c-0.022 0.011-0.04-0.015-0.02-0.033a9.032 9.032 0 0 0 2.746-3.944m-20.507 9.78a6.628 6.628 0 0 1-1.423-0.141l0.35-0.911c0.936 0.109 1.739 0.028 2.053-0.79l0.993-2.589h2.045l-1.094 2.852a2.745 2.745 0 0 1-2.923 1.579m7-0.141-0.032-0.847h-1.847l-0.68 0.847h-1.689l3.426-3.97a0.876 0.876 0 0 1 0.629-0.32h1.829l0.41 4.29zm7.237 0h-4.641l1.645-4.29h2.045l-1.3 3.381h2.6zm-1.887-9.06c-3.068 2.985-7.65 1.078-7.184-2.588 0.358-2.826 3.823-5.642 6.447-7.169a0.02 0.02 0 0 0 0-0.033c-0.344-0.328-1.058-1.066-1.517-1.621a3.017 3.017 0 0 0-4.82 0.084l-7.544 0.7a0.0235 0.0235 0 0 0 0 0.047l8.087 0.468c1.434 0.081 1.9 1.382 0.518 2.429-5.136 3.893-6.052 8.013-4.9 11.278a0.021 0.021 0 0 1-0.038 0.017 6.633 6.633 0 0 1-1.019-2.345 9.655 9.655 0 1 1 11.971-1.27"/>
	</g>
</svg>
