<?xml version="1.0" encoding="UTF-8"?>
<svg id="_图层_1" data-name="图层_1" xmlns="http://www.w3.org/2000/svg" version="1.1" viewBox="0 0 100 100">
  <!-- Generator: Adobe Illustrator 29.6.0, SVG Export Plug-In . SVG Version: 2.1.1 Build 207)  -->
  <path d="M65.19465,72.54095c-15.49627,12.70578-35.77671,13.41081-45.31292,1.6022-9.53616-11.80846-4.73587-31.70823,10.74426-44.43017,15.48011-12.72172,35.76055-13.41069,45.32906-1.60217,9.56836,11.80858,4.71972,31.70835-10.76039,44.41414M76.79261,25.41905c-11.79136-14.62846-34.7619-15.46163-51.33739-1.92269-16.57552,13.53891-20.40931,36.5151-8.61798,51.11153,11.79128,14.59643,34.77798,15.4456,51.33736,1.8585,16.55938-13.58696,20.40937-36.45084,8.61801-51.04733Z" style="fill: #ed1c24;"/>
  <path d="M69.60678,40.73626c3.97876-5.54379,1.78807-18.40983-.72495-14.51637-2.1907,3.3808-13.12833,10.62294-22.77715,16.50301,0,0,2.35178-6.20067,4.36539-11.21557,2.01346-5.01506-7.05549-2.9001-12.30692-.20829-.49925.25629-4.6874,2.86796-5.04188,4.51832,2.20685-.38459,3.47952-.54473,3.22166,0-.2577.54473-.32217.78502-.5154,1.21761-1.61083,3.84544-3.76937,9.05279-5.96007,14.22799-5.04197,14.11569-2.51302,20.49266-2.51302,20.49266l13.48281.56073s-3.38274-1.44206-1.94915-9.21294c1.43359-7.77072,3.47936-8.78019,3.93046-8.95649.78926,3.20456,5.70236,16.48707,16.92985,24.1778,13.59558,9.30908,22.9867,4.66262,26.61114.94532,3.62429-3.71714,3.64044-11.21557,3.64044-11.21557,0,0-10.34161,8.3636-20.94093,1.15362-7.24873-4.98306-17.31648-13.90755-21.16632-17.27226.64433-.27229,14.81962-1.7945,21.61741-11.21573" style="fill: #ed1c24;"/>
</svg>