<svg id="MAG" version="1.1" viewBox="0 0 100 100" xmlns="http://www.w3.org/2000/svg">
	<path d="m89.771 50.004c0.11026-0.39906 0.21353-0.78761 0.22403-0.82962 0.0192-0.08576-0.0192-0.09626-0.084-0.10501-0.0648-0.0088-1.8483-0.13127-1.8483-0.13127a7.1095 7.1095 0 0 1-7.1515-7.1183c0.12776-8.0879-4.5349-20.978-22.776-21.731h-31.573l-0.42881 1.5752h26.465a3.7385 3.7385 0 0 1 3.6755 5.1912l-4.7467 17.196a6.826 6.826 0 0 1-6.5512 4.8797 3.7175 3.7175 0 0 1-3.4865-5.0075l2.1686-7.8761a2.9754 2.9754 0 0 0-2.8914-3.9888l-17.502 0.01225-0.42881 1.5525h7.4981a2.8547 2.8547 0 0 1 2.8599 3.9713s-0.93463 3.2695-2.0408 7.3738a5.403 5.403 0 0 1-5.2962 4.0886h-7.3003l-0.25729 0.94688-0.24854 0.91188h6.8855c0.79986 0 4.5296 0.14702 3.4217 4.1201-1.1709 4.1201-2.0338 7.3668-2.0338 7.3668a5.4258 5.4258 0 0 1-5.0757 3.9608h-7.5261l-0.41656 1.5752 17.536 0.01225a5.4083 5.4083 0 0 0 2.1458-0.58983 5.6901 5.6901 0 0 0 2.9754-3.434l2.1686-7.8586a7.0307 7.0307 0 0 1 6.2519-5.0127 3.6458 3.6458 0 0 1 3.8505 4.8797l-4.7257 17.189a7.1218 7.1218 0 0 1-6.5582 5.179h-26.497l-0.45331 1.6067h31.618a40.114 40.114 0 0 0 18.054-5.0757 43.609 43.609 0 0 0 8.725-6.4252 45.099 45.099 0 0 0 3.3517-3.5302 42.531 42.531 0 0 0 2.6691-3.4795 34.947 34.947 0 0 0 1.976-3.2292 14.989 14.989 0 0 1 7.2548-6.2694 13.057 13.057 0 0 1 3.8505-0.84887l1.8728-0.12077s0.13477 0 0.16102-0.11552c0.0263-0.07351 0.063-0.19253 0.10327-0.32905a0.15577 0.15577 0 0 0 0-0.01925c0.0455-0.15052 0.0893-0.30804 0.13302-0.46732" fill="#00425f" style="stroke-width:1.7502" data-name="Path 295169"/>
</svg>
