<?xml version="1.0" encoding="UTF-8"?><svg id="a" xmlns="http://www.w3.org/2000/svg" viewBox="0 0 100 100"><polygon points="23.47244 66.99785 25.34174 66.44078 24.54942 65.68562 23.47244 66.99785" fill="#ebebee"/><polygon points="25.9292 63.98408 25.34741 66.44758 29.82251 65.11679 27.11763 62.53569 25.9292 63.98408" fill="#d6d7da"/><polygon points="30.90941 60.55808 29.82619 65.1137 34.30753 63.78291 30.91564 60.55808 30.90941 60.55808" fill="#d6d7da"/><polygon points="35.39386 59.22668 34.31065 63.7823 38.79198 62.4577 35.4001 59.22668 35.39386 59.22668" fill="#f7f7f7"/><polygon points="39.87274 57.90085 38.78953 62.45647 43.27086 61.12568 39.87898 57.90085 39.87274 57.90085" fill="#d6d7da"/><polygon points="44.3571 56.56943 43.27389 61.12504 47.75522 59.80044 44.36334 56.56943 44.3571 56.56943" fill="#c1c2c8"/><polygon points="48.84156 55.2436 47.7522 59.79922 52.23354 58.46843 48.84156 55.23741 48.84156 55.2436" fill="#fff"/><polygon points="53.32044 53.9122 52.23722 58.46782 56.71856 57.14322 53.32667 53.9122 53.32044 53.9122" fill="#c1c2c8"/><polygon points="57.80489 52.58637 56.72167 57.14199 61.19687 55.8112 57.80489 52.58018 57.80489 52.58637" fill="#d6d7da"/><polygon points="62.28377 51.25497 61.20056 55.81059 65.68189 54.4798 62.29001 51.25497 62.28377 51.25497" fill="#f7f7f7"/><polygon points="66.76823 49.92912 65.67887 54.48474 70.16021 53.15395 66.76823 49.92293 66.76823 49.92912" fill="#c1c2c8"/><polygon points="71.24701 48.59772 70.1638 53.15334 74.64513 51.82255 71.25325 48.59772 71.24701 48.59772" fill="#f7f7f7"/><polygon points="74.64523 51.82316 79.12656 50.49856 75.73458 47.26754 74.64523 51.82316" fill="#f7f7f7"/><polygon points="80.21035 45.94049 79.12713 50.49611 83.60847 49.16532 80.21658 45.94049 80.21035 45.94049" fill="#d6d7da"/><polygon points="84.6948 44.60909 83.61158 49.16471 88.08678 47.84011 84.70103 44.60909 84.6948 44.60909" fill="#ebebee"/><polygon points="89.17368 43.28324 88.09046 47.83886 89.99688 47.26941 89.99688 44.05695 89.17991 43.28324 89.17368 43.28324" fill="#d6d7da"/><polygon points="89.17925 43.28324 89.99632 44.05695 89.99632 43.03564 89.17925 43.28324" fill="#c1c2c8"/><polygon points="88.31572 43.5395 84.70094 44.61032 88.09292 47.84134 89.17614 43.28572 88.31572 43.5395" fill="#f7f7f7"/><polygon points="84.20452 44.75392 80.21837 45.94235 83.61649 49.17337 84.69348 44.61157 84.20452 44.75392" fill="#d6d7da"/><polygon points="79.43049 46.16889 75.73524 47.26445 79.12722 50.49549 80.21658 45.93987 79.43049 46.16889" fill="#c1c2c8"/><polygon points="74.88474 47.52258 71.25136 48.59958 74.64957 51.8306 75.73269 47.2688 74.88474 47.52258" fill="#d6d7da"/><polygon points="71.06879 48.65342 66.77314 49.9285 70.16512 53.15952 71.25447 48.59772 71.06879 48.65342" fill="#f7f7f7"/><polygon points="65.92698 50.17423 62.28746 51.25742 65.68558 54.48844 66.76879 49.92664 65.92698 50.17423" fill="#d6d7da"/><polygon points="62.20576 51.27723 57.81103 52.58946 61.20301 55.82048 62.29246 51.25247 62.20576 51.27723" fill="#fff"/><polygon points="56.49576 52.97075 53.32667 53.91158 56.72479 57.1426 57.80801 52.58698 56.49576 52.97075" fill="#f7f7f7"/><polygon points="48.84713 55.2436 52.23911 58.47462 53.32847 53.91281 48.84713 55.2436" fill="#f7f7f7"/><polygon points="44.36268 56.56943 47.7608 59.80044 48.84401 55.24483 44.36268 56.56943" fill="#f7f7f7"/><polygon points="43.91707 56.70314 39.88143 57.89776 43.27332 61.12878 44.36277 56.56697 43.91707 56.70314" fill="#ebebee"/><polygon points="35.39944 59.22668 38.79756 62.4577 39.88077 57.90208 35.39944 59.22668" fill="#ebebee"/><polygon points="35.07076 59.32138 30.91744 60.55933 34.31565 63.79035 35.39877 59.22854 35.07076 59.32138" fill="#d6d7da"/><polygon points="28.02933 61.41597 27.11329 62.5363 29.83677 65.12359 30.91375 60.5556 28.02933 61.41597" fill="#f7f7f7"/><polygon points="24.54763 65.68314 25.35232 66.44448 25.93411 63.98097 24.54763 65.68314" fill="#d6d7da"/><polygon points="20.05203 71.19261 19.77964 72.32532 19.77964 72.3315 24.26098 71.00074 21.97705 68.82814 20.05203 71.19261" fill="#ebebee"/><polygon points="24.26353 71.0032 28.74487 69.67241 25.34675 66.44139 24.26353 71.0032" fill="#d6d7da"/><polygon points="28.74241 69.6718 33.22375 68.3472 29.83177 65.11618 28.74241 69.6718" fill="#f7f7f7"/><polygon points="33.22686 68.34597 37.7082 67.01518 34.31008 63.78416 33.22686 68.34597" fill="#f7f7f7"/><polygon points="37.70565 67.01454 42.18699 65.68994 38.78887 62.45892 37.70565 67.01454" fill="#d6d7da"/><polygon points="42.1901 65.68872 46.67144 64.35793 43.27332 61.12691 42.1901 65.68872" fill="#c1c2c8"/><polygon points="46.66898 64.35732 51.15032 63.02653 47.75834 59.79551 46.66898 64.35732" fill="#fff"/><polygon points="51.15344 63.03149 55.63477 61.7007 52.23665 58.46968 51.15344 63.03149" fill="#ebebee"/><polygon points="55.63232 61.70009 60.11366 60.3693 56.72167 57.13828 55.63232 61.70009" fill="#d6d7da"/><polygon points="18.90449 72.59086 20.31573 72.16995 20.03106 71.21055 18.90449 72.59086" fill="#fff"/><polygon points="19.60643 71.73854 19.77974 72.32038 20.05212 71.19384 19.60643 71.73854" fill="#d6d7da"/><polygon points="60.11677 60.37424 64.59811 59.04345 61.19999 55.81243 60.11677 60.37424" fill="#c1c2c8"/><polygon points="64.59556 59.04284 69.0769 57.71205 65.67878 54.48103 64.59556 59.04284" fill="#c1c2c8"/><polygon points="69.08001 57.71144 73.56135 56.38683 70.16323 53.15582 69.08001 57.71144" fill="#f7f7f7"/><polygon points="73.55889 56.38561 78.04023 55.05482 74.64825 51.8238 73.55889 56.38561" fill="#f7f7f7"/><polygon points="78.04335 55.05421 82.52468 53.72961 79.12656 50.49859 78.04335 55.05421" fill="#d6d7da"/><polygon points="82.52223 53.72836 87.00356 52.39757 83.61158 49.16655 82.52223 53.72836" fill="#ebebee"/><polygon points="87.00668 52.39696 89.99632 51.51182 89.99632 49.64873 88.0899 47.84134 87.00668 52.39696" fill="#d6d7da"/><polygon points="88.09292 47.84011 89.99934 49.65369 89.99934 47.27685 88.09292 47.84011" fill="#c1c2c8"/><polygon points="83.61404 49.17151 87.01216 52.40253 88.09538 47.84072 83.61404 49.17151" fill="#c1c2c8"/><polygon points="79.12959 50.49734 82.52771 53.72836 83.61092 49.16655 79.12959 50.49734" fill="#f7f7f7"/><polygon points="74.6508 51.82874 78.04278 55.05976 79.13214 50.49795 74.6508 51.82874" fill="#c1c2c8"/><polygon points="70.16635 53.15459 73.56447 56.38561 74.64768 51.82999 70.16635 53.15459" fill="#d6d7da"/><polygon points="65.68746 54.48599 69.07945 57.71701 70.1688 53.1552 65.68746 54.48599" fill="#d6d7da"/><polygon points="61.20301 55.81739 64.60113 59.04222 65.68435 54.4866 61.20301 55.81739" fill="#d6d7da"/><polygon points="56.72413 57.14322 60.11611 60.37424 61.20547 55.81243 56.72413 57.14322" fill="#f7f7f7"/><polygon points="52.23968 58.47462 55.6378 61.69945 56.72101 57.14383 52.23968 58.47462" fill="#f7f7f7"/><polygon points="47.76089 59.80047 51.15287 63.03149 52.24223 58.46968 47.76089 59.80047" fill="#f7f7f7"/><polygon points="43.27644 61.13187 46.67456 64.36289 47.75777 59.80108 43.27644 61.13187" fill="#d6d7da"/><polygon points="38.79756 62.4577 42.18954 65.68872 43.27889 61.12691 38.79756 62.4577" fill="#ebebee"/><polygon points="34.3131 63.7891 37.71122 67.02012 38.79444 62.45831 34.3131 63.7891" fill="#c1c2c8"/><polygon points="29.83422 65.11492 33.2262 68.34594 34.31556 63.78414 29.83422 65.11492" fill="#d6d7da"/><polygon points="25.34977 66.44635 28.74789 69.67737 29.8311 65.11556 25.34977 66.44635" fill="#acaab0"/><polygon points="23.47244 67.00342 21.98074 68.82937 24.26476 71.00197 25.34174 66.44635 23.47244 67.00342" fill="#fff"/><polygon points="23.1772 75.56004 27.65853 74.22926 24.26041 71.00442 23.1772 75.56004" fill="#d6d7da"/><polygon points="27.65608 74.23422 32.13741 72.90343 28.74543 69.67241 27.65608 74.23422" fill="#d6d7da"/><polygon points="32.14053 72.90281 36.62187 71.57203 33.22375 68.34101 32.14053 72.90281" fill="#c1c2c8"/><polygon points="36.61941 71.57699 41.10075 70.2462 37.70877 67.01518 36.61941 71.57699" fill="#f7f7f7"/><polygon points="41.10386 70.24559 45.5852 68.9148 42.18708 65.68378 41.10386 70.24559" fill="#d6d7da"/><polygon points="45.58265 68.91974 50.06399 67.58895 46.66587 64.35793 45.58265 68.91974" fill="#c1c2c8"/><polygon points="50.0671 67.58833 54.54844 66.25755 51.15032 63.02653 50.0671 67.58833" fill="#d6d7da"/><polygon points="54.54599 66.25693 59.02732 64.93233 55.63534 61.70132 54.54599 66.25693" fill="#fff"/><polygon points="59.03044 64.93111 63.51178 63.60032 60.11366 60.3693 59.03044 64.93111" fill="#d6d7da"/><polygon points="18.90449 72.59086 18.43405 73.1727 21.46704 76.06947 21.2194 75.22766 20.31573 72.16995 18.90449 72.59086" fill="#f7f7f7"/><polygon points="20.93776 76.22854 23.17842 75.56004 19.78644 72.32902 20.93776 76.22854" fill="#f7f7f7"/><polygon points="63.50932 63.59971 67.99066 62.27511 64.59868 59.04409 63.50932 63.59971" fill="#f7f7f7"/><polygon points="67.99377 62.27385 72.47511 60.94307 69.07699 57.71205 67.99377 62.27385" fill="#c1c2c8"/><polygon points="72.47265 60.94245 76.95399 59.61785 73.55587 56.38683 72.47265 60.94245" fill="#f7f7f7"/><polygon points="76.95701 59.61663 81.43835 58.28584 78.04023 55.05482 76.95701 59.61663" fill="#f7f7f7"/><polygon points="81.43589 58.28523 85.91723 56.96063 82.51911 53.72342 81.43589 58.28523" fill="#d6d7da"/><polygon points="85.92035 56.9594 89.99934 55.74622 89.99934 55.24485 87.0097 52.39759 85.92035 56.9594" fill="#ebebee"/><polygon points="14.3476 78.17829 16.99061 77.3922 15.86405 76.32138 14.3476 78.17829" fill="#f7f7f7"/><polygon points="17.81259 73.9334 16.98939 77.39964 21.46449 76.06885 18.4316 73.17825 17.81259 73.9334" fill="#c1c2c8"/><polygon points="19.78465 72.3346 23.17663 75.56562 24.26598 71.00381 19.78465 72.3346" fill="#c1c2c8"/><polygon points="15.86282 76.32325 16.99552 77.40025 17.81873 73.92783 15.86282 76.32325" fill="#d6d7da"/><polygon points="87.00668 52.40253 89.99632 55.2436 89.99632 51.5112 87.00668 52.40253" fill="#f7f7f7"/><polygon points="82.5278 53.72836 85.92592 56.95937 87.00914 52.39757 82.5278 53.72836" fill="#d6d7da"/><polygon points="78.04892 55.05978 81.4409 58.2908 82.52412 53.72899 78.04892 55.05978" fill="#c1c2c8"/><polygon points="73.56447 56.38561 76.95645 59.61663 78.0458 55.05482 73.56447 56.38561" fill="#d6d7da"/><polygon points="69.08001 57.71701 72.47813 60.94803 73.56135 56.38622 69.08001 57.71701" fill="#c1c2c8"/><polygon points="64.60113 59.04284 67.99311 62.27385 69.08247 57.71824 64.60113 59.04284" fill="#d6d7da"/><polygon points="60.11677 60.37424 63.51489 63.60526 64.59811 59.04345 60.11677 60.37424" fill="#fff"/><polygon points="55.63789 61.70009 59.02987 64.93111 60.11923 60.37549 55.63789 61.70009" fill="#f7f7f7"/><polygon points="51.15344 63.03149 54.55156 66.26251 55.63477 61.7007 51.15344 63.03149" fill="#f7f7f7"/><polygon points="46.67456 64.36289 50.06654 67.58772 51.15589 63.0321 46.67456 64.36289" fill="#f7f7f7"/><polygon points="42.1901 65.68872 45.58822 68.91974 46.67144 64.35793 42.1901 65.68872" fill="#ebebee"/><polygon points="37.71122 67.02012 41.1032 70.25114 42.19256 65.68933 37.71122 67.02012" fill="#ebebee"/><polygon points="33.22686 68.34597 36.62498 71.57699 37.7082 67.01518 33.22686 68.34597" fill="#d6d7da"/><polygon points="28.74798 69.67737 32.13996 72.90839 33.22932 68.34658 28.74798 69.67737" fill="#fff"/><polygon points="24.26353 71.0032 27.66165 74.23422 28.74487 69.67241 24.26353 71.0032" fill="#f7f7f7"/><polygon points="16.99373 77.39839 20.38571 80.62941 21.47507 76.07379 21.46893 76.0676 16.99373 77.39839" fill="#ebebee"/><polygon points="14.3476 78.17829 13.29536 79.47193 15.9074 81.95401 16.99061 77.39839 14.3476 78.17829" fill="#d6d7da"/><polygon points="10.72668 82.62373 11.42615 83.28603 11.93371 81.14439 10.72668 82.62373" fill="#c1c2c8"/><polygon points="85.92035 56.9594 89.31847 60.19042 89.99934 57.33698 89.99934 55.75241 85.92035 56.9594" fill="#f7f7f7"/><polygon points="81.44147 58.28523 84.82721 61.51625 85.9228 56.96063 81.44147 58.28523" fill="#fff"/><polygon points="76.95701 59.61663 80.35513 62.84765 81.43835 58.28584 76.95701 59.61663" fill="#c1c2c8"/><polygon points="72.47823 60.94803 75.87021 64.17905 76.95956 59.61724 72.47823 60.94803" fill="#fff"/><polygon points="20.38071 80.62942 22.62761 79.96093 21.47006 76.07381 20.38071 80.62942" fill="#d6d7da"/><polygon points="67.99377 62.27385 71.39189 65.50487 72.47511 60.94307 67.99377 62.27385" fill="#d6d7da"/><polygon points="63.51489 63.60528 66.91301 66.8363 67.99623 62.27449 63.51489 63.60528" fill="#d6d7da"/><polygon points="20.93776 76.22854 22.08284 80.11567 23.17842 75.56004 20.93776 76.22854" fill="#d6d7da"/><polygon points="59.03044 64.93111 62.42856 68.16213 63.51178 63.60032 59.03044 64.93111" fill="#c1c2c8"/><polygon points="54.55156 66.26251 57.94354 69.49353 59.03289 64.93172 54.55156 66.26251" fill="#f7f7f7"/><polygon points="50.0671 67.58833 53.46523 70.81935 54.54844 66.26373 50.0671 67.58833" fill="#f7f7f7"/><polygon points="45.58822 68.91974 48.98021 72.15075 50.06956 67.58895 45.58822 68.91974" fill="#f7f7f7"/><polygon points="41.10386 70.24559 44.50199 73.47661 45.5852 68.92099 41.10386 70.24559" fill="#d6d7da"/><polygon points="36.62498 71.57699 40.01697 74.80801 41.10632 70.2462 36.62498 71.57699" fill="#acaab0"/><polygon points="32.14053 72.90839 35.53865 76.13322 36.62187 71.5776 32.14053 72.90839" fill="#d6d7da"/><polygon points="27.66165 74.23422 31.05363 77.46523 32.14299 72.90343 27.66165 74.23422" fill="#f7f7f7"/><polygon points="23.1772 75.56562 26.57532 78.79663 27.65853 74.23483 23.1772 75.56562" fill="#c1c2c8"/><polygon points="22.09096 80.12249 26.57229 78.7917 23.17417 75.56068 22.09096 80.12249" fill="#f7f7f7"/><polygon points="26.56984 78.79109 31.05118 77.4603 27.65305 74.22928 26.56984 78.79109" fill="#d6d7da"/><polygon points="31.0542 77.46523 35.53553 76.13445 32.13741 72.90343 31.0542 77.46523" fill="#c1c2c8"/><polygon points="35.53308 76.13383 40.01442 74.80305 36.61629 71.57203 35.53308 76.13383" fill="#f7f7f7"/><polygon points="40.01753 74.80243 44.49887 73.47783 41.10075 70.24681 40.01753 74.80243" fill="#f7f7f7"/><polygon points="44.49641 73.47661 48.97775 72.14582 45.58577 68.9148 44.49641 73.47661" fill="#d6d7da"/><polygon points="48.98087 72.15078 53.4622 70.81999 50.06408 67.58897 48.98087 72.15078" fill="#fff"/><polygon points="53.45975 70.81935 57.94108 69.48857 54.54296 66.25755 53.45975 70.81935" fill="#d6d7da"/><polygon points="57.94411 69.48795 62.42544 68.16335 59.02732 64.93233 57.94411 69.48795" fill="#d6d7da"/><polygon points="62.42299 68.16213 66.90432 66.83134 63.5062 63.60032 62.42299 68.16213" fill="#f7f7f7"/><polygon points="66.90744 66.83073 71.38878 65.50613 67.99066 62.26892 66.90744 66.83073" fill="#f7f7f7"/><polygon points="71.39189 65.5049 75.86709 64.17411 72.47511 60.94309 71.39189 65.5049" fill="#f7f7f7"/><polygon points="75.87077 64.17347 80.35211 62.84269 76.95399 59.61167 75.87077 64.17347" fill="#d6d7da"/><polygon points="80.34966 62.84765 84.83099 61.51686 81.43901 58.28584 80.34966 62.84765" fill="#ebebee"/><polygon points="84.83401 61.51625 89.31535 60.18546 85.92337 56.95444 84.83401 61.51625" fill="#ebebee"/><polygon points="10.00803 83.50391 10.67653 83.50391 11.41926 83.28109 10.72602 82.62497 10.00803 83.50391" fill="#d6d7da"/><polygon points="89.3129 60.18485 89.99991 59.98677 89.99991 57.31901 89.3129 60.18485" fill="#d6d7da"/><polygon points="11.92994 81.1475 11.42238 83.28294 15.90371 81.95835 13.29782 79.47009 11.92994 81.1475" fill="#f7f7f7"/><polygon points="15.90182 81.95525 20.38316 80.62446 16.98504 77.39343 15.90182 81.95525" fill="#c1c2c8"/><polygon points="25.48351 83.34793 29.96484 82.02333 26.57286 78.79231 25.48351 83.34793" fill="#d6d7da"/><polygon points="29.96796 82.02211 34.4493 80.69132 31.05118 77.4603 29.96796 82.02211" fill="#d6d7da"/><polygon points="34.44684 80.69069 38.92818 79.3661 35.5362 76.13509 34.44684 80.69069" fill="#c1c2c8"/><polygon points="38.9312 79.36485 43.41254 78.03407 40.01442 74.80305 38.9312 79.36485" fill="#f7f7f7"/><polygon points="43.41008 78.03345 47.89142 76.70267 44.4933 73.47783 43.41008 78.03345" fill="#d6d7da"/><polygon points="47.89453 76.70763 52.37587 75.37684 48.97775 72.14582 47.89453 76.70763" fill="#fff"/><polygon points="52.37341 75.37623 56.85475 74.05162 53.46277 70.81442 52.37341 75.37623" fill="#d6d7da"/><polygon points="56.85787 74.0504 61.3392 72.71961 57.94108 69.48859 56.85787 74.0504" fill="#c1c2c8"/><polygon points="20.38071 80.62385 23.40746 83.50206 23.67361 83.50206 22.62761 79.96155 20.38071 80.62385" fill="#d6d7da"/><polygon points="61.33675 72.71897 65.81809 71.39437 62.4261 68.15717 61.33675 72.71897" fill="#d6d7da"/><polygon points="23.0937 83.50391 24.96915 83.50391 25.48908 83.34917 22.09096 80.11814 23.0937 83.50391" fill="#f7f7f7"/><polygon points="65.8212 71.39315 70.30254 70.06236 66.90442 66.83134 65.8212 71.39315" fill="#f7f7f7"/><polygon points="70.29999 70.06174 74.78132 68.73096 71.3832 65.49994 70.29999 70.06174" fill="#c1c2c8"/><polygon points="74.78444 68.73592 79.26578 67.40513 75.86766 64.17411 74.78444 68.73592" fill="#d6d7da"/><polygon points="79.2689 67.40452 83.74409 66.07373 80.35211 62.84271 79.2689 67.40452" fill="#f7f7f7"/><polygon points="83.74778 66.07309 88.22911 64.74849 84.83713 61.51747 83.74778 66.07309" fill="#d6d7da"/><polygon points="88.23223 64.74726 89.99632 64.22115 89.99632 60.83537 89.31545 60.18546 88.23223 64.74726" fill="#ebebee"/><polygon points="11.36731 83.50391 11.65207 83.50391 11.4168 83.28109 11.36731 83.50391" fill="#d6d7da"/><polygon points="15.53414 83.50391 17.52726 83.50391 15.89937 81.9503 15.53414 83.50391" fill="#acaab0"/><polygon points="19.70106 83.50391 23.40255 83.50391 20.38193 80.6257 19.70106 83.50391" fill="#c1c2c8"/><polygon points="22.09096 80.12249 25.48908 83.35351 26.57229 78.7917 22.09096 80.12249" fill="#c1c2c8"/><polygon points="15.9074 81.95525 17.52906 83.50267 19.70172 83.50267 20.38873 80.62446 15.9074 81.95525" fill="#d6d7da"/><polygon points="11.42294 83.28666 11.65198 83.5033 15.53291 83.5033 15.90428 81.95587 11.42294 83.28666" fill="#c1c2c8"/><polygon points="10.6821 83.50391 11.36911 83.50391 11.42483 83.28109 10.6821 83.50391" fill="#f7f7f7"/><polygon points="89.31847 60.19042 89.99934 60.83415 89.99934 59.99234 89.31847 60.19042" fill="#f7f7f7"/><polygon points="84.83959 61.51625 88.23157 64.74726 89.32092 60.19165 84.83959 61.51625" fill="#d6d7da"/><polygon points="80.35523 62.84765 83.75335 66.07867 84.83656 61.51686 80.35523 62.84765" fill="#c1c2c8"/><polygon points="75.87635 64.17905 79.26833 67.41007 80.35154 62.84826 75.87635 64.17905" fill="#fff"/><polygon points="71.39189 65.5049 74.78388 68.73592 75.87323 64.17411 71.39189 65.5049" fill="#f7f7f7"/><polygon points="66.90744 66.8363 70.30556 70.06732 71.38878 65.50551 66.90744 66.8363" fill="#d6d7da"/><polygon points="62.42856 68.16213 65.82054 71.39315 66.9099 66.83134 62.42856 68.16213" fill="#fff"/><polygon points="57.94411 69.49353 61.34223 72.72455 62.42544 68.16274 57.94411 69.49353" fill="#f7f7f7"/><polygon points="53.46532 70.81935 56.8573 74.05037 57.94666 69.48857 53.46532 70.81935" fill="#f7f7f7"/><polygon points="48.98087 72.15078 52.37899 75.3818 53.4622 70.81999 48.98087 72.15078" fill="#f7f7f7"/><polygon points="44.50199 73.47661 47.89397 76.70763 48.98332 72.15201 44.50199 73.47661" fill="#ebebee"/><polygon points="40.01753 74.80801 43.41565 78.03903 44.49887 73.47722 40.01753 74.80801" fill="#ebebee"/><polygon points="35.53865 76.13383 38.93063 79.36485 40.01999 74.80923 35.53865 76.13383" fill="#d6d7da"/><polygon points="31.0542 77.46523 34.45232 80.69625 35.53553 76.13445 31.0542 77.46523" fill="#d6d7da"/><polygon points="26.57541 78.79109 29.96739 82.02211 31.05675 77.46649 26.57541 78.79109" fill="#fff"/><polygon points="25.4445 83.50391 25.64255 83.50391 25.48162 83.34917 25.4445 83.50391" fill="#ebebee"/><polygon points="29.61142 83.50391 31.52407 83.50391 29.96428 82.01839 29.61142 83.50391" fill="#d6d7da"/><polygon points="33.77834 83.50391 37.39936 83.50391 34.44684 80.69379 33.77834 83.50391" fill="#f7f7f7"/><polygon points="37.94526 83.50391 39.25751 83.50391 42.32139 82.59403 38.92327 79.35683 37.94526 83.50391" fill="#c1c2c8"/><polygon points="42.32384 82.59588 46.80518 81.2651 43.4132 78.03407 42.32384 82.59588" fill="#d6d7da"/><polygon points="46.80829 81.26448 51.28963 79.9399 47.89151 76.70267 46.80829 81.26448" fill="#d6d7da"/><polygon points="51.28708 79.93864 55.76842 78.60786 52.3703 75.37684 51.28708 79.93864" fill="#fff"/><polygon points="55.77153 78.60724 60.25287 77.27646 56.85475 74.04544 55.77153 78.60724" fill="#c1c2c8"/><polygon points="60.25042 77.28142 64.73175 75.95063 61.33977 72.71961 60.25042 77.28142" fill="#d6d7da"/><polygon points="24.97103 83.50391 25.44762 83.50391 25.49097 83.34917 24.97103 83.50391" fill="#d6d7da"/><polygon points="64.73487 75.95002 69.21621 74.61923 65.81809 71.38821 64.73487 75.95002" fill="#c1c2c8"/><polygon points="69.21932 74.61859 73.69452 73.29399 70.30254 70.06297 69.21932 74.61859" fill="#c1c2c8"/><polygon points="73.6982 73.29276 78.17954 71.96198 74.78756 68.73096 73.6982 73.29276" fill="#f7f7f7"/><polygon points="78.17708 71.96136 82.66465 70.63676 79.2603 67.40574 78.17708 71.96136" fill="#f7f7f7"/><polygon points="64.69586 16.49361 63.90354 17.4654 66.65177 16.64215 66.49083 16.49361 64.69586 16.49361" fill="#f7f7f7"/><polygon points="82.66144 70.63554 87.14278 69.30475 83.74466 66.07373 82.66144 70.63554" fill="#d6d7da"/><polygon points="66.69021 16.49361 66.65923 16.64836 67.17303 16.49361 66.69021 16.49361" fill="#d6d7da"/><polygon points="87.1459 69.30414 89.99934 68.45614 89.99934 66.43211 88.22911 64.74852 87.1459 69.30414" fill="#ebebee"/><polygon points="88.23223 64.74726 89.99632 66.42467 89.99632 64.22115 88.23223 64.74726" fill="#f7f7f7"/><polygon points="83.75335 66.07867 87.14533 69.30968 88.22855 64.74788 83.75335 66.07867" fill="#f7f7f7"/><polygon points="79.2689 67.40452 82.66702 70.63554 83.75023 66.07992 79.2689 67.40452" fill="#c1c2c8"/><polygon points="66.49518 16.49361 66.65612 16.64836 66.69323 16.49361 66.49518 16.49361" fill="#c1c2c8"/><polygon points="74.78444 68.73592 78.18256 71.96694 79.26578 67.40513 74.78444 68.73592" fill="#fff"/><polygon points="70.30556 70.06174 73.70368 73.29276 74.7869 68.73714 70.30556 70.06174" fill="#d6d7da"/><polygon points="65.8212 71.39315 69.21932 74.62416 70.30254 70.06236 65.8212 71.39315" fill="#d6d7da"/><polygon points="61.34232 72.71897 64.74044 75.94999 65.82366 71.39437 61.34232 72.71897" fill="#f7f7f7"/><polygon points="56.85787 74.0504 60.25599 77.28142 61.3392 72.71961 56.85787 74.0504" fill="#f7f7f7"/><polygon points="52.37899 75.3818 55.77097 78.61282 56.86032 74.05101 52.37899 75.3818" fill="#f7f7f7"/><polygon points="47.89453 76.70763 51.29265 79.93864 52.37587 75.37684 47.89453 76.70763" fill="#d6d7da"/><polygon points="43.41565 78.03903 46.80763 81.27004 47.89699 76.70824 43.41565 78.03903" fill="#ebebee"/><polygon points="38.9312 79.36485 42.32932 82.59587 43.41254 78.03407 38.9312 79.36485" fill="#ebebee"/><polygon points="34.45241 80.69627 37.3987 83.50639 37.94337 83.50639 38.93375 79.36549 34.45241 80.69627" fill="#d6d7da"/><polygon points="29.96796 82.02211 31.52162 83.50145 33.78703 83.50145 34.4493 80.69751 29.96796 82.02211" fill="#f7f7f7"/><polygon points="25.48908 83.35351 25.64378 83.50206 29.61765 83.50206 29.97041 82.02272 25.48908 83.35351" fill="#fff"/><polygon points="42.10652 83.50391 43.28258 83.50391 42.32318 82.58783 42.10652 83.50391" fill="#f7f7f7"/><polygon points="46.27344 83.50391 49.15786 83.50391 46.79961 81.26324 46.27344 83.50391" fill="#d6d7da"/><polygon points="50.44036 83.50391 53.54144 83.50391 54.68029 83.16348 51.28831 79.93246 50.44036 83.50391" fill="#d6d7da"/><polygon points="54.6853 83.1641 59.16663 81.8395 55.76851 78.6085 54.6853 83.1641" fill="#d6d7da"/><polygon points="59.16418 81.83826 63.65175 80.50748 60.24739 77.27646 59.16418 81.83826" fill="#fff"/><polygon points="63.64854 80.50686 68.12987 79.18226 64.73175 75.94506 63.64854 80.50686" fill="#d6d7da"/><polygon points="68.13299 79.18104 72.60819 77.85025 69.21621 74.61923 68.13299 79.18104" fill="#f7f7f7"/><polygon points="72.61187 77.84964 77.09321 76.51885 73.69509 73.28783 72.61187 77.84964" fill="#c1c2c8"/><polygon points="59.3424 23.05035 61.08788 22.53042 60.33891 21.82478 59.3424 23.05035" fill="#c1c2c8"/><polygon points="77.09632 76.52378 81.57152 75.193 78.17954 71.96198 77.09632 76.52378" fill="#f7f7f7"/><polygon points="81.5752 75.19238 86.05654 73.8616 82.66456 70.63058 81.5752 75.19238" fill="#f7f7f7"/><polygon points="61.63199 20.24827 61.08731 22.53845 65.56242 21.20766 62.91326 18.67607 61.63199 20.24827" fill="#f7f7f7"/><polygon points="65.57044 21.20643 70.05178 19.87565 66.65366 16.64463 65.57044 21.20643" fill="#f7f7f7"/><polygon points="86.05966 73.86656 89.99632 72.69671 89.99632 72.01584 87.14287 69.30475 86.05966 73.86656" fill="#d6d7da"/><polygon points="70.85156 16.49361 70.04687 19.87319 74.52821 18.54859 72.37424 16.49361 70.85156 16.49361" fill="#d6d7da"/><polygon points="75.01839 16.49361 74.53557 18.54859 79.01077 17.21781 78.24943 16.49361 75.01839 16.49361" fill="#c1c2c8"/><polygon points="79.18531 16.49361 79.012 17.21781 81.45696 16.49361 79.18531 16.49361" fill="#d6d7da"/><polygon points="78.24943 16.49361 79.01691 17.22399 79.19022 16.49361 78.24943 16.49361" fill="#f7f7f7"/><polygon points="87.1459 69.30414 89.99934 72.01522 89.99934 68.45614 87.1459 69.30414" fill="#fff"/><polygon points="72.37235 16.49361 74.53255 18.54859 75.0215 16.49361 72.37235 16.49361" fill="#fff"/><polygon points="82.66702 70.63554 86.059 73.86656 87.14835 69.30475 82.66702 70.63554" fill="#c1c2c8"/><polygon points="67.18039 16.49361 66.65423 16.64836 70.05244 19.87938 70.85704 16.49361 67.18039 16.49361" fill="#c1c2c8"/><polygon points="78.18256 71.96694 81.58068 75.19796 82.6639 70.63615 78.18256 71.96694" fill="#d6d7da"/><polygon points="63.89929 17.46849 62.91515 18.67548 65.57054 21.21326 66.65375 16.65145 63.89929 17.46849" fill="#d6d7da"/><polygon points="73.70378 73.29276 77.09576 76.52378 78.17897 71.96198 73.70378 73.29276" fill="#f7f7f7"/><polygon points="60.33957 21.8248 61.09468 22.53663 61.63322 20.24024 60.33957 21.8248" fill="#f7f7f7"/><polygon points="69.21932 74.62416 72.61744 77.85518 73.70066 73.29338 69.21932 74.62416" fill="#d6d7da"/><polygon points="64.73487 75.95002 68.13299 79.18104 69.21621 74.62542 64.73487 75.95002" fill="#fff"/><polygon points="60.25599 77.28142 63.65411 80.51244 64.73732 75.95063 60.25599 77.28142" fill="#f7f7f7"/><polygon points="55.77153 78.60724 59.16965 81.83826 60.25287 77.28264 55.77153 78.60724" fill="#f7f7f7"/><polygon points="51.29265 79.93864 54.68463 83.16966 55.77399 78.60786 51.29265 79.93864" fill="#f7f7f7"/><polygon points="46.80829 81.26448 49.16041 83.50515 50.44168 83.50515 51.28963 79.9399 46.80829 81.26448" fill="#ebebee"/><polygon points="42.32941 82.59588 43.28267 83.50577 46.27221 83.50577 46.81075 81.2651 42.32941 82.59588" fill="#ebebee"/><polygon points="39.27102 83.50391 42.11209 83.50391 42.32252 82.59403 39.27102 83.50391" fill="#d6d7da"/><polygon points="84.13218 16.49361 86.89278 19.12423 87.51792 16.49361 84.13218 16.49361" fill="#d6d7da"/><polygon points="81.46933 16.49361 79.01823 17.22399 82.41012 20.45501 83.351 16.49361 81.46933 16.49361" fill="#c1c2c8"/><polygon points="74.53378 18.54921 77.9319 21.78023 79.01512 17.21842 74.53378 18.54921" fill="#f7f7f7"/><polygon points="86.05966 73.86656 89.45778 77.09757 89.99632 74.81976 89.99632 72.69671 86.05966 73.86656" fill="#d6d7da"/><polygon points="70.0549 19.88061 73.44688 23.11163 74.53623 18.54982 70.0549 19.88061" fill="#d6d7da"/><polygon points="81.58078 75.19796 84.97276 78.42279 86.05597 73.86717 81.58078 75.19796" fill="#c1c2c8"/><polygon points="65.57044 21.20643 68.96856 24.43745 70.05178 19.87565 65.57044 21.20643" fill="#c1c2c8"/><polygon points="77.09632 76.52378 80.49444 79.7548 81.57766 75.193 77.09632 76.52378" fill="#fff"/><polygon points="61.09156 22.53786 64.48354 25.76888 65.5729 21.20707 61.09156 22.53786" fill="#fff"/><polygon points="72.61744 77.85518 76.00942 81.0862 77.09878 76.5244 72.61744 77.85518" fill="#d6d7da"/><polygon points="68.13299 79.18104 71.53111 82.41205 72.61433 77.85025 68.13299 79.18104" fill="#d6d7da"/><polygon points="59.33683 23.05593 57.7708 24.97474 60.00532 27.09161 61.08854 22.53599 59.33683 23.05593" fill="#d6d7da"/><polygon points="55.20334 28.11972 55.51898 28.42301 55.75425 27.44503 55.20334 28.11972" fill="#d6d7da"/><polygon points="63.65411 80.51244 66.79845 83.50206 67.10181 83.50206 68.13544 79.18165 63.65411 80.51244" fill="#c1c2c8"/><polygon points="59.16975 81.83826 60.92146 83.50329 62.9331 83.50329 63.65109 80.50748 59.16975 81.83826" fill="#d6d7da"/><polygon points="54.6853 83.16968 55.04429 83.50392 58.77666 83.50392 59.16663 81.83889 54.6853 83.16968" fill="#f7f7f7"/><polygon points="53.55438 83.50391 54.60662 83.50391 54.68709 83.16348 53.55438 83.50391" fill="#f7f7f7"/><polygon points="54.60171 83.50391 55.03503 83.50391 54.68218 83.16348 54.60171 83.50391" fill="#fff"/><polygon points="58.76863 83.50391 60.91022 83.50391 59.16474 81.83889 58.76863 83.50391" fill="#d6d7da"/><polygon points="62.93555 83.50391 66.79788 83.50391 63.6474 80.5081 62.93555 83.50391" fill="#d6d7da"/><polygon points="67.10238 83.50391 67.83897 83.50391 71.52185 82.40834 68.12987 79.1773 67.10238 83.50391" fill="#f7f7f7"/><polygon points="71.52563 82.41205 76.00697 81.08127 72.60885 77.85025 71.52563 82.41205" fill="#f7f7f7"/><polygon points="76.00999 81.08064 80.49133 79.74987 77.09321 76.51883 76.00999 81.08064" fill="#f7f7f7"/><polygon points="54.77993 28.64336 55.51653 28.42053 55.20079 28.12343 54.77993 28.64336" fill="#f7f7f7"/><polygon points="55.74924 27.45122 55.52021 28.42301 60.00155 27.09223 57.77325 24.97533 55.74924 27.45122" fill="#f7f7f7"/><polygon points="59.99975 27.09471 64.48109 25.76392 61.08911 22.5329 59.99975 27.09471" fill="#f7f7f7"/><polygon points="80.48887 79.7548 84.97021 78.42402 81.57209 75.193 80.48887 79.7548" fill="#d6d7da"/><polygon points="64.48421 25.76331 68.96554 24.43871 65.56742 21.20769 64.48421 25.76331" fill="#d6d7da"/><polygon points="84.97332 78.4234 89.44852 77.09262 86.05654 73.8616 84.97332 78.4234" fill="#ebebee"/><polygon points="89.45221 77.09757 89.99688 76.93664 89.99688 74.80739 89.45221 77.09757" fill="#ebebee"/><polygon points="68.96309 24.43748 73.44442 23.10669 70.05244 19.87567 68.96309 24.43748" fill="#ebebee"/><polygon points="73.44745 23.10605 77.92878 21.78145 74.53066 18.55043 73.44745 23.10605" fill="#ebebee"/><polygon points="77.92633 21.78023 82.40766 20.44944 79.00954 17.21842 77.92633 21.78023" fill="#d6d7da"/><polygon points="83.34666 16.49361 82.41201 20.44883 86.88721 19.11804 84.1266 16.49361 83.34666 16.49361" fill="#f7f7f7"/><polygon points="87.51358 16.49361 86.88843 19.12423 89.99566 18.19578 89.99566 16.49361 87.51358 16.49361" fill="#c1c2c8"/><polygon points="50.21199 34.23082 54.42717 32.9805 52.6322 31.27213 50.21199 34.23082" fill="#d6d7da"/><polygon points="71.26373 83.50391 72.67496 83.50391 71.51751 82.40834 71.26373 83.50391" fill="#f7f7f7"/><polygon points="54.43463 32.98298 58.91597 31.65219 55.51785 28.42117 54.43463 32.98298" fill="#f7f7f7"/><polygon points="75.43065 83.50391 78.55025 83.50391 76.00631 81.07755 75.43065 83.50391" fill="#c1c2c8"/><polygon points="58.91342 31.65155 63.39476 30.32695 59.99664 27.09593 58.91342 31.65155" fill="#c1c2c8"/><polygon points="79.59757 83.50391 82.12914 83.50391 83.88085 82.97779 80.48887 79.74677 79.59757 83.50391" fill="#d6d7da"/><polygon points="63.39787 30.32573 67.87921 28.99494 64.48109 25.76392 63.39787 30.32573" fill="#d6d7da"/><polygon points="83.88699 82.98026 88.36833 81.65566 84.97021 78.42465 83.88699 82.98026" fill="#f7f7f7"/><polygon points="67.87675 28.99432 72.35809 27.66972 68.96611 24.43252 67.87675 28.99432" fill="#f7f7f7"/><polygon points="88.36587 81.65443 90 81.17164 90 77.61255 89.44909 77.09262 88.36587 81.65443" fill="#d6d7da"/><polygon points="72.36121 27.6685 76.84254 26.33771 73.44442 23.10669 72.36121 27.6685" fill="#d6d7da"/><polygon points="76.84009 26.3371 81.32142 25.00631 77.92944 21.77529 76.84009 26.3371" fill="#ebebee"/><polygon points="81.32454 25.01125 85.80588 23.68046 82.40776 20.44944 81.32454 25.01125" fill="#d6d7da"/><polygon points="85.80333 23.67984 89.99991 22.43571 89.99991 22.07672 86.88654 19.11804 85.80333 23.67984" fill="#d6d7da"/><polygon points="86.89523 19.123 89.99632 22.07549 89.99632 18.20693 86.89523 19.123" fill="#d6d7da"/><polygon points="82.41078 20.4544 85.8089 23.68542 86.89212 19.12361 82.41078 20.4544" fill="#c1c2c8"/><polygon points="77.9319 21.78023 81.32388 25.01125 82.41324 20.44944 77.9319 21.78023" fill="#f7f7f7"/><polygon points="89.45778 77.09757 89.99632 77.61132 89.99632 76.93664 89.45778 77.09757" fill="#d6d7da"/><polygon points="73.44745 23.11163 76.84557 26.34265 77.92878 21.78084 73.44745 23.11163" fill="#d6d7da"/><polygon points="84.97332 78.4234 88.37144 81.65442 89.45466 77.0988 84.97332 78.4234" fill="#c1c2c8"/><polygon points="68.96866 24.43748 72.36064 27.6685 73.45 23.10669 68.96866 24.43748" fill="#c1c2c8"/><polygon points="80.49444 79.7548 83.88642 82.98582 84.97578 78.42402 80.49444 79.7548" fill="#ebebee"/><polygon points="64.48421 25.76888 67.88233 28.9999 68.96554 24.43809 64.48421 25.76888" fill="#ebebee"/><polygon points="76.00999 81.08622 78.55393 83.50639 79.60003 83.50639 80.49133 79.75544 76.00999 81.08622" fill="#fff"/><polygon points="60.00532 27.09471 63.39731 30.32573 64.48666 25.76392 60.00532 27.09471" fill="#fff"/><polygon points="71.53111 82.41205 72.67005 83.50145 75.43065 83.50145 76.01245 81.08127 71.53111 82.41205" fill="#d6d7da"/><polygon points="55.52087 28.42611 58.91899 31.65713 60.00221 27.09532 55.52087 28.42611" fill="#d6d7da"/><polygon points="67.84889 83.50391 71.27176 83.50391 71.52554 82.41452 67.84889 83.50391" fill="#fff"/><polygon points="54.77436 28.64336 52.63277 31.26779 54.43397 32.98234 55.52333 28.42053 54.77436 28.64336" fill="#fff"/><polygon points="45.65509 39.82382 48.86139 38.86442 47.49342 37.56457 45.65509 39.82382" fill="#c1c2c8"/><polygon points="49.86102 34.65975 48.86451 38.86875 53.33961 37.53796 50.05908 34.41834 49.86102 34.65975" fill="#d6d7da"/><polygon points="53.3483 37.53982 57.82964 36.20904 54.43152 32.97802 53.3483 37.53982" fill="#c1c2c8"/><polygon points="57.82718 36.214 62.30852 34.88321 58.91654 31.65219 57.82718 36.214" fill="#c1c2c8"/><polygon points="83.75892 83.50391 84.43356 83.50391 83.88274 82.97779 83.75892 83.50391" fill="#f7f7f7"/><polygon points="62.31163 34.8826 66.79297 33.55181 63.39485 30.32079 62.31163 34.8826" fill="#f7f7f7"/><polygon points="66.79042 33.55674 71.27176 32.22596 67.87364 28.99494 66.79042 33.55674" fill="#f7f7f7"/><polygon points="87.92584 83.50391 89.99943 83.50391 89.99943 83.20062 88.36531 81.64701 87.92584 83.50391" fill="#d6d7da"/><polygon points="71.27487 32.22534 75.75621 30.89456 72.35809 27.66354 71.27487 32.22534" fill="#d6d7da"/><polygon points="75.75375 30.89394 80.23509 29.56934 76.83697 26.33832 75.75375 30.89394" fill="#ebebee"/><polygon points="80.23821 29.56812 84.71954 28.23733 81.32142 25.00631 80.23821 29.56812" fill="#d6d7da"/><polygon points="84.71709 28.23672 89.19843 26.91212 85.80644 23.6811 84.71709 28.23672" fill="#acaab0"/><polygon points="89.20154 26.91086 90 26.67567 90 23.56223 89.20154 26.91086" fill="#c1c2c8"/><polygon points="85.8089 23.67984 89.20088 26.91086 89.99934 23.57463 89.99934 22.43571 85.8089 23.67984" fill="#d6d7da"/><polygon points="81.32454 25.01125 84.72266 28.24226 85.80588 23.68046 81.32454 25.01125" fill="#c1c2c8"/><polygon points="88.37144 81.65443 89.99934 83.20186 89.99934 81.17164 88.37144 81.65443" fill="#f7f7f7"/><polygon points="76.84566 26.3371 80.23764 29.5743 81.327 25.0125 76.84566 26.3371" fill="#f7f7f7"/><polygon points="72.36121 27.6685 75.75933 30.89952 76.84254 26.33771 72.36121 27.6685" fill="#f7f7f7"/><polygon points="83.88699 82.98583 84.43167 83.50577 87.92263 83.50577 88.36833 81.65505 83.88699 82.98583" fill="#c1c2c8"/><polygon points="67.88233 28.9999 71.27431 32.23092 72.36366 27.66911 67.88233 28.9999" fill="#c1c2c8"/><polygon points="82.13783 83.50391 83.75949 83.50391 83.88954 82.98398 82.13783 83.50391" fill="#d6d7da"/><polygon points="63.39787 30.32573 66.79599 33.55674 67.87921 28.99494 63.39787 30.32573" fill="#d6d7da"/><polygon points="58.91899 31.65713 62.31097 34.88814 63.40033 30.32634 58.91899 31.65713" fill="#d6d7da"/><polygon points="54.43463 32.98298 57.82661 36.214 58.91597 31.65219 54.43463 32.98298" fill="#d6d7da"/><polygon points="50.21199 34.23639 50.06342 34.42207 53.35019 37.54788 54.4334 32.98607 50.21199 34.23639" fill="#f7f7f7"/><polygon points="47.49342 37.56769 48.86753 38.8737 49.86404 34.65233 47.49342 37.56769" fill="#f7f7f7"/><polygon points="41.09272 45.41125 43.29004 44.76134 42.35539 43.86383 41.09272 45.41125" fill="#c1c2c8"/><polygon points="43.98394 41.86827 43.29693 44.75886 47.77827 43.42807 44.92473 40.71699 43.98394 41.86827" fill="#d6d7da"/><polygon points="47.77761 43.4281 52.25894 42.1035 48.86082 38.86629 47.77761 43.4281" fill="#c1c2c8"/><polygon points="52.26197 42.10224 56.7433 40.77146 53.34518 37.54044 52.26197 42.10224" fill="#d6d7da"/><polygon points="56.74085 40.77084 61.22218 39.44006 57.82406 36.20904 56.74085 40.77084" fill="#f7f7f7"/><polygon points="61.2253 39.44502 65.70664 38.11423 62.30852 34.88321 61.2253 39.44502" fill="#c1c2c8"/><polygon points="65.70418 38.11362 70.18552 36.78283 66.79354 33.55181 65.70418 38.11362" fill="#fff"/><polygon points="70.18863 36.78776 74.66997 35.45698 71.27185 32.22596 70.18863 36.78776" fill="#f7f7f7"/><polygon points="74.66752 35.45636 79.14885 34.12558 75.75687 30.89456 74.66752 35.45636" fill="#d6d7da"/><polygon points="79.15187 34.12496 83.63321 32.80036 80.23509 29.56934 79.15187 34.12496" fill="#ebebee"/><polygon points="83.63076 32.79914 88.11209 31.46835 84.71397 28.23733 83.63076 32.79914" fill="#d6d7da"/><polygon points="88.11521 31.46774 89.99688 30.91066 89.99688 27.66727 89.19843 26.91212 88.11521 31.46774" fill="#d6d7da"/><polygon points="89.20154 26.91086 90 27.66602 90 26.67567 89.20154 26.91086" fill="#d6d7da"/><polygon points="84.72266 28.24226 88.11464 31.47328 89.204 26.91148 84.72266 28.24226" fill="#f7f7f7"/><polygon points="80.23821 29.56812 83.63633 32.79914 84.71954 28.23733 80.23821 29.56812" fill="#f7f7f7"/><polygon points="75.75933 30.89952 79.15131 34.13054 80.24066 29.56873 75.75933 30.89952" fill="#d6d7da"/><polygon points="71.27487 32.22534 74.67299 35.45636 75.75621 30.90074 71.27487 32.22534" fill="#c1c2c8"/><polygon points="66.79599 33.55674 70.18797 36.78776 71.27733 32.22596 66.79599 33.55674" fill="#d6d7da"/><polygon points="62.31163 34.8826 65.70975 38.1198 66.79297 33.558 62.31163 34.8826" fill="#f7f7f7"/><polygon points="57.83275 36.214 61.22473 39.44502 62.31409 34.88321 57.83275 36.214" fill="#d6d7da"/><polygon points="53.3483 37.5454 56.74642 40.77642 57.82964 36.21461 53.3483 37.5454" fill="#fff"/><polygon points="48.86942 38.87122 52.2614 42.10224 53.35075 37.54044 48.86942 38.87122" fill="#f7f7f7"/><polygon points="45.64952 39.82382 44.9253 40.71514 47.78497 43.43242 48.86196 38.87061 45.64952 39.82382" fill="#f7f7f7"/><polygon points="42.35728 43.8626 43.29807 44.76011 43.9914 41.86332 42.35728 43.8626" fill="#f7f7f7"/><polygon points="88.11521 31.47331 89.99688 33.25593 89.99688 30.91005 88.11521 31.47331" fill="#d6d7da"/><polygon points="83.63633 32.79914 87.02831 36.03015 88.11766 31.46835 83.63633 32.79914" fill="#c1c2c8"/><polygon points="79.15187 34.13054 82.55 37.36155 83.63321 32.79975 79.15187 34.13054" fill="#c1c2c8"/><polygon points="74.67309 35.45636 78.06507 38.68738 79.15442 34.12558 74.67309 35.45636" fill="#d6d7da"/><polygon points="70.18863 36.78776 73.58676 40.01878 74.66997 35.45698 70.18863 36.78776" fill="#c1c2c8"/><polygon points="65.70975 38.11362 69.10174 41.34463 70.19109 36.78902 65.70975 38.11362" fill="#fff"/><polygon points="61.2253 39.44502 64.62342 42.67604 65.70664 38.11423 61.2253 39.44502" fill="#d6d7da"/><polygon points="56.74642 40.77084 60.1384 44.00805 61.22776 39.44624 56.74642 40.77084" fill="#d6d7da"/><polygon points="52.26197 42.10224 55.66009 45.33326 56.7433 40.77146 52.26197 42.10224" fill="#c1c2c8"/><polygon points="47.78318 43.43364 51.17516 46.66466 52.26452 42.10286 47.78318 43.43364" fill="#d6d7da"/><polygon points="43.29873 44.7595 46.69685 47.99052 47.78006 43.42871 43.29873 44.7595" fill="#f7f7f7"/><polygon points="41.08715 45.41683 39.78113 47.00758 42.21372 49.32253 43.29684 44.76072 41.08715 45.41683" fill="#f7f7f7"/><polygon points="37.21547 50.15751 37.7354 50.64649 38.10677 49.06814 37.21547 50.15751" fill="#d6d7da"/><polygon points="36.53025 50.99871 37.73106 50.63972 37.21726 50.1569 36.53025 50.99871" fill="#f7f7f7"/><polygon points="38.1012 49.07123 37.72983 50.64961 42.20493 49.31882 39.78481 47.01006 38.1012 49.07123" fill="#ebebee"/><polygon points="42.21239 49.31634 46.69373 47.98556 43.29561 44.75454 42.21239 49.31634" fill="#fff"/><polygon points="46.69127 47.99052 51.17261 46.65973 47.78063 43.42871 46.69127 47.99052" fill="#d6d7da"/><polygon points="51.17573 46.65911 55.65706 45.32833 52.25894 42.09731 51.17573 46.65911" fill="#d6d7da"/><polygon points="55.65461 45.33326 60.13595 44.00248 56.74396 40.77146 55.65461 45.33326" fill="#f7f7f7"/><polygon points="60.13897 44.00186 64.6203 42.67108 61.22218 39.44006 60.13897 44.00186" fill="#f7f7f7"/><polygon points="64.61785 42.67046 69.09919 41.34586 65.70106 38.11484 64.61785 42.67046" fill="#f7f7f7"/><polygon points="69.1023 41.34463 73.58364 40.01385 70.18552 36.78283 69.1023 41.34463" fill="#d6d7da"/><polygon points="73.58118 40.01323 78.06252 38.68863 74.67054 35.45761 73.58118 40.01323" fill="#ebebee"/><polygon points="78.06564 38.68738 82.54697 37.3566 79.14885 34.12558 78.06564 38.68738" fill="#ebebee"/><polygon points="82.54452 37.35598 87.02585 36.03138 83.63387 32.79418 82.54452 37.35598" fill="#d6d7da"/><polygon points="87.02897 36.03015 90 35.14502 90 33.26337 88.11219 31.46835 87.02897 36.03015" fill="#f7f7f7"/><polygon points="31.96779 56.59171 32.1597 56.52983 32.07923 56.44936 31.96779 56.59171" fill="#c1c2c8"/><polygon points="32.22412 56.27418 32.16225 56.53415 36.64359 55.20336 34.64433 53.30313 32.22412 56.27418" fill="#f7f7f7"/><polygon points="36.6417 55.20461 41.12304 53.87383 37.73106 50.64281 36.6417 55.20461" fill="#d6d7da"/><polygon points="41.12615 53.87321 45.60749 52.54861 42.20937 49.31759 41.12615 53.87321" fill="#c1c2c8"/><polygon points="45.60494 52.54736 50.08628 51.21658 46.68816 47.98556 45.60494 52.54736" fill="#c1c2c8"/><polygon points="50.08939 51.21596 54.57073 49.89136 51.17261 46.66034 50.08939 51.21596" fill="#c1c2c8"/><polygon points="54.56828 49.89013 59.04961 48.55935 55.65763 45.32833 54.56828 49.89013" fill="#d6d7da"/><polygon points="59.05273 48.55873 63.53407 47.23413 60.13595 44.00311 59.05273 48.55873" fill="#f7f7f7"/><polygon points="63.53161 47.23288 68.01295 45.9021 64.62097 42.67108 63.53161 47.23288" fill="#c1c2c8"/><polygon points="68.01606 45.90148 72.4974 44.57688 69.09928 41.33968 68.01606 45.90148" fill="#f7f7f7"/><polygon points="72.49485 44.57565 76.97619 43.24487 73.57807 40.01385 72.49485 44.57565" fill="#f7f7f7"/><polygon points="76.9793 43.24425 81.46064 41.91347 78.06252 38.68245 76.9793 43.24425" fill="#d6d7da"/><polygon points="81.45818 41.91843 85.93952 40.58764 82.54754 37.35662 81.45818 41.91843" fill="#ebebee"/><polygon points="85.94264 40.587 89.99688 39.3862 89.99688 38.85389 87.02585 36.0252 85.94264 40.587" fill="#d6d7da"/><polygon points="87.02897 36.03015 90 38.84648 90 35.15123 87.02897 36.03015" fill="#c1c2c8"/><polygon points="82.55009 37.36155 85.94821 40.59257 87.03143 36.03077 82.55009 37.36155" fill="#f7f7f7"/><polygon points="78.06564 38.68738 81.46376 41.9184 82.54697 37.3566 78.06564 38.68738" fill="#d6d7da"/><polygon points="73.58676 40.01323 76.97874 43.25044 78.06809 38.68863 73.58676 40.01323" fill="#c1c2c8"/><polygon points="69.1023 41.34463 72.50042 44.57565 73.58364 40.01385 69.1023 41.34463" fill="#d6d7da"/><polygon points="64.62342 42.67604 68.0154 45.90705 69.10476 41.34525 64.62342 42.67604" fill="#c1c2c8"/><polygon points="60.13897 44.00186 63.53709 47.23288 64.6203 42.67108 60.13897 44.00186" fill="#d6d7da"/><polygon points="55.66018 45.33326 59.05216 48.56428 60.14152 44.00248 55.66018 45.33326" fill="#fff"/><polygon points="51.17573 46.65911 54.57385 49.89013 55.65706 45.33451 51.17573 46.65911" fill="#f7f7f7"/><polygon points="46.69685 47.99052 50.08883 51.22153 51.17818 46.65973 46.69685 47.99052" fill="#f7f7f7"/><polygon points="42.21239 49.31634 45.61051 52.54736 46.69373 47.99174 42.21239 49.31634" fill="#f7f7f7"/><polygon points="37.73351 50.64774 41.12549 53.87876 42.21485 49.31696 37.73351 50.64774" fill="#ebebee"/><polygon points="36.52468 51.00428 34.64924 53.30686 36.6485 55.20709 37.72548 50.64529 36.52468 51.00428" fill="#ebebee"/><polygon points="32.07923 56.45245 32.16594 56.53911 32.2278 56.26677 32.07923 56.45245" fill="#d6d7da"/><polygon points="27.40541 62.17917 31.06969 61.08979 29.50375 59.59807 27.40541 62.17917" fill="#f7f7f7"/><polygon points="31.07649 61.08729 35.55782 59.76269 32.1597 56.53167 31.07649 61.08729" fill="#f7f7f7"/><polygon points="35.55537 59.76146 40.0367 58.43686 36.64472 55.20584 35.55537 59.76146" fill="#d6d7da"/><polygon points="40.03982 58.43006 44.17454 57.20449 44.52116 57.10546 41.12304 53.87444 40.03982 58.43006" fill="#c1c2c8"/><polygon points="44.5187 57.10423 49.00004 55.77345 45.60806 52.54861 44.5187 57.10423" fill="#fff"/><polygon points="49.00316 55.77283 52.90884 54.61536 53.48449 54.44823 50.08637 51.21721 49.00316 55.77283" fill="#ebebee"/><polygon points="53.48204 54.44698 57.69722 53.19666 57.96337 53.1162 54.56525 49.88518 53.48204 54.44698" fill="#d6d7da"/><polygon points="57.9664 53.11558 61.68639 52.01381 62.44773 51.79098 59.04961 48.55996 57.9664 53.11558" fill="#c1c2c8"/><polygon points="62.44528 51.78975 64.86549 51.07174 66.92661 50.45897 63.52849 47.22795 62.44528 51.78975" fill="#c1c2c8"/><polygon points="66.92973 50.45835 69.91313 49.57322 71.41107 49.13375 68.01295 45.90273 66.92973 50.45835" fill="#f7f7f7"/><polygon points="71.40861 49.1325 73.38936 48.55066 75.88995 47.80171 72.49797 44.5707 71.40861 49.1325" fill="#f7f7f7"/><polygon points="75.89306 47.8011 78.38751 47.05834 80.3744 46.4765 76.97628 43.24548 75.89306 47.8011" fill="#d6d7da"/><polygon points="80.37195 46.47527 81.62224 46.10388 84.85328 45.14449 81.45516 41.91347 80.37195 46.47527" fill="#acaab0"/><polygon points="84.8563 45.14387 86.9299 44.5311 89.33764 43.81927 85.93952 40.58825 84.8563 45.14387" fill="#d6d7da"/><polygon points="89.33519 43.81804 89.99745 43.62618 89.99745 41.04505 89.33519 43.81804" fill="#f7f7f7"/><polygon points="85.94264 40.587 89.33462 43.81802 89.34076 43.81183 89.99688 41.06361 89.99688 39.3862 85.94264 40.587" fill="#c1c2c8"/><polygon points="81.46376 41.91843 84.85574 45.14326 84.86188 45.14326 85.94509 40.58764 81.46376 41.91843" fill="#f7f7f7"/><polygon points="76.9793 43.24425 80.37128 46.47527 80.37742 46.47527 81.46064 41.91965 76.9793 43.24425" fill="#f7f7f7"/><polygon points="72.50042 44.57565 75.8924 47.80049 75.89854 47.80049 76.98176 43.24487 72.50042 44.57565" fill="#c1c2c8"/><polygon points="68.01606 45.90148 71.40804 49.1325 71.41418 49.1325 72.4974 44.57688 68.01606 45.90148" fill="#d6d7da"/><polygon points="63.53718 47.23288 66.92916 50.45772 66.9353 50.45772 68.01852 45.9021 63.53718 47.23288" fill="#d6d7da"/><polygon points="59.05273 48.55873 62.44471 51.78975 62.45085 51.78975 63.53407 47.23413 59.05273 48.55873" fill="#d6d7da"/><polygon points="54.57385 49.89013 57.96583 53.11497 57.97197 53.11497 59.05518 48.55935 54.57385 49.89013" fill="#f7f7f7"/><polygon points="50.08939 51.22153 53.48138 54.44637 53.48751 54.44637 54.57073 49.89075 50.08939 51.22153" fill="#f7f7f7"/><polygon points="45.61051 52.54736 48.99626 55.77838 49.00249 55.7722 50.09185 51.21658 45.61051 52.54736" fill="#f7f7f7"/><polygon points="41.12615 53.87876 44.51814 57.1036 44.52427 57.1036 45.60749 52.54798 41.12615 53.87876" fill="#d6d7da"/><polygon points="36.64727 55.20461 40.03302 58.42945 40.04539 58.42945 41.12861 53.88001 36.64727 55.20461" fill="#ebebee"/><polygon points="32.16282 56.53601 35.5548 59.76085 35.56094 59.76085 36.64416 55.20523 32.16282 56.53601" fill="#ebebee"/><polygon points="31.96231 56.59171 29.50498 59.59991 31.07101 61.09163 31.08338 61.08545 32.16036 56.52983 31.96231 56.59171" fill="#d6d7da"/><polygon points="64.69341 16.49422 10.00737 83.50391 89.99688 83.50391 89.99688 16.49422 64.69341 16.49422" fill="none"/><polygon points="89.99566 83.49773 10 83.49773 64.69218 16.49422 89.99566 16.49422 89.99566 83.49773" fill="none" stroke="#ce171e" stroke-miterlimit="10" stroke-width=".06809"/><polygon points="66.02974 70.56003 57.19089 76.21742 64.92178 56.18136 45.38091 64.52508 50.87113 55.53143 45.11476 46.77302 65.18179 54.44823 56.86901 34.96925 66.22166 40.42857 74.62105 34.7031 66.93341 54.7639 86.38767 46.43877 80.98406 55.35811 86.6662 64.2032 66.6054 56.46608 75.21522 76.60737 66.02974 70.56003" fill="#ce171e"/><path d="M75.68377,33.7344l-1.18834.78611-8.39325,5.56453-8.7956-5.57074-1.16369-.73657.51993,1.27509,7.63191,18.79811-18.82902-7.61333-1.28127-.51375.74897,1.16985,5.59544,8.75843-5.59544,8.418-.79232,1.19462,1.33076-.53852,18.84762-7.66284-7.65666,18.79811-.5137,1.26271,1.15745-.71801,8.83885-5.50264,8.34999,5.49646,1.18834.78609-.53231-1.31841-7.66279-18.8043,18.81665,7.66903,1.2689.51375-.72422-1.16366-5.52734-8.83888,5.51497-8.35611.78609-1.18841-1.32453.53231-18.76716,7.65047,7.62568-18.82907.52607-1.31841ZM74.74298,34.88569l-8.01565,19.80086,19.74516-8.04042-5.66363,8.59128,5.66977,9.08031-19.79465-8.059,8.059,19.77609-8.59131-5.65737-9.08026,5.65118,8.05277-19.7699-19.81939,8.059,5.75024-8.6594-5.75024-9.006,19.79465,7.99709-8.02802-19.76372,9.03077,5.72547,8.6408-5.72547" fill="#fff"/></svg>