<svg version="1.1" viewBox="0 0 100 100" xmlns="http://www.w3.org/2000/svg">
	<path class="st1" d="m15.476 51.138c3.23 0 8.0106-0.05007 13.428-0.12946 0.96414-1.0936 2.0076-2.2265 3.1606-3.4095-6.7088-0.11872-12.742-0.17881-16.588-0.17881-2.6935 0-4.88 0.83541-4.88 1.8589s2.1865 1.8582 4.88 1.8582m8.5677 5.9042c0.79464-1.0936 1.7194-2.3059 2.7922-3.6176-4.7606-0.07009-8.9346-0.10942-11.867-0.10942-2.7429 0-4.9694 0.85468-4.9694 1.8982s2.2265 1.8982 4.9694 1.8982c2.3359 0 5.4865-0.02002 9.0648-0.06937m0.34757 11.778c-0.65586-0.64584-2.8724-3.1906-3.1406-3.4388-1.61-0.01002-3.0612-0.02004-4.2642-0.02004-2.5341 0-4.6018 0.78534-4.6018 1.7595 0 0.97342 2.0577 1.7487 4.6018 1.7487 1.9483 0 4.4924-0.0193 7.4047-0.04935m-3.9953-5.8341c0.0894-0.43772 0.28825-0.91479 0.6759-1.4412-0.06007 0.06939-0.0894 0.12946-0.03003 0.02004 0.35761-0.60653 0.82467-1.3618 1.4011-2.2365-2.7128-0.03003-5.1081-0.04005-6.967-0.04005-2.6935 0-4.88 0.83539-4.88 1.8589s2.1865 1.8589 4.88 1.8589c1.3818 0 3.0412 0 4.92-0.02002m9.3323 20.732c0 0.47705 0.81537 0.8647 1.8188 0.8647 5.1782 0 20.952-0.38765 20.952-0.8647s-15.774-0.86472-20.952-0.86472c-1.0034 0-1.8188 0.38767-1.8188 0.86472m20.832-5.4565c-8.8259-0.29827-20.832-0.49709-26.249-0.49709-1.7695 0-3.2007 0.54714-3.2007 1.223s1.4312 1.2223 3.2007 1.2223c5.6853 0 18.596-0.21886 27.501-0.53642-0.41768-0.44774-0.83541-0.92479-1.2424-1.4019m-4.6719-6.3705c-9.8594-0.25891-20.673-0.4177-26.169-0.4177-2.2465 0-4.0754 0.69593-4.0754 1.5506s1.8188 1.5506 4.0754 1.5506c5.784 0 17.472-0.17881 27.719-0.45773-0.51638-0.73527-1.0435-1.4906-1.5506-2.2358m19.59-28.714c-0.04003 0.14877-0.13943 0.40697-0.31824 0.72525 2.8824-0.17881 4.6418-0.37765 4.6418-0.57647 0-0.18883-1.5907-0.37765-4.2142-0.54644l-0.10944 0.40769v-0.01002zm-33.942-15.594c5.1782 0 20.952-0.38765 20.952-0.8647 0-0.47777-15.774-0.86472-20.952-0.86472-1.0034 0-1.8188 0.38695-1.8188 0.86472 0 0.47705 0.81537 0.8647 1.8188 0.8647m31.437 9.3323c-0.70593 0.35761-1.3618 0.71595-2.0277 1.0736 3.4095-0.18883 5.5759-0.38765 5.5759-0.59651 0-0.16879-1.3418-0.32828-3.5482-0.47705m-45.998 8.16c4.0453 0 10.665-0.07938 17.861-0.20884 1.0335-0.98416 2.1371-1.9976 3.3094-3.0118-8.4383-0.16879-16.508-0.27823-21.17-0.27823-2.5341 0-4.6018 0.78532-4.6018 1.7495s2.0577 1.7494 4.6018 1.7494m43.394 3.28c0.9741 0.57647 2.1571 1.1622 3.6176 1.6894 4.6318-0.22888 7.6036-0.48707 7.6036-0.7653 0-0.3383-4.5818-0.65586-11.221-0.92407m-39.279-16.907c0 0.6759 1.4312 1.2223 3.2006 1.2223 5.4565 0 17.562-0.19884 26.398-0.49637 0.65586-0.45776 1.3225-0.93481 1.9683-1.3718-8.9253-0.3383-22.512-0.56648-28.376-0.56648-1.7688 0-3.2006 0.54644-3.2006 1.2123m-1.3611 7.4942c4.7706 0 13.576-0.11944 22.263-0.31826 0.98414-0.79533 2.0176-1.59 3.0912-2.3953-9.6305-0.23818-20.007-0.38767-25.344-0.38767-2.2465 0-4.0754 0.69593-4.0754 1.5506s1.8188 1.5506 4.0754 1.5506m22.084 27.183c-1.8088 0.64586-3.9459 0.98416-4.7906 0.98416-1.5106 0-3.9659 0.83467-4.85 1.6 3.667-0.05937 7.5535-0.13947 11.38-0.22888-0.25891-0.38765-1.0735-1.5699-1.0735-1.5799-0.32832-0.47707-0.51713-0.68591-0.62582-0.78534-0.02004 0-0.01004 0-0.04007 0.01002" fill="#757f8b"/>
	<path class="st0" d="m72.109 53.811c0.04007 0.94411 0.03003 1.8782-0.02004 2.803-9.1835 0.36763-17.87 0.91405-17.87 1.5406 0 0.62582 8.5077 1.153 17.572 1.5206-0.15877 1.0435-0.36761 2.077-0.61583 3.0812-8.9353 0.36763-17.234 0.90405-17.234 1.5106 0 0.60581 7.7423 1.1029 16.319 1.4705-0.39695 1.0936-0.83467 2.1571-1.3418 3.1806-7.3647 0.35761-13.447 0.82537-13.447 1.3418 0 0.48707 5.317 0.92479 12.026 1.2724-0.37765 0.61581-0.7653 1.2123-1.1823 1.7788-0.43772 0.61653-0.90477 1.2323-1.4119 1.8288-4.1941 0.31826-7.0665 0.67587-7.0665 1.0635 0 0.3383 2.0577 0.64584 5.2276 0.92479-1.7287 1.7094-3.7764 3.3194-6.1917 4.7105 0 0-2.8423-2.4446-5.1883-5.307-2.087-2.5548-6.5293-9.2729-7.5736-10.774-1.0435-1.5005-1.7294-1.9476-2.9518-1.5005-1.64 0.57647-3.5382 0.8647-4.1247 0.8647-0.58649 0-0.90408-0.22888 0.07936-0.61653 0.97414-0.38765 4.8407-2.2165 6.7489-5.9929 2.1371-4.2442 0.25817-10.118 0.25817-10.118-0.71523 3.1305-2.3452 4.3035-2.3452 4.3035 0.52642-2.9124-0.05007-5.5559-1.4812-7.4048l-0.80463 3.687s-0.50709-0.01932-1.7394 1.0242c-1.2424 1.0435-1.5807 2.5641-1.5807 2.5641 0.97414 0.39767 2.1572-0.58649 2.1572-0.58649-1.5006 5.6153-3.6477 10.188-5.2183 12.602-1.5699 2.4153-2.8624 3.3301-4.4323 3.966-1.3225 0.53642-1.7594-0.0894-1.7594-0.0894-1.153-1.0042-2.0277-1.9182-2.9317-3.0118 0 0-0.07011-0.12874 0.17881-0.11874 0.64582 0 1.7888-1.0936 2.047-1.5506 0.2882-0.5171 0.25891-0.92407 0.1094-0.9541-0.13873-0.02004-0.38765 0.39767-1.63 1.173-1.2424 0.78462-1.8088 0.23818-2.2165-0.19882-0.31754-0.34832 0-0.77532 0.19884-1.0435 0.1888-0.23888 6.7389-12.454 24.072-25.295 22.681-16.807 37.191-21.349 38.017-21.677 0.54642-0.21886 1.4412-0.49709 1.65-0.29827 0.22814 0.2389 0.33758 0.42772 0.30754 0.69593-0.02934 0.27821-0.17881 0.41768-1.2223 0.87472-8.7265 3.8465-18.903 10.247-24.688 13.974-7.1065 3.4689-13.905 8.4082-14.153 8.5377-0.54716 0.33758-0.13947 0.83467 0.18885 0.62582 12.006-7.9905 26.089-13.428 41.654-17.89 0.74526-0.20884 1.153-0.20884 1.2817-0.04935 0.13952 0.17881 0.19889 0.38693 0.21888 0.61581 0.01999 0.28825-0.20884 0.43772-0.85466 0.68591-16.717 6.2118-29.042 11.987-36.963 17.314 0 0-0.82467 0.49707-0.83467 1.0735 0 0.21886 0.43698 0.23818 0.43698 0.23818 3.966 0.07009 9.273 0.30826 11.798 0.45776 0 0-0.35761 1.2717-2.773 2.3059-1.8689 0.79461-3.5883 0.66588-5.2977 0.68517-0.37765 0-0.70523 0.37765-0.39769 0.78534 0.14947 0.19882 3.7871 6.053 17.006 7.3947" fill="#5c0d34"/>
</svg>
