<svg version="1.1" viewBox="0 0 100 100" xmlns="http://www.w3.org/2000/svg">
  <path fill="#dc3228" d="M80.12116,24.91146c-4.84623,7.82852-12.37652,14.98602-26.98976,20.50326-16.55172,6.78471-25.79684,14.315-32.73066,31.01584,2.98229-5.5918,5.21901-12.00373,33.69992-22.73998,15.20969-6.1137,23.41099-19.53402,26.84063-28.70457l-.82014-.07456h0Z"/>
  <path fill="#262262" d="M48.95619,58.98416c-16.55172,6.78471-25.79684,14.315-32.73066,31.01584,2.98229-5.5918,5.21901-12.00373,33.69992-22.73998,15.20969-6.1137,23.41099-19.53402,26.84063-28.70457h-.8947c-4.77166,7.75397-12.30196,14.91147-26.9152,20.42871ZM56.56105,32.3672c-15.50791,6.33737-24.23113,13.49487-30.71761,29.15191,2.75862-5.29357,4.92079-11.33271,31.68685-21.39795,15.95526-6.41193,23.70922-21.39795,26.24419-29.89748v-.22367c-4.47344,8.57409-11.48182,16.47717-27.21342,22.3672Z"/>
</svg>