<svg version="1.1" viewBox="0 0 100 100" xmlns="http://www.w3.org/2000/svg">
	<path d="m22.106 78.783c-11.954-1.8043-14.435-18.945-10.149-33.38 4.5108-14.435 17.367-28.644 36.086-22.78a20.299 20.299 0 0 1 7.2173 5.1874c5.413-4.9619 9.0216-6.3151 18.945-6.7662 10.149-0.67662 16.013 4.5108 15.788 12.405-0.22554 7.8939-4.2853 9.0216-9.9238 13.532a137.35 137.35 0 0 1-19.171 11.728v-6.0896c5.864-4.5108 15.111-9.4727 16.916-16.239 0.67662-3.8342 0-9.0216-5.864-9.2471-3.8342 0-7.2173 2.0299-9.4727 4.9619a41.499 41.499 0 0 0-7.6684 26.614c0.67662 5.1874 3.3831 11.728 8.7961 11.503 9.0216-2.0299 13.081-4.5108 20.299-9.2471l2.932 4.5108c-7.8939 6.7662-15.562 13.758-26.388 13.532-8.1194 0-14.209-2.2554-16.916-8.7961-6.0896 4.7363-11.954 9.9238-21.426 8.5705zm15.337-50.972a27.065 27.065 0 0 0-12.63 19.848c-1.1277 6.7662-1.3532 15.562 3.6086 20.299 3.8342 2.2554 9.6982-2.0299 13.983-4.9619-1.5788-10.6 2.2554-19.171 4.5108-28.644 0-6.9917-3.6086-9.0216-9.4727-6.5407z" style="fill:#006fde"/>
</svg>
