<svg version="1.1" viewBox="0 0 100 100" xmlns="http://www.w3.org/2000/svg">
	<path d="m56.666 19.5c-10.34 0-12.788 1.632-16.869 6.2578l-29.797 32.654c23.81-1.0884 31.157 22.856 55.238 16.189l24.762-55.102h-33.334z" fill="#da0530"/>
	<path d="m46.327 32.289s1.4966-2.7211 2.585-3.6735c0 0 1.2245-0.81633 1.3605-2.0408 0 0 0.13605-0.81633-0.54422-1.3605 0 0-1.7687-1.4966-3.2653 1.0884 0 0-6.9388 13.061-9.2517 26.259 0 0-0.13605 0.40816-0.27211-0.81633 0 0-0.95238-11.02-1.0884-11.429 0-0.40816 0-1.3605-0.95238-1.4966 0 0-1.0884-0.13606-1.7687 1.4966l-2.9932 7.483s-0.54422 0.95238 0.27211 1.3605c0 0 0.95238 0.54422 1.4966-0.81633l1.3605-2.9932c0.27211-0.68027 0.54422-0.54422 0.54422-0.54422 0.13605 0 0.27211 0.68027 0.27211 0.68027s1.2245 14.83 1.2245 14.966c0 0.13606 0.13605 1.3605 1.0884 1.3605 0.68027 0 0.95238-0.81633 1.0884-1.4966 0.13606-0.68027 1.4966-7.7551 3.6735-15.374 1.6327-5.034 3.5374-10.068 5.1701-12.653zm-2.0408 12.925c-1.3605 0.27211-1.6327 1.9048-1.6327 1.9048l-0.81633 6.5306c-0.13606 1.2245 1.4966 0.40816 1.4966 0.40816 0.68027-0.40816 0.81633-1.2245 0.81633-1.2245l0.27211-1.6327 0.81633-4.4898c0.27211-1.7687-0.95238-1.4966-0.95238-1.4966zm2.8571 0.54422s-0.40816 3.4014-0.54422 4.0816c0 0-0.68027 2.8571 0.95238 2.3129 0 0 1.2245-0.27211 1.3605-2.0408l0.27211-2.449s0.13606-1.7687 1.4966-2.585c0 0 1.4966-0.68027 1.0884-1.6327 0 0-0.27211-0.81633-1.2245-0.40816-0.68027 0.27211-1.0884 0.40816-1.0884 0.40816s-0.95238 0.13605-1.0884 0.13605c0.13605 0.13606-1.0884 0.13606-1.2245 2.1769zm-1.2245-3.8095c0.95238-0.81633 0.68027-1.3605 0.68027-1.3605-0.40816-0.95238-1.6327 0-1.6327 0-1.0884 0.81633-0.68027 1.4966-0.68027 1.4966 0.54422 0.95238 1.6327-0.13606 1.6327-0.13606zm15.646 4.7619s1.2245-0.27211 1.3605-1.6327c0 0 0.68027-5.1701 0.81633-5.3061 0-0.13606 0.40816-1.4966-0.54422-1.3605 0 0-1.2245 0.27211-1.3605 1.3605l-0.95238 5.034-0.13606 1.0884s-0.27211 1.0884 0.81633 0.81633zm2.8571-10.884s0.95238-0.81633 0.54422-1.4966c0 0-0.40816-0.68027-1.6327 0.27211 0 0-1.0884 0.95238-0.40816 1.4966 0 0 0.68027 0.68027 1.4966-0.27211zm12.789 6.3946c-0.27211-0.40816-0.81633-0.68027-1.9048-0.27211-1.2245 0.54422-1.6327 0.68027-1.6327 0.81633 0 0-1.4966 0.68027-1.2245-1.2245l0.40816-4.4898s0.13606-1.6327-1.0884-1.6327c0 0-0.68027-0.13605-1.7687 0.81633 0 0-0.54422 0.54422-0.95238 0.54422-0.27211 0-0.54422 0.13606-0.95238 0-0.40816-0.13605-0.81633-0.13605-1.0884 0 0 0-1.2245 0.27211-1.3605 2.0408l-0.54422 3.9456s-0.27211 1.4966-0.13606 1.9048c0 0 0.13606 0.68027 1.2245 0.27211 0 0 0.95238-0.27211 1.0884-1.9048 0 0 0.27211-3.1293 0.68027-3.8095 0 0 0.54422-0.95238 1.3605-1.4966 0 0 1.0884-0.54422 1.0884 0.40816l-0.40816 3.6735s-0.40816 1.7687 0.40816 2.0408c0 0 0.13605 0-0.13606 0.13606 0 0-5.3061 2.1769-11.973 5.9864 0.40816-3.8095 1.2245-9.1156 1.2245-9.1156 0.13606-0.81633-0.95238-0.81633-0.95238-0.81633-1.0884 0-1.2245 1.2245-1.2245 1.7687-0.13606 0.54422-0.81633 4.898-0.81633 4.898-0.40816 1.9048-1.4966 1.9048-1.4966 1.9048-1.0884 0.13605-0.40816-2.9932-0.40816-2.9932 0.27211-1.0884 0.40816-2.0408 1.2245-2.8571 0.81633-0.68027 0.95238-1.6327 0.27211-1.6327-1.0884 0-2.1769 1.0884-2.1769 1.0884-1.9048 1.9048-1.9048 6.5306-1.9048 6.5306 0 1.4966 0.95238 1.9048 0.95238 1.9048 1.2245 0.54422 2.8571-0.40816 2.8571-0.40816 0.40816-0.27211 0.27211 0.13605 0.27211 0.13605l-0.13606 1.2245c-4.898 2.8571-10.476 6.3946-15.238 10.476 0 0-2.1769 1.6327-1.3605 2.7211 0.81633 1.0884 2.0408 0.13605 2.585-0.40816 0 0 4.898-5.034 13.878-10.612l-0.27211 3.8095c-0.13605 1.6327-0.68027 6.9388-0.68027 6.9388-0.27211 2.0408 0.13605 2.449 0.13605 2.585 0.13606 0.27211 0.95238 0.95238 1.9048 0.27211 1.0884-0.68027 0.54422-2.449 0.40816-3.2653-0.13606-0.81633-0.13606-2.1769-0.13606-2.1769 0.13606-1.0884 0.68027-8.4354 0.68027-8.4354 0-0.27211 0-0.68027 0.13606-1.2245 3.4014-2.0408 7.3469-4.0816 11.837-5.9864 0 0 1.9048-0.81633 3.5374-1.2245 0 0 0.54422-0.27211 1.2245-0.40816 0.95238-0.27211 2.1769-0.68027 2.449-1.2245 0.27211-0.40816 0.40816-0.81633 0.13606-1.2245z" fill="#fff"/>
</svg>
