<svg width="100" height="100" version="1.1" viewBox="-10 0 100 100" xml:space="preserve" xmlns="http://www.w3.org/2000/svg"><g transform="matrix(.026042 0 0 .026042 39.974 49.076)"><path d="m1537-366c0 22.667-6.8333 41.167-20.5 55.5s-32.5 21.5-56.5 21.5c-24.667 0-43.667-7.1667-57-21.5s-20-32.833-20-55.5c0-22 6.6667-40.167 20-54.5 13.333-14.333 32.333-21.5 57-21.5 24 0 42.833 7.1667 56.5 21.5 13.667 14.333 20.5 32.5 20.5 54.5z" style="fill:#fff000"/><path d="m1112-178c-34.667 0-66.333 5.6667-95 17s-53 27.333-73 48-35.667 45.333-47 74c-10.667 29.333-16 61.667-16 97 0 36 4.6667 68.333 14 97 10 28.667 23.833 53 41.5 73s38.5 35.333 62.5 46c24.667 10.667 51.667 16 81 16 28 0 51.667-3.8333 71-11.5s34.333-16.833 45-27.5v72c0 29.333-7.8333 52.5-23.5 69.5s-41.5 25.5-77.5 25.5c-36.667 0-64.667-5.8333-84-17.5s-39-17.5-59-17.5c-12.667 0-23.5 5.3333-32.5 16s-13.5 23-13.5 37c0 26.667 20 49 60 67s79.333 27 118 27c40 0 74.667-5.3333 104-16 28.667-10.667 52.5-25.667 71.5-45s33.167-43 42.5-71c8.6667-28 13-59 13-93v-379c0-20-5.1667-35.667-15.5-47s-24.167-21-41.5-29c-14-5.3333-33.167-11.333-57.5-18s-53.833-10-88.5-10zm84 233c0 42.667-8 74.667-24 96s-40 32-72 32c-31.333 0-54.833-9.3333-70.5-28s-23.5-50.667-23.5-96c0-40 8.5-71.667 25.5-95s44.833-35 83.5-35c26 0 46 4.1667 60 12.5s21 16.5 21 24.5z"/><path d="m802 31c0-68.667-18-120.67-54-156s-87.333-53-154-53c-67.333 0-118.83 17.5-154.5 52.5s-53.5 87.833-53.5 158.5v189c0 20 5.8334 36.167 17.5 48.5s26.833 18.5 45.5 18.5 33.833-6.1667 45.5-18.5 17.5-28.5 17.5-48.5v-209c0-28.667 7.3333-49.667 22-63s34.667-20 60-20c26 0 45.833 7.6667 59.5 23s20.5 35.333 20.5 60v209c0 20 6.1667 36.167 18.5 48.5s27.5 18.5 45.5 18.5c18.667 0 34-6.1667 46-18.5s18-28.5 18-48.5z"/><path d="m165 221c0 20 6 36.333 18 49s26.667 19 44 19c19.333 0 34.667-6.3333 46-19s17-29 17-49v-327c0-19.333-5.8334-35.333-17.5-48s-26.833-19-45.5-19c-18 0-32.833 6.3333-44.5 19s-17.5 28.667-17.5 48z"/><path d="m-62 221c0 20 5.8334 36.333 17.5 49s26.5 19 44.5 19c18.667 0 33.833-6.3333 45.5-19s17.5-29 17.5-49v-612c0-20.667-6-37.167-18-49.5s-27-18.5-45-18.5c-18.667 0-33.667 6.1667-45 18.5s-17 28.833-17 49.5z"/><path d="m-200 100h-246c4 25.333 13.167 46 27.5 62s37.833 24 70.5 24c31.333 0 56.5-4 75.5-12s36.5-12 52.5-12c12.667 0 23.5 5.5 32.5 16.5s13.5 22.5 13.5 34.5c0 24.667-17.833 43.333-53.5 56s-76.167 19-121.5 19c-34 0-64.667-5.3333-92-16s-50.333-26.167-69-46.5c-18.667-20.333-33.333-44.833-44-73.5-10-28.667-15-60.667-15-96 0-36 5-68.667 15-98 10-28.667 24.333-53.333 43-74 18.667-20.667 41.333-36.667 68-48s56.667-17 90-17c36 0 66.667 5.6667 92 17 26 11.333 47.333 27 64 47s29 43.667 37 71 12 57.333 12 90c0 18-4.1666 31.833-12.5 41.5s-21.5 14.5-39.5 14.5zm-67-85c-1.3334-29.333-9.1666-52.667-23.5-70s-36.167-26-65.5-26c-28.667 0-50.167 7.3333-64.5 22s-22.833 39.333-25.5 74z"/><path d="m-1062 81c0 70 18 122.33 54 157s87.333 52 154 52c67.333 0 118.83-17.333 154.5-52s53.5-87.333 53.5-158v-189c0-20.667-5.8333-37-17.5-49s-26.5-18-44.5-18c-18.667 0-33.833 6.1667-45.5 18.5s-17.5 28.5-17.5 48.5v210c0 28.667-7.5 49.667-22.5 63s-35.167 20-60.5 20c-26.667 0-46.667-7.6667-60-23s-20-35.333-20-60v-210c0-20.667-6-37-18-49s-26.667-18-44-18c-18.667 0-34.167 6.1667-46.5 18.5s-18.5 28.5-18.5 48.5v190z"/><path d="m-1329 140 79-269c2.6667-9.3333 8.1667-19 16.5-29s21.5-15 39.5-15c17.333 0 32.667 5 46 15s20 24.667 20 44c0 6-0.6667 11.667-2 17s-3.3333 11.667-6 19l-104 292c-10 28-20.167 47.5-30.5 58.5s-28.5 16.5-54.5 16.5h-9c-26.667 0-45.833-5.6667-57.5-17s-22.833-31-33.5-59l-102-291c-2.6667-7.3333-4.6667-13.667-6-19s-2-11-2-17c0-19.333 6.6667-34 20-44s28.333-15 45-15c18 0 31.167 5 39.5 15s14.167 19.667 17.5 29l79 269z"/></g></svg>
