<?xml version="1.0" encoding="UTF-8"?>
<svg version="1.1" viewBox="0 0 640 512" xmlns="http://www.w3.org/2000/svg">
  <path fill="#36c" d="M376.6532,464H48V80h176v-48H0v480h427.06018c-19.36285-13.38934-36.19763-29.41357-50.40698-48ZM190,288l34,34,240-240v119.61005l32-12.44452,16,6.22223V0h-208v48h126l-240,240ZM496,223.5l-144,56v16c0,44.66663,12,87.33331,36,128,24,41.33331,60,70.66663,108,88,48-17.33337,84-46.66669,108-88,24-40.66669,36-83.33337,36-128v-16l-144-56ZM563,398.5c-16,27.33331-38.33331,47.66663-67,61v-184l95,36c-2.66669,31.33331-12,60.33331-28,87Z"/>
</svg>