<svg version="1.1" viewBox="0 0 512 512" xmlns="http://www.w3.org/2000/svg">
  <path fill="#36c" d="M268,5.5l-12-4,12,4-12-4-11,4h0L37,85.5h0l-19,8h0l-1,20h0c-2,25.33334-.33333,55.66667,5,91,5.33333,34.66667,16,71,32,109s39.33334,74,70,108c30.66667,34,70.33333,61.66666,119,83l13,6h0l13-6h0c48.66666-21.33334,88.33334-49,119-83s54-70,70-108,26.66666-74.33333,32-109c5.33334-35.33333,7-65.66666,5-91l-1-20h0l-19-8h0L268,5.5h0ZM256,69.5h0l176,68h0c0,20.66666-2.66666,44-8,70-4.66666,26-12.66666,52.66667-24,80-13.33334,30.66666-31.66666,59.33334-55,86s-53,49-89,67V69.5h0Z"/>
</svg>