<svg version="1.1" viewBox="0 0 100 100" xmlns="http://www.w3.org/2000/svg">
    <symbol id="Ecomo" viewBox="0 0 100 100">
        <g>
            <rect width="100" height="100" rx="6.25" ry="6.25"/>
            <path fill="#fff" d="M66.25,11c5.52285,0,10,4.47715,10,10v32.25c0,9.5-4.125,16.375-4.125,16.375-3.625.875-6.625,1.375-6.625,1.375l14.75,18.25h-8.25l-10-12.25h-24l-10,12.25h-8.25l14.75-18.25s-3-.5-6.625-1.375c0,0-4.125-6.875-4.125-16.375V21c0-5.52285,4.47715-10,10-10h32.5ZM60.5,18.5v-2.75c0-.55228-.44772-1-1-1h-19c-.55228,0-1,.44772-1,1v2.75c0,.55228.44772,1,1,1h19c.55228,0,1-.44772,1-1ZM71,42v-15.88939c0-1.38071-1.11929-2.5-2.5-2.5H31.5c-1.38071,0-2.5,1.11929-2.5,2.5v15.88939c0,1.38071,1.11929,2.5,2.5,2.5h37c1.38071,0,2.5-1.11929,2.5-2.5ZM35.25,54.5c-2.07107,0-3.75,1.67893-3.75,3.75s1.67893,3.75,3.75,3.75,3.75-1.67893,3.75-3.75-1.67893-3.75-3.75-3.75ZM64.75,54.5c-2.07107,0-3.75,1.67893-3.75,3.75s1.67893,3.75,3.75,3.75,3.75-1.67893,3.75-3.75-1.67893-3.75-3.75-3.75Z"/>
        </g>
    </symbol>
    <symbol id="NR" viewBox="0 0 100 100">
        <rect x="0" width="100" height="100"/>
        <g fill="#fff">
            <path d="M50,16.25c6.25,0,21.25.625,22.5,7.5,1.50112,8.25614,4.375,23.75,4.375,28.75,0,10-4.375,18.125-11.875,18.125h-30c-7.5,0-11.875-8.125-11.875-18.125,0-5,2.87388-20.49386,4.375-28.75,1.25-6.875,16.25-7.5,22.5-7.5ZM32.261,44.37505l12.11401-.00005c.69035,0,1.25-.55965,1.25-1.25v-16.87501c0-.69035-.55964-1.25-1.25-1.25l-9.38851-.00003c-.71988,0-1.33852.50923-1.47299,1.21644-.60369,3.17489-2.16072,11.83277-2.25444,17.13871-.00993.56202.43982,1.01994,1.00193,1.01994ZM68.74094,43.35511c-.09372-5.30594-1.65075-13.96382-2.25444-17.13871-.13447-.70721-.75311-1.21644-1.47299-1.21644l-9.38851.00003c-.69035,0-1.25.55965-1.25,1.25v16.87501c0,.69035.55964,1.25,1.25,1.25l12.11401.00005c.56211,0,1.01186-.45792,1.00193-1.01994ZM35.9375,53.125c-1.89848,0-3.4375,1.53902-3.4375,3.4375s1.53902,3.4375,3.4375,3.4375,3.4375-1.53902,3.4375-3.4375-1.53902-3.4375-3.4375-3.4375ZM64.0625,53.125c-1.89848,0-3.4375,1.53902-3.4375,3.4375s1.53902,3.4375,3.4375,3.4375,3.4375-1.53902,3.4375-3.4375-1.53902-3.4375-3.4375-3.4375Z"/>
            <g>
                <polygon points="24.375 84.375 32.5 84.375 38.75 74.375 34.375 74.375 24.375 84.375"/>
                <polygon points="75.625 84.375 67.5 84.375 61.25 74.375 65.625 74.375 75.625 84.375"/>
            </g>
        </g>
    </symbol>
</svg>