<svg version="1.1" viewBox="0 0 512 512" xmlns="http://www.w3.org/2000/svg">
  <path fill="#202122" d="M56,224H24h32H24v-32h0V64h0V32h64v32h0v51h0l18-17h0c29.3-29.3,63-49,101-59,38-9.3,76-9.3,114,0,38,10,71.7,29.7,101,59,29.3,29.3,49,63,59,101,9.3,38,9.3,76,0,114-10,38-29.7,71.7-59,101s-63,49-101,59c-38,9.3-76,9.3-114,0-38-10-71.7-29.7-101-59l45-45h0c32.7,31.3,70.3,47,113,47s80.3-15.7,113-47c31.3-32.7,47-70.3,47-113s-15.7-80.3-47-113c-32.7-31.3-70.3-47-113-47s-80.3,15.7-113,47l-17,17h82v64H56Z"/>
</svg>