<svg version="1.1" viewBox="0 0 20 20" xmlns="http://www.w3.org/2000/svg">
	<path d="m4.7325 4.6799c-0.40023-0.3861-0.40023-1.0272 0-1.4133 0.38039-0.36696 0.983-0.36696 1.3634 0l2.1213 2.0464c0.06026 0.05815 0.11146 0.12207 0.15358 0.19004h3.2081c0.0422-0.06797 0.0934-0.13189 0.1536-0.19004l2.1213-2.0464c0.3804-0.36696 0.983-0.36696 1.3634 0 0.4003 0.38609 0.4003 1.0272 0 1.4133l-0.8532 0.82313h0.636c2.2091 0 4 1.7909 4 4v5.5055c0 2.2091-1.7909 4-4 4h-10c-2.2091 0-4-1.7909-4-4v-5.5055c0-2.2091 1.7909-4 4-4h0.58579zm0.26748 2.7525c-1.1046 0-2 0.89543-2 2v5.6468c0 1.1046 0.89543 2 2 2h10c1.1046 0 2-0.8954 2-2v-5.6468c0-1.1046-0.8954-2-2-2zm1 3.894c0-0.55228 0.44772-1 1-1s1 0.44772 1 1v0.89403c0 0.5523-0.44772 1-1 1s-1-0.4477-1-1zm7-1c-0.5523 0-1 0.44772-1 1v0.89403c0 0.5523 0.4477 1 1 1s1-0.4477 1-1v-0.89403c0-0.55228-0.4477-1-1-1z" fill="#00aeec"/>
</svg>
