<?xml version="1.0" encoding="UTF-8"?>
<svg id="_图层_1" data-name="图层_1" xmlns="http://www.w3.org/2000/svg" version="1.1" viewBox="0 0 20 20">
  <!-- Generator: Adobe Illustrator 29.8.3, SVG Export Plug-In . SVG Version: 2.1.1 Build 3)  -->
  <defs>
    <style>
      .st0 {
        fill: #0085ff;
      }
    </style>
  </defs>
  <path class="st0" d="M5.46825,3.82627c1.83425,1.38175,3.8075,4.183,4.53175,5.68625v3.9705c0-.0845-.0325.011-.1025.21675-.378,1.114-1.8545,5.46175-5.23075,1.986-1.77775-1.83-.95475-3.66,2.28125-4.2125-1.85125.316-3.9325-.20625-4.5035-2.25375-.1645-.589-.4445-4.217-.4445-4.707,0-2.4545,2.14475-1.683,3.46825-.68625ZM14.53175,3.82627c-1.83425,1.38175-3.8075,4.183-4.53175,5.68625v3.9705c0-.0845.0325.011.1025.21675.378,1.114,1.8545,5.46175,5.23075,1.986,1.77775-1.83.95475-3.66-2.28125-4.2125,1.85125.316,3.9325-.20625,4.5035-2.25375.1645-.589.4445-4.217.4445-4.707,0-2.4545-2.1445-1.683-3.46825-.68625Z"/>
</svg>