<svg version="1.1" viewBox="0 0 20 20" xmlns="http://www.w3.org/2000/svg">
	<path d="m13.333 12.887 0.78261 2.6984 2.0509 2.2086c0.27737-0.15982 0.51349-0.39182 0.6795-0.6795l1.9055-3.2995c0.16601-0.28665 0.2485-0.60732 0.2485-0.928l-2.9263-0.56711z" fill="#ea4335"/>
	<path d="m12.833 2.2059c-0.27737-0.15982-0.59598-0.2485-0.92799-0.2485h-3.8099c-0.32995 0-0.65166 0.090737-0.92799 0.2485l0.82076 2.7644 2.0045 2.1282 0.0072 0.014435 2.0189-2.154z" fill="#188038"/>
	<path d="m6.6659 12.887-2.9211-0.67022-2.7448 0.67022c0 0.31964 0.082488 0.63928 0.24747 0.92696l1.9055 3.3006c0.16601 0.28665 0.40213 0.51864 0.6795 0.6795l2.0199-2.0808z" fill="#1967d2"/>
	<path d="m16.131 7.4222-2.619-4.5369c-0.16601-0.28768-0.40213-0.51968-0.6795-0.6795l-2.8335 4.907 3.3336 5.7742h5.6659c0-0.32067-0.08249-0.64032-0.2485-0.92799z" fill="#fbbc04"/>
	<path d="m13.333 12.887h-6.6671l-2.8335 4.907c0.27737 0.15982 0.59598 0.2485 0.92799 0.2485h10.477c0.33202 0 0.65063-0.08867 0.928-0.2485z" fill="#4285f4"/>
	<path d="m9.9995 7.1129-2.8324-4.907c-0.27737 0.15982-0.51246 0.39079-0.67847 0.67744l-5.2411 9.0789c-0.16498 0.28665-0.24747 0.60629-0.24747 0.9249h5.6659z" fill="#34a853"/>
</svg>
