<?xml version="1.0" encoding="UTF-8"?>
<svg id="_图层_1" data-name="图层_1" xmlns="http://www.w3.org/2000/svg" version="1.1" viewBox="0 0 20 20">
  <!-- Generator: Adobe Illustrator 29.1.0, SVG Export Plug-In . SVG Version: 2.1.0 Build 142)  -->
  <defs>
    <style>
      .st0 {
        fill: #0096fa;
      }
    </style>
  </defs>
  <path class="st0" d="M10.49839,1.85525c-1.69188.00033-3.33399.57277-4.65949,1.62424l-.91344-1.42019c-.08251-.12831-.22461-.20581-.37719-.20567h-1.10046c-.24731,0-.44781.20051-.44781.44781v15.8971c0,.24759.20099.44782.44857.44782h2.68989c.24731,0,.44777-.20051.44777-.44781v-2.44693c3.53346,2.1615,8.15013,1.04934,10.31161-2.48411.7208-1.17823,1.10216-2.53267,1.10216-3.91387-.0009-4.14213-3.35947-7.49928-7.50162-7.49839ZM10.50076,13.2666c-2.1615,0-3.91373-1.75223-3.91373-3.91373s1.75223-3.91377,3.91373-3.91377,3.91377,1.75223,3.91377,3.91377-1.75223,3.91373-3.91377,3.91373Z"/>
</svg>