<?xml version="1.0" encoding="UTF-8"?>
<svg xmlns="http://www.w3.org/2000/svg" xmlns:xlink="http://www.w3.org/1999/xlink">
  <symbol id="AK" viewBox="0 0 100 100">
    <circle fill="#2c4197" cx="50" cy="50" r="50"/>
    <circle fill="#fff" cx="50" cy="50" r="45"/>
    <g>
      <path fill="#333" d="M31.50439,32.48633h6.75879l13.46729,35.01367h-6.92773l-2.73877-7.21191h-14.28711l-2.84863,7.21191h-6.92627l13.50244-35.01367ZM34.92529,41.76953l-4.69727,12.02051h9.36719l-4.66992-12.02051Z"/>
      <path fill="#333" d="M54.49414,32.48633h6.73535v12.07129l9.50488-12.07129h8.00293l-12.22656,15.62695,13.41602,19.38672h-7.90332l-10.79395-15.55664v15.55664h-6.73535v-35.01367Z"/>
    </g>
  </symbol>
  <symbol id="AK01" viewBox="0 0 100 100">
    <circle fill="#2c4197" cx="50" cy="50" r="50"/>
    <circle fill="#fff" cx="50" cy="50" r="45"/>
    <line stroke="#2c4197" stroke-width="2.5px" x1="15" y1="50" x2="85" y2="50"/>
    <g>
      <path fill="#333" d="M36.44971,14.98926h5.31104l10.58105,27.51074h-5.44238l-2.15234-5.66699h-11.22607l-2.23779,5.66699h-5.44238l10.60889-27.51074ZM39.1377,22.2832l-3.69092,9.44434h7.36035l-3.66943-9.44434Z"/>
      <path fill="#333" d="M54.5127,14.98926h5.29199v9.48438l7.46875-9.48438h6.28711l-9.60645,12.27832,10.54102,15.23242h-6.20898l-8.48145-12.22363v12.22363h-5.29199V14.98926Z"/>
    </g>
    <g>
      <path fill="#333" d="M40.44043,56.79785c2.00684,0,3.73682.49219,5.18945,1.47754,1.45215.98438,2.57422,2.49023,3.36621,4.51562.79199,2.02637,1.1875,4.84766,1.1875,8.46289,0,3.65332-.40137,6.49609-1.20605,8.52832-.80371,2.03223-1.88574,3.52539-3.24512,4.47949-1.35889.95312-3.07324,1.43066-5.14258,1.43066-2.06982,0-3.80908-.48047-5.21777-1.44043-1.40918-.95996-2.5127-2.41895-3.31055-4.37598-.79785-1.95801-1.19678-4.74414-1.19678-8.36035,0-5.04883.7793-8.70801,2.33789-10.97754,1.73291-2.49414,4.14551-3.74023,7.23779-3.74023ZM40.56201,61.77246c-.88379,0-1.66748.2832-2.35205.85059-.68408.56738-1.20703,1.54297-1.56738,2.92676-.36084,1.38379-.54102,3.41016-.54102,6.07812,0,3.47852.41309,5.88184,1.24072,7.20996s1.90039,1.99121,3.21973,1.99121c1.26855,0,2.27637-.62891,3.02295-1.88867.9082-1.52051,1.3623-4.06445,1.3623-7.62988,0-3.61621-.40771-6.10938-1.22217-7.48145-.81494-1.37109-1.86914-2.05664-3.16309-2.05664Z"/>
      <path fill="#333" d="M57.55273,57.48926h7.83594v27.51074h-5.19922v-22.5918h-5.66699l3.03027-4.91895Z"/>
    </g>
  </symbol>
  <symbol id="AK02" viewBox="0 0 100 100">
    <circle fill="#2c4197" cx="50" cy="50" r="50"/>
    <circle fill="#fff" cx="50" cy="50" r="45"/>
    <line stroke="#2c4197" stroke-width="2.5px" x1="15" y1="50" x2="85" y2="50"/>
    <g>
      <path fill="#333" d="M36.44971,14.98926h5.31104l10.58105,27.51074h-5.44238l-2.15234-5.66699h-11.22607l-2.23779,5.66699h-5.44238l10.60889-27.51074ZM39.1377,22.2832l-3.69092,9.44434h7.36035l-3.66943-9.44434Z"/>
      <path fill="#333" d="M54.5127,14.98926h5.29199v9.48438l7.46875-9.48438h6.28711l-9.60645,12.27832,10.54102,15.23242h-6.20898l-8.48145-12.22363v12.22363h-5.29199V14.98926Z"/>
    </g>
    <g>
      <path fill="#333" d="M40.44043,56.79785c2.00684,0,3.73682.49219,5.18945,1.47754,1.45215.98438,2.57422,2.49023,3.36621,4.51562.79199,2.02637,1.1875,4.84766,1.1875,8.46289,0,3.65332-.40137,6.49609-1.20605,8.52832-.80371,2.03223-1.88574,3.52539-3.24512,4.47949-1.35889.95312-3.07324,1.43066-5.14258,1.43066-2.06982,0-3.80908-.48047-5.21777-1.44043-1.40918-.95996-2.5127-2.41895-3.31055-4.37598-.79785-1.95801-1.19678-4.74414-1.19678-8.36035,0-5.04883.7793-8.70801,2.33789-10.97754,1.73291-2.49414,4.14551-3.74023,7.23779-3.74023ZM40.56201,61.77246c-.88379,0-1.66748.2832-2.35205.85059-.68408.56738-1.20703,1.54297-1.56738,2.92676-.36084,1.38379-.54102,3.41016-.54102,6.07812,0,3.47852.41309,5.88184,1.24072,7.20996s1.90039,1.99121,3.21973,1.99121c1.26855,0,2.27637-.62891,3.02295-1.88867.9082-1.52051,1.3623-4.06445,1.3623-7.62988,0-3.61621-.40771-6.10938-1.22217-7.48145-.81494-1.37109-1.86914-2.05664-3.16309-2.05664Z"/>
      <path fill="#333" d="M57.92676,66.35449h-5.10547c.13672-2.96777,1.06836-5.30273,2.7959-7.00391,1.72656-1.70215,3.94238-2.55273,6.64844-2.55273,1.6709,0,3.14453.35254,4.42285,1.05664,1.27734.7041,2.2998,1.7207,3.06738,3.04785.7666,1.32812,1.14941,2.67773,1.14941,4.04883,0,1.63379-.46484,3.3916-1.39355,5.27441-.92969,1.88281-2.62891,4.1084-5.09863,6.67676l-3.08789,3.25391h9.80469v4.84375h-19.05664v-2.50586l8.50879-8.67773c2.05762-2.08203,3.42578-3.75586,4.10547-5.02148s1.01953-2.40918,1.01953-3.43164c0-1.05957-.35254-1.93555-1.05664-2.62793-.70508-.69238-1.6123-1.03809-2.72168-1.03809-1.12207,0-2.05664.41797-2.80566,1.25293-.74805.83594-1.14648,1.9707-1.19629,3.4043Z"/>
    </g>
  </symbol>
  <symbol id="AK03" viewBox="0 0 100 100">
    <circle fill="#2c4197" cx="50" cy="50" r="50"/>
    <circle fill="#fff" cx="50" cy="50" r="45"/>
    <line stroke="#2c4197" stroke-width="2.5px" x1="15" y1="50" x2="85" y2="50"/>
    <g>
      <path fill="#333" d="M36.44971,14.98926h5.31104l10.58105,27.51074h-5.44238l-2.15234-5.66699h-11.22607l-2.23779,5.66699h-5.44238l10.60889-27.51074ZM39.1377,22.2832l-3.69092,9.44434h7.36035l-3.66943-9.44434Z"/>
      <path fill="#333" d="M54.5127,14.98926h5.29199v9.48438l7.46875-9.48438h6.28711l-9.60645,12.27832,10.54102,15.23242h-6.20898l-8.48145-12.22363v12.22363h-5.29199V14.98926Z"/>
    </g>
    <g>
      <path fill="#333" d="M40.44043,56.79785c2.00684,0,3.73682.49219,5.18945,1.47754,1.45215.98438,2.57422,2.49023,3.36621,4.51562.79199,2.02637,1.1875,4.84766,1.1875,8.46289,0,3.65332-.40137,6.49609-1.20605,8.52832-.80371,2.03223-1.88574,3.52539-3.24512,4.47949-1.35889.95312-3.07324,1.43066-5.14258,1.43066-2.06982,0-3.80908-.48047-5.21777-1.44043-1.40918-.95996-2.5127-2.41895-3.31055-4.37598-.79785-1.95801-1.19678-4.74414-1.19678-8.36035,0-5.04883.7793-8.70801,2.33789-10.97754,1.73291-2.49414,4.14551-3.74023,7.23779-3.74023ZM40.56201,61.77246c-.88379,0-1.66748.2832-2.35205.85059-.68408.56738-1.20703,1.54297-1.56738,2.92676-.36084,1.38379-.54102,3.41016-.54102,6.07812,0,3.47852.41309,5.88184,1.24072,7.20996s1.90039,1.99121,3.21973,1.99121c1.26855,0,2.27637-.62891,3.02295-1.88867.9082-1.52051,1.3623-4.06445,1.3623-7.62988,0-3.61621-.40771-6.10938-1.22217-7.48145-.81494-1.37109-1.86914-2.05664-3.16309-2.05664Z"/>
      <path fill="#333" d="M58.52539,64.27832h-5.03125c.26172-2.03223.99121-3.66602,2.18848-4.90039,1.66992-1.71973,3.77148-2.58008,6.30273-2.58008,2.25586,0,4.14844.7168,5.67578,2.15039s2.29102,3.13574,2.29102,5.10547c0,1.22266-.33398,2.33789-1.00098,3.34766s-1.63574,1.82715-2.9082,2.4502c1.6709.49902,2.97656,1.36816,3.91797,2.6084.94141,1.24121,1.41211,2.70312,1.41211,4.38574,0,2.46875-.91016,4.56055-2.73047,6.27441-1.82031,1.71484-4.13965,2.57227-6.95703,2.57227-2.66797,0-4.84375-.80762-6.52637-2.42188-1.68359-1.61523-2.60645-3.8125-2.76855-6.59277h5.18066c.22461,1.4209.71973,2.47754,1.48633,3.16992.76758.69238,1.73633,1.03809,2.9082,1.03809,1.22168,0,2.23535-.39258,3.03906-1.17871.80469-.78516,1.20703-1.74512,1.20703-2.87988,0-1.24609-.54297-2.2998-1.62793-3.16016-1.08398-.86035-2.64941-1.30273-4.69336-1.32812v-4.48828c1.25879-.09961,2.19727-.2959,2.81445-.58887s1.09668-.69531,1.43945-1.20703c.34277-.51074.51465-1.05273.51465-1.62695,0-.74805-.26172-1.36816-.78516-1.86035-.52344-.49316-1.20996-.73926-2.05762-.73926-.74805,0-1.42773.22754-2.03809.68262-.61133.45508-1.0293,1.04492-1.25293,1.76758Z"/>
    </g>
  </symbol>
  <symbol id="AK04" viewBox="0 0 100 100">
    <circle fill="#2c4197" cx="50" cy="50" r="50"/>
    <circle fill="#fff" cx="50" cy="50" r="45"/>
    <line stroke="#2c4197" stroke-width="2.5px" x1="15" y1="50" x2="85" y2="50"/>
    <g>
      <path fill="#333" d="M36.44971,14.98926h5.31104l10.58105,27.51074h-5.44238l-2.15234-5.66699h-11.22607l-2.23779,5.66699h-5.44238l10.60889-27.51074ZM39.1377,22.2832l-3.69092,9.44434h7.36035l-3.66943-9.44434Z"/>
      <path fill="#333" d="M54.5127,14.98926h5.29199v9.48438l7.46875-9.48438h6.28711l-9.60645,12.27832,10.54102,15.23242h-6.20898l-8.48145-12.22363v12.22363h-5.29199V14.98926Z"/>
    </g>
    <g>
      <path fill="#333" d="M40.44043,56.79785c2.00684,0,3.73682.49219,5.18945,1.47754,1.45215.98438,2.57422,2.49023,3.36621,4.51562.79199,2.02637,1.1875,4.84766,1.1875,8.46289,0,3.65332-.40137,6.49609-1.20605,8.52832-.80371,2.03223-1.88574,3.52539-3.24512,4.47949-1.35889.95312-3.07324,1.43066-5.14258,1.43066-2.06982,0-3.80908-.48047-5.21777-1.44043-1.40918-.95996-2.5127-2.41895-3.31055-4.37598-.79785-1.95801-1.19678-4.74414-1.19678-8.36035,0-5.04883.7793-8.70801,2.33789-10.97754,1.73291-2.49414,4.14551-3.74023,7.23779-3.74023ZM40.56201,61.77246c-.88379,0-1.66748.2832-2.35205.85059-.68408.56738-1.20703,1.54297-1.56738,2.92676-.36084,1.38379-.54102,3.41016-.54102,6.07812,0,3.47852.41309,5.88184,1.24072,7.20996s1.90039,1.99121,3.21973,1.99121c1.26855,0,2.27637-.62891,3.02295-1.88867.9082-1.52051,1.3623-4.06445,1.3623-7.62988,0-3.61621-.40771-6.10938-1.22217-7.48145-.81494-1.37109-1.86914-2.05664-3.16309-2.05664Z"/>
      <path fill="#333" d="M63.94727,56.79785h5.21875v17.70996h2.4502v4.84375h-2.4502v5.64844h-5.12402v-5.64844h-12.00684v-4.84375l11.91211-17.70996ZM64.04199,74.50781v-9.21973l-6.28418,9.21973h6.28418Z"/>
     </g>
  </symbol>
  <symbol id="AK05" viewBox="0 0 100 100">
    <circle fill="#2c4197" cx="50" cy="50" r="50"/>
    <circle fill="#fff" cx="50" cy="50" r="45"/>
    <line stroke="#2c4197" stroke-width="2.5px" x1="15" y1="50" x2="85" y2="50"/>
    <g>
      <path fill="#333" d="M36.44971,14.98926h5.31104l10.58105,27.51074h-5.44238l-2.15234-5.66699h-11.22607l-2.23779,5.66699h-5.44238l10.60889-27.51074ZM39.1377,22.2832l-3.69092,9.44434h7.36035l-3.66943-9.44434Z"/>
      <path fill="#333" d="M54.5127,14.98926h5.29199v9.48438l7.46875-9.48438h6.28711l-9.60645,12.27832,10.54102,15.23242h-6.20898l-8.48145-12.22363v12.22363h-5.29199V14.98926Z"/>
    </g>
    <g>
      <path fill="#333" d="M40.44043,56.79785c2.00684,0,3.73682.49219,5.18945,1.47754,1.45215.98438,2.57422,2.49023,3.36621,4.51562.79199,2.02637,1.1875,4.84766,1.1875,8.46289,0,3.65332-.40137,6.49609-1.20605,8.52832-.80371,2.03223-1.88574,3.52539-3.24512,4.47949-1.35889.95312-3.07324,1.43066-5.14258,1.43066-2.06982,0-3.80908-.48047-5.21777-1.44043-1.40918-.95996-2.5127-2.41895-3.31055-4.37598-.79785-1.95801-1.19678-4.74414-1.19678-8.36035,0-5.04883.7793-8.70801,2.33789-10.97754,1.73291-2.49414,4.14551-3.74023,7.23779-3.74023ZM40.56201,61.77246c-.88379,0-1.66748.2832-2.35205.85059-.68408.56738-1.20703,1.54297-1.56738,2.92676-.36084,1.38379-.54102,3.41016-.54102,6.07812,0,3.47852.41309,5.88184,1.24072,7.20996s1.90039,1.99121,3.21973,1.99121c1.26855,0,2.27637-.62891,3.02295-1.88867.9082-1.52051,1.3623-4.06445,1.3623-7.62988,0-3.61621-.40771-6.10938-1.22217-7.48145-.81494-1.37109-1.86914-2.05664-3.16309-2.05664Z"/>
      <path fill="#333" d="M57.64648,57.48926h12.88477v4.84375h-8.97656l-1.12207,4.99414c.31152-.08789.61719-.15332.91602-.19727.2998-.04297.58594-.06543.86035-.06543,2.49414,0,4.56641.85156,6.21875,2.55273,1.65234,1.70215,2.47754,3.88086,2.47754,6.53711,0,2.68066-.91309,4.94043-2.73926,6.7793-1.82715,1.83887-4.04883,2.75879-6.66699,2.75879-2.34473,0-4.3584-.66797-6.04102-2.00195-1.68359-1.33398-2.78711-3.16016-3.31055-5.47949h5.49902c.42285.86035.98145,1.51172,1.67383,1.95508.69141.44238,1.45508.66309,2.29102.66309,1.15918,0,2.14355-.41699,2.9541-1.25293.81055-.83496,1.21582-1.90723,1.21582-3.2168,0-1.27148-.37695-2.31543-1.13086-3.13184-.75488-.81641-1.66797-1.22559-2.74023-1.22559-.57324,0-1.1377.14355-1.69238.43066s-1.10059.7168-1.63672,1.29004l-4.26367-.9541,3.3291-15.2793Z"/>
    </g>
  </symbol>
  <symbol id="AK06" viewBox="0 0 100 100">
    <circle fill="#2c4197" cx="50" cy="50" r="50"/>
    <circle fill="#fff" cx="50" cy="50" r="45"/>
    <line stroke="#2c4197" stroke-width="2.5px" x1="15" y1="50" x2="85" y2="50"/>
    <g>
      <path fill="#333" d="M36.44971,14.98926h5.31104l10.58105,27.51074h-5.44238l-2.15234-5.66699h-11.22607l-2.23779,5.66699h-5.44238l10.60889-27.51074ZM39.1377,22.2832l-3.69092,9.44434h7.36035l-3.66943-9.44434Z"/>
      <path fill="#333" d="M54.5127,14.98926h5.29199v9.48438l7.46875-9.48438h6.28711l-9.60645,12.27832,10.54102,15.23242h-6.20898l-8.48145-12.22363v12.22363h-5.29199V14.98926Z"/>
    </g>
    <g>
      <path fill="#333" d="M40.44043,56.79785c2.00684,0,3.73682.49219,5.18945,1.47754,1.45215.98438,2.57422,2.49023,3.36621,4.51562.79199,2.02637,1.1875,4.84766,1.1875,8.46289,0,3.65332-.40137,6.49609-1.20605,8.52832-.80371,2.03223-1.88574,3.52539-3.24512,4.47949-1.35889.95312-3.07324,1.43066-5.14258,1.43066-2.06982,0-3.80908-.48047-5.21777-1.44043-1.40918-.95996-2.5127-2.41895-3.31055-4.37598-.79785-1.95801-1.19678-4.74414-1.19678-8.36035,0-5.04883.7793-8.70801,2.33789-10.97754,1.73291-2.49414,4.14551-3.74023,7.23779-3.74023ZM40.56201,61.77246c-.88379,0-1.66748.2832-2.35205.85059-.68408.56738-1.20703,1.54297-1.56738,2.92676-.36084,1.38379-.54102,3.41016-.54102,6.07812,0,3.47852.41309,5.88184,1.24072,7.20996s1.90039,1.99121,3.21973,1.99121c1.26855,0,2.27637-.62891,3.02295-1.88867.9082-1.52051,1.3623-4.06445,1.3623-7.62988,0-3.61621-.40771-6.10938-1.22217-7.48145-.81494-1.37109-1.86914-2.05664-3.16309-2.05664Z"/>
      <path fill="#333" d="M62.35938,56.79785l4.45996,2.23047-4.81543,9.3457c2.33105,0,4.31348.83496,5.94727,2.50586,1.63281,1.6709,2.44922,3.74707,2.44922,6.22754,0,2.39453-.83789,4.42383-2.51465,6.08789-1.67773,1.66406-3.7002,2.49707-6.06934,2.49707-2.48145,0-4.54785-.86328-6.19922-2.59082-1.65234-1.72656-2.47852-3.70605-2.47852-5.9375,0-.84766.12793-1.70215.38379-2.5625.25488-.86035.84473-2.18164,1.76758-3.96484l7.06934-13.83887ZM61.7041,73.33008c-.97266,0-1.78906.35254-2.44922,1.05664-.66113.7041-.99121,1.58691-.99121,2.64648s.3457,1.95117,1.03711,2.67383c.69238.72363,1.49902,1.08496,2.42188,1.08496.97266,0,1.80762-.35547,2.50684-1.06641.69727-.70996,1.04688-1.60742,1.04688-2.69238,0-1.05957-.33984-1.94238-1.01953-2.64648s-1.53027-1.05664-2.55273-1.05664Z"/>
    </g>
  </symbol>
  <symbol id="AK07" viewBox="0 0 100 100">
    <circle fill="#2c4197" cx="50" cy="50" r="50"/>
    <circle fill="#fff" cx="50" cy="50" r="45"/>
    <line stroke="#2c4197" stroke-width="2.5px" x1="15" y1="50" x2="85" y2="50"/>
    <g>
      <path fill="#333" d="M36.44971,14.98926h5.31104l10.58105,27.51074h-5.44238l-2.15234-5.66699h-11.22607l-2.23779,5.66699h-5.44238l10.60889-27.51074ZM39.1377,22.2832l-3.69092,9.44434h7.36035l-3.66943-9.44434Z"/>
      <path fill="#333" d="M54.5127,14.98926h5.29199v9.48438l7.46875-9.48438h6.28711l-9.60645,12.27832,10.54102,15.23242h-6.20898l-8.48145-12.22363v12.22363h-5.29199V14.98926Z"/>
    </g>
    <g>
      <path fill="#333" d="M40.44043,56.79785c2.00684,0,3.73682.49219,5.18945,1.47754,1.45215.98438,2.57422,2.49023,3.36621,4.51562.79199,2.02637,1.1875,4.84766,1.1875,8.46289,0,3.65332-.40137,6.49609-1.20605,8.52832-.80371,2.03223-1.88574,3.52539-3.24512,4.47949-1.35889.95312-3.07324,1.43066-5.14258,1.43066-2.06982,0-3.80908-.48047-5.21777-1.44043-1.40918-.95996-2.5127-2.41895-3.31055-4.37598-.79785-1.95801-1.19678-4.74414-1.19678-8.36035,0-5.04883.7793-8.70801,2.33789-10.97754,1.73291-2.49414,4.14551-3.74023,7.23779-3.74023ZM40.56201,61.77246c-.88379,0-1.66748.2832-2.35205.85059-.68408.56738-1.20703,1.54297-1.56738,2.92676-.36084,1.38379-.54102,3.41016-.54102,6.07812,0,3.47852.41309,5.88184,1.24072,7.20996s1.90039,1.99121,3.21973,1.99121c1.26855,0,2.27637-.62891,3.02295-1.88867.9082-1.52051,1.3623-4.06445,1.3623-7.62988,0-3.61621-.40771-6.10938-1.22217-7.48145-.81494-1.37109-1.86914-2.05664-3.16309-2.05664Z"/>
      <path fill="#333" d="M53.55078,57.48926h18.04688v2.74902l-12.41797,25.4541-4.42383-2.14648,10.33398-21.1377h-11.53906v-4.91895Z"/>
    </g>
  </symbol>
  <symbol id="AK08" viewBox="0 0 100 100">
    <circle fill="#2c4197" cx="50" cy="50" r="50"/>
    <circle fill="#fff" cx="50" cy="50" r="45"/>
    <line stroke="#2c4197" stroke-width="2.5px" x1="15" y1="50" x2="85" y2="50"/>
    <g>
      <path fill="#333" d="M36.44971,14.98926h5.31104l10.58105,27.51074h-5.44238l-2.15234-5.66699h-11.22607l-2.23779,5.66699h-5.44238l10.60889-27.51074ZM39.1377,22.2832l-3.69092,9.44434h7.36035l-3.66943-9.44434Z"/>
      <path fill="#333" d="M54.5127,14.98926h5.29199v9.48438l7.46875-9.48438h6.28711l-9.60645,12.27832,10.54102,15.23242h-6.20898l-8.48145-12.22363v12.22363h-5.29199V14.98926Z"/>
    </g>
    <g>
      <path fill="#333" d="M40.44043,56.79785c2.00684,0,3.73682.49219,5.18945,1.47754,1.45215.98438,2.57422,2.49023,3.36621,4.51562.79199,2.02637,1.1875,4.84766,1.1875,8.46289,0,3.65332-.40137,6.49609-1.20605,8.52832-.80371,2.03223-1.88574,3.52539-3.24512,4.47949-1.35889.95312-3.07324,1.43066-5.14258,1.43066-2.06982,0-3.80908-.48047-5.21777-1.44043-1.40918-.95996-2.5127-2.41895-3.31055-4.37598-.79785-1.95801-1.19678-4.74414-1.19678-8.36035,0-5.04883.7793-8.70801,2.33789-10.97754,1.73291-2.49414,4.14551-3.74023,7.23779-3.74023ZM40.56201,61.77246c-.88379,0-1.66748.2832-2.35205.85059-.68408.56738-1.20703,1.54297-1.56738,2.92676-.36084,1.38379-.54102,3.41016-.54102,6.07812,0,3.47852.41309,5.88184,1.24072,7.20996s1.90039,1.99121,3.21973,1.99121c1.26855,0,2.27637-.62891,3.02295-1.88867.9082-1.52051,1.3623-4.06445,1.3623-7.62988,0-3.61621-.40771-6.10938-1.22217-7.48145-.81494-1.37109-1.86914-2.05664-3.16309-2.05664Z"/>
      <path fill="#333" d="M67.61426,70.08398c1.24609.79883,2.20996,1.82422,2.88965,3.07812.67871,1.25391,1.01855,2.61133,1.01855,4.07031,0,1.58496-.39551,3.05078-1.1875,4.39844s-1.85449,2.36133-3.18848,3.04102-3.03613,1.02051-5.10547,1.02051c-2.21973,0-3.9834-.32812-5.29297-.98242-1.30859-.65527-2.35645-1.64746-3.1416-2.97656-.78516-1.32812-1.17871-2.82812-1.17871-4.50098,0-1.44629.31543-2.76562.94531-3.95801.62891-1.19141,1.57324-2.25488,2.83301-3.19043-.82324-.83496-1.44336-1.72266-1.86133-2.66309-.41699-.94043-.62598-1.93359-.62598-2.98047,0-1.43262.3457-2.7373,1.03809-3.91504.69141-1.17676,1.66113-2.09277,2.9082-2.74707,1.24609-.65332,2.68652-.98047,4.32031-.98047,1.6084,0,3.02246.33008,4.24512.99023,1.22168.66016,2.18457,1.59766,2.88965,2.8125.7041,1.21387,1.05664,2.51953,1.05664,3.91504,0,.9834-.18457,1.89648-.55176,2.7373-.36816.84082-1.03809,1.78418-2.01074,2.83105ZM62.02246,72.88086c-1.25977,0-2.31934.38379-3.17969,1.15039s-1.29004,1.68066-1.29004,2.74023c0,1.10938.40527,2.04785,1.21582,2.81445.80957.7666,1.87598,1.15039,3.19727,1.15039,1.33398,0,2.39746-.3584,3.18945-1.07617.79102-.7168,1.1875-1.64258,1.1875-2.77637,0-1.13477-.41211-2.08594-1.23438-2.85254-.82324-.7666-1.85156-1.15039-3.08594-1.15039ZM61.81641,61.84668c-.86035,0-1.56738.2832-2.12207.84863-.55566.56543-.83301,1.29004-.83301,2.17188,0,.88281.29297,1.62305.87891,2.21973s1.30957.89453,2.16992.89453c.88477,0,1.61133-.29199,2.17871-.87695.56738-.58398.85059-1.3418.85059-2.27441,0-.88184-.28613-1.59961-.86035-2.15332-.57324-.55273-1.32715-.83008-2.2627-.83008Z"/>
    </g>
  </symbol>
  <symbol id="AK09" viewBox="0 0 100 100">
    <circle fill="#2c4197" cx="50" cy="50" r="50"/>
    <circle fill="#fff" cx="50" cy="50" r="45"/>
    <line stroke="#2c4197" stroke-width="2.5px" x1="15" y1="50" x2="85" y2="50"/>
    <g>
      <path fill="#333" d="M36.44971,14.98926h5.31104l10.58105,27.51074h-5.44238l-2.15234-5.66699h-11.22607l-2.23779,5.66699h-5.44238l10.60889-27.51074ZM39.1377,22.2832l-3.69092,9.44434h7.36035l-3.66943-9.44434Z"/>
      <path fill="#333" d="M54.5127,14.98926h5.29199v9.48438l7.46875-9.48438h6.28711l-9.60645,12.27832,10.54102,15.23242h-6.20898l-8.48145-12.22363v12.22363h-5.29199V14.98926Z"/>
    </g>
    <g>
      <path fill="#333" d="M40.44043,56.79785c2.00684,0,3.73682.49219,5.18945,1.47754,1.45215.98438,2.57422,2.49023,3.36621,4.51562.79199,2.02637,1.1875,4.84766,1.1875,8.46289,0,3.65332-.40137,6.49609-1.20605,8.52832-.80371,2.03223-1.88574,3.52539-3.24512,4.47949-1.35889.95312-3.07324,1.43066-5.14258,1.43066-2.06982,0-3.80908-.48047-5.21777-1.44043-1.40918-.95996-2.5127-2.41895-3.31055-4.37598-.79785-1.95801-1.19678-4.74414-1.19678-8.36035,0-5.04883.7793-8.70801,2.33789-10.97754,1.73291-2.49414,4.14551-3.74023,7.23779-3.74023ZM40.56201,61.77246c-.88379,0-1.66748.2832-2.35205.85059-.68408.56738-1.20703,1.54297-1.56738,2.92676-.36084,1.38379-.54102,3.41016-.54102,6.07812,0,3.47852.41309,5.88184,1.24072,7.20996s1.90039,1.99121,3.21973,1.99121c1.26855,0,2.27637-.62891,3.02295-1.88867.9082-1.52051,1.3623-4.06445,1.3623-7.62988,0-3.61621-.40771-6.10938-1.22217-7.48145-.81494-1.37109-1.86914-2.05664-3.16309-2.05664Z"/>
      <path fill="#333" d="M61.5918,85.69238l-4.44922-2.20996,4.82031-9.36719c-2.33594,0-4.32227-.83398-5.95801-2.50293-1.63672-1.66895-2.4541-3.74316-2.4541-6.22168,0-2.40332.83789-4.43652,2.51465-6.09863,1.67676-1.66309,3.7002-2.49414,6.06934-2.49414,2.48047,0,4.54688.8623,6.19922,2.58691s2.47852,3.70801,2.47852,5.94922c0,.84668-.12793,1.69629-.38379,2.5498-.25586.85254-.84473,2.16895-1.76758,3.9502l-7.06934,13.8584ZM62.24707,69.15918c.97168,0,1.78906-.35449,2.44922-1.06348.66113-.70898.99121-1.58496.99121-2.62988,0-1.06934-.3457-1.96484-1.03711-2.68652-.69238-.7207-1.5-1.08203-2.42285-1.08203-.97168,0-1.80762.35742-2.50586,1.07324-.69824.71484-1.04688,1.60742-1.04688,2.67676,0,1.05664.33984,1.93945,1.01953,2.64844.67871.70898,1.53027,1.06348,2.55273,1.06348Z"/>
    </g>
  </symbol>
  <symbol id="AK10" viewBox="0 0 100 100">
    <circle fill="#2c4197" cx="50" cy="50" r="50"/>
    <circle fill="#fff" cx="50" cy="50" r="45"/>
    <line stroke="#2c4197" stroke-width="2.5px" x1="15" y1="50" x2="85" y2="50"/>
    <g>
      <path fill="#333" d="M36.44971,14.98926h5.31104l10.58105,27.51074h-5.44238l-2.15234-5.66699h-11.22607l-2.23779,5.66699h-5.44238l10.60889-27.51074ZM39.1377,22.2832l-3.69092,9.44434h7.36035l-3.66943-9.44434Z"/>
      <path fill="#333" d="M54.5127,14.98926h5.29199v9.48438l7.46875-9.48438h6.28711l-9.60645,12.27832,10.54102,15.23242h-6.20898l-8.48145-12.22363v12.22363h-5.29199V14.98926Z"/>
    </g>
    <g>
      <path fill="#333" d="M36.10156,57.48926h7.83594v27.51074h-5.19922v-22.5918h-5.6665l3.02979-4.91895Z"/>
      <path fill="#333" d="M61.8916,56.79785c2.00684,0,3.7373.49219,5.18945,1.47754,1.45215.98438,2.57422,2.49023,3.36621,4.51562.79199,2.02637,1.1875,4.84766,1.1875,8.46289,0,3.65332-.40137,6.49609-1.20605,8.52832-.80371,2.03223-1.88574,3.52539-3.24512,4.47949-1.3584.95312-3.07324,1.43066-5.14258,1.43066s-3.80859-.48047-5.21777-1.44043-2.5127-2.41895-3.31055-4.37598c-.79785-1.95801-1.19629-4.74414-1.19629-8.36035,0-5.04883.77832-8.70801,2.33691-10.97754,1.7334-2.49414,4.14551-3.74023,7.23828-3.74023ZM62.0127,61.77246c-.88379,0-1.66699.2832-2.35156.85059s-1.20703,1.54297-1.56738,2.92676c-.36133,1.38379-.54102,3.41016-.54102,6.07812,0,3.47852.41309,5.88184,1.24121,7.20996.82715,1.32812,1.90039,1.99121,3.21875,1.99121,1.26953,0,2.27734-.62891,3.02344-1.88867.9082-1.52051,1.3623-4.06445,1.3623-7.62988,0-3.61621-.40723-6.10938-1.22266-7.48145-.81445-1.37109-1.86914-2.05664-3.16309-2.05664Z"/>
    </g>
  </symbol>
  <symbol id="AK11" viewBox="0 0 100 100">
    <circle fill="#2c4197" cx="50" cy="50" r="50"/>
    <circle fill="#fff" cx="50" cy="50" r="45"/>
    <line stroke="#2c4197" stroke-width="2.5px" x1="15" y1="50" x2="85" y2="50"/>
    <g>
      <path fill="#333" d="M36.44971,14.98926h5.31104l10.58105,27.51074h-5.44238l-2.15234-5.66699h-11.22607l-2.23779,5.66699h-5.44238l10.60889-27.51074ZM39.1377,22.2832l-3.69092,9.44434h7.36035l-3.66943-9.44434Z"/>
      <path fill="#333" d="M54.5127,14.98926h5.29199v9.48438l7.46875-9.48438h6.28711l-9.60645,12.27832,10.54102,15.23242h-6.20898l-8.48145-12.22363v12.22363h-5.29199V14.98926Z"/>
    </g>
    <g>
      <path fill="#333" d="M36.10156,57.48926h7.83594v27.51074h-5.19922v-22.5918h-5.6665l3.02979-4.91895Z"/>
      <path fill="#333" d="M57.55273,57.48926h7.83594v27.51074h-5.19922v-22.5918h-5.66699l3.03027-4.91895Z"/>
    </g>
  </symbol>
  <symbol id="AK12" viewBox="0 0 100 100">
    <circle fill="#2c4197" cx="50" cy="50" r="50"/>
    <circle fill="#fff" cx="50" cy="50" r="45"/>
    <line stroke="#2c4197" stroke-width="2.5px" x1="15" y1="50" x2="85" y2="50"/>
    <g>
      <path fill="#333" d="M36.44971,14.98926h5.31104l10.58105,27.51074h-5.44238l-2.15234-5.66699h-11.22607l-2.23779,5.66699h-5.44238l10.60889-27.51074ZM39.1377,22.2832l-3.69092,9.44434h7.36035l-3.66943-9.44434Z"/>
      <path fill="#333" d="M54.5127,14.98926h5.29199v9.48438l7.46875-9.48438h6.28711l-9.60645,12.27832,10.54102,15.23242h-6.20898l-8.48145-12.22363v12.22363h-5.29199V14.98926Z"/>
    </g>
    <g>
      <path fill="#333" d="M36.10156,57.48926h7.83594v27.51074h-5.19922v-22.5918h-5.6665l3.02979-4.91895Z"/>
      <path fill="#333" d="M57.92676,66.35449h-5.10547c.13672-2.96777,1.06836-5.30273,2.7959-7.00391,1.72656-1.70215,3.94238-2.55273,6.64844-2.55273,1.6709,0,3.14453.35254,4.42285,1.05664,1.27734.7041,2.2998,1.7207,3.06738,3.04785.7666,1.32812,1.14941,2.67773,1.14941,4.04883,0,1.63379-.46484,3.3916-1.39355,5.27441-.92969,1.88281-2.62891,4.1084-5.09863,6.67676l-3.08789,3.25391h9.80469v4.84375h-19.05664v-2.50586l8.50879-8.67773c2.05762-2.08203,3.42578-3.75586,4.10547-5.02148s1.01953-2.40918,1.01953-3.43164c0-1.05957-.35254-1.93555-1.05664-2.62793-.70508-.69238-1.6123-1.03809-2.72168-1.03809-1.12207,0-2.05664.41797-2.80566,1.25293-.74805.83594-1.14648,1.9707-1.19629,3.4043Z"/>
    </g>
  </symbol>
  <symbol id="AK13" viewBox="0 0 100 100">
    <circle fill="#2c4197" cx="50" cy="50" r="50"/>
    <circle fill="#fff" cx="50" cy="50" r="45"/>
    <line stroke="#2c4197" stroke-width="2.5px" x1="15" y1="50" x2="85" y2="50"/>
    <g>
      <path fill="#333" d="M36.44971,14.98926h5.31104l10.58105,27.51074h-5.44238l-2.15234-5.66699h-11.22607l-2.23779,5.66699h-5.44238l10.60889-27.51074ZM39.1377,22.2832l-3.69092,9.44434h7.36035l-3.66943-9.44434Z"/>
      <path fill="#333" d="M54.5127,14.98926h5.29199v9.48438l7.46875-9.48438h6.28711l-9.60645,12.27832,10.54102,15.23242h-6.20898l-8.48145-12.22363v12.22363h-5.29199V14.98926Z"/>
    </g>
    <g>
      <path fill="#333" d="M36.10156,57.48926h7.83594v27.51074h-5.19922v-22.5918h-5.6665l3.02979-4.91895Z"/>
      <path fill="#333" d="M58.52539,64.27832h-5.03125c.26172-2.03223.99121-3.66602,2.18848-4.90039,1.66992-1.71973,3.77148-2.58008,6.30273-2.58008,2.25586,0,4.14844.7168,5.67578,2.15039s2.29102,3.13574,2.29102,5.10547c0,1.22266-.33398,2.33789-1.00098,3.34766s-1.63574,1.82715-2.9082,2.4502c1.6709.49902,2.97656,1.36816,3.91797,2.6084.94141,1.24121,1.41211,2.70312,1.41211,4.38574,0,2.46875-.91016,4.56055-2.73047,6.27441-1.82031,1.71484-4.13965,2.57227-6.95703,2.57227-2.66797,0-4.84375-.80762-6.52637-2.42188-1.68359-1.61523-2.60645-3.8125-2.76855-6.59277h5.18066c.22461,1.4209.71973,2.47754,1.48633,3.16992.76758.69238,1.73633,1.03809,2.9082,1.03809,1.22168,0,2.23535-.39258,3.03906-1.17871.80469-.78516,1.20703-1.74512,1.20703-2.87988,0-1.24609-.54297-2.2998-1.62793-3.16016-1.08398-.86035-2.64941-1.30273-4.69336-1.32812v-4.48828c1.25879-.09961,2.19727-.2959,2.81445-.58887s1.09668-.69531,1.43945-1.20703c.34277-.51074.51465-1.05273.51465-1.62695,0-.74805-.26172-1.36816-.78516-1.86035-.52344-.49316-1.20996-.73926-2.05762-.73926-.74805,0-1.42773.22754-2.03809.68262-.61133.45508-1.0293,1.04492-1.25293,1.76758Z"/>
    </g>
  </symbol>
  <symbol id="AK14" viewBox="0 0 100 100">
    <circle fill="#2c4197" cx="50" cy="50" r="50"/>
    <circle fill="#fff" cx="50" cy="50" r="45"/>
    <line stroke="#2c4197" stroke-width="2.5px" x1="15" y1="50" x2="85" y2="50"/>
    <g>
      <path fill="#333" d="M36.44971,14.98926h5.31104l10.58105,27.51074h-5.44238l-2.15234-5.66699h-11.22607l-2.23779,5.66699h-5.44238l10.60889-27.51074ZM39.1377,22.2832l-3.69092,9.44434h7.36035l-3.66943-9.44434Z"/>
      <path fill="#333" d="M54.5127,14.98926h5.29199v9.48438l7.46875-9.48438h6.28711l-9.60645,12.27832,10.54102,15.23242h-6.20898l-8.48145-12.22363v12.22363h-5.29199V14.98926Z"/>
    </g>
    <g>
      <path fill="#333" d="M36.10156,57.48926h7.83594v27.51074h-5.19922v-22.5918h-5.6665l3.02979-4.91895Z"/>
      <path fill="#333" d="M63.94727,56.79785h5.21875v17.70996h2.4502v4.84375h-2.4502v5.64844h-5.12402v-5.64844h-12.00684v-4.84375l11.91211-17.70996ZM64.04199,74.50781v-9.21973l-6.28418,9.21973h6.28418Z"/>
     </g>
  </symbol>
</svg>