<?xml version="1.0" encoding="UTF-8"?>
<svg xmlns="http://www.w3.org/2000/svg" xmlns:xlink="http://www.w3.org/1999/xlink">
  <symbol id="sh" viewBox="0 0 100 100">
    <circle fill="#246dac" cx="50" cy="50" r="50"/>
    <g>
      <path fill="#fff" d="M27.08154,58.35938c.14795,1.63281.56396,2.88379,1.24902,3.75391,1.25879,1.57812,3.44287,2.36719,6.55273,2.36719,1.85059,0,3.47949-.39453,4.88623-1.18359s2.11035-2.00781,2.11035-3.65918c0-1.25098-.5625-2.20312-1.68652-2.85547-.71924-.39941-2.13818-.86133-4.25732-1.3877l-3.95312-.97949c-2.5249-.61621-4.38672-1.30566-5.58447-2.06738-2.1377-1.32324-3.20703-3.15527-3.20703-5.49463,0-2.75635,1.00635-4.98682,3.01855-6.69189,2.01221-1.70459,4.71875-2.55713,8.11914-2.55713,4.44775,0,7.6543,1.28809,9.62061,3.86279,1.23145,1.63232,1.8291,3.3916,1.79297,5.27734h-4.62451c-.09326-1.1001-.49219-2.10107-1.19727-3.00293-1.15088-1.28027-3.14697-1.92041-5.9873-1.92041-1.89355,0-3.32764.35205-4.30225,1.05664-.97461.70508-1.46191,1.63574-1.46191,2.79199,0,1.26465.64014,2.27686,1.92139,3.03613.73877.45166,1.8291.8501,3.27051,1.19434l3.29834.78857c3.58398.85254,5.98633,1.67773,7.20605,2.47559,1.9043,1.25098,2.85645,3.21875,2.85645,5.90234,0,2.59375-.99658,4.83398-2.98877,6.71973s-5.02588,2.8291-9.10205,2.8291c-4.38818,0-7.49561-.98438-9.32275-2.95215-1.82666-1.9668-2.80469-4.40137-2.93311-7.30371h4.70605Z"/>
      <path fill="#fff" d="M52.02637,27.40332h4.89648v14.90674c1.16016-1.46875,2.2041-2.50244,3.12891-3.10107,1.57715-1.03369,3.54492-1.55029,5.90234-1.55029,4.22559,0,7.09082,1.47803,8.5957,4.43408.81641,1.61426,1.22461,3.85352,1.22461,6.71875v18.68848h-5.03223v-18.36182c0-2.13965-.27246-3.7085-.81641-4.70605-.88867-1.5957-2.55664-2.39404-5.00488-2.39404-2.03125,0-3.87207.69824-5.52246,2.09473s-2.47559,4.03516-2.47559,7.91602v15.45117h-4.89648V27.40332Z"/>
    </g>
  </symbol>
  <symbol id="sh01" viewBox="0 0 100 100">
    <circle fill="#246dac" cx="50" cy="50" r="50"/>
    <g>
      <path fill="#fff" d="M12.94189,57.4668c.10156,1.12109.3877,1.98242.85889,2.58008.86523,1.08496,2.3667,1.62695,4.50488,1.62695,1.27246,0,2.39209-.27148,3.35938-.81348s1.45068-1.37988,1.45068-2.51465c0-.86133-.38672-1.51562-1.15967-1.96484-.49414-.27344-1.46973-.5918-2.92676-.95312l-2.71777-.67383c-1.73584-.42383-3.01562-.89746-3.83936-1.4209-1.46973-.91016-2.20459-2.16895-2.20459-3.77783,0-1.89502.69189-3.42871,2.0752-4.60059s3.24414-1.75781,5.58154-1.75781c3.05811,0,5.2627.88525,6.61475,2.65527.84619,1.12256,1.25732,2.33203,1.23242,3.62842h-3.1792c-.06396-.75635-.33838-1.44434-.82324-2.06445-.7915-.88037-2.16357-1.3208-4.11621-1.3208-1.30176,0-2.2876.24219-2.95801.72705-.66992.48438-1.00488,1.12451-1.00488,1.91895,0,.86963.43994,1.56543,1.3208,2.0874.50781.31006,1.25732.58447,2.24854.82178l2.26758.54199c2.46436.58594,4.11572,1.15332,4.9541,1.70215,1.30908.85938,1.96387,2.21289,1.96387,4.05859,0,1.78223-.68506,3.32227-2.05469,4.61914-1.36963,1.2959-3.45557,1.94434-6.25781,1.94434-3.01709,0-5.15332-.67676-6.40918-2.02832-1.25586-1.35352-1.92822-3.02734-2.0166-5.02148h3.23535Z"/>
      <path fill="#fff" d="M30.0918,36.18359h3.36621v10.24854c.79785-1.01025,1.51514-1.7207,2.15088-2.13232,1.08447-.71045,2.4375-1.06592,4.05811-1.06592,2.90479,0,4.875,1.0166,5.90967,3.04834.56152,1.10986.8418,2.6499.8418,4.61963v12.84814h-3.45996v-12.62402c0-1.4707-.18701-2.54932-.56104-3.23535-.61084-1.09668-1.75781-1.64551-3.44092-1.64551-1.39648,0-2.66211.47998-3.79639,1.43994-1.13477.96045-1.70215,2.77441-1.70215,5.44189v10.62305h-3.36621v-27.56641Z"/>
      <path fill="#fff" d="M66.80273,41.25146c1.19727,2.20703,1.79688,5.23047,1.79688,9.0708,0,3.64062-.54297,6.65137-1.62891,9.0332-1.56934,3.41602-4.13867,5.12402-7.7041,5.12402-3.2168,0-5.61035-1.39648-7.18164-4.18945-1.30908-2.33105-1.96387-5.46094-1.96387-9.38818,0-3.04199.39307-5.6543,1.17871-7.83594,1.4707-4.06445,4.13281-6.09717,7.98535-6.09717,3.46582,0,5.97266,1.42773,7.51758,4.28271ZM63.41602,59.09375c1.03613-1.54688,1.55469-4.42578,1.55469-8.64062,0-3.04199-.375-5.54541-1.12402-7.50879-.74902-1.96387-2.2041-2.9458-4.36426-2.9458-1.98633,0-3.4375.93213-4.35547,2.7959-.91895,1.86426-1.37695,4.60986-1.37695,8.23877,0,2.73047.29297,4.92383.87988,6.58203.89941,2.53125,2.43555,3.79688,4.6084,3.79688,1.74805,0,3.14062-.77344,4.17773-2.31836Z"/>
      <path fill="#fff" d="M73.8916,44.78613v-2.58057c2.43066-.23682,4.12598-.63281,5.08691-1.18799.95996-.5542,1.67676-1.8667,2.15039-3.93652h2.65527v26.66895h-3.59082v-18.96387h-6.30176Z"/>
    </g>
  </symbol>
  <symbol id="sh02" viewBox="0 0 100 100">
    <circle fill="#246dac" cx="50" cy="50" r="50"/>
    <g>
      <path fill="#fff" d="M12.94189,57.4668c.10156,1.12109.3877,1.98242.85889,2.58008.86523,1.08496,2.3667,1.62695,4.50488,1.62695,1.27246,0,2.39209-.27148,3.35938-.81348s1.45068-1.37988,1.45068-2.51465c0-.86133-.38672-1.51562-1.15967-1.96484-.49414-.27344-1.46973-.5918-2.92676-.95312l-2.71777-.67383c-1.73584-.42383-3.01562-.89746-3.83936-1.4209-1.46973-.91016-2.20459-2.16895-2.20459-3.77783,0-1.89502.69189-3.42871,2.0752-4.60059s3.24414-1.75781,5.58154-1.75781c3.05811,0,5.2627.88525,6.61475,2.65527.84619,1.12256,1.25732,2.33203,1.23242,3.62842h-3.1792c-.06396-.75635-.33838-1.44434-.82324-2.06445-.7915-.88037-2.16357-1.3208-4.11621-1.3208-1.30176,0-2.2876.24219-2.95801.72705-.66992.48438-1.00488,1.12451-1.00488,1.91895,0,.86963.43994,1.56543,1.3208,2.0874.50781.31006,1.25732.58447,2.24854.82178l2.26758.54199c2.46436.58594,4.11572,1.15332,4.9541,1.70215,1.30908.85938,1.96387,2.21289,1.96387,4.05859,0,1.78223-.68506,3.32227-2.05469,4.61914-1.36963,1.2959-3.45557,1.94434-6.25781,1.94434-3.01709,0-5.15332-.67676-6.40918-2.02832-1.25586-1.35352-1.92822-3.02734-2.0166-5.02148h3.23535Z"/>
      <path fill="#fff" d="M30.0918,36.18359h3.36621v10.24854c.79785-1.01025,1.51514-1.7207,2.15088-2.13232,1.08447-.71045,2.4375-1.06592,4.05811-1.06592,2.90479,0,4.875,1.0166,5.90967,3.04834.56152,1.10986.8418,2.6499.8418,4.61963v12.84814h-3.45996v-12.62402c0-1.4707-.18701-2.54932-.56104-3.23535-.61084-1.09668-1.75781-1.64551-3.44092-1.64551-1.39648,0-2.66211.47998-3.79639,1.43994-1.13477.96045-1.70215,2.77441-1.70215,5.44189v10.62305h-3.36621v-27.56641Z"/>
      <path fill="#fff" d="M66.80273,41.25146c1.19727,2.20703,1.79688,5.23047,1.79688,9.0708,0,3.64062-.54297,6.65137-1.62891,9.0332-1.56934,3.41602-4.13867,5.12402-7.7041,5.12402-3.2168,0-5.61035-1.39648-7.18164-4.18945-1.30908-2.33105-1.96387-5.46094-1.96387-9.38818,0-3.04199.39307-5.6543,1.17871-7.83594,1.4707-4.06445,4.13281-6.09717,7.98535-6.09717,3.46582,0,5.97266,1.42773,7.51758,4.28271ZM63.41602,59.09375c1.03613-1.54688,1.55469-4.42578,1.55469-8.64062,0-3.04199-.375-5.54541-1.12402-7.50879-.74902-1.96387-2.2041-2.9458-4.36426-2.9458-1.98633,0-3.4375.93213-4.35547,2.7959-.91895,1.86426-1.37695,4.60986-1.37695,8.23877,0,2.73047.29297,4.92383.87988,6.58203.89941,2.53125,2.43555,3.79688,4.6084,3.79688,1.74805,0,3.14062-.77344,4.17773-2.31836Z"/>
      <path fill="#fff" d="M72.85352,57.72852c.8291-1.70898,2.44629-3.26074,4.85254-4.65723l3.59082-2.07617c1.6084-.93506,2.7373-1.7334,3.38574-2.39551,1.02148-1.03711,1.5332-2.22363,1.5332-3.56006,0-1.56201-.46777-2.80176-1.40234-3.71973-.93555-.91846-2.18262-1.37744-3.74121-1.37744-2.30664,0-3.90234.87549-4.78711,2.62598-.47461.93799-.73633,2.23828-.78516,3.90088h-3.42285c.03711-2.33105.46777-4.23242,1.29004-5.7041,1.45898-2.59277,4.0332-3.88965,7.72461-3.88965,3.06641,0,5.30762.8291,6.72266,2.4873s2.12305,3.50342,2.12305,5.53564c0,2.14453-.75488,3.97754-2.2627,5.49854-.87305.88525-2.43848,1.95752-4.69434,3.21631l-2.5625,1.42188c-1.22168.67285-2.18164,1.31543-2.87988,1.92578-1.24707,1.08496-2.03223,2.28809-2.35645,3.60938h14.625v3.17969h-18.38379c.12402-2.30664.60059-4.31348,1.43066-6.02148Z"/>
    </g>
  </symbol>
  <symbol id="sh03" viewBox="0 0 100 100">
    <circle fill="#246dac" cx="50" cy="50" r="50"/>
    <g>
      <path fill="#fff" d="M12.94189,57.4668c.10156,1.12109.3877,1.98242.85889,2.58008.86523,1.08496,2.3667,1.62695,4.50488,1.62695,1.27246,0,2.39209-.27148,3.35938-.81348s1.45068-1.37988,1.45068-2.51465c0-.86133-.38672-1.51562-1.15967-1.96484-.49414-.27344-1.46973-.5918-2.92676-.95312l-2.71777-.67383c-1.73584-.42383-3.01562-.89746-3.83936-1.4209-1.46973-.91016-2.20459-2.16895-2.20459-3.77783,0-1.89502.69189-3.42871,2.0752-4.60059s3.24414-1.75781,5.58154-1.75781c3.05811,0,5.2627.88525,6.61475,2.65527.84619,1.12256,1.25732,2.33203,1.23242,3.62842h-3.1792c-.06396-.75635-.33838-1.44434-.82324-2.06445-.7915-.88037-2.16357-1.3208-4.11621-1.3208-1.30176,0-2.2876.24219-2.95801.72705-.66992.48438-1.00488,1.12451-1.00488,1.91895,0,.86963.43994,1.56543,1.3208,2.0874.50781.31006,1.25732.58447,2.24854.82178l2.26758.54199c2.46436.58594,4.11572,1.15332,4.9541,1.70215,1.30908.85938,1.96387,2.21289,1.96387,4.05859,0,1.78223-.68506,3.32227-2.05469,4.61914-1.36963,1.2959-3.45557,1.94434-6.25781,1.94434-3.01709,0-5.15332-.67676-6.40918-2.02832-1.25586-1.35352-1.92822-3.02734-2.0166-5.02148h3.23535Z"/>
      <path fill="#fff" d="M30.0918,36.18359h3.36621v10.24854c.79785-1.01025,1.51514-1.7207,2.15088-2.13232,1.08447-.71045,2.4375-1.06592,4.05811-1.06592,2.90479,0,4.875,1.0166,5.90967,3.04834.56152,1.10986.8418,2.6499.8418,4.61963v12.84814h-3.45996v-12.62402c0-1.4707-.18701-2.54932-.56104-3.23535-.61084-1.09668-1.75781-1.64551-3.44092-1.64551-1.39648,0-2.66211.47998-3.79639,1.43994-1.13477.96045-1.70215,2.77441-1.70215,5.44189v10.62305h-3.36621v-27.56641Z"/>
      <path fill="#fff" d="M66.80273,41.25146c1.19727,2.20703,1.79688,5.23047,1.79688,9.0708,0,3.64062-.54297,6.65137-1.62891,9.0332-1.56934,3.41602-4.13867,5.12402-7.7041,5.12402-3.2168,0-5.61035-1.39648-7.18164-4.18945-1.30908-2.33105-1.96387-5.46094-1.96387-9.38818,0-3.04199.39307-5.6543,1.17871-7.83594,1.4707-4.06445,4.13281-6.09717,7.98535-6.09717,3.46582,0,5.97266,1.42773,7.51758,4.28271ZM63.41602,59.09375c1.03613-1.54688,1.55469-4.42578,1.55469-8.64062,0-3.04199-.375-5.54541-1.12402-7.50879-.74902-1.96387-2.2041-2.9458-4.36426-2.9458-1.98633,0-3.4375.93213-4.35547,2.7959-.91895,1.86426-1.37695,4.60986-1.37695,8.23877,0,2.73047.29297,4.92383.87988,6.58203.89941,2.53125,2.43555,3.79688,4.6084,3.79688,1.74805,0,3.14062-.77344,4.17773-2.31836Z"/>
      <path fill="#fff" d="M73.2832,61.87109c-1.42773-1.74023-2.1416-3.85547-2.1416-6.34961h3.5166c.14941,1.73242.47363,2.99219.97266,3.77734.87207,1.40918,2.44922,2.11328,4.73145,2.11328,1.76953,0,3.19141-.47363,4.26367-1.42188,1.07227-.94727,1.6084-2.16895,1.6084-3.66504,0-1.84473-.56445-3.13574-1.69238-3.87109-1.12891-.73535-2.69629-1.10352-4.7041-1.10352-.22363,0-.45117.00293-.68262.00879-.23047.00684-.46387.0166-.70117.0293v-2.97412c.34961.03711.64258.0625.87891.07471.2373.0127.49316.01855.76758.01855,1.25879,0,2.29395-.19922,3.10449-.59814,1.4209-.69824,2.13184-1.94531,2.13184-3.74072,0-1.33398-.47461-2.3623-1.42188-3.08545s-2.05078-1.08496-3.30957-1.08496c-2.24414,0-3.79688.74805-4.65723,2.24414-.47363.82324-.74219,1.99512-.80371,3.51611h-3.3291c0-1.99463.39844-3.69043,1.19629-5.08691,1.37207-2.49365,3.78418-3.74023,7.23828-3.74023,2.73047,0,4.84375.60742,6.33984,1.82324s2.24414,2.97705,2.24414,5.2832c0,1.646-.44238,2.97998-1.32812,4.00244-.54883.63574-1.25879,1.13477-2.13184,1.49609,1.40918.38672,2.50879,1.13135,3.30078,2.23486s1.1875,2.45312,1.1875,4.04883c0,2.55664-.84082,4.63867-2.52441,6.24609-1.68359,1.60938-4.07129,2.41309-7.16309,2.41309-3.16699,0-5.46387-.87012-6.8916-2.6084Z"/>
    </g>
  </symbol>
  <symbol id="sh04" viewBox="0 0 100 100">
    <circle fill="#246dac" cx="50" cy="50" r="50"/>
    <g>
      <path fill="#fff" d="M12.94189,57.4668c.10156,1.12109.3877,1.98242.85889,2.58008.86523,1.08496,2.3667,1.62695,4.50488,1.62695,1.27246,0,2.39209-.27148,3.35938-.81348s1.45068-1.37988,1.45068-2.51465c0-.86133-.38672-1.51562-1.15967-1.96484-.49414-.27344-1.46973-.5918-2.92676-.95312l-2.71777-.67383c-1.73584-.42383-3.01562-.89746-3.83936-1.4209-1.46973-.91016-2.20459-2.16895-2.20459-3.77783,0-1.89502.69189-3.42871,2.0752-4.60059s3.24414-1.75781,5.58154-1.75781c3.05811,0,5.2627.88525,6.61475,2.65527.84619,1.12256,1.25732,2.33203,1.23242,3.62842h-3.1792c-.06396-.75635-.33838-1.44434-.82324-2.06445-.7915-.88037-2.16357-1.3208-4.11621-1.3208-1.30176,0-2.2876.24219-2.95801.72705-.66992.48438-1.00488,1.12451-1.00488,1.91895,0,.86963.43994,1.56543,1.3208,2.0874.50781.31006,1.25732.58447,2.24854.82178l2.26758.54199c2.46436.58594,4.11572,1.15332,4.9541,1.70215,1.30908.85938,1.96387,2.21289,1.96387,4.05859,0,1.78223-.68506,3.32227-2.05469,4.61914-1.36963,1.2959-3.45557,1.94434-6.25781,1.94434-3.01709,0-5.15332-.67676-6.40918-2.02832-1.25586-1.35352-1.92822-3.02734-2.0166-5.02148h3.23535Z"/>
      <path fill="#fff" d="M30.0918,36.18359h3.36621v10.24854c.79785-1.01025,1.51514-1.7207,2.15088-2.13232,1.08447-.71045,2.4375-1.06592,4.05811-1.06592,2.90479,0,4.875,1.0166,5.90967,3.04834.56152,1.10986.8418,2.6499.8418,4.61963v12.84814h-3.45996v-12.62402c0-1.4707-.18701-2.54932-.56104-3.23535-.61084-1.09668-1.75781-1.64551-3.44092-1.64551-1.39648,0-2.66211.47998-3.79639,1.43994-1.13477.96045-1.70215,2.77441-1.70215,5.44189v10.62305h-3.36621v-27.56641Z"/>
      <path fill="#fff" d="M66.80273,41.25146c1.19727,2.20703,1.79688,5.23047,1.79688,9.0708,0,3.64062-.54297,6.65137-1.62891,9.0332-1.56934,3.41602-4.13867,5.12402-7.7041,5.12402-3.2168,0-5.61035-1.39648-7.18164-4.18945-1.30908-2.33105-1.96387-5.46094-1.96387-9.38818,0-3.04199.39307-5.6543,1.17871-7.83594,1.4707-4.06445,4.13281-6.09717,7.98535-6.09717,3.46582,0,5.97266,1.42773,7.51758,4.28271ZM63.41602,59.09375c1.03613-1.54688,1.55469-4.42578,1.55469-8.64062,0-3.04199-.375-5.54541-1.12402-7.50879-.74902-1.96387-2.2041-2.9458-4.36426-2.9458-1.98633,0-3.4375.93213-4.35547,2.7959-.91895,1.86426-1.37695,4.60986-1.37695,8.23877,0,2.73047.29297,4.92383.87988,6.58203.89941,2.53125,2.43555,3.79688,4.6084,3.79688,1.74805,0,3.14062-.77344,4.17773-2.31836Z"/>
      <path fill="#fff" d="M82.94336,63.75v-6.5459h-11.74512v-3.29199l12.26855-17.01807h2.84277v17.37354h3.94531v2.93652h-3.94531v6.5459h-3.36621ZM82.88672,54.26758v-12.16357l-8.58398,12.16357h8.58398Z"/>
    </g>
  </symbol>
  <symbol id="sh05" viewBox="0 0 100 100">
    <circle fill="#246dac" cx="50" cy="50" r="50"/>
    <g>
      <path fill="#fff" d="M12.94189,57.4668c.10156,1.12109.3877,1.98242.85889,2.58008.86523,1.08496,2.3667,1.62695,4.50488,1.62695,1.27246,0,2.39209-.27148,3.35938-.81348s1.45068-1.37988,1.45068-2.51465c0-.86133-.38672-1.51562-1.15967-1.96484-.49414-.27344-1.46973-.5918-2.92676-.95312l-2.71777-.67383c-1.73584-.42383-3.01562-.89746-3.83936-1.4209-1.46973-.91016-2.20459-2.16895-2.20459-3.77783,0-1.89502.69189-3.42871,2.0752-4.60059s3.24414-1.75781,5.58154-1.75781c3.05811,0,5.2627.88525,6.61475,2.65527.84619,1.12256,1.25732,2.33203,1.23242,3.62842h-3.1792c-.06396-.75635-.33838-1.44434-.82324-2.06445-.7915-.88037-2.16357-1.3208-4.11621-1.3208-1.30176,0-2.2876.24219-2.95801.72705-.66992.48438-1.00488,1.12451-1.00488,1.91895,0,.86963.43994,1.56543,1.3208,2.0874.50781.31006,1.25732.58447,2.24854.82178l2.26758.54199c2.46436.58594,4.11572,1.15332,4.9541,1.70215,1.30908.85938,1.96387,2.21289,1.96387,4.05859,0,1.78223-.68506,3.32227-2.05469,4.61914-1.36963,1.2959-3.45557,1.94434-6.25781,1.94434-3.01709,0-5.15332-.67676-6.40918-2.02832-1.25586-1.35352-1.92822-3.02734-2.0166-5.02148h3.23535Z"/>
      <path fill="#fff" d="M30.0918,36.18359h3.36621v10.24854c.79785-1.01025,1.51514-1.7207,2.15088-2.13232,1.08447-.71045,2.4375-1.06592,4.05811-1.06592,2.90479,0,4.875,1.0166,5.90967,3.04834.56152,1.10986.8418,2.6499.8418,4.61963v12.84814h-3.45996v-12.62402c0-1.4707-.18701-2.54932-.56104-3.23535-.61084-1.09668-1.75781-1.64551-3.44092-1.64551-1.39648,0-2.66211.47998-3.79639,1.43994-1.13477.96045-1.70215,2.77441-1.70215,5.44189v10.62305h-3.36621v-27.56641Z"/>
      <path fill="#fff" d="M66.80273,41.25146c1.19727,2.20703,1.79688,5.23047,1.79688,9.0708,0,3.64062-.54297,6.65137-1.62891,9.0332-1.56934,3.41602-4.13867,5.12402-7.7041,5.12402-3.2168,0-5.61035-1.39648-7.18164-4.18945-1.30908-2.33105-1.96387-5.46094-1.96387-9.38818,0-3.04199.39307-5.6543,1.17871-7.83594,1.4707-4.06445,4.13281-6.09717,7.98535-6.09717,3.46582,0,5.97266,1.42773,7.51758,4.28271ZM63.41602,59.09375c1.03613-1.54688,1.55469-4.42578,1.55469-8.64062,0-3.04199-.375-5.54541-1.12402-7.50879-.74902-1.96387-2.2041-2.9458-4.36426-2.9458-1.98633,0-3.4375.93213-4.35547,2.7959-.91895,1.86426-1.37695,4.60986-1.37695,8.23877,0,2.73047.29297,4.92383.87988,6.58203.89941,2.53125,2.43555,3.79688,4.6084,3.79688,1.74805,0,3.14062-.77344,4.17773-2.31836Z"/>
      <path fill="#fff" d="M74.95703,56.92383c.22461,1.91992,1.11621,3.24805,2.6748,3.9834.79785.37402,1.7207.56152,2.76758.56152,1.99512,0,3.47168-.63672,4.43262-1.9082.95996-1.27148,1.43945-2.67969,1.43945-4.22656,0-1.87012-.57031-3.31641-1.71094-4.33887-1.14062-1.02197-2.50879-1.5332-4.10547-1.5332-1.15918,0-2.15332.22412-2.98242.67285-.8291.44922-1.53711,1.07227-2.12305,1.87109l-2.91699-.16895,2.03906-14.41943h13.91309v3.25439h-11.38867l-1.1416,7.44336c.62402-.47363,1.21582-.8291,1.77734-1.06592.99707-.41162,2.15039-.61719,3.45996-.61719,2.45605,0,4.53809.79199,6.24609,2.375,1.70801,1.5835,2.5625,3.59131,2.5625,6.02197,0,2.53125-.7832,4.7627-2.34766,6.69531s-4.06152,2.89941-7.49023,2.89941c-2.18164,0-4.11133-.61523-5.78809-1.84277s-2.61523-3.11426-2.81445-5.65723h3.49707Z"/>
    </g>
  </symbol>
  <symbol id="sh06" viewBox="0 0 100 100">
    <circle fill="#246dac" cx="50" cy="50" r="50"/>
    <g>
      <path fill="#fff" d="M12.94189,57.4668c.10156,1.12109.3877,1.98242.85889,2.58008.86523,1.08496,2.3667,1.62695,4.50488,1.62695,1.27246,0,2.39209-.27148,3.35938-.81348s1.45068-1.37988,1.45068-2.51465c0-.86133-.38672-1.51562-1.15967-1.96484-.49414-.27344-1.46973-.5918-2.92676-.95312l-2.71777-.67383c-1.73584-.42383-3.01562-.89746-3.83936-1.4209-1.46973-.91016-2.20459-2.16895-2.20459-3.77783,0-1.89502.69189-3.42871,2.0752-4.60059s3.24414-1.75781,5.58154-1.75781c3.05811,0,5.2627.88525,6.61475,2.65527.84619,1.12256,1.25732,2.33203,1.23242,3.62842h-3.1792c-.06396-.75635-.33838-1.44434-.82324-2.06445-.7915-.88037-2.16357-1.3208-4.11621-1.3208-1.30176,0-2.2876.24219-2.95801.72705-.66992.48438-1.00488,1.12451-1.00488,1.91895,0,.86963.43994,1.56543,1.3208,2.0874.50781.31006,1.25732.58447,2.24854.82178l2.26758.54199c2.46436.58594,4.11572,1.15332,4.9541,1.70215,1.30908.85938,1.96387,2.21289,1.96387,4.05859,0,1.78223-.68506,3.32227-2.05469,4.61914-1.36963,1.2959-3.45557,1.94434-6.25781,1.94434-3.01709,0-5.15332-.67676-6.40918-2.02832-1.25586-1.35352-1.92822-3.02734-2.0166-5.02148h3.23535Z"/>
      <path fill="#fff" d="M30.0918,36.18359h3.36621v10.24854c.79785-1.01025,1.51514-1.7207,2.15088-2.13232,1.08447-.71045,2.4375-1.06592,4.05811-1.06592,2.90479,0,4.875,1.0166,5.90967,3.04834.56152,1.10986.8418,2.6499.8418,4.61963v12.84814h-3.45996v-12.62402c0-1.4707-.18701-2.54932-.56104-3.23535-.61084-1.09668-1.75781-1.64551-3.44092-1.64551-1.39648,0-2.66211.47998-3.79639,1.43994-1.13477.96045-1.70215,2.77441-1.70215,5.44189v10.62305h-3.36621v-27.56641Z"/>
      <path fill="#fff" d="M66.80273,41.25146c1.19727,2.20703,1.79688,5.23047,1.79688,9.0708,0,3.64062-.54297,6.65137-1.62891,9.0332-1.56934,3.41602-4.13867,5.12402-7.7041,5.12402-3.2168,0-5.61035-1.39648-7.18164-4.18945-1.30908-2.33105-1.96387-5.46094-1.96387-9.38818,0-3.04199.39307-5.6543,1.17871-7.83594,1.4707-4.06445,4.13281-6.09717,7.98535-6.09717,3.46582,0,5.97266,1.42773,7.51758,4.28271ZM63.41602,59.09375c1.03613-1.54688,1.55469-4.42578,1.55469-8.64062,0-3.04199-.375-5.54541-1.12402-7.50879-.74902-1.96387-2.2041-2.9458-4.36426-2.9458-1.98633,0-3.4375.93213-4.35547,2.7959-.91895,1.86426-1.37695,4.60986-1.37695,8.23877,0,2.73047.29297,4.92383.87988,6.58203.89941,2.53125,2.43555,3.79688,4.6084,3.79688,1.74805,0,3.14062-.77344,4.17773-2.31836Z"/>
      <path fill="#fff" d="M87.68359,39.18506c1.17871,1.55225,1.76758,3.15137,1.76758,4.79688h-3.3291c-.19922-1.05957-.51758-1.88867-.9541-2.4873-.81055-1.12207-2.03809-1.68311-3.68359-1.68311-1.88281,0-3.37891.86963-4.48828,2.60889-1.11035,1.73926-1.72754,4.22998-1.85156,7.47168.77246-1.13477,1.74512-1.98242,2.91699-2.54346,1.07227-.49854,2.26953-.74854,3.59082-.74854,2.24414,0,4.20117.71729,5.87207,2.15088,1.6709,1.43408,2.50684,3.57227,2.50684,6.41504,0,2.43164-.79199,4.58496-2.375,6.46094-1.58398,1.87695-3.84082,2.81445-6.77051,2.81445-2.50586,0-4.66895-.9502-6.48926-2.85156-1.82129-1.90039-2.73047-5.10254-2.73047-9.60352,0-3.32861.4043-6.15283,1.21484-8.47168,1.55859-4.43848,4.40723-6.6582,8.54688-6.6582,2.99219,0,5.07812.77637,6.25586,2.32861ZM85.15918,59.66406c.87891-1.19141,1.31836-2.59668,1.31836-4.21777,0-1.37109-.39258-2.67676-1.17773-3.91797-.78613-1.24072-2.21387-1.86084-4.2832-1.86084-1.44629,0-2.71484.47998-3.80566,1.43994-1.0918.96094-1.63672,2.40625-1.63672,4.33887,0,1.69629.49609,3.12012,1.4873,4.27344s2.36523,1.72949,4.12305,1.72949c1.77051,0,3.0957-.59473,3.97461-1.78516Z"/>
    </g>
  </symbol>
  <symbol id="sh07" viewBox="0 0 100 100">
    <circle fill="#246dac" cx="50" cy="50" r="50"/>
    <g>
      <path fill="#fff" d="M12.94189,57.4668c.10156,1.12109.3877,1.98242.85889,2.58008.86523,1.08496,2.3667,1.62695,4.50488,1.62695,1.27246,0,2.39209-.27148,3.35938-.81348s1.45068-1.37988,1.45068-2.51465c0-.86133-.38672-1.51562-1.15967-1.96484-.49414-.27344-1.46973-.5918-2.92676-.95312l-2.71777-.67383c-1.73584-.42383-3.01562-.89746-3.83936-1.4209-1.46973-.91016-2.20459-2.16895-2.20459-3.77783,0-1.89502.69189-3.42871,2.0752-4.60059s3.24414-1.75781,5.58154-1.75781c3.05811,0,5.2627.88525,6.61475,2.65527.84619,1.12256,1.25732,2.33203,1.23242,3.62842h-3.1792c-.06396-.75635-.33838-1.44434-.82324-2.06445-.7915-.88037-2.16357-1.3208-4.11621-1.3208-1.30176,0-2.2876.24219-2.95801.72705-.66992.48438-1.00488,1.12451-1.00488,1.91895,0,.86963.43994,1.56543,1.3208,2.0874.50781.31006,1.25732.58447,2.24854.82178l2.26758.54199c2.46436.58594,4.11572,1.15332,4.9541,1.70215,1.30908.85938,1.96387,2.21289,1.96387,4.05859,0,1.78223-.68506,3.32227-2.05469,4.61914-1.36963,1.2959-3.45557,1.94434-6.25781,1.94434-3.01709,0-5.15332-.67676-6.40918-2.02832-1.25586-1.35352-1.92822-3.02734-2.0166-5.02148h3.23535Z"/>
      <path fill="#fff" d="M30.0918,36.18359h3.36621v10.24854c.79785-1.01025,1.51514-1.7207,2.15088-2.13232,1.08447-.71045,2.4375-1.06592,4.05811-1.06592,2.90479,0,4.875,1.0166,5.90967,3.04834.56152,1.10986.8418,2.6499.8418,4.61963v12.84814h-3.45996v-12.62402c0-1.4707-.18701-2.54932-.56104-3.23535-.61084-1.09668-1.75781-1.64551-3.44092-1.64551-1.39648,0-2.66211.47998-3.79639,1.43994-1.13477.96045-1.70215,2.77441-1.70215,5.44189v10.62305h-3.36621v-27.56641Z"/>
      <path fill="#fff" d="M66.80273,41.25146c1.19727,2.20703,1.79688,5.23047,1.79688,9.0708,0,3.64062-.54297,6.65137-1.62891,9.0332-1.56934,3.41602-4.13867,5.12402-7.7041,5.12402-3.2168,0-5.61035-1.39648-7.18164-4.18945-1.30908-2.33105-1.96387-5.46094-1.96387-9.38818,0-3.04199.39307-5.6543,1.17871-7.83594,1.4707-4.06445,4.13281-6.09717,7.98535-6.09717,3.46582,0,5.97266,1.42773,7.51758,4.28271ZM63.41602,59.09375c1.03613-1.54688,1.55469-4.42578,1.55469-8.64062,0-3.04199-.375-5.54541-1.12402-7.50879-.74902-1.96387-2.2041-2.9458-4.36426-2.9458-1.98633,0-3.4375.93213-4.35547,2.7959-.91895,1.86426-1.37695,4.60986-1.37695,8.23877,0,2.73047.29297,4.92383.87988,6.58203.89941,2.53125,2.43555,3.79688,4.6084,3.79688,1.74805,0,3.14062-.77344,4.17773-2.31836Z"/>
      <path fill="#fff" d="M90.25488,37.41748v2.93652c-.85938.83545-2.00391,2.28809-3.43164,4.35742-1.42773,2.06982-2.68945,4.30127-3.78711,6.69482-1.08398,2.33203-1.90723,4.45801-2.46875,6.37793-.36133,1.23438-.8291,3.22363-1.40234,5.96582h-3.72168c.84766-5.11133,2.71777-10.19922,5.61035-15.26074,1.70801-2.96729,3.50391-5.5293,5.38672-7.68652h-14.8125v-3.38525h18.62695Z"/>
    </g>
  </symbol>
  <symbol id="sh08" viewBox="0 0 100 100">
    <circle fill="#246dac" cx="50" cy="50" r="50"/>
    <g>
      <path fill="#fff" d="M12.94189,57.4668c.10156,1.12109.3877,1.98242.85889,2.58008.86523,1.08496,2.3667,1.62695,4.50488,1.62695,1.27246,0,2.39209-.27148,3.35938-.81348s1.45068-1.37988,1.45068-2.51465c0-.86133-.38672-1.51562-1.15967-1.96484-.49414-.27344-1.46973-.5918-2.92676-.95312l-2.71777-.67383c-1.73584-.42383-3.01562-.89746-3.83936-1.4209-1.46973-.91016-2.20459-2.16895-2.20459-3.77783,0-1.89502.69189-3.42871,2.0752-4.60059s3.24414-1.75781,5.58154-1.75781c3.05811,0,5.2627.88525,6.61475,2.65527.84619,1.12256,1.25732,2.33203,1.23242,3.62842h-3.1792c-.06396-.75635-.33838-1.44434-.82324-2.06445-.7915-.88037-2.16357-1.3208-4.11621-1.3208-1.30176,0-2.2876.24219-2.95801.72705-.66992.48438-1.00488,1.12451-1.00488,1.91895,0,.86963.43994,1.56543,1.3208,2.0874.50781.31006,1.25732.58447,2.24854.82178l2.26758.54199c2.46436.58594,4.11572,1.15332,4.9541,1.70215,1.30908.85938,1.96387,2.21289,1.96387,4.05859,0,1.78223-.68506,3.32227-2.05469,4.61914-1.36963,1.2959-3.45557,1.94434-6.25781,1.94434-3.01709,0-5.15332-.67676-6.40918-2.02832-1.25586-1.35352-1.92822-3.02734-2.0166-5.02148h3.23535Z"/>
      <path fill="#fff" d="M30.0918,36.18359h3.36621v10.24854c.79785-1.01025,1.51514-1.7207,2.15088-2.13232,1.08447-.71045,2.4375-1.06592,4.05811-1.06592,2.90479,0,4.875,1.0166,5.90967,3.04834.56152,1.10986.8418,2.6499.8418,4.61963v12.84814h-3.45996v-12.62402c0-1.4707-.18701-2.54932-.56104-3.23535-.61084-1.09668-1.75781-1.64551-3.44092-1.64551-1.39648,0-2.66211.47998-3.79639,1.43994-1.13477.96045-1.70215,2.77441-1.70215,5.44189v10.62305h-3.36621v-27.56641Z"/>
      <path fill="#fff" d="M66.80273,41.25146c1.19727,2.20703,1.79688,5.23047,1.79688,9.0708,0,3.64062-.54297,6.65137-1.62891,9.0332-1.56934,3.41602-4.13867,5.12402-7.7041,5.12402-3.2168,0-5.61035-1.39648-7.18164-4.18945-1.30908-2.33105-1.96387-5.46094-1.96387-9.38818,0-3.04199.39307-5.6543,1.17871-7.83594,1.4707-4.06445,4.13281-6.09717,7.98535-6.09717,3.46582,0,5.97266,1.42773,7.51758,4.28271ZM63.41602,59.09375c1.03613-1.54688,1.55469-4.42578,1.55469-8.64062,0-3.04199-.375-5.54541-1.12402-7.50879-.74902-1.96387-2.2041-2.9458-4.36426-2.9458-1.98633,0-3.4375.93213-4.35547,2.7959-.91895,1.86426-1.37695,4.60986-1.37695,8.23877,0,2.73047.29297,4.92383.87988,6.58203.89941,2.53125,2.43555,3.79688,4.6084,3.79688,1.74805,0,3.14062-.77344,4.17773-2.31836Z"/>
      <path fill="#fff" d="M73.87207,48.07764c-.98438-.99707-1.47754-2.29395-1.47754-3.88965,0-1.99463.72266-3.70947,2.16699-5.14307,1.44531-1.43359,3.49414-2.15088,6.14648-2.15088,2.56543,0,4.57715.67627,6.03418,2.0293,1.45605,1.35303,2.18555,2.93311,2.18555,4.74072,0,1.6709-.42383,3.02344-1.27148,4.05859-.47363.58594-1.20898,1.15918-2.20508,1.72021,1.11328.51172,1.99023,1.09766,2.62793,1.7583,1.18848,1.24609,1.7832,2.86719,1.7832,4.8623,0,2.35645-.79199,4.35449-2.375,5.99414s-3.82129,2.45898-6.71387,2.45898c-2.60645,0-4.80957-.70801-6.61133-2.12207-1.80176-1.41602-2.70215-3.46973-2.70215-6.16211,0-1.58398.38672-2.95215,1.15918-4.10547s1.91992-2.03564,3.44141-2.64648c-.93555-.39893-1.66504-.8667-2.18848-1.40283ZM84.72852,60.1875c1.0293-.8418,1.54297-2.09766,1.54297-3.76855,0-1.7334-.5293-3.04785-1.58887-3.94629-1.06055-.89746-2.41895-1.34668-4.07715-1.34668-1.6084,0-2.9209.45801-3.9375,1.375-1.01562.91602-1.52344,2.18457-1.52344,3.80566,0,1.39648.46387,2.60254,1.39258,3.61914.92871,1.01562,2.36621,1.52344,4.31152,1.52344,1.55762,0,2.85156-.41992,3.87988-1.26172ZM84.10449,46.94385c.83398-.83105,1.25098-1.82178,1.25098-2.97119,0-.99951-.39844-1.91797-1.19434-2.75537-.79688-.8374-2.00977-1.25635-3.63965-1.25635-1.61816,0-2.78809.41895-3.50977,1.25635s-1.08203,1.81836-1.08203,2.94287c0,1.26172.4668,2.24902,1.39941,2.96143.93359.7124,2.03516,1.06836,3.30371,1.06836,1.48145,0,2.63867-.41504,3.47168-1.24609Z"/>
    </g>
  </symbol>
  <symbol id="sh09" viewBox="0 0 100 100">
    <circle fill="#246dac" cx="50" cy="50" r="50"/>
    <g>
      <path fill="#fff" d="M12.94189,57.4668c.10156,1.12109.3877,1.98242.85889,2.58008.86523,1.08496,2.3667,1.62695,4.50488,1.62695,1.27246,0,2.39209-.27148,3.35938-.81348s1.45068-1.37988,1.45068-2.51465c0-.86133-.38672-1.51562-1.15967-1.96484-.49414-.27344-1.46973-.5918-2.92676-.95312l-2.71777-.67383c-1.73584-.42383-3.01562-.89746-3.83936-1.4209-1.46973-.91016-2.20459-2.16895-2.20459-3.77783,0-1.89502.69189-3.42871,2.0752-4.60059s3.24414-1.75781,5.58154-1.75781c3.05811,0,5.2627.88525,6.61475,2.65527.84619,1.12256,1.25732,2.33203,1.23242,3.62842h-3.1792c-.06396-.75635-.33838-1.44434-.82324-2.06445-.7915-.88037-2.16357-1.3208-4.11621-1.3208-1.30176,0-2.2876.24219-2.95801.72705-.66992.48438-1.00488,1.12451-1.00488,1.91895,0,.86963.43994,1.56543,1.3208,2.0874.50781.31006,1.25732.58447,2.24854.82178l2.26758.54199c2.46436.58594,4.11572,1.15332,4.9541,1.70215,1.30908.85938,1.96387,2.21289,1.96387,4.05859,0,1.78223-.68506,3.32227-2.05469,4.61914-1.36963,1.2959-3.45557,1.94434-6.25781,1.94434-3.01709,0-5.15332-.67676-6.40918-2.02832-1.25586-1.35352-1.92822-3.02734-2.0166-5.02148h3.23535Z"/>
      <path fill="#fff" d="M30.0918,36.18359h3.36621v10.24854c.79785-1.01025,1.51514-1.7207,2.15088-2.13232,1.08447-.71045,2.4375-1.06592,4.05811-1.06592,2.90479,0,4.875,1.0166,5.90967,3.04834.56152,1.10986.8418,2.6499.8418,4.61963v12.84814h-3.45996v-12.62402c0-1.4707-.18701-2.54932-.56104-3.23535-.61084-1.09668-1.75781-1.64551-3.44092-1.64551-1.39648,0-2.66211.47998-3.79639,1.43994-1.13477.96045-1.70215,2.77441-1.70215,5.44189v10.62305h-3.36621v-27.56641Z"/>
      <path fill="#fff" d="M66.80273,41.25146c1.19727,2.20703,1.79688,5.23047,1.79688,9.0708,0,3.64062-.54297,6.65137-1.62891,9.0332-1.56934,3.41602-4.13867,5.12402-7.7041,5.12402-3.2168,0-5.61035-1.39648-7.18164-4.18945-1.30908-2.33105-1.96387-5.46094-1.96387-9.38818,0-3.04199.39307-5.6543,1.17871-7.83594,1.4707-4.06445,4.13281-6.09717,7.98535-6.09717,3.46582,0,5.97266,1.42773,7.51758,4.28271ZM63.41602,59.09375c1.03613-1.54688,1.55469-4.42578,1.55469-8.64062,0-3.04199-.375-5.54541-1.12402-7.50879-.74902-1.96387-2.2041-2.9458-4.36426-2.9458-1.98633,0-3.4375.93213-4.35547,2.7959-.91895,1.86426-1.37695,4.60986-1.37695,8.23877,0,2.73047.29297,4.92383.87988,6.58203.89941,2.53125,2.43555,3.79688,4.6084,3.79688,1.74805,0,3.14062-.77344,4.17773-2.31836Z"/>
      <path fill="#fff" d="M75.3125,57.25977c.09961,1.8584.81641,3.14258,2.15039,3.85352.68555.37402,1.45898.56055,2.31934.56055,1.6084,0,2.97949-.66992,4.11426-2.00977s1.93848-4.06152,2.41309-8.16406c-.74805,1.18555-1.67383,2.01758-2.77734,2.49707s-2.29102.71973-3.5625.71973c-2.58105,0-4.62305-.80273-6.125-2.41016-1.50293-1.60596-2.25391-3.67383-2.25391-6.20215,0-2.42871.74121-4.56494,2.22559-6.4082,1.4834-1.84326,3.67188-2.76465,6.56445-2.76465,3.90234,0,6.5957,1.75684,8.0791,5.27002.82324,1.93164,1.23438,4.34863,1.23438,7.25146,0,3.27734-.49316,6.17969-1.47754,8.70898-1.63379,4.21191-4.40137,6.31738-8.30371,6.31738-2.61816,0-4.60742-.68652-5.96582-2.05762-1.35938-1.37109-2.03809-3.0918-2.03809-5.16211h3.40332ZM84.07422,50.4458c1.10352-.87793,1.65527-2.41162,1.65527-4.60303,0-1.96631-.49609-3.43213-1.4873-4.39697-.99023-.96484-2.25293-1.44727-3.78711-1.44727-1.64551,0-2.95117.55078-3.91797,1.65234-.96582,1.10205-1.44922,2.57422-1.44922,4.41602,0,1.74316.42383,3.12793,1.27148,4.15479.84863,1.02637,2.20117,1.54004,4.05859,1.54004,1.33398,0,2.55273-.43848,3.65625-1.31592Z"/>
    </g>
  </symbol>
  <symbol id="sh10" viewBox="0 0 100 100">
    <circle fill="#246dac" cx="50" cy="50" r="50"/>
    <g>
      <path fill="#fff" d="M12.94189,57.4668c.10156,1.12109.3877,1.98242.85889,2.58008.86523,1.08496,2.3667,1.62695,4.50488,1.62695,1.27246,0,2.39209-.27148,3.35938-.81348s1.45068-1.37988,1.45068-2.51465c0-.86133-.38672-1.51562-1.15967-1.96484-.49414-.27344-1.46973-.5918-2.92676-.95312l-2.71777-.67383c-1.73584-.42383-3.01562-.89746-3.83936-1.4209-1.46973-.91016-2.20459-2.16895-2.20459-3.77783,0-1.89502.69189-3.42871,2.0752-4.60059s3.24414-1.75781,5.58154-1.75781c3.05811,0,5.2627.88525,6.61475,2.65527.84619,1.12256,1.25732,2.33203,1.23242,3.62842h-3.1792c-.06396-.75635-.33838-1.44434-.82324-2.06445-.7915-.88037-2.16357-1.3208-4.11621-1.3208-1.30176,0-2.2876.24219-2.95801.72705-.66992.48438-1.00488,1.12451-1.00488,1.91895,0,.86963.43994,1.56543,1.3208,2.0874.50781.31006,1.25732.58447,2.24854.82178l2.26758.54199c2.46436.58594,4.11572,1.15332,4.9541,1.70215,1.30908.85938,1.96387,2.21289,1.96387,4.05859,0,1.78223-.68506,3.32227-2.05469,4.61914-1.36963,1.2959-3.45557,1.94434-6.25781,1.94434-3.01709,0-5.15332-.67676-6.40918-2.02832-1.25586-1.35352-1.92822-3.02734-2.0166-5.02148h3.23535Z"/>
      <path fill="#fff" d="M30.0918,36.18359h3.36621v10.24854c.79785-1.01025,1.51514-1.7207,2.15088-2.13232,1.08447-.71045,2.4375-1.06592,4.05811-1.06592,2.90479,0,4.875,1.0166,5.90967,3.04834.56152,1.10986.8418,2.6499.8418,4.61963v12.84814h-3.45996v-12.62402c0-1.4707-.18701-2.54932-.56104-3.23535-.61084-1.09668-1.75781-1.64551-3.44092-1.64551-1.39648,0-2.66211.47998-3.79639,1.43994-1.13477.96045-1.70215,2.77441-1.70215,5.44189v10.62305h-3.36621v-27.56641Z"/>
      <path fill="#fff" d="M52.58984,44.78613v-2.58057c2.43164-.23682,4.12695-.63281,5.08691-1.18799.95996-.5542,1.67676-1.8667,2.15137-3.93652h2.65527v26.66895h-3.59082v-18.96387h-6.30273Z"/>
      <path fill="#fff" d="M88.10449,41.25146c1.19727,2.20703,1.7959,5.23047,1.7959,9.0708,0,3.64062-.54297,6.65137-1.62793,9.0332-1.57031,3.41602-4.13867,5.12402-7.70508,5.12402-3.2168,0-5.61035-1.39648-7.18164-4.18945-1.30859-2.33105-1.96289-5.46094-1.96289-9.38818,0-3.04199.39258-5.6543,1.17773-7.83594,1.4707-4.06445,4.13281-6.09717,7.98633-6.09717,3.46582,0,5.97168,1.42773,7.51758,4.28271ZM84.7168,59.09375c1.03711-1.54688,1.55469-4.42578,1.55469-8.64062,0-3.04199-.375-5.54541-1.12402-7.50879-.74902-1.96387-2.2041-2.9458-4.36426-2.9458-1.98633,0-3.4375.93213-4.35547,2.7959-.91797,1.86426-1.37695,4.60986-1.37695,8.23877,0,2.73047.29297,4.92383.87988,6.58203.89941,2.53125,2.43555,3.79688,4.6084,3.79688,1.74902,0,3.14062-.77344,4.17773-2.31836Z"/>
    </g>
  </symbol>
  <symbol id="sh11" viewBox="0 0 100 100">
    <circle fill="#246dac" cx="50" cy="50" r="50"/>
    <g>
      <path fill="#fff" d="M12.94189,57.4668c.10156,1.12109.3877,1.98242.85889,2.58008.86523,1.08496,2.3667,1.62695,4.50488,1.62695,1.27246,0,2.39209-.27148,3.35938-.81348s1.45068-1.37988,1.45068-2.51465c0-.86133-.38672-1.51562-1.15967-1.96484-.49414-.27344-1.46973-.5918-2.92676-.95312l-2.71777-.67383c-1.73584-.42383-3.01562-.89746-3.83936-1.4209-1.46973-.91016-2.20459-2.16895-2.20459-3.77783,0-1.89502.69189-3.42871,2.0752-4.60059s3.24414-1.75781,5.58154-1.75781c3.05811,0,5.2627.88525,6.61475,2.65527.84619,1.12256,1.25732,2.33203,1.23242,3.62842h-3.1792c-.06396-.75635-.33838-1.44434-.82324-2.06445-.7915-.88037-2.16357-1.3208-4.11621-1.3208-1.30176,0-2.2876.24219-2.95801.72705-.66992.48438-1.00488,1.12451-1.00488,1.91895,0,.86963.43994,1.56543,1.3208,2.0874.50781.31006,1.25732.58447,2.24854.82178l2.26758.54199c2.46436.58594,4.11572,1.15332,4.9541,1.70215,1.30908.85938,1.96387,2.21289,1.96387,4.05859,0,1.78223-.68506,3.32227-2.05469,4.61914-1.36963,1.2959-3.45557,1.94434-6.25781,1.94434-3.01709,0-5.15332-.67676-6.40918-2.02832-1.25586-1.35352-1.92822-3.02734-2.0166-5.02148h3.23535Z"/>
      <path fill="#fff" d="M30.0918,36.18359h3.36621v10.24854c.79785-1.01025,1.51514-1.7207,2.15088-2.13232,1.08447-.71045,2.4375-1.06592,4.05811-1.06592,2.90479,0,4.875,1.0166,5.90967,3.04834.56152,1.10986.8418,2.6499.8418,4.61963v12.84814h-3.45996v-12.62402c0-1.4707-.18701-2.54932-.56104-3.23535-.61084-1.09668-1.75781-1.64551-3.44092-1.64551-1.39648,0-2.66211.47998-3.79639,1.43994-1.13477.96045-1.70215,2.77441-1.70215,5.44189v10.62305h-3.36621v-27.56641Z"/>
      <path fill="#fff" d="M52.58984,44.78613v-2.58057c2.43164-.23682,4.12695-.63281,5.08691-1.18799.95996-.5542,1.67676-1.8667,2.15137-3.93652h2.65527v26.66895h-3.59082v-18.96387h-6.30273Z"/>
      <path fill="#fff" d="M73.8916,44.78613v-2.58057c2.43066-.23682,4.12598-.63281,5.08691-1.18799.95996-.5542,1.67676-1.8667,2.15039-3.93652h2.65527v26.66895h-3.59082v-18.96387h-6.30176Z"/>
    </g>
  </symbol>
</svg>