<?xml version="1.0" encoding="UTF-8"?>
<svg xmlns="http://www.w3.org/2000/svg" xmlns:xlink="http://www.w3.org/1999/xlink">
  <symbol id="N" viewBox="0 0 100 100">
    <circle fill="#00894e" cx="50" cy="50" r="50"/>
    <circle fill="#fff" cx="50" cy="50" r="42.5"/>
    <path fill="#231815" d="M58.82617,71.25l-19.23877-34.94629h-.12207v34.94629h-6.08838V28.75439h8.28027l18.75195,34.21533h.12207V28.75439h6.08789v42.49561h-7.79297Z"/>
  </symbol>
  <symbol id="N01" viewBox="0 0 100 100">
    <circle fill="#00894e" cx="50" cy="50" r="50"/>
    <circle fill="#fff" cx="50" cy="50" r="42.5"/>
    <path fill="#231815" d="M55.19141,40l-11.31689-20.55615h-.07129v20.55615h-3.58154V15.00293h4.87061l11.03076,20.12646h.07129V15.00293h3.58105v24.99707h-4.58398Z"/>
    <g>
      <path fill="#231815" d="M24.17578,61.25098c0-10.07812,3.45996-18.10059,11.8833-18.10059,8.17285,0,11.8833,7.67139,11.8833,18.10059,0,9.17578-3.0083,18.10059-11.8833,18.10059-8.52393,0-11.8833-8.27344-11.8833-18.10059ZM42.62744,61.25098c0-6.0166-1.30371-13.98926-6.61865-13.98926-4.71289,0-6.51807,6.71875-6.51807,13.98926,0,9.02539,2.30664,13.98926,6.56836,13.98926,4.21191,0,6.56836-4.81348,6.56836-13.98926Z"/>
      <path fill="#231815" d="M63.48828,78.75v-29.23193l-5.36523,4.61279-2.65723-3.35938,8.57324-7.01953h4.46289v34.99805h-5.01367Z"/>
    </g>
  </symbol>
  <symbol id="N02" viewBox="0 0 100 100">
    <circle fill="#00894e" cx="50" cy="50" r="50"/>
    <circle fill="#fff" cx="50" cy="50" r="42.5"/>
    <path fill="#231815" d="M55.19141,40l-11.31689-20.55615h-.07129v20.55615h-3.58154V15.00293h4.87061l11.03076,20.12646h.07129V15.00293h3.58105v24.99707h-4.58398Z"/>
    <g>
      <path fill="#231815" d="M24.17578,61.25098c0-10.07812,3.45996-18.10059,11.8833-18.10059,8.17285,0,11.8833,7.67139,11.8833,18.10059,0,9.17578-3.0083,18.10059-11.8833,18.10059-8.52393,0-11.8833-8.27344-11.8833-18.10059ZM42.62744,61.25098c0-6.0166-1.30371-13.98926-6.61865-13.98926-4.71289,0-6.51807,6.71875-6.51807,13.98926,0,9.02539,2.30664,13.98926,6.56836,13.98926,4.21191,0,6.56836-4.81348,6.56836-13.98926Z"/>
      <path fill="#231815" d="M52.50684,78.75v-5.36523c2.10645-1.85547,5.06445-4.46289,7.67188-6.91895,5.01367-4.71387,8.67383-9.27637,8.67383-13.6377,0-3.20947-2.85742-5.56641-6.71875-5.56641-2.70703,0-5.41504.85254-8.02246,2.25635l-.50098-4.31201c1.90527-.80225,5.16406-2.05566,9.17578-2.05566,6.66895,0,11.38184,3.71045,11.38184,9.92773,0,4.11133-2.70801,9.87695-16.2959,21.56055h16.79688v4.11133h-22.16211Z"/>
    </g>
  </symbol>
  <symbol id="N03" viewBox="0 0 100 100">
    <circle fill="#00894e" cx="50" cy="50" r="50"/>
    <circle fill="#fff" cx="50" cy="50" r="42.5"/>
    <path fill="#231815" d="M55.19141,40l-11.31689-20.55615h-.07129v20.55615h-3.58154V15.00293h4.87061l11.03076,20.12646h.07129V15.00293h3.58105v24.99707h-4.58398Z"/>
    <g>
      <path fill="#231815" d="M24.17578,61.25098c0-10.07812,3.45996-18.10059,11.8833-18.10059,8.17285,0,11.8833,7.67139,11.8833,18.10059,0,9.17578-3.0083,18.10059-11.8833,18.10059-8.52393,0-11.8833-8.27344-11.8833-18.10059ZM42.62744,61.25098c0-6.0166-1.30371-13.98926-6.61865-13.98926-4.71289,0-6.51807,6.71875-6.51807,13.98926,0,9.02539,2.30664,13.98926,6.56836,13.98926,4.21191,0,6.56836-4.81348,6.56836-13.98926Z"/>
      <path fill="#231815" d="M52.8584,73.33496c2.45703,1.25293,5.41504,1.90527,7.6709,1.90527,4.21191,0,8.52441-1.75488,8.52441-5.9668,0-4.41211-3.1084-6.66797-8.62402-6.66797h-3.15918v-4.1123h2.65723c4.66309,0,8.8252-1.7041,8.8252-5.71582,0-3.50977-2.50684-5.51562-6.91992-5.51562-3.75977,0-6.36719,1.25342-7.72168,1.90527l-.30078-4.4624c2.60742-.95264,6.11719-1.5542,8.77539-1.5542,6.76855,0,11.48145,3.40967,11.48145,9.47656,0,4.06152-2.85742,7.07031-7.52051,8.02246v.10059c5.11426,1.05273,7.82129,4.11133,7.82129,8.67383,0,6.46875-4.46191,9.92773-13.78809,9.92773-2.8584,0-5.7666-.70117-8.02246-1.35352l.30078-4.66309Z"/>
    </g>
  </symbol>
  <symbol id="N04" viewBox="0 0 100 100">
    <circle fill="#00894e" cx="50" cy="50" r="50"/>
    <circle fill="#fff" cx="50" cy="50" r="42.5"/>
    <path fill="#231815" d="M55.19141,40l-11.31689-20.55615h-.07129v20.55615h-3.58154V15.00293h4.87061l11.03076,20.12646h.07129V15.00293h3.58105v24.99707h-4.58398Z"/>
    <g>
      <path fill="#231815" d="M24.17578,61.25098c0-10.07812,3.45996-18.10059,11.8833-18.10059,8.17285,0,11.8833,7.67139,11.8833,18.10059,0,9.17578-3.0083,18.10059-11.8833,18.10059-8.52393,0-11.8833-8.27344-11.8833-18.10059ZM42.62744,61.25098c0-6.0166-1.30371-13.98926-6.61865-13.98926-4.71289,0-6.51807,6.71875-6.51807,13.98926,0,9.02539,2.30664,13.98926,6.56836,13.98926,4.21191,0,6.56836-4.81348,6.56836-13.98926Z"/>
      <path fill="#231815" d="M67.24805,78.75v-7.97266h-16.29541v-4.11133l14.14014-22.91406h7.16992v22.91406h4.41211v4.11133h-4.41211v7.97266h-5.01465ZM67.24805,47.86328h-.09961l-10.93066,18.80273h11.03027v-18.80273Z"/>
    </g>
  </symbol>
  <symbol id="N05" viewBox="0 0 100 100">
    <circle fill="#00894e" cx="50" cy="50" r="50"/>
    <circle fill="#fff" cx="50" cy="50" r="42.5"/>
    <path fill="#231815" d="M55.19141,40l-11.31689-20.55615h-.07129v20.55615h-3.58154V15.00293h4.87061l11.03076,20.12646h.07129V15.00293h3.58105v24.99707h-4.58398Z"/>
    <g>
      <path fill="#231815" d="M24.17578,61.25098c0-10.07812,3.45996-18.10059,11.8833-18.10059,8.17285,0,11.8833,7.67139,11.8833,18.10059,0,9.17578-3.0083,18.10059-11.8833,18.10059-8.52393,0-11.8833-8.27344-11.8833-18.10059ZM42.62744,61.25098c0-6.0166-1.30371-13.98926-6.61865-13.98926-4.71289,0-6.51807,6.71875-6.51807,13.98926,0,9.02539,2.30664,13.98926,6.56836,13.98926,4.21191,0,6.56836-4.81348,6.56836-13.98926Z"/>
      <path fill="#231815" d="M54.21191,73.48535c2.35645,1.30371,4.41211,1.75488,7.2207,1.75488,4.6123,0,8.22266-2.75781,8.22266-6.91992,0-5.06348-3.81055-7.4707-8.52344-7.4707-2.80859,0-4.76367.45117-6.71973,1.30371l.30176-18.40137h19.25391v4.11133h-14.54102l-.30078,9.37695c1.40332-.35156,2.80762-.50195,4.46191-.50195,6.31836,0,11.38184,4.71289,11.38184,10.83008,0,7.52148-5.96582,11.7832-13.4375,11.7832-3.1084,0-5.41504-.45117-7.4707-1.15332l.15039-4.71289Z"/>
    </g>
  </symbol>
  <symbol id="N06" viewBox="0 0 100 100">
    <circle fill="#00894e" cx="50" cy="50" r="50"/>
    <circle fill="#fff" cx="50" cy="50" r="42.5"/>
    <path fill="#231815" d="M55.19141,40l-11.31689-20.55615h-.07129v20.55615h-3.58154V15.00293h4.87061l11.03076,20.12646h.07129V15.00293h3.58105v24.99707h-4.58398Z"/>
    <g>
      <path fill="#231815" d="M24.17578,61.25098c0-10.07812,3.45996-18.10059,11.8833-18.10059,8.17285,0,11.8833,7.67139,11.8833,18.10059,0,9.17578-3.0083,18.10059-11.8833,18.10059-8.52393,0-11.8833-8.27344-11.8833-18.10059ZM42.62744,61.25098c0-6.0166-1.30371-13.98926-6.61865-13.98926-4.71289,0-6.51807,6.71875-6.51807,13.98926,0,9.02539,2.30664,13.98926,6.56836,13.98926,4.21191,0,6.56836-4.81348,6.56836-13.98926Z"/>
      <path fill="#231815" d="M73.31543,48.71582c-1.80469-.95264-3.96094-1.4541-6.21777-1.4541-6.36719,0-9.67676,5.81641-9.77734,12.73633l.10059-.05078c2.45703-2.40625,4.91406-3.20898,7.67188-3.20898,6.61816,0,10.5293,4.61328,10.5293,11.03125,0,7.01953-4.66309,11.58203-11.23145,11.58203-7.77148,0-11.7832-5.56543-11.7832-16.79688,0-11.08105,4.11133-19.4043,14.18945-19.4043,2.40723,0,5.9668.55127,7.2207,1.10303l-.70215,4.4624ZM70.30664,67.86914c0-3.1582-1.80469-7.01953-5.91602-7.01953-3.81055,0-6.46777,2.80859-6.46777,7.01953,0,3.30957,2.05566,7.37109,6.16699,7.37109,4.01074,0,6.2168-3.35938,6.2168-7.37109Z"/>
    </g>
  </symbol>
  <symbol id="N07" viewBox="0 0 100 100">
    <circle fill="#00894e" cx="50" cy="50" r="50"/>
    <circle fill="#fff" cx="50" cy="50" r="42.5"/>
    <path fill="#231815" d="M55.19141,40l-11.31689-20.55615h-.07129v20.55615h-3.58154V15.00293h4.87061l11.03076,20.12646h.07129V15.00293h3.58105v24.99707h-4.58398Z"/>
    <g>
      <path fill="#231815" d="M24.17578,61.25098c0-10.07812,3.45996-18.10059,11.8833-18.10059,8.17285,0,11.8833,7.67139,11.8833,18.10059,0,9.17578-3.0083,18.10059-11.8833,18.10059-8.52393,0-11.8833-8.27344-11.8833-18.10059ZM42.62744,61.25098c0-6.0166-1.30371-13.98926-6.61865-13.98926-4.71289,0-6.51807,6.71875-6.51807,13.98926,0,9.02539,2.30664,13.98926,6.56836,13.98926,4.21191,0,6.56836-4.81348,6.56836-13.98926Z"/>
      <path fill="#231815" d="M56.16797,78.75l13.33691-30.88672h-17.04785v-4.11133h22.16211v4.11133l-12.93652,30.88672h-5.51465Z"/>
    </g>
  </symbol>
  <symbol id="N08" viewBox="0 0 100 100">
    <circle fill="#00894e" cx="50" cy="50" r="50"/>
    <circle fill="#fff" cx="50" cy="50" r="42.5"/>
    <path fill="#231815" d="M55.19141,40l-11.31689-20.55615h-.07129v20.55615h-3.58154V15.00293h4.87061l11.03076,20.12646h.07129V15.00293h3.58105v24.99707h-4.58398Z"/>
    <g>
      <path fill="#231815" d="M24.17578,61.25098c0-10.07812,3.45996-18.10059,11.8833-18.10059,8.17285,0,11.8833,7.67139,11.8833,18.10059,0,9.17578-3.0083,18.10059-11.8833,18.10059-8.52393,0-11.8833-8.27344-11.8833-18.10059ZM42.62744,61.25098c0-6.0166-1.30371-13.98926-6.61865-13.98926-4.71289,0-6.51807,6.71875-6.51807,13.98926,0,9.02539,2.30664,13.98926,6.56836,13.98926,4.21191,0,6.56836-4.81348,6.56836-13.98926Z"/>
      <path fill="#231815" d="M59.32617,60.24805c-4.21191-1.4541-6.56836-4.5127-6.56836-8.67383,0-4.61328,4.3125-8.42383,11.33203-8.42383,6.86914,0,10.83008,3.96094,10.83008,7.87207,0,3.96094-1.6543,6.56836-6.31738,9.02539,4.46191,1.55371,7.37012,4.7627,7.37012,9.3252,0,6.51953-5.01367,9.97852-12.13379,9.97852-5.9668,0-11.93359-3.35938-11.93359-9.77734,0-4.26172,2.70801-7.57129,7.4209-9.22559v-.10059ZM60.78027,63.6582c-2.50684,1.60352-3.55957,3.05859-3.55957,5.61523,0,3.81055,3.45898,5.9668,7.06934,5.9668,3.15918,0,6.36816-1.85547,6.36816-5.76562,0-3.41016-2.05566-4.66406-4.06152-5.66602-1.10352-.55176-2.65723-1.1543-3.55957-1.60547l-2.25684,1.45508ZM69.60547,51.67383c0-3.05811-3.00879-4.41211-5.9668-4.41211-2.10645,0-5.86621,1.55469-5.86621,4.96387,0,2.15625,1.85449,3.76074,7.21973,6.36816,4.41211-3.30957,4.61328-4.91406,4.61328-6.91992Z"/>
    </g>
  </symbol>
  <symbol id="N09" viewBox="0 0 100 100">
    <circle fill="#00894e" cx="50" cy="50" r="50"/>
    <circle fill="#fff" cx="50" cy="50" r="42.5"/>
    <path fill="#231815" d="M55.19141,40l-11.31689-20.55615h-.07129v20.55615h-3.58154V15.00293h4.87061l11.03076,20.12646h.07129V15.00293h3.58105v24.99707h-4.58398Z"/>
    <g>
      <path fill="#231815" d="M24.17578,61.25098c0-10.07812,3.45996-18.10059,11.8833-18.10059,8.17285,0,11.8833,7.67139,11.8833,18.10059,0,9.17578-3.0083,18.10059-11.8833,18.10059-8.52393,0-11.8833-8.27344-11.8833-18.10059ZM42.62744,61.25098c0-6.0166-1.30371-13.98926-6.61865-13.98926-4.71289,0-6.51807,6.71875-6.51807,13.98926,0,9.02539,2.30664,13.98926,6.56836,13.98926,4.21191,0,6.56836-4.81348,6.56836-13.98926Z"/>
      <path fill="#231815" d="M70.45703,62.55469c-2.30566,2.25586-4.71289,3.20898-7.6709,3.20898-6.61816,0-10.5293-4.61328-10.5293-11.03125,0-6.91895,4.5625-11.58203,11.28125-11.58203,7.4707,0,11.73242,5.26465,11.73242,16.79688,0,10.78027-3.91016,19.4043-14.18945,19.4043-2.45703,0-5.91602-.55078-7.21973-1.10352l.70215-4.46191c1.90527,1.00293,4.06055,1.4541,6.2168,1.4541,6.36816,0,9.67676-5.81641,9.77734-12.73633l-.10059.05078ZM69.95605,54.63281c0-3.25977-2.00586-7.37109-6.21777-7.37109-3.75977,0-6.16699,3.10889-6.16699,7.37109,0,3.20898,1.85547,7.01953,5.91699,7.01953,3.86035,0,6.46777-2.8584,6.46777-7.01953Z"/>
    </g>
  </symbol>
  <symbol id="N10" viewBox="0 0 100 100">
    <circle fill="#00894e" cx="50" cy="50" r="50"/>
    <circle fill="#fff" cx="50" cy="50" r="42.5"/>
    <path fill="#231815" d="M55.19141,40l-11.31689-20.55615h-.07129v20.55615h-3.58154V15.00293h4.87061l11.03076,20.12646h.07129V15.00293h3.58105v24.99707h-4.58398Z"/>
    <g>
      <path fill="#231815" d="M35.60791,78.75v-29.23193l-5.36523,4.61279-2.65723-3.35938,8.57373-7.01953h4.46289v34.99805h-5.01416Z"/>
      <path fill="#231815" d="M52.05566,61.25098c0-10.07812,3.45996-18.10059,11.88379-18.10059,8.17285,0,11.88281,7.67139,11.88281,18.10059,0,9.17578-3.00781,18.10059-11.88281,18.10059-8.52441,0-11.88379-8.27344-11.88379-18.10059ZM70.50781,61.25098c0-6.0166-1.30371-13.98926-6.61914-13.98926-4.71289,0-6.51758,6.71875-6.51758,13.98926,0,9.02539,2.30664,13.98926,6.56836,13.98926,4.21191,0,6.56836-4.81348,6.56836-13.98926Z"/>
    </g>
  </symbol>
  <symbol id="N11" viewBox="0 0 100 100">
    <circle fill="#00894e" cx="50" cy="50" r="50"/>
    <circle fill="#fff" cx="50" cy="50" r="42.5"/>
    <path fill="#231815" d="M55.19141,40l-11.31689-20.55615h-.07129v20.55615h-3.58154V15.00293h4.87061l11.03076,20.12646h.07129V15.00293h3.58105v24.99707h-4.58398Z"/>
    <g>
      <path fill="#231815" d="M35.60791,78.75v-29.23193l-5.36523,4.61279-2.65723-3.35938,8.57373-7.01953h4.46289v34.99805h-5.01416Z"/>
      <path fill="#231815" d="M63.48828,78.75v-29.23193l-5.36523,4.61279-2.65723-3.35938,8.57324-7.01953h4.46289v34.99805h-5.01367Z"/>
    </g>
  </symbol>
  <symbol id="N12" viewBox="0 0 100 100">
    <circle fill="#00894e" cx="50" cy="50" r="50"/>
    <circle fill="#fff" cx="50" cy="50" r="42.5"/>
    <path fill="#231815" d="M55.19141,40l-11.31689-20.55615h-.07129v20.55615h-3.58154V15.00293h4.87061l11.03076,20.12646h.07129V15.00293h3.58105v24.99707h-4.58398Z"/>
    <g>
      <path fill="#231815" d="M35.60791,78.75v-29.23193l-5.36523,4.61279-2.65723-3.35938,8.57373-7.01953h4.46289v34.99805h-5.01416Z"/>
      <path fill="#231815" d="M52.50684,78.75v-5.36523c2.10645-1.85547,5.06445-4.46289,7.67188-6.91895,5.01367-4.71387,8.67383-9.27637,8.67383-13.6377,0-3.20947-2.85742-5.56641-6.71875-5.56641-2.70703,0-5.41504.85254-8.02246,2.25635l-.50098-4.31201c1.90527-.80225,5.16406-2.05566,9.17578-2.05566,6.66895,0,11.38184,3.71045,11.38184,9.92773,0,4.11133-2.70801,9.87695-16.2959,21.56055h16.79688v4.11133h-22.16211Z"/>
    </g>
  </symbol>
  <symbol id="N13" viewBox="0 0 100 100">
    <circle fill="#00894e" cx="50" cy="50" r="50"/>
    <circle fill="#fff" cx="50" cy="50" r="42.5"/>
    <path fill="#231815" d="M55.19141,40l-11.31689-20.55615h-.07129v20.55615h-3.58154V15.00293h4.87061l11.03076,20.12646h.07129V15.00293h3.58105v24.99707h-4.58398Z"/>
    <g>
      <path fill="#231815" d="M35.60791,78.75v-29.23193l-5.36523,4.61279-2.65723-3.35938,8.57373-7.01953h4.46289v34.99805h-5.01416Z"/>
      <path fill="#231815" d="M52.8584,73.33496c2.45703,1.25293,5.41504,1.90527,7.6709,1.90527,4.21191,0,8.52441-1.75488,8.52441-5.9668,0-4.41211-3.1084-6.66797-8.62402-6.66797h-3.15918v-4.1123h2.65723c4.66309,0,8.8252-1.7041,8.8252-5.71582,0-3.50977-2.50684-5.51562-6.91992-5.51562-3.75977,0-6.36719,1.25342-7.72168,1.90527l-.30078-4.4624c2.60742-.95264,6.11719-1.5542,8.77539-1.5542,6.76855,0,11.48145,3.40967,11.48145,9.47656,0,4.06152-2.85742,7.07031-7.52051,8.02246v.10059c5.11426,1.05273,7.82129,4.11133,7.82129,8.67383,0,6.46875-4.46191,9.92773-13.78809,9.92773-2.8584,0-5.7666-.70117-8.02246-1.35352l.30078-4.66309Z"/>
    </g>
  </symbol>
  <symbol id="N14" viewBox="0 0 100 100">
    <circle fill="#00894e" cx="50" cy="50" r="50"/>
    <circle fill="#fff" cx="50" cy="50" r="42.5"/>
    <path fill="#231815" d="M55.19141,40l-11.31689-20.55615h-.07129v20.55615h-3.58154V15.00293h4.87061l11.03076,20.12646h.07129V15.00293h3.58105v24.99707h-4.58398Z"/>
    <g>
      <path fill="#231815" d="M35.60791,78.75v-29.23193l-5.36523,4.61279-2.65723-3.35938,8.57373-7.01953h4.46289v34.99805h-5.01416Z"/>
      <path fill="#231815" d="M67.24805,78.75v-7.97266h-16.29541v-4.11133l14.14014-22.91406h7.16992v22.91406h4.41211v4.11133h-4.41211v7.97266h-5.01465ZM67.24805,47.86328h-.09961l-10.93066,18.80273h11.03027v-18.80273Z"/>
    </g>
  </symbol>
  <symbol id="N15" viewBox="0 0 100 100">
    <circle fill="#00894e" cx="50" cy="50" r="50"/>
    <circle fill="#fff" cx="50" cy="50" r="42.5"/>
    <path fill="#231815" d="M55.19141,40l-11.31689-20.55615h-.07129v20.55615h-3.58154V15.00293h4.87061l11.03076,20.12646h.07129V15.00293h3.58105v24.99707h-4.58398Z"/>
    <g>
      <path fill="#231815" d="M35.60791,78.75v-29.23193l-5.36523,4.61279-2.65723-3.35938,8.57373-7.01953h4.46289v34.99805h-5.01416Z"/>
      <path fill="#231815" d="M54.21191,73.48535c2.35645,1.30371,4.41211,1.75488,7.2207,1.75488,4.6123,0,8.22266-2.75781,8.22266-6.91992,0-5.06348-3.81055-7.4707-8.52344-7.4707-2.80859,0-4.76367.45117-6.71973,1.30371l.30176-18.40137h19.25391v4.11133h-14.54102l-.30078,9.37695c1.40332-.35156,2.80762-.50195,4.46191-.50195,6.31836,0,11.38184,4.71289,11.38184,10.83008,0,7.52148-5.96582,11.7832-13.4375,11.7832-3.1084,0-5.41504-.45117-7.4707-1.15332l.15039-4.71289Z"/>
    </g>
  </symbol>
  <symbol id="N16" viewBox="0 0 100 100">
    <circle fill="#00894e" cx="50" cy="50" r="50"/>
    <circle fill="#fff" cx="50" cy="50" r="42.5"/>
    <path fill="#231815" d="M55.19141,40l-11.31689-20.55615h-.07129v20.55615h-3.58154V15.00293h4.87061l11.03076,20.12646h.07129V15.00293h3.58105v24.99707h-4.58398Z"/>
    <g>
      <path fill="#231815" d="M35.60791,78.75v-29.23193l-5.36523,4.61279-2.65723-3.35938,8.57373-7.01953h4.46289v34.99805h-5.01416Z"/>
      <path fill="#231815" d="M73.31543,48.71582c-1.80469-.95264-3.96094-1.4541-6.21777-1.4541-6.36719,0-9.67676,5.81641-9.77734,12.73633l.10059-.05078c2.45703-2.40625,4.91406-3.20898,7.67188-3.20898,6.61816,0,10.5293,4.61328,10.5293,11.03125,0,7.01953-4.66309,11.58203-11.23145,11.58203-7.77148,0-11.7832-5.56543-11.7832-16.79688,0-11.08105,4.11133-19.4043,14.18945-19.4043,2.40723,0,5.9668.55127,7.2207,1.10303l-.70215,4.4624ZM70.30664,67.86914c0-3.1582-1.80469-7.01953-5.91602-7.01953-3.81055,0-6.46777,2.80859-6.46777,7.01953,0,3.30957,2.05566,7.37109,6.16699,7.37109,4.01074,0,6.2168-3.35938,6.2168-7.37109Z"/>
    </g>
  </symbol>
  <symbol id="N17" viewBox="0 0 100 100">
    <circle fill="#00894e" cx="50" cy="50" r="50"/>
    <circle fill="#fff" cx="50" cy="50" r="42.5"/>
    <path fill="#231815" d="M55.19141,40l-11.31689-20.55615h-.07129v20.55615h-3.58154V15.00293h4.87061l11.03076,20.12646h.07129V15.00293h3.58105v24.99707h-4.58398Z"/>
    <g>
      <path fill="#231815" d="M35.60791,78.75v-29.23193l-5.36523,4.61279-2.65723-3.35938,8.57373-7.01953h4.46289v34.99805h-5.01416Z"/>
      <path fill="#231815" d="M56.16797,78.75l13.33691-30.88672h-17.04785v-4.11133h22.16211v4.11133l-12.93652,30.88672h-5.51465Z"/>
    </g>
  </symbol>
  <symbol id="N18" viewBox="0 0 100 100">
    <circle fill="#00894e" cx="50" cy="50" r="50"/>
    <circle fill="#fff" cx="50" cy="50" r="42.5"/>
    <path fill="#231815" d="M55.19141,40l-11.31689-20.55615h-.07129v20.55615h-3.58154V15.00293h4.87061l11.03076,20.12646h.07129V15.00293h3.58105v24.99707h-4.58398Z"/>
    <g>
      <path fill="#231815" d="M35.60791,78.75v-29.23193l-5.36523,4.61279-2.65723-3.35938,8.57373-7.01953h4.46289v34.99805h-5.01416Z"/>
      <path fill="#231815" d="M59.32617,60.24805c-4.21191-1.4541-6.56836-4.5127-6.56836-8.67383,0-4.61328,4.3125-8.42383,11.33203-8.42383,6.86914,0,10.83008,3.96094,10.83008,7.87207,0,3.96094-1.6543,6.56836-6.31738,9.02539,4.46191,1.55371,7.37012,4.7627,7.37012,9.3252,0,6.51953-5.01367,9.97852-12.13379,9.97852-5.9668,0-11.93359-3.35938-11.93359-9.77734,0-4.26172,2.70801-7.57129,7.4209-9.22559v-.10059ZM60.78027,63.6582c-2.50684,1.60352-3.55957,3.05859-3.55957,5.61523,0,3.81055,3.45898,5.9668,7.06934,5.9668,3.15918,0,6.36816-1.85547,6.36816-5.76562,0-3.41016-2.05566-4.66406-4.06152-5.66602-1.10352-.55176-2.65723-1.1543-3.55957-1.60547l-2.25684,1.45508ZM69.60547,51.67383c0-3.05811-3.00879-4.41211-5.9668-4.41211-2.10645,0-5.86621,1.55469-5.86621,4.96387,0,2.15625,1.85449,3.76074,7.21973,6.36816,4.41211-3.30957,4.61328-4.91406,4.61328-6.91992Z"/>
    </g>
  </symbol>
</svg>