<?xml version="1.0" encoding="UTF-8"?>
<svg xmlns="http://www.w3.org/2000/svg" xmlns:xlink="http://www.w3.org/1999/xlink">
  <symbol id="H01-K09" viewBox="0 0 100 100">
    <path fill="#ea5b02" d="M50,100c27.61426,0,50-22.3858,50-50H0c0,27.6142,22.38574,50,50,50Z"/>
    <path fill="#009fe8" d="M50,0C22.38574,0,0,22.38574,0,50h100C100,22.38574,77.61426,0,50,0Z"/>
    <circle fill="#fff" cx="50" cy="50" r="42.5"/>
    <g>
      <path fill="#231815" d="M36.06543,47.5v-11.38818h-11.96143v11.38818h-3.58154v-24.99707h3.58154v10.45703h11.96143v-10.45703h3.58105v24.99707h-3.58105Z"/>
      <path fill="#231815" d="M44.48389,35.00146c0-7.19824,2.47119-12.92822,8.48779-12.92822,5.83691,0,8.4873,5.47949,8.4873,12.92822,0,6.55371-2.14844,12.92822-8.4873,12.92822-6.08838,0-8.48779-5.90918-8.48779-12.92822ZM57.66309,35.00146c0-4.29736-.93066-9.9917-4.72754-9.9917-3.36621,0-4.65527,4.79883-4.65527,9.9917,0,6.44629,1.64697,9.9917,4.69141,9.9917,3.00781,0,4.69141-3.43799,4.69141-9.9917Z"/>
      <path fill="#231815" d="M72.5625,47.5v-20.87842l-3.83105,3.29443-1.89844-2.39941,6.12402-5.01367h3.1875v24.99707h-3.58203Z"/>
    </g>
    <g>
      <path fill="#231815" d="M36.22656,78.75l-11.1377-12.24805v12.24805h-3.58154v-24.99707h3.58154v10.99512l10.67188-10.99512h4.76318l-11.74658,11.81836,12.67773,13.17871h-5.22852Z"/>
      <path fill="#231815" d="M43.49902,66.25195c0-7.19922,2.47119-12.92871,8.48828-12.92871,5.83691,0,8.4873,5.47949,8.4873,12.92871,0,6.55273-2.14941,12.92773-8.4873,12.92773-6.08887,0-8.48828-5.90918-8.48828-12.92773ZM56.67871,66.25195c0-4.29785-.93164-9.99219-4.72754-9.99219-3.3667,0-4.65576,4.79883-4.65576,9.99219,0,6.44531,1.64697,9.99121,4.69189,9.99121,3.00781,0,4.69141-3.43848,4.69141-9.99121Z"/>
      <path fill="#231815" d="M76.55664,67.18262c-1.64746,1.61133-3.36621,2.29199-5.47949,2.29199-4.72754,0-7.52051-3.29492-7.52051-7.87891,0-4.94141,3.25879-8.27246,8.05762-8.27246,5.33594,0,8.37988,3.76074,8.37988,11.99707,0,7.69922-2.79297,13.85938-10.13477,13.85938-1.75488,0-4.22559-.39453-5.15723-.78711l.50195-3.1875c1.36035.71582,2.90039,1.03809,4.44043,1.03809,4.54883,0,6.91211-4.1543,6.9834-9.09668l-.07129.03613ZM76.19824,61.52441c0-2.32812-1.43262-5.26465-4.44043-5.26465-2.68652,0-4.40527,2.2207-4.40527,5.26465,0,2.29199,1.3252,5.01367,4.22559,5.01367,2.75781,0,4.62012-2.04199,4.62012-5.01367Z"/>
    </g>
  </symbol>
  <symbol id="K11-N18" viewBox="0 0 100 100">
    <path fill="#00894e" d="M50,100c27.61426,0,50-22.3858,50-50H0c0,27.6142,22.38574,50,50,50Z"/>
    <path fill="#ea5b02" d="M50,0C22.38574,0,0,22.38574,0,50h100C100,22.38574,77.61426,0,50,0Z"/>
    <circle fill="#fff" cx="50" cy="50" r="42.5"/>
    <g>
      <path fill="#231815" d="M36.22656,47.5l-11.1377-12.24805v12.24805h-3.58154v-24.99707h3.58154v10.99463l10.67188-10.99463h4.76318l-11.74658,11.81836,12.67773,13.17871h-5.22852Z"/>
      <path fill="#231815" d="M51.66406,47.5v-20.87842l-3.83154,3.29443-1.89844-2.39941,6.12451-5.01367h3.1875v24.99707h-3.58203Z"/>
      <path fill="#231815" d="M71.57812,47.5v-20.87842l-3.83203,3.29443-1.89844-2.39941,6.125-5.01367h3.1875v24.99707h-3.58203Z"/>
    </g>
    <g>
      <path fill="#231815" d="M35.27734,78.75l-11.31689-20.55664h-.07129v20.55664h-3.58154v-24.99707h4.87061l11.03027,20.12598h.07178v-20.12598h3.58105v24.99707h-4.58398Z"/>
      <path fill="#231815" d="M52.64941,78.75v-20.87891l-3.83203,3.29492-1.89844-2.39941,6.12402-5.01367h3.1875v24.99707h-3.58105Z"/>
      <path fill="#231815" d="M69.59082,65.53516c-3.00781-1.03906-4.69141-3.22266-4.69141-6.19531,0-3.29492,3.08008-6.0166,8.09375-6.0166,4.90625,0,7.73535,2.8291,7.73535,5.62207,0,2.83008-1.18164,4.69141-4.51172,6.44727,3.18652,1.10938,5.26367,3.40137,5.26367,6.66016,0,4.65625-3.58105,7.12695-8.66602,7.12695-4.26172,0-8.52344-2.39941-8.52344-6.9834,0-3.04395,1.93359-5.40723,5.2998-6.58887v-.07227ZM70.62988,67.9707c-1.79102,1.14648-2.54297,2.18457-2.54297,4.01074,0,2.72168,2.4707,4.26172,5.0498,4.26172,2.25586,0,4.54785-1.3252,4.54785-4.11816,0-2.43555-1.46777-3.33105-2.90039-4.04688-.78809-.39453-1.89844-.82422-2.54297-1.14648l-1.61133,1.03906ZM76.93262,59.41113c0-2.18457-2.14844-3.15137-4.26172-3.15137-1.50391,0-4.19043,1.11035-4.19043,3.54492,0,1.54102,1.3252,2.68652,5.15723,4.54883,3.15137-2.36328,3.29492-3.50977,3.29492-4.94238Z"/>
    </g>
  </symbol>
</svg>