<svg version="1.1" viewBox="0 0 100 100" xmlns="http://www.w3.org/2000/svg">
  <defs>
    <style>
      .st0 {
        fill: #4d4f53;
      }

      .st1 {
        fill: #fff;
      }

      .st2 {
        fill: #ff6200;
      }
    </style>
  </defs>
  <circle class="st2" cx="50" cy="50" r="50"/>
  <circle class="st0" cx="50" cy="50" r="37.5"/>
  <circle class="st1" cx="50" cy="50" r="25"/>
  <path class="st2" d="M49.88078,65c-3.14467,0-7.65474-.76806-10.50498-1.71533l1.36445-6.33074c2.37567.70691,5.52364,1.29954,8.72618,1.29954,2.55111,0,2.96876-.71163,2.96876-2.42694,0-1.82961-.06114-2.06855-4.69209-3.19171-7.00285-1.71579-7.65521-3.61031-7.65521-8.99474,0-6.09228,2.37285-8.6401,11.03929-8.6401,2.19836,0,6.23291.29631,8.7859.94961l-.77276,6.62611c-2.55159-.47551-5.69673-.82685-7.95294-.82685-2.49231,0-3.08541.64765-3.08541,1.95001,0,1.77553.23657,2.01164,3.67945,2.78158,8.24878,1.83431,8.84281,3.60843,8.84281,9.3456,0,5.92014-2.49279,9.17392-10.74344,9.17392"/>
</svg>