<?xml version="1.0" encoding="UTF-8"?>
<svg xmlns="http://www.w3.org/2000/svg" xmlns:xlink="http://www.w3.org/1999/xlink">
  <symbol id="HS14" viewBox="0 0 100 100">
    <circle fill="#005bac" cx="50" cy="50" r="50"/>
    <circle fill="#fff" cx="50" cy="50" r="43.75"/>
    <g>
      <path fill="#005bac" d="M43.42969,45v-11.15625h-9.76562v11.15625h-5.1709v-24.99121h5.1709v9.52832h9.76562v-9.52832h5.18848v24.99121h-5.18848Z"/>
      <path fill="#005bac" d="M62.67383,41.38867c1.23145,0,2.23242-.13574,3.00098-.40723,1.45801-.51953,2.18652-1.48633,2.18652-2.89844,0-.8252-.36133-1.46387-1.08496-1.91602-.72363-.44141-1.85938-.83105-3.40723-1.16992l-2.64551-.59375c-2.59961-.58789-4.39648-1.22656-5.3916-1.91602-1.68359-1.15234-2.52637-2.95508-2.52637-5.4082,0-2.23828.81445-4.09766,2.44141-5.57812,1.62793-1.48047,4.01855-2.2207,7.17188-2.2207,2.63379,0,4.87988.69727,6.74023,2.09375,1.8584,1.39551,2.83398,3.42188,2.92383,6.07812h-5.01855c-.08984-1.50293-.74609-2.57129-1.9668-3.2041-.81348-.41797-1.8252-.62793-3.03418-.62793-1.3457,0-2.41895.27148-3.22168.81445-.80273.54199-1.2041,1.2998-1.2041,2.27148,0,.89258.39551,1.55957,1.1875,2.00098.50879.29395,1.59375.63867,3.25488,1.03418l4.30664,1.03418c1.8877.45215,3.31152,1.05664,4.27246,1.81348,1.49219,1.17578,2.23828,2.87695,2.23828,5.10352,0,2.2832-.87305,4.17969-2.62012,5.68848-1.74609,1.50879-4.21289,2.26367-7.40039,2.26367-3.25488,0-5.81543-.74316-7.68066-2.22949-1.86426-1.48633-2.79688-3.5293-2.79688-6.12891h4.98438c.1582,1.1416.46875,1.99414.93262,2.55957.84766,1.02832,2.2998,1.54297,4.35742,1.54297Z"/>
    </g>
    <g>
      <path fill="#005bac" d="M42.1,81.25h-6.34v-21.7h-7.4v-4.21c1.95-.09,3.32-.22,4.1-.39,1.24-.27,2.26-.82,3.04-1.65.54-.56.94-1.32,1.21-2.26.16-.56.24-.98.24-1.26h5.14v31.47Z"/>
      <path fill="#005bac" d="M73.24,69.64v4.84h-3.56v6.77h-6.05v-6.77h-12.46v-5.4l11.57-19.1h6.94v19.66h3.56ZM55.75,69.64h7.88v-13.59l-7.88,13.59Z"/>
    </g>
  </symbol>
</svg>
