<?xml version="1.0" encoding="UTF-8"?>
<svg xmlns="http://www.w3.org/2000/svg" xmlns:xlink="http://www.w3.org/1999/xlink">
  <!-- 85/20/90/0 -->
  <symbol id="I" viewBox="0 0 100 100">
    <circle fill="#00914c" cx="50" cy="50" r="50"/>
    <circle fill="#fff" cx="50" cy="50" r="42.5"/>
    <path fill="#231815" d="M59.07129,36.84326h-4.40234v26.31299h4.40234v6.84375h-18.14258v-6.84375h4.50928v-26.31299h-4.50928v-6.84326h18.14258v6.84326Z"/>
  </symbol>
  <symbol id="I01" viewBox="0 0 100 100">
    <circle fill="#00914c" cx="50" cy="50" r="50"/>
    <circle fill="#fff" cx="50" cy="50" r="42.5"/>
    <path fill="#231815" d="M55.66992,19.27734h-2.75195v16.44531h2.75195v4.27734h-11.33984v-4.27734h2.81836v-16.44531h-2.81836v-4.27734h11.33984v4.27734Z"/>
    <g>
      <path fill="#231815" d="M37.104,80.63477c-3.84814,0-7.26025-1.9834-9.16455-5.35645-1.54736-2.69727-2.34082-6.50586-2.34082-11.22656,0-10.63281,4.16602-16.5835,11.66406-16.5835,4.00684,0,7.37891,1.94385,9.32324,5.35596,1.50732,2.6582,2.30078,6.4668,2.30078,11.2666,0,10.71191-4.16553,16.54395-11.78271,16.54395ZM37.2627,53.61719c-3.29297,0-4.95898,3.45215-4.95898,10.31543,0,7.18066,1.58691,10.55273,4.99854,10.55273,3.25342,0,4.87988-3.49121,4.87988-10.43359,0-7.02246-1.62646-10.43457-4.91943-10.43457Z"/>
      <path fill="#231815" d="M60.43457,80v-24.7168l-5.63379,3.88867-.83301-6.14941,7.25977-4.91943h5.91113v31.89697h-6.7041Z"/>
    </g>
  </symbol>
  <symbol id="I02" viewBox="0 0 100 100">
    <circle fill="#00914c" cx="50" cy="50" r="50"/>
    <circle fill="#fff" cx="50" cy="50" r="42.5"/>
    <path fill="#231815" d="M55.66992,19.27734h-2.75195v16.44531h2.75195v4.27734h-11.33984v-4.27734h2.81836v-16.44531h-2.81836v-4.27734h11.33984v4.27734Z"/>
    <g>
      <path fill="#231815" d="M37.104,80.63477c-3.84814,0-7.26025-1.9834-9.16455-5.35645-1.54736-2.69727-2.34082-6.50586-2.34082-11.22656,0-10.63281,4.16602-16.5835,11.66406-16.5835,4.00684,0,7.37891,1.94385,9.32324,5.35596,1.50732,2.6582,2.30078,6.4668,2.30078,11.2666,0,10.71191-4.16553,16.54395-11.78271,16.54395ZM37.2627,53.61719c-3.29297,0-4.95898,3.45215-4.95898,10.31543,0,7.18066,1.58691,10.55273,4.99854,10.55273,3.25342,0,4.87988-3.49121,4.87988-10.43359,0-7.02246-1.62646-10.43457-4.91943-10.43457Z"/>
      <path fill="#231815" d="M49.9209,80c13.21094-14.04395,16.78125-18.80469,16.78125-22.2959,0-2.4209-1.66602-4.08691-4.12598-4.08691-2.93555,0-5.39551,1.74609-7.65625,5.47461l-2.93555-6.30762c2.77637-3.53076,6.34766-5.31592,10.71094-5.31592,6.3877,0,10.71191,4.08643,10.71191,10.1167,0,4.68066-1.58691,7.41895-9.44238,16.26562h10.71191v6.14941h-24.75586Z"/>
    </g>
  </symbol>
  <symbol id="I03" viewBox="0 0 100 100">
    <circle fill="#00914c" cx="50" cy="50" r="50"/>
    <circle fill="#fff" cx="50" cy="50" r="42.5"/>
    <path fill="#231815" d="M55.66992,19.27734h-2.75195v16.44531h2.75195v4.27734h-11.33984v-4.27734h2.81836v-16.44531h-2.81836v-4.27734h11.33984v4.27734Z"/>
    <g>
      <path fill="#231815" d="M37.104,80.63477c-3.84814,0-7.26025-1.9834-9.16455-5.35645-1.54736-2.69727-2.34082-6.50586-2.34082-11.22656,0-10.63281,4.16602-16.5835,11.66406-16.5835,4.00684,0,7.37891,1.94385,9.32324,5.35596,1.50732,2.6582,2.30078,6.4668,2.30078,11.2666,0,10.71191-4.16553,16.54395-11.78271,16.54395ZM37.2627,53.61719c-3.29297,0-4.95898,3.45215-4.95898,10.31543,0,7.18066,1.58691,10.55273,4.99854,10.55273,3.25342,0,4.87988-3.49121,4.87988-10.43359,0-7.02246-1.62646-10.43457-4.91943-10.43457Z"/>
      <path fill="#231815" d="M68.68652,79.24609c-1.8252.87305-4.68164,1.38867-7.49805,1.38867-3.80859,0-7.1416-.87305-10.39453-2.6582l1.9043-5.99023c2.49902,1.66602,5.31641,2.49902,8.56934,2.49902,3.92773,0,6.4668-1.74609,6.4668-4.40332v-.11914c0-2.5-2.14258-3.92773-5.95117-3.92773h-3.68945v-5.55469h3.21289c2.89648,0,4.72168-1.38867,4.72168-3.53027,0-1.94434-1.66602-3.33301-4.00684-3.33301-2.97559,0-5.63379,1.26953-7.81543,3.68945l-2.34082-5.83203c2.89551-2.65723,6.42676-4.00635,10.31445-4.00635,6.18945,0,10.51367,3.68896,10.51367,8.88623,0,2.77734-1.03125,4.6416-3.57031,6.30859,3.41113,1.46777,5.31543,4.24512,5.31543,8.05371,0,3.64941-2.1416,6.82324-5.75195,8.5293Z"/>
    </g>
  </symbol>
  <symbol id="I04" viewBox="0 0 100 100">
    <circle fill="#00914c" cx="50" cy="50" r="50"/>
    <circle fill="#fff" cx="50" cy="50" r="42.5"/>
    <path fill="#231815" d="M55.66992,19.27734h-2.75195v16.44531h2.75195v4.27734h-11.33984v-4.27734h2.81836v-16.44531h-2.81836v-4.27734h11.33984v4.27734Z"/>
    <g>
      <path fill="#231815" d="M37.104,80.63477c-3.84814,0-7.26025-1.9834-9.16455-5.35645-1.54736-2.69727-2.34082-6.50586-2.34082-11.22656,0-10.63281,4.16602-16.5835,11.66406-16.5835,4.00684,0,7.37891,1.94385,9.32324,5.35596,1.50732,2.6582,2.30078,6.4668,2.30078,11.2666,0,10.71191-4.16553,16.54395-11.78271,16.54395ZM37.2627,53.61719c-3.29297,0-4.95898,3.45215-4.95898,10.31543,0,7.18066,1.58691,10.55273,4.99854,10.55273,3.25342,0,4.87988-3.49121,4.87988-10.43359,0-7.02246-1.62646-10.43457-4.91943-10.43457Z"/>
      <path fill="#231815" d="M70.9873,73.77148v6.22852h-6.58594v-6.22852h-13.64697v-5.51465l13.80615-20.15381h6.42676v19.75732h3.84863v5.91113h-3.84863ZM64.40137,57.38672l-7.02148,10.47363h7.02148v-10.47363Z"/>
    </g>
  </symbol>
  <symbol id="I05" viewBox="0 0 100 100">
    <circle fill="#00914c" cx="50" cy="50" r="50"/>
    <circle fill="#fff" cx="50" cy="50" r="42.5"/>
    <path fill="#231815" d="M55.66992,19.27734h-2.75195v16.44531h2.75195v4.27734h-11.33984v-4.27734h2.81836v-16.44531h-2.81836v-4.27734h11.33984v4.27734Z"/>
    <g>
      <path fill="#231815" d="M37.104,80.63477c-3.84814,0-7.26025-1.9834-9.16455-5.35645-1.54736-2.69727-2.34082-6.50586-2.34082-11.22656,0-10.63281,4.16602-16.5835,11.66406-16.5835,4.00684,0,7.37891,1.94385,9.32324,5.35596,1.50732,2.6582,2.30078,6.4668,2.30078,11.2666,0,10.71191-4.16553,16.54395-11.78271,16.54395ZM37.2627,53.61719c-3.29297,0-4.95898,3.45215-4.95898,10.31543,0,7.18066,1.58691,10.55273,4.99854,10.55273,3.25342,0,4.87988-3.49121,4.87988-10.43359,0-7.02246-1.62646-10.43457-4.91943-10.43457Z"/>
      <path fill="#231815" d="M61.50586,80.63477c-3.69043,0-7.1416-.79297-10.23633-2.41992l1.62695-6.14941c2.53906,1.58691,5.47461,2.41992,8.4502,2.41992,3.92773,0,6.30762-1.8252,6.30762-4.80078,0-2.69727-2.0625-4.5625-5.03809-4.5625-1.62695,0-3.01465.55566-3.9668,1.66699h-5.51465v-18.68604h18.92383v6.14893h-12.53711v5.27637c1.42871-.35645,2.45996-.51562,3.68945-.51562,6.4668,0,11.14844,4.44336,11.14844,10.59277,0,6.66504-5.07812,11.0293-12.85352,11.0293Z"/>
    </g>
  </symbol>
  <symbol id="I06" viewBox="0 0 100 100">
    <circle fill="#00914c" cx="50" cy="50" r="50"/>
    <circle fill="#fff" cx="50" cy="50" r="42.5"/>
    <path fill="#231815" d="M55.66992,19.27734h-2.75195v16.44531h2.75195v4.27734h-11.33984v-4.27734h2.81836v-16.44531h-2.81836v-4.27734h11.33984v4.27734Z"/>
    <g>
      <path fill="#231815" d="M37.104,80.63477c-3.84814,0-7.26025-1.9834-9.16455-5.35645-1.54736-2.69727-2.34082-6.50586-2.34082-11.22656,0-10.63281,4.16602-16.5835,11.66406-16.5835,4.00684,0,7.37891,1.94385,9.32324,5.35596,1.50732,2.6582,2.30078,6.4668,2.30078,11.2666,0,10.71191-4.16553,16.54395-11.78271,16.54395ZM37.2627,53.61719c-3.29297,0-4.95898,3.45215-4.95898,10.31543,0,7.18066,1.58691,10.55273,4.99854,10.55273,3.25342,0,4.87988-3.49121,4.87988-10.43359,0-7.02246-1.62646-10.43457-4.91943-10.43457Z"/>
      <path fill="#231815" d="M63.25098,80.63477c-7.41895,0-12.25879-5.71289-12.25879-14.48047,0-10.87109,6.66504-18.68604,15.94824-18.68604.5957,0,1.62695.03955,2.61816.11914v6.14893c-.99121-.0791-1.3877-.11914-1.9834-.11914-4.36426,0-7.2207,2.14258-9.125,6.82422,1.94434-1.30957,3.57129-1.86523,5.71289-1.86523,5.95117,0,10.51367,4.68164,10.51367,10.79102,0,6.42773-4.87988,11.26758-11.42578,11.26758ZM63.13184,64.4873c-3.01465,0-5.35547,2.02344-5.35547,4.60254,0,3.05469,2.34082,5.39551,5.31641,5.39551,2.89551,0,4.83984-2.06348,4.83984-5.11816s-1.8252-4.87988-4.80078-4.87988Z"/>
    </g>
  </symbol>
  <symbol id="I07" viewBox="0 0 100 100">
    <circle fill="#00914c" cx="50" cy="50" r="50"/>
    <circle fill="#fff" cx="50" cy="50" r="42.5"/>
    <path fill="#231815" d="M55.66992,19.27734h-2.75195v16.44531h2.75195v4.27734h-11.33984v-4.27734h2.81836v-16.44531h-2.81836v-4.27734h11.33984v4.27734Z"/>
    <g>
      <path fill="#231815" d="M37.104,80.63477c-3.84814,0-7.26025-1.9834-9.16455-5.35645-1.54736-2.69727-2.34082-6.50586-2.34082-11.22656,0-10.63281,4.16602-16.5835,11.66406-16.5835,4.00684,0,7.37891,1.94385,9.32324,5.35596,1.50732,2.6582,2.30078,6.4668,2.30078,11.2666,0,10.71191-4.16553,16.54395-11.78271,16.54395ZM37.2627,53.61719c-3.29297,0-4.95898,3.45215-4.95898,10.31543,0,7.18066,1.58691,10.55273,4.99854,10.55273,3.25342,0,4.87988-3.49121,4.87988-10.43359,0-7.02246-1.62646-10.43457-4.91943-10.43457Z"/>
      <path fill="#231815" d="M59.7998,80h-7.49805l15.0752-25.74805h-16.46387v-6.14893h23.68457v6.22803l-14.79785,25.66895Z"/>
    </g>
  </symbol>
  <symbol id="I08" viewBox="0 0 100 100">
    <circle fill="#00914c" cx="50" cy="50" r="50"/>
    <circle fill="#fff" cx="50" cy="50" r="42.5"/>
    <path fill="#231815" d="M55.66992,19.27734h-2.75195v16.44531h2.75195v4.27734h-11.33984v-4.27734h2.81836v-16.44531h-2.81836v-4.27734h11.33984v4.27734Z"/>
    <g>
      <path fill="#231815" d="M37.104,80.63477c-3.84814,0-7.26025-1.9834-9.16455-5.35645-1.54736-2.69727-2.34082-6.50586-2.34082-11.22656,0-10.63281,4.16602-16.5835,11.66406-16.5835,4.00684,0,7.37891,1.94385,9.32324,5.35596,1.50732,2.6582,2.30078,6.4668,2.30078,11.2666,0,10.71191-4.16553,16.54395-11.78271,16.54395ZM37.2627,53.61719c-3.29297,0-4.95898,3.45215-4.95898,10.31543,0,7.18066,1.58691,10.55273,4.99854,10.55273,3.25342,0,4.87988-3.49121,4.87988-10.43359,0-7.02246-1.62646-10.43457-4.91943-10.43457Z"/>
      <path fill="#231815" d="M62.77539,80.63477c-6.78418,0-11.74316-4.4043-11.74316-10.35449,0-3.33301,1.70508-6.34766,4.52246-8.05371-1.8252-1.54785-2.89648-3.76953-2.89648-6.14941,0-4.99902,4.20508-8.60889,10.07715-8.60889,5.91113,0,10.11621,3.60986,10.11621,8.64893v.1582c0,2.26172-1.07129,4.4834-2.85645,5.95117,2.85645,1.74512,4.52344,4.7207,4.52344,8.09277,0,5.91113-4.99902,10.31543-11.74316,10.31543ZM62.77539,65.87598c-2.93652,0-5.03906,1.8252-5.03906,4.28516,0,2.41992,2.18262,4.32422,4.95898,4.32422,2.89648,0,5.07812-1.8252,5.07812-4.32422,0-2.45996-2.1416-4.28516-4.99805-4.28516ZM62.77539,52.90332c-2.18262,0-3.72949,1.38867-3.72949,3.37207s1.50781,3.41211,3.64941,3.41211c2.26172,0,3.76953-1.34863,3.76953-3.41211,0-1.94434-1.54785-3.37207-3.68945-3.37207Z"/>
    </g>
  </symbol>
  <symbol id="I09" viewBox="0 0 100 100">
    <circle fill="#00914c" cx="50" cy="50" r="50"/>
    <circle fill="#fff" cx="50" cy="50" r="42.5"/>
    <path fill="#231815" d="M55.66992,19.27734h-2.75195v16.44531h2.75195v4.27734h-11.33984v-4.27734h2.81836v-16.44531h-2.81836v-4.27734h11.33984v4.27734Z"/>
    <g>
      <path fill="#231815" d="M37.104,80.63477c-3.84814,0-7.26025-1.9834-9.16455-5.35645-1.54736-2.69727-2.34082-6.50586-2.34082-11.22656,0-10.63281,4.16602-16.5835,11.66406-16.5835,4.00684,0,7.37891,1.94385,9.32324,5.35596,1.50732,2.6582,2.30078,6.4668,2.30078,11.2666,0,10.71191-4.16553,16.54395-11.78271,16.54395ZM37.2627,53.61719c-3.29297,0-4.95898,3.45215-4.95898,10.31543,0,7.18066,1.58691,10.55273,4.99854,10.55273,3.25342,0,4.87988-3.49121,4.87988-10.43359,0-7.02246-1.62646-10.43457-4.91943-10.43457Z"/>
      <path fill="#231815" d="M59.32324,80.63477c-1.8252,0-3.29297-.23828-5.11719-.79297v-6.34863c1.62598.6748,3.29199.99219,4.91895.99219,4.36426,0,7.06152-2.34082,8.01367-6.94238-2.0625,1.3877-3.57031,1.86426-5.83203,1.86426-5.91113,0-10.354-4.52246-10.354-10.55273,0-6.4668,4.9585-11.38623,11.54443-11.38623,7.41895,0,12.10059,5.59326,12.10059,14.47998v.39746c0,11.22754-5.87207,18.28906-15.27441,18.28906ZM67.77344,58.53711c0-2.69824-2.26074-4.91992-5.07812-4.91992-2.85645,0-5.03809,2.18262-5.03809,5.07812,0,2.89648,2.02344,4.91992,4.99902,4.91992,2.85645,0,5.11719-2.18262,5.11719-4.91992v-.1582Z"/>
     </g>
  </symbol>
  <symbol id="I10" viewBox="0 0 100 100">
    <circle fill="#00914c" cx="50" cy="50" r="50"/>
    <circle fill="#fff" cx="50" cy="50" r="42.5"/>
    <path fill="#231815" d="M55.66992,19.27734h-2.75195v16.44531h2.75195v4.27734h-11.33984v-4.27734h2.81836v-16.44531h-2.81836v-4.27734h11.33984v4.27734Z"/>
    <g>
      <path fill="#231815" d="M34.88232,80v-24.7168l-5.63379,3.88867-.83301-6.14941,7.26025-4.91943h5.91113v31.89697h-6.70459Z"/>
      <path fill="#231815" d="M62.65625,80.63477c-3.84863,0-7.26074-1.9834-9.16504-5.35645-1.54688-2.69727-2.34082-6.50586-2.34082-11.22656,0-10.63281,4.16602-16.5835,11.66406-16.5835,4.00684,0,7.37891,1.94385,9.32324,5.35596,1.50781,2.6582,2.30078,6.4668,2.30078,11.2666,0,10.71191-4.16504,16.54395-11.78223,16.54395ZM62.81445,53.61719c-3.29297,0-4.95898,3.45215-4.95898,10.31543,0,7.18066,1.58691,10.55273,4.99902,10.55273,3.25293,0,4.87988-3.49121,4.87988-10.43359,0-7.02246-1.62695-10.43457-4.91992-10.43457Z"/>
    </g>
  </symbol>
  <symbol id="I11" viewBox="0 0 100 100">
    <circle fill="#00914c" cx="50" cy="50" r="50"/>
    <circle fill="#fff" cx="50" cy="50" r="42.5"/>
    <path fill="#231815" d="M55.66992,19.27734h-2.75195v16.44531h2.75195v4.27734h-11.33984v-4.27734h2.81836v-16.44531h-2.81836v-4.27734h11.33984v4.27734Z"/>
    <g>
      <path fill="#231815" d="M34.88232,80v-24.7168l-5.63379,3.88867-.83301-6.14941,7.26025-4.91943h5.91113v31.89697h-6.70459Z"/>
      <path fill="#231815" d="M60.43457,80v-24.7168l-5.63379,3.88867-.83301-6.14941,7.25977-4.91943h5.91113v31.89697h-6.7041Z"/>
    </g>
  </symbol>
  <symbol id="I12" viewBox="0 0 100 100">
    <circle fill="#00914c" cx="50" cy="50" r="50"/>
    <circle fill="#fff" cx="50" cy="50" r="42.5"/>
    <path fill="#231815" d="M55.66992,19.27734h-2.75195v16.44531h2.75195v4.27734h-11.33984v-4.27734h2.81836v-16.44531h-2.81836v-4.27734h11.33984v4.27734Z"/>
    <g>
      <path fill="#231815" d="M34.88232,80v-24.7168l-5.63379,3.88867-.83301-6.14941,7.26025-4.91943h5.91113v31.89697h-6.70459Z"/>
      <path fill="#231815" d="M49.9209,80c13.21094-14.04395,16.78125-18.80469,16.78125-22.2959,0-2.4209-1.66602-4.08691-4.12598-4.08691-2.93555,0-5.39551,1.74609-7.65625,5.47461l-2.93555-6.30762c2.77637-3.53076,6.34766-5.31592,10.71094-5.31592,6.3877,0,10.71191,4.08643,10.71191,10.1167,0,4.68066-1.58691,7.41895-9.44238,16.26562h10.71191v6.14941h-24.75586Z"/>
    </g>
  </symbol>
  <symbol id="I13" viewBox="0 0 100 100">
    <circle fill="#00914c" cx="50" cy="50" r="50"/>
    <circle fill="#fff" cx="50" cy="50" r="42.5"/>
    <path fill="#231815" d="M55.66992,19.27734h-2.75195v16.44531h2.75195v4.27734h-11.33984v-4.27734h2.81836v-16.44531h-2.81836v-4.27734h11.33984v4.27734Z"/>
    <g>
      <path fill="#231815" d="M34.88232,80v-24.7168l-5.63379,3.88867-.83301-6.14941,7.26025-4.91943h5.91113v31.89697h-6.70459Z"/>
      <path fill="#231815" d="M68.68652,79.24609c-1.8252.87305-4.68164,1.38867-7.49805,1.38867-3.80859,0-7.1416-.87305-10.39453-2.6582l1.9043-5.99023c2.49902,1.66602,5.31641,2.49902,8.56934,2.49902,3.92773,0,6.4668-1.74609,6.4668-4.40332v-.11914c0-2.5-2.14258-3.92773-5.95117-3.92773h-3.68945v-5.55469h3.21289c2.89648,0,4.72168-1.38867,4.72168-3.53027,0-1.94434-1.66602-3.33301-4.00684-3.33301-2.97559,0-5.63379,1.26953-7.81543,3.68945l-2.34082-5.83203c2.89551-2.65723,6.42676-4.00635,10.31445-4.00635,6.18945,0,10.51367,3.68896,10.51367,8.88623,0,2.77734-1.03125,4.6416-3.57031,6.30859,3.41113,1.46777,5.31543,4.24512,5.31543,8.05371,0,3.64941-2.1416,6.82324-5.75195,8.5293Z"/>
    </g>
  </symbol>
  <symbol id="I14" viewBox="0 0 100 100">
    <circle fill="#00914c" cx="50" cy="50" r="50"/>
    <circle fill="#fff" cx="50" cy="50" r="42.5"/>
    <path fill="#231815" d="M55.66992,19.27734h-2.75195v16.44531h2.75195v4.27734h-11.33984v-4.27734h2.81836v-16.44531h-2.81836v-4.27734h11.33984v4.27734Z"/>
    <g>
      <path fill="#231815" d="M34.88232,80v-24.7168l-5.63379,3.88867-.83301-6.14941,7.26025-4.91943h5.91113v31.89697h-6.70459Z"/>
      <path fill="#231815" d="M70.9873,73.77148v6.22852h-6.58594v-6.22852h-13.64697v-5.51465l13.80615-20.15381h6.42676v19.75732h3.84863v5.91113h-3.84863ZM64.40137,57.38672l-7.02148,10.47363h7.02148v-10.47363Z"/>
    </g>
  </symbol>
  <symbol id="I15" viewBox="0 0 100 100">
    <circle fill="#00914c" cx="50" cy="50" r="50"/>
    <circle fill="#fff" cx="50" cy="50" r="42.5"/>
    <path fill="#231815" d="M55.66992,19.27734h-2.75195v16.44531h2.75195v4.27734h-11.33984v-4.27734h2.81836v-16.44531h-2.81836v-4.27734h11.33984v4.27734Z"/>
    <g>
      <path fill="#231815" d="M34.88232,80v-24.7168l-5.63379,3.88867-.83301-6.14941,7.26025-4.91943h5.91113v31.89697h-6.70459Z"/>
      <path fill="#231815" d="M61.50586,80.63477c-3.69043,0-7.1416-.79297-10.23633-2.41992l1.62695-6.14941c2.53906,1.58691,5.47461,2.41992,8.4502,2.41992,3.92773,0,6.30762-1.8252,6.30762-4.80078,0-2.69727-2.0625-4.5625-5.03809-4.5625-1.62695,0-3.01465.55566-3.9668,1.66699h-5.51465v-18.68604h18.92383v6.14893h-12.53711v5.27637c1.42871-.35645,2.45996-.51562,3.68945-.51562,6.4668,0,11.14844,4.44336,11.14844,10.59277,0,6.66504-5.07812,11.0293-12.85352,11.0293Z"/>
    </g>
  </symbol>
  <symbol id="I16" viewBox="0 0 100 100">
    <circle fill="#00914c" cx="50" cy="50" r="50"/>
    <circle fill="#fff" cx="50" cy="50" r="42.5"/>
    <path fill="#231815" d="M55.66992,19.27734h-2.75195v16.44531h2.75195v4.27734h-11.33984v-4.27734h2.81836v-16.44531h-2.81836v-4.27734h11.33984v4.27734Z"/>
    <g>
      <path fill="#231815" d="M34.88232,80v-24.7168l-5.63379,3.88867-.83301-6.14941,7.26025-4.91943h5.91113v31.89697h-6.70459Z"/>
      <path fill="#231815" d="M63.25098,80.63477c-7.41895,0-12.25879-5.71289-12.25879-14.48047,0-10.87109,6.66504-18.68604,15.94824-18.68604.5957,0,1.62695.03955,2.61816.11914v6.14893c-.99121-.0791-1.3877-.11914-1.9834-.11914-4.36426,0-7.2207,2.14258-9.125,6.82422,1.94434-1.30957,3.57129-1.86523,5.71289-1.86523,5.95117,0,10.51367,4.68164,10.51367,10.79102,0,6.42773-4.87988,11.26758-11.42578,11.26758ZM63.13184,64.4873c-3.01465,0-5.35547,2.02344-5.35547,4.60254,0,3.05469,2.34082,5.39551,5.31641,5.39551,2.89551,0,4.83984-2.06348,4.83984-5.11816s-1.8252-4.87988-4.80078-4.87988Z"/>
    </g>
  </symbol>
  <symbol id="I17" viewBox="0 0 100 100">
    <circle fill="#00914c" cx="50" cy="50" r="50"/>
    <circle fill="#fff" cx="50" cy="50" r="42.5"/>
    <path fill="#231815" d="M55.66992,19.27734h-2.75195v16.44531h2.75195v4.27734h-11.33984v-4.27734h2.81836v-16.44531h-2.81836v-4.27734h11.33984v4.27734Z"/>
    <g>
      <path fill="#231815" d="M34.88232,80v-24.7168l-5.63379,3.88867-.83301-6.14941,7.26025-4.91943h5.91113v31.89697h-6.70459Z"/>
      <path fill="#231815" d="M59.7998,80h-7.49805l15.0752-25.74805h-16.46387v-6.14893h23.68457v6.22803l-14.79785,25.66895Z"/>
    </g>
  </symbol>
</svg>
