<?xml version="1.0" encoding="UTF-8"?>
<svg xmlns="http://www.w3.org/2000/svg" xmlns:xlink="http://www.w3.org/1999/xlink">
  <symbol id="H74" viewBox="0 0 100 100">
    <circle fill="#0068b7" cx="50" cy="50" r="50"/>
    <circle fill="#fff" cx="50" cy="50" r="42.5"/>
    <path fill="#000" d="M56.5127,46.24951v-14.50293h-12.69531v14.50293h-6.72217V13.76123h6.72217v12.38721h12.69531v-12.38721h6.74414v32.48828h-6.74414Z"/>
    <g>
      <path fill="#000" d="M44.77637,63.31152c-1.67529,2.38086-3.07861,4.83496-4.20996,7.36133-.89648,1.98438-1.70459,4.40918-2.42432,7.27441-.72021,2.86523-1.08008,5.21582-1.08008,7.05273h-6.52393c.19092-5.73047,2.07178-11.68848,5.64258-17.875,2.30664-3.83594,4.23877-6.50977,5.79639-8.02344h-15.93555l.08838-5.64258h22.56982v4.91504c-.94043.92578-2.24805,2.57227-3.92334,4.9375Z"/>
      <path fill="#000" d="M73.60645,73.20801v4.91504h-3.61523v6.87695h-6.14941v-6.87695h-12.65137v-5.48828l11.74805-19.39551h7.05273v19.96875h3.61523ZM55.84082,73.20801h8.00098v-13.79785l-8.00098,13.79785Z"/>
    </g>
  </symbol>
  <symbol id="H75" viewBox="0 0 100 100">
    <circle fill="#0068b7" cx="50" cy="50" r="50"/>
    <circle fill="#fff" cx="50" cy="50" r="42.5"/>
    <path fill="#000" d="M56.5127,46.24951v-14.50293h-12.69531v14.50293h-6.72217V13.76123h6.72217v12.38721h12.69531v-12.38721h6.74414v32.48828h-6.74414Z"/>
    <g>
      <path fill="#000" d="M44.77637,63.31152c-1.67529,2.38086-3.07861,4.83496-4.20996,7.36133-.89648,1.98438-1.70459,4.40918-2.42432,7.27441-.72021,2.86523-1.08008,5.21582-1.08008,7.05273h-6.52393c.19092-5.73047,2.07178-11.68848,5.64258-17.875,2.30664-3.83594,4.23877-6.50977,5.79639-8.02344h-15.93555l.08838-5.64258h22.56982v4.91504c-.94043.92578-2.24805,2.57227-3.92334,4.9375Z"/>
      <path fill="#000" d="M62.03418,69.12988c-.76367,0-1.4248.0957-1.9834.28711-.98438.35254-1.72656,1.00684-2.22559,1.96191l-5.64258-.26465,2.24805-17.65527h17.61133v5.33398h-13.07129l-1.14551,6.9873c.96973-.63184,1.72559-1.05078,2.26953-1.25684.91113-.33789,2.02051-.50684,3.32812-.50684,2.64551,0,4.95312.88965,6.92188,2.66699,1.96875,1.77832,2.95312,4.36426,2.95312,7.75879,0,2.95312-.94727,5.59082-2.84375,7.91309-1.89453,2.32129-4.73145,3.48242-8.50781,3.48242-3.04199,0-5.54004-.81543-7.49414-2.44727-1.9541-1.63086-3.04102-3.94531-3.26172-6.94238h6.25977c.25,1.36621.72754,2.4209,1.43262,3.16309s1.7334,1.1123,3.08594,1.1123c1.55664,0,2.74414-.54688,3.55957-1.6416s1.22266-2.47168,1.22266-4.13281c0-1.63086-.38184-3.00879-1.14551-4.13184-.76465-1.125-1.95508-1.6875-3.57129-1.6875Z"/>
    </g>
  </symbol>
</svg>