<?xml version="1.0" encoding="UTF-8"?>
<svg xmlns="http://www.w3.org/2000/svg" xmlns:xlink="http://www.w3.org/1999/xlink">
  <symbol id="KH" viewBox="0 0 100 100">
    <rect fill="#1d2088" y="20" width="100" height="60"/>
    <g>
      <path fill="#fff" d="M37.36719,70l-14.38525-18.56934h-.11475v18.56934h-8.02393V29.99609h8.02393v17.19385l14.44238-17.19385h9.85791l-16.44873,18.85596,17.13623,21.14795h-10.48779Z"/>
      <path fill="#fff" d="M77.1377,70v-17.53711h-16.04785v17.53711h-8.02344V29.99609h8.02344v16.16211h16.04785v-16.16211h8.02344v40.00391h-8.02344Z"/>
    </g>
  </symbol>
  <symbol id="KH01" viewBox="0 0 100 100">
    <rect fill="#1d2088" y="30" width="100" height="40"/>
    <rect fill="#fff" x="44.375" y="31.875" width="53.75" height="36.25"/>
    <g>
      <path fill="#fff" d="M15.94873,65l-6.74072-8.70117h-.05371v8.70117h-3.75977v-18.74512h3.75977v8.05664l6.76758-8.05664h4.61914l-7.70752,8.83594,8.02979,9.90918h-4.91455Z"/>
      <path fill="#fff" d="M34.59082,65v-8.21777h-7.51953v8.21777h-3.75977v-18.74512h3.75977v7.57324h7.51953v-7.57324h3.75977v18.74512h-3.75977Z"/>
    </g>
    <g>
      <path fill="#1d2088" d="M48.85742,50.08545c0-9.45654,3.39551-15.60303,10.40234-15.60303,6.87695,0,10.48828,5.41602,10.48828,15.60303,0,9.97217-3.61133,15.43115-10.48828,15.43115-6.83496,0-10.40234-4.89941-10.40234-15.43115ZM63.72949,50.08545c0-4.51318-.12891-11.13281-4.5127-11.13281-4.08398,0-4.3418,6.36182-4.3418,11.00391,0,4.81494.17188,11.09033,4.38477,11.09033,4.34082,0,4.46973-6.49121,4.46973-10.96143Z"/>
      <path fill="#1d2088" d="M82.72656,65.00098v-23.16846l-5.07227,4.12646-3.00879-3.91162,8.76855-7.04932h5.33008v30.00293h-6.01758Z"/>
    </g>
  </symbol>
  <symbol id="KH02" viewBox="0 0 100 100">
    <rect fill="#1d2088" y="30" width="100" height="40"/>
    <rect fill="#fff" x="44.375" y="31.875" width="53.75" height="36.25"/>
    <g>
      <path fill="#fff" d="M15.94873,65l-6.74072-8.70117h-.05371v8.70117h-3.75977v-18.74512h3.75977v8.05664l6.76758-8.05664h4.61914l-7.70752,8.83594,8.02979,9.90918h-4.91455Z"/>
      <path fill="#fff" d="M34.59082,65v-8.21777h-7.51953v8.21777h-3.75977v-18.74512h3.75977v7.57324h7.51953v-7.57324h3.75977v18.74512h-3.75977Z"/>
    </g>
    <g>
      <path fill="#1d2088" d="M48.85742,50.08545c0-9.45654,3.39551-15.60303,10.40234-15.60303,6.87695,0,10.48828,5.41602,10.48828,15.60303,0,9.97217-3.61133,15.43115-10.48828,15.43115-6.83496,0-10.40234-4.89941-10.40234-15.43115ZM63.72949,50.08545c0-4.51318-.12891-11.13281-4.5127-11.13281-4.08398,0-4.3418,6.36182-4.3418,11.00391,0,4.81494.17188,11.09033,4.38477,11.09033,4.34082,0,4.46973-6.49121,4.46973-10.96143Z"/>
      <path fill="#1d2088" d="M73.0127,65.00098v-5.0293l3.61035-3.35254c5.75977-5.37305,9.37012-10.10107,9.37012-13.36816,0-2.5791-2.23438-4.04053-4.89941-4.04053-2.06348,0-4.3418.73096-6.9209,2.40723l-.47266-4.98633c2.75098-1.37549,5.80273-2.14893,8.89746-2.14893,5.97461,0,9.41406,3.1377,9.41406,8.76855,0,4.16943-2.40723,8.72656-11.30566,17.02246h12.25098v4.72754h-19.94434Z"/>
    </g>
  </symbol>
  <symbol id="KH03" viewBox="0 0 100 100">
    <rect fill="#1d2088" y="30" width="100" height="40"/>
    <rect fill="#fff" x="44.375" y="31.875" width="53.75" height="36.25"/>
    <g>
      <path fill="#fff" d="M15.94873,65l-6.74072-8.70117h-.05371v8.70117h-3.75977v-18.74512h3.75977v8.05664l6.76758-8.05664h4.61914l-7.70752,8.83594,8.02979,9.90918h-4.91455Z"/>
      <path fill="#fff" d="M34.59082,65v-8.21777h-7.51953v8.21777h-3.75977v-18.74512h3.75977v7.57324h7.51953v-7.57324h3.75977v18.74512h-3.75977Z"/>
    </g>
    <g>
      <path fill="#1d2088" d="M48.85742,50.08545c0-9.45654,3.39551-15.60303,10.40234-15.60303,6.87695,0,10.48828,5.41602,10.48828,15.60303,0,9.97217-3.61133,15.43115-10.48828,15.43115-6.83496,0-10.40234-4.89941-10.40234-15.43115ZM63.72949,50.08545c0-4.51318-.12891-11.13281-4.5127-11.13281-4.08398,0-4.3418,6.36182-4.3418,11.00391,0,4.81494.17188,11.09033,4.38477,11.09033,4.34082,0,4.46973-6.49121,4.46973-10.96143Z"/>
      <path fill="#1d2088" d="M73.52832,59.41309c2.19238.86035,4.38379,1.37598,6.61914,1.37598,2.87988,0,6.3623-1.37598,6.3623-4.25586,0-3.1377-2.23535-4.68555-6.57715-4.68555h-2.96582v-4.72803h2.92285c3.82617,0,6.49121-1.37549,6.49121-3.95459s-1.80566-3.95459-5.20117-3.95459c-2.27832,0-4.59961.55908-6.70605,1.59033l-.34375-4.81396c2.40723-.9458,5.28711-1.50439,8.33887-1.50439,4.90039,0,9.92969,1.97705,9.92969,7.69385,0,3.43896-1.7627,5.71729-5.58789,7.17871v.08594c3.61035.47266,5.7168,3.22412,5.7168,7.13525,0,6.01758-4.72852,8.94043-11.5625,8.94043-2.5791,0-5.50195-.34375-7.78027-.98828l.34375-5.11523Z"/>
    </g>
  </symbol>
  <symbol id="KH04" viewBox="0 0 100 100">
    <rect fill="#1d2088" y="30" width="100" height="40"/>
    <rect fill="#fff" x="44.375" y="31.875" width="53.75" height="36.25"/>
    <g>
      <path fill="#fff" d="M15.94873,65l-6.74072-8.70117h-.05371v8.70117h-3.75977v-18.74512h3.75977v8.05664l6.76758-8.05664h4.61914l-7.70752,8.83594,8.02979,9.90918h-4.91455Z"/>
      <path fill="#fff" d="M34.59082,65v-8.21777h-7.51953v8.21777h-3.75977v-18.74512h3.75977v7.57324h7.51953v-7.57324h3.75977v18.74512h-3.75977Z"/>
    </g>
    <g>
      <path fill="#1d2088" d="M48.85742,50.08545c0-9.45654,3.39551-15.60303,10.40234-15.60303,6.87695,0,10.48828,5.41602,10.48828,15.60303,0,9.97217-3.61133,15.43115-10.48828,15.43115-6.83496,0-10.40234-4.89941-10.40234-15.43115ZM63.72949,50.08545c0-4.51318-.12891-11.13281-4.5127-11.13281-4.08398,0-4.3418,6.36182-4.3418,11.00391,0,4.81494.17188,11.09033,4.38477,11.09033,4.34082,0,4.46973-6.49121,4.46973-10.96143Z"/>
      <path fill="#1d2088" d="M84.87598,65.00098v-6.23242h-12.93848v-4.85742l11.21875-18.91309h7.47949v19.2998h3.8252v4.4707h-3.8252v6.23242h-5.75977ZM84.87598,41.27393h-.08594l-7.43652,13.02393h7.52246v-13.02393Z"/>
    </g>
  </symbol>
  <symbol id="KH05" viewBox="0 0 100 100">
    <rect fill="#1d2088" y="30" width="100" height="40"/>
    <rect fill="#fff" x="44.375" y="31.875" width="53.75" height="36.25"/>
    <g>
      <path fill="#fff" d="M15.94873,65l-6.74072-8.70117h-.05371v8.70117h-3.75977v-18.74512h3.75977v8.05664l6.76758-8.05664h4.61914l-7.70752,8.83594,8.02979,9.90918h-4.91455Z"/>
      <path fill="#fff" d="M34.59082,65v-8.21777h-7.51953v8.21777h-3.75977v-18.74512h3.75977v7.57324h7.51953v-7.57324h3.75977v18.74512h-3.75977Z"/>
    </g>
    <g>
      <path fill="#1d2088" d="M48.85742,50.08545c0-9.45654,3.39551-15.60303,10.40234-15.60303,6.87695,0,10.48828,5.41602,10.48828,15.60303,0,9.97217-3.61133,15.43115-10.48828,15.43115-6.83496,0-10.40234-4.89941-10.40234-15.43115ZM63.72949,50.08545c0-4.51318-.12891-11.13281-4.5127-11.13281-4.08398,0-4.3418,6.36182-4.3418,11.00391,0,4.81494.17188,11.09033,4.38477,11.09033,4.34082,0,4.46973-6.49121,4.46973-10.96143Z"/>
      <path fill="#1d2088" d="M74.47363,59.28418c2.49316,1.0752,4.3418,1.50488,6.06055,1.50488,3.82617,0,6.49121-1.8916,6.49121-5.28711,0-3.30957-2.62207-5.20166-6.87793-5.20166-1.84766,0-3.61035.2583-5.37305.81689l.30078-16.11914h17.2373v4.47021h-11.56348l-.12891,6.40479c1.03223-.17188,1.67676-.30078,2.75098-.30078,5.37305,0,9.67188,2.96582,9.67188,9.71484,0,6.14648-4.4707,10.22949-11.69141,10.22949-1.93457,0-4.72852-.30078-7.00684-.85938l.12891-5.37305Z"/>
    </g>
  </symbol>
  <symbol id="KH06" viewBox="0 0 100 100">
    <rect fill="#1d2088" y="30" width="100" height="40"/>
    <rect fill="#fff" x="44.375" y="31.875" width="53.75" height="36.25"/>
    <g>
      <path fill="#fff" d="M15.94873,65l-6.74072-8.70117h-.05371v8.70117h-3.75977v-18.74512h3.75977v8.05664l6.76758-8.05664h4.61914l-7.70752,8.83594,8.02979,9.90918h-4.91455Z"/>
      <path fill="#fff" d="M34.59082,65v-8.21777h-7.51953v8.21777h-3.75977v-18.74512h3.75977v7.57324h7.51953v-7.57324h3.75977v18.74512h-3.75977Z"/>
    </g>
    <g>
      <path fill="#1d2088" d="M48.85742,50.08545c0-9.45654,3.39551-15.60303,10.40234-15.60303,6.87695,0,10.48828,5.41602,10.48828,15.60303,0,9.97217-3.61133,15.43115-10.48828,15.43115-6.83496,0-10.40234-4.89941-10.40234-15.43115ZM63.72949,50.08545c0-4.51318-.12891-11.13281-4.5127-11.13281-4.08398,0-4.3418,6.36182-4.3418,11.00391,0,4.81494.17188,11.09033,4.38477,11.09033,4.34082,0,4.46973-6.49121,4.46973-10.96143Z"/>
      <path fill="#1d2088" d="M91.02246,40.41406c-1.50391-.64453-3.1377-1.20361-5.24414-1.20361-4.77051,0-6.91992,4.0835-7.13477,9.28467l.08594.08594c1.41797-2.06299,3.2666-3.00879,5.8457-3.00879,5.50195,0,8.72559,3.48145,8.72559,9.15625,0,6.87695-3.52441,10.78809-9.97266,10.78809-6.70508,0-10.18652-4.42676-10.18652-13.96973,0-9.19824,3.2666-17.06445,12.33594-17.06445,2.19238,0,4.25586.34375,6.31836,1.07471l-.77344,4.85693ZM87.2832,55.67383c0-2.75098-1.0752-5.63135-4.12695-5.63135-2.49316,0-3.99707,2.10693-3.99707,5.67432,0,2.79395,1.16016,5.33008,4.16895,5.33008,2.87988,0,3.95508-2.83691,3.95508-5.37305Z"/>
    </g>
  </symbol>
  <symbol id="KH07" viewBox="0 0 100 100">
    <rect fill="#1d2088" y="30" width="100" height="40"/>
    <rect fill="#fff" x="44.375" y="31.875" width="53.75" height="36.25"/>
    <g>
      <path fill="#fff" d="M15.94873,65l-6.74072-8.70117h-.05371v8.70117h-3.75977v-18.74512h3.75977v8.05664l6.76758-8.05664h4.61914l-7.70752,8.83594,8.02979,9.90918h-4.91455Z"/>
      <path fill="#fff" d="M34.59082,65v-8.21777h-7.51953v8.21777h-3.75977v-18.74512h3.75977v7.57324h7.51953v-7.57324h3.75977v18.74512h-3.75977Z"/>
    </g>
    <g>
      <path fill="#1d2088" d="M48.85742,50.08545c0-9.45654,3.39551-15.60303,10.40234-15.60303,6.87695,0,10.48828,5.41602,10.48828,15.60303,0,9.97217-3.61133,15.43115-10.48828,15.43115-6.83496,0-10.40234-4.89941-10.40234-15.43115ZM63.72949,50.08545c0-4.51318-.12891-11.13281-4.5127-11.13281-4.08398,0-4.3418,6.36182-4.3418,11.00391,0,4.81494.17188,11.09033,4.38477,11.09033,4.34082,0,4.46973-6.49121,4.46973-10.96143Z"/>
      <path fill="#1d2088" d="M75.54883,65.00098l11.13281-25.27441h-13.28223v-4.72852h19.34277v4.98633l-10.66016,25.0166h-6.5332Z"/>
    </g>
  </symbol>
  <symbol id="KH08" viewBox="0 0 100 100">
    <rect fill="#1d2088" y="30" width="100" height="40"/>
    <rect fill="#fff" x="44.375" y="31.875" width="53.75" height="36.25"/>
    <g>
      <path fill="#fff" d="M15.94873,65l-6.74072-8.70117h-.05371v8.70117h-3.75977v-18.74512h3.75977v8.05664l6.76758-8.05664h4.61914l-7.70752,8.83594,8.02979,9.90918h-4.91455Z"/>
      <path fill="#fff" d="M34.59082,65v-8.21777h-7.51953v8.21777h-3.75977v-18.74512h3.75977v7.57324h7.51953v-7.57324h3.75977v18.74512h-3.75977Z"/>
    </g>
    <g>
      <path fill="#1d2088" d="M48.85742,50.08545c0-9.45654,3.39551-15.60303,10.40234-15.60303,6.87695,0,10.48828,5.41602,10.48828,15.60303,0,9.97217-3.61133,15.43115-10.48828,15.43115-6.83496,0-10.40234-4.89941-10.40234-15.43115ZM63.72949,50.08545c0-4.51318-.12891-11.13281-4.5127-11.13281-4.08398,0-4.3418,6.36182-4.3418,11.00391,0,4.81494.17188,11.09033,4.38477,11.09033,4.34082,0,4.46973-6.49121,4.46973-10.96143Z"/>
      <path fill="#1d2088" d="M87.88477,48.9248c3.86816,1.80566,5.75977,4.3418,5.75977,7.90918,0,5.54492-3.8252,8.68262-10.31641,8.68262-6.44727,0-10.57324-3.00879-10.57324-8.59668,0-3.35254,1.80469-5.67383,5.50195-7.479v-.08594c-3.52539-1.59082-4.98633-4.29834-4.98633-6.96338,0-5.24414,3.91113-7.90918,9.54199-7.90918,5.54492,0,10.05859,2.36426,10.05859,7.22119,0,3.09473-2.06348,6.01758-4.98633,7.17822v.04297ZM78.77246,56.79102c0,2.4502,2.10645,4.25586,4.55566,4.25586,2.4502,0,4.29883-1.54785,4.29883-3.99805,0-2.32031-1.50488-4.04004-5.0293-5.20117-2.70801,1.29004-3.8252,2.83691-3.8252,4.94336ZM87.11133,42.69238c0-1.71924-.98926-3.73975-3.74023-3.73975-2.01953,0-4.34082,1.11768-4.34082,3.61084,0,1.89111,1.375,3.30957,4.72852,4.51318,1.58984-.55859,3.35254-2.40723,3.35254-4.38428Z"/>
    </g>
  </symbol>
  <symbol id="KH09" viewBox="0 0 100 100">
    <rect fill="#1d2088" y="30" width="100" height="40"/>
    <rect fill="#fff" x="44.375" y="31.875" width="53.75" height="36.25"/>
    <g>
      <path fill="#fff" d="M15.94873,65l-6.74072-8.70117h-.05371v8.70117h-3.75977v-18.74512h3.75977v8.05664l6.76758-8.05664h4.61914l-7.70752,8.83594,8.02979,9.90918h-4.91455Z"/>
      <path fill="#fff" d="M34.59082,65v-8.21777h-7.51953v8.21777h-3.75977v-18.74512h3.75977v7.57324h7.51953v-7.57324h3.75977v18.74512h-3.75977Z"/>
    </g>
    <g>
      <path fill="#1d2088" d="M48.85742,50.08545c0-9.45654,3.39551-15.60303,10.40234-15.60303,6.87695,0,10.48828,5.41602,10.48828,15.60303,0,9.97217-3.61133,15.43115-10.48828,15.43115-6.83496,0-10.40234-4.89941-10.40234-15.43115ZM63.72949,50.08545c0-4.51318-.12891-11.13281-4.5127-11.13281-4.08398,0-4.3418,6.36182-4.3418,11.00391,0,4.81494.17188,11.09033,4.38477,11.09033,4.34082,0,4.46973-6.49121,4.46973-10.96143Z"/>
      <path fill="#1d2088" d="M87.71289,51.41797c-1.41895,2.10645-3.2666,3.00879-5.80273,3.00879-5.75977,0-8.76855-3.69629-8.76855-9.15527,0-6.87744,3.52441-10.78906,9.97168-10.78906,6.66309,0,10.1875,4.38428,10.1875,13.96973,0,9.32812-3.35254,17.06445-12.33594,17.06445-2.19238,0-4.25586-.34375-6.31934-1.07422l.77441-4.85742c1.67578.73145,3.30957,1.2041,5.24316,1.2041,4.3418,0,6.87793-3.43945,7.13574-9.28516l-.08594-.08594ZM87.2832,44.28271c0-2.79395-1.16113-5.33008-4.21289-5.33008-2.53613,0-3.91113,2.40723-3.91113,5.37305,0,3.05176,1.28906,5.63086,4.08301,5.63086,2.96582,0,4.04102-2.75098,4.04102-5.67383Z"/>
    </g>
  </symbol>
  <symbol id="KH10" viewBox="0 0 100 100">
    <rect fill="#1d2088" y="30" width="100" height="40"/>
    <rect fill="#fff" x="44.375" y="31.875" width="53.75" height="36.25"/>
    <g>
      <path fill="#fff" d="M15.94873,65l-6.74072-8.70117h-.05371v8.70117h-3.75977v-18.74512h3.75977v8.05664l6.76758-8.05664h4.61914l-7.70752,8.83594,8.02979,9.90918h-4.91455Z"/>
      <path fill="#fff" d="M34.59082,65v-8.21777h-7.51953v8.21777h-3.75977v-18.74512h3.75977v7.57324h7.51953v-7.57324h3.75977v18.74512h-3.75977Z"/>
    </g>
    <g>
      <path fill="#1d2088" d="M58.83008,65.00098v-23.16846l-5.07227,4.12646-3.00928-3.91162,8.76904-7.04932h5.33008v30.00293h-6.01758Z"/>
      <path fill="#1d2088" d="M72.75488,50.08545c0-9.45654,3.39551-15.60303,10.40137-15.60303,6.87793,0,10.48828,5.41602,10.48828,15.60303,0,9.97217-3.61035,15.43115-10.48828,15.43115-6.83398,0-10.40137-4.89941-10.40137-15.43115ZM87.62695,50.08545c0-4.51318-.12891-11.13281-4.51367-11.13281-4.08301,0-4.34082,6.36182-4.34082,11.00391,0,4.81494.17188,11.09033,4.38379,11.09033,4.3418,0,4.4707-6.49121,4.4707-10.96143Z"/>
    </g>
  </symbol>
  <symbol id="KH11" viewBox="0 0 100 100">
    <rect fill="#1d2088" y="30" width="100" height="40"/>
    <rect fill="#fff" x="44.375" y="31.875" width="53.75" height="36.25"/>
    <g>
      <path fill="#fff" d="M15.94873,65l-6.74072-8.70117h-.05371v8.70117h-3.75977v-18.74512h3.75977v8.05664l6.76758-8.05664h4.61914l-7.70752,8.83594,8.02979,9.90918h-4.91455Z"/>
      <path fill="#fff" d="M34.59082,65v-8.21777h-7.51953v8.21777h-3.75977v-18.74512h3.75977v7.57324h7.51953v-7.57324h3.75977v18.74512h-3.75977Z"/>
    </g>
    <g>
      <path fill="#1d2088" d="M58.83008,65.00098v-23.16846l-5.07227,4.12646-3.00928-3.91162,8.76904-7.04932h5.33008v30.00293h-6.01758Z"/>
      <path fill="#1d2088" d="M82.72656,65.00098v-23.16846l-5.07227,4.12646-3.00879-3.91162,8.76855-7.04932h5.33008v30.00293h-6.01758Z"/>
    </g>
  </symbol>
  <symbol id="KH12" viewBox="0 0 100 100">
    <rect fill="#1d2088" y="30" width="100" height="40"/>
    <rect fill="#fff" x="44.375" y="31.875" width="53.75" height="36.25"/>
    <g>
      <path fill="#fff" d="M15.94873,65l-6.74072-8.70117h-.05371v8.70117h-3.75977v-18.74512h3.75977v8.05664l6.76758-8.05664h4.61914l-7.70752,8.83594,8.02979,9.90918h-4.91455Z"/>
      <path fill="#fff" d="M34.59082,65v-8.21777h-7.51953v8.21777h-3.75977v-18.74512h3.75977v7.57324h7.51953v-7.57324h3.75977v18.74512h-3.75977Z"/>
    </g>
    <g>
      <path fill="#1d2088" d="M58.83008,65.00098v-23.16846l-5.07227,4.12646-3.00928-3.91162,8.76904-7.04932h5.33008v30.00293h-6.01758Z"/>
      <path fill="#1d2088" d="M73.0127,65.00098v-5.0293l3.61035-3.35254c5.75977-5.37305,9.37012-10.10107,9.37012-13.36816,0-2.5791-2.23438-4.04053-4.89941-4.04053-2.06348,0-4.3418.73096-6.9209,2.40723l-.47266-4.98633c2.75098-1.37549,5.80273-2.14893,8.89746-2.14893,5.97461,0,9.41406,3.1377,9.41406,8.76855,0,4.16943-2.40723,8.72656-11.30566,17.02246h12.25098v4.72754h-19.94434Z"/>
    </g>
  </symbol>
  <symbol id="KH13" viewBox="0 0 100 100">
    <rect fill="#1d2088" y="30" width="100" height="40"/>
    <rect fill="#fff" x="44.375" y="31.875" width="53.75" height="36.25"/>
    <g>
      <path fill="#fff" d="M15.94873,65l-6.74072-8.70117h-.05371v8.70117h-3.75977v-18.74512h3.75977v8.05664l6.76758-8.05664h4.61914l-7.70752,8.83594,8.02979,9.90918h-4.91455Z"/>
      <path fill="#fff" d="M34.59082,65v-8.21777h-7.51953v8.21777h-3.75977v-18.74512h3.75977v7.57324h7.51953v-7.57324h3.75977v18.74512h-3.75977Z"/>
    </g>
    <g>
      <path fill="#1d2088" d="M58.83008,65.00098v-23.16846l-5.07227,4.12646-3.00928-3.91162,8.76904-7.04932h5.33008v30.00293h-6.01758Z"/>
      <path fill="#1d2088" d="M73.52832,59.41309c2.19238.86035,4.38379,1.37598,6.61914,1.37598,2.87988,0,6.3623-1.37598,6.3623-4.25586,0-3.1377-2.23535-4.68555-6.57715-4.68555h-2.96582v-4.72803h2.92285c3.82617,0,6.49121-1.37549,6.49121-3.95459s-1.80566-3.95459-5.20117-3.95459c-2.27832,0-4.59961.55908-6.70605,1.59033l-.34375-4.81396c2.40723-.9458,5.28711-1.50439,8.33887-1.50439,4.90039,0,9.92969,1.97705,9.92969,7.69385,0,3.43896-1.7627,5.71729-5.58789,7.17871v.08594c3.61035.47266,5.7168,3.22412,5.7168,7.13525,0,6.01758-4.72852,8.94043-11.5625,8.94043-2.5791,0-5.50195-.34375-7.78027-.98828l.34375-5.11523Z"/>
    </g>
  </symbol>
  <symbol id="KH14" viewBox="0 0 100 100">
    <rect fill="#1d2088" y="30" width="100" height="40"/>
    <rect fill="#fff" x="44.375" y="31.875" width="53.75" height="36.25"/>
    <g>
      <path fill="#fff" d="M15.94873,65l-6.74072-8.70117h-.05371v8.70117h-3.75977v-18.74512h3.75977v8.05664l6.76758-8.05664h4.61914l-7.70752,8.83594,8.02979,9.90918h-4.91455Z"/>
      <path fill="#fff" d="M34.59082,65v-8.21777h-7.51953v8.21777h-3.75977v-18.74512h3.75977v7.57324h7.51953v-7.57324h3.75977v18.74512h-3.75977Z"/>
    </g>
    <g>
      <path fill="#1d2088" d="M58.83008,65.00098v-23.16846l-5.07227,4.12646-3.00928-3.91162,8.76904-7.04932h5.33008v30.00293h-6.01758Z"/>
      <path fill="#1d2088" d="M84.87598,65.00098v-6.23242h-12.93848v-4.85742l11.21875-18.91309h7.47949v19.2998h3.8252v4.4707h-3.8252v6.23242h-5.75977ZM84.87598,41.27393h-.08594l-7.43652,13.02393h7.52246v-13.02393Z"/>
    </g>
  </symbol>
  <symbol id="KH15" viewBox="0 0 100 100">
    <rect fill="#1d2088" y="30" width="100" height="40"/>
    <rect fill="#fff" x="44.375" y="31.875" width="53.75" height="36.25"/>
    <g>
      <path fill="#fff" d="M15.94873,65l-6.74072-8.70117h-.05371v8.70117h-3.75977v-18.74512h3.75977v8.05664l6.76758-8.05664h4.61914l-7.70752,8.83594,8.02979,9.90918h-4.91455Z"/>
      <path fill="#fff" d="M34.59082,65v-8.21777h-7.51953v8.21777h-3.75977v-18.74512h3.75977v7.57324h7.51953v-7.57324h3.75977v18.74512h-3.75977Z"/>
    </g>
    <g>
      <path fill="#1d2088" d="M58.83008,65.00098v-23.16846l-5.07227,4.12646-3.00928-3.91162,8.76904-7.04932h5.33008v30.00293h-6.01758Z"/>
      <path fill="#1d2088" d="M74.47363,59.28418c2.49316,1.0752,4.3418,1.50488,6.06055,1.50488,3.82617,0,6.49121-1.8916,6.49121-5.28711,0-3.30957-2.62207-5.20166-6.87793-5.20166-1.84766,0-3.61035.2583-5.37305.81689l.30078-16.11914h17.2373v4.47021h-11.56348l-.12891,6.40479c1.03223-.17188,1.67676-.30078,2.75098-.30078,5.37305,0,9.67188,2.96582,9.67188,9.71484,0,6.14648-4.4707,10.22949-11.69141,10.22949-1.93457,0-4.72852-.30078-7.00684-.85938l.12891-5.37305Z"/>
    </g>
  </symbol>
  <symbol id="KH16" viewBox="0 0 100 100">
    <rect fill="#1d2088" y="30" width="100" height="40"/>
    <rect fill="#fff" x="44.375" y="31.875" width="53.75" height="36.25"/>
    <g>
      <path fill="#fff" d="M15.94873,65l-6.74072-8.70117h-.05371v8.70117h-3.75977v-18.74512h3.75977v8.05664l6.76758-8.05664h4.61914l-7.70752,8.83594,8.02979,9.90918h-4.91455Z"/>
      <path fill="#fff" d="M34.59082,65v-8.21777h-7.51953v8.21777h-3.75977v-18.74512h3.75977v7.57324h7.51953v-7.57324h3.75977v18.74512h-3.75977Z"/>
    </g>
    <g>
      <path fill="#1d2088" d="M58.83008,65.00098v-23.16846l-5.07227,4.12646-3.00928-3.91162,8.76904-7.04932h5.33008v30.00293h-6.01758Z"/>
      <path fill="#1d2088" d="M91.02246,40.41406c-1.50391-.64453-3.1377-1.20361-5.24414-1.20361-4.77051,0-6.91992,4.0835-7.13477,9.28467l.08594.08594c1.41797-2.06299,3.2666-3.00879,5.8457-3.00879,5.50195,0,8.72559,3.48145,8.72559,9.15625,0,6.87695-3.52441,10.78809-9.97266,10.78809-6.70508,0-10.18652-4.42676-10.18652-13.96973,0-9.19824,3.2666-17.06445,12.33594-17.06445,2.19238,0,4.25586.34375,6.31836,1.07471l-.77344,4.85693ZM87.2832,55.67383c0-2.75098-1.0752-5.63135-4.12695-5.63135-2.49316,0-3.99707,2.10693-3.99707,5.67432,0,2.79395,1.16016,5.33008,4.16895,5.33008,2.87988,0,3.95508-2.83691,3.95508-5.37305Z"/>
    </g>
  </symbol>
  <symbol id="KH17" viewBox="0 0 100 100">
    <rect fill="#1d2088" y="30" width="100" height="40"/>
    <rect fill="#fff" x="44.375" y="31.875" width="53.75" height="36.25"/>
    <g>
      <path fill="#fff" d="M15.94873,65l-6.74072-8.70117h-.05371v8.70117h-3.75977v-18.74512h3.75977v8.05664l6.76758-8.05664h4.61914l-7.70752,8.83594,8.02979,9.90918h-4.91455Z"/>
      <path fill="#fff" d="M34.59082,65v-8.21777h-7.51953v8.21777h-3.75977v-18.74512h3.75977v7.57324h7.51953v-7.57324h3.75977v18.74512h-3.75977Z"/>
    </g>
    <g>
      <path fill="#1d2088" d="M58.83008,65.00098v-23.16846l-5.07227,4.12646-3.00928-3.91162,8.76904-7.04932h5.33008v30.00293h-6.01758Z"/>
      <path fill="#1d2088" d="M75.54883,65.00098l11.13281-25.27441h-13.28223v-4.72852h19.34277v4.98633l-10.66016,25.0166h-6.5332Z"/>
    </g>
  </symbol>
  <symbol id="KH18" viewBox="0 0 100 100">
    <rect fill="#1d2088" y="30" width="100" height="40"/>
    <rect fill="#fff" x="44.375" y="31.875" width="53.75" height="36.25"/>
    <g>
      <path fill="#fff" d="M15.94873,65l-6.74072-8.70117h-.05371v8.70117h-3.75977v-18.74512h3.75977v8.05664l6.76758-8.05664h4.61914l-7.70752,8.83594,8.02979,9.90918h-4.91455Z"/>
      <path fill="#fff" d="M34.59082,65v-8.21777h-7.51953v8.21777h-3.75977v-18.74512h3.75977v7.57324h7.51953v-7.57324h3.75977v18.74512h-3.75977Z"/>
    </g>
    <g>
      <path fill="#1d2088" d="M58.83008,65.00098v-23.16846l-5.07227,4.12646-3.00928-3.91162,8.76904-7.04932h5.33008v30.00293h-6.01758Z"/>
      <path fill="#1d2088" d="M87.88477,48.9248c3.86816,1.80566,5.75977,4.3418,5.75977,7.90918,0,5.54492-3.8252,8.68262-10.31641,8.68262-6.44727,0-10.57324-3.00879-10.57324-8.59668,0-3.35254,1.80469-5.67383,5.50195-7.479v-.08594c-3.52539-1.59082-4.98633-4.29834-4.98633-6.96338,0-5.24414,3.91113-7.90918,9.54199-7.90918,5.54492,0,10.05859,2.36426,10.05859,7.22119,0,3.09473-2.06348,6.01758-4.98633,7.17822v.04297ZM78.77246,56.79102c0,2.4502,2.10645,4.25586,4.55566,4.25586,2.4502,0,4.29883-1.54785,4.29883-3.99805,0-2.32031-1.50488-4.04004-5.0293-5.20117-2.70801,1.29004-3.8252,2.83691-3.8252,4.94336ZM87.11133,42.69238c0-1.71924-.98926-3.73975-3.74023-3.73975-2.01953,0-4.34082,1.11768-4.34082,3.61084,0,1.89111,1.375,3.30957,4.72852,4.51318,1.58984-.55859,3.35254-2.40723,3.35254-4.38428Z"/>
    </g>
  </symbol>
  <symbol id="KH19" viewBox="0 0 100 100">
    <rect fill="#1d2088" y="30" width="100" height="40"/>
    <rect fill="#fff" x="44.375" y="31.875" width="53.75" height="36.25"/>
    <g>
      <path fill="#fff" d="M15.94873,65l-6.74072-8.70117h-.05371v8.70117h-3.75977v-18.74512h3.75977v8.05664l6.76758-8.05664h4.61914l-7.70752,8.83594,8.02979,9.90918h-4.91455Z"/>
      <path fill="#fff" d="M34.59082,65v-8.21777h-7.51953v8.21777h-3.75977v-18.74512h3.75977v7.57324h7.51953v-7.57324h3.75977v18.74512h-3.75977Z"/>
    </g>
    <g>
      <path fill="#1d2088" d="M58.83008,65.00098v-23.16846l-5.07227,4.12646-3.00928-3.91162,8.76904-7.04932h5.33008v30.00293h-6.01758Z"/>
      <path fill="#1d2088" d="M87.71289,51.41797c-1.41895,2.10645-3.2666,3.00879-5.80273,3.00879-5.75977,0-8.76855-3.69629-8.76855-9.15527,0-6.87744,3.52441-10.78906,9.97168-10.78906,6.66309,0,10.1875,4.38428,10.1875,13.96973,0,9.32812-3.35254,17.06445-12.33594,17.06445-2.19238,0-4.25586-.34375-6.31934-1.07422l.77441-4.85742c1.67578.73145,3.30957,1.2041,5.24316,1.2041,4.3418,0,6.87793-3.43945,7.13574-9.28516l-.08594-.08594ZM87.2832,44.28271c0-2.79395-1.16113-5.33008-4.21289-5.33008-2.53613,0-3.91113,2.40723-3.91113,5.37305,0,3.05176,1.28906,5.63086,4.08301,5.63086,2.96582,0,4.04102-2.75098,4.04102-5.67383Z"/>
    </g>
  </symbol>
  <symbol id="KH20" viewBox="0 0 100 100">
    <rect fill="#1d2088" y="30" width="100" height="40"/>
    <rect fill="#fff" x="44.375" y="31.875" width="53.75" height="36.25"/>
    <g>
      <path fill="#fff" d="M15.94873,65l-6.74072-8.70117h-.05371v8.70117h-3.75977v-18.74512h3.75977v8.05664l6.76758-8.05664h4.61914l-7.70752,8.83594,8.02979,9.90918h-4.91455Z"/>
      <path fill="#fff" d="M34.59082,65v-8.21777h-7.51953v8.21777h-3.75977v-18.74512h3.75977v7.57324h7.51953v-7.57324h3.75977v18.74512h-3.75977Z"/>
    </g>
    <g>
      <path fill="#1d2088" d="M49.11523,65.00098v-5.0293l3.61035-3.35254c5.76074-5.37305,9.37109-10.10107,9.37109-13.36816,0-2.5791-2.23535-4.04053-4.90039-4.04053-2.06348,0-4.34082.73096-6.92041,2.40723l-.47266-4.98633c2.75049-1.37549,5.80225-2.14893,8.89795-2.14893,5.97461,0,9.41309,3.1377,9.41309,8.76855,0,4.16943-2.40723,8.72656-11.30469,17.02246h12.25v4.72754h-19.94434Z"/>
      <path fill="#1d2088" d="M72.75488,50.08545c0-9.45654,3.39551-15.60303,10.40137-15.60303,6.87793,0,10.48828,5.41602,10.48828,15.60303,0,9.97217-3.61035,15.43115-10.48828,15.43115-6.83398,0-10.40137-4.89941-10.40137-15.43115ZM87.62695,50.08545c0-4.51318-.12891-11.13281-4.51367-11.13281-4.08301,0-4.34082,6.36182-4.34082,11.00391,0,4.81494.17188,11.09033,4.38379,11.09033,4.3418,0,4.4707-6.49121,4.4707-10.96143Z"/>
    </g>
  </symbol>
  <symbol id="KH21" viewBox="0 0 100 100">
    <rect fill="#1d2088" y="30" width="100" height="40"/>
    <rect fill="#fff" x="44.375" y="31.875" width="53.75" height="36.25"/>
    <g>
      <path fill="#fff" d="M15.94873,65l-6.74072-8.70117h-.05371v8.70117h-3.75977v-18.74512h3.75977v8.05664l6.76758-8.05664h4.61914l-7.70752,8.83594,8.02979,9.90918h-4.91455Z"/>
      <path fill="#fff" d="M34.59082,65v-8.21777h-7.51953v8.21777h-3.75977v-18.74512h3.75977v7.57324h7.51953v-7.57324h3.75977v18.74512h-3.75977Z"/>
    </g>
    <g>
      <path fill="#1d2088" d="M49.11523,65.00098v-5.0293l3.61035-3.35254c5.76074-5.37305,9.37109-10.10107,9.37109-13.36816,0-2.5791-2.23535-4.04053-4.90039-4.04053-2.06348,0-4.34082.73096-6.92041,2.40723l-.47266-4.98633c2.75049-1.37549,5.80225-2.14893,8.89795-2.14893,5.97461,0,9.41309,3.1377,9.41309,8.76855,0,4.16943-2.40723,8.72656-11.30469,17.02246h12.25v4.72754h-19.94434Z"/>
      <path fill="#1d2088" d="M82.72656,65.00098v-23.16846l-5.07227,4.12646-3.00879-3.91162,8.76855-7.04932h5.33008v30.00293h-6.01758Z"/>
    </g>
  </symbol>
  <symbol id="KH22" viewBox="0 0 100 100">
    <rect fill="#1d2088" y="30" width="100" height="40"/>
    <rect fill="#fff" x="44.375" y="31.875" width="53.75" height="36.25"/>
    <g>
      <path fill="#fff" d="M15.94873,65l-6.74072-8.70117h-.05371v8.70117h-3.75977v-18.74512h3.75977v8.05664l6.76758-8.05664h4.61914l-7.70752,8.83594,8.02979,9.90918h-4.91455Z"/>
      <path fill="#fff" d="M34.59082,65v-8.21777h-7.51953v8.21777h-3.75977v-18.74512h3.75977v7.57324h7.51953v-7.57324h3.75977v18.74512h-3.75977Z"/>
    </g>
    <g>
      <path fill="#1d2088" d="M49.11523,65.00098v-5.0293l3.61035-3.35254c5.76074-5.37305,9.37109-10.10107,9.37109-13.36816,0-2.5791-2.23535-4.04053-4.90039-4.04053-2.06348,0-4.34082.73096-6.92041,2.40723l-.47266-4.98633c2.75049-1.37549,5.80225-2.14893,8.89795-2.14893,5.97461,0,9.41309,3.1377,9.41309,8.76855,0,4.16943-2.40723,8.72656-11.30469,17.02246h12.25v4.72754h-19.94434Z"/>
      <path fill="#1d2088" d="M73.0127,65.00098v-5.0293l3.61035-3.35254c5.75977-5.37305,9.37012-10.10107,9.37012-13.36816,0-2.5791-2.23438-4.04053-4.89941-4.04053-2.06348,0-4.3418.73096-6.9209,2.40723l-.47266-4.98633c2.75098-1.37549,5.80273-2.14893,8.89746-2.14893,5.97461,0,9.41406,3.1377,9.41406,8.76855,0,4.16943-2.40723,8.72656-11.30566,17.02246h12.25098v4.72754h-19.94434Z"/>
    </g>
  </symbol>
  <symbol id="KH23" viewBox="0 0 100 100">
    <rect fill="#1d2088" y="30" width="100" height="40"/>
    <rect fill="#fff" x="44.375" y="31.875" width="53.75" height="36.25"/>
    <g>
      <path fill="#fff" d="M15.94873,65l-6.74072-8.70117h-.05371v8.70117h-3.75977v-18.74512h3.75977v8.05664l6.76758-8.05664h4.61914l-7.70752,8.83594,8.02979,9.90918h-4.91455Z"/>
      <path fill="#fff" d="M34.59082,65v-8.21777h-7.51953v8.21777h-3.75977v-18.74512h3.75977v7.57324h7.51953v-7.57324h3.75977v18.74512h-3.75977Z"/>
    </g>
    <g>
      <path fill="#1d2088" d="M49.11523,65.00098v-5.0293l3.61035-3.35254c5.76074-5.37305,9.37109-10.10107,9.37109-13.36816,0-2.5791-2.23535-4.04053-4.90039-4.04053-2.06348,0-4.34082.73096-6.92041,2.40723l-.47266-4.98633c2.75049-1.37549,5.80225-2.14893,8.89795-2.14893,5.97461,0,9.41309,3.1377,9.41309,8.76855,0,4.16943-2.40723,8.72656-11.30469,17.02246h12.25v4.72754h-19.94434Z"/>
      <path fill="#1d2088" d="M73.52832,59.41309c2.19238.86035,4.38379,1.37598,6.61914,1.37598,2.87988,0,6.3623-1.37598,6.3623-4.25586,0-3.1377-2.23535-4.68555-6.57715-4.68555h-2.96582v-4.72803h2.92285c3.82617,0,6.49121-1.37549,6.49121-3.95459s-1.80566-3.95459-5.20117-3.95459c-2.27832,0-4.59961.55908-6.70605,1.59033l-.34375-4.81396c2.40723-.9458,5.28711-1.50439,8.33887-1.50439,4.90039,0,9.92969,1.97705,9.92969,7.69385,0,3.43896-1.7627,5.71729-5.58789,7.17871v.08594c3.61035.47266,5.7168,3.22412,5.7168,7.13525,0,6.01758-4.72852,8.94043-11.5625,8.94043-2.5791,0-5.50195-.34375-7.78027-.98828l.34375-5.11523Z"/>
    </g>
  </symbol>
  <symbol id="KH24" viewBox="0 0 100 100">
    <rect fill="#1d2088" y="30" width="100" height="40"/>
    <rect fill="#fff" x="44.375" y="31.875" width="53.75" height="36.25"/>
    <g>
      <path fill="#fff" d="M15.94873,65l-6.74072-8.70117h-.05371v8.70117h-3.75977v-18.74512h3.75977v8.05664l6.76758-8.05664h4.61914l-7.70752,8.83594,8.02979,9.90918h-4.91455Z"/>
      <path fill="#fff" d="M34.59082,65v-8.21777h-7.51953v8.21777h-3.75977v-18.74512h3.75977v7.57324h7.51953v-7.57324h3.75977v18.74512h-3.75977Z"/>
    </g>
    <g>
      <path fill="#1d2088" d="M49.11523,65.00098v-5.0293l3.61035-3.35254c5.76074-5.37305,9.37109-10.10107,9.37109-13.36816,0-2.5791-2.23535-4.04053-4.90039-4.04053-2.06348,0-4.34082.73096-6.92041,2.40723l-.47266-4.98633c2.75049-1.37549,5.80225-2.14893,8.89795-2.14893,5.97461,0,9.41309,3.1377,9.41309,8.76855,0,4.16943-2.40723,8.72656-11.30469,17.02246h12.25v4.72754h-19.94434Z"/>
      <path fill="#1d2088" d="M84.87598,65.00098v-6.23242h-12.93848v-4.85742l11.21875-18.91309h7.47949v19.2998h3.8252v4.4707h-3.8252v6.23242h-5.75977ZM84.87598,41.27393h-.08594l-7.43652,13.02393h7.52246v-13.02393Z"/>
    </g>
  </symbol>
  <symbol id="KH25" viewBox="0 0 100 100">
    <rect fill="#1d2088" y="30" width="100" height="40"/>
    <rect fill="#fff" x="44.375" y="31.875" width="53.75" height="36.25"/>
    <g>
      <path fill="#fff" d="M15.94873,65l-6.74072-8.70117h-.05371v8.70117h-3.75977v-18.74512h3.75977v8.05664l6.76758-8.05664h4.61914l-7.70752,8.83594,8.02979,9.90918h-4.91455Z"/>
      <path fill="#fff" d="M34.59082,65v-8.21777h-7.51953v8.21777h-3.75977v-18.74512h3.75977v7.57324h7.51953v-7.57324h3.75977v18.74512h-3.75977Z"/>
    </g>
    <g>
      <path fill="#1d2088" d="M49.11523,65.00098v-5.0293l3.61035-3.35254c5.76074-5.37305,9.37109-10.10107,9.37109-13.36816,0-2.5791-2.23535-4.04053-4.90039-4.04053-2.06348,0-4.34082.73096-6.92041,2.40723l-.47266-4.98633c2.75049-1.37549,5.80225-2.14893,8.89795-2.14893,5.97461,0,9.41309,3.1377,9.41309,8.76855,0,4.16943-2.40723,8.72656-11.30469,17.02246h12.25v4.72754h-19.94434Z"/>
      <path fill="#1d2088" d="M74.47363,59.28418c2.49316,1.0752,4.3418,1.50488,6.06055,1.50488,3.82617,0,6.49121-1.8916,6.49121-5.28711,0-3.30957-2.62207-5.20166-6.87793-5.20166-1.84766,0-3.61035.2583-5.37305.81689l.30078-16.11914h17.2373v4.47021h-11.56348l-.12891,6.40479c1.03223-.17188,1.67676-.30078,2.75098-.30078,5.37305,0,9.67188,2.96582,9.67188,9.71484,0,6.14648-4.4707,10.22949-11.69141,10.22949-1.93457,0-4.72852-.30078-7.00684-.85938l.12891-5.37305Z"/>
    </g>
  </symbol>
  <symbol id="KH26" viewBox="0 0 100 100">
    <rect fill="#1d2088" y="30" width="100" height="40"/>
    <rect fill="#fff" x="44.375" y="31.875" width="53.75" height="36.25"/>
    <g>
      <path fill="#fff" d="M15.94873,65l-6.74072-8.70117h-.05371v8.70117h-3.75977v-18.74512h3.75977v8.05664l6.76758-8.05664h4.61914l-7.70752,8.83594,8.02979,9.90918h-4.91455Z"/>
      <path fill="#fff" d="M34.59082,65v-8.21777h-7.51953v8.21777h-3.75977v-18.74512h3.75977v7.57324h7.51953v-7.57324h3.75977v18.74512h-3.75977Z"/>
    </g>
    <g>
      <path fill="#1d2088" d="M49.11523,65.00098v-5.0293l3.61035-3.35254c5.76074-5.37305,9.37109-10.10107,9.37109-13.36816,0-2.5791-2.23535-4.04053-4.90039-4.04053-2.06348,0-4.34082.73096-6.92041,2.40723l-.47266-4.98633c2.75049-1.37549,5.80225-2.14893,8.89795-2.14893,5.97461,0,9.41309,3.1377,9.41309,8.76855,0,4.16943-2.40723,8.72656-11.30469,17.02246h12.25v4.72754h-19.94434Z"/>
      <path fill="#1d2088" d="M91.02246,40.41406c-1.50391-.64453-3.1377-1.20361-5.24414-1.20361-4.77051,0-6.91992,4.0835-7.13477,9.28467l.08594.08594c1.41797-2.06299,3.2666-3.00879,5.8457-3.00879,5.50195,0,8.72559,3.48145,8.72559,9.15625,0,6.87695-3.52441,10.78809-9.97266,10.78809-6.70508,0-10.18652-4.42676-10.18652-13.96973,0-9.19824,3.2666-17.06445,12.33594-17.06445,2.19238,0,4.25586.34375,6.31836,1.07471l-.77344,4.85693ZM87.2832,55.67383c0-2.75098-1.0752-5.63135-4.12695-5.63135-2.49316,0-3.99707,2.10693-3.99707,5.67432,0,2.79395,1.16016,5.33008,4.16895,5.33008,2.87988,0,3.95508-2.83691,3.95508-5.37305Z"/>
    </g>
  </symbol>
  <symbol id="KH27" viewBox="0 0 100 100">
    <rect fill="#1d2088" y="30" width="100" height="40"/>
    <rect fill="#fff" x="44.375" y="31.875" width="53.75" height="36.25"/>
    <g>
      <path fill="#fff" d="M15.94873,65l-6.74072-8.70117h-.05371v8.70117h-3.75977v-18.74512h3.75977v8.05664l6.76758-8.05664h4.61914l-7.70752,8.83594,8.02979,9.90918h-4.91455Z"/>
      <path fill="#fff" d="M34.59082,65v-8.21777h-7.51953v8.21777h-3.75977v-18.74512h3.75977v7.57324h7.51953v-7.57324h3.75977v18.74512h-3.75977Z"/>
    </g>
    <g>
      <path fill="#1d2088" d="M49.11523,65.00098v-5.0293l3.61035-3.35254c5.76074-5.37305,9.37109-10.10107,9.37109-13.36816,0-2.5791-2.23535-4.04053-4.90039-4.04053-2.06348,0-4.34082.73096-6.92041,2.40723l-.47266-4.98633c2.75049-1.37549,5.80225-2.14893,8.89795-2.14893,5.97461,0,9.41309,3.1377,9.41309,8.76855,0,4.16943-2.40723,8.72656-11.30469,17.02246h12.25v4.72754h-19.94434Z"/>
      <path fill="#1d2088" d="M75.54883,65.00098l11.13281-25.27441h-13.28223v-4.72852h19.34277v4.98633l-10.66016,25.0166h-6.5332Z"/>
    </g>
  </symbol>
  <symbol id="KH28" viewBox="0 0 100 100">
    <rect fill="#1d2088" y="30" width="100" height="40"/>
    <rect fill="#fff" x="44.375" y="31.875" width="53.75" height="36.25"/>
    <g>
      <path fill="#fff" d="M15.94873,65l-6.74072-8.70117h-.05371v8.70117h-3.75977v-18.74512h3.75977v8.05664l6.76758-8.05664h4.61914l-7.70752,8.83594,8.02979,9.90918h-4.91455Z"/>
      <path fill="#fff" d="M34.59082,65v-8.21777h-7.51953v8.21777h-3.75977v-18.74512h3.75977v7.57324h7.51953v-7.57324h3.75977v18.74512h-3.75977Z"/>
    </g>
    <g>
      <path fill="#1d2088" d="M49.11523,65.00098v-5.0293l3.61035-3.35254c5.76074-5.37305,9.37109-10.10107,9.37109-13.36816,0-2.5791-2.23535-4.04053-4.90039-4.04053-2.06348,0-4.34082.73096-6.92041,2.40723l-.47266-4.98633c2.75049-1.37549,5.80225-2.14893,8.89795-2.14893,5.97461,0,9.41309,3.1377,9.41309,8.76855,0,4.16943-2.40723,8.72656-11.30469,17.02246h12.25v4.72754h-19.94434Z"/>
      <path fill="#1d2088" d="M87.88477,48.9248c3.86816,1.80566,5.75977,4.3418,5.75977,7.90918,0,5.54492-3.8252,8.68262-10.31641,8.68262-6.44727,0-10.57324-3.00879-10.57324-8.59668,0-3.35254,1.80469-5.67383,5.50195-7.479v-.08594c-3.52539-1.59082-4.98633-4.29834-4.98633-6.96338,0-5.24414,3.91113-7.90918,9.54199-7.90918,5.54492,0,10.05859,2.36426,10.05859,7.22119,0,3.09473-2.06348,6.01758-4.98633,7.17822v.04297ZM78.77246,56.79102c0,2.4502,2.10645,4.25586,4.55566,4.25586,2.4502,0,4.29883-1.54785,4.29883-3.99805,0-2.32031-1.50488-4.04004-5.0293-5.20117-2.70801,1.29004-3.8252,2.83691-3.8252,4.94336ZM87.11133,42.69238c0-1.71924-.98926-3.73975-3.74023-3.73975-2.01953,0-4.34082,1.11768-4.34082,3.61084,0,1.89111,1.375,3.30957,4.72852,4.51318,1.58984-.55859,3.35254-2.40723,3.35254-4.38428Z"/>
    </g>
  </symbol>
  <symbol id="KH29" viewBox="0 0 100 100">
    <rect fill="#1d2088" y="30" width="100" height="40"/>
    <rect fill="#fff" x="44.375" y="31.875" width="53.75" height="36.25"/>
    <g>
      <path fill="#fff" d="M15.94873,65l-6.74072-8.70117h-.05371v8.70117h-3.75977v-18.74512h3.75977v8.05664l6.76758-8.05664h4.61914l-7.70752,8.83594,8.02979,9.90918h-4.91455Z"/>
      <path fill="#fff" d="M34.59082,65v-8.21777h-7.51953v8.21777h-3.75977v-18.74512h3.75977v7.57324h7.51953v-7.57324h3.75977v18.74512h-3.75977Z"/>
    </g>
    <g>
      <path fill="#1d2088" d="M49.11523,65.00098v-5.0293l3.61035-3.35254c5.76074-5.37305,9.37109-10.10107,9.37109-13.36816,0-2.5791-2.23535-4.04053-4.90039-4.04053-2.06348,0-4.34082.73096-6.92041,2.40723l-.47266-4.98633c2.75049-1.37549,5.80225-2.14893,8.89795-2.14893,5.97461,0,9.41309,3.1377,9.41309,8.76855,0,4.16943-2.40723,8.72656-11.30469,17.02246h12.25v4.72754h-19.94434Z"/>
      <path fill="#1d2088" d="M87.71289,51.41797c-1.41895,2.10645-3.2666,3.00879-5.80273,3.00879-5.75977,0-8.76855-3.69629-8.76855-9.15527,0-6.87744,3.52441-10.78906,9.97168-10.78906,6.66309,0,10.1875,4.38428,10.1875,13.96973,0,9.32812-3.35254,17.06445-12.33594,17.06445-2.19238,0-4.25586-.34375-6.31934-1.07422l.77441-4.85742c1.67578.73145,3.30957,1.2041,5.24316,1.2041,4.3418,0,6.87793-3.43945,7.13574-9.28516l-.08594-.08594ZM87.2832,44.28271c0-2.79395-1.16113-5.33008-4.21289-5.33008-2.53613,0-3.91113,2.40723-3.91113,5.37305,0,3.05176,1.28906,5.63086,4.08301,5.63086,2.96582,0,4.04102-2.75098,4.04102-5.67383Z"/>
    </g>
  </symbol>
  <symbol id="KH30" viewBox="0 0 100 100">
    <rect fill="#1d2088" y="30" width="100" height="40"/>
    <rect fill="#fff" x="44.375" y="31.875" width="53.75" height="36.25"/>
    <g>
      <path fill="#fff" d="M15.94873,65l-6.74072-8.70117h-.05371v8.70117h-3.75977v-18.74512h3.75977v8.05664l6.76758-8.05664h4.61914l-7.70752,8.83594,8.02979,9.90918h-4.91455Z"/>
      <path fill="#fff" d="M34.59082,65v-8.21777h-7.51953v8.21777h-3.75977v-18.74512h3.75977v7.57324h7.51953v-7.57324h3.75977v18.74512h-3.75977Z"/>
    </g>
    <g>
      <path fill="#1d2088" d="M49.63135,59.41309c2.19189.86035,4.38428,1.37598,6.61963,1.37598,2.87988,0,6.36133-1.37598,6.36133-4.25586,0-3.1377-2.23535-4.68555-6.57617-4.68555h-2.96582v-4.72803h2.92285c3.8252,0,6.49023-1.37549,6.49023-3.95459s-1.80566-3.95459-5.20117-3.95459c-2.27832,0-4.59961.55908-6.70557,1.59033l-.34375-4.81396c2.40674-.9458,5.28662-1.50439,8.33936-1.50439,4.89941,0,9.92871,1.97705,9.92871,7.69385,0,3.43896-1.76172,5.71729-5.58789,7.17871v.08594c3.61035.47266,5.7168,3.22412,5.7168,7.13525,0,6.01758-4.72754,8.94043-11.5625,8.94043-2.5791,0-5.50195-.34375-7.78027-.98828l.34424-5.11523Z"/>
      <path fill="#1d2088" d="M72.75488,50.08545c0-9.45654,3.39551-15.60303,10.40137-15.60303,6.87793,0,10.48828,5.41602,10.48828,15.60303,0,9.97217-3.61035,15.43115-10.48828,15.43115-6.83398,0-10.40137-4.89941-10.40137-15.43115ZM87.62695,50.08545c0-4.51318-.12891-11.13281-4.51367-11.13281-4.08301,0-4.34082,6.36182-4.34082,11.00391,0,4.81494.17188,11.09033,4.38379,11.09033,4.3418,0,4.4707-6.49121,4.4707-10.96143Z"/>
    </g>
  </symbol>
  <symbol id="KH31" viewBox="0 0 100 100">
    <rect fill="#1d2088" y="30" width="100" height="40"/>
    <rect fill="#fff" x="44.375" y="31.875" width="53.75" height="36.25"/>
    <g>
      <path fill="#fff" d="M15.94873,65l-6.74072-8.70117h-.05371v8.70117h-3.75977v-18.74512h3.75977v8.05664l6.76758-8.05664h4.61914l-7.70752,8.83594,8.02979,9.90918h-4.91455Z"/>
      <path fill="#fff" d="M34.59082,65v-8.21777h-7.51953v8.21777h-3.75977v-18.74512h3.75977v7.57324h7.51953v-7.57324h3.75977v18.74512h-3.75977Z"/>
    </g>
    <g>
      <path fill="#1d2088" d="M49.63135,59.41309c2.19189.86035,4.38428,1.37598,6.61963,1.37598,2.87988,0,6.36133-1.37598,6.36133-4.25586,0-3.1377-2.23535-4.68555-6.57617-4.68555h-2.96582v-4.72803h2.92285c3.8252,0,6.49023-1.37549,6.49023-3.95459s-1.80566-3.95459-5.20117-3.95459c-2.27832,0-4.59961.55908-6.70557,1.59033l-.34375-4.81396c2.40674-.9458,5.28662-1.50439,8.33936-1.50439,4.89941,0,9.92871,1.97705,9.92871,7.69385,0,3.43896-1.76172,5.71729-5.58789,7.17871v.08594c3.61035.47266,5.7168,3.22412,5.7168,7.13525,0,6.01758-4.72754,8.94043-11.5625,8.94043-2.5791,0-5.50195-.34375-7.78027-.98828l.34424-5.11523Z"/>
      <path fill="#1d2088" d="M82.72656,65.00098v-23.16846l-5.07227,4.12646-3.00879-3.91162,8.76855-7.04932h5.33008v30.00293h-6.01758Z"/>
    </g>
  </symbol>
  <symbol id="KH32" viewBox="0 0 100 100">
    <rect fill="#1d2088" y="30" width="100" height="40"/>
    <rect fill="#fff" x="44.375" y="31.875" width="53.75" height="36.25"/>
    <g>
      <path fill="#fff" d="M15.94873,65l-6.74072-8.70117h-.05371v8.70117h-3.75977v-18.74512h3.75977v8.05664l6.76758-8.05664h4.61914l-7.70752,8.83594,8.02979,9.90918h-4.91455Z"/>
      <path fill="#fff" d="M34.59082,65v-8.21777h-7.51953v8.21777h-3.75977v-18.74512h3.75977v7.57324h7.51953v-7.57324h3.75977v18.74512h-3.75977Z"/>
    </g>
    <g>
      <path fill="#1d2088" d="M49.63135,59.41309c2.19189.86035,4.38428,1.37598,6.61963,1.37598,2.87988,0,6.36133-1.37598,6.36133-4.25586,0-3.1377-2.23535-4.68555-6.57617-4.68555h-2.96582v-4.72803h2.92285c3.8252,0,6.49023-1.37549,6.49023-3.95459s-1.80566-3.95459-5.20117-3.95459c-2.27832,0-4.59961.55908-6.70557,1.59033l-.34375-4.81396c2.40674-.9458,5.28662-1.50439,8.33936-1.50439,4.89941,0,9.92871,1.97705,9.92871,7.69385,0,3.43896-1.76172,5.71729-5.58789,7.17871v.08594c3.61035.47266,5.7168,3.22412,5.7168,7.13525,0,6.01758-4.72754,8.94043-11.5625,8.94043-2.5791,0-5.50195-.34375-7.78027-.98828l.34424-5.11523Z"/>
      <path fill="#1d2088" d="M73.0127,65.00098v-5.0293l3.61035-3.35254c5.75977-5.37305,9.37012-10.10107,9.37012-13.36816,0-2.5791-2.23438-4.04053-4.89941-4.04053-2.06348,0-4.3418.73096-6.9209,2.40723l-.47266-4.98633c2.75098-1.37549,5.80273-2.14893,8.89746-2.14893,5.97461,0,9.41406,3.1377,9.41406,8.76855,0,4.16943-2.40723,8.72656-11.30566,17.02246h12.25098v4.72754h-19.94434Z"/>
    </g>
  </symbol>
  <symbol id="KH33" viewBox="0 0 100 100">
    <rect fill="#1d2088" y="30" width="100" height="40"/>
    <rect fill="#fff" x="44.375" y="31.875" width="53.75" height="36.25"/>
    <g>
      <path fill="#fff" d="M15.94873,65l-6.74072-8.70117h-.05371v8.70117h-3.75977v-18.74512h3.75977v8.05664l6.76758-8.05664h4.61914l-7.70752,8.83594,8.02979,9.90918h-4.91455Z"/>
      <path fill="#fff" d="M34.59082,65v-8.21777h-7.51953v8.21777h-3.75977v-18.74512h3.75977v7.57324h7.51953v-7.57324h3.75977v18.74512h-3.75977Z"/>
    </g>
    <g>
      <path fill="#1d2088" d="M49.63135,59.41309c2.19189.86035,4.38428,1.37598,6.61963,1.37598,2.87988,0,6.36133-1.37598,6.36133-4.25586,0-3.1377-2.23535-4.68555-6.57617-4.68555h-2.96582v-4.72803h2.92285c3.8252,0,6.49023-1.37549,6.49023-3.95459s-1.80566-3.95459-5.20117-3.95459c-2.27832,0-4.59961.55908-6.70557,1.59033l-.34375-4.81396c2.40674-.9458,5.28662-1.50439,8.33936-1.50439,4.89941,0,9.92871,1.97705,9.92871,7.69385,0,3.43896-1.76172,5.71729-5.58789,7.17871v.08594c3.61035.47266,5.7168,3.22412,5.7168,7.13525,0,6.01758-4.72754,8.94043-11.5625,8.94043-2.5791,0-5.50195-.34375-7.78027-.98828l.34424-5.11523Z"/>
      <path fill="#1d2088" d="M73.52832,59.41309c2.19238.86035,4.38379,1.37598,6.61914,1.37598,2.87988,0,6.3623-1.37598,6.3623-4.25586,0-3.1377-2.23535-4.68555-6.57715-4.68555h-2.96582v-4.72803h2.92285c3.82617,0,6.49121-1.37549,6.49121-3.95459s-1.80566-3.95459-5.20117-3.95459c-2.27832,0-4.59961.55908-6.70605,1.59033l-.34375-4.81396c2.40723-.9458,5.28711-1.50439,8.33887-1.50439,4.90039,0,9.92969,1.97705,9.92969,7.69385,0,3.43896-1.7627,5.71729-5.58789,7.17871v.08594c3.61035.47266,5.7168,3.22412,5.7168,7.13525,0,6.01758-4.72852,8.94043-11.5625,8.94043-2.5791,0-5.50195-.34375-7.78027-.98828l.34375-5.11523Z"/>
    </g>
  </symbol>
  <symbol id="KH34" viewBox="0 0 100 100">
    <rect fill="#1d2088" y="30" width="100" height="40"/>
    <rect fill="#fff" x="44.375" y="31.875" width="53.75" height="36.25"/>
    <g>
      <path fill="#fff" d="M15.94873,65l-6.74072-8.70117h-.05371v8.70117h-3.75977v-18.74512h3.75977v8.05664l6.76758-8.05664h4.61914l-7.70752,8.83594,8.02979,9.90918h-4.91455Z"/>
      <path fill="#fff" d="M34.59082,65v-8.21777h-7.51953v8.21777h-3.75977v-18.74512h3.75977v7.57324h7.51953v-7.57324h3.75977v18.74512h-3.75977Z"/>
    </g>
    <g>
      <path fill="#1d2088" d="M49.63135,59.41309c2.19189.86035,4.38428,1.37598,6.61963,1.37598,2.87988,0,6.36133-1.37598,6.36133-4.25586,0-3.1377-2.23535-4.68555-6.57617-4.68555h-2.96582v-4.72803h2.92285c3.8252,0,6.49023-1.37549,6.49023-3.95459s-1.80566-3.95459-5.20117-3.95459c-2.27832,0-4.59961.55908-6.70557,1.59033l-.34375-4.81396c2.40674-.9458,5.28662-1.50439,8.33936-1.50439,4.89941,0,9.92871,1.97705,9.92871,7.69385,0,3.43896-1.76172,5.71729-5.58789,7.17871v.08594c3.61035.47266,5.7168,3.22412,5.7168,7.13525,0,6.01758-4.72754,8.94043-11.5625,8.94043-2.5791,0-5.50195-.34375-7.78027-.98828l.34424-5.11523Z"/>
      <path fill="#1d2088" d="M84.87598,65.00098v-6.23242h-12.93848v-4.85742l11.21875-18.91309h7.47949v19.2998h3.8252v4.4707h-3.8252v6.23242h-5.75977ZM84.87598,41.27393h-.08594l-7.43652,13.02393h7.52246v-13.02393Z"/>
    </g>
  </symbol>
  <symbol id="KH35" viewBox="0 0 100 100">
    <rect fill="#1d2088" y="30" width="100" height="40"/>
    <rect fill="#fff" x="44.375" y="31.875" width="53.75" height="36.25"/>
    <g>
      <path fill="#fff" d="M15.94873,65l-6.74072-8.70117h-.05371v8.70117h-3.75977v-18.74512h3.75977v8.05664l6.76758-8.05664h4.61914l-7.70752,8.83594,8.02979,9.90918h-4.91455Z"/>
      <path fill="#fff" d="M34.59082,65v-8.21777h-7.51953v8.21777h-3.75977v-18.74512h3.75977v7.57324h7.51953v-7.57324h3.75977v18.74512h-3.75977Z"/>
    </g>
    <g>
      <path fill="#1d2088" d="M49.63135,59.41309c2.19189.86035,4.38428,1.37598,6.61963,1.37598,2.87988,0,6.36133-1.37598,6.36133-4.25586,0-3.1377-2.23535-4.68555-6.57617-4.68555h-2.96582v-4.72803h2.92285c3.8252,0,6.49023-1.37549,6.49023-3.95459s-1.80566-3.95459-5.20117-3.95459c-2.27832,0-4.59961.55908-6.70557,1.59033l-.34375-4.81396c2.40674-.9458,5.28662-1.50439,8.33936-1.50439,4.89941,0,9.92871,1.97705,9.92871,7.69385,0,3.43896-1.76172,5.71729-5.58789,7.17871v.08594c3.61035.47266,5.7168,3.22412,5.7168,7.13525,0,6.01758-4.72754,8.94043-11.5625,8.94043-2.5791,0-5.50195-.34375-7.78027-.98828l.34424-5.11523Z"/>
      <path fill="#1d2088" d="M74.47363,59.28418c2.49316,1.0752,4.3418,1.50488,6.06055,1.50488,3.82617,0,6.49121-1.8916,6.49121-5.28711,0-3.30957-2.62207-5.20166-6.87793-5.20166-1.84766,0-3.61035.2583-5.37305.81689l.30078-16.11914h17.2373v4.47021h-11.56348l-.12891,6.40479c1.03223-.17188,1.67676-.30078,2.75098-.30078,5.37305,0,9.67188,2.96582,9.67188,9.71484,0,6.14648-4.4707,10.22949-11.69141,10.22949-1.93457,0-4.72852-.30078-7.00684-.85938l.12891-5.37305Z"/>
    </g>
  </symbol>
  <symbol id="KH36" viewBox="0 0 100 100">
    <rect fill="#1d2088" y="30" width="100" height="40"/>
    <rect fill="#fff" x="44.375" y="31.875" width="53.75" height="36.25"/>
    <g>
      <path fill="#fff" d="M15.94873,65l-6.74072-8.70117h-.05371v8.70117h-3.75977v-18.74512h3.75977v8.05664l6.76758-8.05664h4.61914l-7.70752,8.83594,8.02979,9.90918h-4.91455Z"/>
      <path fill="#fff" d="M34.59082,65v-8.21777h-7.51953v8.21777h-3.75977v-18.74512h3.75977v7.57324h7.51953v-7.57324h3.75977v18.74512h-3.75977Z"/>
    </g>
    <g>
      <path fill="#1d2088" d="M49.63135,59.41309c2.19189.86035,4.38428,1.37598,6.61963,1.37598,2.87988,0,6.36133-1.37598,6.36133-4.25586,0-3.1377-2.23535-4.68555-6.57617-4.68555h-2.96582v-4.72803h2.92285c3.8252,0,6.49023-1.37549,6.49023-3.95459s-1.80566-3.95459-5.20117-3.95459c-2.27832,0-4.59961.55908-6.70557,1.59033l-.34375-4.81396c2.40674-.9458,5.28662-1.50439,8.33936-1.50439,4.89941,0,9.92871,1.97705,9.92871,7.69385,0,3.43896-1.76172,5.71729-5.58789,7.17871v.08594c3.61035.47266,5.7168,3.22412,5.7168,7.13525,0,6.01758-4.72754,8.94043-11.5625,8.94043-2.5791,0-5.50195-.34375-7.78027-.98828l.34424-5.11523Z"/>
      <path fill="#1d2088" d="M91.02246,40.41406c-1.50391-.64453-3.1377-1.20361-5.24414-1.20361-4.77051,0-6.91992,4.0835-7.13477,9.28467l.08594.08594c1.41797-2.06299,3.2666-3.00879,5.8457-3.00879,5.50195,0,8.72559,3.48145,8.72559,9.15625,0,6.87695-3.52441,10.78809-9.97266,10.78809-6.70508,0-10.18652-4.42676-10.18652-13.96973,0-9.19824,3.2666-17.06445,12.33594-17.06445,2.19238,0,4.25586.34375,6.31836,1.07471l-.77344,4.85693ZM87.2832,55.67383c0-2.75098-1.0752-5.63135-4.12695-5.63135-2.49316,0-3.99707,2.10693-3.99707,5.67432,0,2.79395,1.16016,5.33008,4.16895,5.33008,2.87988,0,3.95508-2.83691,3.95508-5.37305Z"/>
    </g>
  </symbol>
  <symbol id="KH37" viewBox="0 0 100 100">
    <rect fill="#1d2088" y="30" width="100" height="40"/>
    <rect fill="#fff" x="44.375" y="31.875" width="53.75" height="36.25"/>
    <g>
      <path fill="#fff" d="M15.94873,65l-6.74072-8.70117h-.05371v8.70117h-3.75977v-18.74512h3.75977v8.05664l6.76758-8.05664h4.61914l-7.70752,8.83594,8.02979,9.90918h-4.91455Z"/>
      <path fill="#fff" d="M34.59082,65v-8.21777h-7.51953v8.21777h-3.75977v-18.74512h3.75977v7.57324h7.51953v-7.57324h3.75977v18.74512h-3.75977Z"/>
    </g>
    <g>
      <path fill="#1d2088" d="M49.63135,59.41309c2.19189.86035,4.38428,1.37598,6.61963,1.37598,2.87988,0,6.36133-1.37598,6.36133-4.25586,0-3.1377-2.23535-4.68555-6.57617-4.68555h-2.96582v-4.72803h2.92285c3.8252,0,6.49023-1.37549,6.49023-3.95459s-1.80566-3.95459-5.20117-3.95459c-2.27832,0-4.59961.55908-6.70557,1.59033l-.34375-4.81396c2.40674-.9458,5.28662-1.50439,8.33936-1.50439,4.89941,0,9.92871,1.97705,9.92871,7.69385,0,3.43896-1.76172,5.71729-5.58789,7.17871v.08594c3.61035.47266,5.7168,3.22412,5.7168,7.13525,0,6.01758-4.72754,8.94043-11.5625,8.94043-2.5791,0-5.50195-.34375-7.78027-.98828l.34424-5.11523Z"/>
      <path fill="#1d2088" d="M75.54883,65.00098l11.13281-25.27441h-13.28223v-4.72852h19.34277v4.98633l-10.66016,25.0166h-6.5332Z"/>
    </g>
  </symbol>
  <symbol id="KH38" viewBox="0 0 100 100">
    <rect fill="#1d2088" y="30" width="100" height="40"/>
    <rect fill="#fff" x="44.375" y="31.875" width="53.75" height="36.25"/>
    <g>
      <path fill="#fff" d="M15.94873,65l-6.74072-8.70117h-.05371v8.70117h-3.75977v-18.74512h3.75977v8.05664l6.76758-8.05664h4.61914l-7.70752,8.83594,8.02979,9.90918h-4.91455Z"/>
      <path fill="#fff" d="M34.59082,65v-8.21777h-7.51953v8.21777h-3.75977v-18.74512h3.75977v7.57324h7.51953v-7.57324h3.75977v18.74512h-3.75977Z"/>
    </g>
    <g>
      <path fill="#1d2088" d="M49.63135,59.41309c2.19189.86035,4.38428,1.37598,6.61963,1.37598,2.87988,0,6.36133-1.37598,6.36133-4.25586,0-3.1377-2.23535-4.68555-6.57617-4.68555h-2.96582v-4.72803h2.92285c3.8252,0,6.49023-1.37549,6.49023-3.95459s-1.80566-3.95459-5.20117-3.95459c-2.27832,0-4.59961.55908-6.70557,1.59033l-.34375-4.81396c2.40674-.9458,5.28662-1.50439,8.33936-1.50439,4.89941,0,9.92871,1.97705,9.92871,7.69385,0,3.43896-1.76172,5.71729-5.58789,7.17871v.08594c3.61035.47266,5.7168,3.22412,5.7168,7.13525,0,6.01758-4.72754,8.94043-11.5625,8.94043-2.5791,0-5.50195-.34375-7.78027-.98828l.34424-5.11523Z"/>
      <path fill="#1d2088" d="M87.88477,48.9248c3.86816,1.80566,5.75977,4.3418,5.75977,7.90918,0,5.54492-3.8252,8.68262-10.31641,8.68262-6.44727,0-10.57324-3.00879-10.57324-8.59668,0-3.35254,1.80469-5.67383,5.50195-7.479v-.08594c-3.52539-1.59082-4.98633-4.29834-4.98633-6.96338,0-5.24414,3.91113-7.90918,9.54199-7.90918,5.54492,0,10.05859,2.36426,10.05859,7.22119,0,3.09473-2.06348,6.01758-4.98633,7.17822v.04297ZM78.77246,56.79102c0,2.4502,2.10645,4.25586,4.55566,4.25586,2.4502,0,4.29883-1.54785,4.29883-3.99805,0-2.32031-1.50488-4.04004-5.0293-5.20117-2.70801,1.29004-3.8252,2.83691-3.8252,4.94336ZM87.11133,42.69238c0-1.71924-.98926-3.73975-3.74023-3.73975-2.01953,0-4.34082,1.11768-4.34082,3.61084,0,1.89111,1.375,3.30957,4.72852,4.51318,1.58984-.55859,3.35254-2.40723,3.35254-4.38428Z"/>
    </g>
  </symbol>
  <symbol id="KH39" viewBox="0 0 100 100">
    <rect fill="#1d2088" y="30" width="100" height="40"/>
    <rect fill="#fff" x="44.375" y="31.875" width="53.75" height="36.25"/>
    <g>
      <path fill="#fff" d="M15.94873,65l-6.74072-8.70117h-.05371v8.70117h-3.75977v-18.74512h3.75977v8.05664l6.76758-8.05664h4.61914l-7.70752,8.83594,8.02979,9.90918h-4.91455Z"/>
      <path fill="#fff" d="M34.59082,65v-8.21777h-7.51953v8.21777h-3.75977v-18.74512h3.75977v7.57324h7.51953v-7.57324h3.75977v18.74512h-3.75977Z"/>
    </g>
    <g>
      <path fill="#1d2088" d="M49.63135,59.41309c2.19189.86035,4.38428,1.37598,6.61963,1.37598,2.87988,0,6.36133-1.37598,6.36133-4.25586,0-3.1377-2.23535-4.68555-6.57617-4.68555h-2.96582v-4.72803h2.92285c3.8252,0,6.49023-1.37549,6.49023-3.95459s-1.80566-3.95459-5.20117-3.95459c-2.27832,0-4.59961.55908-6.70557,1.59033l-.34375-4.81396c2.40674-.9458,5.28662-1.50439,8.33936-1.50439,4.89941,0,9.92871,1.97705,9.92871,7.69385,0,3.43896-1.76172,5.71729-5.58789,7.17871v.08594c3.61035.47266,5.7168,3.22412,5.7168,7.13525,0,6.01758-4.72754,8.94043-11.5625,8.94043-2.5791,0-5.50195-.34375-7.78027-.98828l.34424-5.11523Z"/>
      <path fill="#1d2088" d="M87.71289,51.41797c-1.41895,2.10645-3.2666,3.00879-5.80273,3.00879-5.75977,0-8.76855-3.69629-8.76855-9.15527,0-6.87744,3.52441-10.78906,9.97168-10.78906,6.66309,0,10.1875,4.38428,10.1875,13.96973,0,9.32812-3.35254,17.06445-12.33594,17.06445-2.19238,0-4.25586-.34375-6.31934-1.07422l.77441-4.85742c1.67578.73145,3.30957,1.2041,5.24316,1.2041,4.3418,0,6.87793-3.43945,7.13574-9.28516l-.08594-.08594ZM87.2832,44.28271c0-2.79395-1.16113-5.33008-4.21289-5.33008-2.53613,0-3.91113,2.40723-3.91113,5.37305,0,3.05176,1.28906,5.63086,4.08301,5.63086,2.96582,0,4.04102-2.75098,4.04102-5.67383Z"/>
    </g>
  </symbol>
  <symbol id="KH40" viewBox="0 0 100 100">
    <rect fill="#1d2088" y="30" width="100" height="40"/>
    <rect fill="#fff" x="44.375" y="31.875" width="53.75" height="36.25"/>
    <g>
      <path fill="#fff" d="M15.94873,65l-6.74072-8.70117h-.05371v8.70117h-3.75977v-18.74512h3.75977v8.05664l6.76758-8.05664h4.61914l-7.70752,8.83594,8.02979,9.90918h-4.91455Z"/>
      <path fill="#fff" d="M34.59082,65v-8.21777h-7.51953v8.21777h-3.75977v-18.74512h3.75977v7.57324h7.51953v-7.57324h3.75977v18.74512h-3.75977Z"/>
    </g>
    <g>
      <path fill="#1d2088" d="M60.97852,65.00098v-6.23242h-12.9375v-4.85742l11.21875-18.91309h7.47949v19.2998h3.8252v4.4707h-3.8252v6.23242h-5.76074ZM60.97852,41.27393h-.08594l-7.43555,13.02393h7.52148v-13.02393Z"/>
      <path fill="#1d2088" d="M72.75488,50.08545c0-9.45654,3.39551-15.60303,10.40137-15.60303,6.87793,0,10.48828,5.41602,10.48828,15.60303,0,9.97217-3.61035,15.43115-10.48828,15.43115-6.83398,0-10.40137-4.89941-10.40137-15.43115ZM87.62695,50.08545c0-4.51318-.12891-11.13281-4.51367-11.13281-4.08301,0-4.34082,6.36182-4.34082,11.00391,0,4.81494.17188,11.09033,4.38379,11.09033,4.3418,0,4.4707-6.49121,4.4707-10.96143Z"/>
    </g>
  </symbol>
  <symbol id="KH41" viewBox="0 0 100 100">
    <rect fill="#1d2088" y="30" width="100" height="40"/>
    <rect fill="#fff" x="44.375" y="31.875" width="53.75" height="36.25"/>
    <g>
      <path fill="#fff" d="M15.94873,65l-6.74072-8.70117h-.05371v8.70117h-3.75977v-18.74512h3.75977v8.05664l6.76758-8.05664h4.61914l-7.70752,8.83594,8.02979,9.90918h-4.91455Z"/>
      <path fill="#fff" d="M34.59082,65v-8.21777h-7.51953v8.21777h-3.75977v-18.74512h3.75977v7.57324h7.51953v-7.57324h3.75977v18.74512h-3.75977Z"/>
    </g>
    <g>
      <path fill="#1d2088" d="M60.97852,65.00098v-6.23242h-12.9375v-4.85742l11.21875-18.91309h7.47949v19.2998h3.8252v4.4707h-3.8252v6.23242h-5.76074ZM60.97852,41.27393h-.08594l-7.43555,13.02393h7.52148v-13.02393Z"/>
      <path fill="#1d2088" d="M82.72656,65.00098v-23.16846l-5.07227,4.12646-3.00879-3.91162,8.76855-7.04932h5.33008v30.00293h-6.01758Z"/>
    </g>
  </symbol>
  <symbol id="KH42" viewBox="0 0 100 100">
    <rect fill="#1d2088" y="30" width="100" height="40"/>
    <rect fill="#fff" x="44.375" y="31.875" width="53.75" height="36.25"/>
    <g>
      <path fill="#fff" d="M15.94873,65l-6.74072-8.70117h-.05371v8.70117h-3.75977v-18.74512h3.75977v8.05664l6.76758-8.05664h4.61914l-7.70752,8.83594,8.02979,9.90918h-4.91455Z"/>
      <path fill="#fff" d="M34.59082,65v-8.21777h-7.51953v8.21777h-3.75977v-18.74512h3.75977v7.57324h7.51953v-7.57324h3.75977v18.74512h-3.75977Z"/>
    </g>
    <g>
      <path fill="#1d2088" d="M60.97852,65.00098v-6.23242h-12.9375v-4.85742l11.21875-18.91309h7.47949v19.2998h3.8252v4.4707h-3.8252v6.23242h-5.76074ZM60.97852,41.27393h-.08594l-7.43555,13.02393h7.52148v-13.02393Z"/>
      <path fill="#1d2088" d="M73.0127,65.00098v-5.0293l3.61035-3.35254c5.75977-5.37305,9.37012-10.10107,9.37012-13.36816,0-2.5791-2.23438-4.04053-4.89941-4.04053-2.06348,0-4.3418.73096-6.9209,2.40723l-.47266-4.98633c2.75098-1.37549,5.80273-2.14893,8.89746-2.14893,5.97461,0,9.41406,3.1377,9.41406,8.76855,0,4.16943-2.40723,8.72656-11.30566,17.02246h12.25098v4.72754h-19.94434Z"/>
    </g>
  </symbol>
  <symbol id="KH51" viewBox="0 0 100 100">
    <rect fill="#1d2088" y="30" width="100" height="40"/>
    <rect fill="#fff" x="44.375" y="31.875" width="53.75" height="36.25"/>
    <g>
      <path fill="#fff" d="M15.94873,65l-6.74072-8.70117h-.05371v8.70117h-3.75977v-18.74512h3.75977v8.05664l6.76758-8.05664h4.61914l-7.70752,8.83594,8.02979,9.90918h-4.91455Z"/>
      <path fill="#fff" d="M34.59082,65v-8.21777h-7.51953v8.21777h-3.75977v-18.74512h3.75977v7.57324h7.51953v-7.57324h3.75977v18.74512h-3.75977Z"/>
    </g>
    <g>
      <path fill="#1d2088" d="M50.57666,59.28418c2.49365,1.0752,4.34131,1.50488,6.06104,1.50488,3.8252,0,6.49023-1.8916,6.49023-5.28711,0-3.30957-2.62207-5.20166-6.87695-5.20166-1.84863,0-3.61133.2583-5.37305.81689l.30078-16.11914h17.23633v4.47021h-11.5625l-.12891,6.40479c1.03125-.17188,1.67676-.30078,2.75098-.30078,5.37305,0,9.6709,2.96582,9.6709,9.71484,0,6.14648-4.46973,10.22949-11.69141,10.22949-1.93457,0-4.72852-.30078-7.00635-.85938l.12891-5.37305Z"/>
      <path fill="#1d2088" d="M82.72656,65.00098v-23.16846l-5.07227,4.12646-3.00879-3.91162,8.76855-7.04932h5.33008v30.00293h-6.01758Z"/>
    </g>
  </symbol>
  <symbol id="KH52" viewBox="0 0 100 100">
    <rect fill="#1d2088" y="30" width="100" height="40"/>
    <rect fill="#fff" x="44.375" y="31.875" width="53.75" height="36.25"/>
    <g>
      <path fill="#fff" d="M15.94873,65l-6.74072-8.70117h-.05371v8.70117h-3.75977v-18.74512h3.75977v8.05664l6.76758-8.05664h4.61914l-7.70752,8.83594,8.02979,9.90918h-4.91455Z"/>
      <path fill="#fff" d="M34.59082,65v-8.21777h-7.51953v8.21777h-3.75977v-18.74512h3.75977v7.57324h7.51953v-7.57324h3.75977v18.74512h-3.75977Z"/>
    </g>
    <g>
      <path fill="#1d2088" d="M50.57666,59.28418c2.49365,1.0752,4.34131,1.50488,6.06104,1.50488,3.8252,0,6.49023-1.8916,6.49023-5.28711,0-3.30957-2.62207-5.20166-6.87695-5.20166-1.84863,0-3.61133.2583-5.37305.81689l.30078-16.11914h17.23633v4.47021h-11.5625l-.12891,6.40479c1.03125-.17188,1.67676-.30078,2.75098-.30078,5.37305,0,9.6709,2.96582,9.6709,9.71484,0,6.14648-4.46973,10.22949-11.69141,10.22949-1.93457,0-4.72852-.30078-7.00635-.85938l.12891-5.37305Z"/>
      <path fill="#1d2088" d="M73.0127,65.00098v-5.0293l3.61035-3.35254c5.75977-5.37305,9.37012-10.10107,9.37012-13.36816,0-2.5791-2.23438-4.04053-4.89941-4.04053-2.06348,0-4.3418.73096-6.9209,2.40723l-.47266-4.98633c2.75098-1.37549,5.80273-2.14893,8.89746-2.14893,5.97461,0,9.41406,3.1377,9.41406,8.76855,0,4.16943-2.40723,8.72656-11.30566,17.02246h12.25098v4.72754h-19.94434Z"/>
    </g>
  </symbol>
  <symbol id="KH53" viewBox="0 0 100 100">
    <rect fill="#1d2088" y="30" width="100" height="40"/>
    <rect fill="#fff" x="44.375" y="31.875" width="53.75" height="36.25"/>
    <g>
      <path fill="#fff" d="M15.94873,65l-6.74072-8.70117h-.05371v8.70117h-3.75977v-18.74512h3.75977v8.05664l6.76758-8.05664h4.61914l-7.70752,8.83594,8.02979,9.90918h-4.91455Z"/>
      <path fill="#fff" d="M34.59082,65v-8.21777h-7.51953v8.21777h-3.75977v-18.74512h3.75977v7.57324h7.51953v-7.57324h3.75977v18.74512h-3.75977Z"/>
    </g>
    <g>
      <path fill="#1d2088" d="M50.57666,59.28418c2.49365,1.0752,4.34131,1.50488,6.06104,1.50488,3.8252,0,6.49023-1.8916,6.49023-5.28711,0-3.30957-2.62207-5.20166-6.87695-5.20166-1.84863,0-3.61133.2583-5.37305.81689l.30078-16.11914h17.23633v4.47021h-11.5625l-.12891,6.40479c1.03125-.17188,1.67676-.30078,2.75098-.30078,5.37305,0,9.6709,2.96582,9.6709,9.71484,0,6.14648-4.46973,10.22949-11.69141,10.22949-1.93457,0-4.72852-.30078-7.00635-.85938l.12891-5.37305Z"/>
      <path fill="#1d2088" d="M73.52832,59.41309c2.19238.86035,4.38379,1.37598,6.61914,1.37598,2.87988,0,6.3623-1.37598,6.3623-4.25586,0-3.1377-2.23535-4.68555-6.57715-4.68555h-2.96582v-4.72803h2.92285c3.82617,0,6.49121-1.37549,6.49121-3.95459s-1.80566-3.95459-5.20117-3.95459c-2.27832,0-4.59961.55908-6.70605,1.59033l-.34375-4.81396c2.40723-.9458,5.28711-1.50439,8.33887-1.50439,4.90039,0,9.92969,1.97705,9.92969,7.69385,0,3.43896-1.7627,5.71729-5.58789,7.17871v.08594c3.61035.47266,5.7168,3.22412,5.7168,7.13525,0,6.01758-4.72852,8.94043-11.5625,8.94043-2.5791,0-5.50195-.34375-7.78027-.98828l.34375-5.11523Z"/>
    </g>
  </symbol>
  <symbol id="KH54" viewBox="0 0 100 100">
    <rect fill="#1d2088" y="30" width="100" height="40"/>
    <rect fill="#fff" x="44.375" y="31.875" width="53.75" height="36.25"/>
    <g>
      <path fill="#fff" d="M15.94873,65l-6.74072-8.70117h-.05371v8.70117h-3.75977v-18.74512h3.75977v8.05664l6.76758-8.05664h4.61914l-7.70752,8.83594,8.02979,9.90918h-4.91455Z"/>
      <path fill="#fff" d="M34.59082,65v-8.21777h-7.51953v8.21777h-3.75977v-18.74512h3.75977v7.57324h7.51953v-7.57324h3.75977v18.74512h-3.75977Z"/>
    </g>
    <g>
      <path fill="#1d2088" d="M50.57666,59.28418c2.49365,1.0752,4.34131,1.50488,6.06104,1.50488,3.8252,0,6.49023-1.8916,6.49023-5.28711,0-3.30957-2.62207-5.20166-6.87695-5.20166-1.84863,0-3.61133.2583-5.37305.81689l.30078-16.11914h17.23633v4.47021h-11.5625l-.12891,6.40479c1.03125-.17188,1.67676-.30078,2.75098-.30078,5.37305,0,9.6709,2.96582,9.6709,9.71484,0,6.14648-4.46973,10.22949-11.69141,10.22949-1.93457,0-4.72852-.30078-7.00635-.85938l.12891-5.37305Z"/>
      <path fill="#1d2088" d="M84.87598,65.00098v-6.23242h-12.93848v-4.85742l11.21875-18.91309h7.47949v19.2998h3.8252v4.4707h-3.8252v6.23242h-5.75977ZM84.87598,41.27393h-.08594l-7.43652,13.02393h7.52246v-13.02393Z"/>
    </g>
  </symbol>
  <symbol id="KH61" viewBox="0 0 100 100">
    <rect fill="#1d2088" y="30" width="100" height="40"/>
    <rect fill="#fff" x="44.375" y="31.875" width="53.75" height="36.25"/>
    <g>
      <path fill="#fff" d="M15.94873,65l-6.74072-8.70117h-.05371v8.70117h-3.75977v-18.74512h3.75977v8.05664l6.76758-8.05664h4.61914l-7.70752,8.83594,8.02979,9.90918h-4.91455Z"/>
      <path fill="#fff" d="M34.59082,65v-8.21777h-7.51953v8.21777h-3.75977v-18.74512h3.75977v7.57324h7.51953v-7.57324h3.75977v18.74512h-3.75977Z"/>
    </g>
    <g>
      <path fill="#1d2088" d="M67.12598,40.41406c-1.50488-.64453-3.1377-1.20361-5.24414-1.20361-4.77148,0-6.9209,4.0835-7.13574,9.28467l.08594.08594c1.41895-2.06299,3.2666-3.00879,5.8457-3.00879,5.50195,0,8.72656,3.48145,8.72656,9.15625,0,6.87695-3.52539,10.78809-9.97266,10.78809-6.70605,0-10.1875-4.42676-10.1875-13.96973,0-9.19824,3.2666-17.06445,12.33691-17.06445,2.19141,0,4.25488.34375,6.31836,1.07471l-.77344,4.85693ZM63.38574,55.67383c0-2.75098-1.07422-5.63135-4.12598-5.63135-2.49316,0-3.99805,2.10693-3.99805,5.67432,0,2.79395,1.16113,5.33008,4.16992,5.33008,2.87988,0,3.9541-2.83691,3.9541-5.37305Z"/>
      <path fill="#1d2088" d="M82.72656,65.00098v-23.16846l-5.07227,4.12646-3.00879-3.91162,8.76855-7.04932h5.33008v30.00293h-6.01758Z"/>
    </g>
  </symbol>
  <symbol id="KH62" viewBox="0 0 100 100">
    <rect fill="#1d2088" y="30" width="100" height="40"/>
    <rect fill="#fff" x="44.375" y="31.875" width="53.75" height="36.25"/>
    <g>
      <path fill="#fff" d="M15.94873,65l-6.74072-8.70117h-.05371v8.70117h-3.75977v-18.74512h3.75977v8.05664l6.76758-8.05664h4.61914l-7.70752,8.83594,8.02979,9.90918h-4.91455Z"/>
      <path fill="#fff" d="M34.59082,65v-8.21777h-7.51953v8.21777h-3.75977v-18.74512h3.75977v7.57324h7.51953v-7.57324h3.75977v18.74512h-3.75977Z"/>
    </g>
    <g>
      <path fill="#1d2088" d="M67.12598,40.41406c-1.50488-.64453-3.1377-1.20361-5.24414-1.20361-4.77148,0-6.9209,4.0835-7.13574,9.28467l.08594.08594c1.41895-2.06299,3.2666-3.00879,5.8457-3.00879,5.50195,0,8.72656,3.48145,8.72656,9.15625,0,6.87695-3.52539,10.78809-9.97266,10.78809-6.70605,0-10.1875-4.42676-10.1875-13.96973,0-9.19824,3.2666-17.06445,12.33691-17.06445,2.19141,0,4.25488.34375,6.31836,1.07471l-.77344,4.85693ZM63.38574,55.67383c0-2.75098-1.07422-5.63135-4.12598-5.63135-2.49316,0-3.99805,2.10693-3.99805,5.67432,0,2.79395,1.16113,5.33008,4.16992,5.33008,2.87988,0,3.9541-2.83691,3.9541-5.37305Z"/>
      <path fill="#1d2088" d="M73.0127,65.00098v-5.0293l3.61035-3.35254c5.75977-5.37305,9.37012-10.10107,9.37012-13.36816,0-2.5791-2.23438-4.04053-4.89941-4.04053-2.06348,0-4.3418.73096-6.9209,2.40723l-.47266-4.98633c2.75098-1.37549,5.80273-2.14893,8.89746-2.14893,5.97461,0,9.41406,3.1377,9.41406,8.76855,0,4.16943-2.40723,8.72656-11.30566,17.02246h12.25098v4.72754h-19.94434Z"/>
    </g>
  </symbol>
  <symbol id="KH63" viewBox="0 0 100 100">
    <rect fill="#1d2088" y="30" width="100" height="40"/>
    <rect fill="#fff" x="44.375" y="31.875" width="53.75" height="36.25"/>
    <g>
      <path fill="#fff" d="M15.94873,65l-6.74072-8.70117h-.05371v8.70117h-3.75977v-18.74512h3.75977v8.05664l6.76758-8.05664h4.61914l-7.70752,8.83594,8.02979,9.90918h-4.91455Z"/>
      <path fill="#fff" d="M34.59082,65v-8.21777h-7.51953v8.21777h-3.75977v-18.74512h3.75977v7.57324h7.51953v-7.57324h3.75977v18.74512h-3.75977Z"/>
    </g>
    <g>
      <path fill="#1d2088" d="M67.12598,40.41406c-1.50488-.64453-3.1377-1.20361-5.24414-1.20361-4.77148,0-6.9209,4.0835-7.13574,9.28467l.08594.08594c1.41895-2.06299,3.2666-3.00879,5.8457-3.00879,5.50195,0,8.72656,3.48145,8.72656,9.15625,0,6.87695-3.52539,10.78809-9.97266,10.78809-6.70605,0-10.1875-4.42676-10.1875-13.96973,0-9.19824,3.2666-17.06445,12.33691-17.06445,2.19141,0,4.25488.34375,6.31836,1.07471l-.77344,4.85693ZM63.38574,55.67383c0-2.75098-1.07422-5.63135-4.12598-5.63135-2.49316,0-3.99805,2.10693-3.99805,5.67432,0,2.79395,1.16113,5.33008,4.16992,5.33008,2.87988,0,3.9541-2.83691,3.9541-5.37305Z"/>
      <path fill="#1d2088" d="M73.52832,59.41309c2.19238.86035,4.38379,1.37598,6.61914,1.37598,2.87988,0,6.3623-1.37598,6.3623-4.25586,0-3.1377-2.23535-4.68555-6.57715-4.68555h-2.96582v-4.72803h2.92285c3.82617,0,6.49121-1.37549,6.49121-3.95459s-1.80566-3.95459-5.20117-3.95459c-2.27832,0-4.59961.55908-6.70605,1.59033l-.34375-4.81396c2.40723-.9458,5.28711-1.50439,8.33887-1.50439,4.90039,0,9.92969,1.97705,9.92969,7.69385,0,3.43896-1.7627,5.71729-5.58789,7.17871v.08594c3.61035.47266,5.7168,3.22412,5.7168,7.13525,0,6.01758-4.72852,8.94043-11.5625,8.94043-2.5791,0-5.50195-.34375-7.78027-.98828l.34375-5.11523Z"/>
    </g>
  </symbol>
  <symbol id="KH64" viewBox="0 0 100 100">
    <rect fill="#1d2088" y="30" width="100" height="40"/>
    <rect fill="#fff" x="44.375" y="31.875" width="53.75" height="36.25"/>
    <g>
      <path fill="#fff" d="M15.94873,65l-6.74072-8.70117h-.05371v8.70117h-3.75977v-18.74512h3.75977v8.05664l6.76758-8.05664h4.61914l-7.70752,8.83594,8.02979,9.90918h-4.91455Z"/>
      <path fill="#fff" d="M34.59082,65v-8.21777h-7.51953v8.21777h-3.75977v-18.74512h3.75977v7.57324h7.51953v-7.57324h3.75977v18.74512h-3.75977Z"/>
    </g>
    <g>
      <path fill="#1d2088" d="M67.12598,40.41406c-1.50488-.64453-3.1377-1.20361-5.24414-1.20361-4.77148,0-6.9209,4.0835-7.13574,9.28467l.08594.08594c1.41895-2.06299,3.2666-3.00879,5.8457-3.00879,5.50195,0,8.72656,3.48145,8.72656,9.15625,0,6.87695-3.52539,10.78809-9.97266,10.78809-6.70605,0-10.1875-4.42676-10.1875-13.96973,0-9.19824,3.2666-17.06445,12.33691-17.06445,2.19141,0,4.25488.34375,6.31836,1.07471l-.77344,4.85693ZM63.38574,55.67383c0-2.75098-1.07422-5.63135-4.12598-5.63135-2.49316,0-3.99805,2.10693-3.99805,5.67432,0,2.79395,1.16113,5.33008,4.16992,5.33008,2.87988,0,3.9541-2.83691,3.9541-5.37305Z"/>
      <path fill="#1d2088" d="M84.87598,65.00098v-6.23242h-12.93848v-4.85742l11.21875-18.91309h7.47949v19.2998h3.8252v4.4707h-3.8252v6.23242h-5.75977ZM84.87598,41.27393h-.08594l-7.43652,13.02393h7.52246v-13.02393Z"/>
    </g>
  </symbol>
  <symbol id="KH65" viewBox="0 0 100 100">
    <rect fill="#1d2088" y="30" width="100" height="40"/>
    <rect fill="#fff" x="44.375" y="31.875" width="53.75" height="36.25"/>
    <g>
      <path fill="#fff" d="M15.94873,65l-6.74072-8.70117h-.05371v8.70117h-3.75977v-18.74512h3.75977v8.05664l6.76758-8.05664h4.61914l-7.70752,8.83594,8.02979,9.90918h-4.91455Z"/>
      <path fill="#fff" d="M34.59082,65v-8.21777h-7.51953v8.21777h-3.75977v-18.74512h3.75977v7.57324h7.51953v-7.57324h3.75977v18.74512h-3.75977Z"/>
    </g>
    <g>
      <path fill="#1d2088" d="M67.12598,40.41406c-1.50488-.64453-3.1377-1.20361-5.24414-1.20361-4.77148,0-6.9209,4.0835-7.13574,9.28467l.08594.08594c1.41895-2.06299,3.2666-3.00879,5.8457-3.00879,5.50195,0,8.72656,3.48145,8.72656,9.15625,0,6.87695-3.52539,10.78809-9.97266,10.78809-6.70605,0-10.1875-4.42676-10.1875-13.96973,0-9.19824,3.2666-17.06445,12.33691-17.06445,2.19141,0,4.25488.34375,6.31836,1.07471l-.77344,4.85693ZM63.38574,55.67383c0-2.75098-1.07422-5.63135-4.12598-5.63135-2.49316,0-3.99805,2.10693-3.99805,5.67432,0,2.79395,1.16113,5.33008,4.16992,5.33008,2.87988,0,3.9541-2.83691,3.9541-5.37305Z"/>
      <path fill="#1d2088" d="M74.47363,59.28418c2.49316,1.0752,4.3418,1.50488,6.06055,1.50488,3.82617,0,6.49121-1.8916,6.49121-5.28711,0-3.30957-2.62207-5.20166-6.87793-5.20166-1.84766,0-3.61035.2583-5.37305.81689l.30078-16.11914h17.2373v4.47021h-11.56348l-.12891,6.40479c1.03223-.17188,1.67676-.30078,2.75098-.30078,5.37305,0,9.67188,2.96582,9.67188,9.71484,0,6.14648-4.4707,10.22949-11.69141,10.22949-1.93457,0-4.72852-.30078-7.00684-.85938l.12891-5.37305Z"/>
    </g>
  </symbol>
  <symbol id="KH66" viewBox="0 0 100 100">
    <rect fill="#1d2088" y="30" width="100" height="40"/>
    <rect fill="#fff" x="44.375" y="31.875" width="53.75" height="36.25"/>
    <g>
      <path fill="#fff" d="M15.94873,65l-6.74072-8.70117h-.05371v8.70117h-3.75977v-18.74512h3.75977v8.05664l6.76758-8.05664h4.61914l-7.70752,8.83594,8.02979,9.90918h-4.91455Z"/>
      <path fill="#fff" d="M34.59082,65v-8.21777h-7.51953v8.21777h-3.75977v-18.74512h3.75977v7.57324h7.51953v-7.57324h3.75977v18.74512h-3.75977Z"/>
    </g>
    <g>
      <path fill="#1d2088" d="M67.12598,40.41406c-1.50488-.64453-3.1377-1.20361-5.24414-1.20361-4.77148,0-6.9209,4.0835-7.13574,9.28467l.08594.08594c1.41895-2.06299,3.2666-3.00879,5.8457-3.00879,5.50195,0,8.72656,3.48145,8.72656,9.15625,0,6.87695-3.52539,10.78809-9.97266,10.78809-6.70605,0-10.1875-4.42676-10.1875-13.96973,0-9.19824,3.2666-17.06445,12.33691-17.06445,2.19141,0,4.25488.34375,6.31836,1.07471l-.77344,4.85693ZM63.38574,55.67383c0-2.75098-1.07422-5.63135-4.12598-5.63135-2.49316,0-3.99805,2.10693-3.99805,5.67432,0,2.79395,1.16113,5.33008,4.16992,5.33008,2.87988,0,3.9541-2.83691,3.9541-5.37305Z"/>
      <path fill="#1d2088" d="M91.02246,40.41406c-1.50391-.64453-3.1377-1.20361-5.24414-1.20361-4.77051,0-6.91992,4.0835-7.13477,9.28467l.08594.08594c1.41797-2.06299,3.2666-3.00879,5.8457-3.00879,5.50195,0,8.72559,3.48145,8.72559,9.15625,0,6.87695-3.52441,10.78809-9.97266,10.78809-6.70508,0-10.18652-4.42676-10.18652-13.96973,0-9.19824,3.2666-17.06445,12.33594-17.06445,2.19238,0,4.25586.34375,6.31836,1.07471l-.77344,4.85693ZM87.2832,55.67383c0-2.75098-1.0752-5.63135-4.12695-5.63135-2.49316,0-3.99707,2.10693-3.99707,5.67432,0,2.79395,1.16016,5.33008,4.16895,5.33008,2.87988,0,3.95508-2.83691,3.95508-5.37305Z"/>
    </g>
  </symbol>
  <symbol id="KH67" viewBox="0 0 100 100">
    <rect fill="#1d2088" y="30" width="100" height="40"/>
    <rect fill="#fff" x="44.375" y="31.875" width="53.75" height="36.25"/>
    <g>
      <path fill="#fff" d="M15.94873,65l-6.74072-8.70117h-.05371v8.70117h-3.75977v-18.74512h3.75977v8.05664l6.76758-8.05664h4.61914l-7.70752,8.83594,8.02979,9.90918h-4.91455Z"/>
      <path fill="#fff" d="M34.59082,65v-8.21777h-7.51953v8.21777h-3.75977v-18.74512h3.75977v7.57324h7.51953v-7.57324h3.75977v18.74512h-3.75977Z"/>
    </g>
    <g>
      <path fill="#1d2088" d="M67.12598,40.41406c-1.50488-.64453-3.1377-1.20361-5.24414-1.20361-4.77148,0-6.9209,4.0835-7.13574,9.28467l.08594.08594c1.41895-2.06299,3.2666-3.00879,5.8457-3.00879,5.50195,0,8.72656,3.48145,8.72656,9.15625,0,6.87695-3.52539,10.78809-9.97266,10.78809-6.70605,0-10.1875-4.42676-10.1875-13.96973,0-9.19824,3.2666-17.06445,12.33691-17.06445,2.19141,0,4.25488.34375,6.31836,1.07471l-.77344,4.85693ZM63.38574,55.67383c0-2.75098-1.07422-5.63135-4.12598-5.63135-2.49316,0-3.99805,2.10693-3.99805,5.67432,0,2.79395,1.16113,5.33008,4.16992,5.33008,2.87988,0,3.9541-2.83691,3.9541-5.37305Z"/>
      <path fill="#1d2088" d="M75.54883,65.00098l11.13281-25.27441h-13.28223v-4.72852h19.34277v4.98633l-10.66016,25.0166h-6.5332Z"/>
    </g>
  </symbol>
  <symbol id="KH71" viewBox="0 0 100 100">
    <rect fill="#1d2088" y="30" width="100" height="40"/>
    <rect fill="#fff" x="44.375" y="31.875" width="53.75" height="36.25"/>
    <g>
      <path fill="#fff" d="M15.94873,65l-6.74072-8.70117h-.05371v8.70117h-3.75977v-18.74512h3.75977v8.05664l6.76758-8.05664h4.61914l-7.70752,8.83594,8.02979,9.90918h-4.91455Z"/>
      <path fill="#fff" d="M34.59082,65v-8.21777h-7.51953v8.21777h-3.75977v-18.74512h3.75977v7.57324h7.51953v-7.57324h3.75977v18.74512h-3.75977Z"/>
    </g>
    <g>
      <path fill="#1d2088" d="M51.65137,65.00098l11.13281-25.27441h-13.28174v-4.72852h19.34229v4.98633l-10.66016,25.0166h-6.5332Z"/>
      <path fill="#1d2088" d="M82.72656,65.00098v-23.16846l-5.07227,4.12646-3.00879-3.91162,8.76855-7.04932h5.33008v30.00293h-6.01758Z"/>
    </g>
  </symbol>
  <symbol id="KH72" viewBox="0 0 100 100">
    <rect fill="#1d2088" y="30" width="100" height="40"/>
    <rect fill="#fff" x="44.375" y="31.875" width="53.75" height="36.25"/>
    <g>
      <path fill="#fff" d="M15.94873,65l-6.74072-8.70117h-.05371v8.70117h-3.75977v-18.74512h3.75977v8.05664l6.76758-8.05664h4.61914l-7.70752,8.83594,8.02979,9.90918h-4.91455Z"/>
      <path fill="#fff" d="M34.59082,65v-8.21777h-7.51953v8.21777h-3.75977v-18.74512h3.75977v7.57324h7.51953v-7.57324h3.75977v18.74512h-3.75977Z"/>
    </g>
    <g>
      <path fill="#1d2088" d="M51.65137,65.00098l11.13281-25.27441h-13.28174v-4.72852h19.34229v4.98633l-10.66016,25.0166h-6.5332Z"/>
      <path fill="#1d2088" d="M73.0127,65.00098v-5.0293l3.61035-3.35254c5.75977-5.37305,9.37012-10.10107,9.37012-13.36816,0-2.5791-2.23438-4.04053-4.89941-4.04053-2.06348,0-4.3418.73096-6.9209,2.40723l-.47266-4.98633c2.75098-1.37549,5.80273-2.14893,8.89746-2.14893,5.97461,0,9.41406,3.1377,9.41406,8.76855,0,4.16943-2.40723,8.72656-11.30566,17.02246h12.25098v4.72754h-19.94434Z"/>
    </g>
  </symbol>
  <symbol id="KH73" viewBox="0 0 100 100">
    <rect fill="#1d2088" y="30" width="100" height="40"/>
    <rect fill="#fff" x="44.375" y="31.875" width="53.75" height="36.25"/>
    <g>
      <path fill="#fff" d="M15.94873,65l-6.74072-8.70117h-.05371v8.70117h-3.75977v-18.74512h3.75977v8.05664l6.76758-8.05664h4.61914l-7.70752,8.83594,8.02979,9.90918h-4.91455Z"/>
      <path fill="#fff" d="M34.59082,65v-8.21777h-7.51953v8.21777h-3.75977v-18.74512h3.75977v7.57324h7.51953v-7.57324h3.75977v18.74512h-3.75977Z"/>
    </g>
    <g>
      <path fill="#1d2088" d="M51.65137,65.00098l11.13281-25.27441h-13.28174v-4.72852h19.34229v4.98633l-10.66016,25.0166h-6.5332Z"/>
      <path fill="#1d2088" d="M73.52832,59.41309c2.19238.86035,4.38379,1.37598,6.61914,1.37598,2.87988,0,6.3623-1.37598,6.3623-4.25586,0-3.1377-2.23535-4.68555-6.57715-4.68555h-2.96582v-4.72803h2.92285c3.82617,0,6.49121-1.37549,6.49121-3.95459s-1.80566-3.95459-5.20117-3.95459c-2.27832,0-4.59961.55908-6.70605,1.59033l-.34375-4.81396c2.40723-.9458,5.28711-1.50439,8.33887-1.50439,4.90039,0,9.92969,1.97705,9.92969,7.69385,0,3.43896-1.7627,5.71729-5.58789,7.17871v.08594c3.61035.47266,5.7168,3.22412,5.7168,7.13525,0,6.01758-4.72852,8.94043-11.5625,8.94043-2.5791,0-5.50195-.34375-7.78027-.98828l.34375-5.11523Z"/>
    </g>
  </symbol>
  <symbol id="KH74" viewBox="0 0 100 100">
    <rect fill="#1d2088" y="30" width="100" height="40"/>
    <rect fill="#fff" x="44.375" y="31.875" width="53.75" height="36.25"/>
    <g>
      <path fill="#fff" d="M15.94873,65l-6.74072-8.70117h-.05371v8.70117h-3.75977v-18.74512h3.75977v8.05664l6.76758-8.05664h4.61914l-7.70752,8.83594,8.02979,9.90918h-4.91455Z"/>
      <path fill="#fff" d="M34.59082,65v-8.21777h-7.51953v8.21777h-3.75977v-18.74512h3.75977v7.57324h7.51953v-7.57324h3.75977v18.74512h-3.75977Z"/>
    </g>
    <g>
      <path fill="#1d2088" d="M51.65137,65.00098l11.13281-25.27441h-13.28174v-4.72852h19.34229v4.98633l-10.66016,25.0166h-6.5332Z"/>
      <path fill="#1d2088" d="M84.87598,65.00098v-6.23242h-12.93848v-4.85742l11.21875-18.91309h7.47949v19.2998h3.8252v4.4707h-3.8252v6.23242h-5.75977ZM84.87598,41.27393h-.08594l-7.43652,13.02393h7.52246v-13.02393Z"/>
    </g>
  </symbol>
  <symbol id="KH75" viewBox="0 0 100 100">
    <rect fill="#1d2088" y="30" width="100" height="40"/>
    <rect fill="#fff" x="44.375" y="31.875" width="53.75" height="36.25"/>
    <g>
      <path fill="#fff" d="M15.94873,65l-6.74072-8.70117h-.05371v8.70117h-3.75977v-18.74512h3.75977v8.05664l6.76758-8.05664h4.61914l-7.70752,8.83594,8.02979,9.90918h-4.91455Z"/>
      <path fill="#fff" d="M34.59082,65v-8.21777h-7.51953v8.21777h-3.75977v-18.74512h3.75977v7.57324h7.51953v-7.57324h3.75977v18.74512h-3.75977Z"/>
    </g>
    <g>
      <path fill="#1d2088" d="M51.65137,65.00098l11.13281-25.27441h-13.28174v-4.72852h19.34229v4.98633l-10.66016,25.0166h-6.5332Z"/>
      <path fill="#1d2088" d="M74.47363,59.28418c2.49316,1.0752,4.3418,1.50488,6.06055,1.50488,3.82617,0,6.49121-1.8916,6.49121-5.28711,0-3.30957-2.62207-5.20166-6.87793-5.20166-1.84766,0-3.61035.2583-5.37305.81689l.30078-16.11914h17.2373v4.47021h-11.56348l-.12891,6.40479c1.03223-.17188,1.67676-.30078,2.75098-.30078,5.37305,0,9.67188,2.96582,9.67188,9.71484,0,6.14648-4.4707,10.22949-11.69141,10.22949-1.93457,0-4.72852-.30078-7.00684-.85938l.12891-5.37305Z"/>
    </g>
  </symbol>
  <symbol id="KH76" viewBox="0 0 100 100">
    <rect fill="#1d2088" y="30" width="100" height="40"/>
    <rect fill="#fff" x="44.375" y="31.875" width="53.75" height="36.25"/>
    <g>
      <path fill="#fff" d="M15.94873,65l-6.74072-8.70117h-.05371v8.70117h-3.75977v-18.74512h3.75977v8.05664l6.76758-8.05664h4.61914l-7.70752,8.83594,8.02979,9.90918h-4.91455Z"/>
      <path fill="#fff" d="M34.59082,65v-8.21777h-7.51953v8.21777h-3.75977v-18.74512h3.75977v7.57324h7.51953v-7.57324h3.75977v18.74512h-3.75977Z"/>
    </g>
    <g>
      <path fill="#1d2088" d="M51.65137,65.00098l11.13281-25.27441h-13.28174v-4.72852h19.34229v4.98633l-10.66016,25.0166h-6.5332Z"/>
      <path fill="#1d2088" d="M91.02246,40.41406c-1.50391-.64453-3.1377-1.20361-5.24414-1.20361-4.77051,0-6.91992,4.0835-7.13477,9.28467l.08594.08594c1.41797-2.06299,3.2666-3.00879,5.8457-3.00879,5.50195,0,8.72559,3.48145,8.72559,9.15625,0,6.87695-3.52441,10.78809-9.97266,10.78809-6.70508,0-10.18652-4.42676-10.18652-13.96973,0-9.19824,3.2666-17.06445,12.33594-17.06445,2.19238,0,4.25586.34375,6.31836,1.07471l-.77344,4.85693ZM87.2832,55.67383c0-2.75098-1.0752-5.63135-4.12695-5.63135-2.49316,0-3.99707,2.10693-3.99707,5.67432,0,2.79395,1.16016,5.33008,4.16895,5.33008,2.87988,0,3.95508-2.83691,3.95508-5.37305Z"/>
    </g>
  </symbol>
  <symbol id="KH77" viewBox="0 0 100 100">
    <rect fill="#1d2088" y="30" width="100" height="40"/>
    <rect fill="#fff" x="44.375" y="31.875" width="53.75" height="36.25"/>
    <g>
      <path fill="#fff" d="M15.94873,65l-6.74072-8.70117h-.05371v8.70117h-3.75977v-18.74512h3.75977v8.05664l6.76758-8.05664h4.61914l-7.70752,8.83594,8.02979,9.90918h-4.91455Z"/>
      <path fill="#fff" d="M34.59082,65v-8.21777h-7.51953v8.21777h-3.75977v-18.74512h3.75977v7.57324h7.51953v-7.57324h3.75977v18.74512h-3.75977Z"/>
    </g>
    <g>
      <path fill="#1d2088" d="M51.65137,65.00098l11.13281-25.27441h-13.28174v-4.72852h19.34229v4.98633l-10.66016,25.0166h-6.5332Z"/>
      <path fill="#1d2088" d="M75.54883,65.00098l11.13281-25.27441h-13.28223v-4.72852h19.34277v4.98633l-10.66016,25.0166h-6.5332Z"/>
    </g>
  </symbol>
  <symbol id="KH80" viewBox="0 0 100 100">
    <rect fill="#1d2088" y="30" width="100" height="40"/>
    <rect fill="#fff" x="44.375" y="31.875" width="53.75" height="36.25"/>
    <g>
      <path fill="#fff" d="M15.94873,65l-6.74072-8.70117h-.05371v8.70117h-3.75977v-18.74512h3.75977v8.05664l6.76758-8.05664h4.61914l-7.70752,8.83594,8.02979,9.90918h-4.91455Z"/>
      <path fill="#fff" d="M34.59082,65v-8.21777h-7.51953v8.21777h-3.75977v-18.74512h3.75977v7.57324h7.51953v-7.57324h3.75977v18.74512h-3.75977Z"/>
    </g>
    <g>
      <path fill="#1d2088" d="M63.98828,48.9248c3.86816,1.80566,5.75977,4.3418,5.75977,7.90918,0,5.54492-3.82617,8.68262-10.31641,8.68262-6.44727,0-10.57422-3.00879-10.57422-8.59668,0-3.35254,1.80518-5.67383,5.50195-7.479v-.08594c-3.52441-1.59082-4.98633-4.29834-4.98633-6.96338,0-5.24414,3.91211-7.90918,9.54297-7.90918,5.54492,0,10.05762,2.36426,10.05762,7.22119,0,3.09473-2.0625,6.01758-4.98535,7.17822v.04297ZM54.875,56.79102c0,2.4502,2.10645,4.25586,4.55664,4.25586s4.29785-1.54785,4.29785-3.99805c0-2.32031-1.50391-4.04004-5.02832-5.20117-2.70801,1.29004-3.82617,2.83691-3.82617,4.94336ZM63.21387,42.69238c0-1.71924-.98828-3.73975-3.73926-3.73975-2.02051,0-4.3418,1.11768-4.3418,3.61084,0,1.89111,1.37598,3.30957,4.72852,4.51318,1.59082-.55859,3.35254-2.40723,3.35254-4.38428Z"/>
      <path fill="#1d2088" d="M72.75488,50.08545c0-9.45654,3.39551-15.60303,10.40137-15.60303,6.87793,0,10.48828,5.41602,10.48828,15.60303,0,9.97217-3.61035,15.43115-10.48828,15.43115-6.83398,0-10.40137-4.89941-10.40137-15.43115ZM87.62695,50.08545c0-4.51318-.12891-11.13281-4.51367-11.13281-4.08301,0-4.34082,6.36182-4.34082,11.00391,0,4.81494.17188,11.09033,4.38379,11.09033,4.3418,0,4.4707-6.49121,4.4707-10.96143Z"/>
    </g>
  </symbol>
  <symbol id="KH81" viewBox="0 0 100 100">
    <rect fill="#1d2088" y="30" width="100" height="40"/>
    <rect fill="#fff" x="44.375" y="31.875" width="53.75" height="36.25"/>
    <g>
      <path fill="#fff" d="M15.94873,65l-6.74072-8.70117h-.05371v8.70117h-3.75977v-18.74512h3.75977v8.05664l6.76758-8.05664h4.61914l-7.70752,8.83594,8.02979,9.90918h-4.91455Z"/>
      <path fill="#fff" d="M34.59082,65v-8.21777h-7.51953v8.21777h-3.75977v-18.74512h3.75977v7.57324h7.51953v-7.57324h3.75977v18.74512h-3.75977Z"/>
    </g>
    <g>
      <path fill="#1d2088" d="M63.98828,48.9248c3.86816,1.80566,5.75977,4.3418,5.75977,7.90918,0,5.54492-3.82617,8.68262-10.31641,8.68262-6.44727,0-10.57422-3.00879-10.57422-8.59668,0-3.35254,1.80518-5.67383,5.50195-7.479v-.08594c-3.52441-1.59082-4.98633-4.29834-4.98633-6.96338,0-5.24414,3.91211-7.90918,9.54297-7.90918,5.54492,0,10.05762,2.36426,10.05762,7.22119,0,3.09473-2.0625,6.01758-4.98535,7.17822v.04297ZM54.875,56.79102c0,2.4502,2.10645,4.25586,4.55664,4.25586s4.29785-1.54785,4.29785-3.99805c0-2.32031-1.50391-4.04004-5.02832-5.20117-2.70801,1.29004-3.82617,2.83691-3.82617,4.94336ZM63.21387,42.69238c0-1.71924-.98828-3.73975-3.73926-3.73975-2.02051,0-4.3418,1.11768-4.3418,3.61084,0,1.89111,1.37598,3.30957,4.72852,4.51318,1.59082-.55859,3.35254-2.40723,3.35254-4.38428Z"/>
      <path fill="#1d2088" d="M82.72656,65.00098v-23.16846l-5.07227,4.12646-3.00879-3.91162,8.76855-7.04932h5.33008v30.00293h-6.01758Z"/>
    </g>
  </symbol>
</svg>
