<?xml version="1.0" encoding="UTF-8"?>
<svg xmlns="http://www.w3.org/2000/svg" xmlns:xlink="http://www.w3.org/1999/xlink">
  <symbol id="OT" viewBox="0 0 100 100">
    <rect fill="#1d2088" y="20" width="100" height="60"/>
    <g>
      <path fill="#fff" d="M14.47021,49.8833c0-12.66553,7.27832-20.57471,19.60059-20.57471,11.74902,0,19.6001,7.62256,19.6001,20.57471,0,12.896-7.6792,20.8042-19.6001,20.8042-12.37939,0-19.60059-8.02344-19.60059-20.8042ZM45.30371,49.8833c0-7.33594-3.43848-14.27051-11.29004-14.27051-7.22168,0-11.17627,6.3042-11.17627,14.27051,0,8.48291,3.89746,14.50049,11.2334,14.50049,7.39307,0,11.23291-6.0752,11.23291-14.50049Z"/>
      <path fill="#fff" d="M68.28125,70v-33.69922h-11.46191v-6.30469h30.94824v6.30469h-11.46191v33.69922h-8.02441Z"/>
    </g>
  </symbol>
  <symbol id="Isymskmt" viewBox="0 0 100 100">
    <g>
      <polygon fill="#d6bc46" points="36.24 58.2 31.55 60.88 15 32.5 21.25 32.5 36.24 58.2"/>
      <polygon fill="#d6bc46" points="53.13 87.14 50 92.5 34.07 65.19 38.76 62.51 53.13 87.14"/>
    </g>
    <g>
      <path fill="#70c7da" d="M67.15,63.1l-10.9,18.69-10.72-18.38c1.71-.77,3.87-1.53,5.72-1.53,3.75,0,6.25,1.87,10,1.87,1.92,0,4.17-.33,5.9-.65Z"/>
      <path fill="#70c7da" d="M75.99,47.94l-5.09,8.73v.01c-2.55,1.14-5.22,2.07-7.15,2.07-5,0-7.5-1.25-12.5-1.25-2.56,0-5.45,1.31-7.66,2.59l-6.09-10.44c2.11.54,4.07.97,5,.97,10,0,12.5-6.24,22.5-6.24,2.95,0,7.64,1.95,10.99,3.56Z"/>
      <path fill="#70c7da" d="M85,32.5l-6.8,11.65c-3.11-1.43-9.51-4.15-13.2-4.15-5,0-15,5-20,5-5.42,0-9.37-1.47-11.85-2.81l-5.65-9.69h57.5Z"/>
    </g>
    <g>
      <path fill="#70c7da" d="M18.30859,22.14453c-.81445.85449-1.41504,1.29492-1.88232,1.6416l-.88135-1.24121c2.30957-1.66895,3.47119-3.11133,4.24561-5.70117h-4.12549v-1.38867h12.56348v1.38867h-6.94238c-.14697.57422-.42725,1.65527-1.36182,3.19141h7.32959v7.48926h-1.38818v-.62695h-6.18213v.62695h-1.375v-5.37988ZM19.68359,21.35645v4.21875h6.18213v-4.21875h-6.18213Z"/>
      <path fill="#70c7da" d="M31.56982,17.31055v7.8916h3.63184v-10.1875h1.44189v10.1875h3.6582v-7.8916h1.44189v10.26758h-1.44189v-.98828h-8.73193v.98828h-1.44189v-10.26758h1.44189Z"/>
      <path fill="#70c7da" d="M43.60303,24.34766c.41406-.09375.56104-.12012,1.8291-.52148v-4.3252h-1.70898v-1.30859h1.70898v-3.15137h1.36182v3.15137h1.48242v1.30859h-1.48242v3.8584c.89453-.32031,1.17529-.4541,1.48242-.58789l.22656,1.13477c-1.30811.72168-3.59131,1.54883-4.65967,1.86914l-.24023-1.42773ZM55.85938,20.08789c-.37402,1.5625-.89453,3.11133-1.80273,4.43262.96191.93457,1.85645,1.375,2.4834,1.66895l-.80078,1.32227c-.69434-.42773-1.61523-1.02832-2.5498-1.94922-1.20215,1.1748-2.44336,1.66895-3.19092,1.94922l-.6543-1.26855c.64111-.2002,1.73584-.54785,2.93701-1.74902-1.02832-1.45508-1.34814-2.81738-1.5083-3.68457l1.2417-.30762c.10645.54785.33301,1.66895,1.13477,2.91113.81445-1.24219,1.16113-2.37695,1.38867-3.3252h-4.35254v1.21484c0,1.95,0,4.12598-2.02979,6.23535l-1.09473-1.05469c1.36182-1.48242,1.77588-2.80371,1.77588-5.38086v-5.64746h7.43652v1.32227h-6.08789v2.0293h5.67383v1.28125Z"/>
      <path fill="#70c7da" d="M57.74512,17.23047h5.58105v-2.22949h1.375v2.22949h5.59375v1.3623h-4.97949c1.28125,2.61719,3.16406,4.20605,5.14062,5.36719l-.77441,1.49512c-1.38867-.9873-3.45801-2.68359-4.98047-5.71387v4.24512h2.75v1.33594h-2.75v2.22949h-1.375v-2.22949h-2.6709v-1.33594h2.6709v-4.24512c-1.24219,2.45605-2.88379,4.25879-4.9541,5.71387l-.80078-1.33496c2.44336-1.62891,3.93848-3.12402,5.14062-5.52734h-4.9668v-1.3623Z"/>
      <path fill="#70c7da" d="M73.2627,22.8916c-.04004,1.05469-.14648,2.52344-.48047,3.76562l-1.21484-.40039c.32031-1.01465.4541-2.11035.49414-3.53809l1.20117.17285ZM71.64746,20.82227c.60059-.0127.68066-.0127.85449-.0127.18652-.24121.38672-.50781.80078-1.12207-.06641-.08008-.76074-.88086-1.68164-1.61523l.66699-1.1084.30762.25391c.13281-.2002.68066-1.05469,1.14746-2.17676l1.25488.44043c-.60059,1.26855-1.3877,2.41699-1.49512,2.57715.12012.13379.21387.22754.50781.56055.7207-1.13477,1.05469-1.69531,1.32129-2.16309l1.1748.48145c-.24023.40039-.89453,1.5752-2.66992,3.81836.81445-.04004.94824-.04004,1.52246-.06738-.09375-.38672-.16016-.60059-.25391-.85449l.96094-.34668c.26758.66797.54785,1.62891.68164,2.38965l-1.08203.36035c-.04004-.29297-.05371-.33301-.08008-.49316-.44043.04004-.50684.05273-.69434.06641v5.75391h-1.28125v-5.64746c-.62793.04004-1.42871.08008-1.89648.09375l-.06641-1.18848ZM76.33398,22.78516c.10645.52051.24023,1.53516.2666,2.34961l-1.09473.21387c-.02637-.97461-.2002-2.09668-.25391-2.44336l1.08203-.12012ZM79.45801,21.9707c-.46777,3.47168-2.06934,4.68652-2.70996,5.16699l-.93555-.94824c.93555-.69434,1.74902-1.46875,2.15039-2.96387h-1.21484v-1.25488h2.70996ZM84.35742,22.25098c-.56055.68066-1.22852,1.24219-1.72168,1.62891.82715,1.04102,1.49512,1.46875,1.93555,1.74902l-.77441,1.29492c-1.52246-1.32129-1.98926-2.00293-2.69629-3.80469v3.29785c0,.57422-.16113,1.14746-.98828,1.14746h-1.58887l-.22754-1.32129h1.16211c.37402,0,.37402-.17383.37402-.42773v-4.67285h-2.76367v-4.95312h2.38965c.2002-.49414.33398-.98828.37402-1.14844h1.42871c-.06738.26758-.14746.57422-.36133,1.14844h2.89746v4.95312h-2.69629c.19922.49414.43945,1.08203.85352,1.74902.57422-.49414.86816-.81445,1.46875-1.52148l.93457.88086ZM78.36328,17.2041v.94824h4.125v-.94824h-4.125ZM78.36328,19.07324v1.06836h4.125v-1.06836h-4.125Z"/>
    </g>
    <g>
      <path fill="#70c7da" d="M15.63721,11.25v-4.00488h.80322v4.00488h-.80322Z"/>
      <path fill="#70c7da" d="M17.01855,10.44141c.28662.1543.60205.24609.90625.24609.29248,0,.71143-.14844.71143-.51562,0-.30469-.26953-.43652-.66553-.5918-.53369-.20605-1.08984-.42969-1.08984-1.18164,0-.86035.64795-1.22168,1.40527-1.22168.33887,0,.66016.0459.95264.14355l-.07471.65918c-.26953-.11426-.54492-.17188-.81445-.17188-.29883,0-.63135.1377-.63135.55664,0,.30371.34424.41895.67725.55078.53906.2002,1.07812.44727,1.07812,1.19336,0,.77441-.55078,1.20996-1.50879,1.20996-.41309,0-.63672-.05664-1.021-.1543l.07471-.72266Z"/>
      <path fill="#70c7da" d="M22.32227,11.25v-1.75586h-1.60645v1.75586h-.80322v-4.00488h.80322v1.61816h1.60645v-1.61816h.80322v4.00488h-.80322Z"/>
      <path fill="#70c7da" d="M23.69434,11.25v-4.00488h.80322v4.00488h-.80322Z"/>
      <path fill="#70c7da" d="M26.13086,11.25v-1.58398l-1.46289-2.4209h.94092l.94678,1.68164.96387-1.68164h.84912l-1.43408,2.4209v1.58398h-.80371Z"/>
      <path fill="#70c7da" d="M30.78027,11.25l-.34375-.91797h-1.62402l-.34961.91797h-.83203l1.56055-4.00488h.90625l1.57227,4.00488h-.88965ZM29.63281,8.04883h-.01123l-.57959,1.65234h1.17041l-.57959-1.65234Z"/>
      <path fill="#70c7da" d="M35.61279,11.25v-3.30469h-.01172l-1.07861,3.30469h-.76855l-1.07861-3.30469-.01172.01172v3.29297h-.76855v-4.00488h1.28516l.95215,3.03516h.01172l.95215-3.03516h1.28516v4.00488h-.76855Z"/>
      <path fill="#70c7da" d="M39.75488,11.25l-.34473-.91797h-1.62354l-.3501.91797h-.83154l1.56055-4.00488h.90625l1.57227,4.00488h-.88916ZM38.60742,8.04883h-.01172l-.57959,1.65234h1.17041l-.5791-1.65234Z"/>
      <path fill="#70c7da" d="M40.60498,10.02246v-.63184h1.50928v.63184h-1.50928Z"/>
      <path fill="#70c7da" d="M42.49609,10.44141c.28711.1543.60254.24609.90674.24609.29248,0,.71143-.14844.71143-.51562,0-.30469-.26953-.43652-.66553-.5918-.53369-.20605-1.09033-.42969-1.09033-1.18164,0-.86035.64844-1.22168,1.40576-1.22168.33838,0,.65967.0459.95264.14355l-.07471.65918c-.26953-.11426-.54492-.17188-.81494-.17188-.29785,0-.63086.1377-.63086.55664,0,.30371.34424.41895.67676.55078.53955.2002,1.0791.44727,1.0791,1.19336,0,.77441-.55078,1.20996-1.50928,1.20996-.41309,0-.63672-.05664-1.021-.1543l.07422-.72266Z"/>
      <path fill="#70c7da" d="M48.12695,11.25l-.34375-.91797h-1.62402l-.34961.91797h-.83203l1.56055-4.00488h.90625l1.57227,4.00488h-.88965ZM46.97949,8.04883h-.01123l-.57959,1.65234h1.17041l-.57959-1.65234Z"/>
      <path fill="#70c7da" d="M51.49609,11.25l-1.44043-1.85938h-.01123v1.85938h-.80322v-4.00488h.80322v1.72168l1.4458-1.72168h.98633l-1.64648,1.8877,1.71582,2.11719h-1.0498Z"/>
      <path fill="#70c7da" d="M55.51367,11.25l-.34375-.91797h-1.62402l-.34961.91797h-.83203l1.56055-4.00488h.90625l1.57227,4.00488h-.88965ZM54.36621,8.04883h-.01172l-.5791,1.65234h1.16992l-.5791-1.65234Z"/>
      <path fill="#70c7da" d="M60.3457,11.25v-3.30469h-.01172l-1.0791,3.30469h-.76855l-1.07812-3.30469-.01172.01172v3.29297h-.76855v-4.00488h1.28516l.95215,3.03516h.01172l.95215-3.03516h1.28516v4.00488h-.76855Z"/>
      <path fill="#70c7da" d="M61.55566,9.23633c0-1.26758.72949-2.05957,1.96289-2.05957,1.17578,0,1.96191.7627,1.96191,2.05957,0,1.29102-.76855,2.08203-1.96191,2.08203-1.23926,0-1.96289-.80273-1.96289-2.08203ZM64.64258,9.23633c0-.73438-.34375-1.42871-1.12988-1.42871-.72266,0-1.11914.63086-1.11914,1.42871,0,.84863.39062,1.45117,1.125,1.45117.74023,0,1.12402-.60742,1.12402-1.45117Z"/>
      <path fill="#70c7da" d="M66.65234,11.25v-3.37305h-1.14844v-.63184h3.09863v.63184h-1.14746v3.37305h-.80273Z"/>
      <path fill="#70c7da" d="M68.62793,9.23633c0-1.26758.72852-2.05957,1.96191-2.05957,1.17676,0,1.96289.7627,1.96289,2.05957,0,1.29102-.76953,2.08203-1.96289,2.08203-1.23926,0-1.96191-.80273-1.96191-2.08203ZM71.71484,9.23633c0-.73438-.34473-1.42871-1.13086-1.42871-.72266,0-1.11816.63086-1.11816,1.42871,0,.84863.38965,1.45117,1.12402,1.45117.74023,0,1.125-.60742,1.125-1.45117Z"/>
      <path fill="#70c7da" d="M74.30176,11.25v-4.00488h.80273v3.37402h1.55566v.63086h-2.3584Z"/>
      <path fill="#70c7da" d="M76.81055,11.25v-4.00488h.80371v4.00488h-.80371Z"/>
      <path fill="#70c7da" d="M80.45801,11.25l-1.53125-2.99512h-.01172v2.99512h-.76855v-4.00488h.98633l1.52637,2.99512h.01172v-2.99512h.76855v4.00488h-.98145Z"/>
      <path fill="#70c7da" d="M82.03809,11.25v-4.00488h2.36328v.63184h-1.56055v.98633h1.42871v.63086h-1.42871v1.125h1.57227v.63086h-2.375Z"/>
    </g>
  </symbol>
  <symbol id="Keishin" viewBox="0 0 100 100">
    <g>
      <polygon fill="#6eba44" points="30 62.5 30 67.5 15 67.5 17.92 62.5 30 62.5"/>
      <rect fill="#6eba44" x="33.75" y="62.5" width="14.38" height="5"/>
      <rect fill="#6eba44" x="51.88" y="62.5" width="14.37" height="5"/>
      <polygon fill="#6eba44" points="85 67.5 70 67.5 70 62.5 82.08 62.5 85 67.5"/>
    </g>
    <g>
      <polygon fill="#abcd03" points="78.44 56.25 21.56 56.25 25.47 49.55 70.58 42.79 78.44 56.25"/>
      <polygon fill="#abcd03" points="67.28 37.13 27.93 45.33 37.6 28.76 63.94 31.39 67.28 37.13"/>
      <polygon fill="#abcd03" points="61.56 27.31 40.86 23.17 50 7.5 61.56 27.31"/>
    </g>
    <g>
      <path fill="#abcd03" d="M27.72314,81.54004c-.25342.36035-1.52197,2.16309-3.17773,3.27148l-.97461-1.06836c1.72266-1.1084,2.64355-2.46973,2.96436-2.92383l1.18799.7207ZM36.25488,74.98438h-12.57715v-1.36133h5.51416v-1.13477h1.44189v1.13477h5.62109v1.36133ZM34.85303,75.98633v4.43262h-4.21924v3.4043c0,.61426-.21338,1.28125-1.18848,1.28125h-2.17627l-.25342-1.40137h1.85596c.30713,0,.44043,0,.44043-.36035v-2.92383h-4.24561v-4.43262h9.78662ZM26.40137,77.22754v1.94922h7.08984v-1.94922h-7.08984ZM35.32031,84.73145c-1.57568-.93457-2.2832-1.7627-3.35156-3.23145l1.20166-.7207c.97461,1.26855,1.84277,2.04297,3.08447,2.76367l-.93457,1.18848Z"/>
      <path fill="#abcd03" d="M46.7002,80.33887c-.37402,1.24121-1.13477,3.27051-2.05615,4.64551l-1.05469-1.12109c1.14795-1.74902,1.77588-3.61816,2.00244-4.28613l1.1084.76172ZM44.32373,76.23926c.46729.21387,1.53516.80176,2.10938,1.25586l-.81445,1.09473c-.5874-.49414-1.40186-.96191-2.01611-1.25586l.72119-1.09473ZM44.99121,72.68848c.56055.24023,1.60205.88086,2.06934,1.22754l-.80078,1.16211c-.34717-.33398-1.34863-1.00098-2.01611-1.34863l.74756-1.04102ZM51.86719,81.83398h4.39258v1.22852h-4.39258v1.93555h-1.33496v-1.93555h-3.80518v-1.22852h3.80518v-.84082h-3.36475v-1.14844h3.36475v-.9082h-3.03076v-1.14844h3.03076v-.96094h-3.67188v-1.13477h3.67188v-.96191h-3.03076v-1.20117h3.03076v-.97461h1.33496v.97461h3.79199v2.16309h.60059v1.13477h-.60059v2.10938h-3.79199v.9082h3.96582v1.14844h-3.96582v.84082ZM51.86719,74.73047v.96191h2.44336v-.96191h-2.44336ZM51.86719,76.82715v.96094h2.44336v-.96094h-2.44336Z"/>
      <path fill="#abcd03" d="M65.25098,80.3916c-.04004,1.05469-.14746,2.52344-.48145,3.76562l-1.21484-.40039c.32031-1.01465.4541-2.11035.49414-3.53809l1.20215.17285ZM63.63477,78.32227c.60156-.0127.68164-.0127.85449-.0127.1875-.24121.3877-.50781.80176-1.12207-.06738-.08008-.76172-.88086-1.68262-1.61523l.66797-1.1084.30664.25391c.13379-.2002.68066-1.05469,1.14844-2.17676l1.25488.44043c-.60059,1.26855-1.38867,2.41699-1.49512,2.57715.12012.13379.21387.22754.50684.56055.72168-1.13477,1.05469-1.69531,1.32227-2.16309l1.1748.48145c-.24023.40039-.89453,1.5752-2.66992,3.81836.81445-.04004.94727-.04004,1.52148-.06738-.09375-.38672-.16016-.60059-.25391-.85449l.96191-.34668c.2666.66797.54688,1.62891.68066,2.38965l-1.08105.36035c-.04004-.29297-.05371-.33301-.08008-.49316-.44141.04004-.50781.05273-.69434.06641v5.75391h-1.28223v-5.64746c-.62695.04004-1.42871.08008-1.89551.09375l-.06738-1.18848ZM68.32129,80.28516c.10742.52051.24023,1.53516.26758,2.34961l-1.09473.21387c-.02734-.97461-.20117-2.09668-.25391-2.44336l1.08105-.12012ZM71.44531,79.4707c-.4668,3.47168-2.06934,4.68652-2.70996,5.16699l-.93457-.94824c.93457-.69434,1.74902-1.46875,2.14941-2.96387h-1.21484v-1.25488h2.70996ZM76.3457,79.75098c-.56055.68066-1.22852,1.24219-1.72266,1.62891.82812,1.04102,1.49609,1.46875,1.93652,1.74902l-.77441,1.29492c-1.52246-1.32129-1.98926-2.00293-2.69727-3.80469v3.29785c0,.57422-.16016,1.14746-.98828,1.14746h-1.58887l-.22656-1.32129h1.16113c.37402,0,.37402-.17383.37402-.42773v-4.67285h-2.76367v-4.95312h2.38965c.2002-.49414.33398-.98828.37402-1.14844h1.42871c-.06641.26758-.14648.57422-.36035,1.14844h2.89746v4.95312h-2.69727c.2002.49414.44043,1.08203.85449,1.74902.57422-.49414.86816-.81445,1.46875-1.52148l.93457.88086ZM70.35059,74.7041v.94824h4.12598v-.94824h-4.12598ZM70.35059,76.57324v1.06836h4.12598v-1.06836h-4.12598Z"/>
    </g>
    <g>
      <path fill="#abcd03" d="M33.62793,93.125l-1.44043-1.85938h-.01123v1.85938h-.80322v-4.00488h.80322v1.72168l1.4458-1.72168h.98682l-1.64697,1.8877,1.71582,2.11719h-1.0498Z"/>
      <path fill="#abcd03" d="M35.48193,93.125v-4.00488h2.36377v.63184h-1.56055v.98633h1.42871v.63086h-1.42871v1.125h1.57178v.63086h-2.375Z"/>
      <path fill="#abcd03" d="M38.88574,93.125v-4.00488h.80322v4.00488h-.80322Z"/>
      <path fill="#abcd03" d="M40.83984,92.31641c.28711.1543.60254.24609.90674.24609.29248,0,.71143-.14844.71143-.51562,0-.30469-.26953-.43652-.66553-.5918-.53369-.20605-1.09033-.42969-1.09033-1.18164,0-.86035.64844-1.22168,1.40576-1.22168.33838,0,.65967.0459.95264.14355l-.07471.65918c-.26953-.11426-.54492-.17188-.81494-.17188-.29785,0-.63086.1377-.63086.55664,0,.30371.34424.41895.67676.55078.53955.2002,1.0791.44727,1.0791,1.19336,0,.77441-.55078,1.20996-1.50928,1.20996-.41309,0-.63672-.05664-1.021-.1543l.07422-.72266Z"/>
      <path fill="#abcd03" d="M46.7168,93.125v-1.75586h-1.60645v1.75586h-.80322v-4.00488h.80322v1.61816h1.60645v-1.61816h.80322v4.00488h-.80322Z"/>
      <path fill="#abcd03" d="M48.66211,93.125v-4.00488h.80322v4.00488h-.80322Z"/>
      <path fill="#abcd03" d="M52.88281,93.125l-1.53223-2.99512h-.01074v2.99512h-.76953v-4.00488h.9873l1.52637,2.99512h.01074v-2.99512h.76953v4.00488h-.98145Z"/>
      <path fill="#abcd03" d="M56.91504,93.125v-4.00488h.80273v3.37402h1.55469v.63086h-2.35742Z"/>
      <path fill="#abcd03" d="M59.99805,93.125v-4.00488h.80273v4.00488h-.80273Z"/>
      <path fill="#abcd03" d="M64.21777,93.125l-1.53223-2.99512h-.01074v2.99512h-.76953v-4.00488h.9873l1.52637,2.99512h.01074v-2.99512h.76953v4.00488h-.98145Z"/>
      <path fill="#abcd03" d="M66.37012,93.125v-4.00488h2.36328v.63184h-1.56055v.98633h1.42871v.63086h-1.42871v1.125h1.57227v.63086h-2.375Z"/>
    </g>
  </symbol>
  <symbol id="OT01" viewBox="0 0 100 100">
    <rect fill="#1d2088" y="30" width="100" height="40"/>
    <rect fill="#fff" x="44.375" y="31.875" width="53.75" height="36.25"/>
    <g>
      <path fill="#fff" d="M5.21973,55.57422c0-5.93555,3.41064-9.6416,9.18457-9.6416,5.50537,0,9.18457,3.57178,9.18457,9.6416,0,6.04199-3.59863,9.74805-9.18457,9.74805-5.80078,0-9.18457-3.75977-9.18457-9.74805ZM19.66797,55.57422c0-3.4375-1.61133-6.6875-5.29053-6.6875-3.38379,0-5.23682,2.9541-5.23682,6.6875,0,3.97461,1.82617,6.79395,5.26367,6.79395,3.46436,0,5.26367-2.84668,5.26367-6.79395Z"/>
      <path fill="#fff" d="M30.44238,65v-15.79102h-5.37109v-2.9541h14.50195v2.9541h-5.37109v15.79102h-3.75977Z"/>
    </g>
    <g>
      <path fill="#1d2088" d="M48.85742,50.08545c0-9.45654,3.39551-15.60303,10.40234-15.60303,6.87695,0,10.48828,5.41602,10.48828,15.60303,0,9.97217-3.61133,15.43115-10.48828,15.43115-6.83496,0-10.40234-4.89941-10.40234-15.43115ZM63.72949,50.08545c0-4.51318-.12891-11.13281-4.5127-11.13281-4.08398,0-4.3418,6.36182-4.3418,11.00391,0,4.81494.17188,11.09033,4.38477,11.09033,4.34082,0,4.46973-6.49121,4.46973-10.96143Z"/>
      <path fill="#1d2088" d="M82.72656,65.00098v-23.16846l-5.07227,4.12646-3.00879-3.91162,8.76855-7.04932h5.33008v30.00293h-6.01758Z"/>
    </g>
  </symbol>
  <symbol id="OT02" viewBox="0 0 100 100">
    <rect fill="#1d2088" y="30" width="100" height="40"/>
    <rect fill="#fff" x="44.375" y="31.875" width="53.75" height="36.25"/>
    <g>
      <path fill="#fff" d="M5.21973,55.57422c0-5.93555,3.41064-9.6416,9.18457-9.6416,5.50537,0,9.18457,3.57178,9.18457,9.6416,0,6.04199-3.59863,9.74805-9.18457,9.74805-5.80078,0-9.18457-3.75977-9.18457-9.74805ZM19.66797,55.57422c0-3.4375-1.61133-6.6875-5.29053-6.6875-3.38379,0-5.23682,2.9541-5.23682,6.6875,0,3.97461,1.82617,6.79395,5.26367,6.79395,3.46436,0,5.26367-2.84668,5.26367-6.79395Z"/>
      <path fill="#fff" d="M30.44238,65v-15.79102h-5.37109v-2.9541h14.50195v2.9541h-5.37109v15.79102h-3.75977Z"/>
    </g>
    <g>
      <path fill="#1d2088" d="M48.85742,50.08545c0-9.45654,3.39551-15.60303,10.40234-15.60303,6.87695,0,10.48828,5.41602,10.48828,15.60303,0,9.97217-3.61133,15.43115-10.48828,15.43115-6.83496,0-10.40234-4.89941-10.40234-15.43115ZM63.72949,50.08545c0-4.51318-.12891-11.13281-4.5127-11.13281-4.08398,0-4.3418,6.36182-4.3418,11.00391,0,4.81494.17188,11.09033,4.38477,11.09033,4.34082,0,4.46973-6.49121,4.46973-10.96143Z"/>
      <path fill="#1d2088" d="M73.0127,65.00098v-5.0293l3.61035-3.35254c5.75977-5.37305,9.37012-10.10107,9.37012-13.36816,0-2.5791-2.23438-4.04053-4.89941-4.04053-2.06348,0-4.3418.73096-6.9209,2.40723l-.47266-4.98633c2.75098-1.37549,5.80273-2.14893,8.89746-2.14893,5.97461,0,9.41406,3.1377,9.41406,8.76855,0,4.16943-2.40723,8.72656-11.30566,17.02246h12.25098v4.72754h-19.94434Z"/>
    </g>
  </symbol>
  <symbol id="OT03" viewBox="0 0 100 100">
    <rect fill="#1d2088" y="30" width="100" height="40"/>
    <rect fill="#fff" x="44.375" y="31.875" width="53.75" height="36.25"/>
    <g>
      <path fill="#fff" d="M5.21973,55.57422c0-5.93555,3.41064-9.6416,9.18457-9.6416,5.50537,0,9.18457,3.57178,9.18457,9.6416,0,6.04199-3.59863,9.74805-9.18457,9.74805-5.80078,0-9.18457-3.75977-9.18457-9.74805ZM19.66797,55.57422c0-3.4375-1.61133-6.6875-5.29053-6.6875-3.38379,0-5.23682,2.9541-5.23682,6.6875,0,3.97461,1.82617,6.79395,5.26367,6.79395,3.46436,0,5.26367-2.84668,5.26367-6.79395Z"/>
      <path fill="#fff" d="M30.44238,65v-15.79102h-5.37109v-2.9541h14.50195v2.9541h-5.37109v15.79102h-3.75977Z"/>
    </g>
    <g>
      <path fill="#1d2088" d="M48.85742,50.08545c0-9.45654,3.39551-15.60303,10.40234-15.60303,6.87695,0,10.48828,5.41602,10.48828,15.60303,0,9.97217-3.61133,15.43115-10.48828,15.43115-6.83496,0-10.40234-4.89941-10.40234-15.43115ZM63.72949,50.08545c0-4.51318-.12891-11.13281-4.5127-11.13281-4.08398,0-4.3418,6.36182-4.3418,11.00391,0,4.81494.17188,11.09033,4.38477,11.09033,4.34082,0,4.46973-6.49121,4.46973-10.96143Z"/>
      <path fill="#1d2088" d="M73.52832,59.41309c2.19238.86035,4.38379,1.37598,6.61914,1.37598,2.87988,0,6.3623-1.37598,6.3623-4.25586,0-3.1377-2.23535-4.68555-6.57715-4.68555h-2.96582v-4.72803h2.92285c3.82617,0,6.49121-1.37549,6.49121-3.95459s-1.80566-3.95459-5.20117-3.95459c-2.27832,0-4.59961.55908-6.70605,1.59033l-.34375-4.81396c2.40723-.9458,5.28711-1.50439,8.33887-1.50439,4.90039,0,9.92969,1.97705,9.92969,7.69385,0,3.43896-1.7627,5.71729-5.58789,7.17871v.08594c3.61035.47266,5.7168,3.22412,5.7168,7.13525,0,6.01758-4.72852,8.94043-11.5625,8.94043-2.5791,0-5.50195-.34375-7.78027-.98828l.34375-5.11523Z"/>
    </g>
  </symbol>
  <symbol id="OT04" viewBox="0 0 100 100">
    <rect fill="#1d2088" y="30" width="100" height="40"/>
    <rect fill="#fff" x="44.375" y="31.875" width="53.75" height="36.25"/>
    <g>
      <path fill="#fff" d="M5.21973,55.57422c0-5.93555,3.41064-9.6416,9.18457-9.6416,5.50537,0,9.18457,3.57178,9.18457,9.6416,0,6.04199-3.59863,9.74805-9.18457,9.74805-5.80078,0-9.18457-3.75977-9.18457-9.74805ZM19.66797,55.57422c0-3.4375-1.61133-6.6875-5.29053-6.6875-3.38379,0-5.23682,2.9541-5.23682,6.6875,0,3.97461,1.82617,6.79395,5.26367,6.79395,3.46436,0,5.26367-2.84668,5.26367-6.79395Z"/>
      <path fill="#fff" d="M30.44238,65v-15.79102h-5.37109v-2.9541h14.50195v2.9541h-5.37109v15.79102h-3.75977Z"/>
    </g>
    <g>
      <path fill="#1d2088" d="M48.85742,50.08545c0-9.45654,3.39551-15.60303,10.40234-15.60303,6.87695,0,10.48828,5.41602,10.48828,15.60303,0,9.97217-3.61133,15.43115-10.48828,15.43115-6.83496,0-10.40234-4.89941-10.40234-15.43115ZM63.72949,50.08545c0-4.51318-.12891-11.13281-4.5127-11.13281-4.08398,0-4.3418,6.36182-4.3418,11.00391,0,4.81494.17188,11.09033,4.38477,11.09033,4.34082,0,4.46973-6.49121,4.46973-10.96143Z"/>
      <path fill="#1d2088" d="M84.87598,65.00098v-6.23242h-12.93848v-4.85742l11.21875-18.91309h7.47949v19.2998h3.8252v4.4707h-3.8252v6.23242h-5.75977ZM84.87598,41.27393h-.08594l-7.43652,13.02393h7.52246v-13.02393Z"/>
    </g>
  </symbol>
  <symbol id="OT05" viewBox="0 0 100 100">
    <rect fill="#1d2088" y="30" width="100" height="40"/>
    <rect fill="#fff" x="44.375" y="31.875" width="53.75" height="36.25"/>
    <g>
      <path fill="#fff" d="M5.21973,55.57422c0-5.93555,3.41064-9.6416,9.18457-9.6416,5.50537,0,9.18457,3.57178,9.18457,9.6416,0,6.04199-3.59863,9.74805-9.18457,9.74805-5.80078,0-9.18457-3.75977-9.18457-9.74805ZM19.66797,55.57422c0-3.4375-1.61133-6.6875-5.29053-6.6875-3.38379,0-5.23682,2.9541-5.23682,6.6875,0,3.97461,1.82617,6.79395,5.26367,6.79395,3.46436,0,5.26367-2.84668,5.26367-6.79395Z"/>
      <path fill="#fff" d="M30.44238,65v-15.79102h-5.37109v-2.9541h14.50195v2.9541h-5.37109v15.79102h-3.75977Z"/>
    </g>
    <g>
      <path fill="#1d2088" d="M48.85742,50.08545c0-9.45654,3.39551-15.60303,10.40234-15.60303,6.87695,0,10.48828,5.41602,10.48828,15.60303,0,9.97217-3.61133,15.43115-10.48828,15.43115-6.83496,0-10.40234-4.89941-10.40234-15.43115ZM63.72949,50.08545c0-4.51318-.12891-11.13281-4.5127-11.13281-4.08398,0-4.3418,6.36182-4.3418,11.00391,0,4.81494.17188,11.09033,4.38477,11.09033,4.34082,0,4.46973-6.49121,4.46973-10.96143Z"/>
      <path fill="#1d2088" d="M74.47363,59.28418c2.49316,1.0752,4.3418,1.50488,6.06055,1.50488,3.82617,0,6.49121-1.8916,6.49121-5.28711,0-3.30957-2.62207-5.20166-6.87793-5.20166-1.84766,0-3.61035.2583-5.37305.81689l.30078-16.11914h17.2373v4.47021h-11.56348l-.12891,6.40479c1.03223-.17188,1.67676-.30078,2.75098-.30078,5.37305,0,9.67188,2.96582,9.67188,9.71484,0,6.14648-4.4707,10.22949-11.69141,10.22949-1.93457,0-4.72852-.30078-7.00684-.85938l.12891-5.37305Z"/>
    </g>
  </symbol>
  <symbol id="OT06" viewBox="0 0 100 100">
    <rect fill="#1d2088" y="30" width="100" height="40"/>
    <rect fill="#fff" x="44.375" y="31.875" width="53.75" height="36.25"/>
    <g>
      <path fill="#fff" d="M5.21973,55.57422c0-5.93555,3.41064-9.6416,9.18457-9.6416,5.50537,0,9.18457,3.57178,9.18457,9.6416,0,6.04199-3.59863,9.74805-9.18457,9.74805-5.80078,0-9.18457-3.75977-9.18457-9.74805ZM19.66797,55.57422c0-3.4375-1.61133-6.6875-5.29053-6.6875-3.38379,0-5.23682,2.9541-5.23682,6.6875,0,3.97461,1.82617,6.79395,5.26367,6.79395,3.46436,0,5.26367-2.84668,5.26367-6.79395Z"/>
      <path fill="#fff" d="M30.44238,65v-15.79102h-5.37109v-2.9541h14.50195v2.9541h-5.37109v15.79102h-3.75977Z"/>
    </g>
    <g>
      <path fill="#1d2088" d="M48.85742,50.08545c0-9.45654,3.39551-15.60303,10.40234-15.60303,6.87695,0,10.48828,5.41602,10.48828,15.60303,0,9.97217-3.61133,15.43115-10.48828,15.43115-6.83496,0-10.40234-4.89941-10.40234-15.43115ZM63.72949,50.08545c0-4.51318-.12891-11.13281-4.5127-11.13281-4.08398,0-4.3418,6.36182-4.3418,11.00391,0,4.81494.17188,11.09033,4.38477,11.09033,4.34082,0,4.46973-6.49121,4.46973-10.96143Z"/>
      <path fill="#1d2088" d="M91.02246,40.41406c-1.50391-.64453-3.1377-1.20361-5.24414-1.20361-4.77051,0-6.91992,4.0835-7.13477,9.28467l.08594.08594c1.41797-2.06299,3.2666-3.00879,5.8457-3.00879,5.50195,0,8.72559,3.48145,8.72559,9.15625,0,6.87695-3.52441,10.78809-9.97266,10.78809-6.70508,0-10.18652-4.42676-10.18652-13.96973,0-9.19824,3.2666-17.06445,12.33594-17.06445,2.19238,0,4.25586.34375,6.31836,1.07471l-.77344,4.85693ZM87.2832,55.67383c0-2.75098-1.0752-5.63135-4.12695-5.63135-2.49316,0-3.99707,2.10693-3.99707,5.67432,0,2.79395,1.16016,5.33008,4.16895,5.33008,2.87988,0,3.95508-2.83691,3.95508-5.37305Z"/>
    </g>
  </symbol>
  <symbol id="OT07" viewBox="0 0 100 100">
    <rect fill="#1d2088" y="30" width="100" height="40"/>
    <rect fill="#fff" x="44.375" y="31.875" width="53.75" height="36.25"/>
    <g>
      <path fill="#fff" d="M5.21973,55.57422c0-5.93555,3.41064-9.6416,9.18457-9.6416,5.50537,0,9.18457,3.57178,9.18457,9.6416,0,6.04199-3.59863,9.74805-9.18457,9.74805-5.80078,0-9.18457-3.75977-9.18457-9.74805ZM19.66797,55.57422c0-3.4375-1.61133-6.6875-5.29053-6.6875-3.38379,0-5.23682,2.9541-5.23682,6.6875,0,3.97461,1.82617,6.79395,5.26367,6.79395,3.46436,0,5.26367-2.84668,5.26367-6.79395Z"/>
      <path fill="#fff" d="M30.44238,65v-15.79102h-5.37109v-2.9541h14.50195v2.9541h-5.37109v15.79102h-3.75977Z"/>
    </g>
    <g>
      <path fill="#1d2088" d="M48.85742,50.08545c0-9.45654,3.39551-15.60303,10.40234-15.60303,6.87695,0,10.48828,5.41602,10.48828,15.60303,0,9.97217-3.61133,15.43115-10.48828,15.43115-6.83496,0-10.40234-4.89941-10.40234-15.43115ZM63.72949,50.08545c0-4.51318-.12891-11.13281-4.5127-11.13281-4.08398,0-4.3418,6.36182-4.3418,11.00391,0,4.81494.17188,11.09033,4.38477,11.09033,4.34082,0,4.46973-6.49121,4.46973-10.96143Z"/>
      <path fill="#1d2088" d="M75.54883,65.00098l11.13281-25.27441h-13.28223v-4.72852h19.34277v4.98633l-10.66016,25.0166h-6.5332Z"/>
    </g>
  </symbol>
  <symbol id="OT08" viewBox="0 0 100 100">
    <rect fill="#1d2088" y="30" width="100" height="40"/>
    <rect fill="#fff" x="44.375" y="31.875" width="53.75" height="36.25"/>
    <g>
      <path fill="#fff" d="M5.21973,55.57422c0-5.93555,3.41064-9.6416,9.18457-9.6416,5.50537,0,9.18457,3.57178,9.18457,9.6416,0,6.04199-3.59863,9.74805-9.18457,9.74805-5.80078,0-9.18457-3.75977-9.18457-9.74805ZM19.66797,55.57422c0-3.4375-1.61133-6.6875-5.29053-6.6875-3.38379,0-5.23682,2.9541-5.23682,6.6875,0,3.97461,1.82617,6.79395,5.26367,6.79395,3.46436,0,5.26367-2.84668,5.26367-6.79395Z"/>
      <path fill="#fff" d="M30.44238,65v-15.79102h-5.37109v-2.9541h14.50195v2.9541h-5.37109v15.79102h-3.75977Z"/>
    </g>
    <g>
      <path fill="#1d2088" d="M48.85742,50.08545c0-9.45654,3.39551-15.60303,10.40234-15.60303,6.87695,0,10.48828,5.41602,10.48828,15.60303,0,9.97217-3.61133,15.43115-10.48828,15.43115-6.83496,0-10.40234-4.89941-10.40234-15.43115ZM63.72949,50.08545c0-4.51318-.12891-11.13281-4.5127-11.13281-4.08398,0-4.3418,6.36182-4.3418,11.00391,0,4.81494.17188,11.09033,4.38477,11.09033,4.34082,0,4.46973-6.49121,4.46973-10.96143Z"/>
      <path fill="#1d2088" d="M87.88477,48.9248c3.86816,1.80566,5.75977,4.3418,5.75977,7.90918,0,5.54492-3.8252,8.68262-10.31641,8.68262-6.44727,0-10.57324-3.00879-10.57324-8.59668,0-3.35254,1.80469-5.67383,5.50195-7.479v-.08594c-3.52539-1.59082-4.98633-4.29834-4.98633-6.96338,0-5.24414,3.91113-7.90918,9.54199-7.90918,5.54492,0,10.05859,2.36426,10.05859,7.22119,0,3.09473-2.06348,6.01758-4.98633,7.17822v.04297ZM78.77246,56.79102c0,2.4502,2.10645,4.25586,4.55566,4.25586,2.4502,0,4.29883-1.54785,4.29883-3.99805,0-2.32031-1.50488-4.04004-5.0293-5.20117-2.70801,1.29004-3.8252,2.83691-3.8252,4.94336ZM87.11133,42.69238c0-1.71924-.98926-3.73975-3.74023-3.73975-2.01953,0-4.34082,1.11768-4.34082,3.61084,0,1.89111,1.375,3.30957,4.72852,4.51318,1.58984-.55859,3.35254-2.40723,3.35254-4.38428Z"/>
    </g>
  </symbol>
  <symbol id="OT09" viewBox="0 0 100 100">
    <rect fill="#1d2088" y="30" width="100" height="40"/>
    <rect fill="#fff" x="44.375" y="31.875" width="53.75" height="36.25"/>
    <g>
      <path fill="#fff" d="M5.21973,55.57422c0-5.93555,3.41064-9.6416,9.18457-9.6416,5.50537,0,9.18457,3.57178,9.18457,9.6416,0,6.04199-3.59863,9.74805-9.18457,9.74805-5.80078,0-9.18457-3.75977-9.18457-9.74805ZM19.66797,55.57422c0-3.4375-1.61133-6.6875-5.29053-6.6875-3.38379,0-5.23682,2.9541-5.23682,6.6875,0,3.97461,1.82617,6.79395,5.26367,6.79395,3.46436,0,5.26367-2.84668,5.26367-6.79395Z"/>
      <path fill="#fff" d="M30.44238,65v-15.79102h-5.37109v-2.9541h14.50195v2.9541h-5.37109v15.79102h-3.75977Z"/>
    </g>
    <g>
      <path fill="#1d2088" d="M48.85742,50.08545c0-9.45654,3.39551-15.60303,10.40234-15.60303,6.87695,0,10.48828,5.41602,10.48828,15.60303,0,9.97217-3.61133,15.43115-10.48828,15.43115-6.83496,0-10.40234-4.89941-10.40234-15.43115ZM63.72949,50.08545c0-4.51318-.12891-11.13281-4.5127-11.13281-4.08398,0-4.3418,6.36182-4.3418,11.00391,0,4.81494.17188,11.09033,4.38477,11.09033,4.34082,0,4.46973-6.49121,4.46973-10.96143Z"/>
      <path fill="#1d2088" d="M87.71289,51.41797c-1.41895,2.10645-3.2666,3.00879-5.80273,3.00879-5.75977,0-8.76855-3.69629-8.76855-9.15527,0-6.87744,3.52441-10.78906,9.97168-10.78906,6.66309,0,10.1875,4.38428,10.1875,13.96973,0,9.32812-3.35254,17.06445-12.33594,17.06445-2.19238,0-4.25586-.34375-6.31934-1.07422l.77441-4.85742c1.67578.73145,3.30957,1.2041,5.24316,1.2041,4.3418,0,6.87793-3.43945,7.13574-9.28516l-.08594-.08594ZM87.2832,44.28271c0-2.79395-1.16113-5.33008-4.21289-5.33008-2.53613,0-3.91113,2.40723-3.91113,5.37305,0,3.05176,1.28906,5.63086,4.08301,5.63086,2.96582,0,4.04102-2.75098,4.04102-5.67383Z"/>
    </g>
  </symbol>
  <symbol id="OT10" viewBox="0 0 100 100">
    <rect fill="#1d2088" y="30" width="100" height="40"/>
    <rect fill="#fff" x="44.375" y="31.875" width="53.75" height="36.25"/>
    <g>
      <path fill="#fff" d="M5.21973,55.57422c0-5.93555,3.41064-9.6416,9.18457-9.6416,5.50537,0,9.18457,3.57178,9.18457,9.6416,0,6.04199-3.59863,9.74805-9.18457,9.74805-5.80078,0-9.18457-3.75977-9.18457-9.74805ZM19.66797,55.57422c0-3.4375-1.61133-6.6875-5.29053-6.6875-3.38379,0-5.23682,2.9541-5.23682,6.6875,0,3.97461,1.82617,6.79395,5.26367,6.79395,3.46436,0,5.26367-2.84668,5.26367-6.79395Z"/>
      <path fill="#fff" d="M30.44238,65v-15.79102h-5.37109v-2.9541h14.50195v2.9541h-5.37109v15.79102h-3.75977Z"/>
    </g>
    <g>
      <path fill="#1d2088" d="M58.83008,65.00098v-23.16846l-5.07227,4.12646-3.00928-3.91162,8.76904-7.04932h5.33008v30.00293h-6.01758Z"/>
      <path fill="#1d2088" d="M72.75488,50.08545c0-9.45654,3.39551-15.60303,10.40137-15.60303,6.87793,0,10.48828,5.41602,10.48828,15.60303,0,9.97217-3.61035,15.43115-10.48828,15.43115-6.83398,0-10.40137-4.89941-10.40137-15.43115ZM87.62695,50.08545c0-4.51318-.12891-11.13281-4.51367-11.13281-4.08301,0-4.34082,6.36182-4.34082,11.00391,0,4.81494.17188,11.09033,4.38379,11.09033,4.3418,0,4.4707-6.49121,4.4707-10.96143Z"/>
    </g>
  </symbol>
  <symbol id="OT11" viewBox="0 0 100 100">
    <rect fill="#1d2088" y="30" width="100" height="40"/>
    <rect fill="#fff" x="44.375" y="31.875" width="53.75" height="36.25"/>
    <g>
      <path fill="#fff" d="M5.21973,55.57422c0-5.93555,3.41064-9.6416,9.18457-9.6416,5.50537,0,9.18457,3.57178,9.18457,9.6416,0,6.04199-3.59863,9.74805-9.18457,9.74805-5.80078,0-9.18457-3.75977-9.18457-9.74805ZM19.66797,55.57422c0-3.4375-1.61133-6.6875-5.29053-6.6875-3.38379,0-5.23682,2.9541-5.23682,6.6875,0,3.97461,1.82617,6.79395,5.26367,6.79395,3.46436,0,5.26367-2.84668,5.26367-6.79395Z"/>
      <path fill="#fff" d="M30.44238,65v-15.79102h-5.37109v-2.9541h14.50195v2.9541h-5.37109v15.79102h-3.75977Z"/>
    </g>
    <g>
      <path fill="#1d2088" d="M58.83008,65.00098v-23.16846l-5.07227,4.12646-3.00928-3.91162,8.76904-7.04932h5.33008v30.00293h-6.01758Z"/>
      <path fill="#1d2088" d="M82.72656,65.00098v-23.16846l-5.07227,4.12646-3.00879-3.91162,8.76855-7.04932h5.33008v30.00293h-6.01758Z"/>
    </g>
  </symbol>
  <symbol id="OT12" viewBox="0 0 100 100">
    <rect fill="#1d2088" y="30" width="100" height="40"/>
    <rect fill="#fff" x="44.375" y="31.875" width="53.75" height="36.25"/>
    <g>
      <path fill="#fff" d="M5.21973,55.57422c0-5.93555,3.41064-9.6416,9.18457-9.6416,5.50537,0,9.18457,3.57178,9.18457,9.6416,0,6.04199-3.59863,9.74805-9.18457,9.74805-5.80078,0-9.18457-3.75977-9.18457-9.74805ZM19.66797,55.57422c0-3.4375-1.61133-6.6875-5.29053-6.6875-3.38379,0-5.23682,2.9541-5.23682,6.6875,0,3.97461,1.82617,6.79395,5.26367,6.79395,3.46436,0,5.26367-2.84668,5.26367-6.79395Z"/>
      <path fill="#fff" d="M30.44238,65v-15.79102h-5.37109v-2.9541h14.50195v2.9541h-5.37109v15.79102h-3.75977Z"/>
    </g>
    <g>
      <path fill="#1d2088" d="M58.83008,65.00098v-23.16846l-5.07227,4.12646-3.00928-3.91162,8.76904-7.04932h5.33008v30.00293h-6.01758Z"/>
      <path fill="#1d2088" d="M73.0127,65.00098v-5.0293l3.61035-3.35254c5.75977-5.37305,9.37012-10.10107,9.37012-13.36816,0-2.5791-2.23438-4.04053-4.89941-4.04053-2.06348,0-4.3418.73096-6.9209,2.40723l-.47266-4.98633c2.75098-1.37549,5.80273-2.14893,8.89746-2.14893,5.97461,0,9.41406,3.1377,9.41406,8.76855,0,4.16943-2.40723,8.72656-11.30566,17.02246h12.25098v4.72754h-19.94434Z"/>
    </g>
  </symbol>
  <symbol id="OT13" viewBox="0 0 100 100">
    <rect fill="#1d2088" y="30" width="100" height="40"/>
    <rect fill="#fff" x="44.375" y="31.875" width="53.75" height="36.25"/>
    <g>
      <path fill="#fff" d="M5.21973,55.57422c0-5.93555,3.41064-9.6416,9.18457-9.6416,5.50537,0,9.18457,3.57178,9.18457,9.6416,0,6.04199-3.59863,9.74805-9.18457,9.74805-5.80078,0-9.18457-3.75977-9.18457-9.74805ZM19.66797,55.57422c0-3.4375-1.61133-6.6875-5.29053-6.6875-3.38379,0-5.23682,2.9541-5.23682,6.6875,0,3.97461,1.82617,6.79395,5.26367,6.79395,3.46436,0,5.26367-2.84668,5.26367-6.79395Z"/>
      <path fill="#fff" d="M30.44238,65v-15.79102h-5.37109v-2.9541h14.50195v2.9541h-5.37109v15.79102h-3.75977Z"/>
    </g>
    <g>
      <path fill="#1d2088" d="M58.83008,65.00098v-23.16846l-5.07227,4.12646-3.00928-3.91162,8.76904-7.04932h5.33008v30.00293h-6.01758Z"/>
      <path fill="#1d2088" d="M73.52832,59.41309c2.19238.86035,4.38379,1.37598,6.61914,1.37598,2.87988,0,6.3623-1.37598,6.3623-4.25586,0-3.1377-2.23535-4.68555-6.57715-4.68555h-2.96582v-4.72803h2.92285c3.82617,0,6.49121-1.37549,6.49121-3.95459s-1.80566-3.95459-5.20117-3.95459c-2.27832,0-4.59961.55908-6.70605,1.59033l-.34375-4.81396c2.40723-.9458,5.28711-1.50439,8.33887-1.50439,4.90039,0,9.92969,1.97705,9.92969,7.69385,0,3.43896-1.7627,5.71729-5.58789,7.17871v.08594c3.61035.47266,5.7168,3.22412,5.7168,7.13525,0,6.01758-4.72852,8.94043-11.5625,8.94043-2.5791,0-5.50195-.34375-7.78027-.98828l.34375-5.11523Z"/>
    </g>
  </symbol>
  <symbol id="OT14" viewBox="0 0 100 100">
    <rect fill="#1d2088" y="30" width="100" height="40"/>
    <rect fill="#fff" x="44.375" y="31.875" width="53.75" height="36.25"/>
    <g>
      <path fill="#fff" d="M5.21973,55.57422c0-5.93555,3.41064-9.6416,9.18457-9.6416,5.50537,0,9.18457,3.57178,9.18457,9.6416,0,6.04199-3.59863,9.74805-9.18457,9.74805-5.80078,0-9.18457-3.75977-9.18457-9.74805ZM19.66797,55.57422c0-3.4375-1.61133-6.6875-5.29053-6.6875-3.38379,0-5.23682,2.9541-5.23682,6.6875,0,3.97461,1.82617,6.79395,5.26367,6.79395,3.46436,0,5.26367-2.84668,5.26367-6.79395Z"/>
      <path fill="#fff" d="M30.44238,65v-15.79102h-5.37109v-2.9541h14.50195v2.9541h-5.37109v15.79102h-3.75977Z"/>
    </g>
    <g>
      <path fill="#1d2088" d="M58.83008,65.00098v-23.16846l-5.07227,4.12646-3.00928-3.91162,8.76904-7.04932h5.33008v30.00293h-6.01758Z"/>
      <path fill="#1d2088" d="M84.87598,65.00098v-6.23242h-12.93848v-4.85742l11.21875-18.91309h7.47949v19.2998h3.8252v4.4707h-3.8252v6.23242h-5.75977ZM84.87598,41.27393h-.08594l-7.43652,13.02393h7.52246v-13.02393Z"/>
    </g>
  </symbol>
  <symbol id="OT15" viewBox="0 0 100 100">
    <rect fill="#1d2088" y="30" width="100" height="40"/>
    <rect fill="#fff" x="44.375" y="31.875" width="53.75" height="36.25"/>
    <g>
      <path fill="#fff" d="M5.21973,55.57422c0-5.93555,3.41064-9.6416,9.18457-9.6416,5.50537,0,9.18457,3.57178,9.18457,9.6416,0,6.04199-3.59863,9.74805-9.18457,9.74805-5.80078,0-9.18457-3.75977-9.18457-9.74805ZM19.66797,55.57422c0-3.4375-1.61133-6.6875-5.29053-6.6875-3.38379,0-5.23682,2.9541-5.23682,6.6875,0,3.97461,1.82617,6.79395,5.26367,6.79395,3.46436,0,5.26367-2.84668,5.26367-6.79395Z"/>
      <path fill="#fff" d="M30.44238,65v-15.79102h-5.37109v-2.9541h14.50195v2.9541h-5.37109v15.79102h-3.75977Z"/>
    </g>
    <g>
      <path fill="#1d2088" d="M58.83008,65.00098v-23.16846l-5.07227,4.12646-3.00928-3.91162,8.76904-7.04932h5.33008v30.00293h-6.01758Z"/>
      <path fill="#1d2088" d="M74.47363,59.28418c2.49316,1.0752,4.3418,1.50488,6.06055,1.50488,3.82617,0,6.49121-1.8916,6.49121-5.28711,0-3.30957-2.62207-5.20166-6.87793-5.20166-1.84766,0-3.61035.2583-5.37305.81689l.30078-16.11914h17.2373v4.47021h-11.56348l-.12891,6.40479c1.03223-.17188,1.67676-.30078,2.75098-.30078,5.37305,0,9.67188,2.96582,9.67188,9.71484,0,6.14648-4.4707,10.22949-11.69141,10.22949-1.93457,0-4.72852-.30078-7.00684-.85938l.12891-5.37305Z"/>
    </g>
  </symbol>
  <symbol id="OT16" viewBox="0 0 100 100">
    <rect fill="#1d2088" y="30" width="100" height="40"/>
    <rect fill="#fff" x="44.375" y="31.875" width="53.75" height="36.25"/>
    <g>
      <path fill="#fff" d="M5.21973,55.57422c0-5.93555,3.41064-9.6416,9.18457-9.6416,5.50537,0,9.18457,3.57178,9.18457,9.6416,0,6.04199-3.59863,9.74805-9.18457,9.74805-5.80078,0-9.18457-3.75977-9.18457-9.74805ZM19.66797,55.57422c0-3.4375-1.61133-6.6875-5.29053-6.6875-3.38379,0-5.23682,2.9541-5.23682,6.6875,0,3.97461,1.82617,6.79395,5.26367,6.79395,3.46436,0,5.26367-2.84668,5.26367-6.79395Z"/>
      <path fill="#fff" d="M30.44238,65v-15.79102h-5.37109v-2.9541h14.50195v2.9541h-5.37109v15.79102h-3.75977Z"/>
    </g>
    <g>
      <path fill="#1d2088" d="M58.83008,65.00098v-23.16846l-5.07227,4.12646-3.00928-3.91162,8.76904-7.04932h5.33008v30.00293h-6.01758Z"/>
      <path fill="#1d2088" d="M91.02246,40.41406c-1.50391-.64453-3.1377-1.20361-5.24414-1.20361-4.77051,0-6.91992,4.0835-7.13477,9.28467l.08594.08594c1.41797-2.06299,3.2666-3.00879,5.8457-3.00879,5.50195,0,8.72559,3.48145,8.72559,9.15625,0,6.87695-3.52441,10.78809-9.97266,10.78809-6.70508,0-10.18652-4.42676-10.18652-13.96973,0-9.19824,3.2666-17.06445,12.33594-17.06445,2.19238,0,4.25586.34375,6.31836,1.07471l-.77344,4.85693ZM87.2832,55.67383c0-2.75098-1.0752-5.63135-4.12695-5.63135-2.49316,0-3.99707,2.10693-3.99707,5.67432,0,2.79395,1.16016,5.33008,4.16895,5.33008,2.87988,0,3.95508-2.83691,3.95508-5.37305Z"/>
    </g>
  </symbol>
  <symbol id="OT17" viewBox="0 0 100 100">
    <rect fill="#1d2088" y="30" width="100" height="40"/>
    <rect fill="#fff" x="44.375" y="31.875" width="53.75" height="36.25"/>
    <g>
      <path fill="#fff" d="M5.21973,55.57422c0-5.93555,3.41064-9.6416,9.18457-9.6416,5.50537,0,9.18457,3.57178,9.18457,9.6416,0,6.04199-3.59863,9.74805-9.18457,9.74805-5.80078,0-9.18457-3.75977-9.18457-9.74805ZM19.66797,55.57422c0-3.4375-1.61133-6.6875-5.29053-6.6875-3.38379,0-5.23682,2.9541-5.23682,6.6875,0,3.97461,1.82617,6.79395,5.26367,6.79395,3.46436,0,5.26367-2.84668,5.26367-6.79395Z"/>
      <path fill="#fff" d="M30.44238,65v-15.79102h-5.37109v-2.9541h14.50195v2.9541h-5.37109v15.79102h-3.75977Z"/>
    </g>
    <g>
      <path fill="#1d2088" d="M58.83008,65.00098v-23.16846l-5.07227,4.12646-3.00928-3.91162,8.76904-7.04932h5.33008v30.00293h-6.01758Z"/>
      <path fill="#1d2088" d="M75.54883,65.00098l11.13281-25.27441h-13.28223v-4.72852h19.34277v4.98633l-10.66016,25.0166h-6.5332Z"/>
    </g>
  </symbol>
  <symbol id="OT18" viewBox="0 0 100 100">
    <rect fill="#1d2088" y="30" width="100" height="40"/>
    <rect fill="#fff" x="44.375" y="31.875" width="53.75" height="36.25"/>
    <g>
      <path fill="#fff" d="M5.21973,55.57422c0-5.93555,3.41064-9.6416,9.18457-9.6416,5.50537,0,9.18457,3.57178,9.18457,9.6416,0,6.04199-3.59863,9.74805-9.18457,9.74805-5.80078,0-9.18457-3.75977-9.18457-9.74805ZM19.66797,55.57422c0-3.4375-1.61133-6.6875-5.29053-6.6875-3.38379,0-5.23682,2.9541-5.23682,6.6875,0,3.97461,1.82617,6.79395,5.26367,6.79395,3.46436,0,5.26367-2.84668,5.26367-6.79395Z"/>
      <path fill="#fff" d="M30.44238,65v-15.79102h-5.37109v-2.9541h14.50195v2.9541h-5.37109v15.79102h-3.75977Z"/>
    </g>
    <g>
      <path fill="#1d2088" d="M58.83008,65.00098v-23.16846l-5.07227,4.12646-3.00928-3.91162,8.76904-7.04932h5.33008v30.00293h-6.01758Z"/>
      <path fill="#1d2088" d="M87.88477,48.9248c3.86816,1.80566,5.75977,4.3418,5.75977,7.90918,0,5.54492-3.8252,8.68262-10.31641,8.68262-6.44727,0-10.57324-3.00879-10.57324-8.59668,0-3.35254,1.80469-5.67383,5.50195-7.479v-.08594c-3.52539-1.59082-4.98633-4.29834-4.98633-6.96338,0-5.24414,3.91113-7.90918,9.54199-7.90918,5.54492,0,10.05859,2.36426,10.05859,7.22119,0,3.09473-2.06348,6.01758-4.98633,7.17822v.04297ZM78.77246,56.79102c0,2.4502,2.10645,4.25586,4.55566,4.25586,2.4502,0,4.29883-1.54785,4.29883-3.99805,0-2.32031-1.50488-4.04004-5.0293-5.20117-2.70801,1.29004-3.8252,2.83691-3.8252,4.94336ZM87.11133,42.69238c0-1.71924-.98926-3.73975-3.74023-3.73975-2.01953,0-4.34082,1.11768-4.34082,3.61084,0,1.89111,1.375,3.30957,4.72852,4.51318,1.58984-.55859,3.35254-2.40723,3.35254-4.38428Z"/>
    </g>
  </symbol>
  <symbol id="OT19" viewBox="0 0 100 100">
    <rect fill="#1d2088" y="30" width="100" height="40"/>
    <rect fill="#fff" x="44.375" y="31.875" width="53.75" height="36.25"/>
    <g>
      <path fill="#fff" d="M5.21973,55.57422c0-5.93555,3.41064-9.6416,9.18457-9.6416,5.50537,0,9.18457,3.57178,9.18457,9.6416,0,6.04199-3.59863,9.74805-9.18457,9.74805-5.80078,0-9.18457-3.75977-9.18457-9.74805ZM19.66797,55.57422c0-3.4375-1.61133-6.6875-5.29053-6.6875-3.38379,0-5.23682,2.9541-5.23682,6.6875,0,3.97461,1.82617,6.79395,5.26367,6.79395,3.46436,0,5.26367-2.84668,5.26367-6.79395Z"/>
      <path fill="#fff" d="M30.44238,65v-15.79102h-5.37109v-2.9541h14.50195v2.9541h-5.37109v15.79102h-3.75977Z"/>
    </g>
    <g>
      <path fill="#1d2088" d="M58.83008,65.00098v-23.16846l-5.07227,4.12646-3.00928-3.91162,8.76904-7.04932h5.33008v30.00293h-6.01758Z"/>
      <path fill="#1d2088" d="M87.71289,51.41797c-1.41895,2.10645-3.2666,3.00879-5.80273,3.00879-5.75977,0-8.76855-3.69629-8.76855-9.15527,0-6.87744,3.52441-10.78906,9.97168-10.78906,6.66309,0,10.1875,4.38428,10.1875,13.96973,0,9.32812-3.35254,17.06445-12.33594,17.06445-2.19238,0-4.25586-.34375-6.31934-1.07422l.77441-4.85742c1.67578.73145,3.30957,1.2041,5.24316,1.2041,4.3418,0,6.87793-3.43945,7.13574-9.28516l-.08594-.08594ZM87.2832,44.28271c0-2.79395-1.16113-5.33008-4.21289-5.33008-2.53613,0-3.91113,2.40723-3.91113,5.37305,0,3.05176,1.28906,5.63086,4.08301,5.63086,2.96582,0,4.04102-2.75098,4.04102-5.67383Z"/>
    </g>
  </symbol>
  <symbol id="OT20" viewBox="0 0 100 100">
    <rect fill="#1d2088" y="30" width="100" height="40"/>
    <rect fill="#fff" x="44.375" y="31.875" width="53.75" height="36.25"/>
    <g>
      <path fill="#fff" d="M5.21973,55.57422c0-5.93555,3.41064-9.6416,9.18457-9.6416,5.50537,0,9.18457,3.57178,9.18457,9.6416,0,6.04199-3.59863,9.74805-9.18457,9.74805-5.80078,0-9.18457-3.75977-9.18457-9.74805ZM19.66797,55.57422c0-3.4375-1.61133-6.6875-5.29053-6.6875-3.38379,0-5.23682,2.9541-5.23682,6.6875,0,3.97461,1.82617,6.79395,5.26367,6.79395,3.46436,0,5.26367-2.84668,5.26367-6.79395Z"/>
      <path fill="#fff" d="M30.44238,65v-15.79102h-5.37109v-2.9541h14.50195v2.9541h-5.37109v15.79102h-3.75977Z"/>
    </g>
    <g>
      <path fill="#1d2088" d="M49.11523,65.00098v-5.0293l3.61035-3.35254c5.76074-5.37305,9.37109-10.10107,9.37109-13.36816,0-2.5791-2.23535-4.04053-4.90039-4.04053-2.06348,0-4.34082.73096-6.92041,2.40723l-.47266-4.98633c2.75049-1.37549,5.80225-2.14893,8.89795-2.14893,5.97461,0,9.41309,3.1377,9.41309,8.76855,0,4.16943-2.40723,8.72656-11.30469,17.02246h12.25v4.72754h-19.94434Z"/>
      <path fill="#1d2088" d="M72.75488,50.08545c0-9.45654,3.39551-15.60303,10.40137-15.60303,6.87793,0,10.48828,5.41602,10.48828,15.60303,0,9.97217-3.61035,15.43115-10.48828,15.43115-6.83398,0-10.40137-4.89941-10.40137-15.43115ZM87.62695,50.08545c0-4.51318-.12891-11.13281-4.51367-11.13281-4.08301,0-4.34082,6.36182-4.34082,11.00391,0,4.81494.17188,11.09033,4.38379,11.09033,4.3418,0,4.4707-6.49121,4.4707-10.96143Z"/>
    </g>
  </symbol>
  <symbol id="OT21" viewBox="0 0 100 100">
    <rect fill="#1d2088" y="30" width="100" height="40"/>
    <rect fill="#fff" x="44.375" y="31.875" width="53.75" height="36.25"/>
    <g>
      <path fill="#fff" d="M5.21973,55.57422c0-5.93555,3.41064-9.6416,9.18457-9.6416,5.50537,0,9.18457,3.57178,9.18457,9.6416,0,6.04199-3.59863,9.74805-9.18457,9.74805-5.80078,0-9.18457-3.75977-9.18457-9.74805ZM19.66797,55.57422c0-3.4375-1.61133-6.6875-5.29053-6.6875-3.38379,0-5.23682,2.9541-5.23682,6.6875,0,3.97461,1.82617,6.79395,5.26367,6.79395,3.46436,0,5.26367-2.84668,5.26367-6.79395Z"/>
      <path fill="#fff" d="M30.44238,65v-15.79102h-5.37109v-2.9541h14.50195v2.9541h-5.37109v15.79102h-3.75977Z"/>
    </g>
    <g>
      <path fill="#1d2088" d="M49.11523,65.00098v-5.0293l3.61035-3.35254c5.76074-5.37305,9.37109-10.10107,9.37109-13.36816,0-2.5791-2.23535-4.04053-4.90039-4.04053-2.06348,0-4.34082.73096-6.92041,2.40723l-.47266-4.98633c2.75049-1.37549,5.80225-2.14893,8.89795-2.14893,5.97461,0,9.41309,3.1377,9.41309,8.76855,0,4.16943-2.40723,8.72656-11.30469,17.02246h12.25v4.72754h-19.94434Z"/>
      <path fill="#1d2088" d="M82.72656,65.00098v-23.16846l-5.07227,4.12646-3.00879-3.91162,8.76855-7.04932h5.33008v30.00293h-6.01758Z"/>
    </g>
  </symbol>
  <symbol id="OT31" viewBox="0 0 100 100">
    <rect fill="#1d2088" y="30" width="100" height="40"/>
    <rect fill="#fff" x="44.375" y="31.875" width="53.75" height="36.25"/>
    <g>
      <path fill="#fff" d="M5.21973,55.57422c0-5.93555,3.41064-9.6416,9.18457-9.6416,5.50537,0,9.18457,3.57178,9.18457,9.6416,0,6.04199-3.59863,9.74805-9.18457,9.74805-5.80078,0-9.18457-3.75977-9.18457-9.74805ZM19.66797,55.57422c0-3.4375-1.61133-6.6875-5.29053-6.6875-3.38379,0-5.23682,2.9541-5.23682,6.6875,0,3.97461,1.82617,6.79395,5.26367,6.79395,3.46436,0,5.26367-2.84668,5.26367-6.79395Z"/>
      <path fill="#fff" d="M30.44238,65v-15.79102h-5.37109v-2.9541h14.50195v2.9541h-5.37109v15.79102h-3.75977Z"/>
    </g>
    <g>
      <path fill="#1d2088" d="M49.63135,59.41309c2.19189.86035,4.38428,1.37598,6.61963,1.37598,2.87988,0,6.36133-1.37598,6.36133-4.25586,0-3.1377-2.23535-4.68555-6.57617-4.68555h-2.96582v-4.72803h2.92285c3.8252,0,6.49023-1.37549,6.49023-3.95459s-1.80566-3.95459-5.20117-3.95459c-2.27832,0-4.59961.55908-6.70557,1.59033l-.34375-4.81396c2.40674-.9458,5.28662-1.50439,8.33936-1.50439,4.89941,0,9.92871,1.97705,9.92871,7.69385,0,3.43896-1.76172,5.71729-5.58789,7.17871v.08594c3.61035.47266,5.7168,3.22412,5.7168,7.13525,0,6.01758-4.72754,8.94043-11.5625,8.94043-2.5791,0-5.50195-.34375-7.78027-.98828l.34424-5.11523Z"/>
      <path fill="#1d2088" d="M82.72656,65.00098v-23.16846l-5.07227,4.12646-3.00879-3.91162,8.76855-7.04932h5.33008v30.00293h-6.01758Z"/>
    </g>
  </symbol>
  <symbol id="OT32" viewBox="0 0 100 100">
    <rect fill="#1d2088" y="30" width="100" height="40"/>
    <rect fill="#fff" x="44.375" y="31.875" width="53.75" height="36.25"/>
    <g>
      <path fill="#fff" d="M5.21973,55.57422c0-5.93555,3.41064-9.6416,9.18457-9.6416,5.50537,0,9.18457,3.57178,9.18457,9.6416,0,6.04199-3.59863,9.74805-9.18457,9.74805-5.80078,0-9.18457-3.75977-9.18457-9.74805ZM19.66797,55.57422c0-3.4375-1.61133-6.6875-5.29053-6.6875-3.38379,0-5.23682,2.9541-5.23682,6.6875,0,3.97461,1.82617,6.79395,5.26367,6.79395,3.46436,0,5.26367-2.84668,5.26367-6.79395Z"/>
      <path fill="#fff" d="M30.44238,65v-15.79102h-5.37109v-2.9541h14.50195v2.9541h-5.37109v15.79102h-3.75977Z"/>
    </g>
    <g>
      <path fill="#1d2088" d="M49.63135,59.41309c2.19189.86035,4.38428,1.37598,6.61963,1.37598,2.87988,0,6.36133-1.37598,6.36133-4.25586,0-3.1377-2.23535-4.68555-6.57617-4.68555h-2.96582v-4.72803h2.92285c3.8252,0,6.49023-1.37549,6.49023-3.95459s-1.80566-3.95459-5.20117-3.95459c-2.27832,0-4.59961.55908-6.70557,1.59033l-.34375-4.81396c2.40674-.9458,5.28662-1.50439,8.33936-1.50439,4.89941,0,9.92871,1.97705,9.92871,7.69385,0,3.43896-1.76172,5.71729-5.58789,7.17871v.08594c3.61035.47266,5.7168,3.22412,5.7168,7.13525,0,6.01758-4.72754,8.94043-11.5625,8.94043-2.5791,0-5.50195-.34375-7.78027-.98828l.34424-5.11523Z"/>
      <path fill="#1d2088" d="M73.0127,65.00098v-5.0293l3.61035-3.35254c5.75977-5.37305,9.37012-10.10107,9.37012-13.36816,0-2.5791-2.23438-4.04053-4.89941-4.04053-2.06348,0-4.3418.73096-6.9209,2.40723l-.47266-4.98633c2.75098-1.37549,5.80273-2.14893,8.89746-2.14893,5.97461,0,9.41406,3.1377,9.41406,8.76855,0,4.16943-2.40723,8.72656-11.30566,17.02246h12.25098v4.72754h-19.94434Z"/>
    </g>
  </symbol>
  <symbol id="OT33" viewBox="0 0 100 100">
    <rect fill="#1d2088" y="30" width="100" height="40"/>
    <rect fill="#fff" x="44.375" y="31.875" width="53.75" height="36.25"/>
    <g>
      <path fill="#fff" d="M5.21973,55.57422c0-5.93555,3.41064-9.6416,9.18457-9.6416,5.50537,0,9.18457,3.57178,9.18457,9.6416,0,6.04199-3.59863,9.74805-9.18457,9.74805-5.80078,0-9.18457-3.75977-9.18457-9.74805ZM19.66797,55.57422c0-3.4375-1.61133-6.6875-5.29053-6.6875-3.38379,0-5.23682,2.9541-5.23682,6.6875,0,3.97461,1.82617,6.79395,5.26367,6.79395,3.46436,0,5.26367-2.84668,5.26367-6.79395Z"/>
      <path fill="#fff" d="M30.44238,65v-15.79102h-5.37109v-2.9541h14.50195v2.9541h-5.37109v15.79102h-3.75977Z"/>
    </g>
    <g>
      <path fill="#1d2088" d="M49.63135,59.41309c2.19189.86035,4.38428,1.37598,6.61963,1.37598,2.87988,0,6.36133-1.37598,6.36133-4.25586,0-3.1377-2.23535-4.68555-6.57617-4.68555h-2.96582v-4.72803h2.92285c3.8252,0,6.49023-1.37549,6.49023-3.95459s-1.80566-3.95459-5.20117-3.95459c-2.27832,0-4.59961.55908-6.70557,1.59033l-.34375-4.81396c2.40674-.9458,5.28662-1.50439,8.33936-1.50439,4.89941,0,9.92871,1.97705,9.92871,7.69385,0,3.43896-1.76172,5.71729-5.58789,7.17871v.08594c3.61035.47266,5.7168,3.22412,5.7168,7.13525,0,6.01758-4.72754,8.94043-11.5625,8.94043-2.5791,0-5.50195-.34375-7.78027-.98828l.34424-5.11523Z"/>
      <path fill="#1d2088" d="M73.52832,59.41309c2.19238.86035,4.38379,1.37598,6.61914,1.37598,2.87988,0,6.3623-1.37598,6.3623-4.25586,0-3.1377-2.23535-4.68555-6.57715-4.68555h-2.96582v-4.72803h2.92285c3.82617,0,6.49121-1.37549,6.49121-3.95459s-1.80566-3.95459-5.20117-3.95459c-2.27832,0-4.59961.55908-6.70605,1.59033l-.34375-4.81396c2.40723-.9458,5.28711-1.50439,8.33887-1.50439,4.90039,0,9.92969,1.97705,9.92969,7.69385,0,3.43896-1.7627,5.71729-5.58789,7.17871v.08594c3.61035.47266,5.7168,3.22412,5.7168,7.13525,0,6.01758-4.72852,8.94043-11.5625,8.94043-2.5791,0-5.50195-.34375-7.78027-.98828l.34375-5.11523Z"/>
    </g>
  </symbol>
  <symbol id="OT34" viewBox="0 0 100 100">
    <rect fill="#1d2088" y="30" width="100" height="40"/>
    <rect fill="#fff" x="44.375" y="31.875" width="53.75" height="36.25"/>
    <g>
      <path fill="#fff" d="M5.21973,55.57422c0-5.93555,3.41064-9.6416,9.18457-9.6416,5.50537,0,9.18457,3.57178,9.18457,9.6416,0,6.04199-3.59863,9.74805-9.18457,9.74805-5.80078,0-9.18457-3.75977-9.18457-9.74805ZM19.66797,55.57422c0-3.4375-1.61133-6.6875-5.29053-6.6875-3.38379,0-5.23682,2.9541-5.23682,6.6875,0,3.97461,1.82617,6.79395,5.26367,6.79395,3.46436,0,5.26367-2.84668,5.26367-6.79395Z"/>
      <path fill="#fff" d="M30.44238,65v-15.79102h-5.37109v-2.9541h14.50195v2.9541h-5.37109v15.79102h-3.75977Z"/>
    </g>
    <g>
      <path fill="#1d2088" d="M49.63135,59.41309c2.19189.86035,4.38428,1.37598,6.61963,1.37598,2.87988,0,6.36133-1.37598,6.36133-4.25586,0-3.1377-2.23535-4.68555-6.57617-4.68555h-2.96582v-4.72803h2.92285c3.8252,0,6.49023-1.37549,6.49023-3.95459s-1.80566-3.95459-5.20117-3.95459c-2.27832,0-4.59961.55908-6.70557,1.59033l-.34375-4.81396c2.40674-.9458,5.28662-1.50439,8.33936-1.50439,4.89941,0,9.92871,1.97705,9.92871,7.69385,0,3.43896-1.76172,5.71729-5.58789,7.17871v.08594c3.61035.47266,5.7168,3.22412,5.7168,7.13525,0,6.01758-4.72754,8.94043-11.5625,8.94043-2.5791,0-5.50195-.34375-7.78027-.98828l.34424-5.11523Z"/>
      <path fill="#1d2088" d="M84.87598,65.00098v-6.23242h-12.93848v-4.85742l11.21875-18.91309h7.47949v19.2998h3.8252v4.4707h-3.8252v6.23242h-5.75977ZM84.87598,41.27393h-.08594l-7.43652,13.02393h7.52246v-13.02393Z"/>
    </g>
  </symbol>
  <symbol id="OT35" viewBox="0 0 100 100">
    <rect fill="#1d2088" y="30" width="100" height="40"/>
    <rect fill="#fff" x="44.375" y="31.875" width="53.75" height="36.25"/>
    <g>
      <path fill="#fff" d="M5.21973,55.57422c0-5.93555,3.41064-9.6416,9.18457-9.6416,5.50537,0,9.18457,3.57178,9.18457,9.6416,0,6.04199-3.59863,9.74805-9.18457,9.74805-5.80078,0-9.18457-3.75977-9.18457-9.74805ZM19.66797,55.57422c0-3.4375-1.61133-6.6875-5.29053-6.6875-3.38379,0-5.23682,2.9541-5.23682,6.6875,0,3.97461,1.82617,6.79395,5.26367,6.79395,3.46436,0,5.26367-2.84668,5.26367-6.79395Z"/>
      <path fill="#fff" d="M30.44238,65v-15.79102h-5.37109v-2.9541h14.50195v2.9541h-5.37109v15.79102h-3.75977Z"/>
    </g>
    <g>
      <path fill="#1d2088" d="M49.63135,59.41309c2.19189.86035,4.38428,1.37598,6.61963,1.37598,2.87988,0,6.36133-1.37598,6.36133-4.25586,0-3.1377-2.23535-4.68555-6.57617-4.68555h-2.96582v-4.72803h2.92285c3.8252,0,6.49023-1.37549,6.49023-3.95459s-1.80566-3.95459-5.20117-3.95459c-2.27832,0-4.59961.55908-6.70557,1.59033l-.34375-4.81396c2.40674-.9458,5.28662-1.50439,8.33936-1.50439,4.89941,0,9.92871,1.97705,9.92871,7.69385,0,3.43896-1.76172,5.71729-5.58789,7.17871v.08594c3.61035.47266,5.7168,3.22412,5.7168,7.13525,0,6.01758-4.72754,8.94043-11.5625,8.94043-2.5791,0-5.50195-.34375-7.78027-.98828l.34424-5.11523Z"/>
      <path fill="#1d2088" d="M74.47363,59.28418c2.49316,1.0752,4.3418,1.50488,6.06055,1.50488,3.82617,0,6.49121-1.8916,6.49121-5.28711,0-3.30957-2.62207-5.20166-6.87793-5.20166-1.84766,0-3.61035.2583-5.37305.81689l.30078-16.11914h17.2373v4.47021h-11.56348l-.12891,6.40479c1.03223-.17188,1.67676-.30078,2.75098-.30078,5.37305,0,9.67188,2.96582,9.67188,9.71484,0,6.14648-4.4707,10.22949-11.69141,10.22949-1.93457,0-4.72852-.30078-7.00684-.85938l.12891-5.37305Z"/>
    </g>
  </symbol>
</svg>
