<?xml version="1.0" encoding="UTF-8"?>
<svg xmlns="http://www.w3.org/2000/svg" xmlns:xlink="http://www.w3.org/1999/xlink">
  <!-- DIC-195 -->
  <symbol id="KO" viewBox="0 0 100 100">
    <circle fill="#b5005e" cx="50" cy="50" r="50"/>
    <circle fill="#fff" cx="50" cy="50" r="45"/>
    <g>
      <path fill="#b5005e" d="M37.82275,29.99658h10.71143l-18.22461,19.39258,19.08789,20.61084h-10.91455l-17.97119-20.25586v20.25586h-8.37646V29.99658h8.37646v19.03711l17.31104-19.03711Z"/>
      <path fill="#b5005e" d="M88.7832,49.38916c0,15.68604-2.48828,21.01709-18.68164,21.01709-14.97656,0-20.51025-2.03125-20.51025-19.69727,0-16.90527,3.04639-21.11865,19.59619-21.11865,14.56934,0,19.5957,2.74121,19.5957,19.79883ZM68.22266,37.20508c-9.49316,0-10.25488,1.87842-10.25488,12.84375,0,12.03125.96484,12.74219,12.18457,12.74219,9.64453,0,10.30469-1.87793,10.30469-12.74219,0-12.18359-1.11719-12.84375-12.23438-12.84375Z"/>
    </g>
  </symbol>
  <symbol id="KO01" viewBox="0 0 100 100">
    <circle fill="#b5005e" cx="50" cy="50" r="50"/>
    <path fill="#fff" d="M6.77277,37.5c-1.14618,3.97015-1.77277,8.16077-1.77277,12.5,0,24.85278,20.14716,45,45,45s45-20.14722,45-45c0-4.33923-.62659-8.52985-1.77277-12.5H6.77277Z"/>
    <g>
      <path fill="#fff" d="M41.44824,10.00244h6.69336l-11.38818,12.11816,11.92773,12.87939h-6.82031l-11.22998-12.65771v12.65771h-5.23438V10.00244h5.23438v11.896l10.81738-11.896Z"/>
      <path fill="#fff" d="M75.17188,22.12061c0,9.80225-1.55469,13.1333-11.67383,13.1333-9.3584,0-12.81641-1.26904-12.81641-12.30859,0-10.56396,1.9043-13.19678,12.24512-13.19678,9.10449,0,12.24512,1.71289,12.24512,12.37207ZM62.32422,14.50684c-5.93164,0-6.4082,1.17383-6.4082,8.02588,0,7.51855.60352,7.9624,7.61328,7.9624,6.02734,0,6.43945-1.17334,6.43945-7.9624,0-7.61328-.69727-8.02588-7.64453-8.02588Z"/>
    </g>
    <g>
      <path fill="#231815" d="M32.69775,80.38086c-12.63525,0-15.54785-2.52246-15.54785-19.13281,0-16.13379,2.65576-19.13184,15.20557-19.13184,12.67773,0,15.54785,2.52246,15.54785,19.13184,0,16.13379-2.61279,19.13281-15.20557,19.13281ZM24.21729,61.34375c0,11.6123.72803,11.89746,8.82324,11.89746,6.93896,0,7.79541-.85645,7.79541-11.23145,0-2.23633-.12842-8.18555-.72803-9.99414-.85693-2.52246-3.38379-2.76074-7.58105-2.76074-7.58154,0-8.30957.42822-8.30957,12.08887Z"/>
      <path fill="#231815" d="M72.48633,42.49707v37.50293h-7.06641v-30.36426h-6.85352v-7.13867h13.91992Z"/>
    </g>
  </symbol>
  <symbol id="KO02" viewBox="0 0 100 100">
    <circle fill="#b5005e" cx="50" cy="50" r="50"/>
    <path fill="#fff" d="M6.77277,37.5c-1.14618,3.97015-1.77277,8.16077-1.77277,12.5,0,24.85278,20.14716,45,45,45s45-20.14722,45-45c0-4.33923-.62659-8.52985-1.77277-12.5H6.77277Z"/>
    <g>
      <path fill="#fff" d="M41.44824,10.00244h6.69336l-11.38818,12.11816,11.92773,12.87939h-6.82031l-11.22998-12.65771v12.65771h-5.23438V10.00244h5.23438v11.896l10.81738-11.896Z"/>
      <path fill="#fff" d="M75.17188,22.12061c0,9.80225-1.55469,13.1333-11.67383,13.1333-9.3584,0-12.81641-1.26904-12.81641-12.30859,0-10.56396,1.9043-13.19678,12.24512-13.19678,9.10449,0,12.24512,1.71289,12.24512,12.37207ZM62.32422,14.50684c-5.93164,0-6.4082,1.17383-6.4082,8.02588,0,7.51855.60352,7.9624,7.61328,7.9624,6.02734,0,6.43945-1.17334,6.43945-7.9624,0-7.61328-.69727-8.02588-7.64453-8.02588Z"/>
    </g>
    <g>
      <path fill="#231815" d="M32.69775,80.38086c-12.63525,0-15.54785-2.52246-15.54785-19.13281,0-16.13379,2.65576-19.13184,15.20557-19.13184,12.67773,0,15.54785,2.52246,15.54785,19.13184,0,16.13379-2.61279,19.13281-15.20557,19.13281ZM24.21729,61.34375c0,11.6123.72803,11.89746,8.82324,11.89746,6.93896,0,7.79541-.85645,7.79541-11.23145,0-2.23633-.12842-8.18555-.72803-9.99414-.85693-2.52246-3.38379-2.76074-7.58105-2.76074-7.58154,0-8.30957.42822-8.30957,12.08887Z"/>
      <path fill="#231815" d="M63.32129,67.24512c-2.35645.33301-4.02637.85645-4.02637,4.42578v1.19043h23.2998v7.13867h-30.32422v-6.66309c0-3.9502.08594-11.89844,8.4375-12.94531l10.96484-1.37988c3.16992-.38086,4.1543-1.42773,4.1543-4.56934,0-3.52148-.98438-5.1875-7.49512-5.1875-7.75195,0-8.4375.9043-8.52344,6.1875h-6.93848c.08594-8.3291.98535-13.32617,14.77637-13.32617,7.7959,0,15.16309.47607,15.16309,11.85059,0,1.71289-.17188,6.33008-2.31348,8.56641-1.45605,1.52344-4.19727,2.95117-6.63867,3.28418l-10.53613,1.42773Z"/>
    </g>
  </symbol>
  <symbol id="KO03" viewBox="0 0 100 100">
    <circle fill="#b5005e" cx="50" cy="50" r="50"/>
    <path fill="#fff" d="M6.77277,37.5c-1.14618,3.97015-1.77277,8.16077-1.77277,12.5,0,24.85278,20.14716,45,45,45s45-20.14722,45-45c0-4.33923-.62659-8.52985-1.77277-12.5H6.77277Z"/>
    <g>
      <path fill="#fff" d="M41.44824,10.00244h6.69336l-11.38818,12.11816,11.92773,12.87939h-6.82031l-11.22998-12.65771v12.65771h-5.23438V10.00244h5.23438v11.896l10.81738-11.896Z"/>
      <path fill="#fff" d="M75.17188,22.12061c0,9.80225-1.55469,13.1333-11.67383,13.1333-9.3584,0-12.81641-1.26904-12.81641-12.30859,0-10.56396,1.9043-13.19678,12.24512-13.19678,9.10449,0,12.24512,1.71289,12.24512,12.37207ZM62.32422,14.50684c-5.93164,0-6.4082,1.17383-6.4082,8.02588,0,7.51855.60352,7.9624,7.61328,7.9624,6.02734,0,6.43945-1.17334,6.43945-7.9624,0-7.61328-.69727-8.02588-7.64453-8.02588Z"/>
    </g>
    <g>
      <path fill="#231815" d="M31.7373,80.38086c-13.33789,0-16.41211-2.52246-16.41211-19.13281,0-16.13379,2.80273-19.13184,16.0498-19.13184,13.38281,0,16.41211,2.52246,16.41211,19.13184,0,16.13379-2.75781,19.13281-16.0498,19.13281ZM22.78516,61.34375c0,11.6123.76855,11.89746,9.31348,11.89746,7.32422,0,8.22852-.85645,8.22852-11.23145,0-2.23633-.13574-8.18555-.76855-9.99414-.9043-2.52246-3.57129-2.76074-8.00195-2.76074-8.00293,0-8.77148.42822-8.77148,12.08887Z"/>
      <path fill="#231815" d="M59.12305,66.76953c-.08496,5.47266.38574,6.4248,9.33789,6.4248,4.1543,0,7.32422-.57129,7.32422-4.71191,0-4.47363-2.95605-4.56836-5.09766-4.56836h-7.02441v-6.28223h7.02441c1.92773,0,4.58301,0,4.58301-3.9502,0-4.23633-3.08398-4.33154-8.30859-4.33154-6.98242,0-7.19629,1.71338-7.19629,5.42627h-7.02441c.17188-10.1377,3.55566-12.66016,14.5625-12.66016,6.4248,0,14.94824.04736,14.94824,10.61328,0,1.14258,0,6.0918-4.19727,7.66211,1.28516.57129,4.79688,2.09473,4.79688,8.75684,0,10.42285-7.45215,11.23242-14.77637,11.23242-13.79199,0-16.01953-3.09375-16.01953-13.61133h7.06738Z"/>
    </g>
  </symbol>
  <symbol id="KO04" viewBox="0 0 100 100">
    <circle fill="#b5005e" cx="50" cy="50" r="50"/>
    <path fill="#fff" d="M6.77277,37.5c-1.14618,3.97015-1.77277,8.16077-1.77277,12.5,0,24.85278,20.14716,45,45,45s45-20.14722,45-45c0-4.33923-.62659-8.52985-1.77277-12.5H6.77277Z"/>
    <g>
      <path fill="#fff" d="M41.44824,10.00244h6.69336l-11.38818,12.11816,11.92773,12.87939h-6.82031l-11.22998-12.65771v12.65771h-5.23438V10.00244h5.23438v11.896l10.81738-11.896Z"/>
      <path fill="#fff" d="M75.17188,22.12061c0,9.80225-1.55469,13.1333-11.67383,13.1333-9.3584,0-12.81641-1.26904-12.81641-12.30859,0-10.56396,1.9043-13.19678,12.24512-13.19678,9.10449,0,12.24512,1.71289,12.24512,12.37207ZM62.32422,14.50684c-5.93164,0-6.4082,1.17383-6.4082,8.02588,0,7.51855.60352,7.9624,7.61328,7.9624,6.02734,0,6.43945-1.17334,6.43945-7.9624,0-7.61328-.69727-8.02588-7.64453-8.02588Z"/>
    </g>
    <g>
      <path fill="#231815" d="M31.7373,80.38086c-13.33789,0-16.41211-2.52246-16.41211-19.13281,0-16.13379,2.80273-19.13184,16.0498-19.13184,13.38281,0,16.41211,2.52246,16.41211,19.13184,0,16.13379-2.75781,19.13281-16.0498,19.13281ZM22.78516,61.34375c0,11.6123.76855,11.89746,9.31348,11.89746,7.32422,0,8.22852-.85645,8.22852-11.23145,0-2.23633-.13574-8.18555-.76855-9.99414-.9043-2.52246-3.57129-2.76074-8.00195-2.76074-8.00293,0-8.77148.42822-8.77148,12.08887Z"/>
      <path fill="#231815" d="M78.18359,42.49707v23.03516h5.48242v7.13867h-5.48242v7.3291h-6.98145v-7.3291h-19.95996v-7.75781l17.13281-22.41602h9.80859ZM71.20215,48.96924l-12.76367,16.56299h12.76367v-16.56299Z"/>
    </g>
  </symbol>
  <symbol id="KO05" viewBox="0 0 100 100">
    <circle fill="#b5005e" cx="50" cy="50" r="50"/>
    <path fill="#fff" d="M6.77277,37.5c-1.14618,3.97015-1.77277,8.16077-1.77277,12.5,0,24.85278,20.14716,45,45,45s45-20.14722,45-45c0-4.33923-.62659-8.52985-1.77277-12.5H6.77277Z"/>
    <g>
      <path fill="#fff" d="M41.44824,10.00244h6.69336l-11.38818,12.11816,11.92773,12.87939h-6.82031l-11.22998-12.65771v12.65771h-5.23438V10.00244h5.23438v11.896l10.81738-11.896Z"/>
      <path fill="#fff" d="M75.17188,22.12061c0,9.80225-1.55469,13.1333-11.67383,13.1333-9.3584,0-12.81641-1.26904-12.81641-12.30859,0-10.56396,1.9043-13.19678,12.24512-13.19678,9.10449,0,12.24512,1.71289,12.24512,12.37207ZM62.32422,14.50684c-5.93164,0-6.4082,1.17383-6.4082,8.02588,0,7.51855.60352,7.9624,7.61328,7.9624,6.02734,0,6.43945-1.17334,6.43945-7.9624,0-7.61328-.69727-8.02588-7.64453-8.02588Z"/>
    </g>
    <g>
      <path fill="#231815" d="M31.7373,80.38086c-13.33789,0-16.41211-2.52246-16.41211-19.13281,0-16.13379,2.80273-19.13184,16.0498-19.13184,13.38281,0,16.41211,2.52246,16.41211,19.13184,0,16.13379-2.75781,19.13281-16.0498,19.13281ZM22.78516,61.34375c0,11.6123.76855,11.89746,9.31348,11.89746,7.32422,0,8.22852-.85645,8.22852-11.23145,0-2.23633-.13574-8.18555-.76855-9.99414-.9043-2.52246-3.57129-2.76074-8.00195-2.76074-8.00293,0-8.77148.42822-8.77148,12.08887Z"/>
      <path fill="#231815" d="M81.30957,42.49707v7.13867h-21.1582l-.25684,7.66211c1.45605-1.2373,3.16895-2.52148,9.97949-2.52148,7.19531,0,12.76367,1.1416,12.76367,12.84961,0,9.70898-3.59766,12.75488-14.8623,12.75488-11.56445,0-15.46191-1.95117-15.59082-12.56445h7.02441c0,3.66406.51367,5.4248,7.75293,5.4248,7.15234,0,8.65137-.85645,8.65137-5.61523,0-4.14062-.55664-5.94922-7.70996-5.94922-7.40918,0-7.88086,1.37988-8.26562,2.71289h-6.46777l.4707-21.89258h27.66895Z"/>
    </g>
  </symbol>
  <symbol id="KO06" viewBox="0 0 100 100">
    <circle fill="#b5005e" cx="50" cy="50" r="50"/>
    <path fill="#fff" d="M6.77277,37.5c-1.14618,3.97015-1.77277,8.16077-1.77277,12.5,0,24.85278,20.14716,45,45,45s45-20.14722,45-45c0-4.33923-.62659-8.52985-1.77277-12.5H6.77277Z"/>
    <g>
      <path fill="#fff" d="M41.44824,10.00244h6.69336l-11.38818,12.11816,11.92773,12.87939h-6.82031l-11.22998-12.65771v12.65771h-5.23438V10.00244h5.23438v11.896l10.81738-11.896Z"/>
      <path fill="#fff" d="M75.17188,22.12061c0,9.80225-1.55469,13.1333-11.67383,13.1333-9.3584,0-12.81641-1.26904-12.81641-12.30859,0-10.56396,1.9043-13.19678,12.24512-13.19678,9.10449,0,12.24512,1.71289,12.24512,12.37207ZM62.32422,14.50684c-5.93164,0-6.4082,1.17383-6.4082,8.02588,0,7.51855.60352,7.9624,7.61328,7.9624,6.02734,0,6.43945-1.17334,6.43945-7.9624,0-7.61328-.69727-8.02588-7.64453-8.02588Z"/>
    </g>
    <g>
      <path fill="#231815" d="M31.7373,80.38086c-13.33789,0-16.41211-2.52246-16.41211-19.13281,0-16.13379,2.80273-19.13184,16.0498-19.13184,13.38281,0,16.41211,2.52246,16.41211,19.13184,0,16.13379-2.75781,19.13281-16.0498,19.13281ZM22.78516,61.34375c0,11.6123.76855,11.89746,9.31348,11.89746,7.32422,0,8.22852-.85645,8.22852-11.23145,0-2.23633-.13574-8.18555-.76855-9.99414-.9043-2.52246-3.57129-2.76074-8.00195-2.76074-8.00293,0-8.77148.42822-8.77148,12.08887Z"/>
      <path fill="#231815" d="M75.01367,53.39551c.04297-2.47461-.2998-4.37842-6.38184-4.37842-7.28125,0-8.95215.9043-8.95215,9.99463,1.37109-1.47559,2.87012-3.09375,10.28027-3.09375,9.97949,0,12.24902,4.47363,12.24902,11.75586,0,11.13574-5.13965,12.70703-13.53418,12.70703-10.06543,0-15.97656-.66699-15.97656-16.18164,0-16.75293.89941-22.08301,14.94824-22.08301,8.78027,0,14.3916,1.42773,14.34863,11.2793h-6.98145ZM59.80859,68.53027c0,4.2832,1.92773,5.0918,8.52344,5.0918,6.46777,0,7.19531-1.47461,7.19531-5.80566,0-3.47461-1.37012-5.04492-7.15234-5.04492-5.6543,0-8.56641.19043-8.56641,5.75879Z"/>
    </g>
  </symbol>
  <symbol id="KO07" viewBox="0 0 100 100">
    <circle fill="#b5005e" cx="50" cy="50" r="50"/>
    <path fill="#fff" d="M6.77277,37.5c-1.14618,3.97015-1.77277,8.16077-1.77277,12.5,0,24.85278,20.14716,45,45,45s45-20.14722,45-45c0-4.33923-.62659-8.52985-1.77277-12.5H6.77277Z"/>
    <g>
      <path fill="#fff" d="M41.44824,10.00244h6.69336l-11.38818,12.11816,11.92773,12.87939h-6.82031l-11.22998-12.65771v12.65771h-5.23438V10.00244h5.23438v11.896l10.81738-11.896Z"/>
      <path fill="#fff" d="M75.17188,22.12061c0,9.80225-1.55469,13.1333-11.67383,13.1333-9.3584,0-12.81641-1.26904-12.81641-12.30859,0-10.56396,1.9043-13.19678,12.24512-13.19678,9.10449,0,12.24512,1.71289,12.24512,12.37207ZM62.32422,14.50684c-5.93164,0-6.4082,1.17383-6.4082,8.02588,0,7.51855.60352,7.9624,7.61328,7.9624,6.02734,0,6.43945-1.17334,6.43945-7.9624,0-7.61328-.69727-8.02588-7.64453-8.02588Z"/>
    </g>
    <g>
      <path fill="#231815" d="M31.7373,80.38086c-13.33789,0-16.41211-2.52246-16.41211-19.13281,0-16.13379,2.80273-19.13184,16.0498-19.13184,13.38281,0,16.41211,2.52246,16.41211,19.13184,0,16.13379-2.75781,19.13281-16.0498,19.13281ZM22.78516,61.34375c0,11.6123.76855,11.89746,9.31348,11.89746,7.32422,0,8.22852-.85645,8.22852-11.23145,0-2.23633-.13574-8.18555-.76855-9.99414-.9043-2.52246-3.57129-2.76074-8.00195-2.76074-8.00293,0-8.77148.42822-8.77148,12.08887Z"/>
      <path fill="#231815" d="M82.6377,42.49707v7.23389l-16.5332,30.26904h-8.4375l17.30371-30.36426h-22.65723v-7.13867h30.32422Z"/>
    </g>
  </symbol>
  <symbol id="KO08" viewBox="0 0 100 100">
    <circle fill="#b5005e" cx="50" cy="50" r="50"/>
    <path fill="#fff" d="M6.77277,37.5c-1.14618,3.97015-1.77277,8.16077-1.77277,12.5,0,24.85278,20.14716,45,45,45s45-20.14722,45-45c0-4.33923-.62659-8.52985-1.77277-12.5H6.77277Z"/>
    <g>
      <path fill="#fff" d="M41.44824,10.00244h6.69336l-11.38818,12.11816,11.92773,12.87939h-6.82031l-11.22998-12.65771v12.65771h-5.23438V10.00244h5.23438v11.896l10.81738-11.896Z"/>
      <path fill="#fff" d="M75.17188,22.12061c0,9.80225-1.55469,13.1333-11.67383,13.1333-9.3584,0-12.81641-1.26904-12.81641-12.30859,0-10.56396,1.9043-13.19678,12.24512-13.19678,9.10449,0,12.24512,1.71289,12.24512,12.37207ZM62.32422,14.50684c-5.93164,0-6.4082,1.17383-6.4082,8.02588,0,7.51855.60352,7.9624,7.61328,7.9624,6.02734,0,6.43945-1.17334,6.43945-7.9624,0-7.61328-.69727-8.02588-7.64453-8.02588Z"/>
    </g>
    <g>
      <path fill="#231815" d="M31.7373,80.38086c-13.33789,0-16.41211-2.52246-16.41211-19.13281,0-16.13379,2.80273-19.13184,16.0498-19.13184,13.38281,0,16.41211,2.52246,16.41211,19.13184,0,16.13379-2.75781,19.13281-16.0498,19.13281ZM22.78516,61.34375c0,11.6123.76855,11.89746,9.31348,11.89746,7.32422,0,8.22852-.85645,8.22852-11.23145,0-2.23633-.13574-8.18555-.76855-9.99414-.9043-2.52246-3.57129-2.76074-8.00195-2.76074-8.00293,0-8.77148.42822-8.77148,12.08887Z"/>
      <path fill="#231815" d="M52.61328,52.72949c0-9.04297,5.73926-10.61328,14.34863-10.61328,8.56543,0,15.33301.80908,15.33301,10.61328,0,1.33301-.08594,5.99609-4.19727,7.85254,4.79688,1.52344,4.79688,7.85254,4.79688,8.75684,0,10.18457-7.15234,11.04199-14.99121,11.04199-7.02344,0-15.88965-.0957-15.88965-10.85156,0-1.33203,0-7.42383,4.75391-8.94727-3.29785-1.52246-4.1543-4.75879-4.1543-7.85254ZM58.90918,68.95801c0,3.52246,1.6709,4.47363,8.52344,4.47363,7.45312,0,8.56641-1.09375,8.56641-4.90137,0-4.80664-3.16992-4.80664-8.56641-4.80664-6.89551,0-8.52344.71387-8.52344,5.23438ZM59.55176,53.30078c0,3.85449,1.8418,4.23535,8.35156,4.23535,6.4248,0,7.45312-.85645,7.45312-4.52148,0-3.23633-1.49902-4.04541-7.88086-4.04541-6.68164,0-7.92383.85693-7.92383,4.33154Z"/>
    </g>
  </symbol>
  <symbol id="KO09" viewBox="0 0 100 100">
    <circle fill="#b5005e" cx="50" cy="50" r="50"/>
    <path fill="#fff" d="M6.77277,37.5c-1.14618,3.97015-1.77277,8.16077-1.77277,12.5,0,24.85278,20.14716,45,45,45s45-20.14722,45-45c0-4.33923-.62659-8.52985-1.77277-12.5H6.77277Z"/>
    <g>
      <path fill="#fff" d="M41.44824,10.00244h6.69336l-11.38818,12.11816,11.92773,12.87939h-6.82031l-11.22998-12.65771v12.65771h-5.23438V10.00244h5.23438v11.896l10.81738-11.896Z"/>
      <path fill="#fff" d="M75.17188,22.12061c0,9.80225-1.55469,13.1333-11.67383,13.1333-9.3584,0-12.81641-1.26904-12.81641-12.30859,0-10.56396,1.9043-13.19678,12.24512-13.19678,9.10449,0,12.24512,1.71289,12.24512,12.37207ZM62.32422,14.50684c-5.93164,0-6.4082,1.17383-6.4082,8.02588,0,7.51855.60352,7.9624,7.61328,7.9624,6.02734,0,6.43945-1.17334,6.43945-7.9624,0-7.61328-.69727-8.02588-7.64453-8.02588Z"/>
    </g>
    <g>
      <path fill="#231815" d="M31.7373,80.38086c-13.33789,0-16.41211-2.52246-16.41211-19.13281,0-16.13379,2.80273-19.13184,16.0498-19.13184,13.38281,0,16.41211,2.52246,16.41211,19.13184,0,16.13379-2.75781,19.13281-16.0498,19.13281ZM22.78516,61.34375c0,11.6123.76855,11.89746,9.31348,11.89746,7.32422,0,8.22852-.85645,8.22852-11.23145,0-2.23633-.13574-8.18555-.76855-9.99414-.9043-2.52246-3.57129-2.76074-8.00195-2.76074-8.00293,0-8.77148.42822-8.77148,12.08887Z"/>
      <path fill="#231815" d="M59.89453,69.10156c-.08594,2.47461.2998,4.37793,6.38184,4.37793,7.28125,0,8.95117-.9043,8.90918-9.99414-1.32812,1.47559-2.82715,3.09375-10.2373,3.09375-9.93652,0-12.25-4.42676-12.25-11.70801,0-10.89893,4.79785-12.75488,13.83496-12.75488,10.2793,0,15.63379,1.28516,15.63379,16.22949,0,16.65723-.81445,22.03516-14.90527,22.03516-8.82324,0-14.3916-1.42773-14.34863-11.2793h6.98145ZM75.09961,53.9668c0-4.37891-2.01367-5.09277-8.65234-5.09277-6.38184,0-7.10938,1.47559-7.10938,5.75879,0,3.52246,1.37012,5.09277,7.19531,5.09277,6.68164,0,8.56641-.76172,8.56641-5.75879Z"/>
    </g>
  </symbol>
  <symbol id="KO10" viewBox="0 0 100 100">
    <circle fill="#b5005e" cx="50" cy="50" r="50"/>
    <path fill="#fff" d="M6.77277,37.5c-1.14618,3.97015-1.77277,8.16077-1.77277,12.5,0,24.85278,20.14716,45,45,45s45-20.14722,45-45c0-4.33923-.62659-8.52985-1.77277-12.5H6.77277Z"/>
    <g>
      <path fill="#fff" d="M41.44824,10.00244h6.69336l-11.38818,12.11816,11.92773,12.87939h-6.82031l-11.22998-12.65771v12.65771h-5.23438V10.00244h5.23438v11.896l10.81738-11.896Z"/>
      <path fill="#fff" d="M75.17188,22.12061c0,9.80225-1.55469,13.1333-11.67383,13.1333-9.3584,0-12.81641-1.26904-12.81641-12.30859,0-10.56396,1.9043-13.19678,12.24512-13.19678,9.10449,0,12.24512,1.71289,12.24512,12.37207ZM62.32422,14.50684c-5.93164,0-6.4082,1.17383-6.4082,8.02588,0,7.51855.60352,7.9624,7.61328,7.9624,6.02734,0,6.43945-1.17334,6.43945-7.9624,0-7.61328-.69727-8.02588-7.64453-8.02588Z"/>
    </g>
    <g>
      <path fill="#231815" d="M37.58057,42.49707v37.50293h-7.06689v-30.36426h-6.85303v-7.13867h13.91992Z"/>
      <path fill="#231815" d="M67.60352,80.38086c-12.63477,0-15.54785-2.52246-15.54785-19.13281,0-16.13379,2.65625-19.13184,15.20605-19.13184,12.67773,0,15.54785,2.52246,15.54785,19.13184,0,16.13379-2.61328,19.13281-15.20605,19.13281ZM59.12305,61.34375c0,11.6123.72852,11.89746,8.82324,11.89746,6.93945,0,7.7959-.85645,7.7959-11.23145,0-2.23633-.12891-8.18555-.72852-9.99414-.85645-2.52246-3.38379-2.76074-7.58105-2.76074-7.58105,0-8.30957.42822-8.30957,12.08887Z"/>
    </g>
  </symbol>
  <symbol id="KO11" viewBox="0 0 100 100">
    <circle fill="#b5005e" cx="50" cy="50" r="50"/>
    <path fill="#fff" d="M6.77277,37.5c-1.14618,3.97015-1.77277,8.16077-1.77277,12.5,0,24.85278,20.14716,45,45,45s45-20.14722,45-45c0-4.33923-.62659-8.52985-1.77277-12.5H6.77277Z"/>
    <g>
      <path fill="#fff" d="M41.44824,10.00244h6.69336l-11.38818,12.11816,11.92773,12.87939h-6.82031l-11.22998-12.65771v12.65771h-5.23438V10.00244h5.23438v11.896l10.81738-11.896Z"/>
      <path fill="#fff" d="M75.17188,22.12061c0,9.80225-1.55469,13.1333-11.67383,13.1333-9.3584,0-12.81641-1.26904-12.81641-12.30859,0-10.56396,1.9043-13.19678,12.24512-13.19678,9.10449,0,12.24512,1.71289,12.24512,12.37207ZM62.32422,14.50684c-5.93164,0-6.4082,1.17383-6.4082,8.02588,0,7.51855.60352,7.9624,7.61328,7.9624,6.02734,0,6.43945-1.17334,6.43945-7.9624,0-7.61328-.69727-8.02588-7.64453-8.02588Z"/>
    </g>
    <g>
      <path fill="#231815" d="M37.58057,42.49707v37.50293h-7.06689v-30.36426h-6.85303v-7.13867h13.91992Z"/>
      <path fill="#231815" d="M72.48633,42.49707v37.50293h-7.06641v-30.36426h-6.85352v-7.13867h13.91992Z"/>
    </g>
  </symbol>
  <symbol id="KO12" viewBox="0 0 100 100">
    <circle fill="#b5005e" cx="50" cy="50" r="50"/>
    <path fill="#fff" d="M6.77277,37.5c-1.14618,3.97015-1.77277,8.16077-1.77277,12.5,0,24.85278,20.14716,45,45,45s45-20.14722,45-45c0-4.33923-.62659-8.52985-1.77277-12.5H6.77277Z"/>
    <g>
      <path fill="#fff" d="M41.44824,10.00244h6.69336l-11.38818,12.11816,11.92773,12.87939h-6.82031l-11.22998-12.65771v12.65771h-5.23438V10.00244h5.23438v11.896l10.81738-11.896Z"/>
      <path fill="#fff" d="M75.17188,22.12061c0,9.80225-1.55469,13.1333-11.67383,13.1333-9.3584,0-12.81641-1.26904-12.81641-12.30859,0-10.56396,1.9043-13.19678,12.24512-13.19678,9.10449,0,12.24512,1.71289,12.24512,12.37207ZM62.32422,14.50684c-5.93164,0-6.4082,1.17383-6.4082,8.02588,0,7.51855.60352,7.9624,7.61328,7.9624,6.02734,0,6.43945-1.17334,6.43945-7.9624,0-7.61328-.69727-8.02588-7.64453-8.02588Z"/>
    </g>
    <g>
      <path fill="#231815" d="M37.58057,42.49707v37.50293h-7.06689v-30.36426h-6.85303v-7.13867h13.91992Z"/>
      <path fill="#231815" d="M63.32129,67.24512c-2.35645.33301-4.02637.85645-4.02637,4.42578v1.19043h23.2998v7.13867h-30.32422v-6.66309c0-3.9502.08594-11.89844,8.4375-12.94531l10.96484-1.37988c3.16992-.38086,4.1543-1.42773,4.1543-4.56934,0-3.52148-.98438-5.1875-7.49512-5.1875-7.75195,0-8.4375.9043-8.52344,6.1875h-6.93848c.08594-8.3291.98535-13.32617,14.77637-13.32617,7.7959,0,15.16309.47607,15.16309,11.85059,0,1.71289-.17188,6.33008-2.31348,8.56641-1.45605,1.52344-4.19727,2.95117-6.63867,3.28418l-10.53613,1.42773Z"/>
    </g>
  </symbol>
  <symbol id="KO13" viewBox="0 0 100 100">
    <circle fill="#b5005e" cx="50" cy="50" r="50"/>
    <path fill="#fff" d="M6.77277,37.5c-1.14618,3.97015-1.77277,8.16077-1.77277,12.5,0,24.85278,20.14716,45,45,45s45-20.14722,45-45c0-4.33923-.62659-8.52985-1.77277-12.5H6.77277Z"/>
    <g>
      <path fill="#fff" d="M41.44824,10.00244h6.69336l-11.38818,12.11816,11.92773,12.87939h-6.82031l-11.22998-12.65771v12.65771h-5.23438V10.00244h5.23438v11.896l10.81738-11.896Z"/>
      <path fill="#fff" d="M75.17188,22.12061c0,9.80225-1.55469,13.1333-11.67383,13.1333-9.3584,0-12.81641-1.26904-12.81641-12.30859,0-10.56396,1.9043-13.19678,12.24512-13.19678,9.10449,0,12.24512,1.71289,12.24512,12.37207ZM62.32422,14.50684c-5.93164,0-6.4082,1.17383-6.4082,8.02588,0,7.51855.60352,7.9624,7.61328,7.9624,6.02734,0,6.43945-1.17334,6.43945-7.9624,0-7.61328-.69727-8.02588-7.64453-8.02588Z"/>
    </g>
    <g>
      <path fill="#231815" d="M37.58057,42.49707v37.50293h-7.06689v-30.36426h-6.85303v-7.13867h13.91992Z"/>
      <path fill="#231815" d="M59.12305,66.76953c-.08496,5.47266.38574,6.4248,9.33789,6.4248,4.1543,0,7.32422-.57129,7.32422-4.71191,0-4.47363-2.95605-4.56836-5.09766-4.56836h-7.02441v-6.28223h7.02441c1.92773,0,4.58301,0,4.58301-3.9502,0-4.23633-3.08398-4.33154-8.30859-4.33154-6.98242,0-7.19629,1.71338-7.19629,5.42627h-7.02441c.17188-10.1377,3.55566-12.66016,14.5625-12.66016,6.4248,0,14.94824.04736,14.94824,10.61328,0,1.14258,0,6.0918-4.19727,7.66211,1.28516.57129,4.79688,2.09473,4.79688,8.75684,0,10.42285-7.45215,11.23242-14.77637,11.23242-13.79199,0-16.01953-3.09375-16.01953-13.61133h7.06738Z"/>
    </g>
  </symbol>
  <symbol id="KO14" viewBox="0 0 100 100">
    <circle fill="#b5005e" cx="50" cy="50" r="50"/>
    <path fill="#fff" d="M6.77277,37.5c-1.14618,3.97015-1.77277,8.16077-1.77277,12.5,0,24.85278,20.14716,45,45,45s45-20.14722,45-45c0-4.33923-.62659-8.52985-1.77277-12.5H6.77277Z"/>
    <g>
      <path fill="#fff" d="M41.44824,10.00244h6.69336l-11.38818,12.11816,11.92773,12.87939h-6.82031l-11.22998-12.65771v12.65771h-5.23438V10.00244h5.23438v11.896l10.81738-11.896Z"/>
      <path fill="#fff" d="M75.17188,22.12061c0,9.80225-1.55469,13.1333-11.67383,13.1333-9.3584,0-12.81641-1.26904-12.81641-12.30859,0-10.56396,1.9043-13.19678,12.24512-13.19678,9.10449,0,12.24512,1.71289,12.24512,12.37207ZM62.32422,14.50684c-5.93164,0-6.4082,1.17383-6.4082,8.02588,0,7.51855.60352,7.9624,7.61328,7.9624,6.02734,0,6.43945-1.17334,6.43945-7.9624,0-7.61328-.69727-8.02588-7.64453-8.02588Z"/>
    </g>
    <g>
      <path fill="#231815" d="M37.58057,42.49707v37.50293h-7.06689v-30.36426h-6.85303v-7.13867h13.91992Z"/>
      <path fill="#231815" d="M78.18359,42.49707v23.03516h5.48242v7.13867h-5.48242v7.3291h-6.98145v-7.3291h-19.95996v-7.75781l17.13281-22.41602h9.80859ZM71.20215,48.96924l-12.76367,16.56299h12.76367v-16.56299Z"/>
    </g>
  </symbol>
  <symbol id="KO15" viewBox="0 0 100 100">
    <circle fill="#b5005e" cx="50" cy="50" r="50"/>
    <path fill="#fff" d="M6.77277,37.5c-1.14618,3.97015-1.77277,8.16077-1.77277,12.5,0,24.85278,20.14716,45,45,45s45-20.14722,45-45c0-4.33923-.62659-8.52985-1.77277-12.5H6.77277Z"/>
    <g>
      <path fill="#fff" d="M41.44824,10.00244h6.69336l-11.38818,12.11816,11.92773,12.87939h-6.82031l-11.22998-12.65771v12.65771h-5.23438V10.00244h5.23438v11.896l10.81738-11.896Z"/>
      <path fill="#fff" d="M75.17188,22.12061c0,9.80225-1.55469,13.1333-11.67383,13.1333-9.3584,0-12.81641-1.26904-12.81641-12.30859,0-10.56396,1.9043-13.19678,12.24512-13.19678,9.10449,0,12.24512,1.71289,12.24512,12.37207ZM62.32422,14.50684c-5.93164,0-6.4082,1.17383-6.4082,8.02588,0,7.51855.60352,7.9624,7.61328,7.9624,6.02734,0,6.43945-1.17334,6.43945-7.9624,0-7.61328-.69727-8.02588-7.64453-8.02588Z"/>
    </g>
    <g>
      <path fill="#231815" d="M37.58057,42.49707v37.50293h-7.06689v-30.36426h-6.85303v-7.13867h13.91992Z"/>
      <path fill="#231815" d="M81.30957,42.49707v7.13867h-21.1582l-.25684,7.66211c1.45605-1.2373,3.16895-2.52148,9.97949-2.52148,7.19531,0,12.76367,1.1416,12.76367,12.84961,0,9.70898-3.59766,12.75488-14.8623,12.75488-11.56445,0-15.46191-1.95117-15.59082-12.56445h7.02441c0,3.66406.51367,5.4248,7.75293,5.4248,7.15234,0,8.65137-.85645,8.65137-5.61523,0-4.14062-.55664-5.94922-7.70996-5.94922-7.40918,0-7.88086,1.37988-8.26562,2.71289h-6.46777l.4707-21.89258h27.66895Z"/>
    </g>
  </symbol>
  <symbol id="KO16" viewBox="0 0 100 100">
    <circle fill="#b5005e" cx="50" cy="50" r="50"/>
    <path fill="#fff" d="M6.77277,37.5c-1.14618,3.97015-1.77277,8.16077-1.77277,12.5,0,24.85278,20.14716,45,45,45s45-20.14722,45-45c0-4.33923-.62659-8.52985-1.77277-12.5H6.77277Z"/>
    <g>
      <path fill="#fff" d="M41.44824,10.00244h6.69336l-11.38818,12.11816,11.92773,12.87939h-6.82031l-11.22998-12.65771v12.65771h-5.23438V10.00244h5.23438v11.896l10.81738-11.896Z"/>
      <path fill="#fff" d="M75.17188,22.12061c0,9.80225-1.55469,13.1333-11.67383,13.1333-9.3584,0-12.81641-1.26904-12.81641-12.30859,0-10.56396,1.9043-13.19678,12.24512-13.19678,9.10449,0,12.24512,1.71289,12.24512,12.37207ZM62.32422,14.50684c-5.93164,0-6.4082,1.17383-6.4082,8.02588,0,7.51855.60352,7.9624,7.61328,7.9624,6.02734,0,6.43945-1.17334,6.43945-7.9624,0-7.61328-.69727-8.02588-7.64453-8.02588Z"/>
    </g>
    <g>
      <path fill="#231815" d="M37.58057,42.49707v37.50293h-7.06689v-30.36426h-6.85303v-7.13867h13.91992Z"/>
      <path fill="#231815" d="M75.01367,53.39551c.04297-2.47461-.2998-4.37842-6.38184-4.37842-7.28125,0-8.95215.9043-8.95215,9.99463,1.37109-1.47559,2.87012-3.09375,10.28027-3.09375,9.97949,0,12.24902,4.47363,12.24902,11.75586,0,11.13574-5.13965,12.70703-13.53418,12.70703-10.06543,0-15.97656-.66699-15.97656-16.18164,0-16.75293.89941-22.08301,14.94824-22.08301,8.78027,0,14.3916,1.42773,14.34863,11.2793h-6.98145ZM59.80859,68.53027c0,4.2832,1.92773,5.0918,8.52344,5.0918,6.46777,0,7.19531-1.47461,7.19531-5.80566,0-3.47461-1.37012-5.04492-7.15234-5.04492-5.6543,0-8.56641.19043-8.56641,5.75879Z"/>
    </g>
  </symbol>
  <symbol id="KO17" viewBox="0 0 100 100">
    <circle fill="#b5005e" cx="50" cy="50" r="50"/>
    <path fill="#fff" d="M6.77277,37.5c-1.14618,3.97015-1.77277,8.16077-1.77277,12.5,0,24.85278,20.14716,45,45,45s45-20.14722,45-45c0-4.33923-.62659-8.52985-1.77277-12.5H6.77277Z"/>
    <g>
      <path fill="#fff" d="M41.44824,10.00244h6.69336l-11.38818,12.11816,11.92773,12.87939h-6.82031l-11.22998-12.65771v12.65771h-5.23438V10.00244h5.23438v11.896l10.81738-11.896Z"/>
      <path fill="#fff" d="M75.17188,22.12061c0,9.80225-1.55469,13.1333-11.67383,13.1333-9.3584,0-12.81641-1.26904-12.81641-12.30859,0-10.56396,1.9043-13.19678,12.24512-13.19678,9.10449,0,12.24512,1.71289,12.24512,12.37207ZM62.32422,14.50684c-5.93164,0-6.4082,1.17383-6.4082,8.02588,0,7.51855.60352,7.9624,7.61328,7.9624,6.02734,0,6.43945-1.17334,6.43945-7.9624,0-7.61328-.69727-8.02588-7.64453-8.02588Z"/>
    </g>
    <g>
      <path fill="#231815" d="M37.58057,42.49707v37.50293h-7.06689v-30.36426h-6.85303v-7.13867h13.91992Z"/>
      <path fill="#231815" d="M82.6377,42.49707v7.23389l-16.5332,30.26904h-8.4375l17.30371-30.36426h-22.65723v-7.13867h30.32422Z"/>
    </g>
  </symbol>
  <symbol id="KO18" viewBox="0 0 100 100">
    <circle fill="#b5005e" cx="50" cy="50" r="50"/>
    <path fill="#fff" d="M6.77277,37.5c-1.14618,3.97015-1.77277,8.16077-1.77277,12.5,0,24.85278,20.14716,45,45,45s45-20.14722,45-45c0-4.33923-.62659-8.52985-1.77277-12.5H6.77277Z"/>
    <g>
      <path fill="#fff" d="M41.44824,10.00244h6.69336l-11.38818,12.11816,11.92773,12.87939h-6.82031l-11.22998-12.65771v12.65771h-5.23438V10.00244h5.23438v11.896l10.81738-11.896Z"/>
      <path fill="#fff" d="M75.17188,22.12061c0,9.80225-1.55469,13.1333-11.67383,13.1333-9.3584,0-12.81641-1.26904-12.81641-12.30859,0-10.56396,1.9043-13.19678,12.24512-13.19678,9.10449,0,12.24512,1.71289,12.24512,12.37207ZM62.32422,14.50684c-5.93164,0-6.4082,1.17383-6.4082,8.02588,0,7.51855.60352,7.9624,7.61328,7.9624,6.02734,0,6.43945-1.17334,6.43945-7.9624,0-7.61328-.69727-8.02588-7.64453-8.02588Z"/>
    </g>
    <g>
      <path fill="#231815" d="M37.58057,42.49707v37.50293h-7.06689v-30.36426h-6.85303v-7.13867h13.91992Z"/>
      <path fill="#231815" d="M52.61328,52.72949c0-9.04297,5.73926-10.61328,14.34863-10.61328,8.56543,0,15.33301.80908,15.33301,10.61328,0,1.33301-.08594,5.99609-4.19727,7.85254,4.79688,1.52344,4.79688,7.85254,4.79688,8.75684,0,10.18457-7.15234,11.04199-14.99121,11.04199-7.02344,0-15.88965-.0957-15.88965-10.85156,0-1.33203,0-7.42383,4.75391-8.94727-3.29785-1.52246-4.1543-4.75879-4.1543-7.85254ZM58.90918,68.95801c0,3.52246,1.6709,4.47363,8.52344,4.47363,7.45312,0,8.56641-1.09375,8.56641-4.90137,0-4.80664-3.16992-4.80664-8.56641-4.80664-6.89551,0-8.52344.71387-8.52344,5.23438ZM59.55176,53.30078c0,3.85449,1.8418,4.23535,8.35156,4.23535,6.4248,0,7.45312-.85645,7.45312-4.52148,0-3.23633-1.49902-4.04541-7.88086-4.04541-6.68164,0-7.92383.85693-7.92383,4.33154Z"/>
    </g>
  </symbol>
  <symbol id="KO19" viewBox="0 0 100 100">
    <circle fill="#b5005e" cx="50" cy="50" r="50"/>
    <path fill="#fff" d="M6.77277,37.5c-1.14618,3.97015-1.77277,8.16077-1.77277,12.5,0,24.85278,20.14716,45,45,45s45-20.14722,45-45c0-4.33923-.62659-8.52985-1.77277-12.5H6.77277Z"/>
    <g>
      <path fill="#fff" d="M41.44824,10.00244h6.69336l-11.38818,12.11816,11.92773,12.87939h-6.82031l-11.22998-12.65771v12.65771h-5.23438V10.00244h5.23438v11.896l10.81738-11.896Z"/>
      <path fill="#fff" d="M75.17188,22.12061c0,9.80225-1.55469,13.1333-11.67383,13.1333-9.3584,0-12.81641-1.26904-12.81641-12.30859,0-10.56396,1.9043-13.19678,12.24512-13.19678,9.10449,0,12.24512,1.71289,12.24512,12.37207ZM62.32422,14.50684c-5.93164,0-6.4082,1.17383-6.4082,8.02588,0,7.51855.60352,7.9624,7.61328,7.9624,6.02734,0,6.43945-1.17334,6.43945-7.9624,0-7.61328-.69727-8.02588-7.64453-8.02588Z"/>
    </g>
    <g>
      <path fill="#231815" d="M37.58057,42.49707v37.50293h-7.06689v-30.36426h-6.85303v-7.13867h13.91992Z"/>
      <path fill="#231815" d="M59.89453,69.10156c-.08594,2.47461.2998,4.37793,6.38184,4.37793,7.28125,0,8.95117-.9043,8.90918-9.99414-1.32812,1.47559-2.82715,3.09375-10.2373,3.09375-9.93652,0-12.25-4.42676-12.25-11.70801,0-10.89893,4.79785-12.75488,13.83496-12.75488,10.2793,0,15.63379,1.28516,15.63379,16.22949,0,16.65723-.81445,22.03516-14.90527,22.03516-8.82324,0-14.3916-1.42773-14.34863-11.2793h6.98145ZM75.09961,53.9668c0-4.37891-2.01367-5.09277-8.65234-5.09277-6.38184,0-7.10938,1.47559-7.10938,5.75879,0,3.52246,1.37012,5.09277,7.19531,5.09277,6.68164,0,8.56641-.76172,8.56641-5.75879Z"/>
    </g>
  </symbol>
  <symbol id="KO20" viewBox="0 0 100 100">
    <circle fill="#b5005e" cx="50" cy="50" r="50"/>
    <path fill="#fff" d="M6.77277,37.5c-1.14618,3.97015-1.77277,8.16077-1.77277,12.5,0,24.85278,20.14716,45,45,45s45-20.14722,45-45c0-4.33923-.62659-8.52985-1.77277-12.5H6.77277Z"/>
    <g>
      <path fill="#fff" d="M41.44824,10.00244h6.69336l-11.38818,12.11816,11.92773,12.87939h-6.82031l-11.22998-12.65771v12.65771h-5.23438V10.00244h5.23438v11.896l10.81738-11.896Z"/>
      <path fill="#fff" d="M75.17188,22.12061c0,9.80225-1.55469,13.1333-11.67383,13.1333-9.3584,0-12.81641-1.26904-12.81641-12.30859,0-10.56396,1.9043-13.19678,12.24512-13.19678,9.10449,0,12.24512,1.71289,12.24512,12.37207ZM62.32422,14.50684c-5.93164,0-6.4082,1.17383-6.4082,8.02588,0,7.51855.60352,7.9624,7.61328,7.9624,6.02734,0,6.43945-1.17334,6.43945-7.9624,0-7.61328-.69727-8.02588-7.64453-8.02588Z"/>
    </g>
    <g>
      <path fill="#231815" d="M28.41504,67.24512c-2.35596.33301-4.02637.85645-4.02637,4.42578v1.19043h23.30029v7.13867h-30.32471v-6.66309c0-3.9502.08594-11.89844,8.43799-12.94531l10.96484-1.37988c3.16943-.38086,4.1543-1.42773,4.1543-4.56934,0-3.52148-.98486-5.1875-7.49512-5.1875-7.75244,0-8.43799.9043-8.52344,6.1875h-6.93896c.08594-8.3291.98535-13.32617,14.77686-13.32617,7.79541,0,15.1626.47607,15.1626,11.85059,0,1.71289-.17139,6.33008-2.31299,8.56641-1.45654,1.52344-4.19775,2.95117-6.63916,3.28418l-10.53613,1.42773Z"/>
      <path fill="#231815" d="M67.60352,80.38086c-12.63477,0-15.54785-2.52246-15.54785-19.13281,0-16.13379,2.65625-19.13184,15.20605-19.13184,12.67773,0,15.54785,2.52246,15.54785,19.13184,0,16.13379-2.61328,19.13281-15.20605,19.13281ZM59.12305,61.34375c0,11.6123.72852,11.89746,8.82324,11.89746,6.93945,0,7.7959-.85645,7.7959-11.23145,0-2.23633-.12891-8.18555-.72852-9.99414-.85645-2.52246-3.38379-2.76074-7.58105-2.76074-7.58105,0-8.30957.42822-8.30957,12.08887Z"/>
    </g>
  </symbol>
  <symbol id="KO21" viewBox="0 0 100 100">
    <circle fill="#b5005e" cx="50" cy="50" r="50"/>
    <path fill="#fff" d="M6.77277,37.5c-1.14618,3.97015-1.77277,8.16077-1.77277,12.5,0,24.85278,20.14716,45,45,45s45-20.14722,45-45c0-4.33923-.62659-8.52985-1.77277-12.5H6.77277Z"/>
    <g>
      <path fill="#fff" d="M41.44824,10.00244h6.69336l-11.38818,12.11816,11.92773,12.87939h-6.82031l-11.22998-12.65771v12.65771h-5.23438V10.00244h5.23438v11.896l10.81738-11.896Z"/>
      <path fill="#fff" d="M75.17188,22.12061c0,9.80225-1.55469,13.1333-11.67383,13.1333-9.3584,0-12.81641-1.26904-12.81641-12.30859,0-10.56396,1.9043-13.19678,12.24512-13.19678,9.10449,0,12.24512,1.71289,12.24512,12.37207ZM62.32422,14.50684c-5.93164,0-6.4082,1.17383-6.4082,8.02588,0,7.51855.60352,7.9624,7.61328,7.9624,6.02734,0,6.43945-1.17334,6.43945-7.9624,0-7.61328-.69727-8.02588-7.64453-8.02588Z"/>
    </g>
    <g>
      <path fill="#231815" d="M28.41504,67.24512c-2.35596.33301-4.02637.85645-4.02637,4.42578v1.19043h23.30029v7.13867h-30.32471v-6.66309c0-3.9502.08594-11.89844,8.43799-12.94531l10.96484-1.37988c3.16943-.38086,4.1543-1.42773,4.1543-4.56934,0-3.52148-.98486-5.1875-7.49512-5.1875-7.75244,0-8.43799.9043-8.52344,6.1875h-6.93896c.08594-8.3291.98535-13.32617,14.77686-13.32617,7.79541,0,15.1626.47607,15.1626,11.85059,0,1.71289-.17139,6.33008-2.31299,8.56641-1.45654,1.52344-4.19775,2.95117-6.63916,3.28418l-10.53613,1.42773Z"/>
      <path fill="#231815" d="M72.48633,42.49707v37.50293h-7.06641v-30.36426h-6.85352v-7.13867h13.91992Z"/>
    </g>
  </symbol>
  <symbol id="KO22" viewBox="0 0 100 100">
    <circle fill="#b5005e" cx="50" cy="50" r="50"/>
    <path fill="#fff" d="M6.77277,37.5c-1.14618,3.97015-1.77277,8.16077-1.77277,12.5,0,24.85278,20.14716,45,45,45s45-20.14722,45-45c0-4.33923-.62659-8.52985-1.77277-12.5H6.77277Z"/>
    <g>
      <path fill="#fff" d="M41.44824,10.00244h6.69336l-11.38818,12.11816,11.92773,12.87939h-6.82031l-11.22998-12.65771v12.65771h-5.23438V10.00244h5.23438v11.896l10.81738-11.896Z"/>
      <path fill="#fff" d="M75.17188,22.12061c0,9.80225-1.55469,13.1333-11.67383,13.1333-9.3584,0-12.81641-1.26904-12.81641-12.30859,0-10.56396,1.9043-13.19678,12.24512-13.19678,9.10449,0,12.24512,1.71289,12.24512,12.37207ZM62.32422,14.50684c-5.93164,0-6.4082,1.17383-6.4082,8.02588,0,7.51855.60352,7.9624,7.61328,7.9624,6.02734,0,6.43945-1.17334,6.43945-7.9624,0-7.61328-.69727-8.02588-7.64453-8.02588Z"/>
    </g>
    <g>
      <path fill="#231815" d="M28.41504,67.24512c-2.35596.33301-4.02637.85645-4.02637,4.42578v1.19043h23.30029v7.13867h-30.32471v-6.66309c0-3.9502.08594-11.89844,8.43799-12.94531l10.96484-1.37988c3.16943-.38086,4.1543-1.42773,4.1543-4.56934,0-3.52148-.98486-5.1875-7.49512-5.1875-7.75244,0-8.43799.9043-8.52344,6.1875h-6.93896c.08594-8.3291.98535-13.32617,14.77686-13.32617,7.79541,0,15.1626.47607,15.1626,11.85059,0,1.71289-.17139,6.33008-2.31299,8.56641-1.45654,1.52344-4.19775,2.95117-6.63916,3.28418l-10.53613,1.42773Z"/>
      <path fill="#231815" d="M63.32129,67.24512c-2.35645.33301-4.02637.85645-4.02637,4.42578v1.19043h23.2998v7.13867h-30.32422v-6.66309c0-3.9502.08594-11.89844,8.4375-12.94531l10.96484-1.37988c3.16992-.38086,4.1543-1.42773,4.1543-4.56934,0-3.52148-.98438-5.1875-7.49512-5.1875-7.75195,0-8.4375.9043-8.52344,6.1875h-6.93848c.08594-8.3291.98535-13.32617,14.77637-13.32617,7.7959,0,15.16309.47607,15.16309,11.85059,0,1.71289-.17188,6.33008-2.31348,8.56641-1.45605,1.52344-4.19727,2.95117-6.63867,3.28418l-10.53613,1.42773Z"/>
    </g>
  </symbol>
  <symbol id="KO23" viewBox="0 0 100 100">
    <circle fill="#b5005e" cx="50" cy="50" r="50"/>
    <path fill="#fff" d="M6.77277,37.5c-1.14618,3.97015-1.77277,8.16077-1.77277,12.5,0,24.85278,20.14716,45,45,45s45-20.14722,45-45c0-4.33923-.62659-8.52985-1.77277-12.5H6.77277Z"/>
    <g>
      <path fill="#fff" d="M41.44824,10.00244h6.69336l-11.38818,12.11816,11.92773,12.87939h-6.82031l-11.22998-12.65771v12.65771h-5.23438V10.00244h5.23438v11.896l10.81738-11.896Z"/>
      <path fill="#fff" d="M75.17188,22.12061c0,9.80225-1.55469,13.1333-11.67383,13.1333-9.3584,0-12.81641-1.26904-12.81641-12.30859,0-10.56396,1.9043-13.19678,12.24512-13.19678,9.10449,0,12.24512,1.71289,12.24512,12.37207ZM62.32422,14.50684c-5.93164,0-6.4082,1.17383-6.4082,8.02588,0,7.51855.60352,7.9624,7.61328,7.9624,6.02734,0,6.43945-1.17334,6.43945-7.9624,0-7.61328-.69727-8.02588-7.64453-8.02588Z"/>
    </g>
    <g>
      <path fill="#231815" d="M28.41504,67.24512c-2.35596.33301-4.02637.85645-4.02637,4.42578v1.19043h23.30029v7.13867h-30.32471v-6.66309c0-3.9502.08594-11.89844,8.43799-12.94531l10.96484-1.37988c3.16943-.38086,4.1543-1.42773,4.1543-4.56934,0-3.52148-.98486-5.1875-7.49512-5.1875-7.75244,0-8.43799.9043-8.52344,6.1875h-6.93896c.08594-8.3291.98535-13.32617,14.77686-13.32617,7.79541,0,15.1626.47607,15.1626,11.85059,0,1.71289-.17139,6.33008-2.31299,8.56641-1.45654,1.52344-4.19775,2.95117-6.63916,3.28418l-10.53613,1.42773Z"/>
      <path fill="#231815" d="M59.12305,66.76953c-.08496,5.47266.38574,6.4248,9.33789,6.4248,4.1543,0,7.32422-.57129,7.32422-4.71191,0-4.47363-2.95605-4.56836-5.09766-4.56836h-7.02441v-6.28223h7.02441c1.92773,0,4.58301,0,4.58301-3.9502,0-4.23633-3.08398-4.33154-8.30859-4.33154-6.98242,0-7.19629,1.71338-7.19629,5.42627h-7.02441c.17188-10.1377,3.55566-12.66016,14.5625-12.66016,6.4248,0,14.94824.04736,14.94824,10.61328,0,1.14258,0,6.0918-4.19727,7.66211,1.28516.57129,4.79688,2.09473,4.79688,8.75684,0,10.42285-7.45215,11.23242-14.77637,11.23242-13.79199,0-16.01953-3.09375-16.01953-13.61133h7.06738Z"/>
    </g>
  </symbol>
  <symbol id="KO24" viewBox="0 0 100 100">
    <circle fill="#b5005e" cx="50" cy="50" r="50"/>
    <path fill="#fff" d="M6.77277,37.5c-1.14618,3.97015-1.77277,8.16077-1.77277,12.5,0,24.85278,20.14716,45,45,45s45-20.14722,45-45c0-4.33923-.62659-8.52985-1.77277-12.5H6.77277Z"/>
    <g>
      <path fill="#fff" d="M41.44824,10.00244h6.69336l-11.38818,12.11816,11.92773,12.87939h-6.82031l-11.22998-12.65771v12.65771h-5.23438V10.00244h5.23438v11.896l10.81738-11.896Z"/>
      <path fill="#fff" d="M75.17188,22.12061c0,9.80225-1.55469,13.1333-11.67383,13.1333-9.3584,0-12.81641-1.26904-12.81641-12.30859,0-10.56396,1.9043-13.19678,12.24512-13.19678,9.10449,0,12.24512,1.71289,12.24512,12.37207ZM62.32422,14.50684c-5.93164,0-6.4082,1.17383-6.4082,8.02588,0,7.51855.60352,7.9624,7.61328,7.9624,6.02734,0,6.43945-1.17334,6.43945-7.9624,0-7.61328-.69727-8.02588-7.64453-8.02588Z"/>
    </g>
    <g>
      <path fill="#231815" d="M28.41504,67.24512c-2.35596.33301-4.02637.85645-4.02637,4.42578v1.19043h23.30029v7.13867h-30.32471v-6.66309c0-3.9502.08594-11.89844,8.43799-12.94531l10.96484-1.37988c3.16943-.38086,4.1543-1.42773,4.1543-4.56934,0-3.52148-.98486-5.1875-7.49512-5.1875-7.75244,0-8.43799.9043-8.52344,6.1875h-6.93896c.08594-8.3291.98535-13.32617,14.77686-13.32617,7.79541,0,15.1626.47607,15.1626,11.85059,0,1.71289-.17139,6.33008-2.31299,8.56641-1.45654,1.52344-4.19775,2.95117-6.63916,3.28418l-10.53613,1.42773Z"/>
      <path fill="#231815" d="M78.18359,42.49707v23.03516h5.48242v7.13867h-5.48242v7.3291h-6.98145v-7.3291h-19.95996v-7.75781l17.13281-22.41602h9.80859ZM71.20215,48.96924l-12.76367,16.56299h12.76367v-16.56299Z"/>
    </g>
  </symbol>
  <symbol id="KO25" viewBox="0 0 100 100">
    <circle fill="#b5005e" cx="50" cy="50" r="50"/>
    <path fill="#fff" d="M6.77277,37.5c-1.14618,3.97015-1.77277,8.16077-1.77277,12.5,0,24.85278,20.14716,45,45,45s45-20.14722,45-45c0-4.33923-.62659-8.52985-1.77277-12.5H6.77277Z"/>
    <g>
      <path fill="#fff" d="M41.44824,10.00244h6.69336l-11.38818,12.11816,11.92773,12.87939h-6.82031l-11.22998-12.65771v12.65771h-5.23438V10.00244h5.23438v11.896l10.81738-11.896Z"/>
      <path fill="#fff" d="M75.17188,22.12061c0,9.80225-1.55469,13.1333-11.67383,13.1333-9.3584,0-12.81641-1.26904-12.81641-12.30859,0-10.56396,1.9043-13.19678,12.24512-13.19678,9.10449,0,12.24512,1.71289,12.24512,12.37207ZM62.32422,14.50684c-5.93164,0-6.4082,1.17383-6.4082,8.02588,0,7.51855.60352,7.9624,7.61328,7.9624,6.02734,0,6.43945-1.17334,6.43945-7.9624,0-7.61328-.69727-8.02588-7.64453-8.02588Z"/>
    </g>
    <g>
      <path fill="#231815" d="M28.41504,67.24512c-2.35596.33301-4.02637.85645-4.02637,4.42578v1.19043h23.30029v7.13867h-30.32471v-6.66309c0-3.9502.08594-11.89844,8.43799-12.94531l10.96484-1.37988c3.16943-.38086,4.1543-1.42773,4.1543-4.56934,0-3.52148-.98486-5.1875-7.49512-5.1875-7.75244,0-8.43799.9043-8.52344,6.1875h-6.93896c.08594-8.3291.98535-13.32617,14.77686-13.32617,7.79541,0,15.1626.47607,15.1626,11.85059,0,1.71289-.17139,6.33008-2.31299,8.56641-1.45654,1.52344-4.19775,2.95117-6.63916,3.28418l-10.53613,1.42773Z"/>
      <path fill="#231815" d="M81.30957,42.49707v7.13867h-21.1582l-.25684,7.66211c1.45605-1.2373,3.16895-2.52148,9.97949-2.52148,7.19531,0,12.76367,1.1416,12.76367,12.84961,0,9.70898-3.59766,12.75488-14.8623,12.75488-11.56445,0-15.46191-1.95117-15.59082-12.56445h7.02441c0,3.66406.51367,5.4248,7.75293,5.4248,7.15234,0,8.65137-.85645,8.65137-5.61523,0-4.14062-.55664-5.94922-7.70996-5.94922-7.40918,0-7.88086,1.37988-8.26562,2.71289h-6.46777l.4707-21.89258h27.66895Z"/>
    </g>
  </symbol>
  <symbol id="KO26" viewBox="0 0 100 100">
    <circle fill="#b5005e" cx="50" cy="50" r="50"/>
    <path fill="#fff" d="M6.77277,37.5c-1.14618,3.97015-1.77277,8.16077-1.77277,12.5,0,24.85278,20.14716,45,45,45s45-20.14722,45-45c0-4.33923-.62659-8.52985-1.77277-12.5H6.77277Z"/>
    <g>
      <path fill="#fff" d="M41.44824,10.00244h6.69336l-11.38818,12.11816,11.92773,12.87939h-6.82031l-11.22998-12.65771v12.65771h-5.23438V10.00244h5.23438v11.896l10.81738-11.896Z"/>
      <path fill="#fff" d="M75.17188,22.12061c0,9.80225-1.55469,13.1333-11.67383,13.1333-9.3584,0-12.81641-1.26904-12.81641-12.30859,0-10.56396,1.9043-13.19678,12.24512-13.19678,9.10449,0,12.24512,1.71289,12.24512,12.37207ZM62.32422,14.50684c-5.93164,0-6.4082,1.17383-6.4082,8.02588,0,7.51855.60352,7.9624,7.61328,7.9624,6.02734,0,6.43945-1.17334,6.43945-7.9624,0-7.61328-.69727-8.02588-7.64453-8.02588Z"/>
    </g>
    <g>
      <path fill="#231815" d="M28.41504,67.24512c-2.35596.33301-4.02637.85645-4.02637,4.42578v1.19043h23.30029v7.13867h-30.32471v-6.66309c0-3.9502.08594-11.89844,8.43799-12.94531l10.96484-1.37988c3.16943-.38086,4.1543-1.42773,4.1543-4.56934,0-3.52148-.98486-5.1875-7.49512-5.1875-7.75244,0-8.43799.9043-8.52344,6.1875h-6.93896c.08594-8.3291.98535-13.32617,14.77686-13.32617,7.79541,0,15.1626.47607,15.1626,11.85059,0,1.71289-.17139,6.33008-2.31299,8.56641-1.45654,1.52344-4.19775,2.95117-6.63916,3.28418l-10.53613,1.42773Z"/>
      <path fill="#231815" d="M75.01367,53.39551c.04297-2.47461-.2998-4.37842-6.38184-4.37842-7.28125,0-8.95215.9043-8.95215,9.99463,1.37109-1.47559,2.87012-3.09375,10.28027-3.09375,9.97949,0,12.24902,4.47363,12.24902,11.75586,0,11.13574-5.13965,12.70703-13.53418,12.70703-10.06543,0-15.97656-.66699-15.97656-16.18164,0-16.75293.89941-22.08301,14.94824-22.08301,8.78027,0,14.3916,1.42773,14.34863,11.2793h-6.98145ZM59.80859,68.53027c0,4.2832,1.92773,5.0918,8.52344,5.0918,6.46777,0,7.19531-1.47461,7.19531-5.80566,0-3.47461-1.37012-5.04492-7.15234-5.04492-5.6543,0-8.56641.19043-8.56641,5.75879Z"/>
    </g>
  </symbol>
  <symbol id="KO27" viewBox="0 0 100 100">
    <circle fill="#b5005e" cx="50" cy="50" r="50"/>
    <path fill="#fff" d="M6.77277,37.5c-1.14618,3.97015-1.77277,8.16077-1.77277,12.5,0,24.85278,20.14716,45,45,45s45-20.14722,45-45c0-4.33923-.62659-8.52985-1.77277-12.5H6.77277Z"/>
    <g>
      <path fill="#fff" d="M41.44824,10.00244h6.69336l-11.38818,12.11816,11.92773,12.87939h-6.82031l-11.22998-12.65771v12.65771h-5.23438V10.00244h5.23438v11.896l10.81738-11.896Z"/>
      <path fill="#fff" d="M75.17188,22.12061c0,9.80225-1.55469,13.1333-11.67383,13.1333-9.3584,0-12.81641-1.26904-12.81641-12.30859,0-10.56396,1.9043-13.19678,12.24512-13.19678,9.10449,0,12.24512,1.71289,12.24512,12.37207ZM62.32422,14.50684c-5.93164,0-6.4082,1.17383-6.4082,8.02588,0,7.51855.60352,7.9624,7.61328,7.9624,6.02734,0,6.43945-1.17334,6.43945-7.9624,0-7.61328-.69727-8.02588-7.64453-8.02588Z"/>
    </g>
    <g>
      <path fill="#231815" d="M28.41504,67.24512c-2.35596.33301-4.02637.85645-4.02637,4.42578v1.19043h23.30029v7.13867h-30.32471v-6.66309c0-3.9502.08594-11.89844,8.43799-12.94531l10.96484-1.37988c3.16943-.38086,4.1543-1.42773,4.1543-4.56934,0-3.52148-.98486-5.1875-7.49512-5.1875-7.75244,0-8.43799.9043-8.52344,6.1875h-6.93896c.08594-8.3291.98535-13.32617,14.77686-13.32617,7.79541,0,15.1626.47607,15.1626,11.85059,0,1.71289-.17139,6.33008-2.31299,8.56641-1.45654,1.52344-4.19775,2.95117-6.63916,3.28418l-10.53613,1.42773Z"/>
      <path fill="#231815" d="M82.6377,42.49707v7.23389l-16.5332,30.26904h-8.4375l17.30371-30.36426h-22.65723v-7.13867h30.32422Z"/>
    </g>
  </symbol>
  <symbol id="KO28" viewBox="0 0 100 100">
    <circle fill="#b5005e" cx="50" cy="50" r="50"/>
    <path fill="#fff" d="M6.77277,37.5c-1.14618,3.97015-1.77277,8.16077-1.77277,12.5,0,24.85278,20.14716,45,45,45s45-20.14722,45-45c0-4.33923-.62659-8.52985-1.77277-12.5H6.77277Z"/>
    <g>
      <path fill="#fff" d="M41.44824,10.00244h6.69336l-11.38818,12.11816,11.92773,12.87939h-6.82031l-11.22998-12.65771v12.65771h-5.23438V10.00244h5.23438v11.896l10.81738-11.896Z"/>
      <path fill="#fff" d="M75.17188,22.12061c0,9.80225-1.55469,13.1333-11.67383,13.1333-9.3584,0-12.81641-1.26904-12.81641-12.30859,0-10.56396,1.9043-13.19678,12.24512-13.19678,9.10449,0,12.24512,1.71289,12.24512,12.37207ZM62.32422,14.50684c-5.93164,0-6.4082,1.17383-6.4082,8.02588,0,7.51855.60352,7.9624,7.61328,7.9624,6.02734,0,6.43945-1.17334,6.43945-7.9624,0-7.61328-.69727-8.02588-7.64453-8.02588Z"/>
    </g>
    <g>
      <path fill="#231815" d="M28.41504,67.24512c-2.35596.33301-4.02637.85645-4.02637,4.42578v1.19043h23.30029v7.13867h-30.32471v-6.66309c0-3.9502.08594-11.89844,8.43799-12.94531l10.96484-1.37988c3.16943-.38086,4.1543-1.42773,4.1543-4.56934,0-3.52148-.98486-5.1875-7.49512-5.1875-7.75244,0-8.43799.9043-8.52344,6.1875h-6.93896c.08594-8.3291.98535-13.32617,14.77686-13.32617,7.79541,0,15.1626.47607,15.1626,11.85059,0,1.71289-.17139,6.33008-2.31299,8.56641-1.45654,1.52344-4.19775,2.95117-6.63916,3.28418l-10.53613,1.42773Z"/>
      <path fill="#231815" d="M52.61328,52.72949c0-9.04297,5.73926-10.61328,14.34863-10.61328,8.56543,0,15.33301.80908,15.33301,10.61328,0,1.33301-.08594,5.99609-4.19727,7.85254,4.79688,1.52344,4.79688,7.85254,4.79688,8.75684,0,10.18457-7.15234,11.04199-14.99121,11.04199-7.02344,0-15.88965-.0957-15.88965-10.85156,0-1.33203,0-7.42383,4.75391-8.94727-3.29785-1.52246-4.1543-4.75879-4.1543-7.85254ZM58.90918,68.95801c0,3.52246,1.6709,4.47363,8.52344,4.47363,7.45312,0,8.56641-1.09375,8.56641-4.90137,0-4.80664-3.16992-4.80664-8.56641-4.80664-6.89551,0-8.52344.71387-8.52344,5.23438ZM59.55176,53.30078c0,3.85449,1.8418,4.23535,8.35156,4.23535,6.4248,0,7.45312-.85645,7.45312-4.52148,0-3.23633-1.49902-4.04541-7.88086-4.04541-6.68164,0-7.92383.85693-7.92383,4.33154Z"/>
    </g>
  </symbol>
  <symbol id="KO29" viewBox="0 0 100 100">
    <circle fill="#b5005e" cx="50" cy="50" r="50"/>
    <path fill="#fff" d="M6.77277,37.5c-1.14618,3.97015-1.77277,8.16077-1.77277,12.5,0,24.85278,20.14716,45,45,45s45-20.14722,45-45c0-4.33923-.62659-8.52985-1.77277-12.5H6.77277Z"/>
    <g>
      <path fill="#fff" d="M41.44824,10.00244h6.69336l-11.38818,12.11816,11.92773,12.87939h-6.82031l-11.22998-12.65771v12.65771h-5.23438V10.00244h5.23438v11.896l10.81738-11.896Z"/>
      <path fill="#fff" d="M75.17188,22.12061c0,9.80225-1.55469,13.1333-11.67383,13.1333-9.3584,0-12.81641-1.26904-12.81641-12.30859,0-10.56396,1.9043-13.19678,12.24512-13.19678,9.10449,0,12.24512,1.71289,12.24512,12.37207ZM62.32422,14.50684c-5.93164,0-6.4082,1.17383-6.4082,8.02588,0,7.51855.60352,7.9624,7.61328,7.9624,6.02734,0,6.43945-1.17334,6.43945-7.9624,0-7.61328-.69727-8.02588-7.64453-8.02588Z"/>
    </g>
    <g>
      <path fill="#231815" d="M28.41504,67.24512c-2.35596.33301-4.02637.85645-4.02637,4.42578v1.19043h23.30029v7.13867h-30.32471v-6.66309c0-3.9502.08594-11.89844,8.43799-12.94531l10.96484-1.37988c3.16943-.38086,4.1543-1.42773,4.1543-4.56934,0-3.52148-.98486-5.1875-7.49512-5.1875-7.75244,0-8.43799.9043-8.52344,6.1875h-6.93896c.08594-8.3291.98535-13.32617,14.77686-13.32617,7.79541,0,15.1626.47607,15.1626,11.85059,0,1.71289-.17139,6.33008-2.31299,8.56641-1.45654,1.52344-4.19775,2.95117-6.63916,3.28418l-10.53613,1.42773Z"/>
      <path fill="#231815" d="M59.89453,69.10156c-.08594,2.47461.2998,4.37793,6.38184,4.37793,7.28125,0,8.95117-.9043,8.90918-9.99414-1.32812,1.47559-2.82715,3.09375-10.2373,3.09375-9.93652,0-12.25-4.42676-12.25-11.70801,0-10.89893,4.79785-12.75488,13.83496-12.75488,10.2793,0,15.63379,1.28516,15.63379,16.22949,0,16.65723-.81445,22.03516-14.90527,22.03516-8.82324,0-14.3916-1.42773-14.34863-11.2793h6.98145ZM75.09961,53.9668c0-4.37891-2.01367-5.09277-8.65234-5.09277-6.38184,0-7.10938,1.47559-7.10938,5.75879,0,3.52246,1.37012,5.09277,7.19531,5.09277,6.68164,0,8.56641-.76172,8.56641-5.75879Z"/>
    </g>
  </symbol>
  <symbol id="KO30" viewBox="0 0 100 100">
    <circle fill="#b5005e" cx="50" cy="50" r="50"/>
    <path fill="#fff" d="M6.77277,37.5c-1.14618,3.97015-1.77277,8.16077-1.77277,12.5,0,24.85278,20.14716,45,45,45s45-20.14722,45-45c0-4.33923-.62659-8.52985-1.77277-12.5H6.77277Z"/>
    <g>
      <path fill="#fff" d="M41.44824,10.00244h6.69336l-11.38818,12.11816,11.92773,12.87939h-6.82031l-11.22998-12.65771v12.65771h-5.23438V10.00244h5.23438v11.896l10.81738-11.896Z"/>
      <path fill="#fff" d="M75.17188,22.12061c0,9.80225-1.55469,13.1333-11.67383,13.1333-9.3584,0-12.81641-1.26904-12.81641-12.30859,0-10.56396,1.9043-13.19678,12.24512-13.19678,9.10449,0,12.24512,1.71289,12.24512,12.37207ZM62.32422,14.50684c-5.93164,0-6.4082,1.17383-6.4082,8.02588,0,7.51855.60352,7.9624,7.61328,7.9624,6.02734,0,6.43945-1.17334,6.43945-7.9624,0-7.61328-.69727-8.02588-7.64453-8.02588Z"/>
    </g>
    <g>
      <path fill="#231815" d="M24.21729,66.76953c-.08545,5.47266.38574,6.4248,9.3374,6.4248,4.15479,0,7.32422-.57129,7.32422-4.71191,0-4.47363-2.95557-4.56836-5.09717-4.56836h-7.02441v-6.28223h7.02441c1.92773,0,4.58301,0,4.58301-3.9502,0-4.23633-3.08398-4.33154-8.30908-4.33154-6.98193,0-7.1958,1.71338-7.1958,5.42627h-7.02441c.17139-10.1377,3.55518-12.66016,14.5625-12.66016,6.4248,0,14.94824.04736,14.94824,10.61328,0,1.14258,0,6.0918-4.19727,7.66211,1.28467.57129,4.79688,2.09473,4.79688,8.75684,0,10.42285-7.45264,11.23242-14.77686,11.23242-13.7915,0-16.01904-3.09375-16.01904-13.61133h7.06738Z"/>
      <path fill="#231815" d="M67.60352,80.38086c-12.63477,0-15.54785-2.52246-15.54785-19.13281,0-16.13379,2.65625-19.13184,15.20605-19.13184,12.67773,0,15.54785,2.52246,15.54785,19.13184,0,16.13379-2.61328,19.13281-15.20605,19.13281ZM59.12305,61.34375c0,11.6123.72852,11.89746,8.82324,11.89746,6.93945,0,7.7959-.85645,7.7959-11.23145,0-2.23633-.12891-8.18555-.72852-9.99414-.85645-2.52246-3.38379-2.76074-7.58105-2.76074-7.58105,0-8.30957.42822-8.30957,12.08887Z"/>
    </g>
  </symbol>
  <symbol id="KO31" viewBox="0 0 100 100">
    <circle fill="#b5005e" cx="50" cy="50" r="50"/>
    <path fill="#fff" d="M6.77277,37.5c-1.14618,3.97015-1.77277,8.16077-1.77277,12.5,0,24.85278,20.14716,45,45,45s45-20.14722,45-45c0-4.33923-.62659-8.52985-1.77277-12.5H6.77277Z"/>
    <g>
      <path fill="#fff" d="M41.44824,10.00244h6.69336l-11.38818,12.11816,11.92773,12.87939h-6.82031l-11.22998-12.65771v12.65771h-5.23438V10.00244h5.23438v11.896l10.81738-11.896Z"/>
      <path fill="#fff" d="M75.17188,22.12061c0,9.80225-1.55469,13.1333-11.67383,13.1333-9.3584,0-12.81641-1.26904-12.81641-12.30859,0-10.56396,1.9043-13.19678,12.24512-13.19678,9.10449,0,12.24512,1.71289,12.24512,12.37207ZM62.32422,14.50684c-5.93164,0-6.4082,1.17383-6.4082,8.02588,0,7.51855.60352,7.9624,7.61328,7.9624,6.02734,0,6.43945-1.17334,6.43945-7.9624,0-7.61328-.69727-8.02588-7.64453-8.02588Z"/>
    </g>
    <g>
      <path fill="#231815" d="M24.21729,66.76953c-.08545,5.47266.38574,6.4248,9.3374,6.4248,4.15479,0,7.32422-.57129,7.32422-4.71191,0-4.47363-2.95557-4.56836-5.09717-4.56836h-7.02441v-6.28223h7.02441c1.92773,0,4.58301,0,4.58301-3.9502,0-4.23633-3.08398-4.33154-8.30908-4.33154-6.98193,0-7.1958,1.71338-7.1958,5.42627h-7.02441c.17139-10.1377,3.55518-12.66016,14.5625-12.66016,6.4248,0,14.94824.04736,14.94824,10.61328,0,1.14258,0,6.0918-4.19727,7.66211,1.28467.57129,4.79688,2.09473,4.79688,8.75684,0,10.42285-7.45264,11.23242-14.77686,11.23242-13.7915,0-16.01904-3.09375-16.01904-13.61133h7.06738Z"/>
      <path fill="#231815" d="M72.48633,42.49707v37.50293h-7.06641v-30.36426h-6.85352v-7.13867h13.91992Z"/>
    </g>
  </symbol>
  <symbol id="KO32" viewBox="0 0 100 100">
    <circle fill="#b5005e" cx="50" cy="50" r="50"/>
    <path fill="#fff" d="M6.77277,37.5c-1.14618,3.97015-1.77277,8.16077-1.77277,12.5,0,24.85278,20.14716,45,45,45s45-20.14722,45-45c0-4.33923-.62659-8.52985-1.77277-12.5H6.77277Z"/>
    <g>
      <path fill="#fff" d="M41.44824,10.00244h6.69336l-11.38818,12.11816,11.92773,12.87939h-6.82031l-11.22998-12.65771v12.65771h-5.23438V10.00244h5.23438v11.896l10.81738-11.896Z"/>
      <path fill="#fff" d="M75.17188,22.12061c0,9.80225-1.55469,13.1333-11.67383,13.1333-9.3584,0-12.81641-1.26904-12.81641-12.30859,0-10.56396,1.9043-13.19678,12.24512-13.19678,9.10449,0,12.24512,1.71289,12.24512,12.37207ZM62.32422,14.50684c-5.93164,0-6.4082,1.17383-6.4082,8.02588,0,7.51855.60352,7.9624,7.61328,7.9624,6.02734,0,6.43945-1.17334,6.43945-7.9624,0-7.61328-.69727-8.02588-7.64453-8.02588Z"/>
    </g>
    <g>
      <path fill="#231815" d="M24.21729,66.76953c-.08545,5.47266.38574,6.4248,9.3374,6.4248,4.15479,0,7.32422-.57129,7.32422-4.71191,0-4.47363-2.95557-4.56836-5.09717-4.56836h-7.02441v-6.28223h7.02441c1.92773,0,4.58301,0,4.58301-3.9502,0-4.23633-3.08398-4.33154-8.30908-4.33154-6.98193,0-7.1958,1.71338-7.1958,5.42627h-7.02441c.17139-10.1377,3.55518-12.66016,14.5625-12.66016,6.4248,0,14.94824.04736,14.94824,10.61328,0,1.14258,0,6.0918-4.19727,7.66211,1.28467.57129,4.79688,2.09473,4.79688,8.75684,0,10.42285-7.45264,11.23242-14.77686,11.23242-13.7915,0-16.01904-3.09375-16.01904-13.61133h7.06738Z"/>
      <path fill="#231815" d="M63.32129,67.24512c-2.35645.33301-4.02637.85645-4.02637,4.42578v1.19043h23.2998v7.13867h-30.32422v-6.66309c0-3.9502.08594-11.89844,8.4375-12.94531l10.96484-1.37988c3.16992-.38086,4.1543-1.42773,4.1543-4.56934,0-3.52148-.98438-5.1875-7.49512-5.1875-7.75195,0-8.4375.9043-8.52344,6.1875h-6.93848c.08594-8.3291.98535-13.32617,14.77637-13.32617,7.7959,0,15.16309.47607,15.16309,11.85059,0,1.71289-.17188,6.33008-2.31348,8.56641-1.45605,1.52344-4.19727,2.95117-6.63867,3.28418l-10.53613,1.42773Z"/>
    </g>
  </symbol>
  <symbol id="KO33" viewBox="0 0 100 100">
    <circle fill="#b5005e" cx="50" cy="50" r="50"/>
    <path fill="#fff" d="M6.77277,37.5c-1.14618,3.97015-1.77277,8.16077-1.77277,12.5,0,24.85278,20.14716,45,45,45s45-20.14722,45-45c0-4.33923-.62659-8.52985-1.77277-12.5H6.77277Z"/>
    <g>
      <path fill="#fff" d="M41.44824,10.00244h6.69336l-11.38818,12.11816,11.92773,12.87939h-6.82031l-11.22998-12.65771v12.65771h-5.23438V10.00244h5.23438v11.896l10.81738-11.896Z"/>
      <path fill="#fff" d="M75.17188,22.12061c0,9.80225-1.55469,13.1333-11.67383,13.1333-9.3584,0-12.81641-1.26904-12.81641-12.30859,0-10.56396,1.9043-13.19678,12.24512-13.19678,9.10449,0,12.24512,1.71289,12.24512,12.37207ZM62.32422,14.50684c-5.93164,0-6.4082,1.17383-6.4082,8.02588,0,7.51855.60352,7.9624,7.61328,7.9624,6.02734,0,6.43945-1.17334,6.43945-7.9624,0-7.61328-.69727-8.02588-7.64453-8.02588Z"/>
    </g>
    <g>
      <path fill="#231815" d="M24.21729,66.76953c-.08545,5.47266.38574,6.4248,9.3374,6.4248,4.15479,0,7.32422-.57129,7.32422-4.71191,0-4.47363-2.95557-4.56836-5.09717-4.56836h-7.02441v-6.28223h7.02441c1.92773,0,4.58301,0,4.58301-3.9502,0-4.23633-3.08398-4.33154-8.30908-4.33154-6.98193,0-7.1958,1.71338-7.1958,5.42627h-7.02441c.17139-10.1377,3.55518-12.66016,14.5625-12.66016,6.4248,0,14.94824.04736,14.94824,10.61328,0,1.14258,0,6.0918-4.19727,7.66211,1.28467.57129,4.79688,2.09473,4.79688,8.75684,0,10.42285-7.45264,11.23242-14.77686,11.23242-13.7915,0-16.01904-3.09375-16.01904-13.61133h7.06738Z"/>
      <path fill="#231815" d="M59.12305,66.76953c-.08496,5.47266.38574,6.4248,9.33789,6.4248,4.1543,0,7.32422-.57129,7.32422-4.71191,0-4.47363-2.95605-4.56836-5.09766-4.56836h-7.02441v-6.28223h7.02441c1.92773,0,4.58301,0,4.58301-3.9502,0-4.23633-3.08398-4.33154-8.30859-4.33154-6.98242,0-7.19629,1.71338-7.19629,5.42627h-7.02441c.17188-10.1377,3.55566-12.66016,14.5625-12.66016,6.4248,0,14.94824.04736,14.94824,10.61328,0,1.14258,0,6.0918-4.19727,7.66211,1.28516.57129,4.79688,2.09473,4.79688,8.75684,0,10.42285-7.45215,11.23242-14.77637,11.23242-13.79199,0-16.01953-3.09375-16.01953-13.61133h7.06738Z"/>
    </g>
  </symbol>
  <symbol id="KO34" viewBox="0 0 100 100">
    <circle fill="#b5005e" cx="50" cy="50" r="50"/>
    <path fill="#fff" d="M6.77277,37.5c-1.14618,3.97015-1.77277,8.16077-1.77277,12.5,0,24.85278,20.14716,45,45,45s45-20.14722,45-45c0-4.33923-.62659-8.52985-1.77277-12.5H6.77277Z"/>
    <g>
      <path fill="#fff" d="M41.44824,10.00244h6.69336l-11.38818,12.11816,11.92773,12.87939h-6.82031l-11.22998-12.65771v12.65771h-5.23438V10.00244h5.23438v11.896l10.81738-11.896Z"/>
      <path fill="#fff" d="M75.17188,22.12061c0,9.80225-1.55469,13.1333-11.67383,13.1333-9.3584,0-12.81641-1.26904-12.81641-12.30859,0-10.56396,1.9043-13.19678,12.24512-13.19678,9.10449,0,12.24512,1.71289,12.24512,12.37207ZM62.32422,14.50684c-5.93164,0-6.4082,1.17383-6.4082,8.02588,0,7.51855.60352,7.9624,7.61328,7.9624,6.02734,0,6.43945-1.17334,6.43945-7.9624,0-7.61328-.69727-8.02588-7.64453-8.02588Z"/>
    </g>
    <g>
      <path fill="#231815" d="M24.21729,66.76953c-.08545,5.47266.38574,6.4248,9.3374,6.4248,4.15479,0,7.32422-.57129,7.32422-4.71191,0-4.47363-2.95557-4.56836-5.09717-4.56836h-7.02441v-6.28223h7.02441c1.92773,0,4.58301,0,4.58301-3.9502,0-4.23633-3.08398-4.33154-8.30908-4.33154-6.98193,0-7.1958,1.71338-7.1958,5.42627h-7.02441c.17139-10.1377,3.55518-12.66016,14.5625-12.66016,6.4248,0,14.94824.04736,14.94824,10.61328,0,1.14258,0,6.0918-4.19727,7.66211,1.28467.57129,4.79688,2.09473,4.79688,8.75684,0,10.42285-7.45264,11.23242-14.77686,11.23242-13.7915,0-16.01904-3.09375-16.01904-13.61133h7.06738Z"/>
      <path fill="#231815" d="M78.18359,42.49707v23.03516h5.48242v7.13867h-5.48242v7.3291h-6.98145v-7.3291h-19.95996v-7.75781l17.13281-22.41602h9.80859ZM71.20215,48.96924l-12.76367,16.56299h12.76367v-16.56299Z"/>
    </g>
  </symbol>
  <symbol id="KO35" viewBox="0 0 100 100">
    <circle fill="#b5005e" cx="50" cy="50" r="50"/>
    <path fill="#fff" d="M6.77277,37.5c-1.14618,3.97015-1.77277,8.16077-1.77277,12.5,0,24.85278,20.14716,45,45,45s45-20.14722,45-45c0-4.33923-.62659-8.52985-1.77277-12.5H6.77277Z"/>
    <g>
      <path fill="#fff" d="M41.44824,10.00244h6.69336l-11.38818,12.11816,11.92773,12.87939h-6.82031l-11.22998-12.65771v12.65771h-5.23438V10.00244h5.23438v11.896l10.81738-11.896Z"/>
      <path fill="#fff" d="M75.17188,22.12061c0,9.80225-1.55469,13.1333-11.67383,13.1333-9.3584,0-12.81641-1.26904-12.81641-12.30859,0-10.56396,1.9043-13.19678,12.24512-13.19678,9.10449,0,12.24512,1.71289,12.24512,12.37207ZM62.32422,14.50684c-5.93164,0-6.4082,1.17383-6.4082,8.02588,0,7.51855.60352,7.9624,7.61328,7.9624,6.02734,0,6.43945-1.17334,6.43945-7.9624,0-7.61328-.69727-8.02588-7.64453-8.02588Z"/>
    </g>
    <g>
      <path fill="#231815" d="M24.21729,66.76953c-.08545,5.47266.38574,6.4248,9.3374,6.4248,4.15479,0,7.32422-.57129,7.32422-4.71191,0-4.47363-2.95557-4.56836-5.09717-4.56836h-7.02441v-6.28223h7.02441c1.92773,0,4.58301,0,4.58301-3.9502,0-4.23633-3.08398-4.33154-8.30908-4.33154-6.98193,0-7.1958,1.71338-7.1958,5.42627h-7.02441c.17139-10.1377,3.55518-12.66016,14.5625-12.66016,6.4248,0,14.94824.04736,14.94824,10.61328,0,1.14258,0,6.0918-4.19727,7.66211,1.28467.57129,4.79688,2.09473,4.79688,8.75684,0,10.42285-7.45264,11.23242-14.77686,11.23242-13.7915,0-16.01904-3.09375-16.01904-13.61133h7.06738Z"/>
      <path fill="#231815" d="M81.30957,42.49707v7.13867h-21.1582l-.25684,7.66211c1.45605-1.2373,3.16895-2.52148,9.97949-2.52148,7.19531,0,12.76367,1.1416,12.76367,12.84961,0,9.70898-3.59766,12.75488-14.8623,12.75488-11.56445,0-15.46191-1.95117-15.59082-12.56445h7.02441c0,3.66406.51367,5.4248,7.75293,5.4248,7.15234,0,8.65137-.85645,8.65137-5.61523,0-4.14062-.55664-5.94922-7.70996-5.94922-7.40918,0-7.88086,1.37988-8.26562,2.71289h-6.46777l.4707-21.89258h27.66895Z"/>
    </g>
  </symbol>
  <symbol id="KO36" viewBox="0 0 100 100">
    <circle fill="#b5005e" cx="50" cy="50" r="50"/>
    <path fill="#fff" d="M6.77277,37.5c-1.14618,3.97015-1.77277,8.16077-1.77277,12.5,0,24.85278,20.14716,45,45,45s45-20.14722,45-45c0-4.33923-.62659-8.52985-1.77277-12.5H6.77277Z"/>
    <g>
      <path fill="#fff" d="M41.44824,10.00244h6.69336l-11.38818,12.11816,11.92773,12.87939h-6.82031l-11.22998-12.65771v12.65771h-5.23438V10.00244h5.23438v11.896l10.81738-11.896Z"/>
      <path fill="#fff" d="M75.17188,22.12061c0,9.80225-1.55469,13.1333-11.67383,13.1333-9.3584,0-12.81641-1.26904-12.81641-12.30859,0-10.56396,1.9043-13.19678,12.24512-13.19678,9.10449,0,12.24512,1.71289,12.24512,12.37207ZM62.32422,14.50684c-5.93164,0-6.4082,1.17383-6.4082,8.02588,0,7.51855.60352,7.9624,7.61328,7.9624,6.02734,0,6.43945-1.17334,6.43945-7.9624,0-7.61328-.69727-8.02588-7.64453-8.02588Z"/>
    </g>
    <g>
      <path fill="#231815" d="M24.21729,66.76953c-.08545,5.47266.38574,6.4248,9.3374,6.4248,4.15479,0,7.32422-.57129,7.32422-4.71191,0-4.47363-2.95557-4.56836-5.09717-4.56836h-7.02441v-6.28223h7.02441c1.92773,0,4.58301,0,4.58301-3.9502,0-4.23633-3.08398-4.33154-8.30908-4.33154-6.98193,0-7.1958,1.71338-7.1958,5.42627h-7.02441c.17139-10.1377,3.55518-12.66016,14.5625-12.66016,6.4248,0,14.94824.04736,14.94824,10.61328,0,1.14258,0,6.0918-4.19727,7.66211,1.28467.57129,4.79688,2.09473,4.79688,8.75684,0,10.42285-7.45264,11.23242-14.77686,11.23242-13.7915,0-16.01904-3.09375-16.01904-13.61133h7.06738Z"/>
      <path fill="#231815" d="M75.01367,53.39551c.04297-2.47461-.2998-4.37842-6.38184-4.37842-7.28125,0-8.95215.9043-8.95215,9.99463,1.37109-1.47559,2.87012-3.09375,10.28027-3.09375,9.97949,0,12.24902,4.47363,12.24902,11.75586,0,11.13574-5.13965,12.70703-13.53418,12.70703-10.06543,0-15.97656-.66699-15.97656-16.18164,0-16.75293.89941-22.08301,14.94824-22.08301,8.78027,0,14.3916,1.42773,14.34863,11.2793h-6.98145ZM59.80859,68.53027c0,4.2832,1.92773,5.0918,8.52344,5.0918,6.46777,0,7.19531-1.47461,7.19531-5.80566,0-3.47461-1.37012-5.04492-7.15234-5.04492-5.6543,0-8.56641.19043-8.56641,5.75879Z"/>
    </g>
  </symbol>
  <symbol id="KO37" viewBox="0 0 100 100">
    <circle fill="#b5005e" cx="50" cy="50" r="50"/>
    <path fill="#fff" d="M6.77277,37.5c-1.14618,3.97015-1.77277,8.16077-1.77277,12.5,0,24.85278,20.14716,45,45,45s45-20.14722,45-45c0-4.33923-.62659-8.52985-1.77277-12.5H6.77277Z"/>
    <g>
      <path fill="#fff" d="M41.44824,10.00244h6.69336l-11.38818,12.11816,11.92773,12.87939h-6.82031l-11.22998-12.65771v12.65771h-5.23438V10.00244h5.23438v11.896l10.81738-11.896Z"/>
      <path fill="#fff" d="M75.17188,22.12061c0,9.80225-1.55469,13.1333-11.67383,13.1333-9.3584,0-12.81641-1.26904-12.81641-12.30859,0-10.56396,1.9043-13.19678,12.24512-13.19678,9.10449,0,12.24512,1.71289,12.24512,12.37207ZM62.32422,14.50684c-5.93164,0-6.4082,1.17383-6.4082,8.02588,0,7.51855.60352,7.9624,7.61328,7.9624,6.02734,0,6.43945-1.17334,6.43945-7.9624,0-7.61328-.69727-8.02588-7.64453-8.02588Z"/>
    </g>
    <g>
      <path fill="#231815" d="M24.21729,66.76953c-.08545,5.47266.38574,6.4248,9.3374,6.4248,4.15479,0,7.32422-.57129,7.32422-4.71191,0-4.47363-2.95557-4.56836-5.09717-4.56836h-7.02441v-6.28223h7.02441c1.92773,0,4.58301,0,4.58301-3.9502,0-4.23633-3.08398-4.33154-8.30908-4.33154-6.98193,0-7.1958,1.71338-7.1958,5.42627h-7.02441c.17139-10.1377,3.55518-12.66016,14.5625-12.66016,6.4248,0,14.94824.04736,14.94824,10.61328,0,1.14258,0,6.0918-4.19727,7.66211,1.28467.57129,4.79688,2.09473,4.79688,8.75684,0,10.42285-7.45264,11.23242-14.77686,11.23242-13.7915,0-16.01904-3.09375-16.01904-13.61133h7.06738Z"/>
      <path fill="#231815" d="M82.6377,42.49707v7.23389l-16.5332,30.26904h-8.4375l17.30371-30.36426h-22.65723v-7.13867h30.32422Z"/>
    </g>
  </symbol>
  <symbol id="KO38" viewBox="0 0 100 100">
    <circle fill="#b5005e" cx="50" cy="50" r="50"/>
    <path fill="#fff" d="M6.77277,37.5c-1.14618,3.97015-1.77277,8.16077-1.77277,12.5,0,24.85278,20.14716,45,45,45s45-20.14722,45-45c0-4.33923-.62659-8.52985-1.77277-12.5H6.77277Z"/>
    <g>
      <path fill="#fff" d="M41.44824,10.00244h6.69336l-11.38818,12.11816,11.92773,12.87939h-6.82031l-11.22998-12.65771v12.65771h-5.23438V10.00244h5.23438v11.896l10.81738-11.896Z"/>
      <path fill="#fff" d="M75.17188,22.12061c0,9.80225-1.55469,13.1333-11.67383,13.1333-9.3584,0-12.81641-1.26904-12.81641-12.30859,0-10.56396,1.9043-13.19678,12.24512-13.19678,9.10449,0,12.24512,1.71289,12.24512,12.37207ZM62.32422,14.50684c-5.93164,0-6.4082,1.17383-6.4082,8.02588,0,7.51855.60352,7.9624,7.61328,7.9624,6.02734,0,6.43945-1.17334,6.43945-7.9624,0-7.61328-.69727-8.02588-7.64453-8.02588Z"/>
    </g>
    <g>
      <path fill="#231815" d="M24.21729,66.76953c-.08545,5.47266.38574,6.4248,9.3374,6.4248,4.15479,0,7.32422-.57129,7.32422-4.71191,0-4.47363-2.95557-4.56836-5.09717-4.56836h-7.02441v-6.28223h7.02441c1.92773,0,4.58301,0,4.58301-3.9502,0-4.23633-3.08398-4.33154-8.30908-4.33154-6.98193,0-7.1958,1.71338-7.1958,5.42627h-7.02441c.17139-10.1377,3.55518-12.66016,14.5625-12.66016,6.4248,0,14.94824.04736,14.94824,10.61328,0,1.14258,0,6.0918-4.19727,7.66211,1.28467.57129,4.79688,2.09473,4.79688,8.75684,0,10.42285-7.45264,11.23242-14.77686,11.23242-13.7915,0-16.01904-3.09375-16.01904-13.61133h7.06738Z"/>
      <path fill="#231815" d="M52.61328,52.72949c0-9.04297,5.73926-10.61328,14.34863-10.61328,8.56543,0,15.33301.80908,15.33301,10.61328,0,1.33301-.08594,5.99609-4.19727,7.85254,4.79688,1.52344,4.79688,7.85254,4.79688,8.75684,0,10.18457-7.15234,11.04199-14.99121,11.04199-7.02344,0-15.88965-.0957-15.88965-10.85156,0-1.33203,0-7.42383,4.75391-8.94727-3.29785-1.52246-4.1543-4.75879-4.1543-7.85254ZM58.90918,68.95801c0,3.52246,1.6709,4.47363,8.52344,4.47363,7.45312,0,8.56641-1.09375,8.56641-4.90137,0-4.80664-3.16992-4.80664-8.56641-4.80664-6.89551,0-8.52344.71387-8.52344,5.23438ZM59.55176,53.30078c0,3.85449,1.8418,4.23535,8.35156,4.23535,6.4248,0,7.45312-.85645,7.45312-4.52148,0-3.23633-1.49902-4.04541-7.88086-4.04541-6.68164,0-7.92383.85693-7.92383,4.33154Z"/>
    </g>
  </symbol>
  <symbol id="KO39" viewBox="0 0 100 100">
    <circle fill="#b5005e" cx="50" cy="50" r="50"/>
    <path fill="#fff" d="M6.77277,37.5c-1.14618,3.97015-1.77277,8.16077-1.77277,12.5,0,24.85278,20.14716,45,45,45s45-20.14722,45-45c0-4.33923-.62659-8.52985-1.77277-12.5H6.77277Z"/>
    <g>
      <path fill="#fff" d="M41.44824,10.00244h6.69336l-11.38818,12.11816,11.92773,12.87939h-6.82031l-11.22998-12.65771v12.65771h-5.23438V10.00244h5.23438v11.896l10.81738-11.896Z"/>
      <path fill="#fff" d="M75.17188,22.12061c0,9.80225-1.55469,13.1333-11.67383,13.1333-9.3584,0-12.81641-1.26904-12.81641-12.30859,0-10.56396,1.9043-13.19678,12.24512-13.19678,9.10449,0,12.24512,1.71289,12.24512,12.37207ZM62.32422,14.50684c-5.93164,0-6.4082,1.17383-6.4082,8.02588,0,7.51855.60352,7.9624,7.61328,7.9624,6.02734,0,6.43945-1.17334,6.43945-7.9624,0-7.61328-.69727-8.02588-7.64453-8.02588Z"/>
    </g>
    <g>
      <path fill="#231815" d="M24.21729,66.76953c-.08545,5.47266.38574,6.4248,9.3374,6.4248,4.15479,0,7.32422-.57129,7.32422-4.71191,0-4.47363-2.95557-4.56836-5.09717-4.56836h-7.02441v-6.28223h7.02441c1.92773,0,4.58301,0,4.58301-3.9502,0-4.23633-3.08398-4.33154-8.30908-4.33154-6.98193,0-7.1958,1.71338-7.1958,5.42627h-7.02441c.17139-10.1377,3.55518-12.66016,14.5625-12.66016,6.4248,0,14.94824.04736,14.94824,10.61328,0,1.14258,0,6.0918-4.19727,7.66211,1.28467.57129,4.79688,2.09473,4.79688,8.75684,0,10.42285-7.45264,11.23242-14.77686,11.23242-13.7915,0-16.01904-3.09375-16.01904-13.61133h7.06738Z"/>
      <path fill="#231815" d="M59.89453,69.10156c-.08594,2.47461.2998,4.37793,6.38184,4.37793,7.28125,0,8.95117-.9043,8.90918-9.99414-1.32812,1.47559-2.82715,3.09375-10.2373,3.09375-9.93652,0-12.25-4.42676-12.25-11.70801,0-10.89893,4.79785-12.75488,13.83496-12.75488,10.2793,0,15.63379,1.28516,15.63379,16.22949,0,16.65723-.81445,22.03516-14.90527,22.03516-8.82324,0-14.3916-1.42773-14.34863-11.2793h6.98145ZM75.09961,53.9668c0-4.37891-2.01367-5.09277-8.65234-5.09277-6.38184,0-7.10938,1.47559-7.10938,5.75879,0,3.52246,1.37012,5.09277,7.19531,5.09277,6.68164,0,8.56641-.76172,8.56641-5.75879Z"/>
    </g>
  </symbol>
  <symbol id="KO40" viewBox="0 0 100 100">
    <circle fill="#b5005e" cx="50" cy="50" r="50"/>
    <path fill="#fff" d="M6.77277,37.5c-1.14618,3.97015-1.77277,8.16077-1.77277,12.5,0,24.85278,20.14716,45,45,45s45-20.14722,45-45c0-4.33923-.62659-8.52985-1.77277-12.5H6.77277Z"/>
    <g>
      <path fill="#fff" d="M41.44824,10.00244h6.69336l-11.38818,12.11816,11.92773,12.87939h-6.82031l-11.22998-12.65771v12.65771h-5.23438V10.00244h5.23438v11.896l10.81738-11.896Z"/>
      <path fill="#fff" d="M75.17188,22.12061c0,9.80225-1.55469,13.1333-11.67383,13.1333-9.3584,0-12.81641-1.26904-12.81641-12.30859,0-10.56396,1.9043-13.19678,12.24512-13.19678,9.10449,0,12.24512,1.71289,12.24512,12.37207ZM62.32422,14.50684c-5.93164,0-6.4082,1.17383-6.4082,8.02588,0,7.51855.60352,7.9624,7.61328,7.9624,6.02734,0,6.43945-1.17334,6.43945-7.9624,0-7.61328-.69727-8.02588-7.64453-8.02588Z"/>
    </g>
    <g>
      <path fill="#231815" d="M43.27734,42.49707v23.03516h5.48242v7.13867h-5.48242v7.3291h-6.98145v-7.3291h-19.95947v-7.75781l17.13232-22.41602h9.80859ZM36.2959,48.96924l-12.76367,16.56299h12.76367v-16.56299Z"/>
      <path fill="#231815" d="M67.60352,80.38086c-12.63477,0-15.54785-2.52246-15.54785-19.13281,0-16.13379,2.65625-19.13184,15.20605-19.13184,12.67773,0,15.54785,2.52246,15.54785,19.13184,0,16.13379-2.61328,19.13281-15.20605,19.13281ZM59.12305,61.34375c0,11.6123.72852,11.89746,8.82324,11.89746,6.93945,0,7.7959-.85645,7.7959-11.23145,0-2.23633-.12891-8.18555-.72852-9.99414-.85645-2.52246-3.38379-2.76074-7.58105-2.76074-7.58105,0-8.30957.42822-8.30957,12.08887Z"/>
    </g>
  </symbol>
  <symbol id="KO41" viewBox="0 0 100 100">
    <circle fill="#b5005e" cx="50" cy="50" r="50"/>
    <path fill="#fff" d="M6.77277,37.5c-1.14618,3.97015-1.77277,8.16077-1.77277,12.5,0,24.85278,20.14716,45,45,45s45-20.14722,45-45c0-4.33923-.62659-8.52985-1.77277-12.5H6.77277Z"/>
    <g>
      <path fill="#fff" d="M41.44824,10.00244h6.69336l-11.38818,12.11816,11.92773,12.87939h-6.82031l-11.22998-12.65771v12.65771h-5.23438V10.00244h5.23438v11.896l10.81738-11.896Z"/>
      <path fill="#fff" d="M75.17188,22.12061c0,9.80225-1.55469,13.1333-11.67383,13.1333-9.3584,0-12.81641-1.26904-12.81641-12.30859,0-10.56396,1.9043-13.19678,12.24512-13.19678,9.10449,0,12.24512,1.71289,12.24512,12.37207ZM62.32422,14.50684c-5.93164,0-6.4082,1.17383-6.4082,8.02588,0,7.51855.60352,7.9624,7.61328,7.9624,6.02734,0,6.43945-1.17334,6.43945-7.9624,0-7.61328-.69727-8.02588-7.64453-8.02588Z"/>
    </g>
    <g>
      <path fill="#231815" d="M43.27734,42.49707v23.03516h5.48242v7.13867h-5.48242v7.3291h-6.98145v-7.3291h-19.95947v-7.75781l17.13232-22.41602h9.80859ZM36.2959,48.96924l-12.76367,16.56299h12.76367v-16.56299Z"/>
      <path fill="#231815" d="M72.48633,42.49707v37.50293h-7.06641v-30.36426h-6.85352v-7.13867h13.91992Z"/>
    </g>
  </symbol>
  <symbol id="KO42" viewBox="0 0 100 100">
    <circle fill="#b5005e" cx="50" cy="50" r="50"/>
    <path fill="#fff" d="M6.77277,37.5c-1.14618,3.97015-1.77277,8.16077-1.77277,12.5,0,24.85278,20.14716,45,45,45s45-20.14722,45-45c0-4.33923-.62659-8.52985-1.77277-12.5H6.77277Z"/>
    <g>
      <path fill="#fff" d="M41.44824,10.00244h6.69336l-11.38818,12.11816,11.92773,12.87939h-6.82031l-11.22998-12.65771v12.65771h-5.23438V10.00244h5.23438v11.896l10.81738-11.896Z"/>
      <path fill="#fff" d="M75.17188,22.12061c0,9.80225-1.55469,13.1333-11.67383,13.1333-9.3584,0-12.81641-1.26904-12.81641-12.30859,0-10.56396,1.9043-13.19678,12.24512-13.19678,9.10449,0,12.24512,1.71289,12.24512,12.37207ZM62.32422,14.50684c-5.93164,0-6.4082,1.17383-6.4082,8.02588,0,7.51855.60352,7.9624,7.61328,7.9624,6.02734,0,6.43945-1.17334,6.43945-7.9624,0-7.61328-.69727-8.02588-7.64453-8.02588Z"/>
    </g>
    <g>
      <path fill="#231815" d="M43.27734,42.49707v23.03516h5.48242v7.13867h-5.48242v7.3291h-6.98145v-7.3291h-19.95947v-7.75781l17.13232-22.41602h9.80859ZM36.2959,48.96924l-12.76367,16.56299h12.76367v-16.56299Z"/>
      <path fill="#231815" d="M63.32129,67.24512c-2.35645.33301-4.02637.85645-4.02637,4.42578v1.19043h23.2998v7.13867h-30.32422v-6.66309c0-3.9502.08594-11.89844,8.4375-12.94531l10.96484-1.37988c3.16992-.38086,4.1543-1.42773,4.1543-4.56934,0-3.52148-.98438-5.1875-7.49512-5.1875-7.75195,0-8.4375.9043-8.52344,6.1875h-6.93848c.08594-8.3291.98535-13.32617,14.77637-13.32617,7.7959,0,15.16309.47607,15.16309,11.85059,0,1.71289-.17188,6.33008-2.31348,8.56641-1.45605,1.52344-4.19727,2.95117-6.63867,3.28418l-10.53613,1.42773Z"/>
    </g>
  </symbol>
  <symbol id="KO43" viewBox="0 0 100 100">
    <circle fill="#b5005e" cx="50" cy="50" r="50"/>
    <path fill="#fff" d="M6.77277,37.5c-1.14618,3.97015-1.77277,8.16077-1.77277,12.5,0,24.85278,20.14716,45,45,45s45-20.14722,45-45c0-4.33923-.62659-8.52985-1.77277-12.5H6.77277Z"/>
    <g>
      <path fill="#fff" d="M41.44824,10.00244h6.69336l-11.38818,12.11816,11.92773,12.87939h-6.82031l-11.22998-12.65771v12.65771h-5.23438V10.00244h5.23438v11.896l10.81738-11.896Z"/>
      <path fill="#fff" d="M75.17188,22.12061c0,9.80225-1.55469,13.1333-11.67383,13.1333-9.3584,0-12.81641-1.26904-12.81641-12.30859,0-10.56396,1.9043-13.19678,12.24512-13.19678,9.10449,0,12.24512,1.71289,12.24512,12.37207ZM62.32422,14.50684c-5.93164,0-6.4082,1.17383-6.4082,8.02588,0,7.51855.60352,7.9624,7.61328,7.9624,6.02734,0,6.43945-1.17334,6.43945-7.9624,0-7.61328-.69727-8.02588-7.64453-8.02588Z"/>
    </g>
    <g>
      <path fill="#231815" d="M43.27734,42.49707v23.03516h5.48242v7.13867h-5.48242v7.3291h-6.98145v-7.3291h-19.95947v-7.75781l17.13232-22.41602h9.80859ZM36.2959,48.96924l-12.76367,16.56299h12.76367v-16.56299Z"/>
      <path fill="#231815" d="M59.12305,66.76953c-.08496,5.47266.38574,6.4248,9.33789,6.4248,4.1543,0,7.32422-.57129,7.32422-4.71191,0-4.47363-2.95605-4.56836-5.09766-4.56836h-7.02441v-6.28223h7.02441c1.92773,0,4.58301,0,4.58301-3.9502,0-4.23633-3.08398-4.33154-8.30859-4.33154-6.98242,0-7.19629,1.71338-7.19629,5.42627h-7.02441c.17188-10.1377,3.55566-12.66016,14.5625-12.66016,6.4248,0,14.94824.04736,14.94824,10.61328,0,1.14258,0,6.0918-4.19727,7.66211,1.28516.57129,4.79688,2.09473,4.79688,8.75684,0,10.42285-7.45215,11.23242-14.77637,11.23242-13.79199,0-16.01953-3.09375-16.01953-13.61133h7.06738Z"/>
    </g>
  </symbol>
  <symbol id="KO44" viewBox="0 0 100 100">
    <circle fill="#b5005e" cx="50" cy="50" r="50"/>
    <path fill="#fff" d="M6.77277,37.5c-1.14618,3.97015-1.77277,8.16077-1.77277,12.5,0,24.85278,20.14716,45,45,45s45-20.14722,45-45c0-4.33923-.62659-8.52985-1.77277-12.5H6.77277Z"/>
    <g>
      <path fill="#fff" d="M41.44824,10.00244h6.69336l-11.38818,12.11816,11.92773,12.87939h-6.82031l-11.22998-12.65771v12.65771h-5.23438V10.00244h5.23438v11.896l10.81738-11.896Z"/>
      <path fill="#fff" d="M75.17188,22.12061c0,9.80225-1.55469,13.1333-11.67383,13.1333-9.3584,0-12.81641-1.26904-12.81641-12.30859,0-10.56396,1.9043-13.19678,12.24512-13.19678,9.10449,0,12.24512,1.71289,12.24512,12.37207ZM62.32422,14.50684c-5.93164,0-6.4082,1.17383-6.4082,8.02588,0,7.51855.60352,7.9624,7.61328,7.9624,6.02734,0,6.43945-1.17334,6.43945-7.9624,0-7.61328-.69727-8.02588-7.64453-8.02588Z"/>
    </g>
    <g>
      <path fill="#231815" d="M43.27734,42.49707v23.03516h5.48242v7.13867h-5.48242v7.3291h-6.98145v-7.3291h-19.95947v-7.75781l17.13232-22.41602h9.80859ZM36.2959,48.96924l-12.76367,16.56299h12.76367v-16.56299Z"/>
      <path fill="#231815" d="M78.18359,42.49707v23.03516h5.48242v7.13867h-5.48242v7.3291h-6.98145v-7.3291h-19.95996v-7.75781l17.13281-22.41602h9.80859ZM71.20215,48.96924l-12.76367,16.56299h12.76367v-16.56299Z"/>
    </g>
  </symbol>
  <symbol id="KO45" viewBox="0 0 100 100">
    <circle fill="#b5005e" cx="50" cy="50" r="50"/>
    <path fill="#fff" d="M6.77277,37.5c-1.14618,3.97015-1.77277,8.16077-1.77277,12.5,0,24.85278,20.14716,45,45,45s45-20.14722,45-45c0-4.33923-.62659-8.52985-1.77277-12.5H6.77277Z"/>
    <g>
      <path fill="#fff" d="M41.44824,10.00244h6.69336l-11.38818,12.11816,11.92773,12.87939h-6.82031l-11.22998-12.65771v12.65771h-5.23438V10.00244h5.23438v11.896l10.81738-11.896Z"/>
      <path fill="#fff" d="M75.17188,22.12061c0,9.80225-1.55469,13.1333-11.67383,13.1333-9.3584,0-12.81641-1.26904-12.81641-12.30859,0-10.56396,1.9043-13.19678,12.24512-13.19678,9.10449,0,12.24512,1.71289,12.24512,12.37207ZM62.32422,14.50684c-5.93164,0-6.4082,1.17383-6.4082,8.02588,0,7.51855.60352,7.9624,7.61328,7.9624,6.02734,0,6.43945-1.17334,6.43945-7.9624,0-7.61328-.69727-8.02588-7.64453-8.02588Z"/>
    </g>
    <g>
      <path fill="#231815" d="M43.27734,42.49707v23.03516h5.48242v7.13867h-5.48242v7.3291h-6.98145v-7.3291h-19.95947v-7.75781l17.13232-22.41602h9.80859ZM36.2959,48.96924l-12.76367,16.56299h12.76367v-16.56299Z"/>
      <path fill="#231815" d="M81.30957,42.49707v7.13867h-21.1582l-.25684,7.66211c1.45605-1.2373,3.16895-2.52148,9.97949-2.52148,7.19531,0,12.76367,1.1416,12.76367,12.84961,0,9.70898-3.59766,12.75488-14.8623,12.75488-11.56445,0-15.46191-1.95117-15.59082-12.56445h7.02441c0,3.66406.51367,5.4248,7.75293,5.4248,7.15234,0,8.65137-.85645,8.65137-5.61523,0-4.14062-.55664-5.94922-7.70996-5.94922-7.40918,0-7.88086,1.37988-8.26562,2.71289h-6.46777l.4707-21.89258h27.66895Z"/>
    </g>
  </symbol>
  <symbol id="KO46" viewBox="0 0 100 100">
    <circle fill="#b5005e" cx="50" cy="50" r="50"/>
    <path fill="#fff" d="M6.77277,37.5c-1.14618,3.97015-1.77277,8.16077-1.77277,12.5,0,24.85278,20.14716,45,45,45s45-20.14722,45-45c0-4.33923-.62659-8.52985-1.77277-12.5H6.77277Z"/>
    <g>
      <path fill="#fff" d="M41.44824,10.00244h6.69336l-11.38818,12.11816,11.92773,12.87939h-6.82031l-11.22998-12.65771v12.65771h-5.23438V10.00244h5.23438v11.896l10.81738-11.896Z"/>
      <path fill="#fff" d="M75.17188,22.12061c0,9.80225-1.55469,13.1333-11.67383,13.1333-9.3584,0-12.81641-1.26904-12.81641-12.30859,0-10.56396,1.9043-13.19678,12.24512-13.19678,9.10449,0,12.24512,1.71289,12.24512,12.37207ZM62.32422,14.50684c-5.93164,0-6.4082,1.17383-6.4082,8.02588,0,7.51855.60352,7.9624,7.61328,7.9624,6.02734,0,6.43945-1.17334,6.43945-7.9624,0-7.61328-.69727-8.02588-7.64453-8.02588Z"/>
    </g>
    <g>
      <path fill="#231815" d="M43.27734,42.49707v23.03516h5.48242v7.13867h-5.48242v7.3291h-6.98145v-7.3291h-19.95947v-7.75781l17.13232-22.41602h9.80859ZM36.2959,48.96924l-12.76367,16.56299h12.76367v-16.56299Z"/>
      <path fill="#231815" d="M75.01367,53.39551c.04297-2.47461-.2998-4.37842-6.38184-4.37842-7.28125,0-8.95215.9043-8.95215,9.99463,1.37109-1.47559,2.87012-3.09375,10.28027-3.09375,9.97949,0,12.24902,4.47363,12.24902,11.75586,0,11.13574-5.13965,12.70703-13.53418,12.70703-10.06543,0-15.97656-.66699-15.97656-16.18164,0-16.75293.89941-22.08301,14.94824-22.08301,8.78027,0,14.3916,1.42773,14.34863,11.2793h-6.98145ZM59.80859,68.53027c0,4.2832,1.92773,5.0918,8.52344,5.0918,6.46777,0,7.19531-1.47461,7.19531-5.80566,0-3.47461-1.37012-5.04492-7.15234-5.04492-5.6543,0-8.56641.19043-8.56641,5.75879Z"/>
    </g>
  </symbol>
  <symbol id="KO47" viewBox="0 0 100 100">
    <circle fill="#b5005e" cx="50" cy="50" r="50"/>
    <path fill="#fff" d="M6.77277,37.5c-1.14618,3.97015-1.77277,8.16077-1.77277,12.5,0,24.85278,20.14716,45,45,45s45-20.14722,45-45c0-4.33923-.62659-8.52985-1.77277-12.5H6.77277Z"/>
    <g>
      <path fill="#fff" d="M41.44824,10.00244h6.69336l-11.38818,12.11816,11.92773,12.87939h-6.82031l-11.22998-12.65771v12.65771h-5.23438V10.00244h5.23438v11.896l10.81738-11.896Z"/>
      <path fill="#fff" d="M75.17188,22.12061c0,9.80225-1.55469,13.1333-11.67383,13.1333-9.3584,0-12.81641-1.26904-12.81641-12.30859,0-10.56396,1.9043-13.19678,12.24512-13.19678,9.10449,0,12.24512,1.71289,12.24512,12.37207ZM62.32422,14.50684c-5.93164,0-6.4082,1.17383-6.4082,8.02588,0,7.51855.60352,7.9624,7.61328,7.9624,6.02734,0,6.43945-1.17334,6.43945-7.9624,0-7.61328-.69727-8.02588-7.64453-8.02588Z"/>
    </g>
    <g>
      <path fill="#231815" d="M43.27734,42.49707v23.03516h5.48242v7.13867h-5.48242v7.3291h-6.98145v-7.3291h-19.95947v-7.75781l17.13232-22.41602h9.80859ZM36.2959,48.96924l-12.76367,16.56299h12.76367v-16.56299Z"/>
      <path fill="#231815" d="M82.6377,42.49707v7.23389l-16.5332,30.26904h-8.4375l17.30371-30.36426h-22.65723v-7.13867h30.32422Z"/>
    </g>
  </symbol>
  <symbol id="KO48" viewBox="0 0 100 100">
    <circle fill="#b5005e" cx="50" cy="50" r="50"/>
    <path fill="#fff" d="M6.77277,37.5c-1.14618,3.97015-1.77277,8.16077-1.77277,12.5,0,24.85278,20.14716,45,45,45s45-20.14722,45-45c0-4.33923-.62659-8.52985-1.77277-12.5H6.77277Z"/>
    <g>
      <path fill="#fff" d="M41.44824,10.00244h6.69336l-11.38818,12.11816,11.92773,12.87939h-6.82031l-11.22998-12.65771v12.65771h-5.23438V10.00244h5.23438v11.896l10.81738-11.896Z"/>
      <path fill="#fff" d="M75.17188,22.12061c0,9.80225-1.55469,13.1333-11.67383,13.1333-9.3584,0-12.81641-1.26904-12.81641-12.30859,0-10.56396,1.9043-13.19678,12.24512-13.19678,9.10449,0,12.24512,1.71289,12.24512,12.37207ZM62.32422,14.50684c-5.93164,0-6.4082,1.17383-6.4082,8.02588,0,7.51855.60352,7.9624,7.61328,7.9624,6.02734,0,6.43945-1.17334,6.43945-7.9624,0-7.61328-.69727-8.02588-7.64453-8.02588Z"/>
    </g>
    <g>
      <path fill="#231815" d="M43.27734,42.49707v23.03516h5.48242v7.13867h-5.48242v7.3291h-6.98145v-7.3291h-19.95947v-7.75781l17.13232-22.41602h9.80859ZM36.2959,48.96924l-12.76367,16.56299h12.76367v-16.56299Z"/>
      <path fill="#231815" d="M52.61328,52.72949c0-9.04297,5.73926-10.61328,14.34863-10.61328,8.56543,0,15.33301.80908,15.33301,10.61328,0,1.33301-.08594,5.99609-4.19727,7.85254,4.79688,1.52344,4.79688,7.85254,4.79688,8.75684,0,10.18457-7.15234,11.04199-14.99121,11.04199-7.02344,0-15.88965-.0957-15.88965-10.85156,0-1.33203,0-7.42383,4.75391-8.94727-3.29785-1.52246-4.1543-4.75879-4.1543-7.85254ZM58.90918,68.95801c0,3.52246,1.6709,4.47363,8.52344,4.47363,7.45312,0,8.56641-1.09375,8.56641-4.90137,0-4.80664-3.16992-4.80664-8.56641-4.80664-6.89551,0-8.52344.71387-8.52344,5.23438ZM59.55176,53.30078c0,3.85449,1.8418,4.23535,8.35156,4.23535,6.4248,0,7.45312-.85645,7.45312-4.52148,0-3.23633-1.49902-4.04541-7.88086-4.04541-6.68164,0-7.92383.85693-7.92383,4.33154Z"/>
    </g>
  </symbol>
  <symbol id="KO49" viewBox="0 0 100 100">
    <circle fill="#b5005e" cx="50" cy="50" r="50"/>
    <path fill="#fff" d="M6.77277,37.5c-1.14618,3.97015-1.77277,8.16077-1.77277,12.5,0,24.85278,20.14716,45,45,45s45-20.14722,45-45c0-4.33923-.62659-8.52985-1.77277-12.5H6.77277Z"/>
    <g>
      <path fill="#fff" d="M41.44824,10.00244h6.69336l-11.38818,12.11816,11.92773,12.87939h-6.82031l-11.22998-12.65771v12.65771h-5.23438V10.00244h5.23438v11.896l10.81738-11.896Z"/>
      <path fill="#fff" d="M75.17188,22.12061c0,9.80225-1.55469,13.1333-11.67383,13.1333-9.3584,0-12.81641-1.26904-12.81641-12.30859,0-10.56396,1.9043-13.19678,12.24512-13.19678,9.10449,0,12.24512,1.71289,12.24512,12.37207ZM62.32422,14.50684c-5.93164,0-6.4082,1.17383-6.4082,8.02588,0,7.51855.60352,7.9624,7.61328,7.9624,6.02734,0,6.43945-1.17334,6.43945-7.9624,0-7.61328-.69727-8.02588-7.64453-8.02588Z"/>
    </g>
    <g>
      <path fill="#231815" d="M43.27734,42.49707v23.03516h5.48242v7.13867h-5.48242v7.3291h-6.98145v-7.3291h-19.95947v-7.75781l17.13232-22.41602h9.80859ZM36.2959,48.96924l-12.76367,16.56299h12.76367v-16.56299Z"/>
      <path fill="#231815" d="M59.89453,69.10156c-.08594,2.47461.2998,4.37793,6.38184,4.37793,7.28125,0,8.95117-.9043,8.90918-9.99414-1.32812,1.47559-2.82715,3.09375-10.2373,3.09375-9.93652,0-12.25-4.42676-12.25-11.70801,0-10.89893,4.79785-12.75488,13.83496-12.75488,10.2793,0,15.63379,1.28516,15.63379,16.22949,0,16.65723-.81445,22.03516-14.90527,22.03516-8.82324,0-14.3916-1.42773-14.34863-11.2793h6.98145ZM75.09961,53.9668c0-4.37891-2.01367-5.09277-8.65234-5.09277-6.38184,0-7.10938,1.47559-7.10938,5.75879,0,3.52246,1.37012,5.09277,7.19531,5.09277,6.68164,0,8.56641-.76172,8.56641-5.75879Z"/>
    </g>
  </symbol>
  <symbol id="KO50" viewBox="0 0 100 100">
    <circle fill="#b5005e" cx="50" cy="50" r="50"/>
    <path fill="#fff" d="M6.77277,37.5c-1.14618,3.97015-1.77277,8.16077-1.77277,12.5,0,24.85278,20.14716,45,45,45s45-20.14722,45-45c0-4.33923-.62659-8.52985-1.77277-12.5H6.77277Z"/>
    <g>
      <path fill="#fff" d="M41.44824,10.00244h6.69336l-11.38818,12.11816,11.92773,12.87939h-6.82031l-11.22998-12.65771v12.65771h-5.23438V10.00244h5.23438v11.896l10.81738-11.896Z"/>
      <path fill="#fff" d="M75.17188,22.12061c0,9.80225-1.55469,13.1333-11.67383,13.1333-9.3584,0-12.81641-1.26904-12.81641-12.30859,0-10.56396,1.9043-13.19678,12.24512-13.19678,9.10449,0,12.24512,1.71289,12.24512,12.37207ZM62.32422,14.50684c-5.93164,0-6.4082,1.17383-6.4082,8.02588,0,7.51855.60352,7.9624,7.61328,7.9624,6.02734,0,6.43945-1.17334,6.43945-7.9624,0-7.61328-.69727-8.02588-7.64453-8.02588Z"/>
    </g>
    <g>
      <path fill="#231815" d="M46.40381,42.49707v7.13867h-21.15869l-.25684,7.66211c1.45605-1.2373,3.16943-2.52148,9.97998-2.52148,7.19531,0,12.76367,1.1416,12.76367,12.84961,0,9.70898-3.59814,12.75488-14.86279,12.75488-11.56445,0-15.46191-1.95117-15.59033-12.56445h7.02441c0,3.66406.51367,5.4248,7.75244,5.4248,7.15283,0,8.65186-.85645,8.65186-5.61523,0-4.14062-.55713-5.94922-7.70996-5.94922-7.40967,0-7.88086,1.37988-8.26611,2.71289h-6.46777l.47119-21.89258h27.66895Z"/>
      <path fill="#231815" d="M67.60352,80.38086c-12.63477,0-15.54785-2.52246-15.54785-19.13281,0-16.13379,2.65625-19.13184,15.20605-19.13184,12.67773,0,15.54785,2.52246,15.54785,19.13184,0,16.13379-2.61328,19.13281-15.20605,19.13281ZM59.12305,61.34375c0,11.6123.72852,11.89746,8.82324,11.89746,6.93945,0,7.7959-.85645,7.7959-11.23145,0-2.23633-.12891-8.18555-.72852-9.99414-.85645-2.52246-3.38379-2.76074-7.58105-2.76074-7.58105,0-8.30957.42822-8.30957,12.08887Z"/>
    </g>
  </symbol>
  <symbol id="KO51" viewBox="0 0 100 100">
    <circle fill="#b5005e" cx="50" cy="50" r="50"/>
    <path fill="#fff" d="M6.77277,37.5c-1.14618,3.97015-1.77277,8.16077-1.77277,12.5,0,24.85278,20.14716,45,45,45s45-20.14722,45-45c0-4.33923-.62659-8.52985-1.77277-12.5H6.77277Z"/>
    <g>
      <path fill="#fff" d="M41.44824,10.00244h6.69336l-11.38818,12.11816,11.92773,12.87939h-6.82031l-11.22998-12.65771v12.65771h-5.23438V10.00244h5.23438v11.896l10.81738-11.896Z"/>
      <path fill="#fff" d="M75.17188,22.12061c0,9.80225-1.55469,13.1333-11.67383,13.1333-9.3584,0-12.81641-1.26904-12.81641-12.30859,0-10.56396,1.9043-13.19678,12.24512-13.19678,9.10449,0,12.24512,1.71289,12.24512,12.37207ZM62.32422,14.50684c-5.93164,0-6.4082,1.17383-6.4082,8.02588,0,7.51855.60352,7.9624,7.61328,7.9624,6.02734,0,6.43945-1.17334,6.43945-7.9624,0-7.61328-.69727-8.02588-7.64453-8.02588Z"/>
    </g>
    <g>
      <path fill="#231815" d="M46.40381,42.49707v7.13867h-21.15869l-.25684,7.66211c1.45605-1.2373,3.16943-2.52148,9.97998-2.52148,7.19531,0,12.76367,1.1416,12.76367,12.84961,0,9.70898-3.59814,12.75488-14.86279,12.75488-11.56445,0-15.46191-1.95117-15.59033-12.56445h7.02441c0,3.66406.51367,5.4248,7.75244,5.4248,7.15283,0,8.65186-.85645,8.65186-5.61523,0-4.14062-.55713-5.94922-7.70996-5.94922-7.40967,0-7.88086,1.37988-8.26611,2.71289h-6.46777l.47119-21.89258h27.66895Z"/>
      <path fill="#231815" d="M72.48633,42.49707v37.50293h-7.06641v-30.36426h-6.85352v-7.13867h13.91992Z"/>
    </g>
  </symbol>
  <symbol id="KO52" viewBox="0 0 100 100">
    <circle fill="#b5005e" cx="50" cy="50" r="50"/>
    <path fill="#fff" d="M6.77277,37.5c-1.14618,3.97015-1.77277,8.16077-1.77277,12.5,0,24.85278,20.14716,45,45,45s45-20.14722,45-45c0-4.33923-.62659-8.52985-1.77277-12.5H6.77277Z"/>
    <g>
      <path fill="#fff" d="M41.44824,10.00244h6.69336l-11.38818,12.11816,11.92773,12.87939h-6.82031l-11.22998-12.65771v12.65771h-5.23438V10.00244h5.23438v11.896l10.81738-11.896Z"/>
      <path fill="#fff" d="M75.17188,22.12061c0,9.80225-1.55469,13.1333-11.67383,13.1333-9.3584,0-12.81641-1.26904-12.81641-12.30859,0-10.56396,1.9043-13.19678,12.24512-13.19678,9.10449,0,12.24512,1.71289,12.24512,12.37207ZM62.32422,14.50684c-5.93164,0-6.4082,1.17383-6.4082,8.02588,0,7.51855.60352,7.9624,7.61328,7.9624,6.02734,0,6.43945-1.17334,6.43945-7.9624,0-7.61328-.69727-8.02588-7.64453-8.02588Z"/>
    </g>
    <g>
      <path fill="#231815" d="M46.40381,42.49707v7.13867h-21.15869l-.25684,7.66211c1.45605-1.2373,3.16943-2.52148,9.97998-2.52148,7.19531,0,12.76367,1.1416,12.76367,12.84961,0,9.70898-3.59814,12.75488-14.86279,12.75488-11.56445,0-15.46191-1.95117-15.59033-12.56445h7.02441c0,3.66406.51367,5.4248,7.75244,5.4248,7.15283,0,8.65186-.85645,8.65186-5.61523,0-4.14062-.55713-5.94922-7.70996-5.94922-7.40967,0-7.88086,1.37988-8.26611,2.71289h-6.46777l.47119-21.89258h27.66895Z"/>
      <path fill="#231815" d="M63.32129,67.24512c-2.35645.33301-4.02637.85645-4.02637,4.42578v1.19043h23.2998v7.13867h-30.32422v-6.66309c0-3.9502.08594-11.89844,8.4375-12.94531l10.96484-1.37988c3.16992-.38086,4.1543-1.42773,4.1543-4.56934,0-3.52148-.98438-5.1875-7.49512-5.1875-7.75195,0-8.4375.9043-8.52344,6.1875h-6.93848c.08594-8.3291.98535-13.32617,14.77637-13.32617,7.7959,0,15.16309.47607,15.16309,11.85059,0,1.71289-.17188,6.33008-2.31348,8.56641-1.45605,1.52344-4.19727,2.95117-6.63867,3.28418l-10.53613,1.42773Z"/>
    </g>
  </symbol>
  <symbol id="KO53" viewBox="0 0 100 100">
    <circle fill="#b5005e" cx="50" cy="50" r="50"/>
    <path fill="#fff" d="M6.77277,37.5c-1.14618,3.97015-1.77277,8.16077-1.77277,12.5,0,24.85278,20.14716,45,45,45s45-20.14722,45-45c0-4.33923-.62659-8.52985-1.77277-12.5H6.77277Z"/>
    <g>
      <path fill="#fff" d="M41.44824,10.00244h6.69336l-11.38818,12.11816,11.92773,12.87939h-6.82031l-11.22998-12.65771v12.65771h-5.23438V10.00244h5.23438v11.896l10.81738-11.896Z"/>
      <path fill="#fff" d="M75.17188,22.12061c0,9.80225-1.55469,13.1333-11.67383,13.1333-9.3584,0-12.81641-1.26904-12.81641-12.30859,0-10.56396,1.9043-13.19678,12.24512-13.19678,9.10449,0,12.24512,1.71289,12.24512,12.37207ZM62.32422,14.50684c-5.93164,0-6.4082,1.17383-6.4082,8.02588,0,7.51855.60352,7.9624,7.61328,7.9624,6.02734,0,6.43945-1.17334,6.43945-7.9624,0-7.61328-.69727-8.02588-7.64453-8.02588Z"/>
    </g>
    <g>
      <path fill="#231815" d="M46.40381,42.49707v7.13867h-21.15869l-.25684,7.66211c1.45605-1.2373,3.16943-2.52148,9.97998-2.52148,7.19531,0,12.76367,1.1416,12.76367,12.84961,0,9.70898-3.59814,12.75488-14.86279,12.75488-11.56445,0-15.46191-1.95117-15.59033-12.56445h7.02441c0,3.66406.51367,5.4248,7.75244,5.4248,7.15283,0,8.65186-.85645,8.65186-5.61523,0-4.14062-.55713-5.94922-7.70996-5.94922-7.40967,0-7.88086,1.37988-8.26611,2.71289h-6.46777l.47119-21.89258h27.66895Z"/>
      <path fill="#231815" d="M59.12305,66.76953c-.08496,5.47266.38574,6.4248,9.33789,6.4248,4.1543,0,7.32422-.57129,7.32422-4.71191,0-4.47363-2.95605-4.56836-5.09766-4.56836h-7.02441v-6.28223h7.02441c1.92773,0,4.58301,0,4.58301-3.9502,0-4.23633-3.08398-4.33154-8.30859-4.33154-6.98242,0-7.19629,1.71338-7.19629,5.42627h-7.02441c.17188-10.1377,3.55566-12.66016,14.5625-12.66016,6.4248,0,14.94824.04736,14.94824,10.61328,0,1.14258,0,6.0918-4.19727,7.66211,1.28516.57129,4.79688,2.09473,4.79688,8.75684,0,10.42285-7.45215,11.23242-14.77637,11.23242-13.79199,0-16.01953-3.09375-16.01953-13.61133h7.06738Z"/>
    </g>
  </symbol>
</svg>
