<?xml version="1.0" encoding="UTF-8"?>
<svg xmlns="http://www.w3.org/2000/svg" xmlns:xlink="http://www.w3.org/1999/xlink">
  <symbol id="H" viewBox="0 0 90 90">
    <rect fill="#e7a61a" y="0" width="90" height="90" rx="13.5" ry="13.5"/>
    <path fill="#fff" d="M65.58887,70.65039h-9.25488v-22.47705h-22.60352v22.47705h-9.25488V19.3999h9.25488v21.21777h22.60352v-21.21777h9.25488v51.25049Z"/>
  </symbol>
  <symbol id="H32" viewBox="0 0 90 90">
    <rect fill="#e7a61a" x="0" y="18" width="90" height="54" rx="4" ry="4"/>
    <path fill="#fff" d="M32.47754,24.99854v40.00146h-4.13184v-18.33008h-14.15576v18.33008h-4.16748V24.99854h4.16748v16.75732h14.15576v-16.75732h4.13184Z"/>
    <g>
      <path fill="#fff" d="M37.41602,64.21387l.34277-6.73242c2.48828,1.27734,4.81152,1.91602,6.96973,1.91602,2.08105,0,3.70605-.52344,4.87402-1.57227,1.16797-1.04785,1.75195-2.52246,1.75195-4.42285,0-1.6709-.43164-2.98047-1.29492-3.93164-1.21875-1.34277-3.16016-2.01465-5.82617-2.01465-.50879,0-1.44727.0332-2.81836.09863v-6.38867l1.86621.0498c3.22363,0,5.43262-.7207,6.62598-2.16309.86328-1.01465,1.29492-2.24316,1.29492-3.68555,0-1.53906-.49512-2.72656-1.48535-3.5625-.99023-.83496-2.38672-1.25293-4.18848-1.25293-2.28516,0-4.58398.65527-6.89355,1.96582l-.38086-6.38867c3.17383-1.17969,5.97949-1.76855,8.41699-1.76855,3.42676,0,6.09277.90137,7.99707,2.70215,1.9043,1.80273,2.85645,4.32422,2.85645,7.56836,0,4.91406-1.94238,8.04297-5.82715,9.38574,1.32031.55762,2.31055,1.09766,2.9707,1.62109.99023.78711,1.76465,1.90039,2.32324,3.3418.55859,1.44238.83789,3.06348.83789,4.86523,0,3.76758-1.14258,6.68359-3.42773,8.74707-2.31055,2.03125-5.35742,3.04688-9.13965,3.04688-2.54004,0-5.15527-.47559-7.8457-1.4248Z"/>
      <path fill="#fff" d="M82.58398,58.80762v6.19238h-20.83203v-6.58496c4.26562-5.0127,7.54102-9.27148,9.82617-12.77734,2.36035-3.60352,3.54102-6.64941,3.54102-9.13965,0-1.73633-.4502-3.12109-1.35156-4.15234-.90137-1.03223-2.10156-1.54785-3.59863-1.54785-2.20898,0-4.64648,1.08105-7.3125,3.24316l-.49512-6.87988c1.87891-1.04785,3.50977-1.77734,4.89355-2.18652s2.90039-.61426,4.55176-.61426c2.99512,0,5.38867,1.01562,7.17871,3.0459,1.79004,2.03223,2.68457,4.75098,2.68457,8.1582,0,3.50586-1.23145,7.33887-3.69434,11.49902-2.51367,4.35742-5.30664,8.27246-8.37793,11.74414h12.98633Z"/>
    </g>
  </symbol>
  <symbol id="H33" viewBox="0 0 90 90">
    <rect fill="#e7a61a" x="0" y="18" width="90" height="54" rx="4" ry="4"/>
    <path fill="#fff" d="M32.47754,24.99854v40.00146h-4.13184v-18.33008h-14.15576v18.33008h-4.16748V24.99854h4.16748v16.75732h14.15576v-16.75732h4.13184Z"/>
    <g>
      <path fill="#fff" d="M37.41602,64.21387l.34277-6.73242c2.48828,1.27734,4.81152,1.91602,6.96973,1.91602,2.08105,0,3.70605-.52344,4.87402-1.57227,1.16797-1.04785,1.75195-2.52246,1.75195-4.42285,0-1.6709-.43164-2.98047-1.29492-3.93164-1.21875-1.34277-3.16016-2.01465-5.82617-2.01465-.50879,0-1.44727.0332-2.81836.09863v-6.38867l1.86621.0498c3.22363,0,5.43262-.7207,6.62598-2.16309.86328-1.01465,1.29492-2.24316,1.29492-3.68555,0-1.53906-.49512-2.72656-1.48535-3.5625-.99023-.83496-2.38672-1.25293-4.18848-1.25293-2.28516,0-4.58398.65527-6.89355,1.96582l-.38086-6.38867c3.17383-1.17969,5.97949-1.76855,8.41699-1.76855,3.42676,0,6.09277.90137,7.99707,2.70215,1.9043,1.80273,2.85645,4.32422,2.85645,7.56836,0,4.91406-1.94238,8.04297-5.82715,9.38574,1.32031.55762,2.31055,1.09766,2.9707,1.62109.99023.78711,1.76465,1.90039,2.32324,3.3418.55859,1.44238.83789,3.06348.83789,4.86523,0,3.76758-1.14258,6.68359-3.42773,8.74707-2.31055,2.03125-5.35742,3.04688-9.13965,3.04688-2.54004,0-5.15527-.47559-7.8457-1.4248Z"/>
      <path fill="#fff" d="M62.32324,64.21387l.34277-6.73242c2.48828,1.27734,4.81152,1.91602,6.96973,1.91602,2.08105,0,3.70605-.52344,4.87402-1.57227,1.16797-1.04785,1.75195-2.52246,1.75195-4.42285,0-1.6709-.43164-2.98047-1.29492-3.93164-1.21875-1.34277-3.16016-2.01465-5.82617-2.01465-.50879,0-1.44727.0332-2.81836.09863v-6.38867l1.86621.0498c3.22363,0,5.43262-.7207,6.62598-2.16309.86328-1.01465,1.29492-2.24316,1.29492-3.68555,0-1.53906-.49512-2.72656-1.48535-3.5625-.99023-.83496-2.38672-1.25293-4.18848-1.25293-2.28516,0-4.58398.65527-6.89355,1.96582l-.38086-6.38867c3.17383-1.17969,5.97949-1.76855,8.41699-1.76855,3.42676,0,6.09277.90137,7.99707,2.70215,1.9043,1.80273,2.85645,4.32422,2.85645,7.56836,0,4.91406-1.94238,8.04297-5.82715,9.38574,1.32031.55762,2.31055,1.09766,2.9707,1.62109.99023.78711,1.76465,1.90039,2.32324,3.3418.55859,1.44238.83789,3.06348.83789,4.86523,0,3.76758-1.14258,6.68359-3.42773,8.74707-2.31055,2.03125-5.35742,3.04688-9.13965,3.04688-2.54004,0-5.15527-.47559-7.8457-1.4248Z"/>
    </g>
  </symbol>
  <symbol id="H34" viewBox="0 0 90 90">
    <rect fill="#e7a61a" x="0" y="18" width="90" height="54" rx="4" ry="4"/>
    <path fill="#fff" d="M32.47754,24.99854v40.00146h-4.13184v-18.33008h-14.15576v18.33008h-4.16748V24.99854h4.16748v16.75732h14.15576v-16.75732h4.13184Z"/>
    <g>
      <path fill="#fff" d="M37.41602,64.21387l.34277-6.73242c2.48828,1.27734,4.81152,1.91602,6.96973,1.91602,2.08105,0,3.70605-.52344,4.87402-1.57227,1.16797-1.04785,1.75195-2.52246,1.75195-4.42285,0-1.6709-.43164-2.98047-1.29492-3.93164-1.21875-1.34277-3.16016-2.01465-5.82617-2.01465-.50879,0-1.44727.0332-2.81836.09863v-6.38867l1.86621.0498c3.22363,0,5.43262-.7207,6.62598-2.16309.86328-1.01465,1.29492-2.24316,1.29492-3.68555,0-1.53906-.49512-2.72656-1.48535-3.5625-.99023-.83496-2.38672-1.25293-4.18848-1.25293-2.28516,0-4.58398.65527-6.89355,1.96582l-.38086-6.38867c3.17383-1.17969,5.97949-1.76855,8.41699-1.76855,3.42676,0,6.09277.90137,7.99707,2.70215,1.9043,1.80273,2.85645,4.32422,2.85645,7.56836,0,4.91406-1.94238,8.04297-5.82715,9.38574,1.32031.55762,2.31055,1.09766,2.9707,1.62109.99023.78711,1.76465,1.90039,2.32324,3.3418.55859,1.44238.83789,3.06348.83789,4.86523,0,3.76758-1.14258,6.68359-3.42773,8.74707-2.31055,2.03125-5.35742,3.04688-9.13965,3.04688-2.54004,0-5.15527-.47559-7.8457-1.4248Z"/>
      <path fill="#fff" d="M84.22168,50.84668v6.04492h-4.0752v8.1084h-6.09375v-8.1084h-13.36719v-6.73242l11.61621-25.16016h7.84473v25.84766h4.0752ZM74.16699,50.84668l.15234-16.75684c0-.65527.06348-1.49023.19043-2.50586-.15234.39258-.46973,1.12988-.95215,2.21094l-7.34961,17.05176h7.95898Z"/>
    </g>
  </symbol>
  <symbol id="H35" viewBox="0 0 90 90">
    <rect fill="#e7a61a" x="0" y="18" width="90" height="54" rx="4" ry="4"/>
    <path fill="#fff" d="M32.47754,24.99854v40.00146h-4.13184v-18.33008h-14.15576v18.33008h-4.16748V24.99854h4.16748v16.75732h14.15576v-16.75732h4.13184Z"/>
    <g>
      <path fill="#fff" d="M37.41602,64.21387l.34277-6.73242c2.48828,1.27734,4.81152,1.91602,6.96973,1.91602,2.08105,0,3.70605-.52344,4.87402-1.57227,1.16797-1.04785,1.75195-2.52246,1.75195-4.42285,0-1.6709-.43164-2.98047-1.29492-3.93164-1.21875-1.34277-3.16016-2.01465-5.82617-2.01465-.50879,0-1.44727.0332-2.81836.09863v-6.38867l1.86621.0498c3.22363,0,5.43262-.7207,6.62598-2.16309.86328-1.01465,1.29492-2.24316,1.29492-3.68555,0-1.53906-.49512-2.72656-1.48535-3.5625-.99023-.83496-2.38672-1.25293-4.18848-1.25293-2.28516,0-4.58398.65527-6.89355,1.96582l-.38086-6.38867c3.17383-1.17969,5.97949-1.76855,8.41699-1.76855,3.42676,0,6.09277.90137,7.99707,2.70215,1.9043,1.80273,2.85645,4.32422,2.85645,7.56836,0,4.91406-1.94238,8.04297-5.82715,9.38574,1.32031.55762,2.31055,1.09766,2.9707,1.62109.99023.78711,1.76465,1.90039,2.32324,3.3418.55859,1.44238.83789,3.06348.83789,4.86523,0,3.76758-1.14258,6.68359-3.42773,8.74707-2.31055,2.03125-5.35742,3.04688-9.13965,3.04688-2.54004,0-5.15527-.47559-7.8457-1.4248Z"/>
      <path fill="#fff" d="M63.2373,64.41016l.15234-7.1748c2.33594,1.31055,4.50586,1.96582,6.5127,1.96582,2.00488,0,3.59863-.60547,4.7793-1.81836,1.18066-1.21191,1.77051-2.86621,1.77051-4.96289,0-2.19434-.6416-3.93164-1.92285-5.20898-1.28223-1.27832-3.01562-1.91699-5.19824-1.91699-1.59961,0-3.46582.37695-5.59863,1.13086l.2666-21.22949h17.97559v6.14258h-12.18652l-.19043,8.05957c1.11621-.13086,2.00488-.19727,2.66602-.19727,3.22363,0,5.82031,1.18848,7.78809,3.56348,1.9668,2.375,2.95117,5.51172,2.95117,9.41016,0,4.25879-1.11133,7.56738-3.33203,9.92676-2.22266,2.3584-5.32617,3.53809-9.31152,3.53809-1.5752,0-3.31348-.24609-5.21777-.7373l-1.9043-.49121Z"/>
    </g>
  </symbol>
</svg>
