<?xml version="1.0" encoding="UTF-8"?>
<svg xmlns="http://www.w3.org/2000/svg" xmlns:xlink="http://www.w3.org/1999/xlink">
  <symbol id="P" viewBox="0 0 90 90">
    <rect fill="#008446" y="0" width="90" height="90" rx="13.5" ry="13.5"/>
    <path fill="#fff" d="M38.7041,50.81689v19.8335h-9.25488V19.3999h15.11035c6.12793,0,10.78711,1.0918,13.97754,3.27441,4.28125,2.89551,6.42188,7.00977,6.42188,12.33984,0,2.56055-.59863,4.97363-1.79492,7.24023s-2.84375,4.13477-4.94238,5.60352c-2.89551,2.01465-6.98828,3.02246-12.27637,3.02246h-5.66699l-.69238-.06348h-.88184ZM38.7041,43.76611h.81934c3.60938-.04199,6.0127-.11523,7.20801-.2207,1.19629-.10449,2.27637-.3252,3.24316-.66113,3.35742-1.2168,5.03613-3.79785,5.03613-7.74414,0-3.9873-1.51074-6.54785-4.5332-7.68066-1.21777-.50391-2.25586-.79688-3.11621-.88184-.86035-.08398-3.20117-.14648-7.01953-.18848h-.81836l-.81934-.06348v17.44043Z"/>
  </symbol>
  <symbol id="P23" viewBox="0 0 90 90">
    <rect fill="#008446" x="0" y="18" width="90" height="54" rx="4" ry="4"/>
    <path fill="#fff" d="M9.625,24.99854h7.09229c3.23047,0,5.51367.07373,6.85059.22119,1.33594.14746,2.56152.45068,3.67822.90918,2.05518.81934,3.65625,2.18701,4.80176,4.10352s1.71777,4.15234,1.71777,6.70752c0,2.22852-.45557,4.24316-1.36523,6.04443-.91064,1.80225-2.14453,3.16211-3.70068,4.07861-1.32129.78662-2.70898,1.30225-4.16309,1.54834-1.45361.24561-3.76611.36816-6.93799.36816h-2.86328v16.02051h-5.11035V24.99854ZM14.73535,29.91309v14.20166h2.7749c2.81934,0,4.875-.17188,6.16748-.51611,1.29199-.34375,2.31982-.99023,3.0835-1.94092.99805-1.31006,1.49805-2.88232,1.49805-4.71777,0-1.4082-.31592-2.65332-.94727-3.73438-.63184-1.08154-1.50537-1.86768-2.62109-2.35889-.88086-.39307-1.82129-.64648-2.81934-.76172-.99854-.11426-2.67285-.17188-5.02197-.17188h-2.11426Z"/>
    <g>
      <path fill="#fff" d="M59.55176,58.80762v6.19238h-20.83203v-6.58496c4.26562-5.0127,7.54102-9.27148,9.82617-12.77734,2.36035-3.60352,3.54102-6.64941,3.54102-9.13965,0-1.73633-.4502-3.12109-1.35156-4.15234-.90137-1.03223-2.10156-1.54785-3.59863-1.54785-2.20898,0-4.64648,1.08105-7.3125,3.24316l-.49512-6.87988c1.87891-1.04785,3.50977-1.77734,4.89355-2.18652s2.90039-.61426,4.55176-.61426c2.99512,0,5.38867,1.01562,7.17871,3.0459,1.79004,2.03223,2.68457,4.75098,2.68457,8.1582,0,3.50586-1.23145,7.33887-3.69434,11.49902-2.51367,4.35742-5.30664,8.27246-8.37793,11.74414h12.98633Z"/>
      <path fill="#fff" d="M64.19824,64.21387l.34277-6.73242c2.48828,1.27734,4.81152,1.91602,6.96973,1.91602,2.08105,0,3.70605-.52344,4.87402-1.57227,1.16797-1.04785,1.75195-2.52246,1.75195-4.42285,0-1.6709-.43164-2.98047-1.29492-3.93164-1.21875-1.34277-3.16016-2.01465-5.82617-2.01465-.50879,0-1.44727.0332-2.81836.09863v-6.38867l1.86621.0498c3.22363,0,5.43262-.7207,6.62598-2.16309.86328-1.01465,1.29492-2.24316,1.29492-3.68555,0-1.53906-.49512-2.72656-1.48535-3.5625-.99023-.83496-2.38672-1.25293-4.18848-1.25293-2.28516,0-4.58398.65527-6.89355,1.96582l-.38086-6.38867c3.17383-1.17969,5.97949-1.76855,8.41699-1.76855,3.42676,0,6.09277.90137,7.99707,2.70215,1.9043,1.80273,2.85645,4.32422,2.85645,7.56836,0,4.91406-1.94238,8.04297-5.82715,9.38574,1.32031.55762,2.31055,1.09766,2.9707,1.62109.99023.78711,1.76465,1.90039,2.32324,3.3418.55859,1.44238.83789,3.06348.83789,4.86523,0,3.76758-1.14258,6.68359-3.42773,8.74707-2.31055,2.03125-5.35742,3.04688-9.13965,3.04688-2.54004,0-5.15527-.47559-7.8457-1.4248Z"/>
    </g>
  </symbol>
  <symbol id="P24" viewBox="0 0 90 90">
    <rect fill="#008446" x="0" y="18" width="90" height="54" rx="4" ry="4"/>
    <path fill="#fff" d="M9.625,24.99854h7.09229c3.23047,0,5.51367.07373,6.85059.22119,1.33594.14746,2.56152.45068,3.67822.90918,2.05518.81934,3.65625,2.18701,4.80176,4.10352s1.71777,4.15234,1.71777,6.70752c0,2.22852-.45557,4.24316-1.36523,6.04443-.91064,1.80225-2.14453,3.16211-3.70068,4.07861-1.32129.78662-2.70898,1.30225-4.16309,1.54834-1.45361.24561-3.76611.36816-6.93799.36816h-2.86328v16.02051h-5.11035V24.99854ZM14.73535,29.91309v14.20166h2.7749c2.81934,0,4.875-.17188,6.16748-.51611,1.29199-.34375,2.31982-.99023,3.0835-1.94092.99805-1.31006,1.49805-2.88232,1.49805-4.71777,0-1.4082-.31592-2.65332-.94727-3.73438-.63184-1.08154-1.50537-1.86768-2.62109-2.35889-.88086-.39307-1.82129-.64648-2.81934-.76172-.99854-.11426-2.67285-.17188-5.02197-.17188h-2.11426Z"/>
    <g>
      <path fill="#fff" d="M59.55176,58.80762v6.19238h-20.83203v-6.58496c4.26562-5.0127,7.54102-9.27148,9.82617-12.77734,2.36035-3.60352,3.54102-6.64941,3.54102-9.13965,0-1.73633-.4502-3.12109-1.35156-4.15234-.90137-1.03223-2.10156-1.54785-3.59863-1.54785-2.20898,0-4.64648,1.08105-7.3125,3.24316l-.49512-6.87988c1.87891-1.04785,3.50977-1.77734,4.89355-2.18652s2.90039-.61426,4.55176-.61426c2.99512,0,5.38867,1.01562,7.17871,3.0459,1.79004,2.03223,2.68457,4.75098,2.68457,8.1582,0,3.50586-1.23145,7.33887-3.69434,11.49902-2.51367,4.35742-5.30664,8.27246-8.37793,11.74414h12.98633Z"/>
      <path fill="#fff" d="M86.09668,50.84668v6.04492h-4.0752v8.1084h-6.09375v-8.1084h-13.36719v-6.73242l11.61621-25.16016h7.84473v25.84766h4.0752ZM76.04199,50.84668l.15234-16.75684c0-.65527.06348-1.49023.19043-2.50586-.15234.39258-.46973,1.12988-.95215,2.21094l-7.34961,17.05176h7.95898Z"/>
    </g>
  </symbol>
  <symbol id="P25" viewBox="0 0 90 90">
    <rect fill="#008446" x="0" y="18" width="90" height="54" rx="4" ry="4"/>
    <path fill="#fff" d="M9.625,24.99854h7.09229c3.23047,0,5.51367.07373,6.85059.22119,1.33594.14746,2.56152.45068,3.67822.90918,2.05518.81934,3.65625,2.18701,4.80176,4.10352s1.71777,4.15234,1.71777,6.70752c0,2.22852-.45557,4.24316-1.36523,6.04443-.91064,1.80225-2.14453,3.16211-3.70068,4.07861-1.32129.78662-2.70898,1.30225-4.16309,1.54834-1.45361.24561-3.76611.36816-6.93799.36816h-2.86328v16.02051h-5.11035V24.99854ZM14.73535,29.91309v14.20166h2.7749c2.81934,0,4.875-.17188,6.16748-.51611,1.29199-.34375,2.31982-.99023,3.0835-1.94092.99805-1.31006,1.49805-2.88232,1.49805-4.71777,0-1.4082-.31592-2.65332-.94727-3.73438-.63184-1.08154-1.50537-1.86768-2.62109-2.35889-.88086-.39307-1.82129-.64648-2.81934-.76172-.99854-.11426-2.67285-.17188-5.02197-.17188h-2.11426Z"/>
    <g>
      <path fill="#fff" d="M59.55176,58.80762v6.19238h-20.83203v-6.58496c4.26562-5.0127,7.54102-9.27148,9.82617-12.77734,2.36035-3.60352,3.54102-6.64941,3.54102-9.13965,0-1.73633-.4502-3.12109-1.35156-4.15234-.90137-1.03223-2.10156-1.54785-3.59863-1.54785-2.20898,0-4.64648,1.08105-7.3125,3.24316l-.49512-6.87988c1.87891-1.04785,3.50977-1.77734,4.89355-2.18652s2.90039-.61426,4.55176-.61426c2.99512,0,5.38867,1.01562,7.17871,3.0459,1.79004,2.03223,2.68457,4.75098,2.68457,8.1582,0,3.50586-1.23145,7.33887-3.69434,11.49902-2.51367,4.35742-5.30664,8.27246-8.37793,11.74414h12.98633Z"/>
      <path fill="#fff" d="M65.1123,64.41016l.15234-7.1748c2.33594,1.31055,4.50586,1.96582,6.5127,1.96582,2.00488,0,3.59863-.60547,4.7793-1.81836,1.18066-1.21191,1.77051-2.86621,1.77051-4.96289,0-2.19434-.6416-3.93164-1.92285-5.20898-1.28223-1.27832-3.01562-1.91699-5.19824-1.91699-1.59961,0-3.46582.37695-5.59863,1.13086l.2666-21.22949h17.97559v6.14258h-12.18652l-.19043,8.05957c1.11621-.13086,2.00488-.19727,2.66602-.19727,3.22363,0,5.82031,1.18848,7.78809,3.56348,1.9668,2.375,2.95117,5.51172,2.95117,9.41016,0,4.25879-1.11133,7.56738-3.33203,9.92676-2.22266,2.3584-5.32617,3.53809-9.31152,3.53809-1.5752,0-3.31348-.24609-5.21777-.7373l-1.9043-.49121Z"/>
    </g>
  </symbol>
  <symbol id="P26" viewBox="0 0 90 90">
    <rect fill="#008446" x="0" y="18" width="90" height="54" rx="4" ry="4"/>
    <path fill="#fff" d="M9.625,24.99854h7.09229c3.23047,0,5.51367.07373,6.85059.22119,1.33594.14746,2.56152.45068,3.67822.90918,2.05518.81934,3.65625,2.18701,4.80176,4.10352s1.71777,4.15234,1.71777,6.70752c0,2.22852-.45557,4.24316-1.36523,6.04443-.91064,1.80225-2.14453,3.16211-3.70068,4.07861-1.32129.78662-2.70898,1.30225-4.16309,1.54834-1.45361.24561-3.76611.36816-6.93799.36816h-2.86328v16.02051h-5.11035V24.99854ZM14.73535,29.91309v14.20166h2.7749c2.81934,0,4.875-.17188,6.16748-.51611,1.29199-.34375,2.31982-.99023,3.0835-1.94092.99805-1.31006,1.49805-2.88232,1.49805-4.71777,0-1.4082-.31592-2.65332-.94727-3.73438-.63184-1.08154-1.50537-1.86768-2.62109-2.35889-.88086-.39307-1.82129-.64648-2.81934-.76172-.99854-.11426-2.67285-.17188-5.02197-.17188h-2.11426Z"/>
    <g>
      <path fill="#fff" d="M59.55176,58.80762v6.19238h-20.83203v-6.58496c4.26562-5.0127,7.54102-9.27148,9.82617-12.77734,2.36035-3.60352,3.54102-6.64941,3.54102-9.13965,0-1.73633-.4502-3.12109-1.35156-4.15234-.90137-1.03223-2.10156-1.54785-3.59863-1.54785-2.20898,0-4.64648,1.08105-7.3125,3.24316l-.49512-6.87988c1.87891-1.04785,3.50977-1.77734,4.89355-2.18652s2.90039-.61426,4.55176-.61426c2.99512,0,5.38867,1.01562,7.17871,3.0459,1.79004,2.03223,2.68457,4.75098,2.68457,8.1582,0,3.50586-1.23145,7.33887-3.69434,11.49902-2.51367,4.35742-5.30664,8.27246-8.37793,11.74414h12.98633Z"/>
      <path fill="#fff" d="M80.72656,24.85156l-.11426,5.99512c-1.21875-.22852-2.13281-.34375-2.74219-.34375-2.48828,0-4.37891.92578-5.67383,2.77637s-2.09473,4.77539-2.39941,8.77148c.8623-1.14648,1.73828-1.96582,2.62793-2.45703.8877-.49121,1.98047-.7373,3.27441-.7373,2.79297,0,5.01465,1.18848,6.66504,3.5625,1.65039,2.37598,2.47559,5.59473,2.47559,9.65625,0,4.19434-.9082,7.50293-2.72266,9.92676-1.81543,2.42383-4.28516,3.63672-7.4082,3.63672-3.75781,0-6.53125-1.47461-8.32129-4.42285s-2.68457-7.53516-2.68457-13.75977c0-4.68457.4502-8.75488,1.35156-12.21094s2.19043-6.06934,3.86621-7.83887c1.92871-2.03027,4.50586-3.0459,7.73047-3.0459,1.29492,0,2.65332.16406,4.0752.49121ZM74.17676,44.90137c-1.29492,0-2.31738.64648-3.06641,1.94043-.74902,1.29492-1.12305,3.05566-1.12305,5.2832,0,2.32617.39258,4.17676,1.18066,5.55273.78613,1.37598,1.85254,2.06348,3.19922,2.06348,1.31934,0,2.36035-.6709,3.12207-2.01465.76172-1.34277,1.14258-3.17676,1.14258-5.50391,0-2.29199-.39355-4.08594-1.18066-5.38086-.78711-1.29395-1.87891-1.94043-3.27441-1.94043Z"/>
    </g>
  </symbol>
</svg>
