<?xml version="1.0" encoding="UTF-8"?>
<svg xmlns="http://www.w3.org/2000/svg" xmlns:xlink="http://www.w3.org/1999/xlink">
  <symbol id="N" viewBox="0 0 90 90">
    <rect fill="#008446" y="0" width="90" height="90" rx="13.5" ry="13.5"/>
    <path fill="#fff" d="M66.0918,70.65039h-11.58496l-17.31348-31.48096c-.67188-1.2168-2.66602-5.2666-5.98145-12.15137.75488,5.70898,1.19629,11.3125,1.32227,16.81055v26.82178h-8.68848V19.3999h11.33203l17.69238,31.54297c1.00684,1.93213,2.87402,5.81494,5.60352,11.64795-.21094-2.51758-.35742-4.23828-.44141-5.16211-.41992-4.11328-.62891-7.59717-.62891-10.45166v-27.57715h8.68848v51.25049Z"/>
  </symbol>
  <symbol id="N15" viewBox="0 0 90 90">
    <rect fill="#008446" x="0" y="18" width="90" height="54" rx="4" ry="4"/>
    <path fill="#fff" d="M32.5918,24.99854v40.00146h-5.26123l-8.95508-21.7207c-1.48682-3.60352-2.54346-6.30615-3.1709-8.1084-.62695-1.80127-1.17285-3.66846-1.63721-5.60205.23193,3.83301.35986,8.8623.38281,15.08643v20.34473h-4.0415V24.99854h5.50537l9.68652,23.53906c1.85791,4.521,3.14697,8.3374,3.86719,11.44971-.25586-3.3418-.39502-8.58301-.41797-15.7251v-19.26367h4.04199Z"/>
     <g>
      <path fill="#fff" d="M52.64941,65h-6.09277v-31.4502l-5.4082,5.84766-3.12305-5.11133,9.25488-9.28711h5.36914v40.00098Z"/>
      <path fill="#fff" d="M63.2373,64.41016l.15234-7.1748c2.33594,1.31055,4.50586,1.96582,6.5127,1.96582,2.00488,0,3.59863-.60547,4.7793-1.81836,1.18066-1.21191,1.77051-2.86621,1.77051-4.96289,0-2.19434-.6416-3.93164-1.92285-5.20898-1.28223-1.27832-3.01562-1.91699-5.19824-1.91699-1.59961,0-3.46582.37695-5.59863,1.13086l.2666-21.22949h17.97559v6.14258h-12.18652l-.19043,8.05957c1.11621-.13086,2.00488-.19727,2.66602-.19727,3.22363,0,5.82031,1.18848,7.78809,3.56348,1.9668,2.375,2.95117,5.51172,2.95117,9.41016,0,4.25879-1.11133,7.56738-3.33203,9.92676-2.22266,2.3584-5.32617,3.53809-9.31152,3.53809-1.5752,0-3.31348-.24609-5.21777-.7373l-1.9043-.49121Z"/>
    </g>
  </symbol>
  <symbol id="N16" viewBox="0 0 90 90">
    <rect fill="#008446" x="0" y="18" width="90" height="54" rx="4" ry="4"/>
    <path fill="#fff" d="M32.5918,24.99854v40.00146h-5.26123l-8.95508-21.7207c-1.48682-3.60352-2.54346-6.30615-3.1709-8.1084-.62695-1.80127-1.17285-3.66846-1.63721-5.60205.23193,3.83301.35986,8.8623.38281,15.08643v20.34473h-4.0415V24.99854h5.50537l9.68652,23.53906c1.85791,4.521,3.14697,8.3374,3.86719,11.44971-.25586-3.3418-.39502-8.58301-.41797-15.7251v-19.26367h4.04199Z"/>
     <g>
      <path fill="#fff" d="M52.64941,65h-6.09277v-31.4502l-5.4082,5.84766-3.12305-5.11133,9.25488-9.28711h5.36914v40.00098Z"/>
      <path fill="#fff" d="M78.85156,24.85156l-.11426,5.99512c-1.21875-.22852-2.13281-.34375-2.74219-.34375-2.48828,0-4.37891.92578-5.67383,2.77637s-2.09473,4.77539-2.39941,8.77148c.8623-1.14648,1.73828-1.96582,2.62793-2.45703.8877-.49121,1.98047-.7373,3.27441-.7373,2.79297,0,5.01465,1.18848,6.66504,3.5625,1.65039,2.37598,2.47559,5.59473,2.47559,9.65625,0,4.19434-.9082,7.50293-2.72266,9.92676-1.81543,2.42383-4.28516,3.63672-7.4082,3.63672-3.75781,0-6.53125-1.47461-8.32129-4.42285s-2.68457-7.53516-2.68457-13.75977c0-4.68457.4502-8.75488,1.35156-12.21094s2.19043-6.06934,3.86621-7.83887c1.92871-2.03027,4.50586-3.0459,7.73047-3.0459,1.29492,0,2.65332.16406,4.0752.49121ZM72.30176,44.90137c-1.29492,0-2.31738.64648-3.06641,1.94043-.74902,1.29492-1.12305,3.05566-1.12305,5.2832,0,2.32617.39258,4.17676,1.18066,5.55273.78613,1.37598,1.85254,2.06348,3.19922,2.06348,1.31934,0,2.36035-.6709,3.12207-2.01465.76172-1.34277,1.14258-3.17676,1.14258-5.50391,0-2.29199-.39355-4.08594-1.18066-5.38086-.78711-1.29395-1.87891-1.94043-3.27441-1.94043Z"/>
    </g>
  </symbol>
  <symbol id="N17" viewBox="0 0 90 90">
    <rect fill="#008446" x="0" y="18" width="90" height="54" rx="4" ry="4"/>
    <path fill="#fff" d="M32.5918,24.99854v40.00146h-5.26123l-8.95508-21.7207c-1.48682-3.60352-2.54346-6.30615-3.1709-8.1084-.62695-1.80127-1.17285-3.66846-1.63721-5.60205.23193,3.83301.35986,8.8623.38281,15.08643v20.34473h-4.0415V24.99854h5.50537l9.68652,23.53906c1.85791,4.521,3.14697,8.3374,3.86719,11.44971-.25586-3.3418-.39502-8.58301-.41797-15.7251v-19.26367h4.04199Z"/>
     <g>
      <path fill="#fff" d="M52.64941,65h-6.09277v-31.4502l-5.4082,5.84766-3.12305-5.11133,9.25488-9.28711h5.36914v40.00098Z"/>
      <path fill="#fff" d="M71.6543,65h-6.7793l11.65332-33.71094h-14.20508v-6.09375h20.29883v6.14258l-10.96777,33.66211Z"/>
    </g>
  </symbol>
</svg>
