<?xml version="1.0" encoding="UTF-8"?>
<svg xmlns="http://www.w3.org/2000/svg" xmlns:xlink="http://www.w3.org/1999/xlink">
  <symbol id="J" viewBox="0 0 90 90">
    <rect fill="#2e89d9" y="0" width="90" height="90" rx="13.5" ry="13.5"/>
    <path fill="#fff" d="M53.3418,19.3999v35.13232c0,5.37305-.96582,9.25488-2.89648,11.64746-1.21777,1.55371-2.82324,2.75977-4.81641,3.62012-1.99414.86035-4.18652,1.29102-6.5791,1.29102-1.93066,0-4.19727-.33691-6.7998-1.00781l.18945-8.24707c1.51074.50293,2.97949.75488,4.40723.75488,1.67773,0,2.92676-.15723,3.74609-.47168.81836-.31543,1.52051-.8916,2.1084-1.73145.96582-1.38477,1.44824-3.67285,1.44824-6.8623V19.3999h9.19238Z"/>
  </symbol>
  <symbol id="J12" viewBox="0 0 90 90">
    <rect fill="#2e89d9" x="0" y="18" width="90" height="54" rx="4" ry="4"/>
    <path fill="#fff" d="M24.07959,24.99854v27.17529c0,2.71973-.07373,4.62793-.22119,5.72461-.14795,1.09863-.47168,2.10547-.97266,3.02246-1.62207,3.0791-4.37891,4.61914-8.27051,4.61914-1.1499,0-2.74219-.22949-4.77686-.6875v-5.35645c1.29736.58984,2.62402.88477,3.98047.88477,2.06348,0,3.44238-.63965,4.13525-1.91699.69238-1.27734,1.03955-3.84863,1.03955-7.71484v-25.75049h5.08594Z"/>
    <g>
      <path fill="#fff" d="M52.64941,65h-6.09277v-31.4502l-5.4082,5.84766-3.12305-5.11133,9.25488-9.28711h5.36914v40.00098Z"/>
      <path fill="#fff" d="M82.58398,58.80762v6.19238h-20.83203v-6.58496c4.26562-5.0127,7.54102-9.27148,9.82617-12.77734,2.36035-3.60352,3.54102-6.64941,3.54102-9.13965,0-1.73633-.4502-3.12109-1.35156-4.15234-.90137-1.03223-2.10156-1.54785-3.59863-1.54785-2.20898,0-4.64648,1.08105-7.3125,3.24316l-.49512-6.87988c1.87891-1.04785,3.50977-1.77734,4.89355-2.18652s2.90039-.61426,4.55176-.61426c2.99512,0,5.38867,1.01562,7.17871,3.0459,1.79004,2.03223,2.68457,4.75098,2.68457,8.1582,0,3.50586-1.23145,7.33887-3.69434,11.49902-2.51367,4.35742-5.30664,8.27246-8.37793,11.74414h12.98633Z"/>
    </g>
  </symbol>
  <symbol id="J13" viewBox="0 0 90 90">
    <rect fill="#2e89d9" x="0" y="18" width="90" height="54" rx="4" ry="4"/>
    <path fill="#fff" d="M24.07959,24.99854v27.17529c0,2.71973-.07373,4.62793-.22119,5.72461-.14795,1.09863-.47168,2.10547-.97266,3.02246-1.62207,3.0791-4.37891,4.61914-8.27051,4.61914-1.1499,0-2.74219-.22949-4.77686-.6875v-5.35645c1.29736.58984,2.62402.88477,3.98047.88477,2.06348,0,3.44238-.63965,4.13525-1.91699.69238-1.27734,1.03955-3.84863,1.03955-7.71484v-25.75049h5.08594Z"/>
    <g>
      <path fill="#fff" d="M52.64941,65h-6.09277v-31.4502l-5.4082,5.84766-3.12305-5.11133,9.25488-9.28711h5.36914v40.00098Z"/>
      <path fill="#fff" d="M62.32324,64.21387l.34277-6.73242c2.48828,1.27734,4.81152,1.91602,6.96973,1.91602,2.08105,0,3.70605-.52344,4.87402-1.57227,1.16797-1.04785,1.75195-2.52246,1.75195-4.42285,0-1.6709-.43164-2.98047-1.29492-3.93164-1.21875-1.34277-3.16016-2.01465-5.82617-2.01465-.50879,0-1.44727.0332-2.81836.09863v-6.38867l1.86621.0498c3.22363,0,5.43262-.7207,6.62598-2.16309.86328-1.01465,1.29492-2.24316,1.29492-3.68555,0-1.53906-.49512-2.72656-1.48535-3.5625-.99023-.83496-2.38672-1.25293-4.18848-1.25293-2.28516,0-4.58398.65527-6.89355,1.96582l-.38086-6.38867c3.17383-1.17969,5.97949-1.76855,8.41699-1.76855,3.42676,0,6.09277.90137,7.99707,2.70215,1.9043,1.80273,2.85645,4.32422,2.85645,7.56836,0,4.91406-1.94238,8.04297-5.82715,9.38574,1.32031.55762,2.31055,1.09766,2.9707,1.62109.99023.78711,1.76465,1.90039,2.32324,3.3418.55859,1.44238.83789,3.06348.83789,4.86523,0,3.76758-1.14258,6.68359-3.42773,8.74707-2.31055,2.03125-5.35742,3.04688-9.13965,3.04688-2.54004,0-5.15527-.47559-7.8457-1.4248Z"/>
     </g>
  </symbol>
  <symbol id="J14" viewBox="0 0 90 90">
    <rect fill="#2e89d9" x="0" y="18" width="90" height="54" rx="4" ry="4"/>
    <path fill="#fff" d="M24.07959,24.99854v27.17529c0,2.71973-.07373,4.62793-.22119,5.72461-.14795,1.09863-.47168,2.10547-.97266,3.02246-1.62207,3.0791-4.37891,4.61914-8.27051,4.61914-1.1499,0-2.74219-.22949-4.77686-.6875v-5.35645c1.29736.58984,2.62402.88477,3.98047.88477,2.06348,0,3.44238-.63965,4.13525-1.91699.69238-1.27734,1.03955-3.84863,1.03955-7.71484v-25.75049h5.08594Z"/>
    <g>
      <path fill="#fff" d="M52.64941,65h-6.09277v-31.4502l-5.4082,5.84766-3.12305-5.11133,9.25488-9.28711h5.36914v40.00098Z"/>
      <path fill="#fff" d="M84.22168,50.84668v6.04492h-4.0752v8.1084h-6.09375v-8.1084h-13.36719v-6.73242l11.61621-25.16016h7.84473v25.84766h4.0752ZM74.16699,50.84668l.15234-16.75684c0-.65527.06348-1.49023.19043-2.50586-.15234.39258-.46973,1.12988-.95215,2.21094l-7.34961,17.05176h7.95898Z"/>
    </g>
  </symbol>
</svg>
