<?xml version="1.0" encoding="UTF-8"?>
<svg xmlns="http://www.w3.org/2000/svg" xmlns:xlink="http://www.w3.org/1999/xlink">
  <symbol id="L" viewBox="0 0 90 90">
    <rect fill="#1b3db0" y="0" width="90" height="90" rx="13.5" ry="13.5"/>
    <path fill="#fff" d="M62.25098,63.09473v7.55566h-29.96875V19.3999h9.25488v43.69482h20.71387Z"/>
  </symbol>
  <symbol id="L29" viewBox="0 0 90 90">
    <rect fill="#1b3db0" x="0" y="18" width="90" height="54" rx="4" ry="4"/>
    <path fill="#fff" d="M15.56592,24.99854v35.0874h15.16992v4.91406H10.43555V24.99854h5.13037Z"/>
    <g>
      <path fill="#fff" d="M59.55176,58.80762v6.19238h-20.83203v-6.58496c4.26562-5.0127,7.54102-9.27148,9.82617-12.77734,2.36035-3.60352,3.54102-6.64941,3.54102-9.13965,0-1.73633-.4502-3.12109-1.35156-4.15234-.90137-1.03223-2.10156-1.54785-3.59863-1.54785-2.20898,0-4.64648,1.08105-7.3125,3.24316l-.49512-6.87988c1.87891-1.04785,3.50977-1.77734,4.89355-2.18652s2.90039-.61426,4.55176-.61426c2.99512,0,5.38867,1.01562,7.17871,3.0459,1.79004,2.03223,2.68457,4.75098,2.68457,8.1582,0,3.50586-1.23145,7.33887-3.69434,11.49902-2.51367,4.35742-5.30664,8.27246-8.37793,11.74414h12.98633Z"/>
      <path fill="#fff" d="M62.36133,62.49316l2.32324-5.50391c1.16699,1.0498,2.12598,1.76172,2.875,2.1377.74902.37695,1.63086.56543,2.64746.56543,2.46191,0,4.27734-1.26074,5.44531-3.78418.71094-1.57227,1.18066-4.16016,1.40918-7.76367-.86328,1.08105-1.73926,1.85059-2.62793,2.30957s-1.97949.6875-3.27441.6875c-2.99707,0-5.31934-1.27734-6.96973-3.83301-1.59961-2.45703-2.39941-5.63379-2.39941-9.5332,0-4.29102.92676-7.59961,2.78027-9.92676,1.85254-2.3252,4.49414-3.48828,7.92188-3.48828,3.47754,0,6.11816,1.57227,7.9209,4.7168,1.77734,3.04688,2.66602,7.81348,2.66602,14.30078,0,4.32422-.35547,8.125-1.06641,11.40039-.71094,3.27637-1.70117,5.7334-2.9707,7.37109-1.95508,2.42383-4.5957,3.63672-7.9209,3.63672-3.12305,0-6.04297-1.09766-8.75977-3.29297ZM72.14941,30.25684c-1.24512,0-2.25391.68066-3.02832,2.03906-.77441,1.36035-1.16113,3.1543-1.16113,5.38086,0,2.19531.41211,3.96484,1.2373,5.30762.8252,1.34375,1.91016,2.01465,3.25684,2.01465,1.29395,0,2.31641-.59668,3.06543-1.79297.74805-1.19629,1.12305-2.8418,1.12305-4.93945,0-2.48926-.39941-4.44727-1.19922-5.87207s-1.89844-2.1377-3.29395-2.1377Z"/>
    </g>
  </symbol>
  <symbol id="L30" viewBox="0 0 90 90">
    <rect fill="#1b3db0" x="0" y="18" width="90" height="54" rx="4" ry="4"/>
    <path fill="#fff" d="M15.56592,24.99854v35.0874h15.16992v4.91406H10.43555V24.99854h5.13037Z"/>
    <g>
      <path fill="#fff" d="M37.41602,64.21387l.34277-6.73242c2.48828,1.27734,4.81152,1.91602,6.96973,1.91602,2.08105,0,3.70605-.52344,4.87402-1.57227,1.16797-1.04785,1.75195-2.52246,1.75195-4.42285,0-1.6709-.43164-2.98047-1.29492-3.93164-1.21875-1.34277-3.16016-2.01465-5.82617-2.01465-.50879,0-1.44727.0332-2.81836.09863v-6.38867l1.86621.0498c3.22363,0,5.43262-.7207,6.62598-2.16309.86328-1.01465,1.29492-2.24316,1.29492-3.68555,0-1.53906-.49512-2.72656-1.48535-3.5625-.99023-.83496-2.38672-1.25293-4.18848-1.25293-2.28516,0-4.58398.65527-6.89355,1.96582l-.38086-6.38867c3.17383-1.17969,5.97949-1.76855,8.41699-1.76855,3.42676,0,6.09277.90137,7.99707,2.70215,1.9043,1.80273,2.85645,4.32422,2.85645,7.56836,0,4.91406-1.94238,8.04297-5.82715,9.38574,1.32031.55762,2.31055,1.09766,2.9707,1.62109.99023.78711,1.76465,1.90039,2.32324,3.3418.55859,1.44238.83789,3.06348.83789,4.86523,0,3.76758-1.14258,6.68359-3.42773,8.74707-2.31055,2.03125-5.35742,3.04688-9.13965,3.04688-2.54004,0-5.15527-.47559-7.8457-1.4248Z"/>
      <path fill="#fff" d="M72.49219,24.36035c3.22363,0,5.81348,1.62109,7.76855,4.86426,2.00586,3.27637,3.00879,8.61719,3.00879,16.02051,0,8.45215-1.42188,14.25098-4.26562,17.39551-1.82812,1.99805-4.02441,2.99805-6.58789,2.99805-1.70215,0-3.28223-.4834-4.74219-1.4502-1.45996-.96582-2.63379-2.31641-3.52246-4.05371-1.70117-3.3418-2.55176-8.27148-2.55176-14.79199,0-8.35352,1.30762-14.20117,3.92285-17.54297,1.85254-2.29297,4.17578-3.43945,6.96973-3.43945ZM72.37793,30.25684c-1.5752,0-2.73633,1.24512-3.48535,3.73438-.74902,2.49023-1.12305,6.37305-1.12305,11.64648,0,3.01465.21484,5.72559.64746,8.13281.43066,2.4082.99023,4.00586,1.67578,4.79199s1.47168,1.17871,2.36133,1.17871c1.06543,0,1.94141-.52344,2.62695-1.57227.58398-.85156,1.06641-2.48145,1.44727-4.88965.38086-2.40723.57129-4.9707.57129-7.69043,0-6.38867-.55859-10.74512-1.67578-13.07129-.71094-1.50684-1.72656-2.26074-3.0459-2.26074Z"/>
    </g>
  </symbol>
  <symbol id="L31" viewBox="0 0 90 90">
    <rect fill="#1b3db0" x="0" y="18" width="90" height="54" rx="4" ry="4"/>
    <path fill="#fff" d="M15.56592,24.99854v35.0874h15.16992v4.91406H10.43555V24.99854h5.13037Z"/>
    <g>
      <path fill="#fff" d="M37.41602,64.21387l.34277-6.73242c2.48828,1.27734,4.81152,1.91602,6.96973,1.91602,2.08105,0,3.70605-.52344,4.87402-1.57227,1.16797-1.04785,1.75195-2.52246,1.75195-4.42285,0-1.6709-.43164-2.98047-1.29492-3.93164-1.21875-1.34277-3.16016-2.01465-5.82617-2.01465-.50879,0-1.44727.0332-2.81836.09863v-6.38867l1.86621.0498c3.22363,0,5.43262-.7207,6.62598-2.16309.86328-1.01465,1.29492-2.24316,1.29492-3.68555,0-1.53906-.49512-2.72656-1.48535-3.5625-.99023-.83496-2.38672-1.25293-4.18848-1.25293-2.28516,0-4.58398.65527-6.89355,1.96582l-.38086-6.38867c3.17383-1.17969,5.97949-1.76855,8.41699-1.76855,3.42676,0,6.09277.90137,7.99707,2.70215,1.9043,1.80273,2.85645,4.32422,2.85645,7.56836,0,4.91406-1.94238,8.04297-5.82715,9.38574,1.32031.55762,2.31055,1.09766,2.9707,1.62109.99023.78711,1.76465,1.90039,2.32324,3.3418.55859,1.44238.83789,3.06348.83789,4.86523,0,3.76758-1.14258,6.68359-3.42773,8.74707-2.31055,2.03125-5.35742,3.04688-9.13965,3.04688-2.54004,0-5.15527-.47559-7.8457-1.4248Z"/>
      <path fill="#fff" d="M77.55664,65h-6.09277v-31.4502l-5.4082,5.84766-3.12305-5.11133,9.25488-9.28711h5.36914v40.00098Z"/>
     </g>
  </symbol>
  <symbol id="L32" viewBox="0 0 90 90">
    <rect fill="#1b3db0" x="0" y="18" width="90" height="54" rx="4" ry="4"/>
    <path fill="#fff" d="M15.56592,24.99854v35.0874h15.16992v4.91406H10.43555V24.99854h5.13037Z"/>
    <g>
      <path fill="#fff" d="M37.41602,64.21387l.34277-6.73242c2.48828,1.27734,4.81152,1.91602,6.96973,1.91602,2.08105,0,3.70605-.52344,4.87402-1.57227,1.16797-1.04785,1.75195-2.52246,1.75195-4.42285,0-1.6709-.43164-2.98047-1.29492-3.93164-1.21875-1.34277-3.16016-2.01465-5.82617-2.01465-.50879,0-1.44727.0332-2.81836.09863v-6.38867l1.86621.0498c3.22363,0,5.43262-.7207,6.62598-2.16309.86328-1.01465,1.29492-2.24316,1.29492-3.68555,0-1.53906-.49512-2.72656-1.48535-3.5625-.99023-.83496-2.38672-1.25293-4.18848-1.25293-2.28516,0-4.58398.65527-6.89355,1.96582l-.38086-6.38867c3.17383-1.17969,5.97949-1.76855,8.41699-1.76855,3.42676,0,6.09277.90137,7.99707,2.70215,1.9043,1.80273,2.85645,4.32422,2.85645,7.56836,0,4.91406-1.94238,8.04297-5.82715,9.38574,1.32031.55762,2.31055,1.09766,2.9707,1.62109.99023.78711,1.76465,1.90039,2.32324,3.3418.55859,1.44238.83789,3.06348.83789,4.86523,0,3.76758-1.14258,6.68359-3.42773,8.74707-2.31055,2.03125-5.35742,3.04688-9.13965,3.04688-2.54004,0-5.15527-.47559-7.8457-1.4248Z"/>
      <path fill="#fff" d="M82.58398,58.80762v6.19238h-20.83203v-6.58496c4.26562-5.0127,7.54102-9.27148,9.82617-12.77734,2.36035-3.60352,3.54102-6.64941,3.54102-9.13965,0-1.73633-.4502-3.12109-1.35156-4.15234-.90137-1.03223-2.10156-1.54785-3.59863-1.54785-2.20898,0-4.64648,1.08105-7.3125,3.24316l-.49512-6.87988c1.87891-1.04785,3.50977-1.77734,4.89355-2.18652s2.90039-.61426,4.55176-.61426c2.99512,0,5.38867,1.01562,7.17871,3.0459,1.79004,2.03223,2.68457,4.75098,2.68457,8.1582,0,3.50586-1.23145,7.33887-3.69434,11.49902-2.51367,4.35742-5.30664,8.27246-8.37793,11.74414h12.98633Z"/>
    </g>
  </symbol>
  <symbol id="L33" viewBox="0 0 90 90">
    <rect fill="#1b3db0" x="0" y="18" width="90" height="54" rx="4" ry="4"/>
    <path fill="#fff" d="M15.56592,24.99854v35.0874h15.16992v4.91406H10.43555V24.99854h5.13037Z"/>
    <g>
      <path fill="#fff" d="M37.41602,64.21387l.34277-6.73242c2.48828,1.27734,4.81152,1.91602,6.96973,1.91602,2.08105,0,3.70605-.52344,4.87402-1.57227,1.16797-1.04785,1.75195-2.52246,1.75195-4.42285,0-1.6709-.43164-2.98047-1.29492-3.93164-1.21875-1.34277-3.16016-2.01465-5.82617-2.01465-.50879,0-1.44727.0332-2.81836.09863v-6.38867l1.86621.0498c3.22363,0,5.43262-.7207,6.62598-2.16309.86328-1.01465,1.29492-2.24316,1.29492-3.68555,0-1.53906-.49512-2.72656-1.48535-3.5625-.99023-.83496-2.38672-1.25293-4.18848-1.25293-2.28516,0-4.58398.65527-6.89355,1.96582l-.38086-6.38867c3.17383-1.17969,5.97949-1.76855,8.41699-1.76855,3.42676,0,6.09277.90137,7.99707,2.70215,1.9043,1.80273,2.85645,4.32422,2.85645,7.56836,0,4.91406-1.94238,8.04297-5.82715,9.38574,1.32031.55762,2.31055,1.09766,2.9707,1.62109.99023.78711,1.76465,1.90039,2.32324,3.3418.55859,1.44238.83789,3.06348.83789,4.86523,0,3.76758-1.14258,6.68359-3.42773,8.74707-2.31055,2.03125-5.35742,3.04688-9.13965,3.04688-2.54004,0-5.15527-.47559-7.8457-1.4248Z"/>
      <path fill="#fff" d="M62.32324,64.21387l.34277-6.73242c2.48828,1.27734,4.81152,1.91602,6.96973,1.91602,2.08105,0,3.70605-.52344,4.87402-1.57227,1.16797-1.04785,1.75195-2.52246,1.75195-4.42285,0-1.6709-.43164-2.98047-1.29492-3.93164-1.21875-1.34277-3.16016-2.01465-5.82617-2.01465-.50879,0-1.44727.0332-2.81836.09863v-6.38867l1.86621.0498c3.22363,0,5.43262-.7207,6.62598-2.16309.86328-1.01465,1.29492-2.24316,1.29492-3.68555,0-1.53906-.49512-2.72656-1.48535-3.5625-.99023-.83496-2.38672-1.25293-4.18848-1.25293-2.28516,0-4.58398.65527-6.89355,1.96582l-.38086-6.38867c3.17383-1.17969,5.97949-1.76855,8.41699-1.76855,3.42676,0,6.09277.90137,7.99707,2.70215,1.9043,1.80273,2.85645,4.32422,2.85645,7.56836,0,4.91406-1.94238,8.04297-5.82715,9.38574,1.32031.55762,2.31055,1.09766,2.9707,1.62109.99023.78711,1.76465,1.90039,2.32324,3.3418.55859,1.44238.83789,3.06348.83789,4.86523,0,3.76758-1.14258,6.68359-3.42773,8.74707-2.31055,2.03125-5.35742,3.04688-9.13965,3.04688-2.54004,0-5.15527-.47559-7.8457-1.4248Z"/>
     </g>
  </symbol>
</svg>
