<?xml version="1.0" encoding="UTF-8"?>
<svg xmlns="http://www.w3.org/2000/svg" xmlns:xlink="http://www.w3.org/1999/xlink">
  <symbol id="G" viewBox="0 0 90 90">
    <rect fill="#c22047" y="0" width="90" height="90" rx="13.5" ry="13.5"/>
    <path fill="#fff" d="M66.5957,41.37354v27.01025c-5.41406,1.7627-11.03906,2.64355-16.87305,2.64355-10.95508,0-18.6582-3.29395-23.10645-9.88379-3.14746-4.61719-4.72168-10.11523-4.72168-16.49658,0-7.80664,2.6543-14.0293,7.96387-18.66797,5.30957-4.63672,12.43457-6.95703,21.375-6.95703,4.7002,0,9.31836.69336,13.85156,2.07812l-.56641,7.80664c-4.24023-1.67773-8.64746-2.51758-13.22168-2.51758-6.21289,0-11.00879,1.59473-14.38672,4.78418-3.37891,3.19043-5.06836,7.72363-5.06836,13.59961,0,5.83496,1.66895,10.44189,5.00586,13.81982,3.33691,3.37988,7.8584,5.06836,13.56738,5.06836,2.2666,0,4.74316-.37695,7.42969-1.13281v-13.6626h-11.27051v-7.49219h20.02148Z"/>
  </symbol>
  <symbol id="G17" viewBox="0 0 90 90">
    <rect fill="#c22047" x="0" y="18" width="90" height="54" rx="4" ry="4"/>
    <path fill="#fff" d="M32.20508,26.59131l-.32178,5.52344c-2.31543-1.74219-4.78564-2.61377-7.41064-2.61377-3.48486,0-6.30078,1.41406-8.44873,4.24121-2.14795,2.82812-3.22217,6.54297-3.22217,11.146,0,5.75391,1.53955,10.01123,4.61816,12.77295,2.07666,1.87402,4.45117,2.81055,7.12402,2.81055,1.24072,0,2.58936-.2959,4.04541-.8877v-11.58887h-6.229v-4.88281h10.34619v20.36816c-2.81641,1.24902-5.59717,1.87402-8.34131,1.87402-4.96436,0-8.87842-1.8418-11.74219-5.52344-2.86426-3.68164-4.29639-8.71191-4.29639-15.09082,0-6.21436,1.4917-11.12891,4.4751-14.74609,2.93555-3.55078,6.75391-5.32617,11.45605-5.32617,2.81592,0,5.46484.64111,7.94727,1.92334Z"/>
    <g>
      <path fill="#fff" d="M52.64941,65h-6.09277v-31.4502l-5.4082,5.84766-3.12305-5.11133,9.25488-9.28711h5.36914v40.00098Z"/>
      <path fill="#fff" d="M71.6543,65h-6.7793l11.65332-33.71094h-14.20508v-6.09375h20.29883v6.14258l-10.96777,33.66211Z"/>
    </g>
  </symbol>
  <symbol id="G18" viewBox="0 0 90 90">
    <rect fill="#c22047" x="0" y="18" width="90" height="54" rx="4" ry="4"/>
    <path fill="#fff" d="M32.20508,26.59131l-.32178,5.52344c-2.31543-1.74219-4.78564-2.61377-7.41064-2.61377-3.48486,0-6.30078,1.41406-8.44873,4.24121-2.14795,2.82812-3.22217,6.54297-3.22217,11.146,0,5.75391,1.53955,10.01123,4.61816,12.77295,2.07666,1.87402,4.45117,2.81055,7.12402,2.81055,1.24072,0,2.58936-.2959,4.04541-.8877v-11.58887h-6.229v-4.88281h10.34619v20.36816c-2.81641,1.24902-5.59717,1.87402-8.34131,1.87402-4.96436,0-8.87842-1.8418-11.74219-5.52344-2.86426-3.68164-4.29639-8.71191-4.29639-15.09082,0-6.21436,1.4917-11.12891,4.4751-14.74609,2.93555-3.55078,6.75391-5.32617,11.45605-5.32617,2.81592,0,5.46484.64111,7.94727,1.92334Z"/>
    <g>
      <path fill="#fff" d="M52.64941,65h-6.09277v-31.4502l-5.4082,5.84766-3.12305-5.11133,9.25488-9.28711h5.36914v40.00098Z"/>
      <path fill="#fff" d="M77.1377,43.37793c1.32031.62207,2.34863,1.26074,3.08496,1.91602,2.05664,1.86719,3.08496,4.71777,3.08496,8.55078,0,3.63672-.96484,6.51074-2.89453,8.62402s-4.55762,3.16992-7.88281,3.16992c-3.32715,0-5.97949-1.04883-7.95996-3.14551-1.98047-2.0957-2.9707-4.89648-2.9707-8.40234,0-3.30859.87598-5.94629,2.62793-7.91211.78613-.85156,1.82812-1.55566,3.12305-2.11328-1.27051-.6875-2.23438-1.4248-2.89453-2.21094-1.52344-1.86719-2.28516-4.19336-2.28516-6.97852,0-3.17676.93262-5.72461,2.79883-7.6416,1.86621-1.91602,4.34766-2.87402,7.44629-2.87402,3.0459,0,5.47754.87598,7.29297,2.62891,1.81445,1.75293,2.72266,4.12012,2.72266,7.10059,0,3.11328-.90137,5.60254-2.7041,7.46973-.58398.62207-1.44727,1.22852-2.58984,1.81836ZM71.88281,47.30859c-1.44727.75391-2.49512,1.66309-3.14258,2.72754-.64746,1.06543-.9707,2.40039-.9707,4.00488,0,1.7373.4502,3.15332,1.35156,4.25098s2.07617,1.64648,3.52344,1.64648c1.37012,0,2.45605-.49902,3.25586-1.49902.7998-.99902,1.19922-2.36621,1.19922-4.10352,0-1.57227-.33691-2.88184-1.00879-3.93066-.67285-1.04883-1.7334-1.91699-3.18066-2.60449-.50781-.2627-.85059-.42578-1.02734-.49219ZM72.83398,41.16602c1.3457-.85156,2.31055-1.76074,2.89453-2.72754.58398-.96582.87598-2.1377.87598-3.5127,0-1.47461-.38086-2.66992-1.14258-3.58789-.76172-.91699-1.76465-1.37598-3.00781-1.37598-1.27051,0-2.31152.45117-3.12305,1.35156-.81348.90137-1.21875,2.05664-1.21875,3.46484,0,2.3584,1.19238,4.27441,3.58008,5.74902l1.1416.63867Z"/>
    </g>
  </symbol>
  <symbol id="G19" viewBox="0 0 90 90">
    <rect fill="#c22047" x="0" y="18" width="90" height="54" rx="4" ry="4"/>
    <path fill="#fff" d="M32.20508,26.59131l-.32178,5.52344c-2.31543-1.74219-4.78564-2.61377-7.41064-2.61377-3.48486,0-6.30078,1.41406-8.44873,4.24121-2.14795,2.82812-3.22217,6.54297-3.22217,11.146,0,5.75391,1.53955,10.01123,4.61816,12.77295,2.07666,1.87402,4.45117,2.81055,7.12402,2.81055,1.24072,0,2.58936-.2959,4.04541-.8877v-11.58887h-6.229v-4.88281h10.34619v20.36816c-2.81641,1.24902-5.59717,1.87402-8.34131,1.87402-4.96436,0-8.87842-1.8418-11.74219-5.52344-2.86426-3.68164-4.29639-8.71191-4.29639-15.09082,0-6.21436,1.4917-11.12891,4.4751-14.74609,2.93555-3.55078,6.75391-5.32617,11.45605-5.32617,2.81592,0,5.46484.64111,7.94727,1.92334Z"/>
    <g>
      <path fill="#fff" d="M52.64941,65h-6.09277v-31.4502l-5.4082,5.84766-3.12305-5.11133,9.25488-9.28711h5.36914v40.00098Z"/>
      <path fill="#fff" d="M63.67188,62.75586l2.38281-5.46875c1.19727,1.04199,2.18066,1.75,2.94922,2.12402.76758.375,1.67285.56152,2.71484.56152,2.52539,0,4.3877-1.25293,5.58594-3.75977.72852-1.5625,1.21094-4.13379,1.44531-7.71484-.88574,1.07422-1.78418,1.83887-2.69531,2.29492-.91211.45605-2.03125.68359-3.35938.68359-3.07324,0-5.45605-1.26953-7.14844-3.80859-1.64062-2.44141-2.46094-5.59863-2.46094-9.47314,0-4.26416.9502-7.55127,2.85156-9.86328,1.90039-2.31104,4.60938-3.4668,8.125-3.4668,3.56738,0,6.27539,1.5625,8.125,4.6875,1.82324,3.02734,2.73438,7.76367,2.73438,14.20898,0,4.29736-.36426,8.07373-1.09375,11.32861-.72949,3.25586-1.74512,5.69727-3.04688,7.32422-2.00586,2.4082-4.71387,3.61328-8.125,3.61328-3.20312,0-6.19824-1.09082-8.98438-3.27148ZM73.71094,30.72412c-1.27637,0-2.31152.67627-3.10547,2.02637-.79492,1.35107-1.19141,3.1333-1.19141,5.34668,0,2.18164.42285,3.93945,1.26953,5.27344.8457,1.33545,1.95898,2.00244,3.33984,2.00244,1.32812,0,2.37598-.59375,3.14453-1.78271.76758-1.1875,1.15234-2.82324,1.15234-4.90723,0-2.47314-.41016-4.41895-1.23047-5.83496s-1.94727-2.12402-3.37891-2.12402Z"/>
    </g>
  </symbol>
   <symbol id="G20" viewBox="0 0 90 90">
    <rect fill="#c22047" x="0" y="18" width="90" height="54" rx="4" ry="4"/>
    <path fill="#fff" d="M32.20508,26.59131l-.32178,5.52344c-2.31543-1.74219-4.78564-2.61377-7.41064-2.61377-3.48486,0-6.30078,1.41406-8.44873,4.24121-2.14795,2.82812-3.22217,6.54297-3.22217,11.146,0,5.75391,1.53955,10.01123,4.61816,12.77295,2.07666,1.87402,4.45117,2.81055,7.12402,2.81055,1.24072,0,2.58936-.2959,4.04541-.8877v-11.58887h-6.229v-4.88281h10.34619v20.36816c-2.81641,1.24902-5.59717,1.87402-8.34131,1.87402-4.96436,0-8.87842-1.8418-11.74219-5.52344-2.86426-3.68164-4.29639-8.71191-4.29639-15.09082,0-6.21436,1.4917-11.12891,4.4751-14.74609,2.93555-3.55078,6.75391-5.32617,11.45605-5.32617,2.81592,0,5.46484.64111,7.94727,1.92334Z"/>
    <g>
      <path fill="#fff" d="M57.67676,58.80762v6.19238h-20.83203v-6.58496c4.26562-5.0127,7.54102-9.27148,9.82617-12.77734,2.36035-3.60352,3.54102-6.64941,3.54102-9.13965,0-1.73633-.4502-3.12109-1.35156-4.15234-.90137-1.03223-2.10156-1.54785-3.59863-1.54785-2.20898,0-4.64648,1.08105-7.3125,3.24316l-.49512-6.87988c1.87891-1.04785,3.50977-1.77734,4.89355-2.18652s2.90039-.61426,4.55176-.61426c2.99512,0,5.38867,1.01562,7.17871,3.0459,1.79004,2.03223,2.68457,4.75098,2.68457,8.1582,0,3.50586-1.23145,7.33887-3.69434,11.49902-2.51367,4.35742-5.30664,8.27246-8.37793,11.74414h12.98633Z"/>
      <path fill="#fff" d="M72.49219,24.36035c3.22363,0,5.81348,1.62109,7.76855,4.86426,2.00586,3.27637,3.00879,8.61719,3.00879,16.02051,0,8.45215-1.42188,14.25098-4.26562,17.39551-1.82812,1.99805-4.02441,2.99805-6.58789,2.99805-1.70215,0-3.28223-.4834-4.74219-1.4502-1.45996-.96582-2.63379-2.31641-3.52246-4.05371-1.70117-3.3418-2.55176-8.27148-2.55176-14.79199,0-8.35352,1.30762-14.20117,3.92285-17.54297,1.85254-2.29297,4.17578-3.43945,6.96973-3.43945ZM72.37793,30.25684c-1.5752,0-2.73633,1.24512-3.48535,3.73438-.74902,2.49023-1.12305,6.37305-1.12305,11.64648,0,3.01465.21484,5.72559.64746,8.13281.43066,2.4082.99023,4.00586,1.67578,4.79199s1.47168,1.17871,2.36133,1.17871c1.06543,0,1.94141-.52344,2.62695-1.57227.58398-.85156,1.06641-2.48145,1.44727-4.88965.38086-2.40723.57129-4.9707.57129-7.69043,0-6.38867-.55859-10.74512-1.67578-13.07129-.71094-1.50684-1.72656-2.26074-3.0459-2.26074Z"/>
    </g>
  </symbol>
  <symbol id="G21" viewBox="0 0 90 90">
    <rect fill="#c22047" x="0" y="18" width="90" height="54" rx="4" ry="4"/>
    <path fill="#fff" d="M32.20508,26.59131l-.32178,5.52344c-2.31543-1.74219-4.78564-2.61377-7.41064-2.61377-3.48486,0-6.30078,1.41406-8.44873,4.24121-2.14795,2.82812-3.22217,6.54297-3.22217,11.146,0,5.75391,1.53955,10.01123,4.61816,12.77295,2.07666,1.87402,4.45117,2.81055,7.12402,2.81055,1.24072,0,2.58936-.2959,4.04541-.8877v-11.58887h-6.229v-4.88281h10.34619v20.36816c-2.81641,1.24902-5.59717,1.87402-8.34131,1.87402-4.96436,0-8.87842-1.8418-11.74219-5.52344-2.86426-3.68164-4.29639-8.71191-4.29639-15.09082,0-6.21436,1.4917-11.12891,4.4751-14.74609,2.93555-3.55078,6.75391-5.32617,11.45605-5.32617,2.81592,0,5.46484.64111,7.94727,1.92334Z"/>
    <g>
      <path fill="#fff" d="M57.67676,58.80762v6.19238h-20.83203v-6.58496c4.26562-5.0127,7.54102-9.27148,9.82617-12.77734,2.36035-3.60352,3.54102-6.64941,3.54102-9.13965,0-1.73633-.4502-3.12109-1.35156-4.15234-.90137-1.03223-2.10156-1.54785-3.59863-1.54785-2.20898,0-4.64648,1.08105-7.3125,3.24316l-.49512-6.87988c1.87891-1.04785,3.50977-1.77734,4.89355-2.18652s2.90039-.61426,4.55176-.61426c2.99512,0,5.38867,1.01562,7.17871,3.0459,1.79004,2.03223,2.68457,4.75098,2.68457,8.1582,0,3.50586-1.23145,7.33887-3.69434,11.49902-2.51367,4.35742-5.30664,8.27246-8.37793,11.74414h12.98633Z"/>
      <path fill="#fff" d="M77.55664,65h-6.09277v-31.4502l-5.4082,5.84766-3.12305-5.11133,9.25488-9.28711h5.36914v40.00098Z"/>
    </g>
  </symbol>
  <symbol id="G22" viewBox="0 0 90 90">
    <rect fill="#c22047" x="0" y="18" width="90" height="54" rx="4" ry="4"/>
    <path fill="#fff" d="M32.20508,26.59131l-.32178,5.52344c-2.31543-1.74219-4.78564-2.61377-7.41064-2.61377-3.48486,0-6.30078,1.41406-8.44873,4.24121-2.14795,2.82812-3.22217,6.54297-3.22217,11.146,0,5.75391,1.53955,10.01123,4.61816,12.77295,2.07666,1.87402,4.45117,2.81055,7.12402,2.81055,1.24072,0,2.58936-.2959,4.04541-.8877v-11.58887h-6.229v-4.88281h10.34619v20.36816c-2.81641,1.24902-5.59717,1.87402-8.34131,1.87402-4.96436,0-8.87842-1.8418-11.74219-5.52344-2.86426-3.68164-4.29639-8.71191-4.29639-15.09082,0-6.21436,1.4917-11.12891,4.4751-14.74609,2.93555-3.55078,6.75391-5.32617,11.45605-5.32617,2.81592,0,5.46484.64111,7.94727,1.92334Z"/>
    <g>
      <path fill="#fff" d="M57.67676,58.80762v6.19238h-20.83203v-6.58496c4.26562-5.0127,7.54102-9.27148,9.82617-12.77734,2.36035-3.60352,3.54102-6.64941,3.54102-9.13965,0-1.73633-.4502-3.12109-1.35156-4.15234-.90137-1.03223-2.10156-1.54785-3.59863-1.54785-2.20898,0-4.64648,1.08105-7.3125,3.24316l-.49512-6.87988c1.87891-1.04785,3.50977-1.77734,4.89355-2.18652s2.90039-.61426,4.55176-.61426c2.99512,0,5.38867,1.01562,7.17871,3.0459,1.79004,2.03223,2.68457,4.75098,2.68457,8.1582,0,3.50586-1.23145,7.33887-3.69434,11.49902-2.51367,4.35742-5.30664,8.27246-8.37793,11.74414h12.98633Z"/>
      <path fill="#fff" d="M82.58398,58.80762v6.19238h-20.83203v-6.58496c4.26562-5.0127,7.54102-9.27148,9.82617-12.77734,2.36035-3.60352,3.54102-6.64941,3.54102-9.13965,0-1.73633-.4502-3.12109-1.35156-4.15234-.90137-1.03223-2.10156-1.54785-3.59863-1.54785-2.20898,0-4.64648,1.08105-7.3125,3.24316l-.49512-6.87988c1.87891-1.04785,3.50977-1.77734,4.89355-2.18652s2.90039-.61426,4.55176-.61426c2.99512,0,5.38867,1.01562,7.17871,3.0459,1.79004,2.03223,2.68457,4.75098,2.68457,8.1582,0,3.50586-1.23145,7.33887-3.69434,11.49902-2.51367,4.35742-5.30664,8.27246-8.37793,11.74414h12.98633Z"/>
    </g>
  </symbol>
  <symbol id="G23" viewBox="0 0 90 90">
    <rect fill="#c22047" x="0" y="18" width="90" height="54" rx="4" ry="4"/>
    <path fill="#fff" d="M32.20508,26.59131l-.32178,5.52344c-2.31543-1.74219-4.78564-2.61377-7.41064-2.61377-3.48486,0-6.30078,1.41406-8.44873,4.24121-2.14795,2.82812-3.22217,6.54297-3.22217,11.146,0,5.75391,1.53955,10.01123,4.61816,12.77295,2.07666,1.87402,4.45117,2.81055,7.12402,2.81055,1.24072,0,2.58936-.2959,4.04541-.8877v-11.58887h-6.229v-4.88281h10.34619v20.36816c-2.81641,1.24902-5.59717,1.87402-8.34131,1.87402-4.96436,0-8.87842-1.8418-11.74219-5.52344-2.86426-3.68164-4.29639-8.71191-4.29639-15.09082,0-6.21436,1.4917-11.12891,4.4751-14.74609,2.93555-3.55078,6.75391-5.32617,11.45605-5.32617,2.81592,0,5.46484.64111,7.94727,1.92334Z"/>
    <g>
      <path fill="#fff" d="M57.67676,58.80762v6.19238h-20.83203v-6.58496c4.26562-5.0127,7.54102-9.27148,9.82617-12.77734,2.36035-3.60352,3.54102-6.64941,3.54102-9.13965,0-1.73633-.4502-3.12109-1.35156-4.15234-.90137-1.03223-2.10156-1.54785-3.59863-1.54785-2.20898,0-4.64648,1.08105-7.3125,3.24316l-.49512-6.87988c1.87891-1.04785,3.50977-1.77734,4.89355-2.18652s2.90039-.61426,4.55176-.61426c2.99512,0,5.38867,1.01562,7.17871,3.0459,1.79004,2.03223,2.68457,4.75098,2.68457,8.1582,0,3.50586-1.23145,7.33887-3.69434,11.49902-2.51367,4.35742-5.30664,8.27246-8.37793,11.74414h12.98633Z"/>
      <path fill="#fff" d="M62.32324,64.21387l.34277-6.73242c2.48828,1.27734,4.81152,1.91602,6.96973,1.91602,2.08105,0,3.70605-.52344,4.87402-1.57227,1.16797-1.04785,1.75195-2.52246,1.75195-4.42285,0-1.6709-.43164-2.98047-1.29492-3.93164-1.21875-1.34277-3.16016-2.01465-5.82617-2.01465-.50879,0-1.44727.0332-2.81836.09863v-6.38867l1.86621.0498c3.22363,0,5.43262-.7207,6.62598-2.16309.86328-1.01465,1.29492-2.24316,1.29492-3.68555,0-1.53906-.49512-2.72656-1.48535-3.5625-.99023-.83496-2.38672-1.25293-4.18848-1.25293-2.28516,0-4.58398.65527-6.89355,1.96582l-.38086-6.38867c3.17383-1.17969,5.97949-1.76855,8.41699-1.76855,3.42676,0,6.09277.90137,7.99707,2.70215,1.9043,1.80273,2.85645,4.32422,2.85645,7.56836,0,4.91406-1.94238,8.04297-5.82715,9.38574,1.32031.55762,2.31055,1.09766,2.9707,1.62109.99023.78711,1.76465,1.90039,2.32324,3.3418.55859,1.44238.83789,3.06348.83789,4.86523,0,3.76758-1.14258,6.68359-3.42773,8.74707-2.31055,2.03125-5.35742,3.04688-9.13965,3.04688-2.54004,0-5.15527-.47559-7.8457-1.4248Z"/>
    </g>
  </symbol>
  <symbol id="G24" viewBox="0 0 90 90">
    <rect fill="#c22047" x="0" y="18" width="90" height="54" rx="4" ry="4"/>
    <path fill="#fff" d="M32.20508,26.59131l-.32178,5.52344c-2.31543-1.74219-4.78564-2.61377-7.41064-2.61377-3.48486,0-6.30078,1.41406-8.44873,4.24121-2.14795,2.82812-3.22217,6.54297-3.22217,11.146,0,5.75391,1.53955,10.01123,4.61816,12.77295,2.07666,1.87402,4.45117,2.81055,7.12402,2.81055,1.24072,0,2.58936-.2959,4.04541-.8877v-11.58887h-6.229v-4.88281h10.34619v20.36816c-2.81641,1.24902-5.59717,1.87402-8.34131,1.87402-4.96436,0-8.87842-1.8418-11.74219-5.52344-2.86426-3.68164-4.29639-8.71191-4.29639-15.09082,0-6.21436,1.4917-11.12891,4.4751-14.74609,2.93555-3.55078,6.75391-5.32617,11.45605-5.32617,2.81592,0,5.46484.64111,7.94727,1.92334Z"/>
    <g>
      <path fill="#fff" d="M57.67676,58.80762v6.19238h-20.83203v-6.58496c4.26562-5.0127,7.54102-9.27148,9.82617-12.77734,2.36035-3.60352,3.54102-6.64941,3.54102-9.13965,0-1.73633-.4502-3.12109-1.35156-4.15234-.90137-1.03223-2.10156-1.54785-3.59863-1.54785-2.20898,0-4.64648,1.08105-7.3125,3.24316l-.49512-6.87988c1.87891-1.04785,3.50977-1.77734,4.89355-2.18652s2.90039-.61426,4.55176-.61426c2.99512,0,5.38867,1.01562,7.17871,3.0459,1.79004,2.03223,2.68457,4.75098,2.68457,8.1582,0,3.50586-1.23145,7.33887-3.69434,11.49902-2.51367,4.35742-5.30664,8.27246-8.37793,11.74414h12.98633Z"/>
      <path fill="#fff" d="M84.22168,50.84668v6.04492h-4.0752v8.1084h-6.09375v-8.1084h-13.36719v-6.73242l11.61621-25.16016h7.84473v25.84766h4.0752ZM74.16699,50.84668l.15234-16.75684c0-.65527.06348-1.49023.19043-2.50586-.15234.39258-.46973,1.12988-.95215,2.21094l-7.34961,17.05176h7.95898Z"/>
    </g>
  </symbol>
  <symbol id="G25" viewBox="0 0 90 90">
    <rect fill="#c22047" x="0" y="18" width="90" height="54" rx="4" ry="4"/>
    <path fill="#fff" d="M32.20508,26.59131l-.32178,5.52344c-2.31543-1.74219-4.78564-2.61377-7.41064-2.61377-3.48486,0-6.30078,1.41406-8.44873,4.24121-2.14795,2.82812-3.22217,6.54297-3.22217,11.146,0,5.75391,1.53955,10.01123,4.61816,12.77295,2.07666,1.87402,4.45117,2.81055,7.12402,2.81055,1.24072,0,2.58936-.2959,4.04541-.8877v-11.58887h-6.229v-4.88281h10.34619v20.36816c-2.81641,1.24902-5.59717,1.87402-8.34131,1.87402-4.96436,0-8.87842-1.8418-11.74219-5.52344-2.86426-3.68164-4.29639-8.71191-4.29639-15.09082,0-6.21436,1.4917-11.12891,4.4751-14.74609,2.93555-3.55078,6.75391-5.32617,11.45605-5.32617,2.81592,0,5.46484.64111,7.94727,1.92334Z"/>
    <g>
      <path fill="#fff" d="M57.67676,58.80762v6.19238h-20.83203v-6.58496c4.26562-5.0127,7.54102-9.27148,9.82617-12.77734,2.36035-3.60352,3.54102-6.64941,3.54102-9.13965,0-1.73633-.4502-3.12109-1.35156-4.15234-.90137-1.03223-2.10156-1.54785-3.59863-1.54785-2.20898,0-4.64648,1.08105-7.3125,3.24316l-.49512-6.87988c1.87891-1.04785,3.50977-1.77734,4.89355-2.18652s2.90039-.61426,4.55176-.61426c2.99512,0,5.38867,1.01562,7.17871,3.0459,1.79004,2.03223,2.68457,4.75098,2.68457,8.1582,0,3.50586-1.23145,7.33887-3.69434,11.49902-2.51367,4.35742-5.30664,8.27246-8.37793,11.74414h12.98633Z"/>
      <path fill="#fff" d="M63.2373,64.41016l.15234-7.1748c2.33594,1.31055,4.50586,1.96582,6.5127,1.96582,2.00488,0,3.59863-.60547,4.7793-1.81836,1.18066-1.21191,1.77051-2.86621,1.77051-4.96289,0-2.19434-.6416-3.93164-1.92285-5.20898-1.28223-1.27832-3.01562-1.91699-5.19824-1.91699-1.59961,0-3.46582.37695-5.59863,1.13086l.2666-21.22949h17.97559v6.14258h-12.18652l-.19043,8.05957c1.11621-.13086,2.00488-.19727,2.66602-.19727,3.22363,0,5.82031,1.18848,7.78809,3.56348,1.9668,2.375,2.95117,5.51172,2.95117,9.41016,0,4.25879-1.11133,7.56738-3.33203,9.92676-2.22266,2.3584-5.32617,3.53809-9.31152,3.53809-1.5752,0-3.31348-.24609-5.21777-.7373l-1.9043-.49121Z"/>
     </g>
  </symbol>
  <symbol id="G26" viewBox="0 0 90 90">
    <rect fill="#c22047" x="0" y="18" width="90" height="54" rx="4" ry="4"/>
    <path fill="#fff" d="M32.20508,26.59131l-.32178,5.52344c-2.31543-1.74219-4.78564-2.61377-7.41064-2.61377-3.48486,0-6.30078,1.41406-8.44873,4.24121-2.14795,2.82812-3.22217,6.54297-3.22217,11.146,0,5.75391,1.53955,10.01123,4.61816,12.77295,2.07666,1.87402,4.45117,2.81055,7.12402,2.81055,1.24072,0,2.58936-.2959,4.04541-.8877v-11.58887h-6.229v-4.88281h10.34619v20.36816c-2.81641,1.24902-5.59717,1.87402-8.34131,1.87402-4.96436,0-8.87842-1.8418-11.74219-5.52344-2.86426-3.68164-4.29639-8.71191-4.29639-15.09082,0-6.21436,1.4917-11.12891,4.4751-14.74609,2.93555-3.55078,6.75391-5.32617,11.45605-5.32617,2.81592,0,5.46484.64111,7.94727,1.92334Z"/>
    <g>
      <path fill="#fff" d="M57.67676,58.80762v6.19238h-20.83203v-6.58496c4.26562-5.0127,7.54102-9.27148,9.82617-12.77734,2.36035-3.60352,3.54102-6.64941,3.54102-9.13965,0-1.73633-.4502-3.12109-1.35156-4.15234-.90137-1.03223-2.10156-1.54785-3.59863-1.54785-2.20898,0-4.64648,1.08105-7.3125,3.24316l-.49512-6.87988c1.87891-1.04785,3.50977-1.77734,4.89355-2.18652s2.90039-.61426,4.55176-.61426c2.99512,0,5.38867,1.01562,7.17871,3.0459,1.79004,2.03223,2.68457,4.75098,2.68457,8.1582,0,3.50586-1.23145,7.33887-3.69434,11.49902-2.51367,4.35742-5.30664,8.27246-8.37793,11.74414h12.98633Z"/>
      <path fill="#fff" d="M78.85156,24.85156l-.11426,5.99512c-1.21875-.22852-2.13281-.34375-2.74219-.34375-2.48828,0-4.37891.92578-5.67383,2.77637s-2.09473,4.77539-2.39941,8.77148c.8623-1.14648,1.73828-1.96582,2.62793-2.45703.8877-.49121,1.98047-.7373,3.27441-.7373,2.79297,0,5.01465,1.18848,6.66504,3.5625,1.65039,2.37598,2.47559,5.59473,2.47559,9.65625,0,4.19434-.9082,7.50293-2.72266,9.92676-1.81543,2.42383-4.28516,3.63672-7.4082,3.63672-3.75781,0-6.53125-1.47461-8.32129-4.42285s-2.68457-7.53516-2.68457-13.75977c0-4.68457.4502-8.75488,1.35156-12.21094s2.19043-6.06934,3.86621-7.83887c1.92871-2.03027,4.50586-3.0459,7.73047-3.0459,1.29492,0,2.65332.16406,4.0752.49121ZM72.30176,44.90137c-1.29492,0-2.31738.64648-3.06641,1.94043-.74902,1.29492-1.12305,3.05566-1.12305,5.2832,0,2.32617.39258,4.17676,1.18066,5.55273.78613,1.37598,1.85254,2.06348,3.19922,2.06348,1.31934,0,2.36035-.6709,3.12207-2.01465.76172-1.34277,1.14258-3.17676,1.14258-5.50391,0-2.29199-.39355-4.08594-1.18066-5.38086-.78711-1.29395-1.87891-1.94043-3.27441-1.94043Z"/>
    </g>
  </symbol>
  <symbol id="G27" viewBox="0 0 90 90">
    <rect fill="#c22047" x="0" y="18" width="90" height="54" rx="4" ry="4"/>
    <path fill="#fff" d="M32.20508,26.59131l-.32178,5.52344c-2.31543-1.74219-4.78564-2.61377-7.41064-2.61377-3.48486,0-6.30078,1.41406-8.44873,4.24121-2.14795,2.82812-3.22217,6.54297-3.22217,11.146,0,5.75391,1.53955,10.01123,4.61816,12.77295,2.07666,1.87402,4.45117,2.81055,7.12402,2.81055,1.24072,0,2.58936-.2959,4.04541-.8877v-11.58887h-6.229v-4.88281h10.34619v20.36816c-2.81641,1.24902-5.59717,1.87402-8.34131,1.87402-4.96436,0-8.87842-1.8418-11.74219-5.52344-2.86426-3.68164-4.29639-8.71191-4.29639-15.09082,0-6.21436,1.4917-11.12891,4.4751-14.74609,2.93555-3.55078,6.75391-5.32617,11.45605-5.32617,2.81592,0,5.46484.64111,7.94727,1.92334Z"/>
    <g>
      <path fill="#fff" d="M57.67676,58.80762v6.19238h-20.83203v-6.58496c4.26562-5.0127,7.54102-9.27148,9.82617-12.77734,2.36035-3.60352,3.54102-6.64941,3.54102-9.13965,0-1.73633-.4502-3.12109-1.35156-4.15234-.90137-1.03223-2.10156-1.54785-3.59863-1.54785-2.20898,0-4.64648,1.08105-7.3125,3.24316l-.49512-6.87988c1.87891-1.04785,3.50977-1.77734,4.89355-2.18652s2.90039-.61426,4.55176-.61426c2.99512,0,5.38867,1.01562,7.17871,3.0459,1.79004,2.03223,2.68457,4.75098,2.68457,8.1582,0,3.50586-1.23145,7.33887-3.69434,11.49902-2.51367,4.35742-5.30664,8.27246-8.37793,11.74414h12.98633Z"/>
      <path fill="#fff" d="M71.6543,65h-6.7793l11.65332-33.71094h-14.20508v-6.09375h20.29883v6.14258l-10.96777,33.66211Z"/>
    </g>
  </symbol>
  <symbol id="G28" viewBox="0 0 90 90">
    <rect fill="#c22047" x="0" y="18" width="90" height="54" rx="4" ry="4"/>
    <path fill="#fff" d="M32.20508,26.59131l-.32178,5.52344c-2.31543-1.74219-4.78564-2.61377-7.41064-2.61377-3.48486,0-6.30078,1.41406-8.44873,4.24121-2.14795,2.82812-3.22217,6.54297-3.22217,11.146,0,5.75391,1.53955,10.01123,4.61816,12.77295,2.07666,1.87402,4.45117,2.81055,7.12402,2.81055,1.24072,0,2.58936-.2959,4.04541-.8877v-11.58887h-6.229v-4.88281h10.34619v20.36816c-2.81641,1.24902-5.59717,1.87402-8.34131,1.87402-4.96436,0-8.87842-1.8418-11.74219-5.52344-2.86426-3.68164-4.29639-8.71191-4.29639-15.09082,0-6.21436,1.4917-11.12891,4.4751-14.74609,2.93555-3.55078,6.75391-5.32617,11.45605-5.32617,2.81592,0,5.46484.64111,7.94727,1.92334Z"/>
    <g>
      <path fill="#fff" d="M57.67676,58.80762v6.19238h-20.83203v-6.58496c4.26562-5.0127,7.54102-9.27148,9.82617-12.77734,2.36035-3.60352,3.54102-6.64941,3.54102-9.13965,0-1.73633-.4502-3.12109-1.35156-4.15234-.90137-1.03223-2.10156-1.54785-3.59863-1.54785-2.20898,0-4.64648,1.08105-7.3125,3.24316l-.49512-6.87988c1.87891-1.04785,3.50977-1.77734,4.89355-2.18652s2.90039-.61426,4.55176-.61426c2.99512,0,5.38867,1.01562,7.17871,3.0459,1.79004,2.03223,2.68457,4.75098,2.68457,8.1582,0,3.50586-1.23145,7.33887-3.69434,11.49902-2.51367,4.35742-5.30664,8.27246-8.37793,11.74414h12.98633Z"/>
      <path fill="#fff" d="M77.1377,43.37793c1.32031.62207,2.34863,1.26074,3.08496,1.91602,2.05664,1.86719,3.08496,4.71777,3.08496,8.55078,0,3.63672-.96484,6.51074-2.89453,8.62402s-4.55762,3.16992-7.88281,3.16992c-3.32715,0-5.97949-1.04883-7.95996-3.14551-1.98047-2.0957-2.9707-4.89648-2.9707-8.40234,0-3.30859.87598-5.94629,2.62793-7.91211.78613-.85156,1.82812-1.55566,3.12305-2.11328-1.27051-.6875-2.23438-1.4248-2.89453-2.21094-1.52344-1.86719-2.28516-4.19336-2.28516-6.97852,0-3.17676.93262-5.72461,2.79883-7.6416,1.86621-1.91602,4.34766-2.87402,7.44629-2.87402,3.0459,0,5.47754.87598,7.29297,2.62891,1.81445,1.75293,2.72266,4.12012,2.72266,7.10059,0,3.11328-.90137,5.60254-2.7041,7.46973-.58398.62207-1.44727,1.22852-2.58984,1.81836ZM71.88281,47.30859c-1.44727.75391-2.49512,1.66309-3.14258,2.72754-.64746,1.06543-.9707,2.40039-.9707,4.00488,0,1.7373.4502,3.15332,1.35156,4.25098s2.07617,1.64648,3.52344,1.64648c1.37012,0,2.45605-.49902,3.25586-1.49902.7998-.99902,1.19922-2.36621,1.19922-4.10352,0-1.57227-.33691-2.88184-1.00879-3.93066-.67285-1.04883-1.7334-1.91699-3.18066-2.60449-.50781-.2627-.85059-.42578-1.02734-.49219ZM72.83398,41.16602c1.3457-.85156,2.31055-1.76074,2.89453-2.72754.58398-.96582.87598-2.1377.87598-3.5127,0-1.47461-.38086-2.66992-1.14258-3.58789-.76172-.91699-1.76465-1.37598-3.00781-1.37598-1.27051,0-2.31152.45117-3.12305,1.35156-.81348.90137-1.21875,2.05664-1.21875,3.46484,0,2.3584,1.19238,4.27441,3.58008,5.74902l1.1416.63867Z"/>
    </g>
  </symbol>
</svg>
