<?xml version="1.0" encoding="UTF-8"?>
<svg xmlns="http://www.w3.org/2000/svg" xmlns:xlink="http://www.w3.org/1999/xlink">
  <symbol id="O" viewBox="0 0 90 90">
    <rect fill="#008446" y="0" width="90" height="90" rx="13.5" ry="13.5"/>
    <path fill="#fff" d="M45.06348,18.32959c7.63867,0,13.73438,2.41406,18.29004,7.24023,4.55371,4.82812,6.83105,11.29199,6.83105,19.3916,0,8.14404-2.28809,14.6499-6.86328,19.51904-4.5752,4.86816-10.72461,7.30273-18.44727,7.30273-7.63965,0-13.72461-2.40332-18.25781-7.20898s-6.7998-11.23828-6.7998-19.29736c0-8.35254,2.25586-14.93164,6.76758-19.73828,4.51172-4.80566,10.67188-7.20898,18.47949-7.20898ZM44.68555,25.38135c-4.5332,0-8.15332,1.78418-10.86035,5.35156-2.70801,3.56836-4.06152,8.33203-4.06152,14.29199,0,5.45703,1.2168,10.01123,3.65234,13.6626,2.68555,4.0293,6.56836,6.04395,11.64746,6.04395,4.91016,0,8.72949-2.01465,11.45801-6.04395,2.47656-3.69238,3.71484-8.20557,3.71484-13.53662,0-5.58203-1.25879-10.17773-3.77734-13.78809-2.77051-3.9873-6.69531-5.98145-11.77344-5.98145Z"/>
  </symbol>
  <symbol id="O16" viewBox="0 0 90 90">
    <rect fill="#008446" x="0" y="18" width="90" height="54" rx="4" ry="4"/>
    <path fill="#fff" d="M21.44922,24.26172c4.66797,0,8.1416,2.57227,10.4209,7.71533,1.61426,3.604,2.42236,7.97754,2.42236,13.12061,0,5.99512-1.07324,10.87695-3.21924,14.64355-2.27881,3.99707-5.52002,5.99609-9.72363,5.99609-5.13281,0-8.82715-2.91699-11.08398-8.74805-1.37207-3.60254-2.05762-7.5835-2.05762-11.94092,0-3.96338.56396-7.6167,1.69238-10.9585,2.2124-6.55176,6.06201-9.82812,11.54883-9.82812ZM21.34961,28.78271c-2.72119,0-4.90039,1.48242-6.5376,4.44727-1.6377,2.96533-2.45557,6.88818-2.45557,11.76904,0,4.81592.82373,8.72266,2.47217,11.7207,1.64795,2.99707,3.7998,4.49609,6.45459,4.49609,2.63281,0,4.77344-1.49902,6.42188-4.49609,1.64795-2.99805,2.47217-6.87158,2.47217-11.62207,0-4.84814-.81299-8.7793-2.43896-11.79395-1.62646-3.01367-3.75586-4.521-6.38867-4.521Z"/>
    <g>
      <path fill="#fff" d="M52.64941,65h-6.09277v-31.4502l-5.4082,5.84766-3.12305-5.11133,9.25488-9.28711h5.36914v40.00098Z"/>
      <path fill="#fff" d="M78.85156,24.85156l-.11426,5.99512c-1.21875-.22852-2.13281-.34375-2.74219-.34375-2.48828,0-4.37891.92578-5.67383,2.77637s-2.09473,4.77539-2.39941,8.77148c.8623-1.14648,1.73828-1.96582,2.62793-2.45703.8877-.49121,1.98047-.7373,3.27441-.7373,2.79297,0,5.01465,1.18848,6.66504,3.5625,1.65039,2.37598,2.47559,5.59473,2.47559,9.65625,0,4.19434-.9082,7.50293-2.72266,9.92676-1.81543,2.42383-4.28516,3.63672-7.4082,3.63672-3.75781,0-6.53125-1.47461-8.32129-4.42285s-2.68457-7.53516-2.68457-13.75977c0-4.68457.4502-8.75488,1.35156-12.21094s2.19043-6.06934,3.86621-7.83887c1.92871-2.03027,4.50586-3.0459,7.73047-3.0459,1.29492,0,2.65332.16406,4.0752.49121ZM72.30176,44.90137c-1.29492,0-2.31738.64648-3.06641,1.94043-.74902,1.29492-1.12305,3.05566-1.12305,5.2832,0,2.32617.39258,4.17676,1.18066,5.55273.78613,1.37598,1.85254,2.06348,3.19922,2.06348,1.31934,0,2.36035-.6709,3.12207-2.01465.76172-1.34277,1.14258-3.17676,1.14258-5.50391,0-2.29199-.39355-4.08594-1.18066-5.38086-.78711-1.29395-1.87891-1.94043-3.27441-1.94043Z"/>
    </g>
  </symbol>
  <symbol id="O17" viewBox="0 0 90 90">
    <rect fill="#008446" x="0" y="18" width="90" height="54" rx="4" ry="4"/>
    <path fill="#fff" d="M21.44922,24.26172c4.66797,0,8.1416,2.57227,10.4209,7.71533,1.61426,3.604,2.42236,7.97754,2.42236,13.12061,0,5.99512-1.07324,10.87695-3.21924,14.64355-2.27881,3.99707-5.52002,5.99609-9.72363,5.99609-5.13281,0-8.82715-2.91699-11.08398-8.74805-1.37207-3.60254-2.05762-7.5835-2.05762-11.94092,0-3.96338.56396-7.6167,1.69238-10.9585,2.2124-6.55176,6.06201-9.82812,11.54883-9.82812ZM21.34961,28.78271c-2.72119,0-4.90039,1.48242-6.5376,4.44727-1.6377,2.96533-2.45557,6.88818-2.45557,11.76904,0,4.81592.82373,8.72266,2.47217,11.7207,1.64795,2.99707,3.7998,4.49609,6.45459,4.49609,2.63281,0,4.77344-1.49902,6.42188-4.49609,1.64795-2.99805,2.47217-6.87158,2.47217-11.62207,0-4.84814-.81299-8.7793-2.43896-11.79395-1.62646-3.01367-3.75586-4.521-6.38867-4.521Z"/>
    <g>
      <path fill="#fff" d="M52.64941,65h-6.09277v-31.4502l-5.4082,5.84766-3.12305-5.11133,9.25488-9.28711h5.36914v40.00098Z"/>
      <path fill="#fff" d="M71.6543,65h-6.7793l11.65332-33.71094h-14.20508v-6.09375h20.29883v6.14258l-10.96777,33.66211Z"/>
    </g>
  </symbol>
  <symbol id="O18" viewBox="0 0 90 90">
    <rect fill="#008446" x="0" y="18" width="90" height="54" rx="4" ry="4"/>
    <path fill="#fff" d="M21.44922,24.26172c4.66797,0,8.1416,2.57227,10.4209,7.71533,1.61426,3.604,2.42236,7.97754,2.42236,13.12061,0,5.99512-1.07324,10.87695-3.21924,14.64355-2.27881,3.99707-5.52002,5.99609-9.72363,5.99609-5.13281,0-8.82715-2.91699-11.08398-8.74805-1.37207-3.60254-2.05762-7.5835-2.05762-11.94092,0-3.96338.56396-7.6167,1.69238-10.9585,2.2124-6.55176,6.06201-9.82812,11.54883-9.82812ZM21.34961,28.78271c-2.72119,0-4.90039,1.48242-6.5376,4.44727-1.6377,2.96533-2.45557,6.88818-2.45557,11.76904,0,4.81592.82373,8.72266,2.47217,11.7207,1.64795,2.99707,3.7998,4.49609,6.45459,4.49609,2.63281,0,4.77344-1.49902,6.42188-4.49609,1.64795-2.99805,2.47217-6.87158,2.47217-11.62207,0-4.84814-.81299-8.7793-2.43896-11.79395-1.62646-3.01367-3.75586-4.521-6.38867-4.521Z"/>
    <g>
      <path fill="#fff" d="M52.64941,65h-6.09277v-31.4502l-5.4082,5.84766-3.12305-5.11133,9.25488-9.28711h5.36914v40.00098Z"/>
      <path fill="#fff" d="M77.1377,43.37793c1.32031.62207,2.34863,1.26074,3.08496,1.91602,2.05664,1.86719,3.08496,4.71777,3.08496,8.55078,0,3.63672-.96484,6.51074-2.89453,8.62402s-4.55762,3.16992-7.88281,3.16992c-3.32715,0-5.97949-1.04883-7.95996-3.14551-1.98047-2.0957-2.9707-4.89648-2.9707-8.40234,0-3.30859.87598-5.94629,2.62793-7.91211.78613-.85156,1.82812-1.55566,3.12305-2.11328-1.27051-.6875-2.23438-1.4248-2.89453-2.21094-1.52344-1.86719-2.28516-4.19336-2.28516-6.97852,0-3.17676.93262-5.72461,2.79883-7.6416,1.86621-1.91602,4.34766-2.87402,7.44629-2.87402,3.0459,0,5.47754.87598,7.29297,2.62891,1.81445,1.75293,2.72266,4.12012,2.72266,7.10059,0,3.11328-.90137,5.60254-2.7041,7.46973-.58398.62207-1.44727,1.22852-2.58984,1.81836ZM71.88281,47.30859c-1.44727.75391-2.49512,1.66309-3.14258,2.72754-.64746,1.06543-.9707,2.40039-.9707,4.00488,0,1.7373.4502,3.15332,1.35156,4.25098s2.07617,1.64648,3.52344,1.64648c1.37012,0,2.45605-.49902,3.25586-1.49902.7998-.99902,1.19922-2.36621,1.19922-4.10352,0-1.57227-.33691-2.88184-1.00879-3.93066-.67285-1.04883-1.7334-1.91699-3.18066-2.60449-.50781-.2627-.85059-.42578-1.02734-.49219ZM72.83398,41.16602c1.3457-.85156,2.31055-1.76074,2.89453-2.72754.58398-.96582.87598-2.1377.87598-3.5127,0-1.47461-.38086-2.66992-1.14258-3.58789-.76172-.91699-1.76465-1.37598-3.00781-1.37598-1.27051,0-2.31152.45117-3.12305,1.35156-.81348.90137-1.21875,2.05664-1.21875,3.46484,0,2.3584,1.19238,4.27441,3.58008,5.74902l1.1416.63867Z"/>
    </g>
  </symbol>
  <symbol id="O19" viewBox="0 0 90 90">
    <rect fill="#008446" x="0" y="18" width="90" height="54" rx="4" ry="4"/>
    <path fill="#fff" d="M21.44922,24.26172c4.66797,0,8.1416,2.57227,10.4209,7.71533,1.61426,3.604,2.42236,7.97754,2.42236,13.12061,0,5.99512-1.07324,10.87695-3.21924,14.64355-2.27881,3.99707-5.52002,5.99609-9.72363,5.99609-5.13281,0-8.82715-2.91699-11.08398-8.74805-1.37207-3.60254-2.05762-7.5835-2.05762-11.94092,0-3.96338.56396-7.6167,1.69238-10.9585,2.2124-6.55176,6.06201-9.82812,11.54883-9.82812ZM21.34961,28.78271c-2.72119,0-4.90039,1.48242-6.5376,4.44727-1.6377,2.96533-2.45557,6.88818-2.45557,11.76904,0,4.81592.82373,8.72266,2.47217,11.7207,1.64795,2.99707,3.7998,4.49609,6.45459,4.49609,2.63281,0,4.77344-1.49902,6.42188-4.49609,1.64795-2.99805,2.47217-6.87158,2.47217-11.62207,0-4.84814-.81299-8.7793-2.43896-11.79395-1.62646-3.01367-3.75586-4.521-6.38867-4.521Z"/>
    <g>
      <path fill="#fff" d="M52.64941,65h-6.09277v-31.4502l-5.4082,5.84766-3.12305-5.11133,9.25488-9.28711h5.36914v40.00098Z"/>
      <path fill="#fff" d="M62.36133,62.49316l2.32324-5.50391c1.16699,1.0498,2.12598,1.76172,2.875,2.1377.74902.37695,1.63086.56543,2.64746.56543,2.46191,0,4.27734-1.26074,5.44531-3.78418.71094-1.57227,1.18066-4.16016,1.40918-7.76367-.86328,1.08105-1.73926,1.85059-2.62793,2.30957s-1.97949.6875-3.27441.6875c-2.99707,0-5.31934-1.27734-6.96973-3.83301-1.59961-2.45703-2.39941-5.63379-2.39941-9.5332,0-4.29102.92676-7.59961,2.78027-9.92676,1.85254-2.3252,4.49414-3.48828,7.92188-3.48828,3.47754,0,6.11816,1.57227,7.9209,4.7168,1.77734,3.04688,2.66602,7.81348,2.66602,14.30078,0,4.32422-.35547,8.125-1.06641,11.40039-.71094,3.27637-1.70117,5.7334-2.9707,7.37109-1.95508,2.42383-4.5957,3.63672-7.9209,3.63672-3.12305,0-6.04297-1.09766-8.75977-3.29297ZM72.14941,30.25684c-1.24512,0-2.25391.68066-3.02832,2.03906-.77441,1.36035-1.16113,3.1543-1.16113,5.38086,0,2.19531.41211,3.96484,1.2373,5.30762.8252,1.34375,1.91016,2.01465,3.25684,2.01465,1.29395,0,2.31641-.59668,3.06543-1.79297.74805-1.19629,1.12305-2.8418,1.12305-4.93945,0-2.48926-.39941-4.44727-1.19922-5.87207s-1.89844-2.1377-3.29395-2.1377Z"/>
    </g>
  </symbol>
  <symbol id="O20" viewBox="0 0 90 90">
    <rect fill="#008446" x="0" y="18" width="90" height="54" rx="4" ry="4"/>
    <path fill="#fff" d="M21.44922,24.26172c4.66797,0,8.1416,2.57227,10.4209,7.71533,1.61426,3.604,2.42236,7.97754,2.42236,13.12061,0,5.99512-1.07324,10.87695-3.21924,14.64355-2.27881,3.99707-5.52002,5.99609-9.72363,5.99609-5.13281,0-8.82715-2.91699-11.08398-8.74805-1.37207-3.60254-2.05762-7.5835-2.05762-11.94092,0-3.96338.56396-7.6167,1.69238-10.9585,2.2124-6.55176,6.06201-9.82812,11.54883-9.82812ZM21.34961,28.78271c-2.72119,0-4.90039,1.48242-6.5376,4.44727-1.6377,2.96533-2.45557,6.88818-2.45557,11.76904,0,4.81592.82373,8.72266,2.47217,11.7207,1.64795,2.99707,3.7998,4.49609,6.45459,4.49609,2.63281,0,4.77344-1.49902,6.42188-4.49609,1.64795-2.99805,2.47217-6.87158,2.47217-11.62207,0-4.84814-.81299-8.7793-2.43896-11.79395-1.62646-3.01367-3.75586-4.521-6.38867-4.521Z"/>
    <g>
      <path fill="#fff" d="M57.67676,58.80762v6.19238h-20.83203v-6.58496c4.26562-5.0127,7.54102-9.27148,9.82617-12.77734,2.36035-3.60352,3.54102-6.64941,3.54102-9.13965,0-1.73633-.4502-3.12109-1.35156-4.15234-.90137-1.03223-2.10156-1.54785-3.59863-1.54785-2.20898,0-4.64648,1.08105-7.3125,3.24316l-.49512-6.87988c1.87891-1.04785,3.50977-1.77734,4.89355-2.18652s2.90039-.61426,4.55176-.61426c2.99512,0,5.38867,1.01562,7.17871,3.0459,1.79004,2.03223,2.68457,4.75098,2.68457,8.1582,0,3.50586-1.23145,7.33887-3.69434,11.49902-2.51367,4.35742-5.30664,8.27246-8.37793,11.74414h12.98633Z"/>
      <path fill="#fff" d="M72.49219,24.36035c3.22363,0,5.81348,1.62109,7.76855,4.86426,2.00586,3.27637,3.00879,8.61719,3.00879,16.02051,0,8.45215-1.42188,14.25098-4.26562,17.39551-1.82812,1.99805-4.02441,2.99805-6.58789,2.99805-1.70215,0-3.28223-.4834-4.74219-1.4502-1.45996-.96582-2.63379-2.31641-3.52246-4.05371-1.70117-3.3418-2.55176-8.27148-2.55176-14.79199,0-8.35352,1.30762-14.20117,3.92285-17.54297,1.85254-2.29297,4.17578-3.43945,6.96973-3.43945ZM72.37793,30.25684c-1.5752,0-2.73633,1.24512-3.48535,3.73438-.74902,2.49023-1.12305,6.37305-1.12305,11.64648,0,3.01465.21484,5.72559.64746,8.13281.43066,2.4082.99023,4.00586,1.67578,4.79199s1.47168,1.17871,2.36133,1.17871c1.06543,0,1.94141-.52344,2.62695-1.57227.58398-.85156,1.06641-2.48145,1.44727-4.88965.38086-2.40723.57129-4.9707.57129-7.69043,0-6.38867-.55859-10.74512-1.67578-13.07129-.71094-1.50684-1.72656-2.26074-3.0459-2.26074Z"/>
    </g>
  </symbol>
  <symbol id="O21" viewBox="0 0 90 90">
    <rect fill="#008446" x="0" y="18" width="90" height="54" rx="4" ry="4"/>
    <path fill="#fff" d="M21.44922,24.26172c4.66797,0,8.1416,2.57227,10.4209,7.71533,1.61426,3.604,2.42236,7.97754,2.42236,13.12061,0,5.99512-1.07324,10.87695-3.21924,14.64355-2.27881,3.99707-5.52002,5.99609-9.72363,5.99609-5.13281,0-8.82715-2.91699-11.08398-8.74805-1.37207-3.60254-2.05762-7.5835-2.05762-11.94092,0-3.96338.56396-7.6167,1.69238-10.9585,2.2124-6.55176,6.06201-9.82812,11.54883-9.82812ZM21.34961,28.78271c-2.72119,0-4.90039,1.48242-6.5376,4.44727-1.6377,2.96533-2.45557,6.88818-2.45557,11.76904,0,4.81592.82373,8.72266,2.47217,11.7207,1.64795,2.99707,3.7998,4.49609,6.45459,4.49609,2.63281,0,4.77344-1.49902,6.42188-4.49609,1.64795-2.99805,2.47217-6.87158,2.47217-11.62207,0-4.84814-.81299-8.7793-2.43896-11.79395-1.62646-3.01367-3.75586-4.521-6.38867-4.521Z"/>
    <g>
      <path fill="#fff" d="M57.67676,58.80762v6.19238h-20.83203v-6.58496c4.26562-5.0127,7.54102-9.27148,9.82617-12.77734,2.36035-3.60352,3.54102-6.64941,3.54102-9.13965,0-1.73633-.4502-3.12109-1.35156-4.15234-.90137-1.03223-2.10156-1.54785-3.59863-1.54785-2.20898,0-4.64648,1.08105-7.3125,3.24316l-.49512-6.87988c1.87891-1.04785,3.50977-1.77734,4.89355-2.18652s2.90039-.61426,4.55176-.61426c2.99512,0,5.38867,1.01562,7.17871,3.0459,1.79004,2.03223,2.68457,4.75098,2.68457,8.1582,0,3.50586-1.23145,7.33887-3.69434,11.49902-2.51367,4.35742-5.30664,8.27246-8.37793,11.74414h12.98633Z"/>
      <path fill="#fff" d="M77.55664,65h-6.09277v-31.4502l-5.4082,5.84766-3.12305-5.11133,9.25488-9.28711h5.36914v40.00098Z"/>
    </g>
  </symbol>
  <symbol id="O22" viewBox="0 0 90 90">
    <rect fill="#008446" x="0" y="18" width="90" height="54" rx="4" ry="4"/>
    <path fill="#fff" d="M21.44922,24.26172c4.66797,0,8.1416,2.57227,10.4209,7.71533,1.61426,3.604,2.42236,7.97754,2.42236,13.12061,0,5.99512-1.07324,10.87695-3.21924,14.64355-2.27881,3.99707-5.52002,5.99609-9.72363,5.99609-5.13281,0-8.82715-2.91699-11.08398-8.74805-1.37207-3.60254-2.05762-7.5835-2.05762-11.94092,0-3.96338.56396-7.6167,1.69238-10.9585,2.2124-6.55176,6.06201-9.82812,11.54883-9.82812ZM21.34961,28.78271c-2.72119,0-4.90039,1.48242-6.5376,4.44727-1.6377,2.96533-2.45557,6.88818-2.45557,11.76904,0,4.81592.82373,8.72266,2.47217,11.7207,1.64795,2.99707,3.7998,4.49609,6.45459,4.49609,2.63281,0,4.77344-1.49902,6.42188-4.49609,1.64795-2.99805,2.47217-6.87158,2.47217-11.62207,0-4.84814-.81299-8.7793-2.43896-11.79395-1.62646-3.01367-3.75586-4.521-6.38867-4.521Z"/>
    <g>
      <path fill="#fff" d="M57.67676,58.80762v6.19238h-20.83203v-6.58496c4.26562-5.0127,7.54102-9.27148,9.82617-12.77734,2.36035-3.60352,3.54102-6.64941,3.54102-9.13965,0-1.73633-.4502-3.12109-1.35156-4.15234-.90137-1.03223-2.10156-1.54785-3.59863-1.54785-2.20898,0-4.64648,1.08105-7.3125,3.24316l-.49512-6.87988c1.87891-1.04785,3.50977-1.77734,4.89355-2.18652s2.90039-.61426,4.55176-.61426c2.99512,0,5.38867,1.01562,7.17871,3.0459,1.79004,2.03223,2.68457,4.75098,2.68457,8.1582,0,3.50586-1.23145,7.33887-3.69434,11.49902-2.51367,4.35742-5.30664,8.27246-8.37793,11.74414h12.98633Z"/>
      <path fill="#fff" d="M82.58398,58.80762v6.19238h-20.83203v-6.58496c4.26562-5.0127,7.54102-9.27148,9.82617-12.77734,2.36035-3.60352,3.54102-6.64941,3.54102-9.13965,0-1.73633-.4502-3.12109-1.35156-4.15234-.90137-1.03223-2.10156-1.54785-3.59863-1.54785-2.20898,0-4.64648,1.08105-7.3125,3.24316l-.49512-6.87988c1.87891-1.04785,3.50977-1.77734,4.89355-2.18652s2.90039-.61426,4.55176-.61426c2.99512,0,5.38867,1.01562,7.17871,3.0459,1.79004,2.03223,2.68457,4.75098,2.68457,8.1582,0,3.50586-1.23145,7.33887-3.69434,11.49902-2.51367,4.35742-5.30664,8.27246-8.37793,11.74414h12.98633Z"/>
    </g>
  </symbol>
  <symbol id="O23" viewBox="0 0 90 90">
    <rect fill="#008446" x="0" y="18" width="90" height="54" rx="4" ry="4"/>
    <path fill="#fff" d="M21.44922,24.26172c4.66797,0,8.1416,2.57227,10.4209,7.71533,1.61426,3.604,2.42236,7.97754,2.42236,13.12061,0,5.99512-1.07324,10.87695-3.21924,14.64355-2.27881,3.99707-5.52002,5.99609-9.72363,5.99609-5.13281,0-8.82715-2.91699-11.08398-8.74805-1.37207-3.60254-2.05762-7.5835-2.05762-11.94092,0-3.96338.56396-7.6167,1.69238-10.9585,2.2124-6.55176,6.06201-9.82812,11.54883-9.82812ZM21.34961,28.78271c-2.72119,0-4.90039,1.48242-6.5376,4.44727-1.6377,2.96533-2.45557,6.88818-2.45557,11.76904,0,4.81592.82373,8.72266,2.47217,11.7207,1.64795,2.99707,3.7998,4.49609,6.45459,4.49609,2.63281,0,4.77344-1.49902,6.42188-4.49609,1.64795-2.99805,2.47217-6.87158,2.47217-11.62207,0-4.84814-.81299-8.7793-2.43896-11.79395-1.62646-3.01367-3.75586-4.521-6.38867-4.521Z"/>
    <g>
      <path fill="#fff" d="M57.67676,58.80762v6.19238h-20.83203v-6.58496c4.26562-5.0127,7.54102-9.27148,9.82617-12.77734,2.36035-3.60352,3.54102-6.64941,3.54102-9.13965,0-1.73633-.4502-3.12109-1.35156-4.15234-.90137-1.03223-2.10156-1.54785-3.59863-1.54785-2.20898,0-4.64648,1.08105-7.3125,3.24316l-.49512-6.87988c1.87891-1.04785,3.50977-1.77734,4.89355-2.18652s2.90039-.61426,4.55176-.61426c2.99512,0,5.38867,1.01562,7.17871,3.0459,1.79004,2.03223,2.68457,4.75098,2.68457,8.1582,0,3.50586-1.23145,7.33887-3.69434,11.49902-2.51367,4.35742-5.30664,8.27246-8.37793,11.74414h12.98633Z"/>
      <path fill="#fff" d="M62.32324,64.21387l.34277-6.73242c2.48828,1.27734,4.81152,1.91602,6.96973,1.91602,2.08105,0,3.70605-.52344,4.87402-1.57227,1.16797-1.04785,1.75195-2.52246,1.75195-4.42285,0-1.6709-.43164-2.98047-1.29492-3.93164-1.21875-1.34277-3.16016-2.01465-5.82617-2.01465-.50879,0-1.44727.0332-2.81836.09863v-6.38867l1.86621.0498c3.22363,0,5.43262-.7207,6.62598-2.16309.86328-1.01465,1.29492-2.24316,1.29492-3.68555,0-1.53906-.49512-2.72656-1.48535-3.5625-.99023-.83496-2.38672-1.25293-4.18848-1.25293-2.28516,0-4.58398.65527-6.89355,1.96582l-.38086-6.38867c3.17383-1.17969,5.97949-1.76855,8.41699-1.76855,3.42676,0,6.09277.90137,7.99707,2.70215,1.9043,1.80273,2.85645,4.32422,2.85645,7.56836,0,4.91406-1.94238,8.04297-5.82715,9.38574,1.32031.55762,2.31055,1.09766,2.9707,1.62109.99023.78711,1.76465,1.90039,2.32324,3.3418.55859,1.44238.83789,3.06348.83789,4.86523,0,3.76758-1.14258,6.68359-3.42773,8.74707-2.31055,2.03125-5.35742,3.04688-9.13965,3.04688-2.54004,0-5.15527-.47559-7.8457-1.4248Z"/>
    </g>
  </symbol>
</svg>
