<?xml version="1.0" encoding="UTF-8"?>
<svg xmlns="http://www.w3.org/2000/svg" xmlns:xlink="http://www.w3.org/1999/xlink">
  <symbol id="Kitakyu" viewBox="0 0 100 100">
    <circle fill="#9b0040" cx="50" cy="50" r="50"/>
    <circle fill="#fff" cx="50" cy="50" r="45.9375"/>
    <path fill="#9b0040" d="M6.5625,42.8125h38.125l4.375-3.75v7.1875c0,7.93909-6.43591,14.375-14.375,14.375H10l12.8125-7.1875h8.125l-24.375-10.625Z"/>
    <path fill="#9b0040" d="M93.4375,42.8125h-38.125l-4.375-3.75v7.1875c0,7.93909,6.43591,14.375,14.375,14.375h24.6875l-12.8125-7.1875h-8.125l24.375-10.625Z"/>
  </symbol>
  <symbol id="M06" viewBox="0 0 100 100">
    <rect fill="#e60012" y="19" width="100" height="60"/>
    <path fill="#fff" d="M59.86914,42.98877h-3.16113v-9.63184l.02148-1.39746c.02832-.78809.05762-2.33594.08594-4.64404-.07129.20117-.15039.43359-.23633.69873-.08594.26562-.1582.48389-.21582.65576-.05664.17188-.09961.29395-.12891.36572-.08594.28662-.18164.59473-.28906.92432-.10742.33008-.16211.50195-.16211.51611l-4.42871,12.5127h-2.92383l-3.7627-10.38428c-.01465-.05713-.04297-.14307-.08594-.25781s-.10059-.28662-.17188-.51611c-.07227-.229-.13672-.43701-.19385-.62354-.4873-1.43311-.9458-2.72314-1.37598-3.87012.1001,2.13574.1792,4.08496.23682,5.84814v9.80371h-2.96729v-17.50098h5.39648l3.05322,9.28809.6665,2.17139c.02832.10059.1001.31201.21484.63428.11475.32275.20068.57715.25781.76367.02881.05713.12158.39404.27979,1.01025.15771-.64502.26514-1.03906.32227-1.18262l.49463-1.44043.36572-1.18262,3.18164-10.06201h5.52637v17.50098Z"/>
    <g>
      <path fill="#fff" d="M39.37256,48.12256c2.72998,0,4.92871,1.07227,6.59766,3.21729,1.73291,2.23242,2.6001,5.77441,2.6001,10.62695,0,5.52539-1.23535,9.34961-3.70508,11.47266-1.51709,1.32227-3.34766,1.98242-5.49268,1.98242-1.40869,0-2.72998-.32422-3.96484-.97461s-2.23193-1.53809-2.99023-2.66504c-1.47363-2.23145-2.20996-5.49219-2.20996-9.78223,0-5.52539,1.12646-9.38086,3.37988-11.57031,1.60352-1.53809,3.53174-2.30713,5.78516-2.30713ZM39.30762,51.63281c-1.5166,0-2.61133.83984-3.28271,2.51855s-1.00732,4.38184-1.00732,8.1084c0,2.08008.19482,3.9375.58496,5.57422.39014,1.63574.88818,2.72461,1.49512,3.26562.60645.54199,1.37549.8125,2.30762.8125,1.10498,0,1.96045-.36719,2.56738-1.10449.52002-.58496.94775-1.69043,1.28369-3.31543.33545-1.625.50391-3.36914.50391-5.23242,0-4.48438-.48779-7.49609-1.4624-9.03516-.65039-1.06055-1.64697-1.5918-2.99023-1.5918Z"/>
      <path fill="#fff" d="M65.9248,48.41504l-.06445,3.5752c-1.32227-.1084-2.33008-.16309-3.02246-.16309-2.20996,0-3.87891.94238-5.00488,2.82715-.49902.82422-.85059,1.625-1.05664,2.40625-.20605.7793-.35254,1.88477-.43848,3.31445,1.23438-1.66797,3.02246-2.50195,5.3623-2.50195,2.38281,0,4.28418.79102,5.70312,2.37207s2.12891,3.68359,2.12891,6.30469c0,2.70898-.77441,4.86426-2.32324,6.46777-1.5498,1.60352-3.63477,2.4043-6.25684,2.4043-3.1416,0-5.47559-.98633-7.00293-2.95703s-2.29102-4.99414-2.29102-9.06738c0-3.09863.38379-5.78516,1.15332-8.05957.76855-2.27539,1.87891-3.99805,3.33105-5.16797,1.69043-1.36523,3.87793-2.04736,6.56445-2.04736.97559,0,2.04785.09717,3.21777.29248ZM60.46484,61.48047c-1.25684,0-2.22559.44336-2.9082,1.33203s-1.02344,2.14453-1.02344,3.76953c0,1.69043.3623,3.00195,1.08789,3.93262.72559.93262,1.75,1.39746,3.07129,1.39746,1.27832,0,2.27539-.45996,2.99023-1.38086s1.07227-2.21484,1.07227-3.88379-.36816-2.94629-1.10449-3.83496c-.7373-.88867-1.79883-1.33203-3.18555-1.33203Z"/>
    </g>
  </symbol>
  <symbol id="M07" viewBox="0 0 100 100">
    <rect fill="#e60012" y="19" width="100" height="60"/>
    <path fill="#fff" d="M59.86914,42.98877h-3.16113v-9.63184l.02148-1.39746c.02832-.78809.05762-2.33594.08594-4.64404-.07129.20117-.15039.43359-.23633.69873-.08594.26562-.1582.48389-.21582.65576-.05664.17188-.09961.29395-.12891.36572-.08594.28662-.18164.59473-.28906.92432-.10742.33008-.16211.50195-.16211.51611l-4.42871,12.5127h-2.92383l-3.7627-10.38428c-.01465-.05713-.04297-.14307-.08594-.25781s-.10059-.28662-.17188-.51611c-.07227-.229-.13672-.43701-.19385-.62354-.4873-1.43311-.9458-2.72314-1.37598-3.87012.1001,2.13574.1792,4.08496.23682,5.84814v9.80371h-2.96729v-17.50098h5.39648l3.05322,9.28809.6665,2.17139c.02832.10059.1001.31201.21484.63428.11475.32275.20068.57715.25781.76367.02881.05713.12158.39404.27979,1.01025.15771-.64502.26514-1.03906.32227-1.18262l.49463-1.44043.36572-1.18262,3.18164-10.06201h5.52637v17.50098Z"/>
    <g>
      <path fill="#fff" d="M39.37256,48.12256c2.72998,0,4.92871,1.07227,6.59766,3.21729,1.73291,2.23242,2.6001,5.77441,2.6001,10.62695,0,5.52539-1.23535,9.34961-3.70508,11.47266-1.51709,1.32227-3.34766,1.98242-5.49268,1.98242-1.40869,0-2.72998-.32422-3.96484-.97461s-2.23193-1.53809-2.99023-2.66504c-1.47363-2.23145-2.20996-5.49219-2.20996-9.78223,0-5.52539,1.12646-9.38086,3.37988-11.57031,1.60352-1.53809,3.53174-2.30713,5.78516-2.30713ZM39.30762,51.63281c-1.5166,0-2.61133.83984-3.28271,2.51855s-1.00732,4.38184-1.00732,8.1084c0,2.08008.19482,3.9375.58496,5.57422.39014,1.63574.88818,2.72461,1.49512,3.26562.60645.54199,1.37549.8125,2.30762.8125,1.10498,0,1.96045-.36719,2.56738-1.10449.52002-.58496.94775-1.69043,1.28369-3.31543.33545-1.625.50391-3.36914.50391-5.23242,0-4.48438-.48779-7.49609-1.4624-9.03516-.65039-1.06055-1.64697-1.5918-2.99023-1.5918Z"/>
      <path fill="#fff" d="M59.65234,75h-5.19922l10.17188-22.68555h-12.57715v-3.63965h17.12695v3.77051l-9.52246,22.55469Z"/>
    </g>
  </symbol>
  <symbol id="M08" viewBox="0 0 100 100">
    <rect fill="#e60012" y="19" width="100" height="60"/>
    <path fill="#fff" d="M59.86914,42.98877h-3.16113v-9.63184l.02148-1.39746c.02832-.78809.05762-2.33594.08594-4.64404-.07129.20117-.15039.43359-.23633.69873-.08594.26562-.1582.48389-.21582.65576-.05664.17188-.09961.29395-.12891.36572-.08594.28662-.18164.59473-.28906.92432-.10742.33008-.16211.50195-.16211.51611l-4.42871,12.5127h-2.92383l-3.7627-10.38428c-.01465-.05713-.04297-.14307-.08594-.25781s-.10059-.28662-.17188-.51611c-.07227-.229-.13672-.43701-.19385-.62354-.4873-1.43311-.9458-2.72314-1.37598-3.87012.1001,2.13574.1792,4.08496.23682,5.84814v9.80371h-2.96729v-17.50098h5.39648l3.05322,9.28809.6665,2.17139c.02832.10059.1001.31201.21484.63428.11475.32275.20068.57715.25781.76367.02881.05713.12158.39404.27979,1.01025.15771-.64502.26514-1.03906.32227-1.18262l.49463-1.44043.36572-1.18262,3.18164-10.06201h5.52637v17.50098Z"/>
    <g>
      <path fill="#fff" d="M39.37256,48.12256c2.72998,0,4.92871,1.07227,6.59766,3.21729,1.73291,2.23242,2.6001,5.77441,2.6001,10.62695,0,5.52539-1.23535,9.34961-3.70508,11.47266-1.51709,1.32227-3.34766,1.98242-5.49268,1.98242-1.40869,0-2.72998-.32422-3.96484-.97461s-2.23193-1.53809-2.99023-2.66504c-1.47363-2.23145-2.20996-5.49219-2.20996-9.78223,0-5.52539,1.12646-9.38086,3.37988-11.57031,1.60352-1.53809,3.53174-2.30713,5.78516-2.30713ZM39.30762,51.63281c-1.5166,0-2.61133.83984-3.28271,2.51855s-1.00732,4.38184-1.00732,8.1084c0,2.08008.19482,3.9375.58496,5.57422.39014,1.63574.88818,2.72461,1.49512,3.26562.60645.54199,1.37549.8125,2.30762.8125,1.10498,0,1.96045-.36719,2.56738-1.10449.52002-.58496.94775-1.69043,1.28369-3.31543.33545-1.625.50391-3.36914.50391-5.23242,0-4.48438-.48779-7.49609-1.4624-9.03516-.65039-1.06055-1.64697-1.5918-2.99023-1.5918Z"/>
      <path fill="#fff" d="M63.94238,60.69922c1.53809.54297,2.62109,1.04102,3.25,1.49609.80176.56348,1.43555,1.33789,1.90137,2.32324.46582.98633.69922,2.05371.69922,3.20117,0,2.34082-.82422,4.20898-2.4707,5.60645s-3.85645,2.0957-6.62988,2.0957-5.00977-.69336-6.71094-2.08008c-1.70117-1.38574-2.55078-3.20508-2.55078-5.45898,0-2.14551.74707-3.8457,2.24219-5.10352.6709-.60547,1.76562-1.14746,3.28223-1.625-1.32129-.47559-2.33984-1.03906-3.05469-1.68945-1.32227-1.19141-1.98242-2.69727-1.98242-4.51758,0-2.01465.80664-3.65625,2.4209-4.92383,1.61426-1.26709,3.69922-1.90088,6.25586-1.90088,2.53516,0,4.57715.57959,6.12695,1.73877,1.54883,1.15918,2.32324,2.68164,2.32324,4.56641,0,1.97168-.76953,3.57422-2.30762,4.80957-.56348.49902-1.49512.98633-2.79492,1.46191ZM60.0752,63.04004c-1.38672.54199-2.37207,1.18652-2.95703,1.93359s-.87793,1.71777-.87793,2.90918c0,1.27832.41113,2.29102,1.23535,3.03809.82324.74707,1.92773,1.12207,3.31445,1.12207,1.34277,0,2.38281-.34668,3.12012-1.04102.73633-.69336,1.10449-1.66797,1.10449-2.9248,0-1.08301-.25977-1.97168-.7793-2.66504-.52051-.69336-1.36523-1.28906-2.53516-1.78711-.86719-.39062-1.40918-.58496-1.625-.58496ZM60.00977,59.04297l.94238.48633c1.32129-.62695,2.25391-1.2832,2.79492-1.96582.54199-.68262.8125-1.54395.8125-2.58301,0-1.10547-.35742-1.97168-1.07227-2.60059-.71484-.62793-1.67871-.94238-2.89258-.94238-1.25586,0-2.25293.32031-2.98926.95898-.7373.63867-1.10547,1.49023-1.10547,2.55078,0,1.2793.49805,2.26465,1.49512,2.95703.45508.32617,1.12598.70508,2.01465,1.13867Z"/>
    </g>
  </symbol>
  <symbol id="M09" viewBox="0 0 100 100">
    <rect fill="#e60012" y="19" width="100" height="60"/>
    <path fill="#fff" d="M59.86914,42.98877h-3.16113v-9.63184l.02148-1.39746c.02832-.78809.05762-2.33594.08594-4.64404-.07129.20117-.15039.43359-.23633.69873-.08594.26562-.1582.48389-.21582.65576-.05664.17188-.09961.29395-.12891.36572-.08594.28662-.18164.59473-.28906.92432-.10742.33008-.16211.50195-.16211.51611l-4.42871,12.5127h-2.92383l-3.7627-10.38428c-.01465-.05713-.04297-.14307-.08594-.25781s-.10059-.28662-.17188-.51611c-.07227-.229-.13672-.43701-.19385-.62354-.4873-1.43311-.9458-2.72314-1.37598-3.87012.1001,2.13574.1792,4.08496.23682,5.84814v9.80371h-2.96729v-17.50098h5.39648l3.05322,9.28809.6665,2.17139c.02832.10059.1001.31201.21484.63428.11475.32275.20068.57715.25781.76367.02881.05713.12158.39404.27979,1.01025.15771-.64502.26514-1.03906.32227-1.18262l.49463-1.44043.36572-1.18262,3.18164-10.06201h5.52637v17.50098Z"/>
    <g>
      <path fill="#fff" d="M39.37256,48.12256c2.72998,0,4.92871,1.07227,6.59766,3.21729,1.73291,2.23242,2.6001,5.77441,2.6001,10.62695,0,5.52539-1.23535,9.34961-3.70508,11.47266-1.51709,1.32227-3.34766,1.98242-5.49268,1.98242-1.40869,0-2.72998-.32422-3.96484-.97461s-2.23193-1.53809-2.99023-2.66504c-1.47363-2.23145-2.20996-5.49219-2.20996-9.78223,0-5.52539,1.12646-9.38086,3.37988-11.57031,1.60352-1.53809,3.53174-2.30713,5.78516-2.30713ZM39.30762,51.63281c-1.5166,0-2.61133.83984-3.28271,2.51855s-1.00732,4.38184-1.00732,8.1084c0,2.08008.19482,3.9375.58496,5.57422.39014,1.63574.88818,2.72461,1.49512,3.26562.60645.54199,1.37549.8125,2.30762.8125,1.10498,0,1.96045-.36719,2.56738-1.10449.52002-.58496.94775-1.69043,1.28369-3.31543.33545-1.625.50391-3.36914.50391-5.23242,0-4.48438-.48779-7.49609-1.4624-9.03516-.65039-1.06055-1.64697-1.5918-2.99023-1.5918Z"/>
      <path fill="#fff" d="M52.20996,73.47266l1.72266-3.18555c.86621.60742,1.64648,1.02344,2.33984,1.25195.69336.22656,1.5166.34082,2.4707.34082,2.53418,0,4.25684-.84473,5.16699-2.53516.41113-.73633.69336-1.54883.84473-2.4375.15137-.8877.24902-2.15527.29297-3.80176-.67188.93164-1.40332,1.5918-2.19434,1.98242-.79102.38965-1.80371.58398-3.03906.58398-2.68652,0-4.74414-.84473-6.17383-2.53516-1.36523-1.58008-2.04785-3.65039-2.04785-6.20703,0-2.77344.79102-4.93359,2.37207-6.4834,1.58203-1.54883,3.80273-2.32373,6.66309-2.32373,2.90234,0,5.13477,1.04004,6.69434,3.11963,1.53809,2.05859,2.30762,5.35156,2.30762,9.88086,0,4.96094-.73633,8.53613-2.20996,10.72461-.75879,1.12695-1.8584,2.01953-3.29883,2.68164-1.44141.66016-3.00586.99023-4.69629.99023-2.57812,0-4.9834-.68164-7.21484-2.04688ZM60.36719,51.63281c-1.23438,0-2.2041.46582-2.9082,1.39648-.7041.93262-1.05664,2.21094-1.05664,3.83594,0,1.55957.36328,2.80566,1.08887,3.7373s1.7168,1.39746,2.97363,1.39746,2.24219-.43359,2.95801-1.30078c.71484-.86523,1.07227-2.05762,1.07227-3.57422,0-1.82031-.40137-3.22852-1.20215-4.22461-.65039-.8457-1.625-1.26758-2.92578-1.26758Z"/>
    </g>
  </symbol>
  <symbol id="M10" viewBox="0 0 100 100">
    <rect fill="#e60012" y="19" width="100" height="60"/>
    <path fill="#fff" d="M59.86914,42.98877h-3.16113v-9.63184l.02148-1.39746c.02832-.78809.05762-2.33594.08594-4.64404-.07129.20117-.15039.43359-.23633.69873-.08594.26562-.1582.48389-.21582.65576-.05664.17188-.09961.29395-.12891.36572-.08594.28662-.18164.59473-.28906.92432-.10742.33008-.16211.50195-.16211.51611l-4.42871,12.5127h-2.92383l-3.7627-10.38428c-.01465-.05713-.04297-.14307-.08594-.25781s-.10059-.28662-.17188-.51611c-.07227-.229-.13672-.43701-.19385-.62354-.4873-1.43311-.9458-2.72314-1.37598-3.87012.1001,2.13574.1792,4.08496.23682,5.84814v9.80371h-2.96729v-17.50098h5.39648l3.05322,9.28809.6665,2.17139c.02832.10059.1001.31201.21484.63428.11475.32275.20068.57715.25781.76367.02881.05713.12158.39404.27979,1.01025.15771-.64502.26514-1.03906.32227-1.18262l.49463-1.44043.36572-1.18262,3.18164-10.06201h5.52637v17.50098Z"/>
    <g>
      <path fill="#fff" d="M43.5,75h-4.7124v-21.61328l-4.97266,4.16016-2.33984-2.95703,7.86523-6.04492h4.15967v26.45508Z"/>
      <path fill="#fff" d="M60.62793,48.12256c2.72949,0,4.92871,1.07227,6.59668,3.21729,1.7334,2.23242,2.60059,5.77441,2.60059,10.62695,0,5.52539-1.23535,9.34961-3.70508,11.47266-1.5166,1.32227-3.34766,1.98242-5.49219,1.98242-1.40918,0-2.73047-.32422-3.96484-.97461-1.23535-.65039-2.23242-1.53809-2.99023-2.66504-1.47363-2.23145-2.20996-5.49219-2.20996-9.78223,0-5.52539,1.12598-9.38086,3.37988-11.57031,1.60352-1.53809,3.53125-2.30713,5.78516-2.30713ZM60.5625,51.63281c-1.5166,0-2.61133.83984-3.28223,2.51855-.67188,1.67871-1.00781,4.38184-1.00781,8.1084,0,2.08008.19531,3.9375.58496,5.57422.39062,1.63574.88867,2.72461,1.49512,3.26562.60645.54199,1.37598.8125,2.30762.8125,1.10449,0,1.96094-.36719,2.56738-1.10449.51953-.58496.94727-1.69043,1.28418-3.31543.33496-1.625.50293-3.36914.50293-5.23242,0-4.48438-.4873-7.49609-1.46191-9.03516-.65039-1.06055-1.64746-1.5918-2.99023-1.5918Z"/>
    </g>
  </symbol>
  <symbol id="M11" viewBox="0 0 100 100">
    <rect fill="#e60012" y="19" width="100" height="60"/>
    <path fill="#fff" d="M59.86914,42.98877h-3.16113v-9.63184l.02148-1.39746c.02832-.78809.05762-2.33594.08594-4.64404-.07129.20117-.15039.43359-.23633.69873-.08594.26562-.1582.48389-.21582.65576-.05664.17188-.09961.29395-.12891.36572-.08594.28662-.18164.59473-.28906.92432-.10742.33008-.16211.50195-.16211.51611l-4.42871,12.5127h-2.92383l-3.7627-10.38428c-.01465-.05713-.04297-.14307-.08594-.25781s-.10059-.28662-.17188-.51611c-.07227-.229-.13672-.43701-.19385-.62354-.4873-1.43311-.9458-2.72314-1.37598-3.87012.1001,2.13574.1792,4.08496.23682,5.84814v9.80371h-2.96729v-17.50098h5.39648l3.05322,9.28809.6665,2.17139c.02832.10059.1001.31201.21484.63428.11475.32275.20068.57715.25781.76367.02881.05713.12158.39404.27979,1.01025.15771-.64502.26514-1.03906.32227-1.18262l.49463-1.44043.36572-1.18262,3.18164-10.06201h5.52637v17.50098Z"/>
    <g>
      <path fill="#fff" d="M43.5,75h-4.7124v-21.61328l-4.97266,4.16016-2.33984-2.95703,7.86523-6.04492h4.15967v26.45508Z"/>
      <path fill="#fff" d="M64.75488,75h-4.71191v-21.61328l-4.97266,4.16016-2.33984-2.95703,7.86426-6.04492h4.16016v26.45508Z"/>
    </g>
  </symbol>
</svg>