<?xml version="1.0" encoding="UTF-8"?>
<svg xmlns="http://www.w3.org/2000/svg" xmlns:xlink="http://www.w3.org/1999/xlink">
  <symbol id="S" viewBox="0 0 100 100">
    <path fill="#009474" d="M61.40541,32.25976l-18.45931,26.36594c-.85254,1.1908-2.45726,1.99166-4.2923,1.99166-2.72722,0-4.94212-1.76128-4.94212-3.93001,0-.69548.22781-1.35483.62975-1.92787L63.89729,12.56806H25.31274L4.94463,41.62414C1.7939,46.0735.00502,51.21383,0,56.68734c0,16.97953,17.30569,30.73256,38.6538,30.7446,14.39682-.01204,26.9561-6.27487,33.60831-15.54843l27.73789-39.62376h-38.59459Z"/>
  </symbol>
  <symbol id="S01" viewBox="0 0 100 100">
    <rect fill="#009474" y="25" width="100" height="50"/>
    <rect fill="#fff" x="2.5" y="27.5" width="95" height="45"/>
    <g>
      <path fill="#009474" d="M25.14844,61.57031c1.59668,0,2.89355-.17578,3.88965-.52734,1.88965-.67383,2.83398-1.92676,2.83398-3.75781,0-1.06934-.46875-1.89648-1.40625-2.48242-.9375-.57227-2.40918-1.07715-4.41602-1.5166l-3.42773-.76855c-3.36914-.76172-5.69824-1.58984-6.9873-2.4834-2.18262-1.49414-3.27441-3.83057-3.27441-7.00928,0-2.90039,1.05469-5.31006,3.16406-7.229s5.20801-2.87842,9.29492-2.87842c3.41309,0,6.32422.90479,8.73438,2.71338,2.40918,1.80957,3.67285,4.43506,3.79004,7.87744h-6.50391c-.11719-1.94824-.9668-3.33252-2.54883-4.15283-1.05469-.54199-2.36621-.81299-3.93359-.81299-1.74316,0-3.13477.35156-4.1748,1.05469s-1.55957,1.68457-1.55957,2.94434c0,1.15723.5127,2.02148,1.53809,2.59277.65918.38086,2.06543.82764,4.21875,1.34033l5.58105,1.34033c2.44629.58594,4.29199,1.36963,5.53711,2.35107,1.93359,1.52344,2.90039,3.72852,2.90039,6.61328,0,2.95898-1.13184,5.41699-3.39453,7.37207-2.26367,1.95605-5.46094,2.93359-9.5918,2.93359-4.21875,0-7.53613-.96289-9.95312-2.88965-2.41699-1.92578-3.62598-4.57422-3.62598-7.94336h6.45996c.20508,1.48047.6084,2.58594,1.20898,3.31836,1.09863,1.33301,2.98047,2,5.64648,2Z"/>
      <path fill="#009474" d="M52.37305,67.04102c-4.05762,0-6.90332-1.4209-8.53613-4.2627-1.63379-2.8418-2.4502-6.8916-2.4502-12.15088,0-5.25879.81641-9.31641,2.4502-12.17285,1.63281-2.85645,4.47852-4.28467,8.53613-4.28467s6.90625,1.42822,8.54688,4.28467c1.62598,2.85645,2.43945,6.91406,2.43945,12.17285,0,5.25928-.81738,9.30908-2.4502,12.15088-1.63379,2.8418-4.47852,4.2627-8.53613,4.2627ZM56.04199,59.02148c.57129-1.93359.85742-4.73242.85742-8.39404,0-3.83789-.29004-6.67969-.86816-8.52539-.5791-1.8457-1.79785-2.76855-3.6582-2.76855s-3.09082.92285-3.69141,2.76855-.90137,4.6875-.90137,8.52539c0,3.66162.30078,6.46436.90137,8.40479s1.83105,2.91113,3.69141,2.91113,3.08301-.97461,3.66895-2.92188Z"/>
      <path fill="#009474" d="M82.03711,66.25h-6.41602v-21.97266h-7.49414v-4.2627c1.97754-.08789,3.3623-.21973,4.15332-.39551,1.25977-.27832,2.28613-.83496,3.07715-1.66992.54102-.57129.95117-1.33301,1.23047-2.28516.16016-.57129.24023-.99609.24023-1.27441h5.20898v31.86035Z"/>
    </g>
  </symbol>
  <symbol id="S02" viewBox="0 0 100 100">
    <rect fill="#009474" y="25" width="100" height="50"/>
    <g>
      <path fill="#fff" d="M25.14844,61.57031c1.59668,0,2.89355-.17578,3.88965-.52734,1.88965-.67383,2.83398-1.92676,2.83398-3.75781,0-1.06934-.46875-1.89648-1.40625-2.48242-.9375-.57227-2.40918-1.07715-4.41602-1.5166l-3.42773-.76855c-3.36914-.76172-5.69824-1.58984-6.9873-2.4834-2.18262-1.49414-3.27441-3.83057-3.27441-7.00928,0-2.90039,1.05469-5.31006,3.16406-7.229s5.20801-2.87842,9.29492-2.87842c3.41309,0,6.32422.90479,8.73438,2.71338,2.40918,1.80957,3.67285,4.43506,3.79004,7.87744h-6.50391c-.11719-1.94824-.9668-3.33252-2.54883-4.15283-1.05469-.54199-2.36621-.81299-3.93359-.81299-1.74316,0-3.13477.35156-4.1748,1.05469s-1.55957,1.68457-1.55957,2.94434c0,1.15723.5127,2.02148,1.53809,2.59277.65918.38086,2.06543.82764,4.21875,1.34033l5.58105,1.34033c2.44629.58594,4.29199,1.36963,5.53711,2.35107,1.93359,1.52344,2.90039,3.72852,2.90039,6.61328,0,2.95898-1.13184,5.41699-3.39453,7.37207-2.26367,1.95605-5.46094,2.93359-9.5918,2.93359-4.21875,0-7.53613-.96289-9.95312-2.88965-2.41699-1.92578-3.62598-4.57422-3.62598-7.94336h6.45996c.20508,1.48047.6084,2.58594,1.20898,3.31836,1.09863,1.33301,2.98047,2,5.64648,2Z"/>
      <path fill="#fff" d="M52.37305,67.04102c-4.05762,0-6.90332-1.4209-8.53613-4.2627-1.63379-2.8418-2.4502-6.8916-2.4502-12.15088,0-5.25879.81641-9.31641,2.4502-12.17285,1.63281-2.85645,4.47852-4.28467,8.53613-4.28467s6.90625,1.42822,8.54688,4.28467c1.62598,2.85645,2.43945,6.91406,2.43945,12.17285,0,5.25928-.81738,9.30908-2.4502,12.15088-1.63379,2.8418-4.47852,4.2627-8.53613,4.2627ZM56.04199,59.02148c.57129-1.93359.85742-4.73242.85742-8.39404,0-3.83789-.29004-6.67969-.86816-8.52539-.5791-1.8457-1.79785-2.76855-3.6582-2.76855s-3.09082.92285-3.69141,2.76855-.90137,4.6875-.90137,8.52539c0,3.66162.30078,6.46436.90137,8.40479s1.83105,2.91113,3.69141,2.91113,3.08301-.97461,3.66895-2.92188Z"/>
      <path fill="#fff" d="M80.65234,40.87158c-.74805-.89355-1.81641-1.34033-3.20898-1.34033-1.9043,0-3.20117.71045-3.88867,2.13135-.39551.82031-.62988,2.12402-.70312,3.91113h-6.08691c.10254-2.70996.59375-4.8999,1.47266-6.56982,1.66992-3.17871,4.63574-4.76807,8.89941-4.76807,3.36914,0,6.04883.93408,8.04102,2.80127,1.99219,1.86816,2.98828,4.33984,2.98828,7.41602,0,2.3584-.70312,4.45312-2.10938,6.28418-.92188,1.21582-2.4375,2.57129-4.54688,4.06543l-2.50586,1.7793c-1.56836,1.11328-2.64062,1.91895-3.21875,2.41699s-1.06641,1.07715-1.46094,1.73535h13.9082v5.51562h-21.81934c.05859-2.28516.5498-4.37305,1.47266-6.26172.89355-2.125,3.00293-4.37305,6.3291-6.74609,2.88477-2.06543,4.75195-3.54492,5.60156-4.43848,1.30469-1.3916,1.95703-2.91504,1.95703-4.57031,0-1.34766-.375-2.46826-1.12109-3.36182Z"/>
    </g>
  </symbol>
  <symbol id="S03" viewBox="0 0 100 100">
    <rect fill="#009474" y="25" width="100" height="50"/>
    <g>
      <path fill="#fff" d="M25.14844,61.57031c1.59668,0,2.89355-.17578,3.88965-.52734,1.88965-.67383,2.83398-1.92676,2.83398-3.75781,0-1.06934-.46875-1.89648-1.40625-2.48242-.9375-.57227-2.40918-1.07715-4.41602-1.5166l-3.42773-.76855c-3.36914-.76172-5.69824-1.58984-6.9873-2.4834-2.18262-1.49414-3.27441-3.83057-3.27441-7.00928,0-2.90039,1.05469-5.31006,3.16406-7.229s5.20801-2.87842,9.29492-2.87842c3.41309,0,6.32422.90479,8.73438,2.71338,2.40918,1.80957,3.67285,4.43506,3.79004,7.87744h-6.50391c-.11719-1.94824-.9668-3.33252-2.54883-4.15283-1.05469-.54199-2.36621-.81299-3.93359-.81299-1.74316,0-3.13477.35156-4.1748,1.05469s-1.55957,1.68457-1.55957,2.94434c0,1.15723.5127,2.02148,1.53809,2.59277.65918.38086,2.06543.82764,4.21875,1.34033l5.58105,1.34033c2.44629.58594,4.29199,1.36963,5.53711,2.35107,1.93359,1.52344,2.90039,3.72852,2.90039,6.61328,0,2.95898-1.13184,5.41699-3.39453,7.37207-2.26367,1.95605-5.46094,2.93359-9.5918,2.93359-4.21875,0-7.53613-.96289-9.95312-2.88965-2.41699-1.92578-3.62598-4.57422-3.62598-7.94336h6.45996c.20508,1.48047.6084,2.58594,1.20898,3.31836,1.09863,1.33301,2.98047,2,5.64648,2Z"/>
      <path fill="#fff" d="M52.37305,67.04102c-4.05762,0-6.90332-1.4209-8.53613-4.2627-1.63379-2.8418-2.4502-6.8916-2.4502-12.15088,0-5.25879.81641-9.31641,2.4502-12.17285,1.63281-2.85645,4.47852-4.28467,8.53613-4.28467s6.90625,1.42822,8.54688,4.28467c1.62598,2.85645,2.43945,6.91406,2.43945,12.17285,0,5.25928-.81738,9.30908-2.4502,12.15088-1.63379,2.8418-4.47852,4.2627-8.53613,4.2627ZM56.04199,59.02148c.57129-1.93359.85742-4.73242.85742-8.39404,0-3.83789-.29004-6.67969-.86816-8.52539-.5791-1.8457-1.79785-2.76855-3.6582-2.76855s-3.09082.92285-3.69141,2.76855-.90137,4.6875-.90137,8.52539c0,3.66162.30078,6.46436.90137,8.40479s1.83105,2.91113,3.69141,2.91113,3.08301-.97461,3.66895-2.92188Z"/>
      <path fill="#fff" d="M73.62109,40.73975c-.7041.9375-1.04102,2.18994-1.01172,3.75732h-5.84473c.05859-1.58203.33008-3.0835.81348-4.50439.5127-1.24512,1.31836-2.39502,2.41699-3.44971.82031-.74707,1.79395-1.31836,2.92188-1.71387s2.5127-.59326,4.15332-.59326c3.04688,0,5.50391.7876,7.37109,2.36182,1.86914,1.5752,2.80273,3.68799,2.80273,6.33936,0,1.875-.55664,3.45703-1.66992,4.74609-.70312.80566-1.43555,1.35498-2.19727,1.64795.57031,0,1.39062.49072,2.46094,1.47217,1.5957,1.47998,2.39453,3.50146,2.39453,6.06396,0,2.69531-.93359,5.06543-2.80078,7.1084-1.86914,2.04395-4.63281,3.06543-8.29492,3.06543-4.5127,0-7.64746-1.47266-9.40527-4.41602-.92285-1.56836-1.43555-3.61914-1.53809-6.15234h6.15234c0,1.27344.20508,2.32812.61523,3.16406.76172,1.53711,2.14648,2.30664,4.1543,2.30664,1.23047,0,2.30273-.4209,3.21875-1.26367.91406-.8418,1.37305-2.05469,1.37305-3.63672,0-2.09375-.84961-3.49316-2.54883-4.19629-.9668-.39551-2.49023-.59277-4.57031-.59277v-4.48291c2.03516-.0293,3.45703-.22705,4.26172-.59326,1.39258-.61523,2.08789-1.86035,2.08789-3.73535,0-1.21582-.35547-2.20459-1.06641-2.96631-.70898-.76172-1.70898-1.14258-2.99805-1.14258-1.48047,0-2.56445.46875-3.25195,1.40625Z"/>
    </g>
  </symbol>
  <symbol id="S04" viewBox="0 0 100 100">
    <rect fill="#009474" y="25" width="100" height="50"/>
    <g>
      <path fill="#fff" d="M25.14844,61.57031c1.59668,0,2.89355-.17578,3.88965-.52734,1.88965-.67383,2.83398-1.92676,2.83398-3.75781,0-1.06934-.46875-1.89648-1.40625-2.48242-.9375-.57227-2.40918-1.07715-4.41602-1.5166l-3.42773-.76855c-3.36914-.76172-5.69824-1.58984-6.9873-2.4834-2.18262-1.49414-3.27441-3.83057-3.27441-7.00928,0-2.90039,1.05469-5.31006,3.16406-7.229s5.20801-2.87842,9.29492-2.87842c3.41309,0,6.32422.90479,8.73438,2.71338,2.40918,1.80957,3.67285,4.43506,3.79004,7.87744h-6.50391c-.11719-1.94824-.9668-3.33252-2.54883-4.15283-1.05469-.54199-2.36621-.81299-3.93359-.81299-1.74316,0-3.13477.35156-4.1748,1.05469s-1.55957,1.68457-1.55957,2.94434c0,1.15723.5127,2.02148,1.53809,2.59277.65918.38086,2.06543.82764,4.21875,1.34033l5.58105,1.34033c2.44629.58594,4.29199,1.36963,5.53711,2.35107,1.93359,1.52344,2.90039,3.72852,2.90039,6.61328,0,2.95898-1.13184,5.41699-3.39453,7.37207-2.26367,1.95605-5.46094,2.93359-9.5918,2.93359-4.21875,0-7.53613-.96289-9.95312-2.88965-2.41699-1.92578-3.62598-4.57422-3.62598-7.94336h6.45996c.20508,1.48047.6084,2.58594,1.20898,3.31836,1.09863,1.33301,2.98047,2,5.64648,2Z"/>
      <path fill="#fff" d="M52.37305,67.04102c-4.05762,0-6.90332-1.4209-8.53613-4.2627-1.63379-2.8418-2.4502-6.8916-2.4502-12.15088,0-5.25879.81641-9.31641,2.4502-12.17285,1.63281-2.85645,4.47852-4.28467,8.53613-4.28467s6.90625,1.42822,8.54688,4.28467c1.62598,2.85645,2.43945,6.91406,2.43945,12.17285,0,5.25928-.81738,9.30908-2.4502,12.15088-1.63379,2.8418-4.47852,4.2627-8.53613,4.2627ZM56.04199,59.02148c.57129-1.93359.85742-4.73242.85742-8.39404,0-3.83789-.29004-6.67969-.86816-8.52539-.5791-1.8457-1.79785-2.76855-3.6582-2.76855s-3.09082.92285-3.69141,2.76855-.90137,4.6875-.90137,8.52539c0,3.66162.30078,6.46436.90137,8.40479s1.83105,2.91113,3.69141,2.91113,3.08301-.97461,3.66895-2.92188Z"/>
      <path fill="#fff" d="M88.54102,54.49414v4.90039h-3.60352v6.85547h-6.13086v-6.85547h-12.61328v-5.4707l11.71289-19.33643h7.03125v19.90674h3.60352ZM70.83008,54.49414h7.97656v-13.75439l-7.97656,13.75439Z"/>
    </g>
  </symbol>
  <symbol id="S05" viewBox="0 0 100 100">
    <rect fill="#009474" y="25" width="100" height="50"/>
    <g>
      <path fill="#fff" d="M25.14844,61.57031c1.59668,0,2.89355-.17578,3.88965-.52734,1.88965-.67383,2.83398-1.92676,2.83398-3.75781,0-1.06934-.46875-1.89648-1.40625-2.48242-.9375-.57227-2.40918-1.07715-4.41602-1.5166l-3.42773-.76855c-3.36914-.76172-5.69824-1.58984-6.9873-2.4834-2.18262-1.49414-3.27441-3.83057-3.27441-7.00928,0-2.90039,1.05469-5.31006,3.16406-7.229s5.20801-2.87842,9.29492-2.87842c3.41309,0,6.32422.90479,8.73438,2.71338,2.40918,1.80957,3.67285,4.43506,3.79004,7.87744h-6.50391c-.11719-1.94824-.9668-3.33252-2.54883-4.15283-1.05469-.54199-2.36621-.81299-3.93359-.81299-1.74316,0-3.13477.35156-4.1748,1.05469s-1.55957,1.68457-1.55957,2.94434c0,1.15723.5127,2.02148,1.53809,2.59277.65918.38086,2.06543.82764,4.21875,1.34033l5.58105,1.34033c2.44629.58594,4.29199,1.36963,5.53711,2.35107,1.93359,1.52344,2.90039,3.72852,2.90039,6.61328,0,2.95898-1.13184,5.41699-3.39453,7.37207-2.26367,1.95605-5.46094,2.93359-9.5918,2.93359-4.21875,0-7.53613-.96289-9.95312-2.88965-2.41699-1.92578-3.62598-4.57422-3.62598-7.94336h6.45996c.20508,1.48047.6084,2.58594,1.20898,3.31836,1.09863,1.33301,2.98047,2,5.64648,2Z"/>
      <path fill="#fff" d="M52.37305,67.04102c-4.05762,0-6.90332-1.4209-8.53613-4.2627-1.63379-2.8418-2.4502-6.8916-2.4502-12.15088,0-5.25879.81641-9.31641,2.4502-12.17285,1.63281-2.85645,4.47852-4.28467,8.53613-4.28467s6.90625,1.42822,8.54688,4.28467c1.62598,2.85645,2.43945,6.91406,2.43945,12.17285,0,5.25928-.81738,9.30908-2.4502,12.15088-1.63379,2.8418-4.47852,4.2627-8.53613,4.2627ZM56.04199,59.02148c.57129-1.93359.85742-4.73242.85742-8.39404,0-3.83789-.29004-6.67969-.86816-8.52539-.5791-1.8457-1.79785-2.76855-3.6582-2.76855s-3.09082.92285-3.69141,2.76855-.90137,4.6875-.90137,8.52539c0,3.66162.30078,6.46436.90137,8.40479s1.83105,2.91113,3.69141,2.91113,3.08301-.97461,3.66895-2.92188Z"/>
      <path fill="#fff" d="M77.00391,50.42969c-.76172,0-1.41992.09521-1.97656.28564-.98242.35107-1.72168,1.00342-2.21973,1.95557l-5.625-.26367,2.24121-17.6001h17.55664v5.31738h-13.03027l-1.14258,6.96533c.9668-.62988,1.72168-1.04736,2.2627-1.25244.9082-.33691,2.01367-.50537,3.31836-.50537,2.63672,0,4.93555.88623,6.90039,2.65869,1.96094,1.77246,2.94336,4.35107,2.94336,7.73389,0,2.94531-.94531,5.57422-2.83398,7.88867-1.89062,2.31445-4.7168,3.47168-8.48242,3.47168-3.03125,0-5.52246-.81348-7.4707-2.43848-1.94824-1.62695-3.03223-3.93359-3.25195-6.92188h6.24023c.24902,1.3623.72559,2.41406,1.42871,3.15332.7041.73926,1.72754,1.10938,3.07715,1.10938,1.55078,0,2.73438-.5459,3.54688-1.63672.81445-1.09082,1.2207-2.46484,1.2207-4.12012,0-1.62598-.38086-2.99902-1.14258-4.12012-.76172-1.12012-1.94922-1.68066-3.56055-1.68066Z"/>
    </g>
  </symbol>
  <symbol id="S06" viewBox="0 0 100 100">
    <rect fill="#009474" y="25" width="100" height="50"/>
    <g>
      <path fill="#fff" d="M25.14844,61.57031c1.59668,0,2.89355-.17578,3.88965-.52734,1.88965-.67383,2.83398-1.92676,2.83398-3.75781,0-1.06934-.46875-1.89648-1.40625-2.48242-.9375-.57227-2.40918-1.07715-4.41602-1.5166l-3.42773-.76855c-3.36914-.76172-5.69824-1.58984-6.9873-2.4834-2.18262-1.49414-3.27441-3.83057-3.27441-7.00928,0-2.90039,1.05469-5.31006,3.16406-7.229s5.20801-2.87842,9.29492-2.87842c3.41309,0,6.32422.90479,8.73438,2.71338,2.40918,1.80957,3.67285,4.43506,3.79004,7.87744h-6.50391c-.11719-1.94824-.9668-3.33252-2.54883-4.15283-1.05469-.54199-2.36621-.81299-3.93359-.81299-1.74316,0-3.13477.35156-4.1748,1.05469s-1.55957,1.68457-1.55957,2.94434c0,1.15723.5127,2.02148,1.53809,2.59277.65918.38086,2.06543.82764,4.21875,1.34033l5.58105,1.34033c2.44629.58594,4.29199,1.36963,5.53711,2.35107,1.93359,1.52344,2.90039,3.72852,2.90039,6.61328,0,2.95898-1.13184,5.41699-3.39453,7.37207-2.26367,1.95605-5.46094,2.93359-9.5918,2.93359-4.21875,0-7.53613-.96289-9.95312-2.88965-2.41699-1.92578-3.62598-4.57422-3.62598-7.94336h6.45996c.20508,1.48047.6084,2.58594,1.20898,3.31836,1.09863,1.33301,2.98047,2,5.64648,2Z"/>
      <path fill="#fff" d="M52.37305,67.04102c-4.05762,0-6.90332-1.4209-8.53613-4.2627-1.63379-2.8418-2.4502-6.8916-2.4502-12.15088,0-5.25879.81641-9.31641,2.4502-12.17285,1.63281-2.85645,4.47852-4.28467,8.53613-4.28467s6.90625,1.42822,8.54688,4.28467c1.62598,2.85645,2.43945,6.91406,2.43945,12.17285,0,5.25928-.81738,9.30908-2.4502,12.15088-1.63379,2.8418-4.47852,4.2627-8.53613,4.2627ZM56.04199,59.02148c.57129-1.93359.85742-4.73242.85742-8.39404,0-3.83789-.29004-6.67969-.86816-8.52539-.5791-1.8457-1.79785-2.76855-3.6582-2.76855s-3.09082.92285-3.69141,2.76855-.90137,4.6875-.90137,8.52539c0,3.66162.30078,6.46436.90137,8.40479s1.83105,2.91113,3.69141,2.91113,3.08301-.97461,3.66895-2.92188Z"/>
      <path fill="#fff" d="M78.76172,45.57373c2.82812,0,5.14648.95947,6.95508,2.87842s2.71289,4.37207,2.71289,7.36035c0,2.97461-.88672,5.5957-2.6582,7.86719-1.77344,2.27051-4.52539,3.40527-8.26172,3.40527-4.01367,0-6.97266-1.67676-8.87695-5.03223-1.47949-2.62109-2.21973-6.00586-2.21973-10.15039,0-2.43213.10254-4.40967.30762-5.93311.36621-2.70996,1.07715-4.96582,2.13184-6.76758.9082-1.53809,2.09766-2.77588,3.57031-3.71338,1.47168-.9375,3.2334-1.40625,5.28418-1.40625,2.95898,0,5.31836.75781,7.07617,2.27441,1.75781,1.51562,2.74609,3.53369,2.9668,6.05322h-6.24023c0-.5127-.19922-1.07666-.59375-1.69189-.67383-.99609-1.69141-1.49414-3.05469-1.49414-2.03711,0-3.48633,1.14258-4.35059,3.42773-.46875,1.25977-.79102,3.12012-.9668,5.58105.77637-.92285,1.67676-1.59668,2.70215-2.02148s2.19727-.63721,3.51562-.63721ZM74.54297,51.55078c-1.23047.95117-1.8457,2.49023-1.8457,4.61328,0,1.71484.46191,3.11328,1.38477,4.19727.92383,1.08398,2.09375,1.62598,3.51562,1.62598,1.39062,0,2.48633-.52344,3.28516-1.57129.79883-1.04688,1.19727-2.40625,1.19727-4.07617,0-1.85938-.45508-3.28418-1.36133-4.27344-.91016-.98828-2.02148-1.48291-3.33984-1.48291-1.07031,0-2.01562.32227-2.83594.96729Z"/>
    </g>
  </symbol>
  <symbol id="S07" viewBox="0 0 100 100">
    <rect fill="#009474" y="25" width="100" height="50"/>
    <g>
      <path fill="#fff" d="M25.14844,61.57031c1.59668,0,2.89355-.17578,3.88965-.52734,1.88965-.67383,2.83398-1.92676,2.83398-3.75781,0-1.06934-.46875-1.89648-1.40625-2.48242-.9375-.57227-2.40918-1.07715-4.41602-1.5166l-3.42773-.76855c-3.36914-.76172-5.69824-1.58984-6.9873-2.4834-2.18262-1.49414-3.27441-3.83057-3.27441-7.00928,0-2.90039,1.05469-5.31006,3.16406-7.229s5.20801-2.87842,9.29492-2.87842c3.41309,0,6.32422.90479,8.73438,2.71338,2.40918,1.80957,3.67285,4.43506,3.79004,7.87744h-6.50391c-.11719-1.94824-.9668-3.33252-2.54883-4.15283-1.05469-.54199-2.36621-.81299-3.93359-.81299-1.74316,0-3.13477.35156-4.1748,1.05469s-1.55957,1.68457-1.55957,2.94434c0,1.15723.5127,2.02148,1.53809,2.59277.65918.38086,2.06543.82764,4.21875,1.34033l5.58105,1.34033c2.44629.58594,4.29199,1.36963,5.53711,2.35107,1.93359,1.52344,2.90039,3.72852,2.90039,6.61328,0,2.95898-1.13184,5.41699-3.39453,7.37207-2.26367,1.95605-5.46094,2.93359-9.5918,2.93359-4.21875,0-7.53613-.96289-9.95312-2.88965-2.41699-1.92578-3.62598-4.57422-3.62598-7.94336h6.45996c.20508,1.48047.6084,2.58594,1.20898,3.31836,1.09863,1.33301,2.98047,2,5.64648,2Z"/>
      <path fill="#fff" d="M52.37305,67.04102c-4.05762,0-6.90332-1.4209-8.53613-4.2627-1.63379-2.8418-2.4502-6.8916-2.4502-12.15088,0-5.25879.81641-9.31641,2.4502-12.17285,1.63281-2.85645,4.47852-4.28467,8.53613-4.28467s6.90625,1.42822,8.54688,4.28467c1.62598,2.85645,2.43945,6.91406,2.43945,12.17285,0,5.25928-.81738,9.30908-2.4502,12.15088-1.63379,2.8418-4.47852,4.2627-8.53613,4.2627ZM56.04199,59.02148c.57129-1.93359.85742-4.73242.85742-8.39404,0-3.83789-.29004-6.67969-.86816-8.52539-.5791-1.8457-1.79785-2.76855-3.6582-2.76855s-3.09082.92285-3.69141,2.76855-.90137,4.6875-.90137,8.52539c0,3.66162.30078,6.46436.90137,8.40479s1.83105,2.91113,3.69141,2.91113,3.08301-.97461,3.66895-2.92188Z"/>
      <path fill="#fff" d="M84.82617,44.62891c-1.66992,2.37305-3.06836,4.81934-4.19531,7.33887-.89453,1.97754-1.70117,4.39453-2.41797,7.25098-.71875,2.85645-1.07617,5.2002-1.07617,7.03125h-6.50488c.19043-5.71289,2.06543-11.65234,5.62598-17.81982,2.29883-3.82324,4.22461-6.48926,5.7793-7.99805h-15.8877l.08789-5.625h22.50098v4.8999c-.9375.92285-2.24219,2.56348-3.91211,4.92188Z"/>
    </g>
  </symbol>
  <symbol id="S08" viewBox="0 0 100 100">
    <rect fill="#009474" y="25" width="100" height="50"/>
    <g>
      <path fill="#fff" d="M25.14844,61.57031c1.59668,0,2.89355-.17578,3.88965-.52734,1.88965-.67383,2.83398-1.92676,2.83398-3.75781,0-1.06934-.46875-1.89648-1.40625-2.48242-.9375-.57227-2.40918-1.07715-4.41602-1.5166l-3.42773-.76855c-3.36914-.76172-5.69824-1.58984-6.9873-2.4834-2.18262-1.49414-3.27441-3.83057-3.27441-7.00928,0-2.90039,1.05469-5.31006,3.16406-7.229s5.20801-2.87842,9.29492-2.87842c3.41309,0,6.32422.90479,8.73438,2.71338,2.40918,1.80957,3.67285,4.43506,3.79004,7.87744h-6.50391c-.11719-1.94824-.9668-3.33252-2.54883-4.15283-1.05469-.54199-2.36621-.81299-3.93359-.81299-1.74316,0-3.13477.35156-4.1748,1.05469s-1.55957,1.68457-1.55957,2.94434c0,1.15723.5127,2.02148,1.53809,2.59277.65918.38086,2.06543.82764,4.21875,1.34033l5.58105,1.34033c2.44629.58594,4.29199,1.36963,5.53711,2.35107,1.93359,1.52344,2.90039,3.72852,2.90039,6.61328,0,2.95898-1.13184,5.41699-3.39453,7.37207-2.26367,1.95605-5.46094,2.93359-9.5918,2.93359-4.21875,0-7.53613-.96289-9.95312-2.88965-2.41699-1.92578-3.62598-4.57422-3.62598-7.94336h6.45996c.20508,1.48047.6084,2.58594,1.20898,3.31836,1.09863,1.33301,2.98047,2,5.64648,2Z"/>
      <path fill="#fff" d="M52.37305,67.04102c-4.05762,0-6.90332-1.4209-8.53613-4.2627-1.63379-2.8418-2.4502-6.8916-2.4502-12.15088,0-5.25879.81641-9.31641,2.4502-12.17285,1.63281-2.85645,4.47852-4.28467,8.53613-4.28467s6.90625,1.42822,8.54688,4.28467c1.62598,2.85645,2.43945,6.91406,2.43945,12.17285,0,5.25928-.81738,9.30908-2.4502,12.15088-1.63379,2.8418-4.47852,4.2627-8.53613,4.2627ZM56.04199,59.02148c.57129-1.93359.85742-4.73242.85742-8.39404,0-3.83789-.29004-6.67969-.86816-8.52539-.5791-1.8457-1.79785-2.76855-3.6582-2.76855s-3.09082.92285-3.69141,2.76855-.90137,4.6875-.90137,8.52539c0,3.66162.30078,6.46436.90137,8.40479s1.83105,2.91113,3.69141,2.91113,3.08301-.97461,3.66895-2.92188Z"/>
      <path fill="#fff" d="M68.94043,64.25c-1.83105-1.87402-2.74707-4.15234-2.74707-6.83301,0-1.78711.40625-3.40527,1.21973-4.85645.8125-1.44922,2.00293-2.54102,3.57031-3.27344-1.53809-1.02539-2.53809-2.13477-2.99902-3.3291-.46191-1.19336-.69238-2.31055-.69238-3.35059,0-2.31445.87207-4.28809,2.61523-5.92188,1.74316-1.63281,4.2041-2.44971,7.38379-2.44971,3.17773,0,5.63867.81689,7.38281,2.44971,1.74219,1.63379,2.61328,3.60742,2.61328,5.92188,0,1.04004-.23047,2.15723-.69141,3.35059-.46094,1.19434-1.46094,2.23047-3,3.10938,1.56836.87891,2.74805,2.04395,3.53906,3.49316.79102,1.45117,1.18555,3.06934,1.18555,4.85645,0,2.68066-.99219,4.96191-2.97656,6.84473-1.98633,1.88184-4.75781,2.82324-8.31641,2.82324-3.56055,0-6.25586-.94434-8.08691-2.83496ZM72.69727,57c0,1.56641.40625,2.7832,1.2207,3.64648.8125.86523,1.93555,1.29688,3.37305,1.29688,1.43359,0,2.55859-.43164,3.37109-1.29688.81445-.86328,1.2207-2.08008,1.2207-3.64648,0-1.62695-.41406-2.86035-1.24219-3.70312-.82812-.8418-1.94336-1.26367-3.34961-1.26367s-2.52344.42188-3.35156,1.26367c-.82812.84277-1.24219,2.07617-1.24219,3.70312ZM74.3457,46.14502c.70312.73242,1.68359,1.09863,2.94531,1.09863,1.27344,0,2.25781-.36621,2.95508-1.09863.69531-.73242,1.04297-1.67725,1.04297-2.83447,0-1.25977-.34766-2.24463-1.04297-2.95508-.69727-.71045-1.68164-1.06592-2.95508-1.06592-1.26172,0-2.24609.35547-2.95703,1.06592-.70996.71045-1.06543,1.69531-1.06543,2.95508,0,1.15723.35938,2.10205,1.07715,2.83447Z"/>
    </g>
  </symbol>
  <symbol id="S09" viewBox="0 0 100 100">
    <rect fill="#009474" y="25" width="100" height="50"/>
    <g>
      <path fill="#fff" d="M25.14844,61.57031c1.59668,0,2.89355-.17578,3.88965-.52734,1.88965-.67383,2.83398-1.92676,2.83398-3.75781,0-1.06934-.46875-1.89648-1.40625-2.48242-.9375-.57227-2.40918-1.07715-4.41602-1.5166l-3.42773-.76855c-3.36914-.76172-5.69824-1.58984-6.9873-2.4834-2.18262-1.49414-3.27441-3.83057-3.27441-7.00928,0-2.90039,1.05469-5.31006,3.16406-7.229s5.20801-2.87842,9.29492-2.87842c3.41309,0,6.32422.90479,8.73438,2.71338,2.40918,1.80957,3.67285,4.43506,3.79004,7.87744h-6.50391c-.11719-1.94824-.9668-3.33252-2.54883-4.15283-1.05469-.54199-2.36621-.81299-3.93359-.81299-1.74316,0-3.13477.35156-4.1748,1.05469s-1.55957,1.68457-1.55957,2.94434c0,1.15723.5127,2.02148,1.53809,2.59277.65918.38086,2.06543.82764,4.21875,1.34033l5.58105,1.34033c2.44629.58594,4.29199,1.36963,5.53711,2.35107,1.93359,1.52344,2.90039,3.72852,2.90039,6.61328,0,2.95898-1.13184,5.41699-3.39453,7.37207-2.26367,1.95605-5.46094,2.93359-9.5918,2.93359-4.21875,0-7.53613-.96289-9.95312-2.88965-2.41699-1.92578-3.62598-4.57422-3.62598-7.94336h6.45996c.20508,1.48047.6084,2.58594,1.20898,3.31836,1.09863,1.33301,2.98047,2,5.64648,2Z"/>
      <path fill="#fff" d="M52.37305,67.04102c-4.05762,0-6.90332-1.4209-8.53613-4.2627-1.63379-2.8418-2.4502-6.8916-2.4502-12.15088,0-5.25879.81641-9.31641,2.4502-12.17285,1.63281-2.85645,4.47852-4.28467,8.53613-4.28467s6.90625,1.42822,8.54688,4.28467c1.62598,2.85645,2.43945,6.91406,2.43945,12.17285,0,5.25928-.81738,9.30908-2.4502,12.15088-1.63379,2.8418-4.47852,4.2627-8.53613,4.2627ZM56.04199,59.02148c.57129-1.93359.85742-4.73242.85742-8.39404,0-3.83789-.29004-6.67969-.86816-8.52539-.5791-1.8457-1.79785-2.76855-3.6582-2.76855s-3.09082.92285-3.69141,2.76855-.90137,4.6875-.90137,8.52539c0,3.66162.30078,6.46436.90137,8.40479s1.83105,2.91113,3.69141,2.91113,3.08301-.97461,3.66895-2.92188Z"/>
      <path fill="#fff" d="M76.69727,67.17285c-2.38867,0-4.53418-.70703-6.43848-2.12012-1.9043-1.41406-2.99609-3.47559-3.27441-6.18555h6.24023c.14648.9375.54297,1.69922,1.1875,2.28516s1.5.87891,2.57031.87891c2.06641,0,3.51562-1.14258,4.35156-3.42773.45312-1.25977.73828-3.09766.85547-5.51562-.57031.71875-1.17969,1.26758-1.82227,1.64844-1.17383.70312-2.61523,1.05469-4.33008,1.05469-2.5332,0-4.78223-.875-6.74512-2.62598-1.96289-1.75-2.94434-4.27344-2.94434-7.56934,0-3.41309.98438-6.17773,2.95508-8.29492,1.96973-2.11621,4.53027-3.1748,7.67969-3.1748,4.84766,0,8.17383,2.146,9.97656,6.43799,1.02344,2.43164,1.53711,5.63232,1.53711,9.60205,0,3.85254-.49023,7.06836-1.47266,9.64648-1.875,4.90723-5.31641,7.36035-10.32617,7.36035ZM74.5,40.25635c-1.20215.9375-1.80273,2.52686-1.80273,4.76807,0,1.88965.38477,3.30664,1.1543,4.25195.76953.94434,1.95117,1.41699,3.54883,1.41699.86328,0,1.67578-.24902,2.43945-.74707,1.41992-.9082,2.13086-2.48291,2.13086-4.72412,0-1.80176-.42188-3.22998-1.26367-4.28467s-1.99609-1.58203-3.46094-1.58203c-1.07031,0-1.98438.30029-2.74609.90088Z"/>
    </g>
  </symbol>
  <symbol id="S10" viewBox="0 0 100 100">
    <rect fill="#009474" y="25" width="100" height="50"/>
    <g>
      <path fill="#fff" d="M25.14844,61.57031c1.59668,0,2.89355-.17578,3.88965-.52734,1.88965-.67383,2.83398-1.92676,2.83398-3.75781,0-1.06934-.46875-1.89648-1.40625-2.48242-.9375-.57227-2.40918-1.07715-4.41602-1.5166l-3.42773-.76855c-3.36914-.76172-5.69824-1.58984-6.9873-2.4834-2.18262-1.49414-3.27441-3.83057-3.27441-7.00928,0-2.90039,1.05469-5.31006,3.16406-7.229s5.20801-2.87842,9.29492-2.87842c3.41309,0,6.32422.90479,8.73438,2.71338,2.40918,1.80957,3.67285,4.43506,3.79004,7.87744h-6.50391c-.11719-1.94824-.9668-3.33252-2.54883-4.15283-1.05469-.54199-2.36621-.81299-3.93359-.81299-1.74316,0-3.13477.35156-4.1748,1.05469s-1.55957,1.68457-1.55957,2.94434c0,1.15723.5127,2.02148,1.53809,2.59277.65918.38086,2.06543.82764,4.21875,1.34033l5.58105,1.34033c2.44629.58594,4.29199,1.36963,5.53711,2.35107,1.93359,1.52344,2.90039,3.72852,2.90039,6.61328,0,2.95898-1.13184,5.41699-3.39453,7.37207-2.26367,1.95605-5.46094,2.93359-9.5918,2.93359-4.21875,0-7.53613-.96289-9.95312-2.88965-2.41699-1.92578-3.62598-4.57422-3.62598-7.94336h6.45996c.20508,1.48047.6084,2.58594,1.20898,3.31836,1.09863,1.33301,2.98047,2,5.64648,2Z"/>
      <path fill="#fff" d="M57.00879,66.25h-6.41602v-21.97266h-7.49219v-4.2627c1.97754-.08789,3.36133-.21973,4.15234-.39551,1.25977-.27832,2.28516-.83496,3.07617-1.66992.54199-.57129.95215-1.33301,1.23047-2.28516.16113-.57129.24219-.99609.24219-1.27441h5.20703v31.86035Z"/>
      <path fill="#fff" d="M77.40039,67.04102c-4.05859,0-6.9043-1.4209-8.53711-4.2627-1.63379-2.8418-2.4502-6.8916-2.4502-12.15088,0-5.25879.81641-9.31641,2.4502-12.17285,1.63281-2.85645,4.47852-4.28467,8.53711-4.28467,4.05664,0,6.90625,1.42822,8.54688,4.28467,1.62695,2.85645,2.43945,6.91406,2.43945,12.17285,0,5.25928-.81641,9.30908-2.45117,12.15088-1.63281,2.8418-4.47852,4.2627-8.53516,4.2627ZM81.07031,59.02148c.57031-1.93359.85547-4.73242.85547-8.39404,0-3.83789-.28906-6.67969-.86719-8.52539s-1.79883-2.76855-3.6582-2.76855c-1.86133,0-3.0918.92285-3.69141,2.76855-.60156,1.8457-.90137,4.6875-.90137,8.52539,0,3.66162.2998,6.46436.90137,8.40479.59961,1.94043,1.83008,2.91113,3.69141,2.91113,1.85938,0,3.08203-.97461,3.66992-2.92188Z"/>
    </g>
  </symbol>
  <symbol id="S11" viewBox="0 0 100 100">
    <rect fill="#009474" y="25" width="100" height="50"/>
    <g>
      <path fill="#fff" d="M25.14844,61.57031c1.59668,0,2.89355-.17578,3.88965-.52734,1.88965-.67383,2.83398-1.92676,2.83398-3.75781,0-1.06934-.46875-1.89648-1.40625-2.48242-.9375-.57227-2.40918-1.07715-4.41602-1.5166l-3.42773-.76855c-3.36914-.76172-5.69824-1.58984-6.9873-2.4834-2.18262-1.49414-3.27441-3.83057-3.27441-7.00928,0-2.90039,1.05469-5.31006,3.16406-7.229s5.20801-2.87842,9.29492-2.87842c3.41309,0,6.32422.90479,8.73438,2.71338,2.40918,1.80957,3.67285,4.43506,3.79004,7.87744h-6.50391c-.11719-1.94824-.9668-3.33252-2.54883-4.15283-1.05469-.54199-2.36621-.81299-3.93359-.81299-1.74316,0-3.13477.35156-4.1748,1.05469s-1.55957,1.68457-1.55957,2.94434c0,1.15723.5127,2.02148,1.53809,2.59277.65918.38086,2.06543.82764,4.21875,1.34033l5.58105,1.34033c2.44629.58594,4.29199,1.36963,5.53711,2.35107,1.93359,1.52344,2.90039,3.72852,2.90039,6.61328,0,2.95898-1.13184,5.41699-3.39453,7.37207-2.26367,1.95605-5.46094,2.93359-9.5918,2.93359-4.21875,0-7.53613-.96289-9.95312-2.88965-2.41699-1.92578-3.62598-4.57422-3.62598-7.94336h6.45996c.20508,1.48047.6084,2.58594,1.20898,3.31836,1.09863,1.33301,2.98047,2,5.64648,2Z"/>
      <path fill="#fff" d="M57.00879,66.25h-6.41602v-21.97266h-7.49219v-4.2627c1.97754-.08789,3.36133-.21973,4.15234-.39551,1.25977-.27832,2.28516-.83496,3.07617-1.66992.54199-.57129.95215-1.33301,1.23047-2.28516.16113-.57129.24219-.99609.24219-1.27441h5.20703v31.86035Z"/>
      <path fill="#fff" d="M82.03711,66.25h-6.41602v-21.97266h-7.49414v-4.2627c1.97754-.08789,3.3623-.21973,4.15332-.39551,1.25977-.27832,2.28613-.83496,3.07715-1.66992.54102-.57129.95117-1.33301,1.23047-2.28516.16016-.57129.24023-.99609.24023-1.27441h5.20898v31.86035Z"/>
    </g>
  </symbol>
  <symbol id="S12" viewBox="0 0 100 100">
    <rect fill="#009474" y="25" width="100" height="50"/>
    <g>
      <path fill="#fff" d="M25.14844,61.57031c1.59668,0,2.89355-.17578,3.88965-.52734,1.88965-.67383,2.83398-1.92676,2.83398-3.75781,0-1.06934-.46875-1.89648-1.40625-2.48242-.9375-.57227-2.40918-1.07715-4.41602-1.5166l-3.42773-.76855c-3.36914-.76172-5.69824-1.58984-6.9873-2.4834-2.18262-1.49414-3.27441-3.83057-3.27441-7.00928,0-2.90039,1.05469-5.31006,3.16406-7.229s5.20801-2.87842,9.29492-2.87842c3.41309,0,6.32422.90479,8.73438,2.71338,2.40918,1.80957,3.67285,4.43506,3.79004,7.87744h-6.50391c-.11719-1.94824-.9668-3.33252-2.54883-4.15283-1.05469-.54199-2.36621-.81299-3.93359-.81299-1.74316,0-3.13477.35156-4.1748,1.05469s-1.55957,1.68457-1.55957,2.94434c0,1.15723.5127,2.02148,1.53809,2.59277.65918.38086,2.06543.82764,4.21875,1.34033l5.58105,1.34033c2.44629.58594,4.29199,1.36963,5.53711,2.35107,1.93359,1.52344,2.90039,3.72852,2.90039,6.61328,0,2.95898-1.13184,5.41699-3.39453,7.37207-2.26367,1.95605-5.46094,2.93359-9.5918,2.93359-4.21875,0-7.53613-.96289-9.95312-2.88965-2.41699-1.92578-3.62598-4.57422-3.62598-7.94336h6.45996c.20508,1.48047.6084,2.58594,1.20898,3.31836,1.09863,1.33301,2.98047,2,5.64648,2Z"/>
      <path fill="#fff" d="M57.00879,66.25h-6.41602v-21.97266h-7.49219v-4.2627c1.97754-.08789,3.36133-.21973,4.15234-.39551,1.25977-.27832,2.28516-.83496,3.07617-1.66992.54199-.57129.95215-1.33301,1.23047-2.28516.16113-.57129.24219-.99609.24219-1.27441h5.20703v31.86035Z"/>
      <path fill="#fff" d="M80.65234,40.87158c-.74805-.89355-1.81641-1.34033-3.20898-1.34033-1.9043,0-3.20117.71045-3.88867,2.13135-.39551.82031-.62988,2.12402-.70312,3.91113h-6.08691c.10254-2.70996.59375-4.8999,1.47266-6.56982,1.66992-3.17871,4.63574-4.76807,8.89941-4.76807,3.36914,0,6.04883.93408,8.04102,2.80127,1.99219,1.86816,2.98828,4.33984,2.98828,7.41602,0,2.3584-.70312,4.45312-2.10938,6.28418-.92188,1.21582-2.4375,2.57129-4.54688,4.06543l-2.50586,1.7793c-1.56836,1.11328-2.64062,1.91895-3.21875,2.41699s-1.06641,1.07715-1.46094,1.73535h13.9082v5.51562h-21.81934c.05859-2.28516.5498-4.37305,1.47266-6.26172.89355-2.125,3.00293-4.37305,6.3291-6.74609,2.88477-2.06543,4.75195-3.54492,5.60156-4.43848,1.30469-1.3916,1.95703-2.91504,1.95703-4.57031,0-1.34766-.375-2.46826-1.12109-3.36182Z"/>
    </g>
  </symbol>
  <symbol id="S13" viewBox="0 0 100 100">
    <rect fill="#009474" y="25" width="100" height="50"/>
    <g>
      <path fill="#fff" d="M25.14844,61.57031c1.59668,0,2.89355-.17578,3.88965-.52734,1.88965-.67383,2.83398-1.92676,2.83398-3.75781,0-1.06934-.46875-1.89648-1.40625-2.48242-.9375-.57227-2.40918-1.07715-4.41602-1.5166l-3.42773-.76855c-3.36914-.76172-5.69824-1.58984-6.9873-2.4834-2.18262-1.49414-3.27441-3.83057-3.27441-7.00928,0-2.90039,1.05469-5.31006,3.16406-7.229s5.20801-2.87842,9.29492-2.87842c3.41309,0,6.32422.90479,8.73438,2.71338,2.40918,1.80957,3.67285,4.43506,3.79004,7.87744h-6.50391c-.11719-1.94824-.9668-3.33252-2.54883-4.15283-1.05469-.54199-2.36621-.81299-3.93359-.81299-1.74316,0-3.13477.35156-4.1748,1.05469s-1.55957,1.68457-1.55957,2.94434c0,1.15723.5127,2.02148,1.53809,2.59277.65918.38086,2.06543.82764,4.21875,1.34033l5.58105,1.34033c2.44629.58594,4.29199,1.36963,5.53711,2.35107,1.93359,1.52344,2.90039,3.72852,2.90039,6.61328,0,2.95898-1.13184,5.41699-3.39453,7.37207-2.26367,1.95605-5.46094,2.93359-9.5918,2.93359-4.21875,0-7.53613-.96289-9.95312-2.88965-2.41699-1.92578-3.62598-4.57422-3.62598-7.94336h6.45996c.20508,1.48047.6084,2.58594,1.20898,3.31836,1.09863,1.33301,2.98047,2,5.64648,2Z"/>
      <path fill="#fff" d="M57.00879,66.25h-6.41602v-21.97266h-7.49219v-4.2627c1.97754-.08789,3.36133-.21973,4.15234-.39551,1.25977-.27832,2.28516-.83496,3.07617-1.66992.54199-.57129.95215-1.33301,1.23047-2.28516.16113-.57129.24219-.99609.24219-1.27441h5.20703v31.86035Z"/>
      <path fill="#fff" d="M73.62109,40.73975c-.7041.9375-1.04102,2.18994-1.01172,3.75732h-5.84473c.05859-1.58203.33008-3.0835.81348-4.50439.5127-1.24512,1.31836-2.39502,2.41699-3.44971.82031-.74707,1.79395-1.31836,2.92188-1.71387s2.5127-.59326,4.15332-.59326c3.04688,0,5.50391.7876,7.37109,2.36182,1.86914,1.5752,2.80273,3.68799,2.80273,6.33936,0,1.875-.55664,3.45703-1.66992,4.74609-.70312.80566-1.43555,1.35498-2.19727,1.64795.57031,0,1.39062.49072,2.46094,1.47217,1.5957,1.47998,2.39453,3.50146,2.39453,6.06396,0,2.69531-.93359,5.06543-2.80078,7.1084-1.86914,2.04395-4.63281,3.06543-8.29492,3.06543-4.5127,0-7.64746-1.47266-9.40527-4.41602-.92285-1.56836-1.43555-3.61914-1.53809-6.15234h6.15234c0,1.27344.20508,2.32812.61523,3.16406.76172,1.53711,2.14648,2.30664,4.1543,2.30664,1.23047,0,2.30273-.4209,3.21875-1.26367.91406-.8418,1.37305-2.05469,1.37305-3.63672,0-2.09375-.84961-3.49316-2.54883-4.19629-.9668-.39551-2.49023-.59277-4.57031-.59277v-4.48291c2.03516-.0293,3.45703-.22705,4.26172-.59326,1.39258-.61523,2.08789-1.86035,2.08789-3.73535,0-1.21582-.35547-2.20459-1.06641-2.96631-.70898-.76172-1.70898-1.14258-2.99805-1.14258-1.48047,0-2.56445.46875-3.25195,1.40625Z"/>
    </g>
  </symbol>
  <symbol id="S14" viewBox="0 0 100 100">
    <rect fill="#009474" y="25" width="100" height="50"/>
    <g>
      <path fill="#fff" d="M25.14844,61.57031c1.59668,0,2.89355-.17578,3.88965-.52734,1.88965-.67383,2.83398-1.92676,2.83398-3.75781,0-1.06934-.46875-1.89648-1.40625-2.48242-.9375-.57227-2.40918-1.07715-4.41602-1.5166l-3.42773-.76855c-3.36914-.76172-5.69824-1.58984-6.9873-2.4834-2.18262-1.49414-3.27441-3.83057-3.27441-7.00928,0-2.90039,1.05469-5.31006,3.16406-7.229s5.20801-2.87842,9.29492-2.87842c3.41309,0,6.32422.90479,8.73438,2.71338,2.40918,1.80957,3.67285,4.43506,3.79004,7.87744h-6.50391c-.11719-1.94824-.9668-3.33252-2.54883-4.15283-1.05469-.54199-2.36621-.81299-3.93359-.81299-1.74316,0-3.13477.35156-4.1748,1.05469s-1.55957,1.68457-1.55957,2.94434c0,1.15723.5127,2.02148,1.53809,2.59277.65918.38086,2.06543.82764,4.21875,1.34033l5.58105,1.34033c2.44629.58594,4.29199,1.36963,5.53711,2.35107,1.93359,1.52344,2.90039,3.72852,2.90039,6.61328,0,2.95898-1.13184,5.41699-3.39453,7.37207-2.26367,1.95605-5.46094,2.93359-9.5918,2.93359-4.21875,0-7.53613-.96289-9.95312-2.88965-2.41699-1.92578-3.62598-4.57422-3.62598-7.94336h6.45996c.20508,1.48047.6084,2.58594,1.20898,3.31836,1.09863,1.33301,2.98047,2,5.64648,2Z"/>
      <path fill="#fff" d="M57.00879,66.25h-6.41602v-21.97266h-7.49219v-4.2627c1.97754-.08789,3.36133-.21973,4.15234-.39551,1.25977-.27832,2.28516-.83496,3.07617-1.66992.54199-.57129.95215-1.33301,1.23047-2.28516.16113-.57129.24219-.99609.24219-1.27441h5.20703v31.86035Z"/>
      <path fill="#fff" d="M88.54102,54.49414v4.90039h-3.60352v6.85547h-6.13086v-6.85547h-12.61328v-5.4707l11.71289-19.33643h7.03125v19.90674h3.60352ZM70.83008,54.49414h7.97656v-13.75439l-7.97656,13.75439Z"/>
    </g>
  </symbol>
  <symbol id="S15" viewBox="0 0 100 100">
    <rect fill="#009474" y="25" width="100" height="50"/>
    <g>
      <path fill="#fff" d="M25.14844,61.57031c1.59668,0,2.89355-.17578,3.88965-.52734,1.88965-.67383,2.83398-1.92676,2.83398-3.75781,0-1.06934-.46875-1.89648-1.40625-2.48242-.9375-.57227-2.40918-1.07715-4.41602-1.5166l-3.42773-.76855c-3.36914-.76172-5.69824-1.58984-6.9873-2.4834-2.18262-1.49414-3.27441-3.83057-3.27441-7.00928,0-2.90039,1.05469-5.31006,3.16406-7.229s5.20801-2.87842,9.29492-2.87842c3.41309,0,6.32422.90479,8.73438,2.71338,2.40918,1.80957,3.67285,4.43506,3.79004,7.87744h-6.50391c-.11719-1.94824-.9668-3.33252-2.54883-4.15283-1.05469-.54199-2.36621-.81299-3.93359-.81299-1.74316,0-3.13477.35156-4.1748,1.05469s-1.55957,1.68457-1.55957,2.94434c0,1.15723.5127,2.02148,1.53809,2.59277.65918.38086,2.06543.82764,4.21875,1.34033l5.58105,1.34033c2.44629.58594,4.29199,1.36963,5.53711,2.35107,1.93359,1.52344,2.90039,3.72852,2.90039,6.61328,0,2.95898-1.13184,5.41699-3.39453,7.37207-2.26367,1.95605-5.46094,2.93359-9.5918,2.93359-4.21875,0-7.53613-.96289-9.95312-2.88965-2.41699-1.92578-3.62598-4.57422-3.62598-7.94336h6.45996c.20508,1.48047.6084,2.58594,1.20898,3.31836,1.09863,1.33301,2.98047,2,5.64648,2Z"/>
      <path fill="#fff" d="M57.00879,66.25h-6.41602v-21.97266h-7.49219v-4.2627c1.97754-.08789,3.36133-.21973,4.15234-.39551,1.25977-.27832,2.28516-.83496,3.07617-1.66992.54199-.57129.95215-1.33301,1.23047-2.28516.16113-.57129.24219-.99609.24219-1.27441h5.20703v31.86035Z"/>
      <path fill="#fff" d="M77.00391,50.42969c-.76172,0-1.41992.09521-1.97656.28564-.98242.35107-1.72168,1.00342-2.21973,1.95557l-5.625-.26367,2.24121-17.6001h17.55664v5.31738h-13.03027l-1.14258,6.96533c.9668-.62988,1.72168-1.04736,2.2627-1.25244.9082-.33691,2.01367-.50537,3.31836-.50537,2.63672,0,4.93555.88623,6.90039,2.65869,1.96094,1.77246,2.94336,4.35107,2.94336,7.73389,0,2.94531-.94531,5.57422-2.83398,7.88867-1.89062,2.31445-4.7168,3.47168-8.48242,3.47168-3.03125,0-5.52246-.81348-7.4707-2.43848-1.94824-1.62695-3.03223-3.93359-3.25195-6.92188h6.24023c.24902,1.3623.72559,2.41406,1.42871,3.15332.7041.73926,1.72754,1.10938,3.07715,1.10938,1.55078,0,2.73438-.5459,3.54688-1.63672.81445-1.09082,1.2207-2.46484,1.2207-4.12012,0-1.62598-.38086-2.99902-1.14258-4.12012-.76172-1.12012-1.94922-1.68066-3.56055-1.68066Z"/>
    </g>
  </symbol>
  <symbol id="S16" viewBox="0 0 100 100">
    <rect fill="#009474" y="25" width="100" height="50"/>
    <g>
      <path fill="#fff" d="M25.14844,61.57031c1.59668,0,2.89355-.17578,3.88965-.52734,1.88965-.67383,2.83398-1.92676,2.83398-3.75781,0-1.06934-.46875-1.89648-1.40625-2.48242-.9375-.57227-2.40918-1.07715-4.41602-1.5166l-3.42773-.76855c-3.36914-.76172-5.69824-1.58984-6.9873-2.4834-2.18262-1.49414-3.27441-3.83057-3.27441-7.00928,0-2.90039,1.05469-5.31006,3.16406-7.229s5.20801-2.87842,9.29492-2.87842c3.41309,0,6.32422.90479,8.73438,2.71338,2.40918,1.80957,3.67285,4.43506,3.79004,7.87744h-6.50391c-.11719-1.94824-.9668-3.33252-2.54883-4.15283-1.05469-.54199-2.36621-.81299-3.93359-.81299-1.74316,0-3.13477.35156-4.1748,1.05469s-1.55957,1.68457-1.55957,2.94434c0,1.15723.5127,2.02148,1.53809,2.59277.65918.38086,2.06543.82764,4.21875,1.34033l5.58105,1.34033c2.44629.58594,4.29199,1.36963,5.53711,2.35107,1.93359,1.52344,2.90039,3.72852,2.90039,6.61328,0,2.95898-1.13184,5.41699-3.39453,7.37207-2.26367,1.95605-5.46094,2.93359-9.5918,2.93359-4.21875,0-7.53613-.96289-9.95312-2.88965-2.41699-1.92578-3.62598-4.57422-3.62598-7.94336h6.45996c.20508,1.48047.6084,2.58594,1.20898,3.31836,1.09863,1.33301,2.98047,2,5.64648,2Z"/>
      <path fill="#fff" d="M57.00879,66.25h-6.41602v-21.97266h-7.49219v-4.2627c1.97754-.08789,3.36133-.21973,4.15234-.39551,1.25977-.27832,2.28516-.83496,3.07617-1.66992.54199-.57129.95215-1.33301,1.23047-2.28516.16113-.57129.24219-.99609.24219-1.27441h5.20703v31.86035Z"/>
      <path fill="#fff" d="M78.76172,45.57373c2.82812,0,5.14648.95947,6.95508,2.87842s2.71289,4.37207,2.71289,7.36035c0,2.97461-.88672,5.5957-2.6582,7.86719-1.77344,2.27051-4.52539,3.40527-8.26172,3.40527-4.01367,0-6.97266-1.67676-8.87695-5.03223-1.47949-2.62109-2.21973-6.00586-2.21973-10.15039,0-2.43213.10254-4.40967.30762-5.93311.36621-2.70996,1.07715-4.96582,2.13184-6.76758.9082-1.53809,2.09766-2.77588,3.57031-3.71338,1.47168-.9375,3.2334-1.40625,5.28418-1.40625,2.95898,0,5.31836.75781,7.07617,2.27441,1.75781,1.51562,2.74609,3.53369,2.9668,6.05322h-6.24023c0-.5127-.19922-1.07666-.59375-1.69189-.67383-.99609-1.69141-1.49414-3.05469-1.49414-2.03711,0-3.48633,1.14258-4.35059,3.42773-.46875,1.25977-.79102,3.12012-.9668,5.58105.77637-.92285,1.67676-1.59668,2.70215-2.02148s2.19727-.63721,3.51562-.63721ZM74.54297,51.55078c-1.23047.95117-1.8457,2.49023-1.8457,4.61328,0,1.71484.46191,3.11328,1.38477,4.19727.92383,1.08398,2.09375,1.62598,3.51562,1.62598,1.39062,0,2.48633-.52344,3.28516-1.57129.79883-1.04688,1.19727-2.40625,1.19727-4.07617,0-1.85938-.45508-3.28418-1.36133-4.27344-.91016-.98828-2.02148-1.48291-3.33984-1.48291-1.07031,0-2.01562.32227-2.83594.96729Z"/>
    </g>
  </symbol>
  <symbol id="S17" viewBox="0 0 100 100">
    <rect fill="#009474" y="25" width="100" height="50"/>
    <g>
      <path fill="#fff" d="M25.14844,61.57031c1.59668,0,2.89355-.17578,3.88965-.52734,1.88965-.67383,2.83398-1.92676,2.83398-3.75781,0-1.06934-.46875-1.89648-1.40625-2.48242-.9375-.57227-2.40918-1.07715-4.41602-1.5166l-3.42773-.76855c-3.36914-.76172-5.69824-1.58984-6.9873-2.4834-2.18262-1.49414-3.27441-3.83057-3.27441-7.00928,0-2.90039,1.05469-5.31006,3.16406-7.229s5.20801-2.87842,9.29492-2.87842c3.41309,0,6.32422.90479,8.73438,2.71338,2.40918,1.80957,3.67285,4.43506,3.79004,7.87744h-6.50391c-.11719-1.94824-.9668-3.33252-2.54883-4.15283-1.05469-.54199-2.36621-.81299-3.93359-.81299-1.74316,0-3.13477.35156-4.1748,1.05469s-1.55957,1.68457-1.55957,2.94434c0,1.15723.5127,2.02148,1.53809,2.59277.65918.38086,2.06543.82764,4.21875,1.34033l5.58105,1.34033c2.44629.58594,4.29199,1.36963,5.53711,2.35107,1.93359,1.52344,2.90039,3.72852,2.90039,6.61328,0,2.95898-1.13184,5.41699-3.39453,7.37207-2.26367,1.95605-5.46094,2.93359-9.5918,2.93359-4.21875,0-7.53613-.96289-9.95312-2.88965-2.41699-1.92578-3.62598-4.57422-3.62598-7.94336h6.45996c.20508,1.48047.6084,2.58594,1.20898,3.31836,1.09863,1.33301,2.98047,2,5.64648,2Z"/>
      <path fill="#fff" d="M57.00879,66.25h-6.41602v-21.97266h-7.49219v-4.2627c1.97754-.08789,3.36133-.21973,4.15234-.39551,1.25977-.27832,2.28516-.83496,3.07617-1.66992.54199-.57129.95215-1.33301,1.23047-2.28516.16113-.57129.24219-.99609.24219-1.27441h5.20703v31.86035Z"/>
      <path fill="#fff" d="M84.82617,44.62891c-1.66992,2.37305-3.06836,4.81934-4.19531,7.33887-.89453,1.97754-1.70117,4.39453-2.41797,7.25098-.71875,2.85645-1.07617,5.2002-1.07617,7.03125h-6.50488c.19043-5.71289,2.06543-11.65234,5.62598-17.81982,2.29883-3.82324,4.22461-6.48926,5.7793-7.99805h-15.8877l.08789-5.625h22.50098v4.8999c-.9375.92285-2.24219,2.56348-3.91211,4.92188Z"/>
    </g>
  </symbol>
</svg>