<?xml version="1.0" encoding="UTF-8"?>
<svg xmlns="http://www.w3.org/2000/svg" xmlns:xlink="http://www.w3.org/1999/xlink">
  <symbol id="KK" viewBox="0 0 100 100">
    <path fill="#231815" d="M50,3.33333C23.76667,3.33333,0,43.33333,0,77.53333c0,12.9,6.66667,19.13333,20,19.13333h60c13.33333,0,20-6.23333,20-19.13333C100,43.33333,76.23333,3.33333,50,3.33333Z"/>
    <path fill="#fff" d="M20,93.66667c-11.75716,0-17-4.97591-17-16.13346,0-16.00911,5.48893-34.06413,14.68262-48.2972C27.08431,14.68099,38.86361,6.33333,50,6.33333s22.91536,8.34766,32.31771,22.90267c9.19336,14.23307,14.68229,32.28809,14.68229,48.2972,0,11.15755-5.24284,16.13346-17,16.13346H20Z"/>
    <rect fill="#231815" x="15.8" y="26.66667" width="68.4" height="68.4"/>
    <g>
      <path fill="#fff" d="M41.24316,70.86621l-11.38672-14.69824h-.09082v14.69824h-6.35107v-31.66406h6.35107v13.60938l11.43213-13.60938h7.80273l-13.02002,14.9248,13.56396,16.73926h-8.30127Z"/>
      <path fill="#fff" d="M71.50293,70.86621l-11.38672-14.69824h-.09082v14.69824h-6.35059v-31.66406h6.35059v13.60938l11.43164-13.60938h7.80273l-13.01953,14.9248,13.56445,16.73926h-8.30176Z"/>
    </g>
  </symbol>
  <symbol id="KK01" viewBox="0 0 100 100">
    <path fill="#231815" d="M50,3.33333C23.76667,3.33333,0,43.33333,0,77.53333c0,12.9,6.66667,19.13333,20,19.13333h60c13.33333,0,20-6.23333,20-19.13333C100,43.33333,76.23333,3.33333,50,3.33333Z"/>
    <path fill="#fff" d="M20,93.66667c-11.75716,0-17-4.97591-17-16.13346,0-16.00911,5.48893-34.06413,14.68262-48.2972C27.08431,14.68099,38.86361,6.33333,50,6.33333s22.91536,8.34766,32.31771,22.90267c9.19336,14.23307,14.68229,32.28809,14.68229,48.2972,0,11.15755-5.24284,16.13346-17,16.13346H20Z"/>
    <rect fill="#231815" x="18.76667" y="40.86667" width="62.46667" height="54.2"/>
    <g>
      <path fill="#231815" d="M44.92871,35.625l-6.59082-8.5083h-.05273v8.5083h-3.67676v-18.32959h3.67676v7.87793l6.61719-7.87793h4.5166l-7.53613,8.63965,7.85156,9.68994h-4.80566Z"/>
      <path fill="#231815" d="M62.44727,35.625l-6.59082-8.5083h-.05273v8.5083h-3.67676v-18.32959h3.67676v7.87793l6.61719-7.87793h4.5166l-7.53613,8.63965,7.85156,9.68994h-4.80566Z"/>
    </g>
    <g>
      <path fill="#fff" d="M49.9668,72.89746c0,10.03613-2.49609,15.08008-9.9834,15.08008-3.7168,0-6.79688-1.2207-8.44238-4.9375-1.11523-2.49609-1.32715-5.62891-1.32715-10.30176v-8.70898c0-4.24805.47754-7.38086,1.53906-9.61035,1.59375-3.3457,4.51367-4.56689,8.17773-4.56689,2.81445,0,5.52246.69043,7.38086,3.07959,1.69922,2.12402,2.65527,5.62891,2.65527,11.36328v8.60254ZM34.99219,74.0127c0,6.90234,1.69922,10.19531,4.93848,10.19531,3.92969,0,5.25684-4.24805,5.25684-10.88574v-8.60254c0-6.4248-1.59277-10.93848-5.09766-10.93848-3.34473,0-5.09766,3.55762-5.09766,10.83203v9.39941Z"/>
      <path fill="#fff" d="M67.2207,50.64893v36.85107h-4.88477v-31.48828c-1.75293,1.32715-3.55762,2.54883-5.52246,3.7168v-4.67285c2.23047-1.06152,4.35449-2.60156,6-4.40674h4.40723Z"/>
    </g>
  </symbol>
  <symbol id="KK02" viewBox="0 0 100 100">
    <path fill="#231815" d="M50,3.33333C23.76667,3.33333,0,43.33333,0,77.53333c0,12.9,6.66667,19.13333,20,19.13333h60c13.33333,0,20-6.23333,20-19.13333C100,43.33333,76.23333,3.33333,50,3.33333Z"/>
    <path fill="#fff" d="M20,93.66667c-11.75716,0-17-4.97591-17-16.13346,0-16.00911,5.48893-34.06413,14.68262-48.2972C27.08431,14.68099,38.86361,6.33333,50,6.33333s22.91536,8.34766,32.31771,22.90267c9.19336,14.23307,14.68229,32.28809,14.68229,48.2972,0,11.15755-5.24284,16.13346-17,16.13346H20Z"/>
    <rect fill="#231815" x="18.76667" y="40.86667" width="62.46667" height="54.2"/>
    <g>
      <path fill="#231815" d="M44.92871,35.625l-6.59082-8.5083h-.05273v8.5083h-3.67676v-18.32959h3.67676v7.87793l6.61719-7.87793h4.5166l-7.53613,8.63965,7.85156,9.68994h-4.80566Z"/>
      <path fill="#231815" d="M62.44727,35.625l-6.59082-8.5083h-.05273v8.5083h-3.67676v-18.32959h3.67676v7.87793l6.61719-7.87793h4.5166l-7.53613,8.63965,7.85156,9.68994h-4.80566Z"/>
    </g>
    <g>
      <path fill="#fff" d="M48.0918,72.89746c0,10.03613-2.49609,15.08008-9.9834,15.08008-3.7168,0-6.79688-1.2207-8.44238-4.9375-1.11523-2.49609-1.32715-5.62891-1.32715-10.30176v-8.70898c0-4.24805.47754-7.38086,1.53906-9.61035,1.59375-3.3457,4.51367-4.56689,8.17773-4.56689,2.81445,0,5.52246.69043,7.38086,3.07959,1.69922,2.12402,2.65527,5.62891,2.65527,11.36328v8.60254ZM33.11719,74.0127c0,6.90234,1.69922,10.19531,4.93848,10.19531,3.92969,0,5.25684-4.24805,5.25684-10.88574v-8.60254c0-6.4248-1.59277-10.93848-5.09766-10.93848-3.34473,0-5.09766,3.55762-5.09766,10.83203v9.39941Z"/>
      <path fill="#fff" d="M64.97461,73.85352l-7.4873,9.39844h14.5498v4.24805h-19.75391v-4.40723l10.24902-13.96582c2.49512-3.39844,3.7168-6.47754,3.7168-9.82324,0-3.50488-1.59375-5.41602-4.46094-5.41602-2.81445,0-4.40723,1.8584-4.40723,5.68164v.58398h-4.99121c0-.53125-.05273-.95605-.05273-1.22168,0-5.73438,3.39844-8.86719,9.39844-8.86719,6.15918,0,9.39844,3.23926,9.39844,9.66406,0,4.45996-1.69922,8.49609-6.15918,14.125Z"/>
    </g>
  </symbol>
  <symbol id="KK03" viewBox="0 0 100 100">
    <path fill="#231815" d="M50,3.33333C23.76667,3.33333,0,43.33333,0,77.53333c0,12.9,6.66667,19.13333,20,19.13333h60c13.33333,0,20-6.23333,20-19.13333C100,43.33333,76.23333,3.33333,50,3.33333Z"/>
    <path fill="#fff" d="M20,93.66667c-11.75716,0-17-4.97591-17-16.13346,0-16.00911,5.48893-34.06413,14.68262-48.2972C27.08431,14.68099,38.86361,6.33333,50,6.33333s22.91536,8.34766,32.31771,22.90267c9.19336,14.23307,14.68229,32.28809,14.68229,48.2972,0,11.15755-5.24284,16.13346-17,16.13346H20Z"/>
    <rect fill="#231815" x="18.76667" y="40.86667" width="62.46667" height="54.2"/>
    <g>
      <path fill="#231815" d="M44.92871,35.625l-6.59082-8.5083h-.05273v8.5083h-3.67676v-18.32959h3.67676v7.87793l6.61719-7.87793h4.5166l-7.53613,8.63965,7.85156,9.68994h-4.80566Z"/>
      <path fill="#231815" d="M62.44727,35.625l-6.59082-8.5083h-.05273v8.5083h-3.67676v-18.32959h3.67676v7.87793l6.61719-7.87793h4.5166l-7.53613,8.63965,7.85156,9.68994h-4.80566Z"/>
    </g>
    <g>
      <path fill="#fff" d="M48.0918,72.89746c0,10.03613-2.49609,15.08008-9.9834,15.08008-3.7168,0-6.79688-1.2207-8.44238-4.9375-1.11523-2.49609-1.32715-5.62891-1.32715-10.30176v-8.70898c0-4.24805.47754-7.38086,1.53906-9.61035,1.59375-3.3457,4.51367-4.56689,8.17773-4.56689,2.81445,0,5.52246.69043,7.38086,3.07959,1.69922,2.12402,2.65527,5.62891,2.65527,11.36328v8.60254ZM33.11719,74.0127c0,6.90234,1.69922,10.19531,4.93848,10.19531,3.92969,0,5.25684-4.24805,5.25684-10.88574v-8.60254c0-6.4248-1.59277-10.93848-5.09766-10.93848-3.34473,0-5.09766,3.55762-5.09766,10.83203v9.39941Z"/>
      <path fill="#fff" d="M64.125,68.22461c5.68164,1.06152,7.59277,3.23926,7.59277,9.3457,0,6.90332-3.66406,10.67285-10.46094,10.67285-6.95605,0-9.92969-3.45117-9.92969-9.23926v-1.64648h4.72656v.6377c0,4.1416,1.91113,6.21289,5.30957,6.21289,3.82324,0,5.57617-2.2832,5.57617-6.95605s-1.91211-6.90332-6.85059-6.90332h-1.11523v-4.30078c.47852.05273.90332.05273,1.16895.05273,4.30078,0,6.4248-2.2832,6.4248-6.26562,0-3.61133-1.8584-5.84082-5.15039-5.84082-3.08008,0-4.72656,2.07031-4.72656,5.68066v.90332h-4.83203v-1.0625c0-6.63672,3.77051-9.50439,9.61133-9.50439,6.31934,0,9.92969,3.45166,9.92969,9.45166,0,5.09766-2.33594,7.96484-7.27441,8.76172Z"/>
    </g>
  </symbol>
  <symbol id="KK04" viewBox="0 0 100 100">
    <path fill="#231815" d="M50,3.33333C23.76667,3.33333,0,43.33333,0,77.53333c0,12.9,6.66667,19.13333,20,19.13333h60c13.33333,0,20-6.23333,20-19.13333C100,43.33333,76.23333,3.33333,50,3.33333Z"/>
    <path fill="#fff" d="M20,93.66667c-11.75716,0-17-4.97591-17-16.13346,0-16.00911,5.48893-34.06413,14.68262-48.2972C27.08431,14.68099,38.86361,6.33333,50,6.33333s22.91536,8.34766,32.31771,22.90267c9.19336,14.23307,14.68229,32.28809,14.68229,48.2972,0,11.15755-5.24284,16.13346-17,16.13346H20Z"/>
    <rect fill="#231815" x="18.76667" y="40.86667" width="62.46667" height="54.2"/>
    <g>
      <path fill="#231815" d="M44.92871,35.625l-6.59082-8.5083h-.05273v8.5083h-3.67676v-18.32959h3.67676v7.87793l6.61719-7.87793h4.5166l-7.53613,8.63965,7.85156,9.68994h-4.80566Z"/>
      <path fill="#231815" d="M62.44727,35.625l-6.59082-8.5083h-.05273v8.5083h-3.67676v-18.32959h3.67676v7.87793l6.61719-7.87793h4.5166l-7.53613,8.63965,7.85156,9.68994h-4.80566Z"/>
    </g>
    <g>
      <path fill="#fff" d="M48.0918,72.89746c0,10.03613-2.49609,15.08008-9.9834,15.08008-3.7168,0-6.79688-1.2207-8.44238-4.9375-1.11523-2.49609-1.32715-5.62891-1.32715-10.30176v-8.70898c0-4.24805.47754-7.38086,1.53906-9.61035,1.59375-3.3457,4.51367-4.56689,8.17773-4.56689,2.81445,0,5.52246.69043,7.38086,3.07959,1.69922,2.12402,2.65527,5.62891,2.65527,11.36328v8.60254ZM33.11719,74.0127c0,6.90234,1.69922,10.19531,4.93848,10.19531,3.92969,0,5.25684-4.24805,5.25684-10.88574v-8.60254c0-6.4248-1.59277-10.93848-5.09766-10.93848-3.34473,0-5.09766,3.55762-5.09766,10.83203v9.39941Z"/>
      <path fill="#fff" d="M68.21387,50.64893v23.62939h4.35352v3.98242h-4.35352v9.23926h-4.83203v-9.29297h-12.05469v-5.20312l10.4082-22.35498h6.47852ZM54.99121,74.27832h8.39062v-15.93066c0-.90234.10547-2.01758.15918-3.29199l-8.5498,19.22266Z"/>
    </g>
  </symbol>
  <symbol id="KK05" viewBox="0 0 100 100">
    <path fill="#231815" d="M50,3.33333C23.76667,3.33333,0,43.33333,0,77.53333c0,12.9,6.66667,19.13333,20,19.13333h60c13.33333,0,20-6.23333,20-19.13333C100,43.33333,76.23333,3.33333,50,3.33333Z"/>
    <path fill="#fff" d="M20,93.66667c-11.75716,0-17-4.97591-17-16.13346,0-16.00911,5.48893-34.06413,14.68262-48.2972C27.08431,14.68099,38.86361,6.33333,50,6.33333s22.91536,8.34766,32.31771,22.90267c9.19336,14.23307,14.68229,32.28809,14.68229,48.2972,0,11.15755-5.24284,16.13346-17,16.13346H20Z"/>
    <rect fill="#231815" x="18.76667" y="40.86667" width="62.46667" height="54.2"/>
    <g>
      <path fill="#231815" d="M44.92871,35.625l-6.59082-8.5083h-.05273v8.5083h-3.67676v-18.32959h3.67676v7.87793l6.61719-7.87793h4.5166l-7.53613,8.63965,7.85156,9.68994h-4.80566Z"/>
      <path fill="#231815" d="M62.44727,35.625l-6.59082-8.5083h-.05273v8.5083h-3.67676v-18.32959h3.67676v7.87793l6.61719-7.87793h4.5166l-7.53613,8.63965,7.85156,9.68994h-4.80566Z"/>
    </g>
    <g>
      <path fill="#fff" d="M48.0918,72.89746c0,10.03613-2.49609,15.08008-9.9834,15.08008-3.7168,0-6.79688-1.2207-8.44238-4.9375-1.11523-2.49609-1.32715-5.62891-1.32715-10.30176v-8.70898c0-4.24805.47754-7.38086,1.53906-9.61035,1.59375-3.3457,4.51367-4.56689,8.17773-4.56689,2.81445,0,5.52246.69043,7.38086,3.07959,1.69922,2.12402,2.65527,5.62891,2.65527,11.36328v8.60254ZM33.11719,74.0127c0,6.90234,1.69922,10.19531,4.93848,10.19531,3.92969,0,5.25684-4.24805,5.25684-10.88574v-8.60254c0-6.4248-1.59277-10.93848-5.09766-10.93848-3.34473,0-5.09766,3.55762-5.09766,10.83203v9.39941Z"/>
      <path fill="#fff" d="M70.33789,50.64893v3.92822h-12.2666l-.58398,11.68262c1.43359-1.96484,3.61035-3.02637,6.4248-3.02637,2.01855,0,3.92969.53027,5.2041,1.91113,1.69922,1.80566,2.60156,4.40723,2.60156,10.4082,0,8.60156-3.29199,12.26562-9.98242,12.26562-6.21289,0-9.13379-2.91992-9.13379-9.23926h4.83301v.47754c0,3.02734,1.69922,5.04492,4.5127,5.04492,2.23047,0,3.92969-1.11523,4.62012-3.82324.31836-1.22168.47754-2.70801.47754-4.72559,0-6.2666-1.27441-8.49609-4.88477-8.49609-2.60254,0-4.08887,1.37988-4.62012,4.30078h-4.72559l.58398-20.7085h16.93945Z"/>
    </g>
  </symbol>
  <symbol id="KK06" viewBox="0 0 100 100">
    <path fill="#231815" d="M50,3.33333C23.76667,3.33333,0,43.33333,0,77.53333c0,12.9,6.66667,19.13333,20,19.13333h60c13.33333,0,20-6.23333,20-19.13333C100,43.33333,76.23333,3.33333,50,3.33333Z"/>
    <path fill="#fff" d="M20,93.66667c-11.75716,0-17-4.97591-17-16.13346,0-16.00911,5.48893-34.06413,14.68262-48.2972C27.08431,14.68099,38.86361,6.33333,50,6.33333s22.91536,8.34766,32.31771,22.90267c9.19336,14.23307,14.68229,32.28809,14.68229,48.2972,0,11.15755-5.24284,16.13346-17,16.13346H20Z"/>
    <rect fill="#231815" x="18.76667" y="40.86667" width="62.46667" height="54.2"/>
    <g>
      <path fill="#231815" d="M44.92871,35.625l-6.59082-8.5083h-.05273v8.5083h-3.67676v-18.32959h3.67676v7.87793l6.61719-7.87793h4.5166l-7.53613,8.63965,7.85156,9.68994h-4.80566Z"/>
      <path fill="#231815" d="M62.44727,35.625l-6.59082-8.5083h-.05273v8.5083h-3.67676v-18.32959h3.67676v7.87793l6.61719-7.87793h4.5166l-7.53613,8.63965,7.85156,9.68994h-4.80566Z"/>
    </g>
    <g>
      <path fill="#fff" d="M48.0918,72.89746c0,10.03613-2.49609,15.08008-9.9834,15.08008-3.7168,0-6.79688-1.2207-8.44238-4.9375-1.11523-2.49609-1.32715-5.62891-1.32715-10.30176v-8.70898c0-4.24805.47754-7.38086,1.53906-9.61035,1.59375-3.3457,4.51367-4.56689,8.17773-4.56689,2.81445,0,5.52246.69043,7.38086,3.07959,1.69922,2.12402,2.65527,5.62891,2.65527,11.36328v8.60254ZM33.11719,74.0127c0,6.90234,1.69922,10.19531,4.93848,10.19531,3.92969,0,5.25684-4.24805,5.25684-10.88574v-8.60254c0-6.4248-1.59277-10.93848-5.09766-10.93848-3.34473,0-5.09766,3.55762-5.09766,10.83203v9.39941Z"/>
      <path fill="#fff" d="M66.30176,59.03809v-.26562c0-2.44238-1.43359-5.09766-4.30078-5.09766-1.80566,0-3.13281.90234-3.92969,2.81445-.74316,1.75195-1.11523,4.67285-1.11523,9.50488v.95605c1.22168-2.01758,3.55762-3.29199,6.16016-3.29199,5.68164,0,8.70801,4.08887,8.70801,11.84082,0,7.85938-3.23926,12.2666-9.71777,12.2666-5.52148,0-9.02637-3.61133-9.50488-9.13379-.26465-3.02637-.47754-6.74316-.47754-11.04492,0-1.37988,0-3.39844.10645-5.30957.05273-.53125.26562-3.66406.90234-5.73535,1.22168-4.03516,3.92969-6.63672,9.02734-6.63672,5.2041,0,9.02734,3.02637,9.02734,8.76074v.37207h-4.88574ZM67.04492,75.28711c0-5.09766-1.69922-7.7002-4.93848-7.7002-3.23828,0-4.99121,2.54883-4.99121,8.01855,0,5.62891,1.69922,8.44336,4.93848,8.44336,4.46094,0,4.99121-4.72656,4.99121-8.76172Z"/>
    </g>
  </symbol>
  <symbol id="KK07" viewBox="0 0 100 100">
    <path fill="#231815" d="M50,3.33333C23.76667,3.33333,0,43.33333,0,77.53333c0,12.9,6.66667,19.13333,20,19.13333h60c13.33333,0,20-6.23333,20-19.13333C100,43.33333,76.23333,3.33333,50,3.33333Z"/>
    <path fill="#fff" d="M20,93.66667c-11.75716,0-17-4.97591-17-16.13346,0-16.00911,5.48893-34.06413,14.68262-48.2972C27.08431,14.68099,38.86361,6.33333,50,6.33333s22.91536,8.34766,32.31771,22.90267c9.19336,14.23307,14.68229,32.28809,14.68229,48.2972,0,11.15755-5.24284,16.13346-17,16.13346H20Z"/>
    <rect fill="#231815" x="18.76667" y="40.86667" width="62.46667" height="54.2"/>
    <g>
      <path fill="#231815" d="M44.92871,35.625l-6.59082-8.5083h-.05273v8.5083h-3.67676v-18.32959h3.67676v7.87793l6.61719-7.87793h4.5166l-7.53613,8.63965,7.85156,9.68994h-4.80566Z"/>
      <path fill="#231815" d="M62.44727,35.625l-6.59082-8.5083h-.05273v8.5083h-3.67676v-18.32959h3.67676v7.87793l6.61719-7.87793h4.5166l-7.53613,8.63965,7.85156,9.68994h-4.80566Z"/>
    </g>
    <g>
      <path fill="#fff" d="M48.0918,72.72168c0,10.03613-2.49609,15.08008-9.9834,15.08008-3.7168,0-6.79688-1.2207-8.44238-4.9375-1.11523-2.49609-1.32715-5.62891-1.32715-10.30176v-8.70898c0-4.24805.47754-7.38086,1.53906-9.61035,1.59375-3.34521,4.51367-4.56689,8.17773-4.56689,2.81445,0,5.52246.69043,7.38086,3.07959,1.69922,2.12402,2.65527,5.62891,2.65527,11.36328v8.60254ZM33.11719,73.83691c0,6.90234,1.69922,10.19531,4.93848,10.19531,3.92969,0,5.25684-4.24805,5.25684-10.88574v-8.60254c0-6.4248-1.59277-10.93848-5.09766-10.93848-3.34473,0-5.09766,3.55762-5.09766,10.83203v9.39941Z"/>
      <path fill="#fff" d="M70.65625,50.64893v4.19385l-9.82324,32.65723h-5.41699l10.19531-32.70996h-14.01855v-4.14111h19.06348Z"/>
    </g>
  </symbol>
  <symbol id="KK08" viewBox="0 0 100 100">
    <path fill="#231815" d="M50,3.33333C23.76667,3.33333,0,43.33333,0,77.53333c0,12.9,6.66667,19.13333,20,19.13333h60c13.33333,0,20-6.23333,20-19.13333C100,43.33333,76.23333,3.33333,50,3.33333Z"/>
    <path fill="#fff" d="M20,93.66667c-11.75716,0-17-4.97591-17-16.13346,0-16.00911,5.48893-34.06413,14.68262-48.2972C27.08431,14.68099,38.86361,6.33333,50,6.33333s22.91536,8.34766,32.31771,22.90267c9.19336,14.23307,14.68229,32.28809,14.68229,48.2972,0,11.15755-5.24284,16.13346-17,16.13346H20Z"/>
    <rect fill="#231815" x="18.76667" y="40.86667" width="62.46667" height="54.2"/>
    <g>
      <path fill="#231815" d="M44.92871,35.625l-6.59082-8.5083h-.05273v8.5083h-3.67676v-18.32959h3.67676v7.87793l6.61719-7.87793h4.5166l-7.53613,8.63965,7.85156,9.68994h-4.80566Z"/>
      <path fill="#231815" d="M62.44727,35.625l-6.59082-8.5083h-.05273v8.5083h-3.67676v-18.32959h3.67676v7.87793l6.61719-7.87793h4.5166l-7.53613,8.63965,7.85156,9.68994h-4.80566Z"/>
    </g>
    <g>
      <path fill="#fff" d="M48.0918,72.72168c0,10.03613-2.49609,15.08008-9.9834,15.08008-3.7168,0-6.79688-1.2207-8.44238-4.9375-1.11523-2.49609-1.32715-5.62891-1.32715-10.30176v-8.70898c0-4.24805.47754-7.38086,1.53906-9.61035,1.59375-3.34521,4.51367-4.56689,8.17773-4.56689,2.81445,0,5.52246.69043,7.38086,3.07959,1.69922,2.12402,2.65527,5.62891,2.65527,11.36328v8.60254ZM33.11719,73.83691c0,6.90234,1.69922,10.19531,4.93848,10.19531,3.92969,0,5.25684-4.24805,5.25684-10.88574v-8.60254c0-6.4248-1.59277-10.93848-5.09766-10.93848-3.34473,0-5.09766,3.55762-5.09766,10.83203v9.39941Z"/>
      <path fill="#fff" d="M64.81543,67.95898c4.45996.4248,6.74316,3.61035,6.74316,9.39844,0,6.95605-3.45117,10.62012-9.87598,10.62012-6.31934,0-9.66504-3.76953-9.66504-10.67285,0-5.68164,2.33691-8.44336,6.58496-9.3457-4.03613-.84961-6.16016-3.7168-6.16016-8.44336,0-5.94629,3.3457-9.55713,9.3457-9.55713,6.00098,0,9.3457,3.66357,9.3457,9.39795,0,4.67285-1.96484,7.54102-6.31836,8.60254ZM66.83301,77.14551c0-4.46094-1.80566-7.0625-5.04492-7.0625-3.13281,0-4.93848,2.44238-4.93848,7.11523,0,4.51367,1.75293,6.85059,4.99219,6.85059,3.13281,0,4.99121-2.49609,4.99121-6.90332ZM66.4082,59.35645c0-3.50391-1.75293-5.78711-4.56641-5.78711-2.81445,0-4.67285,2.33594-4.67285,5.84082,0,3.76953,1.69922,6.37207,4.51367,6.37207,2.86719,0,4.72559-2.44336,4.72559-6.42578Z"/>
    </g>
  </symbol>
  <symbol id="KK09" viewBox="0 0 100 100">
    <path fill="#231815" d="M50,3.33333C23.76667,3.33333,0,43.33333,0,77.53333c0,12.9,6.66667,19.13333,20,19.13333h60c13.33333,0,20-6.23333,20-19.13333C100,43.33333,76.23333,3.33333,50,3.33333Z"/>
    <path fill="#fff" d="M20,93.66667c-11.75716,0-17-4.97591-17-16.13346,0-16.00911,5.48893-34.06413,14.68262-48.2972C27.08431,14.68099,38.86361,6.33333,50,6.33333s22.91536,8.34766,32.31771,22.90267c9.19336,14.23307,14.68229,32.28809,14.68229,48.2972,0,11.15755-5.24284,16.13346-17,16.13346H20Z"/>
    <rect fill="#231815" x="18.76667" y="40.86667" width="62.46667" height="54.2"/>
    <g>
      <path fill="#231815" d="M44.92871,35.625l-6.59082-8.5083h-.05273v8.5083h-3.67676v-18.32959h3.67676v7.87793l6.61719-7.87793h4.5166l-7.53613,8.63965,7.85156,9.68994h-4.80566Z"/>
      <path fill="#231815" d="M62.44727,35.625l-6.59082-8.5083h-.05273v8.5083h-3.67676v-18.32959h3.67676v7.87793l6.61719-7.87793h4.5166l-7.53613,8.63965,7.85156,9.68994h-4.80566Z"/>
    </g>
    <g>
      <path fill="#fff" d="M48.0918,72.72168c0,10.03613-2.49609,15.08008-9.9834,15.08008-3.7168,0-6.79688-1.2207-8.44238-4.9375-1.11523-2.49609-1.32715-5.62891-1.32715-10.30176v-8.70898c0-4.24805.47754-7.38086,1.53906-9.61035,1.59375-3.34521,4.51367-4.56689,8.17773-4.56689,2.81445,0,5.52246.69043,7.38086,3.07959,1.69922,2.12402,2.65527,5.62891,2.65527,11.36328v8.60254ZM33.11719,73.83691c0,6.90234,1.69922,10.19531,4.93848,10.19531,3.92969,0,5.25684-4.24805,5.25684-10.88574v-8.60254c0-6.4248-1.59277-10.93848-5.09766-10.93848-3.34473,0-5.09766,3.55762-5.09766,10.83203v9.39941Z"/>
      <path fill="#fff" d="M71.45215,71.0918c0,2.01758-.10547,4.56641-.26465,6.74414-.10645,1.37988-.4248,2.60156-.6377,3.39844-1.16797,3.98242-4.08887,6.74316-9.13281,6.74316-5.31055,0-8.97461-3.55762-8.97461-8.81445v-.4248h4.88574c.10645,3.3457,1.64551,5.31055,4.19434,5.31055,2.76172,0,3.98242-2.01855,4.62012-4.46094.37207-1.54004.6377-4.19434.6377-7.91211,0-.53027-.05371-1.2207-.05371-2.12402-1.32715,2.38965-3.55762,3.55762-6.37207,3.55762-2.65527,0-4.7793-1.00879-6.26562-2.97363-1.4873-2.01758-2.23047-4.77832-2.23047-8.2832,0-7.4873,3.3457-11.73486,9.66406-11.73486,7.64648,0,9.92969,5.46924,9.92969,15.23975v5.73438ZM66.46094,61.42773c0-4.83203-1.69922-7.54004-4.93848-7.54004-3.13281,0-4.9375,2.70801-4.9375,7.91211,0,4.67188,1.69922,7.48633,4.83203,7.48633,3.29199,0,5.04395-2.54883,5.04395-7.8584Z"/>
    </g>
  </symbol>
  <symbol id="KK10" viewBox="0 0 100 100">
    <path fill="#231815" d="M50,3.33333C23.76667,3.33333,0,43.33333,0,77.53333c0,12.9,6.66667,19.13333,20,19.13333h60c13.33333,0,20-6.23333,20-19.13333C100,43.33333,76.23333,3.33333,50,3.33333Z"/>
    <path fill="#fff" d="M20,93.66667c-11.75716,0-17-4.97591-17-16.13346,0-16.00911,5.48893-34.06413,14.68262-48.2972C27.08431,14.68099,38.86361,6.33333,50,6.33333s22.91536,8.34766,32.31771,22.90267c9.19336,14.23307,14.68229,32.28809,14.68229,48.2972,0,11.15755-5.24284,16.13346-17,16.13346H20Z"/>
    <rect fill="#231815" x="18.76667" y="40.86667" width="62.46667" height="54.2"/>
    <g>
      <path fill="#231815" d="M44.92871,35.625l-6.59082-8.5083h-.05273v8.5083h-3.67676v-18.32959h3.67676v7.87793l6.61719-7.87793h4.5166l-7.53613,8.63965,7.85156,9.68994h-4.80566Z"/>
      <path fill="#231815" d="M62.44727,35.625l-6.59082-8.5083h-.05273v8.5083h-3.67676v-18.32959h3.67676v7.87793l6.61719-7.87793h4.5166l-7.53613,8.63965,7.85156,9.68994h-4.80566Z"/>
    </g>
    <g>
      <path fill="#fff" d="M39.89746,50.64893v36.85107h-4.88477v-31.48828c-1.75195,1.32715-3.55762,2.54883-5.52246,3.7168v-4.67285c2.23047-1.06152,4.35449-2.60156,6-4.40674h4.40723Z"/>
      <path fill="#fff" d="M69.79004,72.89746c0,10.03613-2.49609,15.08008-9.98242,15.08008-3.71777,0-6.79688-1.2207-8.44336-4.9375-1.11523-2.49609-1.32812-5.62891-1.32812-10.30176v-8.70898c0-4.24805.47852-7.38086,1.54004-9.61035,1.59375-3.3457,4.51367-4.56689,8.17773-4.56689,2.81445,0,5.52246.69043,7.38086,3.07959,1.69922,2.12402,2.65527,5.62891,2.65527,11.36328v8.60254ZM54.81543,74.0127c0,6.90234,1.69922,10.19531,4.93848,10.19531,3.92969,0,5.25684-4.24805,5.25684-10.88574v-8.60254c0-6.4248-1.59277-10.93848-5.09766-10.93848-3.34473,0-5.09766,3.55762-5.09766,10.83203v9.39941Z"/>
    </g>
  </symbol>
  <symbol id="KK11" viewBox="0 0 100 100">
    <path fill="#231815" d="M50,3.33333C23.76667,3.33333,0,43.33333,0,77.53333c0,12.9,6.66667,19.13333,20,19.13333h60c13.33333,0,20-6.23333,20-19.13333C100,43.33333,76.23333,3.33333,50,3.33333Z"/>
    <path fill="#fff" d="M20,93.66667c-11.75716,0-17-4.97591-17-16.13346,0-16.00911,5.48893-34.06413,14.68262-48.2972C27.08431,14.68099,38.86361,6.33333,50,6.33333s22.91536,8.34766,32.31771,22.90267c9.19336,14.23307,14.68229,32.28809,14.68229,48.2972,0,11.15755-5.24284,16.13346-17,16.13346H20Z"/>
    <rect fill="#231815" x="18.76667" y="40.86667" width="62.46667" height="54.2"/>
    <g>
      <path fill="#231815" d="M44.92871,35.625l-6.59082-8.5083h-.05273v8.5083h-3.67676v-18.32959h3.67676v7.87793l6.61719-7.87793h4.5166l-7.53613,8.63965,7.85156,9.68994h-4.80566Z"/>
      <path fill="#231815" d="M62.44727,35.625l-6.59082-8.5083h-.05273v8.5083h-3.67676v-18.32959h3.67676v7.87793l6.61719-7.87793h4.5166l-7.53613,8.63965,7.85156,9.68994h-4.80566Z"/>
    </g>
    <g>
      <path fill="#fff" d="M41.77246,50.64893v36.85107h-4.88477v-31.48828c-1.75195,1.32715-3.55762,2.54883-5.52246,3.7168v-4.67285c2.23047-1.06152,4.35449-2.60156,6-4.40674h4.40723Z"/>
      <path fill="#fff" d="M65.3457,50.64893v36.85107h-4.88477v-31.48828c-1.75293,1.32715-3.55762,2.54883-5.52246,3.7168v-4.67285c2.23047-1.06152,4.35449-2.60156,6-4.40674h4.40723Z"/>
    </g>
  </symbol>
  <symbol id="KK12" viewBox="0 0 100 100">
    <path fill="#231815" d="M50,3.33333C23.76667,3.33333,0,43.33333,0,77.53333c0,12.9,6.66667,19.13333,20,19.13333h60c13.33333,0,20-6.23333,20-19.13333C100,43.33333,76.23333,3.33333,50,3.33333Z"/>
    <path fill="#fff" d="M20,93.66667c-11.75716,0-17-4.97591-17-16.13346,0-16.00911,5.48893-34.06413,14.68262-48.2972C27.08431,14.68099,38.86361,6.33333,50,6.33333s22.91536,8.34766,32.31771,22.90267c9.19336,14.23307,14.68229,32.28809,14.68229,48.2972,0,11.15755-5.24284,16.13346-17,16.13346H20Z"/>
    <rect fill="#231815" x="18.76667" y="40.86667" width="62.46667" height="54.2"/>
    <g>
      <path fill="#231815" d="M44.92871,35.625l-6.59082-8.5083h-.05273v8.5083h-3.67676v-18.32959h3.67676v7.87793l6.61719-7.87793h4.5166l-7.53613,8.63965,7.85156,9.68994h-4.80566Z"/>
      <path fill="#231815" d="M62.44727,35.625l-6.59082-8.5083h-.05273v8.5083h-3.67676v-18.32959h3.67676v7.87793l6.61719-7.87793h4.5166l-7.53613,8.63965,7.85156,9.68994h-4.80566Z"/>
    </g>
    <g>
      <path fill="#fff" d="M41.77246,50.64893v36.85107h-4.88477v-31.48828c-1.75195,1.32715-3.55762,2.54883-5.52246,3.7168v-4.67285c2.23047-1.06152,4.35449-2.60156,6-4.40674h4.40723Z"/>
      <path fill="#fff" d="M64.97461,73.85352l-7.4873,9.39844h14.5498v4.24805h-19.75391v-4.40723l10.24902-13.96582c2.49512-3.39844,3.7168-6.47754,3.7168-9.82324,0-3.50488-1.59375-5.41602-4.46094-5.41602-2.81445,0-4.40723,1.8584-4.40723,5.68164v.58398h-4.99121c0-.53125-.05273-.95605-.05273-1.22168,0-5.73438,3.39844-8.86719,9.39844-8.86719,6.15918,0,9.39844,3.23926,9.39844,9.66406,0,4.45996-1.69922,8.49609-6.15918,14.125Z"/>
    </g>
  </symbol>
  <symbol id="KK13" viewBox="0 0 100 100">
    <path fill="#231815" d="M50,3.33333C23.76667,3.33333,0,43.33333,0,77.53333c0,12.9,6.66667,19.13333,20,19.13333h60c13.33333,0,20-6.23333,20-19.13333C100,43.33333,76.23333,3.33333,50,3.33333Z"/>
    <path fill="#fff" d="M20,93.66667c-11.75716,0-17-4.97591-17-16.13346,0-16.00911,5.48893-34.06413,14.68262-48.2972C27.08431,14.68099,38.86361,6.33333,50,6.33333s22.91536,8.34766,32.31771,22.90267c9.19336,14.23307,14.68229,32.28809,14.68229,48.2972,0,11.15755-5.24284,16.13346-17,16.13346H20Z"/>
    <rect fill="#231815" x="18.76667" y="40.86667" width="62.46667" height="54.2"/>
    <g>
      <path fill="#231815" d="M44.92871,35.625l-6.59082-8.5083h-.05273v8.5083h-3.67676v-18.32959h3.67676v7.87793l6.61719-7.87793h4.5166l-7.53613,8.63965,7.85156,9.68994h-4.80566Z"/>
      <path fill="#231815" d="M62.44727,35.625l-6.59082-8.5083h-.05273v8.5083h-3.67676v-18.32959h3.67676v7.87793l6.61719-7.87793h4.5166l-7.53613,8.63965,7.85156,9.68994h-4.80566Z"/>
    </g>
    <g>
      <path fill="#fff" d="M41.77246,50.64893v36.85107h-4.88477v-31.48828c-1.75195,1.32715-3.55762,2.54883-5.52246,3.7168v-4.67285c2.23047-1.06152,4.35449-2.60156,6-4.40674h4.40723Z"/>
      <path fill="#fff" d="M64.125,68.22461c5.68164,1.06152,7.59277,3.23926,7.59277,9.3457,0,6.90332-3.66406,10.67285-10.46094,10.67285-6.95605,0-9.92969-3.45117-9.92969-9.23926v-1.64648h4.72656v.6377c0,4.1416,1.91113,6.21289,5.30957,6.21289,3.82324,0,5.57617-2.2832,5.57617-6.95605s-1.91211-6.90332-6.85059-6.90332h-1.11523v-4.30078c.47852.05273.90332.05273,1.16895.05273,4.30078,0,6.4248-2.2832,6.4248-6.26562,0-3.61133-1.8584-5.84082-5.15039-5.84082-3.08008,0-4.72656,2.07031-4.72656,5.68066v.90332h-4.83203v-1.0625c0-6.63672,3.77051-9.50439,9.61133-9.50439,6.31934,0,9.92969,3.45166,9.92969,9.45166,0,5.09766-2.33594,7.96484-7.27441,8.76172Z"/>
    </g>
  </symbol>
</svg>
