<?xml version="1.0" encoding="UTF-8"?>
<svg xmlns="http://www.w3.org/2000/svg" xmlns:xlink="http://www.w3.org/1999/xlink">
  <symbol id="KW" viewBox="0 0 100 100">
    <path fill="#dc031b" d="M56.25,0l-2.825,16.9c26.575-10.65,46.575,7.475,46.575,35.9125,0,13.4375-11.25,47.1875-35,47.1875-6.25,0-10-1.25-15-1.25s-8.75,1.25-15,1.25C11.25,100,0,66.25,0,52.8125,0,24.375,20,6.25,46.575,16.9L43.75,0h12.5Z"/>
     <g>
      <path fill="#fff" d="M42.1748,42.50342l-10.99463,13.44189,11.94873,16.55469h-8.00732l-10.49658-15.26758v15.26758h-6.43066v-29.91357h6.43066v12.90283l10.04004-12.98584h7.50977Z"/>
      <path fill="#fff" d="M50.35156,42.62744l4.64648,22.40479,5.84961-22.40479h7.26074l5.26855,22.40479,4.85547-22.40479h6.13965l-7.63379,29.95557h-7.13672l-5.43457-22.90234-5.84961,22.90234h-7.30176l-7.30225-29.95557h6.63818Z"/>
    </g>
  </symbol>
  <symbol id="KW01" viewBox="0 0 100 100">
    <path fill="#dc031b" d="M56.25,0l-2.825,16.9c26.575-10.65,46.575,7.475,46.575,35.9125,0,13.4375-11.25,47.1875-35,47.1875-6.25,0-10-1.25-15-1.25s-8.75,1.25-15,1.25C11.25,100,0,66.25,0,52.8125,0,24.375,20,6.25,46.575,16.9L43.75,0h12.5Z"/>
    <g>
      <path fill="#fff" d="M41.19727,38.75l-5.39258-5.8042h-.04297v5.8042h-3.00781v-12.50391h3.00781v5.37402l5.41406-5.37402h3.69531l-6.16602,5.89355,6.42383,6.61035h-3.93164Z"/>
      <path fill="#fff" d="M60.98828,38.75l-2.70703-9.99609h-.04297l-2.66406,9.99609h-3.88867l-3.97412-12.50391h3.1582l2.79248,9.99609h.04297l2.55664-9.99609h4.08203l2.64258,9.99609h.04297l2.81445-9.99609h2.92188l-3.91016,12.50391h-3.86719Z"/>
    </g>
    <g>
      <path fill="#fff" d="M26.79004,52.5625c2.38135-3.375,5.5249-5.0625,9.43115-5.0625,3.90527,0,7.05273,1.6875,9.44092,5.0625,2.38867,3.375,3.58301,8.06348,3.58301,14.06445,0,3.00781-.32031,5.72363-.95947,8.14648-.64014,2.42188-1.53467,4.43262-2.68457,6.03125-1.15039,1.59961-2.521,2.82422-4.11328,3.6748s-3.34814,1.27539-5.2666,1.27539c-3.90625,0-7.0498-1.68359-9.43115-5.05176-2.38184-3.36914-3.57275-8.06055-3.57275-14.07617,0-6.00098,1.19092-10.68945,3.57275-14.06445ZM29.34131,66.62695c0,9.1875,2.29346,13.78027,6.87988,13.78027,4.58594,0,6.87939-4.59277,6.87939-13.78027,0-9.18555-2.29346-13.7793-6.87939-13.7793-4.58643,0-6.87988,4.59375-6.87988,13.7793Z"/>
      <path fill="#fff" d="M63.7998,48.25537h6.10449v36.74463h-6.10449v-30.62109l-9.20605,4.59375v-6.125l9.20605-4.59229Z"/>
    </g>
  </symbol>
  <symbol id="KW02" viewBox="0 0 100 100">
    <path fill="#dc031b" d="M56.25,0l-2.825,16.9c26.575-10.65,46.575,7.475,46.575,35.9125,0,13.4375-11.25,47.1875-35,47.1875-6.25,0-10-1.25-15-1.25s-8.75,1.25-15,1.25C11.25,100,0,66.25,0,52.8125,0,24.375,20,6.25,46.575,16.9L43.75,0h12.5Z"/>
    <g>
      <path fill="#fff" d="M41.19727,38.75l-5.39258-5.8042h-.04297v5.8042h-3.00781v-12.50391h3.00781v5.37402l5.41406-5.37402h3.69531l-6.16602,5.89355,6.42383,6.61035h-3.93164Z"/>
      <path fill="#fff" d="M60.98828,38.75l-2.70703-9.99609h-.04297l-2.66406,9.99609h-3.88867l-3.97412-12.50391h3.1582l2.79248,9.99609h.04297l2.55664-9.99609h4.08203l2.64258,9.99609h.04297l2.81445-9.99609h2.92188l-3.91016,12.50391h-3.86719Z"/>
    </g>
    <g>
      <path fill="#fff" d="M25.25879,52.5625c2.38135-3.375,5.5249-5.0625,9.43115-5.0625,3.90527,0,7.05273,1.6875,9.44092,5.0625,2.38867,3.375,3.58301,8.06348,3.58301,14.06445,0,3.00781-.32031,5.72363-.95947,8.14648-.64014,2.42188-1.53467,4.43262-2.68457,6.03125-1.15039,1.59961-2.521,2.82422-4.11328,3.6748s-3.34814,1.27539-5.2666,1.27539c-3.90625,0-7.0498-1.68359-9.43115-5.05176-2.38184-3.36914-3.57275-8.06055-3.57275-14.07617,0-6.00098,1.19092-10.68945,3.57275-14.06445ZM27.81006,66.62695c0,9.1875,2.29346,13.78027,6.87988,13.78027,4.58594,0,6.87939-4.59277,6.87939-13.78027,0-9.18555-2.29346-13.7793-6.87939-13.7793-4.58643,0-6.87988,4.59375-6.87988,13.7793Z"/>
      <path fill="#fff" d="M73.33301,66.24023l-13.3916,13.39062h17.61719v5.36914h-24.49609v-6.90039l16.06543-16.06445c1.53809-1.53906,2.30664-3.06934,2.30664-4.59375,0-1.4834-.49707-2.61621-1.49023-3.39844-.99316-.7832-2.28613-1.17383-3.87891-1.17383-.85742,0-1.71777.14258-2.58203.42773-.86426.28613-1.60938.63281-2.23535,1.04102s-1.19141.82031-1.69434,1.23633c-.50391.41406-.88477.76465-1.14355,1.05078l-.3877.42871-4.20508-4.18457c.38086-.38086.80957-.76953,1.28613-1.16406s1.12305-.85742,1.93945-1.38818,1.65625-.99316,2.52148-1.38818c.86328-.39453,1.87402-.73145,3.03125-1.01025,1.15625-.27881,2.3125-.41846,3.46973-.41846,2.05566,0,3.9502.39502,5.68555,1.18408s3.13672,1.95264,4.20508,3.49072,1.60254,3.29395,1.60254,5.2666c0,1.56543-.33008,3.04883-.99023,4.4502s-1.73828,2.85059-3.23535,4.34863Z"/>
    </g>
  </symbol>
  <symbol id="KW03" viewBox="0 0 100 100">
    <path fill="#dc031b" d="M56.25,0l-2.825,16.9c26.575-10.65,46.575,7.475,46.575,35.9125,0,13.4375-11.25,47.1875-35,47.1875-6.25,0-10-1.25-15-1.25s-8.75,1.25-15,1.25C11.25,100,0,66.25,0,52.8125,0,24.375,20,6.25,46.575,16.9L43.75,0h12.5Z"/>
    <g>
      <path fill="#fff" d="M41.19727,38.75l-5.39258-5.8042h-.04297v5.8042h-3.00781v-12.50391h3.00781v5.37402l5.41406-5.37402h3.69531l-6.16602,5.89355,6.42383,6.61035h-3.93164Z"/>
      <path fill="#fff" d="M60.98828,38.75l-2.70703-9.99609h-.04297l-2.66406,9.99609h-3.88867l-3.97412-12.50391h3.1582l2.79248,9.99609h.04297l2.55664-9.99609h4.08203l2.64258,9.99609h.04297l2.81445-9.99609h2.92188l-3.91016,12.50391h-3.86719Z"/>
    </g>
    <g>
      <path fill="#fff" d="M25.25879,52.5625c2.38135-3.375,5.5249-5.0625,9.43115-5.0625,3.90527,0,7.05273,1.6875,9.44092,5.0625,2.38867,3.375,3.58301,8.06348,3.58301,14.06445,0,3.00781-.32031,5.72363-.95947,8.14648-.64014,2.42188-1.53467,4.43262-2.68457,6.03125-1.15039,1.59961-2.521,2.82422-4.11328,3.6748s-3.34814,1.27539-5.2666,1.27539c-3.90625,0-7.0498-1.68359-9.43115-5.05176-2.38184-3.36914-3.57275-8.06055-3.57275-14.07617,0-6.00098,1.19092-10.68945,3.57275-14.06445ZM27.81006,66.62695c0,9.1875,2.29346,13.78027,6.87988,13.78027,4.58594,0,6.87939-4.59277,6.87939-13.78027,0-9.18555-2.29346-13.7793-6.87939-13.7793-4.58643,0-6.87988,4.59375-6.87988,13.7793Z"/>
      <path fill="#fff" d="M77.55859,48.25537v5.36865l-9.9209,9.9209c1.4834.08203,2.85449.43262,4.11328,1.05176s2.30664,1.41895,3.14355,2.39844,1.49023,2.09961,1.95996,3.3584.7041,2.56836.7041,3.92969c0,1.66016-.35059,3.21875-1.05078,4.67383-.70117,1.45703-1.62695,2.6748-2.77734,3.6543-1.15039.98047-2.45898,1.74902-3.92969,2.30664-1.46875.55859-2.9668.83691-4.49023.83691-1.42969,0-2.83789-.19727-4.22656-.5918-1.3877-.39453-2.6123-.9082-3.67383-1.54102s-1.92188-1.19727-2.58203-1.69434-1.24902-.99707-1.76562-1.5l4.22461-4.22656c.0957.10938.22852.25977.39844.44922.16992.19141.53418.53125,1.0918,1.02148.55859.49023,1.13281.91797,1.72559,1.28516.5918.36816,1.32715.70508,2.2041,1.01074.87891.30664,1.74609.45996,2.60352.45996,1.61914,0,3.04492-.56543,4.27637-1.69531,1.23145-1.12891,1.84766-2.6123,1.84766-4.44922,0-1.22461-.2998-2.31445-.89844-3.2666s-1.35742-1.66309-2.27637-2.13379c-.91797-.46875-1.90234-.70312-2.94922-.70312-.57227,0-1.11328.06055-1.62305.18359-.50977.12207-.88086.25195-1.11328.38672l-.32617.18457-3.81738-3.83789,11.47266-11.47266h-15.29004v-5.36865h22.94531Z"/>
    </g>
  </symbol>
  <symbol id="KW04" viewBox="0 0 100 100">
    <path fill="#dc031b" d="M56.25,0l-2.825,16.9c26.575-10.65,46.575,7.475,46.575,35.9125,0,13.4375-11.25,47.1875-35,47.1875-6.25,0-10-1.25-15-1.25s-8.75,1.25-15,1.25C11.25,100,0,66.25,0,52.8125,0,24.375,20,6.25,46.575,16.9L43.75,0h12.5Z"/>
    <g>
      <path fill="#fff" d="M41.19727,38.75l-5.39258-5.8042h-.04297v5.8042h-3.00781v-12.50391h3.00781v5.37402l5.41406-5.37402h3.69531l-6.16602,5.89355,6.42383,6.61035h-3.93164Z"/>
      <path fill="#fff" d="M60.98828,38.75l-2.70703-9.99609h-.04297l-2.66406,9.99609h-3.88867l-3.97412-12.50391h3.1582l2.79248,9.99609h.04297l2.55664-9.99609h4.08203l2.64258,9.99609h.04297l2.81445-9.99609h2.92188l-3.91016,12.50391h-3.86719Z"/>
    </g>
    <g>
      <path fill="#fff" d="M25.25879,52.5625c2.38135-3.375,5.5249-5.0625,9.43115-5.0625,3.90527,0,7.05273,1.6875,9.44092,5.0625,2.38867,3.375,3.58301,8.06348,3.58301,14.06445,0,3.00781-.32031,5.72363-.95947,8.14648-.64014,2.42188-1.53467,4.43262-2.68457,6.03125-1.15039,1.59961-2.521,2.82422-4.11328,3.6748s-3.34814,1.27539-5.2666,1.27539c-3.90625,0-7.0498-1.68359-9.43115-5.05176-2.38184-3.36914-3.57275-8.06055-3.57275-14.07617,0-6.00098,1.19092-10.68945,3.57275-14.06445ZM27.81006,66.62695c0,9.1875,2.29346,13.78027,6.87988,13.78027,4.58594,0,6.87939-4.59277,6.87939-13.78027,0-9.18555-2.29346-13.7793-6.87939-13.7793-4.58643,0-6.87988,4.59375-6.87988,13.7793Z"/>
      <path fill="#fff" d="M77.55859,74.2832v5.36816h-3.0625v5.34863h-5.73633v-5.34863h-15.69727v-5.36816l13.02344-26.02783h6.51172l-13.02344,26.02783h9.18555v-10.69727h5.73633v10.69727h3.0625Z"/>
    </g>
  </symbol>
  <symbol id="KW05" viewBox="0 0 100 100">
    <path fill="#dc031b" d="M56.25,0l-2.825,16.9c26.575-10.65,46.575,7.475,46.575,35.9125,0,13.4375-11.25,47.1875-35,47.1875-6.25,0-10-1.25-15-1.25s-8.75,1.25-15,1.25C11.25,100,0,66.25,0,52.8125,0,24.375,20,6.25,46.575,16.9L43.75,0h12.5Z"/>
    <g>
      <path fill="#fff" d="M41.19727,38.75l-5.39258-5.8042h-.04297v5.8042h-3.00781v-12.50391h3.00781v5.37402l5.41406-5.37402h3.69531l-6.16602,5.89355,6.42383,6.61035h-3.93164Z"/>
      <path fill="#fff" d="M60.98828,38.75l-2.70703-9.99609h-.04297l-2.66406,9.99609h-3.88867l-3.97412-12.50391h3.1582l2.79248,9.99609h.04297l2.55664-9.99609h4.08203l2.64258,9.99609h.04297l2.81445-9.99609h2.92188l-3.91016,12.50391h-3.86719Z"/>
    </g>
    <g>
      <path fill="#fff" d="M25.25879,52.5625c2.38135-3.375,5.5249-5.0625,9.43115-5.0625,3.90527,0,7.05273,1.6875,9.44092,5.0625,2.38867,3.375,3.58301,8.06348,3.58301,14.06445,0,3.00781-.32031,5.72363-.95947,8.14648-.64014,2.42188-1.53467,4.43262-2.68457,6.03125-1.15039,1.59961-2.521,2.82422-4.11328,3.6748s-3.34814,1.27539-5.2666,1.27539c-3.90625,0-7.0498-1.68359-9.43115-5.05176-2.38184-3.36914-3.57275-8.06055-3.57275-14.07617,0-6.00098,1.19092-10.68945,3.57275-14.06445ZM27.81006,66.62695c0,9.1875,2.29346,13.78027,6.87988,13.78027,4.58594,0,6.87939-4.59277,6.87939-13.78027,0-9.18555-2.29346-13.7793-6.87939-13.7793-4.58643,0-6.87988,4.59375-6.87988,13.7793Z"/>
      <path fill="#fff" d="M60.33008,63.56543c1.75488-.58496,3.47656-.87793,5.16406-.87793,2.25879,0,4.30664.49023,6.14453,1.4707,1.83691.97852,3.2832,2.35742,4.33789,4.13281,1.05469,1.77637,1.58203,3.77344,1.58203,5.99219,0,1.67383-.35059,3.23828-1.05078,4.69531-.70117,1.45605-1.62695,2.6709-2.77734,3.64355s-2.45605,1.73828-3.91895,2.2959c-1.46289.55859-2.96387.83691-4.50098.83691-1.42969,0-2.83789-.19727-4.22656-.5918-1.3877-.39453-2.6123-.9043-3.67383-1.53125-1.06152-.625-1.92969-1.19727-2.60254-1.71387-.67383-.51758-1.25586-1.02148-1.74512-1.51074l4.20508-4.20605c.09473.10938.22754.25977.39844.44922.16992.19141.53711.52734,1.10156,1.01074s1.14258.90918,1.73535,1.27637c.5918.36719,1.32715.7041,2.2041,1.00977.87891.30664,1.74609.45996,2.60352.45996,1.0332,0,2.01074-.23828,2.92969-.71484.91797-.47656,1.67969-1.19043,2.28516-2.14355.60547-.95215.90918-2.04102.90918-3.26562,0-1.82422-.61621-3.29688-1.84766-4.41992s-2.65723-1.68359-4.27637-1.68359c-.91211,0-1.84473.125-2.79688.37695-.95312.25195-1.68164.50781-2.18359.76562l-.75586.36719-4.98047-2.67383v-18.76025h21.43359v5.34814h-15.69727v9.96191Z"/>
    </g>
  </symbol>
  <symbol id="KW06" viewBox="0 0 100 100">
    <path fill="#dc031b" d="M56.25,0l-2.825,16.9c26.575-10.65,46.575,7.475,46.575,35.9125,0,13.4375-11.25,47.1875-35,47.1875-6.25,0-10-1.25-15-1.25s-8.75,1.25-15,1.25C11.25,100,0,66.25,0,52.8125,0,24.375,20,6.25,46.575,16.9L43.75,0h12.5Z"/>
    <g>
      <path fill="#fff" d="M41.19727,38.75l-5.39258-5.8042h-.04297v5.8042h-3.00781v-12.50391h3.00781v5.37402l5.41406-5.37402h3.69531l-6.16602,5.89355,6.42383,6.61035h-3.93164Z"/>
      <path fill="#fff" d="M60.98828,38.75l-2.70703-9.99609h-.04297l-2.66406,9.99609h-3.88867l-3.97412-12.50391h3.1582l2.79248,9.99609h.04297l2.55664-9.99609h4.08203l2.64258,9.99609h.04297l2.81445-9.99609h2.92188l-3.91016,12.50391h-3.86719Z"/>
    </g>
    <g>
      <path fill="#fff" d="M25.25879,52.5625c2.38135-3.375,5.5249-5.0625,9.43115-5.0625,3.90527,0,7.05273,1.6875,9.44092,5.0625,2.38867,3.375,3.58301,8.06348,3.58301,14.06445,0,3.00781-.32031,5.72363-.95947,8.14648-.64014,2.42188-1.53467,4.43262-2.68457,6.03125-1.15039,1.59961-2.521,2.82422-4.11328,3.6748s-3.34814,1.27539-5.2666,1.27539c-3.90625,0-7.0498-1.68359-9.43115-5.05176-2.38184-3.36914-3.57275-8.06055-3.57275-14.07617,0-6.00098,1.19092-10.68945,3.57275-14.06445ZM27.81006,66.62695c0,9.1875,2.29346,13.78027,6.87988,13.78027,4.58594,0,6.87939-4.59277,6.87939-13.78027,0-9.18555-2.29346-13.7793-6.87939-13.7793-4.58643,0-6.87988,4.59375-6.87988,13.7793Z"/>
      <path fill="#fff" d="M62.24805,64.32031c1.64648-.54297,3.20508-.81641,4.6748-.81641,1.59277,0,3.06152.29688,4.40918.88867s2.4707,1.3877,3.36914,2.38867c.89746,1,1.59863,2.14648,2.10156,3.43945.50391,1.29297.75586,2.64648.75586,4.0625,0,1.67383-.35059,3.23828-1.05078,4.69531-.70117,1.45605-1.62695,2.6709-2.77734,3.64355s-2.45605,1.73828-3.91895,2.2959c-1.46289.55859-2.96387.83691-4.50098.83691-1.53809,0-3.03906-.27832-4.50195-.83691-1.46289-.55762-2.76953-1.32324-3.91895-2.2959-1.15039-.97266-2.0752-2.1875-2.77637-3.64355-.70117-1.45703-1.05078-3.02148-1.05078-4.69531,0-1.59277.23047-3.21875.69336-4.87891s1.25195-3.60645,2.36816-5.83887l7.65527-15.31006h6.49219l-7.63477,15.31006-.38867.75488ZM61.0332,78.72266c1.23242,1.12305,2.65723,1.68457,4.27734,1.68457,1.61914,0,3.04492-.56152,4.27637-1.68457s1.84766-2.60254,1.84766-4.43945c0-1.82422-.61621-3.30078-1.84766-4.42969-1.23145-1.12988-2.65723-1.69531-4.27637-1.69531-1.62012,0-3.04492.56543-4.27734,1.69531-1.23145,1.12891-1.84766,2.60547-1.84766,4.42969,0,1.83691.61621,3.31641,1.84766,4.43945Z"/>
    </g>
  </symbol>
  <symbol id="KW07" viewBox="0 0 100 100">
    <path fill="#dc031b" d="M56.25,0l-2.825,16.9c26.575-10.65,46.575,7.475,46.575,35.9125,0,13.4375-11.25,47.1875-35,47.1875-6.25,0-10-1.25-15-1.25s-8.75,1.25-15,1.25C11.25,100,0,66.25,0,52.8125,0,24.375,20,6.25,46.575,16.9L43.75,0h12.5Z"/>
    <g>
      <path fill="#fff" d="M41.19727,38.75l-5.39258-5.8042h-.04297v5.8042h-3.00781v-12.50391h3.00781v5.37402l5.41406-5.37402h3.69531l-6.16602,5.89355,6.42383,6.61035h-3.93164Z"/>
      <path fill="#fff" d="M60.98828,38.75l-2.70703-9.99609h-.04297l-2.66406,9.99609h-3.88867l-3.97412-12.50391h3.1582l2.79248,9.99609h.04297l2.55664-9.99609h4.08203l2.64258,9.99609h.04297l2.81445-9.99609h2.92188l-3.91016,12.50391h-3.86719Z"/>
    </g>
    <g>
      <path fill="#fff" d="M25.25879,52.5625c2.38135-3.375,5.5249-5.0625,9.43115-5.0625,3.90527,0,7.05273,1.6875,9.44092,5.0625,2.38867,3.375,3.58301,8.06348,3.58301,14.06445,0,3.00781-.32031,5.72363-.95947,8.14648-.64014,2.42188-1.53467,4.43262-2.68457,6.03125-1.15039,1.59961-2.521,2.82422-4.11328,3.6748s-3.34814,1.27539-5.2666,1.27539c-3.90625,0-7.0498-1.68359-9.43115-5.05176-2.38184-3.36914-3.57275-8.06055-3.57275-14.07617,0-6.00098,1.19092-10.68945,3.57275-14.06445ZM27.81006,66.62695c0,9.1875,2.29346,13.78027,6.87988,13.78027,4.58594,0,6.87939-4.59277,6.87939-13.78027,0-9.18555-2.29346-13.7793-6.87939-13.7793-4.58643,0-6.87988,4.59375-6.87988,13.7793Z"/>
      <path fill="#fff" d="M53.0625,48.25537h24.49609v5.36865l-15.67773,31.37598h-6.90039l15.67773-31.37598h-17.5957v-5.36865Z"/>
    </g>
  </symbol>
  <symbol id="KW08" viewBox="0 0 100 100">
    <path fill="#dc031b" d="M56.25,0l-2.825,16.9c26.575-10.65,46.575,7.475,46.575,35.9125,0,13.4375-11.25,47.1875-35,47.1875-6.25,0-10-1.25-15-1.25s-8.75,1.25-15,1.25C11.25,100,0,66.25,0,52.8125,0,24.375,20,6.25,46.575,16.9L43.75,0h12.5Z"/>
    <g>
      <path fill="#fff" d="M41.19727,38.75l-5.39258-5.8042h-.04297v5.8042h-3.00781v-12.50391h3.00781v5.37402l5.41406-5.37402h3.69531l-6.16602,5.89355,6.42383,6.61035h-3.93164Z"/>
      <path fill="#fff" d="M60.98828,38.75l-2.70703-9.99609h-.04297l-2.66406,9.99609h-3.88867l-3.97412-12.50391h3.1582l2.79248,9.99609h.04297l2.55664-9.99609h4.08203l2.64258,9.99609h.04297l2.81445-9.99609h2.92188l-3.91016,12.50391h-3.86719Z"/>
    </g>
    <g>
      <path fill="#fff" d="M25.25879,52.5625c2.38135-3.375,5.5249-5.0625,9.43115-5.0625,3.90527,0,7.05273,1.6875,9.44092,5.0625,2.38867,3.375,3.58301,8.06348,3.58301,14.06445,0,3.00781-.32031,5.72363-.95947,8.14648-.64014,2.42188-1.53467,4.43262-2.68457,6.03125-1.15039,1.59961-2.521,2.82422-4.11328,3.6748s-3.34814,1.27539-5.2666,1.27539c-3.90625,0-7.0498-1.68359-9.43115-5.05176-2.38184-3.36914-3.57275-8.06055-3.57275-14.07617,0-6.00098,1.19092-10.68945,3.57275-14.06445ZM27.81006,66.62695c0,9.1875,2.29346,13.78027,6.87988,13.78027,4.58594,0,6.87939-4.59277,6.87939-13.78027,0-9.18555-2.29346-13.7793-6.87939-13.7793-4.58643,0-6.87988,4.59375-6.87988,13.7793Z"/>
      <path fill="#fff" d="M72.94531,65.76953c1.42871.95312,2.55469,2.15137,3.37891,3.59375.82227,1.44238,1.23438,3.08984,1.23438,4.93945,0,1.66113-.35059,3.21875-1.05078,4.67578-.70117,1.45605-1.62695,2.6709-2.77734,3.64355s-2.45605,1.73828-3.91895,2.2959c-1.46289.55859-2.96387.83691-4.50098.83691-1.53809,0-3.03906-.27832-4.50195-.83691-1.46289-.55762-2.76953-1.32324-3.91895-2.2959-1.15039-.97266-2.0752-2.1875-2.77637-3.64355-.70117-1.45703-1.05078-3.01465-1.05078-4.67578,0-1.84961.4082-3.49707,1.22461-4.93945s1.93945-2.64062,3.36816-3.59375c-1.19824-.88379-2.13672-1.96875-2.81738-3.25586-.68066-1.28516-1.02051-2.71777-1.02051-4.29688,0-1.98633.53027-3.80664,1.59277-5.46094,1.06055-1.65234,2.46973-2.94238,4.22461-3.86768,1.75586-.92529,3.64746-1.38818,5.67578-1.38818,2.02734,0,3.91992.46289,5.6748,1.38818s3.16113,2.21533,4.21582,3.86768c1.05469,1.6543,1.58203,3.47461,1.58203,5.46094,0,1.5791-.34082,3.01172-1.02148,4.29688-.67969,1.28711-1.61914,2.37207-2.81641,3.25586ZM61.0332,78.73242c1.23242,1.12988,2.65723,1.69531,4.27734,1.69531,1.61914,0,3.04492-.56543,4.27637-1.69531,1.23145-1.12891,1.84766-2.60547,1.84766-4.42969,0-1.83691-.61621-3.32031-1.84766-4.44922-1.23145-1.12988-2.65723-1.69531-4.27637-1.69531-1.62012,0-3.04492.56543-4.27734,1.69531-1.23145,1.12891-1.84766,2.6123-1.84766,4.44922,0,1.82422.61621,3.30078,1.84766,4.42969ZM59.96191,58.2168c0,1.52539.51074,2.79688,1.53125,3.81836,1.02051,1.01953,2.29297,1.53027,3.81738,1.53027,1.52344,0,2.79688-.51074,3.81738-1.53027,1.02051-1.02148,1.53027-2.29297,1.53027-3.81836,0-1.53711-.50977-2.81641-1.53027-3.83789-1.02051-1.01953-2.29395-1.53125-3.81738-1.53125-1.52441,0-2.79688.51172-3.81738,1.53125-1.02051,1.02148-1.53125,2.30078-1.53125,3.83789Z"/>
    </g>
  </symbol>
  <symbol id="KW09" viewBox="0 0 100 100">
    <path fill="#dc031b" d="M56.25,0l-2.825,16.9c26.575-10.65,46.575,7.475,46.575,35.9125,0,13.4375-11.25,47.1875-35,47.1875-6.25,0-10-1.25-15-1.25s-8.75,1.25-15,1.25C11.25,100,0,66.25,0,52.8125,0,24.375,20,6.25,46.575,16.9L43.75,0h12.5Z"/>
    <g>
      <path fill="#fff" d="M41.19727,38.75l-5.39258-5.8042h-.04297v5.8042h-3.00781v-12.50391h3.00781v5.37402l5.41406-5.37402h3.69531l-6.16602,5.89355,6.42383,6.61035h-3.93164Z"/>
      <path fill="#fff" d="M60.98828,38.75l-2.70703-9.99609h-.04297l-2.66406,9.99609h-3.88867l-3.97412-12.50391h3.1582l2.79248,9.99609h.04297l2.55664-9.99609h4.08203l2.64258,9.99609h.04297l2.81445-9.99609h2.92188l-3.91016,12.50391h-3.86719Z"/>
    </g>
    <g>
      <path fill="#fff" d="M25.25879,52.5625c2.38135-3.375,5.5249-5.0625,9.43115-5.0625,3.90527,0,7.05273,1.6875,9.44092,5.0625,2.38867,3.375,3.58301,8.06348,3.58301,14.06445,0,3.00781-.32031,5.72363-.95947,8.14648-.64014,2.42188-1.53467,4.43262-2.68457,6.03125-1.15039,1.59961-2.521,2.82422-4.11328,3.6748s-3.34814,1.27539-5.2666,1.27539c-3.90625,0-7.0498-1.68359-9.43115-5.05176-2.38184-3.36914-3.57275-8.06055-3.57275-14.07617,0-6.00098,1.19092-10.68945,3.57275-14.06445ZM27.81006,66.62695c0,9.1875,2.29346,13.78027,6.87988,13.78027,4.58594,0,6.87939-4.59277,6.87939-13.78027,0-9.18555-2.29346-13.7793-6.87939-13.7793-4.58643,0-6.87988,4.59375-6.87988,13.7793Z"/>
      <path fill="#fff" d="M60.81934,48.33691c1.46973-.55811,2.9668-.83691,4.49121-.83691,1.52344,0,3.02148.27881,4.49023.83691,1.4707.55811,2.7793,1.32666,3.92969,2.30664,1.15039.97949,2.07617,2.19824,2.77734,3.6543.7002,1.45605,1.05078,3.01465,1.05078,4.6748,0,1.57812-.23145,3.20117-.69434,4.86914-.46191,1.66602-1.25195,3.62305-2.36816,5.86816l-7.6543,15.31055h-6.51172l7.6543-15.31055.38867-.77539c-1.64746.54395-3.20508.81641-4.67578.81641-1.5918,0-3.06152-.2959-4.40918-.8877-1.34668-.5918-2.46973-1.38867-3.36816-2.38867s-1.59961-2.14648-2.10254-3.43945-.75488-2.64648-.75488-4.0625c0-1.66016.34961-3.21875,1.05078-4.6748s1.62598-2.6748,2.77637-3.6543c1.14941-.97998,2.45996-1.74854,3.92969-2.30664ZM59.18555,58.97266c0,1.83691.61621,3.32031,1.84766,4.4502,1.23242,1.12988,2.65723,1.69434,4.27734,1.69434,1.61914,0,3.04492-.56445,4.27637-1.69434s1.84766-2.61328,1.84766-4.4502c0-1.82422-.61621-3.29688-1.84766-4.41992s-2.65723-1.68359-4.27637-1.68359c-1.62012,0-3.04492.56055-4.27734,1.68359-1.23145,1.12305-1.84766,2.5957-1.84766,4.41992Z"/>
    </g>
  </symbol>
  <symbol id="KW10" viewBox="0 0 100 100">
    <path fill="#dc031b" d="M56.25,0l-2.825,16.9c26.575-10.65,46.575,7.475,46.575,35.9125,0,13.4375-11.25,47.1875-35,47.1875-6.25,0-10-1.25-15-1.25s-8.75,1.25-15,1.25C11.25,100,0,66.25,0,52.8125,0,24.375,20,6.25,46.575,16.9L43.75,0h12.5Z"/>
    <g>
      <path fill="#fff" d="M41.19727,38.75l-5.39258-5.8042h-.04297v5.8042h-3.00781v-12.50391h3.00781v5.37402l5.41406-5.37402h3.69531l-6.16602,5.89355,6.42383,6.61035h-3.93164Z"/>
      <path fill="#fff" d="M60.98828,38.75l-2.70703-9.99609h-.04297l-2.66406,9.99609h-3.88867l-3.97412-12.50391h3.1582l2.79248,9.99609h.04297l2.55664-9.99609h4.08203l2.64258,9.99609h.04297l2.81445-9.99609h2.92188l-3.91016,12.50391h-3.86719Z"/>
    </g>
    <g>
    <path fill="#fff" d="M33.1792,48.25537h6.104v36.74463h-6.104v-30.62109l-9.20654,4.59375v-6.125l9.20654-4.59229Z"/>
    <path fill="#fff" d="M54.34863,52.5625c2.38184-3.375,5.52441-5.0625,9.43066-5.0625s7.05273,1.6875,9.44141,5.0625,3.58301,8.06348,3.58301,14.06445c0,3.00781-.32031,5.72363-.95996,8.14648-.63965,2.42188-1.53418,4.43262-2.68359,6.03125-1.15039,1.59961-2.52148,2.82422-4.11328,3.6748-1.59277.85059-3.34863,1.27539-5.26758,1.27539-3.90625,0-7.04883-1.68359-9.43066-5.05176-2.38184-3.36914-3.57275-8.06055-3.57275-14.07617,0-6.00098,1.19092-10.68945,3.57275-14.06445ZM56.90039,66.62695c0,9.1875,2.29297,13.78027,6.87891,13.78027s6.87988-4.59277,6.87988-13.78027c0-9.18555-2.29395-13.7793-6.87988-13.7793s-6.87891,4.59375-6.87891,13.7793Z"/>
  </g>
  </symbol>
  <symbol id="KW11" viewBox="0 0 100 100">
    <path fill="#dc031b" d="M56.25,0l-2.825,16.9c26.575-10.65,46.575,7.475,46.575,35.9125,0,13.4375-11.25,47.1875-35,47.1875-6.25,0-10-1.25-15-1.25s-8.75,1.25-15,1.25C11.25,100,0,66.25,0,52.8125,0,24.375,20,6.25,46.575,16.9L43.75,0h12.5Z"/>
    <g>
      <path fill="#fff" d="M41.19727,38.75l-5.39258-5.8042h-.04297v5.8042h-3.00781v-12.50391h3.00781v5.37402l5.41406-5.37402h3.69531l-6.16602,5.89355,6.42383,6.61035h-3.93164Z"/>
      <path fill="#fff" d="M60.98828,38.75l-2.70703-9.99609h-.04297l-2.66406,9.99609h-3.88867l-3.97412-12.50391h3.1582l2.79248,9.99609h.04297l2.55664-9.99609h4.08203l2.64258,9.99609h.04297l2.81445-9.99609h2.92188l-3.91016,12.50391h-3.86719Z"/>
    </g>
    <g>
      <path fill="#fff" d="M34.70996,48.25537h6.104v36.74463h-6.104v-30.62109l-9.20654,4.59375v-6.125l9.20654-4.59229Z"/>
      <path fill="#fff" d="M62.26855,48.25537h6.10449v36.74463h-6.10449v-30.62109l-9.20605,4.59375v-6.125l9.20605-4.59229Z"/>
    </g>
  </symbol>
  <symbol id="KW12" viewBox="0 0 100 100">
    <path fill="#dc031b" d="M56.25,0l-2.825,16.9c26.575-10.65,46.575,7.475,46.575,35.9125,0,13.4375-11.25,47.1875-35,47.1875-6.25,0-10-1.25-15-1.25s-8.75,1.25-15,1.25C11.25,100,0,66.25,0,52.8125,0,24.375,20,6.25,46.575,16.9L43.75,0h12.5Z"/>
    <g>
      <path fill="#fff" d="M41.19727,38.75l-5.39258-5.8042h-.04297v5.8042h-3.00781v-12.50391h3.00781v5.37402l5.41406-5.37402h3.69531l-6.16602,5.89355,6.42383,6.61035h-3.93164Z"/>
      <path fill="#fff" d="M60.98828,38.75l-2.70703-9.99609h-.04297l-2.66406,9.99609h-3.88867l-3.97412-12.50391h3.1582l2.79248,9.99609h.04297l2.55664-9.99609h4.08203l2.64258,9.99609h.04297l2.81445-9.99609h2.92188l-3.91016,12.50391h-3.86719Z"/>
    </g>
    <g>
      <path fill="#fff" d="M33.1792,48.25537h6.104v36.74463h-6.104v-30.62109l-9.20654,4.59375v-6.125l9.20654-4.59229Z"/>
      <path fill="#fff" d="M71.80273,66.24023l-13.39258,13.39062h17.61719v5.36914h-24.49609v-6.90039l16.06641-16.06445c1.53711-1.53906,2.30664-3.06934,2.30664-4.59375,0-1.4834-.49805-2.61621-1.49023-3.39844-.99414-.7832-2.28711-1.17383-3.87891-1.17383-.85742,0-1.71875.14258-2.58203.42773-.86523.28613-1.60938.63281-2.23633,1.04102-.625.4082-1.19043.82031-1.69336,1.23633-.50391.41406-.88477.76465-1.14355,1.05078l-.3877.42871-4.20508-4.18457c.38086-.38086.80859-.76953,1.28516-1.16406s1.12305-.85742,1.93945-1.38818,1.65625-.99316,2.52148-1.38818c.86328-.39453,1.875-.73145,3.03125-1.01025s2.31348-.41846,3.4707-.41846c2.05469,0,3.94922.39502,5.68555,1.18408,1.73438.78906,3.13672,1.95264,4.20508,3.49072s1.60156,3.29395,1.60156,5.2666c0,1.56543-.33008,3.04883-.99023,4.4502s-1.73828,2.85059-3.23438,4.34863Z"/>
    </g>
  </symbol>
  <symbol id="KW13" viewBox="0 0 100 100">
    <path fill="#dc031b" d="M56.25,0l-2.825,16.9c26.575-10.65,46.575,7.475,46.575,35.9125,0,13.4375-11.25,47.1875-35,47.1875-6.25,0-10-1.25-15-1.25s-8.75,1.25-15,1.25C11.25,100,0,66.25,0,52.8125,0,24.375,20,6.25,46.575,16.9L43.75,0h12.5Z"/>
    <g>
      <path fill="#fff" d="M41.19727,38.75l-5.39258-5.8042h-.04297v5.8042h-3.00781v-12.50391h3.00781v5.37402l5.41406-5.37402h3.69531l-6.16602,5.89355,6.42383,6.61035h-3.93164Z"/>
      <path fill="#fff" d="M60.98828,38.75l-2.70703-9.99609h-.04297l-2.66406,9.99609h-3.88867l-3.97412-12.50391h3.1582l2.79248,9.99609h.04297l2.55664-9.99609h4.08203l2.64258,9.99609h.04297l2.81445-9.99609h2.92188l-3.91016,12.50391h-3.86719Z"/>
    </g>
    <g>
      <path fill="#fff" d="M33.1792,48.25537h6.104v36.74463h-6.104v-30.62109l-9.20654,4.59375v-6.125l9.20654-4.59229Z"/>
      <path fill="#fff" d="M76.02734,48.25537v5.36865l-9.91992,9.9209c1.48242.08203,2.85352.43262,4.11328,1.05176,1.25781.61914,2.30664,1.41895,3.14258,2.39844.83789.97949,1.49023,2.09961,1.96094,3.3584.46875,1.25879.70312,2.56836.70312,3.92969,0,1.66016-.34961,3.21875-1.05078,4.67383-.70117,1.45703-1.62695,2.6748-2.77637,3.6543-1.15039.98047-2.45996,1.74902-3.92969,2.30664-1.46973.55859-2.9668.83691-4.49121.83691-1.42871,0-2.83789-.19727-4.22559-.5918s-2.6123-.9082-3.6748-1.54102c-1.06055-.63281-1.92188-1.19727-2.58203-1.69434s-1.24805-.99707-1.76562-1.5l4.22559-4.22656c.09473.10938.22754.25977.39746.44922.1709.19141.53516.53125,1.09277,1.02148s1.13281.91797,1.72559,1.28516c.5918.36816,1.32617.70508,2.2041,1.01074.87793.30664,1.74512.45996,2.60254.45996,1.61914,0,3.04492-.56543,4.27734-1.69531,1.23047-1.12891,1.84766-2.6123,1.84766-4.44922,0-1.22461-.30078-2.31445-.89844-3.2666-.59961-.95215-1.35742-1.66309-2.27637-2.13379-.91895-.46875-1.90234-.70312-2.9502-.70312-.57129,0-1.1123.06055-1.62305.18359-.50977.12207-.88086.25195-1.1123.38672l-.32715.18457-3.81641-3.83789,11.47266-11.47266h-15.29102v-5.36865h22.94531Z"/>
    </g>
  </symbol>
  <symbol id="KW14" viewBox="0 0 100 100">
    <path fill="#dc031b" d="M56.25,0l-2.825,16.9c26.575-10.65,46.575,7.475,46.575,35.9125,0,13.4375-11.25,47.1875-35,47.1875-6.25,0-10-1.25-15-1.25s-8.75,1.25-15,1.25C11.25,100,0,66.25,0,52.8125,0,24.375,20,6.25,46.575,16.9L43.75,0h12.5Z"/>
    <g>
      <path fill="#fff" d="M41.19727,38.75l-5.39258-5.8042h-.04297v5.8042h-3.00781v-12.50391h3.00781v5.37402l5.41406-5.37402h3.69531l-6.16602,5.89355,6.42383,6.61035h-3.93164Z"/>
      <path fill="#fff" d="M60.98828,38.75l-2.70703-9.99609h-.04297l-2.66406,9.99609h-3.88867l-3.97412-12.50391h3.1582l2.79248,9.99609h.04297l2.55664-9.99609h4.08203l2.64258,9.99609h.04297l2.81445-9.99609h2.92188l-3.91016,12.50391h-3.86719Z"/>
    </g>
    <g>
      <path fill="#fff" d="M33.1792,48.25537h6.104v36.74463h-6.104v-30.62109l-9.20654,4.59375v-6.125l9.20654-4.59229Z"/>
      <path fill="#fff" d="M76.02734,74.2832v5.36816h-3.06152v5.34863h-5.73633v-5.34863h-15.69824v-5.36816l13.02344-26.02783h6.5127l-13.02441,26.02783h9.18652v-10.69727h5.73633v10.69727h3.06152Z"/>
    </g>
  </symbol>
</svg>
