<?xml version="1.0" encoding="UTF-8"?>
<svg xmlns="http://www.w3.org/2000/svg" xmlns:xlink="http://www.w3.org/1999/xlink">
  <symbol id="K" viewBox="0 0 100 100">
    <circle fill="#009944" cx="50" cy="50" r="50"/>
    <path fill="#fff" d="M83.07422,85h-18.12695l-20.82959-29.48047-6.729,6.91211v22.56836h-13.87061V17.52441h13.87061v27.78662l26.04688-27.78662h18.21875l-27.64844,27.78662,29.06836,39.68896Z"/>
  </symbol>
  <symbol id="K01" viewBox="0 0 100 100">
    <circle fill="#009944" cx="50" cy="50" r="50"/>
    <path fill="#fff" d="M63.47461,36.25h-7.38477l-8.48633-12.01074-2.74121,2.81641v9.19434h-5.65137V8.75977h5.65137v11.3208l10.6123-11.3208h7.42188l-11.26367,11.3208,11.8418,16.16943Z"/>
    <g>
      <path fill="#fff" d="M32.45215,84.84863c-5.63623,0-9.58789-1.97363-11.85645-5.9209-2.26904-3.94629-3.40283-9.57227-3.40283-16.87598s1.13379-12.94043,3.40283-16.90771c2.26855-3.96729,6.22021-5.95117,11.85645-5.95117,5.63525,0,9.59277,1.98389,11.87158,5.95117,2.2583,3.96729,3.38721,9.604,3.38721,16.90771s-1.13428,12.92969-3.40283,16.87598c-2.26855,3.94727-6.2207,5.9209-11.85596,5.9209ZM37.54834,73.70996c.79346-2.68652,1.19043-6.57227,1.19043-11.6582,0-5.33008-.40186-9.27734-1.20557-11.8418-.80371-2.56348-2.49756-3.84521-5.08105-3.84521-2.58398,0-4.29297,1.28174-5.12744,3.84521-.83447,2.56445-1.25098,6.51172-1.25098,11.8418,0,5.08594.4165,8.97754,1.25098,11.67285.83447,2.69629,2.54346,4.04395,5.12744,4.04395,2.5835,0,4.28223-1.35254,5.09619-4.05859Z"/>
      <path fill="#fff" d="M73.65137,83.75h-8.91113v-30.51855h-10.40625v-5.92041c2.74609-.12207,4.66895-.30518,5.76758-.54932,1.74902-.38623,3.17383-1.15967,4.27246-2.31982.75293-.79346,1.32227-1.85107,1.70898-3.17383.22363-.79346.33594-1.3833.33594-1.77002h7.23242v44.25195Z"/>
    </g>
  </symbol>
  <symbol id="K02" viewBox="0 0 100 100">
    <circle fill="#009944" cx="50" cy="50" r="50"/>
    <path fill="#fff" d="M63.47461,36.25h-7.38477l-8.48633-12.01074-2.74121,2.81641v9.19434h-5.65137V8.75977h5.65137v11.3208l10.6123-11.3208h7.42188l-11.26367,11.3208,11.8418,16.16943Z"/>
    <g>
      <path fill="#fff" d="M32.45215,84.84863c-5.63623,0-9.58789-1.97363-11.85645-5.9209-2.26904-3.94629-3.40283-9.57227-3.40283-16.87598s1.13379-12.94043,3.40283-16.90771c2.26855-3.96729,6.22021-5.95117,11.85645-5.95117,5.63525,0,9.59277,1.98389,11.87158,5.95117,2.2583,3.96729,3.38721,9.604,3.38721,16.90771s-1.13428,12.92969-3.40283,16.87598c-2.26855,3.94727-6.2207,5.9209-11.85596,5.9209ZM37.54834,73.70996c.79346-2.68652,1.19043-6.57227,1.19043-11.6582,0-5.33008-.40186-9.27734-1.20557-11.8418-.80371-2.56348-2.49756-3.84521-5.08105-3.84521-2.58398,0-4.29297,1.28174-5.12744,3.84521-.83447,2.56445-1.25098,6.51172-1.25098,11.8418,0,5.08594.4165,8.97754,1.25098,11.67285.83447,2.69629,2.54346,4.04395,5.12744,4.04395,2.5835,0,4.28223-1.35254,5.09619-4.05859Z"/>
      <path fill="#fff" d="M71.72852,48.50098c-1.03711-1.24072-2.52246-1.86133-4.45508-1.86133-2.64551,0-4.44531.98682-5.40234,2.95996-.54883,1.13965-.875,2.95117-.97656,5.43262h-8.45312c.14258-3.76367.82422-6.80566,2.04492-9.125,2.31934-4.41504,6.43945-6.62256,12.35938-6.62256,4.67969,0,8.40234,1.29688,11.16992,3.89111,2.7666,2.59375,4.15039,6.02734,4.15039,10.2998,0,3.27637-.97656,6.18555-2.92969,8.72852-1.28125,1.68945-3.3877,3.57031-6.31738,5.64551l-3.47852,2.47266c-2.17773,1.5459-3.66797,2.66504-4.47168,3.35645-.80371.69238-1.47949,1.49609-2.0293,2.41113h19.31836v7.66016h-30.30469c.08105-3.17383.7627-6.07324,2.04492-8.69727,1.24023-2.9502,4.16992-6.07324,8.78906-9.36914,4.00781-2.86914,6.60156-4.92383,7.78223-6.16504,1.81055-1.93262,2.71582-4.04883,2.71582-6.34766,0-1.87207-.51855-3.42871-1.55664-4.66992Z"/>
    </g>
  </symbol>
  <symbol id="K03" viewBox="0 0 100 100">
    <circle fill="#009944" cx="50" cy="50" r="50"/>
    <path fill="#fff" d="M63.47461,36.25h-7.38477l-8.48633-12.01074-2.74121,2.81641v9.19434h-5.65137V8.75977h5.65137v11.3208l10.6123-11.3208h7.42188l-11.26367,11.3208,11.8418,16.16943Z"/>
    <g>
      <path fill="#fff" d="M32.45215,84.84863c-5.63623,0-9.58789-1.97363-11.85645-5.9209-2.26904-3.94629-3.40283-9.57227-3.40283-16.87598s1.13379-12.94043,3.40283-16.90771c2.26855-3.96729,6.22021-5.95117,11.85645-5.95117,5.63525,0,9.59277,1.98389,11.87158,5.95117,2.2583,3.96729,3.38721,9.604,3.38721,16.90771s-1.13428,12.92969-3.40283,16.87598c-2.26855,3.94727-6.2207,5.9209-11.85596,5.9209ZM37.54834,73.70996c.79346-2.68652,1.19043-6.57227,1.19043-11.6582,0-5.33008-.40186-9.27734-1.20557-11.8418-.80371-2.56348-2.49756-3.84521-5.08105-3.84521-2.58398,0-4.29297,1.28174-5.12744,3.84521-.83447,2.56445-1.25098,6.51172-1.25098,11.8418,0,5.08594.4165,8.97754,1.25098,11.67285.83447,2.69629,2.54346,4.04395,5.12744,4.04395,2.5835,0,4.28223-1.35254,5.09619-4.05859Z"/>
      <path fill="#fff" d="M61.96289,48.31787c-.97656,1.30225-1.44434,3.04248-1.40332,5.21924h-8.11816c.08105-2.19727.45801-4.2832,1.12891-6.25684.71191-1.729,1.83105-3.32666,3.35742-4.7915,1.13867-1.0376,2.49219-1.83105,4.05859-2.38037s3.48926-.82373,5.76855-.82373c4.23145,0,7.64453,1.09375,10.23828,3.28076s3.8916,5.12207,3.8916,8.80469c0,2.60449-.77344,4.80176-2.31934,6.5918-.97656,1.11914-1.99414,1.88281-3.05176,2.28906.79297,0,1.93262.68164,3.41797,2.04492,2.2168,2.05469,3.32617,4.8623,3.32617,8.42285,0,3.74414-1.29688,7.03418-3.8916,9.87305-2.59375,2.83789-6.43457,4.25684-11.52051,4.25684-6.2666,0-10.62012-2.04492-13.06152-6.13379-1.28125-2.17676-1.99414-5.02539-2.13574-8.5459h8.54492c0,1.77051.28418,3.23535.85449,4.39551,1.05762,2.13574,2.98047,3.2041,5.76758,3.2041,1.70898,0,3.19922-.58496,4.4707-1.75488s1.90723-2.85352,1.90723-5.05078c0-2.90918-1.17969-4.85254-3.54004-5.8291-1.34277-.54883-3.45898-.82422-6.34766-.82422v-6.22559c2.82812-.04004,4.80176-.31543,5.9209-.82422,1.93262-.85449,2.89941-2.58301,2.89941-5.1875,0-1.68896-.49414-3.0625-1.48047-4.12061-.9873-1.05762-2.37598-1.58691-4.16602-1.58691-2.05469,0-3.56055.65137-4.5166,1.95312Z"/>
    </g>
  </symbol>
  <symbol id="K04" viewBox="0 0 100 100">
    <circle fill="#009944" cx="50" cy="50" r="50"/>
    <path fill="#fff" d="M63.47461,36.25h-7.38477l-8.48633-12.01074-2.74121,2.81641v9.19434h-5.65137V8.75977h5.65137v11.3208l10.6123-11.3208h7.42188l-11.26367,11.3208,11.8418,16.16943Z"/>
    <g>
      <path fill="#fff" d="M32.45215,84.84863c-5.63623,0-9.58789-1.97363-11.85645-5.9209-2.26904-3.94629-3.40283-9.57227-3.40283-16.87598s1.13379-12.94043,3.40283-16.90771c2.26855-3.96729,6.22021-5.95117,11.85645-5.95117,5.63525,0,9.59277,1.98389,11.87158,5.95117,2.2583,3.96729,3.38721,9.604,3.38721,16.90771s-1.13428,12.92969-3.40283,16.87598c-2.26855,3.94727-6.2207,5.9209-11.85596,5.9209ZM37.54834,73.70996c.79346-2.68652,1.19043-6.57227,1.19043-11.6582,0-5.33008-.40186-9.27734-1.20557-11.8418-.80371-2.56348-2.49756-3.84521-5.08105-3.84521-2.58398,0-4.29297,1.28174-5.12744,3.84521-.83447,2.56445-1.25098,6.51172-1.25098,11.8418,0,5.08594.4165,8.97754,1.25098,11.67285.83447,2.69629,2.54346,4.04395,5.12744,4.04395,2.5835,0,4.28223-1.35254,5.09619-4.05859Z"/>
      <path fill="#fff" d="M82.68457,67.42285v6.80566h-5.00488v9.52148h-8.51465v-9.52148h-17.5166v-7.59961l16.26562-26.85596h9.76562v27.6499h5.00488ZM58.08691,67.42285h11.07812v-19.10498l-11.07812,19.10498Z"/>
    </g>
  </symbol>
  <symbol id="K05" viewBox="0 0 100 100">
    <circle fill="#009944" cx="50" cy="50" r="50"/>
    <path fill="#fff" d="M63.47461,36.25h-7.38477l-8.48633-12.01074-2.74121,2.81641v9.19434h-5.65137V8.75977h5.65137v11.3208l10.6123-11.3208h7.42188l-11.26367,11.3208,11.8418,16.16943Z"/>
    <g>
      <path fill="#fff" d="M32.45215,84.84863c-5.63623,0-9.58789-1.97363-11.85645-5.9209-2.26904-3.94629-3.40283-9.57227-3.40283-16.87598s1.13379-12.94043,3.40283-16.90771c2.26855-3.96729,6.22021-5.95117,11.85645-5.95117,5.63525,0,9.59277,1.98389,11.87158,5.95117,2.2583,3.96729,3.38721,9.604,3.38721,16.90771s-1.13428,12.92969-3.40283,16.87598c-2.26855,3.94727-6.2207,5.9209-11.85596,5.9209ZM37.54834,73.70996c.79346-2.68652,1.19043-6.57227,1.19043-11.6582,0-5.33008-.40186-9.27734-1.20557-11.8418-.80371-2.56348-2.49756-3.84521-5.08105-3.84521-2.58398,0-4.29297,1.28174-5.12744,3.84521-.83447,2.56445-1.25098,6.51172-1.25098,11.8418,0,5.08594.4165,8.97754,1.25098,11.67285.83447,2.69629,2.54346,4.04395,5.12744,4.04395,2.5835,0,4.28223-1.35254,5.09619-4.05859Z"/>
      <path fill="#fff" d="M66.66309,61.77734c-1.05859,0-1.97363.13184-2.74707.39648-1.36328.48828-2.39062,1.39355-3.08203,2.71582l-7.8125-.36621,3.1123-24.44531h24.38477v7.38525h-18.09766l-1.58691,9.67432c1.34277-.87402,2.39062-1.4541,3.14355-1.73926,1.26074-.46777,2.79688-.70215,4.6084-.70215,3.66211,0,6.85547,1.23145,9.58203,3.69336s4.08984,6.04199,4.08984,10.74219c0,4.08984-1.3125,7.74121-3.93652,10.95605-2.625,3.21484-6.55176,4.82227-11.78027,4.82227-4.21191,0-7.6709-1.12988-10.37598-3.3877-2.70605-2.25879-4.21191-5.46289-4.5166-9.61328h8.66699c.3457,1.8916,1.00684,3.35156,1.9834,4.37891s2.40039,1.54102,4.27246,1.54102c2.15625,0,3.7998-.75781,4.92871-2.27344s1.69336-3.42285,1.69336-5.72168c0-2.25879-.5293-4.16602-1.58691-5.72266s-2.70605-2.33398-4.94336-2.33398Z"/>
     </g>
  </symbol>
  <symbol id="K06" viewBox="0 0 100 100">
    <circle fill="#009944" cx="50" cy="50" r="50"/>
    <path fill="#fff" d="M63.47461,36.25h-7.38477l-8.48633-12.01074-2.74121,2.81641v9.19434h-5.65137V8.75977h5.65137v11.3208l10.6123-11.3208h7.42188l-11.26367,11.3208,11.8418,16.16943Z"/>
    <g>
      <path fill="#fff" d="M32.45215,84.84863c-5.63623,0-9.58789-1.97363-11.85645-5.9209-2.26904-3.94629-3.40283-9.57227-3.40283-16.87598s1.13379-12.94043,3.40283-16.90771c2.26855-3.96729,6.22021-5.95117,11.85645-5.95117,5.63525,0,9.59277,1.98389,11.87158,5.95117,2.2583,3.96729,3.38721,9.604,3.38721,16.90771s-1.13428,12.92969-3.40283,16.87598c-2.26855,3.94727-6.2207,5.9209-11.85596,5.9209ZM37.54834,73.70996c.79346-2.68652,1.19043-6.57227,1.19043-11.6582,0-5.33008-.40186-9.27734-1.20557-11.8418-.80371-2.56348-2.49756-3.84521-5.08105-3.84521-2.58398,0-4.29297,1.28174-5.12744,3.84521-.83447,2.56445-1.25098,6.51172-1.25098,11.8418,0,5.08594.4165,8.97754,1.25098,11.67285.83447,2.69629,2.54346,4.04395,5.12744,4.04395,2.5835,0,4.28223-1.35254,5.09619-4.05859Z"/>
      <path fill="#fff" d="M69.10449,55.03223c3.92578,0,7.14551,1.33301,9.65918,3.99805,2.51172,2.66602,3.76855,6.07324,3.76855,10.22363,0,4.13086-1.23145,7.77246-3.69238,10.92578-2.46191,3.15332-6.28711,4.73047-11.47461,4.73047-5.5752,0-9.68555-2.33008-12.33008-6.98926-2.05469-3.6416-3.08203-8.3418-3.08203-14.09961,0-3.37695.14258-6.12305.42773-8.23926.50781-3.76367,1.49512-6.89795,2.95996-9.40039,1.26074-2.13623,2.91406-3.85547,4.95898-5.15771,2.04492-1.30176,4.49121-1.95312,7.33984-1.95312,4.10938,0,7.38477,1.05322,9.82715,3.15869,2.44141,2.10596,3.81445,4.90869,4.11914,8.40771h-8.66699c0-.71191-.27441-1.49512-.82422-2.34961-.93555-1.3833-2.34961-2.0752-4.24121-2.0752-2.82812,0-4.84277,1.58691-6.04297,4.76074-.65137,1.75049-1.09863,4.3335-1.34277,7.75244,1.07812-1.28223,2.3291-2.21777,3.75391-2.80859,1.42383-.58984,3.05176-.88477,4.88281-.88477ZM63.24512,63.33301c-1.70898,1.32324-2.56348,3.45898-2.56348,6.40918,0,2.38086.64062,4.32324,1.92188,5.8291,1.28223,1.50586,2.91016,2.25781,4.88379,2.25781,1.93262,0,3.45312-.72656,4.5625-2.18164,1.1084-1.4541,1.66309-3.3418,1.66309-5.66113,0-2.58398-.63086-4.5625-1.89258-5.93555-1.26172-1.37402-2.80762-2.06055-4.63867-2.06055-1.48535,0-2.79785.44824-3.93652,1.34277Z"/>
     </g>
  </symbol>
  <symbol id="K07" viewBox="0 0 100 100">
    <circle fill="#009944" cx="50" cy="50" r="50"/>
    <path fill="#fff" d="M63.47461,36.25h-7.38477l-8.48633-12.01074-2.74121,2.81641v9.19434h-5.65137V8.75977h5.65137v11.3208l10.6123-11.3208h7.42188l-11.26367,11.3208,11.8418,16.16943Z"/>
    <g>
      <path fill="#fff" d="M32.45215,84.84863c-5.63623,0-9.58789-1.97363-11.85645-5.9209-2.26904-3.94629-3.40283-9.57227-3.40283-16.87598s1.13379-12.94043,3.40283-16.90771c2.26855-3.96729,6.22021-5.95117,11.85645-5.95117,5.63525,0,9.59277,1.98389,11.87158,5.95117,2.2583,3.96729,3.38721,9.604,3.38721,16.90771s-1.13428,12.92969-3.40283,16.87598c-2.26855,3.94727-6.2207,5.9209-11.85596,5.9209ZM37.54834,73.70996c.79346-2.68652,1.19043-6.57227,1.19043-11.6582,0-5.33008-.40186-9.27734-1.20557-11.8418-.80371-2.56348-2.49756-3.84521-5.08105-3.84521-2.58398,0-4.29297,1.28174-5.12744,3.84521-.83447,2.56445-1.25098,6.51172-1.25098,11.8418,0,5.08594.4165,8.97754,1.25098,11.67285.83447,2.69629,2.54346,4.04395,5.12744,4.04395,2.5835,0,4.28223-1.35254,5.09619-4.05859Z"/>
      <path fill="#fff" d="M77.52734,53.71973c-2.31934,3.2959-4.2627,6.69434-5.8291,10.19336-1.24121,2.74707-2.36035,6.10352-3.35645,10.07129-.99707,3.9668-1.49609,7.22266-1.49609,9.76562h-9.0332c.26465-7.93457,2.86914-16.18457,7.8125-24.75,3.19434-5.31055,5.87012-9.01367,8.02637-11.10938h-22.06445l.12207-7.8125h31.25098v6.80566c-1.30273,1.28174-3.11328,3.56055-5.43262,6.83594Z"/>
     </g>
  </symbol>
  <symbol id="K08" viewBox="0 0 100 100">
    <circle fill="#009944" cx="50" cy="50" r="50"/>
    <path fill="#fff" d="M63.47461,36.25h-7.38477l-8.48633-12.01074-2.74121,2.81641v9.19434h-5.65137V8.75977h5.65137v11.3208l10.6123-11.3208h7.42188l-11.26367,11.3208,11.8418,16.16943Z"/>
    <g>
      <path fill="#fff" d="M32.45215,84.84863c-5.63623,0-9.58789-1.97363-11.85645-5.9209-2.26904-3.94629-3.40283-9.57227-3.40283-16.87598s1.13379-12.94043,3.40283-16.90771c2.26855-3.96729,6.22021-5.95117,11.85645-5.95117,5.63525,0,9.59277,1.98389,11.87158,5.95117,2.2583,3.96729,3.38721,9.604,3.38721,16.90771s-1.13428,12.92969-3.40283,16.87598c-2.26855,3.94727-6.2207,5.9209-11.85596,5.9209ZM37.54834,73.70996c.79346-2.68652,1.19043-6.57227,1.19043-11.6582,0-5.33008-.40186-9.27734-1.20557-11.8418-.80371-2.56348-2.49756-3.84521-5.08105-3.84521-2.58398,0-4.29297,1.28174-5.12744,3.84521-.83447,2.56445-1.25098,6.51172-1.25098,11.8418,0,5.08594.4165,8.97754,1.25098,11.67285.83447,2.69629,2.54346,4.04395,5.12744,4.04395,2.5835,0,4.28223-1.35254,5.09619-4.05859Z"/>
      <path fill="#fff" d="M55.46289,80.97266c-2.54395-2.60352-3.81445-5.76758-3.81445-9.49121,0-2.48145.56445-4.73047,1.69336-6.74414,1.12891-2.01465,2.78223-3.5293,4.95898-4.54688-2.13574-1.42383-3.52441-2.96582-4.16602-4.62402-.64062-1.6582-.96094-3.20898-.96094-4.6543,0-3.21436,1.20996-5.95605,3.63184-8.22461,2.4209-2.26855,5.83887-3.40283,10.25391-3.40283s7.83301,1.13428,10.25391,3.40283,3.63184,5.01025,3.63184,8.22461c0,1.44531-.32031,2.99609-.96094,4.6543-.6416,1.6582-2.0293,3.09766-4.16602,4.31836,2.17676,1.2207,3.81445,2.83789,4.91309,4.85254,1.09863,2.01367,1.64844,4.2627,1.64844,6.74414,0,3.72363-1.37891,6.89258-4.13574,9.50684s-6.60645,3.92188-11.55078,3.92188-8.6875-1.3125-11.23047-3.9375ZM60.68164,70.90137c0,2.17773.56445,3.86621,1.69336,5.06641,1.12891,1.20117,2.69043,1.80078,4.68457,1.80078s3.55566-.59961,4.68457-1.80078c1.12891-1.2002,1.69336-2.88867,1.69336-5.06641,0-2.25781-.57422-3.97168-1.72363-5.1416s-2.70117-1.75488-4.6543-1.75488-3.50488.58496-4.6543,1.75488-1.72363,2.88379-1.72363,5.1416ZM62.9707,55.82617c.97656,1.01758,2.33887,1.52539,4.08887,1.52539,1.77051,0,3.13867-.50781,4.10449-1.52539.9668-1.01758,1.4502-2.33008,1.4502-3.9375,0-1.74951-.4834-3.11768-1.4502-4.10498-.96582-.98633-2.33398-1.47998-4.10449-1.47998-1.75,0-3.11816.49365-4.10449,1.47998-.9873.9873-1.48047,2.35547-1.48047,4.10498,0,1.60742.49805,2.91992,1.49609,3.9375Z"/>
     </g>
  </symbol>
  <symbol id="K09" viewBox="0 0 100 100">
    <circle fill="#009944" cx="50" cy="50" r="50"/>
    <path fill="#fff" d="M63.47461,36.25h-7.38477l-8.48633-12.01074-2.74121,2.81641v9.19434h-5.65137V8.75977h5.65137v11.3208l10.6123-11.3208h7.42188l-11.26367,11.3208,11.8418,16.16943Z"/>
    <g>
      <path fill="#fff" d="M32.45215,84.84863c-5.63623,0-9.58789-1.97363-11.85645-5.9209-2.26904-3.94629-3.40283-9.57227-3.40283-16.87598s1.13379-12.94043,3.40283-16.90771c2.26855-3.96729,6.22021-5.95117,11.85645-5.95117,5.63525,0,9.59277,1.98389,11.87158,5.95117,2.2583,3.96729,3.38721,9.604,3.38721,16.90771s-1.13428,12.92969-3.40283,16.87598c-2.26855,3.94727-6.2207,5.9209-11.85596,5.9209ZM37.54834,73.70996c.79346-2.68652,1.19043-6.57227,1.19043-11.6582,0-5.33008-.40186-9.27734-1.20557-11.8418-.80371-2.56348-2.49756-3.84521-5.08105-3.84521-2.58398,0-4.29297,1.28174-5.12744,3.84521-.83447,2.56445-1.25098,6.51172-1.25098,11.8418,0,5.08594.4165,8.97754,1.25098,11.67285.83447,2.69629,2.54346,4.04395,5.12744,4.04395,2.5835,0,4.28223-1.35254,5.09619-4.05859Z"/>
      <path fill="#fff" d="M66.23535,85.03223c-3.31641,0-6.29688-.98242-8.94141-2.94531-2.64551-1.96289-4.16113-4.82715-4.54688-8.59082h8.66699c.20312,1.30176.75195,2.36035,1.64746,3.17383s2.08594,1.2207,3.57129,1.2207c2.86816,0,4.88281-1.58691,6.04199-4.76074.63086-1.75,1.02734-4.30371,1.19043-7.66016-.79395.99707-1.6377,1.75977-2.5332,2.28906-1.62793.97656-3.63184,1.46484-6.01172,1.46484-3.52051,0-6.64355-1.21582-9.36914-3.64746-2.72656-2.43066-4.08984-5.93555-4.08984-10.51367,0-4.74023,1.36816-8.58057,4.10449-11.52051s6.29199-4.41016,10.66699-4.41016c6.7334,0,11.35254,2.98096,13.85449,8.94189,1.42383,3.37744,2.13672,7.82373,2.13672,13.3374,0,5.35059-.68164,9.81641-2.04492,13.39746-2.60449,6.81543-7.38574,10.22363-14.34375,10.22363ZM63.18359,47.64648c-1.66797,1.30225-2.50195,3.50977-2.50195,6.62305,0,2.62402.53418,4.59277,1.60156,5.90527,1.06836,1.3125,2.71094,1.96875,4.92871,1.96875,1.2002,0,2.33008-.3457,3.3877-1.03809,1.97363-1.26074,2.95996-3.44824,2.95996-6.56152,0-2.50195-.58496-4.48633-1.75391-5.95117-1.1709-1.46484-2.77246-2.19727-4.80664-2.19727-1.48535,0-2.75781.41699-3.81543,1.25098Z"/>
     </g>
  </symbol>
  <symbol id="K10" viewBox="0 0 100 100">
    <circle fill="#009944" cx="50" cy="50" r="50"/>
    <path fill="#fff" d="M63.47461,36.25h-7.38477l-8.48633-12.01074-2.74121,2.81641v9.19434h-5.65137V8.75977h5.65137v11.3208l10.6123-11.3208h7.42188l-11.26367,11.3208,11.8418,16.16943Z"/>
    <g>
      <path fill="#fff" d="M38.89111,83.75h-8.91113v-30.51855h-10.40674v-5.92041c2.74658-.12207,4.66943-.30518,5.76807-.54932,1.74951-.38623,3.17383-1.15967,4.27246-2.31982.75244-.79346,1.32227-1.85107,1.70898-3.17383.22363-.79346.33594-1.3833.33594-1.77002h7.23242v44.25195Z"/>
      <path fill="#fff" d="M67.21191,84.84863c-5.63574,0-9.58789-1.97363-11.85645-5.9209-2.26855-3.94629-3.40234-9.57227-3.40234-16.87598s1.13379-12.94043,3.40234-16.90771,6.2207-5.95117,11.85645-5.95117,9.59277,1.98389,11.87207,5.95117c2.25781,3.96729,3.3877,9.604,3.3877,16.90771s-1.13477,12.92969-3.40332,16.87598c-2.26855,3.94727-6.2207,5.9209-11.85645,5.9209ZM72.30859,73.70996c.79395-2.68652,1.19043-6.57227,1.19043-11.6582,0-5.33008-.40234-9.27734-1.20508-11.8418-.80469-2.56348-2.49805-3.84521-5.08203-3.84521s-4.29297,1.28174-5.12695,3.84521c-.83398,2.56445-1.25098,6.51172-1.25098,11.8418,0,5.08594.41699,8.97754,1.25098,11.67285.83398,2.69629,2.54297,4.04395,5.12695,4.04395s4.2832-1.35254,5.09668-4.05859Z"/>
    </g>
  </symbol>
  <symbol id="K11" viewBox="0 0 100 100">
    <circle fill="#009944" cx="50" cy="50" r="50"/>
    <path fill="#fff" d="M63.47461,36.25h-7.38477l-8.48633-12.01074-2.74121,2.81641v9.19434h-5.65137V8.75977h5.65137v11.3208l10.6123-11.3208h7.42188l-11.26367,11.3208,11.8418,16.16943Z"/>
    <g>
      <path fill="#fff" d="M38.89111,83.75h-8.91113v-30.51855h-10.40674v-5.92041c2.74658-.12207,4.66943-.30518,5.76807-.54932,1.74951-.38623,3.17383-1.15967,4.27246-2.31982.75244-.79346,1.32227-1.85107,1.70898-3.17383.22363-.79346.33594-1.3833.33594-1.77002h7.23242v44.25195Z"/>
      <path fill="#fff" d="M73.65137,83.75h-8.91113v-30.51855h-10.40625v-5.92041c2.74609-.12207,4.66895-.30518,5.76758-.54932,1.74902-.38623,3.17383-1.15967,4.27246-2.31982.75293-.79346,1.32227-1.85107,1.70898-3.17383.22363-.79346.33594-1.3833.33594-1.77002h7.23242v44.25195Z"/>
    </g>
  </symbol>
  <symbol id="K12" viewBox="0 0 100 100">
    <circle fill="#009944" cx="50" cy="50" r="50"/>
    <path fill="#fff" d="M63.47461,36.25h-7.38477l-8.48633-12.01074-2.74121,2.81641v9.19434h-5.65137V8.75977h5.65137v11.3208l10.6123-11.3208h7.42188l-11.26367,11.3208,11.8418,16.16943Z"/>
    <g>
      <path fill="#fff" d="M38.89111,83.75h-8.91113v-30.51855h-10.40674v-5.92041c2.74658-.12207,4.66943-.30518,5.76807-.54932,1.74951-.38623,3.17383-1.15967,4.27246-2.31982.75244-.79346,1.32227-1.85107,1.70898-3.17383.22363-.79346.33594-1.3833.33594-1.77002h7.23242v44.25195Z"/>
      <path fill="#fff" d="M71.72852,48.50098c-1.03711-1.24072-2.52246-1.86133-4.45508-1.86133-2.64551,0-4.44531.98682-5.40234,2.95996-.54883,1.13965-.875,2.95117-.97656,5.43262h-8.45312c.14258-3.76367.82422-6.80566,2.04492-9.125,2.31934-4.41504,6.43945-6.62256,12.35938-6.62256,4.67969,0,8.40234,1.29688,11.16992,3.89111,2.7666,2.59375,4.15039,6.02734,4.15039,10.2998,0,3.27637-.97656,6.18555-2.92969,8.72852-1.28125,1.68945-3.3877,3.57031-6.31738,5.64551l-3.47852,2.47266c-2.17773,1.5459-3.66797,2.66504-4.47168,3.35645-.80371.69238-1.47949,1.49609-2.0293,2.41113h19.31836v7.66016h-30.30469c.08105-3.17383.7627-6.07324,2.04492-8.69727,1.24023-2.9502,4.16992-6.07324,8.78906-9.36914,4.00781-2.86914,6.60156-4.92383,7.78223-6.16504,1.81055-1.93262,2.71582-4.04883,2.71582-6.34766,0-1.87207-.51855-3.42871-1.55664-4.66992Z"/>
    </g>
  </symbol>
  <symbol id="K13" viewBox="0 0 100 100">
    <circle fill="#009944" cx="50" cy="50" r="50"/>
    <path fill="#fff" d="M63.47461,36.25h-7.38477l-8.48633-12.01074-2.74121,2.81641v9.19434h-5.65137V8.75977h5.65137v11.3208l10.6123-11.3208h7.42188l-11.26367,11.3208,11.8418,16.16943Z"/>
    <g>
      <path fill="#fff" d="M38.89111,83.75h-8.91113v-30.51855h-10.40674v-5.92041c2.74658-.12207,4.66943-.30518,5.76807-.54932,1.74951-.38623,3.17383-1.15967,4.27246-2.31982.75244-.79346,1.32227-1.85107,1.70898-3.17383.22363-.79346.33594-1.3833.33594-1.77002h7.23242v44.25195Z"/>
      <path fill="#fff" d="M61.96289,48.31787c-.97656,1.30225-1.44434,3.04248-1.40332,5.21924h-8.11816c.08105-2.19727.45801-4.2832,1.12891-6.25684.71191-1.729,1.83105-3.32666,3.35742-4.7915,1.13867-1.0376,2.49219-1.83105,4.05859-2.38037s3.48926-.82373,5.76855-.82373c4.23145,0,7.64453,1.09375,10.23828,3.28076s3.8916,5.12207,3.8916,8.80469c0,2.60449-.77344,4.80176-2.31934,6.5918-.97656,1.11914-1.99414,1.88281-3.05176,2.28906.79297,0,1.93262.68164,3.41797,2.04492,2.2168,2.05469,3.32617,4.8623,3.32617,8.42285,0,3.74414-1.29688,7.03418-3.8916,9.87305-2.59375,2.83789-6.43457,4.25684-11.52051,4.25684-6.2666,0-10.62012-2.04492-13.06152-6.13379-1.28125-2.17676-1.99414-5.02539-2.13574-8.5459h8.54492c0,1.77051.28418,3.23535.85449,4.39551,1.05762,2.13574,2.98047,3.2041,5.76758,3.2041,1.70898,0,3.19922-.58496,4.4707-1.75488s1.90723-2.85352,1.90723-5.05078c0-2.90918-1.17969-4.85254-3.54004-5.8291-1.34277-.54883-3.45898-.82422-6.34766-.82422v-6.22559c2.82812-.04004,4.80176-.31543,5.9209-.82422,1.93262-.85449,2.89941-2.58301,2.89941-5.1875,0-1.68896-.49414-3.0625-1.48047-4.12061-.9873-1.05762-2.37598-1.58691-4.16602-1.58691-2.05469,0-3.56055.65137-4.5166,1.95312Z"/>
    </g>
  </symbol>
  <symbol id="K14" viewBox="0 0 100 100">
    <circle fill="#009944" cx="50" cy="50" r="50"/>
    <path fill="#fff" d="M63.47461,36.25h-7.38477l-8.48633-12.01074-2.74121,2.81641v9.19434h-5.65137V8.75977h5.65137v11.3208l10.6123-11.3208h7.42188l-11.26367,11.3208,11.8418,16.16943Z"/>
    <g>
      <path fill="#fff" d="M38.89111,83.75h-8.91113v-30.51855h-10.40674v-5.92041c2.74658-.12207,4.66943-.30518,5.76807-.54932,1.74951-.38623,3.17383-1.15967,4.27246-2.31982.75244-.79346,1.32227-1.85107,1.70898-3.17383.22363-.79346.33594-1.3833.33594-1.77002h7.23242v44.25195Z"/>
      <path fill="#fff" d="M82.68457,67.42285v6.80566h-5.00488v9.52148h-8.51465v-9.52148h-17.5166v-7.59961l16.26562-26.85596h9.76562v27.6499h5.00488ZM58.08691,67.42285h11.07812v-19.10498l-11.07812,19.10498Z"/>
    </g>
  </symbol>
  <symbol id="K15" viewBox="0 0 100 100">
    <circle fill="#009944" cx="50" cy="50" r="50"/>
    <path fill="#fff" d="M63.47461,36.25h-7.38477l-8.48633-12.01074-2.74121,2.81641v9.19434h-5.65137V8.75977h5.65137v11.3208l10.6123-11.3208h7.42188l-11.26367,11.3208,11.8418,16.16943Z"/>
    <g>
      <path fill="#fff" d="M38.89111,83.75h-8.91113v-30.51855h-10.40674v-5.92041c2.74658-.12207,4.66943-.30518,5.76807-.54932,1.74951-.38623,3.17383-1.15967,4.27246-2.31982.75244-.79346,1.32227-1.85107,1.70898-3.17383.22363-.79346.33594-1.3833.33594-1.77002h7.23242v44.25195Z"/>
      <path fill="#fff" d="M66.66309,61.77734c-1.05859,0-1.97363.13184-2.74707.39648-1.36328.48828-2.39062,1.39355-3.08203,2.71582l-7.8125-.36621,3.1123-24.44531h24.38477v7.38525h-18.09766l-1.58691,9.67432c1.34277-.87402,2.39062-1.4541,3.14355-1.73926,1.26074-.46777,2.79688-.70215,4.6084-.70215,3.66211,0,6.85547,1.23145,9.58203,3.69336s4.08984,6.04199,4.08984,10.74219c0,4.08984-1.3125,7.74121-3.93652,10.95605-2.625,3.21484-6.55176,4.82227-11.78027,4.82227-4.21191,0-7.6709-1.12988-10.37598-3.3877-2.70605-2.25879-4.21191-5.46289-4.5166-9.61328h8.66699c.3457,1.8916,1.00684,3.35156,1.9834,4.37891s2.40039,1.54102,4.27246,1.54102c2.15625,0,3.7998-.75781,4.92871-2.27344s1.69336-3.42285,1.69336-5.72168c0-2.25879-.5293-4.16602-1.58691-5.72266s-2.70605-2.33398-4.94336-2.33398Z"/>
     </g>
  </symbol>
</svg>