<?xml version="1.0" encoding="UTF-8"?>
<svg xmlns="http://www.w3.org/2000/svg" xmlns:xlink="http://www.w3.org/1999/xlink">
  <!-- 0/30/90/20 -->
  <symbol id="TH" viewBox="0 0 90 90">
    <rect fill="#d8a50f" width="90" height="90" rx="15" ry="15"/>
    <g>
      <path fill="#fff" d="M41.87598,23.74902v5.71436h-9.94043v36.78662h-6.78613V29.46338h-10.11914v-5.71436h26.8457Z"/>
      <path fill="#fff" d="M52.53027,23.74902v17.02393h12.5v-17.02393h6.78613v42.50098h-6.78613v-19.7627h-12.5v19.7627h-6.78564V23.74902h6.78564Z"/>
    </g>
  </symbol>
  <symbol id="TH01" viewBox="0 0 90 90">
    <rect fill="#d8a50f" width="90" height="90" rx="15" ry="15"/>
    <path fill="#fff" d="M5,46.25h80v28.75c0,5.51915-4.48085,10-10,10H15c-5.51915,0-10-4.48085-10-10v-28.75h0Z"/>
    <g>
      <path fill="#fff" d="M42.61035,7.50098v4.36963h-7.60156v28.12939h-5.18848V11.87061h-7.73828v-4.36963h20.52832Z"/>
      <path fill="#fff" d="M50.75879,7.50098v13.01758h9.55859V7.50098h5.18848v32.49902h-5.18848v-15.11182h-9.55859v15.11182h-5.18896V7.50098h5.18896Z"/>
    </g>
    <g>
      <path fill="#231815" d="M43.36035,65.94336c0,10.46973-3.77783,16.56934-11.01514,16.56934s-11.01514-6.05469-11.01514-16.56934c0-10.46875,3.73242-16.56738,11.01514-16.56738,7.32812,0,11.01514,6.05371,11.01514,16.56738ZM32.34521,78.18848c3.86865,0,5.82617-3.86914,5.82617-12.24512,0-8.3291-2.04834-12.24316-5.87158-12.24316-3.82373,0-5.78076,4.1416-5.78076,12.24316,0,8.33008,2.00244,12.24512,5.82617,12.24512Z"/>
      <path fill="#231815" d="M60.93164,50.01318v31.86182h-5.69043v-22.48535h-7.82861v-4.09668c5.37061,0,8.69287-2.00195,9.28467-5.27979h4.23438Z"/>
    </g>
  </symbol>
  <symbol id="TH02" viewBox="0 0 90 90">
    <rect fill="#d8a50f" width="90" height="90" rx="15" ry="15"/>
    <path fill="#fff" d="M5,46.25h80v28.75c0,5.51915-4.48085,10-10,10H15c-5.51915,0-10-4.48085-10-10v-28.75h0Z"/>
    <g>
      <path fill="#fff" d="M42.61035,7.50098v4.36963h-7.60156v28.12939h-5.18848V11.87061h-7.73828v-4.36963h20.52832Z"/>
      <path fill="#fff" d="M50.75879,7.50098v13.01758h9.55859V7.50098h5.18848v32.49902h-5.18848v-15.11182h-9.55859v15.11182h-5.18896V7.50098h5.18896Z"/>
    </g>
    <g>
      <path fill="#231815" d="M43.36035,65.94336c0,10.46973-3.77783,16.56934-11.01514,16.56934s-11.01514-6.05469-11.01514-16.56934c0-10.46875,3.73242-16.56738,11.01514-16.56738,7.32812,0,11.01514,6.05371,11.01514,16.56738ZM32.34521,78.18848c3.86865,0,5.82617-3.86914,5.82617-12.24512,0-8.3291-2.04834-12.24316-5.87158-12.24316-3.82373,0-5.78076,4.1416-5.78076,12.24316,0,8.33008,2.00244,12.24512,5.82617,12.24512Z"/>
      <path fill="#231815" d="M68.57812,59.16211c0,2.18457-.68359,4.1875-1.95703,6.05371-1.32031,1.82129-3.73242,3.82324-7.19238,6.00879-4.55176,2.86719-5.87207,4.27832-6.41797,6.00781h15.52148v4.64258h-21.75684c0-4.91602,2.32129-8.92188,7.2832-12.24414,1.6377-1.0918,3.27637-2.23047,4.82422-3.36816,3.0957-2.27637,4.50586-4.55176,4.50586-6.96387,0-3.55078-2.00195-5.59863-5.37109-5.59863-3.50391,0-5.2793,2.41211-5.46191,7.96582h-5.18896c.13672-7.73828,4.36963-12.29004,10.96924-12.29004,6.32715,0,10.24219,4.09668,10.24219,9.78613Z"/>
    </g>
  </symbol>
  <symbol id="TH03" viewBox="0 0 90 90">
    <rect fill="#d8a50f" width="90" height="90" rx="15" ry="15"/>
    <path fill="#fff" d="M5,46.25h80v28.75c0,5.51915-4.48085,10-10,10H15c-5.51915,0-10-4.48085-10-10v-28.75h0Z"/>
    <g>
      <path fill="#fff" d="M42.61035,7.50098v4.36963h-7.60156v28.12939h-5.18848V11.87061h-7.73828v-4.36963h20.52832Z"/>
      <path fill="#fff" d="M50.75879,7.50098v13.01758h9.55859V7.50098h5.18848v32.49902h-5.18848v-15.11182h-9.55859v15.11182h-5.18896V7.50098h5.18896Z"/>
    </g>
    <g>
      <path fill="#231815" d="M43.36035,65.94336c0,10.46973-3.77783,16.56934-11.01514,16.56934s-11.01514-6.05469-11.01514-16.56934c0-10.46875,3.73242-16.56738,11.01514-16.56738,7.32812,0,11.01514,6.05371,11.01514,16.56738ZM32.34521,78.18848c3.86865,0,5.82617-3.86914,5.82617-12.24512,0-8.3291-2.04834-12.24316-5.87158-12.24316-3.82373,0-5.78076,4.1416-5.78076,12.24316,0,8.33008,2.00244,12.24512,5.82617,12.24512Z"/>
      <path fill="#231815" d="M67.62207,57.8877c0,3.36816-1.45605,5.68945-4.50684,6.82715v.0918c3.6875.81836,5.78125,3.86914,5.78125,7.96484,0,6.19043-5.46191,9.74121-11.28809,9.74121-6.82764,0-10.92432-3.73242-11.19727-11.10645h5.18848v.41016c0,3.68652,2.18555,6.37207,6.00879,6.37207,3.5498,0,6.09863-2.18555,6.09863-5.69043,0-3.73242-2.18457-5.41602-7.55469-5.41602h-.77441v-3.86914h.50098c4.05078,0,6.55469-1.72949,6.55469-5.00684,0-2.82129-2.18555-4.50586-4.96191-4.50586-3.14062,0-5.28027,2.68555-5.28027,6.09863v.41016h-5.18848c.31836-6.69141,4.64258-10.83301,10.55957-10.83301,5.23438,0,10.05957,3.00391,10.05957,8.51172Z"/>
    </g>
  </symbol>
  <symbol id="TH04" viewBox="0 0 90 90">
    <rect fill="#d8a50f" width="90" height="90" rx="15" ry="15"/>
    <path fill="#fff" d="M5,46.25h80v28.75c0,5.51915-4.48085,10-10,10H15c-5.51915,0-10-4.48085-10-10v-28.75h0Z"/>
    <g>
      <path fill="#fff" d="M42.61035,7.50098v4.36963h-7.60156v28.12939h-5.18848V11.87061h-7.73828v-4.36963h20.52832Z"/>
      <path fill="#fff" d="M50.75879,7.50098v13.01758h9.55859V7.50098h5.18848v32.49902h-5.18848v-15.11182h-9.55859v15.11182h-5.18896V7.50098h5.18896Z"/>
    </g>
    <g>
      <path fill="#231815" d="M43.36035,65.94336c0,10.46973-3.77783,16.56934-11.01514,16.56934s-11.01514-6.05469-11.01514-16.56934c0-10.46875,3.73242-16.56738,11.01514-16.56738,7.32812,0,11.01514,6.05371,11.01514,16.56738ZM32.34521,78.18848c3.86865,0,5.82617-3.86914,5.82617-12.24512,0-8.3291-2.04834-12.24316-5.87158-12.24316-3.82373,0-5.78076,4.1416-5.78076,12.24316,0,8.33008,2.00244,12.24512,5.82617,12.24512Z"/>
      <path fill="#231815" d="M64.66309,50.01318v20.20947h4.09668v4.09668h-4.09668v7.55566h-4.91504v-7.55566h-13.65576v-5.14355l13.65576-19.1626h4.91504ZM59.65625,56.20312l-9.55859,14.01953h9.65039v-14.01953h-.0918Z"/>
    </g>
  </symbol>
  <symbol id="TH05" viewBox="0 0 90 90">
    <rect fill="#d8a50f" width="90" height="90" rx="15" ry="15"/>
    <path fill="#fff" d="M5,46.25h80v28.75c0,5.51915-4.48085,10-10,10H15c-5.51915,0-10-4.48085-10-10v-28.75h0Z"/>
    <g>
      <path fill="#fff" d="M42.61035,7.50098v4.36963h-7.60156v28.12939h-5.18848V11.87061h-7.73828v-4.36963h20.52832Z"/>
      <path fill="#fff" d="M50.75879,7.50098v13.01758h9.55859V7.50098h5.18848v32.49902h-5.18848v-15.11182h-9.55859v15.11182h-5.18896V7.50098h5.18896Z"/>
    </g>
    <g>
      <path fill="#231815" d="M43.36035,65.94336c0,10.46973-3.77783,16.56934-11.01514,16.56934s-11.01514-6.05469-11.01514-16.56934c0-10.46875,3.73242-16.56738,11.01514-16.56738,7.32812,0,11.01514,6.05371,11.01514,16.56738ZM32.34521,78.18848c3.86865,0,5.82617-3.86914,5.82617-12.24512,0-8.3291-2.04834-12.24316-5.87158-12.24316-3.82373,0-5.78076,4.1416-5.78076,12.24316,0,8.33008,2.00244,12.24512,5.82617,12.24512Z"/>
      <path fill="#231815" d="M67.07617,50.01318v4.64307h-12.6084l-1.63867,8.10156.09082.0918c1.45703-1.59375,3.77734-2.41309,5.91699-2.41309,5.96289,0,9.92285,4.32422,9.92285,10.65137,0,5.18848-3.18555,11.4248-11.01562,11.4248-6.41797,0-10.92334-3.6416-11.15088-9.69629h5.18896c.31836,3.45996,2.50293,5.37207,5.87207,5.37207,3.86816,0,5.91602-2.50391,5.91602-6.96387,0-3.82422-2.18359-6.69141-6.05273-6.69141-2.73145,0-4.50684,1.1377-5.14453,2.91309h-5.18848l3.41406-17.43311h16.47754Z"/>
    </g>
  </symbol>
  <symbol id="TH06" viewBox="0 0 90 90">
    <rect fill="#d8a50f" width="90" height="90" rx="15" ry="15"/>
    <path fill="#fff" d="M5,46.25h80v28.75c0,5.51915-4.48085,10-10,10H15c-5.51915,0-10-4.48085-10-10v-28.75h0Z"/>
    <g>
      <path fill="#fff" d="M42.61035,7.50098v4.36963h-7.60156v28.12939h-5.18848V11.87061h-7.73828v-4.36963h20.52832Z"/>
      <path fill="#fff" d="M50.75879,7.50098v13.01758h9.55859V7.50098h5.18848v32.49902h-5.18848v-15.11182h-9.55859v15.11182h-5.18896V7.50098h5.18896Z"/>
    </g>
    <g>
      <path fill="#231815" d="M43.36035,65.94336c0,10.46973-3.77783,16.56934-11.01514,16.56934s-11.01514-6.05469-11.01514-16.56934c0-10.46875,3.73242-16.56738,11.01514-16.56738,7.32812,0,11.01514,6.05371,11.01514,16.56738ZM32.34521,78.18848c3.86865,0,5.82617-3.86914,5.82617-12.24512,0-8.3291-2.04834-12.24316-5.87158-12.24316-3.82373,0-5.78076,4.1416-5.78076,12.24316,0,8.33008,2.00244,12.24512,5.82617,12.24512Z"/>
      <path fill="#231815" d="M68.16797,58.07031h-5.18945c-.22656-2.64062-1.95703-4.37012-4.64258-4.37012-5.64355,0-6.28125,6.73633-6.59961,10.92383l.0918.09082c1.41016-2.50293,4.05078-3.77734,6.87305-3.77734,6.23535,0,10.05859,4.6875,10.05859,10.69629,0,6.32715-4.36914,10.87891-10.60547,10.87891-9.92236,0-11.60693-8.37598-11.60693-16.61426,0-7.55566,3.00439-16.52246,12.01709-16.52246,5.00586,0,9.42188,3.5957,9.60352,8.69434ZM57.97266,78.18848c3.73242,0,5.59766-3.27734,5.59766-6.64551,0-3.45898-1.91113-6.50977-5.64355-6.50977-3.68652,0-5.68945,3.0957-5.68945,6.50977,0,3.45898,2.00293,6.64551,5.73535,6.64551Z"/>
    </g>
  </symbol>
  <symbol id="TH07" viewBox="0 0 90 90">
    <rect fill="#d8a50f" width="90" height="90" rx="15" ry="15"/>
    <path fill="#fff" d="M5,46.25h80v28.75c0,5.51915-4.48085,10-10,10H15c-5.51915,0-10-4.48085-10-10v-28.75h0Z"/>
    <g>
      <path fill="#fff" d="M42.61035,7.50098v4.36963h-7.60156v28.12939h-5.18848V11.87061h-7.73828v-4.36963h20.52832Z"/>
      <path fill="#fff" d="M50.75879,7.50098v13.01758h9.55859V7.50098h5.18848v32.49902h-5.18848v-15.11182h-9.55859v15.11182h-5.18896V7.50098h5.18896Z"/>
    </g>
    <g>
      <path fill="#231815" d="M43.36035,65.94336c0,10.46973-3.77783,16.56934-11.01514,16.56934s-11.01514-6.05469-11.01514-16.56934c0-10.46875,3.73242-16.56738,11.01514-16.56738,7.32812,0,11.01514,6.05371,11.01514,16.56738ZM32.34521,78.18848c3.86865,0,5.82617-3.86914,5.82617-12.24512,0-8.3291-2.04834-12.24316-5.87158-12.24316-3.82373,0-5.78076,4.1416-5.78076,12.24316,0,8.33008,2.00244,12.24512,5.82617,12.24512Z"/>
      <path fill="#231815" d="M68.39551,50.01318v4.32471c-7.14551,7.96484-11.06055,16.75-11.87988,27.49121v.0459h-5.68945c.72852-9.64941,5.32617-19.34473,12.28906-27.21875h-16.52197v-4.64307h21.80225Z"/>
    </g>
  </symbol>
  <symbol id="TH08" viewBox="0 0 90 90">
    <rect fill="#d8a50f" width="90" height="90" rx="15" ry="15"/>
    <path fill="#fff" d="M5,46.25h80v28.75c0,5.51915-4.48085,10-10,10H15c-5.51915,0-10-4.48085-10-10v-28.75h0Z"/>
    <g>
      <path fill="#fff" d="M42.61035,7.50098v4.36963h-7.60156v28.12939h-5.18848V11.87061h-7.73828v-4.36963h20.52832Z"/>
      <path fill="#fff" d="M50.75879,7.50098v13.01758h9.55859V7.50098h5.18848v32.49902h-5.18848v-15.11182h-9.55859v15.11182h-5.18896V7.50098h5.18896Z"/>
    </g>
    <g>
      <path fill="#231815" d="M43.36035,65.94336c0,10.46973-3.77783,16.56934-11.01514,16.56934s-11.01514-6.05469-11.01514-16.56934c0-10.46875,3.73242-16.56738,11.01514-16.56738,7.32812,0,11.01514,6.05371,11.01514,16.56738ZM32.34521,78.18848c3.86865,0,5.82617-3.86914,5.82617-12.24512,0-8.3291-2.04834-12.24316-5.87158-12.24316-3.82373,0-5.78076,4.1416-5.78076,12.24316,0,8.33008,2.00244,12.24512,5.82617,12.24512Z"/>
      <path fill="#231815" d="M67.57617,58.07031c0,3.00391-1.45605,5.37012-4.50586,6.55371v.09082c3.64062.95605,5.82617,3.82422,5.82617,7.7832,0,6.14551-4.7793,10.01465-11.24219,10.01465-6.60059,0-11.24316-4.00586-11.24316-10.01465,0-3.86914,2.18457-6.82715,5.82617-7.7832v-.09082c-2.91309-1.09277-4.50635-3.36816-4.50635-6.55371,0-5.55371,3.73193-8.69434,9.92334-8.69434,6.18945,0,9.92188,3.14062,9.92188,8.69434ZM57.6543,78.41602c3.5957,0,6.05273-2.36719,6.05273-5.91797,0-3.36719-2.54883-5.59766-6.09863-5.59766-3.45996,0-6.00879,2.18457-6.00879,5.59766,0,3.55078,2.36719,5.91797,6.05469,5.91797ZM57.6543,63.03125c3.18555,0,5.00586-2.00293,5.00586-4.68848,0-2.95801-2.09375-4.87012-5.05176-4.87012-2.82227,0-4.96191,1.86523-4.96191,4.87012,0,2.86816,1.95703,4.68848,5.00781,4.68848Z"/>
    </g>
  </symbol>
  <symbol id="TH09" viewBox="0 0 90 90">
    <rect fill="#d8a50f" width="90" height="90" rx="15" ry="15"/>
    <path fill="#fff" d="M5,46.25h80v28.75c0,5.51915-4.48085,10-10,10H15c-5.51915,0-10-4.48085-10-10v-28.75h0Z"/>
    <g>
      <path fill="#fff" d="M42.61035,7.50098v4.36963h-7.60156v28.12939h-5.18848V11.87061h-7.73828v-4.36963h20.52832Z"/>
      <path fill="#fff" d="M50.75879,7.50098v13.01758h9.55859V7.50098h5.18848v32.49902h-5.18848v-15.11182h-9.55859v15.11182h-5.18896V7.50098h5.18896Z"/>
    </g>
    <g>
      <path fill="#231815" d="M43.36035,65.94336c0,10.46973-3.77783,16.56934-11.01514,16.56934s-11.01514-6.05469-11.01514-16.56934c0-10.46875,3.73242-16.56738,11.01514-16.56738,7.32812,0,11.01514,6.05371,11.01514,16.56738ZM32.34521,78.18848c3.86865,0,5.82617-3.86914,5.82617-12.24512,0-8.3291-2.04834-12.24316-5.87158-12.24316-3.82373,0-5.78076,4.1416-5.78076,12.24316,0,8.33008,2.00244,12.24512,5.82617,12.24512Z"/>
      <path fill="#231815" d="M68.75977,65.99023c0,7.55469-3.00391,16.52246-12.0166,16.52246-5.05176,0-9.33057-3.50488-9.604-8.69434h5.18896c.22754,2.59473,2.00293,4.37012,4.64258,4.37012,5.59863,0,6.28125-6.7373,6.59961-10.9248l-.08984-.09082c-1.36621,2.45801-4.09766,3.82324-6.87305,3.82324-6.32764,0-10.06006-4.64258-10.06006-10.74219,0-6.55371,4.46045-10.87793,10.97021-10.87793,9.69531,0,11.24219,8.69434,11.24219,16.61426ZM57.28906,66.90039c3.82422,0,5.78125-3.18652,5.78125-6.69141s-2.09375-6.50879-5.82617-6.50879c-3.6875,0-5.50781,3.14062-5.50781,6.50879s1.82031,6.69141,5.55273,6.69141Z"/>
    </g>
  </symbol>
</svg>
