<?xml version="1.0" encoding="UTF-8"?>
<svg xmlns="http://www.w3.org/2000/svg" xmlns:xlink="http://www.w3.org/1999/xlink">
  <!-- 100/50/0/0 -->
  <symbol id="CH" viewBox="0 0 90 90">
    <rect fill="#717071" width="90" height="90" rx="15" ry="15"/>
    <g>
      <path fill="#fff" d="M42.41162,36.0708v.95215h-6.78613v-.59521c0-5.65479-2.02344-8.39307-6.01172-8.39307-5.29785,0-7.32178,3.45264-7.32178,16.78613,0,13.75049,2.20264,17.14307,7.26221,17.14307,4.22607,0,6.30957-3.39258,6.30957-10.05957v-.89258h6.78564v.6543c0,10.05957-4.76172,15.41699-13.09521,15.41699-10.17871,0-14.04785-6.01172-14.04785-22.08398,0-15.8335,3.75-22.0835,14.10742-22.0835,9.40479,0,12.79785,5.29785,12.79785,13.15527Z"/>
      <path fill="#fff" d="M54.19727,23.74902v17.02393h12.5v-17.02393h6.78516v42.50098h-6.78516v-19.7627h-12.5v19.7627h-6.78613V23.74902h6.78613Z"/>
    </g>
  </symbol>
  <symbol id="CH01" viewBox="0 0 90 90">
    <rect fill="#717071" width="90" height="90" rx="15" ry="15"/>
    <path fill="#fff" d="M5,46.25h80v28.75c0,5.51915-4.48085,10-10,10H15c-5.51915,0-10-4.48085-10-10v-28.75h0Z"/>
    <g>
      <path fill="#fff" d="M43.02002,16.92285v.72852h-5.18896v-.45557c0-4.32373-1.54736-6.41748-4.59717-6.41748-4.05078,0-5.59863,2.63965-5.59863,12.83545,0,10.51465,1.68408,13.10889,5.55322,13.10889,3.23145,0,4.82471-2.59424,4.82471-7.69238v-.68262h5.18896v.50049c0,7.69238-3.6416,11.78906-10.01367,11.78906-7.78369,0-10.74219-4.59717-10.74219-16.88672,0-12.10742,2.86768-16.88672,10.7876-16.88672,7.19189,0,9.78613,4.05078,9.78613,10.05908Z"/>
      <path fill="#fff" d="M52.0332,7.50098v13.01758h9.55859V7.50098h5.18848v32.49902h-5.18848v-15.11182h-9.55859v15.11182h-5.18896V7.50098h5.18896Z"/>
    </g>
    <g>
      <path fill="#231815" d="M43.36035,65.94336c0,10.46973-3.77783,16.56934-11.01514,16.56934s-11.01514-6.05469-11.01514-16.56934c0-10.46875,3.73242-16.56738,11.01514-16.56738,7.32812,0,11.01514,6.05371,11.01514,16.56738ZM32.34521,78.18848c3.86865,0,5.82617-3.86914,5.82617-12.24512,0-8.3291-2.04834-12.24316-5.87158-12.24316-3.82373,0-5.78076,4.1416-5.78076,12.24316,0,8.33008,2.00244,12.24512,5.82617,12.24512Z"/>
      <path fill="#231815" d="M60.93164,50.01318v31.86182h-5.69043v-22.48535h-7.82861v-4.09668c5.37061,0,8.69287-2.00195,9.28467-5.27979h4.23438Z"/>
    </g>
  </symbol>
</svg>
