<?xml version="1.0" encoding="UTF-8"?>
<svg xmlns="http://www.w3.org/2000/svg" xmlns:xlink="http://www.w3.org/1999/xlink">
  <!-- 5/100/90/10 -->
  <symbol id="TK" viewBox="0 0 90 90">
    <rect fill="#d1031f" width="90" height="90" rx="15" ry="15"/>
    <g>
      <path fill="#fff" d="M42.97705,23.74902v5.71436h-9.94043v36.78662h-6.78564V29.46338h-10.11963v-5.71436h26.8457Z"/>
      <path fill="#fff" d="M53.63184,23.74902v18.51221h.11914l12.85645-18.51221h7.44141l-12.2627,17.91699,13.57227,24.58398h-7.67871l-10.29785-19.10791-3.75,5.35791v13.75h-6.78613V23.74902h6.78613Z"/>
    </g>
  </symbol>
  <symbol id="TK01" viewBox="0 0 90 90">
    <rect fill="#d1031f" width="90" height="90" rx="15" ry="15"/>
    <path fill="#fff" d="M5,46.25h80v28.75c0,5.51915-4.48085,10-10,10H15c-5.51915,0-10-4.48085-10-10v-28.75h0Z"/>
    <g>
      <path fill="#fff" d="M43.45264,7.50098v4.36963h-7.60156v28.12939h-5.18896V11.87061h-7.73779v-4.36963h20.52832Z"/>
      <path fill="#fff" d="M51.60059,7.50098v14.15576h.09082l9.83203-14.15576h5.68945l-9.37598,13.70068,10.37793,18.79834h-5.87207l-7.87402-14.61084-2.86816,4.09619v10.51465h-5.18848V7.50098h5.18848Z"/>
    </g>
    <g>
      <path fill="#231815" d="M43.36035,65.94336c0,10.46973-3.77783,16.56934-11.01514,16.56934s-11.01514-6.05469-11.01514-16.56934c0-10.46875,3.73242-16.56738,11.01514-16.56738,7.32812,0,11.01514,6.05371,11.01514,16.56738ZM32.34521,78.18848c3.86865,0,5.82617-3.86914,5.82617-12.24512,0-8.3291-2.04834-12.24316-5.87158-12.24316-3.82373,0-5.78076,4.1416-5.78076,12.24316,0,8.33008,2.00244,12.24512,5.82617,12.24512Z"/>
      <path fill="#231815" d="M60.93164,50.01318v31.86182h-5.69043v-22.48535h-7.82861v-4.09668c5.37061,0,8.69287-2.00195,9.28467-5.27979h4.23438Z"/>
    </g>
  </symbol>
  <symbol id="TK02" viewBox="0 0 90 90">
    <rect fill="#d1031f" width="90" height="90" rx="15" ry="15"/>
    <path fill="#fff" d="M5,46.25h80v28.75c0,5.51915-4.48085,10-10,10H15c-5.51915,0-10-4.48085-10-10v-28.75h0Z"/>
    <g>
      <path fill="#fff" d="M43.45264,7.50098v4.36963h-7.60156v28.12939h-5.18896V11.87061h-7.73779v-4.36963h20.52832Z"/>
      <path fill="#fff" d="M51.60059,7.50098v14.15576h.09082l9.83203-14.15576h5.68945l-9.37598,13.70068,10.37793,18.79834h-5.87207l-7.87402-14.61084-2.86816,4.09619v10.51465h-5.18848V7.50098h5.18848Z"/>
    </g>
    <g>
      <path fill="#231815" d="M43.36035,65.94336c0,10.46973-3.77783,16.56934-11.01514,16.56934s-11.01514-6.05469-11.01514-16.56934c0-10.46875,3.73242-16.56738,11.01514-16.56738,7.32812,0,11.01514,6.05371,11.01514,16.56738ZM32.34521,78.18848c3.86865,0,5.82617-3.86914,5.82617-12.24512,0-8.3291-2.04834-12.24316-5.87158-12.24316-3.82373,0-5.78076,4.1416-5.78076,12.24316,0,8.33008,2.00244,12.24512,5.82617,12.24512Z"/>
      <path fill="#231815" d="M68.57812,59.16211c0,2.18457-.68359,4.1875-1.95703,6.05371-1.32031,1.82129-3.73242,3.82324-7.19238,6.00879-4.55176,2.86719-5.87207,4.27832-6.41797,6.00781h15.52148v4.64258h-21.75684c0-4.91602,2.32129-8.92188,7.2832-12.24414,1.6377-1.0918,3.27637-2.23047,4.82422-3.36816,3.0957-2.27637,4.50586-4.55176,4.50586-6.96387,0-3.55078-2.00195-5.59863-5.37109-5.59863-3.50391,0-5.2793,2.41211-5.46191,7.96582h-5.18896c.13672-7.73828,4.36963-12.29004,10.96924-12.29004,6.32715,0,10.24219,4.09668,10.24219,9.78613Z"/>
    </g>
  </symbol>
  <symbol id="TK03" viewBox="0 0 90 90">
    <rect fill="#d1031f" width="90" height="90" rx="15" ry="15"/>
    <path fill="#fff" d="M5,46.25h80v28.75c0,5.51915-4.48085,10-10,10H15c-5.51915,0-10-4.48085-10-10v-28.75h0Z"/>
    <g>
      <path fill="#fff" d="M43.45264,7.50098v4.36963h-7.60156v28.12939h-5.18896V11.87061h-7.73779v-4.36963h20.52832Z"/>
      <path fill="#fff" d="M51.60059,7.50098v14.15576h.09082l9.83203-14.15576h5.68945l-9.37598,13.70068,10.37793,18.79834h-5.87207l-7.87402-14.61084-2.86816,4.09619v10.51465h-5.18848V7.50098h5.18848Z"/>
    </g>
    <g>
      <path fill="#231815" d="M43.36035,65.94336c0,10.46973-3.77783,16.56934-11.01514,16.56934s-11.01514-6.05469-11.01514-16.56934c0-10.46875,3.73242-16.56738,11.01514-16.56738,7.32812,0,11.01514,6.05371,11.01514,16.56738ZM32.34521,78.18848c3.86865,0,5.82617-3.86914,5.82617-12.24512,0-8.3291-2.04834-12.24316-5.87158-12.24316-3.82373,0-5.78076,4.1416-5.78076,12.24316,0,8.33008,2.00244,12.24512,5.82617,12.24512Z"/>
      <path fill="#231815" d="M67.62207,57.8877c0,3.36816-1.45605,5.68945-4.50684,6.82715v.0918c3.6875.81836,5.78125,3.86914,5.78125,7.96484,0,6.19043-5.46191,9.74121-11.28809,9.74121-6.82764,0-10.92432-3.73242-11.19727-11.10645h5.18848v.41016c0,3.68652,2.18555,6.37207,6.00879,6.37207,3.5498,0,6.09863-2.18555,6.09863-5.69043,0-3.73242-2.18457-5.41602-7.55469-5.41602h-.77441v-3.86914h.50098c4.05078,0,6.55469-1.72949,6.55469-5.00684,0-2.82129-2.18555-4.50586-4.96191-4.50586-3.14062,0-5.28027,2.68555-5.28027,6.09863v.41016h-5.18848c.31836-6.69141,4.64258-10.83301,10.55957-10.83301,5.23438,0,10.05957,3.00391,10.05957,8.51172Z"/>
    </g>
  </symbol>
  <symbol id="TK04" viewBox="0 0 90 90">
    <rect fill="#d1031f" width="90" height="90" rx="15" ry="15"/>
    <path fill="#fff" d="M5,46.25h80v28.75c0,5.51915-4.48085,10-10,10H15c-5.51915,0-10-4.48085-10-10v-28.75h0Z"/>
    <g>
      <path fill="#fff" d="M43.45264,7.50098v4.36963h-7.60156v28.12939h-5.18896V11.87061h-7.73779v-4.36963h20.52832Z"/>
      <path fill="#fff" d="M51.60059,7.50098v14.15576h.09082l9.83203-14.15576h5.68945l-9.37598,13.70068,10.37793,18.79834h-5.87207l-7.87402-14.61084-2.86816,4.09619v10.51465h-5.18848V7.50098h5.18848Z"/>
    </g>
    <g>
      <path fill="#231815" d="M43.36035,65.94336c0,10.46973-3.77783,16.56934-11.01514,16.56934s-11.01514-6.05469-11.01514-16.56934c0-10.46875,3.73242-16.56738,11.01514-16.56738,7.32812,0,11.01514,6.05371,11.01514,16.56738ZM32.34521,78.18848c3.86865,0,5.82617-3.86914,5.82617-12.24512,0-8.3291-2.04834-12.24316-5.87158-12.24316-3.82373,0-5.78076,4.1416-5.78076,12.24316,0,8.33008,2.00244,12.24512,5.82617,12.24512Z"/>
      <path fill="#231815" d="M64.66309,50.01318v20.20947h4.09668v4.09668h-4.09668v7.55566h-4.91504v-7.55566h-13.65576v-5.14355l13.65576-19.1626h4.91504ZM59.65625,56.20312l-9.55859,14.01953h9.65039v-14.01953h-.0918Z"/>
    </g>
  </symbol>
</svg>
