<?xml version="1.0" encoding="UTF-8"?>
<svg xmlns="http://www.w3.org/2000/svg" xmlns:xlink="http://www.w3.org/1999/xlink">
  <symbol id="N" viewBox="0 0 100 100">
    <circle fill="#e31919" cx="50" cy="50" r="50"/>
    <circle fill="#fff" cx="50" cy="50" r="45"/>
    <path fill="#000" d="M32.60254,70V29.99902h10.30566l16.89258,27.41113v-27.41113h7.54297v40.00098h-8.49902l-18.75195-30.81055v30.81055h-7.49023Z"/>
  </symbol>
  <symbol id="N1" viewBox="0 0 100 100">
    <circle fill="#e31919" cx="50" cy="50" r="50"/>
    <circle fill="#fff" cx="50" cy="50" r="45"/>
    <path fill="#000" d="M36.95215,40.625V10.625h7.72949l12.66895,20.55762V10.625h5.6582v30h-6.375l-14.06348-23.10742v23.10742h-5.61816Z"/>
    <g>
      <path fill="#000" d="M48.40625,49.80127h5.62793v37.69873h-7.37109v-28.48633h-8.36621v-4.53223c2.85449-.03223,4.98828-.37305,6.39941-1.02051s2.64746-1.86816,3.70996-3.65967Z"/>
    </g>
  </symbol>
  <symbol id="N2" viewBox="0 0 100 100">
    <circle fill="#e31919" cx="50" cy="50" r="50"/>
    <circle fill="#fff" cx="50" cy="50" r="45"/>
    <path fill="#000" d="M36.95215,40.625V10.625h7.72949l12.66895,20.55762V10.625h5.6582v30h-6.375l-14.06348-23.10742v23.10742h-5.61816Z"/>
    <g>
      <path fill="#000" d="M45.09473,62.99805h-7.07129c.33105-2.55664.75488-4.55762,1.26953-6.00098.51465-1.44434,1.25293-2.73047,2.2168-3.86035,2.19043-2.45557,5.22852-3.68408,9.11328-3.68408,3.51855,0,6.34961,1.0625,8.49121,3.18604,2.1416,2.125,3.21191,4.93066,3.21191,8.41699,0,3.38672-1.21191,6.45801-3.63574,9.21289-.86328.96387-1.63574,1.76074-2.31543,2.39062-.68066.63086-2.64844,2.32422-5.90137,5.08008-1.0293.86328-2.40723,2.1416-4.13379,3.83398h15.7373v5.92676h-24.40234v-5.2793c1.26074-1.65918,2.41504-3.03711,3.46094-4.13281s2.96289-2.90527,5.75195-5.42871c3.21973-2.9209,5.21191-4.83105,5.97656-5.72754,1.75879-1.8916,2.63965-3.9668,2.63965-6.22461,0-1.62695-.42383-2.89648-1.27051-3.80957s-2.03418-1.37012-3.56055-1.37012c-1.79297,0-3.1123.57324-3.95898,1.71875-.84668,1.14453-1.38672,3.0625-1.61914,5.75195Z"/>
    </g>
  </symbol>
  <symbol id="N3" viewBox="0 0 100 100">
    <circle fill="#e31919" cx="50" cy="50" r="50"/>
    <circle fill="#fff" cx="50" cy="50" r="45"/>
    <path fill="#000" d="M36.95215,40.625V10.625h7.72949l12.66895,20.55762V10.625h5.6582v30h-6.375l-14.06348-23.10742v23.10742h-5.61816Z"/>
    <g>
      <path fill="#000" d="M37.17676,74.90039h7.12109c0,1.69336.13281,2.95508.39844,3.78516.76367,2.19043,2.50684,3.28613,5.22949,3.28613,1.79297,0,3.26953-.56348,4.43262-1.69336,1.16113-1.12793,1.74316-2.55566,1.74316-4.28223,0-2.22461-.96387-3.78516-2.88867-4.68164-1.06348-.53027-2.73926-.79688-5.03027-.79688h-1.39453v-5.37793h1.29492c2.25781,0,3.99219-.42383,5.2041-1.27051s1.81836-2.06641,1.81836-3.66016c0-1.46094-.49023-2.66406-1.46973-3.61035s-2.21582-1.41992-3.70996-1.41992c-1.75977,0-3.03809.68066-3.83496,2.04199-.49805.83008-.81348,2.1748-.94629,4.03418h-7.1709c.26465-2.05859.58887-3.66016.9707-4.80566s.97168-2.19922,1.76855-3.16309c2.09082-2.55518,5.12891-3.8335,9.11328-3.8335,3.55176,0,6.44043.9541,8.66504,2.86279,2.22461,1.90918,3.33691,4.39062,3.33691,7.44531,0,2.0918-.53125,3.90137-1.59375,5.42871-.63086.89551-1.66016,1.72656-3.08789,2.48926,1.72656.83105,2.98828,1.72656,3.78516,2.68945,1.26172,1.52734,1.89258,3.48633,1.89258,5.87695,0,3.41992-1.25391,6.2168-3.75977,8.3916-2.50781,2.1748-5.73633,3.26172-9.68652,3.26172-4.18359,0-7.28809-1.29492-9.3125-3.88477-1.52832-1.8252-2.49023-4.86328-2.88867-9.11328Z"/>
    </g>
  </symbol>
  <symbol id="N4" viewBox="0 0 100 100">
    <circle fill="#e31919" cx="50" cy="50" r="50"/>
    <circle fill="#fff" cx="50" cy="50" r="45"/>
    <path fill="#000" d="M36.95215,40.625V10.625h7.72949l12.66895,20.55762V10.625h5.6582v30h-6.375l-14.06348-23.10742v23.10742h-5.61816Z"/>
    <g>
      <path fill="#000" d="M36.4043,73.75488l13.89453-24.10303h8.11719v22.85791h4.13379v5.3291h-4.13379v9.66113h-6.37402v-9.66113h-15.6377v-4.08398ZM52.04199,72.50977v-15.33887l-8.61621,15.33887h8.61621Z"/>
    </g>
  </symbol>
  <symbol id="N5" viewBox="0 0 100 100">
    <circle fill="#e31919" cx="50" cy="50" r="50"/>
    <circle fill="#fff" cx="50" cy="50" r="45"/>
    <path fill="#000" d="M36.95215,40.625V10.625h7.72949l12.66895,20.55762V10.625h5.6582v30h-6.375l-14.06348-23.10742v23.10742h-5.61816Z"/>
    <g>
      <path fill="#000" d="M37.5,76.34473h7.32031c.23242,2.02539.76367,3.50293,1.59375,4.43164.96289,1.06348,2.1748,1.59375,3.63574,1.59375,1.66016,0,3.02051-.67969,4.08398-2.04199,1.06152-1.36035,1.59375-3.08691,1.59375-5.17871s-.51562-3.76758-1.54395-5.03027c-1.03027-1.26074-2.4082-1.89258-4.13379-1.89258-2.1582,0-4.2334,1.11328-6.22559,3.33691l-5.47754-.09961,1.94238-21.26416h21.06543v6.07471h-15.58789l-.94629,8.11816c2.25781-1.26172,4.43262-1.89258,6.52441-1.89258,3.28711,0,5.96777,1.17871,8.04297,3.53516,2.07422,2.3584,3.1123,5.37891,3.1123,9.06445,0,3.91797-1.1543,7.08887-3.46094,9.51172-2.30859,2.42383-5.30371,3.63574-8.98926,3.63574-4.08398,0-7.30469-1.44434-9.66113-4.33301-.79688-.96191-1.40332-1.9834-1.81836-3.0625-.41504-1.07812-.77148-2.58105-1.07031-4.50684Z"/>
    </g>
  </symbol>
  <symbol id="N6" viewBox="0 0 100 100">
    <circle fill="#e31919" cx="50" cy="50" r="50"/>
    <circle fill="#fff" cx="50" cy="50" r="45"/>
    <path fill="#000" d="M36.95215,40.625V10.625h7.72949l12.66895,20.55762V10.625h5.6582v30h-6.375l-14.06348-23.10742v23.10742h-5.61816Z"/>
    <g>
      <path fill="#000" d="M62.32617,59.61133h-6.67285c-.36621-1.46094-.88086-2.50684-1.54395-3.1377-.66504-.62988-1.61133-.94629-2.83887-.94629-2.39062,0-4.18359,1.27832-5.37891,3.83496-.43164.96289-.87988,2.80566-1.34473,5.52832,2.1582-1.82617,4.53223-2.73926,7.12207-2.73926,3.21973,0,5.80957,1.15332,7.76855,3.46094s2.93848,5.37109,2.93848,9.18848c0,3.98438-1.0957,7.19629-3.28711,9.63672-2.19043,2.44043-5.09668,3.66016-8.71484,3.66016-4.08398,0-7.22949-1.61035-9.4375-4.83105-2.20801-3.21973-3.31152-7.80176-3.31152-13.74512,0-6.34082,1.18652-11.23047,3.56055-14.66602,2.37305-3.43652,5.76855-5.15381,10.18457-5.15381,3.45215,0,6.1416,1.0625,8.06738,3.18604.73047.79688,1.30273,1.67676,1.71875,2.63965.41406.96387.80469,2.32422,1.16992,4.08398ZM50.42383,67.87793c-1.62695,0-2.96289.66504-4.00879,1.99219-1.0459,1.32812-1.56934,3.00586-1.56934,5.03027,0,2.02539.51465,3.68555,1.54395,4.98047,1.0293,1.29395,2.34082,1.94141,3.93457,1.94141,1.66016,0,2.97949-.64746,3.95898-1.94141.97949-1.29492,1.46973-3.00488,1.46973-5.12988,0-2.02441-.49805-3.67676-1.49414-4.95508s-2.27441-1.91797-3.83496-1.91797Z"/>
    </g>
  </symbol>
  <symbol id="N7" viewBox="0 0 100 100">
    <circle fill="#e31919" cx="50" cy="50" r="50"/>
    <circle fill="#fff" cx="50" cy="50" r="45"/>
    <path fill="#000" d="M36.95215,40.625V10.625h7.72949l12.66895,20.55762V10.625h5.6582v30h-6.375l-14.06348-23.10742v23.10742h-5.61816Z"/>
    <g>
      <path fill="#000" d="M61.4541,50.1499v5.17822l-11.90234,32.17188h-7.27051l12.35059-31.47461h-17.43066v-5.87549h24.25293Z"/>
    </g>
  </symbol>
  <symbol id="N8" viewBox="0 0 100 100">
    <circle fill="#e31919" cx="50" cy="50" r="50"/>
    <circle fill="#fff" cx="50" cy="50" r="45"/>
    <path fill="#000" d="M36.95215,40.625V10.625h7.72949l12.66895,20.55762V10.625h5.6582v30h-6.375l-14.06348-23.10742v23.10742h-5.61816Z"/>
    <g>
      <path fill="#000" d="M42.87793,67.72852c-1.69238-1.02832-2.90527-2.17383-3.63477-3.43555-.73145-1.26172-1.0957-2.80566-1.0957-4.63184,0-3.05469,1.07812-5.48633,3.2373-7.2959,2.15723-1.80908,5.0791-2.71338,8.76465-2.71338,3.58594,0,6.43164.89551,8.54102,2.68799,2.10742,1.79297,3.16211,4.2168,3.16211,7.27148,0,1.89258-.46484,3.63574-1.39453,5.22949-.66406,1.09473-1.72656,2.09082-3.1875,2.9873,1.79297.93066,3.07129,1.99219,3.83496,3.1875.99609,1.56152,1.49414,3.41992,1.49414,5.57812,0,3.48633-1.1543,6.2666-3.46094,8.3418-2.30859,2.0752-5.4209,3.1123-9.33789,3.1123-3.71875,0-6.71582-1.02832-8.98926-3.08789-2.27441-2.05762-3.41113-4.78125-3.41113-8.16699,0-2.1582.49805-4.03418,1.49414-5.62793.79688-1.26172,2.12402-2.40625,3.9834-3.43652ZM54.45703,72.38574c-1.14551-1.0459-2.64746-1.56934-4.50684-1.56934s-3.3291.51562-4.40723,1.54395c-1.0791,1.0293-1.61914,2.42383-1.61914,4.18359,0,1.79297.51465,3.1875,1.54395,4.18262,1.0293.99609,2.47363,1.49414,4.33301,1.49414,1.99219,0,3.55176-.51367,4.68164-1.54395,1.12793-1.02832,1.69336-2.43945,1.69336-4.23242,0-1.66016-.57324-3.01367-1.71875-4.05859ZM50.0498,55.37793c-1.66016,0-2.98828.43164-3.98438,1.29492-.99609.86426-1.49414,2.02539-1.49414,3.48633s.48145,2.61426,1.44434,3.46094,2.27441,1.27051,3.93457,1.27051c1.72559,0,3.0791-.42383,4.05859-1.27051s1.46973-2,1.46973-3.46094c0-1.49414-.48242-2.66406-1.44434-3.51074-.96387-.84668-2.29102-1.27051-3.98438-1.27051Z"/>
    </g>
  </symbol>
  <symbol id="N9" viewBox="0 0 100 100">
    <circle fill="#e31919" cx="50" cy="50" r="50"/>
    <circle fill="#fff" cx="50" cy="50" r="45"/>
    <path fill="#000" d="M36.95215,40.625V10.625h7.72949l12.66895,20.55762V10.625h5.6582v30h-6.375l-14.06348-23.10742v23.10742h-5.61816Z"/>
    <g>
      <path fill="#000" d="M37.625,78.1875h6.72266c.33203,1.42773.83887,2.46484,1.51953,3.1123.67969.64746,1.63477.9707,2.86328.9707,2.42285,0,4.2002-1.26074,5.3291-3.78418.49805-1.0625.96191-2.92188,1.39453-5.57812-2.15918,1.82617-4.5498,2.73926-7.17188,2.73926-3.1875,0-5.76074-1.15332-7.71875-3.46094-1.95996-2.30762-2.93848-5.33691-2.93848-9.08887,0-4.01758,1.0957-7.25391,3.28711-9.71191,2.19043-2.45557,5.0791-3.68408,8.66504-3.68408,4.11621,0,7.27832,1.60986,9.4873,4.82959,2.20703,3.2207,3.31152,7.81934,3.31152,13.79492,0,6.30859-1.1875,11.18066-3.56055,14.61719-2.37402,3.43652-5.73633,5.1543-10.08496,5.1543-3.55273,0-6.29199-1.0625-8.2168-3.1875-.73145-.79688-1.30371-1.67578-1.71875-2.63965-.41504-.96191-.80469-2.32324-1.16992-4.08301ZM49.67676,55.97559c-1.66016,0-2.98047.64746-3.95898,1.94238-.97949,1.29492-1.46973,3.02148-1.46973,5.17969,0,2.02539.49023,3.66895,1.46973,4.92969.97852,1.2627,2.24902,1.89258,3.80957,1.89258,1.62598,0,2.9707-.65527,4.03418-1.9668,1.06152-1.31152,1.59375-2.99609,1.59375-5.05469,0-2.02539-.51562-3.68555-1.54395-4.98047-1.0293-1.29492-2.34082-1.94238-3.93457-1.94238Z"/>
    </g>
  </symbol>
  <symbol id="N10" viewBox="0 0 100 100">
    <circle fill="#e31919" cx="50" cy="50" r="50"/>
    <circle fill="#fff" cx="50" cy="50" r="45"/>
    <path fill="#000" d="M36.95215,40.625V10.625h7.72949l12.66895,20.55762V10.625h5.6582v30h-6.375l-14.06348-23.10742v23.10742h-5.61816Z"/>
    <g>
      <path fill="#000" d="M32.81836,49.80127h5.62793v37.69873h-7.37109v-28.48633h-8.36621v-4.53223c2.85449-.03223,4.98828-.37305,6.39941-1.02051s2.64746-1.86816,3.70996-3.65967Z"/>
      <path fill="#000" d="M63.84473,49.70166c3.85059,0,6.83008,1.67627,8.93945,5.02881,2.10742,3.35449,3.16211,8.10156,3.16211,14.24316,0,6.10938-1.0791,10.81543-3.2373,14.11914s-5.21289,4.95508-9.16309,4.95508c-3.85156,0-7.00586-1.51074-9.46191-4.53223-2.22559-2.78906-3.33691-7.63574-3.33691-14.54199,0-6.97168,1.16113-11.90234,3.48633-14.79102,1.09473-1.42676,2.48145-2.53125,4.1582-3.31104,1.67578-.7793,3.49414-1.16992,5.45312-1.16992ZM63.49609,55.82617c-4.18359,0-6.27539,4.44922-6.27539,13.34668,0,4.44922.49023,7.67773,1.46973,9.68652.97852,2.00879,2.54785,3.0127,4.70605,3.0127,2.0918,0,3.62695-1.07031,4.60645-3.21191s1.46973-5.48633,1.46973-10.03516c0-8.53223-1.99219-12.79883-5.97656-12.79883Z"/>
    </g>
  </symbol>
  <symbol id="N11" viewBox="0 0 100 100">
    <circle fill="#e31919" cx="50" cy="50" r="50"/>
    <circle fill="#fff" cx="50" cy="50" r="45"/>
    <path fill="#000" d="M36.95215,40.625V10.625h7.72949l12.66895,20.55762V10.625h5.6582v30h-6.375l-14.06348-23.10742v23.10742h-5.61816Z"/>
    <g>
      <path fill="#000" d="M35.05957,49.80127h5.62793v37.69873h-7.37109v-28.48633h-8.36621v-4.53223c2.85449-.03223,4.98828-.37305,6.39941-1.02051s2.64746-1.86816,3.70996-3.65967Z"/>
      <path fill="#000" d="M61.75293,49.80127h5.62793v37.69873h-7.37109v-28.48633h-8.36621v-4.53223c2.85449-.03223,4.98828-.37305,6.39941-1.02051s2.64746-1.86816,3.70996-3.65967Z"/>
    </g>
  </symbol>
  <symbol id="N12" viewBox="0 0 100 100">
    <circle fill="#e31919" cx="50" cy="50" r="50"/>
    <circle fill="#fff" cx="50" cy="50" r="45"/>
    <path fill="#000" d="M36.95215,40.625V10.625h7.72949l12.66895,20.55762V10.625h5.6582v30h-6.375l-14.06348-23.10742v23.10742h-5.61816Z"/>
    <g>
      <path fill="#000" d="M33.0918,49.80127h5.62793v37.69873h-7.37109v-28.48633h-8.36621v-4.53223c2.85449-.03223,4.98828-.37305,6.39941-1.02051s2.64746-1.86816,3.70996-3.65967Z"/>
      <path fill="#000" d="M58.44043,62.99805h-7.07129c.33105-2.55664.75488-4.55762,1.26953-6.00098.51465-1.44434,1.25293-2.73047,2.2168-3.86035,2.19043-2.45557,5.22852-3.68408,9.11328-3.68408,3.51855,0,6.34961,1.0625,8.49121,3.18604,2.1416,2.125,3.21191,4.93066,3.21191,8.41699,0,3.38672-1.21191,6.45801-3.63574,9.21289-.86328.96387-1.63574,1.76074-2.31543,2.39062-.68066.63086-2.64844,2.32422-5.90137,5.08008-1.0293.86328-2.40723,2.1416-4.13379,3.83398h15.7373v5.92676h-24.40234v-5.2793c1.26074-1.65918,2.41504-3.03711,3.46094-4.13281s2.96289-2.90527,5.75195-5.42871c3.21973-2.9209,5.21191-4.83105,5.97656-5.72754,1.75879-1.8916,2.63965-3.9668,2.63965-6.22461,0-1.62695-.42383-2.89648-1.27051-3.80957s-2.03418-1.37012-3.56055-1.37012c-1.79297,0-3.1123.57324-3.95898,1.71875-.84668,1.14453-1.38672,3.0625-1.61914,5.75195Z"/>
    </g>
  </symbol>
  <symbol id="N13" viewBox="0 0 100 100">
    <circle fill="#e31919" cx="50" cy="50" r="50"/>
    <circle fill="#fff" cx="50" cy="50" r="45"/>
    <path fill="#000" d="M36.95215,40.625V10.625h7.72949l12.66895,20.55762V10.625h5.6582v30h-6.375l-14.06348-23.10742v23.10742h-5.61816Z"/>
    <g>
      <path fill="#000" d="M32.59375,49.80127h5.62793v37.69873h-7.37109v-28.48633h-8.36621v-4.53223c2.85449-.03223,4.98828-.37305,6.39941-1.02051s2.64746-1.86816,3.70996-3.65967Z"/>
      <path fill="#000" d="M50.52246,74.90039h7.12109c0,1.69336.13281,2.95508.39844,3.78516.76367,2.19043,2.50684,3.28613,5.22949,3.28613,1.79297,0,3.26953-.56348,4.43262-1.69336,1.16113-1.12793,1.74316-2.55566,1.74316-4.28223,0-2.22461-.96387-3.78516-2.88867-4.68164-1.06348-.53027-2.73926-.79688-5.03027-.79688h-1.39453v-5.37793h1.29492c2.25781,0,3.99219-.42383,5.2041-1.27051s1.81836-2.06641,1.81836-3.66016c0-1.46094-.49023-2.66406-1.46973-3.61035s-2.21582-1.41992-3.70996-1.41992c-1.75977,0-3.03809.68066-3.83496,2.04199-.49805.83008-.81348,2.1748-.94629,4.03418h-7.1709c.26465-2.05859.58887-3.66016.9707-4.80566s.97168-2.19922,1.76855-3.16309c2.09082-2.55518,5.12891-3.8335,9.11328-3.8335,3.55176,0,6.44043.9541,8.66504,2.86279,2.22461,1.90918,3.33691,4.39062,3.33691,7.44531,0,2.0918-.53125,3.90137-1.59375,5.42871-.63086.89551-1.66016,1.72656-3.08789,2.48926,1.72656.83105,2.98828,1.72656,3.78516,2.68945,1.26172,1.52734,1.89258,3.48633,1.89258,5.87695,0,3.41992-1.25391,6.2168-3.75977,8.3916-2.50781,2.1748-5.73633,3.26172-9.68652,3.26172-4.18359,0-7.28809-1.29492-9.3125-3.88477-1.52832-1.8252-2.49023-4.86328-2.88867-9.11328Z"/>
    </g>
  </symbol>
  <symbol id="N14" viewBox="0 0 100 100">
    <circle fill="#e31919" cx="50" cy="50" r="50"/>
    <circle fill="#fff" cx="50" cy="50" r="45"/>
    <path fill="#000" d="M36.95215,40.625V10.625h7.72949l12.66895,20.55762V10.625h5.6582v30h-6.375l-14.06348-23.10742v23.10742h-5.61816Z"/>
    <g>
      <path d="M33.16699,49.80127h5.62793v37.69873h-7.37109v-28.48633h-8.36621v-4.53223c2.85449-.03223,4.98828-.37305,6.39941-1.02051s2.64746-1.86816,3.70996-3.65967Z"/>
      <path d="M49.75098,73.75488l13.89453-24.10303h8.11719v22.85791h4.13379v5.3291h-4.13379v9.66113h-6.37402v-9.66113h-15.6377v-4.08398ZM65.38867,72.50977v-15.33887l-8.61621,15.33887h8.61621Z"/>
    </g>
  </symbol>
  <symbol id="N15" viewBox="0 0 100 100">
    <circle fill="#e31919" cx="50" cy="50" r="50"/>
    <circle fill="#fff" cx="50" cy="50" r="45"/>
    <path fill="#000" d="M36.95215,40.625V10.625h7.72949l12.66895,20.55762V10.625h5.6582v30h-6.375l-14.06348-23.10742v23.10742h-5.61816Z"/>
    <g>
      <path d="M32.91797,49.80127h5.62793v37.69873h-7.37109v-28.48633h-8.36621v-4.53223c2.85449-.03223,4.98828-.37305,6.39941-1.02051s2.64746-1.86816,3.70996-3.65967Z"/>
      <path d="M50.84668,76.34473h7.32031c.23242,2.02539.76367,3.50293,1.59375,4.43164.96289,1.06348,2.1748,1.59375,3.63574,1.59375,1.66016,0,3.02051-.67969,4.08398-2.04199,1.06152-1.36035,1.59375-3.08691,1.59375-5.17871s-.51562-3.76758-1.54395-5.03027c-1.03027-1.26074-2.4082-1.89258-4.13379-1.89258-2.1582,0-4.2334,1.11328-6.22559,3.33691l-5.47754-.09961,1.94238-21.26416h21.06543v6.07471h-15.58789l-.94629,8.11816c2.25781-1.26172,4.43262-1.89258,6.52441-1.89258,3.28711,0,5.96777,1.17871,8.04297,3.53516,2.07422,2.3584,3.1123,5.37891,3.1123,9.06445,0,3.91797-1.1543,7.08887-3.46094,9.51172-2.30859,2.42383-5.30371,3.63574-8.98926,3.63574-4.08398,0-7.30469-1.44434-9.66113-4.33301-.79688-.96191-1.40332-1.9834-1.81836-3.0625-.41504-1.07812-.77148-2.58105-1.07031-4.50684Z"/>
    </g>
  </symbol>
  <symbol id="N16" viewBox="0 0 100 100">
    <circle fill="#e31919" cx="50" cy="50" r="50"/>
    <circle fill="#fff" cx="50" cy="50" r="45"/>
    <path fill="#000" d="M36.95215,40.625V10.625h7.72949l12.66895,20.55762V10.625h5.6582v30h-6.375l-14.06348-23.10742v23.10742h-5.61816Z"/>
    <g>
      <path d="M33.04199,49.80127h5.62793v37.69873h-7.37109v-28.48633h-8.36621v-4.53223c2.85449-.03223,4.98828-.37305,6.39941-1.02051s2.64746-1.86816,3.70996-3.65967Z"/>
      <path d="M75.67188,59.61133h-6.67285c-.36621-1.46094-.88086-2.50684-1.54395-3.1377-.66504-.62988-1.61133-.94629-2.83887-.94629-2.39062,0-4.18359,1.27832-5.37891,3.83496-.43164.96289-.87988,2.80566-1.34473,5.52832,2.1582-1.82617,4.53223-2.73926,7.12207-2.73926,3.21973,0,5.80957,1.15332,7.76855,3.46094s2.93848,5.37109,2.93848,9.18848c0,3.98438-1.0957,7.19629-3.28711,9.63672-2.19043,2.44043-5.09668,3.66016-8.71484,3.66016-4.08398,0-7.22949-1.61035-9.4375-4.83105-2.20801-3.21973-3.31152-7.80176-3.31152-13.74512,0-6.34082,1.18652-11.23047,3.56055-14.66602,2.37305-3.43652,5.76855-5.15381,10.18457-5.15381,3.45215,0,6.1416,1.0625,8.06738,3.18604.73047.79688,1.30273,1.67676,1.71875,2.63965.41406.96387.80469,2.32422,1.16992,4.08398ZM63.76953,67.87793c-1.62695,0-2.96289.66504-4.00879,1.99219-1.0459,1.32812-1.56934,3.00586-1.56934,5.03027,0,2.02539.51465,3.68555,1.54395,4.98047,1.0293,1.29395,2.34082,1.94141,3.93457,1.94141,1.66016,0,2.97949-.64746,3.95898-1.94141.97949-1.29492,1.46973-3.00488,1.46973-5.12988,0-2.02441-.49805-3.67676-1.49414-4.95508s-2.27441-1.91797-3.83496-1.91797Z"/>
    </g>
  </symbol>
  <symbol id="N17" viewBox="0 0 100 100">
    <circle fill="#e31919" cx="50" cy="50" r="50"/>
    <circle fill="#fff" cx="50" cy="50" r="45"/>
    <path fill="#000" d="M36.95215,40.625V10.625h7.72949l12.66895,20.55762V10.625h5.6582v30h-6.375l-14.06348-23.10742v23.10742h-5.61816Z"/>
    <g>
      <path d="M33.96387,49.80127h5.62793v37.69873h-7.37109v-28.48633h-8.36621v-4.53223c2.85449-.03223,4.98828-.37305,6.39941-1.02051s2.64746-1.86816,3.70996-3.65967Z"/>
      <path d="M74.80078,50.1499v5.17822l-11.90234,32.17188h-7.27051l12.35059-31.47461h-17.43066v-5.87549h24.25293Z"/>
    </g>
  </symbol>
  <symbol id="N18" viewBox="0 0 100 100">
    <circle fill="#e31919" cx="50" cy="50" r="50"/>
    <circle fill="#fff" cx="50" cy="50" r="45"/>
    <path fill="#000" d="M36.95215,40.625V10.625h7.72949l12.66895,20.55762V10.625h5.6582v30h-6.375l-14.06348-23.10742v23.10742h-5.61816Z"/>
    <g>
      <path d="M32.81836,49.80127h5.62793v37.69873h-7.37109v-28.48633h-8.36621v-4.53223c2.85449-.03223,4.98828-.37305,6.39941-1.02051s2.64746-1.86816,3.70996-3.65967Z"/>
      <path d="M56.22461,67.72852c-1.69238-1.02832-2.90527-2.17383-3.63477-3.43555-.73145-1.26172-1.0957-2.80566-1.0957-4.63184,0-3.05469,1.07812-5.48633,3.2373-7.2959,2.15723-1.80908,5.0791-2.71338,8.76465-2.71338,3.58594,0,6.43164.89551,8.54102,2.68799,2.10742,1.79297,3.16211,4.2168,3.16211,7.27148,0,1.89258-.46484,3.63574-1.39453,5.22949-.66406,1.09473-1.72656,2.09082-3.1875,2.9873,1.79297.93066,3.07129,1.99219,3.83496,3.1875.99609,1.56152,1.49414,3.41992,1.49414,5.57812,0,3.48633-1.1543,6.2666-3.46094,8.3418-2.30859,2.0752-5.4209,3.1123-9.33789,3.1123-3.71875,0-6.71582-1.02832-8.98926-3.08789-2.27441-2.05762-3.41113-4.78125-3.41113-8.16699,0-2.1582.49805-4.03418,1.49414-5.62793.79688-1.26172,2.12402-2.40625,3.9834-3.43652ZM67.80371,72.38574c-1.14551-1.0459-2.64746-1.56934-4.50684-1.56934s-3.3291.51562-4.40723,1.54395c-1.0791,1.0293-1.61914,2.42383-1.61914,4.18359,0,1.79297.51465,3.1875,1.54395,4.18262,1.0293.99609,2.47363,1.49414,4.33301,1.49414,1.99219,0,3.55176-.51367,4.68164-1.54395,1.12793-1.02832,1.69336-2.43945,1.69336-4.23242,0-1.66016-.57324-3.01367-1.71875-4.05859ZM63.39648,55.37793c-1.66016,0-2.98828.43164-3.98438,1.29492-.99609.86426-1.49414,2.02539-1.49414,3.48633s.48145,2.61426,1.44434,3.46094,2.27441,1.27051,3.93457,1.27051c1.72559,0,3.0791-.42383,4.05859-1.27051s1.46973-2,1.46973-3.46094c0-1.49414-.48242-2.66406-1.44434-3.51074-.96387-.84668-2.29102-1.27051-3.98438-1.27051Z"/>
    </g>
  </symbol>
  <symbol id="N19" viewBox="0 0 100 100">
    <circle fill="#e31919" cx="50" cy="50" r="50"/>
    <circle fill="#fff" cx="50" cy="50" r="45"/>
    <path fill="#000" d="M36.95215,40.625V10.625h7.72949l12.66895,20.55762V10.625h5.6582v30h-6.375l-14.06348-23.10742v23.10742h-5.61816Z"/>
    <g>
      <path d="M33.04199,49.80127h5.62793v37.69873h-7.37109v-28.48633h-8.36621v-4.53223c2.85449-.03223,4.98828-.37305,6.39941-1.02051s2.64746-1.86816,3.70996-3.65967Z"/>
      <path d="M50.9707,78.1875h6.72266c.33203,1.42773.83887,2.46484,1.51953,3.1123.67969.64746,1.63477.9707,2.86328.9707,2.42285,0,4.2002-1.26074,5.3291-3.78418.49805-1.0625.96191-2.92188,1.39453-5.57812-2.15918,1.82617-4.5498,2.73926-7.17188,2.73926-3.1875,0-5.76074-1.15332-7.71875-3.46094-1.95996-2.30762-2.93848-5.33691-2.93848-9.08887,0-4.01758,1.0957-7.25391,3.28711-9.71191,2.19043-2.45557,5.0791-3.68408,8.66504-3.68408,4.11621,0,7.27832,1.60986,9.4873,4.82959,2.20703,3.2207,3.31152,7.81934,3.31152,13.79492,0,6.30859-1.1875,11.18066-3.56055,14.61719-2.37402,3.43652-5.73633,5.1543-10.08496,5.1543-3.55273,0-6.29199-1.0625-8.2168-3.1875-.73145-.79688-1.30371-1.67578-1.71875-2.63965-.41504-.96191-.80469-2.32324-1.16992-4.08301ZM63.02246,55.97559c-1.66016,0-2.98047.64746-3.95898,1.94238-.97949,1.29492-1.46973,3.02148-1.46973,5.17969,0,2.02539.49023,3.66895,1.46973,4.92969.97852,1.2627,2.24902,1.89258,3.80957,1.89258,1.62598,0,2.9707-.65527,4.03418-1.9668,1.06152-1.31152,1.59375-2.99609,1.59375-5.05469,0-2.02539-.51562-3.68555-1.54395-4.98047-1.0293-1.29492-2.34082-1.94238-3.93457-1.94238Z"/>
    </g>
  </symbol>
  <symbol id="N20" viewBox="0 0 100 100">
    <circle fill="#e31919" cx="50" cy="50" r="50"/>
    <circle fill="#fff" cx="50" cy="50" r="45"/>
    <path fill="#000" d="M36.95215,40.625V10.625h7.72949l12.66895,20.55762V10.625h5.6582v30h-6.375l-14.06348-23.10742v23.10742h-5.61816Z"/>
    <g>
      <path d="M29.50684,60.49805h-7.07129c.33105-2.55664.75488-4.55762,1.26953-6.00098.51465-1.44434,1.25293-2.73047,2.2168-3.85986,2.19043-2.45605,5.22852-3.68457,9.11328-3.68457,3.51855,0,6.34961,1.0625,8.49121,3.18652,2.1416,2.12451,3.21191,4.93018,3.21191,8.4165,0,3.38672-1.21191,6.45801-3.63574,9.21289-.86328.96387-1.63574,1.76074-2.31543,2.39062-.68066.63086-2.64844,2.32422-5.90137,5.08008-1.0293.86328-2.40723,2.1416-4.13379,3.83398h15.7373v5.92676h-24.40234v-5.2793c1.26074-1.65918,2.41504-3.03711,3.46094-4.13281s2.96289-2.90527,5.75195-5.42871c3.21973-2.9209,5.21191-4.83105,5.97656-5.72754,1.75879-1.8916,2.63965-3.9668,2.63965-6.22461,0-1.62695-.42383-2.89648-1.27051-3.80957s-2.03418-1.37012-3.56055-1.37012c-1.79297,0-3.1123.57324-3.95898,1.71875-.84668,1.14453-1.38672,3.0625-1.61914,5.75195Z"/>
      <path d="M65.8125,47.20166c3.85059,0,6.83008,1.67676,8.93945,5.02881,2.10742,3.35449,3.16211,8.10156,3.16211,14.24316,0,6.10938-1.0791,10.81543-3.2373,14.11914s-5.21289,4.95508-9.16309,4.95508c-3.85156,0-7.00586-1.51074-9.46191-4.53223-2.22559-2.78906-3.33691-7.63574-3.33691-14.54199,0-6.97168,1.16113-11.90234,3.48633-14.79102,1.09473-1.42627,2.48145-2.53076,4.1582-3.31104,1.67578-.7793,3.49414-1.16992,5.45312-1.16992ZM65.46387,53.32617c-4.18359,0-6.27539,4.44922-6.27539,13.34668,0,4.44922.49023,7.67773,1.46973,9.68652.97852,2.00879,2.54785,3.0127,4.70605,3.0127,2.0918,0,3.62695-1.07031,4.60645-3.21191s1.46973-5.48633,1.46973-10.03516c0-8.53223-1.99219-12.79883-5.97656-12.79883Z"/>
    </g>
  </symbol>
  <symbol id="N21" viewBox="0 0 100 100">
    <circle fill="#e31919" cx="50" cy="50" r="50"/>
    <circle fill="#fff" cx="50" cy="50" r="45"/>
    <path fill="#000" d="M36.95215,40.625V10.625h7.72949l12.66895,20.55762V10.625h5.6582v30h-6.375l-14.06348-23.10742v23.10742h-5.61816Z"/>
    <g>
      <path d="M31.74707,60.49805h-7.07129c.33105-2.55664.75488-4.55762,1.26953-6.00098.51465-1.44434,1.25293-2.73047,2.2168-3.85986,2.19043-2.45605,5.22852-3.68457,9.11328-3.68457,3.51855,0,6.34961,1.0625,8.49121,3.18652,2.1416,2.12451,3.21191,4.93018,3.21191,8.4165,0,3.38672-1.21191,6.45801-3.63574,9.21289-.86328.96387-1.63574,1.76074-2.31543,2.39062-.68066.63086-2.64844,2.32422-5.90137,5.08008-1.0293.86328-2.40723,2.1416-4.13379,3.83398h15.7373v5.92676h-24.40234v-5.2793c1.26074-1.65918,2.41504-3.03711,3.46094-4.13281s2.96289-2.90527,5.75195-5.42871c3.21973-2.9209,5.21191-4.83105,5.97656-5.72754,1.75879-1.8916,2.63965-3.9668,2.63965-6.22461,0-1.62695-.42383-2.89648-1.27051-3.80957s-2.03418-1.37012-3.56055-1.37012c-1.79297,0-3.1123.57324-3.95898,1.71875-.84668,1.14453-1.38672,3.0625-1.61914,5.75195Z"/>
      <path d="M63.71973,47.30127h5.62793v37.69873h-7.37109v-28.48633h-8.36621v-4.53223c2.85449-.03223,4.98828-.37305,6.39941-1.02002,1.41113-.64746,2.64746-1.86816,3.70996-3.66016Z"/>
    </g>
  </symbol>
  <symbol id="N22" viewBox="0 0 100 100">
    <circle fill="#e31919" cx="50" cy="50" r="50"/>
    <circle fill="#fff" cx="50" cy="50" r="45"/>
    <path fill="#000" d="M36.95215,40.625V10.625h7.72949l12.66895,20.55762V10.625h5.6582v30h-6.375l-14.06348-23.10742v23.10742h-5.61816Z"/>
    <g>
      <path d="M29.78027,60.49805h-7.07129c.33105-2.55664.75488-4.55762,1.26953-6.00098.51465-1.44434,1.25293-2.73047,2.2168-3.85986,2.19043-2.45605,5.22852-3.68457,9.11328-3.68457,3.51855,0,6.34961,1.0625,8.49121,3.18652,2.1416,2.12451,3.21191,4.93018,3.21191,8.4165,0,3.38672-1.21191,6.45801-3.63574,9.21289-.86328.96387-1.63574,1.76074-2.31543,2.39062-.68066.63086-2.64844,2.32422-5.90137,5.08008-1.0293.86328-2.40723,2.1416-4.13379,3.83398h15.7373v5.92676h-24.40234v-5.2793c1.26074-1.65918,2.41504-3.03711,3.46094-4.13281s2.96289-2.90527,5.75195-5.42871c3.21973-2.9209,5.21191-4.83105,5.97656-5.72754,1.75879-1.8916,2.63965-3.9668,2.63965-6.22461,0-1.62695-.42383-2.89648-1.27051-3.80957s-2.03418-1.37012-3.56055-1.37012c-1.79297,0-3.1123.57324-3.95898,1.71875-.84668,1.14453-1.38672,3.0625-1.61914,5.75195Z"/>
      <path d="M60.4082,60.49805h-7.07129c.33105-2.55664.75488-4.55762,1.26953-6.00098.51465-1.44434,1.25293-2.73047,2.2168-3.85986,2.19043-2.45605,5.22852-3.68457,9.11328-3.68457,3.51855,0,6.34961,1.0625,8.49121,3.18652,2.1416,2.12451,3.21191,4.93018,3.21191,8.4165,0,3.38672-1.21191,6.45801-3.63574,9.21289-.86328.96387-1.63574,1.76074-2.31543,2.39062-.68066.63086-2.64844,2.32422-5.90137,5.08008-1.0293.86328-2.40723,2.1416-4.13379,3.83398h15.7373v5.92676h-24.40234v-5.2793c1.26074-1.65918,2.41504-3.03711,3.46094-4.13281s2.96289-2.90527,5.75195-5.42871c3.21973-2.9209,5.21191-4.83105,5.97656-5.72754,1.75879-1.8916,2.63965-3.9668,2.63965-6.22461,0-1.62695-.42383-2.89648-1.27051-3.80957s-2.03418-1.37012-3.56055-1.37012c-1.79297,0-3.1123.57324-3.95898,1.71875-.84668,1.14453-1.38672,3.0625-1.61914,5.75195Z"/>
    </g>
  </symbol>
  <symbol id="N23" viewBox="0 0 100 100">
    <circle fill="#e31919" cx="50" cy="50" r="50"/>
    <circle fill="#fff" cx="50" cy="50" r="45"/>
    <path fill="#000" d="M36.95215,40.625V10.625h7.72949l12.66895,20.55762V10.625h5.6582v30h-6.375l-14.06348-23.10742v23.10742h-5.61816Z"/>
    <g>
      <path d="M29.28223,60.49805h-7.07129c.33105-2.55664.75488-4.55762,1.26953-6.00098.51465-1.44434,1.25293-2.73047,2.2168-3.85986,2.19043-2.45605,5.22852-3.68457,9.11328-3.68457,3.51855,0,6.34961,1.0625,8.49121,3.18652,2.1416,2.12451,3.21191,4.93018,3.21191,8.4165,0,3.38672-1.21191,6.45801-3.63574,9.21289-.86328.96387-1.63574,1.76074-2.31543,2.39062-.68066.63086-2.64844,2.32422-5.90137,5.08008-1.0293.86328-2.40723,2.1416-4.13379,3.83398h15.7373v5.92676h-24.40234v-5.2793c1.26074-1.65918,2.41504-3.03711,3.46094-4.13281s2.96289-2.90527,5.75195-5.42871c3.21973-2.9209,5.21191-4.83105,5.97656-5.72754,1.75879-1.8916,2.63965-3.9668,2.63965-6.22461,0-1.62695-.42383-2.89648-1.27051-3.80957s-2.03418-1.37012-3.56055-1.37012c-1.79297,0-3.1123.57324-3.95898,1.71875-.84668,1.14453-1.38672,3.0625-1.61914,5.75195Z"/>
      <path d="M52.49023,72.40039h7.12109c0,1.69336.13281,2.95508.39844,3.78516.76367,2.19043,2.50684,3.28613,5.22949,3.28613,1.79297,0,3.26953-.56348,4.43262-1.69336,1.16113-1.12793,1.74316-2.55566,1.74316-4.28223,0-2.22461-.96387-3.78516-2.88867-4.68164-1.06348-.53027-2.73926-.79688-5.03027-.79688h-1.39453v-5.37793h1.29492c2.25781,0,3.99219-.42383,5.2041-1.27051s1.81836-2.06641,1.81836-3.66016c0-1.46094-.49023-2.66406-1.46973-3.61035s-2.21582-1.41992-3.70996-1.41992c-1.75977,0-3.03809.68066-3.83496,2.04199-.49805.83008-.81348,2.1748-.94629,4.03418h-7.1709c.26465-2.05859.58887-3.66016.9707-4.80566s.97168-2.19922,1.76855-3.1626c2.09082-2.55566,5.12891-3.83398,9.11328-3.83398,3.55176,0,6.44043.9541,8.66504,2.86328,2.22461,1.90869,3.33691,4.39014,3.33691,7.44482,0,2.0918-.53125,3.90137-1.59375,5.42871-.63086.89551-1.66016,1.72656-3.08789,2.48926,1.72656.83105,2.98828,1.72656,3.78516,2.68945,1.26172,1.52734,1.89258,3.48633,1.89258,5.87695,0,3.41992-1.25391,6.2168-3.75977,8.3916-2.50781,2.1748-5.73633,3.26172-9.68652,3.26172-4.18359,0-7.28809-1.29492-9.3125-3.88477-1.52832-1.8252-2.49023-4.86328-2.88867-9.11328Z"/>
    </g>
  </symbol>
  <symbol id="N24" viewBox="0 0 100 100">
    <circle fill="#e31919" cx="50" cy="50" r="50"/>
    <circle fill="#fff" cx="50" cy="50" r="45"/>
    <path fill="#000" d="M36.95215,40.625V10.625h7.72949l12.66895,20.55762V10.625h5.6582v30h-6.375l-14.06348-23.10742v23.10742h-5.61816Z"/>
    <g>
      <path d="M29.85547,60.49805h-7.07129c.33105-2.55664.75488-4.55762,1.26953-6.00098.51465-1.44434,1.25293-2.73047,2.2168-3.85986,2.19043-2.45605,5.22852-3.68457,9.11328-3.68457,3.51855,0,6.34961,1.0625,8.49121,3.18652,2.1416,2.12451,3.21191,4.93018,3.21191,8.4165,0,3.38672-1.21191,6.45801-3.63574,9.21289-.86328.96387-1.63574,1.76074-2.31543,2.39062-.68066.63086-2.64844,2.32422-5.90137,5.08008-1.0293.86328-2.40723,2.1416-4.13379,3.83398h15.7373v5.92676h-24.40234v-5.2793c1.26074-1.65918,2.41504-3.03711,3.46094-4.13281s2.96289-2.90527,5.75195-5.42871c3.21973-2.9209,5.21191-4.83105,5.97656-5.72754,1.75879-1.8916,2.63965-3.9668,2.63965-6.22461,0-1.62695-.42383-2.89648-1.27051-3.80957s-2.03418-1.37012-3.56055-1.37012c-1.79297,0-3.1123.57324-3.95898,1.71875-.84668,1.14453-1.38672,3.0625-1.61914,5.75195Z"/>
      <path d="M51.71875,71.25488l13.89453-24.10303h8.11719v22.85791h4.13379v5.3291h-4.13379v9.66113h-6.37402v-9.66113h-15.6377v-4.08398ZM67.35645,70.00977v-15.33887l-8.61621,15.33887h8.61621Z"/>
    </g>
  </symbol>
</svg>