<?xml version="1.0" encoding="UTF-8"?>
<svg xmlns="http://www.w3.org/2000/svg" xmlns:xlink="http://www.w3.org/1999/xlink">
  <!-- DIC-2492 -->
  <symbol id="S" viewBox="0 0 212 185">
    <path fill="#fff" d="M176.66693,185c21.68304-19.40918,35.33307-47.60864,35.33307-79C212,47.45782,164.54218,0,106,0S0,47.45782,0,106c0,31.39136,13.65002,59.59082,35.33307,79l3-3,135.33383-.00004,3.00004,3.00004Z"/>
    <path fill="#c92f44" d="M106,0C47.45782,0,0,47.45782,0,106c0,31.39136,13.65002,59.59082,35.33307,79l24.01501-24.01501c-15.57739-13.2298-25.47308-32.94666-25.47308-54.98499,0-39.83356,32.29144-72.125,72.125-72.125s72.125,32.29144,72.125,72.125c0,22.03833-9.89569,41.75519-25.47308,54.98499l24.01501,24.01501c21.68304-19.40918,35.33307-47.60864,35.33307-79C212,47.45782,164.54218,0,106,0Z"/>
    <path fill="#231815" d="M82.41504,122.82812c4.79102,2.57129,12.31641,5.02441,20.05273,5.02441,8.30762,0,12.71191-3.44922,12.71191-8.71387,0-4.91309-3.81641-7.80859-13.39355-11.18359-13.34668-4.7334-22.06836-12.00586-22.06836-23.69238,0-13.64062,11.45215-24.01172,30.26172-24.01172,9.12207,0,15.70898,1.81152,20.42871,4.02637l-3.99805,14.50586c-3.17285-1.5127-8.93164-3.79785-16.69922-3.79785-7.87695,0-11.6377,3.64551-11.6377,7.73633,0,5.08203,4.43164,7.3291,14.80957,11.24805,14.16504,5.29492,20.72363,12.64648,20.72363,23.95605,0,13.35742-10.22754,24.82031-32.25195,24.82031-9.06738,0-18.13867-2.46582-22.59766-4.97363l3.6582-14.94434Z"/>
  </symbol>
  <symbol id="S01" viewBox="0 0 190 190">
    <circle fill="#c92f44" cx="95" cy="95" r="95"/>
    <circle fill="#fff" cx="95" cy="95" r="76"/>
    <path fill="#231815" d="M81.14355,69.53027c2.81543,1.51074,7.23535,2.95215,11.78027,2.95215,4.88086,0,7.46875-2.02637,7.46875-5.11914,0-2.88672-2.24219-4.58691-7.86914-6.57031-7.84082-2.78027-12.96484-7.05273-12.96484-13.91846,0-8.01318,6.72852-14.10645,17.7793-14.10645,5.3584,0,9.22852,1.06445,12,2.36523l-2.34766,8.52197c-1.86426-.88867-5.24805-2.23145-9.81055-2.23145-4.62793,0-6.83691,2.14209-6.83691,4.54541,0,2.98535,2.60352,4.30518,8.7002,6.60791,8.32227,3.11035,12.1748,7.42969,12.1748,14.07324,0,7.84766-6.00879,14.58203-18.94727,14.58203-5.32715,0-10.65625-1.44922-13.27637-2.92188l2.14941-8.78027Z"/>
    <g>
      <path fill="#231815" d="M92.10156,123.3291c0,17.82812-7.23535,30.15039-21.98438,30.15039-14.96777,0-21.57568-13.41602-21.63232-29.78418,0-16.81055,7.05518-30.03809,22.02002-30.03809,15.4707,0,21.59668,13.80664,21.59668,29.67188ZM62.03027,123.63867c-.03516,13.31934,3.18555,19.62012,8.3623,19.62012,5.27051,0,8.16309-6.61133,8.16309-19.76074,0-12.82617-2.80078-19.56738-8.19238-19.56738-4.97852,0-8.35059,6.24121-8.33301,19.70801Z"/>
      <path fill="#231815" d="M115.99121,106.69434h-.17871l-11.00293,5.22559-2.23926-10.15234,15.3418-7.13086h11.16895v57.86328h-13.08984v-45.80566Z"/>
    </g>
  </symbol>
  <symbol id="S02" viewBox="0 0 190 190">
    <circle fill="#c92f44" cx="95" cy="95" r="95"/>
    <circle fill="#fff" cx="95" cy="95" r="76"/>
    <path fill="#231815" d="M81.14355,69.53027c2.81543,1.51074,7.23535,2.95215,11.78027,2.95215,4.88086,0,7.46875-2.02637,7.46875-5.11914,0-2.88672-2.24219-4.58691-7.86914-6.57031-7.84082-2.78027-12.96484-7.05273-12.96484-13.91846,0-8.01318,6.72852-14.10645,17.7793-14.10645,5.3584,0,9.22852,1.06445,12,2.36523l-2.34766,8.52197c-1.86426-.88867-5.24805-2.23145-9.81055-2.23145-4.62793,0-6.83691,2.14209-6.83691,4.54541,0,2.98535,2.60352,4.30518,8.7002,6.60791,8.32227,3.11035,12.1748,7.42969,12.1748,14.07324,0,7.84766-6.00879,14.58203-18.94727,14.58203-5.32715,0-10.65625-1.44922-13.27637-2.92188l2.14941-8.78027Z"/>
    <g>
      <path fill="#231815" d="M92.10156,123.3291c0,17.82812-7.23535,30.15039-21.98438,30.15039-14.96777,0-21.57568-13.41602-21.63232-29.78418,0-16.81055,7.05518-30.03809,22.02002-30.03809,15.4707,0,21.59668,13.80664,21.59668,29.67188ZM62.03027,123.63867c-.03516,13.31934,3.18555,19.62012,8.3623,19.62012,5.27051,0,8.16309-6.61133,8.16309-19.76074,0-12.82617-2.80078-19.56738-8.19238-19.56738-4.97852,0-8.35059,6.24121-8.33301,19.70801Z"/>
      <path fill="#231815" d="M98.76074,152.5v-8.19434l7.44727-6.72559c12.66406-11.36914,18.82812-17.83398,18.93359-24.60059,0-4.69727-2.76953-8.43945-9.47266-8.43945-4.9834,0-9.33594,2.49707-12.38477,4.75684l-3.79785-9.66797c4.31836-3.28223,11.12988-5.97168,18.90625-5.97168,13.1416,0,20.28027,7.66406,20.28027,18.13379,0,9.70898-6.95312,17.50488-15.38574,24.93555l-5.3584,4.44336v.17773h21.89062v11.15234h-41.05859Z"/>
    </g>
  </symbol>
  <symbol id="S03" viewBox="0 0 190 190">
    <circle fill="#c92f44" cx="95" cy="95" r="95"/>
    <circle fill="#fff" cx="95" cy="95" r="76"/>
    <path fill="#231815" d="M81.14355,69.53027c2.81543,1.51074,7.23535,2.95215,11.78027,2.95215,4.88086,0,7.46875-2.02637,7.46875-5.11914,0-2.88672-2.24219-4.58691-7.86914-6.57031-7.84082-2.78027-12.96484-7.05273-12.96484-13.91846,0-8.01318,6.72852-14.10645,17.7793-14.10645,5.3584,0,9.22852,1.06445,12,2.36523l-2.34766,8.52197c-1.86426-.88867-5.24805-2.23145-9.81055-2.23145-4.62793,0-6.83691,2.14209-6.83691,4.54541,0,2.98535,2.60352,4.30518,8.7002,6.60791,8.32227,3.11035,12.1748,7.42969,12.1748,14.07324,0,7.84766-6.00879,14.58203-18.94727,14.58203-5.32715,0-10.65625-1.44922-13.27637-2.92188l2.14941-8.78027Z"/>
    <g>
      <path fill="#231815" d="M92.10156,123.3291c0,17.82812-7.23535,30.15039-21.98438,30.15039-14.96777,0-21.57568-13.41602-21.63232-29.78418,0-16.81055,7.05518-30.03809,22.02002-30.03809,15.4707,0,21.59668,13.80664,21.59668,29.67188ZM62.03027,123.63867c-.03516,13.31934,3.18555,19.62012,8.3623,19.62012,5.27051,0,8.16309-6.61133,8.16309-19.76074,0-12.82617-2.80078-19.56738-8.19238-19.56738-4.97852,0-8.35059,6.24121-8.33301,19.70801Z"/>
      <path fill="#231815" d="M101.15332,139.25195c2.36035,1.27051,7.95312,3.52246,13.46289,3.52246,7.01367,0,10.58594-3.36816,10.57227-7.68945-.02832-5.73535-5.69336-8.32812-11.66699-8.3457h-5.51562v-9.71094h5.28516c4.53125-.01758,10.25-1.77246,10.25-6.64746,0-3.45508-2.80371-6.05273-8.50879-6.05273-4.75879,0-9.72852,2.04199-12.07715,3.46582l-2.7793-9.75391c3.49707-2.24805,10.39844-4.38281,17.90039-4.38281,12.37402,0,19.20312,6.49609,19.20312,14.44238,0,6.07812-3.49316,10.93457-10.57324,13.4209v.17773c6.93457,1.24902,12.53711,6.48242,12.53711,14.0957,0,10.21484-9.00781,17.68555-23.66406,17.68555-7.50781,0-13.81738-1.92969-17.16992-4.05273l2.74414-10.1748Z"/>
    </g>
  </symbol>
  <symbol id="S04" viewBox="0 0 190 190">
    <circle fill="#c92f44" cx="95" cy="95" r="95"/>
    <circle fill="#fff" cx="95" cy="95" r="76"/>
    <path fill="#231815" d="M81.14355,69.53027c2.81543,1.51074,7.23535,2.95215,11.78027,2.95215,4.88086,0,7.46875-2.02637,7.46875-5.11914,0-2.88672-2.24219-4.58691-7.86914-6.57031-7.84082-2.78027-12.96484-7.05273-12.96484-13.91846,0-8.01318,6.72852-14.10645,17.7793-14.10645,5.3584,0,9.22852,1.06445,12,2.36523l-2.34766,8.52197c-1.86426-.88867-5.24805-2.23145-9.81055-2.23145-4.62793,0-6.83691,2.14209-6.83691,4.54541,0,2.98535,2.60352,4.30518,8.7002,6.60791,8.32227,3.11035,12.1748,7.42969,12.1748,14.07324,0,7.84766-6.00879,14.58203-18.94727,14.58203-5.32715,0-10.65625-1.44922-13.27637-2.92188l2.14941-8.78027Z"/>
    <g>
      <path fill="#231815" d="M92.10156,123.3291c0,17.82812-7.23535,30.15039-21.98438,30.15039-14.96777,0-21.57568-13.41602-21.63232-29.78418,0-16.81055,7.05518-30.03809,22.02002-30.03809,15.4707,0,21.59668,13.80664,21.59668,29.67188ZM62.03027,123.63867c-.03516,13.31934,3.18555,19.62012,8.3623,19.62012,5.27051,0,8.16309-6.61133,8.16309-19.76074,0-12.82617-2.80078-19.56738-8.19238-19.56738-4.97852,0-8.35059,6.24121-8.33301,19.70801Z"/>
      <path fill="#231815" d="M122.71875,152.5v-13.82617h-25.65332v-8.78125l21.86133-35.25586h16.56934v33.91211h6.90918v10.125h-6.90918v13.82617h-12.77734ZM122.71875,128.54883v-12.79395c0-3.47461.18457-7.05762.38477-10.78516l-.32422-.01367c-1.85059,3.77539-3.40918,7.12012-5.36816,10.73926l-7.71191,12.67578-.05273.17773h13.07227Z"/>
    </g>
  </symbol>
  <symbol id="S05" viewBox="0 0 190 190">
    <circle fill="#c92f44" cx="95" cy="95" r="95"/>
    <circle fill="#fff" cx="95" cy="95" r="76"/>
    <path fill="#231815" d="M81.14355,69.53027c2.81543,1.51074,7.23535,2.95215,11.78027,2.95215,4.88086,0,7.46875-2.02637,7.46875-5.11914,0-2.88672-2.24219-4.58691-7.86914-6.57031-7.84082-2.78027-12.96484-7.05273-12.96484-13.91846,0-8.01318,6.72852-14.10645,17.7793-14.10645,5.3584,0,9.22852,1.06445,12,2.36523l-2.34766,8.52197c-1.86426-.88867-5.24805-2.23145-9.81055-2.23145-4.62793,0-6.83691,2.14209-6.83691,4.54541,0,2.98535,2.60352,4.30518,8.7002,6.60791,8.32227,3.11035,12.1748,7.42969,12.1748,14.07324,0,7.84766-6.00879,14.58203-18.94727,14.58203-5.32715,0-10.65625-1.44922-13.27637-2.92188l2.14941-8.78027Z"/>
    <g>
      <path fill="#231815" d="M92.10156,123.3291c0,17.82812-7.23535,30.15039-21.98438,30.15039-14.96777,0-21.57568-13.41602-21.63232-29.78418,0-16.81055,7.05518-30.03809,22.02002-30.03809,15.4707,0,21.59668,13.80664,21.59668,29.67188ZM62.03027,123.63867c-.03516,13.31934,3.18555,19.62012,8.3623,19.62012,5.27051,0,8.16309-6.61133,8.16309-19.76074,0-12.82617-2.80078-19.56738-8.19238-19.56738-4.97852,0-8.35059,6.24121-8.33301,19.70801Z"/>
      <path fill="#231815" d="M137.35449,105.78223h-22.44922l-1.24707,8.85938c1.28223-.14746,2.35938-.18945,3.74707-.18945,5.52246.01758,11.19434,1.28809,15.26465,4.17676,4.35156,2.98047,7.0127,7.79785,7.0127,14.55371,0,10.80469-9.24707,20.29688-24.84375,20.29688-7.0127,0-12.86621-1.61133-16.11816-3.2832l2.46387-10.1748c2.56348,1.26758,7.8125,2.89258,13.03125,2.89258,5.62988,0,11.59473-2.69434,11.58105-8.84766-.01465-5.92773-4.75684-9.61133-16.28906-9.61133-3.17383,0-5.4375.22363-7.79102.53516l3.75684-30.35352h31.88086v11.14551Z"/>
    </g>
  </symbol>
  <symbol id="S06" viewBox="0 0 190 190">
    <circle fill="#c92f44" cx="95" cy="95" r="95"/>
    <circle fill="#fff" cx="95" cy="95" r="76"/>
    <path fill="#231815" d="M81.14355,69.53027c2.81543,1.51074,7.23535,2.95215,11.78027,2.95215,4.88086,0,7.46875-2.02637,7.46875-5.11914,0-2.88672-2.24219-4.58691-7.86914-6.57031-7.84082-2.78027-12.96484-7.05273-12.96484-13.91846,0-8.01318,6.72852-14.10645,17.7793-14.10645,5.3584,0,9.22852,1.06445,12,2.36523l-2.34766,8.52197c-1.86426-.88867-5.24805-2.23145-9.81055-2.23145-4.62793,0-6.83691,2.14209-6.83691,4.54541,0,2.98535,2.60352,4.30518,8.7002,6.60791,8.32227,3.11035,12.1748,7.42969,12.1748,14.07324,0,7.84766-6.00879,14.58203-18.94727,14.58203-5.32715,0-10.65625-1.44922-13.27637-2.92188l2.14941-8.78027Z"/>
    <g>
      <path fill="#231815" d="M92.10156,123.3291c0,17.82812-7.23535,30.15039-21.98438,30.15039-14.96777,0-21.57568-13.41602-21.63232-29.78418,0-16.81055,7.05518-30.03809,22.02002-30.03809,15.4707,0,21.59668,13.80664,21.59668,29.67188ZM62.03027,123.63867c-.03516,13.31934,3.18555,19.62012,8.3623,19.62012,5.27051,0,8.16309-6.61133,8.16309-19.76074,0-12.82617-2.80078-19.56738-8.19238-19.56738-4.97852,0-8.35059,6.24121-8.33301,19.70801Z"/>
      <path fill="#231815" d="M135.69922,104.29199c-1.55566-.08789-3.16309-.0293-5.28516.14453-12.03711.9668-17.34766,7.08691-18.88574,13.83887h.26562c2.89844-2.86426,6.91406-4.58594,12.2793-4.58594,9.71191,0,17.91406,6.84668,17.91406,18.89941,0,11.48535-8.80273,20.89062-21.3252,20.89062-15.43555,0-22.97461-11.49805-22.97461-25.24121,0-10.9248,3.98926-19.98535,10.25781-25.79199,5.75879-5.2666,13.25977-8.09082,22.28613-8.52441,2.49707-.2041,4.15527-.13672,5.45312-.05371l.01465,10.42383ZM128.2666,133.2959c-.01758-5.36523-2.81836-9.97168-8.59668-9.97168-3.63477,0-6.69336,2.20996-7.99023,5.11133-.38867.77344-.59277,1.8252-.59277,3.44531.26758,6.11035,3.20801,11.64453,9.37598,11.64453,4.79883,0,7.80371-4.34375,7.80371-10.22949Z"/>
    </g>
  </symbol>
  <symbol id="S07" viewBox="0 0 190 190">
    <circle fill="#c92f44" cx="95" cy="95" r="95"/>
    <circle fill="#fff" cx="95" cy="95" r="76"/>
    <path fill="#231815" d="M81.14355,69.53027c2.81543,1.51074,7.23535,2.95215,11.78027,2.95215,4.88086,0,7.46875-2.02637,7.46875-5.11914,0-2.88672-2.24219-4.58691-7.86914-6.57031-7.84082-2.78027-12.96484-7.05273-12.96484-13.91846,0-8.01318,6.72852-14.10645,17.7793-14.10645,5.3584,0,9.22852,1.06445,12,2.36523l-2.34766,8.52197c-1.86426-.88867-5.24805-2.23145-9.81055-2.23145-4.62793,0-6.83691,2.14209-6.83691,4.54541,0,2.98535,2.60352,4.30518,8.7002,6.60791,8.32227,3.11035,12.1748,7.42969,12.1748,14.07324,0,7.84766-6.00879,14.58203-18.94727,14.58203-5.32715,0-10.65625-1.44922-13.27637-2.92188l2.14941-8.78027Z"/>
    <g>
      <path fill="#231815" d="M92.10156,123.3291c0,17.82812-7.23535,30.15039-21.98438,30.15039-14.96777,0-21.57568-13.41602-21.63232-29.78418,0-16.81055,7.05518-30.03809,22.02002-30.03809,15.4707,0,21.59668,13.80664,21.59668,29.67188ZM62.03027,123.63867c-.03516,13.31934,3.18555,19.62012,8.3623,19.62012,5.27051,0,8.16309-6.61133,8.16309-19.76074,0-12.82617-2.80078-19.56738-8.19238-19.56738-4.97852,0-8.35059,6.24121-8.33301,19.70801Z"/>
      <path fill="#231815" d="M140.23926,94.63672v8.5166l-23.84961,49.34668h-14.3584l23.84473-46.5332v-.17773h-26.52832v-11.15234h40.8916Z"/>
    </g>
  </symbol>
  <symbol id="S08" viewBox="0 0 190 190">
    <circle fill="#c92f44" cx="95" cy="95" r="95"/>
    <circle fill="#fff" cx="95" cy="95" r="76"/>
    <path fill="#231815" d="M81.14355,69.53027c2.81543,1.51074,7.23535,2.95215,11.78027,2.95215,4.88086,0,7.46875-2.02637,7.46875-5.11914,0-2.88672-2.24219-4.58691-7.86914-6.57031-7.84082-2.78027-12.96484-7.05273-12.96484-13.91846,0-8.01318,6.72852-14.10645,17.7793-14.10645,5.3584,0,9.22852,1.06445,12,2.36523l-2.34766,8.52197c-1.86426-.88867-5.24805-2.23145-9.81055-2.23145-4.62793,0-6.83691,2.14209-6.83691,4.54541,0,2.98535,2.60352,4.30518,8.7002,6.60791,8.32227,3.11035,12.1748,7.42969,12.1748,14.07324,0,7.84766-6.00879,14.58203-18.94727,14.58203-5.32715,0-10.65625-1.44922-13.27637-2.92188l2.14941-8.78027Z"/>
    <g>
      <path fill="#231815" d="M92.10156,123.3291c0,17.82812-7.23535,30.15039-21.98438,30.15039-14.96777,0-21.57568-13.41602-21.63232-29.78418,0-16.81055,7.05518-30.03809,22.02002-30.03809,15.4707,0,21.59668,13.80664,21.59668,29.67188ZM62.03027,123.63867c-.03516,13.31934,3.18555,19.62012,8.3623,19.62012,5.27051,0,8.16309-6.61133,8.16309-19.76074,0-12.82617-2.80078-19.56738-8.19238-19.56738-4.97852,0-8.35059,6.24121-8.33301,19.70801Z"/>
      <path fill="#231815" d="M97.85059,137.39941c0-7.0166,3.99219-11.7627,10.31641-14.56055l-.00488-.20605c-5.61914-2.9043-8.37012-7.63184-8.37012-12.70898,0-9.80762,8.81055-16.2666,20.38672-16.2666,13.56445,0,19.18164,7.8457,19.18164,14.84375,0,4.99609-2.69531,9.90137-8.41992,12.78223v.21094c5.61816,2.18652,10.64355,6.92773,10.64355,14.40723,0,10.50879-8.8125,17.57812-22.2627,17.57812-14.70996,0-21.4707-8.24609-21.4707-16.08008ZM127.78906,136.88965c0-5.03027-3.80859-8.04883-9.12402-9.47363-4.42969,1.23145-7.00586,4.42676-7.00586,8.58887-.07031,4.2041,3.12695,8.14844,8.21973,8.14844,4.74023,0,7.91016-3.12207,7.91016-7.26367ZM112.5752,109.47559c-.01367,3.91211,3.47949,6.45801,8.17188,7.87793,3.10156-.87305,5.87207-3.76855,5.87207-7.37402,0-3.57031-2.05957-7.18555-7.06055-7.18555-4.61523,0-6.9834,3.09375-6.9834,6.68164Z"/>
    </g>
  </symbol>
  <symbol id="S09" viewBox="0 0 190 190">
    <circle fill="#c92f44" cx="95" cy="95" r="95"/>
    <circle fill="#fff" cx="95" cy="95" r="76"/>
    <path fill="#231815" d="M81.14355,69.53027c2.81543,1.51074,7.23535,2.95215,11.78027,2.95215,4.88086,0,7.46875-2.02637,7.46875-5.11914,0-2.88672-2.24219-4.58691-7.86914-6.57031-7.84082-2.78027-12.96484-7.05273-12.96484-13.91846,0-8.01318,6.72852-14.10645,17.7793-14.10645,5.3584,0,9.22852,1.06445,12,2.36523l-2.34766,8.52197c-1.86426-.88867-5.24805-2.23145-9.81055-2.23145-4.62793,0-6.83691,2.14209-6.83691,4.54541,0,2.98535,2.60352,4.30518,8.7002,6.60791,8.32227,3.11035,12.1748,7.42969,12.1748,14.07324,0,7.84766-6.00879,14.58203-18.94727,14.58203-5.32715,0-10.65625-1.44922-13.27637-2.92188l2.14941-8.78027Z"/>
    <g>
      <path fill="#231815" d="M92.10156,123.3291c0,17.82812-7.23535,30.15039-21.98438,30.15039-14.96777,0-21.57568-13.41602-21.63232-29.78418,0-16.81055,7.05518-30.03809,22.02002-30.03809,15.4707,0,21.59668,13.80664,21.59668,29.67188ZM62.03027,123.63867c-.03516,13.31934,3.18555,19.62012,8.3623,19.62012,5.27051,0,8.16309-6.61133,8.16309-19.76074,0-12.82617-2.80078-19.56738-8.19238-19.56738-4.97852,0-8.35059,6.24121-8.33301,19.70801Z"/>
      <path fill="#231815" d="M102.98145,142.74023c1.75195.18555,3.22266.13086,5.88867-.0293,4.13086-.22949,8.31738-1.42969,11.38965-3.55859,3.80078-2.55469,6.27734-6.35449,7.28516-10.71582l-.20996-.0918c-2.59668,2.66504-6.37695,4.17871-11.6377,4.17871-9.78906,0-18.00098-6.79492-18.00098-18.0332,0-11.2998,9.08105-20.83301,21.80273-20.83301,14.87109,0,21.88379,11.40625,21.88379,24.90137,0,12.06836-3.8125,20.83984-10.13184,26.66406-5.51562,4.99512-13.12012,7.71094-22.13477,8.06152-2.23828.1748-4.59766.10352-6.13477-.01562v-10.52832ZM111.16113,113.65332c.01758,4.98828,2.74414,9.27051,8.18848,9.27051,3.7334,0,6.28027-1.72168,7.55762-3.7793.42676-.80762.62988-1.73242.62988-3.39746.05176-6.16309-2.27637-12.18848-8.44824-12.18848-4.59766,0-7.96289,4.09277-7.92773,10.09473Z"/>
    </g>
  </symbol>
  <symbol id="S10" viewBox="0 0 190 190">
    <circle fill="#c92f44" cx="95" cy="95" r="95"/>
    <circle fill="#fff" cx="95" cy="95" r="76"/>
    <path fill="#231815" d="M81.14355,69.53027c2.81543,1.51074,7.23535,2.95215,11.78027,2.95215,4.88086,0,7.46875-2.02637,7.46875-5.11914,0-2.88672-2.24219-4.58691-7.86914-6.57031-7.84082-2.78027-12.96484-7.05273-12.96484-13.91846,0-8.01318,6.72852-14.10645,17.7793-14.10645,5.3584,0,9.22852,1.06445,12,2.36523l-2.34766,8.52197c-1.86426-.88867-5.24805-2.23145-9.81055-2.23145-4.62793,0-6.83691,2.14209-6.83691,4.54541,0,2.98535,2.60352,4.30518,8.7002,6.60791,8.32227,3.11035,12.1748,7.42969,12.1748,14.07324,0,7.84766-6.00879,14.58203-18.94727,14.58203-5.32715,0-10.65625-1.44922-13.27637-2.92188l2.14941-8.78027Z"/>
    <g>
      <path fill="#231815" d="M66.58496,106.69434h-.17871l-11.00293,5.22559-2.23926-10.15234,15.3418-7.13086h11.16895v57.86328h-13.08984v-45.80566Z"/>
      <path fill="#231815" d="M141.50781,123.3291c0,17.82812-7.23535,30.15039-21.98438,30.15039-14.96777,0-21.57617-13.41602-21.63281-29.78418,0-16.81055,7.05566-30.03809,22.02051-30.03809,15.4707,0,21.59668,13.80664,21.59668,29.67188ZM111.43652,123.63867c-.03516,13.31934,3.18555,19.62012,8.3623,19.62012,5.27051,0,8.16309-6.61133,8.16309-19.76074,0-12.82617-2.80078-19.56738-8.19238-19.56738-4.97852,0-8.35059,6.24121-8.33301,19.70801Z"/>
    </g>
  </symbol>
  <symbol id="S11" viewBox="0 0 190 190">
    <circle fill="#c92f44" cx="95" cy="95" r="95"/>
    <circle fill="#fff" cx="95" cy="95" r="76"/>
    <path fill="#231815" d="M81.14355,69.53027c2.81543,1.51074,7.23535,2.95215,11.78027,2.95215,4.88086,0,7.46875-2.02637,7.46875-5.11914,0-2.88672-2.24219-4.58691-7.86914-6.57031-7.84082-2.78027-12.96484-7.05273-12.96484-13.91846,0-8.01318,6.72852-14.10645,17.7793-14.10645,5.3584,0,9.22852,1.06445,12,2.36523l-2.34766,8.52197c-1.86426-.88867-5.24805-2.23145-9.81055-2.23145-4.62793,0-6.83691,2.14209-6.83691,4.54541,0,2.98535,2.60352,4.30518,8.7002,6.60791,8.32227,3.11035,12.1748,7.42969,12.1748,14.07324,0,7.84766-6.00879,14.58203-18.94727,14.58203-5.32715,0-10.65625-1.44922-13.27637-2.92188l2.14941-8.78027Z"/>
    <g>
      <path fill="#231815" d="M66.58496,106.69434h-.17871l-11.00293,5.22559-2.23926-10.15234,15.3418-7.13086h11.16895v57.86328h-13.08984v-45.80566Z"/>
      <path fill="#231815" d="M115.99121,106.69434h-.17871l-11.00293,5.22559-2.23926-10.15234,15.3418-7.13086h11.16895v57.86328h-13.08984v-45.80566Z"/>
    </g>
  </symbol>
  <symbol id="S12" viewBox="0 0 190 190">
    <circle fill="#c92f44" cx="95" cy="95" r="95"/>
    <circle fill="#fff" cx="95" cy="95" r="76"/>
    <path fill="#231815" d="M81.14355,69.53027c2.81543,1.51074,7.23535,2.95215,11.78027,2.95215,4.88086,0,7.46875-2.02637,7.46875-5.11914,0-2.88672-2.24219-4.58691-7.86914-6.57031-7.84082-2.78027-12.96484-7.05273-12.96484-13.91846,0-8.01318,6.72852-14.10645,17.7793-14.10645,5.3584,0,9.22852,1.06445,12,2.36523l-2.34766,8.52197c-1.86426-.88867-5.24805-2.23145-9.81055-2.23145-4.62793,0-6.83691,2.14209-6.83691,4.54541,0,2.98535,2.60352,4.30518,8.7002,6.60791,8.32227,3.11035,12.1748,7.42969,12.1748,14.07324,0,7.84766-6.00879,14.58203-18.94727,14.58203-5.32715,0-10.65625-1.44922-13.27637-2.92188l2.14941-8.78027Z"/>
    <g>
      <path fill="#231815" d="M66.58496,106.69434h-.17871l-11.00293,5.22559-2.23926-10.15234,15.3418-7.13086h11.16895v57.86328h-13.08984v-45.80566Z"/>
      <path fill="#231815" d="M98.76074,152.5v-8.19434l7.44727-6.72559c12.66406-11.36914,18.82812-17.83398,18.93359-24.60059,0-4.69727-2.76953-8.43945-9.47266-8.43945-4.9834,0-9.33594,2.49707-12.38477,4.75684l-3.79785-9.66797c4.31836-3.28223,11.12988-5.97168,18.90625-5.97168,13.1416,0,20.28027,7.66406,20.28027,18.13379,0,9.70898-6.95312,17.50488-15.38574,24.93555l-5.3584,4.44336v.17773h21.89062v11.15234h-41.05859Z"/>
    </g>
  </symbol>
  <symbol id="S13" viewBox="0 0 190 190">
    <circle fill="#c92f44" cx="95" cy="95" r="95"/>
    <circle fill="#fff" cx="95" cy="95" r="76"/>
    <path fill="#231815" d="M81.14355,69.53027c2.81543,1.51074,7.23535,2.95215,11.78027,2.95215,4.88086,0,7.46875-2.02637,7.46875-5.11914,0-2.88672-2.24219-4.58691-7.86914-6.57031-7.84082-2.78027-12.96484-7.05273-12.96484-13.91846,0-8.01318,6.72852-14.10645,17.7793-14.10645,5.3584,0,9.22852,1.06445,12,2.36523l-2.34766,8.52197c-1.86426-.88867-5.24805-2.23145-9.81055-2.23145-4.62793,0-6.83691,2.14209-6.83691,4.54541,0,2.98535,2.60352,4.30518,8.7002,6.60791,8.32227,3.11035,12.1748,7.42969,12.1748,14.07324,0,7.84766-6.00879,14.58203-18.94727,14.58203-5.32715,0-10.65625-1.44922-13.27637-2.92188l2.14941-8.78027Z"/>
    <g>
      <path fill="#231815" d="M66.58496,106.69434h-.17871l-11.00293,5.22559-2.23926-10.15234,15.3418-7.13086h11.16895v57.86328h-13.08984v-45.80566Z"/>
      <path fill="#231815" d="M101.15332,139.25195c2.36035,1.27051,7.95312,3.52246,13.46289,3.52246,7.01367,0,10.58594-3.36816,10.57227-7.68945-.02832-5.73535-5.69336-8.32812-11.66699-8.3457h-5.51562v-9.71094h5.28516c4.53125-.01758,10.25-1.77246,10.25-6.64746,0-3.45508-2.80371-6.05273-8.50879-6.05273-4.75879,0-9.72852,2.04199-12.07715,3.46582l-2.7793-9.75391c3.49707-2.24805,10.39844-4.38281,17.90039-4.38281,12.37402,0,19.20312,6.49609,19.20312,14.44238,0,6.07812-3.49316,10.93457-10.57324,13.4209v.17773c6.93457,1.24902,12.53711,6.48242,12.53711,14.0957,0,10.21484-9.00781,17.68555-23.66406,17.68555-7.50781,0-13.81738-1.92969-17.16992-4.05273l2.74414-10.1748Z"/>
    </g>
  </symbol>
  <symbol id="S14" viewBox="0 0 190 190">
    <circle fill="#c92f44" cx="95" cy="95" r="95"/>
    <circle fill="#fff" cx="95" cy="95" r="76"/>
    <path fill="#231815" d="M81.14355,69.53027c2.81543,1.51074,7.23535,2.95215,11.78027,2.95215,4.88086,0,7.46875-2.02637,7.46875-5.11914,0-2.88672-2.24219-4.58691-7.86914-6.57031-7.84082-2.78027-12.96484-7.05273-12.96484-13.91846,0-8.01318,6.72852-14.10645,17.7793-14.10645,5.3584,0,9.22852,1.06445,12,2.36523l-2.34766,8.52197c-1.86426-.88867-5.24805-2.23145-9.81055-2.23145-4.62793,0-6.83691,2.14209-6.83691,4.54541,0,2.98535,2.60352,4.30518,8.7002,6.60791,8.32227,3.11035,12.1748,7.42969,12.1748,14.07324,0,7.84766-6.00879,14.58203-18.94727,14.58203-5.32715,0-10.65625-1.44922-13.27637-2.92188l2.14941-8.78027Z"/>
    <g>
      <path fill="#231815" d="M66.58496,106.69434h-.17871l-11.00293,5.22559-2.23926-10.15234,15.3418-7.13086h11.16895v57.86328h-13.08984v-45.80566Z"/>
      <path fill="#231815" d="M122.71875,152.5v-13.82617h-25.65332v-8.78125l21.86133-35.25586h16.56934v33.91211h6.90918v10.125h-6.90918v13.82617h-12.77734ZM122.71875,128.54883v-12.79395c0-3.47461.18457-7.05762.38477-10.78516l-.32422-.01367c-1.85059,3.77539-3.40918,7.12012-5.36816,10.73926l-7.71191,12.67578-.05273.17773h13.07227Z"/>
    </g>
  </symbol>
  <symbol id="S15" viewBox="0 0 190 190">
    <circle fill="#c92f44" cx="95" cy="95" r="95"/>
    <circle fill="#fff" cx="95" cy="95" r="76"/>
    <path fill="#231815" d="M81.14355,69.53027c2.81543,1.51074,7.23535,2.95215,11.78027,2.95215,4.88086,0,7.46875-2.02637,7.46875-5.11914,0-2.88672-2.24219-4.58691-7.86914-6.57031-7.84082-2.78027-12.96484-7.05273-12.96484-13.91846,0-8.01318,6.72852-14.10645,17.7793-14.10645,5.3584,0,9.22852,1.06445,12,2.36523l-2.34766,8.52197c-1.86426-.88867-5.24805-2.23145-9.81055-2.23145-4.62793,0-6.83691,2.14209-6.83691,4.54541,0,2.98535,2.60352,4.30518,8.7002,6.60791,8.32227,3.11035,12.1748,7.42969,12.1748,14.07324,0,7.84766-6.00879,14.58203-18.94727,14.58203-5.32715,0-10.65625-1.44922-13.27637-2.92188l2.14941-8.78027Z"/>
    <g>
      <path fill="#231815" d="M66.58496,106.69434h-.17871l-11.00293,5.22559-2.23926-10.15234,15.3418-7.13086h11.16895v57.86328h-13.08984v-45.80566Z"/>
      <path fill="#231815" d="M137.35449,105.78223h-22.44922l-1.24707,8.85938c1.28223-.14746,2.35938-.18945,3.74707-.18945,5.52246.01758,11.19434,1.28809,15.26465,4.17676,4.35156,2.98047,7.0127,7.79785,7.0127,14.55371,0,10.80469-9.24707,20.29688-24.84375,20.29688-7.0127,0-12.86621-1.61133-16.11816-3.2832l2.46387-10.1748c2.56348,1.26758,7.8125,2.89258,13.03125,2.89258,5.62988,0,11.59473-2.69434,11.58105-8.84766-.01465-5.92773-4.75684-9.61133-16.28906-9.61133-3.17383,0-5.4375.22363-7.79102.53516l3.75684-30.35352h31.88086v11.14551Z"/>
    </g>
  </symbol>
  <symbol id="S16" viewBox="0 0 190 190">
    <circle fill="#c92f44" cx="95" cy="95" r="95"/>
    <circle fill="#fff" cx="95" cy="95" r="76"/>
    <path fill="#231815" d="M81.14355,69.53027c2.81543,1.51074,7.23535,2.95215,11.78027,2.95215,4.88086,0,7.46875-2.02637,7.46875-5.11914,0-2.88672-2.24219-4.58691-7.86914-6.57031-7.84082-2.78027-12.96484-7.05273-12.96484-13.91846,0-8.01318,6.72852-14.10645,17.7793-14.10645,5.3584,0,9.22852,1.06445,12,2.36523l-2.34766,8.52197c-1.86426-.88867-5.24805-2.23145-9.81055-2.23145-4.62793,0-6.83691,2.14209-6.83691,4.54541,0,2.98535,2.60352,4.30518,8.7002,6.60791,8.32227,3.11035,12.1748,7.42969,12.1748,14.07324,0,7.84766-6.00879,14.58203-18.94727,14.58203-5.32715,0-10.65625-1.44922-13.27637-2.92188l2.14941-8.78027Z"/>
    <g>
      <path fill="#231815" d="M66.58496,106.69434h-.17871l-11.00293,5.22559-2.23926-10.15234,15.3418-7.13086h11.16895v57.86328h-13.08984v-45.80566Z"/>
      <path fill="#231815" d="M135.69922,104.29199c-1.55566-.08789-3.16309-.0293-5.28516.14453-12.03711.9668-17.34766,7.08691-18.88574,13.83887h.26562c2.89844-2.86426,6.91406-4.58594,12.2793-4.58594,9.71191,0,17.91406,6.84668,17.91406,18.89941,0,11.48535-8.80273,20.89062-21.3252,20.89062-15.43555,0-22.97461-11.49805-22.97461-25.24121,0-10.9248,3.98926-19.98535,10.25781-25.79199,5.75879-5.2666,13.25977-8.09082,22.28613-8.52441,2.49707-.2041,4.15527-.13672,5.45312-.05371l.01465,10.42383ZM128.2666,133.2959c-.01758-5.36523-2.81836-9.97168-8.59668-9.97168-3.63477,0-6.69336,2.20996-7.99023,5.11133-.38867.77344-.59277,1.8252-.59277,3.44531.26758,6.11035,3.20801,11.64453,9.37598,11.64453,4.79883,0,7.80371-4.34375,7.80371-10.22949Z"/>
    </g>
  </symbol>
  <symbol id="S17" viewBox="0 0 190 190">
    <circle fill="#c92f44" cx="95" cy="95" r="95"/>
    <circle fill="#fff" cx="95" cy="95" r="76"/>
    <path fill="#231815" d="M81.14355,69.53027c2.81543,1.51074,7.23535,2.95215,11.78027,2.95215,4.88086,0,7.46875-2.02637,7.46875-5.11914,0-2.88672-2.24219-4.58691-7.86914-6.57031-7.84082-2.78027-12.96484-7.05273-12.96484-13.91846,0-8.01318,6.72852-14.10645,17.7793-14.10645,5.3584,0,9.22852,1.06445,12,2.36523l-2.34766,8.52197c-1.86426-.88867-5.24805-2.23145-9.81055-2.23145-4.62793,0-6.83691,2.14209-6.83691,4.54541,0,2.98535,2.60352,4.30518,8.7002,6.60791,8.32227,3.11035,12.1748,7.42969,12.1748,14.07324,0,7.84766-6.00879,14.58203-18.94727,14.58203-5.32715,0-10.65625-1.44922-13.27637-2.92188l2.14941-8.78027Z"/>
    <g>
      <path fill="#231815" d="M66.58496,106.69434h-.17871l-11.00293,5.22559-2.23926-10.15234,15.3418-7.13086h11.16895v57.86328h-13.08984v-45.80566Z"/>
      <path fill="#231815" d="M140.23926,94.63672v8.5166l-23.84961,49.34668h-14.3584l23.84473-46.5332v-.17773h-26.52832v-11.15234h40.8916Z"/>
    </g>
  </symbol>
  <symbol id="S18" viewBox="0 0 190 190">
    <circle fill="#c92f44" cx="95" cy="95" r="95"/>
    <circle fill="#fff" cx="95" cy="95" r="76"/>
    <path fill="#231815" d="M81.14355,69.53027c2.81543,1.51074,7.23535,2.95215,11.78027,2.95215,4.88086,0,7.46875-2.02637,7.46875-5.11914,0-2.88672-2.24219-4.58691-7.86914-6.57031-7.84082-2.78027-12.96484-7.05273-12.96484-13.91846,0-8.01318,6.72852-14.10645,17.7793-14.10645,5.3584,0,9.22852,1.06445,12,2.36523l-2.34766,8.52197c-1.86426-.88867-5.24805-2.23145-9.81055-2.23145-4.62793,0-6.83691,2.14209-6.83691,4.54541,0,2.98535,2.60352,4.30518,8.7002,6.60791,8.32227,3.11035,12.1748,7.42969,12.1748,14.07324,0,7.84766-6.00879,14.58203-18.94727,14.58203-5.32715,0-10.65625-1.44922-13.27637-2.92188l2.14941-8.78027Z"/>
    <g>
      <path fill="#231815" d="M66.58496,106.69434h-.17871l-11.00293,5.22559-2.23926-10.15234,15.3418-7.13086h11.16895v57.86328h-13.08984v-45.80566Z"/>
      <path fill="#231815" d="M97.85059,137.39941c0-7.0166,3.99219-11.7627,10.31641-14.56055l-.00488-.20605c-5.61914-2.9043-8.37012-7.63184-8.37012-12.70898,0-9.80762,8.81055-16.2666,20.38672-16.2666,13.56445,0,19.18164,7.8457,19.18164,14.84375,0,4.99609-2.69531,9.90137-8.41992,12.78223v.21094c5.61816,2.18652,10.64355,6.92773,10.64355,14.40723,0,10.50879-8.8125,17.57812-22.2627,17.57812-14.70996,0-21.4707-8.24609-21.4707-16.08008ZM127.78906,136.88965c0-5.03027-3.80859-8.04883-9.12402-9.47363-4.42969,1.23145-7.00586,4.42676-7.00586,8.58887-.07031,4.2041,3.12695,8.14844,8.21973,8.14844,4.74023,0,7.91016-3.12207,7.91016-7.26367ZM112.5752,109.47559c-.01367,3.91211,3.47949,6.45801,8.17188,7.87793,3.10156-.87305,5.87207-3.76855,5.87207-7.37402,0-3.57031-2.05957-7.18555-7.06055-7.18555-4.61523,0-6.9834,3.09375-6.9834,6.68164Z"/>
    </g>
  </symbol>
  <symbol id="S19" viewBox="0 0 190 190">
    <circle fill="#c92f44" cx="95" cy="95" r="95"/>
    <circle fill="#fff" cx="95" cy="95" r="76"/>
    <path fill="#231815" d="M81.14355,69.53027c2.81543,1.51074,7.23535,2.95215,11.78027,2.95215,4.88086,0,7.46875-2.02637,7.46875-5.11914,0-2.88672-2.24219-4.58691-7.86914-6.57031-7.84082-2.78027-12.96484-7.05273-12.96484-13.91846,0-8.01318,6.72852-14.10645,17.7793-14.10645,5.3584,0,9.22852,1.06445,12,2.36523l-2.34766,8.52197c-1.86426-.88867-5.24805-2.23145-9.81055-2.23145-4.62793,0-6.83691,2.14209-6.83691,4.54541,0,2.98535,2.60352,4.30518,8.7002,6.60791,8.32227,3.11035,12.1748,7.42969,12.1748,14.07324,0,7.84766-6.00879,14.58203-18.94727,14.58203-5.32715,0-10.65625-1.44922-13.27637-2.92188l2.14941-8.78027Z"/>
    <g>
      <path fill="#231815" d="M66.58496,106.69434h-.17871l-11.00293,5.22559-2.23926-10.15234,15.3418-7.13086h11.16895v57.86328h-13.08984v-45.80566Z"/>
      <path fill="#231815" d="M102.98145,142.74023c1.75195.18555,3.22266.13086,5.88867-.0293,4.13086-.22949,8.31738-1.42969,11.38965-3.55859,3.80078-2.55469,6.27734-6.35449,7.28516-10.71582l-.20996-.0918c-2.59668,2.66504-6.37695,4.17871-11.6377,4.17871-9.78906,0-18.00098-6.79492-18.00098-18.0332,0-11.2998,9.08105-20.83301,21.80273-20.83301,14.87109,0,21.88379,11.40625,21.88379,24.90137,0,12.06836-3.8125,20.83984-10.13184,26.66406-5.51562,4.99512-13.12012,7.71094-22.13477,8.06152-2.23828.1748-4.59766.10352-6.13477-.01562v-10.52832ZM111.16113,113.65332c.01758,4.98828,2.74414,9.27051,8.18848,9.27051,3.7334,0,6.28027-1.72168,7.55762-3.7793.42676-.80762.62988-1.73242.62988-3.39746.05176-6.16309-2.27637-12.18848-8.44824-12.18848-4.59766,0-7.96289,4.09277-7.92773,10.09473Z"/>
    </g>
  </symbol>
  <symbol id="S20" viewBox="0 0 190 190">
    <circle fill="#c92f44" cx="95" cy="95" r="95"/>
    <circle fill="#fff" cx="95" cy="95" r="76"/>
    <path fill="#231815" d="M81.14355,69.53027c2.81543,1.51074,7.23535,2.95215,11.78027,2.95215,4.88086,0,7.46875-2.02637,7.46875-5.11914,0-2.88672-2.24219-4.58691-7.86914-6.57031-7.84082-2.78027-12.96484-7.05273-12.96484-13.91846,0-8.01318,6.72852-14.10645,17.7793-14.10645,5.3584,0,9.22852,1.06445,12,2.36523l-2.34766,8.52197c-1.86426-.88867-5.24805-2.23145-9.81055-2.23145-4.62793,0-6.83691,2.14209-6.83691,4.54541,0,2.98535,2.60352,4.30518,8.7002,6.60791,8.32227,3.11035,12.1748,7.42969,12.1748,14.07324,0,7.84766-6.00879,14.58203-18.94727,14.58203-5.32715,0-10.65625-1.44922-13.27637-2.92188l2.14941-8.78027Z"/>
    <g>
      <path fill="#231815" d="M49.35498,152.5v-8.19434l7.44678-6.72559c12.66406-11.36914,18.82812-17.83398,18.93359-24.60059,0-4.69727-2.76953-8.43945-9.47266-8.43945-4.9834,0-9.33594,2.49707-12.38477,4.75684l-3.79736-9.66797c4.31787-3.28223,11.12939-5.97168,18.90576-5.97168,13.1416,0,20.28027,7.66406,20.28027,18.13379,0,9.70898-6.95312,17.50488-15.38574,24.93555l-5.3584,4.44336v.17773h21.89062v11.15234h-41.05811Z"/>
      <path fill="#231815" d="M141.50781,123.3291c0,17.82812-7.23535,30.15039-21.98438,30.15039-14.96777,0-21.57617-13.41602-21.63281-29.78418,0-16.81055,7.05566-30.03809,22.02051-30.03809,15.4707,0,21.59668,13.80664,21.59668,29.67188ZM111.43652,123.63867c-.03516,13.31934,3.18555,19.62012,8.3623,19.62012,5.27051,0,8.16309-6.61133,8.16309-19.76074,0-12.82617-2.80078-19.56738-8.19238-19.56738-4.97852,0-8.35059,6.24121-8.33301,19.70801Z"/>
    </g>
  </symbol>
  <symbol id="S21" viewBox="0 0 190 190">
    <circle fill="#c92f44" cx="95" cy="95" r="95"/>
    <circle fill="#fff" cx="95" cy="95" r="76"/>
    <path fill="#231815" d="M81.14355,69.53027c2.81543,1.51074,7.23535,2.95215,11.78027,2.95215,4.88086,0,7.46875-2.02637,7.46875-5.11914,0-2.88672-2.24219-4.58691-7.86914-6.57031-7.84082-2.78027-12.96484-7.05273-12.96484-13.91846,0-8.01318,6.72852-14.10645,17.7793-14.10645,5.3584,0,9.22852,1.06445,12,2.36523l-2.34766,8.52197c-1.86426-.88867-5.24805-2.23145-9.81055-2.23145-4.62793,0-6.83691,2.14209-6.83691,4.54541,0,2.98535,2.60352,4.30518,8.7002,6.60791,8.32227,3.11035,12.1748,7.42969,12.1748,14.07324,0,7.84766-6.00879,14.58203-18.94727,14.58203-5.32715,0-10.65625-1.44922-13.27637-2.92188l2.14941-8.78027Z"/>
    <g>
      <path fill="#231815" d="M49.35498,152.5v-8.19434l7.44678-6.72559c12.66406-11.36914,18.82812-17.83398,18.93359-24.60059,0-4.69727-2.76953-8.43945-9.47266-8.43945-4.9834,0-9.33594,2.49707-12.38477,4.75684l-3.79736-9.66797c4.31787-3.28223,11.12939-5.97168,18.90576-5.97168,13.1416,0,20.28027,7.66406,20.28027,18.13379,0,9.70898-6.95312,17.50488-15.38574,24.93555l-5.3584,4.44336v.17773h21.89062v11.15234h-41.05811Z"/>
      <path fill="#231815" d="M115.99121,106.69434h-.17871l-11.00293,5.22559-2.23926-10.15234,15.3418-7.13086h11.16895v57.86328h-13.08984v-45.80566Z"/>
    </g>
  </symbol>
</svg>