<?xml version="1.0" encoding="UTF-8"?>
<svg xmlns="http://www.w3.org/2000/svg" xmlns:xlink="http://www.w3.org/1999/xlink">
  <!-- DIC-F180 -->
  <symbol id="K" viewBox="0 0 212 185">
    <path fill="#fff" d="M176.66693,185c21.68304-19.40918,35.33307-47.60864,35.33307-79C212,47.45782,164.54218,0,106,0S0,47.45782,0,106c0,31.39136,13.65002,59.59082,35.33307,79l3-3,135.33383-.00004,3.00004,3.00004Z"/>
    <path fill="#ec78b4" d="M106,0C47.45782,0,0,47.45782,0,106c0,31.39136,13.65002,59.59082,35.33307,79l24.01501-24.01501c-15.57739-13.2298-25.47308-32.94666-25.47308-54.98499,0-39.83356,32.29144-72.125,72.125-72.125s72.125,32.29144,72.125,72.125c0,22.03833-9.89569,41.75519-25.47308,54.98499l24.01501,24.01501c21.68304-19.40918,35.33307-47.60864,35.33307-79C212,47.45782,164.54218,0,106,0Z"/>
    <path fill="#231815" d="M77.43262,61.49707h17.92383v35.36328h.29883c1.75293-3.02832,3.66504-5.92188,5.49121-8.71875l18.1123-26.64453h22.23145l-26.46777,34.04785,27.86621,45.95508h-21.05371l-19.68555-34.49219-6.79297,8.36621v26.12598h-17.92383V61.49707Z"/>
  </symbol>
  <symbol id="K01" viewBox="0 0 190 190">
    <circle fill="#ec78b4" cx="95" cy="95" r="95"/>
    <circle fill="#fff" cx="95" cy="95" r="76"/>
    <path fill="#231815" d="M78.2168,33.5h10.5293v20.77539h.17578c1.0293-1.7793,2.15332-3.479,3.22656-5.12207l10.64062-15.65332h13.06055l-15.5498,20.00195,16.37012,26.99805h-12.36816l-11.56543-20.2627-3.99023,4.91406v15.34863h-10.5293v-47Z"/>
    <g>
      <path fill="#231815" d="M92.10156,123.3291c0,17.82812-7.23535,30.15039-21.98438,30.15039-14.96777,0-21.57568-13.41602-21.63232-29.78418,0-16.81055,7.05518-30.03809,22.02002-30.03809,15.4707,0,21.59668,13.80664,21.59668,29.67188ZM62.03027,123.63867c-.03516,13.31934,3.18555,19.62012,8.3623,19.62012,5.27051,0,8.16309-6.61133,8.16309-19.76074,0-12.82617-2.80078-19.56738-8.19238-19.56738-4.97852,0-8.35059,6.24121-8.33301,19.70801Z"/>
      <path fill="#231815" d="M115.99121,106.69434h-.17871l-11.00293,5.22559-2.23926-10.15234,15.3418-7.13086h11.16895v57.86328h-13.08984v-45.80566Z"/>
    </g>
  </symbol>
  <symbol id="K02" viewBox="0 0 190 190">
    <circle fill="#ec78b4" cx="95" cy="95" r="95"/>
    <circle fill="#fff" cx="95" cy="95" r="76"/>
    <path fill="#231815" d="M78.2168,33.5h10.5293v20.77539h.17578c1.0293-1.7793,2.15332-3.479,3.22656-5.12207l10.64062-15.65332h13.06055l-15.5498,20.00195,16.37012,26.99805h-12.36816l-11.56543-20.2627-3.99023,4.91406v15.34863h-10.5293v-47Z"/>
    <g>
      <path fill="#231815" d="M92.10156,123.3291c0,17.82812-7.23535,30.15039-21.98438,30.15039-14.96777,0-21.57568-13.41602-21.63232-29.78418,0-16.81055,7.05518-30.03809,22.02002-30.03809,15.4707,0,21.59668,13.80664,21.59668,29.67188ZM62.03027,123.63867c-.03516,13.31934,3.18555,19.62012,8.3623,19.62012,5.27051,0,8.16309-6.61133,8.16309-19.76074,0-12.82617-2.80078-19.56738-8.19238-19.56738-4.97852,0-8.35059,6.24121-8.33301,19.70801Z"/>
      <path fill="#231815" d="M98.76074,152.5v-8.19434l7.44727-6.72559c12.66406-11.36914,18.82812-17.83398,18.93359-24.60059,0-4.69727-2.76953-8.43945-9.47266-8.43945-4.9834,0-9.33594,2.49707-12.38477,4.75684l-3.79785-9.66797c4.31836-3.28223,11.12988-5.97168,18.90625-5.97168,13.1416,0,20.28027,7.66406,20.28027,18.13379,0,9.70898-6.95312,17.50488-15.38574,24.93555l-5.3584,4.44336v.17773h21.89062v11.15234h-41.05859Z"/>
    </g>
  </symbol>
</svg>