<?xml version="1.0" encoding="UTF-8"?>
<svg xmlns="http://www.w3.org/2000/svg" xmlns:xlink="http://www.w3.org/1999/xlink">
  <symbol id="D" viewBox="0 0 100 100">
    <rect fill="#0e79ba" y="20" width="100" height="60" rx="2.5" ry="2.5"/>
    <path fill="#fff" d="M32.07715,72.5V27.50146h13.28125c13.60254,0,23.98145,8.44531,23.98145,22.17676,0,14.69873-8.83203,22.82178-23.91699,22.82178h-13.3457ZM45.42285,66.82715c9.79883,0,17.08398-4.31934,17.08398-16.95459,0-10.25098-6.89844-16.69824-16.50391-16.69824h-7.47852v33.65283h6.89844Z"/>
  </symbol>
  <symbol id="D01" viewBox="0 0 100 100">
    <rect fill="#0e79ba" y="20" width="100" height="60" rx="1.25" ry="1.25"/>
    <rect fill="#fff" x="43.75" y="23.75" width="52.5" height="52.5"/>
    <path fill="#fff" d="M11.91797,62.5v-24.99707h7.37695c7.55664,0,13.32227,4.69141,13.32227,12.31934,0,8.16504-4.90625,12.67773-13.28613,12.67773h-7.41309ZM19.33105,59.34863c5.44336,0,9.49023-2.39941,9.49023-9.41895,0-5.69385-3.83203-9.27539-9.16797-9.27539h-4.1543v18.69434h3.83203Z"/>
    <g>
      <path fill="#000" d="M50.65869,50.00098c0-7.19824,2.47119-12.92822,8.48779-12.92822,5.83789,0,8.4873,5.47949,8.4873,12.92822,0,6.55371-2.14941,12.92773-8.4873,12.92773-6.08789,0-8.48779-5.90918-8.48779-12.92773ZM63.83789,50.00098c0-4.29736-.93164-9.9917-4.72754-9.9917-3.36621,0-4.65527,4.79883-4.65527,9.9917,0,6.44629,1.64648,9.99121,4.69141,9.99121,3.00781,0,4.69141-3.4375,4.69141-9.99121Z"/>
      <path fill="#000" d="M80.5293,62.49902v-20.87793l-3.83203,3.29443-1.89844-2.39941,6.12402-5.01367h3.1875v24.99658h-3.58105Z"/>
    </g>
  </symbol>
  <symbol id="D02" viewBox="0 0 100 100">
    <rect fill="#0e79ba" y="20" width="100" height="60" rx="1.25" ry="1.25"/>
    <rect fill="#fff" x="43.75" y="23.75" width="52.5" height="52.5"/>
    <path fill="#fff" d="M11.91797,62.5v-24.99707h7.37695c7.55664,0,13.32227,4.69141,13.32227,12.31934,0,8.16504-4.90625,12.67773-13.28613,12.67773h-7.41309ZM19.33105,59.34863c5.44336,0,9.49023-2.39941,9.49023-9.41895,0-5.69385-3.83203-9.27539-9.16797-9.27539h-4.1543v18.69434h3.83203Z"/>
    <g>
      <path fill="#000" d="M50.65869,50.00098c0-7.19824,2.47119-12.92822,8.48779-12.92822,5.83789,0,8.4873,5.47949,8.4873,12.92822,0,6.55371-2.14941,12.92773-8.4873,12.92773-6.08789,0-8.48779-5.90918-8.48779-12.92773ZM63.83789,50.00098c0-4.29736-.93164-9.9917-4.72754-9.9917-3.36621,0-4.65527,4.79883-4.65527,9.9917,0,6.44629,1.64648,9.99121,4.69141,9.99121,3.00781,0,4.69141-3.4375,4.69141-9.99121Z"/>
      <path fill="#000" d="M72.68555,62.49902v-3.83203c1.50488-1.3252,3.61719-3.18652,5.48047-4.94141,3.58008-3.3667,6.19531-6.62549,6.19531-9.74121,0-2.29199-2.04102-3.9751-4.79883-3.9751-1.93359,0-3.86816.60889-5.73047,1.61182l-.35742-3.08008c1.36035-.57275,3.6875-1.46826,6.55273-1.46826,4.76367,0,8.12988,2.6499,8.12988,7.09082,0,2.93652-1.93457,7.05518-11.63965,15.39893h11.99805v2.93652h-15.83008Z"/>
    </g>
  </symbol>
</svg>