<?xml version="1.0" encoding="UTF-8"?>
<svg xmlns="http://www.w3.org/2000/svg" xmlns:xlink="http://www.w3.org/1999/xlink">
  <symbol id="NK" viewBox="0 0 100 100">
    <rect fill="#0e79ba" y="20" width="100" height="60" rx="2.5" ry="2.5"/>
    <g>
      <path fill="#fff" d="M11.24121,27.54443h7.17383l22.41895,36.32275V27.54443h5.81445v44.95557h-6.8418l-22.75098-36.27881v36.27881h-5.81445V27.54443Z"/>
      <path fill="#fff" d="M56.50293,27.54443h5.93652v22.00488l22.49121-22.00488h8.51367l-19.20801,18.14355,19.60547,26.81201h-7.96875l-16.10645-22.59033-7.32715,6.92139v15.66895h-5.93652V27.54443Z"/>
    </g>
  </symbol>
  <symbol id="NK01" viewBox="0 0 100 100">
    <rect fill="#0e79ba" y="20" width="100" height="60" rx="1.25" ry="1.25"/>
    <rect fill="#fff" x="36.25" y="23.75" width="60" height="52.5"/>
    <g>
      <path fill="#fff" d="M16.70361,58.75h-3.3418l-6.53223-11.36084v11.36084h-3.11426v-15.99414h3.50488l6.36914,11.16504v-11.16504h3.11426v15.99414Z"/>
      <path fill="#fff" d="M33.98926,58.75h-4.29736l-4.93701-6.98828-1.59521,1.63867v5.34961h-3.2876v-15.99414h3.2876v6.58643l6.17432-6.58643h4.31885l-6.5542,6.58643,6.89062,9.40771Z"/>
    </g>
    <g>
      <path d="M56.05762,61.83594c-3.00586,0-5.11328-1.05273-6.32324-3.1582s-1.81494-5.10547-1.81494-9.00049c0-3.89551.60498-6.90137,1.81494-9.01709,1.20996-2.11621,3.31738-3.17432,6.32324-3.17432s5.11621,1.05811,6.33105,3.17432c1.20508,2.11572,1.80664,5.12158,1.80664,9.01709,0,3.89502-.60449,6.89502-1.81445,9.00049s-3.31738,3.1582-6.32324,3.1582ZM58.77539,55.89453c.42383-1.43164.63477-3.50488.63477-6.21729,0-2.84277-.21387-4.94824-.64258-6.31543s-1.33203-2.05078-2.70996-2.05078-2.29004.68359-2.73438,2.05078c-.44531,1.36719-.66699,3.47266-.66699,6.31543,0,2.7124.22168,4.7876.66699,6.2251.44434,1.4375,1.35645,2.15625,2.73438,2.15625s2.28418-.7207,2.71777-2.16406Z"/>
      <path d="M79.69727,61.25h-4.75293v-16.27686h-5.5498v-3.15771c1.46484-.06494,2.49023-.1626,3.07617-.29297.93359-.20605,1.69238-.61816,2.27832-1.23682.40137-.42334.70605-.9873.91211-1.69287.11914-.42334.17871-.73779.17871-.94385h3.85742v23.60107Z"/>
    </g>
  </symbol>
  <symbol id="NK02" viewBox="0 0 100 100">
    <rect fill="#0e79ba" y="20" width="100" height="60" rx="1.25" ry="1.25"/>
    <rect fill="#fff" x="36.25" y="23.75" width="60" height="52.5"/>
    <g>
      <path fill="#fff" d="M16.70361,58.75h-3.3418l-6.53223-11.36084v11.36084h-3.11426v-15.99414h3.50488l6.36914,11.16504v-11.16504h3.11426v15.99414Z"/>
      <path fill="#fff" d="M33.98926,58.75h-4.29736l-4.93701-6.98828-1.59521,1.63867v5.34961h-3.2876v-15.99414h3.2876v6.58643l6.17432-6.58643h4.31885l-6.5542,6.58643,6.89062,9.40771Z"/>
    </g>
    <g>
      <path d="M56.05762,61.83594c-3.00586,0-5.11328-1.05273-6.32324-3.1582s-1.81494-5.10547-1.81494-9.00049c0-3.89551.60498-6.90137,1.81494-9.01709,1.20996-2.11621,3.31738-3.17432,6.32324-3.17432s5.11621,1.05811,6.33105,3.17432c1.20508,2.11572,1.80664,5.12158,1.80664,9.01709,0,3.89502-.60449,6.89502-1.81445,9.00049s-3.31738,3.1582-6.32324,3.1582ZM58.77539,55.89453c.42383-1.43164.63477-3.50488.63477-6.21729,0-2.84277-.21387-4.94824-.64258-6.31543s-1.33203-2.05078-2.70996-2.05078-2.29004.68359-2.73438,2.05078c-.44531,1.36719-.66699,3.47266-.66699,6.31543,0,2.7124.22168,4.7876.66699,6.2251.44434,1.4375,1.35645,2.15625,2.73438,2.15625s2.28418-.7207,2.71777-2.16406Z"/>
      <path d="M78.67188,42.4502c-.55371-.66162-1.3457-.99268-2.37598-.99268-1.41113,0-2.37109.52637-2.88086,1.57861-.29297.60791-.4668,1.57373-.52148,2.89746h-4.50781c.0752-2.00732.43945-3.62988,1.08984-4.8667,1.2373-2.35449,3.43457-3.53223,6.5918-3.53223,2.49609,0,4.48145.69189,5.95801,2.0752,1.47559,1.38379,2.21289,3.21484,2.21289,5.49365,0,1.74707-.52051,3.29883-1.5625,4.65479-.68359.90088-1.80664,1.90381-3.36914,3.01123l-1.85547,1.31836c-1.16113.82422-1.95605,1.42188-2.38477,1.79102s-.78906.79688-1.08203,1.28516h10.30273v4.08594h-16.16211c.04297-1.69336.40723-3.24023,1.09082-4.63867.66113-1.57422,2.22363-3.24023,4.6875-4.99805,2.1377-1.5293,3.52051-2.625,4.15039-3.28711.96582-1.03076,1.44824-2.15918,1.44824-3.38574,0-.99805-.27637-1.82812-.83008-2.49023Z"/>
    </g>
  </symbol>
  <symbol id="NK03" viewBox="0 0 100 100">
    <rect fill="#0e79ba" y="20" width="100" height="60" rx="1.25" ry="1.25"/>
    <rect fill="#fff" x="36.25" y="23.75" width="60" height="52.5"/>
    <g>
      <path fill="#fff" d="M16.70361,58.75h-3.3418l-6.53223-11.36084v11.36084h-3.11426v-15.99414h3.50488l6.36914,11.16504v-11.16504h3.11426v15.99414Z"/>
      <path fill="#fff" d="M33.98926,58.75h-4.29736l-4.93701-6.98828-1.59521,1.63867v5.34961h-3.2876v-15.99414h3.2876v6.58643l6.17432-6.58643h4.31885l-6.5542,6.58643,6.89062,9.40771Z"/>
    </g>
    <g>
      <path d="M56.05762,61.83594c-3.00586,0-5.11328-1.05273-6.32324-3.1582s-1.81494-5.10547-1.81494-9.00049c0-3.89551.60498-6.90137,1.81494-9.01709,1.20996-2.11621,3.31738-3.17432,6.32324-3.17432s5.11621,1.05811,6.33105,3.17432c1.20508,2.11572,1.80664,5.12158,1.80664,9.01709,0,3.89502-.60449,6.89502-1.81445,9.00049s-3.31738,3.1582-6.32324,3.1582ZM58.77539,55.89453c.42383-1.43164.63477-3.50488.63477-6.21729,0-2.84277-.21387-4.94824-.64258-6.31543s-1.33203-2.05078-2.70996-2.05078-2.29004.68359-2.73438,2.05078c-.44531,1.36719-.66699,3.47266-.66699,6.31543,0,2.7124.22168,4.7876.66699,6.2251.44434,1.4375,1.35645,2.15625,2.73438,2.15625s2.28418-.7207,2.71777-2.16406Z"/>
      <path d="M73.46387,42.35254c-.52148.69482-.77051,1.62256-.74902,2.7832h-4.3291c.04297-1.17188.24414-2.28369.60156-3.33643.37988-.92236.97656-1.77441,1.79102-2.55566.60742-.55322,1.3291-.97656,2.16406-1.26953.83594-.29297,1.86133-.43945,3.07617-.43945,2.25684,0,4.07812.5835,5.46094,1.75,1.38379,1.1665,2.0752,2.73193,2.0752,4.6958,0,1.38867-.41211,2.56104-1.23633,3.51562-.52148.59668-1.06445,1.00391-1.62793,1.2207.42285,0,1.03027.36377,1.82324,1.09033,1.18262,1.09619,1.77344,2.59326,1.77344,4.4917,0,1.99805-.69141,3.75195-2.0752,5.26562-1.38281,1.51367-3.43164,2.27148-6.14453,2.27148-3.3418,0-5.66406-1.0918-6.96582-3.27148-.68359-1.16211-1.06348-2.68066-1.13965-4.55859h4.55762c0,.94531.15137,1.72656.45605,2.34375.56348,1.14062,1.58887,1.70898,3.07617,1.70898.91113,0,1.70605-.31055,2.38379-.93555.67871-.62305,1.01758-1.52148,1.01758-2.69336,0-1.55176-.62891-2.58789-1.8877-3.10938-.7168-.29297-1.84473-.43896-3.38574-.43896v-3.32031c1.50781-.02148,2.56055-.16797,3.15723-.43945,1.03125-.45557,1.54688-1.37793,1.54688-2.76709,0-.90039-.26367-1.63281-.79004-2.19727-.52637-.56396-1.2666-.84619-2.22168-.84619-1.0957,0-1.89844.34717-2.4082,1.0415Z"/>
    </g>
  </symbol>
  <symbol id="NK04" viewBox="0 0 100 100">
    <rect fill="#0e79ba" y="20" width="100" height="60" rx="1.25" ry="1.25"/>
    <rect fill="#fff" x="36.25" y="23.75" width="60" height="52.5"/>
    <g>
      <path fill="#fff" d="M16.70361,58.75h-3.3418l-6.53223-11.36084v11.36084h-3.11426v-15.99414h3.50488l6.36914,11.16504v-11.16504h3.11426v15.99414Z"/>
      <path fill="#fff" d="M33.98926,58.75h-4.29736l-4.93701-6.98828-1.59521,1.63867v5.34961h-3.2876v-15.99414h3.2876v6.58643l6.17432-6.58643h4.31885l-6.5542,6.58643,6.89062,9.40771Z"/>
    </g>
    <g>
      <path d="M56.05762,61.83594c-3.00586,0-5.11328-1.05273-6.32324-3.1582s-1.81494-5.10547-1.81494-9.00049c0-3.89551.60498-6.90137,1.81494-9.01709,1.20996-2.11621,3.31738-3.17432,6.32324-3.17432s5.11621,1.05811,6.33105,3.17432c1.20508,2.11572,1.80664,5.12158,1.80664,9.01709,0,3.89502-.60449,6.89502-1.81445,9.00049s-3.31738,3.1582-6.32324,3.1582ZM58.77539,55.89453c.42383-1.43164.63477-3.50488.63477-6.21729,0-2.84277-.21387-4.94824-.64258-6.31543s-1.33203-2.05078-2.70996-2.05078-2.29004.68359-2.73438,2.05078c-.44531,1.36719-.66699,3.47266-.66699,6.31543,0,2.7124.22168,4.7876.66699,6.2251.44434,1.4375,1.35645,2.15625,2.73438,2.15625s2.28418-.7207,2.71777-2.16406Z"/>
      <path d="M84.51562,52.54102v3.63086h-2.66992v5.07812h-4.54102v-5.07812h-9.34277v-4.05273l8.67578-14.32373h5.20801v14.74561h2.66992ZM71.39648,52.54102h5.9082v-10.18848l-5.9082,10.18848Z"/>
    </g>
  </symbol>
  <symbol id="NK05" viewBox="0 0 100 100">
    <rect fill="#0e79ba" y="20" width="100" height="60" rx="1.25" ry="1.25"/>
    <rect fill="#fff" x="36.25" y="23.75" width="60" height="52.5"/>
    <g>
      <path fill="#fff" d="M16.70361,58.75h-3.3418l-6.53223-11.36084v11.36084h-3.11426v-15.99414h3.50488l6.36914,11.16504v-11.16504h3.11426v15.99414Z"/>
      <path fill="#fff" d="M33.98926,58.75h-4.29736l-4.93701-6.98828-1.59521,1.63867v5.34961h-3.2876v-15.99414h3.2876v6.58643l6.17432-6.58643h4.31885l-6.5542,6.58643,6.89062,9.40771Z"/>
    </g>
    <g>
      <path d="M56.05762,61.83594c-3.00586,0-5.11328-1.05273-6.32324-3.1582s-1.81494-5.10547-1.81494-9.00049c0-3.89551.60498-6.90137,1.81494-9.01709,1.20996-2.11621,3.31738-3.17432,6.32324-3.17432s5.11621,1.05811,6.33105,3.17432c1.20508,2.11572,1.80664,5.12158,1.80664,9.01709,0,3.89502-.60449,6.89502-1.81445,9.00049s-3.31738,3.1582-6.32324,3.1582ZM58.77539,55.89453c.42383-1.43164.63477-3.50488.63477-6.21729,0-2.84277-.21387-4.94824-.64258-6.31543s-1.33203-2.05078-2.70996-2.05078-2.29004.68359-2.73438,2.05078c-.44531,1.36719-.66699,3.47266-.66699,6.31543,0,2.7124.22168,4.7876.66699,6.2251.44434,1.4375,1.35645,2.15625,2.73438,2.15625s2.28418-.7207,2.71777-2.16406Z"/>
      <path d="M75.96973,49.53076c-.56348,0-1.05176.07031-1.46484.21143-.72656.26025-1.27441.74316-1.64355,1.44922l-4.16699-.1958,1.66016-13.0376h13.00488v3.93896h-9.65137l-.84668,5.15967c.71582-.46631,1.27539-.77588,1.67676-.92773.67285-.24951,1.49121-.37451,2.45703-.37451,1.95312,0,3.65723.65674,5.11133,1.96924,1.4541,1.31348,2.18066,3.22314,2.18066,5.72949,0,2.18164-.69922,4.12891-2.09961,5.84375-1.39941,1.71484-3.49414,2.57031-6.28223,2.57031-2.24609,0-4.09082-.60156-5.53418-1.80664-1.44336-1.20312-2.24609-2.91211-2.40918-5.12695h4.62305c.18359,1.00977.53711,1.78906,1.05762,2.33594.52051.54883,1.28027.82227,2.27832.82227,1.15039,0,2.02637-.4043,2.62891-1.21289s.90332-1.8252.90332-3.05078c0-1.20508-.28223-2.22266-.84668-3.05225-.56348-.83008-1.44238-1.24512-2.63672-1.24512Z"/>
    </g>
  </symbol>
  <symbol id="NK06" viewBox="0 0 100 100">
    <rect fill="#0e79ba" y="20" width="100" height="60" rx="1.25" ry="1.25"/>
    <rect fill="#fff" x="36.25" y="23.75" width="60" height="52.5"/>
    <g>
      <path fill="#fff" d="M16.70361,58.75h-3.3418l-6.53223-11.36084v11.36084h-3.11426v-15.99414h3.50488l6.36914,11.16504v-11.16504h3.11426v15.99414Z"/>
      <path fill="#fff" d="M33.98926,58.75h-4.29736l-4.93701-6.98828-1.59521,1.63867v5.34961h-3.2876v-15.99414h3.2876v6.58643l6.17432-6.58643h4.31885l-6.5542,6.58643,6.89062,9.40771Z"/>
    </g>
    <g>
      <path d="M56.05762,61.83594c-3.00586,0-5.11328-1.05273-6.32324-3.1582s-1.81494-5.10547-1.81494-9.00049c0-3.89551.60498-6.90137,1.81494-9.01709,1.20996-2.11621,3.31738-3.17432,6.32324-3.17432s5.11621,1.05811,6.33105,3.17432c1.20508,2.11572,1.80664,5.12158,1.80664,9.01709,0,3.89502-.60449,6.89502-1.81445,9.00049s-3.31738,3.1582-6.32324,3.1582ZM58.77539,55.89453c.42383-1.43164.63477-3.50488.63477-6.21729,0-2.84277-.21387-4.94824-.64258-6.31543s-1.33203-2.05078-2.70996-2.05078-2.29004.68359-2.73438,2.05078c-.44531,1.36719-.66699,3.47266-.66699,6.31543,0,2.7124.22168,4.7876.66699,6.2251.44434,1.4375,1.35645,2.15625,2.73438,2.15625s2.28418-.7207,2.71777-2.16406Z"/>
      <path d="M77.27246,45.93359c2.09375,0,3.81055.71045,5.15137,2.13184,1.33984,1.42188,2.00977,3.23926,2.00977,5.45215,0,2.20312-.65625,4.14648-1.96875,5.82812-1.31348,1.68164-3.35352,2.52148-6.12012,2.52148-2.97363,0-5.16504-1.24219-6.57617-3.72656-1.0957-1.94141-1.64355-4.44922-1.64355-7.51953,0-1.80127.07617-3.26611.22754-4.39453.27148-2.00732.79785-3.67871,1.5791-5.01318.67285-1.13965,1.55469-2.05615,2.64453-2.75098,1.09082-.69385,2.39551-1.0415,3.91504-1.0415,2.19141,0,3.93848.56152,5.24121,1.68457,1.30176,1.12305,2.03418,2.61816,2.19727,4.48438h-4.62305c0-.37988-.14648-.79785-.43945-1.25342-.49902-.73779-1.25293-1.10693-2.2627-1.10693-1.50781,0-2.58203.84668-3.22266,2.53906-.34668.93359-.58594,2.31152-.71582,4.13428.5752-.68359,1.24219-1.18262,2.00195-1.49756.75977-.31445,1.62793-.47168,2.60449-.47168ZM74.14746,50.36084c-.91211.70557-1.36719,1.84424-1.36719,3.41846,0,1.26953.3418,2.30469,1.02539,3.10742.68359.80469,1.55176,1.20508,2.60352,1.20508,1.03125,0,1.8418-.38867,2.43359-1.16406s.8877-1.78125.8877-3.01953c0-1.37695-.33691-2.43262-1.00977-3.16504s-1.49707-1.09863-2.47363-1.09863c-.79199,0-1.49219.23877-2.09961.71631Z"/>
    </g>
  </symbol>
  <symbol id="NK07" viewBox="0 0 100 100">
    <rect fill="#0e79ba" y="20" width="100" height="60" rx="1.25" ry="1.25"/>
    <rect fill="#fff" x="36.25" y="23.75" width="60" height="52.5"/>
    <g>
      <path fill="#fff" d="M16.70361,58.75h-3.3418l-6.53223-11.36084v11.36084h-3.11426v-15.99414h3.50488l6.36914,11.16504v-11.16504h3.11426v15.99414Z"/>
      <path fill="#fff" d="M33.98926,58.75h-4.29736l-4.93701-6.98828-1.59521,1.63867v5.34961h-3.2876v-15.99414h3.2876v6.58643l6.17432-6.58643h4.31885l-6.5542,6.58643,6.89062,9.40771Z"/>
    </g>
    <g>
      <path d="M56.05762,61.83594c-3.00586,0-5.11328-1.05273-6.32324-3.1582s-1.81494-5.10547-1.81494-9.00049c0-3.89551.60498-6.90137,1.81494-9.01709,1.20996-2.11621,3.31738-3.17432,6.32324-3.17432s5.11621,1.05811,6.33105,3.17432c1.20508,2.11572,1.80664,5.12158,1.80664,9.01709,0,3.89502-.60449,6.89502-1.81445,9.00049s-3.31738,3.1582-6.32324,3.1582ZM58.77539,55.89453c.42383-1.43164.63477-3.50488.63477-6.21729,0-2.84277-.21387-4.94824-.64258-6.31543s-1.33203-2.05078-2.70996-2.05078-2.29004.68359-2.73438,2.05078c-.44531,1.36719-.66699,3.47266-.66699,6.31543,0,2.7124.22168,4.7876.66699,6.2251.44434,1.4375,1.35645,2.15625,2.73438,2.15625s2.28418-.7207,2.71777-2.16406Z"/>
      <path d="M81.76465,45.2334c-1.2373,1.75781-2.27344,3.57031-3.10938,5.43652-.66113,1.46484-1.25879,3.25586-1.79004,5.37109s-.79785,3.85156-.79785,5.20898h-4.81738c.14062-4.23242,1.53027-8.63281,4.16699-13.20068,1.70312-2.83203,3.12988-4.80664,4.28027-5.92432h-11.76758l.06543-4.16699h16.66699v3.62988c-.69531.68359-1.66016,1.89893-2.89746,3.64551Z"/>
    </g>
  </symbol>
  <symbol id="NK08" viewBox="0 0 100 100">
    <rect fill="#0e79ba" y="20" width="100" height="60" rx="1.25" ry="1.25"/>
    <rect fill="#fff" x="36.25" y="23.75" width="60" height="52.5"/>
    <g>
      <path fill="#fff" d="M16.70361,58.75h-3.3418l-6.53223-11.36084v11.36084h-3.11426v-15.99414h3.50488l6.36914,11.16504v-11.16504h3.11426v15.99414Z"/>
      <path fill="#fff" d="M33.98926,58.75h-4.29736l-4.93701-6.98828-1.59521,1.63867v5.34961h-3.2876v-15.99414h3.2876v6.58643l6.17432-6.58643h4.31885l-6.5542,6.58643,6.89062,9.40771Z"/>
    </g>
    <g>
      <path d="M56.05762,61.83594c-3.00586,0-5.11328-1.05273-6.32324-3.1582s-1.81494-5.10547-1.81494-9.00049c0-3.89551.60498-6.90137,1.81494-9.01709,1.20996-2.11621,3.31738-3.17432,6.32324-3.17432s5.11621,1.05811,6.33105,3.17432c1.20508,2.11572,1.80664,5.12158,1.80664,9.01709,0,3.89502-.60449,6.89502-1.81445,9.00049s-3.31738,3.1582-6.32324,3.1582ZM58.77539,55.89453c.42383-1.43164.63477-3.50488.63477-6.21729,0-2.84277-.21387-4.94824-.64258-6.31543s-1.33203-2.05078-2.70996-2.05078-2.29004.68359-2.73438,2.05078c-.44531,1.36719-.66699,3.47266-.66699,6.31543,0,2.7124.22168,4.7876.66699,6.2251.44434,1.4375,1.35645,2.15625,2.73438,2.15625s2.28418-.7207,2.71777-2.16406Z"/>
      <path d="M69.99707,59.76758c-1.35645-1.38867-2.03516-3.07617-2.03516-5.06055,0-1.32422.30176-2.52344.90332-3.59766.60254-1.07422,1.48438-1.88232,2.64551-2.42529-1.13965-.75928-1.87988-1.58105-2.22168-2.46582-.3418-.88428-.5127-1.71143-.5127-2.48193,0-1.71436.64551-3.17676,1.93652-4.38672s3.11426-1.81494,5.46875-1.81494,4.17773.60498,5.46875,1.81494,1.9375,2.67236,1.9375,4.38672c0,.77051-.1709,1.59766-.5127,2.48193-.3418.88477-1.08301,1.65186-2.22168,2.30322,1.16016.65088,2.03418,1.51367,2.62012,2.58789s.87891,2.27344.87891,3.59766c0,1.98438-.73535,3.67578-2.20508,5.07031-1.4707,1.39453-3.52441,2.08984-6.16113,2.08984s-4.63379-.69922-5.98926-2.09961ZM72.78027,54.39648c0,1.16211.30078,2.0625.90332,2.70312.60156.64062,1.43457.95898,2.49805.95898s1.89648-.31836,2.49805-.95898c.60254-.64062.90332-1.54102.90332-2.70312,0-1.20312-.30664-2.11719-.91895-2.74219-.61328-.62305-1.44043-.93555-2.48242-.93555s-1.86914.3125-2.48242.93555c-.6123.625-.91895,1.53906-.91895,2.74219ZM74.00098,46.35645c.52051.54297,1.24707.81396,2.18066.81396.94434,0,1.67383-.271,2.18945-.81396.51465-.54248.77246-1.24219.77246-2.09961,0-.93311-.25781-1.6626-.77246-2.18896-.51562-.52637-1.24512-.78955-2.18945-.78955-.93359,0-1.66309.26318-2.18945.78955s-.78906,1.25586-.78906,2.18896c0,.85742.26562,1.55713.79785,2.09961Z"/>
    </g>
  </symbol>
  <symbol id="NK09" viewBox="0 0 100 100">
    <rect fill="#0e79ba" y="20" width="100" height="60" rx="1.25" ry="1.25"/>
    <rect fill="#fff" x="36.25" y="23.75" width="60" height="52.5"/>
    <g>
      <path fill="#fff" d="M16.70361,58.75h-3.3418l-6.53223-11.36084v11.36084h-3.11426v-15.99414h3.50488l6.36914,11.16504v-11.16504h3.11426v15.99414Z"/>
      <path fill="#fff" d="M33.98926,58.75h-4.29736l-4.93701-6.98828-1.59521,1.63867v5.34961h-3.2876v-15.99414h3.2876v6.58643l6.17432-6.58643h4.31885l-6.5542,6.58643,6.89062,9.40771Z"/>
    </g>
    <g>
      <path d="M56.05762,61.83594c-3.00586,0-5.11328-1.05273-6.32324-3.1582s-1.81494-5.10547-1.81494-9.00049c0-3.89551.60498-6.90137,1.81494-9.01709,1.20996-2.11621,3.31738-3.17432,6.32324-3.17432s5.11621,1.05811,6.33105,3.17432c1.20508,2.11572,1.80664,5.12158,1.80664,9.01709,0,3.89502-.60449,6.89502-1.81445,9.00049s-3.31738,3.1582-6.32324,3.1582ZM58.77539,55.89453c.42383-1.43164.63477-3.50488.63477-6.21729,0-2.84277-.21387-4.94824-.64258-6.31543s-1.33203-2.05078-2.70996-2.05078-2.29004.68359-2.73438,2.05078c-.44531,1.36719-.66699,3.47266-.66699,6.31543,0,2.7124.22168,4.7876.66699,6.2251.44434,1.4375,1.35645,2.15625,2.73438,2.15625s2.28418-.7207,2.71777-2.16406Z"/>
      <path d="M75.74219,61.93359c-1.76855,0-3.3584-.52344-4.76855-1.57031-1.41113-1.04883-2.21973-2.57422-2.42578-4.58203h4.62305c.1084.69336.40137,1.25781.87891,1.69141.47754.43555,1.1123.65234,1.9043.65234,1.5293,0,2.60352-.84766,3.22266-2.53906.33594-.93359.54785-2.29492.63477-4.08594-.42383.53125-.87402.93848-1.35156,1.2207-.86816.52148-1.93652.78125-3.20605.78125-1.87695,0-3.54297-.64844-4.99707-1.94531-1.4541-1.29639-2.18066-3.16553-2.18066-5.60693,0-2.52832.72949-4.57617,2.18945-6.14453,1.45898-1.56787,3.35547-2.35156,5.68848-2.35156,3.59082,0,6.05469,1.58984,7.38965,4.76904.75879,1.80127,1.13867,4.17236,1.13867,7.11279,0,2.854-.36328,5.23486-1.08984,7.14502-1.38965,3.63477-3.93945,5.45312-7.65039,5.45312ZM74.11426,41.99463c-.88965.69434-1.33398,1.87158-1.33398,3.53174,0,1.3999.28418,2.44971.85449,3.14941.56934.7002,1.44531,1.05029,2.62793,1.05029.64062,0,1.24316-.18457,1.80664-.55371,1.05273-.67236,1.5791-1.83936,1.5791-3.49951,0-1.33447-.31152-2.39258-.93555-3.17383s-1.47852-1.17188-2.56348-1.17188c-.79199,0-1.4707.22266-2.03516.66748Z"/>
    </g>
  </symbol>
  <symbol id="NK10" viewBox="0 0 100 100">
    <rect fill="#0e79ba" y="20" width="100" height="60" rx="1.25" ry="1.25"/>
    <rect fill="#fff" x="36.25" y="23.75" width="60" height="52.5"/>
    <g>
      <path fill="#fff" d="M16.70361,58.75h-3.3418l-6.53223-11.36084v11.36084h-3.11426v-15.99414h3.50488l6.36914,11.16504v-11.16504h3.11426v15.99414Z"/>
      <path fill="#fff" d="M33.98926,58.75h-4.29736l-4.93701-6.98828-1.59521,1.63867v5.34961h-3.2876v-15.99414h3.2876v6.58643l6.17432-6.58643h4.31885l-6.5542,6.58643,6.89062,9.40771Z"/>
    </g>
    <g>
      <path d="M59.49219,61.25h-4.75293v-16.27686h-5.55029v-3.15771c1.46484-.06494,2.49072-.1626,3.07666-.29297.93262-.20605,1.69238-.61816,2.27832-1.23682.40137-.42334.70508-.9873.91113-1.69287.11914-.42334.17969-.73779.17969-.94385h3.85742v23.60107Z"/>
      <path d="M76.2627,61.83594c-3.00488,0-5.11328-1.05273-6.32324-3.1582s-1.81445-5.10547-1.81445-9.00049c0-3.89551.60449-6.90137,1.81445-9.01709,1.20996-2.11621,3.31836-3.17432,6.32324-3.17432,3.00586,0,5.11621,1.05811,6.33203,3.17432,1.2041,2.11572,1.80664,5.12158,1.80664,9.01709,0,3.89502-.60547,6.89502-1.81445,9.00049-1.21094,2.10547-3.31836,3.1582-6.32422,3.1582ZM78.98145,55.89453c.42285-1.43164.63477-3.50488.63477-6.21729,0-2.84277-.21484-4.94824-.64355-6.31543s-1.33203-2.05078-2.70996-2.05078-2.28906.68359-2.73438,2.05078c-.44434,1.36719-.66699,3.47266-.66699,6.31543,0,2.7124.22266,4.7876.66699,6.2251.44531,1.4375,1.35645,2.15625,2.73438,2.15625s2.28418-.7207,2.71875-2.16406Z"/>
    </g>
  </symbol>
</svg>