<?xml version="1.0" encoding="UTF-8"?>
<svg xmlns="http://www.w3.org/2000/svg" xmlns:xlink="http://www.w3.org/1999/xlink">
  <symbol id="A" viewBox="0 0 100 100">
    <rect fill="#0e79ba" y="20" width="100" height="60" rx="2.5" ry="2.5"/>
    <path fill="#fff" d="M65.47168,72.5l-4.57715-11.34668h-22.04785l-4.57715,11.34668h-6.76953l19.21191-44.99854h6.76855l19.01855,44.99854h-7.02734ZM49.87109,33.56201l-8.96191,22.30518h17.92285l-8.96094-22.30518Z"/>
  </symbol>
  <symbol id="A01" viewBox="0 0 100 100">
    <rect fill="#0e79ba" y="20" width="100" height="60" rx="1.25" ry="1.25"/>
    <rect fill="#fff" x="43.75" y="23.75" width="52.5" height="52.5"/>
    <path fill="#fff" d="M30.46875,62.5l-2.54297-6.30273h-12.24756l-2.54297,6.30273h-3.76025l10.67236-24.99707h3.76025l10.56445,24.99707h-3.90332ZM21.80176,40.86914l-4.97754,12.39062h9.95557l-4.97803-12.39062Z"/>
    <g>
      <path fill="#000" d="M50.65869,50.00098c0-7.19824,2.47119-12.92822,8.48779-12.92822,5.83789,0,8.4873,5.47949,8.4873,12.92822,0,6.55371-2.14941,12.92773-8.4873,12.92773-6.08789,0-8.48779-5.90918-8.48779-12.92773ZM63.83789,50.00098c0-4.29736-.93164-9.9917-4.72754-9.9917-3.36621,0-4.65527,4.79883-4.65527,9.9917,0,6.44629,1.64648,9.99121,4.69141,9.99121,3.00781,0,4.69141-3.4375,4.69141-9.99121Z"/>
      <path fill="#000" d="M80.5293,62.49902v-20.87793l-3.83203,3.29443-1.89844-2.39941,6.12402-5.01367h3.1875v24.99658h-3.58105Z"/>
    </g>
  </symbol>
  <symbol id="A02" viewBox="0 0 100 100">
    <rect fill="#0e79ba" y="20" width="100" height="60" rx="1.25" ry="1.25"/>
    <rect fill="#fff" x="43.75" y="23.75" width="52.5" height="52.5"/>
    <path fill="#fff" d="M30.46875,62.5l-2.54297-6.30273h-12.24756l-2.54297,6.30273h-3.76025l10.67236-24.99707h3.76025l10.56445,24.99707h-3.90332ZM21.80176,40.86914l-4.97754,12.39062h9.95557l-4.97803-12.39062Z"/>
    <g>
      <path fill="#000" d="M50.65869,50.00098c0-7.19824,2.47119-12.92822,8.48779-12.92822,5.83789,0,8.4873,5.47949,8.4873,12.92822,0,6.55371-2.14941,12.92773-8.4873,12.92773-6.08789,0-8.48779-5.90918-8.48779-12.92773ZM63.83789,50.00098c0-4.29736-.93164-9.9917-4.72754-9.9917-3.36621,0-4.65527,4.79883-4.65527,9.9917,0,6.44629,1.64648,9.99121,4.69141,9.99121,3.00781,0,4.69141-3.4375,4.69141-9.99121Z"/>
      <path fill="#000" d="M72.68555,62.49902v-3.83203c1.50488-1.3252,3.61719-3.18652,5.48047-4.94141,3.58008-3.3667,6.19531-6.62549,6.19531-9.74121,0-2.29199-2.04102-3.9751-4.79883-3.9751-1.93359,0-3.86816.60889-5.73047,1.61182l-.35742-3.08008c1.36035-.57275,3.6875-1.46826,6.55273-1.46826,4.76367,0,8.12988,2.6499,8.12988,7.09082,0,2.93652-1.93457,7.05518-11.63965,15.39893h11.99805v2.93652h-15.83008Z"/>
    </g>
  </symbol>
  <symbol id="A03" viewBox="0 0 100 100">
    <rect fill="#0e79ba" y="20" width="100" height="60" rx="1.25" ry="1.25"/>
    <rect fill="#fff" x="43.75" y="23.75" width="52.5" height="52.5"/>
    <path fill="#fff" d="M30.46875,62.5l-2.54297-6.30273h-12.24756l-2.54297,6.30273h-3.76025l10.67236-24.99707h3.76025l10.56445,24.99707h-3.90332ZM21.80176,40.86914l-4.97754,12.39062h9.95557l-4.97803-12.39062Z"/>
    <g>
      <path fill="#000" d="M50.65869,50.00098c0-7.19824,2.47119-12.92822,8.48779-12.92822,5.83789,0,8.4873,5.47949,8.4873,12.92822,0,6.55371-2.14941,12.92773-8.4873,12.92773-6.08789,0-8.48779-5.90918-8.48779-12.92773ZM63.83789,50.00098c0-4.29736-.93164-9.9917-4.72754-9.9917-3.36621,0-4.65527,4.79883-4.65527,9.9917,0,6.44629,1.64648,9.99121,4.69141,9.99121,3.00781,0,4.69141-3.4375,4.69141-9.99121Z"/>
      <path fill="#000" d="M72.9375,58.63086c1.75391.89551,3.86719,1.36133,5.47852,1.36133,3.00781,0,6.08789-1.25391,6.08789-4.26172,0-3.15137-2.2207-4.7627-6.15918-4.7627h-2.25684v-2.93652h1.89844c3.33008,0,6.30273-1.21777,6.30273-4.08252,0-2.50684-1.79102-3.93945-4.94141-3.93945-2.68652,0-4.54883.89551-5.51562,1.36084l-.21484-3.18701c1.8623-.68066,4.36914-1.11035,6.26758-1.11035,4.83398,0,8.20117,2.43506,8.20117,6.76855,0,2.90088-2.04199,5.04932-5.37305,5.72998v.07178c3.65332.75195,5.58789,2.93604,5.58789,6.19482,0,4.62012-3.1875,7.09082-9.84863,7.09082-2.04199,0-4.11816-.50098-5.72949-.9668l.21484-3.33105Z"/>
    </g>
  </symbol>
  <symbol id="A04" viewBox="0 0 100 100">
    <rect fill="#0e79ba" y="20" width="100" height="60" rx="1.25" ry="1.25"/>
    <rect fill="#fff" x="43.75" y="23.75" width="52.5" height="52.5"/>
    <path fill="#fff" d="M30.46875,62.5l-2.54297-6.30273h-12.24756l-2.54297,6.30273h-3.76025l10.67236-24.99707h3.76025l10.56445,24.99707h-3.90332ZM21.80176,40.86914l-4.97754,12.39062h9.95557l-4.97803-12.39062Z"/>
    <g>
      <path fill="#000" d="M50.65869,50.00098c0-7.19824,2.47119-12.92822,8.48779-12.92822,5.83789,0,8.4873,5.47949,8.4873,12.92822,0,6.55371-2.14941,12.92773-8.4873,12.92773-6.08789,0-8.48779-5.90918-8.48779-12.92773ZM63.83789,50.00098c0-4.29736-.93164-9.9917-4.72754-9.9917-3.36621,0-4.65527,4.79883-4.65527,9.9917,0,6.44629,1.64648,9.99121,4.69141,9.99121,3.00781,0,4.69141-3.4375,4.69141-9.99121Z"/>
      <path fill="#000" d="M83.21484,62.49902v-5.69434h-11.63867v-2.93652l10.09863-16.36572h5.12207v16.36572h3.15039v2.93652h-3.15039v5.69434h-3.58203ZM83.21484,40.43896h-.07129l-7.80762,13.4292h7.87891v-13.4292Z"/>
    </g>
  </symbol>
  <symbol id="A05" viewBox="0 0 100 100">
    <rect fill="#0e79ba" y="20" width="100" height="60" rx="1.25" ry="1.25"/>
    <rect fill="#fff" x="43.75" y="23.75" width="52.5" height="52.5"/>
    <path fill="#fff" d="M30.46875,62.5l-2.54297-6.30273h-12.24756l-2.54297,6.30273h-3.76025l10.67236-24.99707h3.76025l10.56445,24.99707h-3.90332ZM21.80176,40.86914l-4.97754,12.39062h9.95557l-4.97803-12.39062Z"/>
    <g>
      <path fill="#000" d="M50.65869,50.00098c0-7.19824,2.47119-12.92822,8.48779-12.92822,5.83789,0,8.4873,5.47949,8.4873,12.92822,0,6.55371-2.14941,12.92773-8.4873,12.92773-6.08789,0-8.48779-5.90918-8.48779-12.92773ZM63.83789,50.00098c0-4.29736-.93164-9.9917-4.72754-9.9917-3.36621,0-4.65527,4.79883-4.65527,9.9917,0,6.44629,1.64648,9.99121,4.69141,9.99121,3.00781,0,4.69141-3.4375,4.69141-9.99121Z"/>
      <path fill="#000" d="M73.9043,58.73828c1.68262.93164,3.15039,1.25391,5.15625,1.25391,3.29492,0,5.87305-1.96973,5.87305-4.94238,0-3.61621-2.7207-5.33545-6.08789-5.33545-2.00586,0-3.40234.32227-4.79883.93115l.21484-13.14307h13.75195v2.93652h-10.38477l-.21484,6.69727c1.00195-.25098,2.00488-.3584,3.18652-.3584,4.5127,0,8.12988,3.36621,8.12988,7.73486,0,5.37207-4.26172,8.41602-9.59766,8.41602-2.2207,0-3.86816-.32227-5.33594-.82324l.10742-3.36719Z"/>
    </g>
  </symbol>
  <symbol id="A06" viewBox="0 0 100 100">
    <rect fill="#0e79ba" y="20" width="100" height="60" rx="1.25" ry="1.25"/>
    <rect fill="#fff" x="43.75" y="23.75" width="52.5" height="52.5"/>
    <path fill="#fff" d="M30.46875,62.5l-2.54297-6.30273h-12.24756l-2.54297,6.30273h-3.76025l10.67236-24.99707h3.76025l10.56445,24.99707h-3.90332ZM21.80176,40.86914l-4.97754,12.39062h9.95557l-4.97803-12.39062Z"/>
    <g>
      <path fill="#000" d="M50.65869,50.00098c0-7.19824,2.47119-12.92822,8.48779-12.92822,5.83789,0,8.4873,5.47949,8.4873,12.92822,0,6.55371-2.14941,12.92773-8.4873,12.92773-6.08789,0-8.48779-5.90918-8.48779-12.92773ZM63.83789,50.00098c0-4.29736-.93164-9.9917-4.72754-9.9917-3.36621,0-4.65527,4.79883-4.65527,9.9917,0,6.44629,1.64648,9.99121,4.69141,9.99121,3.00781,0,4.69141-3.4375,4.69141-9.99121Z"/>
      <path fill="#000" d="M87.54883,41.04785c-1.29004-.68018-2.83008-1.03857-4.44141-1.03857-4.54785,0-6.91211,4.1543-6.9834,9.09619l.07129-.03564c1.75586-1.71875,3.50977-2.29199,5.47949-2.29199,4.72754,0,7.52051,3.29492,7.52051,7.87842,0,5.01367-3.33008,8.27246-8.02148,8.27246-5.55078,0-8.41602-3.97559-8.41602-11.99658,0-7.91455,2.93652-13.85938,10.13477-13.85938,1.71875,0,4.26172.39404,5.15723.78809l-.50098,3.18701ZM85.39941,54.72754c0-2.25586-1.28906-5.01318-4.22559-5.01318-2.72168,0-4.62012,2.00537-4.62012,5.01318,0,2.36426,1.46777,5.26465,4.40527,5.26465,2.86523,0,4.44043-2.39941,4.44043-5.26465Z"/>
    </g>
  </symbol>
  <symbol id="A07" viewBox="0 0 100 100">
    <rect fill="#0e79ba" y="20" width="100" height="60" rx="1.25" ry="1.25"/>
    <rect fill="#fff" x="43.75" y="23.75" width="52.5" height="52.5"/>
    <path fill="#fff" d="M30.46875,62.5l-2.54297-6.30273h-12.24756l-2.54297,6.30273h-3.76025l10.67236-24.99707h3.76025l10.56445,24.99707h-3.90332ZM21.80176,40.86914l-4.97754,12.39062h9.95557l-4.97803-12.39062Z"/>
    <g>
      <path fill="#000" d="M50.65869,50.00098c0-7.19824,2.47119-12.92822,8.48779-12.92822,5.83789,0,8.4873,5.47949,8.4873,12.92822,0,6.55371-2.14941,12.92773-8.4873,12.92773-6.08789,0-8.48779-5.90918-8.48779-12.92773ZM63.83789,50.00098c0-4.29736-.93164-9.9917-4.72754-9.9917-3.36621,0-4.65527,4.79883-4.65527,9.9917,0,6.44629,1.64648,9.99121,4.69141,9.99121,3.00781,0,4.69141-3.4375,4.69141-9.99121Z"/>
      <path fill="#000" d="M75.30078,62.49902l9.52539-22.06006h-12.17578v-2.93652h15.8291v2.93652l-9.23926,22.06006h-3.93945Z"/>
    </g>
  </symbol>
  <symbol id="A08" viewBox="0 0 100 100">
    <rect fill="#0e79ba" y="20" width="100" height="60" rx="1.25" ry="1.25"/>
    <rect fill="#fff" x="43.75" y="23.75" width="52.5" height="52.5"/>
    <path fill="#fff" d="M30.46875,62.5l-2.54297-6.30273h-12.24756l-2.54297,6.30273h-3.76025l10.67236-24.99707h3.76025l10.56445,24.99707h-3.90332ZM21.80176,40.86914l-4.97754,12.39062h9.95557l-4.97803-12.39062Z"/>
    <g>
      <path fill="#000" d="M50.65869,50.00098c0-7.19824,2.47119-12.92822,8.48779-12.92822,5.83789,0,8.4873,5.47949,8.4873,12.92822,0,6.55371-2.14941,12.92773-8.4873,12.92773-6.08789,0-8.48779-5.90918-8.48779-12.92773ZM63.83789,50.00098c0-4.29736-.93164-9.9917-4.72754-9.9917-3.36621,0-4.65527,4.79883-4.65527,9.9917,0,6.44629,1.64648,9.99121,4.69141,9.99121,3.00781,0,4.69141-3.4375,4.69141-9.99121Z"/>
      <path fill="#000" d="M77.55664,49.28467c-3.00781-1.03857-4.69141-3.22314-4.69141-6.19531,0-3.29492,3.08008-6.0166,8.09375-6.0166,4.90625,0,7.73535,2.8291,7.73535,5.62256,0,2.8291-1.18164,4.69141-4.5127,6.44629,3.1875,1.10986,5.26465,3.40137,5.26465,6.66113,0,4.65527-3.58105,7.12598-8.66699,7.12598-4.26172,0-8.52344-2.39941-8.52344-6.9834,0-3.04395,1.93457-5.40723,5.30078-6.58887v-.07178ZM78.5957,51.71973c-1.79102,1.14648-2.54297,2.18457-2.54297,4.01074,0,2.72168,2.4707,4.26172,5.04883,4.26172,2.25684,0,4.54883-1.3252,4.54883-4.11816,0-2.43555-1.46875-3.33105-2.90039-4.04688-.78906-.39355-1.89844-.82324-2.54297-1.14551l-1.61133,1.03809ZM84.89844,43.16064c0-2.18457-2.14844-3.15137-4.26172-3.15137-1.50391,0-4.19043,1.11035-4.19043,3.54541,0,1.54004,1.3252,2.68604,5.15723,4.54834,3.15137-2.36377,3.29492-3.50977,3.29492-4.94238Z"/>
    </g>
  </symbol>
  <symbol id="A09" viewBox="0 0 100 100">
    <rect fill="#0e79ba" y="20" width="100" height="60" rx="1.25" ry="1.25"/>
    <rect fill="#fff" x="43.75" y="23.75" width="52.5" height="52.5"/>
    <path fill="#fff" d="M30.46875,62.5l-2.54297-6.30273h-12.24756l-2.54297,6.30273h-3.76025l10.67236-24.99707h3.76025l10.56445,24.99707h-3.90332ZM21.80176,40.86914l-4.97754,12.39062h9.95557l-4.97803-12.39062Z"/>
    <g>
      <path fill="#000" d="M50.65869,50.00098c0-7.19824,2.47119-12.92822,8.48779-12.92822,5.83789,0,8.4873,5.47949,8.4873,12.92822,0,6.55371-2.14941,12.92773-8.4873,12.92773-6.08789,0-8.48779-5.90918-8.48779-12.92773ZM63.83789,50.00098c0-4.29736-.93164-9.9917-4.72754-9.9917-3.36621,0-4.65527,4.79883-4.65527,9.9917,0,6.44629,1.64648,9.99121,4.69141,9.99121,3.00781,0,4.69141-3.4375,4.69141-9.99121Z"/>
      <path fill="#000" d="M85.50684,50.93213c-1.64746,1.61084-3.36621,2.2915-5.47949,2.2915-4.72656,0-7.52051-3.29443-7.52051-7.87842,0-4.94189,3.25879-8.27246,8.05762-8.27246,5.33594,0,8.38086,3.76025,8.38086,11.99707,0,7.69971-2.79395,13.85889-10.13477,13.85889-1.75586,0-4.22656-.39355-5.1582-.78809l.50195-3.1875c1.36133.7168,2.90039,1.03906,4.44141,1.03906,4.54785,0,6.91113-4.1543,6.98242-9.0957l-.07129.03564ZM85.14844,45.27393c0-2.32812-1.43164-5.26465-4.44043-5.26465-2.68652,0-4.40527,2.22021-4.40527,5.26465,0,2.29199,1.32617,5.01367,4.22656,5.01367,2.75781,0,4.61914-2.0415,4.61914-5.01367Z"/>
    </g>
  </symbol>
  <symbol id="A10" viewBox="0 0 100 100">
    <rect fill="#0e79ba" y="20" width="100" height="60" rx="1.25" ry="1.25"/>
    <rect fill="#fff" x="43.75" y="23.75" width="52.5" height="52.5"/>
    <path fill="#fff" d="M30.46875,62.5l-2.54297-6.30273h-12.24756l-2.54297,6.30273h-3.76025l10.67236-24.99707h3.76025l10.56445,24.99707h-3.90332ZM21.80176,40.86914l-4.97754,12.39062h9.95557l-4.97803-12.39062Z"/>
    <g>
      <path fill="#000" d="M58.82422,62.49902v-20.87793l-3.83203,3.29443-1.89844-2.39941,6.12402-5.01367h3.1875v24.99658h-3.58105Z"/>
      <path fill="#000" d="M72.36328,50.00098c0-7.19824,2.47168-12.92822,8.48828-12.92822,5.83789,0,8.4873,5.47949,8.4873,12.92822,0,6.55371-2.14941,12.92773-8.4873,12.92773-6.08789,0-8.48828-5.90918-8.48828-12.92773ZM85.54297,50.00098c0-4.29736-.93164-9.9917-4.72754-9.9917-3.36621,0-4.65527,4.79883-4.65527,9.9917,0,6.44629,1.64648,9.99121,4.69141,9.99121,3.00781,0,4.69141-3.4375,4.69141-9.99121Z"/>
    </g>
  </symbol>
  <symbol id="A11" viewBox="0 0 100 100">
    <rect fill="#0e79ba" y="20" width="100" height="60" rx="1.25" ry="1.25"/>
    <rect fill="#fff" x="43.75" y="23.75" width="52.5" height="52.5"/>
    <path fill="#fff" d="M30.46875,62.5l-2.54297-6.30273h-12.24756l-2.54297,6.30273h-3.76025l10.67236-24.99707h3.76025l10.56445,24.99707h-3.90332ZM21.80176,40.86914l-4.97754,12.39062h9.95557l-4.97803-12.39062Z"/>
    <g>
      <path fill="#000" d="M58.82422,62.49902v-20.87793l-3.83203,3.29443-1.89844-2.39941,6.12402-5.01367h3.1875v24.99658h-3.58105Z"/>
      <path fill="#000" d="M80.5293,62.49902v-20.87793l-3.83203,3.29443-1.89844-2.39941,6.12402-5.01367h3.1875v24.99658h-3.58105Z"/>
    </g>
  </symbol>
</svg>