<?xml version="1.0" encoding="UTF-8"?>
<svg xmlns="http://www.w3.org/2000/svg" xmlns:xlink="http://www.w3.org/1999/xlink">
  <symbol id="OH" viewBox="0 0 100 100">
    <path fill="#0085ce" d="M50,0c32.5,0,50,17.5,50,50s-17.5,50-50,50S0,82.5,0,50,17.5,0,50,0Z"/>
    <path fill="#fff" d="M50,87.5c-25.58398,0-37.5-11.91602-37.5-37.5S24.41602,12.5,50,12.5s37.5,11.91602,37.5,37.5-11.91602,37.5-37.5,37.5Z"/>
    <g>
      <path fill="#0085ce" d="M21.9873,51.25c0-9.02246,4.96484-14.22266,13.79004-14.22266s13.78906,5.2002,13.78906,14.22266c0,8.98242-5.00391,14.22266-13.78906,14.22266-8.70703,0-13.79004-5.24023-13.79004-14.22266ZM42.00195,51.25c0-5.43652-2.20605-8.78613-6.22461-8.78613-3.94043,0-6.22559,3.23145-6.22559,8.78613,0,5.00391,2.04883,8.78613,6.26465,8.78613,3.97949,0,6.18555-3.625,6.18555-8.78613Z"/>
      <path fill="#0085ce" d="M69.66016,65v-11.78027h-8.66797v11.78027h-7.32812v-27.5h7.32812v10.51953h8.66797v-10.51953h7.32812v27.5h-7.32812Z"/>
    </g>
  </symbol>
  <symbol id="OH01" viewBox="0 0 100 100">
    <path fill="#0085ce" d="M50,0C82.5,0,100,17.5,100,50s-17.5,50-50,50S0,82.5,0,50,17.5,0,50,0Z"/>
    <path fill="#fff" d="M50,91.25c-27.75684,0-41.25-13.49316-41.25-41.25S22.24316,8.75,50,8.75s41.25,13.49316,41.25,41.25-13.49316,41.25-41.25,41.25Z"/>
    <g>
      <path fill="#0085ce" d="M29.85645,28.06641c0-6.33301,3.63965-10.28711,9.80078-10.28711,5.87402,0,9.7998,3.81152,9.7998,10.28711,0,6.44824-3.83984,10.40234-9.7998,10.40234-6.19043,0-9.80078-4.01172-9.80078-10.40234ZM45.27344,28.06641c0-3.66797-1.71973-7.13477-5.64551-7.13477-3.61035,0-5.58789,3.15234-5.58789,7.13477,0,4.24121,1.94922,7.25,5.61719,7.25,3.69629,0,5.61621-3.03711,5.61621-7.25Z"/>
      <path fill="#0085ce" d="M65.1582,38.125v-8.76855h-8.02344v8.76855h-4.01172v-20.00195h4.01172v8.08105h8.02344v-8.08105h4.01172v20.00195h-4.01172Z"/>
    </g>
    <g>
      <path fill="#0085ce" d="M23.87451,62.60156c0-11.03125,3.96094-18.20117,12.13379-18.20117,8.02246,0,12.23438,6.31738,12.23438,18.20117,0,11.63184-4.21191,18-12.23438,18-7.97168,0-12.13379-5.71582-12.13379-18ZM41.22314,62.60156c0-5.26465-.15039-12.98633-5.26465-12.98633-4.76367,0-5.06445,7.4209-5.06445,12.83594,0,5.61523.20117,12.93555,5.11426,12.93555,5.06445,0,5.21484-7.57129,5.21484-12.78516Z"/>
      <path fill="#0085ce" d="M63.3877,80v-27.02539l-5.91699,4.81348-3.50977-4.56348,10.22852-8.22266h6.21777v34.99805h-7.01953Z"/>
    </g>
  </symbol>
  <symbol id="OH02" viewBox="0 0 100 100">
    <path fill="#0085ce" d="M50,0C82.5,0,100,17.5,100,50s-17.5,50-50,50S0,82.5,0,50,17.5,0,50,0Z"/>
    <path fill="#fff" d="M50,91.25c-27.75684,0-41.25-13.49316-41.25-41.25S22.24316,8.75,50,8.75s41.25,13.49316,41.25,41.25-13.49316,41.25-41.25,41.25Z"/>
    <g>
      <path fill="#0085ce" d="M29.85645,28.06641c0-6.33301,3.63965-10.28711,9.80078-10.28711,5.87402,0,9.7998,3.81152,9.7998,10.28711,0,6.44824-3.83984,10.40234-9.7998,10.40234-6.19043,0-9.80078-4.01172-9.80078-10.40234ZM45.27344,28.06641c0-3.66797-1.71973-7.13477-5.64551-7.13477-3.61035,0-5.58789,3.15234-5.58789,7.13477,0,4.24121,1.94922,7.25,5.61719,7.25,3.69629,0,5.61621-3.03711,5.61621-7.25Z"/>
      <path fill="#0085ce" d="M65.1582,38.125v-8.76855h-8.02344v8.76855h-4.01172v-20.00195h4.01172v8.08105h8.02344v-8.08105h4.01172v20.00195h-4.01172Z"/>
    </g>
    <g>
      <path fill="#0085ce" d="M23.87451,62.60156c0-11.03125,3.96094-18.20117,12.13379-18.20117,8.02246,0,12.23438,6.31738,12.23438,18.20117,0,11.63184-4.21191,18-12.23438,18-7.97168,0-12.13379-5.71582-12.13379-18ZM41.22314,62.60156c0-5.26465-.15039-12.98633-5.26465-12.98633-4.76367,0-5.06445,7.4209-5.06445,12.83594,0,5.61523.20117,12.93555,5.11426,12.93555,5.06445,0,5.21484-7.57129,5.21484-12.78516Z"/>
      <path fill="#0085ce" d="M52.05566,80v-5.86621l4.21191-3.91113c6.71875-6.26758,10.93066-11.7832,10.93066-15.59375,0-3.00879-2.60742-4.71289-5.71582-4.71289-2.40723,0-5.06445.85254-8.07324,2.80762l-.55078-5.81641c3.20898-1.60449,6.76855-2.50684,10.37891-2.50684,6.96973,0,10.98047,3.66016,10.98047,10.22852,0,4.86328-2.80762,10.17871-13.18652,19.85547h14.29004v5.51562h-23.26562Z"/>
    </g>
  </symbol>
  <symbol id="OH03" viewBox="0 0 100 100">
    <path fill="#0085ce" d="M50,0C82.5,0,100,17.5,100,50s-17.5,50-50,50S0,82.5,0,50,17.5,0,50,0Z"/>
    <path fill="#fff" d="M50,91.25c-27.75684,0-41.25-13.49316-41.25-41.25S22.24316,8.75,50,8.75s41.25,13.49316,41.25,41.25-13.49316,41.25-41.25,41.25Z"/>
    <g>
      <path fill="#0085ce" d="M29.85645,28.06641c0-6.33301,3.63965-10.28711,9.80078-10.28711,5.87402,0,9.7998,3.81152,9.7998,10.28711,0,6.44824-3.83984,10.40234-9.7998,10.40234-6.19043,0-9.80078-4.01172-9.80078-10.40234ZM45.27344,28.06641c0-3.66797-1.71973-7.13477-5.64551-7.13477-3.61035,0-5.58789,3.15234-5.58789,7.13477,0,4.24121,1.94922,7.25,5.61719,7.25,3.69629,0,5.61621-3.03711,5.61621-7.25Z"/>
      <path fill="#0085ce" d="M65.1582,38.125v-8.76855h-8.02344v8.76855h-4.01172v-20.00195h4.01172v8.08105h8.02344v-8.08105h4.01172v20.00195h-4.01172Z"/>
    </g>
    <g>
      <path fill="#0085ce" d="M23.87451,62.60156c0-11.03125,3.96094-18.20117,12.13379-18.20117,8.02246,0,12.23438,6.31738,12.23438,18.20117,0,11.63184-4.21191,18-12.23438,18-7.97168,0-12.13379-5.71582-12.13379-18ZM41.22314,62.60156c0-5.26465-.15039-12.98633-5.26465-12.98633-4.76367,0-5.06445,7.4209-5.06445,12.83594,0,5.61523.20117,12.93555,5.11426,12.93555,5.06445,0,5.21484-7.57129,5.21484-12.78516Z"/>
      <path fill="#0085ce" d="M52.65723,73.48145c2.55762,1.00293,5.11426,1.60449,7.72168,1.60449,3.35938,0,7.4209-1.60449,7.4209-4.96387,0-3.66016-2.60742-5.46484-7.67188-5.46484h-3.45898v-5.51562h3.40918c4.46289,0,7.57129-1.60449,7.57129-4.61328,0-3.00781-2.10547-4.6123-6.06738-4.6123-2.65723,0-5.36426.65137-7.82129,1.85449l-.40137-5.61523c2.80762-1.10352,6.16699-1.75488,9.72754-1.75488,5.71582,0,11.58203,2.30664,11.58203,8.97461,0,4.01172-2.05566,6.66895-6.51855,8.37402v.10059c4.21191.55078,6.66895,3.75977,6.66895,8.32324,0,7.01953-5.51562,10.42871-13.4873,10.42871-3.00879,0-6.41797-.40137-9.07617-1.15332l.40137-5.9668Z"/>
    </g>
  </symbol>
  <symbol id="OH04" viewBox="0 0 100 100">
    <path fill="#0085ce" d="M50,0C82.5,0,100,17.5,100,50s-17.5,50-50,50S0,82.5,0,50,17.5,0,50,0Z"/>
    <path fill="#fff" d="M50,91.25c-27.75684,0-41.25-13.49316-41.25-41.25S22.24316,8.75,50,8.75s41.25,13.49316,41.25,41.25-13.49316,41.25-41.25,41.25Z"/>
    <g>
      <path fill="#0085ce" d="M29.85645,28.06641c0-6.33301,3.63965-10.28711,9.80078-10.28711,5.87402,0,9.7998,3.81152,9.7998,10.28711,0,6.44824-3.83984,10.40234-9.7998,10.40234-6.19043,0-9.80078-4.01172-9.80078-10.40234ZM45.27344,28.06641c0-3.66797-1.71973-7.13477-5.64551-7.13477-3.61035,0-5.58789,3.15234-5.58789,7.13477,0,4.24121,1.94922,7.25,5.61719,7.25,3.69629,0,5.61621-3.03711,5.61621-7.25Z"/>
      <path fill="#0085ce" d="M65.1582,38.125v-8.76855h-8.02344v8.76855h-4.01172v-20.00195h4.01172v8.08105h8.02344v-8.08105h4.01172v20.00195h-4.01172Z"/>
    </g>
    <g>
      <path fill="#0085ce" d="M23.87451,62.60156c0-11.03125,3.96094-18.20117,12.13379-18.20117,8.02246,0,12.23438,6.31738,12.23438,18.20117,0,11.63184-4.21191,18-12.23438,18-7.97168,0-12.13379-5.71582-12.13379-18ZM41.22314,62.60156c0-5.26465-.15039-12.98633-5.26465-12.98633-4.76367,0-5.06445,7.4209-5.06445,12.83594,0,5.61523.20117,12.93555,5.11426,12.93555,5.06445,0,5.21484-7.57129,5.21484-12.78516Z"/>
      <path fill="#0085ce" d="M65.89453,80v-7.27051h-15.0918v-5.66602l13.08594-22.06152h8.72461v22.5127h4.46289v5.21484h-4.46289v7.27051h-6.71875ZM65.89453,52.32227h-.10059l-8.67383,15.19238h8.77441v-15.19238Z"/>
    </g>
  </symbol>
  <symbol id="OH05" viewBox="0 0 100 100">
    <path fill="#0085ce" d="M50,0C82.5,0,100,17.5,100,50s-17.5,50-50,50S0,82.5,0,50,17.5,0,50,0Z"/>
    <path fill="#fff" d="M50,91.25c-27.75684,0-41.25-13.49316-41.25-41.25S22.24316,8.75,50,8.75s41.25,13.49316,41.25,41.25-13.49316,41.25-41.25,41.25Z"/>
    <g>
      <path fill="#0085ce" d="M29.85645,28.06641c0-6.33301,3.63965-10.28711,9.80078-10.28711,5.87402,0,9.7998,3.81152,9.7998,10.28711,0,6.44824-3.83984,10.40234-9.7998,10.40234-6.19043,0-9.80078-4.01172-9.80078-10.40234ZM45.27344,28.06641c0-3.66797-1.71973-7.13477-5.64551-7.13477-3.61035,0-5.58789,3.15234-5.58789,7.13477,0,4.24121,1.94922,7.25,5.61719,7.25,3.69629,0,5.61621-3.03711,5.61621-7.25Z"/>
      <path fill="#0085ce" d="M65.1582,38.125v-8.76855h-8.02344v8.76855h-4.01172v-20.00195h4.01172v8.08105h8.02344v-8.08105h4.01172v20.00195h-4.01172Z"/>
    </g>
    <g>
      <path fill="#0085ce" d="M23.87451,62.60156c0-11.03125,3.96094-18.20117,12.13379-18.20117,8.02246,0,12.23438,6.31738,12.23438,18.20117,0,11.63184-4.21191,18-12.23438,18-7.97168,0-12.13379-5.71582-12.13379-18ZM41.22314,62.60156c0-5.26465-.15039-12.98633-5.26465-12.98633-4.76367,0-5.06445,7.4209-5.06445,12.83594,0,5.61523.20117,12.93555,5.11426,12.93555,5.06445,0,5.21484-7.57129,5.21484-12.78516Z"/>
      <path fill="#0085ce" d="M53.76074,73.33105c2.9082,1.25391,5.06348,1.75488,7.06934,1.75488,4.46289,0,7.57129-2.20605,7.57129-6.16699,0-3.86035-3.05859-6.06738-8.02246-6.06738-2.15625,0-4.21191.30078-6.26758.95312l.35156-18.80273h20.10547v5.21484h-13.4873l-.15039,7.4707c1.20312-.2002,1.95508-.35059,3.20898-.35059,6.26758,0,11.28125,3.45898,11.28125,11.33105,0,7.16992-5.21387,11.93359-13.6377,11.93359-2.25684,0-5.51562-.35059-8.17285-1.00293l.15039-6.26758Z"/>
    </g>
  </symbol>
  <symbol id="OH06" viewBox="0 0 100 100">
    <path fill="#0085ce" d="M50,0C82.5,0,100,17.5,100,50s-17.5,50-50,50S0,82.5,0,50,17.5,0,50,0Z"/>
    <path fill="#fff" d="M50,91.25c-27.75684,0-41.25-13.49316-41.25-41.25S22.24316,8.75,50,8.75s41.25,13.49316,41.25,41.25-13.49316,41.25-41.25,41.25Z"/>
    <g>
      <path fill="#0085ce" d="M29.85645,28.06641c0-6.33301,3.63965-10.28711,9.80078-10.28711,5.87402,0,9.7998,3.81152,9.7998,10.28711,0,6.44824-3.83984,10.40234-9.7998,10.40234-6.19043,0-9.80078-4.01172-9.80078-10.40234ZM45.27344,28.06641c0-3.66797-1.71973-7.13477-5.64551-7.13477-3.61035,0-5.58789,3.15234-5.58789,7.13477,0,4.24121,1.94922,7.25,5.61719,7.25,3.69629,0,5.61621-3.03711,5.61621-7.25Z"/>
      <path fill="#0085ce" d="M65.1582,38.125v-8.76855h-8.02344v8.76855h-4.01172v-20.00195h4.01172v8.08105h8.02344v-8.08105h4.01172v20.00195h-4.01172Z"/>
    </g>
    <g>
      <path fill="#0085ce" d="M23.87451,62.60156c0-11.03125,3.96094-18.20117,12.13379-18.20117,8.02246,0,12.23438,6.31738,12.23438,18.20117,0,11.63184-4.21191,18-12.23438,18-7.97168,0-12.13379-5.71582-12.13379-18ZM41.22314,62.60156c0-5.26465-.15039-12.98633-5.26465-12.98633-4.76367,0-5.06445,7.4209-5.06445,12.83594,0,5.61523.20117,12.93555,5.11426,12.93555,5.06445,0,5.21484-7.57129,5.21484-12.78516Z"/>
      <path fill="#0085ce" d="M73.06445,51.31934c-1.75488-.75195-3.66016-1.40332-6.11719-1.40332-5.56543,0-8.07227,4.7627-8.32324,10.83008l.10059.10059c1.6543-2.40723,3.81055-3.50977,6.81934-3.50977,6.41797,0,10.17773,4.06055,10.17773,10.67969,0,8.02246-4.11133,12.58496-11.63184,12.58496-7.82227,0-11.88379-5.16406-11.88379-16.2959,0-10.72949,3.81055-19.90527,14.39062-19.90527,2.55664,0,4.96387.40137,7.37012,1.25391l-.90234,5.66504ZM68.70215,69.11914c0-3.20898-1.25293-6.56836-4.81348-6.56836-2.9082,0-4.66309,2.45703-4.66309,6.61914,0,3.25879,1.35449,6.2168,4.86426,6.2168,3.35938,0,4.6123-3.30859,4.6123-6.26758Z"/>
    </g>
  </symbol>
  <symbol id="OH07" viewBox="0 0 100 100">
    <path fill="#0085ce" d="M50,0C82.5,0,100,17.5,100,50s-17.5,50-50,50S0,82.5,0,50,17.5,0,50,0Z"/>
    <path fill="#fff" d="M50,91.25c-27.75684,0-41.25-13.49316-41.25-41.25S22.24316,8.75,50,8.75s41.25,13.49316,41.25,41.25-13.49316,41.25-41.25,41.25Z"/>
    <g>
      <path fill="#0085ce" d="M29.85645,28.06641c0-6.33301,3.63965-10.28711,9.80078-10.28711,5.87402,0,9.7998,3.81152,9.7998,10.28711,0,6.44824-3.83984,10.40234-9.7998,10.40234-6.19043,0-9.80078-4.01172-9.80078-10.40234ZM45.27344,28.06641c0-3.66797-1.71973-7.13477-5.64551-7.13477-3.61035,0-5.58789,3.15234-5.58789,7.13477,0,4.24121,1.94922,7.25,5.61719,7.25,3.69629,0,5.61621-3.03711,5.61621-7.25Z"/>
      <path fill="#0085ce" d="M65.1582,38.125v-8.76855h-8.02344v8.76855h-4.01172v-20.00195h4.01172v8.08105h8.02344v-8.08105h4.01172v20.00195h-4.01172Z"/>
    </g>
    <g>
      <path fill="#0085ce" d="M23.87451,62.60156c0-11.03125,3.96094-18.20117,12.13379-18.20117,8.02246,0,12.23438,6.31738,12.23438,18.20117,0,11.63184-4.21191,18-12.23438,18-7.97168,0-12.13379-5.71582-12.13379-18ZM41.22314,62.60156c0-5.26465-.15039-12.98633-5.26465-12.98633-4.76367,0-5.06445,7.4209-5.06445,12.83594,0,5.61523.20117,12.93555,5.11426,12.93555,5.06445,0,5.21484-7.57129,5.21484-12.78516Z"/>
      <path fill="#0085ce" d="M55.01367,80l12.98633-29.48242h-15.49316v-5.51562h22.56348v5.81641l-12.43457,29.18164h-7.62207Z"/>
    </g>
  </symbol>
  <symbol id="OH08" viewBox="0 0 100 100">
    <path fill="#0085ce" d="M50,0C82.5,0,100,17.5,100,50s-17.5,50-50,50S0,82.5,0,50,17.5,0,50,0Z"/>
    <path fill="#fff" d="M50,91.25c-27.75684,0-41.25-13.49316-41.25-41.25S22.24316,8.75,50,8.75s41.25,13.49316,41.25,41.25-13.49316,41.25-41.25,41.25Z"/>
    <g>
      <path fill="#0085ce" d="M29.85645,28.06641c0-6.33301,3.63965-10.28711,9.80078-10.28711,5.87402,0,9.7998,3.81152,9.7998,10.28711,0,6.44824-3.83984,10.40234-9.7998,10.40234-6.19043,0-9.80078-4.01172-9.80078-10.40234ZM45.27344,28.06641c0-3.66797-1.71973-7.13477-5.64551-7.13477-3.61035,0-5.58789,3.15234-5.58789,7.13477,0,4.24121,1.94922,7.25,5.61719,7.25,3.69629,0,5.61621-3.03711,5.61621-7.25Z"/>
      <path fill="#0085ce" d="M65.1582,38.125v-8.76855h-8.02344v8.76855h-4.01172v-20.00195h4.01172v8.08105h8.02344v-8.08105h4.01172v20.00195h-4.01172Z"/>
    </g>
    <g>
      <path fill="#0085ce" d="M23.87451,62.60156c0-11.03125,3.96094-18.20117,12.13379-18.20117,8.02246,0,12.23438,6.31738,12.23438,18.20117,0,11.63184-4.21191,18-12.23438,18-7.97168,0-12.13379-5.71582-12.13379-18ZM41.22314,62.60156c0-5.26465-.15039-12.98633-5.26465-12.98633-4.76367,0-5.06445,7.4209-5.06445,12.83594,0,5.61523.20117,12.93555,5.11426,12.93555,5.06445,0,5.21484-7.57129,5.21484-12.78516Z"/>
      <path fill="#0085ce" d="M69.4043,61.24707c4.5127,2.10645,6.71875,5.06445,6.71875,9.22656,0,6.46777-4.46289,10.12793-12.0332,10.12793-7.52148,0-12.33496-3.50977-12.33496-10.02832,0-3.91016,2.10547-6.61816,6.41797-8.72363v-.10059c-4.11133-1.85547-5.81641-5.01465-5.81641-8.12305,0-6.11719,4.5625-9.22559,11.13086-9.22559,6.46875,0,11.7334,2.75781,11.7334,8.42383,0,3.60938-2.40723,7.01953-5.81641,8.37305v.0498ZM58.77441,70.42285c0,2.8584,2.45703,4.96387,5.31543,4.96387,2.85742,0,5.01367-1.80469,5.01367-4.66309,0-2.70703-1.75488-4.71289-5.86621-6.06641-3.15918,1.50391-4.46289,3.30957-4.46289,5.76562ZM68.50195,53.97754c0-2.00586-1.15332-4.3623-4.3623-4.3623-2.35645,0-5.06445,1.30371-5.06445,4.21191,0,2.20605,1.60449,3.86035,5.51562,5.26465,1.85547-.65234,3.91113-2.80859,3.91113-5.11426Z"/>
    </g>
  </symbol>
  <symbol id="OH09" viewBox="0 0 100 100">
    <path fill="#0085ce" d="M50,0C82.5,0,100,17.5,100,50s-17.5,50-50,50S0,82.5,0,50,17.5,0,50,0Z"/>
    <path fill="#fff" d="M50,91.25c-27.75684,0-41.25-13.49316-41.25-41.25S22.24316,8.75,50,8.75s41.25,13.49316,41.25,41.25-13.49316,41.25-41.25,41.25Z"/>
    <g>
      <path fill="#0085ce" d="M29.85645,28.06641c0-6.33301,3.63965-10.28711,9.80078-10.28711,5.87402,0,9.7998,3.81152,9.7998,10.28711,0,6.44824-3.83984,10.40234-9.7998,10.40234-6.19043,0-9.80078-4.01172-9.80078-10.40234ZM45.27344,28.06641c0-3.66797-1.71973-7.13477-5.64551-7.13477-3.61035,0-5.58789,3.15234-5.58789,7.13477,0,4.24121,1.94922,7.25,5.61719,7.25,3.69629,0,5.61621-3.03711,5.61621-7.25Z"/>
      <path fill="#0085ce" d="M65.1582,38.125v-8.76855h-8.02344v8.76855h-4.01172v-20.00195h4.01172v8.08105h8.02344v-8.08105h4.01172v20.00195h-4.01172Z"/>
    </g>
    <g>
      <path fill="#0085ce" d="M23.87451,62.60156c0-11.03125,3.96094-18.20117,12.13379-18.20117,8.02246,0,12.23438,6.31738,12.23438,18.20117,0,11.63184-4.21191,18-12.23438,18-7.97168,0-12.13379-5.71582-12.13379-18ZM41.22314,62.60156c0-5.26465-.15039-12.98633-5.26465-12.98633-4.76367,0-5.06445,7.4209-5.06445,12.83594,0,5.61523.20117,12.93555,5.11426,12.93555,5.06445,0,5.21484-7.57129,5.21484-12.78516Z"/>
      <path fill="#0085ce" d="M69.2041,64.15527c-1.65527,2.45703-3.81055,3.50977-6.76953,3.50977-6.71875,0-10.22852-4.31152-10.22852-10.67969,0-8.02246,4.11133-12.58496,11.63281-12.58496,7.77148,0,11.88281,5.11426,11.88281,16.2959,0,10.87988-3.91016,19.90527-14.38965,19.90527-2.55762,0-4.96387-.40137-7.37109-1.25293l.90234-5.66602c1.95605.85254,3.86133,1.40332,6.11719,1.40332,5.06445,0,8.02246-4.01074,8.32324-10.83008l-.09961-.10059ZM68.70215,55.83203c0-3.25879-1.35352-6.2168-4.91309-6.2168-2.95898,0-4.56348,2.80762-4.56348,6.26758,0,3.55957,1.50488,6.56836,4.76367,6.56836,3.45996,0,4.71289-3.20898,4.71289-6.61914Z"/>
    </g>
  </symbol>
  <symbol id="OH10" viewBox="0 0 100 100">
    <path fill="#0085ce" d="M50,0C82.5,0,100,17.5,100,50s-17.5,50-50,50S0,82.5,0,50,17.5,0,50,0Z"/>
    <path fill="#fff" d="M50,91.25c-27.75684,0-41.25-13.49316-41.25-41.25S22.24316,8.75,50,8.75s41.25,13.49316,41.25,41.25-13.49316,41.25-41.25,41.25Z"/>
    <g>
      <path fill="#0085ce" d="M29.85645,28.06641c0-6.33301,3.63965-10.28711,9.80078-10.28711,5.87402,0,9.7998,3.81152,9.7998,10.28711,0,6.44824-3.83984,10.40234-9.7998,10.40234-6.19043,0-9.80078-4.01172-9.80078-10.40234ZM45.27344,28.06641c0-3.66797-1.71973-7.13477-5.64551-7.13477-3.61035,0-5.58789,3.15234-5.58789,7.13477,0,4.24121,1.94922,7.25,5.61719,7.25,3.69629,0,5.61621-3.03711,5.61621-7.25Z"/>
      <path fill="#0085ce" d="M65.1582,38.125v-8.76855h-8.02344v8.76855h-4.01172v-20.00195h4.01172v8.08105h8.02344v-8.08105h4.01172v20.00195h-4.01172Z"/>
    </g>
    <g>
      <path fill="#0085ce" d="M35.50732,80v-27.02539l-5.91699,4.81348-3.50977-4.56348,10.22852-8.22266h6.21777v34.99805h-7.01953Z"/>
      <path fill="#0085ce" d="M51.75488,62.60156c0-11.03125,3.96094-18.20117,12.13379-18.20117,8.02246,0,12.23438,6.31738,12.23438,18.20117,0,11.63184-4.21191,18-12.23438,18-7.97168,0-12.13379-5.71582-12.13379-18ZM69.10352,62.60156c0-5.26465-.15039-12.98633-5.26465-12.98633-4.76367,0-5.06445,7.4209-5.06445,12.83594,0,5.61523.20117,12.93555,5.11426,12.93555,5.06445,0,5.21484-7.57129,5.21484-12.78516Z"/>
    </g>
  </symbol>
  <symbol id="OH11" viewBox="0 0 100 100">
    <path fill="#0085ce" d="M50,0C82.5,0,100,17.5,100,50s-17.5,50-50,50S0,82.5,0,50,17.5,0,50,0Z"/>
    <path fill="#fff" d="M50,91.25c-27.75684,0-41.25-13.49316-41.25-41.25S22.24316,8.75,50,8.75s41.25,13.49316,41.25,41.25-13.49316,41.25-41.25,41.25Z"/>
    <g>
      <path fill="#0085ce" d="M29.85645,28.06641c0-6.33301,3.63965-10.28711,9.80078-10.28711,5.87402,0,9.7998,3.81152,9.7998,10.28711,0,6.44824-3.83984,10.40234-9.7998,10.40234-6.19043,0-9.80078-4.01172-9.80078-10.40234ZM45.27344,28.06641c0-3.66797-1.71973-7.13477-5.64551-7.13477-3.61035,0-5.58789,3.15234-5.58789,7.13477,0,4.24121,1.94922,7.25,5.61719,7.25,3.69629,0,5.61621-3.03711,5.61621-7.25Z"/>
      <path fill="#0085ce" d="M65.1582,38.125v-8.76855h-8.02344v8.76855h-4.01172v-20.00195h4.01172v8.08105h8.02344v-8.08105h4.01172v20.00195h-4.01172Z"/>
    </g>
    <g>
      <path fill="#0085ce" d="M35.50732,80v-27.02539l-5.91699,4.81348-3.50977-4.56348,10.22852-8.22266h6.21777v34.99805h-7.01953Z"/>
      <path fill="#0085ce" d="M63.3877,80v-27.02539l-5.91699,4.81348-3.50977-4.56348,10.22852-8.22266h6.21777v34.99805h-7.01953Z"/>
    </g>
  </symbol>
  <symbol id="OH12" viewBox="0 0 100 100">
    <path fill="#0085ce" d="M50,0C82.5,0,100,17.5,100,50s-17.5,50-50,50S0,82.5,0,50,17.5,0,50,0Z"/>
    <path fill="#fff" d="M50,91.25c-27.75684,0-41.25-13.49316-41.25-41.25S22.24316,8.75,50,8.75s41.25,13.49316,41.25,41.25-13.49316,41.25-41.25,41.25Z"/>
    <g>
      <path fill="#0085ce" d="M29.85645,28.06641c0-6.33301,3.63965-10.28711,9.80078-10.28711,5.87402,0,9.7998,3.81152,9.7998,10.28711,0,6.44824-3.83984,10.40234-9.7998,10.40234-6.19043,0-9.80078-4.01172-9.80078-10.40234ZM45.27344,28.06641c0-3.66797-1.71973-7.13477-5.64551-7.13477-3.61035,0-5.58789,3.15234-5.58789,7.13477,0,4.24121,1.94922,7.25,5.61719,7.25,3.69629,0,5.61621-3.03711,5.61621-7.25Z"/>
      <path fill="#0085ce" d="M65.1582,38.125v-8.76855h-8.02344v8.76855h-4.01172v-20.00195h4.01172v8.08105h8.02344v-8.08105h4.01172v20.00195h-4.01172Z"/>
    </g>
    <g>
      <path fill="#0085ce" d="M35.50732,80v-27.02539l-5.91699,4.81348-3.50977-4.56348,10.22852-8.22266h6.21777v34.99805h-7.01953Z"/>
      <path fill="#0085ce" d="M52.05566,80v-5.86621l4.21191-3.91113c6.71875-6.26758,10.93066-11.7832,10.93066-15.59375,0-3.00879-2.60742-4.71289-5.71582-4.71289-2.40723,0-5.06445.85254-8.07324,2.80762l-.55078-5.81641c3.20898-1.60449,6.76855-2.50684,10.37891-2.50684,6.96973,0,10.98047,3.66016,10.98047,10.22852,0,4.86328-2.80762,10.17871-13.18652,19.85547h14.29004v5.51562h-23.26562Z"/>
    </g>
  </symbol>
  <symbol id="OH13" viewBox="0 0 100 100">
    <path fill="#0085ce" d="M50,0C82.5,0,100,17.5,100,50s-17.5,50-50,50S0,82.5,0,50,17.5,0,50,0Z"/>
    <path fill="#fff" d="M50,91.25c-27.75684,0-41.25-13.49316-41.25-41.25S22.24316,8.75,50,8.75s41.25,13.49316,41.25,41.25-13.49316,41.25-41.25,41.25Z"/>
    <g>
      <path fill="#0085ce" d="M29.85645,28.06641c0-6.33301,3.63965-10.28711,9.80078-10.28711,5.87402,0,9.7998,3.81152,9.7998,10.28711,0,6.44824-3.83984,10.40234-9.7998,10.40234-6.19043,0-9.80078-4.01172-9.80078-10.40234ZM45.27344,28.06641c0-3.66797-1.71973-7.13477-5.64551-7.13477-3.61035,0-5.58789,3.15234-5.58789,7.13477,0,4.24121,1.94922,7.25,5.61719,7.25,3.69629,0,5.61621-3.03711,5.61621-7.25Z"/>
      <path fill="#0085ce" d="M65.1582,38.125v-8.76855h-8.02344v8.76855h-4.01172v-20.00195h4.01172v8.08105h8.02344v-8.08105h4.01172v20.00195h-4.01172Z"/>
    </g>
    <g>
      <path fill="#0085ce" d="M35.50732,80v-27.02539l-5.91699,4.81348-3.50977-4.56348,10.22852-8.22266h6.21777v34.99805h-7.01953Z"/>
      <path fill="#0085ce" d="M52.65723,73.48145c2.55762,1.00293,5.11426,1.60449,7.72168,1.60449,3.35938,0,7.4209-1.60449,7.4209-4.96387,0-3.66016-2.60742-5.46484-7.67188-5.46484h-3.45898v-5.51562h3.40918c4.46289,0,7.57129-1.60449,7.57129-4.61328,0-3.00781-2.10547-4.6123-6.06738-4.6123-2.65723,0-5.36426.65137-7.82129,1.85449l-.40137-5.61523c2.80762-1.10352,6.16699-1.75488,9.72754-1.75488,5.71582,0,11.58203,2.30664,11.58203,8.97461,0,4.01172-2.05566,6.66895-6.51855,8.37402v.10059c4.21191.55078,6.66895,3.75977,6.66895,8.32324,0,7.01953-5.51562,10.42871-13.4873,10.42871-3.00879,0-6.41797-.40137-9.07617-1.15332l.40137-5.9668Z"/>
    </g>
  </symbol>
  <symbol id="OH14" viewBox="0 0 100 100">
    <path fill="#0085ce" d="M50,0C82.5,0,100,17.5,100,50s-17.5,50-50,50S0,82.5,0,50,17.5,0,50,0Z"/>
    <path fill="#fff" d="M50,91.25c-27.75684,0-41.25-13.49316-41.25-41.25S22.24316,8.75,50,8.75s41.25,13.49316,41.25,41.25-13.49316,41.25-41.25,41.25Z"/>
    <g>
      <path fill="#0085ce" d="M29.85645,28.06641c0-6.33301,3.63965-10.28711,9.80078-10.28711,5.87402,0,9.7998,3.81152,9.7998,10.28711,0,6.44824-3.83984,10.40234-9.7998,10.40234-6.19043,0-9.80078-4.01172-9.80078-10.40234ZM45.27344,28.06641c0-3.66797-1.71973-7.13477-5.64551-7.13477-3.61035,0-5.58789,3.15234-5.58789,7.13477,0,4.24121,1.94922,7.25,5.61719,7.25,3.69629,0,5.61621-3.03711,5.61621-7.25Z"/>
      <path fill="#0085ce" d="M65.1582,38.125v-8.76855h-8.02344v8.76855h-4.01172v-20.00195h4.01172v8.08105h8.02344v-8.08105h4.01172v20.00195h-4.01172Z"/>
    </g>
    <g>
      <path fill="#0085ce" d="M35.50732,80v-27.02539l-5.91699,4.81348-3.50977-4.56348,10.22852-8.22266h6.21777v34.99805h-7.01953Z"/>
      <path fill="#0085ce" d="M65.89453,80v-7.27051h-15.0918v-5.66602l13.08594-22.06152h8.72461v22.5127h4.46289v5.21484h-4.46289v7.27051h-6.71875ZM65.89453,52.32227h-.10059l-8.67383,15.19238h8.77441v-15.19238Z"/>
    </g>
  </symbol>
  <symbol id="OH15" viewBox="0 0 100 100">
    <path fill="#0085ce" d="M50,0C82.5,0,100,17.5,100,50s-17.5,50-50,50S0,82.5,0,50,17.5,0,50,0Z"/>
    <path fill="#fff" d="M50,91.25c-27.75684,0-41.25-13.49316-41.25-41.25S22.24316,8.75,50,8.75s41.25,13.49316,41.25,41.25-13.49316,41.25-41.25,41.25Z"/>
    <g>
      <path fill="#0085ce" d="M29.85645,28.06641c0-6.33301,3.63965-10.28711,9.80078-10.28711,5.87402,0,9.7998,3.81152,9.7998,10.28711,0,6.44824-3.83984,10.40234-9.7998,10.40234-6.19043,0-9.80078-4.01172-9.80078-10.40234ZM45.27344,28.06641c0-3.66797-1.71973-7.13477-5.64551-7.13477-3.61035,0-5.58789,3.15234-5.58789,7.13477,0,4.24121,1.94922,7.25,5.61719,7.25,3.69629,0,5.61621-3.03711,5.61621-7.25Z"/>
      <path fill="#0085ce" d="M65.1582,38.125v-8.76855h-8.02344v8.76855h-4.01172v-20.00195h4.01172v8.08105h8.02344v-8.08105h4.01172v20.00195h-4.01172Z"/>
    </g>
    <g>
      <path fill="#0085ce" d="M35.50732,80v-27.02539l-5.91699,4.81348-3.50977-4.56348,10.22852-8.22266h6.21777v34.99805h-7.01953Z"/>
      <path fill="#0085ce" d="M53.76074,73.33105c2.9082,1.25391,5.06348,1.75488,7.06934,1.75488,4.46289,0,7.57129-2.20605,7.57129-6.16699,0-3.86035-3.05859-6.06738-8.02246-6.06738-2.15625,0-4.21191.30078-6.26758.95312l.35156-18.80273h20.10547v5.21484h-13.4873l-.15039,7.4707c1.20312-.2002,1.95508-.35059,3.20898-.35059,6.26758,0,11.28125,3.45898,11.28125,11.33105,0,7.16992-5.21387,11.93359-13.6377,11.93359-2.25684,0-5.51562-.35059-8.17285-1.00293l.15039-6.26758Z"/>
    </g>
  </symbol>
  <symbol id="OH16" viewBox="0 0 100 100">
    <path fill="#0085ce" d="M50,0C82.5,0,100,17.5,100,50s-17.5,50-50,50S0,82.5,0,50,17.5,0,50,0Z"/>
    <path fill="#fff" d="M50,91.25c-27.75684,0-41.25-13.49316-41.25-41.25S22.24316,8.75,50,8.75s41.25,13.49316,41.25,41.25-13.49316,41.25-41.25,41.25Z"/>
    <g>
      <path fill="#0085ce" d="M29.85645,28.06641c0-6.33301,3.63965-10.28711,9.80078-10.28711,5.87402,0,9.7998,3.81152,9.7998,10.28711,0,6.44824-3.83984,10.40234-9.7998,10.40234-6.19043,0-9.80078-4.01172-9.80078-10.40234ZM45.27344,28.06641c0-3.66797-1.71973-7.13477-5.64551-7.13477-3.61035,0-5.58789,3.15234-5.58789,7.13477,0,4.24121,1.94922,7.25,5.61719,7.25,3.69629,0,5.61621-3.03711,5.61621-7.25Z"/>
      <path fill="#0085ce" d="M65.1582,38.125v-8.76855h-8.02344v8.76855h-4.01172v-20.00195h4.01172v8.08105h8.02344v-8.08105h4.01172v20.00195h-4.01172Z"/>
    </g>
    <g>
      <path fill="#0085ce" d="M35.50732,80v-27.02539l-5.91699,4.81348-3.50977-4.56348,10.22852-8.22266h6.21777v34.99805h-7.01953Z"/>
      <path fill="#0085ce" d="M73.06445,51.31934c-1.75488-.75195-3.66016-1.40332-6.11719-1.40332-5.56543,0-8.07227,4.7627-8.32324,10.83008l.10059.10059c1.6543-2.40723,3.81055-3.50977,6.81934-3.50977,6.41797,0,10.17773,4.06055,10.17773,10.67969,0,8.02246-4.11133,12.58496-11.63184,12.58496-7.82227,0-11.88379-5.16406-11.88379-16.2959,0-10.72949,3.81055-19.90527,14.39062-19.90527,2.55664,0,4.96387.40137,7.37012,1.25391l-.90234,5.66504ZM68.70215,69.11914c0-3.20898-1.25293-6.56836-4.81348-6.56836-2.9082,0-4.66309,2.45703-4.66309,6.61914,0,3.25879,1.35449,6.2168,4.86426,6.2168,3.35938,0,4.6123-3.30859,4.6123-6.26758Z"/>
    </g>
  </symbol>
  <symbol id="OH17" viewBox="0 0 100 100">
    <path fill="#0085ce" d="M50,0C82.5,0,100,17.5,100,50s-17.5,50-50,50S0,82.5,0,50,17.5,0,50,0Z"/>
    <path fill="#fff" d="M50,91.25c-27.75684,0-41.25-13.49316-41.25-41.25S22.24316,8.75,50,8.75s41.25,13.49316,41.25,41.25-13.49316,41.25-41.25,41.25Z"/>
    <g>
      <path fill="#0085ce" d="M29.85645,28.06641c0-6.33301,3.63965-10.28711,9.80078-10.28711,5.87402,0,9.7998,3.81152,9.7998,10.28711,0,6.44824-3.83984,10.40234-9.7998,10.40234-6.19043,0-9.80078-4.01172-9.80078-10.40234ZM45.27344,28.06641c0-3.66797-1.71973-7.13477-5.64551-7.13477-3.61035,0-5.58789,3.15234-5.58789,7.13477,0,4.24121,1.94922,7.25,5.61719,7.25,3.69629,0,5.61621-3.03711,5.61621-7.25Z"/>
      <path fill="#0085ce" d="M65.1582,38.125v-8.76855h-8.02344v8.76855h-4.01172v-20.00195h4.01172v8.08105h8.02344v-8.08105h4.01172v20.00195h-4.01172Z"/>
    </g>
    <g>
      <path fill="#0085ce" d="M35.50732,80v-27.02539l-5.91699,4.81348-3.50977-4.56348,10.22852-8.22266h6.21777v34.99805h-7.01953Z"/>
      <path fill="#0085ce" d="M55.01367,80l12.98633-29.48242h-15.49316v-5.51562h22.56348v5.81641l-12.43457,29.18164h-7.62207Z"/>
    </g>
  </symbol>
  <symbol id="OH18" viewBox="0 0 100 100">
    <path fill="#0085ce" d="M50,0C82.5,0,100,17.5,100,50s-17.5,50-50,50S0,82.5,0,50,17.5,0,50,0Z"/>
    <path fill="#fff" d="M50,91.25c-27.75684,0-41.25-13.49316-41.25-41.25S22.24316,8.75,50,8.75s41.25,13.49316,41.25,41.25-13.49316,41.25-41.25,41.25Z"/>
    <g>
      <path fill="#0085ce" d="M29.85645,28.06641c0-6.33301,3.63965-10.28711,9.80078-10.28711,5.87402,0,9.7998,3.81152,9.7998,10.28711,0,6.44824-3.83984,10.40234-9.7998,10.40234-6.19043,0-9.80078-4.01172-9.80078-10.40234ZM45.27344,28.06641c0-3.66797-1.71973-7.13477-5.64551-7.13477-3.61035,0-5.58789,3.15234-5.58789,7.13477,0,4.24121,1.94922,7.25,5.61719,7.25,3.69629,0,5.61621-3.03711,5.61621-7.25Z"/>
      <path fill="#0085ce" d="M65.1582,38.125v-8.76855h-8.02344v8.76855h-4.01172v-20.00195h4.01172v8.08105h8.02344v-8.08105h4.01172v20.00195h-4.01172Z"/>
    </g>
    <g>
      <path fill="#0085ce" d="M35.50732,80v-27.02539l-5.91699,4.81348-3.50977-4.56348,10.22852-8.22266h6.21777v34.99805h-7.01953Z"/>
      <path fill="#0085ce" d="M69.4043,61.24707c4.5127,2.10645,6.71875,5.06445,6.71875,9.22656,0,6.46777-4.46289,10.12793-12.0332,10.12793-7.52148,0-12.33496-3.50977-12.33496-10.02832,0-3.91016,2.10547-6.61816,6.41797-8.72363v-.10059c-4.11133-1.85547-5.81641-5.01465-5.81641-8.12305,0-6.11719,4.5625-9.22559,11.13086-9.22559,6.46875,0,11.7334,2.75781,11.7334,8.42383,0,3.60938-2.40723,7.01953-5.81641,8.37305v.0498ZM58.77441,70.42285c0,2.8584,2.45703,4.96387,5.31543,4.96387,2.85742,0,5.01367-1.80469,5.01367-4.66309,0-2.70703-1.75488-4.71289-5.86621-6.06641-3.15918,1.50391-4.46289,3.30957-4.46289,5.76562ZM68.50195,53.97754c0-2.00586-1.15332-4.3623-4.3623-4.3623-2.35645,0-5.06445,1.30371-5.06445,4.21191,0,2.20605,1.60449,3.86035,5.51562,5.26465,1.85547-.65234,3.91113-2.80859,3.91113-5.11426Z"/>
    </g>
  </symbol>
  <symbol id="OH19" viewBox="0 0 100 100">
    <path fill="#0085ce" d="M50,0C82.5,0,100,17.5,100,50s-17.5,50-50,50S0,82.5,0,50,17.5,0,50,0Z"/>
    <path fill="#fff" d="M50,91.25c-27.75684,0-41.25-13.49316-41.25-41.25S22.24316,8.75,50,8.75s41.25,13.49316,41.25,41.25-13.49316,41.25-41.25,41.25Z"/>
    <g>
      <path fill="#0085ce" d="M29.85645,28.06641c0-6.33301,3.63965-10.28711,9.80078-10.28711,5.87402,0,9.7998,3.81152,9.7998,10.28711,0,6.44824-3.83984,10.40234-9.7998,10.40234-6.19043,0-9.80078-4.01172-9.80078-10.40234ZM45.27344,28.06641c0-3.66797-1.71973-7.13477-5.64551-7.13477-3.61035,0-5.58789,3.15234-5.58789,7.13477,0,4.24121,1.94922,7.25,5.61719,7.25,3.69629,0,5.61621-3.03711,5.61621-7.25Z"/>
      <path fill="#0085ce" d="M65.1582,38.125v-8.76855h-8.02344v8.76855h-4.01172v-20.00195h4.01172v8.08105h8.02344v-8.08105h4.01172v20.00195h-4.01172Z"/>
    </g>
    <g>
      <path fill="#0085ce" d="M35.50732,80v-27.02539l-5.91699,4.81348-3.50977-4.56348,10.22852-8.22266h6.21777v34.99805h-7.01953Z"/>
      <path fill="#0085ce" d="M69.2041,64.15527c-1.65527,2.45703-3.81055,3.50977-6.76953,3.50977-6.71875,0-10.22852-4.31152-10.22852-10.67969,0-8.02246,4.11133-12.58496,11.63281-12.58496,7.77148,0,11.88281,5.11426,11.88281,16.2959,0,10.87988-3.91016,19.90527-14.38965,19.90527-2.55762,0-4.96387-.40137-7.37109-1.25293l.90234-5.66602c1.95605.85254,3.86133,1.40332,6.11719,1.40332,5.06445,0,8.02246-4.01074,8.32324-10.83008l-.09961-.10059ZM68.70215,55.83203c0-3.25879-1.35352-6.2168-4.91309-6.2168-2.95898,0-4.56348,2.80762-4.56348,6.26758,0,3.55957,1.50488,6.56836,4.76367,6.56836,3.45996,0,4.71289-3.20898,4.71289-6.61914Z"/>
    </g>
  </symbol>
  <symbol id="OH20" viewBox="0 0 100 100">
    <path fill="#0085ce" d="M50,0C82.5,0,100,17.5,100,50s-17.5,50-50,50S0,82.5,0,50,17.5,0,50,0Z"/>
    <path fill="#fff" d="M50,91.25c-27.75684,0-41.25-13.49316-41.25-41.25S22.24316,8.75,50,8.75s41.25,13.49316,41.25,41.25-13.49316,41.25-41.25,41.25Z"/>
    <g>
      <path fill="#0085ce" d="M29.85645,28.06641c0-6.33301,3.63965-10.28711,9.80078-10.28711,5.87402,0,9.7998,3.81152,9.7998,10.28711,0,6.44824-3.83984,10.40234-9.7998,10.40234-6.19043,0-9.80078-4.01172-9.80078-10.40234ZM45.27344,28.06641c0-3.66797-1.71973-7.13477-5.64551-7.13477-3.61035,0-5.58789,3.15234-5.58789,7.13477,0,4.24121,1.94922,7.25,5.61719,7.25,3.69629,0,5.61621-3.03711,5.61621-7.25Z"/>
      <path fill="#0085ce" d="M65.1582,38.125v-8.76855h-8.02344v8.76855h-4.01172v-20.00195h4.01172v8.08105h8.02344v-8.08105h4.01172v20.00195h-4.01172Z"/>
    </g>
    <g>
      <path fill="#0085ce" d="M24.17529,80v-5.86621l4.21191-3.91113c6.71875-6.26758,10.93066-11.7832,10.93066-15.59375,0-3.00879-2.60742-4.71289-5.71582-4.71289-2.40723,0-5.06445.85254-8.07324,2.80762l-.55078-5.81641c3.20898-1.60449,6.76855-2.50684,10.37891-2.50684,6.96973,0,10.98047,3.66016,10.98047,10.22852,0,4.86328-2.80762,10.17871-13.18652,19.85547h14.29004v5.51562h-23.26562Z"/>
      <path fill="#0085ce" d="M51.75488,62.60156c0-11.03125,3.96094-18.20117,12.13379-18.20117,8.02246,0,12.23438,6.31738,12.23438,18.20117,0,11.63184-4.21191,18-12.23438,18-7.97168,0-12.13379-5.71582-12.13379-18ZM69.10352,62.60156c0-5.26465-.15039-12.98633-5.26465-12.98633-4.76367,0-5.06445,7.4209-5.06445,12.83594,0,5.61523.20117,12.93555,5.11426,12.93555,5.06445,0,5.21484-7.57129,5.21484-12.78516Z"/>
    </g>
  </symbol>
  <symbol id="OH21" viewBox="0 0 100 100">
    <path fill="#0085ce" d="M50,0C82.5,0,100,17.5,100,50s-17.5,50-50,50S0,82.5,0,50,17.5,0,50,0Z"/>
    <path fill="#fff" d="M50,91.25c-27.75684,0-41.25-13.49316-41.25-41.25S22.24316,8.75,50,8.75s41.25,13.49316,41.25,41.25-13.49316,41.25-41.25,41.25Z"/>
    <g>
      <path fill="#0085ce" d="M29.85645,28.06641c0-6.33301,3.63965-10.28711,9.80078-10.28711,5.87402,0,9.7998,3.81152,9.7998,10.28711,0,6.44824-3.83984,10.40234-9.7998,10.40234-6.19043,0-9.80078-4.01172-9.80078-10.40234ZM45.27344,28.06641c0-3.66797-1.71973-7.13477-5.64551-7.13477-3.61035,0-5.58789,3.15234-5.58789,7.13477,0,4.24121,1.94922,7.25,5.61719,7.25,3.69629,0,5.61621-3.03711,5.61621-7.25Z"/>
      <path fill="#0085ce" d="M65.1582,38.125v-8.76855h-8.02344v8.76855h-4.01172v-20.00195h4.01172v8.08105h8.02344v-8.08105h4.01172v20.00195h-4.01172Z"/>
    </g>
    <g>
      <path fill="#0085ce" d="M24.17529,80v-5.86621l4.21191-3.91113c6.71875-6.26758,10.93066-11.7832,10.93066-15.59375,0-3.00879-2.60742-4.71289-5.71582-4.71289-2.40723,0-5.06445.85254-8.07324,2.80762l-.55078-5.81641c3.20898-1.60449,6.76855-2.50684,10.37891-2.50684,6.96973,0,10.98047,3.66016,10.98047,10.22852,0,4.86328-2.80762,10.17871-13.18652,19.85547h14.29004v5.51562h-23.26562Z"/>
      <path fill="#0085ce" d="M63.3877,80v-27.02539l-5.91699,4.81348-3.50977-4.56348,10.22852-8.22266h6.21777v34.99805h-7.01953Z"/>
    </g>
  </symbol>
  <symbol id="OH22" viewBox="0 0 100 100">
    <path fill="#0085ce" d="M50,0C82.5,0,100,17.5,100,50s-17.5,50-50,50S0,82.5,0,50,17.5,0,50,0Z"/>
    <path fill="#fff" d="M50,91.25c-27.75684,0-41.25-13.49316-41.25-41.25S22.24316,8.75,50,8.75s41.25,13.49316,41.25,41.25-13.49316,41.25-41.25,41.25Z"/>
    <g>
      <path fill="#0085ce" d="M29.85645,28.06641c0-6.33301,3.63965-10.28711,9.80078-10.28711,5.87402,0,9.7998,3.81152,9.7998,10.28711,0,6.44824-3.83984,10.40234-9.7998,10.40234-6.19043,0-9.80078-4.01172-9.80078-10.40234ZM45.27344,28.06641c0-3.66797-1.71973-7.13477-5.64551-7.13477-3.61035,0-5.58789,3.15234-5.58789,7.13477,0,4.24121,1.94922,7.25,5.61719,7.25,3.69629,0,5.61621-3.03711,5.61621-7.25Z"/>
      <path fill="#0085ce" d="M65.1582,38.125v-8.76855h-8.02344v8.76855h-4.01172v-20.00195h4.01172v8.08105h8.02344v-8.08105h4.01172v20.00195h-4.01172Z"/>
    </g>
    <g>
      <path fill="#0085ce" d="M24.17529,80v-5.86621l4.21191-3.91113c6.71875-6.26758,10.93066-11.7832,10.93066-15.59375,0-3.00879-2.60742-4.71289-5.71582-4.71289-2.40723,0-5.06445.85254-8.07324,2.80762l-.55078-5.81641c3.20898-1.60449,6.76855-2.50684,10.37891-2.50684,6.96973,0,10.98047,3.66016,10.98047,10.22852,0,4.86328-2.80762,10.17871-13.18652,19.85547h14.29004v5.51562h-23.26562Z"/>
      <path fill="#0085ce" d="M52.05566,80v-5.86621l4.21191-3.91113c6.71875-6.26758,10.93066-11.7832,10.93066-15.59375,0-3.00879-2.60742-4.71289-5.71582-4.71289-2.40723,0-5.06445.85254-8.07324,2.80762l-.55078-5.81641c3.20898-1.60449,6.76855-2.50684,10.37891-2.50684,6.96973,0,10.98047,3.66016,10.98047,10.22852,0,4.86328-2.80762,10.17871-13.18652,19.85547h14.29004v5.51562h-23.26562Z"/>
    </g>
  </symbol>
  <symbol id="OH23" viewBox="0 0 100 100">
    <path fill="#0085ce" d="M50,0C82.5,0,100,17.5,100,50s-17.5,50-50,50S0,82.5,0,50,17.5,0,50,0Z"/>
    <path fill="#fff" d="M50,91.25c-27.75684,0-41.25-13.49316-41.25-41.25S22.24316,8.75,50,8.75s41.25,13.49316,41.25,41.25-13.49316,41.25-41.25,41.25Z"/>
    <g>
      <path fill="#0085ce" d="M29.85645,28.06641c0-6.33301,3.63965-10.28711,9.80078-10.28711,5.87402,0,9.7998,3.81152,9.7998,10.28711,0,6.44824-3.83984,10.40234-9.7998,10.40234-6.19043,0-9.80078-4.01172-9.80078-10.40234ZM45.27344,28.06641c0-3.66797-1.71973-7.13477-5.64551-7.13477-3.61035,0-5.58789,3.15234-5.58789,7.13477,0,4.24121,1.94922,7.25,5.61719,7.25,3.69629,0,5.61621-3.03711,5.61621-7.25Z"/>
      <path fill="#0085ce" d="M65.1582,38.125v-8.76855h-8.02344v8.76855h-4.01172v-20.00195h4.01172v8.08105h8.02344v-8.08105h4.01172v20.00195h-4.01172Z"/>
    </g>
    <g>
      <path fill="#0085ce" d="M24.17529,80v-5.86621l4.21191-3.91113c6.71875-6.26758,10.93066-11.7832,10.93066-15.59375,0-3.00879-2.60742-4.71289-5.71582-4.71289-2.40723,0-5.06445.85254-8.07324,2.80762l-.55078-5.81641c3.20898-1.60449,6.76855-2.50684,10.37891-2.50684,6.96973,0,10.98047,3.66016,10.98047,10.22852,0,4.86328-2.80762,10.17871-13.18652,19.85547h14.29004v5.51562h-23.26562Z"/>
      <path fill="#0085ce" d="M52.65723,73.48145c2.55762,1.00293,5.11426,1.60449,7.72168,1.60449,3.35938,0,7.4209-1.60449,7.4209-4.96387,0-3.66016-2.60742-5.46484-7.67188-5.46484h-3.45898v-5.51562h3.40918c4.46289,0,7.57129-1.60449,7.57129-4.61328,0-3.00781-2.10547-4.6123-6.06738-4.6123-2.65723,0-5.36426.65137-7.82129,1.85449l-.40137-5.61523c2.80762-1.10352,6.16699-1.75488,9.72754-1.75488,5.71582,0,11.58203,2.30664,11.58203,8.97461,0,4.01172-2.05566,6.66895-6.51855,8.37402v.10059c4.21191.55078,6.66895,3.75977,6.66895,8.32324,0,7.01953-5.51562,10.42871-13.4873,10.42871-3.00879,0-6.41797-.40137-9.07617-1.15332l.40137-5.9668Z"/>
    </g>
  </symbol>
  <symbol id="OH24" viewBox="0 0 100 100">
    <path fill="#0085ce" d="M50,0C82.5,0,100,17.5,100,50s-17.5,50-50,50S0,82.5,0,50,17.5,0,50,0Z"/>
    <path fill="#fff" d="M50,91.25c-27.75684,0-41.25-13.49316-41.25-41.25S22.24316,8.75,50,8.75s41.25,13.49316,41.25,41.25-13.49316,41.25-41.25,41.25Z"/>
    <g>
      <path fill="#0085ce" d="M29.85645,28.06641c0-6.33301,3.63965-10.28711,9.80078-10.28711,5.87402,0,9.7998,3.81152,9.7998,10.28711,0,6.44824-3.83984,10.40234-9.7998,10.40234-6.19043,0-9.80078-4.01172-9.80078-10.40234ZM45.27344,28.06641c0-3.66797-1.71973-7.13477-5.64551-7.13477-3.61035,0-5.58789,3.15234-5.58789,7.13477,0,4.24121,1.94922,7.25,5.61719,7.25,3.69629,0,5.61621-3.03711,5.61621-7.25Z"/>
      <path fill="#0085ce" d="M65.1582,38.125v-8.76855h-8.02344v8.76855h-4.01172v-20.00195h4.01172v8.08105h8.02344v-8.08105h4.01172v20.00195h-4.01172Z"/>
    </g>
    <g>
      <path fill="#0085ce" d="M24.17529,80v-5.86621l4.21191-3.91113c6.71875-6.26758,10.93066-11.7832,10.93066-15.59375,0-3.00879-2.60742-4.71289-5.71582-4.71289-2.40723,0-5.06445.85254-8.07324,2.80762l-.55078-5.81641c3.20898-1.60449,6.76855-2.50684,10.37891-2.50684,6.96973,0,10.98047,3.66016,10.98047,10.22852,0,4.86328-2.80762,10.17871-13.18652,19.85547h14.29004v5.51562h-23.26562Z"/>
      <path fill="#0085ce" d="M65.89453,80v-7.27051h-15.0918v-5.66602l13.08594-22.06152h8.72461v22.5127h4.46289v5.21484h-4.46289v7.27051h-6.71875ZM65.89453,52.32227h-.10059l-8.67383,15.19238h8.77441v-15.19238Z"/>
    </g>
  </symbol>
  <symbol id="OH25" viewBox="0 0 100 100">
    <path fill="#0085ce" d="M50,0C82.5,0,100,17.5,100,50s-17.5,50-50,50S0,82.5,0,50,17.5,0,50,0Z"/>
    <path fill="#fff" d="M50,91.25c-27.75684,0-41.25-13.49316-41.25-41.25S22.24316,8.75,50,8.75s41.25,13.49316,41.25,41.25-13.49316,41.25-41.25,41.25Z"/>
    <g>
      <path fill="#0085ce" d="M29.85645,28.06641c0-6.33301,3.63965-10.28711,9.80078-10.28711,5.87402,0,9.7998,3.81152,9.7998,10.28711,0,6.44824-3.83984,10.40234-9.7998,10.40234-6.19043,0-9.80078-4.01172-9.80078-10.40234ZM45.27344,28.06641c0-3.66797-1.71973-7.13477-5.64551-7.13477-3.61035,0-5.58789,3.15234-5.58789,7.13477,0,4.24121,1.94922,7.25,5.61719,7.25,3.69629,0,5.61621-3.03711,5.61621-7.25Z"/>
      <path fill="#0085ce" d="M65.1582,38.125v-8.76855h-8.02344v8.76855h-4.01172v-20.00195h4.01172v8.08105h8.02344v-8.08105h4.01172v20.00195h-4.01172Z"/>
    </g>
    <g>
      <path fill="#0085ce" d="M24.17529,80v-5.86621l4.21191-3.91113c6.71875-6.26758,10.93066-11.7832,10.93066-15.59375,0-3.00879-2.60742-4.71289-5.71582-4.71289-2.40723,0-5.06445.85254-8.07324,2.80762l-.55078-5.81641c3.20898-1.60449,6.76855-2.50684,10.37891-2.50684,6.96973,0,10.98047,3.66016,10.98047,10.22852,0,4.86328-2.80762,10.17871-13.18652,19.85547h14.29004v5.51562h-23.26562Z"/>
      <path fill="#0085ce" d="M53.76074,73.33105c2.9082,1.25391,5.06348,1.75488,7.06934,1.75488,4.46289,0,7.57129-2.20605,7.57129-6.16699,0-3.86035-3.05859-6.06738-8.02246-6.06738-2.15625,0-4.21191.30078-6.26758.95312l.35156-18.80273h20.10547v5.21484h-13.4873l-.15039,7.4707c1.20312-.2002,1.95508-.35059,3.20898-.35059,6.26758,0,11.28125,3.45898,11.28125,11.33105,0,7.16992-5.21387,11.93359-13.6377,11.93359-2.25684,0-5.51562-.35059-8.17285-1.00293l.15039-6.26758Z"/>
    </g>
  </symbol>
  <symbol id="OH26" viewBox="0 0 100 100">
    <path fill="#0085ce" d="M50,0C82.5,0,100,17.5,100,50s-17.5,50-50,50S0,82.5,0,50,17.5,0,50,0Z"/>
    <path fill="#fff" d="M50,91.25c-27.75684,0-41.25-13.49316-41.25-41.25S22.24316,8.75,50,8.75s41.25,13.49316,41.25,41.25-13.49316,41.25-41.25,41.25Z"/>
    <g>
      <path fill="#0085ce" d="M29.85645,28.06641c0-6.33301,3.63965-10.28711,9.80078-10.28711,5.87402,0,9.7998,3.81152,9.7998,10.28711,0,6.44824-3.83984,10.40234-9.7998,10.40234-6.19043,0-9.80078-4.01172-9.80078-10.40234ZM45.27344,28.06641c0-3.66797-1.71973-7.13477-5.64551-7.13477-3.61035,0-5.58789,3.15234-5.58789,7.13477,0,4.24121,1.94922,7.25,5.61719,7.25,3.69629,0,5.61621-3.03711,5.61621-7.25Z"/>
      <path fill="#0085ce" d="M65.1582,38.125v-8.76855h-8.02344v8.76855h-4.01172v-20.00195h4.01172v8.08105h8.02344v-8.08105h4.01172v20.00195h-4.01172Z"/>
    </g>
    <g>
      <path fill="#0085ce" d="M24.17529,80v-5.86621l4.21191-3.91113c6.71875-6.26758,10.93066-11.7832,10.93066-15.59375,0-3.00879-2.60742-4.71289-5.71582-4.71289-2.40723,0-5.06445.85254-8.07324,2.80762l-.55078-5.81641c3.20898-1.60449,6.76855-2.50684,10.37891-2.50684,6.96973,0,10.98047,3.66016,10.98047,10.22852,0,4.86328-2.80762,10.17871-13.18652,19.85547h14.29004v5.51562h-23.26562Z"/>
      <path fill="#0085ce" d="M73.06445,51.31934c-1.75488-.75195-3.66016-1.40332-6.11719-1.40332-5.56543,0-8.07227,4.7627-8.32324,10.83008l.10059.10059c1.6543-2.40723,3.81055-3.50977,6.81934-3.50977,6.41797,0,10.17773,4.06055,10.17773,10.67969,0,8.02246-4.11133,12.58496-11.63184,12.58496-7.82227,0-11.88379-5.16406-11.88379-16.2959,0-10.72949,3.81055-19.90527,14.39062-19.90527,2.55664,0,4.96387.40137,7.37012,1.25391l-.90234,5.66504ZM68.70215,69.11914c0-3.20898-1.25293-6.56836-4.81348-6.56836-2.9082,0-4.66309,2.45703-4.66309,6.61914,0,3.25879,1.35449,6.2168,4.86426,6.2168,3.35938,0,4.6123-3.30859,4.6123-6.26758Z"/>
    </g>
  </symbol>
  <symbol id="OH27" viewBox="0 0 100 100">
    <path fill="#0085ce" d="M50,0C82.5,0,100,17.5,100,50s-17.5,50-50,50S0,82.5,0,50,17.5,0,50,0Z"/>
    <path fill="#fff" d="M50,91.25c-27.75684,0-41.25-13.49316-41.25-41.25S22.24316,8.75,50,8.75s41.25,13.49316,41.25,41.25-13.49316,41.25-41.25,41.25Z"/>
    <g>
      <path fill="#0085ce" d="M29.85645,28.06641c0-6.33301,3.63965-10.28711,9.80078-10.28711,5.87402,0,9.7998,3.81152,9.7998,10.28711,0,6.44824-3.83984,10.40234-9.7998,10.40234-6.19043,0-9.80078-4.01172-9.80078-10.40234ZM45.27344,28.06641c0-3.66797-1.71973-7.13477-5.64551-7.13477-3.61035,0-5.58789,3.15234-5.58789,7.13477,0,4.24121,1.94922,7.25,5.61719,7.25,3.69629,0,5.61621-3.03711,5.61621-7.25Z"/>
      <path fill="#0085ce" d="M65.1582,38.125v-8.76855h-8.02344v8.76855h-4.01172v-20.00195h4.01172v8.08105h8.02344v-8.08105h4.01172v20.00195h-4.01172Z"/>
    </g>
    <g>
      <path fill="#0085ce" d="M24.17529,80v-5.86621l4.21191-3.91113c6.71875-6.26758,10.93066-11.7832,10.93066-15.59375,0-3.00879-2.60742-4.71289-5.71582-4.71289-2.40723,0-5.06445.85254-8.07324,2.80762l-.55078-5.81641c3.20898-1.60449,6.76855-2.50684,10.37891-2.50684,6.96973,0,10.98047,3.66016,10.98047,10.22852,0,4.86328-2.80762,10.17871-13.18652,19.85547h14.29004v5.51562h-23.26562Z"/>
      <path fill="#0085ce" d="M55.01367,80l12.98633-29.48242h-15.49316v-5.51562h22.56348v5.81641l-12.43457,29.18164h-7.62207Z"/>
    </g>
  </symbol>
  <symbol id="OH28" viewBox="0 0 100 100">
    <path fill="#0085ce" d="M50,0C82.5,0,100,17.5,100,50s-17.5,50-50,50S0,82.5,0,50,17.5,0,50,0Z"/>
    <path fill="#fff" d="M50,91.25c-27.75684,0-41.25-13.49316-41.25-41.25S22.24316,8.75,50,8.75s41.25,13.49316,41.25,41.25-13.49316,41.25-41.25,41.25Z"/>
    <g>
      <path fill="#0085ce" d="M29.85645,28.06641c0-6.33301,3.63965-10.28711,9.80078-10.28711,5.87402,0,9.7998,3.81152,9.7998,10.28711,0,6.44824-3.83984,10.40234-9.7998,10.40234-6.19043,0-9.80078-4.01172-9.80078-10.40234ZM45.27344,28.06641c0-3.66797-1.71973-7.13477-5.64551-7.13477-3.61035,0-5.58789,3.15234-5.58789,7.13477,0,4.24121,1.94922,7.25,5.61719,7.25,3.69629,0,5.61621-3.03711,5.61621-7.25Z"/>
      <path fill="#0085ce" d="M65.1582,38.125v-8.76855h-8.02344v8.76855h-4.01172v-20.00195h4.01172v8.08105h8.02344v-8.08105h4.01172v20.00195h-4.01172Z"/>
    </g>
    <g>
      <path fill="#0085ce" d="M24.17529,80v-5.86621l4.21191-3.91113c6.71875-6.26758,10.93066-11.7832,10.93066-15.59375,0-3.00879-2.60742-4.71289-5.71582-4.71289-2.40723,0-5.06445.85254-8.07324,2.80762l-.55078-5.81641c3.20898-1.60449,6.76855-2.50684,10.37891-2.50684,6.96973,0,10.98047,3.66016,10.98047,10.22852,0,4.86328-2.80762,10.17871-13.18652,19.85547h14.29004v5.51562h-23.26562Z"/>
      <path fill="#0085ce" d="M69.4043,61.24707c4.5127,2.10645,6.71875,5.06445,6.71875,9.22656,0,6.46777-4.46289,10.12793-12.0332,10.12793-7.52148,0-12.33496-3.50977-12.33496-10.02832,0-3.91016,2.10547-6.61816,6.41797-8.72363v-.10059c-4.11133-1.85547-5.81641-5.01465-5.81641-8.12305,0-6.11719,4.5625-9.22559,11.13086-9.22559,6.46875,0,11.7334,2.75781,11.7334,8.42383,0,3.60938-2.40723,7.01953-5.81641,8.37305v.0498ZM58.77441,70.42285c0,2.8584,2.45703,4.96387,5.31543,4.96387,2.85742,0,5.01367-1.80469,5.01367-4.66309,0-2.70703-1.75488-4.71289-5.86621-6.06641-3.15918,1.50391-4.46289,3.30957-4.46289,5.76562ZM68.50195,53.97754c0-2.00586-1.15332-4.3623-4.3623-4.3623-2.35645,0-5.06445,1.30371-5.06445,4.21191,0,2.20605,1.60449,3.86035,5.51562,5.26465,1.85547-.65234,3.91113-2.80859,3.91113-5.11426Z"/>
    </g>
  </symbol>
  <symbol id="OH29" viewBox="0 0 100 100">
    <path fill="#0085ce" d="M50,0C82.5,0,100,17.5,100,50s-17.5,50-50,50S0,82.5,0,50,17.5,0,50,0Z"/>
    <path fill="#fff" d="M50,91.25c-27.75684,0-41.25-13.49316-41.25-41.25S22.24316,8.75,50,8.75s41.25,13.49316,41.25,41.25-13.49316,41.25-41.25,41.25Z"/>
    <g>
      <path fill="#0085ce" d="M29.85645,28.06641c0-6.33301,3.63965-10.28711,9.80078-10.28711,5.87402,0,9.7998,3.81152,9.7998,10.28711,0,6.44824-3.83984,10.40234-9.7998,10.40234-6.19043,0-9.80078-4.01172-9.80078-10.40234ZM45.27344,28.06641c0-3.66797-1.71973-7.13477-5.64551-7.13477-3.61035,0-5.58789,3.15234-5.58789,7.13477,0,4.24121,1.94922,7.25,5.61719,7.25,3.69629,0,5.61621-3.03711,5.61621-7.25Z"/>
      <path fill="#0085ce" d="M65.1582,38.125v-8.76855h-8.02344v8.76855h-4.01172v-20.00195h4.01172v8.08105h8.02344v-8.08105h4.01172v20.00195h-4.01172Z"/>
    </g>
    <g>
      <path fill="#0085ce" d="M24.17529,80v-5.86621l4.21191-3.91113c6.71875-6.26758,10.93066-11.7832,10.93066-15.59375,0-3.00879-2.60742-4.71289-5.71582-4.71289-2.40723,0-5.06445.85254-8.07324,2.80762l-.55078-5.81641c3.20898-1.60449,6.76855-2.50684,10.37891-2.50684,6.96973,0,10.98047,3.66016,10.98047,10.22852,0,4.86328-2.80762,10.17871-13.18652,19.85547h14.29004v5.51562h-23.26562Z"/>
      <path fill="#0085ce" d="M69.2041,64.15527c-1.65527,2.45703-3.81055,3.50977-6.76953,3.50977-6.71875,0-10.22852-4.31152-10.22852-10.67969,0-8.02246,4.11133-12.58496,11.63281-12.58496,7.77148,0,11.88281,5.11426,11.88281,16.2959,0,10.87988-3.91016,19.90527-14.38965,19.90527-2.55762,0-4.96387-.40137-7.37109-1.25293l.90234-5.66602c1.95605.85254,3.86133,1.40332,6.11719,1.40332,5.06445,0,8.02246-4.01074,8.32324-10.83008l-.09961-.10059ZM68.70215,55.83203c0-3.25879-1.35352-6.2168-4.91309-6.2168-2.95898,0-4.56348,2.80762-4.56348,6.26758,0,3.55957,1.50488,6.56836,4.76367,6.56836,3.45996,0,4.71289-3.20898,4.71289-6.61914Z"/>
    </g>
  </symbol>
  <symbol id="OH30" viewBox="0 0 100 100">
    <path fill="#0085ce" d="M50,0C82.5,0,100,17.5,100,50s-17.5,50-50,50S0,82.5,0,50,17.5,0,50,0Z"/>
    <path fill="#fff" d="M50,91.25c-27.75684,0-41.25-13.49316-41.25-41.25S22.24316,8.75,50,8.75s41.25,13.49316,41.25,41.25-13.49316,41.25-41.25,41.25Z"/>
    <g>
      <path fill="#0085ce" d="M29.85645,28.06641c0-6.33301,3.63965-10.28711,9.80078-10.28711,5.87402,0,9.7998,3.81152,9.7998,10.28711,0,6.44824-3.83984,10.40234-9.7998,10.40234-6.19043,0-9.80078-4.01172-9.80078-10.40234ZM45.27344,28.06641c0-3.66797-1.71973-7.13477-5.64551-7.13477-3.61035,0-5.58789,3.15234-5.58789,7.13477,0,4.24121,1.94922,7.25,5.61719,7.25,3.69629,0,5.61621-3.03711,5.61621-7.25Z"/>
      <path fill="#0085ce" d="M65.1582,38.125v-8.76855h-8.02344v8.76855h-4.01172v-20.00195h4.01172v8.08105h8.02344v-8.08105h4.01172v20.00195h-4.01172Z"/>
    </g>
    <g>
      <path fill="#0085ce" d="M24.77686,73.48145c2.55762,1.00293,5.11426,1.60449,7.72168,1.60449,3.35938,0,7.4209-1.60449,7.4209-4.96387,0-3.66016-2.60742-5.46484-7.67188-5.46484h-3.45898v-5.51562h3.40918c4.46289,0,7.57129-1.60449,7.57129-4.61328,0-3.00781-2.10547-4.6123-6.06738-4.6123-2.65723,0-5.36426.65137-7.82129,1.85449l-.40137-5.61523c2.80762-1.10352,6.16699-1.75488,9.72754-1.75488,5.71582,0,11.58203,2.30664,11.58203,8.97461,0,4.01172-2.05566,6.66895-6.51855,8.37402v.10059c4.21191.55078,6.66895,3.75977,6.66895,8.32324,0,7.01953-5.51562,10.42871-13.4873,10.42871-3.00879,0-6.41797-.40137-9.07617-1.15332l.40137-5.9668Z"/>
      <path fill="#0085ce" d="M51.75488,62.60156c0-11.03125,3.96094-18.20117,12.13379-18.20117,8.02246,0,12.23438,6.31738,12.23438,18.20117,0,11.63184-4.21191,18-12.23438,18-7.97168,0-12.13379-5.71582-12.13379-18ZM69.10352,62.60156c0-5.26465-.15039-12.98633-5.26465-12.98633-4.76367,0-5.06445,7.4209-5.06445,12.83594,0,5.61523.20117,12.93555,5.11426,12.93555,5.06445,0,5.21484-7.57129,5.21484-12.78516Z"/>
    </g>
  </symbol>
  <symbol id="OH31" viewBox="0 0 100 100">
    <path fill="#0085ce" d="M50,0C82.5,0,100,17.5,100,50s-17.5,50-50,50S0,82.5,0,50,17.5,0,50,0Z"/>
    <path fill="#fff" d="M50,91.25c-27.75684,0-41.25-13.49316-41.25-41.25S22.24316,8.75,50,8.75s41.25,13.49316,41.25,41.25-13.49316,41.25-41.25,41.25Z"/>
    <g>
      <path fill="#0085ce" d="M29.85645,28.06641c0-6.33301,3.63965-10.28711,9.80078-10.28711,5.87402,0,9.7998,3.81152,9.7998,10.28711,0,6.44824-3.83984,10.40234-9.7998,10.40234-6.19043,0-9.80078-4.01172-9.80078-10.40234ZM45.27344,28.06641c0-3.66797-1.71973-7.13477-5.64551-7.13477-3.61035,0-5.58789,3.15234-5.58789,7.13477,0,4.24121,1.94922,7.25,5.61719,7.25,3.69629,0,5.61621-3.03711,5.61621-7.25Z"/>
      <path fill="#0085ce" d="M65.1582,38.125v-8.76855h-8.02344v8.76855h-4.01172v-20.00195h4.01172v8.08105h8.02344v-8.08105h4.01172v20.00195h-4.01172Z"/>
    </g>
    <g>
      <path fill="#0085ce" d="M24.77686,73.48145c2.55762,1.00293,5.11426,1.60449,7.72168,1.60449,3.35938,0,7.4209-1.60449,7.4209-4.96387,0-3.66016-2.60742-5.46484-7.67188-5.46484h-3.45898v-5.51562h3.40918c4.46289,0,7.57129-1.60449,7.57129-4.61328,0-3.00781-2.10547-4.6123-6.06738-4.6123-2.65723,0-5.36426.65137-7.82129,1.85449l-.40137-5.61523c2.80762-1.10352,6.16699-1.75488,9.72754-1.75488,5.71582,0,11.58203,2.30664,11.58203,8.97461,0,4.01172-2.05566,6.66895-6.51855,8.37402v.10059c4.21191.55078,6.66895,3.75977,6.66895,8.32324,0,7.01953-5.51562,10.42871-13.4873,10.42871-3.00879,0-6.41797-.40137-9.07617-1.15332l.40137-5.9668Z"/>
      <path fill="#0085ce" d="M63.3877,80v-27.02539l-5.91699,4.81348-3.50977-4.56348,10.22852-8.22266h6.21777v34.99805h-7.01953Z"/>
    </g>
  </symbol>
  <symbol id="OH32" viewBox="0 0 100 100">
    <path fill="#0085ce" d="M50,0C82.5,0,100,17.5,100,50s-17.5,50-50,50S0,82.5,0,50,17.5,0,50,0Z"/>
    <path fill="#fff" d="M50,91.25c-27.75684,0-41.25-13.49316-41.25-41.25S22.24316,8.75,50,8.75s41.25,13.49316,41.25,41.25-13.49316,41.25-41.25,41.25Z"/>
    <g>
      <path fill="#0085ce" d="M29.85645,28.06641c0-6.33301,3.63965-10.28711,9.80078-10.28711,5.87402,0,9.7998,3.81152,9.7998,10.28711,0,6.44824-3.83984,10.40234-9.7998,10.40234-6.19043,0-9.80078-4.01172-9.80078-10.40234ZM45.27344,28.06641c0-3.66797-1.71973-7.13477-5.64551-7.13477-3.61035,0-5.58789,3.15234-5.58789,7.13477,0,4.24121,1.94922,7.25,5.61719,7.25,3.69629,0,5.61621-3.03711,5.61621-7.25Z"/>
      <path fill="#0085ce" d="M65.1582,38.125v-8.76855h-8.02344v8.76855h-4.01172v-20.00195h4.01172v8.08105h8.02344v-8.08105h4.01172v20.00195h-4.01172Z"/>
    </g>
    <g>
      <path fill="#0085ce" d="M24.77686,73.48145c2.55762,1.00293,5.11426,1.60449,7.72168,1.60449,3.35938,0,7.4209-1.60449,7.4209-4.96387,0-3.66016-2.60742-5.46484-7.67188-5.46484h-3.45898v-5.51562h3.40918c4.46289,0,7.57129-1.60449,7.57129-4.61328,0-3.00781-2.10547-4.6123-6.06738-4.6123-2.65723,0-5.36426.65137-7.82129,1.85449l-.40137-5.61523c2.80762-1.10352,6.16699-1.75488,9.72754-1.75488,5.71582,0,11.58203,2.30664,11.58203,8.97461,0,4.01172-2.05566,6.66895-6.51855,8.37402v.10059c4.21191.55078,6.66895,3.75977,6.66895,8.32324,0,7.01953-5.51562,10.42871-13.4873,10.42871-3.00879,0-6.41797-.40137-9.07617-1.15332l.40137-5.9668Z"/>
      <path fill="#0085ce" d="M52.05566,80v-5.86621l4.21191-3.91113c6.71875-6.26758,10.93066-11.7832,10.93066-15.59375,0-3.00879-2.60742-4.71289-5.71582-4.71289-2.40723,0-5.06445.85254-8.07324,2.80762l-.55078-5.81641c3.20898-1.60449,6.76855-2.50684,10.37891-2.50684,6.96973,0,10.98047,3.66016,10.98047,10.22852,0,4.86328-2.80762,10.17871-13.18652,19.85547h14.29004v5.51562h-23.26562Z"/>
    </g>
  </symbol>
  <symbol id="OH33" viewBox="0 0 100 100">
    <path fill="#0085ce" d="M50,0C82.5,0,100,17.5,100,50s-17.5,50-50,50S0,82.5,0,50,17.5,0,50,0Z"/>
    <path fill="#fff" d="M50,91.25c-27.75684,0-41.25-13.49316-41.25-41.25S22.24316,8.75,50,8.75s41.25,13.49316,41.25,41.25-13.49316,41.25-41.25,41.25Z"/>
    <g>
      <path fill="#0085ce" d="M29.85645,28.06641c0-6.33301,3.63965-10.28711,9.80078-10.28711,5.87402,0,9.7998,3.81152,9.7998,10.28711,0,6.44824-3.83984,10.40234-9.7998,10.40234-6.19043,0-9.80078-4.01172-9.80078-10.40234ZM45.27344,28.06641c0-3.66797-1.71973-7.13477-5.64551-7.13477-3.61035,0-5.58789,3.15234-5.58789,7.13477,0,4.24121,1.94922,7.25,5.61719,7.25,3.69629,0,5.61621-3.03711,5.61621-7.25Z"/>
      <path fill="#0085ce" d="M65.1582,38.125v-8.76855h-8.02344v8.76855h-4.01172v-20.00195h4.01172v8.08105h8.02344v-8.08105h4.01172v20.00195h-4.01172Z"/>
    </g>
    <g>
      <path fill="#0085ce" d="M24.77686,73.48145c2.55762,1.00293,5.11426,1.60449,7.72168,1.60449,3.35938,0,7.4209-1.60449,7.4209-4.96387,0-3.66016-2.60742-5.46484-7.67188-5.46484h-3.45898v-5.51562h3.40918c4.46289,0,7.57129-1.60449,7.57129-4.61328,0-3.00781-2.10547-4.6123-6.06738-4.6123-2.65723,0-5.36426.65137-7.82129,1.85449l-.40137-5.61523c2.80762-1.10352,6.16699-1.75488,9.72754-1.75488,5.71582,0,11.58203,2.30664,11.58203,8.97461,0,4.01172-2.05566,6.66895-6.51855,8.37402v.10059c4.21191.55078,6.66895,3.75977,6.66895,8.32324,0,7.01953-5.51562,10.42871-13.4873,10.42871-3.00879,0-6.41797-.40137-9.07617-1.15332l.40137-5.9668Z"/>
      <path fill="#0085ce" d="M52.65723,73.48145c2.55762,1.00293,5.11426,1.60449,7.72168,1.60449,3.35938,0,7.4209-1.60449,7.4209-4.96387,0-3.66016-2.60742-5.46484-7.67188-5.46484h-3.45898v-5.51562h3.40918c4.46289,0,7.57129-1.60449,7.57129-4.61328,0-3.00781-2.10547-4.6123-6.06738-4.6123-2.65723,0-5.36426.65137-7.82129,1.85449l-.40137-5.61523c2.80762-1.10352,6.16699-1.75488,9.72754-1.75488,5.71582,0,11.58203,2.30664,11.58203,8.97461,0,4.01172-2.05566,6.66895-6.51855,8.37402v.10059c4.21191.55078,6.66895,3.75977,6.66895,8.32324,0,7.01953-5.51562,10.42871-13.4873,10.42871-3.00879,0-6.41797-.40137-9.07617-1.15332l.40137-5.9668Z"/>
    </g>
  </symbol>
  <symbol id="OH34" viewBox="0 0 100 100">
    <path fill="#0085ce" d="M50,0C82.5,0,100,17.5,100,50s-17.5,50-50,50S0,82.5,0,50,17.5,0,50,0Z"/>
    <path fill="#fff" d="M50,91.25c-27.75684,0-41.25-13.49316-41.25-41.25S22.24316,8.75,50,8.75s41.25,13.49316,41.25,41.25-13.49316,41.25-41.25,41.25Z"/>
    <g>
      <path fill="#0085ce" d="M29.85645,28.06641c0-6.33301,3.63965-10.28711,9.80078-10.28711,5.87402,0,9.7998,3.81152,9.7998,10.28711,0,6.44824-3.83984,10.40234-9.7998,10.40234-6.19043,0-9.80078-4.01172-9.80078-10.40234ZM45.27344,28.06641c0-3.66797-1.71973-7.13477-5.64551-7.13477-3.61035,0-5.58789,3.15234-5.58789,7.13477,0,4.24121,1.94922,7.25,5.61719,7.25,3.69629,0,5.61621-3.03711,5.61621-7.25Z"/>
      <path fill="#0085ce" d="M65.1582,38.125v-8.76855h-8.02344v8.76855h-4.01172v-20.00195h4.01172v8.08105h8.02344v-8.08105h4.01172v20.00195h-4.01172Z"/>
    </g>
    <g>
      <path fill="#0085ce" d="M24.77686,73.48145c2.55762,1.00293,5.11426,1.60449,7.72168,1.60449,3.35938,0,7.4209-1.60449,7.4209-4.96387,0-3.66016-2.60742-5.46484-7.67188-5.46484h-3.45898v-5.51562h3.40918c4.46289,0,7.57129-1.60449,7.57129-4.61328,0-3.00781-2.10547-4.6123-6.06738-4.6123-2.65723,0-5.36426.65137-7.82129,1.85449l-.40137-5.61523c2.80762-1.10352,6.16699-1.75488,9.72754-1.75488,5.71582,0,11.58203,2.30664,11.58203,8.97461,0,4.01172-2.05566,6.66895-6.51855,8.37402v.10059c4.21191.55078,6.66895,3.75977,6.66895,8.32324,0,7.01953-5.51562,10.42871-13.4873,10.42871-3.00879,0-6.41797-.40137-9.07617-1.15332l.40137-5.9668Z"/>
      <path fill="#0085ce" d="M65.89453,80v-7.27051h-15.0918v-5.66602l13.08594-22.06152h8.72461v22.5127h4.46289v5.21484h-4.46289v7.27051h-6.71875ZM65.89453,52.32227h-.10059l-8.67383,15.19238h8.77441v-15.19238Z"/>
    </g>
  </symbol>
  <symbol id="OH35" viewBox="0 0 100 100">
    <path fill="#0085ce" d="M50,0C82.5,0,100,17.5,100,50s-17.5,50-50,50S0,82.5,0,50,17.5,0,50,0Z"/>
    <path fill="#fff" d="M50,91.25c-27.75684,0-41.25-13.49316-41.25-41.25S22.24316,8.75,50,8.75s41.25,13.49316,41.25,41.25-13.49316,41.25-41.25,41.25Z"/>
    <g>
      <path fill="#0085ce" d="M29.85645,28.06641c0-6.33301,3.63965-10.28711,9.80078-10.28711,5.87402,0,9.7998,3.81152,9.7998,10.28711,0,6.44824-3.83984,10.40234-9.7998,10.40234-6.19043,0-9.80078-4.01172-9.80078-10.40234ZM45.27344,28.06641c0-3.66797-1.71973-7.13477-5.64551-7.13477-3.61035,0-5.58789,3.15234-5.58789,7.13477,0,4.24121,1.94922,7.25,5.61719,7.25,3.69629,0,5.61621-3.03711,5.61621-7.25Z"/>
      <path fill="#0085ce" d="M65.1582,38.125v-8.76855h-8.02344v8.76855h-4.01172v-20.00195h4.01172v8.08105h8.02344v-8.08105h4.01172v20.00195h-4.01172Z"/>
    </g>
    <g>
      <path fill="#0085ce" d="M24.77686,73.48145c2.55762,1.00293,5.11426,1.60449,7.72168,1.60449,3.35938,0,7.4209-1.60449,7.4209-4.96387,0-3.66016-2.60742-5.46484-7.67188-5.46484h-3.45898v-5.51562h3.40918c4.46289,0,7.57129-1.60449,7.57129-4.61328,0-3.00781-2.10547-4.6123-6.06738-4.6123-2.65723,0-5.36426.65137-7.82129,1.85449l-.40137-5.61523c2.80762-1.10352,6.16699-1.75488,9.72754-1.75488,5.71582,0,11.58203,2.30664,11.58203,8.97461,0,4.01172-2.05566,6.66895-6.51855,8.37402v.10059c4.21191.55078,6.66895,3.75977,6.66895,8.32324,0,7.01953-5.51562,10.42871-13.4873,10.42871-3.00879,0-6.41797-.40137-9.07617-1.15332l.40137-5.9668Z"/>
      <path fill="#0085ce" d="M53.76074,73.33105c2.9082,1.25391,5.06348,1.75488,7.06934,1.75488,4.46289,0,7.57129-2.20605,7.57129-6.16699,0-3.86035-3.05859-6.06738-8.02246-6.06738-2.15625,0-4.21191.30078-6.26758.95312l.35156-18.80273h20.10547v5.21484h-13.4873l-.15039,7.4707c1.20312-.2002,1.95508-.35059,3.20898-.35059,6.26758,0,11.28125,3.45898,11.28125,11.33105,0,7.16992-5.21387,11.93359-13.6377,11.93359-2.25684,0-5.51562-.35059-8.17285-1.00293l.15039-6.26758Z"/>
    </g>
  </symbol>
  <symbol id="OH36" viewBox="0 0 100 100">
    <path fill="#0085ce" d="M50,0C82.5,0,100,17.5,100,50s-17.5,50-50,50S0,82.5,0,50,17.5,0,50,0Z"/>
    <path fill="#fff" d="M50,91.25c-27.75684,0-41.25-13.49316-41.25-41.25S22.24316,8.75,50,8.75s41.25,13.49316,41.25,41.25-13.49316,41.25-41.25,41.25Z"/>
    <g>
      <path fill="#0085ce" d="M29.85645,28.06641c0-6.33301,3.63965-10.28711,9.80078-10.28711,5.87402,0,9.7998,3.81152,9.7998,10.28711,0,6.44824-3.83984,10.40234-9.7998,10.40234-6.19043,0-9.80078-4.01172-9.80078-10.40234ZM45.27344,28.06641c0-3.66797-1.71973-7.13477-5.64551-7.13477-3.61035,0-5.58789,3.15234-5.58789,7.13477,0,4.24121,1.94922,7.25,5.61719,7.25,3.69629,0,5.61621-3.03711,5.61621-7.25Z"/>
      <path fill="#0085ce" d="M65.1582,38.125v-8.76855h-8.02344v8.76855h-4.01172v-20.00195h4.01172v8.08105h8.02344v-8.08105h4.01172v20.00195h-4.01172Z"/>
    </g>
    <g>
      <path fill="#0085ce" d="M24.77686,73.48145c2.55762,1.00293,5.11426,1.60449,7.72168,1.60449,3.35938,0,7.4209-1.60449,7.4209-4.96387,0-3.66016-2.60742-5.46484-7.67188-5.46484h-3.45898v-5.51562h3.40918c4.46289,0,7.57129-1.60449,7.57129-4.61328,0-3.00781-2.10547-4.6123-6.06738-4.6123-2.65723,0-5.36426.65137-7.82129,1.85449l-.40137-5.61523c2.80762-1.10352,6.16699-1.75488,9.72754-1.75488,5.71582,0,11.58203,2.30664,11.58203,8.97461,0,4.01172-2.05566,6.66895-6.51855,8.37402v.10059c4.21191.55078,6.66895,3.75977,6.66895,8.32324,0,7.01953-5.51562,10.42871-13.4873,10.42871-3.00879,0-6.41797-.40137-9.07617-1.15332l.40137-5.9668Z"/>
      <path fill="#0085ce" d="M73.06445,51.31934c-1.75488-.75195-3.66016-1.40332-6.11719-1.40332-5.56543,0-8.07227,4.7627-8.32324,10.83008l.10059.10059c1.6543-2.40723,3.81055-3.50977,6.81934-3.50977,6.41797,0,10.17773,4.06055,10.17773,10.67969,0,8.02246-4.11133,12.58496-11.63184,12.58496-7.82227,0-11.88379-5.16406-11.88379-16.2959,0-10.72949,3.81055-19.90527,14.39062-19.90527,2.55664,0,4.96387.40137,7.37012,1.25391l-.90234,5.66504ZM68.70215,69.11914c0-3.20898-1.25293-6.56836-4.81348-6.56836-2.9082,0-4.66309,2.45703-4.66309,6.61914,0,3.25879,1.35449,6.2168,4.86426,6.2168,3.35938,0,4.6123-3.30859,4.6123-6.26758Z"/>
    </g>
  </symbol>
  <symbol id="OH37" viewBox="0 0 100 100">
    <path fill="#0085ce" d="M50,0C82.5,0,100,17.5,100,50s-17.5,50-50,50S0,82.5,0,50,17.5,0,50,0Z"/>
    <path fill="#fff" d="M50,91.25c-27.75684,0-41.25-13.49316-41.25-41.25S22.24316,8.75,50,8.75s41.25,13.49316,41.25,41.25-13.49316,41.25-41.25,41.25Z"/>
    <g>
      <path fill="#0085ce" d="M29.85645,28.06641c0-6.33301,3.63965-10.28711,9.80078-10.28711,5.87402,0,9.7998,3.81152,9.7998,10.28711,0,6.44824-3.83984,10.40234-9.7998,10.40234-6.19043,0-9.80078-4.01172-9.80078-10.40234ZM45.27344,28.06641c0-3.66797-1.71973-7.13477-5.64551-7.13477-3.61035,0-5.58789,3.15234-5.58789,7.13477,0,4.24121,1.94922,7.25,5.61719,7.25,3.69629,0,5.61621-3.03711,5.61621-7.25Z"/>
      <path fill="#0085ce" d="M65.1582,38.125v-8.76855h-8.02344v8.76855h-4.01172v-20.00195h4.01172v8.08105h8.02344v-8.08105h4.01172v20.00195h-4.01172Z"/>
    </g>
    <g>
      <path fill="#0085ce" d="M24.77686,73.48145c2.55762,1.00293,5.11426,1.60449,7.72168,1.60449,3.35938,0,7.4209-1.60449,7.4209-4.96387,0-3.66016-2.60742-5.46484-7.67188-5.46484h-3.45898v-5.51562h3.40918c4.46289,0,7.57129-1.60449,7.57129-4.61328,0-3.00781-2.10547-4.6123-6.06738-4.6123-2.65723,0-5.36426.65137-7.82129,1.85449l-.40137-5.61523c2.80762-1.10352,6.16699-1.75488,9.72754-1.75488,5.71582,0,11.58203,2.30664,11.58203,8.97461,0,4.01172-2.05566,6.66895-6.51855,8.37402v.10059c4.21191.55078,6.66895,3.75977,6.66895,8.32324,0,7.01953-5.51562,10.42871-13.4873,10.42871-3.00879,0-6.41797-.40137-9.07617-1.15332l.40137-5.9668Z"/>
      <path fill="#0085ce" d="M55.01367,80l12.98633-29.48242h-15.49316v-5.51562h22.56348v5.81641l-12.43457,29.18164h-7.62207Z"/>
    </g>
  </symbol>
  <symbol id="OH38" viewBox="0 0 100 100">
    <path fill="#0085ce" d="M50,0C82.5,0,100,17.5,100,50s-17.5,50-50,50S0,82.5,0,50,17.5,0,50,0Z"/>
    <path fill="#fff" d="M50,91.25c-27.75684,0-41.25-13.49316-41.25-41.25S22.24316,8.75,50,8.75s41.25,13.49316,41.25,41.25-13.49316,41.25-41.25,41.25Z"/>
    <g>
      <path fill="#0085ce" d="M29.85645,28.06641c0-6.33301,3.63965-10.28711,9.80078-10.28711,5.87402,0,9.7998,3.81152,9.7998,10.28711,0,6.44824-3.83984,10.40234-9.7998,10.40234-6.19043,0-9.80078-4.01172-9.80078-10.40234ZM45.27344,28.06641c0-3.66797-1.71973-7.13477-5.64551-7.13477-3.61035,0-5.58789,3.15234-5.58789,7.13477,0,4.24121,1.94922,7.25,5.61719,7.25,3.69629,0,5.61621-3.03711,5.61621-7.25Z"/>
      <path fill="#0085ce" d="M65.1582,38.125v-8.76855h-8.02344v8.76855h-4.01172v-20.00195h4.01172v8.08105h8.02344v-8.08105h4.01172v20.00195h-4.01172Z"/>
    </g>
    <g>
      <path fill="#0085ce" d="M24.77686,73.48145c2.55762,1.00293,5.11426,1.60449,7.72168,1.60449,3.35938,0,7.4209-1.60449,7.4209-4.96387,0-3.66016-2.60742-5.46484-7.67188-5.46484h-3.45898v-5.51562h3.40918c4.46289,0,7.57129-1.60449,7.57129-4.61328,0-3.00781-2.10547-4.6123-6.06738-4.6123-2.65723,0-5.36426.65137-7.82129,1.85449l-.40137-5.61523c2.80762-1.10352,6.16699-1.75488,9.72754-1.75488,5.71582,0,11.58203,2.30664,11.58203,8.97461,0,4.01172-2.05566,6.66895-6.51855,8.37402v.10059c4.21191.55078,6.66895,3.75977,6.66895,8.32324,0,7.01953-5.51562,10.42871-13.4873,10.42871-3.00879,0-6.41797-.40137-9.07617-1.15332l.40137-5.9668Z"/>
      <path fill="#0085ce" d="M69.4043,61.24707c4.5127,2.10645,6.71875,5.06445,6.71875,9.22656,0,6.46777-4.46289,10.12793-12.0332,10.12793-7.52148,0-12.33496-3.50977-12.33496-10.02832,0-3.91016,2.10547-6.61816,6.41797-8.72363v-.10059c-4.11133-1.85547-5.81641-5.01465-5.81641-8.12305,0-6.11719,4.5625-9.22559,11.13086-9.22559,6.46875,0,11.7334,2.75781,11.7334,8.42383,0,3.60938-2.40723,7.01953-5.81641,8.37305v.0498ZM58.77441,70.42285c0,2.8584,2.45703,4.96387,5.31543,4.96387,2.85742,0,5.01367-1.80469,5.01367-4.66309,0-2.70703-1.75488-4.71289-5.86621-6.06641-3.15918,1.50391-4.46289,3.30957-4.46289,5.76562ZM68.50195,53.97754c0-2.00586-1.15332-4.3623-4.3623-4.3623-2.35645,0-5.06445,1.30371-5.06445,4.21191,0,2.20605,1.60449,3.86035,5.51562,5.26465,1.85547-.65234,3.91113-2.80859,3.91113-5.11426Z"/>
    </g>
  </symbol>
  <symbol id="OH39" viewBox="0 0 100 100">
    <path fill="#0085ce" d="M50,0C82.5,0,100,17.5,100,50s-17.5,50-50,50S0,82.5,0,50,17.5,0,50,0Z"/>
    <path fill="#fff" d="M50,91.25c-27.75684,0-41.25-13.49316-41.25-41.25S22.24316,8.75,50,8.75s41.25,13.49316,41.25,41.25-13.49316,41.25-41.25,41.25Z"/>
    <g>
      <path fill="#0085ce" d="M29.85645,28.06641c0-6.33301,3.63965-10.28711,9.80078-10.28711,5.87402,0,9.7998,3.81152,9.7998,10.28711,0,6.44824-3.83984,10.40234-9.7998,10.40234-6.19043,0-9.80078-4.01172-9.80078-10.40234ZM45.27344,28.06641c0-3.66797-1.71973-7.13477-5.64551-7.13477-3.61035,0-5.58789,3.15234-5.58789,7.13477,0,4.24121,1.94922,7.25,5.61719,7.25,3.69629,0,5.61621-3.03711,5.61621-7.25Z"/>
      <path fill="#0085ce" d="M65.1582,38.125v-8.76855h-8.02344v8.76855h-4.01172v-20.00195h4.01172v8.08105h8.02344v-8.08105h4.01172v20.00195h-4.01172Z"/>
    </g>
    <g>
      <path fill="#0085ce" d="M24.77686,73.48145c2.55762,1.00293,5.11426,1.60449,7.72168,1.60449,3.35938,0,7.4209-1.60449,7.4209-4.96387,0-3.66016-2.60742-5.46484-7.67188-5.46484h-3.45898v-5.51562h3.40918c4.46289,0,7.57129-1.60449,7.57129-4.61328,0-3.00781-2.10547-4.6123-6.06738-4.6123-2.65723,0-5.36426.65137-7.82129,1.85449l-.40137-5.61523c2.80762-1.10352,6.16699-1.75488,9.72754-1.75488,5.71582,0,11.58203,2.30664,11.58203,8.97461,0,4.01172-2.05566,6.66895-6.51855,8.37402v.10059c4.21191.55078,6.66895,3.75977,6.66895,8.32324,0,7.01953-5.51562,10.42871-13.4873,10.42871-3.00879,0-6.41797-.40137-9.07617-1.15332l.40137-5.9668Z"/>
      <path fill="#0085ce" d="M69.2041,64.15527c-1.65527,2.45703-3.81055,3.50977-6.76953,3.50977-6.71875,0-10.22852-4.31152-10.22852-10.67969,0-8.02246,4.11133-12.58496,11.63281-12.58496,7.77148,0,11.88281,5.11426,11.88281,16.2959,0,10.87988-3.91016,19.90527-14.38965,19.90527-2.55762,0-4.96387-.40137-7.37109-1.25293l.90234-5.66602c1.95605.85254,3.86133,1.40332,6.11719,1.40332,5.06445,0,8.02246-4.01074,8.32324-10.83008l-.09961-.10059ZM68.70215,55.83203c0-3.25879-1.35352-6.2168-4.91309-6.2168-2.95898,0-4.56348,2.80762-4.56348,6.26758,0,3.55957,1.50488,6.56836,4.76367,6.56836,3.45996,0,4.71289-3.20898,4.71289-6.61914Z"/>
    </g>
  </symbol>
  <symbol id="OH40" viewBox="0 0 100 100">
    <path fill="#0085ce" d="M50,0C82.5,0,100,17.5,100,50s-17.5,50-50,50S0,82.5,0,50,17.5,0,50,0Z"/>
    <path fill="#fff" d="M50,91.25c-27.75684,0-41.25-13.49316-41.25-41.25S22.24316,8.75,50,8.75s41.25,13.49316,41.25,41.25-13.49316,41.25-41.25,41.25Z"/>
    <g>
      <path fill="#0085ce" d="M29.85645,28.06641c0-6.33301,3.63965-10.28711,9.80078-10.28711,5.87402,0,9.7998,3.81152,9.7998,10.28711,0,6.44824-3.83984,10.40234-9.7998,10.40234-6.19043,0-9.80078-4.01172-9.80078-10.40234ZM45.27344,28.06641c0-3.66797-1.71973-7.13477-5.64551-7.13477-3.61035,0-5.58789,3.15234-5.58789,7.13477,0,4.24121,1.94922,7.25,5.61719,7.25,3.69629,0,5.61621-3.03711,5.61621-7.25Z"/>
      <path fill="#0085ce" d="M65.1582,38.125v-8.76855h-8.02344v8.76855h-4.01172v-20.00195h4.01172v8.08105h8.02344v-8.08105h4.01172v20.00195h-4.01172Z"/>
    </g>
    <g>
      <path fill="#0085ce" d="M38.01416,80v-7.27051h-15.09277v-5.66602l13.08691-22.06152h8.72461v22.5127h4.46289v5.21484h-4.46289v7.27051h-6.71875ZM38.01416,52.32227h-.10059l-8.67383,15.19238h8.77441v-15.19238Z"/>
      <path fill="#0085ce" d="M51.75488,62.60156c0-11.03125,3.96094-18.20117,12.13379-18.20117,8.02246,0,12.23438,6.31738,12.23438,18.20117,0,11.63184-4.21191,18-12.23438,18-7.97168,0-12.13379-5.71582-12.13379-18ZM69.10352,62.60156c0-5.26465-.15039-12.98633-5.26465-12.98633-4.76367,0-5.06445,7.4209-5.06445,12.83594,0,5.61523.20117,12.93555,5.11426,12.93555,5.06445,0,5.21484-7.57129,5.21484-12.78516Z"/>
    </g>
  </symbol>
  <symbol id="OH41" viewBox="0 0 100 100">
    <path fill="#0085ce" d="M50,0C82.5,0,100,17.5,100,50s-17.5,50-50,50S0,82.5,0,50,17.5,0,50,0Z"/>
    <path fill="#fff" d="M50,91.25c-27.75684,0-41.25-13.49316-41.25-41.25S22.24316,8.75,50,8.75s41.25,13.49316,41.25,41.25-13.49316,41.25-41.25,41.25Z"/>
    <g>
      <path fill="#0085ce" d="M29.85645,28.06641c0-6.33301,3.63965-10.28711,9.80078-10.28711,5.87402,0,9.7998,3.81152,9.7998,10.28711,0,6.44824-3.83984,10.40234-9.7998,10.40234-6.19043,0-9.80078-4.01172-9.80078-10.40234ZM45.27344,28.06641c0-3.66797-1.71973-7.13477-5.64551-7.13477-3.61035,0-5.58789,3.15234-5.58789,7.13477,0,4.24121,1.94922,7.25,5.61719,7.25,3.69629,0,5.61621-3.03711,5.61621-7.25Z"/>
      <path fill="#0085ce" d="M65.1582,38.125v-8.76855h-8.02344v8.76855h-4.01172v-20.00195h4.01172v8.08105h8.02344v-8.08105h4.01172v20.00195h-4.01172Z"/>
    </g>
    <g>
      <path fill="#0085ce" d="M38.01416,80v-7.27051h-15.09277v-5.66602l13.08691-22.06152h8.72461v22.5127h4.46289v5.21484h-4.46289v7.27051h-6.71875ZM38.01416,52.32227h-.10059l-8.67383,15.19238h8.77441v-15.19238Z"/>
      <path fill="#0085ce" d="M63.3877,80v-27.02539l-5.91699,4.81348-3.50977-4.56348,10.22852-8.22266h6.21777v34.99805h-7.01953Z"/>
    </g>
  </symbol>
  <symbol id="OH42" viewBox="0 0 100 100">
    <path fill="#0085ce" d="M50,0C82.5,0,100,17.5,100,50s-17.5,50-50,50S0,82.5,0,50,17.5,0,50,0Z"/>
    <path fill="#fff" d="M50,91.25c-27.75684,0-41.25-13.49316-41.25-41.25S22.24316,8.75,50,8.75s41.25,13.49316,41.25,41.25-13.49316,41.25-41.25,41.25Z"/>
    <g>
      <path fill="#0085ce" d="M29.85645,28.06641c0-6.33301,3.63965-10.28711,9.80078-10.28711,5.87402,0,9.7998,3.81152,9.7998,10.28711,0,6.44824-3.83984,10.40234-9.7998,10.40234-6.19043,0-9.80078-4.01172-9.80078-10.40234ZM45.27344,28.06641c0-3.66797-1.71973-7.13477-5.64551-7.13477-3.61035,0-5.58789,3.15234-5.58789,7.13477,0,4.24121,1.94922,7.25,5.61719,7.25,3.69629,0,5.61621-3.03711,5.61621-7.25Z"/>
      <path fill="#0085ce" d="M65.1582,38.125v-8.76855h-8.02344v8.76855h-4.01172v-20.00195h4.01172v8.08105h8.02344v-8.08105h4.01172v20.00195h-4.01172Z"/>
    </g>
    <g>
      <path fill="#0085ce" d="M38.01416,80v-7.27051h-15.09277v-5.66602l13.08691-22.06152h8.72461v22.5127h4.46289v5.21484h-4.46289v7.27051h-6.71875ZM38.01416,52.32227h-.10059l-8.67383,15.19238h8.77441v-15.19238Z"/>
      <path fill="#0085ce" d="M52.05566,80v-5.86621l4.21191-3.91113c6.71875-6.26758,10.93066-11.7832,10.93066-15.59375,0-3.00879-2.60742-4.71289-5.71582-4.71289-2.40723,0-5.06445.85254-8.07324,2.80762l-.55078-5.81641c3.20898-1.60449,6.76855-2.50684,10.37891-2.50684,6.96973,0,10.98047,3.66016,10.98047,10.22852,0,4.86328-2.80762,10.17871-13.18652,19.85547h14.29004v5.51562h-23.26562Z"/>
    </g>
  </symbol>
  <symbol id="OH43" viewBox="0 0 100 100">
    <path fill="#0085ce" d="M50,0C82.5,0,100,17.5,100,50s-17.5,50-50,50S0,82.5,0,50,17.5,0,50,0Z"/>
    <path fill="#fff" d="M50,91.25c-27.75684,0-41.25-13.49316-41.25-41.25S22.24316,8.75,50,8.75s41.25,13.49316,41.25,41.25-13.49316,41.25-41.25,41.25Z"/>
    <g>
      <path fill="#0085ce" d="M29.85645,28.06641c0-6.33301,3.63965-10.28711,9.80078-10.28711,5.87402,0,9.7998,3.81152,9.7998,10.28711,0,6.44824-3.83984,10.40234-9.7998,10.40234-6.19043,0-9.80078-4.01172-9.80078-10.40234ZM45.27344,28.06641c0-3.66797-1.71973-7.13477-5.64551-7.13477-3.61035,0-5.58789,3.15234-5.58789,7.13477,0,4.24121,1.94922,7.25,5.61719,7.25,3.69629,0,5.61621-3.03711,5.61621-7.25Z"/>
      <path fill="#0085ce" d="M65.1582,38.125v-8.76855h-8.02344v8.76855h-4.01172v-20.00195h4.01172v8.08105h8.02344v-8.08105h4.01172v20.00195h-4.01172Z"/>
    </g>
    <g>
      <path fill="#0085ce" d="M38.01416,80v-7.27051h-15.09277v-5.66602l13.08691-22.06152h8.72461v22.5127h4.46289v5.21484h-4.46289v7.27051h-6.71875ZM38.01416,52.32227h-.10059l-8.67383,15.19238h8.77441v-15.19238Z"/>
      <path fill="#0085ce" d="M52.65723,73.48145c2.55762,1.00293,5.11426,1.60449,7.72168,1.60449,3.35938,0,7.4209-1.60449,7.4209-4.96387,0-3.66016-2.60742-5.46484-7.67188-5.46484h-3.45898v-5.51562h3.40918c4.46289,0,7.57129-1.60449,7.57129-4.61328,0-3.00781-2.10547-4.6123-6.06738-4.6123-2.65723,0-5.36426.65137-7.82129,1.85449l-.40137-5.61523c2.80762-1.10352,6.16699-1.75488,9.72754-1.75488,5.71582,0,11.58203,2.30664,11.58203,8.97461,0,4.01172-2.05566,6.66895-6.51855,8.37402v.10059c4.21191.55078,6.66895,3.75977,6.66895,8.32324,0,7.01953-5.51562,10.42871-13.4873,10.42871-3.00879,0-6.41797-.40137-9.07617-1.15332l.40137-5.9668Z"/>
    </g>
  </symbol>
  <symbol id="OH44" viewBox="0 0 100 100">
    <path fill="#0085ce" d="M50,0C82.5,0,100,17.5,100,50s-17.5,50-50,50S0,82.5,0,50,17.5,0,50,0Z"/>
    <path fill="#fff" d="M50,91.25c-27.75684,0-41.25-13.49316-41.25-41.25S22.24316,8.75,50,8.75s41.25,13.49316,41.25,41.25-13.49316,41.25-41.25,41.25Z"/>
    <g>
      <path fill="#0085ce" d="M29.85645,28.06641c0-6.33301,3.63965-10.28711,9.80078-10.28711,5.87402,0,9.7998,3.81152,9.7998,10.28711,0,6.44824-3.83984,10.40234-9.7998,10.40234-6.19043,0-9.80078-4.01172-9.80078-10.40234ZM45.27344,28.06641c0-3.66797-1.71973-7.13477-5.64551-7.13477-3.61035,0-5.58789,3.15234-5.58789,7.13477,0,4.24121,1.94922,7.25,5.61719,7.25,3.69629,0,5.61621-3.03711,5.61621-7.25Z"/>
      <path fill="#0085ce" d="M65.1582,38.125v-8.76855h-8.02344v8.76855h-4.01172v-20.00195h4.01172v8.08105h8.02344v-8.08105h4.01172v20.00195h-4.01172Z"/>
    </g>
    <g>
      <path fill="#0085ce" d="M38.01416,80v-7.27051h-15.09277v-5.66602l13.08691-22.06152h8.72461v22.5127h4.46289v5.21484h-4.46289v7.27051h-6.71875ZM38.01416,52.32227h-.10059l-8.67383,15.19238h8.77441v-15.19238Z"/>
      <path fill="#0085ce" d="M65.89453,80v-7.27051h-15.0918v-5.66602l13.08594-22.06152h8.72461v22.5127h4.46289v5.21484h-4.46289v7.27051h-6.71875ZM65.89453,52.32227h-.10059l-8.67383,15.19238h8.77441v-15.19238Z"/>
    </g>
  </symbol>
  <symbol id="OH45" viewBox="0 0 100 100">
    <path fill="#0085ce" d="M50,0C82.5,0,100,17.5,100,50s-17.5,50-50,50S0,82.5,0,50,17.5,0,50,0Z"/>
    <path fill="#fff" d="M50,91.25c-27.75684,0-41.25-13.49316-41.25-41.25S22.24316,8.75,50,8.75s41.25,13.49316,41.25,41.25-13.49316,41.25-41.25,41.25Z"/>
    <g>
      <path fill="#0085ce" d="M29.85645,28.06641c0-6.33301,3.63965-10.28711,9.80078-10.28711,5.87402,0,9.7998,3.81152,9.7998,10.28711,0,6.44824-3.83984,10.40234-9.7998,10.40234-6.19043,0-9.80078-4.01172-9.80078-10.40234ZM45.27344,28.06641c0-3.66797-1.71973-7.13477-5.64551-7.13477-3.61035,0-5.58789,3.15234-5.58789,7.13477,0,4.24121,1.94922,7.25,5.61719,7.25,3.69629,0,5.61621-3.03711,5.61621-7.25Z"/>
      <path fill="#0085ce" d="M65.1582,38.125v-8.76855h-8.02344v8.76855h-4.01172v-20.00195h4.01172v8.08105h8.02344v-8.08105h4.01172v20.00195h-4.01172Z"/>
    </g>
    <g>
      <path fill="#0085ce" d="M38.01416,80v-7.27051h-15.09277v-5.66602l13.08691-22.06152h8.72461v22.5127h4.46289v5.21484h-4.46289v7.27051h-6.71875ZM38.01416,52.32227h-.10059l-8.67383,15.19238h8.77441v-15.19238Z"/>
      <path fill="#0085ce" d="M53.76074,73.33105c2.9082,1.25391,5.06348,1.75488,7.06934,1.75488,4.46289,0,7.57129-2.20605,7.57129-6.16699,0-3.86035-3.05859-6.06738-8.02246-6.06738-2.15625,0-4.21191.30078-6.26758.95312l.35156-18.80273h20.10547v5.21484h-13.4873l-.15039,7.4707c1.20312-.2002,1.95508-.35059,3.20898-.35059,6.26758,0,11.28125,3.45898,11.28125,11.33105,0,7.16992-5.21387,11.93359-13.6377,11.93359-2.25684,0-5.51562-.35059-8.17285-1.00293l.15039-6.26758Z"/>
    </g>
  </symbol>
  <symbol id="OH46" viewBox="0 0 100 100">
    <path fill="#0085ce" d="M50,0C82.5,0,100,17.5,100,50s-17.5,50-50,50S0,82.5,0,50,17.5,0,50,0Z"/>
    <path fill="#fff" d="M50,91.25c-27.75684,0-41.25-13.49316-41.25-41.25S22.24316,8.75,50,8.75s41.25,13.49316,41.25,41.25-13.49316,41.25-41.25,41.25Z"/>
    <g>
      <path fill="#0085ce" d="M29.85645,28.06641c0-6.33301,3.63965-10.28711,9.80078-10.28711,5.87402,0,9.7998,3.81152,9.7998,10.28711,0,6.44824-3.83984,10.40234-9.7998,10.40234-6.19043,0-9.80078-4.01172-9.80078-10.40234ZM45.27344,28.06641c0-3.66797-1.71973-7.13477-5.64551-7.13477-3.61035,0-5.58789,3.15234-5.58789,7.13477,0,4.24121,1.94922,7.25,5.61719,7.25,3.69629,0,5.61621-3.03711,5.61621-7.25Z"/>
      <path fill="#0085ce" d="M65.1582,38.125v-8.76855h-8.02344v8.76855h-4.01172v-20.00195h4.01172v8.08105h8.02344v-8.08105h4.01172v20.00195h-4.01172Z"/>
    </g>
    <g>
      <path fill="#0085ce" d="M38.01416,80v-7.27051h-15.09277v-5.66602l13.08691-22.06152h8.72461v22.5127h4.46289v5.21484h-4.46289v7.27051h-6.71875ZM38.01416,52.32227h-.10059l-8.67383,15.19238h8.77441v-15.19238Z"/>
      <path fill="#0085ce" d="M73.06445,51.31934c-1.75488-.75195-3.66016-1.40332-6.11719-1.40332-5.56543,0-8.07227,4.7627-8.32324,10.83008l.10059.10059c1.6543-2.40723,3.81055-3.50977,6.81934-3.50977,6.41797,0,10.17773,4.06055,10.17773,10.67969,0,8.02246-4.11133,12.58496-11.63184,12.58496-7.82227,0-11.88379-5.16406-11.88379-16.2959,0-10.72949,3.81055-19.90527,14.39062-19.90527,2.55664,0,4.96387.40137,7.37012,1.25391l-.90234,5.66504ZM68.70215,69.11914c0-3.20898-1.25293-6.56836-4.81348-6.56836-2.9082,0-4.66309,2.45703-4.66309,6.61914,0,3.25879,1.35449,6.2168,4.86426,6.2168,3.35938,0,4.6123-3.30859,4.6123-6.26758Z"/>
    </g>
  </symbol>
  <symbol id="OH47" viewBox="0 0 100 100">
    <path fill="#0085ce" d="M50,0C82.5,0,100,17.5,100,50s-17.5,50-50,50S0,82.5,0,50,17.5,0,50,0Z"/>
    <path fill="#fff" d="M50,91.25c-27.75684,0-41.25-13.49316-41.25-41.25S22.24316,8.75,50,8.75s41.25,13.49316,41.25,41.25-13.49316,41.25-41.25,41.25Z"/>
    <g>
      <path fill="#0085ce" d="M29.85645,28.06641c0-6.33301,3.63965-10.28711,9.80078-10.28711,5.87402,0,9.7998,3.81152,9.7998,10.28711,0,6.44824-3.83984,10.40234-9.7998,10.40234-6.19043,0-9.80078-4.01172-9.80078-10.40234ZM45.27344,28.06641c0-3.66797-1.71973-7.13477-5.64551-7.13477-3.61035,0-5.58789,3.15234-5.58789,7.13477,0,4.24121,1.94922,7.25,5.61719,7.25,3.69629,0,5.61621-3.03711,5.61621-7.25Z"/>
      <path fill="#0085ce" d="M65.1582,38.125v-8.76855h-8.02344v8.76855h-4.01172v-20.00195h4.01172v8.08105h8.02344v-8.08105h4.01172v20.00195h-4.01172Z"/>
    </g>
    <g>
      <path fill="#0085ce" d="M38.01416,80v-7.27051h-15.09277v-5.66602l13.08691-22.06152h8.72461v22.5127h4.46289v5.21484h-4.46289v7.27051h-6.71875ZM38.01416,52.32227h-.10059l-8.67383,15.19238h8.77441v-15.19238Z"/>
      <path fill="#0085ce" d="M55.01367,80l12.98633-29.48242h-15.49316v-5.51562h22.56348v5.81641l-12.43457,29.18164h-7.62207Z"/>
    </g>
  </symbol>
</svg>
