<?xml version="1.0" encoding="UTF-8"?>
<svg xmlns="http://www.w3.org/2000/svg" xmlns:xlink="http://www.w3.org/1999/xlink">
  <!-- DIC-49 -->
  <symbol id="S" viewBox="0 0 100 100">
    <circle fill="#ee66a2" cx="50" cy="50" r="50"/>
    <path fill="#fff" d="M46.84521,85.375c-7.1709,0-13.48096-2.19824-17.9751-5.54492l3.44238-8.41406c3.72852,2.96387,9.46533,5.16309,15.20215,5.16309,6.69238,0,13.29004-3.05957,13.29004-10.51758,0-6.30957-4.87695-8.8916-10.13477-10.99512l-5.83252-2.48535c-8.31836-3.63379-14.72412-8.41406-14.72412-18.74023,0-11.18652,9.17871-19.40918,22.08594-19.40918,6.21484,0,12.42969,1.5293,17.21094,4.97168l-3.53809,8.31836c-3.72949-3.05957-8.41406-4.68457-13.67285-4.68457-8.7002,0-12.14258,5.06738-12.14258,9.75195,0,5.64062,4.68506,8.22266,9.37012,10.23047l5.83301,2.48633c8.60449,3.82422,15.48828,8.50879,15.48828,19.12207,0,14.62793-11.56836,20.74707-23.90283,20.74707Z"/>
  </symbol>
  <symbol id="S11" viewBox="0 0 100 100">
    <rect fill="#ee66a2" y="25" width="100" height="50"/>
    <g>
      <path fill="#fff" d="M30.18945,63.10254c-2.97461,0-5.38281-.85059-7.0127-1.66504l1.52344-4.32031c1.38086.84961,3.68262,1.62891,5.77246,1.62891,2.33789,0,4.1084-.9209,4.1084-3.01074,0-1.8418-1.77051-2.62012-3.22266-3.22266l-1.8418-.7793c-3.3291-1.41602-5.9502-3.22266-5.9502-7.33105,0-4.32031,3.54199-7.5791,9.03125-7.5791,2.23145,0,4.78125.38965,6.83496,1.41699l-1.62891,4.21484c-1.45215-.85059-3.25781-1.38184-5.20605-1.38184-2.9043,0-3.64746,1.66504-3.64746,2.7627,0,1.73535,1.73535,2.47949,3.15137,3.11621l1.8418.81543c3.22266,1.41602,6.05566,3.18652,6.05566,7.18848,0,5.9502-4.6748,8.14648-9.80957,8.14648Z"/>
      <path fill="#fff" d="M50.51465,62.5v-19.65527c-1.52246,1.2041-3.93066,2.37207-5.5957,3.11621l-1.69922-3.8252c2.62012-1.09766,5.77246-2.76172,8.25098-4.63965h4.35645v25.00391h-5.3125Z"/>
      <path fill="#fff" d="M67.33496,62.5v-19.65527c-1.52246,1.2041-3.93066,2.37207-5.5957,3.11621l-1.69922-3.8252c2.62012-1.09766,5.77246-2.76172,8.25098-4.63965h4.35645v25.00391h-5.3125Z"/>
    </g>
  </symbol>
  <symbol id="S12" viewBox="0 0 100 100">
    <rect fill="#ee66a2" y="25" width="100" height="50"/>
    <g>
      <path fill="#fff" d="M29.92383,63.10254c-2.97461,0-5.38281-.85059-7.0127-1.66504l1.52344-4.32031c1.38086.84961,3.68262,1.62891,5.77246,1.62891,2.33789,0,4.1084-.9209,4.1084-3.01074,0-1.8418-1.77051-2.62012-3.22266-3.22266l-1.8418-.7793c-3.3291-1.41602-5.9502-3.22266-5.9502-7.33105,0-4.32031,3.54199-7.5791,9.03125-7.5791,2.23145,0,4.78125.38965,6.83496,1.41699l-1.62891,4.21484c-1.45215-.85059-3.25781-1.38184-5.20605-1.38184-2.9043,0-3.64746,1.66504-3.64746,2.7627,0,1.73535,1.73535,2.47949,3.15137,3.11621l1.8418.81543c3.22266,1.41602,6.05566,3.18652,6.05566,7.18848,0,5.9502-4.6748,8.14648-9.80957,8.14648Z"/>
      <path fill="#fff" d="M50.24902,62.5v-19.65527c-1.52246,1.2041-3.93066,2.37207-5.5957,3.11621l-1.69922-3.8252c2.62012-1.09766,5.77246-2.76172,8.25098-4.63965h4.35645v25.00391h-5.3125Z"/>
      <path fill="#fff" d="M60.83691,62.5v-3.29395c.63672-2.90332,3.50586-5.55957,6.83496-8.46387,1.66406-1.45215,3.4707-3.25879,3.4707-5.66699,0-2.16016-1.41699-3.96582-4.14355-3.96582-2.19629,0-3.71875,1.59375-4.32129,2.2666l-2.62012-3.4707c2.4082-2.08984,4.63965-3.08203,8.00391-3.08203,4.3916,0,8.53516,2.55078,8.53516,7.65039,0,4.28516-2.72754,6.30371-5.7373,9.03125-1.27539,1.16797-3.79004,3.36426-4.1084,4.81641h10.30566v4.17871h-16.21973Z"/>
    </g>
  </symbol>
  <symbol id="S13" viewBox="0 0 100 100">
    <rect fill="#ee66a2" y="25" width="100" height="50"/>
    <g>
      <path fill="#fff" d="M29.92383,63.10254c-2.97461,0-5.38281-.85059-7.0127-1.66504l1.52344-4.32031c1.38086.84961,3.68262,1.62891,5.77246,1.62891,2.33789,0,4.1084-.9209,4.1084-3.01074,0-1.8418-1.77051-2.62012-3.22266-3.22266l-1.8418-.7793c-3.3291-1.41602-5.9502-3.22266-5.9502-7.33105,0-4.32031,3.54199-7.5791,9.03125-7.5791,2.23145,0,4.78125.38965,6.83496,1.41699l-1.62891,4.21484c-1.45215-.85059-3.25781-1.38184-5.20605-1.38184-2.9043,0-3.64746,1.66504-3.64746,2.7627,0,1.73535,1.73535,2.47949,3.15137,3.11621l1.8418.81543c3.22266,1.41602,6.05566,3.18652,6.05566,7.18848,0,5.9502-4.6748,8.14648-9.80957,8.14648Z"/>
      <path fill="#fff" d="M50.24902,62.5v-19.65527c-1.52246,1.2041-3.93066,2.37207-5.5957,3.11621l-1.69922-3.8252c2.62012-1.09766,5.77246-2.76172,8.25098-4.63965h4.35645v25.00391h-5.3125Z"/>
      <path fill="#fff" d="M67.35254,63.10254c-3.57617,0-5.55957-.88574-7.22461-1.87793l1.94824-3.86035c1.0625.74414,2.79785,1.62988,4.92285,1.62988,2.9043,0,4.70996-1.7002,4.70996-3.8252,0-2.86816-2.19531-3.86035-4.74609-3.86035h-2.58496v-4.14355h2.62109c2.44336,0,3.9668-1.27539,3.9668-3.1875,0-1.59375-1.20508-3.0459-3.8252-3.0459-2.30176,0-3.8252,1.09766-4.63965,1.80664l-1.80664-3.68359c2.125-1.41602,4.42773-2.23145,7.5791-2.23145,5.10059,0,8.00391,3.0459,8.00391,6.375,0,2.58594-1.38086,4.63965-4.03711,5.63086v.07129c2.7627.53125,4.85156,2.65625,4.85156,6.16211,0,4.3916-3.93066,8.04004-9.73926,8.04004Z"/>
    </g>
  </symbol>
  <symbol id="S14" viewBox="0 0 100 100">
    <rect fill="#ee66a2" y="25" width="100" height="50"/>
    <g>
      <path fill="#fff" d="M29.92383,63.10254c-2.97461,0-5.38281-.85059-7.0127-1.66504l1.52344-4.32031c1.38086.84961,3.68262,1.62891,5.77246,1.62891,2.33789,0,4.1084-.9209,4.1084-3.01074,0-1.8418-1.77051-2.62012-3.22266-3.22266l-1.8418-.7793c-3.3291-1.41602-5.9502-3.22266-5.9502-7.33105,0-4.32031,3.54199-7.5791,9.03125-7.5791,2.23145,0,4.78125.38965,6.83496,1.41699l-1.62891,4.21484c-1.45215-.85059-3.25781-1.38184-5.20605-1.38184-2.9043,0-3.64746,1.66504-3.64746,2.7627,0,1.73535,1.73535,2.47949,3.15137,3.11621l1.8418.81543c3.22266,1.41602,6.05566,3.18652,6.05566,7.18848,0,5.9502-4.6748,8.14648-9.80957,8.14648Z"/>
      <path fill="#fff" d="M50.24902,62.5v-19.65527c-1.52246,1.2041-3.93066,2.37207-5.5957,3.11621l-1.69922-3.8252c2.62012-1.09766,5.77246-2.76172,8.25098-4.63965h4.35645v25.00391h-5.3125Z"/>
      <path fill="#fff" d="M75.64062,57.29395v5.20605h-4.95898v-5.20605h-11.26172v-4.63965l9.7041-15.1582h6.5166v15.90234h2.93945v3.89551h-2.93945ZM70.68164,41.8877h-.07031c-.10645.42578-.81445,1.94824-1.80664,3.50684l-5.09961,8.00391h6.97656v-11.51074Z"/>
    </g>
  </symbol>
  <symbol id="S15" viewBox="0 0 100 100">
    <rect fill="#ee66a2" y="25" width="100" height="50"/>
    <g>
      <path fill="#fff" d="M29.92383,63.10254c-2.97461,0-5.38281-.85059-7.0127-1.66504l1.52344-4.32031c1.38086.84961,3.68262,1.62891,5.77246,1.62891,2.33789,0,4.1084-.9209,4.1084-3.01074,0-1.8418-1.77051-2.62012-3.22266-3.22266l-1.8418-.7793c-3.3291-1.41602-5.9502-3.22266-5.9502-7.33105,0-4.32031,3.54199-7.5791,9.03125-7.5791,2.23145,0,4.78125.38965,6.83496,1.41699l-1.62891,4.21484c-1.45215-.85059-3.25781-1.38184-5.20605-1.38184-2.9043,0-3.64746,1.66504-3.64746,2.7627,0,1.73535,1.73535,2.47949,3.15137,3.11621l1.8418.81543c3.22266,1.41602,6.05566,3.18652,6.05566,7.18848,0,5.9502-4.6748,8.14648-9.80957,8.14648Z"/>
      <path fill="#fff" d="M50.24902,62.5v-19.65527c-1.52246,1.2041-3.93066,2.37207-5.5957,3.11621l-1.69922-3.8252c2.62012-1.09766,5.77246-2.76172,8.25098-4.63965h4.35645v25.00391h-5.3125Z"/>
      <path fill="#fff" d="M67.60059,63.10254c-2.90332,0-5.13477-.6377-7.04785-1.80664l2.01953-3.89551c1.38086.95605,2.79785,1.59375,4.74512,1.59375,1.94824,0,4.3916-1.16895,4.3916-4.1084,0-1.80664-1.2041-4.28516-5.80762-4.35645-1.41699,0-3.08203-.03516-3.89648-.03516l.99219-12.99805h13.13867v4.17969h-8.99512l-.35449,4.74512c.1416,0,.46094.03613.70801.03613,6.83594.31836,9.59766,4.17871,9.59766,7.93262,0,4.78125-3.78906,8.71289-9.49121,8.71289Z"/>
    </g>
  </symbol>
  <symbol id="S16" viewBox="0 0 100 100">
    <rect fill="#ee66a2" y="25" width="100" height="50"/>
    <g>
      <path fill="#fff" d="M29.92383,63.10254c-2.97461,0-5.38281-.85059-7.0127-1.66504l1.52344-4.32031c1.38086.84961,3.68262,1.62891,5.77246,1.62891,2.33789,0,4.1084-.9209,4.1084-3.01074,0-1.8418-1.77051-2.62012-3.22266-3.22266l-1.8418-.7793c-3.3291-1.41602-5.9502-3.22266-5.9502-7.33105,0-4.32031,3.54199-7.5791,9.03125-7.5791,2.23145,0,4.78125.38965,6.83496,1.41699l-1.62891,4.21484c-1.45215-.85059-3.25781-1.38184-5.20605-1.38184-2.9043,0-3.64746,1.66504-3.64746,2.7627,0,1.73535,1.73535,2.47949,3.15137,3.11621l1.8418.81543c3.22266,1.41602,6.05566,3.18652,6.05566,7.18848,0,5.9502-4.6748,8.14648-9.80957,8.14648Z"/>
      <path fill="#fff" d="M50.24902,62.5v-19.65527c-1.52246,1.2041-3.93066,2.37207-5.5957,3.11621l-1.69922-3.8252c2.62012-1.09766,5.77246-2.76172,8.25098-4.63965h4.35645v25.00391h-5.3125Z"/>
      <path fill="#fff" d="M69.51367,63.10254c-6.83594,0-9.2793-4.74609-9.2793-11.36914,0-8.67676,4.07324-14.91016,12.07715-14.91016,1.41602,0,2.69141.17773,3.75391.42578l-.7793,4.24902c-.67285-.2832-1.9834-.60156-3.43555-.60156-3.50586,0-6.05566,2.79785-6.41016,7.82715.84961-.74414,2.47949-1.7002,5.1709-1.7002,4.14355,0,7.47266,2.72656,7.47266,7.40137,0,4.99414-3.3291,8.67773-8.57031,8.67773ZM69.01758,50.9541c-1.59375,0-2.86914.60254-3.36426,1.38184-.2832.4248-.2832,1.41602-.2832,2.16016,0,2.37305,1.38086,4.6748,3.93066,4.6748,2.47949,0,3.75391-2.01855,3.75391-4.17871,0-2.33789-1.55859-4.03809-4.03711-4.03809Z"/>
    </g>
  </symbol>
  <symbol id="S17" viewBox="0 0 100 100">
    <rect fill="#ee66a2" y="25" width="100" height="50"/>
    <g>
      <path fill="#fff" d="M29.92383,63.10254c-2.97461,0-5.38281-.85059-7.0127-1.66504l1.52344-4.32031c1.38086.84961,3.68262,1.62891,5.77246,1.62891,2.33789,0,4.1084-.9209,4.1084-3.01074,0-1.8418-1.77051-2.62012-3.22266-3.22266l-1.8418-.7793c-3.3291-1.41602-5.9502-3.22266-5.9502-7.33105,0-4.32031,3.54199-7.5791,9.03125-7.5791,2.23145,0,4.78125.38965,6.83496,1.41699l-1.62891,4.21484c-1.45215-.85059-3.25781-1.38184-5.20605-1.38184-2.9043,0-3.64746,1.66504-3.64746,2.7627,0,1.73535,1.73535,2.47949,3.15137,3.11621l1.8418.81543c3.22266,1.41602,6.05566,3.18652,6.05566,7.18848,0,5.9502-4.6748,8.14648-9.80957,8.14648Z"/>
      <path fill="#fff" d="M50.24902,62.5v-19.65527c-1.52246,1.2041-3.93066,2.37207-5.5957,3.11621l-1.69922-3.8252c2.62012-1.09766,5.77246-2.76172,8.25098-4.63965h4.35645v25.00391h-5.3125Z"/>
      <path fill="#fff" d="M68.91113,62.5h-5.70215c0-3.29395.88574-5.41895,3.08105-9.49121l6.0918-11.33301h-12.14746v-4.17969h17.49512v4.07324c-5.48926,9.52637-8.81836,17-8.81836,20.93066Z"/>
    </g>
  </symbol>
  <symbol id="S18" viewBox="0 0 100 100">
    <rect fill="#ee66a2" y="25" width="100" height="50"/>
    <g>
      <path fill="#fff" d="M29.92383,63.10254c-2.97461,0-5.38281-.85059-7.0127-1.66504l1.52344-4.32031c1.38086.84961,3.68262,1.62891,5.77246,1.62891,2.33789,0,4.1084-.9209,4.1084-3.01074,0-1.8418-1.77051-2.62012-3.22266-3.22266l-1.8418-.7793c-3.3291-1.41602-5.9502-3.22266-5.9502-7.33105,0-4.32031,3.54199-7.5791,9.03125-7.5791,2.23145,0,4.78125.38965,6.83496,1.41699l-1.62891,4.21484c-1.45215-.85059-3.25781-1.38184-5.20605-1.38184-2.9043,0-3.64746,1.66504-3.64746,2.7627,0,1.73535,1.73535,2.47949,3.15137,3.11621l1.8418.81543c3.22266,1.41602,6.05566,3.18652,6.05566,7.18848,0,5.9502-4.6748,8.14648-9.80957,8.14648Z"/>
      <path fill="#fff" d="M50.24902,62.5v-19.65527c-1.52246,1.2041-3.93066,2.37207-5.5957,3.11621l-1.69922-3.8252c2.62012-1.09766,5.77246-2.76172,8.25098-4.63965h4.35645v25.00391h-5.3125Z"/>
      <path fill="#fff" d="M68.84082,63.17285c-5.56055,0-8.71289-3.3291-8.71289-7.11816,0-3.3291,1.87695-5.41895,4.28516-6.6582-2.16016-1.3457-3.50586-3.0459-3.50586-5.63184,0-4.14355,3.75391-7.01172,8.03906-7.01172,4.3916,0,8.04004,2.16016,8.04004,6.44531,0,2.33789-1.2041,4.32129-3.54199,5.7373,2.30176,1.09766,4.32129,3.22266,4.32129,6.5166,0,4.74609-3.79004,7.7207-8.9248,7.7207ZM68.41504,51.13184c-1.62891.6377-3.25781,2.4082-3.25781,4.35547,0,2.05469,1.3457,4.00195,3.75391,4.00195,2.37305,0,3.68359-1.66406,3.68359-3.64746,0-2.2666-2.05469-3.64746-4.17969-4.70996ZM69.01758,40.36523c-1.94824,0-3.1875,1.2041-3.1875,2.93945,0,2.05371,2.05371,3.3291,3.64746,4.00195,1.31055-.60156,2.72754-2.23145,2.72754-3.78906,0-1.73535-1.13379-3.15234-3.1875-3.15234Z"/>
    </g>
  </symbol>
  <symbol id="S19" viewBox="0 0 100 100">
    <rect fill="#ee66a2" y="25" width="100" height="50"/>
    <g>
      <path fill="#fff" d="M29.92383,63.10254c-2.97461,0-5.38281-.85059-7.0127-1.66504l1.52344-4.32031c1.38086.84961,3.68262,1.62891,5.77246,1.62891,2.33789,0,4.1084-.9209,4.1084-3.01074,0-1.8418-1.77051-2.62012-3.22266-3.22266l-1.8418-.7793c-3.3291-1.41602-5.9502-3.22266-5.9502-7.33105,0-4.32031,3.54199-7.5791,9.03125-7.5791,2.23145,0,4.78125.38965,6.83496,1.41699l-1.62891,4.21484c-1.45215-.85059-3.25781-1.38184-5.20605-1.38184-2.9043,0-3.64746,1.66504-3.64746,2.7627,0,1.73535,1.73535,2.47949,3.15137,3.11621l1.8418.81543c3.22266,1.41602,6.05566,3.18652,6.05566,7.18848,0,5.9502-4.6748,8.14648-9.80957,8.14648Z"/>
      <path fill="#fff" d="M50.24902,62.5v-19.65527c-1.52246,1.2041-3.93066,2.37207-5.5957,3.11621l-1.69922-3.8252c2.62012-1.09766,5.77246-2.76172,8.25098-4.63965h4.35645v25.00391h-5.3125Z"/>
      <path fill="#fff" d="M65.58203,63.17285c-1.41602,0-2.69141-.17676-3.75391-.4248l.7793-4.25c.67285.2832,1.9834.60156,3.43555.60156,3.50586,0,6.05566-2.79688,6.41016-7.82617-.85059.74316-2.47949,1.7002-5.1709,1.7002-4.14355,0-7.47266-2.72754-7.47266-7.40234,0-4.99316,3.3291-8.67676,8.57031-8.67676,6.83496,0,9.2793,4.74609,9.2793,11.36816,0,8.67676-4.07324,14.91016-12.07715,14.91016ZM68.59277,40.8252c-2.47949,0-3.75391,2.01953-3.75391,4.17969,0,2.33691,1.55762,4.03711,4.03711,4.03711,1.59375,0,2.86816-.60156,3.36426-1.38086.2832-.4248.2832-1.41699.2832-2.16113,0-2.37207-1.38086-4.6748-3.93066-4.6748Z"/>
    </g>
  </symbol>
  <symbol id="S20" viewBox="0 0 100 100">
    <rect fill="#ee66a2" y="25" width="100" height="50"/>
    <g>
      <path fill="#fff" d="M29.21484,63.10254c-2.97461,0-5.38281-.85059-7.0127-1.66504l1.52344-4.32031c1.38086.84961,3.68262,1.62891,5.77246,1.62891,2.33789,0,4.1084-.9209,4.1084-3.01074,0-1.8418-1.77051-2.62012-3.22266-3.22266l-1.8418-.7793c-3.3291-1.41602-5.9502-3.22266-5.9502-7.33105,0-4.32031,3.54199-7.5791,9.03125-7.5791,2.23145,0,4.78125.38965,6.83496,1.41699l-1.62891,4.21484c-1.45215-.85059-3.25781-1.38184-5.20605-1.38184-2.9043,0-3.64746,1.66504-3.64746,2.7627,0,1.73535,1.73535,2.47949,3.15137,3.11621l1.8418.81543c3.22266,1.41602,6.05566,3.18652,6.05566,7.18848,0,5.9502-4.6748,8.14648-9.80957,8.14648Z"/>
      <path fill="#fff" d="M42.77637,62.5v-3.29395c.63672-2.90332,3.50586-5.55957,6.83496-8.46387,1.66406-1.45215,3.4707-3.25879,3.4707-5.66699,0-2.16016-1.41699-3.96582-4.14355-3.96582-2.19629,0-3.71875,1.59375-4.32129,2.2666l-2.62012-3.4707c2.4082-2.08984,4.63965-3.08203,8.00391-3.08203,4.3916,0,8.53516,2.55078,8.53516,7.65039,0,4.28516-2.72754,6.30371-5.7373,9.03125-1.27539,1.16797-3.79004,3.36426-4.1084,4.81641h10.30566v4.17871h-16.21973Z"/>
      <path fill="#fff" d="M69.58301,63.17285c-7.54395,0-9.03125-7.4375-9.03125-13.20996s1.62891-13.20996,9.17285-13.20996c7.54297,0,9.03125,7.4375,9.03125,13.20996s-1.62988,13.20996-9.17285,13.20996ZM69.65332,40.9668c-3.6123,0-3.71875,6.44629-3.71875,8.99609,0,2.51465.17773,9.03125,3.71875,9.03125,3.54199,0,3.68359-6.55176,3.68359-9.03125,0-2.62109-.10645-8.99609-3.68359-8.99609Z"/>
    </g>
  </symbol>
  <symbol id="S21" viewBox="0 0 100 100">
    <rect fill="#ee66a2" y="25" width="100" height="50"/>
    <g>
      <path fill="#fff" d="M39.45801,55.04492c0,1.86719-.4668,3.4248-1.40039,4.67285s-2.09961,2.12305-3.5,2.625c-1.39941.50098-2.99805.75195-4.79492.75195-2.42676,0-4.7373-.54785-6.92969-1.64453l1.50488-4.27051c1.75,1.07422,3.65137,1.61035,5.70508,1.61035,1.21289,0,2.19238-.25098,2.93945-.75293.74707-.50098,1.12012-1.24219,1.12012-2.22266,0-.41992-.08691-.80469-.2627-1.1543-.1748-.34961-.44922-.65332-.82227-.91016-.37305-.25586-.7002-.46094-.97949-.6123-.28027-.15137-.6543-.32129-1.12012-.50781l-1.82031-.77051c-1.88965-.81641-3.34277-1.76074-4.35742-2.83447-1.01465-1.07275-1.52246-2.54297-1.52246-4.40967,0-2.17041.81641-3.96094,2.4502-5.37256,1.63281-1.41162,3.79102-2.11768,6.47461-2.11768,2.63672,0,4.8877.4668,6.75488,1.3999l-1.60938,4.16504c-1.56348-.91016-3.2793-1.36475-5.14551-1.36475-1.2832,0-2.20508.27979-2.76465.83984-.56055.56006-.83984,1.18994-.83984,1.89014,0,.53662.18652,1.021.55957,1.45215.37305.43213.72266.73535,1.0498.91016s.82812.41455,1.50488.71729l1.82031.80518c1.91309.83984,3.38867,1.78516,4.42773,2.83496,1.03809,1.05029,1.55762,2.47314,1.55762,4.27002Z"/>
      <path fill="#fff" d="M58.21777,62.5h-16.03027v-3.25488c.28027-1.30664.96777-2.58398,2.06543-3.83301,1.0957-1.24805,2.65918-2.75879,4.68945-4.53223,2.28711-1.98291,3.43066-3.8501,3.43066-5.6001,0-1.11963-.3623-2.05273-1.08594-2.7998-.72266-.74658-1.72656-1.12012-3.00977-1.12012-1.5166,0-2.93945.74707-4.26953,2.24023l-2.58984-3.43018c1.23633-1.07275,2.46094-1.84912,3.6748-2.32764,1.21289-.47754,2.625-.71729,4.23438-.71729,2.33301,0,4.32324.66504,5.96777,1.99512,1.64551,1.33008,2.46777,3.18506,2.46777,5.56494,0,.51367-.05273,1.01514-.15723,1.50488-.10547.49023-.19922.91016-.28027,1.26025-.08203.34961-.28027.76416-.59473,1.24219-.31543.47852-.53125.81738-.64746,1.01514-.11719.19873-.42676.54834-.92773,1.0498-.50195.50244-.7998.79932-.89258.89307-.09375.09375-.46094.42578-1.10254.99707-.64258.57227-.99805.89258-1.06738.96191-.02344,0-.1748.13477-.45508.40332s-.46094.4375-.54297.50684c-.08203.07031-.26172.24023-.54199.50781-.28027.26855-.47852.4668-.59473.5957-.11719.12793-.28613.30859-.50781.54199s-.3916.43262-.50781.59473c-.11719.16406-.25098.34961-.40234.56055-.15234.20898-.26855.39648-.34961.55957-.08203.16309-.13477.32715-.1582.49023h10.18555v4.12988Z"/>
      <path fill="#fff" d="M73.03613,62.5h-5.25v-19.4248c-1.19043.93311-3.0332,1.95996-5.53027,3.07959l-1.67969-3.77979c3.12695-1.30664,5.84473-2.83496,8.15527-4.58496h4.30469v24.70996Z"/>
    </g>
  </symbol>
  <symbol id="S22" viewBox="0 0 100 100">
    <rect fill="#ee66a2" y="25" width="100" height="50"/>
    <g>
      <path fill="#fff" d="M29.21484,63.10254c-2.97461,0-5.38281-.85059-7.0127-1.66504l1.52344-4.32031c1.38086.84961,3.68262,1.62891,5.77246,1.62891,2.33789,0,4.1084-.9209,4.1084-3.01074,0-1.8418-1.77051-2.62012-3.22266-3.22266l-1.8418-.7793c-3.3291-1.41602-5.9502-3.22266-5.9502-7.33105,0-4.32031,3.54199-7.5791,9.03125-7.5791,2.23145,0,4.78125.38965,6.83496,1.41699l-1.62891,4.21484c-1.45215-.85059-3.25781-1.38184-5.20605-1.38184-2.9043,0-3.64746,1.66504-3.64746,2.7627,0,1.73535,1.73535,2.47949,3.15137,3.11621l1.8418.81543c3.22266,1.41602,6.05566,3.18652,6.05566,7.18848,0,5.9502-4.6748,8.14648-9.80957,8.14648Z"/>
      <path fill="#fff" d="M42.77637,62.5v-3.29395c.63672-2.90332,3.50586-5.55957,6.83496-8.46387,1.66406-1.45215,3.4707-3.25879,3.4707-5.66699,0-2.16016-1.41699-3.96582-4.14355-3.96582-2.19629,0-3.71875,1.59375-4.32129,2.2666l-2.62012-3.4707c2.4082-2.08984,4.63965-3.08203,8.00391-3.08203,4.3916,0,8.53516,2.55078,8.53516,7.65039,0,4.28516-2.72754,6.30371-5.7373,9.03125-1.27539,1.16797-3.79004,3.36426-4.1084,4.81641h10.30566v4.17871h-16.21973Z"/>
      <path fill="#fff" d="M61.54395,62.5v-3.29395c.63672-2.90332,3.50586-5.55957,6.83496-8.46387,1.66406-1.45215,3.4707-3.25879,3.4707-5.66699,0-2.16016-1.41699-3.96582-4.14355-3.96582-2.19629,0-3.71875,1.59375-4.32129,2.2666l-2.62012-3.4707c2.4082-2.08984,4.63965-3.08203,8.00391-3.08203,4.3916,0,8.53516,2.55078,8.53516,7.65039,0,4.28516-2.72754,6.30371-5.7373,9.03125-1.27539,1.16797-3.79004,3.36426-4.1084,4.81641h10.30566v4.17871h-16.21973Z"/>
    </g>
  </symbol>
  <symbol id="S23" viewBox="0 0 100 100">
    <rect fill="#ee66a2" y="25" width="100" height="50"/>
    <g>
      <path fill="#fff" d="M29.21484,63.10254c-2.97461,0-5.38281-.85059-7.0127-1.66504l1.52344-4.32031c1.38086.84961,3.68262,1.62891,5.77246,1.62891,2.33789,0,4.1084-.9209,4.1084-3.01074,0-1.8418-1.77051-2.62012-3.22266-3.22266l-1.8418-.7793c-3.3291-1.41602-5.9502-3.22266-5.9502-7.33105,0-4.32031,3.54199-7.5791,9.03125-7.5791,2.23145,0,4.78125.38965,6.83496,1.41699l-1.62891,4.21484c-1.45215-.85059-3.25781-1.38184-5.20605-1.38184-2.9043,0-3.64746,1.66504-3.64746,2.7627,0,1.73535,1.73535,2.47949,3.15137,3.11621l1.8418.81543c3.22266,1.41602,6.05566,3.18652,6.05566,7.18848,0,5.9502-4.6748,8.14648-9.80957,8.14648Z"/>
      <path fill="#fff" d="M42.77637,62.5v-3.29395c.63672-2.90332,3.50586-5.55957,6.83496-8.46387,1.66406-1.45215,3.4707-3.25879,3.4707-5.66699,0-2.16016-1.41699-3.96582-4.14355-3.96582-2.19629,0-3.71875,1.59375-4.32129,2.2666l-2.62012-3.4707c2.4082-2.08984,4.63965-3.08203,8.00391-3.08203,4.3916,0,8.53516,2.55078,8.53516,7.65039,0,4.28516-2.72754,6.30371-5.7373,9.03125-1.27539,1.16797-3.79004,3.36426-4.1084,4.81641h10.30566v4.17871h-16.21973Z"/>
      <path fill="#fff" d="M68.05957,63.10254c-3.57617,0-5.55957-.88574-7.22461-1.87793l1.94824-3.86035c1.0625.74414,2.79785,1.62988,4.92285,1.62988,2.9043,0,4.70996-1.7002,4.70996-3.8252,0-2.86816-2.19531-3.86035-4.74609-3.86035h-2.58496v-4.14355h2.62109c2.44336,0,3.9668-1.27539,3.9668-3.1875,0-1.59375-1.20508-3.0459-3.8252-3.0459-2.30176,0-3.8252,1.09766-4.63965,1.80664l-1.80664-3.68359c2.125-1.41602,4.42773-2.23145,7.5791-2.23145,5.10059,0,8.00391,3.0459,8.00391,6.375,0,2.58594-1.38086,4.63965-4.03711,5.63086v.07129c2.7627.53125,4.85156,2.65625,4.85156,6.16211,0,4.3916-3.93066,8.04004-9.73926,8.04004Z"/>
    </g>
  </symbol>
  <symbol id="S24" viewBox="0 0 100 100">
    <rect fill="#ee66a2" y="25" width="100" height="50"/>
    <g>
      <path fill="#fff" d="M29.21484,63.10254c-2.97461,0-5.38281-.85059-7.0127-1.66504l1.52344-4.32031c1.38086.84961,3.68262,1.62891,5.77246,1.62891,2.33789,0,4.1084-.9209,4.1084-3.01074,0-1.8418-1.77051-2.62012-3.22266-3.22266l-1.8418-.7793c-3.3291-1.41602-5.9502-3.22266-5.9502-7.33105,0-4.32031,3.54199-7.5791,9.03125-7.5791,2.23145,0,4.78125.38965,6.83496,1.41699l-1.62891,4.21484c-1.45215-.85059-3.25781-1.38184-5.20605-1.38184-2.9043,0-3.64746,1.66504-3.64746,2.7627,0,1.73535,1.73535,2.47949,3.15137,3.11621l1.8418.81543c3.22266,1.41602,6.05566,3.18652,6.05566,7.18848,0,5.9502-4.6748,8.14648-9.80957,8.14648Z"/>
      <path fill="#fff" d="M42.77637,62.5v-3.29395c.63672-2.90332,3.50586-5.55957,6.83496-8.46387,1.66406-1.45215,3.4707-3.25879,3.4707-5.66699,0-2.16016-1.41699-3.96582-4.14355-3.96582-2.19629,0-3.71875,1.59375-4.32129,2.2666l-2.62012-3.4707c2.4082-2.08984,4.63965-3.08203,8.00391-3.08203,4.3916,0,8.53516,2.55078,8.53516,7.65039,0,4.28516-2.72754,6.30371-5.7373,9.03125-1.27539,1.16797-3.79004,3.36426-4.1084,4.81641h10.30566v4.17871h-16.21973Z"/>
      <path fill="#fff" d="M76.34766,57.29395v5.20605h-4.95898v-5.20605h-11.26172v-4.63965l9.7041-15.1582h6.5166v15.90234h2.93945v3.89551h-2.93945ZM71.38867,41.8877h-.07031c-.10645.42578-.81445,1.94824-1.80664,3.50684l-5.09961,8.00391h6.97656v-11.51074Z"/>
    </g>
  </symbol>
</svg>