<?xml version="1.0" encoding="UTF-8"?>
<svg xmlns="http://www.w3.org/2000/svg" xmlns:xlink="http://www.w3.org/1999/xlink">
  <!-- DIC-306 -->
  <symbol id="K" viewBox="0 0 100 100">
    <circle fill="#91441d" cx="50" cy="50" r="50"/>
    <path fill="#fff" d="M65.91992,83.75l-20.55615-30.88281-6.88428,7.64941v23.2334h-10.13477V16.24805h10.13477v33.17773l27.53613-33.17773h12.04688l-25.43164,30.02246,26.00586,37.47949h-12.7168Z"/>
  </symbol>
  <symbol id="K11" viewBox="0 0 100 100">
    <rect fill="#91441d" y="25" width="100" height="50"/>
    <g>
      <path fill="#fff" d="M36.13867,62.5l-6.55176-10.58887-1.80664,2.08887v8.5h-5.52441v-25.00391h5.52441v11.15625l8.85449-11.15625h6.48047l-9.49121,11.15625,9.4209,13.84766h-6.90625Z"/>
      <path fill="#fff" d="M52.56738,62.5v-19.65527c-1.52246,1.2041-3.93066,2.37207-5.5957,3.11621l-1.69922-3.8252c2.62012-1.09766,5.77246-2.76172,8.25098-4.63965h4.35645v25.00391h-5.3125Z"/>
      <path fill="#fff" d="M69.3877,62.5v-19.65527c-1.52246,1.2041-3.93066,2.37207-5.5957,3.11621l-1.69922-3.8252c2.62012-1.09766,5.77246-2.76172,8.25098-4.63965h4.35645v25.00391h-5.3125Z"/>
    </g>
  </symbol>
  <symbol id="K12" viewBox="0 0 100 100">
    <rect fill="#91441d" y="25" width="100" height="50"/>
    <g>
      <path fill="#fff" d="M35.87305,62.5l-6.55176-10.58887-1.80664,2.08887v8.5h-5.52441v-25.00391h5.52441v11.15625l8.85449-11.15625h6.48047l-9.49121,11.15625,9.4209,13.84766h-6.90625Z"/>
      <path fill="#fff" d="M52.30176,62.5v-19.65527c-1.52246,1.2041-3.93066,2.37207-5.5957,3.11621l-1.69922-3.8252c2.62012-1.09766,5.77246-2.76172,8.25098-4.63965h4.35645v25.00391h-5.3125Z"/>
      <path fill="#fff" d="M62.88965,62.5v-3.29395c.63672-2.90332,3.50586-5.55957,6.83496-8.46387,1.66406-1.45215,3.4707-3.25879,3.4707-5.66699,0-2.16016-1.41699-3.96582-4.14355-3.96582-2.19629,0-3.71875,1.59375-4.32129,2.2666l-2.62012-3.4707c2.4082-2.08984,4.63965-3.08203,8.00391-3.08203,4.3916,0,8.53516,2.55078,8.53516,7.65039,0,4.28516-2.72754,6.30371-5.7373,9.03125-1.27539,1.16797-3.79004,3.36426-4.1084,4.81641h10.30566v4.17871h-16.21973Z"/>
    </g>
  </symbol>
  <symbol id="K13" viewBox="0 0 100 100">
    <rect fill="#91441d" y="25" width="100" height="50"/>
    <g>
      <path fill="#fff" d="M35.87305,62.5l-6.55176-10.58887-1.80664,2.08887v8.5h-5.52441v-25.00391h5.52441v11.15625l8.85449-11.15625h6.48047l-9.49121,11.15625,9.4209,13.84766h-6.90625Z"/>
      <path fill="#fff" d="M52.30176,62.5v-19.65527c-1.52246,1.2041-3.93066,2.37207-5.5957,3.11621l-1.69922-3.8252c2.62012-1.09766,5.77246-2.76172,8.25098-4.63965h4.35645v25.00391h-5.3125Z"/>
      <path fill="#fff" d="M69.40527,63.10254c-3.57617,0-5.55957-.88574-7.22461-1.87793l1.94824-3.86035c1.0625.74414,2.79785,1.62988,4.92285,1.62988,2.9043,0,4.70996-1.7002,4.70996-3.8252,0-2.86816-2.19531-3.86035-4.74609-3.86035h-2.58496v-4.14355h2.62109c2.44336,0,3.9668-1.27539,3.9668-3.1875,0-1.59375-1.20508-3.0459-3.8252-3.0459-2.30176,0-3.8252,1.09766-4.63965,1.80664l-1.80664-3.68359c2.125-1.41602,4.42773-2.23145,7.5791-2.23145,5.10059,0,8.00391,3.0459,8.00391,6.375,0,2.58594-1.38086,4.63965-4.03711,5.63086v.07129c2.7627.53125,4.85156,2.65625,4.85156,6.16211,0,4.3916-3.93066,8.04004-9.73926,8.04004Z"/>
    </g>
  </symbol>
  <symbol id="K14" viewBox="0 0 100 100">
    <rect fill="#91441d" y="25" width="100" height="50"/>
    <g>
      <path fill="#fff" d="M35.87305,62.5l-6.55176-10.58887-1.80664,2.08887v8.5h-5.52441v-25.00391h5.52441v11.15625l8.85449-11.15625h6.48047l-9.49121,11.15625,9.4209,13.84766h-6.90625Z"/>
      <path fill="#fff" d="M52.30176,62.5v-19.65527c-1.52246,1.2041-3.93066,2.37207-5.5957,3.11621l-1.69922-3.8252c2.62012-1.09766,5.77246-2.76172,8.25098-4.63965h4.35645v25.00391h-5.3125Z"/>
      <path fill="#fff" d="M77.69336,57.29395v5.20605h-4.95898v-5.20605h-11.26172v-4.63965l9.7041-15.1582h6.5166v15.90234h2.93945v3.89551h-2.93945ZM72.73438,41.8877h-.07031c-.10645.42578-.81445,1.94824-1.80664,3.50684l-5.09961,8.00391h6.97656v-11.51074Z"/>
    </g>
  </symbol>
  <symbol id="K15" viewBox="0 0 100 100">
    <rect fill="#91441d" y="25" width="100" height="50"/>
    <g>
      <path fill="#fff" d="M43.78613,62.5h-6.8252l-6.47461-10.46484-1.78516,2.06445v8.40039h-5.45996v-24.70996h5.45996v11.0249l8.75-11.0249h6.4043l-9.37988,11.0249,9.31055,13.68506Z"/>
      <path fill="#fff" d="M56.5957,62.5h-5.25v-19.4248c-1.19043.93311-3.03418,1.95996-5.53027,3.07959l-1.68066-3.77979c3.12695-1.30664,5.8457-2.83496,8.15527-4.58496h4.30566v24.70996Z"/>
      <path fill="#fff" d="M77.87891,54.48438c0,2.42773-.875,4.46875-2.625,6.12598-1.75,1.65625-4.00195,2.48438-6.75488,2.48438-2.70703,0-5.02832-.59473-6.96484-1.78516l1.99512-3.84961c1.5166,1.0498,3.08008,1.5752,4.68945,1.5752,1.12012,0,2.12305-.34375,3.01074-1.0332.88574-.6875,1.3291-1.69727,1.3291-3.02734,0-1.0957-.44336-2.08203-1.3291-2.95703-.8877-.875-2.35742-1.32422-4.41016-1.34766-.51367,0-1.23145-.00537-2.15234-.01758-.92285-.01123-1.48828-.01758-1.69824-.01758l.98047-12.84473h12.98535v4.12988h-8.89062l-.34961,4.68994c.0459,0,.15137.00635.31445.01758.16309.01221.29199.01758.38574.01758,3.14941.14014,5.51758.96826,7.10449,2.48486,1.58691,1.51709,2.37988,3.30176,2.37988,5.35449Z"/>
    </g>
  </symbol>
  <symbol id="K16" viewBox="0 0 100 100">
    <rect fill="#91441d" y="25" width="100" height="50"/>
    <g>
      <path fill="#fff" d="M43.49707,62.5h-6.8252l-6.47461-10.46484-1.78516,2.06445v8.40039h-5.45996v-24.70996h5.45996v11.0249l8.75-11.0249h6.4043l-9.37988,11.0249,9.31055,13.68506Z"/>
      <path fill="#fff" d="M56.30664,62.5h-5.25v-19.4248c-1.19043.93311-3.03418,1.95996-5.53027,3.07959l-1.68066-3.77979c3.12695-1.30664,5.8457-2.83496,8.15527-4.58496h4.30566v24.70996Z"/>
      <path fill="#fff" d="M79.14746,54.51953c0,2.49805-.77637,4.55078-2.32715,6.16016-1.55273,1.61035-3.60059,2.41504-6.14355,2.41504-6.11328,0-9.16992-3.74512-9.16992-11.23535,0-4.43213,1.02637-7.99707,3.08008-10.69189,2.05273-2.69482,5.00488-4.04248,8.85547-4.04248,1.2832,0,2.51953.14014,3.70996.41992l-.76953,4.2002c-.93359-.39648-2.06543-.59521-3.39551-.59521-1.77344,0-3.23242.67725-4.375,2.03027-1.14355,1.35352-1.79688,3.25488-1.95996,5.70459,1.2832-1.11963,2.98633-1.67969,5.10938-1.67969s3.88574.65967,5.28613,1.97754c1.39941,1.31836,2.09961,3.09668,2.09961,5.33691ZM74.17773,55.08008c0-1.16602-.3623-2.12305-1.08594-2.87012s-1.69141-1.12012-2.9043-1.12012c-1.63379,0-2.74219.45508-3.3252,1.36523-.1875.2793-.28027.99219-.28027,2.13477,0,1.25977.35059,2.3457,1.0498,3.25586.7002.90918,1.64551,1.36426,2.83496,1.36426,1.16699,0,2.07715-.40234,2.73047-1.20801.65332-.80469.98047-1.77832.98047-2.92188Z"/>
    </g>
  </symbol>
  <symbol id="K17" viewBox="0 0 100 100">
    <rect fill="#91441d" y="25" width="100" height="50"/>
    <g>
      <path fill="#fff" d="M43.78711,62.5h-6.8252l-6.47461-10.46484-1.78516,2.06445v8.40039h-5.45996v-24.70996h5.45996v11.0249l8.75-11.0249h6.40527l-9.37988,11.0249,9.30957,13.68506Z"/>
      <path fill="#fff" d="M56.59668,62.5h-5.25v-19.4248c-1.19043.93311-3.0332,1.95996-5.53027,3.07959l-1.67969-3.77979c3.12695-1.30664,5.84473-2.83496,8.15527-4.58496h4.30469v24.70996Z"/>
      <path fill="#fff" d="M78.50781,41.81494c-5.81055,10.07959-8.71582,16.9751-8.71582,20.68506h-5.63477c0-1.54004.21582-2.95117.64746-4.23438s1.23047-2.99805,2.39746-5.14551l6.01953-11.2002h-12.00488v-4.12988h17.29102v4.0249Z"/>
    </g>
  </symbol>
  <symbol id="K18" viewBox="0 0 100 100">
    <rect fill="#91441d" y="25" width="100" height="50"/>
    <g>
      <path fill="#fff" d="M43.49902,62.5h-6.8252l-6.47461-10.46484-1.78516,2.06445v8.40039h-5.45996v-24.70996h5.45996v11.0249l8.75-11.0249h6.4043l-9.37988,11.0249,9.31055,13.68506Z"/>
      <path fill="#fff" d="M56.30859,62.5h-5.25v-19.4248c-1.19043.93311-3.03418,1.95996-5.53027,3.07959l-1.68066-3.77979c3.12695-1.30664,5.8457-2.83496,8.15527-4.58496h4.30566v24.70996Z"/>
      <path fill="#fff" d="M78.83008,55.53516c0,2.31055-.82227,4.15918-2.4668,5.54688-1.64453,1.38867-3.7627,2.08301-6.35254,2.08301-2.63672,0-4.73145-.68262-6.28223-2.04785-1.55273-1.36426-2.32812-3.02734-2.32812-4.9873,0-2.94043,1.41211-5.13281,4.23535-6.58008-2.31055-1.44629-3.46484-3.30127-3.46484-5.56494,0-2.00635.78125-3.6626,2.34473-4.96973,1.56348-1.30664,3.42969-1.95996,5.59961-1.95996,2.28711,0,4.18359.5542,5.6875,1.66211,1.50586,1.10889,2.25781,2.67773,2.25781,4.70752,0,2.35742-1.16602,4.24707-3.5,5.67041,1.25977.60693,2.28711,1.45215,3.08008,2.5376.79297,1.08398,1.18945,2.38574,1.18945,3.90234ZM72.74023,58.49219c.65332-.6875.98047-1.54492.98047-2.57227,0-1.02637-.37402-1.90137-1.12012-2.625-.74707-.72266-1.75-1.40039-3.00977-2.0293-.86328.32617-1.61621.89844-2.25781,1.71484s-.96191,1.67969-.96191,2.58984c0,1.07324.33203,2,.99707,2.78223s1.56934,1.17285,2.71289,1.17285c1.11914,0,2.00586-.34473,2.65918-1.0332ZM73.33594,43.74023c0-.88672-.28027-1.62793-.83984-2.22266-.56055-.59521-1.33008-.89258-2.31055-.89258-.95703,0-1.7207.26855-2.29199.80518-.57227.53662-.85742,1.23682-.85742,2.09961,0,1.63379,1.20117,2.95215,3.60449,3.95508.7002-.32617,1.32422-.85156,1.87207-1.57471.54883-.72314.82324-1.44678.82324-2.16992Z"/>
    </g>
  </symbol>
  <symbol id="K19" viewBox="0 0 100 100">
    <rect fill="#91441d" y="25" width="100" height="50"/>
    <g>
      <path fill="#fff" d="M43.55664,62.5h-6.8252l-6.47461-10.46484-1.78516,2.06445v8.40039h-5.45996v-24.70996h5.45996v11.0249l8.75-11.0249h6.4043l-9.37988,11.0249,9.31055,13.68506Z"/>
      <path fill="#fff" d="M56.36621,62.5h-5.25v-19.4248c-1.19043.93311-3.03418,1.95996-5.53027,3.07959l-1.68066-3.77979c3.12695-1.30664,5.8457-2.83496,8.15527-4.58496h4.30566v24.70996Z"/>
      <path fill="#fff" d="M78.66797,48.43018c0,4.43311-1.02734,7.99756-3.08008,10.69189-2.05273,2.69531-5.00488,4.04297-8.85449,4.04297-1.28418,0-2.52051-.13965-3.70996-.41992l.76953-4.2002c.93262.39746,2.06543.59473,3.39551.59473,1.77246,0,3.23145-.67676,4.375-2.03027,1.14258-1.35254,1.7959-3.25391,1.95996-5.70508-1.28418,1.12109-2.9873,1.68066-5.11035,1.68066-2.12402,0-3.88477-.65918-5.28516-1.97754-1.39941-1.31787-2.09961-3.09766-2.09961-5.3374,0-2.49658.77539-4.5498,2.32715-6.16016,1.55176-1.60986,3.59863-2.41504,6.14258-2.41504,6.11328,0,9.16992,3.74512,9.16992,11.23535ZM73.59375,45.7002c0-1.26025-.35059-2.34521-1.05078-3.25537-.7002-.90967-1.64453-1.36475-2.83496-1.36475-1.16699,0-2.07715.40234-2.72949,1.20752-.6543.80469-.98047,1.7793-.98047,2.92236,0,1.16699.36133,2.12354,1.08496,2.87012.72266.74707,1.69141,1.12012,2.90527,1.12012,1.63281,0,2.74121-.45508,3.3252-1.36523.18652-.27979.28027-.99121.28027-2.13477Z"/>
    </g>
  </symbol>
  <symbol id="K20" viewBox="0 0 100 100">
    <rect fill="#91441d" y="25" width="100" height="50"/>
    <g>
      <path fill="#fff" d="M41.98828,62.5h-6.8252l-6.47461-10.46484-1.78516,2.06445v8.40039h-5.45996v-24.70996h5.45996v11.0249l8.75-11.0249h6.40527l-9.37988,11.0249,9.30957,13.68506Z"/>
      <path fill="#fff" d="M60.36328,62.5h-16.03027v-3.25488c.28027-1.30664.96777-2.58398,2.06543-3.83301,1.0957-1.24805,2.65918-2.75879,4.68945-4.53223,2.28711-1.98291,3.43066-3.8501,3.43066-5.6001,0-1.11963-.3623-2.05273-1.08594-2.7998-.72266-.74658-1.72656-1.12012-3.00977-1.12012-1.5166,0-2.93945.74707-4.26953,2.24023l-2.58984-3.43018c1.23633-1.07275,2.46094-1.84912,3.6748-2.32764,1.21289-.47754,2.625-.71729,4.23438-.71729,2.33301,0,4.32324.66504,5.96777,1.99512,1.64551,1.33008,2.46777,3.18506,2.46777,5.56494,0,.51367-.05273,1.01514-.15723,1.50488-.10547.49023-.19922.91016-.28027,1.26025-.08203.34961-.28027.76416-.59473,1.24219-.31543.47852-.53125.81738-.64746,1.01514-.11719.19873-.42676.54834-.92773,1.0498-.50195.50244-.7998.79932-.89258.89307-.09375.09375-.46094.42578-1.10254.99707-.64258.57227-.99805.89258-1.06738.96191-.02344,0-.1748.13477-.45508.40332s-.46094.4375-.54297.50684c-.08203.07031-.26172.24023-.54199.50781-.28027.26855-.47852.4668-.59473.5957-.11719.12793-.28613.30859-.50781.54199s-.3916.43262-.50781.59473c-.11719.16406-.25098.34961-.40234.56055-.15234.20898-.26855.39648-.34961.55957-.08203.16309-.13477.32715-.1582.49023h10.18555v4.12988Z"/>
      <path fill="#fff" d="M80.41113,46.54004c.13965,1.12012.20996,2.31006.20996,3.56982,0,1.26025-.07031,2.45068-.20996,3.56982-.13965,1.12012-.41992,2.27539-.83984,3.46484-.41992,1.19043-.95117,2.21777-1.59277,3.08008-.6416.86426-1.5166,1.57031-2.625,2.11816s-2.375.82227-3.79785.82227-2.68359-.27441-3.7793-.82227c-1.09766-.54785-1.95996-1.24805-2.59082-2.10059-.62988-.85156-1.14355-1.87695-1.54004-3.08008-.39648-1.20117-.66504-2.3623-.80469-3.48242-.13965-1.11914-.20996-2.30957-.20996-3.56982,0-1.25977.07031-2.44971.20996-3.56982s.41992-2.2749.83984-3.46484c.41992-1.19043.95117-2.2168,1.59277-3.08008s1.5166-1.56934,2.625-2.11768c1.1084-.54785,2.37402-.82227,3.79785-.82227,1.42285,0,2.68262.27441,3.78027.82227,1.0957.54834,1.95996,1.24854,2.58984,2.1001.62988.85205,1.14258,1.87842,1.54004,3.08008.39648,1.20215.66504,2.3623.80469,3.48242ZM75.2666,50.10986c0-5.92627-1.21387-8.88965-3.64062-8.88965-2.4502,0-3.6748,2.96338-3.6748,8.88965,0,5.95068,1.22461,8.92529,3.6748,8.92529,2.42676,0,3.64062-2.97461,3.64062-8.92529Z"/>
    </g>
  </symbol>
</svg>