<?xml version="1.0" encoding="UTF-8"?>
<svg xmlns="http://www.w3.org/2000/svg" xmlns:xlink="http://www.w3.org/1999/xlink">
  <!-- DIC-2559 -->
  <symbol id="C" viewBox="0 0 100 100">
    <circle fill="#00a749" cx="50" cy="50" r="50"/>
    <path fill="#fff" d="M51.45508,85.375c-18.35791,0-32.12598-13.09863-32.12598-34.61133,0-19.02637,10.61279-36.33203,32.03027-36.33203,7.93555,0,14.4375,2.00781,19.3125,5.5459l-3.91992,8.8916c-3.91992-3.05957-8.9873-5.06738-15.01074-5.06738-13.57666,0-21.89502,10.42188-21.89502,26.48438,0,15.67969,9.75244,25.71973,22.75537,25.71973,5.92773,0,11.28223-2.19922,14.82031-5.16309l3.44141,8.41309c-5.06641,3.72949-12.33398,6.11914-19.4082,6.11914Z"/>
  </symbol>
  <symbol id="C09" viewBox="0 0 100 100">
    <rect fill="#00a749" y="25" width="100" height="50"/>
    <g>
      <path fill="#fff" d="M32.65137,63.10254c-6.33984,0-12.39551-4.17969-12.39551-12.82129,0-7.47266,4.35547-13.45801,12.39551-13.45801,3.08105,0,5.34766.6377,7.15332,1.45215l-1.80566,4.56934c-1.62988-.9209-3.4707-1.34668-5.06445-1.34668-3.8252,0-6.94141,2.51465-6.94141,8.53516,0,5.73828,3.75391,8.39355,7.36621,8.39355,1.9834,0,3.75391-.60156,4.99316-1.3457l1.48828,4.28613c-1.91309,1.02637-4.63965,1.73535-7.18945,1.73535Z"/>
      <path fill="#fff" d="M51.34766,63.17285c-7.54395,0-9.03125-7.4375-9.03125-13.20996s1.62891-13.20996,9.17285-13.20996c7.54297,0,9.03125,7.4375,9.03125,13.20996s-1.62988,13.20996-9.17285,13.20996ZM51.41797,40.9668c-3.6123,0-3.71875,6.44629-3.71875,8.99609,0,2.51465.17773,9.03125,3.71875,9.03125,3.54199,0,3.68359-6.55176,3.68359-9.03125,0-2.62109-.10645-8.99609-3.68359-8.99609Z"/>
      <path fill="#fff" d="M67.88379,63.17285c-1.41602,0-2.69141-.17676-3.75391-.4248l.7793-4.25c.67285.2832,1.9834.60156,3.43555.60156,3.50586,0,6.05566-2.79688,6.41016-7.82617-.85059.74316-2.47949,1.7002-5.1709,1.7002-4.14355,0-7.47266-2.72754-7.47266-7.40234,0-4.99316,3.3291-8.67676,8.57031-8.67676,6.83496,0,9.2793,4.74609,9.2793,11.36816,0,8.67676-4.07324,14.91016-12.07715,14.91016ZM70.89453,40.8252c-2.47949,0-3.75391,2.01953-3.75391,4.17969,0,2.33691,1.55762,4.03711,4.03711,4.03711,1.59375,0,2.86816-.60156,3.36426-1.38086.2832-.4248.2832-1.41699.2832-2.16113,0-2.37207-1.38086-4.6748-3.93066-4.6748Z"/>
    </g>
  </symbol>
  <symbol id="C10" viewBox="0 0 100 100">
    <rect fill="#00a749" y="25" width="100" height="50"/>
    <g>
      <path fill="#fff" d="M33.89062,63.10254c-6.33984,0-12.39551-4.17969-12.39551-12.82129,0-7.47266,4.35547-13.45801,12.39551-13.45801,3.08105,0,5.34766.6377,7.15332,1.45215l-1.80566,4.56934c-1.62988-.9209-3.4707-1.34668-5.06445-1.34668-3.8252,0-6.94141,2.51465-6.94141,8.53516,0,5.73828,3.75391,8.39355,7.36621,8.39355,1.9834,0,3.75391-.60156,4.99316-1.3457l1.48828,4.28613c-1.91309,1.02637-4.63965,1.73535-7.18945,1.73535Z"/>
      <path fill="#fff" d="M51.31152,62.5v-19.65527c-1.52246,1.2041-3.93066,2.37207-5.5957,3.11621l-1.69922-3.8252c2.62012-1.09766,5.77246-2.76172,8.25098-4.63965h4.35645v25.00391h-5.3125Z"/>
      <path fill="#fff" d="M69.9375,63.17285c-7.54395,0-9.03125-7.4375-9.03125-13.20996s1.62891-13.20996,9.17285-13.20996c7.54297,0,9.03125,7.4375,9.03125,13.20996s-1.62988,13.20996-9.17285,13.20996ZM70.00781,40.9668c-3.6123,0-3.71875,6.44629-3.71875,8.99609,0,2.51465.17773,9.03125,3.71875,9.03125,3.54199,0,3.68359-6.55176,3.68359-9.03125,0-2.62109-.10645-8.99609-3.68359-8.99609Z"/>
    </g>
  </symbol>
  <symbol id="C11" viewBox="0 0 100 100">
    <rect fill="#00a749" y="25" width="100" height="50"/>
    <g>
      <path fill="#fff" d="M34.15625,63.10254c-6.33984,0-12.39551-4.17969-12.39551-12.82129,0-7.47266,4.35547-13.45801,12.39551-13.45801,3.08105,0,5.34766.6377,7.15332,1.45215l-1.80566,4.56934c-1.62988-.9209-3.4707-1.34668-5.06445-1.34668-3.8252,0-6.94141,2.51465-6.94141,8.53516,0,5.73828,3.75391,8.39355,7.36621,8.39355,1.9834,0,3.75391-.60156,4.99316-1.3457l1.48828,4.28613c-1.91309,1.02637-4.63965,1.73535-7.18945,1.73535Z"/>
      <path fill="#fff" d="M51.57715,62.5v-19.65527c-1.52246,1.2041-3.93066,2.37207-5.5957,3.11621l-1.69922-3.8252c2.62012-1.09766,5.77246-2.76172,8.25098-4.63965h4.35645v25.00391h-5.3125Z"/>
      <path fill="#fff" d="M68.39648,62.5v-19.65527c-1.52246,1.2041-3.93066,2.37207-5.5957,3.11621l-1.69922-3.8252c2.62012-1.09766,5.77246-2.76172,8.25098-4.63965h4.35645v25.00391h-5.3125Z"/>
    </g>
  </symbol>
  <symbol id="C12" viewBox="0 0 100 100">
    <rect fill="#00a749" y="25" width="100" height="50"/>
    <g>
      <path fill="#fff" d="M33.89062,63.10254c-6.33984,0-12.39551-4.17969-12.39551-12.82129,0-7.47266,4.35547-13.45801,12.39551-13.45801,3.08105,0,5.34766.6377,7.15332,1.45215l-1.80566,4.56934c-1.62988-.9209-3.4707-1.34668-5.06445-1.34668-3.8252,0-6.94141,2.51465-6.94141,8.53516,0,5.73828,3.75391,8.39355,7.36621,8.39355,1.9834,0,3.75391-.60156,4.99316-1.3457l1.48828,4.28613c-1.91309,1.02637-4.63965,1.73535-7.18945,1.73535Z"/>
      <path fill="#fff" d="M51.31152,62.5v-19.65527c-1.52246,1.2041-3.93066,2.37207-5.5957,3.11621l-1.69922-3.8252c2.62012-1.09766,5.77246-2.76172,8.25098-4.63965h4.35645v25.00391h-5.3125Z"/>
      <path fill="#fff" d="M61.89844,62.5v-3.29395c.63672-2.90332,3.50586-5.55957,6.83496-8.46387,1.66406-1.45215,3.4707-3.25879,3.4707-5.66699,0-2.16016-1.41699-3.96582-4.14355-3.96582-2.19629,0-3.71875,1.59375-4.32129,2.2666l-2.62012-3.4707c2.4082-2.08984,4.63867-3.08203,8.00391-3.08203,4.3916,0,8.53516,2.55078,8.53516,7.65039,0,4.28516-2.72754,6.30371-5.7373,9.03125-1.27539,1.16797-3.79004,3.36426-4.1084,4.81641h10.30566v4.17871h-16.21973Z"/>
    </g>
  </symbol>
  <symbol id="C13" viewBox="0 0 100 100">
    <rect fill="#00a749" y="25" width="100" height="50"/>
    <g>
      <path fill="#fff" d="M33.89062,63.10254c-6.33984,0-12.39551-4.17969-12.39551-12.82129,0-7.47266,4.35547-13.45801,12.39551-13.45801,3.08105,0,5.34766.6377,7.15332,1.45215l-1.80566,4.56934c-1.62988-.9209-3.4707-1.34668-5.06445-1.34668-3.8252,0-6.94141,2.51465-6.94141,8.53516,0,5.73828,3.75391,8.39355,7.36621,8.39355,1.9834,0,3.75391-.60156,4.99316-1.3457l1.48828,4.28613c-1.91309,1.02637-4.63965,1.73535-7.18945,1.73535Z"/>
      <path fill="#fff" d="M51.31152,62.5v-19.65527c-1.52246,1.2041-3.93066,2.37207-5.5957,3.11621l-1.69922-3.8252c2.62012-1.09766,5.77246-2.76172,8.25098-4.63965h4.35645v25.00391h-5.3125Z"/>
      <path fill="#fff" d="M68.41406,63.10254c-3.57617,0-5.55957-.88574-7.22461-1.87793l1.94824-3.86035c1.0625.74414,2.79785,1.62988,4.92285,1.62988,2.9043,0,4.70996-1.7002,4.70996-3.8252,0-2.86816-2.19531-3.86035-4.74512-3.86035h-2.58594v-4.14355h2.62109c2.44336,0,3.9668-1.27539,3.9668-3.1875,0-1.59375-1.20508-3.0459-3.8252-3.0459-2.30176,0-3.8252,1.09766-4.63965,1.80664l-1.80664-3.68359c2.125-1.41602,4.42773-2.23145,7.5791-2.23145,5.10059,0,8.00391,3.0459,8.00391,6.375,0,2.58594-1.38086,4.63965-4.03711,5.63086v.07129c2.7627.53125,4.85156,2.65625,4.85156,6.16211,0,4.3916-3.93066,8.04004-9.73926,8.04004Z"/>
    </g>
  </symbol>
  <symbol id="C14" viewBox="0 0 100 100">
    <rect fill="#00a749" y="25" width="100" height="50"/>
    <g>
      <path fill="#fff" d="M33.89062,63.10254c-6.33984,0-12.39551-4.17969-12.39551-12.82129,0-7.47266,4.35547-13.45801,12.39551-13.45801,3.08105,0,5.34766.6377,7.15332,1.45215l-1.80566,4.56934c-1.62988-.9209-3.4707-1.34668-5.06445-1.34668-3.8252,0-6.94141,2.51465-6.94141,8.53516,0,5.73828,3.75391,8.39355,7.36621,8.39355,1.9834,0,3.75391-.60156,4.99316-1.3457l1.48828,4.28613c-1.91309,1.02637-4.63965,1.73535-7.18945,1.73535Z"/>
      <path fill="#fff" d="M51.31152,62.5v-19.65527c-1.52246,1.2041-3.93066,2.37207-5.5957,3.11621l-1.69922-3.8252c2.62012-1.09766,5.77246-2.76172,8.25098-4.63965h4.35645v25.00391h-5.3125Z"/>
      <path fill="#fff" d="M76.70215,57.29395v5.20605h-4.95898v-5.20605h-11.26172v-4.63965l9.7041-15.1582h6.5166v15.90234h2.93945v3.89551h-2.93945ZM71.74316,41.8877h-.07031c-.10645.42578-.81445,1.94824-1.80664,3.50684l-5.09961,8.00391h6.97656v-11.51074Z"/>
    </g>
  </symbol>
  <symbol id="C15" viewBox="0 0 100 100">
    <rect fill="#00a749" y="25" width="100" height="50"/>
    <g>
      <path fill="#fff" d="M33.89062,63.10254c-6.33984,0-12.39551-4.17969-12.39551-12.82129,0-7.47266,4.35547-13.45801,12.39551-13.45801,3.08105,0,5.34766.6377,7.15332,1.45215l-1.80566,4.56934c-1.62988-.9209-3.4707-1.34668-5.06445-1.34668-3.8252,0-6.94141,2.51465-6.94141,8.53516,0,5.73828,3.75391,8.39355,7.36621,8.39355,1.9834,0,3.75391-.60156,4.99316-1.3457l1.48828,4.28613c-1.91309,1.02637-4.63965,1.73535-7.18945,1.73535Z"/>
      <path fill="#fff" d="M51.31152,62.5v-19.65527c-1.52246,1.2041-3.93066,2.37207-5.5957,3.11621l-1.69922-3.8252c2.62012-1.09766,5.77246-2.76172,8.25098-4.63965h4.35645v25.00391h-5.3125Z"/>
      <path fill="#fff" d="M68.66211,63.10254c-2.9043,0-5.13477-.6377-7.04785-1.80664l2.01953-3.89551c1.38086.95605,2.79785,1.59375,4.74512,1.59375,1.94824,0,4.3916-1.16895,4.3916-4.1084,0-1.80664-1.2041-4.28516-5.80762-4.35645-1.41699,0-3.08203-.03516-3.89648-.03516l.99219-12.99805h13.13867v4.17969h-8.99512l-.35449,4.74512c.1416,0,.46094.03613.70801.03613,6.83594.31836,9.59766,4.17871,9.59766,7.93262,0,4.78125-3.78906,8.71289-9.49121,8.71289Z"/>
    </g>
  </symbol>
  <symbol id="C16" viewBox="0 0 100 100">
    <rect fill="#00a749" y="25" width="100" height="50"/>
    <g>
      <path fill="#fff" d="M33.89062,63.10254c-6.33984,0-12.39551-4.17969-12.39551-12.82129,0-7.47266,4.35547-13.45801,12.39551-13.45801,3.08105,0,5.34766.6377,7.15332,1.45215l-1.80566,4.56934c-1.62988-.9209-3.4707-1.34668-5.06445-1.34668-3.8252,0-6.94141,2.51465-6.94141,8.53516,0,5.73828,3.75391,8.39355,7.36621,8.39355,1.9834,0,3.75391-.60156,4.99316-1.3457l1.48828,4.28613c-1.91309,1.02637-4.63965,1.73535-7.18945,1.73535Z"/>
      <path fill="#fff" d="M51.31152,62.5v-19.65527c-1.52246,1.2041-3.93066,2.37207-5.5957,3.11621l-1.69922-3.8252c2.62012-1.09766,5.77246-2.76172,8.25098-4.63965h4.35645v25.00391h-5.3125Z"/>
      <path fill="#fff" d="M70.5752,63.10254c-6.83594,0-9.2793-4.74609-9.2793-11.36914,0-8.67676,4.07324-14.91016,12.07715-14.91016,1.41602,0,2.69141.17773,3.75391.42578l-.7793,4.24902c-.67285-.2832-1.9834-.60156-3.43555-.60156-3.50586,0-6.05566,2.79785-6.41016,7.82715.84961-.74414,2.47949-1.7002,5.1709-1.7002,4.14355,0,7.47266,2.72656,7.47266,7.40137,0,4.99414-3.3291,8.67773-8.57031,8.67773ZM70.0791,50.9541c-1.59375,0-2.86914.60254-3.36426,1.38184-.2832.4248-.2832,1.41602-.2832,2.16016,0,2.37305,1.38086,4.6748,3.93066,4.6748,2.47949,0,3.75391-2.01855,3.75391-4.17871,0-2.33789-1.55762-4.03809-4.03711-4.03809Z"/>
    </g>
  </symbol>
  <symbol id="C17" viewBox="0 0 100 100">
    <rect fill="#00a749" y="25" width="100" height="50"/>
    <g>
      <path fill="#fff" d="M33.89062,63.10254c-6.33984,0-12.39551-4.17969-12.39551-12.82129,0-7.47266,4.35547-13.45801,12.39551-13.45801,3.08105,0,5.34766.6377,7.15332,1.45215l-1.80566,4.56934c-1.62988-.9209-3.4707-1.34668-5.06445-1.34668-3.8252,0-6.94141,2.51465-6.94141,8.53516,0,5.73828,3.75391,8.39355,7.36621,8.39355,1.9834,0,3.75391-.60156,4.99316-1.3457l1.48828,4.28613c-1.91309,1.02637-4.63965,1.73535-7.18945,1.73535Z"/>
      <path fill="#fff" d="M51.31152,62.5v-19.65527c-1.52246,1.2041-3.93066,2.37207-5.5957,3.11621l-1.69922-3.8252c2.62012-1.09766,5.77246-2.76172,8.25098-4.63965h4.35645v25.00391h-5.3125Z"/>
      <path fill="#fff" d="M69.97266,62.5h-5.70215c0-3.29395.88574-5.41895,3.08105-9.49121l6.0918-11.33301h-12.14746v-4.17969h17.49512v4.07324c-5.48926,9.52637-8.81836,17-8.81836,20.93066Z"/>
    </g>
  </symbol>
  <symbol id="C18" viewBox="0 0 100 100">
    <rect fill="#00a749" y="25" width="100" height="50"/>
    <g>
      <path fill="#fff" d="M33.89062,63.10254c-6.33984,0-12.39551-4.17969-12.39551-12.82129,0-7.47266,4.35547-13.45801,12.39551-13.45801,3.08105,0,5.34766.6377,7.15332,1.45215l-1.80566,4.56934c-1.62988-.9209-3.4707-1.34668-5.06445-1.34668-3.8252,0-6.94141,2.51465-6.94141,8.53516,0,5.73828,3.75391,8.39355,7.36621,8.39355,1.9834,0,3.75391-.60156,4.99316-1.3457l1.48828,4.28613c-1.91309,1.02637-4.63965,1.73535-7.18945,1.73535Z"/>
      <path fill="#fff" d="M51.31152,62.5v-19.65527c-1.52246,1.2041-3.93066,2.37207-5.5957,3.11621l-1.69922-3.8252c2.62012-1.09766,5.77246-2.76172,8.25098-4.63965h4.35645v25.00391h-5.3125Z"/>
      <path fill="#fff" d="M69.90234,63.17285c-5.56055,0-8.71289-3.3291-8.71289-7.11816,0-3.3291,1.87695-5.41895,4.28516-6.6582-2.16016-1.3457-3.50586-3.0459-3.50586-5.63184,0-4.14355,3.75391-7.01172,8.03906-7.01172,4.3916,0,8.04004,2.16016,8.04004,6.44531,0,2.33789-1.2041,4.32129-3.54199,5.7373,2.30176,1.09766,4.32129,3.22266,4.32129,6.5166,0,4.74609-3.79004,7.7207-8.9248,7.7207ZM69.47656,51.13184c-1.62891.6377-3.25781,2.4082-3.25781,4.35547,0,2.05469,1.3457,4.00195,3.75391,4.00195,2.37305,0,3.68359-1.66406,3.68359-3.64746,0-2.2666-2.05469-3.64746-4.17969-4.70996ZM70.0791,40.36523c-1.94824,0-3.1875,1.2041-3.1875,2.93945,0,2.05371,2.05371,3.3291,3.64746,4.00195,1.31055-.60156,2.72754-2.23145,2.72754-3.78906,0-1.73535-1.13379-3.15234-3.1875-3.15234Z"/>
    </g>
  </symbol>
  <symbol id="C19" viewBox="0 0 100 100">
    <rect fill="#00a749" y="25" width="100" height="50"/>
    <g>
      <path fill="#fff" d="M33.89062,63.10254c-6.33984,0-12.39551-4.17969-12.39551-12.82129,0-7.47266,4.35547-13.45801,12.39551-13.45801,3.08105,0,5.34766.6377,7.15332,1.45215l-1.80566,4.56934c-1.62988-.9209-3.4707-1.34668-5.06445-1.34668-3.8252,0-6.94141,2.51465-6.94141,8.53516,0,5.73828,3.75391,8.39355,7.36621,8.39355,1.9834,0,3.75391-.60156,4.99316-1.3457l1.48828,4.28613c-1.91309,1.02637-4.63965,1.73535-7.18945,1.73535Z"/>
      <path fill="#fff" d="M51.31152,62.5v-19.65527c-1.52246,1.2041-3.93066,2.37207-5.5957,3.11621l-1.69922-3.8252c2.62012-1.09766,5.77246-2.76172,8.25098-4.63965h4.35645v25.00391h-5.3125Z"/>
      <path fill="#fff" d="M66.64355,63.17285c-1.41602,0-2.69141-.17676-3.75391-.4248l.7793-4.25c.67285.2832,1.9834.60156,3.43555.60156,3.50586,0,6.05566-2.79688,6.41016-7.82617-.85059.74316-2.47949,1.7002-5.1709,1.7002-4.14355,0-7.47266-2.72754-7.47266-7.40234,0-4.99316,3.3291-8.67676,8.57031-8.67676,6.83496,0,9.2793,4.74609,9.2793,11.36816,0,8.67676-4.07324,14.91016-12.07715,14.91016ZM69.6543,40.8252c-2.47949,0-3.75391,2.01953-3.75391,4.17969,0,2.33691,1.55762,4.03711,4.03711,4.03711,1.59375,0,2.86816-.60156,3.36426-1.38086.2832-.4248.2832-1.41699.2832-2.16113,0-2.37207-1.38086-4.6748-3.93066-4.6748Z"/>
    </g>
  </symbol>
  <symbol id="C20" viewBox="0 0 100 100">
    <rect fill="#00a749" y="25" width="100" height="50"/>
    <g>
      <path fill="#fff" d="M33.18262,63.10254c-6.33984,0-12.39551-4.17969-12.39551-12.82129,0-7.47266,4.35547-13.45801,12.39551-13.45801,3.08105,0,5.34766.6377,7.15332,1.45215l-1.80566,4.56934c-1.62988-.9209-3.4707-1.34668-5.06445-1.34668-3.8252,0-6.94141,2.51465-6.94141,8.53516,0,5.73828,3.75391,8.39355,7.36621,8.39355,1.9834,0,3.75391-.60156,4.99316-1.3457l1.48828,4.28613c-1.91309,1.02637-4.63965,1.73535-7.18945,1.73535Z"/>
      <path fill="#fff" d="M43.83984,62.5v-3.29395c.63672-2.90332,3.50586-5.55957,6.83496-8.46387,1.66406-1.45215,3.4707-3.25879,3.4707-5.66699,0-2.16016-1.41699-3.96582-4.14355-3.96582-2.19629,0-3.71875,1.59375-4.32129,2.2666l-2.62012-3.4707c2.4082-2.08984,4.63867-3.08203,8.00391-3.08203,4.3916,0,8.53516,2.55078,8.53516,7.65039,0,4.28516-2.72754,6.30371-5.7373,9.03125-1.27539,1.16797-3.79004,3.36426-4.1084,4.81641h10.30566v4.17871h-16.21973Z"/>
      <path fill="#fff" d="M70.64648,63.17285c-7.54395,0-9.03125-7.4375-9.03125-13.20996s1.62891-13.20996,9.17285-13.20996c7.54297,0,9.03125,7.4375,9.03125,13.20996s-1.62988,13.20996-9.17285,13.20996ZM70.7168,40.9668c-3.6123,0-3.71875,6.44629-3.71875,8.99609,0,2.51465.17773,9.03125,3.71875,9.03125,3.54199,0,3.68359-6.55176,3.68359-9.03125,0-2.62109-.10645-8.99609-3.68359-8.99609Z"/>
    </g>
  </symbol>
  <symbol id="C21" viewBox="0 0 100 100">
    <rect fill="#00a749" y="25" width="100" height="50"/>
    <g>
      <path fill="#fff" d="M33.71289,63.10254c-6.33984,0-12.39551-4.17969-12.39551-12.82129,0-7.47266,4.35547-13.45801,12.39551-13.45801,3.08105,0,5.34766.6377,7.15332,1.45215l-1.80566,4.56934c-1.62988-.9209-3.4707-1.34668-5.06445-1.34668-3.8252,0-6.94141,2.51465-6.94141,8.53516,0,5.73828,3.75391,8.39355,7.36621,8.39355,1.9834,0,3.75391-.60156,4.99316-1.3457l1.48828,4.28613c-1.91309,1.02637-4.63965,1.73535-7.18945,1.73535Z"/>
      <path fill="#fff" d="M44.37012,62.5v-3.29395c.63672-2.90332,3.50586-5.55957,6.83496-8.46387,1.66406-1.45215,3.4707-3.25879,3.4707-5.66699,0-2.16016-1.41699-3.96582-4.14355-3.96582-2.19629,0-3.71875,1.59375-4.32129,2.2666l-2.62012-3.4707c2.4082-2.08984,4.63965-3.08203,8.00391-3.08203,4.3916,0,8.53516,2.55078,8.53516,7.65039,0,4.28516-2.72754,6.30371-5.7373,9.03125-1.27539,1.16797-3.79004,3.36426-4.1084,4.81641h10.30566v4.17871h-16.21973Z"/>
      <path fill="#fff" d="M68.83887,62.5v-19.65527c-1.52246,1.2041-3.93066,2.37207-5.5957,3.11621l-1.69922-3.8252c2.62012-1.09766,5.77246-2.76172,8.25098-4.63965h4.35645v25.00391h-5.3125Z"/>
    </g>
  </symbol>
  <symbol id="C22" viewBox="0 0 100 100">
    <rect fill="#00a749" y="25" width="100" height="50"/>
    <g>
      <path fill="#fff" d="M33.18262,63.10254c-6.33984,0-12.39551-4.17969-12.39551-12.82129,0-7.47266,4.35547-13.45801,12.39551-13.45801,3.08105,0,5.34766.6377,7.15332,1.45215l-1.80566,4.56934c-1.62988-.9209-3.4707-1.34668-5.06445-1.34668-3.8252,0-6.94141,2.51465-6.94141,8.53516,0,5.73828,3.75391,8.39355,7.36621,8.39355,1.9834,0,3.75391-.60156,4.99316-1.3457l1.48828,4.28613c-1.91309,1.02637-4.63965,1.73535-7.18945,1.73535Z"/>
      <path fill="#fff" d="M43.83984,62.5v-3.29395c.63672-2.90332,3.50586-5.55957,6.83496-8.46387,1.66406-1.45215,3.4707-3.25879,3.4707-5.66699,0-2.16016-1.41699-3.96582-4.14355-3.96582-2.19629,0-3.71875,1.59375-4.32129,2.2666l-2.62012-3.4707c2.4082-2.08984,4.63867-3.08203,8.00391-3.08203,4.3916,0,8.53516,2.55078,8.53516,7.65039,0,4.28516-2.72754,6.30371-5.7373,9.03125-1.27539,1.16797-3.79004,3.36426-4.1084,4.81641h10.30566v4.17871h-16.21973Z"/>
      <path fill="#fff" d="M62.60742,62.5v-3.29395c.63672-2.90332,3.50586-5.55957,6.83496-8.46387,1.66406-1.45215,3.4707-3.25879,3.4707-5.66699,0-2.16016-1.41699-3.96582-4.14355-3.96582-2.19629,0-3.71875,1.59375-4.32129,2.2666l-2.62012-3.4707c2.4082-2.08984,4.63867-3.08203,8.00391-3.08203,4.3916,0,8.53516,2.55078,8.53516,7.65039,0,4.28516-2.72754,6.30371-5.7373,9.03125-1.27539,1.16797-3.79004,3.36426-4.1084,4.81641h10.30566v4.17871h-16.21973Z"/>
    </g>
  </symbol>
  <symbol id="C23" viewBox="0 0 100 100">
    <rect fill="#00a749" y="25" width="100" height="50"/>
    <g>
      <path fill="#fff" d="M33.18262,63.10254c-6.33984,0-12.39551-4.17969-12.39551-12.82129,0-7.47266,4.35547-13.45801,12.39551-13.45801,3.08105,0,5.34766.6377,7.15332,1.45215l-1.80566,4.56934c-1.62988-.9209-3.4707-1.34668-5.06445-1.34668-3.8252,0-6.94141,2.51465-6.94141,8.53516,0,5.73828,3.75391,8.39355,7.36621,8.39355,1.9834,0,3.75391-.60156,4.99316-1.3457l1.48828,4.28613c-1.91309,1.02637-4.63965,1.73535-7.18945,1.73535Z"/>
      <path fill="#fff" d="M43.83984,62.5v-3.29395c.63672-2.90332,3.50586-5.55957,6.83496-8.46387,1.66406-1.45215,3.4707-3.25879,3.4707-5.66699,0-2.16016-1.41699-3.96582-4.14355-3.96582-2.19629,0-3.71875,1.59375-4.32129,2.2666l-2.62012-3.4707c2.4082-2.08984,4.63867-3.08203,8.00391-3.08203,4.3916,0,8.53516,2.55078,8.53516,7.65039,0,4.28516-2.72754,6.30371-5.7373,9.03125-1.27539,1.16797-3.79004,3.36426-4.1084,4.81641h10.30566v4.17871h-16.21973Z"/>
      <path fill="#fff" d="M69.12305,63.10254c-3.57617,0-5.55957-.88574-7.22461-1.87793l1.94824-3.86035c1.0625.74414,2.79785,1.62988,4.92285,1.62988,2.9043,0,4.70996-1.7002,4.70996-3.8252,0-2.86816-2.19531-3.86035-4.74512-3.86035h-2.58594v-4.14355h2.62109c2.44336,0,3.9668-1.27539,3.9668-3.1875,0-1.59375-1.20508-3.0459-3.8252-3.0459-2.30176,0-3.8252,1.09766-4.63965,1.80664l-1.80664-3.68359c2.125-1.41602,4.42773-2.23145,7.5791-2.23145,5.10059,0,8.00391,3.0459,8.00391,6.375,0,2.58594-1.38086,4.63965-4.03711,5.63086v.07129c2.7627.53125,4.85156,2.65625,4.85156,6.16211,0,4.3916-3.93066,8.04004-9.73926,8.04004Z"/>
    </g>
  </symbol>
</svg>