<?xml version="1.0" encoding="UTF-8"?>
<svg xmlns="http://www.w3.org/2000/svg" xmlns:xlink="http://www.w3.org/1999/xlink">
  <!-- DIC-128 -->
  <symbol id="N" viewBox="0 0 100 100">
    <circle fill="#add700" cx="50" cy="50" r="50"/>
    <path fill="#231815" d="M67.73633,83.75l-28.68262-39.58301c-4.11133-5.6416-5.83252-9.27441-6.50195-10.80469h-.19092v50.3877h-9.46582V16.24805h9.56152l27.53564,39.29688c4.11133,5.92773,6.69336,10.23047,7.45801,12.14258h.28613V16.24805h9.37109v67.50195h-9.37109Z"/>
  </symbol>
  <symbol id="N11" viewBox="0 0 100 100">
    <rect fill="#add700" y="25" width="100" height="50"/>
    <g>
      <path fill="#231815" d="M37.16602,62.5l-8.99512-12.43066c-1.27539-1.73535-1.94824-3.25879-2.16016-3.8252h-.07129v16.25586h-5.13477v-25.00391h5.06445l8.85352,12.8916c1.3457,1.94824,2.16016,3.40039,2.30176,4.00195h.07129v-16.89355h5.09961v25.00391h-5.0293Z"/>
      <path fill="#231815" d="M54.02051,62.5v-19.65527c-1.52246,1.2041-3.93066,2.37207-5.5957,3.11621l-1.69922-3.8252c2.62012-1.09766,5.77246-2.76172,8.25098-4.63965h4.35645v25.00391h-5.3125Z"/>
      <path fill="#231815" d="M70.84082,62.5v-19.65527c-1.52246,1.2041-3.93066,2.37207-5.5957,3.11621l-1.69922-3.8252c2.62012-1.09766,5.77246-2.76172,8.25098-4.63965h4.35645v25.00391h-5.3125Z"/>
    </g>
  </symbol>
  <symbol id="N12" viewBox="0 0 100 100">
    <rect fill="#add700" y="25" width="100" height="50"/>
    <g>
      <path fill="#231815" d="M36.90039,62.5l-8.99512-12.43066c-1.27539-1.73535-1.94824-3.25879-2.16016-3.8252h-.07129v16.25586h-5.13477v-25.00391h5.06445l8.85352,12.8916c1.3457,1.94824,2.16016,3.40039,2.30176,4.00195h.07129v-16.89355h5.09961v25.00391h-5.0293Z"/>
      <path fill="#231815" d="M53.75488,62.5v-19.65527c-1.52246,1.2041-3.93066,2.37207-5.5957,3.11621l-1.69922-3.8252c2.62012-1.09766,5.77246-2.76172,8.25098-4.63965h4.35645v25.00391h-5.3125Z"/>
      <path fill="#231815" d="M64.3418,62.5v-3.29395c.63672-2.90332,3.50586-5.55957,6.83496-8.46387,1.66406-1.45215,3.4707-3.25879,3.4707-5.66699,0-2.16016-1.41699-3.96582-4.14355-3.96582-2.19629,0-3.71875,1.59375-4.32129,2.2666l-2.62012-3.4707c2.4082-2.08984,4.63867-3.08203,8.00391-3.08203,4.3916,0,8.53516,2.55078,8.53516,7.65039,0,4.28516-2.72754,6.30371-5.7373,9.03125-1.27539,1.16797-3.79004,3.36426-4.1084,4.81641h10.30566v4.17871h-16.21973Z"/>
    </g>
  </symbol>
  <symbol id="N13" viewBox="0 0 100 100">
    <rect fill="#add700" y="25" width="100" height="50"/>
    <g>
      <path fill="#231815" d="M36.90039,62.5l-8.99512-12.43066c-1.27539-1.73535-1.94824-3.25879-2.16016-3.8252h-.07129v16.25586h-5.13477v-25.00391h5.06445l8.85352,12.8916c1.3457,1.94824,2.16016,3.40039,2.30176,4.00195h.07129v-16.89355h5.09961v25.00391h-5.0293Z"/>
      <path fill="#231815" d="M53.75488,62.5v-19.65527c-1.52246,1.2041-3.93066,2.37207-5.5957,3.11621l-1.69922-3.8252c2.62012-1.09766,5.77246-2.76172,8.25098-4.63965h4.35645v25.00391h-5.3125Z"/>
      <path fill="#231815" d="M70.85742,63.10254c-3.57617,0-5.55957-.88574-7.22461-1.87793l1.94824-3.86035c1.0625.74414,2.79785,1.62988,4.92285,1.62988,2.9043,0,4.70996-1.7002,4.70996-3.8252,0-2.86816-2.19531-3.86035-4.74512-3.86035h-2.58594v-4.14355h2.62109c2.44336,0,3.9668-1.27539,3.9668-3.1875,0-1.59375-1.20508-3.0459-3.8252-3.0459-2.30176,0-3.8252,1.09766-4.63965,1.80664l-1.80664-3.68359c2.125-1.41602,4.42773-2.23145,7.5791-2.23145,5.10059,0,8.00391,3.0459,8.00391,6.375,0,2.58594-1.38086,4.63965-4.03711,5.63086v.07129c2.7627.53125,4.85156,2.65625,4.85156,6.16211,0,4.3916-3.93066,8.04004-9.73926,8.04004Z"/>
    </g>
  </symbol>
  <symbol id="N14" viewBox="0 0 100 100">
    <rect fill="#add700" y="25" width="100" height="50"/>
    <g>
      <path fill="#231815" d="M36.90039,62.5l-8.99512-12.43066c-1.27539-1.73535-1.94824-3.25879-2.16016-3.8252h-.07129v16.25586h-5.13477v-25.00391h5.06445l8.85352,12.8916c1.3457,1.94824,2.16016,3.40039,2.30176,4.00195h.07129v-16.89355h5.09961v25.00391h-5.0293Z"/>
      <path fill="#231815" d="M53.75488,62.5v-19.65527c-1.52246,1.2041-3.93066,2.37207-5.5957,3.11621l-1.69922-3.8252c2.62012-1.09766,5.77246-2.76172,8.25098-4.63965h4.35645v25.00391h-5.3125Z"/>
      <path fill="#231815" d="M79.14551,57.29395v5.20605h-4.95898v-5.20605h-11.26172v-4.63965l9.7041-15.1582h6.5166v15.90234h2.93945v3.89551h-2.93945ZM74.18652,41.8877h-.07031c-.10645.42578-.81445,1.94824-1.80664,3.50684l-5.09961,8.00391h6.97656v-11.51074Z"/>
    </g>
  </symbol>
  <symbol id="N15" viewBox="0 0 100 100">
    <rect fill="#add700" y="25" width="100" height="50"/>
    <g>
      <path fill="#231815" d="M36.90039,62.5l-8.99512-12.43066c-1.27539-1.73535-1.94824-3.25879-2.16016-3.8252h-.07129v16.25586h-5.13477v-25.00391h5.06445l8.85352,12.8916c1.3457,1.94824,2.16016,3.40039,2.30176,4.00195h.07129v-16.89355h5.09961v25.00391h-5.0293Z"/>
      <path fill="#231815" d="M53.75488,62.5v-19.65527c-1.52246,1.2041-3.93066,2.37207-5.5957,3.11621l-1.69922-3.8252c2.62012-1.09766,5.77246-2.76172,8.25098-4.63965h4.35645v25.00391h-5.3125Z"/>
      <path fill="#231815" d="M71.10547,63.10254c-2.9043,0-5.13477-.6377-7.04785-1.80664l2.01953-3.89551c1.38086.95605,2.79785,1.59375,4.74512,1.59375,1.94824,0,4.3916-1.16895,4.3916-4.1084,0-1.80664-1.2041-4.28516-5.80762-4.35645-1.41699,0-3.08203-.03516-3.89648-.03516l.99219-12.99805h13.13867v4.17969h-8.99512l-.35449,4.74512c.1416,0,.46094.03613.70801.03613,6.83594.31836,9.59766,4.17871,9.59766,7.93262,0,4.78125-3.78906,8.71289-9.49121,8.71289Z"/>
    </g>
  </symbol>
  <symbol id="N16" viewBox="0 0 100 100">
    <rect fill="#add700" y="25" width="100" height="50"/>
    <g>
      <path fill="#231815" d="M36.90039,62.5l-8.99512-12.43066c-1.27539-1.73535-1.94824-3.25879-2.16016-3.8252h-.07129v16.25586h-5.13477v-25.00391h5.06445l8.85352,12.8916c1.3457,1.94824,2.16016,3.40039,2.30176,4.00195h.07129v-16.89355h5.09961v25.00391h-5.0293Z"/>
      <path fill="#231815" d="M53.75488,62.5v-19.65527c-1.52246,1.2041-3.93066,2.37207-5.5957,3.11621l-1.69922-3.8252c2.62012-1.09766,5.77246-2.76172,8.25098-4.63965h4.35645v25.00391h-5.3125Z"/>
      <path fill="#231815" d="M73.01855,63.10254c-6.83594,0-9.2793-4.74609-9.2793-11.36914,0-8.67676,4.07324-14.91016,12.07715-14.91016,1.41602,0,2.69141.17773,3.75391.42578l-.7793,4.24902c-.67285-.2832-1.9834-.60156-3.43555-.60156-3.50586,0-6.05566,2.79785-6.41016,7.82715.84961-.74414,2.47949-1.7002,5.1709-1.7002,4.14355,0,7.47266,2.72656,7.47266,7.40137,0,4.99414-3.3291,8.67773-8.57031,8.67773ZM72.52246,50.9541c-1.59375,0-2.86914.60254-3.36426,1.38184-.2832.4248-.2832,1.41602-.2832,2.16016,0,2.37305,1.38086,4.6748,3.93066,4.6748,2.47949,0,3.75391-2.01855,3.75391-4.17871,0-2.33789-1.55762-4.03809-4.03711-4.03809Z"/>
    </g>
  </symbol>
  <symbol id="N17" viewBox="0 0 100 100">
    <rect fill="#add700" y="25" width="100" height="50"/>
    <g>
      <path fill="#231815" d="M36.90039,62.5l-8.99512-12.43066c-1.27539-1.73535-1.94824-3.25879-2.16016-3.8252h-.07129v16.25586h-5.13477v-25.00391h5.06445l8.85352,12.8916c1.3457,1.94824,2.16016,3.40039,2.30176,4.00195h.07129v-16.89355h5.09961v25.00391h-5.0293Z"/>
      <path fill="#231815" d="M53.75488,62.5v-19.65527c-1.52246,1.2041-3.93066,2.37207-5.5957,3.11621l-1.69922-3.8252c2.62012-1.09766,5.77246-2.76172,8.25098-4.63965h4.35645v25.00391h-5.3125Z"/>
      <path fill="#231815" d="M72.41602,62.5h-5.70215c0-3.29395.88574-5.41895,3.08105-9.49121l6.0918-11.33301h-12.14746v-4.17969h17.49512v4.07324c-5.48926,9.52637-8.81836,17-8.81836,20.93066Z"/>
    </g>
  </symbol>
  <symbol id="N18" viewBox="0 0 100 100">
    <rect fill="#add700" y="25" width="100" height="50"/>
    <g>
      <path fill="#231815" d="M36.90039,62.5l-8.99512-12.43066c-1.27539-1.73535-1.94824-3.25879-2.16016-3.8252h-.07129v16.25586h-5.13477v-25.00391h5.06445l8.85352,12.8916c1.3457,1.94824,2.16016,3.40039,2.30176,4.00195h.07129v-16.89355h5.09961v25.00391h-5.0293Z"/>
      <path fill="#231815" d="M53.75488,62.5v-19.65527c-1.52246,1.2041-3.93066,2.37207-5.5957,3.11621l-1.69922-3.8252c2.62012-1.09766,5.77246-2.76172,8.25098-4.63965h4.35645v25.00391h-5.3125Z"/>
      <path fill="#231815" d="M72.3457,63.17285c-5.56055,0-8.71289-3.3291-8.71289-7.11816,0-3.3291,1.87695-5.41895,4.28516-6.6582-2.16016-1.3457-3.50586-3.0459-3.50586-5.63184,0-4.14355,3.75391-7.01172,8.03906-7.01172,4.3916,0,8.04004,2.16016,8.04004,6.44531,0,2.33789-1.2041,4.32129-3.54199,5.7373,2.30176,1.09766,4.32129,3.22266,4.32129,6.5166,0,4.74609-3.79004,7.7207-8.9248,7.7207ZM71.91992,51.13184c-1.62891.6377-3.25781,2.4082-3.25781,4.35547,0,2.05469,1.3457,4.00195,3.75391,4.00195,2.37305,0,3.68359-1.66406,3.68359-3.64746,0-2.2666-2.05469-3.64746-4.17969-4.70996ZM72.52246,40.36523c-1.94824,0-3.1875,1.2041-3.1875,2.93945,0,2.05371,2.05371,3.3291,3.64746,4.00195,1.31055-.60156,2.72754-2.23145,2.72754-3.78906,0-1.73535-1.13379-3.15234-3.1875-3.15234Z"/>
    </g>
  </symbol>
  <symbol id="N19" viewBox="0 0 100 100">
    <rect fill="#add700" y="25" width="100" height="50"/>
    <g>
      <path fill="#231815" d="M36.90039,62.5l-8.99512-12.43066c-1.27539-1.73535-1.94824-3.25879-2.16016-3.8252h-.07129v16.25586h-5.13477v-25.00391h5.06445l8.85352,12.8916c1.3457,1.94824,2.16016,3.40039,2.30176,4.00195h.07129v-16.89355h5.09961v25.00391h-5.0293Z"/>
      <path fill="#231815" d="M53.75488,62.5v-19.65527c-1.52246,1.2041-3.93066,2.37207-5.5957,3.11621l-1.69922-3.8252c2.62012-1.09766,5.77246-2.76172,8.25098-4.63965h4.35645v25.00391h-5.3125Z"/>
      <path fill="#231815" d="M69.08691,63.17285c-1.41602,0-2.69141-.17676-3.75391-.4248l.7793-4.25c.67285.2832,1.9834.60156,3.43555.60156,3.50586,0,6.05566-2.79688,6.41016-7.82617-.85059.74316-2.47949,1.7002-5.1709,1.7002-4.14355,0-7.47266-2.72754-7.47266-7.40234,0-4.99316,3.3291-8.67676,8.57031-8.67676,6.83496,0,9.2793,4.74609,9.2793,11.36816,0,8.67676-4.07324,14.91016-12.07715,14.91016ZM72.09766,40.8252c-2.47949,0-3.75391,2.01953-3.75391,4.17969,0,2.33691,1.55762,4.03711,4.03711,4.03711,1.59375,0,2.86816-.60156,3.36426-1.38086.2832-.4248.2832-1.41699.2832-2.16113,0-2.37207-1.38086-4.6748-3.93066-4.6748Z"/>
    </g>
  </symbol>
  <symbol id="N20" viewBox="0 0 100 100">
    <rect fill="#add700" y="25" width="100" height="50"/>
    <g>
      <path fill="#231815" d="M36.19336,62.5l-8.99609-12.43066c-1.27539-1.73535-1.94824-3.25879-2.16016-3.8252h-.07129v16.25586h-5.13477v-25.00391h5.06445l8.85352,12.8916c1.3457,1.94824,2.16016,3.40039,2.30176,4.00195h.07129v-16.89355h5.09961v25.00391h-5.02832Z"/>
      <path fill="#231815" d="M46.2832,62.5v-3.29395c.63672-2.90332,3.50586-5.55957,6.83496-8.46387,1.66406-1.45215,3.4707-3.25879,3.4707-5.66699,0-2.16016-1.41699-3.96582-4.14355-3.96582-2.19629,0-3.71875,1.59375-4.32129,2.2666l-2.62012-3.4707c2.4082-2.08984,4.63867-3.08203,8.00391-3.08203,4.3916,0,8.53516,2.55078,8.53516,7.65039,0,4.28516-2.72754,6.30371-5.7373,9.03125-1.27539,1.16797-3.79004,3.36426-4.1084,4.81641h10.30566v4.17871h-16.21973Z"/>
      <path fill="#231815" d="M73.08984,63.17285c-7.54395,0-9.03125-7.4375-9.03125-13.20996s1.62891-13.20996,9.17285-13.20996c7.54297,0,9.03125,7.4375,9.03125,13.20996s-1.62988,13.20996-9.17285,13.20996ZM73.16016,40.9668c-3.6123,0-3.71875,6.44629-3.71875,8.99609,0,2.51465.17773,9.03125,3.71875,9.03125,3.54199,0,3.68359-6.55176,3.68359-9.03125,0-2.62109-.10645-8.99609-3.68359-8.99609Z"/>
    </g>
  </symbol>
  <symbol id="N21" viewBox="0 0 100 100">
    <rect fill="#add700" y="25" width="100" height="50"/>
    <g>
      <path fill="#231815" d="M36.72266,62.5l-8.99512-12.43066c-1.27539-1.73535-1.94824-3.25879-2.16016-3.8252h-.07129v16.25586h-5.13477v-25.00391h5.06445l8.85352,12.8916c1.3457,1.94824,2.16016,3.40039,2.30176,4.00195h.07129v-16.89355h5.09961v25.00391h-5.0293Z"/>
      <path fill="#231815" d="M46.81348,62.5v-3.29395c.63672-2.90332,3.50586-5.55957,6.83496-8.46387,1.66406-1.45215,3.4707-3.25879,3.4707-5.66699,0-2.16016-1.41699-3.96582-4.14355-3.96582-2.19629,0-3.71875,1.59375-4.32129,2.2666l-2.62012-3.4707c2.4082-2.08984,4.63965-3.08203,8.00391-3.08203,4.3916,0,8.53516,2.55078,8.53516,7.65039,0,4.28516-2.72754,6.30371-5.7373,9.03125-1.27539,1.16797-3.79004,3.36426-4.1084,4.81641h10.30566v4.17871h-16.21973Z"/>
      <path fill="#231815" d="M71.28223,62.5v-19.65527c-1.52246,1.2041-3.93066,2.37207-5.5957,3.11621l-1.69922-3.8252c2.62012-1.09766,5.77246-2.76172,8.25098-4.63965h4.35645v25.00391h-5.3125Z"/>
    </g>
  </symbol>
  <symbol id="N22" viewBox="0 0 100 100">
    <rect fill="#add700" y="25" width="100" height="50"/>
    <g>
      <path fill="#231815" d="M36.19336,62.5l-8.99609-12.43066c-1.27539-1.73535-1.94824-3.25879-2.16016-3.8252h-.07129v16.25586h-5.13477v-25.00391h5.06445l8.85352,12.8916c1.3457,1.94824,2.16016,3.40039,2.30176,4.00195h.07129v-16.89355h5.09961v25.00391h-5.02832Z"/>
      <path fill="#231815" d="M46.2832,62.5v-3.29395c.63672-2.90332,3.50586-5.55957,6.83496-8.46387,1.66406-1.45215,3.4707-3.25879,3.4707-5.66699,0-2.16016-1.41699-3.96582-4.14355-3.96582-2.19629,0-3.71875,1.59375-4.32129,2.2666l-2.62012-3.4707c2.4082-2.08984,4.63867-3.08203,8.00391-3.08203,4.3916,0,8.53516,2.55078,8.53516,7.65039,0,4.28516-2.72754,6.30371-5.7373,9.03125-1.27539,1.16797-3.79004,3.36426-4.1084,4.81641h10.30566v4.17871h-16.21973Z"/>
      <path fill="#231815" d="M65.05078,62.5v-3.29395c.63672-2.90332,3.50586-5.55957,6.83496-8.46387,1.66406-1.45215,3.4707-3.25879,3.4707-5.66699,0-2.16016-1.41699-3.96582-4.14355-3.96582-2.19629,0-3.71875,1.59375-4.32129,2.2666l-2.62012-3.4707c2.4082-2.08984,4.63867-3.08203,8.00391-3.08203,4.3916,0,8.53516,2.55078,8.53516,7.65039,0,4.28516-2.72754,6.30371-5.7373,9.03125-1.27539,1.16797-3.79004,3.36426-4.1084,4.81641h10.30566v4.17871h-16.21973Z"/>
    </g>
  </symbol>
  <symbol id="N23" viewBox="0 0 100 100">
    <rect fill="#add700" y="25" width="100" height="50"/>
    <g>
      <path fill="#231815" d="M36.19336,62.5l-8.99609-12.43066c-1.27539-1.73535-1.94824-3.25879-2.16016-3.8252h-.07129v16.25586h-5.13477v-25.00391h5.06445l8.85352,12.8916c1.3457,1.94824,2.16016,3.40039,2.30176,4.00195h.07129v-16.89355h5.09961v25.00391h-5.02832Z"/>
      <path fill="#231815" d="M46.2832,62.5v-3.29395c.63672-2.90332,3.50586-5.55957,6.83496-8.46387,1.66406-1.45215,3.4707-3.25879,3.4707-5.66699,0-2.16016-1.41699-3.96582-4.14355-3.96582-2.19629,0-3.71875,1.59375-4.32129,2.2666l-2.62012-3.4707c2.4082-2.08984,4.63867-3.08203,8.00391-3.08203,4.3916,0,8.53516,2.55078,8.53516,7.65039,0,4.28516-2.72754,6.30371-5.7373,9.03125-1.27539,1.16797-3.79004,3.36426-4.1084,4.81641h10.30566v4.17871h-16.21973Z"/>
      <path fill="#231815" d="M71.56641,63.10254c-3.57617,0-5.55957-.88574-7.22461-1.87793l1.94824-3.86035c1.0625.74414,2.79785,1.62988,4.92285,1.62988,2.9043,0,4.70996-1.7002,4.70996-3.8252,0-2.86816-2.19531-3.86035-4.74512-3.86035h-2.58594v-4.14355h2.62109c2.44336,0,3.9668-1.27539,3.9668-3.1875,0-1.59375-1.20508-3.0459-3.8252-3.0459-2.30176,0-3.8252,1.09766-4.63965,1.80664l-1.80664-3.68359c2.125-1.41602,4.42773-2.23145,7.5791-2.23145,5.10059,0,8.00391,3.0459,8.00391,6.375,0,2.58594-1.38086,4.63965-4.03711,5.63086v.07129c2.7627.53125,4.85156,2.65625,4.85156,6.16211,0,4.3916-3.93066,8.04004-9.73926,8.04004Z"/>
    </g>
  </symbol>
  <symbol id="N24" viewBox="0 0 100 100">
    <rect fill="#add700" y="25" width="100" height="50"/>
    <g>
      <path fill="#231815" d="M36.19336,62.5l-8.99609-12.43066c-1.27539-1.73535-1.94824-3.25879-2.16016-3.8252h-.07129v16.25586h-5.13477v-25.00391h5.06445l8.85352,12.8916c1.3457,1.94824,2.16016,3.40039,2.30176,4.00195h.07129v-16.89355h5.09961v25.00391h-5.02832Z"/>
      <path fill="#231815" d="M46.2832,62.5v-3.29395c.63672-2.90332,3.50586-5.55957,6.83496-8.46387,1.66406-1.45215,3.4707-3.25879,3.4707-5.66699,0-2.16016-1.41699-3.96582-4.14355-3.96582-2.19629,0-3.71875,1.59375-4.32129,2.2666l-2.62012-3.4707c2.4082-2.08984,4.63867-3.08203,8.00391-3.08203,4.3916,0,8.53516,2.55078,8.53516,7.65039,0,4.28516-2.72754,6.30371-5.7373,9.03125-1.27539,1.16797-3.79004,3.36426-4.1084,4.81641h10.30566v4.17871h-16.21973Z"/>
      <path fill="#231815" d="M79.85449,57.29395v5.20605h-4.95898v-5.20605h-11.26172v-4.63965l9.7041-15.1582h6.5166v15.90234h2.93945v3.89551h-2.93945ZM74.89551,41.8877h-.07031c-.10645.42578-.81445,1.94824-1.80664,3.50684l-5.09961,8.00391h6.97656v-11.51074Z"/>
    </g>
  </symbol>
  <symbol id="N25" viewBox="0 0 100 100">
    <rect fill="#add700" y="25" width="100" height="50"/>
    <g>
      <path fill="#231815" d="M36.19336,62.5l-8.99609-12.43066c-1.27539-1.73535-1.94824-3.25879-2.16016-3.8252h-.07129v16.25586h-5.13477v-25.00391h5.06445l8.85352,12.8916c1.3457,1.94824,2.16016,3.40039,2.30176,4.00195h.07129v-16.89355h5.09961v25.00391h-5.02832Z"/>
      <path fill="#231815" d="M46.2832,62.5v-3.29395c.63672-2.90332,3.50586-5.55957,6.83496-8.46387,1.66406-1.45215,3.4707-3.25879,3.4707-5.66699,0-2.16016-1.41699-3.96582-4.14355-3.96582-2.19629,0-3.71875,1.59375-4.32129,2.2666l-2.62012-3.4707c2.4082-2.08984,4.63867-3.08203,8.00391-3.08203,4.3916,0,8.53516,2.55078,8.53516,7.65039,0,4.28516-2.72754,6.30371-5.7373,9.03125-1.27539,1.16797-3.79004,3.36426-4.1084,4.81641h10.30566v4.17871h-16.21973Z"/>
      <path fill="#231815" d="M71.81445,63.10254c-2.9043,0-5.13477-.6377-7.04785-1.80664l2.01953-3.89551c1.38086.95605,2.79785,1.59375,4.74512,1.59375,1.94824,0,4.3916-1.16895,4.3916-4.1084,0-1.80664-1.2041-4.28516-5.80762-4.35645-1.41699,0-3.08203-.03516-3.89648-.03516l.99219-12.99805h13.13867v4.17969h-8.99512l-.35449,4.74512c.1416,0,.46094.03613.70801.03613,6.83594.31836,9.59766,4.17871,9.59766,7.93262,0,4.78125-3.78906,8.71289-9.49121,8.71289Z"/>
    </g>
  </symbol>
  <symbol id="N26" viewBox="0 0 100 100">
    <rect fill="#add700" y="25" width="100" height="50"/>
    <g>
      <path fill="#231815" d="M36.19336,62.5l-8.99609-12.43066c-1.27539-1.73535-1.94824-3.25879-2.16016-3.8252h-.07129v16.25586h-5.13477v-25.00391h5.06445l8.85352,12.8916c1.3457,1.94824,2.16016,3.40039,2.30176,4.00195h.07129v-16.89355h5.09961v25.00391h-5.02832Z"/>
      <path fill="#231815" d="M46.2832,62.5v-3.29395c.63672-2.90332,3.50586-5.55957,6.83496-8.46387,1.66406-1.45215,3.4707-3.25879,3.4707-5.66699,0-2.16016-1.41699-3.96582-4.14355-3.96582-2.19629,0-3.71875,1.59375-4.32129,2.2666l-2.62012-3.4707c2.4082-2.08984,4.63867-3.08203,8.00391-3.08203,4.3916,0,8.53516,2.55078,8.53516,7.65039,0,4.28516-2.72754,6.30371-5.7373,9.03125-1.27539,1.16797-3.79004,3.36426-4.1084,4.81641h10.30566v4.17871h-16.21973Z"/>
      <path fill="#231815" d="M73.72754,63.10254c-6.83594,0-9.2793-4.74609-9.2793-11.36914,0-8.67676,4.07324-14.91016,12.07715-14.91016,1.41602,0,2.69141.17773,3.75391.42578l-.7793,4.24902c-.67285-.2832-1.9834-.60156-3.43555-.60156-3.50586,0-6.05566,2.79785-6.41016,7.82715.84961-.74414,2.47949-1.7002,5.1709-1.7002,4.14355,0,7.47266,2.72656,7.47266,7.40137,0,4.99414-3.3291,8.67773-8.57031,8.67773ZM73.23145,50.9541c-1.59375,0-2.86914.60254-3.36426,1.38184-.2832.4248-.2832,1.41602-.2832,2.16016,0,2.37305,1.38086,4.6748,3.93066,4.6748,2.47949,0,3.75391-2.01855,3.75391-4.17871,0-2.33789-1.55762-4.03809-4.03711-4.03809Z"/>
    </g>
  </symbol>
  <symbol id="N27" viewBox="0 0 100 100">
    <rect fill="#add700" y="25" width="100" height="50"/>
    <g>
      <path fill="#231815" d="M36.19336,62.5l-8.99609-12.43066c-1.27539-1.73535-1.94824-3.25879-2.16016-3.8252h-.07129v16.25586h-5.13477v-25.00391h5.06445l8.85352,12.8916c1.3457,1.94824,2.16016,3.40039,2.30176,4.00195h.07129v-16.89355h5.09961v25.00391h-5.02832Z"/>
      <path fill="#231815" d="M46.2832,62.5v-3.29395c.63672-2.90332,3.50586-5.55957,6.83496-8.46387,1.66406-1.45215,3.4707-3.25879,3.4707-5.66699,0-2.16016-1.41699-3.96582-4.14355-3.96582-2.19629,0-3.71875,1.59375-4.32129,2.2666l-2.62012-3.4707c2.4082-2.08984,4.63867-3.08203,8.00391-3.08203,4.3916,0,8.53516,2.55078,8.53516,7.65039,0,4.28516-2.72754,6.30371-5.7373,9.03125-1.27539,1.16797-3.79004,3.36426-4.1084,4.81641h10.30566v4.17871h-16.21973Z"/>
      <path fill="#231815" d="M73.125,62.5h-5.70215c0-3.29395.88574-5.41895,3.08105-9.49121l6.0918-11.33301h-12.14746v-4.17969h17.49512v4.07324c-5.48926,9.52637-8.81836,17-8.81836,20.93066Z"/>
    </g>
  </symbol>
</svg>