<?xml version="1.0" encoding="UTF-8"?>
<svg xmlns="http://www.w3.org/2000/svg" xmlns:xlink="http://www.w3.org/1999/xlink">
  <symbol id="SY" viewBox="0 0 100 100">
    <circle fill="#e31b13" cx="50" cy="50" r="50"/>
    <circle fill="#fff" cx="50" cy="50" r="46.25"/>
    <circle fill="#e31b13" cx="50" cy="50" r="43.75"/>
    <g>
      <path fill="#fff" d="M19.65625,61.91895c2.86572,1.54785,6.01758,2.46484,9.05518,2.46484,2.92285,0,7.10645-1.49023,7.10645-5.1582,0-3.03711-2.69336-4.35547-6.64795-5.90332-5.33008-2.06348-10.88916-4.29834-10.88916-11.80615,0-8.59717,6.47607-12.20752,14.0415-12.20752,3.38135,0,6.59082.4585,9.51367,1.43262l-.74512,6.59082c-2.69385-1.146-5.44482-1.71924-8.13818-1.71924-2.98047,0-6.30469,1.37549-6.30469,5.55908,0,3.0376,3.43896,4.18408,6.76318,5.50195,5.38721,2.00586,10.77441,4.4707,10.77441,11.9209,0,7.7373-5.50195,12.09277-15.07275,12.09277-4.12646,0-6.36182-.57227-10.20166-1.54688l.74512-7.22168Z"/>
      <path fill="#fff" d="M62.06445,70v-15.81836l-14.61523-24.18555h9.39941l9.45703,16.79248,9.62793-16.79248h8.48242l-14.32812,24.18555v15.81836h-8.02344Z"/>
    </g>
  </symbol>
  <symbol id="SY01" viewBox="0 0 100 100">
    <circle fill="#e31b13" cx="50" cy="50" r="50"/>
    <circle fill="#fff" cx="50" cy="50" r="46.25"/>
    <circle fill="#e31b13" cx="50" cy="50" r="43.75"/>
    <g>
      <path fill="#fff" d="M32.93213,34.2041c1.61182.87012,3.38525,1.38623,5.09375,1.38623,1.64453,0,3.99805-.83838,3.99805-2.90186,0-1.70898-1.51514-2.4502-3.73975-3.3208-2.99854-1.16064-6.12598-2.41797-6.12598-6.64209,0-4.83594,3.64307-6.86719,7.89893-6.86719,1.90234,0,3.70801.25781,5.35254.80615l-.41943,3.70752c-1.51514-.64453-3.06299-.96729-4.57812-.96729-1.67676,0-3.54688.77393-3.54688,3.12744,0,1.70898,1.93457,2.354,3.80469,3.09521,3.03076,1.12842,6.06152,2.51514,6.06152,6.70654,0,4.35254-3.09521,6.80273-8.47949,6.80273-2.32178,0-3.5791-.32227-5.73926-.87012l.41943-4.0625Z"/>
      <path fill="#fff" d="M56.78711,38.75v-8.89893l-8.22168-13.60596h5.28809l5.32031,9.44678,5.41602-9.44678h4.77246l-8.06055,13.60596v8.89893h-4.51465Z"/>
    </g>
    <g>
      <path fill="#fff" d="M22.00928,63.85645c0-11.81934,4.24463-19.50195,13.00195-19.50195,8.59619,0,13.10889,6.76953,13.10889,19.50195,0,12.46484-4.5127,19.28809-13.10889,19.28809-8.54248,0-13.00195-6.125-13.00195-19.28809ZM40.59863,63.85645c0-5.64062-.16113-13.91455-5.64111-13.91455-5.104,0-5.42676,7.95166-5.42676,13.75342,0,6.01758.21533,13.86133,5.48047,13.86133,5.42627,0,5.5874-8.1123,5.5874-13.7002Z"/>
      <path fill="#fff" d="M64.34473,82.5v-28.95898l-6.33887,5.1582-3.76172-4.88965,10.95996-8.81055h6.66211v37.50098h-7.52148Z"/>
    </g>
  </symbol>
  <symbol id="SY02" viewBox="0 0 100 100">
    <circle fill="#e31b13" cx="50" cy="50" r="50"/>
    <circle fill="#fff" cx="50" cy="50" r="46.25"/>
    <circle fill="#e31b13" cx="50" cy="50" r="43.75"/>
    <g>
      <path fill="#fff" d="M32.93213,34.2041c1.61182.87012,3.38525,1.38623,5.09375,1.38623,1.64453,0,3.99805-.83838,3.99805-2.90186,0-1.70898-1.51514-2.4502-3.73975-3.3208-2.99854-1.16064-6.12598-2.41797-6.12598-6.64209,0-4.83594,3.64307-6.86719,7.89893-6.86719,1.90234,0,3.70801.25781,5.35254.80615l-.41943,3.70752c-1.51514-.64453-3.06299-.96729-4.57812-.96729-1.67676,0-3.54688.77393-3.54688,3.12744,0,1.70898,1.93457,2.354,3.80469,3.09521,3.03076,1.12842,6.06152,2.51514,6.06152,6.70654,0,4.35254-3.09521,6.80273-8.47949,6.80273-2.32178,0-3.5791-.32227-5.73926-.87012l.41943-4.0625Z"/>
      <path fill="#fff" d="M56.78711,38.75v-8.89893l-8.22168-13.60596h5.28809l5.32031,9.44678,5.41602-9.44678h4.77246l-8.06055,13.60596v8.89893h-4.51465Z"/>
    </g>
    <g>
      <path fill="#fff" d="M22.00928,63.85645c0-11.81934,4.24463-19.50195,13.00195-19.50195,8.59619,0,13.10889,6.76953,13.10889,19.50195,0,12.46484-4.5127,19.28809-13.10889,19.28809-8.54248,0-13.00195-6.125-13.00195-19.28809ZM40.59863,63.85645c0-5.64062-.16113-13.91455-5.64111-13.91455-5.104,0-5.42676,7.95166-5.42676,13.75342,0,6.01758.21533,13.86133,5.48047,13.86133,5.42627,0,5.5874-8.1123,5.5874-13.7002Z"/>
      <path fill="#fff" d="M52.20312,82.5v-6.28613l4.5127-4.19043c7.19922-6.71582,11.71191-12.62598,11.71191-16.70898,0-3.22363-2.79297-5.05029-6.12402-5.05029-2.5791,0-5.42676.91357-8.65039,3.0083l-.59082-6.23193c3.43848-1.71924,7.25293-2.68604,11.12109-2.68604,7.46777,0,11.7666,3.92188,11.7666,10.95996,0,5.21094-3.00879,10.90625-14.12988,21.27539h15.31152v5.91016h-24.92871Z"/>
    </g>
  </symbol>
  <symbol id="SY03" viewBox="0 0 100 100">
    <circle fill="#e31b13" cx="50" cy="50" r="50"/>
    <circle fill="#fff" cx="50" cy="50" r="46.25"/>
    <circle fill="#e31b13" cx="50" cy="50" r="43.75"/>
    <g>
      <path fill="#fff" d="M32.93213,34.2041c1.61182.87012,3.38525,1.38623,5.09375,1.38623,1.64453,0,3.99805-.83838,3.99805-2.90186,0-1.70898-1.51514-2.4502-3.73975-3.3208-2.99854-1.16064-6.12598-2.41797-6.12598-6.64209,0-4.83594,3.64307-6.86719,7.89893-6.86719,1.90234,0,3.70801.25781,5.35254.80615l-.41943,3.70752c-1.51514-.64453-3.06299-.96729-4.57812-.96729-1.67676,0-3.54688.77393-3.54688,3.12744,0,1.70898,1.93457,2.354,3.80469,3.09521,3.03076,1.12842,6.06152,2.51514,6.06152,6.70654,0,4.35254-3.09521,6.80273-8.47949,6.80273-2.32178,0-3.5791-.32227-5.73926-.87012l.41943-4.0625Z"/>
      <path fill="#fff" d="M56.78711,38.75v-8.89893l-8.22168-13.60596h5.28809l5.32031,9.44678,5.41602-9.44678h4.77246l-8.06055,13.60596v8.89893h-4.51465Z"/>
    </g>
    <g>
      <path fill="#fff" d="M22.00928,63.85645c0-11.81934,4.24463-19.50195,13.00195-19.50195,8.59619,0,13.10889,6.76953,13.10889,19.50195,0,12.46484-4.5127,19.28809-13.10889,19.28809-8.54248,0-13.00195-6.125-13.00195-19.28809ZM40.59863,63.85645c0-5.64062-.16113-13.91455-5.64111-13.91455-5.104,0-5.42676,7.95166-5.42676,13.75342,0,6.01758.21533,13.86133,5.48047,13.86133,5.42627,0,5.5874-8.1123,5.5874-13.7002Z"/>
      <path fill="#fff" d="M52.84766,75.51562c2.74023,1.07422,5.48047,1.71875,8.27344,1.71875,3.59961,0,7.95215-1.71875,7.95215-5.31836,0-3.92188-2.79395-5.85645-8.2207-5.85645h-3.70703v-5.91016h3.65332c4.78223,0,8.11328-1.71875,8.11328-4.94238s-2.25684-4.94287-6.50098-4.94287c-2.84766,0-5.74902.69873-8.38184,1.98779l-.42969-6.01709c3.00879-1.18213,6.6084-1.88037,10.42285-1.88037,6.125,0,12.41113,2.47119,12.41113,9.61621,0,4.29883-2.20312,7.14648-6.98438,8.97266v.10742c4.5127.59082,7.14551,4.0293,7.14551,8.91895,0,7.52148-5.91016,11.1748-14.45215,11.1748-3.22363,0-6.87695-.42969-9.72461-1.23535l.42969-6.39355Z"/>
    </g>
  </symbol>
  <symbol id="SY04" viewBox="0 0 100 100">
    <circle fill="#e31b13" cx="50" cy="50" r="50"/>
    <circle fill="#fff" cx="50" cy="50" r="46.25"/>
    <circle fill="#e31b13" cx="50" cy="50" r="43.75"/>
    <g>
      <path fill="#fff" d="M32.93213,34.2041c1.61182.87012,3.38525,1.38623,5.09375,1.38623,1.64453,0,3.99805-.83838,3.99805-2.90186,0-1.70898-1.51514-2.4502-3.73975-3.3208-2.99854-1.16064-6.12598-2.41797-6.12598-6.64209,0-4.83594,3.64307-6.86719,7.89893-6.86719,1.90234,0,3.70801.25781,5.35254.80615l-.41943,3.70752c-1.51514-.64453-3.06299-.96729-4.57812-.96729-1.67676,0-3.54688.77393-3.54688,3.12744,0,1.70898,1.93457,2.354,3.80469,3.09521,3.03076,1.12842,6.06152,2.51514,6.06152,6.70654,0,4.35254-3.09521,6.80273-8.47949,6.80273-2.32178,0-3.5791-.32227-5.73926-.87012l.41943-4.0625Z"/>
      <path fill="#fff" d="M56.78711,38.75v-8.89893l-8.22168-13.60596h5.28809l5.32031,9.44678,5.41602-9.44678h4.77246l-8.06055,13.60596v8.89893h-4.51465Z"/>
    </g>
    <g>
      <path fill="#fff" d="M22.00928,63.85645c0-11.81934,4.24463-19.50195,13.00195-19.50195,8.59619,0,13.10889,6.76953,13.10889,19.50195,0,12.46484-4.5127,19.28809-13.10889,19.28809-8.54248,0-13.00195-6.125-13.00195-19.28809ZM40.59863,63.85645c0-5.64062-.16113-13.91455-5.64111-13.91455-5.104,0-5.42676,7.95166-5.42676,13.75342,0,6.01758.21533,13.86133,5.48047,13.86133,5.42627,0,5.5874-8.1123,5.5874-13.7002Z"/>
      <path fill="#fff" d="M67.03125,82.5v-7.79102h-16.17188v-6.07031l14.02246-23.63965h9.34863v24.12305h4.78125v5.58691h-4.78125v7.79102h-7.19922ZM67.03125,52.84277h-.10742l-9.29492,16.2793h9.40234v-16.2793Z"/>
    </g>
  </symbol>
  <symbol id="SY05" viewBox="0 0 100 100">
    <circle fill="#e31b13" cx="50" cy="50" r="50"/>
    <circle fill="#fff" cx="50" cy="50" r="46.25"/>
    <circle fill="#e31b13" cx="50" cy="50" r="43.75"/>
    <g>
      <path fill="#fff" d="M32.93213,34.2041c1.61182.87012,3.38525,1.38623,5.09375,1.38623,1.64453,0,3.99805-.83838,3.99805-2.90186,0-1.70898-1.51514-2.4502-3.73975-3.3208-2.99854-1.16064-6.12598-2.41797-6.12598-6.64209,0-4.83594,3.64307-6.86719,7.89893-6.86719,1.90234,0,3.70801.25781,5.35254.80615l-.41943,3.70752c-1.51514-.64453-3.06299-.96729-4.57812-.96729-1.67676,0-3.54688.77393-3.54688,3.12744,0,1.70898,1.93457,2.354,3.80469,3.09521,3.03076,1.12842,6.06152,2.51514,6.06152,6.70654,0,4.35254-3.09521,6.80273-8.47949,6.80273-2.32178,0-3.5791-.32227-5.73926-.87012l.41943-4.0625Z"/>
      <path fill="#fff" d="M56.78711,38.75v-8.89893l-8.22168-13.60596h5.28809l5.32031,9.44678,5.41602-9.44678h4.77246l-8.06055,13.60596v8.89893h-4.51465Z"/>
    </g>
    <g>
      <path fill="#fff" d="M22.00928,63.85645c0-11.81934,4.24463-19.50195,13.00195-19.50195,8.59619,0,13.10889,6.76953,13.10889,19.50195,0,12.46484-4.5127,19.28809-13.10889,19.28809-8.54248,0-13.00195-6.125-13.00195-19.28809ZM40.59863,63.85645c0-5.64062-.16113-13.91455-5.64111-13.91455-5.104,0-5.42676,7.95166-5.42676,13.75342,0,6.01758.21533,13.86133,5.48047,13.86133,5.42627,0,5.5874-8.1123,5.5874-13.7002Z"/>
      <path fill="#fff" d="M54.0293,75.35449c3.11621,1.34277,5.42676,1.87988,7.57617,1.87988,4.78125,0,8.1123-2.36328,8.1123-6.6084,0-4.13672-3.27734-6.50098-8.59668-6.50098-2.30957,0-4.5127.32324-6.71484,1.02148l.37598-20.14746h21.54395v5.5874h-14.45215l-.16113,8.00537c1.28906-.21484,2.09473-.37598,3.4375-.37598,6.71582,0,12.08887,3.70703,12.08887,12.1416,0,7.68262-5.58789,12.78711-14.61328,12.78711-2.41797,0-5.91016-.37598-8.75781-1.07422l.16113-6.71582Z"/>
    </g>
  </symbol>
  <symbol id="SY06" viewBox="0 0 100 100">
    <circle fill="#e31b13" cx="50" cy="50" r="50"/>
    <circle fill="#fff" cx="50" cy="50" r="46.25"/>
    <circle fill="#e31b13" cx="50" cy="50" r="43.75"/>
    <g>
      <path fill="#fff" d="M32.93213,34.2041c1.61182.87012,3.38525,1.38623,5.09375,1.38623,1.64453,0,3.99805-.83838,3.99805-2.90186,0-1.70898-1.51514-2.4502-3.73975-3.3208-2.99854-1.16064-6.12598-2.41797-6.12598-6.64209,0-4.83594,3.64307-6.86719,7.89893-6.86719,1.90234,0,3.70801.25781,5.35254.80615l-.41943,3.70752c-1.51514-.64453-3.06299-.96729-4.57812-.96729-1.67676,0-3.54688.77393-3.54688,3.12744,0,1.70898,1.93457,2.354,3.80469,3.09521,3.03076,1.12842,6.06152,2.51514,6.06152,6.70654,0,4.35254-3.09521,6.80273-8.47949,6.80273-2.32178,0-3.5791-.32227-5.73926-.87012l.41943-4.0625Z"/>
      <path fill="#fff" d="M56.78711,38.75v-8.89893l-8.22168-13.60596h5.28809l5.32031,9.44678,5.41602-9.44678h4.77246l-8.06055,13.60596v8.89893h-4.51465Z"/>
    </g>
    <g>
      <path fill="#fff" d="M22.00928,63.85645c0-11.81934,4.24463-19.50195,13.00195-19.50195,8.59619,0,13.10889,6.76953,13.10889,19.50195,0,12.46484-4.5127,19.28809-13.10889,19.28809-8.54248,0-13.00195-6.125-13.00195-19.28809ZM40.59863,63.85645c0-5.64062-.16113-13.91455-5.64111-13.91455-5.104,0-5.42676,7.95166-5.42676,13.75342,0,6.01758.21533,13.86133,5.48047,13.86133,5.42627,0,5.5874-8.1123,5.5874-13.7002Z"/>
      <path fill="#fff" d="M74.71387,51.76855c-1.87988-.80566-3.92188-1.50439-6.55469-1.50439-5.96289,0-8.64941,5.104-8.91797,11.60498l.10742.10742c1.77246-2.5791,4.08301-3.76074,7.30664-3.76074,6.87695,0,10.90625,4.35156,10.90625,11.44336,0,8.59668-4.40527,13.48535-12.46484,13.48535-8.38086,0-12.73242-5.53418-12.73242-17.46094,0-11.49707,4.08301-21.3291,15.41895-21.3291,2.74023,0,5.31934.42969,7.89746,1.34326l-.9668,6.0708ZM70.04004,70.84082c0-3.43848-1.34375-7.03809-5.1582-7.03809-3.11523,0-4.99609,2.63281-4.99609,7.0918,0,3.49219,1.45117,6.66211,5.21094,6.66211,3.59961,0,4.94336-3.5459,4.94336-6.71582Z"/>
    </g>
  </symbol>
  <symbol id="SY07" viewBox="0 0 100 100">
    <circle fill="#e31b13" cx="50" cy="50" r="50"/>
    <circle fill="#fff" cx="50" cy="50" r="46.25"/>
    <circle fill="#e31b13" cx="50" cy="50" r="43.75"/>
    <g>
      <path fill="#fff" d="M32.93213,34.2041c1.61182.87012,3.38525,1.38623,5.09375,1.38623,1.64453,0,3.99805-.83838,3.99805-2.90186,0-1.70898-1.51514-2.4502-3.73975-3.3208-2.99854-1.16064-6.12598-2.41797-6.12598-6.64209,0-4.83594,3.64307-6.86719,7.89893-6.86719,1.90234,0,3.70801.25781,5.35254.80615l-.41943,3.70752c-1.51514-.64453-3.06299-.96729-4.57812-.96729-1.67676,0-3.54688.77393-3.54688,3.12744,0,1.70898,1.93457,2.354,3.80469,3.09521,3.03076,1.12842,6.06152,2.51514,6.06152,6.70654,0,4.35254-3.09521,6.80273-8.47949,6.80273-2.32178,0-3.5791-.32227-5.73926-.87012l.41943-4.0625Z"/>
      <path fill="#fff" d="M56.78711,38.75v-8.89893l-8.22168-13.60596h5.28809l5.32031,9.44678,5.41602-9.44678h4.77246l-8.06055,13.60596v8.89893h-4.51465Z"/>
    </g>
    <g>
      <path fill="#fff" d="M22.00928,63.85645c0-11.81934,4.24463-19.50195,13.00195-19.50195,8.59619,0,13.10889,6.76953,13.10889,19.50195,0,12.46484-4.5127,19.28809-13.10889,19.28809-8.54248,0-13.00195-6.125-13.00195-19.28809ZM40.59863,63.85645c0-5.64062-.16113-13.91455-5.64111-13.91455-5.104,0-5.42676,7.95166-5.42676,13.75342,0,6.01758.21533,13.86133,5.48047,13.86133,5.42627,0,5.5874-8.1123,5.5874-13.7002Z"/>
      <path fill="#fff" d="M55.37305,82.5l13.91504-31.59082h-16.60156v-5.91016h24.17676v6.23242l-13.32422,31.26855h-8.16602Z"/>
    </g>
  </symbol>
  <symbol id="SY08" viewBox="0 0 100 100">
    <circle fill="#e31b13" cx="50" cy="50" r="50"/>
    <circle fill="#fff" cx="50" cy="50" r="46.25"/>
    <circle fill="#e31b13" cx="50" cy="50" r="43.75"/>
    <g>
      <path fill="#fff" d="M32.93213,34.2041c1.61182.87012,3.38525,1.38623,5.09375,1.38623,1.64453,0,3.99805-.83838,3.99805-2.90186,0-1.70898-1.51514-2.4502-3.73975-3.3208-2.99854-1.16064-6.12598-2.41797-6.12598-6.64209,0-4.83594,3.64307-6.86719,7.89893-6.86719,1.90234,0,3.70801.25781,5.35254.80615l-.41943,3.70752c-1.51514-.64453-3.06299-.96729-4.57812-.96729-1.67676,0-3.54688.77393-3.54688,3.12744,0,1.70898,1.93457,2.354,3.80469,3.09521,3.03076,1.12842,6.06152,2.51514,6.06152,6.70654,0,4.35254-3.09521,6.80273-8.47949,6.80273-2.32178,0-3.5791-.32227-5.73926-.87012l.41943-4.0625Z"/>
      <path fill="#fff" d="M56.78711,38.75v-8.89893l-8.22168-13.60596h5.28809l5.32031,9.44678,5.41602-9.44678h4.77246l-8.06055,13.60596v8.89893h-4.51465Z"/>
    </g>
    <g>
      <path fill="#fff" d="M22.00928,63.85645c0-11.81934,4.24463-19.50195,13.00195-19.50195,8.59619,0,13.10889,6.76953,13.10889,19.50195,0,12.46484-4.5127,19.28809-13.10889,19.28809-8.54248,0-13.00195-6.125-13.00195-19.28809ZM40.59863,63.85645c0-5.64062-.16113-13.91455-5.64111-13.91455-5.104,0-5.42676,7.95166-5.42676,13.75342,0,6.01758.21533,13.86133,5.48047,13.86133,5.42627,0,5.5874-8.1123,5.5874-13.7002Z"/>
      <path fill="#fff" d="M70.79199,62.40625c4.83496,2.25684,7.19922,5.42578,7.19922,9.88574,0,6.93066-4.78125,10.85254-12.89453,10.85254-8.05859,0-13.21582-3.76074-13.21582-10.74512,0-4.19043,2.25586-7.0918,6.87695-9.34863v-.10742c-4.40527-1.98828-6.23242-5.37207-6.23242-8.70312,0-6.55469,4.88867-9.88574,11.92676-9.88574,6.93066,0,12.57227,2.95508,12.57227,9.02539,0,3.86816-2.5791,7.52148-6.23242,8.97266v.05371ZM59.40234,72.23828c0,3.0625,2.63281,5.31836,5.69434,5.31836,3.0625,0,5.37305-1.93359,5.37305-4.99609,0-2.90137-1.88086-5.05078-6.28613-6.50098-3.38477,1.61133-4.78125,3.5459-4.78125,6.17871ZM69.8252,54.61621c0-2.14941-1.23633-4.67432-4.6748-4.67432-2.52441,0-5.42578,1.39697-5.42578,4.51318,0,2.36328,1.71973,4.13672,5.91016,5.64062,1.9873-.69824,4.19043-3.00879,4.19043-5.47949Z"/>
    </g>
  </symbol>
  <symbol id="SY09" viewBox="0 0 100 100">
    <circle fill="#e31b13" cx="50" cy="50" r="50"/>
    <circle fill="#fff" cx="50" cy="50" r="46.25"/>
    <circle fill="#e31b13" cx="50" cy="50" r="43.75"/>
    <g>
      <path fill="#fff" d="M32.93213,34.2041c1.61182.87012,3.38525,1.38623,5.09375,1.38623,1.64453,0,3.99805-.83838,3.99805-2.90186,0-1.70898-1.51514-2.4502-3.73975-3.3208-2.99854-1.16064-6.12598-2.41797-6.12598-6.64209,0-4.83594,3.64307-6.86719,7.89893-6.86719,1.90234,0,3.70801.25781,5.35254.80615l-.41943,3.70752c-1.51514-.64453-3.06299-.96729-4.57812-.96729-1.67676,0-3.54688.77393-3.54688,3.12744,0,1.70898,1.93457,2.354,3.80469,3.09521,3.03076,1.12842,6.06152,2.51514,6.06152,6.70654,0,4.35254-3.09521,6.80273-8.47949,6.80273-2.32178,0-3.5791-.32227-5.73926-.87012l.41943-4.0625Z"/>
      <path fill="#fff" d="M56.78711,38.75v-8.89893l-8.22168-13.60596h5.28809l5.32031,9.44678,5.41602-9.44678h4.77246l-8.06055,13.60596v8.89893h-4.51465Z"/>
    </g>
    <g>
      <path fill="#fff" d="M22.00928,63.85645c0-11.81934,4.24463-19.50195,13.00195-19.50195,8.59619,0,13.10889,6.76953,13.10889,19.50195,0,12.46484-4.5127,19.28809-13.10889,19.28809-8.54248,0-13.00195-6.125-13.00195-19.28809ZM40.59863,63.85645c0-5.64062-.16113-13.91455-5.64111-13.91455-5.104,0-5.42676,7.95166-5.42676,13.75342,0,6.01758.21533,13.86133,5.48047,13.86133,5.42627,0,5.5874-8.1123,5.5874-13.7002Z"/>
      <path fill="#fff" d="M70.57715,65.52246c-1.77344,2.63281-4.08301,3.76074-7.25293,3.76074-7.19922,0-10.95996-4.62012-10.95996-11.44336,0-8.59619,4.40527-13.48535,12.46387-13.48535,8.32812,0,12.7334,5.47998,12.7334,17.46094,0,11.6582-4.19043,21.3291-15.41895,21.3291-2.74023,0-5.31934-.42969-7.89844-1.34277l.96777-6.07129c2.09473.91309,4.13672,1.50391,6.55469,1.50391,5.42578,0,8.5957-4.29785,8.91797-11.60449l-.10742-.10742ZM70.04004,56.60352c0-3.49219-1.45117-6.66162-5.26562-6.66162-3.16895,0-4.88867,3.0083-4.88867,6.71533,0,3.81445,1.6123,7.03809,5.10352,7.03809,3.70703,0,5.05078-3.43848,5.05078-7.0918Z"/>
    </g>
  </symbol>
  <symbol id="SY10" viewBox="0 0 100 100">
    <circle fill="#e31b13" cx="50" cy="50" r="50"/>
    <circle fill="#fff" cx="50" cy="50" r="46.25"/>
    <circle fill="#e31b13" cx="50" cy="50" r="43.75"/>
    <g>
      <path fill="#fff" d="M32.93213,34.2041c1.61182.87012,3.38525,1.38623,5.09375,1.38623,1.64453,0,3.99805-.83838,3.99805-2.90186,0-1.70898-1.51514-2.4502-3.73975-3.3208-2.99854-1.16064-6.12598-2.41797-6.12598-6.64209,0-4.83594,3.64307-6.86719,7.89893-6.86719,1.90234,0,3.70801.25781,5.35254.80615l-.41943,3.70752c-1.51514-.64453-3.06299-.96729-4.57812-.96729-1.67676,0-3.54688.77393-3.54688,3.12744,0,1.70898,1.93457,2.354,3.80469,3.09521,3.03076,1.12842,6.06152,2.51514,6.06152,6.70654,0,4.35254-3.09521,6.80273-8.47949,6.80273-2.32178,0-3.5791-.32227-5.73926-.87012l.41943-4.0625Z"/>
      <path fill="#fff" d="M56.78711,38.75v-8.89893l-8.22168-13.60596h5.28809l5.32031,9.44678,5.41602-9.44678h4.77246l-8.06055,13.60596v8.89893h-4.51465Z"/>
    </g>
    <g>
      <path fill="#fff" d="M34.47363,82.5v-28.95898l-6.33936,5.1582-3.76123-4.88965,10.96045-8.81055h6.66211v37.50098h-7.52197Z"/>
      <path fill="#fff" d="M51.88086,63.85645c0-11.81934,4.24414-19.50195,13.00098-19.50195,8.59668,0,13.10938,6.76953,13.10938,19.50195,0,12.46484-4.5127,19.28809-13.10938,19.28809-8.54199,0-13.00098-6.125-13.00098-19.28809ZM70.46973,63.85645c0-5.64062-.16113-13.91455-5.6416-13.91455-5.10352,0-5.42578,7.95166-5.42578,13.75342,0,6.01758.21484,13.86133,5.47949,13.86133,5.42676,0,5.58789-8.1123,5.58789-13.7002Z"/>
    </g>
  </symbol>
  <symbol id="SY11" viewBox="0 0 100 100">
    <circle fill="#e31b13" cx="50" cy="50" r="50"/>
    <circle fill="#fff" cx="50" cy="50" r="46.25"/>
    <circle fill="#e31b13" cx="50" cy="50" r="43.75"/>
    <g>
      <path fill="#fff" d="M32.93213,34.2041c1.61182.87012,3.38525,1.38623,5.09375,1.38623,1.64453,0,3.99805-.83838,3.99805-2.90186,0-1.70898-1.51514-2.4502-3.73975-3.3208-2.99854-1.16064-6.12598-2.41797-6.12598-6.64209,0-4.83594,3.64307-6.86719,7.89893-6.86719,1.90234,0,3.70801.25781,5.35254.80615l-.41943,3.70752c-1.51514-.64453-3.06299-.96729-4.57812-.96729-1.67676,0-3.54688.77393-3.54688,3.12744,0,1.70898,1.93457,2.354,3.80469,3.09521,3.03076,1.12842,6.06152,2.51514,6.06152,6.70654,0,4.35254-3.09521,6.80273-8.47949,6.80273-2.32178,0-3.5791-.32227-5.73926-.87012l.41943-4.0625Z"/>
      <path fill="#fff" d="M56.78711,38.75v-8.89893l-8.22168-13.60596h5.28809l5.32031,9.44678,5.41602-9.44678h4.77246l-8.06055,13.60596v8.89893h-4.51465Z"/>
    </g>
    <g>
      <path fill="#fff" d="M34.47363,82.5v-28.95898l-6.33936,5.1582-3.76123-4.88965,10.96045-8.81055h6.66211v37.50098h-7.52197Z"/>
      <path fill="#fff" d="M64.34473,82.5v-28.95898l-6.33887,5.1582-3.76172-4.88965,10.95996-8.81055h6.66211v37.50098h-7.52148Z"/>
    </g>
  </symbol>
  <symbol id="SY12" viewBox="0 0 100 100">
    <circle fill="#e31b13" cx="50" cy="50" r="50"/>
    <circle fill="#fff" cx="50" cy="50" r="46.25"/>
    <circle fill="#e31b13" cx="50" cy="50" r="43.75"/>
    <g>
      <path fill="#fff" d="M32.93213,34.2041c1.61182.87012,3.38525,1.38623,5.09375,1.38623,1.64453,0,3.99805-.83838,3.99805-2.90186,0-1.70898-1.51514-2.4502-3.73975-3.3208-2.99854-1.16064-6.12598-2.41797-6.12598-6.64209,0-4.83594,3.64307-6.86719,7.89893-6.86719,1.90234,0,3.70801.25781,5.35254.80615l-.41943,3.70752c-1.51514-.64453-3.06299-.96729-4.57812-.96729-1.67676,0-3.54688.77393-3.54688,3.12744,0,1.70898,1.93457,2.354,3.80469,3.09521,3.03076,1.12842,6.06152,2.51514,6.06152,6.70654,0,4.35254-3.09521,6.80273-8.47949,6.80273-2.32178,0-3.5791-.32227-5.73926-.87012l.41943-4.0625Z"/>
      <path fill="#fff" d="M56.78711,38.75v-8.89893l-8.22168-13.60596h5.28809l5.32031,9.44678,5.41602-9.44678h4.77246l-8.06055,13.60596v8.89893h-4.51465Z"/>
    </g>
    <g>
      <path fill="#fff" d="M34.47363,82.5v-28.95898l-6.33936,5.1582-3.76123-4.88965,10.96045-8.81055h6.66211v37.50098h-7.52197Z"/>
      <path fill="#fff" d="M52.20312,82.5v-6.28613l4.5127-4.19043c7.19922-6.71582,11.71191-12.62598,11.71191-16.70898,0-3.22363-2.79297-5.05029-6.12402-5.05029-2.5791,0-5.42676.91357-8.65039,3.0083l-.59082-6.23193c3.43848-1.71924,7.25293-2.68604,11.12109-2.68604,7.46777,0,11.7666,3.92188,11.7666,10.95996,0,5.21094-3.00879,10.90625-14.12988,21.27539h15.31152v5.91016h-24.92871Z"/>
    </g>
  </symbol>
  <symbol id="SY13" viewBox="0 0 100 100">
    <circle fill="#e31b13" cx="50" cy="50" r="50"/>
    <circle fill="#fff" cx="50" cy="50" r="46.25"/>
    <circle fill="#e31b13" cx="50" cy="50" r="43.75"/>
    <g>
      <path fill="#fff" d="M32.93213,34.2041c1.61182.87012,3.38525,1.38623,5.09375,1.38623,1.64453,0,3.99805-.83838,3.99805-2.90186,0-1.70898-1.51514-2.4502-3.73975-3.3208-2.99854-1.16064-6.12598-2.41797-6.12598-6.64209,0-4.83594,3.64307-6.86719,7.89893-6.86719,1.90234,0,3.70801.25781,5.35254.80615l-.41943,3.70752c-1.51514-.64453-3.06299-.96729-4.57812-.96729-1.67676,0-3.54688.77393-3.54688,3.12744,0,1.70898,1.93457,2.354,3.80469,3.09521,3.03076,1.12842,6.06152,2.51514,6.06152,6.70654,0,4.35254-3.09521,6.80273-8.47949,6.80273-2.32178,0-3.5791-.32227-5.73926-.87012l.41943-4.0625Z"/>
      <path fill="#fff" d="M56.78711,38.75v-8.89893l-8.22168-13.60596h5.28809l5.32031,9.44678,5.41602-9.44678h4.77246l-8.06055,13.60596v8.89893h-4.51465Z"/>
    </g>
    <g>
      <path fill="#fff" d="M34.47363,82.5v-28.95898l-6.33936,5.1582-3.76123-4.88965,10.96045-8.81055h6.66211v37.50098h-7.52197Z"/>
      <path fill="#fff" d="M52.84766,75.51562c2.74023,1.07422,5.48047,1.71875,8.27344,1.71875,3.59961,0,7.95215-1.71875,7.95215-5.31836,0-3.92188-2.79395-5.85645-8.2207-5.85645h-3.70703v-5.91016h3.65332c4.78223,0,8.11328-1.71875,8.11328-4.94238s-2.25684-4.94287-6.50098-4.94287c-2.84766,0-5.74902.69873-8.38184,1.98779l-.42969-6.01709c3.00879-1.18213,6.6084-1.88037,10.42285-1.88037,6.125,0,12.41113,2.47119,12.41113,9.61621,0,4.29883-2.20312,7.14648-6.98438,8.97266v.10742c4.5127.59082,7.14551,4.0293,7.14551,8.91895,0,7.52148-5.91016,11.1748-14.45215,11.1748-3.22363,0-6.87695-.42969-9.72461-1.23535l.42969-6.39355Z"/>
    </g>
  </symbol>
  <symbol id="SY14" viewBox="0 0 100 100">
    <circle fill="#e31b13" cx="50" cy="50" r="50"/>
    <circle fill="#fff" cx="50" cy="50" r="46.25"/>
    <circle fill="#e31b13" cx="50" cy="50" r="43.75"/>
    <g>
      <path fill="#fff" d="M32.93213,34.2041c1.61182.87012,3.38525,1.38623,5.09375,1.38623,1.64453,0,3.99805-.83838,3.99805-2.90186,0-1.70898-1.51514-2.4502-3.73975-3.3208-2.99854-1.16064-6.12598-2.41797-6.12598-6.64209,0-4.83594,3.64307-6.86719,7.89893-6.86719,1.90234,0,3.70801.25781,5.35254.80615l-.41943,3.70752c-1.51514-.64453-3.06299-.96729-4.57812-.96729-1.67676,0-3.54688.77393-3.54688,3.12744,0,1.70898,1.93457,2.354,3.80469,3.09521,3.03076,1.12842,6.06152,2.51514,6.06152,6.70654,0,4.35254-3.09521,6.80273-8.47949,6.80273-2.32178,0-3.5791-.32227-5.73926-.87012l.41943-4.0625Z"/>
      <path fill="#fff" d="M56.78711,38.75v-8.89893l-8.22168-13.60596h5.28809l5.32031,9.44678,5.41602-9.44678h4.77246l-8.06055,13.60596v8.89893h-4.51465Z"/>
    </g>
    <g>
      <path fill="#fff" d="M34.47363,82.5v-28.95898l-6.33936,5.1582-3.76123-4.88965,10.96045-8.81055h6.66211v37.50098h-7.52197Z"/>
      <path fill="#fff" d="M67.03125,82.5v-7.79102h-16.17188v-6.07031l14.02246-23.63965h9.34863v24.12305h4.78125v5.58691h-4.78125v7.79102h-7.19922ZM67.03125,52.84277h-.10742l-9.29492,16.2793h9.40234v-16.2793Z"/>
    </g>
  </symbol>
  <symbol id="SY15" viewBox="0 0 100 100">
    <circle fill="#e31b13" cx="50" cy="50" r="50"/>
    <circle fill="#fff" cx="50" cy="50" r="46.25"/>
    <circle fill="#e31b13" cx="50" cy="50" r="43.75"/>
    <g>
      <path fill="#fff" d="M32.93213,34.2041c1.61182.87012,3.38525,1.38623,5.09375,1.38623,1.64453,0,3.99805-.83838,3.99805-2.90186,0-1.70898-1.51514-2.4502-3.73975-3.3208-2.99854-1.16064-6.12598-2.41797-6.12598-6.64209,0-4.83594,3.64307-6.86719,7.89893-6.86719,1.90234,0,3.70801.25781,5.35254.80615l-.41943,3.70752c-1.51514-.64453-3.06299-.96729-4.57812-.96729-1.67676,0-3.54688.77393-3.54688,3.12744,0,1.70898,1.93457,2.354,3.80469,3.09521,3.03076,1.12842,6.06152,2.51514,6.06152,6.70654,0,4.35254-3.09521,6.80273-8.47949,6.80273-2.32178,0-3.5791-.32227-5.73926-.87012l.41943-4.0625Z"/>
      <path fill="#fff" d="M56.78711,38.75v-8.89893l-8.22168-13.60596h5.28809l5.32031,9.44678,5.41602-9.44678h4.77246l-8.06055,13.60596v8.89893h-4.51465Z"/>
    </g>
    <g>
      <path fill="#fff" d="M34.47363,82.5v-28.95898l-6.33936,5.1582-3.76123-4.88965,10.96045-8.81055h6.66211v37.50098h-7.52197Z"/>
      <path fill="#fff" d="M54.0293,75.35449c3.11621,1.34277,5.42676,1.87988,7.57617,1.87988,4.78125,0,8.1123-2.36328,8.1123-6.6084,0-4.13672-3.27734-6.50098-8.59668-6.50098-2.30957,0-4.5127.32324-6.71484,1.02148l.37598-20.14746h21.54395v5.5874h-14.45215l-.16113,8.00537c1.28906-.21484,2.09473-.37598,3.4375-.37598,6.71582,0,12.08887,3.70703,12.08887,12.1416,0,7.68262-5.58789,12.78711-14.61328,12.78711-2.41797,0-5.91016-.37598-8.75781-1.07422l.16113-6.71582Z"/>
    </g>
  </symbol>
  <symbol id="SY16" viewBox="0 0 100 100">
    <circle fill="#e31b13" cx="50" cy="50" r="50"/>
    <circle fill="#fff" cx="50" cy="50" r="46.25"/>
    <circle fill="#e31b13" cx="50" cy="50" r="43.75"/>
    <g>
      <path fill="#fff" d="M32.93213,34.2041c1.61182.87012,3.38525,1.38623,5.09375,1.38623,1.64453,0,3.99805-.83838,3.99805-2.90186,0-1.70898-1.51514-2.4502-3.73975-3.3208-2.99854-1.16064-6.12598-2.41797-6.12598-6.64209,0-4.83594,3.64307-6.86719,7.89893-6.86719,1.90234,0,3.70801.25781,5.35254.80615l-.41943,3.70752c-1.51514-.64453-3.06299-.96729-4.57812-.96729-1.67676,0-3.54688.77393-3.54688,3.12744,0,1.70898,1.93457,2.354,3.80469,3.09521,3.03076,1.12842,6.06152,2.51514,6.06152,6.70654,0,4.35254-3.09521,6.80273-8.47949,6.80273-2.32178,0-3.5791-.32227-5.73926-.87012l.41943-4.0625Z"/>
      <path fill="#fff" d="M56.78711,38.75v-8.89893l-8.22168-13.60596h5.28809l5.32031,9.44678,5.41602-9.44678h4.77246l-8.06055,13.60596v8.89893h-4.51465Z"/>
    </g>
    <g>
      <path fill="#fff" d="M34.47363,82.5v-28.95898l-6.33936,5.1582-3.76123-4.88965,10.96045-8.81055h6.66211v37.50098h-7.52197Z"/>
      <path fill="#fff" d="M74.71387,51.76855c-1.87988-.80566-3.92188-1.50439-6.55469-1.50439-5.96289,0-8.64941,5.104-8.91797,11.60498l.10742.10742c1.77246-2.5791,4.08301-3.76074,7.30664-3.76074,6.87695,0,10.90625,4.35156,10.90625,11.44336,0,8.59668-4.40527,13.48535-12.46484,13.48535-8.38086,0-12.73242-5.53418-12.73242-17.46094,0-11.49707,4.08301-21.3291,15.41895-21.3291,2.74023,0,5.31934.42969,7.89746,1.34326l-.9668,6.0708ZM70.04004,70.84082c0-3.43848-1.34375-7.03809-5.1582-7.03809-3.11523,0-4.99609,2.63281-4.99609,7.0918,0,3.49219,1.45117,6.66211,5.21094,6.66211,3.59961,0,4.94336-3.5459,4.94336-6.71582Z"/>
    </g>
  </symbol>
  <symbol id="SY17" viewBox="0 0 100 100">
    <circle fill="#e31b13" cx="50" cy="50" r="50"/>
    <circle fill="#fff" cx="50" cy="50" r="46.25"/>
    <circle fill="#e31b13" cx="50" cy="50" r="43.75"/>
    <g>
      <path fill="#fff" d="M32.93213,34.2041c1.61182.87012,3.38525,1.38623,5.09375,1.38623,1.64453,0,3.99805-.83838,3.99805-2.90186,0-1.70898-1.51514-2.4502-3.73975-3.3208-2.99854-1.16064-6.12598-2.41797-6.12598-6.64209,0-4.83594,3.64307-6.86719,7.89893-6.86719,1.90234,0,3.70801.25781,5.35254.80615l-.41943,3.70752c-1.51514-.64453-3.06299-.96729-4.57812-.96729-1.67676,0-3.54688.77393-3.54688,3.12744,0,1.70898,1.93457,2.354,3.80469,3.09521,3.03076,1.12842,6.06152,2.51514,6.06152,6.70654,0,4.35254-3.09521,6.80273-8.47949,6.80273-2.32178,0-3.5791-.32227-5.73926-.87012l.41943-4.0625Z"/>
      <path fill="#fff" d="M56.78711,38.75v-8.89893l-8.22168-13.60596h5.28809l5.32031,9.44678,5.41602-9.44678h4.77246l-8.06055,13.60596v8.89893h-4.51465Z"/>
    </g>
    <g>
      <path fill="#fff" d="M34.47363,82.5v-28.95898l-6.33936,5.1582-3.76123-4.88965,10.96045-8.81055h6.66211v37.50098h-7.52197Z"/>
      <path fill="#fff" d="M55.37305,82.5l13.91504-31.59082h-16.60156v-5.91016h24.17676v6.23242l-13.32422,31.26855h-8.16602Z"/>
    </g>
  </symbol>
  <symbol id="SY18" viewBox="0 0 100 100">
    <circle fill="#e31b13" cx="50" cy="50" r="50"/>
    <circle fill="#fff" cx="50" cy="50" r="46.25"/>
    <circle fill="#e31b13" cx="50" cy="50" r="43.75"/>
    <g>
      <path fill="#fff" d="M32.93213,34.2041c1.61182.87012,3.38525,1.38623,5.09375,1.38623,1.64453,0,3.99805-.83838,3.99805-2.90186,0-1.70898-1.51514-2.4502-3.73975-3.3208-2.99854-1.16064-6.12598-2.41797-6.12598-6.64209,0-4.83594,3.64307-6.86719,7.89893-6.86719,1.90234,0,3.70801.25781,5.35254.80615l-.41943,3.70752c-1.51514-.64453-3.06299-.96729-4.57812-.96729-1.67676,0-3.54688.77393-3.54688,3.12744,0,1.70898,1.93457,2.354,3.80469,3.09521,3.03076,1.12842,6.06152,2.51514,6.06152,6.70654,0,4.35254-3.09521,6.80273-8.47949,6.80273-2.32178,0-3.5791-.32227-5.73926-.87012l.41943-4.0625Z"/>
      <path fill="#fff" d="M56.78711,38.75v-8.89893l-8.22168-13.60596h5.28809l5.32031,9.44678,5.41602-9.44678h4.77246l-8.06055,13.60596v8.89893h-4.51465Z"/>
    </g>
    <g>
      <path fill="#fff" d="M34.47363,82.5v-28.95898l-6.33936,5.1582-3.76123-4.88965,10.96045-8.81055h6.66211v37.50098h-7.52197Z"/>
      <path fill="#fff" d="M70.79199,62.40625c4.83496,2.25684,7.19922,5.42578,7.19922,9.88574,0,6.93066-4.78125,10.85254-12.89453,10.85254-8.05859,0-13.21582-3.76074-13.21582-10.74512,0-4.19043,2.25586-7.0918,6.87695-9.34863v-.10742c-4.40527-1.98828-6.23242-5.37207-6.23242-8.70312,0-6.55469,4.88867-9.88574,11.92676-9.88574,6.93066,0,12.57227,2.95508,12.57227,9.02539,0,3.86816-2.5791,7.52148-6.23242,8.97266v.05371ZM59.40234,72.23828c0,3.0625,2.63281,5.31836,5.69434,5.31836,3.0625,0,5.37305-1.93359,5.37305-4.99609,0-2.90137-1.88086-5.05078-6.28613-6.50098-3.38477,1.61133-4.78125,3.5459-4.78125,6.17871ZM69.8252,54.61621c0-2.14941-1.23633-4.67432-4.6748-4.67432-2.52441,0-5.42578,1.39697-5.42578,4.51318,0,2.36328,1.71973,4.13672,5.91016,5.64062,1.9873-.69824,4.19043-3.00879,4.19043-5.47949Z"/>
    </g>
  </symbol>
  <symbol id="SY19" viewBox="0 0 100 100">
    <circle fill="#e31b13" cx="50" cy="50" r="50"/>
    <circle fill="#fff" cx="50" cy="50" r="46.25"/>
    <circle fill="#e31b13" cx="50" cy="50" r="43.75"/>
    <g>
      <path fill="#fff" d="M32.93213,34.2041c1.61182.87012,3.38525,1.38623,5.09375,1.38623,1.64453,0,3.99805-.83838,3.99805-2.90186,0-1.70898-1.51514-2.4502-3.73975-3.3208-2.99854-1.16064-6.12598-2.41797-6.12598-6.64209,0-4.83594,3.64307-6.86719,7.89893-6.86719,1.90234,0,3.70801.25781,5.35254.80615l-.41943,3.70752c-1.51514-.64453-3.06299-.96729-4.57812-.96729-1.67676,0-3.54688.77393-3.54688,3.12744,0,1.70898,1.93457,2.354,3.80469,3.09521,3.03076,1.12842,6.06152,2.51514,6.06152,6.70654,0,4.35254-3.09521,6.80273-8.47949,6.80273-2.32178,0-3.5791-.32227-5.73926-.87012l.41943-4.0625Z"/>
      <path fill="#fff" d="M56.78711,38.75v-8.89893l-8.22168-13.60596h5.28809l5.32031,9.44678,5.41602-9.44678h4.77246l-8.06055,13.60596v8.89893h-4.51465Z"/>
    </g>
    <g>
      <path fill="#fff" d="M34.47363,82.5v-28.95898l-6.33936,5.1582-3.76123-4.88965,10.96045-8.81055h6.66211v37.50098h-7.52197Z"/>
      <path fill="#fff" d="M70.57715,65.52246c-1.77344,2.63281-4.08301,3.76074-7.25293,3.76074-7.19922,0-10.95996-4.62012-10.95996-11.44336,0-8.59619,4.40527-13.48535,12.46387-13.48535,8.32812,0,12.7334,5.47998,12.7334,17.46094,0,11.6582-4.19043,21.3291-15.41895,21.3291-2.74023,0-5.31934-.42969-7.89844-1.34277l.96777-6.07129c2.09473.91309,4.13672,1.50391,6.55469,1.50391,5.42578,0,8.5957-4.29785,8.91797-11.60449l-.10742-.10742ZM70.04004,56.60352c0-3.49219-1.45117-6.66162-5.26562-6.66162-3.16895,0-4.88867,3.0083-4.88867,6.71533,0,3.81445,1.6123,7.03809,5.10352,7.03809,3.70703,0,5.05078-3.43848,5.05078-7.0918Z"/>
    </g>
  </symbol>
  <symbol id="SY20" viewBox="0 0 100 100">
    <circle fill="#e31b13" cx="50" cy="50" r="50"/>
    <circle fill="#fff" cx="50" cy="50" r="46.25"/>
    <circle fill="#e31b13" cx="50" cy="50" r="43.75"/>
    <g>
      <path fill="#fff" d="M32.93213,34.2041c1.61182.87012,3.38525,1.38623,5.09375,1.38623,1.64453,0,3.99805-.83838,3.99805-2.90186,0-1.70898-1.51514-2.4502-3.73975-3.3208-2.99854-1.16064-6.12598-2.41797-6.12598-6.64209,0-4.83594,3.64307-6.86719,7.89893-6.86719,1.90234,0,3.70801.25781,5.35254.80615l-.41943,3.70752c-1.51514-.64453-3.06299-.96729-4.57812-.96729-1.67676,0-3.54688.77393-3.54688,3.12744,0,1.70898,1.93457,2.354,3.80469,3.09521,3.03076,1.12842,6.06152,2.51514,6.06152,6.70654,0,4.35254-3.09521,6.80273-8.47949,6.80273-2.32178,0-3.5791-.32227-5.73926-.87012l.41943-4.0625Z"/>
      <path fill="#fff" d="M56.78711,38.75v-8.89893l-8.22168-13.60596h5.28809l5.32031,9.44678,5.41602-9.44678h4.77246l-8.06055,13.60596v8.89893h-4.51465Z"/>
    </g>
    <g>
      <path fill="#fff" d="M22.33154,82.5v-6.28613l4.51318-4.19043c7.19922-6.71582,11.7124-12.62598,11.7124-16.70898,0-3.22363-2.79395-5.05029-6.125-5.05029-2.57861,0-5.42627.91357-8.6499,3.0083l-.59082-6.23193c3.43848-1.71924,7.25293-2.68604,11.12109-2.68604,7.46826,0,11.76611,3.92188,11.76611,10.95996,0,5.21094-3.00879,10.90625-14.12988,21.27539h15.31201v5.91016h-24.9292Z"/>
      <path fill="#fff" d="M51.88086,63.85645c0-11.81934,4.24414-19.50195,13.00098-19.50195,8.59668,0,13.10938,6.76953,13.10938,19.50195,0,12.46484-4.5127,19.28809-13.10938,19.28809-8.54199,0-13.00098-6.125-13.00098-19.28809ZM70.46973,63.85645c0-5.64062-.16113-13.91455-5.6416-13.91455-5.10352,0-5.42578,7.95166-5.42578,13.75342,0,6.01758.21484,13.86133,5.47949,13.86133,5.42676,0,5.58789-8.1123,5.58789-13.7002Z"/>
    </g>
  </symbol>
  <symbol id="SY21" viewBox="0 0 100 100">
    <circle fill="#e31b13" cx="50" cy="50" r="50"/>
    <circle fill="#fff" cx="50" cy="50" r="46.25"/>
    <circle fill="#e31b13" cx="50" cy="50" r="43.75"/>
    <g>
      <path fill="#fff" d="M32.93213,34.2041c1.61182.87012,3.38525,1.38623,5.09375,1.38623,1.64453,0,3.99805-.83838,3.99805-2.90186,0-1.70898-1.51514-2.4502-3.73975-3.3208-2.99854-1.16064-6.12598-2.41797-6.12598-6.64209,0-4.83594,3.64307-6.86719,7.89893-6.86719,1.90234,0,3.70801.25781,5.35254.80615l-.41943,3.70752c-1.51514-.64453-3.06299-.96729-4.57812-.96729-1.67676,0-3.54688.77393-3.54688,3.12744,0,1.70898,1.93457,2.354,3.80469,3.09521,3.03076,1.12842,6.06152,2.51514,6.06152,6.70654,0,4.35254-3.09521,6.80273-8.47949,6.80273-2.32178,0-3.5791-.32227-5.73926-.87012l.41943-4.0625Z"/>
      <path fill="#fff" d="M56.78711,38.75v-8.89893l-8.22168-13.60596h5.28809l5.32031,9.44678,5.41602-9.44678h4.77246l-8.06055,13.60596v8.89893h-4.51465Z"/>
    </g>
    <g>
      <path fill="#fff" d="M22.33154,82.5v-6.28613l4.51318-4.19043c7.19922-6.71582,11.7124-12.62598,11.7124-16.70898,0-3.22363-2.79395-5.05029-6.125-5.05029-2.57861,0-5.42627.91357-8.6499,3.0083l-.59082-6.23193c3.43848-1.71924,7.25293-2.68604,11.12109-2.68604,7.46826,0,11.76611,3.92188,11.76611,10.95996,0,5.21094-3.00879,10.90625-14.12988,21.27539h15.31201v5.91016h-24.9292Z"/>
      <path fill="#fff" d="M64.34473,82.5v-28.95898l-6.33887,5.1582-3.76172-4.88965,10.95996-8.81055h6.66211v37.50098h-7.52148Z"/>
    </g>
  </symbol>
  <symbol id="SY22" viewBox="0 0 100 100">
    <circle fill="#e31b13" cx="50" cy="50" r="50"/>
    <circle fill="#fff" cx="50" cy="50" r="46.25"/>
    <circle fill="#e31b13" cx="50" cy="50" r="43.75"/>
    <g>
      <path fill="#fff" d="M32.93213,34.2041c1.61182.87012,3.38525,1.38623,5.09375,1.38623,1.64453,0,3.99805-.83838,3.99805-2.90186,0-1.70898-1.51514-2.4502-3.73975-3.3208-2.99854-1.16064-6.12598-2.41797-6.12598-6.64209,0-4.83594,3.64307-6.86719,7.89893-6.86719,1.90234,0,3.70801.25781,5.35254.80615l-.41943,3.70752c-1.51514-.64453-3.06299-.96729-4.57812-.96729-1.67676,0-3.54688.77393-3.54688,3.12744,0,1.70898,1.93457,2.354,3.80469,3.09521,3.03076,1.12842,6.06152,2.51514,6.06152,6.70654,0,4.35254-3.09521,6.80273-8.47949,6.80273-2.32178,0-3.5791-.32227-5.73926-.87012l.41943-4.0625Z"/>
      <path fill="#fff" d="M56.78711,38.75v-8.89893l-8.22168-13.60596h5.28809l5.32031,9.44678,5.41602-9.44678h4.77246l-8.06055,13.60596v8.89893h-4.51465Z"/>
    </g>
    <g>
      <path fill="#fff" d="M22.33154,82.5v-6.28613l4.51318-4.19043c7.19922-6.71582,11.7124-12.62598,11.7124-16.70898,0-3.22363-2.79395-5.05029-6.125-5.05029-2.57861,0-5.42627.91357-8.6499,3.0083l-.59082-6.23193c3.43848-1.71924,7.25293-2.68604,11.12109-2.68604,7.46826,0,11.76611,3.92188,11.76611,10.95996,0,5.21094-3.00879,10.90625-14.12988,21.27539h15.31201v5.91016h-24.9292Z"/>
      <path fill="#fff" d="M52.20312,82.5v-6.28613l4.5127-4.19043c7.19922-6.71582,11.71191-12.62598,11.71191-16.70898,0-3.22363-2.79297-5.05029-6.12402-5.05029-2.5791,0-5.42676.91357-8.65039,3.0083l-.59082-6.23193c3.43848-1.71924,7.25293-2.68604,11.12109-2.68604,7.46777,0,11.7666,3.92188,11.7666,10.95996,0,5.21094-3.00879,10.90625-14.12988,21.27539h15.31152v5.91016h-24.92871Z"/>
    </g>
  </symbol>
  <symbol id="SY23" viewBox="0 0 100 100">
    <circle fill="#e31b13" cx="50" cy="50" r="50"/>
    <circle fill="#fff" cx="50" cy="50" r="46.25"/>
    <circle fill="#e31b13" cx="50" cy="50" r="43.75"/>
    <g>
      <path fill="#fff" d="M32.93213,34.2041c1.61182.87012,3.38525,1.38623,5.09375,1.38623,1.64453,0,3.99805-.83838,3.99805-2.90186,0-1.70898-1.51514-2.4502-3.73975-3.3208-2.99854-1.16064-6.12598-2.41797-6.12598-6.64209,0-4.83594,3.64307-6.86719,7.89893-6.86719,1.90234,0,3.70801.25781,5.35254.80615l-.41943,3.70752c-1.51514-.64453-3.06299-.96729-4.57812-.96729-1.67676,0-3.54688.77393-3.54688,3.12744,0,1.70898,1.93457,2.354,3.80469,3.09521,3.03076,1.12842,6.06152,2.51514,6.06152,6.70654,0,4.35254-3.09521,6.80273-8.47949,6.80273-2.32178,0-3.5791-.32227-5.73926-.87012l.41943-4.0625Z"/>
      <path fill="#fff" d="M56.78711,38.75v-8.89893l-8.22168-13.60596h5.28809l5.32031,9.44678,5.41602-9.44678h4.77246l-8.06055,13.60596v8.89893h-4.51465Z"/>
    </g>
    <g>
      <path fill="#fff" d="M22.33154,82.5v-6.28613l4.51318-4.19043c7.19922-6.71582,11.7124-12.62598,11.7124-16.70898,0-3.22363-2.79395-5.05029-6.125-5.05029-2.57861,0-5.42627.91357-8.6499,3.0083l-.59082-6.23193c3.43848-1.71924,7.25293-2.68604,11.12109-2.68604,7.46826,0,11.76611,3.92188,11.76611,10.95996,0,5.21094-3.00879,10.90625-14.12988,21.27539h15.31201v5.91016h-24.9292Z"/>
      <path fill="#fff" d="M52.84766,75.51562c2.74023,1.07422,5.48047,1.71875,8.27344,1.71875,3.59961,0,7.95215-1.71875,7.95215-5.31836,0-3.92188-2.79395-5.85645-8.2207-5.85645h-3.70703v-5.91016h3.65332c4.78223,0,8.11328-1.71875,8.11328-4.94238s-2.25684-4.94287-6.50098-4.94287c-2.84766,0-5.74902.69873-8.38184,1.98779l-.42969-6.01709c3.00879-1.18213,6.6084-1.88037,10.42285-1.88037,6.125,0,12.41113,2.47119,12.41113,9.61621,0,4.29883-2.20312,7.14648-6.98438,8.97266v.10742c4.5127.59082,7.14551,4.0293,7.14551,8.91895,0,7.52148-5.91016,11.1748-14.45215,11.1748-3.22363,0-6.87695-.42969-9.72461-1.23535l.42969-6.39355Z"/>
    </g>
  </symbol>
  <symbol id="SY24" viewBox="0 0 100 100">
    <circle fill="#e31b13" cx="50" cy="50" r="50"/>
    <circle fill="#fff" cx="50" cy="50" r="46.25"/>
    <circle fill="#e31b13" cx="50" cy="50" r="43.75"/>
    <g>
      <path fill="#fff" d="M32.93213,34.2041c1.61182.87012,3.38525,1.38623,5.09375,1.38623,1.64453,0,3.99805-.83838,3.99805-2.90186,0-1.70898-1.51514-2.4502-3.73975-3.3208-2.99854-1.16064-6.12598-2.41797-6.12598-6.64209,0-4.83594,3.64307-6.86719,7.89893-6.86719,1.90234,0,3.70801.25781,5.35254.80615l-.41943,3.70752c-1.51514-.64453-3.06299-.96729-4.57812-.96729-1.67676,0-3.54688.77393-3.54688,3.12744,0,1.70898,1.93457,2.354,3.80469,3.09521,3.03076,1.12842,6.06152,2.51514,6.06152,6.70654,0,4.35254-3.09521,6.80273-8.47949,6.80273-2.32178,0-3.5791-.32227-5.73926-.87012l.41943-4.0625Z"/>
      <path fill="#fff" d="M56.78711,38.75v-8.89893l-8.22168-13.60596h5.28809l5.32031,9.44678,5.41602-9.44678h4.77246l-8.06055,13.60596v8.89893h-4.51465Z"/>
    </g>
    <g>
      <path fill="#fff" d="M22.33154,82.5v-6.28613l4.51318-4.19043c7.19922-6.71582,11.7124-12.62598,11.7124-16.70898,0-3.22363-2.79395-5.05029-6.125-5.05029-2.57861,0-5.42627.91357-8.6499,3.0083l-.59082-6.23193c3.43848-1.71924,7.25293-2.68604,11.12109-2.68604,7.46826,0,11.76611,3.92188,11.76611,10.95996,0,5.21094-3.00879,10.90625-14.12988,21.27539h15.31201v5.91016h-24.9292Z"/>
      <path fill="#fff" d="M67.03125,82.5v-7.79102h-16.17188v-6.07031l14.02246-23.63965h9.34863v24.12305h4.78125v5.58691h-4.78125v7.79102h-7.19922ZM67.03125,52.84277h-.10742l-9.29492,16.2793h9.40234v-16.2793Z"/>
    </g>
  </symbol>
  <symbol id="SY25" viewBox="0 0 100 100">
    <circle fill="#e31b13" cx="50" cy="50" r="50"/>
    <circle fill="#fff" cx="50" cy="50" r="46.25"/>
    <circle fill="#e31b13" cx="50" cy="50" r="43.75"/>
    <g>
      <path fill="#fff" d="M32.93213,34.2041c1.61182.87012,3.38525,1.38623,5.09375,1.38623,1.64453,0,3.99805-.83838,3.99805-2.90186,0-1.70898-1.51514-2.4502-3.73975-3.3208-2.99854-1.16064-6.12598-2.41797-6.12598-6.64209,0-4.83594,3.64307-6.86719,7.89893-6.86719,1.90234,0,3.70801.25781,5.35254.80615l-.41943,3.70752c-1.51514-.64453-3.06299-.96729-4.57812-.96729-1.67676,0-3.54688.77393-3.54688,3.12744,0,1.70898,1.93457,2.354,3.80469,3.09521,3.03076,1.12842,6.06152,2.51514,6.06152,6.70654,0,4.35254-3.09521,6.80273-8.47949,6.80273-2.32178,0-3.5791-.32227-5.73926-.87012l.41943-4.0625Z"/>
      <path fill="#fff" d="M56.78711,38.75v-8.89893l-8.22168-13.60596h5.28809l5.32031,9.44678,5.41602-9.44678h4.77246l-8.06055,13.60596v8.89893h-4.51465Z"/>
    </g>
    <g>
      <path fill="#fff" d="M22.33154,82.5v-6.28613l4.51318-4.19043c7.19922-6.71582,11.7124-12.62598,11.7124-16.70898,0-3.22363-2.79395-5.05029-6.125-5.05029-2.57861,0-5.42627.91357-8.6499,3.0083l-.59082-6.23193c3.43848-1.71924,7.25293-2.68604,11.12109-2.68604,7.46826,0,11.76611,3.92188,11.76611,10.95996,0,5.21094-3.00879,10.90625-14.12988,21.27539h15.31201v5.91016h-24.9292Z"/>
      <path fill="#fff" d="M54.0293,75.35449c3.11621,1.34277,5.42676,1.87988,7.57617,1.87988,4.78125,0,8.1123-2.36328,8.1123-6.6084,0-4.13672-3.27734-6.50098-8.59668-6.50098-2.30957,0-4.5127.32324-6.71484,1.02148l.37598-20.14746h21.54395v5.5874h-14.45215l-.16113,8.00537c1.28906-.21484,2.09473-.37598,3.4375-.37598,6.71582,0,12.08887,3.70703,12.08887,12.1416,0,7.68262-5.58789,12.78711-14.61328,12.78711-2.41797,0-5.91016-.37598-8.75781-1.07422l.16113-6.71582Z"/>
    </g>
  </symbol>
  <symbol id="SY26" viewBox="0 0 100 100">
    <circle fill="#e31b13" cx="50" cy="50" r="50"/>
    <circle fill="#fff" cx="50" cy="50" r="46.25"/>
    <circle fill="#e31b13" cx="50" cy="50" r="43.75"/>
    <g>
      <path fill="#fff" d="M32.93213,34.2041c1.61182.87012,3.38525,1.38623,5.09375,1.38623,1.64453,0,3.99805-.83838,3.99805-2.90186,0-1.70898-1.51514-2.4502-3.73975-3.3208-2.99854-1.16064-6.12598-2.41797-6.12598-6.64209,0-4.83594,3.64307-6.86719,7.89893-6.86719,1.90234,0,3.70801.25781,5.35254.80615l-.41943,3.70752c-1.51514-.64453-3.06299-.96729-4.57812-.96729-1.67676,0-3.54688.77393-3.54688,3.12744,0,1.70898,1.93457,2.354,3.80469,3.09521,3.03076,1.12842,6.06152,2.51514,6.06152,6.70654,0,4.35254-3.09521,6.80273-8.47949,6.80273-2.32178,0-3.5791-.32227-5.73926-.87012l.41943-4.0625Z"/>
      <path fill="#fff" d="M56.78711,38.75v-8.89893l-8.22168-13.60596h5.28809l5.32031,9.44678,5.41602-9.44678h4.77246l-8.06055,13.60596v8.89893h-4.51465Z"/>
    </g>
    <g>
      <path fill="#fff" d="M22.33154,82.5v-6.28613l4.51318-4.19043c7.19922-6.71582,11.7124-12.62598,11.7124-16.70898,0-3.22363-2.79395-5.05029-6.125-5.05029-2.57861,0-5.42627.91357-8.6499,3.0083l-.59082-6.23193c3.43848-1.71924,7.25293-2.68604,11.12109-2.68604,7.46826,0,11.76611,3.92188,11.76611,10.95996,0,5.21094-3.00879,10.90625-14.12988,21.27539h15.31201v5.91016h-24.9292Z"/>
      <path fill="#fff" d="M74.71387,51.76855c-1.87988-.80566-3.92188-1.50439-6.55469-1.50439-5.96289,0-8.64941,5.104-8.91797,11.60498l.10742.10742c1.77246-2.5791,4.08301-3.76074,7.30664-3.76074,6.87695,0,10.90625,4.35156,10.90625,11.44336,0,8.59668-4.40527,13.48535-12.46484,13.48535-8.38086,0-12.73242-5.53418-12.73242-17.46094,0-11.49707,4.08301-21.3291,15.41895-21.3291,2.74023,0,5.31934.42969,7.89746,1.34326l-.9668,6.0708ZM70.04004,70.84082c0-3.43848-1.34375-7.03809-5.1582-7.03809-3.11523,0-4.99609,2.63281-4.99609,7.0918,0,3.49219,1.45117,6.66211,5.21094,6.66211,3.59961,0,4.94336-3.5459,4.94336-6.71582Z"/>
    </g>
  </symbol>
  <symbol id="SY27" viewBox="0 0 100 100">
    <circle fill="#e31b13" cx="50" cy="50" r="50"/>
    <circle fill="#fff" cx="50" cy="50" r="46.25"/>
    <circle fill="#e31b13" cx="50" cy="50" r="43.75"/>
    <g>
      <path fill="#fff" d="M32.93213,34.2041c1.61182.87012,3.38525,1.38623,5.09375,1.38623,1.64453,0,3.99805-.83838,3.99805-2.90186,0-1.70898-1.51514-2.4502-3.73975-3.3208-2.99854-1.16064-6.12598-2.41797-6.12598-6.64209,0-4.83594,3.64307-6.86719,7.89893-6.86719,1.90234,0,3.70801.25781,5.35254.80615l-.41943,3.70752c-1.51514-.64453-3.06299-.96729-4.57812-.96729-1.67676,0-3.54688.77393-3.54688,3.12744,0,1.70898,1.93457,2.354,3.80469,3.09521,3.03076,1.12842,6.06152,2.51514,6.06152,6.70654,0,4.35254-3.09521,6.80273-8.47949,6.80273-2.32178,0-3.5791-.32227-5.73926-.87012l.41943-4.0625Z"/>
      <path fill="#fff" d="M56.78711,38.75v-8.89893l-8.22168-13.60596h5.28809l5.32031,9.44678,5.41602-9.44678h4.77246l-8.06055,13.60596v8.89893h-4.51465Z"/>
    </g>
    <g>
      <path fill="#fff" d="M22.33154,82.5v-6.28613l4.51318-4.19043c7.19922-6.71582,11.7124-12.62598,11.7124-16.70898,0-3.22363-2.79395-5.05029-6.125-5.05029-2.57861,0-5.42627.91357-8.6499,3.0083l-.59082-6.23193c3.43848-1.71924,7.25293-2.68604,11.12109-2.68604,7.46826,0,11.76611,3.92188,11.76611,10.95996,0,5.21094-3.00879,10.90625-14.12988,21.27539h15.31201v5.91016h-24.9292Z"/>
      <path fill="#fff" d="M55.37305,82.5l13.91504-31.59082h-16.60156v-5.91016h24.17676v6.23242l-13.32422,31.26855h-8.16602Z"/>
    </g>
  </symbol>
  <symbol id="SY28" viewBox="0 0 100 100">
    <circle fill="#e31b13" cx="50" cy="50" r="50"/>
    <circle fill="#fff" cx="50" cy="50" r="46.25"/>
    <circle fill="#e31b13" cx="50" cy="50" r="43.75"/>
    <g>
      <path fill="#fff" d="M32.93213,34.2041c1.61182.87012,3.38525,1.38623,5.09375,1.38623,1.64453,0,3.99805-.83838,3.99805-2.90186,0-1.70898-1.51514-2.4502-3.73975-3.3208-2.99854-1.16064-6.12598-2.41797-6.12598-6.64209,0-4.83594,3.64307-6.86719,7.89893-6.86719,1.90234,0,3.70801.25781,5.35254.80615l-.41943,3.70752c-1.51514-.64453-3.06299-.96729-4.57812-.96729-1.67676,0-3.54688.77393-3.54688,3.12744,0,1.70898,1.93457,2.354,3.80469,3.09521,3.03076,1.12842,6.06152,2.51514,6.06152,6.70654,0,4.35254-3.09521,6.80273-8.47949,6.80273-2.32178,0-3.5791-.32227-5.73926-.87012l.41943-4.0625Z"/>
      <path fill="#fff" d="M56.78711,38.75v-8.89893l-8.22168-13.60596h5.28809l5.32031,9.44678,5.41602-9.44678h4.77246l-8.06055,13.60596v8.89893h-4.51465Z"/>
    </g>
    <g>
      <path fill="#fff" d="M22.33154,82.5v-6.28613l4.51318-4.19043c7.19922-6.71582,11.7124-12.62598,11.7124-16.70898,0-3.22363-2.79395-5.05029-6.125-5.05029-2.57861,0-5.42627.91357-8.6499,3.0083l-.59082-6.23193c3.43848-1.71924,7.25293-2.68604,11.12109-2.68604,7.46826,0,11.76611,3.92188,11.76611,10.95996,0,5.21094-3.00879,10.90625-14.12988,21.27539h15.31201v5.91016h-24.9292Z"/>
      <path fill="#fff" d="M70.79199,62.40625c4.83496,2.25684,7.19922,5.42578,7.19922,9.88574,0,6.93066-4.78125,10.85254-12.89453,10.85254-8.05859,0-13.21582-3.76074-13.21582-10.74512,0-4.19043,2.25586-7.0918,6.87695-9.34863v-.10742c-4.40527-1.98828-6.23242-5.37207-6.23242-8.70312,0-6.55469,4.88867-9.88574,11.92676-9.88574,6.93066,0,12.57227,2.95508,12.57227,9.02539,0,3.86816-2.5791,7.52148-6.23242,8.97266v.05371ZM59.40234,72.23828c0,3.0625,2.63281,5.31836,5.69434,5.31836,3.0625,0,5.37305-1.93359,5.37305-4.99609,0-2.90137-1.88086-5.05078-6.28613-6.50098-3.38477,1.61133-4.78125,3.5459-4.78125,6.17871ZM69.8252,54.61621c0-2.14941-1.23633-4.67432-4.6748-4.67432-2.52441,0-5.42578,1.39697-5.42578,4.51318,0,2.36328,1.71973,4.13672,5.91016,5.64062,1.9873-.69824,4.19043-3.00879,4.19043-5.47949Z"/>
    </g>
  </symbol>
  <symbol id="SY29" viewBox="0 0 100 100">
    <circle fill="#e31b13" cx="50" cy="50" r="50"/>
    <circle fill="#fff" cx="50" cy="50" r="46.25"/>
    <circle fill="#e31b13" cx="50" cy="50" r="43.75"/>
    <g>
      <path fill="#fff" d="M32.93213,34.2041c1.61182.87012,3.38525,1.38623,5.09375,1.38623,1.64453,0,3.99805-.83838,3.99805-2.90186,0-1.70898-1.51514-2.4502-3.73975-3.3208-2.99854-1.16064-6.12598-2.41797-6.12598-6.64209,0-4.83594,3.64307-6.86719,7.89893-6.86719,1.90234,0,3.70801.25781,5.35254.80615l-.41943,3.70752c-1.51514-.64453-3.06299-.96729-4.57812-.96729-1.67676,0-3.54688.77393-3.54688,3.12744,0,1.70898,1.93457,2.354,3.80469,3.09521,3.03076,1.12842,6.06152,2.51514,6.06152,6.70654,0,4.35254-3.09521,6.80273-8.47949,6.80273-2.32178,0-3.5791-.32227-5.73926-.87012l.41943-4.0625Z"/>
      <path fill="#fff" d="M56.78711,38.75v-8.89893l-8.22168-13.60596h5.28809l5.32031,9.44678,5.41602-9.44678h4.77246l-8.06055,13.60596v8.89893h-4.51465Z"/>
    </g>
    <g>
      <path fill="#fff" d="M22.33154,82.5v-6.28613l4.51318-4.19043c7.19922-6.71582,11.7124-12.62598,11.7124-16.70898,0-3.22363-2.79395-5.05029-6.125-5.05029-2.57861,0-5.42627.91357-8.6499,3.0083l-.59082-6.23193c3.43848-1.71924,7.25293-2.68604,11.12109-2.68604,7.46826,0,11.76611,3.92188,11.76611,10.95996,0,5.21094-3.00879,10.90625-14.12988,21.27539h15.31201v5.91016h-24.9292Z"/>
      <path fill="#fff" d="M70.57715,65.52246c-1.77344,2.63281-4.08301,3.76074-7.25293,3.76074-7.19922,0-10.95996-4.62012-10.95996-11.44336,0-8.59619,4.40527-13.48535,12.46387-13.48535,8.32812,0,12.7334,5.47998,12.7334,17.46094,0,11.6582-4.19043,21.3291-15.41895,21.3291-2.74023,0-5.31934-.42969-7.89844-1.34277l.96777-6.07129c2.09473.91309,4.13672,1.50391,6.55469,1.50391,5.42578,0,8.5957-4.29785,8.91797-11.60449l-.10742-.10742ZM70.04004,56.60352c0-3.49219-1.45117-6.66162-5.26562-6.66162-3.16895,0-4.88867,3.0083-4.88867,6.71533,0,3.81445,1.6123,7.03809,5.10352,7.03809,3.70703,0,5.05078-3.43848,5.05078-7.0918Z"/>
    </g>
  </symbol>
  <symbol id="SY30" viewBox="0 0 100 100">
    <circle fill="#e31b13" cx="50" cy="50" r="50"/>
    <circle fill="#fff" cx="50" cy="50" r="46.25"/>
    <circle fill="#e31b13" cx="50" cy="50" r="43.75"/>
    <g>
      <path fill="#fff" d="M32.93213,34.2041c1.61182.87012,3.38525,1.38623,5.09375,1.38623,1.64453,0,3.99805-.83838,3.99805-2.90186,0-1.70898-1.51514-2.4502-3.73975-3.3208-2.99854-1.16064-6.12598-2.41797-6.12598-6.64209,0-4.83594,3.64307-6.86719,7.89893-6.86719,1.90234,0,3.70801.25781,5.35254.80615l-.41943,3.70752c-1.51514-.64453-3.06299-.96729-4.57812-.96729-1.67676,0-3.54688.77393-3.54688,3.12744,0,1.70898,1.93457,2.354,3.80469,3.09521,3.03076,1.12842,6.06152,2.51514,6.06152,6.70654,0,4.35254-3.09521,6.80273-8.47949,6.80273-2.32178,0-3.5791-.32227-5.73926-.87012l.41943-4.0625Z"/>
      <path fill="#fff" d="M56.78711,38.75v-8.89893l-8.22168-13.60596h5.28809l5.32031,9.44678,5.41602-9.44678h4.77246l-8.06055,13.60596v8.89893h-4.51465Z"/>
    </g>
    <g>
      <path fill="#fff" d="M22.97656,75.51562c2.73975,1.07422,5.47998,1.71875,8.27344,1.71875,3.6001,0,7.95166-1.71875,7.95166-5.31836,0-3.92188-2.79395-5.85645-8.22021-5.85645h-3.70703v-5.91016h3.65332c4.78174,0,8.11279-1.71875,8.11279-4.94238s-2.25635-4.94287-6.50098-4.94287c-2.84717,0-5.74854.69873-8.38135,1.98779l-.42969-6.01709c3.00879-1.18213,6.6084-1.88037,10.42285-1.88037,6.125,0,12.41064,2.47119,12.41064,9.61621,0,4.29883-2.20264,7.14648-6.98438,8.97266v.10742c4.51318.59082,7.14551,4.0293,7.14551,8.91895,0,7.52148-5.90967,11.1748-14.45215,11.1748-3.22363,0-6.87695-.42969-9.72461-1.23535l.43018-6.39355Z"/>
      <path fill="#fff" d="M51.88086,63.85645c0-11.81934,4.24414-19.50195,13.00098-19.50195,8.59668,0,13.10938,6.76953,13.10938,19.50195,0,12.46484-4.5127,19.28809-13.10938,19.28809-8.54199,0-13.00098-6.125-13.00098-19.28809ZM70.46973,63.85645c0-5.64062-.16113-13.91455-5.6416-13.91455-5.10352,0-5.42578,7.95166-5.42578,13.75342,0,6.01758.21484,13.86133,5.47949,13.86133,5.42676,0,5.58789-8.1123,5.58789-13.7002Z"/>
    </g>
  </symbol>
  <symbol id="SY31" viewBox="0 0 100 100">
    <circle fill="#e31b13" cx="50" cy="50" r="50"/>
    <circle fill="#fff" cx="50" cy="50" r="46.25"/>
    <circle fill="#e31b13" cx="50" cy="50" r="43.75"/>
    <g>
      <path fill="#fff" d="M32.93213,34.2041c1.61182.87012,3.38525,1.38623,5.09375,1.38623,1.64453,0,3.99805-.83838,3.99805-2.90186,0-1.70898-1.51514-2.4502-3.73975-3.3208-2.99854-1.16064-6.12598-2.41797-6.12598-6.64209,0-4.83594,3.64307-6.86719,7.89893-6.86719,1.90234,0,3.70801.25781,5.35254.80615l-.41943,3.70752c-1.51514-.64453-3.06299-.96729-4.57812-.96729-1.67676,0-3.54688.77393-3.54688,3.12744,0,1.70898,1.93457,2.354,3.80469,3.09521,3.03076,1.12842,6.06152,2.51514,6.06152,6.70654,0,4.35254-3.09521,6.80273-8.47949,6.80273-2.32178,0-3.5791-.32227-5.73926-.87012l.41943-4.0625Z"/>
      <path fill="#fff" d="M56.78711,38.75v-8.89893l-8.22168-13.60596h5.28809l5.32031,9.44678,5.41602-9.44678h4.77246l-8.06055,13.60596v8.89893h-4.51465Z"/>
    </g>
    <g>
      <path fill="#fff" d="M22.97656,75.51562c2.73975,1.07422,5.47998,1.71875,8.27344,1.71875,3.6001,0,7.95166-1.71875,7.95166-5.31836,0-3.92188-2.79395-5.85645-8.22021-5.85645h-3.70703v-5.91016h3.65332c4.78174,0,8.11279-1.71875,8.11279-4.94238s-2.25635-4.94287-6.50098-4.94287c-2.84717,0-5.74854.69873-8.38135,1.98779l-.42969-6.01709c3.00879-1.18213,6.6084-1.88037,10.42285-1.88037,6.125,0,12.41064,2.47119,12.41064,9.61621,0,4.29883-2.20264,7.14648-6.98438,8.97266v.10742c4.51318.59082,7.14551,4.0293,7.14551,8.91895,0,7.52148-5.90967,11.1748-14.45215,11.1748-3.22363,0-6.87695-.42969-9.72461-1.23535l.43018-6.39355Z"/>
      <path fill="#fff" d="M64.34473,82.5v-28.95898l-6.33887,5.1582-3.76172-4.88965,10.95996-8.81055h6.66211v37.50098h-7.52148Z"/>
    </g>
  </symbol>
  <symbol id="SY32" viewBox="0 0 100 100">
    <circle fill="#e31b13" cx="50" cy="50" r="50"/>
    <circle fill="#fff" cx="50" cy="50" r="46.25"/>
    <circle fill="#e31b13" cx="50" cy="50" r="43.75"/>
    <g>
      <path fill="#fff" d="M32.93213,34.2041c1.61182.87012,3.38525,1.38623,5.09375,1.38623,1.64453,0,3.99805-.83838,3.99805-2.90186,0-1.70898-1.51514-2.4502-3.73975-3.3208-2.99854-1.16064-6.12598-2.41797-6.12598-6.64209,0-4.83594,3.64307-6.86719,7.89893-6.86719,1.90234,0,3.70801.25781,5.35254.80615l-.41943,3.70752c-1.51514-.64453-3.06299-.96729-4.57812-.96729-1.67676,0-3.54688.77393-3.54688,3.12744,0,1.70898,1.93457,2.354,3.80469,3.09521,3.03076,1.12842,6.06152,2.51514,6.06152,6.70654,0,4.35254-3.09521,6.80273-8.47949,6.80273-2.32178,0-3.5791-.32227-5.73926-.87012l.41943-4.0625Z"/>
      <path fill="#fff" d="M56.78711,38.75v-8.89893l-8.22168-13.60596h5.28809l5.32031,9.44678,5.41602-9.44678h4.77246l-8.06055,13.60596v8.89893h-4.51465Z"/>
    </g>
    <g>
      <path fill="#fff" d="M22.97656,75.51562c2.73975,1.07422,5.47998,1.71875,8.27344,1.71875,3.6001,0,7.95166-1.71875,7.95166-5.31836,0-3.92188-2.79395-5.85645-8.22021-5.85645h-3.70703v-5.91016h3.65332c4.78174,0,8.11279-1.71875,8.11279-4.94238s-2.25635-4.94287-6.50098-4.94287c-2.84717,0-5.74854.69873-8.38135,1.98779l-.42969-6.01709c3.00879-1.18213,6.6084-1.88037,10.42285-1.88037,6.125,0,12.41064,2.47119,12.41064,9.61621,0,4.29883-2.20264,7.14648-6.98438,8.97266v.10742c4.51318.59082,7.14551,4.0293,7.14551,8.91895,0,7.52148-5.90967,11.1748-14.45215,11.1748-3.22363,0-6.87695-.42969-9.72461-1.23535l.43018-6.39355Z"/>
      <path fill="#fff" d="M52.20312,82.5v-6.28613l4.5127-4.19043c7.19922-6.71582,11.71191-12.62598,11.71191-16.70898,0-3.22363-2.79297-5.05029-6.12402-5.05029-2.5791,0-5.42676.91357-8.65039,3.0083l-.59082-6.23193c3.43848-1.71924,7.25293-2.68604,11.12109-2.68604,7.46777,0,11.7666,3.92188,11.7666,10.95996,0,5.21094-3.00879,10.90625-14.12988,21.27539h15.31152v5.91016h-24.92871Z"/>
    </g>
  </symbol>
  <symbol id="SY33" viewBox="0 0 100 100">
    <circle fill="#e31b13" cx="50" cy="50" r="50"/>
    <circle fill="#fff" cx="50" cy="50" r="46.25"/>
    <circle fill="#e31b13" cx="50" cy="50" r="43.75"/>
    <g>
      <path fill="#fff" d="M32.93213,34.2041c1.61182.87012,3.38525,1.38623,5.09375,1.38623,1.64453,0,3.99805-.83838,3.99805-2.90186,0-1.70898-1.51514-2.4502-3.73975-3.3208-2.99854-1.16064-6.12598-2.41797-6.12598-6.64209,0-4.83594,3.64307-6.86719,7.89893-6.86719,1.90234,0,3.70801.25781,5.35254.80615l-.41943,3.70752c-1.51514-.64453-3.06299-.96729-4.57812-.96729-1.67676,0-3.54688.77393-3.54688,3.12744,0,1.70898,1.93457,2.354,3.80469,3.09521,3.03076,1.12842,6.06152,2.51514,6.06152,6.70654,0,4.35254-3.09521,6.80273-8.47949,6.80273-2.32178,0-3.5791-.32227-5.73926-.87012l.41943-4.0625Z"/>
      <path fill="#fff" d="M56.78711,38.75v-8.89893l-8.22168-13.60596h5.28809l5.32031,9.44678,5.41602-9.44678h4.77246l-8.06055,13.60596v8.89893h-4.51465Z"/>
    </g>
    <g>
      <path fill="#fff" d="M22.97656,75.51562c2.73975,1.07422,5.47998,1.71875,8.27344,1.71875,3.6001,0,7.95166-1.71875,7.95166-5.31836,0-3.92188-2.79395-5.85645-8.22021-5.85645h-3.70703v-5.91016h3.65332c4.78174,0,8.11279-1.71875,8.11279-4.94238s-2.25635-4.94287-6.50098-4.94287c-2.84717,0-5.74854.69873-8.38135,1.98779l-.42969-6.01709c3.00879-1.18213,6.6084-1.88037,10.42285-1.88037,6.125,0,12.41064,2.47119,12.41064,9.61621,0,4.29883-2.20264,7.14648-6.98438,8.97266v.10742c4.51318.59082,7.14551,4.0293,7.14551,8.91895,0,7.52148-5.90967,11.1748-14.45215,11.1748-3.22363,0-6.87695-.42969-9.72461-1.23535l.43018-6.39355Z"/>
      <path fill="#fff" d="M52.84766,75.51562c2.74023,1.07422,5.48047,1.71875,8.27344,1.71875,3.59961,0,7.95215-1.71875,7.95215-5.31836,0-3.92188-2.79395-5.85645-8.2207-5.85645h-3.70703v-5.91016h3.65332c4.78223,0,8.11328-1.71875,8.11328-4.94238s-2.25684-4.94287-6.50098-4.94287c-2.84766,0-5.74902.69873-8.38184,1.98779l-.42969-6.01709c3.00879-1.18213,6.6084-1.88037,10.42285-1.88037,6.125,0,12.41113,2.47119,12.41113,9.61621,0,4.29883-2.20312,7.14648-6.98438,8.97266v.10742c4.5127.59082,7.14551,4.0293,7.14551,8.91895,0,7.52148-5.91016,11.1748-14.45215,11.1748-3.22363,0-6.87695-.42969-9.72461-1.23535l.42969-6.39355Z"/>
    </g>
  </symbol>
  <symbol id="SY34" viewBox="0 0 100 100">
    <circle fill="#e31b13" cx="50" cy="50" r="50"/>
    <circle fill="#fff" cx="50" cy="50" r="46.25"/>
    <circle fill="#e31b13" cx="50" cy="50" r="43.75"/>
    <g>
      <path fill="#fff" d="M32.93213,34.2041c1.61182.87012,3.38525,1.38623,5.09375,1.38623,1.64453,0,3.99805-.83838,3.99805-2.90186,0-1.70898-1.51514-2.4502-3.73975-3.3208-2.99854-1.16064-6.12598-2.41797-6.12598-6.64209,0-4.83594,3.64307-6.86719,7.89893-6.86719,1.90234,0,3.70801.25781,5.35254.80615l-.41943,3.70752c-1.51514-.64453-3.06299-.96729-4.57812-.96729-1.67676,0-3.54688.77393-3.54688,3.12744,0,1.70898,1.93457,2.354,3.80469,3.09521,3.03076,1.12842,6.06152,2.51514,6.06152,6.70654,0,4.35254-3.09521,6.80273-8.47949,6.80273-2.32178,0-3.5791-.32227-5.73926-.87012l.41943-4.0625Z"/>
      <path fill="#fff" d="M56.78711,38.75v-8.89893l-8.22168-13.60596h5.28809l5.32031,9.44678,5.41602-9.44678h4.77246l-8.06055,13.60596v8.89893h-4.51465Z"/>
    </g>
    <g>
      <path fill="#fff" d="M22.97656,75.51562c2.73975,1.07422,5.47998,1.71875,8.27344,1.71875,3.6001,0,7.95166-1.71875,7.95166-5.31836,0-3.92188-2.79395-5.85645-8.22021-5.85645h-3.70703v-5.91016h3.65332c4.78174,0,8.11279-1.71875,8.11279-4.94238s-2.25635-4.94287-6.50098-4.94287c-2.84717,0-5.74854.69873-8.38135,1.98779l-.42969-6.01709c3.00879-1.18213,6.6084-1.88037,10.42285-1.88037,6.125,0,12.41064,2.47119,12.41064,9.61621,0,4.29883-2.20264,7.14648-6.98438,8.97266v.10742c4.51318.59082,7.14551,4.0293,7.14551,8.91895,0,7.52148-5.90967,11.1748-14.45215,11.1748-3.22363,0-6.87695-.42969-9.72461-1.23535l.43018-6.39355Z"/>
      <path fill="#fff" d="M67.03125,82.5v-7.79102h-16.17188v-6.07031l14.02246-23.63965h9.34863v24.12305h4.78125v5.58691h-4.78125v7.79102h-7.19922ZM67.03125,52.84277h-.10742l-9.29492,16.2793h9.40234v-16.2793Z"/>
    </g>
  </symbol>
  <symbol id="SY35" viewBox="0 0 100 100">
    <circle fill="#e31b13" cx="50" cy="50" r="50"/>
    <circle fill="#fff" cx="50" cy="50" r="46.25"/>
    <circle fill="#e31b13" cx="50" cy="50" r="43.75"/>
    <g>
      <path fill="#fff" d="M32.93213,34.2041c1.61182.87012,3.38525,1.38623,5.09375,1.38623,1.64453,0,3.99805-.83838,3.99805-2.90186,0-1.70898-1.51514-2.4502-3.73975-3.3208-2.99854-1.16064-6.12598-2.41797-6.12598-6.64209,0-4.83594,3.64307-6.86719,7.89893-6.86719,1.90234,0,3.70801.25781,5.35254.80615l-.41943,3.70752c-1.51514-.64453-3.06299-.96729-4.57812-.96729-1.67676,0-3.54688.77393-3.54688,3.12744,0,1.70898,1.93457,2.354,3.80469,3.09521,3.03076,1.12842,6.06152,2.51514,6.06152,6.70654,0,4.35254-3.09521,6.80273-8.47949,6.80273-2.32178,0-3.5791-.32227-5.73926-.87012l.41943-4.0625Z"/>
      <path fill="#fff" d="M56.78711,38.75v-8.89893l-8.22168-13.60596h5.28809l5.32031,9.44678,5.41602-9.44678h4.77246l-8.06055,13.60596v8.89893h-4.51465Z"/>
    </g>
    <g>
      <path fill="#fff" d="M22.97656,75.51562c2.73975,1.07422,5.47998,1.71875,8.27344,1.71875,3.6001,0,7.95166-1.71875,7.95166-5.31836,0-3.92188-2.79395-5.85645-8.22021-5.85645h-3.70703v-5.91016h3.65332c4.78174,0,8.11279-1.71875,8.11279-4.94238s-2.25635-4.94287-6.50098-4.94287c-2.84717,0-5.74854.69873-8.38135,1.98779l-.42969-6.01709c3.00879-1.18213,6.6084-1.88037,10.42285-1.88037,6.125,0,12.41064,2.47119,12.41064,9.61621,0,4.29883-2.20264,7.14648-6.98438,8.97266v.10742c4.51318.59082,7.14551,4.0293,7.14551,8.91895,0,7.52148-5.90967,11.1748-14.45215,11.1748-3.22363,0-6.87695-.42969-9.72461-1.23535l.43018-6.39355Z"/>
      <path fill="#fff" d="M54.0293,75.35449c3.11621,1.34277,5.42676,1.87988,7.57617,1.87988,4.78125,0,8.1123-2.36328,8.1123-6.6084,0-4.13672-3.27734-6.50098-8.59668-6.50098-2.30957,0-4.5127.32324-6.71484,1.02148l.37598-20.14746h21.54395v5.5874h-14.45215l-.16113,8.00537c1.28906-.21484,2.09473-.37598,3.4375-.37598,6.71582,0,12.08887,3.70703,12.08887,12.1416,0,7.68262-5.58789,12.78711-14.61328,12.78711-2.41797,0-5.91016-.37598-8.75781-1.07422l.16113-6.71582Z"/>
    </g>
  </symbol>
  <symbol id="SY36" viewBox="0 0 100 100">
    <circle fill="#e31b13" cx="50" cy="50" r="50"/>
    <circle fill="#fff" cx="50" cy="50" r="46.25"/>
    <circle fill="#e31b13" cx="50" cy="50" r="43.75"/>
    <g>
      <path fill="#fff" d="M32.93213,34.2041c1.61182.87012,3.38525,1.38623,5.09375,1.38623,1.64453,0,3.99805-.83838,3.99805-2.90186,0-1.70898-1.51514-2.4502-3.73975-3.3208-2.99854-1.16064-6.12598-2.41797-6.12598-6.64209,0-4.83594,3.64307-6.86719,7.89893-6.86719,1.90234,0,3.70801.25781,5.35254.80615l-.41943,3.70752c-1.51514-.64453-3.06299-.96729-4.57812-.96729-1.67676,0-3.54688.77393-3.54688,3.12744,0,1.70898,1.93457,2.354,3.80469,3.09521,3.03076,1.12842,6.06152,2.51514,6.06152,6.70654,0,4.35254-3.09521,6.80273-8.47949,6.80273-2.32178,0-3.5791-.32227-5.73926-.87012l.41943-4.0625Z"/>
      <path fill="#fff" d="M56.78711,38.75v-8.89893l-8.22168-13.60596h5.28809l5.32031,9.44678,5.41602-9.44678h4.77246l-8.06055,13.60596v8.89893h-4.51465Z"/>
    </g>
    <g>
      <path fill="#fff" d="M22.97656,75.51562c2.73975,1.07422,5.47998,1.71875,8.27344,1.71875,3.6001,0,7.95166-1.71875,7.95166-5.31836,0-3.92188-2.79395-5.85645-8.22021-5.85645h-3.70703v-5.91016h3.65332c4.78174,0,8.11279-1.71875,8.11279-4.94238s-2.25635-4.94287-6.50098-4.94287c-2.84717,0-5.74854.69873-8.38135,1.98779l-.42969-6.01709c3.00879-1.18213,6.6084-1.88037,10.42285-1.88037,6.125,0,12.41064,2.47119,12.41064,9.61621,0,4.29883-2.20264,7.14648-6.98438,8.97266v.10742c4.51318.59082,7.14551,4.0293,7.14551,8.91895,0,7.52148-5.90967,11.1748-14.45215,11.1748-3.22363,0-6.87695-.42969-9.72461-1.23535l.43018-6.39355Z"/>
      <path fill="#fff" d="M74.71387,51.76855c-1.87988-.80566-3.92188-1.50439-6.55469-1.50439-5.96289,0-8.64941,5.104-8.91797,11.60498l.10742.10742c1.77246-2.5791,4.08301-3.76074,7.30664-3.76074,6.87695,0,10.90625,4.35156,10.90625,11.44336,0,8.59668-4.40527,13.48535-12.46484,13.48535-8.38086,0-12.73242-5.53418-12.73242-17.46094,0-11.49707,4.08301-21.3291,15.41895-21.3291,2.74023,0,5.31934.42969,7.89746,1.34326l-.9668,6.0708ZM70.04004,70.84082c0-3.43848-1.34375-7.03809-5.1582-7.03809-3.11523,0-4.99609,2.63281-4.99609,7.0918,0,3.49219,1.45117,6.66211,5.21094,6.66211,3.59961,0,4.94336-3.5459,4.94336-6.71582Z"/>
    </g>
  </symbol>
  <symbol id="SY37" viewBox="0 0 100 100">
    <circle fill="#e31b13" cx="50" cy="50" r="50"/>
    <circle fill="#fff" cx="50" cy="50" r="46.25"/>
    <circle fill="#e31b13" cx="50" cy="50" r="43.75"/>
    <g>
      <path fill="#fff" d="M32.93213,34.2041c1.61182.87012,3.38525,1.38623,5.09375,1.38623,1.64453,0,3.99805-.83838,3.99805-2.90186,0-1.70898-1.51514-2.4502-3.73975-3.3208-2.99854-1.16064-6.12598-2.41797-6.12598-6.64209,0-4.83594,3.64307-6.86719,7.89893-6.86719,1.90234,0,3.70801.25781,5.35254.80615l-.41943,3.70752c-1.51514-.64453-3.06299-.96729-4.57812-.96729-1.67676,0-3.54688.77393-3.54688,3.12744,0,1.70898,1.93457,2.354,3.80469,3.09521,3.03076,1.12842,6.06152,2.51514,6.06152,6.70654,0,4.35254-3.09521,6.80273-8.47949,6.80273-2.32178,0-3.5791-.32227-5.73926-.87012l.41943-4.0625Z"/>
      <path fill="#fff" d="M56.78711,38.75v-8.89893l-8.22168-13.60596h5.28809l5.32031,9.44678,5.41602-9.44678h4.77246l-8.06055,13.60596v8.89893h-4.51465Z"/>
    </g>
    <g>
      <path fill="#fff" d="M22.97656,75.51562c2.73975,1.07422,5.47998,1.71875,8.27344,1.71875,3.6001,0,7.95166-1.71875,7.95166-5.31836,0-3.92188-2.79395-5.85645-8.22021-5.85645h-3.70703v-5.91016h3.65332c4.78174,0,8.11279-1.71875,8.11279-4.94238s-2.25635-4.94287-6.50098-4.94287c-2.84717,0-5.74854.69873-8.38135,1.98779l-.42969-6.01709c3.00879-1.18213,6.6084-1.88037,10.42285-1.88037,6.125,0,12.41064,2.47119,12.41064,9.61621,0,4.29883-2.20264,7.14648-6.98438,8.97266v.10742c4.51318.59082,7.14551,4.0293,7.14551,8.91895,0,7.52148-5.90967,11.1748-14.45215,11.1748-3.22363,0-6.87695-.42969-9.72461-1.23535l.43018-6.39355Z"/>
      <path fill="#fff" d="M55.37305,82.5l13.91504-31.59082h-16.60156v-5.91016h24.17676v6.23242l-13.32422,31.26855h-8.16602Z"/>
    </g>
  </symbol>
  <symbol id="SY38" viewBox="0 0 100 100">
    <circle fill="#e31b13" cx="50" cy="50" r="50"/>
    <circle fill="#fff" cx="50" cy="50" r="46.25"/>
    <circle fill="#e31b13" cx="50" cy="50" r="43.75"/>
    <g>
      <path fill="#fff" d="M32.93213,34.2041c1.61182.87012,3.38525,1.38623,5.09375,1.38623,1.64453,0,3.99805-.83838,3.99805-2.90186,0-1.70898-1.51514-2.4502-3.73975-3.3208-2.99854-1.16064-6.12598-2.41797-6.12598-6.64209,0-4.83594,3.64307-6.86719,7.89893-6.86719,1.90234,0,3.70801.25781,5.35254.80615l-.41943,3.70752c-1.51514-.64453-3.06299-.96729-4.57812-.96729-1.67676,0-3.54688.77393-3.54688,3.12744,0,1.70898,1.93457,2.354,3.80469,3.09521,3.03076,1.12842,6.06152,2.51514,6.06152,6.70654,0,4.35254-3.09521,6.80273-8.47949,6.80273-2.32178,0-3.5791-.32227-5.73926-.87012l.41943-4.0625Z"/>
      <path fill="#fff" d="M56.78711,38.75v-8.89893l-8.22168-13.60596h5.28809l5.32031,9.44678,5.41602-9.44678h4.77246l-8.06055,13.60596v8.89893h-4.51465Z"/>
    </g>
    <g>
      <path fill="#fff" d="M22.97656,75.51562c2.73975,1.07422,5.47998,1.71875,8.27344,1.71875,3.6001,0,7.95166-1.71875,7.95166-5.31836,0-3.92188-2.79395-5.85645-8.22021-5.85645h-3.70703v-5.91016h3.65332c4.78174,0,8.11279-1.71875,8.11279-4.94238s-2.25635-4.94287-6.50098-4.94287c-2.84717,0-5.74854.69873-8.38135,1.98779l-.42969-6.01709c3.00879-1.18213,6.6084-1.88037,10.42285-1.88037,6.125,0,12.41064,2.47119,12.41064,9.61621,0,4.29883-2.20264,7.14648-6.98438,8.97266v.10742c4.51318.59082,7.14551,4.0293,7.14551,8.91895,0,7.52148-5.90967,11.1748-14.45215,11.1748-3.22363,0-6.87695-.42969-9.72461-1.23535l.43018-6.39355Z"/>
      <path fill="#fff" d="M70.79199,62.40625c4.83496,2.25684,7.19922,5.42578,7.19922,9.88574,0,6.93066-4.78125,10.85254-12.89453,10.85254-8.05859,0-13.21582-3.76074-13.21582-10.74512,0-4.19043,2.25586-7.0918,6.87695-9.34863v-.10742c-4.40527-1.98828-6.23242-5.37207-6.23242-8.70312,0-6.55469,4.88867-9.88574,11.92676-9.88574,6.93066,0,12.57227,2.95508,12.57227,9.02539,0,3.86816-2.5791,7.52148-6.23242,8.97266v.05371ZM59.40234,72.23828c0,3.0625,2.63281,5.31836,5.69434,5.31836,3.0625,0,5.37305-1.93359,5.37305-4.99609,0-2.90137-1.88086-5.05078-6.28613-6.50098-3.38477,1.61133-4.78125,3.5459-4.78125,6.17871ZM69.8252,54.61621c0-2.14941-1.23633-4.67432-4.6748-4.67432-2.52441,0-5.42578,1.39697-5.42578,4.51318,0,2.36328,1.71973,4.13672,5.91016,5.64062,1.9873-.69824,4.19043-3.00879,4.19043-5.47949Z"/>
    </g>
  </symbol>
  <symbol id="SY39" viewBox="0 0 100 100">
    <circle fill="#e31b13" cx="50" cy="50" r="50"/>
    <circle fill="#fff" cx="50" cy="50" r="46.25"/>
    <circle fill="#e31b13" cx="50" cy="50" r="43.75"/>
    <g>
      <path fill="#fff" d="M32.93213,34.2041c1.61182.87012,3.38525,1.38623,5.09375,1.38623,1.64453,0,3.99805-.83838,3.99805-2.90186,0-1.70898-1.51514-2.4502-3.73975-3.3208-2.99854-1.16064-6.12598-2.41797-6.12598-6.64209,0-4.83594,3.64307-6.86719,7.89893-6.86719,1.90234,0,3.70801.25781,5.35254.80615l-.41943,3.70752c-1.51514-.64453-3.06299-.96729-4.57812-.96729-1.67676,0-3.54688.77393-3.54688,3.12744,0,1.70898,1.93457,2.354,3.80469,3.09521,3.03076,1.12842,6.06152,2.51514,6.06152,6.70654,0,4.35254-3.09521,6.80273-8.47949,6.80273-2.32178,0-3.5791-.32227-5.73926-.87012l.41943-4.0625Z"/>
      <path fill="#fff" d="M56.78711,38.75v-8.89893l-8.22168-13.60596h5.28809l5.32031,9.44678,5.41602-9.44678h4.77246l-8.06055,13.60596v8.89893h-4.51465Z"/>
    </g>
    <g>
      <path fill="#fff" d="M22.97656,75.51562c2.73975,1.07422,5.47998,1.71875,8.27344,1.71875,3.6001,0,7.95166-1.71875,7.95166-5.31836,0-3.92188-2.79395-5.85645-8.22021-5.85645h-3.70703v-5.91016h3.65332c4.78174,0,8.11279-1.71875,8.11279-4.94238s-2.25635-4.94287-6.50098-4.94287c-2.84717,0-5.74854.69873-8.38135,1.98779l-.42969-6.01709c3.00879-1.18213,6.6084-1.88037,10.42285-1.88037,6.125,0,12.41064,2.47119,12.41064,9.61621,0,4.29883-2.20264,7.14648-6.98438,8.97266v.10742c4.51318.59082,7.14551,4.0293,7.14551,8.91895,0,7.52148-5.90967,11.1748-14.45215,11.1748-3.22363,0-6.87695-.42969-9.72461-1.23535l.43018-6.39355Z"/>
      <path fill="#fff" d="M70.57715,65.52246c-1.77344,2.63281-4.08301,3.76074-7.25293,3.76074-7.19922,0-10.95996-4.62012-10.95996-11.44336,0-8.59619,4.40527-13.48535,12.46387-13.48535,8.32812,0,12.7334,5.47998,12.7334,17.46094,0,11.6582-4.19043,21.3291-15.41895,21.3291-2.74023,0-5.31934-.42969-7.89844-1.34277l.96777-6.07129c2.09473.91309,4.13672,1.50391,6.55469,1.50391,5.42578,0,8.5957-4.29785,8.91797-11.60449l-.10742-.10742ZM70.04004,56.60352c0-3.49219-1.45117-6.66162-5.26562-6.66162-3.16895,0-4.88867,3.0083-4.88867,6.71533,0,3.81445,1.6123,7.03809,5.10352,7.03809,3.70703,0,5.05078-3.43848,5.05078-7.0918Z"/>
    </g>
  </symbol>
  <symbol id="SY40" viewBox="0 0 100 100">
    <circle fill="#e31b13" cx="50" cy="50" r="50"/>
    <circle fill="#fff" cx="50" cy="50" r="46.25"/>
    <circle fill="#e31b13" cx="50" cy="50" r="43.75"/>
    <g>
      <path fill="#fff" d="M32.93213,34.2041c1.61182.87012,3.38525,1.38623,5.09375,1.38623,1.64453,0,3.99805-.83838,3.99805-2.90186,0-1.70898-1.51514-2.4502-3.73975-3.3208-2.99854-1.16064-6.12598-2.41797-6.12598-6.64209,0-4.83594,3.64307-6.86719,7.89893-6.86719,1.90234,0,3.70801.25781,5.35254.80615l-.41943,3.70752c-1.51514-.64453-3.06299-.96729-4.57812-.96729-1.67676,0-3.54688.77393-3.54688,3.12744,0,1.70898,1.93457,2.354,3.80469,3.09521,3.03076,1.12842,6.06152,2.51514,6.06152,6.70654,0,4.35254-3.09521,6.80273-8.47949,6.80273-2.32178,0-3.5791-.32227-5.73926-.87012l.41943-4.0625Z"/>
      <path fill="#fff" d="M56.78711,38.75v-8.89893l-8.22168-13.60596h5.28809l5.32031,9.44678,5.41602-9.44678h4.77246l-8.06055,13.60596v8.89893h-4.51465Z"/>
    </g>
    <g>
      <path fill="#fff" d="M37.16016,82.5v-7.79102h-16.17188v-6.07031l14.02295-23.63965h9.34814v24.12305h4.78174v5.58691h-4.78174v7.79102h-7.19922ZM37.16016,52.84277h-.10742l-9.29492,16.2793h9.40234v-16.2793Z"/>
      <path fill="#fff" d="M51.88086,63.85645c0-11.81934,4.24414-19.50195,13.00098-19.50195,8.59668,0,13.10938,6.76953,13.10938,19.50195,0,12.46484-4.5127,19.28809-13.10938,19.28809-8.54199,0-13.00098-6.125-13.00098-19.28809ZM70.46973,63.85645c0-5.64062-.16113-13.91455-5.6416-13.91455-5.10352,0-5.42578,7.95166-5.42578,13.75342,0,6.01758.21484,13.86133,5.47949,13.86133,5.42676,0,5.58789-8.1123,5.58789-13.7002Z"/>
    </g>
  </symbol>
  <symbol id="SY41" viewBox="0 0 100 100">
    <circle fill="#e31b13" cx="50" cy="50" r="50"/>
    <circle fill="#fff" cx="50" cy="50" r="46.25"/>
    <circle fill="#e31b13" cx="50" cy="50" r="43.75"/>
    <g>
      <path fill="#fff" d="M32.93213,34.2041c1.61182.87012,3.38525,1.38623,5.09375,1.38623,1.64453,0,3.99805-.83838,3.99805-2.90186,0-1.70898-1.51514-2.4502-3.73975-3.3208-2.99854-1.16064-6.12598-2.41797-6.12598-6.64209,0-4.83594,3.64307-6.86719,7.89893-6.86719,1.90234,0,3.70801.25781,5.35254.80615l-.41943,3.70752c-1.51514-.64453-3.06299-.96729-4.57812-.96729-1.67676,0-3.54688.77393-3.54688,3.12744,0,1.70898,1.93457,2.354,3.80469,3.09521,3.03076,1.12842,6.06152,2.51514,6.06152,6.70654,0,4.35254-3.09521,6.80273-8.47949,6.80273-2.32178,0-3.5791-.32227-5.73926-.87012l.41943-4.0625Z"/>
      <path fill="#fff" d="M56.78711,38.75v-8.89893l-8.22168-13.60596h5.28809l5.32031,9.44678,5.41602-9.44678h4.77246l-8.06055,13.60596v8.89893h-4.51465Z"/>
    </g>
    <g>
      <path fill="#fff" d="M37.16016,82.5v-7.79102h-16.17188v-6.07031l14.02295-23.63965h9.34814v24.12305h4.78174v5.58691h-4.78174v7.79102h-7.19922ZM37.16016,52.84277h-.10742l-9.29492,16.2793h9.40234v-16.2793Z"/>
      <path fill="#fff" d="M64.34473,82.5v-28.95898l-6.33887,5.1582-3.76172-4.88965,10.95996-8.81055h6.66211v37.50098h-7.52148Z"/>
    </g>
  </symbol>
  <symbol id="SY42" viewBox="0 0 100 100">
    <circle fill="#e31b13" cx="50" cy="50" r="50"/>
    <circle fill="#fff" cx="50" cy="50" r="46.25"/>
    <circle fill="#e31b13" cx="50" cy="50" r="43.75"/>
    <g>
      <path fill="#fff" d="M32.93213,34.2041c1.61182.87012,3.38525,1.38623,5.09375,1.38623,1.64453,0,3.99805-.83838,3.99805-2.90186,0-1.70898-1.51514-2.4502-3.73975-3.3208-2.99854-1.16064-6.12598-2.41797-6.12598-6.64209,0-4.83594,3.64307-6.86719,7.89893-6.86719,1.90234,0,3.70801.25781,5.35254.80615l-.41943,3.70752c-1.51514-.64453-3.06299-.96729-4.57812-.96729-1.67676,0-3.54688.77393-3.54688,3.12744,0,1.70898,1.93457,2.354,3.80469,3.09521,3.03076,1.12842,6.06152,2.51514,6.06152,6.70654,0,4.35254-3.09521,6.80273-8.47949,6.80273-2.32178,0-3.5791-.32227-5.73926-.87012l.41943-4.0625Z"/>
      <path fill="#fff" d="M56.78711,38.75v-8.89893l-8.22168-13.60596h5.28809l5.32031,9.44678,5.41602-9.44678h4.77246l-8.06055,13.60596v8.89893h-4.51465Z"/>
    </g>
    <g>
      <path fill="#fff" d="M37.16016,82.5v-7.79102h-16.17188v-6.07031l14.02295-23.63965h9.34814v24.12305h4.78174v5.58691h-4.78174v7.79102h-7.19922ZM37.16016,52.84277h-.10742l-9.29492,16.2793h9.40234v-16.2793Z"/>
      <path fill="#fff" d="M52.20312,82.5v-6.28613l4.5127-4.19043c7.19922-6.71582,11.71191-12.62598,11.71191-16.70898,0-3.22363-2.79297-5.05029-6.12402-5.05029-2.5791,0-5.42676.91357-8.65039,3.0083l-.59082-6.23193c3.43848-1.71924,7.25293-2.68604,11.12109-2.68604,7.46777,0,11.7666,3.92188,11.7666,10.95996,0,5.21094-3.00879,10.90625-14.12988,21.27539h15.31152v5.91016h-24.92871Z"/>
    </g>
  </symbol>
  <symbol id="SY43" viewBox="0 0 100 100">
    <circle fill="#e31b13" cx="50" cy="50" r="50"/>
    <circle fill="#fff" cx="50" cy="50" r="46.25"/>
    <circle fill="#e31b13" cx="50" cy="50" r="43.75"/>
    <g>
      <path fill="#fff" d="M32.93213,34.2041c1.61182.87012,3.38525,1.38623,5.09375,1.38623,1.64453,0,3.99805-.83838,3.99805-2.90186,0-1.70898-1.51514-2.4502-3.73975-3.3208-2.99854-1.16064-6.12598-2.41797-6.12598-6.64209,0-4.83594,3.64307-6.86719,7.89893-6.86719,1.90234,0,3.70801.25781,5.35254.80615l-.41943,3.70752c-1.51514-.64453-3.06299-.96729-4.57812-.96729-1.67676,0-3.54688.77393-3.54688,3.12744,0,1.70898,1.93457,2.354,3.80469,3.09521,3.03076,1.12842,6.06152,2.51514,6.06152,6.70654,0,4.35254-3.09521,6.80273-8.47949,6.80273-2.32178,0-3.5791-.32227-5.73926-.87012l.41943-4.0625Z"/>
      <path fill="#fff" d="M56.78711,38.75v-8.89893l-8.22168-13.60596h5.28809l5.32031,9.44678,5.41602-9.44678h4.77246l-8.06055,13.60596v8.89893h-4.51465Z"/>
    </g>
    <g>
      <path fill="#fff" d="M37.16016,82.5v-7.79102h-16.17188v-6.07031l14.02295-23.63965h9.34814v24.12305h4.78174v5.58691h-4.78174v7.79102h-7.19922ZM37.16016,52.84277h-.10742l-9.29492,16.2793h9.40234v-16.2793Z"/>
      <path fill="#fff" d="M52.84766,75.51562c2.74023,1.07422,5.48047,1.71875,8.27344,1.71875,3.59961,0,7.95215-1.71875,7.95215-5.31836,0-3.92188-2.79395-5.85645-8.2207-5.85645h-3.70703v-5.91016h3.65332c4.78223,0,8.11328-1.71875,8.11328-4.94238s-2.25684-4.94287-6.50098-4.94287c-2.84766,0-5.74902.69873-8.38184,1.98779l-.42969-6.01709c3.00879-1.18213,6.6084-1.88037,10.42285-1.88037,6.125,0,12.41113,2.47119,12.41113,9.61621,0,4.29883-2.20312,7.14648-6.98438,8.97266v.10742c4.5127.59082,7.14551,4.0293,7.14551,8.91895,0,7.52148-5.91016,11.1748-14.45215,11.1748-3.22363,0-6.87695-.42969-9.72461-1.23535l.42969-6.39355Z"/>
    </g>
  </symbol>
  <symbol id="SY51" viewBox="0 0 100 100">
    <circle fill="#e31b13" cx="50" cy="50" r="50"/>
    <circle fill="#fff" cx="50" cy="50" r="46.25"/>
    <circle fill="#e31b13" cx="50" cy="50" r="43.75"/>
    <g>
      <path fill="#fff" d="M32.93213,34.2041c1.61182.87012,3.38525,1.38623,5.09375,1.38623,1.64453,0,3.99805-.83838,3.99805-2.90186,0-1.70898-1.51514-2.4502-3.73975-3.3208-2.99854-1.16064-6.12598-2.41797-6.12598-6.64209,0-4.83594,3.64307-6.86719,7.89893-6.86719,1.90234,0,3.70801.25781,5.35254.80615l-.41943,3.70752c-1.51514-.64453-3.06299-.96729-4.57812-.96729-1.67676,0-3.54688.77393-3.54688,3.12744,0,1.70898,1.93457,2.354,3.80469,3.09521,3.03076,1.12842,6.06152,2.51514,6.06152,6.70654,0,4.35254-3.09521,6.80273-8.47949,6.80273-2.32178,0-3.5791-.32227-5.73926-.87012l.41943-4.0625Z"/>
      <path fill="#fff" d="M56.78711,38.75v-8.89893l-8.22168-13.60596h5.28809l5.32031,9.44678,5.41602-9.44678h4.77246l-8.06055,13.60596v8.89893h-4.51465Z"/>
    </g>
    <g>
      <path fill="#fff" d="M24.1582,75.35449c3.11621,1.34277,5.42676,1.87988,7.57568,1.87988,4.78174,0,8.1123-2.36328,8.1123-6.6084,0-4.13672-3.27686-6.50098-8.59619-6.50098-2.31006,0-4.5127.32324-6.71533,1.02148l.37598-20.14746h21.54395v5.5874h-14.45215l-.16113,8.00537c1.28955-.21484,2.09521-.37598,3.43848-.37598,6.71582,0,12.08838,3.70703,12.08838,12.1416,0,7.68262-5.5874,12.78711-14.61377,12.78711-2.41748,0-5.90967-.37598-8.75732-1.07422l.16113-6.71582Z"/>
      <path fill="#fff" d="M64.34473,82.5v-28.95898l-6.33887,5.1582-3.76172-4.88965,10.95996-8.81055h6.66211v37.50098h-7.52148Z"/>
    </g>
  </symbol>
  <symbol id="SY52" viewBox="0 0 100 100">
    <circle fill="#e31b13" cx="50" cy="50" r="50"/>
    <circle fill="#fff" cx="50" cy="50" r="46.25"/>
    <circle fill="#e31b13" cx="50" cy="50" r="43.75"/>
    <g>
      <path fill="#fff" d="M32.93213,34.2041c1.61182.87012,3.38525,1.38623,5.09375,1.38623,1.64453,0,3.99805-.83838,3.99805-2.90186,0-1.70898-1.51514-2.4502-3.73975-3.3208-2.99854-1.16064-6.12598-2.41797-6.12598-6.64209,0-4.83594,3.64307-6.86719,7.89893-6.86719,1.90234,0,3.70801.25781,5.35254.80615l-.41943,3.70752c-1.51514-.64453-3.06299-.96729-4.57812-.96729-1.67676,0-3.54688.77393-3.54688,3.12744,0,1.70898,1.93457,2.354,3.80469,3.09521,3.03076,1.12842,6.06152,2.51514,6.06152,6.70654,0,4.35254-3.09521,6.80273-8.47949,6.80273-2.32178,0-3.5791-.32227-5.73926-.87012l.41943-4.0625Z"/>
      <path fill="#fff" d="M56.78711,38.75v-8.89893l-8.22168-13.60596h5.28809l5.32031,9.44678,5.41602-9.44678h4.77246l-8.06055,13.60596v8.89893h-4.51465Z"/>
    </g>
    <g>
      <path fill="#fff" d="M24.1582,75.35449c3.11621,1.34277,5.42676,1.87988,7.57568,1.87988,4.78174,0,8.1123-2.36328,8.1123-6.6084,0-4.13672-3.27686-6.50098-8.59619-6.50098-2.31006,0-4.5127.32324-6.71533,1.02148l.37598-20.14746h21.54395v5.5874h-14.45215l-.16113,8.00537c1.28955-.21484,2.09521-.37598,3.43848-.37598,6.71582,0,12.08838,3.70703,12.08838,12.1416,0,7.68262-5.5874,12.78711-14.61377,12.78711-2.41748,0-5.90967-.37598-8.75732-1.07422l.16113-6.71582Z"/>
      <path fill="#fff" d="M52.20312,82.5v-6.28613l4.5127-4.19043c7.19922-6.71582,11.71191-12.62598,11.71191-16.70898,0-3.22363-2.79297-5.05029-6.12402-5.05029-2.5791,0-5.42676.91357-8.65039,3.0083l-.59082-6.23193c3.43848-1.71924,7.25293-2.68604,11.12109-2.68604,7.46777,0,11.7666,3.92188,11.7666,10.95996,0,5.21094-3.00879,10.90625-14.12988,21.27539h15.31152v5.91016h-24.92871Z"/>
    </g>
  </symbol>
  <symbol id="SY53" viewBox="0 0 100 100">
    <circle fill="#e31b13" cx="50" cy="50" r="50"/>
    <circle fill="#fff" cx="50" cy="50" r="46.25"/>
    <circle fill="#e31b13" cx="50" cy="50" r="43.75"/>
    <g>
      <path fill="#fff" d="M32.93213,34.2041c1.61182.87012,3.38525,1.38623,5.09375,1.38623,1.64453,0,3.99805-.83838,3.99805-2.90186,0-1.70898-1.51514-2.4502-3.73975-3.3208-2.99854-1.16064-6.12598-2.41797-6.12598-6.64209,0-4.83594,3.64307-6.86719,7.89893-6.86719,1.90234,0,3.70801.25781,5.35254.80615l-.41943,3.70752c-1.51514-.64453-3.06299-.96729-4.57812-.96729-1.67676,0-3.54688.77393-3.54688,3.12744,0,1.70898,1.93457,2.354,3.80469,3.09521,3.03076,1.12842,6.06152,2.51514,6.06152,6.70654,0,4.35254-3.09521,6.80273-8.47949,6.80273-2.32178,0-3.5791-.32227-5.73926-.87012l.41943-4.0625Z"/>
      <path fill="#fff" d="M56.78711,38.75v-8.89893l-8.22168-13.60596h5.28809l5.32031,9.44678,5.41602-9.44678h4.77246l-8.06055,13.60596v8.89893h-4.51465Z"/>
    </g>
    <g>
      <path fill="#fff" d="M24.1582,75.35449c3.11621,1.34277,5.42676,1.87988,7.57568,1.87988,4.78174,0,8.1123-2.36328,8.1123-6.6084,0-4.13672-3.27686-6.50098-8.59619-6.50098-2.31006,0-4.5127.32324-6.71533,1.02148l.37598-20.14746h21.54395v5.5874h-14.45215l-.16113,8.00537c1.28955-.21484,2.09521-.37598,3.43848-.37598,6.71582,0,12.08838,3.70703,12.08838,12.1416,0,7.68262-5.5874,12.78711-14.61377,12.78711-2.41748,0-5.90967-.37598-8.75732-1.07422l.16113-6.71582Z"/>
      <path fill="#fff" d="M52.84766,75.51562c2.74023,1.07422,5.48047,1.71875,8.27344,1.71875,3.59961,0,7.95215-1.71875,7.95215-5.31836,0-3.92188-2.79395-5.85645-8.2207-5.85645h-3.70703v-5.91016h3.65332c4.78223,0,8.11328-1.71875,8.11328-4.94238s-2.25684-4.94287-6.50098-4.94287c-2.84766,0-5.74902.69873-8.38184,1.98779l-.42969-6.01709c3.00879-1.18213,6.6084-1.88037,10.42285-1.88037,6.125,0,12.41113,2.47119,12.41113,9.61621,0,4.29883-2.20312,7.14648-6.98438,8.97266v.10742c4.5127.59082,7.14551,4.0293,7.14551,8.91895,0,7.52148-5.91016,11.1748-14.45215,11.1748-3.22363,0-6.87695-.42969-9.72461-1.23535l.42969-6.39355Z"/>
    </g>
  </symbol>
  <symbol id="SY54" viewBox="0 0 100 100">
    <circle fill="#e31b13" cx="50" cy="50" r="50"/>
    <circle fill="#fff" cx="50" cy="50" r="46.25"/>
    <circle fill="#e31b13" cx="50" cy="50" r="43.75"/>
    <g>
      <path fill="#fff" d="M32.93213,34.2041c1.61182.87012,3.38525,1.38623,5.09375,1.38623,1.64453,0,3.99805-.83838,3.99805-2.90186,0-1.70898-1.51514-2.4502-3.73975-3.3208-2.99854-1.16064-6.12598-2.41797-6.12598-6.64209,0-4.83594,3.64307-6.86719,7.89893-6.86719,1.90234,0,3.70801.25781,5.35254.80615l-.41943,3.70752c-1.51514-.64453-3.06299-.96729-4.57812-.96729-1.67676,0-3.54688.77393-3.54688,3.12744,0,1.70898,1.93457,2.354,3.80469,3.09521,3.03076,1.12842,6.06152,2.51514,6.06152,6.70654,0,4.35254-3.09521,6.80273-8.47949,6.80273-2.32178,0-3.5791-.32227-5.73926-.87012l.41943-4.0625Z"/>
      <path fill="#fff" d="M56.78711,38.75v-8.89893l-8.22168-13.60596h5.28809l5.32031,9.44678,5.41602-9.44678h4.77246l-8.06055,13.60596v8.89893h-4.51465Z"/>
    </g>
    <g>
      <path fill="#fff" d="M24.1582,75.35449c3.11621,1.34277,5.42676,1.87988,7.57568,1.87988,4.78174,0,8.1123-2.36328,8.1123-6.6084,0-4.13672-3.27686-6.50098-8.59619-6.50098-2.31006,0-4.5127.32324-6.71533,1.02148l.37598-20.14746h21.54395v5.5874h-14.45215l-.16113,8.00537c1.28955-.21484,2.09521-.37598,3.43848-.37598,6.71582,0,12.08838,3.70703,12.08838,12.1416,0,7.68262-5.5874,12.78711-14.61377,12.78711-2.41748,0-5.90967-.37598-8.75732-1.07422l.16113-6.71582Z"/>
      <path fill="#fff" d="M67.03125,82.5v-7.79102h-16.17188v-6.07031l14.02246-23.63965h9.34863v24.12305h4.78125v5.58691h-4.78125v7.79102h-7.19922ZM67.03125,52.84277h-.10742l-9.29492,16.2793h9.40234v-16.2793Z"/>
    </g>
  </symbol>
  <symbol id="SY55" viewBox="0 0 100 100">
    <circle fill="#e31b13" cx="50" cy="50" r="50"/>
    <circle fill="#fff" cx="50" cy="50" r="46.25"/>
    <circle fill="#e31b13" cx="50" cy="50" r="43.75"/>
    <g>
      <path fill="#fff" d="M32.93213,34.2041c1.61182.87012,3.38525,1.38623,5.09375,1.38623,1.64453,0,3.99805-.83838,3.99805-2.90186,0-1.70898-1.51514-2.4502-3.73975-3.3208-2.99854-1.16064-6.12598-2.41797-6.12598-6.64209,0-4.83594,3.64307-6.86719,7.89893-6.86719,1.90234,0,3.70801.25781,5.35254.80615l-.41943,3.70752c-1.51514-.64453-3.06299-.96729-4.57812-.96729-1.67676,0-3.54688.77393-3.54688,3.12744,0,1.70898,1.93457,2.354,3.80469,3.09521,3.03076,1.12842,6.06152,2.51514,6.06152,6.70654,0,4.35254-3.09521,6.80273-8.47949,6.80273-2.32178,0-3.5791-.32227-5.73926-.87012l.41943-4.0625Z"/>
      <path fill="#fff" d="M56.78711,38.75v-8.89893l-8.22168-13.60596h5.28809l5.32031,9.44678,5.41602-9.44678h4.77246l-8.06055,13.60596v8.89893h-4.51465Z"/>
    </g>
    <g>
      <path fill="#fff" d="M24.1582,75.35449c3.11621,1.34277,5.42676,1.87988,7.57568,1.87988,4.78174,0,8.1123-2.36328,8.1123-6.6084,0-4.13672-3.27686-6.50098-8.59619-6.50098-2.31006,0-4.5127.32324-6.71533,1.02148l.37598-20.14746h21.54395v5.5874h-14.45215l-.16113,8.00537c1.28955-.21484,2.09521-.37598,3.43848-.37598,6.71582,0,12.08838,3.70703,12.08838,12.1416,0,7.68262-5.5874,12.78711-14.61377,12.78711-2.41748,0-5.90967-.37598-8.75732-1.07422l.16113-6.71582Z"/>
      <path fill="#fff" d="M54.0293,75.35449c3.11621,1.34277,5.42676,1.87988,7.57617,1.87988,4.78125,0,8.1123-2.36328,8.1123-6.6084,0-4.13672-3.27734-6.50098-8.59668-6.50098-2.30957,0-4.5127.32324-6.71484,1.02148l.37598-20.14746h21.54395v5.5874h-14.45215l-.16113,8.00537c1.28906-.21484,2.09473-.37598,3.4375-.37598,6.71582,0,12.08887,3.70703,12.08887,12.1416,0,7.68262-5.58789,12.78711-14.61328,12.78711-2.41797,0-5.91016-.37598-8.75781-1.07422l.16113-6.71582Z"/>
    </g>
  </symbol>
  <symbol id="SY56" viewBox="0 0 100 100">
    <circle fill="#e31b13" cx="50" cy="50" r="50"/>
    <circle fill="#fff" cx="50" cy="50" r="46.25"/>
    <circle fill="#e31b13" cx="50" cy="50" r="43.75"/>
    <g>
      <path fill="#fff" d="M32.93213,34.2041c1.61182.87012,3.38525,1.38623,5.09375,1.38623,1.64453,0,3.99805-.83838,3.99805-2.90186,0-1.70898-1.51514-2.4502-3.73975-3.3208-2.99854-1.16064-6.12598-2.41797-6.12598-6.64209,0-4.83594,3.64307-6.86719,7.89893-6.86719,1.90234,0,3.70801.25781,5.35254.80615l-.41943,3.70752c-1.51514-.64453-3.06299-.96729-4.57812-.96729-1.67676,0-3.54688.77393-3.54688,3.12744,0,1.70898,1.93457,2.354,3.80469,3.09521,3.03076,1.12842,6.06152,2.51514,6.06152,6.70654,0,4.35254-3.09521,6.80273-8.47949,6.80273-2.32178,0-3.5791-.32227-5.73926-.87012l.41943-4.0625Z"/>
      <path fill="#fff" d="M56.78711,38.75v-8.89893l-8.22168-13.60596h5.28809l5.32031,9.44678,5.41602-9.44678h4.77246l-8.06055,13.60596v8.89893h-4.51465Z"/>
    </g>
    <g>
      <path fill="#fff" d="M24.1582,75.35449c3.11621,1.34277,5.42676,1.87988,7.57568,1.87988,4.78174,0,8.1123-2.36328,8.1123-6.6084,0-4.13672-3.27686-6.50098-8.59619-6.50098-2.31006,0-4.5127.32324-6.71533,1.02148l.37598-20.14746h21.54395v5.5874h-14.45215l-.16113,8.00537c1.28955-.21484,2.09521-.37598,3.43848-.37598,6.71582,0,12.08838,3.70703,12.08838,12.1416,0,7.68262-5.5874,12.78711-14.61377,12.78711-2.41748,0-5.90967-.37598-8.75732-1.07422l.16113-6.71582Z"/>
      <path fill="#fff" d="M74.71387,51.76855c-1.87988-.80566-3.92188-1.50439-6.55469-1.50439-5.96289,0-8.64941,5.104-8.91797,11.60498l.10742.10742c1.77246-2.5791,4.08301-3.76074,7.30664-3.76074,6.87695,0,10.90625,4.35156,10.90625,11.44336,0,8.59668-4.40527,13.48535-12.46484,13.48535-8.38086,0-12.73242-5.53418-12.73242-17.46094,0-11.49707,4.08301-21.3291,15.41895-21.3291,2.74023,0,5.31934.42969,7.89746,1.34326l-.9668,6.0708ZM70.04004,70.84082c0-3.43848-1.34375-7.03809-5.1582-7.03809-3.11523,0-4.99609,2.63281-4.99609,7.0918,0,3.49219,1.45117,6.66211,5.21094,6.66211,3.59961,0,4.94336-3.5459,4.94336-6.71582Z"/>
    </g>
  </symbol>
</svg>