<?xml version="1.0" encoding="UTF-8"?>
<svg xmlns="http://www.w3.org/2000/svg" xmlns:xlink="http://www.w3.org/1999/xlink">
  <!-- DIC-120 -->
  <symbol id="T01" viewBox="0 0 100 100">
    <circle fill="#ff7e1c" cx="50" cy="50" r="50"/>
    <circle fill="#fff" cx="50" cy="50" r="42.5"/>
    <path d="M61.74707,16.21094v5.09766h-8.6123v23.69141h-6.05469v-23.69141h-8.65234v-5.09766h23.31934Z"/>
    <g>
      <path fill="#000" d="M38.76953,80.70312c-3.60693,0-6.13623-1.2627-7.58789-3.78906-1.45215-2.52637-2.17773-6.12598-2.17773-10.80078s.72559-8.28125,2.17773-10.82031c1.45166-2.53906,3.98096-3.80859,7.58789-3.80859,3.60645,0,6.13916,1.26953,7.59766,3.80859,1.44531,2.53906,2.16797,6.14551,2.16797,10.82031s-.72607,8.27441-2.17773,10.80078c-1.45215,2.52637-3.98145,3.78906-7.58789,3.78906ZM42.03125,73.57422c.50781-1.71875.76172-4.20605.76172-7.46094,0-3.41113-.25732-5.9375-.77148-7.57812-.51465-1.64062-1.59863-2.46094-3.25195-2.46094-1.65381,0-2.74756.82031-3.28125,2.46094-.53418,1.64062-.80078,4.16699-.80078,7.57812,0,3.25488.2666,5.74512.80078,7.4707.53369,1.72559,1.62744,2.58789,3.28125,2.58789,1.65332,0,2.74072-.86621,3.26172-2.59766Z"/>
      <path fill="#000" d="M65.13574,80h-5.70312v-19.53125h-6.65918v-3.78906c1.75684-.07812,2.9873-.19531,3.69043-.35156,1.12109-.24707,2.03125-.74219,2.73438-1.48438.48242-.50781.84766-1.18457,1.09375-2.03125.14453-.50781.21484-.88574.21484-1.13281h4.62891v28.32031Z"/>
    </g>
  </symbol>
  <symbol id="T02" viewBox="0 0 100 100">
    <circle fill="#ff7e1c" cx="50" cy="50" r="50"/>
    <circle fill="#fff" cx="50" cy="50" r="42.5"/>
    <path d="M61.74707,16.21094v5.09766h-8.6123v23.69141h-6.05469v-23.69141h-8.65234v-5.09766h23.31934Z"/>
    <g>
      <path fill="#000" d="M38.76953,80.70312c-3.60693,0-6.13623-1.2627-7.58789-3.78906-1.45215-2.52637-2.17773-6.12598-2.17773-10.80078s.72559-8.28125,2.17773-10.82031c1.45166-2.53906,3.98096-3.80859,7.58789-3.80859,3.60645,0,6.13916,1.26953,7.59766,3.80859,1.44531,2.53906,2.16797,6.14551,2.16797,10.82031s-.72607,8.27441-2.17773,10.80078c-1.45215,2.52637-3.98145,3.78906-7.58789,3.78906ZM42.03125,73.57422c.50781-1.71875.76172-4.20605.76172-7.46094,0-3.41113-.25732-5.9375-.77148-7.57812-.51465-1.64062-1.59863-2.46094-3.25195-2.46094-1.65381,0-2.74756.82031-3.28125,2.46094-.53418,1.64062-.80078,4.16699-.80078,7.57812,0,3.25488.2666,5.74512.80078,7.4707.53369,1.72559,1.62744,2.58789,3.28125,2.58789,1.65332,0,2.74072-.86621,3.26172-2.59766Z"/>
      <path fill="#000" d="M63.90527,57.44141c-.66406-.79395-1.61328-1.19141-2.85156-1.19141-1.69141,0-2.84375.63184-3.45703,1.89453-.35156.72949-.55859,1.8877-.625,3.47656h-5.40918c.09082-2.40918.52734-4.35547,1.30859-5.83984,1.4834-2.8252,4.12012-4.23828,7.90918-4.23828,2.99609,0,5.37891.83008,7.14844,2.49023,1.77148,1.66016,2.65625,3.85742,2.65625,6.5918,0,2.09668-.625,3.95801-1.875,5.58594-.82031,1.08105-2.16797,2.28516-4.04297,3.61328l-2.22656,1.58203c-1.39258.98926-2.3457,1.70605-2.86133,2.14844-.51367.44238-.94727.95703-1.29883,1.54297h12.36328v4.90234h-19.39355c.05176-2.03125.48828-3.88672,1.30859-5.56641.79395-1.8877,2.66895-3.88672,5.62402-5.99609,2.56641-1.83594,4.22656-3.15137,4.98047-3.94531,1.16016-1.2373,1.73828-2.59082,1.73828-4.0625,0-1.19824-.33203-2.19434-.99609-2.98828Z"/>
    </g>
  </symbol>
  <symbol id="T03" viewBox="0 0 100 100">
    <circle fill="#ff7e1c" cx="50" cy="50" r="50"/>
    <circle fill="#fff" cx="50" cy="50" r="42.5"/>
    <path d="M61.74707,16.21094v5.09766h-8.6123v23.69141h-6.05469v-23.69141h-8.65234v-5.09766h23.31934Z"/>
    <g>
      <path fill="#000" d="M38.76953,80.70312c-3.60693,0-6.13623-1.2627-7.58789-3.78906-1.45215-2.52637-2.17773-6.12598-2.17773-10.80078s.72559-8.28125,2.17773-10.82031c1.45166-2.53906,3.98096-3.80859,7.58789-3.80859,3.60645,0,6.13916,1.26953,7.59766,3.80859,1.44531,2.53906,2.16797,6.14551,2.16797,10.82031s-.72607,8.27441-2.17773,10.80078c-1.45215,2.52637-3.98145,3.78906-7.58789,3.78906ZM42.03125,73.57422c.50781-1.71875.76172-4.20605.76172-7.46094,0-3.41113-.25732-5.9375-.77148-7.57812-.51465-1.64062-1.59863-2.46094-3.25195-2.46094-1.65381,0-2.74756.82031-3.28125,2.46094-.53418,1.64062-.80078,4.16699-.80078,7.57812,0,3.25488.2666,5.74512.80078,7.4707.53369,1.72559,1.62744,2.58789,3.28125,2.58789,1.65332,0,2.74072-.86621,3.26172-2.59766Z"/>
      <path fill="#000" d="M57.65527,57.32422c-.625.83301-.92383,1.94629-.89844,3.33984h-5.19434c.05176-1.40625.29297-2.74121.72266-4.00391.45508-1.10645,1.17188-2.12891,2.14746-3.06641.73047-.66406,1.5957-1.17188,2.59766-1.52344,1.00391-.35156,2.23438-.52734,3.69141-.52734,2.70898,0,4.89258.7002,6.55273,2.09961s2.49023,3.27832,2.49023,5.63477c0,1.66699-.49414,3.07324-1.48438,4.21875-.625.71582-1.27539,1.2041-1.95312,1.46484.50781,0,1.23828.43652,2.1875,1.30859,1.41992,1.31543,2.12891,3.1123,2.12891,5.39062,0,2.39551-.83008,4.50195-2.49023,6.31836s-4.11719,2.72461-7.37305,2.72461c-4.00977,0-6.7959-1.30859-8.3584-3.92578-.82031-1.39355-1.27637-3.21582-1.36719-5.46875h5.46777c0,1.13281.18359,2.07031.54688,2.8125.67773,1.36719,1.9082,2.05078,3.69141,2.05078,1.09375,0,2.04883-.37402,2.86133-1.12305.81445-.74902,1.2207-1.82617,1.2207-3.23242,0-1.8623-.75391-3.10547-2.26562-3.73047-.85938-.35156-2.21289-.52734-4.0625-.52734v-3.98438c1.81055-.02637,3.07422-.20215,3.78906-.52734,1.23828-.54688,1.85547-1.65332,1.85547-3.32031,0-1.08105-.31445-1.95996-.94727-2.63672-.63086-.67676-1.51953-1.01562-2.66602-1.01562-1.31445,0-2.27734.41699-2.89062,1.25Z"/>
    </g>
  </symbol>
  <symbol id="T04" viewBox="0 0 100 100">
    <circle fill="#ff7e1c" cx="50" cy="50" r="50"/>
    <circle fill="#fff" cx="50" cy="50" r="42.5"/>
    <path d="M61.74707,16.21094v5.09766h-8.6123v23.69141h-6.05469v-23.69141h-8.65234v-5.09766h23.31934Z"/>
    <g>
      <path fill="#000" d="M38.76953,80.70312c-3.60693,0-6.13623-1.2627-7.58789-3.78906-1.45215-2.52637-2.17773-6.12598-2.17773-10.80078s.72559-8.28125,2.17773-10.82031c1.45166-2.53906,3.98096-3.80859,7.58789-3.80859,3.60645,0,6.13916,1.26953,7.59766,3.80859,1.44531,2.53906,2.16797,6.14551,2.16797,10.82031s-.72607,8.27441-2.17773,10.80078c-1.45215,2.52637-3.98145,3.78906-7.58789,3.78906ZM42.03125,73.57422c.50781-1.71875.76172-4.20605.76172-7.46094,0-3.41113-.25732-5.9375-.77148-7.57812-.51465-1.64062-1.59863-2.46094-3.25195-2.46094-1.65381,0-2.74756.82031-3.28125,2.46094-.53418,1.64062-.80078,4.16699-.80078,7.57812,0,3.25488.2666,5.74512.80078,7.4707.53369,1.72559,1.62744,2.58789,3.28125,2.58789,1.65332,0,2.74072-.86621,3.26172-2.59766Z"/>
      <path fill="#000" d="M70.91699,69.55078v4.35547h-3.20312v6.09375h-5.44922v-6.09375h-11.20996v-4.86328l10.40918-17.1875h6.25v17.69531h3.20312ZM55.1748,69.55078h7.08984v-12.22656l-7.08984,12.22656Z"/>
    </g>
  </symbol>
  <symbol id="T05" viewBox="0 0 100 100">
    <circle fill="#ff7e1c" cx="50" cy="50" r="50"/>
    <circle fill="#fff" cx="50" cy="50" r="42.5"/>
    <path d="M61.74707,16.21094v5.09766h-8.6123v23.69141h-6.05469v-23.69141h-8.65234v-5.09766h23.31934Z"/>
    <g>
      <path fill="#000" d="M38.76953,80.70312c-3.60693,0-6.13623-1.2627-7.58789-3.78906-1.45215-2.52637-2.17773-6.12598-2.17773-10.80078s.72559-8.28125,2.17773-10.82031c1.45166-2.53906,3.98096-3.80859,7.58789-3.80859,3.60645,0,6.13916,1.26953,7.59766,3.80859,1.44531,2.53906,2.16797,6.14551,2.16797,10.82031s-.72607,8.27441-2.17773,10.80078c-1.45215,2.52637-3.98145,3.78906-7.58789,3.78906ZM42.03125,73.57422c.50781-1.71875.76172-4.20605.76172-7.46094,0-3.41113-.25732-5.9375-.77148-7.57812-.51465-1.64062-1.59863-2.46094-3.25195-2.46094-1.65381,0-2.74756.82031-3.28125,2.46094-.53418,1.64062-.80078,4.16699-.80078,7.57812,0,3.25488.2666,5.74512.80078,7.4707.53369,1.72559,1.62744,2.58789,3.28125,2.58789,1.65332,0,2.74072-.86621,3.26172-2.59766Z"/>
      <path fill="#000" d="M60.66309,65.9375c-.67578,0-1.26172.08496-1.75781.25391-.87109.3125-1.5293.8916-1.97266,1.73828l-4.99902-.23438,1.99219-15.64453h15.60449v4.72656h-11.58203l-1.01562,6.19141c.85938-.55957,1.53125-.93066,2.01172-1.11328.80859-.2998,1.79102-.44922,2.94922-.44922,2.34375,0,4.38867.78809,6.13281,2.36328,1.74609,1.5752,2.61719,3.86719,2.61719,6.875,0,2.61719-.83984,4.9541-2.51953,7.01172s-4.19141,3.08594-7.53906,3.08594c-2.69531,0-4.9082-.72266-6.63965-2.16797-1.73242-1.44531-2.69531-3.49609-2.89062-6.15234h5.5459c.22266,1.21094.64453,2.14551,1.26953,2.80273s1.53711.98633,2.73438.98633c1.38086,0,2.43164-.48535,3.1543-1.45508s1.08398-2.19043,1.08398-3.66211c0-1.44531-.33789-2.66602-1.01562-3.66211-.67578-.99609-1.73047-1.49414-3.16406-1.49414Z"/>
    </g>
  </symbol>
  <symbol id="T06" viewBox="0 0 100 100">
    <circle fill="#ff7e1c" cx="50" cy="50" r="50"/>
    <circle fill="#fff" cx="50" cy="50" r="42.5"/>
    <path d="M61.74707,16.21094v5.09766h-8.6123v23.69141h-6.05469v-23.69141h-8.65234v-5.09766h23.31934Z"/>
    <g>
      <path fill="#000" d="M38.76953,80.70312c-3.60693,0-6.13623-1.2627-7.58789-3.78906-1.45215-2.52637-2.17773-6.12598-2.17773-10.80078s.72559-8.28125,2.17773-10.82031c1.45166-2.53906,3.98096-3.80859,7.58789-3.80859,3.60645,0,6.13916,1.26953,7.59766,3.80859,1.44531,2.53906,2.16797,6.14551,2.16797,10.82031s-.72607,8.27441-2.17773,10.80078c-1.45215,2.52637-3.98145,3.78906-7.58789,3.78906ZM42.03125,73.57422c.50781-1.71875.76172-4.20605.76172-7.46094,0-3.41113-.25732-5.9375-.77148-7.57812-.51465-1.64062-1.59863-2.46094-3.25195-2.46094-1.65381,0-2.74756.82031-3.28125,2.46094-.53418,1.64062-.80078,4.16699-.80078,7.57812,0,3.25488.2666,5.74512.80078,7.4707.53369,1.72559,1.62744,2.58789,3.28125,2.58789,1.65332,0,2.74072-.86621,3.26172-2.59766Z"/>
      <path fill="#000" d="M62.22559,61.62109c2.51367,0,4.57422.85254,6.18164,2.55859,1.60938,1.70605,2.41211,3.88672,2.41211,6.54297,0,2.64355-.78711,4.97363-2.36328,6.99219-1.57422,2.01855-4.02344,3.02734-7.34375,3.02734-3.56641,0-6.19727-1.49121-7.88965-4.47266-1.31543-2.33105-1.97266-5.33887-1.97266-9.02344,0-2.16113.09082-3.91895.27344-5.27344.3252-2.40918.95703-4.41406,1.89453-6.01562.80664-1.36719,1.86426-2.46777,3.17285-3.30078s2.875-1.25,4.69727-1.25c2.63086,0,4.72656.67383,6.28906,2.02148s2.44141,3.1416,2.63672,5.38086h-5.54688c0-.45605-.17578-.95703-.52734-1.50391-.59766-.88574-1.50391-1.32812-2.71484-1.32812-1.80859,0-3.09766,1.01562-3.86719,3.04688-.41602,1.12012-.70312,2.77344-.85938,4.96094.69141-.82031,1.49219-1.41895,2.40234-1.79688.91211-.37793,1.95312-.56641,3.125-.56641ZM58.47559,66.93359c-1.09375.84668-1.64062,2.21387-1.64062,4.10156,0,1.52344.41016,2.7666,1.23047,3.73047s1.86328,1.44531,3.125,1.44531c1.23828,0,2.21094-.46582,2.91992-1.39648.71094-.93066,1.06445-2.13867,1.06445-3.62305,0-1.65332-.40234-2.91992-1.21094-3.79883-.80664-.87891-1.79688-1.31836-2.96875-1.31836-.94922,0-1.78906.28613-2.51953.85938Z"/>
    </g>
  </symbol>
  <symbol id="T07" viewBox="0 0 100 100">
    <circle fill="#ff7e1c" cx="50" cy="50" r="50"/>
    <circle fill="#fff" cx="50" cy="50" r="42.5"/>
    <path d="M61.74707,16.21094v5.09766h-8.6123v23.69141h-6.05469v-23.69141h-8.65234v-5.09766h23.31934Z"/>
    <g>
      <path fill="#000" d="M38.76953,80.70312c-3.60693,0-6.13623-1.2627-7.58789-3.78906-1.45215-2.52637-2.17773-6.12598-2.17773-10.80078s.72559-8.28125,2.17773-10.82031c1.45166-2.53906,3.98096-3.80859,7.58789-3.80859,3.60645,0,6.13916,1.26953,7.59766,3.80859,1.44531,2.53906,2.16797,6.14551,2.16797,10.82031s-.72607,8.27441-2.17773,10.80078c-1.45215,2.52637-3.98145,3.78906-7.58789,3.78906ZM42.03125,73.57422c.50781-1.71875.76172-4.20605.76172-7.46094,0-3.41113-.25732-5.9375-.77148-7.57812-.51465-1.64062-1.59863-2.46094-3.25195-2.46094-1.65381,0-2.74756.82031-3.28125,2.46094-.53418,1.64062-.80078,4.16699-.80078,7.57812,0,3.25488.2666,5.74512.80078,7.4707.53369,1.72559,1.62744,2.58789,3.28125,2.58789,1.65332,0,2.74072-.86621,3.26172-2.59766Z"/>
      <path fill="#000" d="M67.61621,60.78125c-1.48438,2.10938-2.72656,4.28418-3.73047,6.52344-.79297,1.75781-1.50977,3.90625-2.14844,6.44531-.63672,2.53906-.95703,4.62207-.95703,6.25h-5.78125c.16992-5.07812,1.83594-10.3584,5-15.83984,2.04492-3.39844,3.75781-5.76855,5.13672-7.10938h-14.12012l.07812-5h19.99902v4.35547c-.83203.82031-1.99219,2.27832-3.47656,4.375Z"/>
    </g>
  </symbol>
  <symbol id="T08" viewBox="0 0 100 100">
    <circle fill="#ff7e1c" cx="50" cy="50" r="50"/>
    <circle fill="#fff" cx="50" cy="50" r="42.5"/>
    <path d="M61.74707,16.21094v5.09766h-8.6123v23.69141h-6.05469v-23.69141h-8.65234v-5.09766h23.31934Z"/>
    <g>
      <path fill="#000" d="M38.76953,80.70312c-3.60693,0-6.13623-1.2627-7.58789-3.78906-1.45215-2.52637-2.17773-6.12598-2.17773-10.80078s.72559-8.28125,2.17773-10.82031c1.45166-2.53906,3.98096-3.80859,7.58789-3.80859,3.60645,0,6.13916,1.26953,7.59766,3.80859,1.44531,2.53906,2.16797,6.14551,2.16797,10.82031s-.72607,8.27441-2.17773,10.80078c-1.45215,2.52637-3.98145,3.78906-7.58789,3.78906ZM42.03125,73.57422c.50781-1.71875.76172-4.20605.76172-7.46094,0-3.41113-.25732-5.9375-.77148-7.57812-.51465-1.64062-1.59863-2.46094-3.25195-2.46094-1.65381,0-2.74756.82031-3.28125,2.46094-.53418,1.64062-.80078,4.16699-.80078,7.57812,0,3.25488.2666,5.74512.80078,7.4707.53369,1.72559,1.62744,2.58789,3.28125,2.58789,1.65332,0,2.74072-.86621,3.26172-2.59766Z"/>
      <path fill="#000" d="M53.49609,78.22266c-1.62793-1.66699-2.44141-3.69141-2.44141-6.07422,0-1.58887.36133-3.02734,1.08398-4.31641s1.78027-2.25879,3.17285-2.91016c-1.36621-.91113-2.25488-1.89746-2.66504-2.95898s-.61523-2.05371-.61523-2.97852c0-2.05762.77441-3.81152,2.32324-5.26367,1.55078-1.45215,3.73828-2.17773,6.5625-2.17773,2.82617,0,5.01367.72559,6.5625,2.17773,1.55078,1.45215,2.32422,3.20605,2.32422,5.26367,0,.9248-.20508,1.91699-.61523,2.97852s-1.29883,1.98242-2.66602,2.76367c1.39453.78125,2.44141,1.81641,3.14453,3.10547s1.05469,2.72754,1.05469,4.31641c0,2.38281-.88086,4.41113-2.64648,6.08398-1.76367,1.67285-4.22852,2.50977-7.39258,2.50977s-5.55859-.83984-7.18652-2.51953ZM56.83496,71.77734c0,1.39355.36133,2.47363,1.08398,3.24219s1.72266,1.15234,2.99805,1.15234c1.27734,0,2.27539-.38379,2.99805-1.15234s1.08398-1.84863,1.08398-3.24219c0-1.44531-.36719-2.54199-1.10352-3.29102-.73438-.74902-1.72852-1.12305-2.97852-1.12305s-2.24219.37402-2.97852,1.12305c-.73438.74902-1.10352,1.8457-1.10352,3.29102ZM58.2998,62.12891c.625.65137,1.49805.97656,2.61719.97656,1.13281,0,2.00977-.3252,2.62695-.97656.61914-.65137.92773-1.49121.92773-2.51953,0-1.12012-.30859-1.99512-.92773-2.62695-.61719-.63184-1.49414-.94727-2.62695-.94727-1.11914,0-1.99414.31543-2.62695.94727-.63086.63184-.94727,1.50684-.94727,2.62695,0,1.02832.32031,1.86816.95703,2.51953Z"/>
    </g>
  </symbol>
  <symbol id="T09" viewBox="0 0 100 100">
    <circle fill="#ff7e1c" cx="50" cy="50" r="50"/>
    <circle fill="#fff" cx="50" cy="50" r="42.5"/>
    <path d="M61.74707,16.21094v5.09766h-8.6123v23.69141h-6.05469v-23.69141h-8.65234v-5.09766h23.31934Z"/>
    <g>
      <path fill="#000" d="M38.76953,80.70312c-3.60693,0-6.13623-1.2627-7.58789-3.78906-1.45215-2.52637-2.17773-6.12598-2.17773-10.80078s.72559-8.28125,2.17773-10.82031c1.45166-2.53906,3.98096-3.80859,7.58789-3.80859,3.60645,0,6.13916,1.26953,7.59766,3.80859,1.44531,2.53906,2.16797,6.14551,2.16797,10.82031s-.72607,8.27441-2.17773,10.80078c-1.45215,2.52637-3.98145,3.78906-7.58789,3.78906ZM42.03125,73.57422c.50781-1.71875.76172-4.20605.76172-7.46094,0-3.41113-.25732-5.9375-.77148-7.57812-.51465-1.64062-1.59863-2.46094-3.25195-2.46094-1.65381,0-2.74756.82031-3.28125,2.46094-.53418,1.64062-.80078,4.16699-.80078,7.57812,0,3.25488.2666,5.74512.80078,7.4707.53369,1.72559,1.62744,2.58789,3.28125,2.58789,1.65332,0,2.74072-.86621,3.26172-2.59766Z"/>
      <path fill="#000" d="M60.38965,80.82031c-2.12109,0-4.0293-.62793-5.72266-1.88477-1.69238-1.25684-2.66211-3.08887-2.90918-5.49805h5.5459c.13086.83301.48242,1.51074,1.05469,2.03125.57422.52051,1.33594.78125,2.28516.78125,1.83594,0,3.125-1.01562,3.86719-3.04688.4043-1.12012.6582-2.75391.76172-4.90234-.50781.6377-1.04688,1.12598-1.62109,1.46484-1.04102.625-2.32422.9375-3.84766.9375-2.25195,0-4.25-.77832-5.99512-2.33398s-2.61719-3.79883-2.61719-6.72852c0-3.03418.875-5.49121,2.62695-7.37305,1.75098-1.88184,4.02637-2.82227,6.8252-2.82227,4.31055,0,7.26562,1.90723,8.86719,5.72266.91211,2.16113,1.36719,5.00684,1.36719,8.53516,0,3.4248-.43555,6.28223-1.30859,8.57422-1.66602,4.3623-4.72656,6.54297-9.17969,6.54297ZM58.43652,56.89453c-1.06641.83301-1.60156,2.24609-1.60156,4.23828,0,1.67969.3418,2.93945,1.02539,3.7793s1.73633,1.25977,3.1543,1.25977c.76953,0,1.49219-.22168,2.16797-.66406,1.26367-.80762,1.89453-2.20703,1.89453-4.19922,0-1.60156-.37305-2.87109-1.12305-3.80859-.74805-.9375-1.77344-1.40625-3.07617-1.40625-.94922,0-1.76367.2666-2.44141.80078Z"/>
    </g>
  </symbol>
  <symbol id="T10" viewBox="0 0 100 100">
    <circle fill="#ff7e1c" cx="50" cy="50" r="50"/>
    <circle fill="#fff" cx="50" cy="50" r="42.5"/>
    <path d="M61.74707,16.21094v5.09766h-8.6123v23.69141h-6.05469v-23.69141h-8.65234v-5.09766h23.31934Z"/>
    <g>
      <path fill="#000" d="M42.89062,80h-5.70312v-19.53125h-6.66016v-3.78906c1.75781-.07812,2.98828-.19531,3.69141-.35156,1.11963-.24707,2.03125-.74219,2.73438-1.48438.48145-.50781.84619-1.18457,1.09375-2.03125.14307-.50781.21484-.88574.21484-1.13281h4.62891v28.32031Z"/>
      <path fill="#000" d="M61.01465,80.70312c-3.60547,0-6.13574-1.2627-7.58691-3.78906-1.45215-2.52637-2.17773-6.12598-2.17773-10.80078s.72559-8.28125,2.17773-10.82031c1.45117-2.53906,3.98145-3.80859,7.58691-3.80859,3.60742,0,6.14062,1.26953,7.59766,3.80859,1.44531,2.53906,2.16797,6.14551,2.16797,10.82031s-.72461,8.27441-2.17773,10.80078c-1.45117,2.52637-3.98047,3.78906-7.58789,3.78906ZM64.27637,73.57422c.50781-1.71875.76172-4.20605.76172-7.46094,0-3.41113-.25586-5.9375-.77148-7.57812-.51367-1.64062-1.59766-2.46094-3.25195-2.46094-1.65234,0-2.74609.82031-3.28125,2.46094-.5332,1.64062-.80078,4.16699-.80078,7.57812,0,3.25488.26758,5.74512.80078,7.4707.53516,1.72559,1.62891,2.58789,3.28125,2.58789,1.6543,0,2.74219-.86621,3.26172-2.59766Z"/>
    </g>
  </symbol>
  <symbol id="T11" viewBox="0 0 100 100">
    <circle fill="#ff7e1c" cx="50" cy="50" r="50"/>
    <circle fill="#fff" cx="50" cy="50" r="42.5"/>
    <path d="M61.74707,16.21094v5.09766h-8.6123v23.69141h-6.05469v-23.69141h-8.65234v-5.09766h23.31934Z"/>
    <g>
      <path fill="#000" d="M42.89062,80h-5.70312v-19.53125h-6.66016v-3.78906c1.75781-.07812,2.98828-.19531,3.69141-.35156,1.11963-.24707,2.03125-.74219,2.73438-1.48438.48145-.50781.84619-1.18457,1.09375-2.03125.14307-.50781.21484-.88574.21484-1.13281h4.62891v28.32031Z"/>
      <path fill="#000" d="M65.13574,80h-5.70312v-19.53125h-6.65918v-3.78906c1.75684-.07812,2.9873-.19531,3.69043-.35156,1.12109-.24707,2.03125-.74219,2.73438-1.48438.48242-.50781.84766-1.18457,1.09375-2.03125.14453-.50781.21484-.88574.21484-1.13281h4.62891v28.32031Z"/>
    </g>
  </symbol>
  <symbol id="T12" viewBox="0 0 100 100">
    <circle fill="#ff7e1c" cx="50" cy="50" r="50"/>
    <circle fill="#fff" cx="50" cy="50" r="42.5"/>
    <path d="M61.74707,16.21094v5.09766h-8.6123v23.69141h-6.05469v-23.69141h-8.65234v-5.09766h23.31934Z"/>
    <g>
      <path fill="#000" d="M42.89062,80h-5.70312v-19.53125h-6.66016v-3.78906c1.75781-.07812,2.98828-.19531,3.69141-.35156,1.11963-.24707,2.03125-.74219,2.73438-1.48438.48145-.50781.84619-1.18457,1.09375-2.03125.14307-.50781.21484-.88574.21484-1.13281h4.62891v28.32031Z"/>
      <path fill="#000" d="M63.90527,57.44141c-.66406-.79395-1.61328-1.19141-2.85156-1.19141-1.69141,0-2.84375.63184-3.45703,1.89453-.35156.72949-.55859,1.8877-.625,3.47656h-5.40918c.09082-2.40918.52734-4.35547,1.30859-5.83984,1.4834-2.8252,4.12012-4.23828,7.90918-4.23828,2.99609,0,5.37891.83008,7.14844,2.49023,1.77148,1.66016,2.65625,3.85742,2.65625,6.5918,0,2.09668-.625,3.95801-1.875,5.58594-.82031,1.08105-2.16797,2.28516-4.04297,3.61328l-2.22656,1.58203c-1.39258.98926-2.3457,1.70605-2.86133,2.14844-.51367.44238-.94727.95703-1.29883,1.54297h12.36328v4.90234h-19.39355c.05176-2.03125.48828-3.88672,1.30859-5.56641.79395-1.8877,2.66895-3.88672,5.62402-5.99609,2.56641-1.83594,4.22656-3.15137,4.98047-3.94531,1.16016-1.2373,1.73828-2.59082,1.73828-4.0625,0-1.19824-.33203-2.19434-.99609-2.98828Z"/>
    </g>
  </symbol>
  <symbol id="T13" viewBox="0 0 100 100">
    <circle fill="#ff7e1c" cx="50" cy="50" r="50"/>
    <circle fill="#fff" cx="50" cy="50" r="42.5"/>
    <path d="M61.74707,16.21094v5.09766h-8.6123v23.69141h-6.05469v-23.69141h-8.65234v-5.09766h23.31934Z"/>
    <g>
      <path fill="#000" d="M42.89062,80h-5.70312v-19.53125h-6.66016v-3.78906c1.75781-.07812,2.98828-.19531,3.69141-.35156,1.11963-.24707,2.03125-.74219,2.73438-1.48438.48145-.50781.84619-1.18457,1.09375-2.03125.14307-.50781.21484-.88574.21484-1.13281h4.62891v28.32031Z"/>
      <path fill="#000" d="M57.65527,57.32422c-.625.83301-.92383,1.94629-.89844,3.33984h-5.19434c.05176-1.40625.29297-2.74121.72266-4.00391.45508-1.10645,1.17188-2.12891,2.14746-3.06641.73047-.66406,1.5957-1.17188,2.59766-1.52344,1.00391-.35156,2.23438-.52734,3.69141-.52734,2.70898,0,4.89258.7002,6.55273,2.09961s2.49023,3.27832,2.49023,5.63477c0,1.66699-.49414,3.07324-1.48438,4.21875-.625.71582-1.27539,1.2041-1.95312,1.46484.50781,0,1.23828.43652,2.1875,1.30859,1.41992,1.31543,2.12891,3.1123,2.12891,5.39062,0,2.39551-.83008,4.50195-2.49023,6.31836s-4.11719,2.72461-7.37305,2.72461c-4.00977,0-6.7959-1.30859-8.3584-3.92578-.82031-1.39355-1.27637-3.21582-1.36719-5.46875h5.46777c0,1.13281.18359,2.07031.54688,2.8125.67773,1.36719,1.9082,2.05078,3.69141,2.05078,1.09375,0,2.04883-.37402,2.86133-1.12305.81445-.74902,1.2207-1.82617,1.2207-3.23242,0-1.8623-.75391-3.10547-2.26562-3.73047-.85938-.35156-2.21289-.52734-4.0625-.52734v-3.98438c1.81055-.02637,3.07422-.20215,3.78906-.52734,1.23828-.54688,1.85547-1.65332,1.85547-3.32031,0-1.08105-.31445-1.95996-.94727-2.63672-.63086-.67676-1.51953-1.01562-2.66602-1.01562-1.31445,0-2.27734.41699-2.89062,1.25Z"/>
    </g>
  </symbol>
  <symbol id="T14" viewBox="0 0 100 100">
    <circle fill="#ff7e1c" cx="50" cy="50" r="50"/>
    <circle fill="#fff" cx="50" cy="50" r="42.5"/>
    <path d="M61.74707,16.21094v5.09766h-8.6123v23.69141h-6.05469v-23.69141h-8.65234v-5.09766h23.31934Z"/>
    <g>
      <path fill="#000" d="M42.89062,80h-5.70312v-19.53125h-6.66016v-3.78906c1.75781-.07812,2.98828-.19531,3.69141-.35156,1.11963-.24707,2.03125-.74219,2.73438-1.48438.48145-.50781.84619-1.18457,1.09375-2.03125.14307-.50781.21484-.88574.21484-1.13281h4.62891v28.32031Z"/>
      <path fill="#000" d="M70.91699,69.55078v4.35547h-3.20312v6.09375h-5.44922v-6.09375h-11.20996v-4.86328l10.40918-17.1875h6.25v17.69531h3.20312ZM55.1748,69.55078h7.08984v-12.22656l-7.08984,12.22656Z"/>
    </g>
  </symbol>
  <symbol id="T15" viewBox="0 0 100 100">
    <circle fill="#ff7e1c" cx="50" cy="50" r="50"/>
    <circle fill="#fff" cx="50" cy="50" r="42.5"/>
    <path d="M61.74707,16.21094v5.09766h-8.6123v23.69141h-6.05469v-23.69141h-8.65234v-5.09766h23.31934Z"/>
    <g>
      <path fill="#000" d="M42.89062,80h-5.70312v-19.53125h-6.66016v-3.78906c1.75781-.07812,2.98828-.19531,3.69141-.35156,1.11963-.24707,2.03125-.74219,2.73438-1.48438.48145-.50781.84619-1.18457,1.09375-2.03125.14307-.50781.21484-.88574.21484-1.13281h4.62891v28.32031Z"/>
      <path fill="#000" d="M60.66309,65.9375c-.67578,0-1.26172.08496-1.75781.25391-.87109.3125-1.5293.8916-1.97266,1.73828l-4.99902-.23438,1.99219-15.64453h15.60449v4.72656h-11.58203l-1.01562,6.19141c.85938-.55957,1.53125-.93066,2.01172-1.11328.80859-.2998,1.79102-.44922,2.94922-.44922,2.34375,0,4.38867.78809,6.13281,2.36328,1.74609,1.5752,2.61719,3.86719,2.61719,6.875,0,2.61719-.83984,4.9541-2.51953,7.01172s-4.19141,3.08594-7.53906,3.08594c-2.69531,0-4.9082-.72266-6.63965-2.16797-1.73242-1.44531-2.69531-3.49609-2.89062-6.15234h5.5459c.22266,1.21094.64453,2.14551,1.26953,2.80273s1.53711.98633,2.73438.98633c1.38086,0,2.43164-.48535,3.1543-1.45508s1.08398-2.19043,1.08398-3.66211c0-1.44531-.33789-2.66602-1.01562-3.66211-.67578-.99609-1.73047-1.49414-3.16406-1.49414Z"/>
    </g>
  </symbol>
  <symbol id="T16" viewBox="0 0 100 100">
    <circle fill="#ff7e1c" cx="50" cy="50" r="50"/>
    <circle fill="#fff" cx="50" cy="50" r="42.5"/>
    <path d="M61.74707,16.21094v5.09766h-8.6123v23.69141h-6.05469v-23.69141h-8.65234v-5.09766h23.31934Z"/>
    <g>
      <path fill="#000" d="M42.89062,80h-5.70312v-19.53125h-6.66016v-3.78906c1.75781-.07812,2.98828-.19531,3.69141-.35156,1.11963-.24707,2.03125-.74219,2.73438-1.48438.48145-.50781.84619-1.18457,1.09375-2.03125.14307-.50781.21484-.88574.21484-1.13281h4.62891v28.32031Z"/>
      <path fill="#000" d="M62.22559,61.62109c2.51367,0,4.57422.85254,6.18164,2.55859,1.60938,1.70605,2.41211,3.88672,2.41211,6.54297,0,2.64355-.78711,4.97363-2.36328,6.99219-1.57422,2.01855-4.02344,3.02734-7.34375,3.02734-3.56641,0-6.19727-1.49121-7.88965-4.47266-1.31543-2.33105-1.97266-5.33887-1.97266-9.02344,0-2.16113.09082-3.91895.27344-5.27344.3252-2.40918.95703-4.41406,1.89453-6.01562.80664-1.36719,1.86426-2.46777,3.17285-3.30078s2.875-1.25,4.69727-1.25c2.63086,0,4.72656.67383,6.28906,2.02148s2.44141,3.1416,2.63672,5.38086h-5.54688c0-.45605-.17578-.95703-.52734-1.50391-.59766-.88574-1.50391-1.32812-2.71484-1.32812-1.80859,0-3.09766,1.01562-3.86719,3.04688-.41602,1.12012-.70312,2.77344-.85938,4.96094.69141-.82031,1.49219-1.41895,2.40234-1.79688.91211-.37793,1.95312-.56641,3.125-.56641ZM58.47559,66.93359c-1.09375.84668-1.64062,2.21387-1.64062,4.10156,0,1.52344.41016,2.7666,1.23047,3.73047s1.86328,1.44531,3.125,1.44531c1.23828,0,2.21094-.46582,2.91992-1.39648.71094-.93066,1.06445-2.13867,1.06445-3.62305,0-1.65332-.40234-2.91992-1.21094-3.79883-.80664-.87891-1.79688-1.31836-2.96875-1.31836-.94922,0-1.78906.28613-2.51953.85938Z"/>
    </g>
  </symbol>
  <symbol id="T17" viewBox="0 0 100 100">
    <circle fill="#ff7e1c" cx="50" cy="50" r="50"/>
    <circle fill="#fff" cx="50" cy="50" r="42.5"/>
    <path d="M61.74707,16.21094v5.09766h-8.6123v23.69141h-6.05469v-23.69141h-8.65234v-5.09766h23.31934Z"/>
    <g>
      <path fill="#000" d="M42.89062,80h-5.70312v-19.53125h-6.66016v-3.78906c1.75781-.07812,2.98828-.19531,3.69141-.35156,1.11963-.24707,2.03125-.74219,2.73438-1.48438.48145-.50781.84619-1.18457,1.09375-2.03125.14307-.50781.21484-.88574.21484-1.13281h4.62891v28.32031Z"/>
      <path fill="#000" d="M67.61621,60.78125c-1.48438,2.10938-2.72656,4.28418-3.73047,6.52344-.79297,1.75781-1.50977,3.90625-2.14844,6.44531-.63672,2.53906-.95703,4.62207-.95703,6.25h-5.78125c.16992-5.07812,1.83594-10.3584,5-15.83984,2.04492-3.39844,3.75781-5.76855,5.13672-7.10938h-14.12012l.07812-5h19.99902v4.35547c-.83203.82031-1.99219,2.27832-3.47656,4.375Z"/>
    </g>
  </symbol>
  <symbol id="T18" viewBox="0 0 100 100">
    <circle fill="#ff7e1c" cx="50" cy="50" r="50"/>
    <circle fill="#fff" cx="50" cy="50" r="42.5"/>
    <path d="M61.74707,16.21094v5.09766h-8.6123v23.69141h-6.05469v-23.69141h-8.65234v-5.09766h23.31934Z"/>
    <g>
      <path fill="#000" d="M42.89062,80h-5.70312v-19.53125h-6.66016v-3.78906c1.75781-.07812,2.98828-.19531,3.69141-.35156,1.11963-.24707,2.03125-.74219,2.73438-1.48438.48145-.50781.84619-1.18457,1.09375-2.03125.14307-.50781.21484-.88574.21484-1.13281h4.62891v28.32031Z"/>
      <path fill="#000" d="M53.49609,78.22266c-1.62793-1.66699-2.44141-3.69141-2.44141-6.07422,0-1.58887.36133-3.02734,1.08398-4.31641s1.78027-2.25879,3.17285-2.91016c-1.36621-.91113-2.25488-1.89746-2.66504-2.95898s-.61523-2.05371-.61523-2.97852c0-2.05762.77441-3.81152,2.32324-5.26367,1.55078-1.45215,3.73828-2.17773,6.5625-2.17773,2.82617,0,5.01367.72559,6.5625,2.17773,1.55078,1.45215,2.32422,3.20605,2.32422,5.26367,0,.9248-.20508,1.91699-.61523,2.97852s-1.29883,1.98242-2.66602,2.76367c1.39453.78125,2.44141,1.81641,3.14453,3.10547s1.05469,2.72754,1.05469,4.31641c0,2.38281-.88086,4.41113-2.64648,6.08398-1.76367,1.67285-4.22852,2.50977-7.39258,2.50977s-5.55859-.83984-7.18652-2.51953ZM56.83496,71.77734c0,1.39355.36133,2.47363,1.08398,3.24219s1.72266,1.15234,2.99805,1.15234c1.27734,0,2.27539-.38379,2.99805-1.15234s1.08398-1.84863,1.08398-3.24219c0-1.44531-.36719-2.54199-1.10352-3.29102-.73438-.74902-1.72852-1.12305-2.97852-1.12305s-2.24219.37402-2.97852,1.12305c-.73438.74902-1.10352,1.8457-1.10352,3.29102ZM58.2998,62.12891c.625.65137,1.49805.97656,2.61719.97656,1.13281,0,2.00977-.3252,2.62695-.97656.61914-.65137.92773-1.49121.92773-2.51953,0-1.12012-.30859-1.99512-.92773-2.62695-.61719-.63184-1.49414-.94727-2.62695-.94727-1.11914,0-1.99414.31543-2.62695.94727-.63086.63184-.94727,1.50684-.94727,2.62695,0,1.02832.32031,1.86816.95703,2.51953Z"/>
    </g>
  </symbol>
  <symbol id="T19" viewBox="0 0 100 100">
    <circle fill="#ff7e1c" cx="50" cy="50" r="50"/>
    <circle fill="#fff" cx="50" cy="50" r="42.5"/>
    <path d="M61.74707,16.21094v5.09766h-8.6123v23.69141h-6.05469v-23.69141h-8.65234v-5.09766h23.31934Z"/>
    <g>
      <path fill="#000" d="M42.89062,80h-5.70312v-19.53125h-6.66016v-3.78906c1.75781-.07812,2.98828-.19531,3.69141-.35156,1.11963-.24707,2.03125-.74219,2.73438-1.48438.48145-.50781.84619-1.18457,1.09375-2.03125.14307-.50781.21484-.88574.21484-1.13281h4.62891v28.32031Z"/>
      <path fill="#000" d="M60.38965,80.82031c-2.12109,0-4.0293-.62793-5.72266-1.88477-1.69238-1.25684-2.66211-3.08887-2.90918-5.49805h5.5459c.13086.83301.48242,1.51074,1.05469,2.03125.57422.52051,1.33594.78125,2.28516.78125,1.83594,0,3.125-1.01562,3.86719-3.04688.4043-1.12012.6582-2.75391.76172-4.90234-.50781.6377-1.04688,1.12598-1.62109,1.46484-1.04102.625-2.32422.9375-3.84766.9375-2.25195,0-4.25-.77832-5.99512-2.33398s-2.61719-3.79883-2.61719-6.72852c0-3.03418.875-5.49121,2.62695-7.37305,1.75098-1.88184,4.02637-2.82227,6.8252-2.82227,4.31055,0,7.26562,1.90723,8.86719,5.72266.91211,2.16113,1.36719,5.00684,1.36719,8.53516,0,3.4248-.43555,6.28223-1.30859,8.57422-1.66602,4.3623-4.72656,6.54297-9.17969,6.54297ZM58.43652,56.89453c-1.06641.83301-1.60156,2.24609-1.60156,4.23828,0,1.67969.3418,2.93945,1.02539,3.7793s1.73633,1.25977,3.1543,1.25977c.76953,0,1.49219-.22168,2.16797-.66406,1.26367-.80762,1.89453-2.20703,1.89453-4.19922,0-1.60156-.37305-2.87109-1.12305-3.80859-.74805-.9375-1.77344-1.40625-3.07617-1.40625-.94922,0-1.76367.2666-2.44141.80078Z"/>
    </g>
  </symbol>
</svg>