<?xml version="1.0" encoding="UTF-8"?>
<svg xmlns="http://www.w3.org/2000/svg" xmlns:xlink="http://www.w3.org/1999/xlink">
  <!-- DIC-172 -->
  <symbol id="SK" viewBox="0 0 100 100">
    <path fill="#00a945" d="M69.85212,76.56252c2.81369-.46875,5.62737-.93749,8.44106-1.56249,3.43894-6.25,5.23659-13.4375,5.23659-20.9375V12.5c0-6.90356-5.59881-12.5-12.50528-12.5H28.97551c-6.90647,0-12.50528,5.59644-12.50528,12.5v41.5625c0,7.5,1.79763,14.6875,5.23659,20.9375,2.81368.625,5.62738,1.09374,8.44106,1.56249l-18.75792,23.4375h10.58284l12.55192-15.62501h30.95055l12.55192,15.62501h10.58284l-18.75791-23.4375v.00002Z"/>
    <circle fill="#fff" cx="31.08108" cy="63.80309" r="4.82625"/>
    <circle fill="#fff" cx="68.91892" cy="63.80309" r="4.82625"/>
    <path fill="#fff" d="M29.15058,6.66023c-3.30518,0-5.98456,2.67938-5.98456,5.98456v19.78764c0,10.03861,9.45946,25.28958,26.83398,25.28958s26.83398-15.25097,26.83398-25.28958V12.64479c0-3.30518-2.67938-5.98456-5.98456-5.98456H29.15058Z"/>
    <g>
      <path fill="#231815" d="M37.72217,37.90234c1.21924,0,2.20947-.14893,2.9707-.44727,1.44336-.57178,2.16553-1.63477,2.16553-3.18945,0-.90723-.3584-1.60986-1.07422-2.10742-.71631-.48486-1.84131-.91357-3.37402-1.28662l-2.61865-.65283c-2.57373-.64648-4.35303-1.34912-5.3374-2.10742-1.66748-1.26807-2.50098-3.25146-2.50098-5.94922,0-2.46191.80566-4.50684,2.41699-6.13623,1.61133-1.62842,3.97803-2.44287,7.1001-2.44287,2.60693,0,4.83105.76758,6.67188,2.30322s2.80566,3.76416,2.89551,6.68604h-4.96826c-.08984-1.65332-.73877-2.82861-1.94727-3.5249-.80566-.45996-1.80713-.68994-3.00439-.68994-1.33154,0-2.39453.29834-3.18896.89502-.79492.59668-1.19189,1.43018-1.19189,2.49902,0,.98242.3916,1.71582,1.1748,2.20068.50391.32373,1.57812.70264,3.22266,1.1377l4.26367,1.1377c1.86865.49756,3.27832,1.1626,4.22998,1.99561,1.47705,1.29346,2.21533,3.16455,2.21533,5.61377,0,2.51172-.86426,4.59717-2.59326,6.25684-1.729,1.66016-4.1709,2.48975-7.32666,2.48975-3.22266,0-5.75732-.81738-7.60352-2.45215s-2.76953-3.88232-2.76953-6.74219h4.93457c.15674,1.25586.46436,2.19482.92334,2.81641.83936,1.13135,2.27686,1.69678,4.31396,1.69678Z"/>
      <path fill="#231815" d="M73.5918,41.875h-6.64746l-7.63672-12.01074-2.46777,2.81641v9.19434h-5.08594V14.38477h5.08594v11.3208l9.55078-11.3208h6.68066l-10.1377,11.3208,10.6582,16.16943Z"/>
    </g>
  </symbol>
  <symbol id="SK01" viewBox="0 0 100 100">
    <rect fill="#00a945" width="100" height="100" rx="16.5" ry="16.5"/>
    <path fill="#fff" d="M10.38681,41.25h79c.96585,0,1.75.78415,1.75,1.75v40.5c0,4.27734-3.47266,7.75-7.75,7.75H16.38681c-4.27734,0-7.75-3.47266-7.75-7.75v-40.5c0-.96585.78415-1.75,1.75-1.75Z"/>
    <g>
      <path fill="#fff" d="M37.48438,30.13867c1.23145,0,2.23242-.13574,3.00098-.40723,1.45801-.51953,2.18652-1.48633,2.18652-2.89844,0-.8252-.36133-1.46387-1.08496-1.91602-.72363-.44141-1.85938-.83105-3.40723-1.16992l-2.64551-.59375c-2.59961-.58789-4.39648-1.22656-5.3916-1.91602-1.68359-1.15234-2.52637-2.95508-2.52637-5.4082,0-2.23828.81445-4.09766,2.44141-5.57812,1.62793-1.48047,4.01855-2.2207,7.17188-2.2207,2.63379,0,4.87988.69727,6.74023,2.09375,1.8584,1.39551,2.83398,3.42188,2.92383,6.07812h-5.01855c-.08984-1.50293-.74609-2.57129-1.9668-3.2041-.81348-.41797-1.8252-.62793-3.03418-.62793-1.3457,0-2.41895.27148-3.22168.81445-.80273.54199-1.2041,1.2998-1.2041,2.27148,0,.89258.39551,1.55957,1.1875,2.00098.50879.29395,1.59375.63867,3.25488,1.03418l4.30664,1.03418c1.8877.45215,3.31152,1.05664,4.27246,1.81348,1.49219,1.17578,2.23828,2.87695,2.23828,5.10352,0,2.2832-.87305,4.17969-2.62012,5.68848-1.74609,1.50879-4.21289,2.26367-7.40039,2.26367-3.25488,0-5.81543-.74316-7.68066-2.22949-1.86426-1.48633-2.79688-3.5293-2.79688-6.12891h4.98438c.1582,1.1416.46875,1.99414.93262,2.55957.84766,1.02832,2.2998,1.54297,4.35742,1.54297Z"/>
      <path fill="#fff" d="M73.71582,33.75h-6.71387l-7.71387-10.91895-2.49219,2.56055v8.3584h-5.1377V8.75879h5.1377v10.29199l9.64648-10.29199h6.74805l-10.24023,10.29199,10.76562,14.69922Z"/>
    </g>
    <g>
      <path fill="#1e1c1c" d="M36.23877,83.35449c-4.38379,0-7.45801-1.53516-9.22168-4.60449-1.76465-3.07031-2.64648-7.44531-2.64648-13.12695,0-5.68066.88184-10.06348,2.64648-13.14941,1.76367-3.08594,4.83789-4.62891,9.22168-4.62891,4.38281,0,7.46094,1.54297,9.2334,4.62891,1.75586,3.08594,2.63477,7.46875,2.63477,13.14941,0,5.68164-.88281,10.05664-2.64746,13.12695-1.76465,3.06934-4.83789,4.60449-9.2207,4.60449ZM40.20264,74.69043c.61719-2.08887.92578-5.11035.92578-9.06738,0-4.14551-.31348-7.21582-.9375-9.20898-.62598-1.99414-1.94336-2.99121-3.95215-2.99121-2.00977,0-3.33984.99707-3.98828,2.99121-.64844,1.99316-.97266,5.06348-.97266,9.20898,0,3.95703.32422,6.9834.97266,9.0791.64844,2.09766,1.97852,3.14551,3.98828,3.14551,2.00879,0,3.33008-1.05176,3.96387-3.15723Z"/>
      <path fill="#1e1c1c" d="M68.28223,82.5h-6.93066v-23.73633h-8.09473v-4.60449c2.13672-.0957,3.63184-.2373,4.48633-.42773,1.36133-.30078,2.46875-.90234,3.32324-1.80371.58496-.61719,1.02832-1.43945,1.3291-2.46875.17383-.61719.26172-1.07617.26172-1.37695h5.625v34.41797Z"/>
    </g>
  </symbol>
  <symbol id="SK02" viewBox="0 0 100 100">
    <rect fill="#00a945" width="100" height="100" rx="16.5" ry="16.5"/>
    <path fill="#fff" d="M10.38681,41.25h79c.96585,0,1.75.78415,1.75,1.75v40.5c0,4.27734-3.47266,7.75-7.75,7.75H16.38681c-4.27734,0-7.75-3.47266-7.75-7.75v-40.5c0-.96585.78415-1.75,1.75-1.75Z"/>
    <g>
      <path fill="#fff" d="M37.48438,30.13867c1.23145,0,2.23242-.13574,3.00098-.40723,1.45801-.51953,2.18652-1.48633,2.18652-2.89844,0-.8252-.36133-1.46387-1.08496-1.91602-.72363-.44141-1.85938-.83105-3.40723-1.16992l-2.64551-.59375c-2.59961-.58789-4.39648-1.22656-5.3916-1.91602-1.68359-1.15234-2.52637-2.95508-2.52637-5.4082,0-2.23828.81445-4.09766,2.44141-5.57812,1.62793-1.48047,4.01855-2.2207,7.17188-2.2207,2.63379,0,4.87988.69727,6.74023,2.09375,1.8584,1.39551,2.83398,3.42188,2.92383,6.07812h-5.01855c-.08984-1.50293-.74609-2.57129-1.9668-3.2041-.81348-.41797-1.8252-.62793-3.03418-.62793-1.3457,0-2.41895.27148-3.22168.81445-.80273.54199-1.2041,1.2998-1.2041,2.27148,0,.89258.39551,1.55957,1.1875,2.00098.50879.29395,1.59375.63867,3.25488,1.03418l4.30664,1.03418c1.8877.45215,3.31152,1.05664,4.27246,1.81348,1.49219,1.17578,2.23828,2.87695,2.23828,5.10352,0,2.2832-.87305,4.17969-2.62012,5.68848-1.74609,1.50879-4.21289,2.26367-7.40039,2.26367-3.25488,0-5.81543-.74316-7.68066-2.22949-1.86426-1.48633-2.79688-3.5293-2.79688-6.12891h4.98438c.1582,1.1416.46875,1.99414.93262,2.55957.84766,1.02832,2.2998,1.54297,4.35742,1.54297Z"/>
      <path fill="#fff" d="M73.71582,33.75h-6.71387l-7.71387-10.91895-2.49219,2.56055v8.3584h-5.1377V8.75879h5.1377v10.29199l9.64648-10.29199h6.74805l-10.24023,10.29199,10.76562,14.69922Z"/>
    </g>
    <g>
      <path fill="#1e1c1c" d="M36.23877,83.35449c-4.38379,0-7.45801-1.53516-9.22168-4.60449-1.76465-3.07031-2.64648-7.44531-2.64648-13.12695,0-5.68066.88184-10.06348,2.64648-13.14941,1.76367-3.08594,4.83789-4.62891,9.22168-4.62891,4.38281,0,7.46094,1.54297,9.2334,4.62891,1.75586,3.08594,2.63477,7.46875,2.63477,13.14941,0,5.68164-.88281,10.05664-2.64746,13.12695-1.76465,3.06934-4.83789,4.60449-9.2207,4.60449ZM40.20264,74.69043c.61719-2.08887.92578-5.11035.92578-9.06738,0-4.14551-.31348-7.21582-.9375-9.20898-.62598-1.99414-1.94336-2.99121-3.95215-2.99121-2.00977,0-3.33984.99707-3.98828,2.99121-.64844,1.99316-.97266,5.06348-.97266,9.20898,0,3.95703.32422,6.9834.97266,9.0791.64844,2.09766,1.97852,3.14551,3.98828,3.14551,2.00879,0,3.33008-1.05176,3.96387-3.15723Z"/>
      <path fill="#1e1c1c" d="M66.78711,55.08496c-.80762-.96582-1.96289-1.44824-3.46582-1.44824-2.05664,0-3.45703.76758-4.20117,2.30273-.42676.88574-.68066,2.29395-.75977,4.22461h-6.5752c.11133-2.92773.6416-5.29297,1.59082-7.09668,1.80371-3.43359,5.00879-5.15137,9.61328-5.15137,3.63965,0,6.53516,1.00879,8.6875,3.02637,2.15137,2.01758,3.22852,4.68848,3.22852,8.01074,0,2.54883-.75977,4.81152-2.2793,6.78906-.99707,1.31348-2.63477,2.77734-4.91309,4.3916l-2.70605,1.92188c-1.69336,1.20312-2.85254,2.07324-3.47754,2.61133s-1.15137,1.16309-1.57812,1.875h15.02441v5.95801h-23.56934c.0625-2.46875.59277-4.72363,1.58984-6.76465.96484-2.29492,3.24414-4.72363,6.83594-7.28711,3.11719-2.23145,5.13477-3.8291,6.05273-4.79492,1.4082-1.50293,2.11328-3.14844,2.11328-4.9375,0-1.45508-.4043-2.66602-1.21094-3.63086Z"/>
    </g>
  </symbol>
  <symbol id="SK03" viewBox="0 0 100 100">
    <rect fill="#00a945" width="100" height="100" rx="16.5" ry="16.5"/>
    <path fill="#fff" d="M10.38681,41.25h79c.96585,0,1.75.78415,1.75,1.75v40.5c0,4.27734-3.47266,7.75-7.75,7.75H16.38681c-4.27734,0-7.75-3.47266-7.75-7.75v-40.5c0-.96585.78415-1.75,1.75-1.75Z"/>
    <g>
      <path fill="#fff" d="M37.48438,30.13867c1.23145,0,2.23242-.13574,3.00098-.40723,1.45801-.51953,2.18652-1.48633,2.18652-2.89844,0-.8252-.36133-1.46387-1.08496-1.91602-.72363-.44141-1.85938-.83105-3.40723-1.16992l-2.64551-.59375c-2.59961-.58789-4.39648-1.22656-5.3916-1.91602-1.68359-1.15234-2.52637-2.95508-2.52637-5.4082,0-2.23828.81445-4.09766,2.44141-5.57812,1.62793-1.48047,4.01855-2.2207,7.17188-2.2207,2.63379,0,4.87988.69727,6.74023,2.09375,1.8584,1.39551,2.83398,3.42188,2.92383,6.07812h-5.01855c-.08984-1.50293-.74609-2.57129-1.9668-3.2041-.81348-.41797-1.8252-.62793-3.03418-.62793-1.3457,0-2.41895.27148-3.22168.81445-.80273.54199-1.2041,1.2998-1.2041,2.27148,0,.89258.39551,1.55957,1.1875,2.00098.50879.29395,1.59375.63867,3.25488,1.03418l4.30664,1.03418c1.8877.45215,3.31152,1.05664,4.27246,1.81348,1.49219,1.17578,2.23828,2.87695,2.23828,5.10352,0,2.2832-.87305,4.17969-2.62012,5.68848-1.74609,1.50879-4.21289,2.26367-7.40039,2.26367-3.25488,0-5.81543-.74316-7.68066-2.22949-1.86426-1.48633-2.79688-3.5293-2.79688-6.12891h4.98438c.1582,1.1416.46875,1.99414.93262,2.55957.84766,1.02832,2.2998,1.54297,4.35742,1.54297Z"/>
      <path fill="#fff" d="M73.71582,33.75h-6.71387l-7.71387-10.91895-2.49219,2.56055v8.3584h-5.1377V8.75879h5.1377v10.29199l9.64648-10.29199h6.74805l-10.24023,10.29199,10.76562,14.69922Z"/>
    </g>
    <g>
      <path fill="#1e1c1c" d="M36.23877,83.35449c-4.38379,0-7.45801-1.53516-9.22168-4.60449-1.76465-3.07031-2.64648-7.44531-2.64648-13.12695,0-5.68066.88184-10.06348,2.64648-13.14941,1.76367-3.08594,4.83789-4.62891,9.22168-4.62891,4.38281,0,7.46094,1.54297,9.2334,4.62891,1.75586,3.08594,2.63477,7.46875,2.63477,13.14941,0,5.68164-.88281,10.05664-2.64746,13.12695-1.76465,3.06934-4.83789,4.60449-9.2207,4.60449ZM40.20264,74.69043c.61719-2.08887.92578-5.11035.92578-9.06738,0-4.14551-.31348-7.21582-.9375-9.20898-.62598-1.99414-1.94336-2.99121-3.95215-2.99121-2.00977,0-3.33984.99707-3.98828,2.99121-.64844,1.99316-.97266,5.06348-.97266,9.20898,0,3.95703.32422,6.9834.97266,9.0791.64844,2.09766,1.97852,3.14551,3.98828,3.14551,2.00879,0,3.33008-1.05176,3.96387-3.15723Z"/>
      <path fill="#1e1c1c" d="M59.19141,54.94238c-.75977,1.0127-1.12402,2.36523-1.0918,4.05859h-6.31445c.06348-1.70898.35645-3.33105.87891-4.86621.55371-1.34473,1.42383-2.58691,2.61035-3.72656.88672-.80664,1.93848-1.42383,3.15723-1.85156,1.21875-.42676,2.71387-.64062,4.48633-.64062,3.29102,0,5.94629.85059,7.96387,2.55176s3.02637,3.98438,3.02637,6.84766c0,2.02637-.60156,3.73535-1.80469,5.12695-.75879.87109-1.55078,1.46387-2.37305,1.78027.61719,0,1.50293.53027,2.6582,1.59082,1.72461,1.59863,2.58691,3.78223,2.58691,6.55078,0,2.91211-1.00879,5.47168-3.02637,7.67871-2.01758,2.20801-5.00391,3.31152-8.95996,3.31152-4.87402,0-8.26074-1.58984-10.15918-4.77051-.99707-1.69336-1.55078-3.90918-1.66113-6.64648h6.64551c0,1.37695.22168,2.51562.66504,3.41797.82227,1.66113,2.31738,2.49219,4.48633,2.49219,1.3291,0,2.48828-.45508,3.47656-1.36523.98926-.90918,1.48438-2.21875,1.48438-3.92773,0-2.2627-.91797-3.77441-2.75391-4.53418-1.04395-.42676-2.69043-.64062-4.9375-.64062v-4.8418c2.2002-.03223,3.73438-.24512,4.60547-.6416,1.50293-.66406,2.25488-2.00879,2.25488-4.03516,0-1.3125-.38379-2.38086-1.15137-3.2041-.76758-.82227-1.84766-1.23438-3.24023-1.23438-1.59863,0-2.76953.50684-3.5127,1.51953Z"/>
    </g>
  </symbol>
  <symbol id="SK04" viewBox="0 0 100 100">
    <rect fill="#00a945" width="100" height="100" rx="16.5" ry="16.5"/>
    <path fill="#fff" d="M10.38681,41.25h79c.96585,0,1.75.78415,1.75,1.75v40.5c0,4.27734-3.47266,7.75-7.75,7.75H16.38681c-4.27734,0-7.75-3.47266-7.75-7.75v-40.5c0-.96585.78415-1.75,1.75-1.75Z"/>
    <g>
      <path fill="#fff" d="M37.48438,30.13867c1.23145,0,2.23242-.13574,3.00098-.40723,1.45801-.51953,2.18652-1.48633,2.18652-2.89844,0-.8252-.36133-1.46387-1.08496-1.91602-.72363-.44141-1.85938-.83105-3.40723-1.16992l-2.64551-.59375c-2.59961-.58789-4.39648-1.22656-5.3916-1.91602-1.68359-1.15234-2.52637-2.95508-2.52637-5.4082,0-2.23828.81445-4.09766,2.44141-5.57812,1.62793-1.48047,4.01855-2.2207,7.17188-2.2207,2.63379,0,4.87988.69727,6.74023,2.09375,1.8584,1.39551,2.83398,3.42188,2.92383,6.07812h-5.01855c-.08984-1.50293-.74609-2.57129-1.9668-3.2041-.81348-.41797-1.8252-.62793-3.03418-.62793-1.3457,0-2.41895.27148-3.22168.81445-.80273.54199-1.2041,1.2998-1.2041,2.27148,0,.89258.39551,1.55957,1.1875,2.00098.50879.29395,1.59375.63867,3.25488,1.03418l4.30664,1.03418c1.8877.45215,3.31152,1.05664,4.27246,1.81348,1.49219,1.17578,2.23828,2.87695,2.23828,5.10352,0,2.2832-.87305,4.17969-2.62012,5.68848-1.74609,1.50879-4.21289,2.26367-7.40039,2.26367-3.25488,0-5.81543-.74316-7.68066-2.22949-1.86426-1.48633-2.79688-3.5293-2.79688-6.12891h4.98438c.1582,1.1416.46875,1.99414.93262,2.55957.84766,1.02832,2.2998,1.54297,4.35742,1.54297Z"/>
      <path fill="#fff" d="M73.71582,33.75h-6.71387l-7.71387-10.91895-2.49219,2.56055v8.3584h-5.1377V8.75879h5.1377v10.29199l9.64648-10.29199h6.74805l-10.24023,10.29199,10.76562,14.69922Z"/>
    </g>
    <g>
      <path fill="#1e1c1c" d="M36.23877,83.35449c-4.38379,0-7.45801-1.53516-9.22168-4.60449-1.76465-3.07031-2.64648-7.44531-2.64648-13.12695,0-5.68066.88184-10.06348,2.64648-13.14941,1.76367-3.08594,4.83789-4.62891,9.22168-4.62891,4.38281,0,7.46094,1.54297,9.2334,4.62891,1.75586,3.08594,2.63477,7.46875,2.63477,13.14941,0,5.68164-.88281,10.05664-2.64746,13.12695-1.76465,3.06934-4.83789,4.60449-9.2207,4.60449ZM40.20264,74.69043c.61719-2.08887.92578-5.11035.92578-9.06738,0-4.14551-.31348-7.21582-.9375-9.20898-.62598-1.99414-1.94336-2.99121-3.95215-2.99121-2.00977,0-3.33984.99707-3.98828,2.99121-.64844,1.99316-.97266,5.06348-.97266,9.20898,0,3.95703.32422,6.9834.97266,9.0791.64844,2.09766,1.97852,3.14551,3.98828,3.14551,2.00879,0,3.33008-1.05176,3.96387-3.15723Z"/>
      <path fill="#1e1c1c" d="M75.30859,69.80078v5.29395h-3.89258v7.40527h-6.62305v-7.40527h-13.62402v-5.91113l12.65137-20.8877h7.5957v21.50488h3.89258ZM56.17676,69.80078h8.61621v-14.8584l-8.61621,14.8584Z"/>
    </g>
  </symbol>
  <symbol id="SK05" viewBox="0 0 100 100">
    <rect fill="#00a945" width="100" height="100" rx="16.5" ry="16.5"/>
    <path fill="#fff" d="M10.38681,41.25h79c.96585,0,1.75.78415,1.75,1.75v40.5c0,4.27734-3.47266,7.75-7.75,7.75H16.38681c-4.27734,0-7.75-3.47266-7.75-7.75v-40.5c0-.96585.78415-1.75,1.75-1.75Z"/>
    <g>
      <path fill="#fff" d="M37.48438,30.13867c1.23145,0,2.23242-.13574,3.00098-.40723,1.45801-.51953,2.18652-1.48633,2.18652-2.89844,0-.8252-.36133-1.46387-1.08496-1.91602-.72363-.44141-1.85938-.83105-3.40723-1.16992l-2.64551-.59375c-2.59961-.58789-4.39648-1.22656-5.3916-1.91602-1.68359-1.15234-2.52637-2.95508-2.52637-5.4082,0-2.23828.81445-4.09766,2.44141-5.57812,1.62793-1.48047,4.01855-2.2207,7.17188-2.2207,2.63379,0,4.87988.69727,6.74023,2.09375,1.8584,1.39551,2.83398,3.42188,2.92383,6.07812h-5.01855c-.08984-1.50293-.74609-2.57129-1.9668-3.2041-.81348-.41797-1.8252-.62793-3.03418-.62793-1.3457,0-2.41895.27148-3.22168.81445-.80273.54199-1.2041,1.2998-1.2041,2.27148,0,.89258.39551,1.55957,1.1875,2.00098.50879.29395,1.59375.63867,3.25488,1.03418l4.30664,1.03418c1.8877.45215,3.31152,1.05664,4.27246,1.81348,1.49219,1.17578,2.23828,2.87695,2.23828,5.10352,0,2.2832-.87305,4.17969-2.62012,5.68848-1.74609,1.50879-4.21289,2.26367-7.40039,2.26367-3.25488,0-5.81543-.74316-7.68066-2.22949-1.86426-1.48633-2.79688-3.5293-2.79688-6.12891h4.98438c.1582,1.1416.46875,1.99414.93262,2.55957.84766,1.02832,2.2998,1.54297,4.35742,1.54297Z"/>
      <path fill="#fff" d="M73.71582,33.75h-6.71387l-7.71387-10.91895-2.49219,2.56055v8.3584h-5.1377V8.75879h5.1377v10.29199l9.64648-10.29199h6.74805l-10.24023,10.29199,10.76562,14.69922Z"/>
    </g>
    <g>
      <path fill="#1e1c1c" d="M36.23877,83.35449c-4.38379,0-7.45801-1.53516-9.22168-4.60449-1.76465-3.07031-2.64648-7.44531-2.64648-13.12695,0-5.68066.88184-10.06348,2.64648-13.14941,1.76367-3.08594,4.83789-4.62891,9.22168-4.62891,4.38281,0,7.46094,1.54297,9.2334,4.62891,1.75586,3.08594,2.63477,7.46875,2.63477,13.14941,0,5.68164-.88281,10.05664-2.64746,13.12695-1.76465,3.06934-4.83789,4.60449-9.2207,4.60449ZM40.20264,74.69043c.61719-2.08887.92578-5.11035.92578-9.06738,0-4.14551-.31348-7.21582-.9375-9.20898-.62598-1.99414-1.94336-2.99121-3.95215-2.99121-2.00977,0-3.33984.99707-3.98828,2.99121-.64844,1.99316-.97266,5.06348-.97266,9.20898,0,3.95703.32422,6.9834.97266,9.0791.64844,2.09766,1.97852,3.14551,3.98828,3.14551,2.00879,0,3.33008-1.05176,3.96387-3.15723Z"/>
      <path fill="#1e1c1c" d="M62.84668,65.41016c-.82324,0-1.53516.10254-2.13574.30859-1.06055.37988-1.86035,1.08398-2.39746,2.1123l-6.07715-.28516,2.42188-19.0127h18.96484v5.74414h-14.0752l-1.23438,7.52441c1.04395-.67969,1.8584-1.13086,2.44434-1.35254.98145-.36426,2.17578-.5459,3.58398-.5459,2.84863,0,5.33301.95703,7.45312,2.87207,2.12109,1.91504,3.18066,4.69922,3.18066,8.35449,0,3.18066-1.02051,6.02148-3.06152,8.52148-2.04102,2.50098-5.0957,3.75098-9.16211,3.75098-3.27539,0-5.96582-.87891-8.07031-2.63477-2.10449-1.75684-3.27539-4.24902-3.5127-7.47754h6.74023c.26953,1.47168.78418,2.60742,1.54297,3.40625.75977.7998,1.86719,1.19922,3.32324,1.19922,1.67773,0,2.95508-.58984,3.83398-1.76855.87793-1.17871,1.31738-2.66211,1.31738-4.45117,0-1.75586-.41211-3.23926-1.23438-4.4502-.82324-1.21094-2.10547-1.81543-3.8457-1.81543Z"/>
    </g>
  </symbol>
  <symbol id="SK06" viewBox="0 0 100 100">
    <rect fill="#00a945" width="100" height="100" rx="16.5" ry="16.5"/>
    <path fill="#fff" d="M10.38681,41.25h79c.96585,0,1.75.78415,1.75,1.75v40.5c0,4.27734-3.47266,7.75-7.75,7.75H16.38681c-4.27734,0-7.75-3.47266-7.75-7.75v-40.5c0-.96585.78415-1.75,1.75-1.75Z"/>
    <g>
      <path fill="#fff" d="M37.48438,30.13867c1.23145,0,2.23242-.13574,3.00098-.40723,1.45801-.51953,2.18652-1.48633,2.18652-2.89844,0-.8252-.36133-1.46387-1.08496-1.91602-.72363-.44141-1.85938-.83105-3.40723-1.16992l-2.64551-.59375c-2.59961-.58789-4.39648-1.22656-5.3916-1.91602-1.68359-1.15234-2.52637-2.95508-2.52637-5.4082,0-2.23828.81445-4.09766,2.44141-5.57812,1.62793-1.48047,4.01855-2.2207,7.17188-2.2207,2.63379,0,4.87988.69727,6.74023,2.09375,1.8584,1.39551,2.83398,3.42188,2.92383,6.07812h-5.01855c-.08984-1.50293-.74609-2.57129-1.9668-3.2041-.81348-.41797-1.8252-.62793-3.03418-.62793-1.3457,0-2.41895.27148-3.22168.81445-.80273.54199-1.2041,1.2998-1.2041,2.27148,0,.89258.39551,1.55957,1.1875,2.00098.50879.29395,1.59375.63867,3.25488,1.03418l4.30664,1.03418c1.8877.45215,3.31152,1.05664,4.27246,1.81348,1.49219,1.17578,2.23828,2.87695,2.23828,5.10352,0,2.2832-.87305,4.17969-2.62012,5.68848-1.74609,1.50879-4.21289,2.26367-7.40039,2.26367-3.25488,0-5.81543-.74316-7.68066-2.22949-1.86426-1.48633-2.79688-3.5293-2.79688-6.12891h4.98438c.1582,1.1416.46875,1.99414.93262,2.55957.84766,1.02832,2.2998,1.54297,4.35742,1.54297Z"/>
      <path fill="#fff" d="M73.71582,33.75h-6.71387l-7.71387-10.91895-2.49219,2.56055v8.3584h-5.1377V8.75879h5.1377v10.29199l9.64648-10.29199h6.74805l-10.24023,10.29199,10.76562,14.69922Z"/>
    </g>
    <g>
      <path fill="#1e1c1c" d="M36.23877,83.35449c-4.38379,0-7.45801-1.53516-9.22168-4.60449-1.76465-3.07031-2.64648-7.44531-2.64648-13.12695,0-5.68066.88184-10.06348,2.64648-13.14941,1.76367-3.08594,4.83789-4.62891,9.22168-4.62891,4.38281,0,7.46094,1.54297,9.2334,4.62891,1.75586,3.08594,2.63477,7.46875,2.63477,13.14941,0,5.68164-.88281,10.05664-2.64746,13.12695-1.76465,3.06934-4.83789,4.60449-9.2207,4.60449ZM40.20264,74.69043c.61719-2.08887.92578-5.11035.92578-9.06738,0-4.14551-.31348-7.21582-.9375-9.20898-.62598-1.99414-1.94336-2.99121-3.95215-2.99121-2.00977,0-3.33984.99707-3.98828,2.99121-.64844,1.99316-.97266,5.06348-.97266,9.20898,0,3.95703.32422,6.9834.97266,9.0791.64844,2.09766,1.97852,3.14551,3.98828,3.14551,2.00879,0,3.33008-1.05176,3.96387-3.15723Z"/>
      <path fill="#1e1c1c" d="M64.74609,60.16406c3.05371,0,5.55762,1.03711,7.51172,3.10938,1.95508,2.07324,2.93164,4.72363,2.93164,7.95215,0,3.21191-.95703,6.04492-2.87207,8.49707-1.91504,2.45312-4.88965,3.67969-8.9248,3.67969-4.33594,0-7.53223-1.8125-9.58984-5.43555-1.59766-2.83301-2.39648-6.48828-2.39648-10.9668,0-2.62598.11035-4.7627.33203-6.4082.39551-2.92773,1.16309-5.36523,2.30273-7.31152.98047-1.66113,2.2666-2.99805,3.85645-4.01074,1.59082-1.0127,3.49316-1.51953,5.70898-1.51953,3.19629,0,5.74414.81934,7.64258,2.45703,1.89941,1.6377,2.96777,3.81738,3.20508,6.53906h-6.74121c0-.55371-.21387-1.16309-.64062-1.82812-.72852-1.0752-1.82812-1.61328-3.2998-1.61328-2.19922,0-3.7666,1.2334-4.7002,3.70215-.50586,1.36133-.85449,3.37109-1.04395,6.0293.83887-.99707,1.81152-1.72461,2.91992-2.18359,1.10742-.45898,2.37305-.68848,3.79785-.68848ZM60.18848,66.62012c-1.3291,1.0293-1.99414,2.69043-1.99414,4.98535,0,1.85059.49902,3.3623,1.49512,4.5332.99707,1.1709,2.2627,1.75684,3.79785,1.75684,1.50391,0,2.68652-.56641,3.54883-1.69727.8623-1.13184,1.29395-2.59961,1.29395-4.40332,0-2.00977-.49121-3.54883-1.47168-4.61719-.98145-1.06738-2.18359-1.60156-3.6084-1.60156-1.15527,0-2.17578.34766-3.06152,1.04395Z"/>
    </g>
  </symbol>
</svg>
