<?xml version="1.0" encoding="UTF-8"?>
<svg xmlns="http://www.w3.org/2000/svg" xmlns:xlink="http://www.w3.org/1999/xlink">
  <!-- 78/0/10/0 -->
  <symbol id="T" viewBox="0 0 100 100">
    <circle fill="#00b1dd" cx="50" cy="50" r="50"/>
    <circle fill="#fff" cx="50" cy="50" r="40"/>
    <path fill="#231815" d="M46.40186,78.125v-41.37744h-15.79297v-6.12744h38.7876v6.12744h-15.91992v41.37744h-7.07471Z"/>
  </symbol>
  <symbol id="T01" viewBox="0 0 100 100">
    <circle fill="#00b1dd" cx="50" cy="50" r="50"/>
    <circle fill="#fff" cx="50" cy="50" r="40"/>
    <path fill="#231815" d="M48.29492,41.875v-19.59912h-7.48047v-2.90283h18.37305v2.90283h-7.54102v19.59912h-3.35156Z"/>
    <g>
      <path fill="#231815" d="M48.13916,63.82031c0,9.32715-2.70654,14.15527-9.25391,14.15527-6.54688,0-9.25342-4.71875-9.25342-14.15527,0-9.47266,2.70654-14.15479,9.25342-14.15479,6.54736,0,9.25391,4.7915,9.25391,14.15479ZM33.72852,63.82031c0,7.24219,1.38965,10.75391,5.15674,10.75391,3.76758,0,5.15723-3.51172,5.15723-10.75391,0-7.24121-1.38965-10.75293-5.15723-10.75293-3.76709,0-5.15674,3.51172-5.15674,10.75293Z"/>
      <path fill="#231815" d="M60.24121,77.5v-23.48145l-6.91309,2.26758v-3.54785l8.26562-2.92627h2.66992v27.68799h-4.02246Z"/>
    </g>
  </symbol>
  <symbol id="T02" viewBox="0 0 100 100">
    <circle fill="#00b1dd" cx="50" cy="50" r="50"/>
    <circle fill="#fff" cx="50" cy="50" r="40"/>
    <path fill="#231815" d="M48.29492,41.875v-19.59912h-7.48047v-2.90283h18.37305v2.90283h-7.54102v19.59912h-3.35156Z"/>
    <g>
      <path fill="#231815" d="M48.13916,63.82031c0,9.32715-2.70654,14.15527-9.25391,14.15527-6.54688,0-9.25342-4.71875-9.25342-14.15527,0-9.47266,2.70654-14.15479,9.25342-14.15479,6.54736,0,9.25391,4.7915,9.25391,14.15479ZM33.72852,63.82031c0,7.24219,1.38965,10.75391,5.15674,10.75391,3.76758,0,5.15723-3.51172,5.15723-10.75391,0-7.24121-1.38965-10.75293-5.15723-10.75293-3.76709,0-5.15674,3.51172-5.15674,10.75293Z"/>
      <path fill="#231815" d="M52.37695,77.5v-4.53516c8.00977-7.35254,12.43555-10.64355,12.43555-15.17871,0-3-1.64551-4.68164-5.04688-4.68164-2.08496,0-4.13281.73145-5.96191,1.6084v-3.54688c2.26758-1.17139,4.75488-1.71973,7.20508-1.71973,5.15723,0,8.00977,3.14551,8.00977,7.79102,0,4.57129-2.63281,7.97363-12.58203,16.67773h13.42383v3.58496h-17.4834Z"/>
    </g>
  </symbol>
  <symbol id="T03" viewBox="0 0 100 100">
    <circle fill="#00b1dd" cx="50" cy="50" r="50"/>
    <circle fill="#fff" cx="50" cy="50" r="40"/>
    <path fill="#231815" d="M48.29492,41.875v-19.59912h-7.48047v-2.90283h18.37305v2.90283h-7.54102v19.59912h-3.35156Z"/>
    <g>
      <path fill="#231815" d="M48.13916,63.82031c0,9.32715-2.70654,14.15527-9.25391,14.15527-6.54688,0-9.25342-4.71875-9.25342-14.15527,0-9.47266,2.70654-14.15479,9.25342-14.15479,6.54736,0,9.25391,4.7915,9.25391,14.15479ZM33.72852,63.82031c0,7.24219,1.38965,10.75391,5.15674,10.75391,3.76758,0,5.15723-3.51172,5.15723-10.75391,0-7.24121-1.38965-10.75293-5.15723-10.75293-3.76709,0-5.15674,3.51172-5.15674,10.75293Z"/>
      <path fill="#231815" d="M52.74316,73.47656c1.28027.43848,3.36426,1.02441,5.66895,1.02441,4.79102,0,6.62012-1.97559,6.62012-4.82812,0-3.29199-2.34082-4.75488-6.51074-4.75488h-3.36426l.6582-3.25488h1.71875c4.42578,0,6.83984-1.5,6.83984-4.68164,0-2.63379-1.57324-3.9873-5.15723-3.9873-2.26758,0-4.38867.76855-5.7793,1.31641v-3.47461c2.19531-.91406,4.46289-1.35303,7.05957-1.35303,5.12012,0,7.86328,2.67041,7.86328,6.5835,0,3.10938-1.64551,5.63281-5.15723,6.73047,3.87695.69434,5.99902,3.21777,5.99902,6.80273,0,4.6084-3.43848,8.37598-10.27832,8.37598-2.85254,0-4.71777-.43945-6.18066-.98828v-3.51074Z"/>
    </g>
  </symbol>
  <symbol id="T04" viewBox="0 0 100 100">
    <circle fill="#00b1dd" cx="50" cy="50" r="50"/>
    <circle fill="#fff" cx="50" cy="50" r="40"/>
    <path fill="#231815" d="M48.29492,41.875v-19.59912h-7.48047v-2.90283h18.37305v2.90283h-7.54102v19.59912h-3.35156Z"/>
    <g>
      <path fill="#231815" d="M48.13916,63.82031c0,9.32715-2.70654,14.15527-9.25391,14.15527-6.54688,0-9.25342-4.71875-9.25342-14.15527,0-9.47266,2.70654-14.15479,9.25342-14.15479,6.54736,0,9.25391,4.7915,9.25391,14.15479ZM33.72852,63.82031c0,7.24219,1.38965,10.75391,5.15674,10.75391,3.76758,0,5.15723-3.51172,5.15723-10.75391,0-7.24121-1.38965-10.75293-5.15723-10.75293-3.76709,0-5.15674,3.51172-5.15674,10.75293Z"/>
      <path fill="#231815" d="M63.09375,77.5v-6.80371h-11.52148v-3.58398l10.79004-17.44678h4.42578v17.62939h3.80371v3.40137h-3.80371v6.80371h-3.69434ZM63.09375,67.29492v-12.94727l-7.75391,12.94727h7.75391Z"/>
    </g>
  </symbol>
  <symbol id="T05" viewBox="0 0 100 100">
    <circle fill="#00b1dd" cx="50" cy="50" r="50"/>
    <circle fill="#fff" cx="50" cy="50" r="40"/>
    <path fill="#231815" d="M48.29492,41.875v-19.59912h-7.48047v-2.90283h18.37305v2.90283h-7.54102v19.59912h-3.35156Z"/>
    <g>
      <path fill="#231815" d="M48.13916,63.82031c0,9.32715-2.70654,14.15527-9.25391,14.15527-6.54688,0-9.25342-4.71875-9.25342-14.15527,0-9.47266,2.70654-14.15479,9.25342-14.15479,6.54736,0,9.25391,4.7915,9.25391,14.15479ZM33.72852,63.82031c0,7.24219,1.38965,10.75391,5.15674,10.75391,3.76758,0,5.15723-3.51172,5.15723-10.75391,0-7.24121-1.38965-10.75293-5.15723-10.75293-3.76709,0-5.15674,3.51172-5.15674,10.75293Z"/>
      <path fill="#231815" d="M53.40137,73.73242c1.53613.43945,3.36523.73145,5.19336.73145,4.2793,0,6.62012-1.64551,6.62012-5.30371,0-3.47461-2.08496-5.22949-5.96191-5.22949-1.16992,0-2.99902.21875-4.31543.6582l-1.1709-1.09766.54883-13.49658h14.15527v3.54834h-10.7168l-.3291,7.4248c1.09668-.21973,2.26758-.29297,3.25488-.29297,5.99805,0,8.70508,3.25586,8.70508,8.08301,0,5.48633-3.62109,9.21777-10.35059,9.21777-1.79297,0-3.9502-.18359-5.63281-.62207v-3.62109Z"/>
    </g>
  </symbol>
  <symbol id="T06" viewBox="0 0 100 100">
    <circle fill="#00b1dd" cx="50" cy="50" r="50"/>
    <circle fill="#fff" cx="50" cy="50" r="40"/>
    <path fill="#231815" d="M48.29492,41.875v-19.59912h-7.48047v-2.90283h18.37305v2.90283h-7.54102v19.59912h-3.35156Z"/>
    <g>
      <path fill="#231815" d="M48.13916,63.82031c0,9.32715-2.70654,14.15527-9.25391,14.15527-6.54688,0-9.25342-4.71875-9.25342-14.15527,0-9.47266,2.70654-14.15479,9.25342-14.15479,6.54736,0,9.25391,4.7915,9.25391,14.15479ZM33.72852,63.82031c0,7.24219,1.38965,10.75391,5.15674,10.75391,3.76758,0,5.15723-3.51172,5.15723-10.75391,0-7.24121-1.38965-10.75293-5.15723-10.75293-3.76709,0-5.15674,3.51172-5.15674,10.75293Z"/>
      <path fill="#231815" d="M68.28711,51.23828c-5.44922,2.78027-9.47266,5.99902-11.30176,10.53418,1.5-.91406,3.3291-1.46289,5.48633-1.46289,4.09668,0,7.75391,2.7793,7.75391,8.41211,0,5.5957-3.65723,9.29004-9.14355,9.29004-5.88867,0-8.9248-4.16992-8.9248-10.3877,0-8.26562,4.82812-14.66602,14.08203-18.98242l2.04785,2.59668ZM56.14453,67.33203c0,4.97363,1.93848,7.31445,5.15723,7.31445,2.7793,0,4.97363-1.93848,4.97363-5.37598,0-3.32812-1.71875-5.70605-5.22949-5.70605-1.60938,0-3.43848.54883-4.79199,1.68262-.07324.62207-.10938,1.24316-.10938,2.08496Z"/>
    </g>
  </symbol>
  <symbol id="T07" viewBox="0 0 100 100">
    <circle fill="#00b1dd" cx="50" cy="50" r="50"/>
    <circle fill="#fff" cx="50" cy="50" r="40"/>
    <path fill="#231815" d="M48.29492,41.875v-19.59912h-7.48047v-2.90283h18.37305v2.90283h-7.54102v19.59912h-3.35156Z"/>
    <g>
      <path fill="#231815" d="M48.13916,63.82031c0,9.32715-2.70654,14.15527-9.25391,14.15527-6.54688,0-9.25342-4.71875-9.25342-14.15527,0-9.47266,2.70654-14.15479,9.25342-14.15479,6.54736,0,9.25391,4.7915,9.25391,14.15479ZM33.72852,63.82031c0,7.24219,1.38965,10.75391,5.15674,10.75391,3.76758,0,5.15723-3.51172,5.15723-10.75391,0-7.24121-1.38965-10.75293-5.15723-10.75293-3.76709,0-5.15674,3.51172-5.15674,10.75293Z"/>
      <path fill="#231815" d="M53.65723,77.5l12.14258-23.88379h-12.54492v-3.62158h17.08105v2.74365l-12.14355,24.76172h-4.53516Z"/>
    </g>
  </symbol>
  <symbol id="T08" viewBox="0 0 100 100">
    <circle fill="#00b1dd" cx="50" cy="50" r="50"/>
    <circle fill="#fff" cx="50" cy="50" r="40"/>
    <path fill="#231815" d="M48.29492,41.875v-19.59912h-7.48047v-2.90283h18.37305v2.90283h-7.54102v19.59912h-3.35156Z"/>
    <g>
      <path fill="#231815" d="M48.13916,63.82031c0,9.32715-2.70654,14.15527-9.25391,14.15527-6.54688,0-9.25342-4.71875-9.25342-14.15527,0-9.47266,2.70654-14.15479,9.25342-14.15479,6.54736,0,9.25391,4.7915,9.25391,14.15479ZM33.72852,63.82031c0,7.24219,1.38965,10.75391,5.15674,10.75391,3.76758,0,5.15723-3.51172,5.15723-10.75391,0-7.24121-1.38965-10.75293-5.15723-10.75293-3.76709,0-5.15674,3.51172-5.15674,10.75293Z"/>
      <path fill="#231815" d="M53.07227,56.65137c0-4.05957,3.18164-7.02246,8.22949-7.02246,5.08398,0,7.86328,2.74316,7.86328,6.47461,0,3.25488-1.82812,5.19336-4.53516,6.72949,3.47461,1.90234,5.41309,3.65723,5.41309,7.27832,0,4.71875-3.80371,7.75391-9.25391,7.75391-4.4248,0-8.63184-2.23047-8.63184-7.0957,0-3.73047,2.26855-5.66895,5.37695-7.4248-3.1084-1.79199-4.46191-3.73047-4.46191-6.69336ZM56.14453,70.22168c0,2.55957,1.68262,4.38867,4.9375,4.38867,3.18164,0,4.71777-2.01172,4.71777-4.16992,0-2.34082-.9873-3.51074-5.52246-5.70508-2.99902,1.75488-4.13281,3.40137-4.13281,5.48633ZM65.28809,56.61523c0-2.30469-1.49902-3.80371-4.16992-3.80371-2.4502,0-3.94922,1.57227-3.94922,3.51074,0,2.08496.9502,3.51172,4.71777,5.19434,2.34082-1.5,3.40137-2.85352,3.40137-4.90137Z"/>
    </g>
  </symbol>
  <symbol id="T09" viewBox="0 0 100 100">
    <circle fill="#00b1dd" cx="50" cy="50" r="50"/>
    <circle fill="#fff" cx="50" cy="50" r="40"/>
    <path fill="#231815" d="M48.29492,41.875v-19.59912h-7.48047v-2.90283h18.37305v2.90283h-7.54102v19.59912h-3.35156Z"/>
    <g>
      <path fill="#231815" d="M48.13916,63.82031c0,9.32715-2.70654,14.15527-9.25391,14.15527-6.54688,0-9.25342-4.71875-9.25342-14.15527,0-9.47266,2.70654-14.15479,9.25342-14.15479,6.54736,0,9.25391,4.7915,9.25391,14.15479ZM33.72852,63.82031c0,7.24219,1.38965,10.75391,5.15674,10.75391,3.76758,0,5.15723-3.51172,5.15723-10.75391,0-7.24121-1.38965-10.75293-5.15723-10.75293-3.76709,0-5.15674,3.51172-5.15674,10.75293Z"/>
      <path fill="#231815" d="M53.98633,76.25586c5.4502-2.74316,9.47266-5.96191,11.26562-10.49707-1.46289.91504-3.3291,1.46289-5.4502,1.46289-4.13281,0-7.75391-2.7793-7.75391-8.41211s3.65723-9.32666,9.14355-9.32666c5.88867,0,8.9248,4.16943,8.9248,10.38721,0,8.2666-4.86426,14.66699-14.08105,18.9834l-2.04883-2.59766ZM66.12988,60.16309c0-4.97461-1.93848-7.31543-5.15723-7.31543-2.78027,0-4.97461,1.93848-4.97461,5.41309,0,3.3291,1.71875,5.66992,5.19336,5.66992,1.60938,0,3.43848-.54883,4.79199-1.64648.07324-.58496.14648-1.24316.14648-2.12109Z"/>
    </g>
  </symbol>
  <symbol id="T10" viewBox="0 0 100 100">
    <circle fill="#00b1dd" cx="50" cy="50" r="50"/>
    <circle fill="#fff" cx="50" cy="50" r="40"/>
    <path fill="#231815" d="M48.29492,41.875v-19.59912h-7.48047v-2.90283h18.37305v2.90283h-7.54102v19.59912h-3.35156Z"/>
    <g>
      <path fill="#231815" d="M38.00781,77.5v-23.48145l-6.91309,2.26758v-3.54785l8.26611-2.92627h2.66992v27.68799h-4.02295Z"/>
      <path fill="#231815" d="M70.37207,63.82031c0,9.32715-2.70605,14.15527-9.25391,14.15527-6.54688,0-9.25293-4.71875-9.25293-14.15527,0-9.47266,2.70605-14.15479,9.25293-14.15479,6.54785,0,9.25391,4.7915,9.25391,14.15479ZM55.96191,63.82031c0,7.24219,1.38965,10.75391,5.15625,10.75391,3.76758,0,5.15723-3.51172,5.15723-10.75391,0-7.24121-1.38965-10.75293-5.15723-10.75293-3.7666,0-5.15625,3.51172-5.15625,10.75293Z"/>
    </g>
  </symbol>
  <symbol id="T11" viewBox="0 0 100 100">
    <circle fill="#00b1dd" cx="50" cy="50" r="50"/>
    <circle fill="#fff" cx="50" cy="50" r="40"/>
    <path fill="#231815" d="M48.29492,41.875v-19.59912h-7.48047v-2.90283h18.37305v2.90283h-7.54102v19.59912h-3.35156Z"/>
    <g>
      <path fill="#231815" d="M38.00781,77.5v-23.48145l-6.91309,2.26758v-3.54785l8.26611-2.92627h2.66992v27.68799h-4.02295Z"/>
      <path fill="#231815" d="M60.24121,77.5v-23.48145l-6.91309,2.26758v-3.54785l8.26562-2.92627h2.66992v27.68799h-4.02246Z"/>
    </g>
  </symbol>
  <symbol id="T12" viewBox="0 0 100 100">
    <circle fill="#00b1dd" cx="50" cy="50" r="50"/>
    <circle fill="#fff" cx="50" cy="50" r="40"/>
    <path fill="#231815" d="M48.29492,41.875v-19.59912h-7.48047v-2.90283h18.37305v2.90283h-7.54102v19.59912h-3.35156Z"/>
    <g>
      <path fill="#231815" d="M38.00781,77.5v-23.48145l-6.91309,2.26758v-3.54785l8.26611-2.92627h2.66992v27.68799h-4.02295Z"/>
      <path fill="#231815" d="M52.37695,77.5v-4.53516c8.00977-7.35254,12.43555-10.64355,12.43555-15.17871,0-3-1.64551-4.68164-5.04688-4.68164-2.08496,0-4.13281.73145-5.96191,1.6084v-3.54688c2.26758-1.17139,4.75488-1.71973,7.20508-1.71973,5.15723,0,8.00977,3.14551,8.00977,7.79102,0,4.57129-2.63281,7.97363-12.58203,16.67773h13.42383v3.58496h-17.4834Z"/>
    </g>
  </symbol>
  <symbol id="T13" viewBox="0 0 100 100">
    <circle fill="#00b1dd" cx="50" cy="50" r="50"/>
    <circle fill="#fff" cx="50" cy="50" r="40"/>
    <path fill="#231815" d="M48.29492,41.875v-19.59912h-7.48047v-2.90283h18.37305v2.90283h-7.54102v19.59912h-3.35156Z"/>
    <g>
      <path fill="#231815" d="M38.00781,77.5v-23.48145l-6.91309,2.26758v-3.54785l8.26611-2.92627h2.66992v27.68799h-4.02295Z"/>
      <path fill="#231815" d="M52.74316,73.47656c1.28027.43848,3.36426,1.02441,5.66895,1.02441,4.79102,0,6.62012-1.97559,6.62012-4.82812,0-3.29199-2.34082-4.75488-6.51074-4.75488h-3.36426l.6582-3.25488h1.71875c4.42578,0,6.83984-1.5,6.83984-4.68164,0-2.63379-1.57324-3.9873-5.15723-3.9873-2.26758,0-4.38867.76855-5.7793,1.31641v-3.47461c2.19531-.91406,4.46289-1.35303,7.05957-1.35303,5.12012,0,7.86328,2.67041,7.86328,6.5835,0,3.10938-1.64551,5.63281-5.15723,6.73047,3.87695.69434,5.99902,3.21777,5.99902,6.80273,0,4.6084-3.43848,8.37598-10.27832,8.37598-2.85254,0-4.71777-.43945-6.18066-.98828v-3.51074Z"/>
    </g>
  </symbol>
</svg>