<?xml version="1.0" encoding="UTF-8"?>
<svg xmlns="http://www.w3.org/2000/svg" xmlns:xlink="http://www.w3.org/1999/xlink">
  <defs>
    <linearGradient id="HokkaidoGrad" x1="50" y1="0" x2="50" y2="100" gradientUnits="userSpaceOnUse">
      <stop offset=".575" stop-color="#75bb2a"/>
      <stop offset=".875" stop-color="#231815"/>
    </linearGradient>
  </defs>
  <symbol id="JRH" viewBox="0 0 100 100">
    <rect fill="url(#HokkaidoGrad)" width="100" height="100" rx="3.75" ry="3.75"/>
    <path fill="#fff" d="M0,80.5h100v-6.75H0v6.75ZM0,69.125h100v-3.375H0v3.375ZM0,59.5v1.625h100v-1.625H0Z"/>
    <path fill="#fff" d="M52.75,43.21997h47.25v-1.5h-34.5c-7,0-12.75,1.5-12.75,1.5Z"/>
    <path fill="#fff" d="M92.90002,32.46997h-7.55005c-.33136,0-.59998.26862-.59998.60004v5.54999c0,.33136.26862.59998.59998.59998h7.55005c.33136,0,.59998-.26862.59998-.59998v-5.54999c0-.33142-.26862-.60004-.59998-.60004ZM97.59998,32.46997c-.33136,0-.59998.26862-.59998.60004v5.54999c0,.33136.26862.59998.59998.59998h2.40002v-6.75h-2.40002Z"/>
    <path fill="#fff" d="M20.974,42.94995c1.672-.30396,4.396-.69196,7.28003-1.10199,3.48596-.49597,7.09198-1.01001,9.40796-1.45398,6.09204-.95001,12.21399-2.716,14.396-3.80603,2.12604-1.06396,10.646-5.83197,13.25604-7.85596l.02997-.02399c2.09998-1.73401,4.34399-2.23804,15.15601-2.23804h19.5v-2.5h-19.5c-11.08002,0-13.90601.47003-16.73401,2.79803-.47198.36597-1.16602.836-1.98798,1.35999-10.47198-3.112-16.77802,4.09198-16.77802,4.09198l-6.63,5.52399c-.37.06403-.742.12604-1.11597.18402l-.04401.008c-2.25403.43201-5.84003.94403-9.31,1.43604-2.90601.414-5.65405.80597-7.37402,1.11798-1.88202.34198-11.276,2.34796-11.276,8.22998,0,1.70001.84003,4.09204,4.84601,5.83398,1.13397.49402,2.34998.85004,3.41602,1.08203l-1.40002.68597c-.95001.46802-.61798,1.89801.44202,1.89801h83.44598v-7H35.79401c-4.51202,0-8.97998.76599-13.21802,2.25h-2.57599c-1.69202,0-8.25-1.47198-8.25-4.75,0-3.23798,6.034-5.19,9.224-5.77002ZM41.54797,36.34998l4.65601-3.89197c3.03802-2.604,6.33405-3.92603,9.79602-3.92603h2.10199c.67401,0,1.04004.47601,1.14801.88397.10797.40601.026,1-.56,1.336l-7.34998,4.20001c-1.14001.68402-4.41205,1.60602-9.21405,2.59802-.38599.08197-.64398-.14001-.75598-.37201-.112-.23401-.12598-.57397.17798-.828Z"/>
  </symbol>
  <symbol id="JRE" viewBox="0 0 100 100">
    <rect fill="#378640" height="100%" width="100%"/>
    <path fill="#fff" d="M69.02439,57.45644c4.28572,2.5784,8.08362,6.68989,9.40767,11.01046.62718,2.02091,0,4.32056-1.81185,6.41115-2.78746,3.17073-7.63066,5.05226-12.05575,6.09756-4.70383,1.11498-9.1986,1.70731-14.56446,1.74216-5.33101,0-11.63763-.80139-17.21254-2.43902-3.55401-1.14983-7.14286-2.75261-9.61672-5.67944-1.39373-1.67247-2.22997-4.25087-1.56794-6.09756,1.49826-4.28572,5.1568-8.7108,9.68641-11.18467,6.48084-3.58885,12.78746-3.93728,18.74565-4.04181,5.95819-.10453,13.34495.80139,19.02439,4.21603l-.03485-.03485ZM23.31011,68.4c-.55749,1.39373-.38327,2.61324.2439,3.8676.80139,1.60279,2.02091,2.85714,3.51916,3.83275,4.1115,2.61324,9.54704,3.79791,13.72822,4.49477,3.0662.45296,5.33101.66202,9.23345.66202s9.5122-.41812,14.14634-1.56794c3.13589-.76655,6.9338-2.22996,9.05923-3.72822,1.63763-1.11498,3.48432-3.10104,3.83275-5.54007.2439-1.70731-1.18467-3.90244-2.26481-5.60976-2.5784-4.04181-7.49129-6.96864-12.12544-8.4669-3.51917-1.11498-8.74565-1.70731-12.68293-1.67247-3.93728,0-8.78049.4878-12.3345,1.56794-6.41115,1.95122-11.84669,5.85366-14.39024,12.16028h.03485ZM66.30663,33.65853c.59233.97561,1.35888,2.40418,1.21951,3.58885-.20906,2.29965-2.61324,4.00697-5.05226,4.21603,1.98606-2.26481,3.3101-4.56446,3.83275-7.80488ZM34.63415,36.96864c.66202,1.63763,2.05575,3.48432,2.92683,4.49477-2.19512-.17422-4.56446-1.63763-4.98258-4.00697-.2439-1.11498.41812-2.68293,1.14983-3.79791.20906,1.0453.55749,2.43902.90592,3.3101ZM64.2,31.91637c.59233.27875.80139.76655.73171,1.67247-.38328,3.3101-2.29965,6.44599-4.91289,8.11847-3.0662.76655-6.62021.59233-10,.59233s-7.07317.13937-9.96516-.59233c-2.43902-1.5331-4.3554-4.56446-4.80836-7.4216-.13937-1.08014-.41812-1.91638.73171-2.43902,3.58885-1.5331,10.48781-2.02091,14.04181-2.02091s10.13937.38327,14.18118,2.05575v.03484ZM50.00001,26.02787c4.25087,0,8.01394.41812,10.45296,1.74216,1.21951.62718,2.36934,1.46341,2.92683,2.61324-3.93728-.80139-8.08362-1.46341-13.37979-1.49826s-10.13937.83624-13.37979,1.49826c.55749-1.11498,1.67247-1.88153,2.92683-2.61324,2.05575-1.18467,6.20209-1.74216,10.45296-1.74216h0ZM29.44251,13.0662c-2.29965.76655-4.1115,1.5331-5.50523,2.96167-1.42857,1.42857-1.95122,3.51916-1.777,5.43554.17422,2.05575.34843,4.21603.83624,6.23693,1.49826,6.58537,4.84321,11.67247,7.70035,16.62021-1.11498-.52265-2.05575-1.88153-2.8223-2.85714-3.76307-4.66899-6.96864-11.5331-7.94425-18.53659-1.81185,4.00697-2.92683,8.81533-3.27526,13.55401-.17422,2.36934.62718,4.91289.80139,7.03833.06969,1.0453-.62718,2.40418-1.5331,3.27526-4.00697,3.83275-6.16725,9.40766-6.06272,14.94774.06969,3.8676,1.67247,7.59582,4.32056,10.45296s6.16725,4.49477,9.61673,6.06272c9.02439,4.18118,19.7561,5.71428,26.27177,5.71428,6.55052-.03485,17.03833-1.56794,25.26132-5.26133,2.33449-1.0453,4.70383-2.09059,6.89896-3.44948,4.21603-2.68293,7.49128-7.14286,7.9791-12.19512.52265-5.78397-1.60279-11.95122-5.50523-15.71428-1.14983-1.11498-2.12544-2.40418-2.05575-3.90244.10453-1.84669.73171-3.83275.80139-5.6446.10453-3.27526-1.18467-10.52265-3.27526-14.84321-.90593,5.78397-3.10104,11.84669-6.27178,16.20209-1.2892,1.777-3.27526,4.70383-4.52962,5.1568,3.3101-5.85366,6.48084-10.83624,7.77004-16.89895.2439-1.18467.45296-2.36934.55749-3.55401.20906-2.36934.66202-4.32056-.73171-6.79443-1.2892-2.22997-4.07665-3.24042-6.34146-4.00697-5.22648-1.74216-14.1115-2.85714-20.59234-2.85714s-15.01742,1.0453-20.59233,2.85714h0ZM20.4,84.49477c2.09059,1.81185,4.98258,2.12544,7.59582,2.68293,7.83972.97561,16.02787,1.18467,22.0209,1.18467s9.26829-.10453,13.79791-.34843c3.37979-.20906,6.75958-.45296,10.06968-1.18467,1.49826-.34843,3.13589-.66202,4.49477-1.42857,3.34495-1.91638,5.05226-5.78397,6.16725-9.30313-9.72125,6.27178-23.44948,9.61673-34.52961,9.61673s-25.26132-3.48432-34.52962-9.61673c.41812,1.35888,1.70732,5.71428,4.91289,8.43205v-.03484Z"/>
  </symbol>
  <symbol id="JRC" viewBox="0 0 100 100">
    <rect fill="#231815" y="1" width="100" height="98" rx="13" ry="13"/>
    <rect fill="#007dc5" x="2" y="3" width="96" height="94" rx="11" ry="11"/>
    <path fill="#fff" d="M82.86025,72.55828l-32.86974,3.43213-32.86975-3.43213c-.32644-.03516-.5972.24731-.54801.57194.36334,2.39736,2.14598,10.75469,9.41776,11.61019,7,1,18,1.51919,24,1.51919s17-.51919,24-1.51919c7.27177-.85551,9.05441-9.21283,9.41775-11.61019.04919-.32462-.22157-.60709-.54801-.57194ZM79.25948,48.24041c-1.28062-.96047-.75-2,.875-1,.75.5,1.375.875,2.375,1.625.75.5,1,.125,1-.375,0-.75-.125-7.75-.125-11.5,0-4.125-.875-4-1.5-3.375-.5.5-1.25,1.375-1.875,1.875-6.125,4.625-13.375,9.5-17.25,11.5-1.25.75-2-.125-1-.875,3.5-2.5,8-5.25,11.26904-7.90946,5.85596-4.84054,7.98096-5.21554,9.98096-15.71554v-1.25c0-2-1.375-3.75-3.25-4.375-3.875-1.5-12.25-2.25-16.00948-2.25-3.11552-1.375-9.99052-2.875-13.75-2.875s-10.63448,1.5-13.75,2.875c-3.75948,0-12.13448.75-16.00948,2.25-1.875.625-3.25,2.375-3.25,4.375v1.25c2,10.5,4.125,10.875,9.98096,15.71554,3.26904,2.65946,7.76904,5.40946,11.26904,7.90946,1,.75.25,1.625-1,.875-3.875-2-11.125-6.875-17.25-11.5-.625-.5-1.375-1.375-1.875-1.875-.625-.625-1.5-.75-1.5,3.375,0,3.75-.125,10.75-.125,11.5,0,.5.25.875,1,.375,1-.75,1.625-1.125,2.375-1.625,1.625-1,2.15562.03953.875,1-4,3-5.75,10.5-5.75,14.5,0,4.14414.75,6.375,1.125,7.5.375,1.375,33.89397,4.25959,33.89397,4.25959,0,0,33.5-2.88459,33.875-4.25959.375-1.125,1.125-3.35586,1.125-7.5,0-4-1.75-11.5-5.75-14.5ZM49.99052,28.36541c-7,0-14.5-.125-14.875-.625-.875-1,.25-4.5,1-6.875.75-1.75,1.125-3.125,2.375-4.375,1.5-1.25,2.625,2.625,2.625,2.625,0,0,4.875-.875,8.875-.875s8.875.875,8.875.875c0,0,1.125-3.875,2.625-2.625,1.25,1.25,1.625,2.625,2.375,4.375.75,2.375,1.875,5.875,1,6.875-.375.5-7.875.625-14.875.625Z"/>
  </symbol>
  <symbol id="JRW" viewBox="0 0 100 100">
    <rect fill="#231815" width="100" height="100" rx="12" ry="12"/>
    <rect fill="#003b96" x="2" y="2" width="96" height="96" rx="10" ry="10"/>
    <rect fill="#fff" x="2" y="67" width="93.5" height="5"/>
    <path fill="#b5b5b6" d="M4.78519,58c2.2028,5.24941,12.69695,5.25,16.71481,5.25h74v-5.25H4.78519Z"/>
    <path fill="#fff" d="M67.25,31c-8,0-11.625,3.875-22.5,8-6.75,2.5-16.69067,4.8092-22.375,5.875-8,1.5-18,3.5-18,11,0,.0423.00256.08313.00336.125h91.12164v-25h-28.25ZM71,45.50562c0,2.30249-1.15125,2.49438-2.1106,2.49438h-2.49438c-.95941,0-2.11066-.19189-2.11066-2.49438v-2.87811c0-2.11066,1.15125-2.30249,2.11066-2.30249h2.49438c.95935,0,2.1106.19183,2.1106,2.49432v2.68628ZM81.71564,45.50562c0,2.30249-1.15125,2.49438-2.11066,2.49438h-2.49438c-.95935,0-2.1106-.19189-2.1106-2.49438v-2.87811c0-2.11066,1.15125-2.30249,2.1106-2.30249h2.49438c.95941,0,2.11066.19183,2.11066,2.49432v2.68628ZM92.5,45.50562c0,2.30249-1.15125,2.49438-2.1106,2.49438h-2.49438c-.95941,0-2.11066-.19189-2.11066-2.49438v-2.87811c0-2.11066,1.15125-2.30249,2.11066-2.30249h2.49438c.95935,0,2.1106.19183,2.1106,2.49432v2.68628ZM30.09735,41.43396c6.62415-1.56317,10.27301-2.58832,15.90265-4.93396,4.3125-1.79688,6.75421-2.90674,10.13574-4.53369.39209-.18866.24371-.7804-.19098-.76068-8.07874.36639-14.04718,1.1958-26.07196,9.73718-.24585.17462-.06891.56042.22455.49115Z"/>
  </symbol>
  <symbol id="JRK" viewBox="0 0 100 100">
    <rect fill="#003083" width="100" height="100" rx="7.5" ry="7.5"/>
    <g>
    <g>
      <path fill="#fff" d="M37.66523,63.97187c-5.14941,1.96191-9.85723,5.97539-13.24336,11.29648-2.40907,3.78563-2.21675,11.43052-.92937,17.74014.00305.00011.00469.00013.00469.00013,8.00281.99137,15.00281,1.11637,15.00281,1.11637l11-.11957v-32.25194c-3.4197.03571-6.81073.46008-11.83477,2.21838ZM46.75,86.25h-13.5c-.69036,0-1.25-.55964-1.25-1.25s.55964-1.25,1.25-1.25h13.5c.69036,0,1.25.55964,1.25,1.25s-.55964,1.25-1.25,1.25Z"/>
      <path fill="#fff" d="M75.57812,75.26836c-3.38613-5.32109-8.09395-9.33457-13.25605-11.30117-5.01193-1.75383-8.40239-2.178-11.82207-2.21371v32.25195l11,.11957s7-.125,15.00281-1.11637c0,0,.00164-.00002.00469-.00013,1.28738-6.30962,1.4797-13.9545-.92937-17.74014ZM66.75,86.25h-13.5c-.69036,0-1.25-.55964-1.25-1.25s.55964-1.25,1.25-1.25h13.5c.69036,0,1.25.55964,1.25,1.25s-.55964,1.25-1.25,1.25Z"/>
      <path fill="#fff" d="M88.5,53.5c-.5-3.5-1-6.5-3.25-16.75-1.25-4.75-3.0049-12.36106-3.25-13.25-.96506-3.5-1.40522-5.43208-2.5-7.5-4.5-8.5-10.5-8-20.5-8.75-2.9916-.22438-9-.25-9-.25,0,0-6.0084.02562-9,.25-10,.75-16,.25-20.5,8.75-1.09478,2.06792-1.53494,4-2.5,7.5-.2451.88894-2,8.5-3.25,13.25-2.25,10.25-2.75,13.25-3.25,16.75s-1,6.5-1,9.75c0,5.25.5,8.75,1.56079,11.75063,1.43921,4.49937,5.43921,12.49937,7.43921,14.99937,1.22146,1.46575,2.20269,2.21636,2.88772,2.60183-1.75958-8.98813-.51023-15.19763,1.19041-17.87019,3.50098-5.50156,8.38203-9.65625,13.74395-11.69883,4.69668-1.64414,8.24766-2.28281,12.67793-2.28281s7.98125.63867,12.66523,2.27813c5.37461,2.04727,10.25566,6.20195,13.75664,11.70352,1.70063,2.67256,2.94999,8.88206,1.19041,17.87019.68503-.38547,1.66626-1.13608,2.88772-2.60183,2-2.5,6-10.5,7.43921-14.99937,1.06079-3.00063,1.56079-6.50063,1.56079-11.75063,0-3.25-.5-6.25-1-9.75ZM12.14823,60.125c.06611-.74205.15205-1.48918.24982-2.25h5.35195l1.5,2.25h-7.10177ZM37.87565,55c-.12565.875-.125,1.625-1.25,2-1.25503.41833-3.84543.375-5.75.375-1.875,0-2.625-.625-3-2.875-.375-2-1-6.5-1.0318-8.31132-.0932-2.18868.0318-4.06368.1568-5.68868q.1178-1.63218.25-2.875c.1204-1.13191.4928-1.63218,1.125-1.75.7428-.13218.9928-.25718,1.7428-.13218.625.125,1.00656.5,1.375,1,1.13156,1.625,3.38156,5.25,4.3822,7.75718.62435,1.49282,1.37435,4.36782,1.75,6.25.24935,1.24282.37435,3.25.25,4.25ZM54.125,35.5c-1.1875,1.375-3.3125,1.5625-3.3125,1.5625,0,0-.3125.9375-.8125,1.1875-.5-.25-.8125-1.1875-.8125-1.1875,0,0-2.125-.1875-3.3125-1.5625-.5625-.625-.3125-1.125-.3125-1.125,0,0-.0625.1875.5625.625,1.3125.875,2.1875.9375,2.75,1-.125-1.125-.125-2.5.1875-3.1875,0,0,.4375,1.6875.9375,2.125.5-.4375.9375-2.125.9375-2.125.3125.6875.3125,2.0625.1875,3.1875.5625-.0625,1.4375-.125,2.75-1,.625-.4375.5625-.625.5625-.625,0,0,.25.5-.3125,1.125ZM73.15615,46.18868c-.0318,1.81132-.6568,6.31132-1.0318,8.31132-.375,2.25-1.125,2.875-3,2.875-1.90457,0-4.49497.04333-5.75-.375-1.125-.375-1.12435-1.125-1.25-2-.12435-1,.00065-3.00718.25-4.25.37565-1.88218,1.12565-4.75718,1.75-6.25,1.00065-2.50718,3.25065-6.13218,4.3822-7.75718.36844-.5.75-.875,1.375-1,.75-.125,1,0,1.7428.13218.6322.11782,1.0046.61809,1.125,1.75q.1322,1.24282.25,2.875c.125,1.625.25,3.5.1568,5.68868ZM80.2808,24.67242l-3.46823-1.05555c.09558,1.07537.1149,2.6007-.31257,3.88313-.75,2.25-2.5,2.5-4.25,2.75s-3.75.25-11.75.5c-4,.125-10.5.125-10.5.125,0,0-6.5,0-10.5-.125-8-.25-10-.25-11.75-.5s-3.5-.5-4.25-2.75c-.42748-1.28243-.40815-2.80776-.31257-3.88313l-3.46823,1.05554c-.22258.06775-.43414-.13359-.37847-.35951.0481-.19513.08409-.33723.10536-.41427.1332-.4834.25664-.93711.37305-1.36563.71133-2.61602,1.14043-4.19531,2.00664-5.83125,3.6668-6.92627,8.20527-7.22275,16.44414-7.76074.91191-.05957,1.85469-.12119,2.84238-.19521,2.87792-.21592,8.72524-.24507,8.8877-.24576-.00146-.00001-.00591-.00004-.00645-.00004h.01289c-.00054,0-.00498.00002-.00645.00004.16245.0007,6.00978.02985,8.8877.24576.9877.07402,1.93047.13564,2.84238.19521,8.23887.53799,12.77734.83447,16.44414,7.76074.86621,1.63594,1.29531,3.21523,2.00664,5.83125.11641.42852.23984.88223.37305,1.36563.02126.07704.05726.21914.10536.41427.05568.22592-.15588.42726-.37847.35952ZM80.75,60.125l1.5-2.25h5.35195c.09777.76082.1837,1.50795.24982,2.25h-7.10177Z"/>
      <polygon fill="#fff" points="49.99355 8.5 50 8.50004 50.00645 8.5 49.99355 8.5"/>
    </g>
    <g>
      <circle fill="#fff" cx="29.9625" cy="39.125" r="1.75"/>
      <circle fill="#fff" cx="31.875" cy="46.5" r="2"/>
      <circle fill="#fff" cx="33.25" cy="54.25" r="2"/>
      <circle fill="#fff" cx="70.0375" cy="39.125" r="1.75"/>
      <circle fill="#fff" cx="68.125" cy="46.5" r="2"/>
      <circle fill="#fff" cx="66.75" cy="54.25" r="2"/>
    </g>
  </g>
  </symbol>
  <symbol id="JRK-N" viewBox="0 0 100 100">
    <rect fill="#231815" x="0" y="0" width="100" height="100" rx="6.25" ry="6.25"/>
    <rect fill="#fff" x="3.5" y="65" width="96.5" height="4.5"/>
    <path fill="#fff" d="M28.09152,42.95455c1.20694-.17176,2.42482-.31874,3.65965-.44224,4.39082-.43906,14.61055-2.52129,16.45254-2.90059l7.58887-3.57121h0c-2.29316.13732-9.61418.62382-13.79258,1.4595-4.70466.94093-12.95074,4.9806-13.90848,5.45455Z"/>
    <path fill="#fff" d="M66,34l-17,8s-12,2.5-17,3-11,1.5-18.5,4-8.5,5.5-8.5,6.5,1,3.5,4,4.5,8,1.5,8,1.5l83-.5v-27h-34ZM89.5,39.5c0-.41425.33582-.75.75-.75h4c.41418,0,.75.33575.75.75v4c0,.41418-.33582.75-.75.75h-4c-.41418,0-.75-.33582-.75-.75v-4ZM78.5,39.5c0-.41425.33582-.75.75-.75h4c.41418,0,.75.33575.75.75v4c0,.41418-.33582.75-.75.75h-4c-.41418,0-.75-.33582-.75-.75v-4ZM68.5,39.5c0-.41425.33582-.75.75-.75h1.75c.41418,0,.75.33575.75.75v4c0,.41418-.33582.75-.75.75h-1.75c-.41418,0-.75-.33582-.75-.75v-4ZM60,46l10,3-43.5.5,33.5-3.5ZM99,56.5h-24.5l-3.5-1.5h28v1.5ZM99,53.5h-31l-8.25-2.75h39.25v2.75Z"/>
  </symbol>
</svg>