<?xml version="1.0" encoding="UTF-8"?>
<svg xmlns="http://www.w3.org/2000/svg" xmlns:xlink="http://www.w3.org/1999/xlink">
  <!-- DIC-221 -->
  <symbol id="SO" viewBox="0 0 90 90">
    <rect fill="#0067b0" width="90" height="90" rx="15" ry="15"/>
    <rect fill="#ff8e1f" x="5" y="67.875" width="80" height="3"/>
    <g>
      <path fill="#fff" d="M8.92969,54.04883c4.02295,1.92773,8.83691,3.75293,13.71729,3.75293,3.4292,0,7.12256-1.2168,7.12256-4.26074,0-7.91211-21.56543-7.75977-21.56543-18.81641,0-6.79688,7.78223-9.02832,15.36621-9.02832,3.82471,0,7.58398.40527,11.34277.96387v5.42676c-3.56104-1.31836-8.57324-2.38379-12.52979-2.38379-2.83594,0-6.19922,1.01465-6.19922,3.60059,0,6.84766,22.22461,7.25293,22.22461,18.10742,0,7.96289-8.11182,10.39746-17.14648,10.39746-4.2207,0-8.30957-.70996-12.33252-1.57227v-6.1875Z"/>
      <path fill="#fff" d="M43.15381,43.75293c0-9.68848,4.68213-18.05664,18.99268-18.05664,14.24512,0,18.99316,8.36816,18.99316,18.05664,0,9.6875-4.74805,18.05566-18.99316,18.05566-14.31055,0-18.99268-8.36816-18.99268-18.05566ZM72.03906,43.75293c0-5.12305-.79102-14.70898-9.89258-14.70898-9.10059,0-9.8916,9.58594-9.8916,14.70898,0,5.12207.79102,14.70801,9.8916,14.70801,9.10156,0,9.89258-9.58594,9.89258-14.70801Z"/>
    </g>
  </symbol>
  <symbol id="SO01" viewBox="0 0 90 90">
    <rect fill="#0067b0" width="90" height="90" rx="15" ry="15"/>
    <rect fill="#ff8e1f" x="5" y="37.5" width="80" height="3"/>
    <g>
      <path fill="#fff" d="M19.13574,26.62012c2.88477,1.23828,6.33691,2.41211,9.83594,2.41211,2.45898,0,5.10742-.78223,5.10742-2.73828,0-5.08691-15.46289-4.98926-15.46289-12.09766,0-4.37012,5.58008-5.80469,11.01758-5.80469,2.74316,0,5.43848.26074,8.13379.62012v3.48828c-2.55371-.84766-6.14746-1.53223-8.98535-1.53223-2.0332,0-4.44434.65234-4.44434,2.31543,0,4.40234,15.93555,4.66309,15.93555,11.64062,0,5.12012-5.81641,6.68457-12.29492,6.68457-3.02637,0-5.95801-.45605-8.84277-1.01074v-3.97754Z"/>
      <path fill="#fff" d="M43.67578,20c0-6.22754,3.35742-11.6084,13.61914-11.6084,10.21387,0,13.61816,5.38086,13.61816,11.6084,0,6.22852-3.4043,11.6084-13.61816,11.6084-10.26172,0-13.61914-5.37988-13.61914-11.6084ZM64.3877,20c0-3.29297-.56738-9.45605-7.09277-9.45605s-7.09277,6.16309-7.09277,9.45605c0,3.29395.56738,9.45703,7.09277,9.45703s7.09277-6.16309,7.09277-9.45703Z"/>
    </g>
    <g>
      <path fill="#fff" d="M16.28027,64.0957c0-11.00098,5.18262-19.25098,13.64453-19.25098,8.03906,0,13.22266,8.30273,13.22266,19.0918,0,10.8418-5.18359,19.19824-13.43359,19.19824-8.19727,0-13.43359-8.35645-13.43359-19.03906ZM38.07031,64.0957c0-9.57324-3.06836-15.44336-8.35645-15.44336-5.28906,0-8.35645,5.81738-8.35645,15.28418,0,9.36133,3.06738,15.28418,8.40918,15.28418,5.23535,0,8.30371-5.92285,8.30371-15.125Z"/>
      <path fill="#fff" d="M58.64453,82.5v-32.84277l-7.24512,3.01465-1.32227-3.17383,10.10156-4.01855h3.5957v37.02051h-5.12988Z"/>
    </g>
  </symbol>
  <symbol id="SO02" viewBox="0 0 90 90">
    <rect fill="#0067b0" width="90" height="90" rx="15" ry="15"/>
    <rect fill="#ff8e1f" x="5" y="37.5" width="80" height="3"/>
    <g>
      <path fill="#fff" d="M19.13574,26.62012c2.88477,1.23828,6.33691,2.41211,9.83594,2.41211,2.45898,0,5.10742-.78223,5.10742-2.73828,0-5.08691-15.46289-4.98926-15.46289-12.09766,0-4.37012,5.58008-5.80469,11.01758-5.80469,2.74316,0,5.43848.26074,8.13379.62012v3.48828c-2.55371-.84766-6.14746-1.53223-8.98535-1.53223-2.0332,0-4.44434.65234-4.44434,2.31543,0,4.40234,15.93555,4.66309,15.93555,11.64062,0,5.12012-5.81641,6.68457-12.29492,6.68457-3.02637,0-5.95801-.45605-8.84277-1.01074v-3.97754Z"/>
      <path fill="#fff" d="M43.67578,20c0-6.22754,3.35742-11.6084,13.61914-11.6084,10.21387,0,13.61816,5.38086,13.61816,11.6084,0,6.22852-3.4043,11.6084-13.61816,11.6084-10.26172,0-13.61914-5.37988-13.61914-11.6084ZM64.3877,20c0-3.29297-.56738-9.45605-7.09277-9.45605s-7.09277,6.16309-7.09277,9.45605c0,3.29395.56738,9.45703,7.09277,9.45703s7.09277-6.16309,7.09277-9.45703Z"/>
    </g>
    <g>
      <path fill="#fff" d="M16.28027,64.0957c0-11.00098,5.18262-19.25098,13.64453-19.25098,8.03906,0,13.22266,8.30273,13.22266,19.0918,0,10.8418-5.18359,19.19824-13.43359,19.19824-8.19727,0-13.43359-8.35645-13.43359-19.03906ZM38.07031,64.0957c0-9.57324-3.06836-15.44336-8.35645-15.44336-5.28906,0-8.35645,5.81738-8.35645,15.28418,0,9.36133,3.06738,15.28418,8.40918,15.28418,5.23535,0,8.30371-5.92285,8.30371-15.125Z"/>
      <path fill="#fff" d="M47.37988,82.5v-2.90918c4.70703-4.75977,10.25977-10.36523,13.22168-13.85645,4.125-4.86523,5.87012-7.77344,5.87012-10.94727,0-3.80762-2.96094-6.24023-6.29297-6.24023-2.64453,0-5.23633,1.26855-7.87988,4.07227l-2.53906-2.48633c2.90918-3.54297,7.03418-5.28809,11.31836-5.28809,5.60547,0,10.73535,3.4375,10.73535,9.625,0,4.86621-2.80273,8.35645-9.04395,15.23145-4.2832,4.8125-4.9707,5.44727-8.4082,8.72656h17.76953v4.07227h-24.75098Z"/>
    </g>
  </symbol>
  <symbol id="SO03" viewBox="0 0 90 90">
    <rect fill="#0067b0" width="90" height="90" rx="15" ry="15"/>
    <rect fill="#ff8e1f" x="5" y="37.5" width="80" height="3"/>
    <g>
      <path fill="#fff" d="M19.13574,26.62012c2.88477,1.23828,6.33691,2.41211,9.83594,2.41211,2.45898,0,5.10742-.78223,5.10742-2.73828,0-5.08691-15.46289-4.98926-15.46289-12.09766,0-4.37012,5.58008-5.80469,11.01758-5.80469,2.74316,0,5.43848.26074,8.13379.62012v3.48828c-2.55371-.84766-6.14746-1.53223-8.98535-1.53223-2.0332,0-4.44434.65234-4.44434,2.31543,0,4.40234,15.93555,4.66309,15.93555,11.64062,0,5.12012-5.81641,6.68457-12.29492,6.68457-3.02637,0-5.95801-.45605-8.84277-1.01074v-3.97754Z"/>
      <path fill="#fff" d="M43.67578,20c0-6.22754,3.35742-11.6084,13.61914-11.6084,10.21387,0,13.61816,5.38086,13.61816,11.6084,0,6.22852-3.4043,11.6084-13.61816,11.6084-10.26172,0-13.61914-5.37988-13.61914-11.6084ZM64.3877,20c0-3.29297-.56738-9.45605-7.09277-9.45605s-7.09277,6.16309-7.09277,9.45605c0,3.29395.56738,9.45703,7.09277,9.45703s7.09277-6.16309,7.09277-9.45703Z"/>
    </g>
    <g>
      <path fill="#fff" d="M16.28027,64.0957c0-11.00098,5.18262-19.25098,13.64453-19.25098,8.03906,0,13.22266,8.30273,13.22266,19.0918,0,10.8418-5.18359,19.19824-13.43359,19.19824-8.19727,0-13.43359-8.35645-13.43359-19.03906ZM38.07031,64.0957c0-9.57324-3.06836-15.44336-8.35645-15.44336-5.28906,0-8.35645,5.81738-8.35645,15.28418,0,9.36133,3.06738,15.28418,8.40918,15.28418,5.23535,0,8.30371-5.92285,8.30371-15.125Z"/>
      <path fill="#fff" d="M49.28418,80.96582l1.42773-3.27832c2.27441,1.16309,4.49512,2.00977,7.03418,2.00977,4.8125,0,8.03809-3.06738,8.03809-7.45703,0-3.06738-1.79785-5.76465-4.65332-6.7168-1.9043-.63477-3.01465-.79297-7.24609-.79297v-3.17383c2.53906-.1582,4.97168-.63477,6.82227-1.9043,1.9043-1.375,2.96191-3.54297,2.96191-5.76465,0-3.12012-1.90332-5.60547-5.65918-5.60547-2.43262,0-4.8125.6875-6.98047,2.27441l-1.69238-2.85645c2.9082-2.00977,6.34668-2.85547,9.57227-2.85547,6.0293,0,10.04883,3.27832,10.04883,8.46191,0,3.86035-2.00977,7.29785-6.7168,9.25488,6.0293.58203,9.04395,4.97168,9.04395,9.51953,0,6.34668-5.55371,11.05371-12.95801,11.05371-3.06738,0-6.45215-.5293-9.04297-2.16895Z"/>
    </g>
  </symbol>
  <symbol id="SO04" viewBox="0 0 90 90">
    <rect fill="#0067b0" width="90" height="90" rx="15" ry="15"/>
    <rect fill="#ff8e1f" x="5" y="37.5" width="80" height="3"/>
    <g>
      <path fill="#fff" d="M19.13574,26.62012c2.88477,1.23828,6.33691,2.41211,9.83594,2.41211,2.45898,0,5.10742-.78223,5.10742-2.73828,0-5.08691-15.46289-4.98926-15.46289-12.09766,0-4.37012,5.58008-5.80469,11.01758-5.80469,2.74316,0,5.43848.26074,8.13379.62012v3.48828c-2.55371-.84766-6.14746-1.53223-8.98535-1.53223-2.0332,0-4.44434.65234-4.44434,2.31543,0,4.40234,15.93555,4.66309,15.93555,11.64062,0,5.12012-5.81641,6.68457-12.29492,6.68457-3.02637,0-5.95801-.45605-8.84277-1.01074v-3.97754Z"/>
      <path fill="#fff" d="M43.67578,20c0-6.22754,3.35742-11.6084,13.61914-11.6084,10.21387,0,13.61816,5.38086,13.61816,11.6084,0,6.22852-3.4043,11.6084-13.61816,11.6084-10.26172,0-13.61914-5.37988-13.61914-11.6084ZM64.3877,20c0-3.29297-.56738-9.45605-7.09277-9.45605s-7.09277,6.16309-7.09277,9.45605c0,3.29395.56738,9.45703,7.09277,9.45703s7.09277-6.16309,7.09277-9.45703Z"/>
    </g>
    <g>
      <path fill="#fff" d="M16.28027,64.0957c0-11.00098,5.18262-19.25098,13.64453-19.25098,8.03906,0,13.22266,8.30273,13.22266,19.0918,0,10.8418-5.18359,19.19824-13.43359,19.19824-8.19727,0-13.43359-8.35645-13.43359-19.03906ZM38.07031,64.0957c0-9.57324-3.06836-15.44336-8.35645-15.44336-5.28906,0-8.35645,5.81738-8.35645,15.28418,0,9.36133,3.06738,15.28418,8.40918,15.28418,5.23535,0,8.30371-5.92285,8.30371-15.125Z"/>
      <path fill="#fff" d="M67.90039,71.92285v10.57715h-4.75977v-10.57715h-16.50098v-2.37988l18.19336-24.06348h3.06738v22.84668h4.75977v3.59668h-4.75977ZM63.14062,52.88281c-3.22656,4.6543-5.3418,7.45801-11.26562,15.44336h11.26562v-15.44336Z"/>
    </g>
  </symbol>
  <symbol id="SO05" viewBox="0 0 90 90">
    <rect fill="#0067b0" width="90" height="90" rx="15" ry="15"/>
    <rect fill="#ff8e1f" x="5" y="37.5" width="80" height="3"/>
    <g>
      <path fill="#fff" d="M19.13574,26.62012c2.88477,1.23828,6.33691,2.41211,9.83594,2.41211,2.45898,0,5.10742-.78223,5.10742-2.73828,0-5.08691-15.46289-4.98926-15.46289-12.09766,0-4.37012,5.58008-5.80469,11.01758-5.80469,2.74316,0,5.43848.26074,8.13379.62012v3.48828c-2.55371-.84766-6.14746-1.53223-8.98535-1.53223-2.0332,0-4.44434.65234-4.44434,2.31543,0,4.40234,15.93555,4.66309,15.93555,11.64062,0,5.12012-5.81641,6.68457-12.29492,6.68457-3.02637,0-5.95801-.45605-8.84277-1.01074v-3.97754Z"/>
      <path fill="#fff" d="M43.67578,20c0-6.22754,3.35742-11.6084,13.61914-11.6084,10.21387,0,13.61816,5.38086,13.61816,11.6084,0,6.22852-3.4043,11.6084-13.61816,11.6084-10.26172,0-13.61914-5.37988-13.61914-11.6084ZM64.3877,20c0-3.29297-.56738-9.45605-7.09277-9.45605s-7.09277,6.16309-7.09277,9.45605c0,3.29395.56738,9.45703,7.09277,9.45703s7.09277-6.16309,7.09277-9.45703Z"/>
    </g>
    <g>
      <path fill="#fff" d="M16.28027,64.0957c0-11.00098,5.18262-19.25098,13.64453-19.25098,8.03906,0,13.22266,8.30273,13.22266,19.0918,0,10.8418-5.18359,19.19824-13.43359,19.19824-8.19727,0-13.43359-8.35645-13.43359-19.03906ZM38.07031,64.0957c0-9.57324-3.06836-15.44336-8.35645-15.44336-5.28906,0-8.35645,5.81738-8.35645,15.28418,0,9.36133,3.06738,15.28418,8.40918,15.28418,5.23535,0,8.30371-5.92285,8.30371-15.125Z"/>
      <path fill="#fff" d="M69.01074,49.39258h-10.52441l-2.22168,9.04395c3.2793.37012,6.45215,1.42773,8.46191,2.64453,3.91406,2.43262,5.92383,5.87012,5.92383,9.99512,0,7.08691-5.71191,12.05859-13.53906,12.05859-3.49121,0-7.24609-1.375-9.83691-3.33203l1.85059-3.4375c2.5918,1.95703,5.28906,2.9082,8.14453,2.9082,4.38965,0,7.88086-3.06738,7.88086-7.66797,0-4.6543-2.75098-7.08691-6.66406-8.46191-3.33203-1.16406-6.76953-1.32227-7.19238-1.32227h-.42383l4.44238-16.3418h14.59766l-.89941,3.91309Z"/>
    </g>
  </symbol>
  <symbol id="SO06" viewBox="0 0 90 90">
    <rect fill="#0067b0" width="90" height="90" rx="15" ry="15"/>
    <rect fill="#ff8e1f" x="5" y="37.5" width="80" height="3"/>
    <g>
      <path fill="#fff" d="M19.13574,26.62012c2.88477,1.23828,6.33691,2.41211,9.83594,2.41211,2.45898,0,5.10742-.78223,5.10742-2.73828,0-5.08691-15.46289-4.98926-15.46289-12.09766,0-4.37012,5.58008-5.80469,11.01758-5.80469,2.74316,0,5.43848.26074,8.13379.62012v3.48828c-2.55371-.84766-6.14746-1.53223-8.98535-1.53223-2.0332,0-4.44434.65234-4.44434,2.31543,0,4.40234,15.93555,4.66309,15.93555,11.64062,0,5.12012-5.81641,6.68457-12.29492,6.68457-3.02637,0-5.95801-.45605-8.84277-1.01074v-3.97754Z"/>
      <path fill="#fff" d="M43.67578,20c0-6.22754,3.35742-11.6084,13.61914-11.6084,10.21387,0,13.61816,5.38086,13.61816,11.6084,0,6.22852-3.4043,11.6084-13.61816,11.6084-10.26172,0-13.61914-5.37988-13.61914-11.6084ZM64.3877,20c0-3.29297-.56738-9.45605-7.09277-9.45605s-7.09277,6.16309-7.09277,9.45605c0,3.29395.56738,9.45703,7.09277,9.45703s7.09277-6.16309,7.09277-9.45703Z"/>
    </g>
    <g>
      <path fill="#fff" d="M16.28027,64.0957c0-11.00098,5.18262-19.25098,13.64453-19.25098,8.03906,0,13.22266,8.30273,13.22266,19.0918,0,10.8418-5.18359,19.19824-13.43359,19.19824-8.19727,0-13.43359-8.35645-13.43359-19.03906ZM38.07031,64.0957c0-9.57324-3.06836-15.44336-8.35645-15.44336-5.28906,0-8.35645,5.81738-8.35645,15.28418,0,9.36133,3.06738,15.28418,8.40918,15.28418,5.23535,0,8.30371-5.92285,8.30371-15.125Z"/>
      <path fill="#fff" d="M47.96191,70.01855c0-13.16895,9.73145-23.74609,22.31836-25.17383v3.27832c-7.51074,1.11133-13.64551,7.03418-15.81348,14.17383,2.11523-1.85059,4.60156-2.59082,7.4043-2.59082,5.87012,0,10.78906,4.65332,10.78906,11.10547,0,7.03418-5.28906,12.32324-12.48145,12.32324-7.77441,0-12.2168-5.92383-12.2168-13.11621ZM67.31836,71.23535c0-5.07715-2.64453-8.30371-6.92871-8.30371-4.17773,0-6.98047,3.17383-6.98047,8.14453,0,5.18359,2.64453,8.88477,6.875,8.88477,4.23145,0,7.03418-3.54297,7.03418-8.72559Z"/>
    </g>
  </symbol>
  <symbol id="SO07" viewBox="0 0 90 90">
    <rect fill="#0067b0" width="90" height="90" rx="15" ry="15"/>
    <rect fill="#ff8e1f" x="5" y="37.5" width="80" height="3"/>
    <g>
      <path fill="#fff" d="M19.13574,26.62012c2.88477,1.23828,6.33691,2.41211,9.83594,2.41211,2.45898,0,5.10742-.78223,5.10742-2.73828,0-5.08691-15.46289-4.98926-15.46289-12.09766,0-4.37012,5.58008-5.80469,11.01758-5.80469,2.74316,0,5.43848.26074,8.13379.62012v3.48828c-2.55371-.84766-6.14746-1.53223-8.98535-1.53223-2.0332,0-4.44434.65234-4.44434,2.31543,0,4.40234,15.93555,4.66309,15.93555,11.64062,0,5.12012-5.81641,6.68457-12.29492,6.68457-3.02637,0-5.95801-.45605-8.84277-1.01074v-3.97754Z"/>
      <path fill="#fff" d="M43.67578,20c0-6.22754,3.35742-11.6084,13.61914-11.6084,10.21387,0,13.61816,5.38086,13.61816,11.6084,0,6.22852-3.4043,11.6084-13.61816,11.6084-10.26172,0-13.61914-5.37988-13.61914-11.6084ZM64.3877,20c0-3.29297-.56738-9.45605-7.09277-9.45605s-7.09277,6.16309-7.09277,9.45605c0,3.29395.56738,9.45703,7.09277,9.45703s7.09277-6.16309,7.09277-9.45703Z"/>
    </g>
    <g>
      <path fill="#fff" d="M16.28027,64.0957c0-11.00098,5.18262-19.25098,13.64453-19.25098,8.03906,0,13.22266,8.30273,13.22266,19.0918,0,10.8418-5.18359,19.19824-13.43359,19.19824-8.19727,0-13.43359-8.35645-13.43359-19.03906ZM38.07031,64.0957c0-9.57324-3.06836-15.44336-8.35645-15.44336-5.28906,0-8.35645,5.81738-8.35645,15.28418,0,9.36133,3.06738,15.28418,8.40918,15.28418,5.23535,0,8.30371-5.92285,8.30371-15.125Z"/>
      <path fill="#fff" d="M55.89453,82.97559l-4.75977-1.16309,16.65918-32.36719h-17.45215v-3.96582h22.89941v3.12012l-17.34668,34.37598Z"/>
    </g>
  </symbol>
  <symbol id="SO08" viewBox="0 0 90 90">
    <rect fill="#0067b0" width="90" height="90" rx="15" ry="15"/>
    <rect fill="#ff8e1f" x="5" y="37.5" width="80" height="3"/>
    <g>
      <path fill="#fff" d="M19.13574,26.62012c2.88477,1.23828,6.33691,2.41211,9.83594,2.41211,2.45898,0,5.10742-.78223,5.10742-2.73828,0-5.08691-15.46289-4.98926-15.46289-12.09766,0-4.37012,5.58008-5.80469,11.01758-5.80469,2.74316,0,5.43848.26074,8.13379.62012v3.48828c-2.55371-.84766-6.14746-1.53223-8.98535-1.53223-2.0332,0-4.44434.65234-4.44434,2.31543,0,4.40234,15.93555,4.66309,15.93555,11.64062,0,5.12012-5.81641,6.68457-12.29492,6.68457-3.02637,0-5.95801-.45605-8.84277-1.01074v-3.97754Z"/>
      <path fill="#fff" d="M43.67578,20c0-6.22754,3.35742-11.6084,13.61914-11.6084,10.21387,0,13.61816,5.38086,13.61816,11.6084,0,6.22852-3.4043,11.6084-13.61816,11.6084-10.26172,0-13.61914-5.37988-13.61914-11.6084ZM64.3877,20c0-3.29297-.56738-9.45605-7.09277-9.45605s-7.09277,6.16309-7.09277,9.45605c0,3.29395.56738,9.45703,7.09277,9.45703s7.09277-6.16309,7.09277-9.45703Z"/>
    </g>
    <g>
      <path fill="#fff" d="M16.28027,64.0957c0-11.00098,5.18262-19.25098,13.64453-19.25098,8.03906,0,13.22266,8.30273,13.22266,19.0918,0,10.8418-5.18359,19.19824-13.43359,19.19824-8.19727,0-13.43359-8.35645-13.43359-19.03906ZM38.07031,64.0957c0-9.57324-3.06836-15.44336-8.35645-15.44336-5.28906,0-8.35645,5.81738-8.35645,15.28418,0,9.36133,3.06738,15.28418,8.40918,15.28418,5.23535,0,8.30371-5.92285,8.30371-15.125Z"/>
      <path fill="#fff" d="M47.69727,72.92773c0-5.12988,3.2793-7.77441,7.77441-10.31348-3.75488-2.00977-6.29395-4.60059-6.29395-8.88477,0-5.92285,5.55371-8.88477,10.89551-8.88477,6.82227,0,10.8418,3.91309,10.8418,8.40918,0,4.33594-3.06738,6.92773-7.08691,9.14941,4.70703,2.16797,8.7793,4.8125,8.7793,10.3125,0,6.0293-5.28906,10.41895-12.64062,10.41895-7.29785,0-12.26953-4.28418-12.26953-10.20703ZM67.21289,72.875c0-4.28418-3.64941-6.39941-7.88086-8.35645-3.4375,1.85059-6.24023,4.38965-6.24023,8.35645,0,4.07227,2.5918,7.0332,6.875,7.0332,4.125,0,7.24609-3.22559,7.24609-7.0332ZM65.83789,53.30664c0-2.48633-2.00977-5.39453-5.87109-5.39453-3.75488,0-5.76465,3.06738-5.76465,5.60547,0,3.59668,2.43262,5.60645,5.81738,7.03418,3.01465-1.42773,5.81836-3.4375,5.81836-7.24512Z"/>
    </g>
  </symbol>
  <symbol id="SO09" viewBox="0 0 90 90">
    <rect fill="#0067b0" width="90" height="90" rx="15" ry="15"/>
    <rect fill="#ff8e1f" x="5" y="37.5" width="80" height="3"/>
    <g>
      <path fill="#fff" d="M19.13574,26.62012c2.88477,1.23828,6.33691,2.41211,9.83594,2.41211,2.45898,0,5.10742-.78223,5.10742-2.73828,0-5.08691-15.46289-4.98926-15.46289-12.09766,0-4.37012,5.58008-5.80469,11.01758-5.80469,2.74316,0,5.43848.26074,8.13379.62012v3.48828c-2.55371-.84766-6.14746-1.53223-8.98535-1.53223-2.0332,0-4.44434.65234-4.44434,2.31543,0,4.40234,15.93555,4.66309,15.93555,11.64062,0,5.12012-5.81641,6.68457-12.29492,6.68457-3.02637,0-5.95801-.45605-8.84277-1.01074v-3.97754Z"/>
      <path fill="#fff" d="M43.67578,20c0-6.22754,3.35742-11.6084,13.61914-11.6084,10.21387,0,13.61816,5.38086,13.61816,11.6084,0,6.22852-3.4043,11.6084-13.61816,11.6084-10.26172,0-13.61914-5.37988-13.61914-11.6084ZM64.3877,20c0-3.29297-.56738-9.45605-7.09277-9.45605s-7.09277,6.16309-7.09277,9.45605c0,3.29395.56738,9.45703,7.09277,9.45703s7.09277-6.16309,7.09277-9.45703Z"/>
    </g>
    <g>
      <path fill="#fff" d="M16.28027,64.0957c0-11.00098,5.18262-19.25098,13.64453-19.25098,8.03906,0,13.22266,8.30273,13.22266,19.0918,0,10.8418-5.18359,19.19824-13.43359,19.19824-8.19727,0-13.43359-8.35645-13.43359-19.03906ZM38.07031,64.0957c0-9.57324-3.06836-15.44336-8.35645-15.44336-5.28906,0-8.35645,5.81738-8.35645,15.28418,0,9.36133,3.06738,15.28418,8.40918,15.28418,5.23535,0,8.30371-5.92285,8.30371-15.125Z"/>
      <path fill="#fff" d="M47.75,56.84961c0-6.92773,5.44727-12.00488,12.37598-12.00488,7.66797,0,12.32227,5.23535,12.32227,12.9043,0,16.23633-11.89941,24.22168-22.42383,25.38574v-3.38477c6.98047-1.26953,13.43359-5.5,15.91895-13.80371-1.375,1.32227-4.07227,2.48535-6.66406,2.48535-7.29785,0-11.5293-5.44727-11.5293-11.58203ZM66.94824,56.90234c0-5.23535-2.64453-8.72559-6.92871-8.72559-4.01953,0-6.92773,3.33105-6.92773,8.46191,0,5.07715,2.75,8.46191,6.98145,8.46191,4.07227,0,6.875-3.43848,6.875-8.19824Z"/>
    </g>
  </symbol>
  <symbol id="SO10" viewBox="0 0 90 90">
    <rect fill="#0067b0" width="90" height="90" rx="15" ry="15"/>
    <rect fill="#ff8e1f" x="5" y="37.5" width="80" height="3"/>
    <g>
      <path fill="#fff" d="M19.13574,26.62012c2.88477,1.23828,6.33691,2.41211,9.83594,2.41211,2.45898,0,5.10742-.78223,5.10742-2.73828,0-5.08691-15.46289-4.98926-15.46289-12.09766,0-4.37012,5.58008-5.80469,11.01758-5.80469,2.74316,0,5.43848.26074,8.13379.62012v3.48828c-2.55371-.84766-6.14746-1.53223-8.98535-1.53223-2.0332,0-4.44434.65234-4.44434,2.31543,0,4.40234,15.93555,4.66309,15.93555,11.64062,0,5.12012-5.81641,6.68457-12.29492,6.68457-3.02637,0-5.95801-.45605-8.84277-1.01074v-3.97754Z"/>
      <path fill="#fff" d="M43.67578,20c0-6.22754,3.35742-11.6084,13.61914-11.6084,10.21387,0,13.61816,5.38086,13.61816,11.6084,0,6.22852-3.4043,11.6084-13.61816,11.6084-10.26172,0-13.61914-5.37988-13.61914-11.6084ZM64.3877,20c0-3.29297-.56738-9.45605-7.09277-9.45605s-7.09277,6.16309-7.09277,9.45605c0,3.29395.56738,9.45703,7.09277,9.45703s7.09277-6.16309,7.09277-9.45703Z"/>
    </g>
    <g>
      <path fill="#fff" d="M28.17969,82.5v-32.84277l-7.24512,3.01465-1.32227-3.17383,10.10156-4.01855h3.5957v37.02051h-5.12988Z"/>
      <path fill="#fff" d="M46.74512,64.0957c0-11.00098,5.18262-19.25098,13.64453-19.25098,8.03906,0,13.22266,8.30273,13.22266,19.0918,0,10.8418-5.18359,19.19824-13.43359,19.19824-8.19727,0-13.43359-8.35645-13.43359-19.03906ZM68.53516,64.0957c0-9.57324-3.06836-15.44336-8.35645-15.44336-5.28906,0-8.35645,5.81738-8.35645,15.28418,0,9.36133,3.06738,15.28418,8.40918,15.28418,5.23535,0,8.30371-5.92285,8.30371-15.125Z"/>
    </g>
  </symbol>
  <symbol id="SO11" viewBox="0 0 90 90">
    <rect fill="#0067b0" width="90" height="90" rx="15" ry="15"/>
    <rect fill="#ff8e1f" x="5" y="37.5" width="80" height="3"/>
    <g>
      <path fill="#fff" d="M19.13574,26.62012c2.88477,1.23828,6.33691,2.41211,9.83594,2.41211,2.45898,0,5.10742-.78223,5.10742-2.73828,0-5.08691-15.46289-4.98926-15.46289-12.09766,0-4.37012,5.58008-5.80469,11.01758-5.80469,2.74316,0,5.43848.26074,8.13379.62012v3.48828c-2.55371-.84766-6.14746-1.53223-8.98535-1.53223-2.0332,0-4.44434.65234-4.44434,2.31543,0,4.40234,15.93555,4.66309,15.93555,11.64062,0,5.12012-5.81641,6.68457-12.29492,6.68457-3.02637,0-5.95801-.45605-8.84277-1.01074v-3.97754Z"/>
      <path fill="#fff" d="M43.67578,20c0-6.22754,3.35742-11.6084,13.61914-11.6084,10.21387,0,13.61816,5.38086,13.61816,11.6084,0,6.22852-3.4043,11.6084-13.61816,11.6084-10.26172,0-13.61914-5.37988-13.61914-11.6084ZM64.3877,20c0-3.29297-.56738-9.45605-7.09277-9.45605s-7.09277,6.16309-7.09277,9.45605c0,3.29395.56738,9.45703,7.09277,9.45703s7.09277-6.16309,7.09277-9.45703Z"/>
    </g>
    <g>
      <path fill="#fff" d="M28.17969,82.5v-32.84277l-7.24512,3.01465-1.32227-3.17383,10.10156-4.01855h3.5957v37.02051h-5.12988Z"/>
      <path fill="#fff" d="M58.64453,82.5v-32.84277l-7.24512,3.01465-1.32227-3.17383,10.10156-4.01855h3.5957v37.02051h-5.12988Z"/>
    </g>
  </symbol>
  <symbol id="SO12" viewBox="0 0 90 90">
    <rect fill="#0067b0" width="90" height="90" rx="15" ry="15"/>
    <rect fill="#ff8e1f" x="5" y="37.5" width="80" height="3"/>
    <g>
      <path fill="#fff" d="M19.13574,26.62012c2.88477,1.23828,6.33691,2.41211,9.83594,2.41211,2.45898,0,5.10742-.78223,5.10742-2.73828,0-5.08691-15.46289-4.98926-15.46289-12.09766,0-4.37012,5.58008-5.80469,11.01758-5.80469,2.74316,0,5.43848.26074,8.13379.62012v3.48828c-2.55371-.84766-6.14746-1.53223-8.98535-1.53223-2.0332,0-4.44434.65234-4.44434,2.31543,0,4.40234,15.93555,4.66309,15.93555,11.64062,0,5.12012-5.81641,6.68457-12.29492,6.68457-3.02637,0-5.95801-.45605-8.84277-1.01074v-3.97754Z"/>
      <path fill="#fff" d="M43.67578,20c0-6.22754,3.35742-11.6084,13.61914-11.6084,10.21387,0,13.61816,5.38086,13.61816,11.6084,0,6.22852-3.4043,11.6084-13.61816,11.6084-10.26172,0-13.61914-5.37988-13.61914-11.6084ZM64.3877,20c0-3.29297-.56738-9.45605-7.09277-9.45605s-7.09277,6.16309-7.09277,9.45605c0,3.29395.56738,9.45703,7.09277,9.45703s7.09277-6.16309,7.09277-9.45703Z"/>
    </g>
    <g>
      <path fill="#fff" d="M28.17969,82.5v-32.84277l-7.24512,3.01465-1.32227-3.17383,10.10156-4.01855h3.5957v37.02051h-5.12988Z"/>
      <path fill="#fff" d="M47.37988,82.5v-2.90918c4.70703-4.75977,10.25977-10.36523,13.22168-13.85645,4.125-4.86523,5.87012-7.77344,5.87012-10.94727,0-3.80762-2.96094-6.24023-6.29297-6.24023-2.64453,0-5.23633,1.26855-7.87988,4.07227l-2.53906-2.48633c2.90918-3.54297,7.03418-5.28809,11.31836-5.28809,5.60547,0,10.73535,3.4375,10.73535,9.625,0,4.86621-2.80273,8.35645-9.04395,15.23145-4.2832,4.8125-4.9707,5.44727-8.4082,8.72656h17.76953v4.07227h-24.75098Z"/>
    </g>
  </symbol>
  <symbol id="SO13" viewBox="0 0 90 90">
    <rect fill="#0067b0" width="90" height="90" rx="15" ry="15"/>
    <rect fill="#ff8e1f" x="5" y="37.5" width="80" height="3"/>
    <g>
      <path fill="#fff" d="M19.13574,26.62012c2.88477,1.23828,6.33691,2.41211,9.83594,2.41211,2.45898,0,5.10742-.78223,5.10742-2.73828,0-5.08691-15.46289-4.98926-15.46289-12.09766,0-4.37012,5.58008-5.80469,11.01758-5.80469,2.74316,0,5.43848.26074,8.13379.62012v3.48828c-2.55371-.84766-6.14746-1.53223-8.98535-1.53223-2.0332,0-4.44434.65234-4.44434,2.31543,0,4.40234,15.93555,4.66309,15.93555,11.64062,0,5.12012-5.81641,6.68457-12.29492,6.68457-3.02637,0-5.95801-.45605-8.84277-1.01074v-3.97754Z"/>
      <path fill="#fff" d="M43.67578,20c0-6.22754,3.35742-11.6084,13.61914-11.6084,10.21387,0,13.61816,5.38086,13.61816,11.6084,0,6.22852-3.4043,11.6084-13.61816,11.6084-10.26172,0-13.61914-5.37988-13.61914-11.6084ZM64.3877,20c0-3.29297-.56738-9.45605-7.09277-9.45605s-7.09277,6.16309-7.09277,9.45605c0,3.29395.56738,9.45703,7.09277,9.45703s7.09277-6.16309,7.09277-9.45703Z"/>
    </g>
    <g>
      <path fill="#fff" d="M28.17969,82.5v-32.84277l-7.24512,3.01465-1.32227-3.17383,10.10156-4.01855h3.5957v37.02051h-5.12988Z"/>
      <path fill="#fff" d="M49.28418,80.96582l1.42773-3.27832c2.27441,1.16309,4.49512,2.00977,7.03418,2.00977,4.8125,0,8.03809-3.06738,8.03809-7.45703,0-3.06738-1.79785-5.76465-4.65332-6.7168-1.9043-.63477-3.01465-.79297-7.24609-.79297v-3.17383c2.53906-.1582,4.97168-.63477,6.82227-1.9043,1.9043-1.375,2.96191-3.54297,2.96191-5.76465,0-3.12012-1.90332-5.60547-5.65918-5.60547-2.43262,0-4.8125.6875-6.98047,2.27441l-1.69238-2.85645c2.9082-2.00977,6.34668-2.85547,9.57227-2.85547,6.0293,0,10.04883,3.27832,10.04883,8.46191,0,3.86035-2.00977,7.29785-6.7168,9.25488,6.0293.58203,9.04395,4.97168,9.04395,9.51953,0,6.34668-5.55371,11.05371-12.95801,11.05371-3.06738,0-6.45215-.5293-9.04297-2.16895Z"/>
    </g>
  </symbol>
  <symbol id="SO14" viewBox="0 0 90 90">
    <rect fill="#0067b0" width="90" height="90" rx="15" ry="15"/>
    <rect fill="#ff8e1f" x="5" y="37.5" width="80" height="3"/>
    <g>
      <path fill="#fff" d="M19.13574,26.62012c2.88477,1.23828,6.33691,2.41211,9.83594,2.41211,2.45898,0,5.10742-.78223,5.10742-2.73828,0-5.08691-15.46289-4.98926-15.46289-12.09766,0-4.37012,5.58008-5.80469,11.01758-5.80469,2.74316,0,5.43848.26074,8.13379.62012v3.48828c-2.55371-.84766-6.14746-1.53223-8.98535-1.53223-2.0332,0-4.44434.65234-4.44434,2.31543,0,4.40234,15.93555,4.66309,15.93555,11.64062,0,5.12012-5.81641,6.68457-12.29492,6.68457-3.02637,0-5.95801-.45605-8.84277-1.01074v-3.97754Z"/>
      <path fill="#fff" d="M43.67578,20c0-6.22754,3.35742-11.6084,13.61914-11.6084,10.21387,0,13.61816,5.38086,13.61816,11.6084,0,6.22852-3.4043,11.6084-13.61816,11.6084-10.26172,0-13.61914-5.37988-13.61914-11.6084ZM64.3877,20c0-3.29297-.56738-9.45605-7.09277-9.45605s-7.09277,6.16309-7.09277,9.45605c0,3.29395.56738,9.45703,7.09277,9.45703s7.09277-6.16309,7.09277-9.45703Z"/>
    </g>
    <g>
      <path fill="#fff" d="M28.17969,82.5v-32.84277l-7.24512,3.01465-1.32227-3.17383,10.10156-4.01855h3.5957v37.02051h-5.12988Z"/>
      <path fill="#fff" d="M67.90039,71.92285v10.57715h-4.75977v-10.57715h-16.50098v-2.37988l18.19336-24.06348h3.06738v22.84668h4.75977v3.59668h-4.75977ZM63.14062,52.88281c-3.22656,4.6543-5.3418,7.45801-11.26562,15.44336h11.26562v-15.44336Z"/>
    </g>
  </symbol>
  <symbol id="SO15" viewBox="0 0 90 90">
    <rect fill="#0067b0" width="90" height="90" rx="15" ry="15"/>
    <rect fill="#ff8e1f" x="5" y="37.5" width="80" height="3"/>
    <g>
      <path fill="#fff" d="M19.13574,26.62012c2.88477,1.23828,6.33691,2.41211,9.83594,2.41211,2.45898,0,5.10742-.78223,5.10742-2.73828,0-5.08691-15.46289-4.98926-15.46289-12.09766,0-4.37012,5.58008-5.80469,11.01758-5.80469,2.74316,0,5.43848.26074,8.13379.62012v3.48828c-2.55371-.84766-6.14746-1.53223-8.98535-1.53223-2.0332,0-4.44434.65234-4.44434,2.31543,0,4.40234,15.93555,4.66309,15.93555,11.64062,0,5.12012-5.81641,6.68457-12.29492,6.68457-3.02637,0-5.95801-.45605-8.84277-1.01074v-3.97754Z"/>
      <path fill="#fff" d="M43.67578,20c0-6.22754,3.35742-11.6084,13.61914-11.6084,10.21387,0,13.61816,5.38086,13.61816,11.6084,0,6.22852-3.4043,11.6084-13.61816,11.6084-10.26172,0-13.61914-5.37988-13.61914-11.6084ZM64.3877,20c0-3.29297-.56738-9.45605-7.09277-9.45605s-7.09277,6.16309-7.09277,9.45605c0,3.29395.56738,9.45703,7.09277,9.45703s7.09277-6.16309,7.09277-9.45703Z"/>
    </g>
    <g>
      <path fill="#fff" d="M28.17969,82.5v-32.84277l-7.24512,3.01465-1.32227-3.17383,10.10156-4.01855h3.5957v37.02051h-5.12988Z"/>
      <path fill="#fff" d="M69.01074,49.39258h-10.52441l-2.22168,9.04395c3.2793.37012,6.45215,1.42773,8.46191,2.64453,3.91406,2.43262,5.92383,5.87012,5.92383,9.99512,0,7.08691-5.71191,12.05859-13.53906,12.05859-3.49121,0-7.24609-1.375-9.83691-3.33203l1.85059-3.4375c2.5918,1.95703,5.28906,2.9082,8.14453,2.9082,4.38965,0,7.88086-3.06738,7.88086-7.66797,0-4.6543-2.75098-7.08691-6.66406-8.46191-3.33203-1.16406-6.76953-1.32227-7.19238-1.32227h-.42383l4.44238-16.3418h14.59766l-.89941,3.91309Z"/>
    </g>
  </symbol>
  <symbol id="SO16" viewBox="0 0 90 90">
    <rect fill="#0067b0" width="90" height="90" rx="15" ry="15"/>
    <rect fill="#ff8e1f" x="5" y="37.5" width="80" height="3"/>
    <g>
      <path fill="#fff" d="M19.13574,26.62012c2.88477,1.23828,6.33691,2.41211,9.83594,2.41211,2.45898,0,5.10742-.78223,5.10742-2.73828,0-5.08691-15.46289-4.98926-15.46289-12.09766,0-4.37012,5.58008-5.80469,11.01758-5.80469,2.74316,0,5.43848.26074,8.13379.62012v3.48828c-2.55371-.84766-6.14746-1.53223-8.98535-1.53223-2.0332,0-4.44434.65234-4.44434,2.31543,0,4.40234,15.93555,4.66309,15.93555,11.64062,0,5.12012-5.81641,6.68457-12.29492,6.68457-3.02637,0-5.95801-.45605-8.84277-1.01074v-3.97754Z"/>
      <path fill="#fff" d="M43.67578,20c0-6.22754,3.35742-11.6084,13.61914-11.6084,10.21387,0,13.61816,5.38086,13.61816,11.6084,0,6.22852-3.4043,11.6084-13.61816,11.6084-10.26172,0-13.61914-5.37988-13.61914-11.6084ZM64.3877,20c0-3.29297-.56738-9.45605-7.09277-9.45605s-7.09277,6.16309-7.09277,9.45605c0,3.29395.56738,9.45703,7.09277,9.45703s7.09277-6.16309,7.09277-9.45703Z"/>
    </g>
    <g>
      <path fill="#fff" d="M28.17969,82.5v-32.84277l-7.24512,3.01465-1.32227-3.17383,10.10156-4.01855h3.5957v37.02051h-5.12988Z"/>
      <path fill="#fff" d="M47.96191,70.01855c0-13.16895,9.73145-23.74609,22.31836-25.17383v3.27832c-7.51074,1.11133-13.64551,7.03418-15.81348,14.17383,2.11523-1.85059,4.60156-2.59082,7.4043-2.59082,5.87012,0,10.78906,4.65332,10.78906,11.10547,0,7.03418-5.28906,12.32324-12.48145,12.32324-7.77441,0-12.2168-5.92383-12.2168-13.11621ZM67.31836,71.23535c0-5.07715-2.64453-8.30371-6.92871-8.30371-4.17773,0-6.98047,3.17383-6.98047,8.14453,0,5.18359,2.64453,8.88477,6.875,8.88477,4.23145,0,7.03418-3.54297,7.03418-8.72559Z"/>
    </g>
  </symbol>
  <symbol id="SO17" viewBox="0 0 90 90">
    <rect fill="#0067b0" width="90" height="90" rx="15" ry="15"/>
    <rect fill="#ff8e1f" x="5" y="37.5" width="80" height="3"/>
    <g>
      <path fill="#fff" d="M19.13574,26.62012c2.88477,1.23828,6.33691,2.41211,9.83594,2.41211,2.45898,0,5.10742-.78223,5.10742-2.73828,0-5.08691-15.46289-4.98926-15.46289-12.09766,0-4.37012,5.58008-5.80469,11.01758-5.80469,2.74316,0,5.43848.26074,8.13379.62012v3.48828c-2.55371-.84766-6.14746-1.53223-8.98535-1.53223-2.0332,0-4.44434.65234-4.44434,2.31543,0,4.40234,15.93555,4.66309,15.93555,11.64062,0,5.12012-5.81641,6.68457-12.29492,6.68457-3.02637,0-5.95801-.45605-8.84277-1.01074v-3.97754Z"/>
      <path fill="#fff" d="M43.67578,20c0-6.22754,3.35742-11.6084,13.61914-11.6084,10.21387,0,13.61816,5.38086,13.61816,11.6084,0,6.22852-3.4043,11.6084-13.61816,11.6084-10.26172,0-13.61914-5.37988-13.61914-11.6084ZM64.3877,20c0-3.29297-.56738-9.45605-7.09277-9.45605s-7.09277,6.16309-7.09277,9.45605c0,3.29395.56738,9.45703,7.09277,9.45703s7.09277-6.16309,7.09277-9.45703Z"/>
    </g>
    <g>
      <path fill="#fff" d="M28.17969,82.5v-32.84277l-7.24512,3.01465-1.32227-3.17383,10.10156-4.01855h3.5957v37.02051h-5.12988Z"/>
      <path fill="#fff" d="M55.89453,82.97559l-4.75977-1.16309,16.65918-32.36719h-17.45215v-3.96582h22.89941v3.12012l-17.34668,34.37598Z"/>
    </g>
  </symbol>
  <symbol id="SO18" viewBox="0 0 90 90">
    <rect fill="#0067b0" width="90" height="90" rx="15" ry="15"/>
    <rect fill="#ff8e1f" x="5" y="37.5" width="80" height="3"/>
    <g>
      <path fill="#fff" d="M19.13574,26.62012c2.88477,1.23828,6.33691,2.41211,9.83594,2.41211,2.45898,0,5.10742-.78223,5.10742-2.73828,0-5.08691-15.46289-4.98926-15.46289-12.09766,0-4.37012,5.58008-5.80469,11.01758-5.80469,2.74316,0,5.43848.26074,8.13379.62012v3.48828c-2.55371-.84766-6.14746-1.53223-8.98535-1.53223-2.0332,0-4.44434.65234-4.44434,2.31543,0,4.40234,15.93555,4.66309,15.93555,11.64062,0,5.12012-5.81641,6.68457-12.29492,6.68457-3.02637,0-5.95801-.45605-8.84277-1.01074v-3.97754Z"/>
      <path fill="#fff" d="M43.67578,20c0-6.22754,3.35742-11.6084,13.61914-11.6084,10.21387,0,13.61816,5.38086,13.61816,11.6084,0,6.22852-3.4043,11.6084-13.61816,11.6084-10.26172,0-13.61914-5.37988-13.61914-11.6084ZM64.3877,20c0-3.29297-.56738-9.45605-7.09277-9.45605s-7.09277,6.16309-7.09277,9.45605c0,3.29395.56738,9.45703,7.09277,9.45703s7.09277-6.16309,7.09277-9.45703Z"/>
    </g>
    <g>
      <path fill="#fff" d="M28.17969,82.5v-32.84277l-7.24512,3.01465-1.32227-3.17383,10.10156-4.01855h3.5957v37.02051h-5.12988Z"/>
      <path fill="#fff" d="M47.69727,72.92773c0-5.12988,3.2793-7.77441,7.77441-10.31348-3.75488-2.00977-6.29395-4.60059-6.29395-8.88477,0-5.92285,5.55371-8.88477,10.89551-8.88477,6.82227,0,10.8418,3.91309,10.8418,8.40918,0,4.33594-3.06738,6.92773-7.08691,9.14941,4.70703,2.16797,8.7793,4.8125,8.7793,10.3125,0,6.0293-5.28906,10.41895-12.64062,10.41895-7.29785,0-12.26953-4.28418-12.26953-10.20703ZM67.21289,72.875c0-4.28418-3.64941-6.39941-7.88086-8.35645-3.4375,1.85059-6.24023,4.38965-6.24023,8.35645,0,4.07227,2.5918,7.0332,6.875,7.0332,4.125,0,7.24609-3.22559,7.24609-7.0332ZM65.83789,53.30664c0-2.48633-2.00977-5.39453-5.87109-5.39453-3.75488,0-5.76465,3.06738-5.76465,5.60547,0,3.59668,2.43262,5.60645,5.81738,7.03418,3.01465-1.42773,5.81836-3.4375,5.81836-7.24512Z"/>
    </g>
  </symbol>
  <symbol id="SO31" viewBox="0 0 90 90">
    <rect fill="#0067b0" width="90" height="90" rx="15" ry="15"/>
    <rect fill="#ff8e1f" x="5" y="37.5" width="80" height="3"/>
    <g>
      <path fill="#fff" d="M19.13574,26.62012c2.88477,1.23828,6.33691,2.41211,9.83594,2.41211,2.45898,0,5.10742-.78223,5.10742-2.73828,0-5.08691-15.46289-4.98926-15.46289-12.09766,0-4.37012,5.58008-5.80469,11.01758-5.80469,2.74316,0,5.43848.26074,8.13379.62012v3.48828c-2.55371-.84766-6.14746-1.53223-8.98535-1.53223-2.0332,0-4.44434.65234-4.44434,2.31543,0,4.40234,15.93555,4.66309,15.93555,11.64062,0,5.12012-5.81641,6.68457-12.29492,6.68457-3.02637,0-5.95801-.45605-8.84277-1.01074v-3.97754Z"/>
      <path fill="#fff" d="M43.67578,20c0-6.22754,3.35742-11.6084,13.61914-11.6084,10.21387,0,13.61816,5.38086,13.61816,11.6084,0,6.22852-3.4043,11.6084-13.61816,11.6084-10.26172,0-13.61914-5.37988-13.61914-11.6084ZM64.3877,20c0-3.29297-.56738-9.45605-7.09277-9.45605s-7.09277,6.16309-7.09277,9.45605c0,3.29395.56738,9.45703,7.09277,9.45703s7.09277-6.16309,7.09277-9.45703Z"/>
    </g>
    <g>
      <path fill="#fff" d="M18.81934,80.96582l1.42773-3.27832c2.27441,1.16309,4.49512,2.00977,7.03418,2.00977,4.8125,0,8.03809-3.06738,8.03809-7.45703,0-3.06738-1.79785-5.76465-4.65332-6.7168-1.9043-.63477-3.01465-.79297-7.24609-.79297v-3.17383c2.53906-.1582,4.97168-.63477,6.82227-1.9043,1.9043-1.375,2.96191-3.54297,2.96191-5.76465,0-3.12012-1.90332-5.60547-5.65918-5.60547-2.43262,0-4.8125.6875-6.98047,2.27441l-1.69238-2.85645c2.9082-2.00977,6.34668-2.85547,9.57227-2.85547,6.0293,0,10.04883,3.27832,10.04883,8.46191,0,3.86035-2.00977,7.29785-6.7168,9.25488,6.0293.58203,9.04395,4.97168,9.04395,9.51953,0,6.34668-5.55371,11.05371-12.95801,11.05371-3.06738,0-6.45215-.5293-9.04297-2.16895Z"/>
      <path fill="#fff" d="M58.64453,82.5v-32.84277l-7.24512,3.01465-1.32227-3.17383,10.10156-4.01855h3.5957v37.02051h-5.12988Z"/>
    </g>
  </symbol>
  <symbol id="SO32" viewBox="0 0 90 90">
    <rect fill="#0067b0" width="90" height="90" rx="15" ry="15"/>
    <rect fill="#ff8e1f" x="5" y="37.5" width="80" height="3"/>
    <g>
      <path fill="#fff" d="M19.13574,26.62012c2.88477,1.23828,6.33691,2.41211,9.83594,2.41211,2.45898,0,5.10742-.78223,5.10742-2.73828,0-5.08691-15.46289-4.98926-15.46289-12.09766,0-4.37012,5.58008-5.80469,11.01758-5.80469,2.74316,0,5.43848.26074,8.13379.62012v3.48828c-2.55371-.84766-6.14746-1.53223-8.98535-1.53223-2.0332,0-4.44434.65234-4.44434,2.31543,0,4.40234,15.93555,4.66309,15.93555,11.64062,0,5.12012-5.81641,6.68457-12.29492,6.68457-3.02637,0-5.95801-.45605-8.84277-1.01074v-3.97754Z"/>
      <path fill="#fff" d="M43.67578,20c0-6.22754,3.35742-11.6084,13.61914-11.6084,10.21387,0,13.61816,5.38086,13.61816,11.6084,0,6.22852-3.4043,11.6084-13.61816,11.6084-10.26172,0-13.61914-5.37988-13.61914-11.6084ZM64.3877,20c0-3.29297-.56738-9.45605-7.09277-9.45605s-7.09277,6.16309-7.09277,9.45605c0,3.29395.56738,9.45703,7.09277,9.45703s7.09277-6.16309,7.09277-9.45703Z"/>
    </g>
    <g>
      <path fill="#fff" d="M18.81934,80.96582l1.42773-3.27832c2.27441,1.16309,4.49512,2.00977,7.03418,2.00977,4.8125,0,8.03809-3.06738,8.03809-7.45703,0-3.06738-1.79785-5.76465-4.65332-6.7168-1.9043-.63477-3.01465-.79297-7.24609-.79297v-3.17383c2.53906-.1582,4.97168-.63477,6.82227-1.9043,1.9043-1.375,2.96191-3.54297,2.96191-5.76465,0-3.12012-1.90332-5.60547-5.65918-5.60547-2.43262,0-4.8125.6875-6.98047,2.27441l-1.69238-2.85645c2.9082-2.00977,6.34668-2.85547,9.57227-2.85547,6.0293,0,10.04883,3.27832,10.04883,8.46191,0,3.86035-2.00977,7.29785-6.7168,9.25488,6.0293.58203,9.04395,4.97168,9.04395,9.51953,0,6.34668-5.55371,11.05371-12.95801,11.05371-3.06738,0-6.45215-.5293-9.04297-2.16895Z"/>
      <path fill="#fff" d="M47.37988,82.5v-2.90918c4.70703-4.75977,10.25977-10.36523,13.22168-13.85645,4.125-4.86523,5.87012-7.77344,5.87012-10.94727,0-3.80762-2.96094-6.24023-6.29297-6.24023-2.64453,0-5.23633,1.26855-7.87988,4.07227l-2.53906-2.48633c2.90918-3.54297,7.03418-5.28809,11.31836-5.28809,5.60547,0,10.73535,3.4375,10.73535,9.625,0,4.86621-2.80273,8.35645-9.04395,15.23145-4.2832,4.8125-4.9707,5.44727-8.4082,8.72656h17.76953v4.07227h-24.75098Z"/>
    </g>
  </symbol>
  <symbol id="SO33" viewBox="0 0 90 90">
    <rect fill="#0067b0" width="90" height="90" rx="15" ry="15"/>
    <rect fill="#ff8e1f" x="5" y="37.5" width="80" height="3"/>
    <g>
      <path fill="#fff" d="M19.13574,26.62012c2.88477,1.23828,6.33691,2.41211,9.83594,2.41211,2.45898,0,5.10742-.78223,5.10742-2.73828,0-5.08691-15.46289-4.98926-15.46289-12.09766,0-4.37012,5.58008-5.80469,11.01758-5.80469,2.74316,0,5.43848.26074,8.13379.62012v3.48828c-2.55371-.84766-6.14746-1.53223-8.98535-1.53223-2.0332,0-4.44434.65234-4.44434,2.31543,0,4.40234,15.93555,4.66309,15.93555,11.64062,0,5.12012-5.81641,6.68457-12.29492,6.68457-3.02637,0-5.95801-.45605-8.84277-1.01074v-3.97754Z"/>
      <path fill="#fff" d="M43.67578,20c0-6.22754,3.35742-11.6084,13.61914-11.6084,10.21387,0,13.61816,5.38086,13.61816,11.6084,0,6.22852-3.4043,11.6084-13.61816,11.6084-10.26172,0-13.61914-5.37988-13.61914-11.6084ZM64.3877,20c0-3.29297-.56738-9.45605-7.09277-9.45605s-7.09277,6.16309-7.09277,9.45605c0,3.29395.56738,9.45703,7.09277,9.45703s7.09277-6.16309,7.09277-9.45703Z"/>
    </g>
    <g>
      <path fill="#fff" d="M18.81934,80.96582l1.42773-3.27832c2.27441,1.16309,4.49512,2.00977,7.03418,2.00977,4.8125,0,8.03809-3.06738,8.03809-7.45703,0-3.06738-1.79785-5.76465-4.65332-6.7168-1.9043-.63477-3.01465-.79297-7.24609-.79297v-3.17383c2.53906-.1582,4.97168-.63477,6.82227-1.9043,1.9043-1.375,2.96191-3.54297,2.96191-5.76465,0-3.12012-1.90332-5.60547-5.65918-5.60547-2.43262,0-4.8125.6875-6.98047,2.27441l-1.69238-2.85645c2.9082-2.00977,6.34668-2.85547,9.57227-2.85547,6.0293,0,10.04883,3.27832,10.04883,8.46191,0,3.86035-2.00977,7.29785-6.7168,9.25488,6.0293.58203,9.04395,4.97168,9.04395,9.51953,0,6.34668-5.55371,11.05371-12.95801,11.05371-3.06738,0-6.45215-.5293-9.04297-2.16895Z"/>
      <path fill="#fff" d="M49.28418,80.96582l1.42773-3.27832c2.27441,1.16309,4.49512,2.00977,7.03418,2.00977,4.8125,0,8.03809-3.06738,8.03809-7.45703,0-3.06738-1.79785-5.76465-4.65332-6.7168-1.9043-.63477-3.01465-.79297-7.24609-.79297v-3.17383c2.53906-.1582,4.97168-.63477,6.82227-1.9043,1.9043-1.375,2.96191-3.54297,2.96191-5.76465,0-3.12012-1.90332-5.60547-5.65918-5.60547-2.43262,0-4.8125.6875-6.98047,2.27441l-1.69238-2.85645c2.9082-2.00977,6.34668-2.85547,9.57227-2.85547,6.0293,0,10.04883,3.27832,10.04883,8.46191,0,3.86035-2.00977,7.29785-6.7168,9.25488,6.0293.58203,9.04395,4.97168,9.04395,9.51953,0,6.34668-5.55371,11.05371-12.95801,11.05371-3.06738,0-6.45215-.5293-9.04297-2.16895Z"/>
    </g>
  </symbol>
  <symbol id="SO34" viewBox="0 0 90 90">
    <rect fill="#0067b0" width="90" height="90" rx="15" ry="15"/>
    <rect fill="#ff8e1f" x="5" y="37.5" width="80" height="3"/>
    <g>
      <path fill="#fff" d="M19.13574,26.62012c2.88477,1.23828,6.33691,2.41211,9.83594,2.41211,2.45898,0,5.10742-.78223,5.10742-2.73828,0-5.08691-15.46289-4.98926-15.46289-12.09766,0-4.37012,5.58008-5.80469,11.01758-5.80469,2.74316,0,5.43848.26074,8.13379.62012v3.48828c-2.55371-.84766-6.14746-1.53223-8.98535-1.53223-2.0332,0-4.44434.65234-4.44434,2.31543,0,4.40234,15.93555,4.66309,15.93555,11.64062,0,5.12012-5.81641,6.68457-12.29492,6.68457-3.02637,0-5.95801-.45605-8.84277-1.01074v-3.97754Z"/>
      <path fill="#fff" d="M43.67578,20c0-6.22754,3.35742-11.6084,13.61914-11.6084,10.21387,0,13.61816,5.38086,13.61816,11.6084,0,6.22852-3.4043,11.6084-13.61816,11.6084-10.26172,0-13.61914-5.37988-13.61914-11.6084ZM64.3877,20c0-3.29297-.56738-9.45605-7.09277-9.45605s-7.09277,6.16309-7.09277,9.45605c0,3.29395.56738,9.45703,7.09277,9.45703s7.09277-6.16309,7.09277-9.45703Z"/>
    </g>
    <g>
      <path fill="#fff" d="M18.81934,80.96582l1.42773-3.27832c2.27441,1.16309,4.49512,2.00977,7.03418,2.00977,4.8125,0,8.03809-3.06738,8.03809-7.45703,0-3.06738-1.79785-5.76465-4.65332-6.7168-1.9043-.63477-3.01465-.79297-7.24609-.79297v-3.17383c2.53906-.1582,4.97168-.63477,6.82227-1.9043,1.9043-1.375,2.96191-3.54297,2.96191-5.76465,0-3.12012-1.90332-5.60547-5.65918-5.60547-2.43262,0-4.8125.6875-6.98047,2.27441l-1.69238-2.85645c2.9082-2.00977,6.34668-2.85547,9.57227-2.85547,6.0293,0,10.04883,3.27832,10.04883,8.46191,0,3.86035-2.00977,7.29785-6.7168,9.25488,6.0293.58203,9.04395,4.97168,9.04395,9.51953,0,6.34668-5.55371,11.05371-12.95801,11.05371-3.06738,0-6.45215-.5293-9.04297-2.16895Z"/>
      <path fill="#fff" d="M67.90039,71.92285v10.57715h-4.75977v-10.57715h-16.50098v-2.37988l18.19336-24.06348h3.06738v22.84668h4.75977v3.59668h-4.75977ZM63.14062,52.88281c-3.22656,4.6543-5.3418,7.45801-11.26562,15.44336h11.26562v-15.44336Z"/>
    </g>
  </symbol>
  <symbol id="SO35" viewBox="0 0 90 90">
    <rect fill="#0067b0" width="90" height="90" rx="15" ry="15"/>
    <rect fill="#ff8e1f" x="5" y="37.5" width="80" height="3"/>
    <g>
      <path fill="#fff" d="M19.13574,26.62012c2.88477,1.23828,6.33691,2.41211,9.83594,2.41211,2.45898,0,5.10742-.78223,5.10742-2.73828,0-5.08691-15.46289-4.98926-15.46289-12.09766,0-4.37012,5.58008-5.80469,11.01758-5.80469,2.74316,0,5.43848.26074,8.13379.62012v3.48828c-2.55371-.84766-6.14746-1.53223-8.98535-1.53223-2.0332,0-4.44434.65234-4.44434,2.31543,0,4.40234,15.93555,4.66309,15.93555,11.64062,0,5.12012-5.81641,6.68457-12.29492,6.68457-3.02637,0-5.95801-.45605-8.84277-1.01074v-3.97754Z"/>
      <path fill="#fff" d="M43.67578,20c0-6.22754,3.35742-11.6084,13.61914-11.6084,10.21387,0,13.61816,5.38086,13.61816,11.6084,0,6.22852-3.4043,11.6084-13.61816,11.6084-10.26172,0-13.61914-5.37988-13.61914-11.6084ZM64.3877,20c0-3.29297-.56738-9.45605-7.09277-9.45605s-7.09277,6.16309-7.09277,9.45605c0,3.29395.56738,9.45703,7.09277,9.45703s7.09277-6.16309,7.09277-9.45703Z"/>
    </g>
    <g>
      <path fill="#fff" d="M18.81934,80.96582l1.42773-3.27832c2.27441,1.16309,4.49512,2.00977,7.03418,2.00977,4.8125,0,8.03809-3.06738,8.03809-7.45703,0-3.06738-1.79785-5.76465-4.65332-6.7168-1.9043-.63477-3.01465-.79297-7.24609-.79297v-3.17383c2.53906-.1582,4.97168-.63477,6.82227-1.9043,1.9043-1.375,2.96191-3.54297,2.96191-5.76465,0-3.12012-1.90332-5.60547-5.65918-5.60547-2.43262,0-4.8125.6875-6.98047,2.27441l-1.69238-2.85645c2.9082-2.00977,6.34668-2.85547,9.57227-2.85547,6.0293,0,10.04883,3.27832,10.04883,8.46191,0,3.86035-2.00977,7.29785-6.7168,9.25488,6.0293.58203,9.04395,4.97168,9.04395,9.51953,0,6.34668-5.55371,11.05371-12.95801,11.05371-3.06738,0-6.45215-.5293-9.04297-2.16895Z"/>
      <path fill="#fff" d="M69.01074,49.39258h-10.52441l-2.22168,9.04395c3.2793.37012,6.45215,1.42773,8.46191,2.64453,3.91406,2.43262,5.92383,5.87012,5.92383,9.99512,0,7.08691-5.71191,12.05859-13.53906,12.05859-3.49121,0-7.24609-1.375-9.83691-3.33203l1.85059-3.4375c2.5918,1.95703,5.28906,2.9082,8.14453,2.9082,4.38965,0,7.88086-3.06738,7.88086-7.66797,0-4.6543-2.75098-7.08691-6.66406-8.46191-3.33203-1.16406-6.76953-1.32227-7.19238-1.32227h-.42383l4.44238-16.3418h14.59766l-.89941,3.91309Z"/>
    </g>
  </symbol>
  <symbol id="SO36" viewBox="0 0 90 90">
    <rect fill="#0067b0" width="90" height="90" rx="15" ry="15"/>
    <rect fill="#ff8e1f" x="5" y="37.5" width="80" height="3"/>
    <g>
      <path fill="#fff" d="M19.13574,26.62012c2.88477,1.23828,6.33691,2.41211,9.83594,2.41211,2.45898,0,5.10742-.78223,5.10742-2.73828,0-5.08691-15.46289-4.98926-15.46289-12.09766,0-4.37012,5.58008-5.80469,11.01758-5.80469,2.74316,0,5.43848.26074,8.13379.62012v3.48828c-2.55371-.84766-6.14746-1.53223-8.98535-1.53223-2.0332,0-4.44434.65234-4.44434,2.31543,0,4.40234,15.93555,4.66309,15.93555,11.64062,0,5.12012-5.81641,6.68457-12.29492,6.68457-3.02637,0-5.95801-.45605-8.84277-1.01074v-3.97754Z"/>
      <path fill="#fff" d="M43.67578,20c0-6.22754,3.35742-11.6084,13.61914-11.6084,10.21387,0,13.61816,5.38086,13.61816,11.6084,0,6.22852-3.4043,11.6084-13.61816,11.6084-10.26172,0-13.61914-5.37988-13.61914-11.6084ZM64.3877,20c0-3.29297-.56738-9.45605-7.09277-9.45605s-7.09277,6.16309-7.09277,9.45605c0,3.29395.56738,9.45703,7.09277,9.45703s7.09277-6.16309,7.09277-9.45703Z"/>
    </g>
    <g>
      <path fill="#fff" d="M18.81934,80.96582l1.42773-3.27832c2.27441,1.16309,4.49512,2.00977,7.03418,2.00977,4.8125,0,8.03809-3.06738,8.03809-7.45703,0-3.06738-1.79785-5.76465-4.65332-6.7168-1.9043-.63477-3.01465-.79297-7.24609-.79297v-3.17383c2.53906-.1582,4.97168-.63477,6.82227-1.9043,1.9043-1.375,2.96191-3.54297,2.96191-5.76465,0-3.12012-1.90332-5.60547-5.65918-5.60547-2.43262,0-4.8125.6875-6.98047,2.27441l-1.69238-2.85645c2.9082-2.00977,6.34668-2.85547,9.57227-2.85547,6.0293,0,10.04883,3.27832,10.04883,8.46191,0,3.86035-2.00977,7.29785-6.7168,9.25488,6.0293.58203,9.04395,4.97168,9.04395,9.51953,0,6.34668-5.55371,11.05371-12.95801,11.05371-3.06738,0-6.45215-.5293-9.04297-2.16895Z"/>
      <path fill="#fff" d="M47.96191,70.01855c0-13.16895,9.73145-23.74609,22.31836-25.17383v3.27832c-7.51074,1.11133-13.64551,7.03418-15.81348,14.17383,2.11523-1.85059,4.60156-2.59082,7.4043-2.59082,5.87012,0,10.78906,4.65332,10.78906,11.10547,0,7.03418-5.28906,12.32324-12.48145,12.32324-7.77441,0-12.2168-5.92383-12.2168-13.11621ZM67.31836,71.23535c0-5.07715-2.64453-8.30371-6.92871-8.30371-4.17773,0-6.98047,3.17383-6.98047,8.14453,0,5.18359,2.64453,8.88477,6.875,8.88477,4.23145,0,7.03418-3.54297,7.03418-8.72559Z"/>
    </g>
  </symbol>
  <symbol id="SO37" viewBox="0 0 90 90">
    <rect fill="#0067b0" width="90" height="90" rx="15" ry="15"/>
    <rect fill="#ff8e1f" x="5" y="37.5" width="80" height="3"/>
    <g>
      <path fill="#fff" d="M19.13574,26.62012c2.88477,1.23828,6.33691,2.41211,9.83594,2.41211,2.45898,0,5.10742-.78223,5.10742-2.73828,0-5.08691-15.46289-4.98926-15.46289-12.09766,0-4.37012,5.58008-5.80469,11.01758-5.80469,2.74316,0,5.43848.26074,8.13379.62012v3.48828c-2.55371-.84766-6.14746-1.53223-8.98535-1.53223-2.0332,0-4.44434.65234-4.44434,2.31543,0,4.40234,15.93555,4.66309,15.93555,11.64062,0,5.12012-5.81641,6.68457-12.29492,6.68457-3.02637,0-5.95801-.45605-8.84277-1.01074v-3.97754Z"/>
      <path fill="#fff" d="M43.67578,20c0-6.22754,3.35742-11.6084,13.61914-11.6084,10.21387,0,13.61816,5.38086,13.61816,11.6084,0,6.22852-3.4043,11.6084-13.61816,11.6084-10.26172,0-13.61914-5.37988-13.61914-11.6084ZM64.3877,20c0-3.29297-.56738-9.45605-7.09277-9.45605s-7.09277,6.16309-7.09277,9.45605c0,3.29395.56738,9.45703,7.09277,9.45703s7.09277-6.16309,7.09277-9.45703Z"/>
    </g>
    <g>
      <path fill="#fff" d="M18.81934,80.96582l1.42773-3.27832c2.27441,1.16309,4.49512,2.00977,7.03418,2.00977,4.8125,0,8.03809-3.06738,8.03809-7.45703,0-3.06738-1.79785-5.76465-4.65332-6.7168-1.9043-.63477-3.01465-.79297-7.24609-.79297v-3.17383c2.53906-.1582,4.97168-.63477,6.82227-1.9043,1.9043-1.375,2.96191-3.54297,2.96191-5.76465,0-3.12012-1.90332-5.60547-5.65918-5.60547-2.43262,0-4.8125.6875-6.98047,2.27441l-1.69238-2.85645c2.9082-2.00977,6.34668-2.85547,9.57227-2.85547,6.0293,0,10.04883,3.27832,10.04883,8.46191,0,3.86035-2.00977,7.29785-6.7168,9.25488,6.0293.58203,9.04395,4.97168,9.04395,9.51953,0,6.34668-5.55371,11.05371-12.95801,11.05371-3.06738,0-6.45215-.5293-9.04297-2.16895Z"/>
      <path fill="#fff" d="M55.89453,82.97559l-4.75977-1.16309,16.65918-32.36719h-17.45215v-3.96582h22.89941v3.12012l-17.34668,34.37598Z"/>
    </g>
  </symbol>
  <symbol id="SO51" viewBox="0 0 90 90">
    <rect fill="#0067b0" width="90" height="90" rx="15" ry="15"/>
    <rect fill="#ff8e1f" x="5" y="37.5" width="80" height="3"/>
    <g>
      <path fill="#fff" d="M19.13574,26.62012c2.88477,1.23828,6.33691,2.41211,9.83594,2.41211,2.45898,0,5.10742-.78223,5.10742-2.73828,0-5.08691-15.46289-4.98926-15.46289-12.09766,0-4.37012,5.58008-5.80469,11.01758-5.80469,2.74316,0,5.43848.26074,8.13379.62012v3.48828c-2.55371-.84766-6.14746-1.53223-8.98535-1.53223-2.0332,0-4.44434.65234-4.44434,2.31543,0,4.40234,15.93555,4.66309,15.93555,11.64062,0,5.12012-5.81641,6.68457-12.29492,6.68457-3.02637,0-5.95801-.45605-8.84277-1.01074v-3.97754Z"/>
      <path fill="#fff" d="M43.67578,20c0-6.22754,3.35742-11.6084,13.61914-11.6084,10.21387,0,13.61816,5.38086,13.61816,11.6084,0,6.22852-3.4043,11.6084-13.61816,11.6084-10.26172,0-13.61914-5.37988-13.61914-11.6084ZM64.3877,20c0-3.29297-.56738-9.45605-7.09277-9.45605s-7.09277,6.16309-7.09277,9.45605c0,3.29395.56738,9.45703,7.09277,9.45703s7.09277-6.16309,7.09277-9.45703Z"/>
    </g>
    <g>
      <path fill="#fff" d="M38.5459,49.39258h-10.52441l-2.22168,9.04395c3.2793.37012,6.45215,1.42773,8.46191,2.64453,3.91406,2.43262,5.92383,5.87012,5.92383,9.99512,0,7.08691-5.71191,12.05859-13.53906,12.05859-3.49121,0-7.24609-1.375-9.83691-3.33203l1.85059-3.4375c2.5918,1.95703,5.28906,2.9082,8.14453,2.9082,4.38965,0,7.88086-3.06738,7.88086-7.66797,0-4.6543-2.75098-7.08691-6.66406-8.46191-3.33203-1.16406-6.76953-1.32227-7.19238-1.32227h-.42383l4.44238-16.3418h14.59766l-.89941,3.91309Z"/>
      <path fill="#fff" d="M58.64453,82.5v-32.84277l-7.24512,3.01465-1.32227-3.17383,10.10156-4.01855h3.5957v37.02051h-5.12988Z"/>
    </g>
  </symbol>
  <symbol id="SO52" viewBox="0 0 90 90">
    <rect fill="#0067b0" width="90" height="90" rx="15" ry="15"/>
    <rect fill="#ff8e1f" x="5" y="37.5" width="80" height="3"/>
    <g>
      <path fill="#fff" d="M19.13574,26.62012c2.88477,1.23828,6.33691,2.41211,9.83594,2.41211,2.45898,0,5.10742-.78223,5.10742-2.73828,0-5.08691-15.46289-4.98926-15.46289-12.09766,0-4.37012,5.58008-5.80469,11.01758-5.80469,2.74316,0,5.43848.26074,8.13379.62012v3.48828c-2.55371-.84766-6.14746-1.53223-8.98535-1.53223-2.0332,0-4.44434.65234-4.44434,2.31543,0,4.40234,15.93555,4.66309,15.93555,11.64062,0,5.12012-5.81641,6.68457-12.29492,6.68457-3.02637,0-5.95801-.45605-8.84277-1.01074v-3.97754Z"/>
      <path fill="#fff" d="M43.67578,20c0-6.22754,3.35742-11.6084,13.61914-11.6084,10.21387,0,13.61816,5.38086,13.61816,11.6084,0,6.22852-3.4043,11.6084-13.61816,11.6084-10.26172,0-13.61914-5.37988-13.61914-11.6084ZM64.3877,20c0-3.29297-.56738-9.45605-7.09277-9.45605s-7.09277,6.16309-7.09277,9.45605c0,3.29395.56738,9.45703,7.09277,9.45703s7.09277-6.16309,7.09277-9.45703Z"/>
    </g>
    <g>
      <path fill="#fff" d="M38.5459,49.39258h-10.52441l-2.22168,9.04395c3.2793.37012,6.45215,1.42773,8.46191,2.64453,3.91406,2.43262,5.92383,5.87012,5.92383,9.99512,0,7.08691-5.71191,12.05859-13.53906,12.05859-3.49121,0-7.24609-1.375-9.83691-3.33203l1.85059-3.4375c2.5918,1.95703,5.28906,2.9082,8.14453,2.9082,4.38965,0,7.88086-3.06738,7.88086-7.66797,0-4.6543-2.75098-7.08691-6.66406-8.46191-3.33203-1.16406-6.76953-1.32227-7.19238-1.32227h-.42383l4.44238-16.3418h14.59766l-.89941,3.91309Z"/>
      <path fill="#fff" d="M47.37988,82.5v-2.90918c4.70703-4.75977,10.25977-10.36523,13.22168-13.85645,4.125-4.86523,5.87012-7.77344,5.87012-10.94727,0-3.80762-2.96094-6.24023-6.29297-6.24023-2.64453,0-5.23633,1.26855-7.87988,4.07227l-2.53906-2.48633c2.90918-3.54297,7.03418-5.28809,11.31836-5.28809,5.60547,0,10.73535,3.4375,10.73535,9.625,0,4.86621-2.80273,8.35645-9.04395,15.23145-4.2832,4.8125-4.9707,5.44727-8.4082,8.72656h17.76953v4.07227h-24.75098Z"/>
    </g>
  </symbol>
</svg>
