<?xml version="1.0" encoding="UTF-8"?>
<svg xmlns="http://www.w3.org/2000/svg" xmlns:xlink="http://www.w3.org/1999/xlink">
  <style>
    .w {
      fill: #fff;
    }

    .b {
      fill: #231815;
    }

    .l {
      fill: #ea9813;
    }
  </style>
  <symbol id="TN" viewBox="0 0 100 100">
    <rect class="l" width="100" height="100" rx="27.5" ry="27.5"/>
    <rect class="w" x="11.25" y="11.25" width="77.5" height="77.5" rx="16.25" ry="16.25"/>
    <g>
      <path class="b" d="M26.84473,68.75v-31.59082h-10.74512v-5.91016h29.01221v5.91016h-10.74512v31.59082h-7.52197Z"/>
      <path class="b" d="M71.16797,68.75l-14.34473-28.04492h-.10742v28.04492h-7.19922V31.24902h9.24121l14.29102,28.04492h.10742v-28.04492h7.19922v37.50098h-9.1875Z"/>
    </g>
  </symbol>
  <symbol id="TN01" viewBox="0 0 100 100">
    <rect class="l" width="100" height="100" rx="27.5" ry="27.5"/>
    <rect class="w" x="11.25" y="11.25" width="77.5" height="77.5" rx="16.25" ry="16.25"/>
    <g>
      <path class="b" d="M36.1084,40v-18.95801h-6.44873v-3.54688h17.41064v3.54688h-6.44824v18.95801h-4.51367Z"/>
      <path class="b" d="M62.7041,40l-8.6084-16.83008h-.06445v16.83008h-4.3208v-22.50488h5.54541l8.57617,16.83008h.06543v-16.83008h4.32031v22.50488h-5.51367Z"/>
    </g>
    <g>
      <path class="b" d="M25.74121,65.0957c0-10.24219,3.67773-16.8999,11.26611-16.8999,7.44873,0,11.35938,5.86572,11.35938,16.8999,0,10.7998-3.91064,16.71289-11.35938,16.71289-7.40186,0-11.26611-5.30762-11.26611-16.71289ZM41.84912,65.0957c0-4.88867-.13965-12.05762-4.88818-12.05762-4.42285,0-4.70215,6.88965-4.70215,11.91797,0,5.21387.18652,12.01074,4.74854,12.01074,4.70215,0,4.8418-7.03027,4.8418-11.87109Z"/>
      <path class="b" d="M62.42969,81.25v-25.09277l-5.49316,4.46875-3.25879-4.23633,9.49707-7.63525h5.77246v32.49561h-6.51758Z"/>
    </g>
  </symbol>
  <symbol id="TN02" viewBox="0 0 100 100">
    <rect class="l" width="100" height="100" rx="27.5" ry="27.5"/>
    <rect class="w" x="11.25" y="11.25" width="77.5" height="77.5" rx="16.25" ry="16.25"/>
    <g>
      <path class="b" d="M36.1084,40v-18.95801h-6.44873v-3.54688h17.41064v3.54688h-6.44824v18.95801h-4.51367Z"/>
      <path class="b" d="M62.7041,40l-8.6084-16.83008h-.06445v16.83008h-4.3208v-22.50488h5.54541l8.57617,16.83008h.06543v-16.83008h4.32031v22.50488h-5.51367Z"/>
    </g>
    <g>
      <path class="b" d="M25.74121,65.0957c0-10.24219,3.67773-16.8999,11.26611-16.8999,7.44873,0,11.35938,5.86572,11.35938,16.8999,0,10.7998-3.91064,16.71289-11.35938,16.71289-7.40186,0-11.26611-5.30762-11.26611-16.71289ZM41.84912,65.0957c0-4.88867-.13965-12.05762-4.88818-12.05762-4.42285,0-4.70215,6.88965-4.70215,11.91797,0,5.21387.18652,12.01074,4.74854,12.01074,4.70215,0,4.8418-7.03027,4.8418-11.87109Z"/>
      <path class="b" d="M51.9082,81.25v-5.44727l3.91113-3.63086c6.23828-5.81934,10.14844-10.94043,10.14844-14.47852,0-2.79395-2.41992-4.37598-5.30664-4.37598-2.23438,0-4.70215.79102-7.49609,2.60645l-.51172-5.40039c2.97949-1.48975,6.28516-2.32764,9.63672-2.32764,6.47168,0,10.19629,3.39893,10.19629,9.49756,0,4.51562-2.60742,9.4502-12.24414,18.43555h13.26758v5.12109h-21.60156Z"/>
    </g>
  </symbol>
  <symbol id="TN03" viewBox="0 0 100 100">
    <rect class="l" width="100" height="100" rx="27.5" ry="27.5"/>
    <rect class="w" x="11.25" y="11.25" width="77.5" height="77.5" rx="16.25" ry="16.25"/>
    <g>
      <path class="b" d="M36.1084,40v-18.95801h-6.44873v-3.54688h17.41064v3.54688h-6.44824v18.95801h-4.51367Z"/>
      <path class="b" d="M62.7041,40l-8.6084-16.83008h-.06445v16.83008h-4.3208v-22.50488h5.54541l8.57617,16.83008h.06543v-16.83008h4.32031v22.50488h-5.51367Z"/>
    </g>
    <g>
      <path class="b" d="M25.74121,65.0957c0-10.24219,3.67773-16.8999,11.26611-16.8999,7.44873,0,11.35938,5.86572,11.35938,16.8999,0,10.7998-3.91064,16.71289-11.35938,16.71289-7.40186,0-11.26611-5.30762-11.26611-16.71289ZM41.84912,65.0957c0-4.88867-.13965-12.05762-4.88818-12.05762-4.42285,0-4.70215,6.88965-4.70215,11.91797,0,5.21387.18652,12.01074,4.74854,12.01074,4.70215,0,4.8418-7.03027,4.8418-11.87109Z"/>
      <path class="b" d="M52.4668,75.19727c2.375.93164,4.74902,1.49023,7.16992,1.49023,3.11914,0,6.89062-1.49023,6.89062-4.60938,0-3.39844-2.4209-5.07422-7.12305-5.07422h-3.21289v-5.12109h3.16602c4.14355,0,7.0293-1.48926,7.0293-4.2832,0-2.79297-1.95508-4.28223-5.63281-4.28223-2.4668,0-4.98145.60449-7.2627,1.72168l-.37207-5.21387c2.60645-1.02441,5.72656-1.62939,9.03125-1.62939,5.30762,0,10.75488,2.1416,10.75488,8.3335,0,3.72461-1.90918,6.19141-6.05273,7.77441v.09375c3.91113.51172,6.19238,3.49121,6.19238,7.72754,0,6.51758-5.12109,9.68359-12.52344,9.68359-2.79297,0-5.95898-.37305-8.42676-1.07129l.37207-5.54004Z"/>
    </g>
  </symbol>
  <symbol id="TN04" viewBox="0 0 100 100">
    <rect class="l" width="100" height="100" rx="27.5" ry="27.5"/>
    <rect class="w" x="11.25" y="11.25" width="77.5" height="77.5" rx="16.25" ry="16.25"/>
    <g>
      <path class="b" d="M36.1084,40v-18.95801h-6.44873v-3.54688h17.41064v3.54688h-6.44824v18.95801h-4.51367Z"/>
      <path class="b" d="M62.7041,40l-8.6084-16.83008h-.06445v16.83008h-4.3208v-22.50488h5.54541l8.57617,16.83008h.06543v-16.83008h4.32031v22.50488h-5.51367Z"/>
    </g>
    <g>
      <path class="b" d="M25.74121,65.0957c0-10.24219,3.67773-16.8999,11.26611-16.8999,7.44873,0,11.35938,5.86572,11.35938,16.8999,0,10.7998-3.91064,16.71289-11.35938,16.71289-7.40186,0-11.26611-5.30762-11.26611-16.71289ZM41.84912,65.0957c0-4.88867-.13965-12.05762-4.88818-12.05762-4.42285,0-4.70215,6.88965-4.70215,11.91797,0,5.21387.18652,12.01074,4.74854,12.01074,4.70215,0,4.8418-7.03027,4.8418-11.87109Z"/>
      <path class="b" d="M64.75781,81.25v-6.75098h-14.0127v-5.26074l12.15039-20.48389h8.10059v20.90283h4.14355v4.8418h-4.14355v6.75098h-6.23828ZM64.75781,55.55176h-.09277l-8.05469,14.10547h8.14746v-14.10547Z"/>
    </g>
  </symbol>
  <symbol id="TN05" viewBox="0 0 100 100">
    <rect class="l" width="100" height="100" rx="27.5" ry="27.5"/>
    <rect class="w" x="11.25" y="11.25" width="77.5" height="77.5" rx="16.25" ry="16.25"/>
    <g>
      <path class="b" d="M36.1084,40v-18.95801h-6.44873v-3.54688h17.41064v3.54688h-6.44824v18.95801h-4.51367Z"/>
      <path class="b" d="M62.7041,40l-8.6084-16.83008h-.06445v16.83008h-4.3208v-22.50488h5.54541l8.57617,16.83008h.06543v-16.83008h4.32031v22.50488h-5.51367Z"/>
    </g>
    <g>
      <path class="b" d="M25.74121,65.0957c0-10.24219,3.67773-16.8999,11.26611-16.8999,7.44873,0,11.35938,5.86572,11.35938,16.8999,0,10.7998-3.91064,16.71289-11.35938,16.71289-7.40186,0-11.26611-5.30762-11.26611-16.71289ZM41.84912,65.0957c0-4.88867-.13965-12.05762-4.88818-12.05762-4.42285,0-4.70215,6.88965-4.70215,11.91797,0,5.21387.18652,12.01074,4.74854,12.01074,4.70215,0,4.8418-7.03027,4.8418-11.87109Z"/>
      <path class="b" d="M53.49121,75.05762c2.7002,1.16406,4.70215,1.62988,6.56445,1.62988,4.14355,0,7.03027-2.04883,7.03027-5.72656,0-3.58398-2.83984-5.63281-7.44922-5.63281-2.00195,0-3.91113.2793-5.81934.88477l.32617-17.4585h18.66797v4.84229h-12.52344l-.13965,6.93652c1.11816-.18652,1.81641-.32617,2.97949-.32617,5.81934,0,10.47559,3.21191,10.47559,10.52148,0,6.65723-4.8418,11.08008-12.66309,11.08008-2.09473,0-5.12109-.32617-7.58887-.93164l.13965-5.81934Z"/>
    </g>
  </symbol>
  <symbol id="TN06" viewBox="0 0 100 100">
    <rect class="l" width="100" height="100" rx="27.5" ry="27.5"/>
    <rect class="w" x="11.25" y="11.25" width="77.5" height="77.5" rx="16.25" ry="16.25"/>
    <g>
      <path class="b" d="M36.1084,40v-18.95801h-6.44873v-3.54688h17.41064v3.54688h-6.44824v18.95801h-4.51367Z"/>
      <path class="b" d="M62.7041,40l-8.6084-16.83008h-.06445v16.83008h-4.3208v-22.50488h5.54541l8.57617,16.83008h.06543v-16.83008h4.32031v22.50488h-5.51367Z"/>
    </g>
    <g>
      <path class="b" d="M25.74121,65.0957c0-10.24219,3.67773-16.8999,11.26611-16.8999,7.44873,0,11.35938,5.86572,11.35938,16.8999,0,10.7998-3.91064,16.71289-11.35938,16.71289-7.40186,0-11.26611-5.30762-11.26611-16.71289ZM41.84912,65.0957c0-4.88867-.13965-12.05762-4.88818-12.05762-4.42285,0-4.70215,6.88965-4.70215,11.91797,0,5.21387.18652,12.01074,4.74854,12.01074,4.70215,0,4.8418-7.03027,4.8418-11.87109Z"/>
      <path class="b" d="M71.41504,54.62012c-1.62891-.69824-3.39844-1.30273-5.67969-1.30273-5.16699,0-7.49512,4.42188-7.72754,10.05566l.09277.09277c1.53613-2.23438,3.53809-3.25879,6.33105-3.25879,5.95898,0,9.45117,3.77051,9.45117,9.91602,0,7.44922-3.81738,11.68555-10.80078,11.68555-7.2627,0-11.03418-4.79492-11.03418-15.13086,0-9.96191,3.53809-18.48193,13.36133-18.48193,2.375,0,4.60938.37256,6.84375,1.16406l-.83789,5.26025ZM67.36523,71.14746c0-2.97949-1.16406-6.09863-4.46973-6.09863-2.7002,0-4.3291,2.28125-4.3291,6.14551,0,3.02539,1.25684,5.77246,4.51562,5.77246,3.11914,0,4.2832-3.07227,4.2832-5.81934Z"/>
    </g>
  </symbol>
  <symbol id="TN07" viewBox="0 0 100 100">
    <rect class="l" width="100" height="100" rx="27.5" ry="27.5"/>
    <rect class="w" x="11.25" y="11.25" width="77.5" height="77.5" rx="16.25" ry="16.25"/>
    <g>
      <path class="b" d="M36.1084,40v-18.95801h-6.44873v-3.54688h17.41064v3.54688h-6.44824v18.95801h-4.51367Z"/>
      <path class="b" d="M62.7041,40l-8.6084-16.83008h-.06445v16.83008h-4.3208v-22.50488h5.54541l8.57617,16.83008h.06543v-16.83008h4.32031v22.50488h-5.51367Z"/>
    </g>
    <g>
      <path class="b" d="M25.74121,65.0957c0-10.24219,3.67773-16.8999,11.26611-16.8999,7.44873,0,11.35938,5.86572,11.35938,16.8999,0,10.7998-3.91064,16.71289-11.35938,16.71289-7.40186,0-11.26611-5.30762-11.26611-16.71289ZM41.84912,65.0957c0-4.88867-.13965-12.05762-4.88818-12.05762-4.42285,0-4.70215,6.88965-4.70215,11.91797,0,5.21387.18652,12.01074,4.74854,12.01074,4.70215,0,4.8418-7.03027,4.8418-11.87109Z"/>
      <path class="b" d="M54.65527,81.25l12.05762-27.37402h-14.38574v-5.12158h20.9502v5.40088l-11.5459,27.09473h-7.07617Z"/>
    </g>
  </symbol>
  <symbol id="TN08" viewBox="0 0 100 100">
    <rect class="l" width="100" height="100" rx="27.5" ry="27.5"/>
    <rect class="w" x="11.25" y="11.25" width="77.5" height="77.5" rx="16.25" ry="16.25"/>
    <g>
      <path class="b" d="M36.1084,40v-18.95801h-6.44873v-3.54688h17.41064v3.54688h-6.44824v18.95801h-4.51367Z"/>
      <path class="b" d="M62.7041,40l-8.6084-16.83008h-.06445v16.83008h-4.3208v-22.50488h5.54541l8.57617,16.83008h.06543v-16.83008h4.32031v22.50488h-5.51367Z"/>
    </g>
    <g>
      <path class="b" d="M25.74121,65.0957c0-10.24219,3.67773-16.8999,11.26611-16.8999,7.44873,0,11.35938,5.86572,11.35938,16.8999,0,10.7998-3.91064,16.71289-11.35938,16.71289-7.40186,0-11.26611-5.30762-11.26611-16.71289ZM41.84912,65.0957c0-4.88867-.13965-12.05762-4.88818-12.05762-4.42285,0-4.70215,6.88965-4.70215,11.91797,0,5.21387.18652,12.01074,4.74854,12.01074,4.70215,0,4.8418-7.03027,4.8418-11.87109Z"/>
      <path class="b" d="M68.0166,63.83789c4.18945,1.95605,6.23828,4.70215,6.23828,8.56641,0,6.00586-4.14355,9.4043-11.17285,9.4043-6.9834,0-11.45312-3.25879-11.45312-9.31152,0-3.63086,1.95508-6.14453,5.95996-8.09961v-.09375c-3.81836-1.72266-5.40137-4.65527-5.40137-7.54199,0-5.67969,4.2373-8.56592,10.33594-8.56592,6.00488,0,10.89355,2.56055,10.89355,7.82178,0,3.35156-2.23438,6.51758-5.40039,7.77441v.0459ZM58.14746,72.35742c0,2.6543,2.28027,4.60938,4.93457,4.60938,2.65332,0,4.65527-1.67578,4.65527-4.33008,0-2.51367-1.62988-4.37598-5.44727-5.63281-2.93262,1.39648-4.14258,3.07324-4.14258,5.35352ZM67.17871,57.08789c0-1.8623-1.07129-4.0498-4.05078-4.0498-2.1875,0-4.70117,1.20996-4.70117,3.91016,0,2.04883,1.48926,3.58496,5.12109,4.88867,1.72168-.60547,3.63086-2.60742,3.63086-4.74902Z"/>
    </g>
  </symbol>
  <symbol id="TN09" viewBox="0 0 100 100">
    <rect class="l" width="100" height="100" rx="27.5" ry="27.5"/>
    <rect class="w" x="11.25" y="11.25" width="77.5" height="77.5" rx="16.25" ry="16.25"/>
    <g>
      <path class="b" d="M36.1084,40v-18.95801h-6.44873v-3.54688h17.41064v3.54688h-6.44824v18.95801h-4.51367Z"/>
      <path class="b" d="M62.7041,40l-8.6084-16.83008h-.06445v16.83008h-4.3208v-22.50488h5.54541l8.57617,16.83008h.06543v-16.83008h4.32031v22.50488h-5.51367Z"/>
    </g>
    <g>
      <path class="b" d="M25.74121,65.0957c0-10.24219,3.67773-16.8999,11.26611-16.8999,7.44873,0,11.35938,5.86572,11.35938,16.8999,0,10.7998-3.91064,16.71289-11.35938,16.71289-7.40186,0-11.26611-5.30762-11.26611-16.71289ZM41.84912,65.0957c0-4.88867-.13965-12.05762-4.88818-12.05762-4.42285,0-4.70215,6.88965-4.70215,11.91797,0,5.21387.18652,12.01074,4.74854,12.01074,4.70215,0,4.8418-7.03027,4.8418-11.87109Z"/>
      <path class="b" d="M67.83008,66.53809c-1.53613,2.28125-3.53809,3.25879-6.28418,3.25879-6.23926,0-9.49805-4.00293-9.49805-9.91602,0-7.44824,3.81738-11.68506,10.80078-11.68506,7.2168,0,11.03418,4.74854,11.03418,15.13037,0,10.10254-3.63184,18.48242-13.36133,18.48242-2.37402,0-4.60938-.37305-6.84375-1.16406l.83789-5.26074c1.81543.79199,3.58496,1.30371,5.67969,1.30371,4.70215,0,7.44922-3.72461,7.72852-10.05566l-.09375-.09375ZM67.36523,58.81055c0-3.02637-1.25781-5.77246-4.5625-5.77246-2.74707,0-4.23633,2.60645-4.23633,5.81934,0,3.30469,1.39648,6.09863,4.42188,6.09863,3.21289,0,4.37695-2.97949,4.37695-6.14551Z"/>
    </g>
  </symbol>
  <symbol id="TN10" viewBox="0 0 100 100">
    <rect class="l" width="100" height="100" rx="27.5" ry="27.5"/>
    <rect class="w" x="11.25" y="11.25" width="77.5" height="77.5" rx="16.25" ry="16.25"/>
    <g>
      <path class="b" d="M36.1084,40v-18.95801h-6.44873v-3.54688h17.41064v3.54688h-6.44824v18.95801h-4.51367Z"/>
      <path class="b" d="M62.7041,40l-8.6084-16.83008h-.06445v16.83008h-4.3208v-22.50488h5.54541l8.57617,16.83008h.06543v-16.83008h4.32031v22.50488h-5.51367Z"/>
    </g>
    <g>
      <path class="b" d="M36.54199,81.25v-25.09277l-5.49365,4.46875-3.25879-4.23633,9.49707-7.63525h5.77295v32.49561h-6.51758Z"/>
      <path class="b" d="M51.62891,65.0957c0-10.24219,3.67773-16.8999,11.2666-16.8999,7.44922,0,11.35938,5.86572,11.35938,16.8999,0,10.7998-3.91016,16.71289-11.35938,16.71289-7.40234,0-11.2666-5.30762-11.2666-16.71289ZM67.7373,65.0957c0-4.88867-.13965-12.05762-4.88867-12.05762-4.42188,0-4.70117,6.88965-4.70117,11.91797,0,5.21387.18555,12.01074,4.74805,12.01074,4.70215,0,4.8418-7.03027,4.8418-11.87109Z"/>
    </g>
  </symbol>
  <symbol id="TN11" viewBox="0 0 100 100">
    <rect class="l" width="100" height="100" rx="27.5" ry="27.5"/>
    <rect class="w" x="11.25" y="11.25" width="77.5" height="77.5" rx="16.25" ry="16.25"/>
    <g>
      <path class="b" d="M36.1084,40v-18.95801h-6.44873v-3.54688h17.41064v3.54688h-6.44824v18.95801h-4.51367Z"/>
      <path class="b" d="M62.7041,40l-8.6084-16.83008h-.06445v16.83008h-4.3208v-22.50488h5.54541l8.57617,16.83008h.06543v-16.83008h4.32031v22.50488h-5.51367Z"/>
    </g>
    <g>
      <path class="b" d="M36.54199,81.25v-25.09277l-5.49365,4.46875-3.25879-4.23633,9.49707-7.63525h5.77295v32.49561h-6.51758Z"/>
      <path class="b" d="M62.42969,81.25v-25.09277l-5.49316,4.46875-3.25879-4.23633,9.49707-7.63525h5.77246v32.49561h-6.51758Z"/>
    </g>
  </symbol>
  <symbol id="TN12" viewBox="0 0 100 100">
    <rect class="l" width="100" height="100" rx="27.5" ry="27.5"/>
    <rect class="w" x="11.25" y="11.25" width="77.5" height="77.5" rx="16.25" ry="16.25"/>
    <g>
      <path class="b" d="M36.1084,40v-18.95801h-6.44873v-3.54688h17.41064v3.54688h-6.44824v18.95801h-4.51367Z"/>
      <path class="b" d="M62.7041,40l-8.6084-16.83008h-.06445v16.83008h-4.3208v-22.50488h5.54541l8.57617,16.83008h.06543v-16.83008h4.32031v22.50488h-5.51367Z"/>
    </g>
    <g>
      <path class="b" d="M36.54199,81.25v-25.09277l-5.49365,4.46875-3.25879-4.23633,9.49707-7.63525h5.77295v32.49561h-6.51758Z"/>
      <path class="b" d="M51.9082,81.25v-5.44727l3.91113-3.63086c6.23828-5.81934,10.14844-10.94043,10.14844-14.47852,0-2.79395-2.41992-4.37598-5.30664-4.37598-2.23438,0-4.70215.79102-7.49609,2.60645l-.51172-5.40039c2.97949-1.48975,6.28516-2.32764,9.63672-2.32764,6.47168,0,10.19629,3.39893,10.19629,9.49756,0,4.51562-2.60742,9.4502-12.24414,18.43555h13.26758v5.12109h-21.60156Z"/>
    </g>
  </symbol>
  <symbol id="TN13" viewBox="0 0 100 100">
    <rect class="l" width="100" height="100" rx="27.5" ry="27.5"/>
    <rect class="w" x="11.25" y="11.25" width="77.5" height="77.5" rx="16.25" ry="16.25"/>
    <g>
      <path class="b" d="M36.1084,40v-18.95801h-6.44873v-3.54688h17.41064v3.54688h-6.44824v18.95801h-4.51367Z"/>
      <path class="b" d="M62.7041,40l-8.6084-16.83008h-.06445v16.83008h-4.3208v-22.50488h5.54541l8.57617,16.83008h.06543v-16.83008h4.32031v22.50488h-5.51367Z"/>
    </g>
    <g>
      <path class="b" d="M36.54199,81.25v-25.09277l-5.49365,4.46875-3.25879-4.23633,9.49707-7.63525h5.77295v32.49561h-6.51758Z"/>
      <path class="b" d="M52.4668,75.19727c2.375.93164,4.74902,1.49023,7.16992,1.49023,3.11914,0,6.89062-1.49023,6.89062-4.60938,0-3.39844-2.4209-5.07422-7.12305-5.07422h-3.21289v-5.12109h3.16602c4.14355,0,7.0293-1.48926,7.0293-4.2832,0-2.79297-1.95508-4.28223-5.63281-4.28223-2.4668,0-4.98145.60449-7.2627,1.72168l-.37207-5.21387c2.60645-1.02441,5.72656-1.62939,9.03125-1.62939,5.30762,0,10.75488,2.1416,10.75488,8.3335,0,3.72461-1.90918,6.19141-6.05273,7.77441v.09375c3.91113.51172,6.19238,3.49121,6.19238,7.72754,0,6.51758-5.12109,9.68359-12.52344,9.68359-2.79297,0-5.95898-.37305-8.42676-1.07129l.37207-5.54004Z"/>
    </g>
  </symbol>
  <symbol id="TN14" viewBox="0 0 100 100">
    <rect class="l" width="100" height="100" rx="27.5" ry="27.5"/>
    <rect class="w" x="11.25" y="11.25" width="77.5" height="77.5" rx="16.25" ry="16.25"/>
    <g>
      <path class="b" d="M36.1084,40v-18.95801h-6.44873v-3.54688h17.41064v3.54688h-6.44824v18.95801h-4.51367Z"/>
      <path class="b" d="M62.7041,40l-8.6084-16.83008h-.06445v16.83008h-4.3208v-22.50488h5.54541l8.57617,16.83008h.06543v-16.83008h4.32031v22.50488h-5.51367Z"/>
    </g>
    <g>
      <path class="b" d="M36.54199,81.25v-25.09277l-5.49365,4.46875-3.25879-4.23633,9.49707-7.63525h5.77295v32.49561h-6.51758Z"/>
      <path class="b" d="M64.75781,81.25v-6.75098h-14.0127v-5.26074l12.15039-20.48389h8.10059v20.90283h4.14355v4.8418h-4.14355v6.75098h-6.23828ZM64.75781,55.55176h-.09277l-8.05469,14.10547h8.14746v-14.10547Z"/>
    </g>
  </symbol>
  <symbol id="TN15" viewBox="0 0 100 100">
    <rect class="l" width="100" height="100" rx="27.5" ry="27.5"/>
    <rect class="w" x="11.25" y="11.25" width="77.5" height="77.5" rx="16.25" ry="16.25"/>
    <g>
      <path class="b" d="M36.1084,40v-18.95801h-6.44873v-3.54688h17.41064v3.54688h-6.44824v18.95801h-4.51367Z"/>
      <path class="b" d="M62.7041,40l-8.6084-16.83008h-.06445v16.83008h-4.3208v-22.50488h5.54541l8.57617,16.83008h.06543v-16.83008h4.32031v22.50488h-5.51367Z"/>
    </g>
    <g>
      <path class="b" d="M36.54199,81.25v-25.09277l-5.49365,4.46875-3.25879-4.23633,9.49707-7.63525h5.77295v32.49561h-6.51758Z"/>
      <path class="b" d="M53.49121,75.05762c2.7002,1.16406,4.70215,1.62988,6.56445,1.62988,4.14355,0,7.03027-2.04883,7.03027-5.72656,0-3.58398-2.83984-5.63281-7.44922-5.63281-2.00195,0-3.91113.2793-5.81934.88477l.32617-17.4585h18.66797v4.84229h-12.52344l-.13965,6.93652c1.11816-.18652,1.81641-.32617,2.97949-.32617,5.81934,0,10.47559,3.21191,10.47559,10.52148,0,6.65723-4.8418,11.08008-12.66309,11.08008-2.09473,0-5.12109-.32617-7.58887-.93164l.13965-5.81934Z"/>
    </g>
  </symbol>
  <symbol id="TN16" viewBox="0 0 100 100">
    <rect class="l" width="100" height="100" rx="27.5" ry="27.5"/>
    <rect class="w" x="11.25" y="11.25" width="77.5" height="77.5" rx="16.25" ry="16.25"/>
    <g>
      <path class="b" d="M36.1084,40v-18.95801h-6.44873v-3.54688h17.41064v3.54688h-6.44824v18.95801h-4.51367Z"/>
      <path class="b" d="M62.7041,40l-8.6084-16.83008h-.06445v16.83008h-4.3208v-22.50488h5.54541l8.57617,16.83008h.06543v-16.83008h4.32031v22.50488h-5.51367Z"/>
    </g>
    <g>
      <path class="b" d="M36.54199,81.25v-25.09277l-5.49365,4.46875-3.25879-4.23633,9.49707-7.63525h5.77295v32.49561h-6.51758Z"/>
      <path class="b" d="M71.41504,54.62012c-1.62891-.69824-3.39844-1.30273-5.67969-1.30273-5.16699,0-7.49512,4.42188-7.72754,10.05566l.09277.09277c1.53613-2.23438,3.53809-3.25879,6.33105-3.25879,5.95898,0,9.45117,3.77051,9.45117,9.91602,0,7.44922-3.81738,11.68555-10.80078,11.68555-7.2627,0-11.03418-4.79492-11.03418-15.13086,0-9.96191,3.53809-18.48193,13.36133-18.48193,2.375,0,4.60938.37256,6.84375,1.16406l-.83789,5.26025ZM67.36523,71.14746c0-2.97949-1.16406-6.09863-4.46973-6.09863-2.7002,0-4.3291,2.28125-4.3291,6.14551,0,3.02539,1.25684,5.77246,4.51562,5.77246,3.11914,0,4.2832-3.07227,4.2832-5.81934Z"/>
    </g>
  </symbol>
  <symbol id="TN17" viewBox="0 0 100 100">
    <rect class="l" width="100" height="100" rx="27.5" ry="27.5"/>
    <rect class="w" x="11.25" y="11.25" width="77.5" height="77.5" rx="16.25" ry="16.25"/>
    <g>
      <path class="b" d="M36.1084,40v-18.95801h-6.44873v-3.54688h17.41064v3.54688h-6.44824v18.95801h-4.51367Z"/>
      <path class="b" d="M62.7041,40l-8.6084-16.83008h-.06445v16.83008h-4.3208v-22.50488h5.54541l8.57617,16.83008h.06543v-16.83008h4.32031v22.50488h-5.51367Z"/>
    </g>
    <g>
      <path class="b" d="M36.54199,81.25v-25.09277l-5.49365,4.46875-3.25879-4.23633,9.49707-7.63525h5.77295v32.49561h-6.51758Z"/>
      <path class="b" d="M54.65527,81.25l12.05762-27.37402h-14.38574v-5.12158h20.9502v5.40088l-11.5459,27.09473h-7.07617Z"/>
    </g>
  </symbol>
  <symbol id="TN18" viewBox="0 0 100 100">
    <rect class="l" width="100" height="100" rx="27.5" ry="27.5"/>
    <rect class="w" x="11.25" y="11.25" width="77.5" height="77.5" rx="16.25" ry="16.25"/>
    <g>
      <path class="b" d="M36.1084,40v-18.95801h-6.44873v-3.54688h17.41064v3.54688h-6.44824v18.95801h-4.51367Z"/>
      <path class="b" d="M62.7041,40l-8.6084-16.83008h-.06445v16.83008h-4.3208v-22.50488h5.54541l8.57617,16.83008h.06543v-16.83008h4.32031v22.50488h-5.51367Z"/>
    </g>
    <g>
      <path class="b" d="M36.54199,81.25v-25.09277l-5.49365,4.46875-3.25879-4.23633,9.49707-7.63525h5.77295v32.49561h-6.51758Z"/>
      <path class="b" d="M68.0166,63.83789c4.18945,1.95605,6.23828,4.70215,6.23828,8.56641,0,6.00586-4.14355,9.4043-11.17285,9.4043-6.9834,0-11.45312-3.25879-11.45312-9.31152,0-3.63086,1.95508-6.14453,5.95996-8.09961v-.09375c-3.81836-1.72266-5.40137-4.65527-5.40137-7.54199,0-5.67969,4.2373-8.56592,10.33594-8.56592,6.00488,0,10.89355,2.56055,10.89355,7.82178,0,3.35156-2.23438,6.51758-5.40039,7.77441v.0459ZM58.14746,72.35742c0,2.6543,2.28027,4.60938,4.93457,4.60938,2.65332,0,4.65527-1.67578,4.65527-4.33008,0-2.51367-1.62988-4.37598-5.44727-5.63281-2.93262,1.39648-4.14258,3.07324-4.14258,5.35352ZM67.17871,57.08789c0-1.8623-1.07129-4.0498-4.05078-4.0498-2.1875,0-4.70117,1.20996-4.70117,3.91016,0,2.04883,1.48926,3.58496,5.12109,4.88867,1.72168-.60547,3.63086-2.60742,3.63086-4.74902Z"/>
    </g>
  </symbol>
  <symbol id="TN19" viewBox="0 0 100 100">
    <rect class="l" width="100" height="100" rx="27.5" ry="27.5"/>
    <rect class="w" x="11.25" y="11.25" width="77.5" height="77.5" rx="16.25" ry="16.25"/>
    <g>
      <path class="b" d="M36.1084,40v-18.95801h-6.44873v-3.54688h17.41064v3.54688h-6.44824v18.95801h-4.51367Z"/>
      <path class="b" d="M62.7041,40l-8.6084-16.83008h-.06445v16.83008h-4.3208v-22.50488h5.54541l8.57617,16.83008h.06543v-16.83008h4.32031v22.50488h-5.51367Z"/>
    </g>
    <g>
      <path class="b" d="M36.54199,81.25v-25.09277l-5.49365,4.46875-3.25879-4.23633,9.49707-7.63525h5.77295v32.49561h-6.51758Z"/>
      <path class="b" d="M67.83008,66.53809c-1.53613,2.28125-3.53809,3.25879-6.28418,3.25879-6.23926,0-9.49805-4.00293-9.49805-9.91602,0-7.44824,3.81738-11.68506,10.80078-11.68506,7.2168,0,11.03418,4.74854,11.03418,15.13037,0,10.10254-3.63184,18.48242-13.36133,18.48242-2.37402,0-4.60938-.37305-6.84375-1.16406l.83789-5.26074c1.81543.79199,3.58496,1.30371,5.67969,1.30371,4.70215,0,7.44922-3.72461,7.72852-10.05566l-.09375-.09375ZM67.36523,58.81055c0-3.02637-1.25781-5.77246-4.5625-5.77246-2.74707,0-4.23633,2.60645-4.23633,5.81934,0,3.30469,1.39648,6.09863,4.42188,6.09863,3.21289,0,4.37695-2.97949,4.37695-6.14551Z"/>
    </g>
  </symbol>
  <symbol id="TN20" viewBox="0 0 100 100">
    <rect class="l" width="100" height="100" rx="27.5" ry="27.5"/>
    <rect class="w" x="11.25" y="11.25" width="77.5" height="77.5" rx="16.25" ry="16.25"/>
    <g>
      <path class="b" d="M36.1084,40v-18.95801h-6.44873v-3.54688h17.41064v3.54688h-6.44824v18.95801h-4.51367Z"/>
      <path class="b" d="M62.7041,40l-8.6084-16.83008h-.06445v16.83008h-4.3208v-22.50488h5.54541l8.57617,16.83008h.06543v-16.83008h4.32031v22.50488h-5.51367Z"/>
    </g>
    <g>
      <path class="b" d="M26.02051,81.25v-5.44727l3.91064-3.63086c6.23828-5.81934,10.14893-10.94043,10.14893-14.47852,0-2.79395-2.4209-4.37598-5.30713-4.37598-2.23486,0-4.70215.79102-7.49561,2.60645l-.51172-5.40039c2.97949-1.48975,6.28467-2.32764,9.63672-2.32764,6.47119,0,10.19531,3.39893,10.19531,9.49756,0,4.51562-2.60693,9.4502-12.24365,18.43555h13.26807v5.12109h-21.60156Z"/>
      <path class="b" d="M51.62891,65.0957c0-10.24219,3.67773-16.8999,11.2666-16.8999,7.44922,0,11.35938,5.86572,11.35938,16.8999,0,10.7998-3.91016,16.71289-11.35938,16.71289-7.40234,0-11.2666-5.30762-11.2666-16.71289ZM67.7373,65.0957c0-4.88867-.13965-12.05762-4.88867-12.05762-4.42188,0-4.70117,6.88965-4.70117,11.91797,0,5.21387.18555,12.01074,4.74805,12.01074,4.70215,0,4.8418-7.03027,4.8418-11.87109Z"/>
    </g>
  </symbol>
  <symbol id="TN21" viewBox="0 0 100 100">
    <rect class="l" width="100" height="100" rx="27.5" ry="27.5"/>
    <rect class="w" x="11.25" y="11.25" width="77.5" height="77.5" rx="16.25" ry="16.25"/>
    <g>
      <path class="b" d="M36.1084,40v-18.95801h-6.44873v-3.54688h17.41064v3.54688h-6.44824v18.95801h-4.51367Z"/>
      <path class="b" d="M62.7041,40l-8.6084-16.83008h-.06445v16.83008h-4.3208v-22.50488h5.54541l8.57617,16.83008h.06543v-16.83008h4.32031v22.50488h-5.51367Z"/>
    </g>
    <g>
      <path class="b" d="M26.02051,81.25v-5.44727l3.91064-3.63086c6.23828-5.81934,10.14893-10.94043,10.14893-14.47852,0-2.79395-2.4209-4.37598-5.30713-4.37598-2.23486,0-4.70215.79102-7.49561,2.60645l-.51172-5.40039c2.97949-1.48975,6.28467-2.32764,9.63672-2.32764,6.47119,0,10.19531,3.39893,10.19531,9.49756,0,4.51562-2.60693,9.4502-12.24365,18.43555h13.26807v5.12109h-21.60156Z"/>
      <path class="b" d="M62.42969,81.25v-25.09277l-5.49316,4.46875-3.25879-4.23633,9.49707-7.63525h5.77246v32.49561h-6.51758Z"/>
    </g>
  </symbol>
  <symbol id="TN22" viewBox="0 0 100 100">
    <rect class="l" width="100" height="100" rx="27.5" ry="27.5"/>
    <rect class="w" x="11.25" y="11.25" width="77.5" height="77.5" rx="16.25" ry="16.25"/>
    <g>
      <path class="b" d="M36.1084,40v-18.95801h-6.44873v-3.54688h17.41064v3.54688h-6.44824v18.95801h-4.51367Z"/>
      <path class="b" d="M62.7041,40l-8.6084-16.83008h-.06445v16.83008h-4.3208v-22.50488h5.54541l8.57617,16.83008h.06543v-16.83008h4.32031v22.50488h-5.51367Z"/>
    </g>
    <g>
      <path class="b" d="M26.02051,81.25v-5.44727l3.91064-3.63086c6.23828-5.81934,10.14893-10.94043,10.14893-14.47852,0-2.79395-2.4209-4.37598-5.30713-4.37598-2.23486,0-4.70215.79102-7.49561,2.60645l-.51172-5.40039c2.97949-1.48975,6.28467-2.32764,9.63672-2.32764,6.47119,0,10.19531,3.39893,10.19531,9.49756,0,4.51562-2.60693,9.4502-12.24365,18.43555h13.26807v5.12109h-21.60156Z"/>
      <path class="b" d="M51.9082,81.25v-5.44727l3.91113-3.63086c6.23828-5.81934,10.14844-10.94043,10.14844-14.47852,0-2.79395-2.41992-4.37598-5.30664-4.37598-2.23438,0-4.70215.79102-7.49609,2.60645l-.51172-5.40039c2.97949-1.48975,6.28516-2.32764,9.63672-2.32764,6.47168,0,10.19629,3.39893,10.19629,9.49756,0,4.51562-2.60742,9.4502-12.24414,18.43555h13.26758v5.12109h-21.60156Z"/>
    </g>
  </symbol>
  <symbol id="TN23" viewBox="0 0 100 100">
    <rect class="l" width="100" height="100" rx="27.5" ry="27.5"/>
    <rect class="w" x="11.25" y="11.25" width="77.5" height="77.5" rx="16.25" ry="16.25"/>
    <g>
      <path class="b" d="M36.1084,40v-18.95801h-6.44873v-3.54688h17.41064v3.54688h-6.44824v18.95801h-4.51367Z"/>
      <path class="b" d="M62.7041,40l-8.6084-16.83008h-.06445v16.83008h-4.3208v-22.50488h5.54541l8.57617,16.83008h.06543v-16.83008h4.32031v22.50488h-5.51367Z"/>
    </g>
    <g>
      <path class="b" d="M26.02051,81.25v-5.44727l3.91064-3.63086c6.23828-5.81934,10.14893-10.94043,10.14893-14.47852,0-2.79395-2.4209-4.37598-5.30713-4.37598-2.23486,0-4.70215.79102-7.49561,2.60645l-.51172-5.40039c2.97949-1.48975,6.28467-2.32764,9.63672-2.32764,6.47119,0,10.19531,3.39893,10.19531,9.49756,0,4.51562-2.60693,9.4502-12.24365,18.43555h13.26807v5.12109h-21.60156Z"/>
      <path class="b" d="M52.4668,75.19727c2.375.93164,4.74902,1.49023,7.16992,1.49023,3.11914,0,6.89062-1.49023,6.89062-4.60938,0-3.39844-2.4209-5.07422-7.12305-5.07422h-3.21289v-5.12109h3.16602c4.14355,0,7.0293-1.48926,7.0293-4.2832,0-2.79297-1.95508-4.28223-5.63281-4.28223-2.4668,0-4.98145.60449-7.2627,1.72168l-.37207-5.21387c2.60645-1.02441,5.72656-1.62939,9.03125-1.62939,5.30762,0,10.75488,2.1416,10.75488,8.3335,0,3.72461-1.90918,6.19141-6.05273,7.77441v.09375c3.91113.51172,6.19238,3.49121,6.19238,7.72754,0,6.51758-5.12109,9.68359-12.52344,9.68359-2.79297,0-5.95898-.37305-8.42676-1.07129l.37207-5.54004Z"/>
    </g>
  </symbol>
  <symbol id="TN24" viewBox="0 0 100 100">
    <rect class="l" width="100" height="100" rx="27.5" ry="27.5"/>
    <rect class="w" x="11.25" y="11.25" width="77.5" height="77.5" rx="16.25" ry="16.25"/>
    <g>
      <path class="b" d="M36.1084,40v-18.95801h-6.44873v-3.54688h17.41064v3.54688h-6.44824v18.95801h-4.51367Z"/>
      <path class="b" d="M62.7041,40l-8.6084-16.83008h-.06445v16.83008h-4.3208v-22.50488h5.54541l8.57617,16.83008h.06543v-16.83008h4.32031v22.50488h-5.51367Z"/>
    </g>
    <g>
      <path class="b" d="M26.02051,81.25v-5.44727l3.91064-3.63086c6.23828-5.81934,10.14893-10.94043,10.14893-14.47852,0-2.79395-2.4209-4.37598-5.30713-4.37598-2.23486,0-4.70215.79102-7.49561,2.60645l-.51172-5.40039c2.97949-1.48975,6.28467-2.32764,9.63672-2.32764,6.47119,0,10.19531,3.39893,10.19531,9.49756,0,4.51562-2.60693,9.4502-12.24365,18.43555h13.26807v5.12109h-21.60156Z"/>
      <path class="b" d="M64.75781,81.25v-6.75098h-14.0127v-5.26074l12.15039-20.48389h8.10059v20.90283h4.14355v4.8418h-4.14355v6.75098h-6.23828ZM64.75781,55.55176h-.09277l-8.05469,14.10547h8.14746v-14.10547Z"/>
    </g>
  </symbol>
  <symbol id="TN25" viewBox="0 0 100 100">
    <rect class="l" width="100" height="100" rx="27.5" ry="27.5"/>
    <rect class="w" x="11.25" y="11.25" width="77.5" height="77.5" rx="16.25" ry="16.25"/>
    <g>
      <path class="b" d="M36.1084,40v-18.95801h-6.44873v-3.54688h17.41064v3.54688h-6.44824v18.95801h-4.51367Z"/>
      <path class="b" d="M62.7041,40l-8.6084-16.83008h-.06445v16.83008h-4.3208v-22.50488h5.54541l8.57617,16.83008h.06543v-16.83008h4.32031v22.50488h-5.51367Z"/>
    </g>
    <g>
      <path class="b" d="M26.02051,81.25v-5.44727l3.91064-3.63086c6.23828-5.81934,10.14893-10.94043,10.14893-14.47852,0-2.79395-2.4209-4.37598-5.30713-4.37598-2.23486,0-4.70215.79102-7.49561,2.60645l-.51172-5.40039c2.97949-1.48975,6.28467-2.32764,9.63672-2.32764,6.47119,0,10.19531,3.39893,10.19531,9.49756,0,4.51562-2.60693,9.4502-12.24365,18.43555h13.26807v5.12109h-21.60156Z"/>
      <path class="b" d="M53.49121,75.05762c2.7002,1.16406,4.70215,1.62988,6.56445,1.62988,4.14355,0,7.03027-2.04883,7.03027-5.72656,0-3.58398-2.83984-5.63281-7.44922-5.63281-2.00195,0-3.91113.2793-5.81934.88477l.32617-17.4585h18.66797v4.84229h-12.52344l-.13965,6.93652c1.11816-.18652,1.81641-.32617,2.97949-.32617,5.81934,0,10.47559,3.21191,10.47559,10.52148,0,6.65723-4.8418,11.08008-12.66309,11.08008-2.09473,0-5.12109-.32617-7.58887-.93164l.13965-5.81934Z"/>
    </g>
  </symbol>
  <symbol id="TN31" viewBox="0 0 100 100">
    <rect class="l" width="100" height="100" rx="27.5" ry="27.5"/>
    <rect class="w" x="11.25" y="11.25" width="77.5" height="77.5" rx="16.25" ry="16.25"/>
    <g>
      <path class="b" d="M36.1084,40v-18.95801h-6.44873v-3.54688h17.41064v3.54688h-6.44824v18.95801h-4.51367Z"/>
      <path class="b" d="M62.7041,40l-8.6084-16.83008h-.06445v16.83008h-4.3208v-22.50488h5.54541l8.57617,16.83008h.06543v-16.83008h4.32031v22.50488h-5.51367Z"/>
    </g>
    <g>
      <path class="b" d="M26.5791,75.19727c2.37451.93164,4.74854,1.49023,7.16943,1.49023,3.11914,0,6.89014-1.49023,6.89014-4.60938,0-3.39844-2.4209-5.07422-7.12305-5.07422h-3.21191v-5.12109h3.16553c4.14355,0,7.02979-1.48926,7.02979-4.2832,0-2.79297-1.95508-4.28223-5.6333-4.28223-2.46729,0-4.98096.60449-7.26221,1.72168l-.37256-5.21387c2.60693-1.02441,5.72607-1.62939,9.03174-1.62939,5.30713,0,10.75391,2.1416,10.75391,8.3335,0,3.72461-1.90869,6.19141-6.05225,7.77441v.09375c3.91064.51172,6.19189,3.49121,6.19189,7.72754,0,6.51758-5.12109,9.68359-12.52295,9.68359-2.79346,0-5.95898-.37305-8.42676-1.07129l.37256-5.54004Z"/>
      <path class="b" d="M62.42969,81.25v-25.09277l-5.49316,4.46875-3.25879-4.23633,9.49707-7.63525h5.77246v32.49561h-6.51758Z"/>
    </g>
  </symbol>
  <symbol id="TN32" viewBox="0 0 100 100">
    <rect class="l" width="100" height="100" rx="27.5" ry="27.5"/>
    <rect class="w" x="11.25" y="11.25" width="77.5" height="77.5" rx="16.25" ry="16.25"/>
    <g>
      <path class="b" d="M36.1084,40v-18.95801h-6.44873v-3.54688h17.41064v3.54688h-6.44824v18.95801h-4.51367Z"/>
      <path class="b" d="M62.7041,40l-8.6084-16.83008h-.06445v16.83008h-4.3208v-22.50488h5.54541l8.57617,16.83008h.06543v-16.83008h4.32031v22.50488h-5.51367Z"/>
    </g>
    <g>
      <path class="b" d="M26.5791,75.19727c2.37451.93164,4.74854,1.49023,7.16943,1.49023,3.11914,0,6.89014-1.49023,6.89014-4.60938,0-3.39844-2.4209-5.07422-7.12305-5.07422h-3.21191v-5.12109h3.16553c4.14355,0,7.02979-1.48926,7.02979-4.2832,0-2.79297-1.95508-4.28223-5.6333-4.28223-2.46729,0-4.98096.60449-7.26221,1.72168l-.37256-5.21387c2.60693-1.02441,5.72607-1.62939,9.03174-1.62939,5.30713,0,10.75391,2.1416,10.75391,8.3335,0,3.72461-1.90869,6.19141-6.05225,7.77441v.09375c3.91064.51172,6.19189,3.49121,6.19189,7.72754,0,6.51758-5.12109,9.68359-12.52295,9.68359-2.79346,0-5.95898-.37305-8.42676-1.07129l.37256-5.54004Z"/>
      <path class="b" d="M51.9082,81.25v-5.44727l3.91113-3.63086c6.23828-5.81934,10.14844-10.94043,10.14844-14.47852,0-2.79395-2.41992-4.37598-5.30664-4.37598-2.23438,0-4.70215.79102-7.49609,2.60645l-.51172-5.40039c2.97949-1.48975,6.28516-2.32764,9.63672-2.32764,6.47168,0,10.19629,3.39893,10.19629,9.49756,0,4.51562-2.60742,9.4502-12.24414,18.43555h13.26758v5.12109h-21.60156Z"/>
    </g>
  </symbol>
  <symbol id="TN33" viewBox="0 0 100 100">
    <rect class="l" width="100" height="100" rx="27.5" ry="27.5"/>
    <rect class="w" x="11.25" y="11.25" width="77.5" height="77.5" rx="16.25" ry="16.25"/>
    <g>
      <path class="b" d="M36.1084,40v-18.95801h-6.44873v-3.54688h17.41064v3.54688h-6.44824v18.95801h-4.51367Z"/>
      <path class="b" d="M62.7041,40l-8.6084-16.83008h-.06445v16.83008h-4.3208v-22.50488h5.54541l8.57617,16.83008h.06543v-16.83008h4.32031v22.50488h-5.51367Z"/>
    </g>
    <g>
      <path class="b" d="M26.5791,75.19727c2.37451.93164,4.74854,1.49023,7.16943,1.49023,3.11914,0,6.89014-1.49023,6.89014-4.60938,0-3.39844-2.4209-5.07422-7.12305-5.07422h-3.21191v-5.12109h3.16553c4.14355,0,7.02979-1.48926,7.02979-4.2832,0-2.79297-1.95508-4.28223-5.6333-4.28223-2.46729,0-4.98096.60449-7.26221,1.72168l-.37256-5.21387c2.60693-1.02441,5.72607-1.62939,9.03174-1.62939,5.30713,0,10.75391,2.1416,10.75391,8.3335,0,3.72461-1.90869,6.19141-6.05225,7.77441v.09375c3.91064.51172,6.19189,3.49121,6.19189,7.72754,0,6.51758-5.12109,9.68359-12.52295,9.68359-2.79346,0-5.95898-.37305-8.42676-1.07129l.37256-5.54004Z"/>
      <path class="b" d="M52.4668,75.19727c2.375.93164,4.74902,1.49023,7.16992,1.49023,3.11914,0,6.89062-1.49023,6.89062-4.60938,0-3.39844-2.4209-5.07422-7.12305-5.07422h-3.21289v-5.12109h3.16602c4.14355,0,7.0293-1.48926,7.0293-4.2832,0-2.79297-1.95508-4.28223-5.63281-4.28223-2.4668,0-4.98145.60449-7.2627,1.72168l-.37207-5.21387c2.60645-1.02441,5.72656-1.62939,9.03125-1.62939,5.30762,0,10.75488,2.1416,10.75488,8.3335,0,3.72461-1.90918,6.19141-6.05273,7.77441v.09375c3.91113.51172,6.19238,3.49121,6.19238,7.72754,0,6.51758-5.12109,9.68359-12.52344,9.68359-2.79297,0-5.95898-.37305-8.42676-1.07129l.37207-5.54004Z"/>
    </g>
  </symbol>
  <symbol id="TN34" viewBox="0 0 100 100">
    <rect class="l" width="100" height="100" rx="27.5" ry="27.5"/>
    <rect class="w" x="11.25" y="11.25" width="77.5" height="77.5" rx="16.25" ry="16.25"/>
    <g>
      <path class="b" d="M36.1084,40v-18.95801h-6.44873v-3.54688h17.41064v3.54688h-6.44824v18.95801h-4.51367Z"/>
      <path class="b" d="M62.7041,40l-8.6084-16.83008h-.06445v16.83008h-4.3208v-22.50488h5.54541l8.57617,16.83008h.06543v-16.83008h4.32031v22.50488h-5.51367Z"/>
    </g>
    <g>
      <path class="b" d="M26.5791,75.19727c2.37451.93164,4.74854,1.49023,7.16943,1.49023,3.11914,0,6.89014-1.49023,6.89014-4.60938,0-3.39844-2.4209-5.07422-7.12305-5.07422h-3.21191v-5.12109h3.16553c4.14355,0,7.02979-1.48926,7.02979-4.2832,0-2.79297-1.95508-4.28223-5.6333-4.28223-2.46729,0-4.98096.60449-7.26221,1.72168l-.37256-5.21387c2.60693-1.02441,5.72607-1.62939,9.03174-1.62939,5.30713,0,10.75391,2.1416,10.75391,8.3335,0,3.72461-1.90869,6.19141-6.05225,7.77441v.09375c3.91064.51172,6.19189,3.49121,6.19189,7.72754,0,6.51758-5.12109,9.68359-12.52295,9.68359-2.79346,0-5.95898-.37305-8.42676-1.07129l.37256-5.54004Z"/>
      <path class="b" d="M64.75781,81.25v-6.75098h-14.0127v-5.26074l12.15039-20.48389h8.10059v20.90283h4.14355v4.8418h-4.14355v6.75098h-6.23828ZM64.75781,55.55176h-.09277l-8.05469,14.10547h8.14746v-14.10547Z"/>
    </g>
  </symbol>
  <symbol id="TN35" viewBox="0 0 100 100">
    <rect class="l" width="100" height="100" rx="27.5" ry="27.5"/>
    <rect class="w" x="11.25" y="11.25" width="77.5" height="77.5" rx="16.25" ry="16.25"/>
    <g>
      <path class="b" d="M36.1084,40v-18.95801h-6.44873v-3.54688h17.41064v3.54688h-6.44824v18.95801h-4.51367Z"/>
      <path class="b" d="M62.7041,40l-8.6084-16.83008h-.06445v16.83008h-4.3208v-22.50488h5.54541l8.57617,16.83008h.06543v-16.83008h4.32031v22.50488h-5.51367Z"/>
    </g>
    <g>
      <path class="b" d="M26.5791,75.19727c2.37451.93164,4.74854,1.49023,7.16943,1.49023,3.11914,0,6.89014-1.49023,6.89014-4.60938,0-3.39844-2.4209-5.07422-7.12305-5.07422h-3.21191v-5.12109h3.16553c4.14355,0,7.02979-1.48926,7.02979-4.2832,0-2.79297-1.95508-4.28223-5.6333-4.28223-2.46729,0-4.98096.60449-7.26221,1.72168l-.37256-5.21387c2.60693-1.02441,5.72607-1.62939,9.03174-1.62939,5.30713,0,10.75391,2.1416,10.75391,8.3335,0,3.72461-1.90869,6.19141-6.05225,7.77441v.09375c3.91064.51172,6.19189,3.49121,6.19189,7.72754,0,6.51758-5.12109,9.68359-12.52295,9.68359-2.79346,0-5.95898-.37305-8.42676-1.07129l.37256-5.54004Z"/>
      <path class="b" d="M53.49121,75.05762c2.7002,1.16406,4.70215,1.62988,6.56445,1.62988,4.14355,0,7.03027-2.04883,7.03027-5.72656,0-3.58398-2.83984-5.63281-7.44922-5.63281-2.00195,0-3.91113.2793-5.81934.88477l.32617-17.4585h18.66797v4.84229h-12.52344l-.13965,6.93652c1.11816-.18652,1.81641-.32617,2.97949-.32617,5.81934,0,10.47559,3.21191,10.47559,10.52148,0,6.65723-4.8418,11.08008-12.66309,11.08008-2.09473,0-5.12109-.32617-7.58887-.93164l.13965-5.81934Z"/>
    </g>
  </symbol>
  <symbol id="TN36" viewBox="0 0 100 100">
    <rect class="l" width="100" height="100" rx="27.5" ry="27.5"/>
    <rect class="w" x="11.25" y="11.25" width="77.5" height="77.5" rx="16.25" ry="16.25"/>
    <g>
      <path class="b" d="M36.1084,40v-18.95801h-6.44873v-3.54688h17.41064v3.54688h-6.44824v18.95801h-4.51367Z"/>
      <path class="b" d="M62.7041,40l-8.6084-16.83008h-.06445v16.83008h-4.3208v-22.50488h5.54541l8.57617,16.83008h.06543v-16.83008h4.32031v22.50488h-5.51367Z"/>
    </g>
    <g>
      <path class="b" d="M26.5791,75.19727c2.37451.93164,4.74854,1.49023,7.16943,1.49023,3.11914,0,6.89014-1.49023,6.89014-4.60938,0-3.39844-2.4209-5.07422-7.12305-5.07422h-3.21191v-5.12109h3.16553c4.14355,0,7.02979-1.48926,7.02979-4.2832,0-2.79297-1.95508-4.28223-5.6333-4.28223-2.46729,0-4.98096.60449-7.26221,1.72168l-.37256-5.21387c2.60693-1.02441,5.72607-1.62939,9.03174-1.62939,5.30713,0,10.75391,2.1416,10.75391,8.3335,0,3.72461-1.90869,6.19141-6.05225,7.77441v.09375c3.91064.51172,6.19189,3.49121,6.19189,7.72754,0,6.51758-5.12109,9.68359-12.52295,9.68359-2.79346,0-5.95898-.37305-8.42676-1.07129l.37256-5.54004Z"/>
      <path class="b" d="M71.41504,54.62012c-1.62891-.69824-3.39844-1.30273-5.67969-1.30273-5.16699,0-7.49512,4.42188-7.72754,10.05566l.09277.09277c1.53613-2.23438,3.53809-3.25879,6.33105-3.25879,5.95898,0,9.45117,3.77051,9.45117,9.91602,0,7.44922-3.81738,11.68555-10.80078,11.68555-7.2627,0-11.03418-4.79492-11.03418-15.13086,0-9.96191,3.53809-18.48193,13.36133-18.48193,2.375,0,4.60938.37256,6.84375,1.16406l-.83789,5.26025ZM67.36523,71.14746c0-2.97949-1.16406-6.09863-4.46973-6.09863-2.7002,0-4.3291,2.28125-4.3291,6.14551,0,3.02539,1.25684,5.77246,4.51562,5.77246,3.11914,0,4.2832-3.07227,4.2832-5.81934Z"/>
    </g>
  </symbol>
  <symbol id="TN37" viewBox="0 0 100 100">
    <rect class="l" width="100" height="100" rx="27.5" ry="27.5"/>
    <rect class="w" x="11.25" y="11.25" width="77.5" height="77.5" rx="16.25" ry="16.25"/>
    <g>
      <path class="b" d="M36.1084,40v-18.95801h-6.44873v-3.54688h17.41064v3.54688h-6.44824v18.95801h-4.51367Z"/>
      <path class="b" d="M62.7041,40l-8.6084-16.83008h-.06445v16.83008h-4.3208v-22.50488h5.54541l8.57617,16.83008h.06543v-16.83008h4.32031v22.50488h-5.51367Z"/>
    </g>
    <g>
      <path class="b" d="M26.5791,75.19727c2.37451.93164,4.74854,1.49023,7.16943,1.49023,3.11914,0,6.89014-1.49023,6.89014-4.60938,0-3.39844-2.4209-5.07422-7.12305-5.07422h-3.21191v-5.12109h3.16553c4.14355,0,7.02979-1.48926,7.02979-4.2832,0-2.79297-1.95508-4.28223-5.6333-4.28223-2.46729,0-4.98096.60449-7.26221,1.72168l-.37256-5.21387c2.60693-1.02441,5.72607-1.62939,9.03174-1.62939,5.30713,0,10.75391,2.1416,10.75391,8.3335,0,3.72461-1.90869,6.19141-6.05225,7.77441v.09375c3.91064.51172,6.19189,3.49121,6.19189,7.72754,0,6.51758-5.12109,9.68359-12.52295,9.68359-2.79346,0-5.95898-.37305-8.42676-1.07129l.37256-5.54004Z"/>
      <path class="b" d="M54.65527,81.25l12.05762-27.37402h-14.38574v-5.12158h20.9502v5.40088l-11.5459,27.09473h-7.07617Z"/>
    </g>
  </symbol>
  <symbol id="TN38" viewBox="0 0 100 100">
    <rect class="l" width="100" height="100" rx="27.5" ry="27.5"/>
    <rect class="w" x="11.25" y="11.25" width="77.5" height="77.5" rx="16.25" ry="16.25"/>
    <g>
      <path class="b" d="M36.1084,40v-18.95801h-6.44873v-3.54688h17.41064v3.54688h-6.44824v18.95801h-4.51367Z"/>
      <path class="b" d="M62.7041,40l-8.6084-16.83008h-.06445v16.83008h-4.3208v-22.50488h5.54541l8.57617,16.83008h.06543v-16.83008h4.32031v22.50488h-5.51367Z"/>
    </g>
    <g>
      <path class="b" d="M26.5791,75.19727c2.37451.93164,4.74854,1.49023,7.16943,1.49023,3.11914,0,6.89014-1.49023,6.89014-4.60938,0-3.39844-2.4209-5.07422-7.12305-5.07422h-3.21191v-5.12109h3.16553c4.14355,0,7.02979-1.48926,7.02979-4.2832,0-2.79297-1.95508-4.28223-5.6333-4.28223-2.46729,0-4.98096.60449-7.26221,1.72168l-.37256-5.21387c2.60693-1.02441,5.72607-1.62939,9.03174-1.62939,5.30713,0,10.75391,2.1416,10.75391,8.3335,0,3.72461-1.90869,6.19141-6.05225,7.77441v.09375c3.91064.51172,6.19189,3.49121,6.19189,7.72754,0,6.51758-5.12109,9.68359-12.52295,9.68359-2.79346,0-5.95898-.37305-8.42676-1.07129l.37256-5.54004Z"/>
      <path class="b" d="M68.0166,63.83789c4.18945,1.95605,6.23828,4.70215,6.23828,8.56641,0,6.00586-4.14355,9.4043-11.17285,9.4043-6.9834,0-11.45312-3.25879-11.45312-9.31152,0-3.63086,1.95508-6.14453,5.95996-8.09961v-.09375c-3.81836-1.72266-5.40137-4.65527-5.40137-7.54199,0-5.67969,4.2373-8.56592,10.33594-8.56592,6.00488,0,10.89355,2.56055,10.89355,7.82178,0,3.35156-2.23438,6.51758-5.40039,7.77441v.0459ZM58.14746,72.35742c0,2.6543,2.28027,4.60938,4.93457,4.60938,2.65332,0,4.65527-1.67578,4.65527-4.33008,0-2.51367-1.62988-4.37598-5.44727-5.63281-2.93262,1.39648-4.14258,3.07324-4.14258,5.35352ZM67.17871,57.08789c0-1.8623-1.07129-4.0498-4.05078-4.0498-2.1875,0-4.70117,1.20996-4.70117,3.91016,0,2.04883,1.48926,3.58496,5.12109,4.88867,1.72168-.60547,3.63086-2.60742,3.63086-4.74902Z"/>
    </g>
  </symbol>
  <symbol id="TN39" viewBox="0 0 100 100">
    <rect class="l" width="100" height="100" rx="27.5" ry="27.5"/>
    <rect class="w" x="11.25" y="11.25" width="77.5" height="77.5" rx="16.25" ry="16.25"/>
    <g>
      <path class="b" d="M36.1084,40v-18.95801h-6.44873v-3.54688h17.41064v3.54688h-6.44824v18.95801h-4.51367Z"/>
      <path class="b" d="M62.7041,40l-8.6084-16.83008h-.06445v16.83008h-4.3208v-22.50488h5.54541l8.57617,16.83008h.06543v-16.83008h4.32031v22.50488h-5.51367Z"/>
    </g>
    <g>
      <path class="b" d="M26.5791,75.19727c2.37451.93164,4.74854,1.49023,7.16943,1.49023,3.11914,0,6.89014-1.49023,6.89014-4.60938,0-3.39844-2.4209-5.07422-7.12305-5.07422h-3.21191v-5.12109h3.16553c4.14355,0,7.02979-1.48926,7.02979-4.2832,0-2.79297-1.95508-4.28223-5.6333-4.28223-2.46729,0-4.98096.60449-7.26221,1.72168l-.37256-5.21387c2.60693-1.02441,5.72607-1.62939,9.03174-1.62939,5.30713,0,10.75391,2.1416,10.75391,8.3335,0,3.72461-1.90869,6.19141-6.05225,7.77441v.09375c3.91064.51172,6.19189,3.49121,6.19189,7.72754,0,6.51758-5.12109,9.68359-12.52295,9.68359-2.79346,0-5.95898-.37305-8.42676-1.07129l.37256-5.54004Z"/>
      <path class="b" d="M67.83008,66.53809c-1.53613,2.28125-3.53809,3.25879-6.28418,3.25879-6.23926,0-9.49805-4.00293-9.49805-9.91602,0-7.44824,3.81738-11.68506,10.80078-11.68506,7.2168,0,11.03418,4.74854,11.03418,15.13037,0,10.10254-3.63184,18.48242-13.36133,18.48242-2.37402,0-4.60938-.37305-6.84375-1.16406l.83789-5.26074c1.81543.79199,3.58496,1.30371,5.67969,1.30371,4.70215,0,7.44922-3.72461,7.72852-10.05566l-.09375-.09375ZM67.36523,58.81055c0-3.02637-1.25781-5.77246-4.5625-5.77246-2.74707,0-4.23633,2.60645-4.23633,5.81934,0,3.30469,1.39648,6.09863,4.42188,6.09863,3.21289,0,4.37695-2.97949,4.37695-6.14551Z"/>
    </g>
  </symbol>
  <symbol id="TN40" viewBox="0 0 100 100">
    <rect class="l" width="100" height="100" rx="27.5" ry="27.5"/>
    <rect class="w" x="11.25" y="11.25" width="77.5" height="77.5" rx="16.25" ry="16.25"/>
    <g>
      <path class="b" d="M36.1084,40v-18.95801h-6.44873v-3.54688h17.41064v3.54688h-6.44824v18.95801h-4.51367Z"/>
      <path class="b" d="M62.7041,40l-8.6084-16.83008h-.06445v16.83008h-4.3208v-22.50488h5.54541l8.57617,16.83008h.06543v-16.83008h4.32031v22.50488h-5.51367Z"/>
    </g>
    <g>
      <path class="b" d="M38.86963,81.25v-6.75098h-14.01318v-5.26074l12.15088-20.48389h8.10059v20.90283h4.14355v4.8418h-4.14355v6.75098h-6.23828ZM38.86963,55.55176h-.09326l-8.05371,14.10547h8.14697v-14.10547Z"/>
      <path class="b" d="M51.62891,65.0957c0-10.24219,3.67773-16.8999,11.2666-16.8999,7.44922,0,11.35938,5.86572,11.35938,16.8999,0,10.7998-3.91016,16.71289-11.35938,16.71289-7.40234,0-11.2666-5.30762-11.2666-16.71289ZM67.7373,65.0957c0-4.88867-.13965-12.05762-4.88867-12.05762-4.42188,0-4.70117,6.88965-4.70117,11.91797,0,5.21387.18555,12.01074,4.74805,12.01074,4.70215,0,4.8418-7.03027,4.8418-11.87109Z"/>
    </g>
  </symbol>
  <symbol id="TN51" viewBox="0 0 100 100">
    <rect class="l" width="100" height="100" rx="27.5" ry="27.5"/>
    <rect class="w" x="11.25" y="11.25" width="77.5" height="77.5" rx="16.25" ry="16.25"/>
    <g>
      <path class="b" d="M43.26465,40v-18.95801h-6.44873v-3.54688h17.41064v3.54688h-6.44824v18.95801h-4.51367Z"/>
      <path class="b" d="M56.70605,40v-22.50488h4.51367v22.50488h-4.51367Z"/>
    </g>
    <g>
      <path class="b" d="M27.60352,75.05762c2.7002,1.16406,4.70215,1.62988,6.56396,1.62988,4.14355,0,7.02979-2.04883,7.02979-5.72656,0-3.58398-2.83984-5.63281-7.44873-5.63281-2.00195,0-3.91064.2793-5.81934.88477l.32617-17.4585h18.66797v4.84229h-12.52295l-.13965,6.93652c1.11719-.18652,1.81543-.32617,2.97949-.32617,5.81934,0,10.47461,3.21191,10.47461,10.52148,0,6.65723-4.84131,11.08008-12.6626,11.08008-2.09521,0-5.12109-.32617-7.58838-.93164l.13965-5.81934Z"/>
      <path class="b" d="M62.42969,81.25v-25.09277l-5.49316,4.46875-3.25879-4.23633,9.49707-7.63525h5.77246v32.49561h-6.51758Z"/>
    </g>
  </symbol>
  <symbol id="TN52" viewBox="0 0 100 100">
    <rect class="l" width="100" height="100" rx="27.5" ry="27.5"/>
    <rect class="w" x="11.25" y="11.25" width="77.5" height="77.5" rx="16.25" ry="16.25"/>
    <g>
      <path class="b" d="M43.26465,40v-18.95801h-6.44873v-3.54688h17.41064v3.54688h-6.44824v18.95801h-4.51367Z"/>
      <path class="b" d="M56.70605,40v-22.50488h4.51367v22.50488h-4.51367Z"/>
    </g>
    <g>
      <path class="b" d="M27.60352,75.05762c2.7002,1.16406,4.70215,1.62988,6.56396,1.62988,4.14355,0,7.02979-2.04883,7.02979-5.72656,0-3.58398-2.83984-5.63281-7.44873-5.63281-2.00195,0-3.91064.2793-5.81934.88477l.32617-17.4585h18.66797v4.84229h-12.52295l-.13965,6.93652c1.11719-.18652,1.81543-.32617,2.97949-.32617,5.81934,0,10.47461,3.21191,10.47461,10.52148,0,6.65723-4.84131,11.08008-12.6626,11.08008-2.09521,0-5.12109-.32617-7.58838-.93164l.13965-5.81934Z"/>
      <path class="b" d="M51.9082,81.25v-5.44727l3.91113-3.63086c6.23828-5.81934,10.14844-10.94043,10.14844-14.47852,0-2.79395-2.41992-4.37598-5.30664-4.37598-2.23438,0-4.70215.79102-7.49609,2.60645l-.51172-5.40039c2.97949-1.48975,6.28516-2.32764,9.63672-2.32764,6.47168,0,10.19629,3.39893,10.19629,9.49756,0,4.51562-2.60742,9.4502-12.24414,18.43555h13.26758v5.12109h-21.60156Z"/>
    </g>
  </symbol>
  <symbol id="TN53" viewBox="0 0 100 100">
    <rect class="l" width="100" height="100" rx="27.5" ry="27.5"/>
    <rect class="w" x="11.25" y="11.25" width="77.5" height="77.5" rx="16.25" ry="16.25"/>
    <g>
      <path class="b" d="M43.26465,40v-18.95801h-6.44873v-3.54688h17.41064v3.54688h-6.44824v18.95801h-4.51367Z"/>
      <path class="b" d="M56.70605,40v-22.50488h4.51367v22.50488h-4.51367Z"/>
    </g>
    <g>
      <path class="b" d="M27.60352,75.05762c2.7002,1.16406,4.70215,1.62988,6.56396,1.62988,4.14355,0,7.02979-2.04883,7.02979-5.72656,0-3.58398-2.83984-5.63281-7.44873-5.63281-2.00195,0-3.91064.2793-5.81934.88477l.32617-17.4585h18.66797v4.84229h-12.52295l-.13965,6.93652c1.11719-.18652,1.81543-.32617,2.97949-.32617,5.81934,0,10.47461,3.21191,10.47461,10.52148,0,6.65723-4.84131,11.08008-12.6626,11.08008-2.09521,0-5.12109-.32617-7.58838-.93164l.13965-5.81934Z"/>
      <path class="b" d="M52.4668,75.19727c2.375.93164,4.74902,1.49023,7.16992,1.49023,3.11914,0,6.89062-1.49023,6.89062-4.60938,0-3.39844-2.4209-5.07422-7.12305-5.07422h-3.21289v-5.12109h3.16602c4.14355,0,7.0293-1.48926,7.0293-4.2832,0-2.79297-1.95508-4.28223-5.63281-4.28223-2.4668,0-4.98145.60449-7.2627,1.72168l-.37207-5.21387c2.60645-1.02441,5.72656-1.62939,9.03125-1.62939,5.30762,0,10.75488,2.1416,10.75488,8.3335,0,3.72461-1.90918,6.19141-6.05273,7.77441v.09375c3.91113.51172,6.19238,3.49121,6.19238,7.72754,0,6.51758-5.12109,9.68359-12.52344,9.68359-2.79297,0-5.95898-.37305-8.42676-1.07129l.37207-5.54004Z"/>
    </g>
  </symbol>
  <symbol id="TN54" viewBox="0 0 100 100">
    <rect class="l" width="100" height="100" rx="27.5" ry="27.5"/>
    <rect class="w" x="11.25" y="11.25" width="77.5" height="77.5" rx="16.25" ry="16.25"/>
    <g>
      <path class="b" d="M43.26465,40v-18.95801h-6.44873v-3.54688h17.41064v3.54688h-6.44824v18.95801h-4.51367Z"/>
      <path class="b" d="M56.70605,40v-22.50488h4.51367v22.50488h-4.51367Z"/>
    </g>
    <g>
      <path class="b" d="M27.60352,75.05762c2.7002,1.16406,4.70215,1.62988,6.56396,1.62988,4.14355,0,7.02979-2.04883,7.02979-5.72656,0-3.58398-2.83984-5.63281-7.44873-5.63281-2.00195,0-3.91064.2793-5.81934.88477l.32617-17.4585h18.66797v4.84229h-12.52295l-.13965,6.93652c1.11719-.18652,1.81543-.32617,2.97949-.32617,5.81934,0,10.47461,3.21191,10.47461,10.52148,0,6.65723-4.84131,11.08008-12.6626,11.08008-2.09521,0-5.12109-.32617-7.58838-.93164l.13965-5.81934Z"/>
      <path class="b" d="M64.75781,81.25v-6.75098h-14.0127v-5.26074l12.15039-20.48389h8.10059v20.90283h4.14355v4.8418h-4.14355v6.75098h-6.23828ZM64.75781,55.55176h-.09277l-8.05469,14.10547h8.14746v-14.10547Z"/>
    </g>
  </symbol>
  <symbol id="TN55" viewBox="0 0 100 100">
    <rect class="l" width="100" height="100" rx="27.5" ry="27.5"/>
    <rect class="w" x="11.25" y="11.25" width="77.5" height="77.5" rx="16.25" ry="16.25"/>
    <g>
      <path class="b" d="M43.26465,40v-18.95801h-6.44873v-3.54688h17.41064v3.54688h-6.44824v18.95801h-4.51367Z"/>
      <path class="b" d="M56.70605,40v-22.50488h4.51367v22.50488h-4.51367Z"/>
    </g>
    <g>
      <path class="b" d="M27.60352,75.05762c2.7002,1.16406,4.70215,1.62988,6.56396,1.62988,4.14355,0,7.02979-2.04883,7.02979-5.72656,0-3.58398-2.83984-5.63281-7.44873-5.63281-2.00195,0-3.91064.2793-5.81934.88477l.32617-17.4585h18.66797v4.84229h-12.52295l-.13965,6.93652c1.11719-.18652,1.81543-.32617,2.97949-.32617,5.81934,0,10.47461,3.21191,10.47461,10.52148,0,6.65723-4.84131,11.08008-12.6626,11.08008-2.09521,0-5.12109-.32617-7.58838-.93164l.13965-5.81934Z"/>
      <path class="b" d="M53.49121,75.05762c2.7002,1.16406,4.70215,1.62988,6.56445,1.62988,4.14355,0,7.03027-2.04883,7.03027-5.72656,0-3.58398-2.83984-5.63281-7.44922-5.63281-2.00195,0-3.91113.2793-5.81934.88477l.32617-17.4585h18.66797v4.84229h-12.52344l-.13965,6.93652c1.11816-.18652,1.81641-.32617,2.97949-.32617,5.81934,0,10.47559,3.21191,10.47559,10.52148,0,6.65723-4.8418,11.08008-12.66309,11.08008-2.09473,0-5.12109-.32617-7.58887-.93164l.13965-5.81934Z"/>
    </g>
  </symbol>
  <symbol id="TN56" viewBox="0 0 100 100">
    <rect class="l" width="100" height="100" rx="27.5" ry="27.5"/>
    <rect class="w" x="11.25" y="11.25" width="77.5" height="77.5" rx="16.25" ry="16.25"/>
    <g>
      <path class="b" d="M43.26465,40v-18.95801h-6.44873v-3.54688h17.41064v3.54688h-6.44824v18.95801h-4.51367Z"/>
      <path class="b" d="M56.70605,40v-22.50488h4.51367v22.50488h-4.51367Z"/>
    </g>
    <g>
      <path class="b" d="M27.60352,75.05762c2.7002,1.16406,4.70215,1.62988,6.56396,1.62988,4.14355,0,7.02979-2.04883,7.02979-5.72656,0-3.58398-2.83984-5.63281-7.44873-5.63281-2.00195,0-3.91064.2793-5.81934.88477l.32617-17.4585h18.66797v4.84229h-12.52295l-.13965,6.93652c1.11719-.18652,1.81543-.32617,2.97949-.32617,5.81934,0,10.47461,3.21191,10.47461,10.52148,0,6.65723-4.84131,11.08008-12.6626,11.08008-2.09521,0-5.12109-.32617-7.58838-.93164l.13965-5.81934Z"/>
      <path class="b" d="M71.41504,54.62012c-1.62891-.69824-3.39844-1.30273-5.67969-1.30273-5.16699,0-7.49512,4.42188-7.72754,10.05566l.09277.09277c1.53613-2.23438,3.53809-3.25879,6.33105-3.25879,5.95898,0,9.45117,3.77051,9.45117,9.91602,0,7.44922-3.81738,11.68555-10.80078,11.68555-7.2627,0-11.03418-4.79492-11.03418-15.13086,0-9.96191,3.53809-18.48193,13.36133-18.48193,2.375,0,4.60938.37256,6.84375,1.16406l-.83789,5.26025ZM67.36523,71.14746c0-2.97949-1.16406-6.09863-4.46973-6.09863-2.7002,0-4.3291,2.28125-4.3291,6.14551,0,3.02539,1.25684,5.77246,4.51562,5.77246,3.11914,0,4.2832-3.07227,4.2832-5.81934Z"/>
    </g>
  </symbol>
  <symbol id="TN57" viewBox="0 0 100 100">
    <rect class="l" width="100" height="100" rx="27.5" ry="27.5"/>
    <rect class="w" x="11.25" y="11.25" width="77.5" height="77.5" rx="16.25" ry="16.25"/>
    <g>
      <path class="b" d="M43.26465,40v-18.95801h-6.44873v-3.54688h17.41064v3.54688h-6.44824v18.95801h-4.51367Z"/>
      <path class="b" d="M56.70605,40v-22.50488h4.51367v22.50488h-4.51367Z"/>
    </g>
    <g>
      <path class="b" d="M27.60352,75.05762c2.7002,1.16406,4.70215,1.62988,6.56396,1.62988,4.14355,0,7.02979-2.04883,7.02979-5.72656,0-3.58398-2.83984-5.63281-7.44873-5.63281-2.00195,0-3.91064.2793-5.81934.88477l.32617-17.4585h18.66797v4.84229h-12.52295l-.13965,6.93652c1.11719-.18652,1.81543-.32617,2.97949-.32617,5.81934,0,10.47461,3.21191,10.47461,10.52148,0,6.65723-4.84131,11.08008-12.6626,11.08008-2.09521,0-5.12109-.32617-7.58838-.93164l.13965-5.81934Z"/>
      <path class="b" d="M54.65527,81.25l12.05762-27.37402h-14.38574v-5.12158h20.9502v5.40088l-11.5459,27.09473h-7.07617Z"/>
    </g>
  </symbol>
  <symbol id="TN58" viewBox="0 0 100 100">
    <rect class="l" width="100" height="100" rx="27.5" ry="27.5"/>
    <rect class="w" x="11.25" y="11.25" width="77.5" height="77.5" rx="16.25" ry="16.25"/>
    <g>
      <path class="b" d="M43.26465,40v-18.95801h-6.44873v-3.54688h17.41064v3.54688h-6.44824v18.95801h-4.51367Z"/>
      <path class="b" d="M56.70605,40v-22.50488h4.51367v22.50488h-4.51367Z"/>
    </g>
    <g>
      <path class="b" d="M27.60352,75.05762c2.7002,1.16406,4.70215,1.62988,6.56396,1.62988,4.14355,0,7.02979-2.04883,7.02979-5.72656,0-3.58398-2.83984-5.63281-7.44873-5.63281-2.00195,0-3.91064.2793-5.81934.88477l.32617-17.4585h18.66797v4.84229h-12.52295l-.13965,6.93652c1.11719-.18652,1.81543-.32617,2.97949-.32617,5.81934,0,10.47461,3.21191,10.47461,10.52148,0,6.65723-4.84131,11.08008-12.6626,11.08008-2.09521,0-5.12109-.32617-7.58838-.93164l.13965-5.81934Z"/>
      <path class="b" d="M68.0166,63.83789c4.18945,1.95605,6.23828,4.70215,6.23828,8.56641,0,6.00586-4.14355,9.4043-11.17285,9.4043-6.9834,0-11.45312-3.25879-11.45312-9.31152,0-3.63086,1.95508-6.14453,5.95996-8.09961v-.09375c-3.81836-1.72266-5.40137-4.65527-5.40137-7.54199,0-5.67969,4.2373-8.56592,10.33594-8.56592,6.00488,0,10.89355,2.56055,10.89355,7.82178,0,3.35156-2.23438,6.51758-5.40039,7.77441v.0459ZM58.14746,72.35742c0,2.6543,2.28027,4.60938,4.93457,4.60938,2.65332,0,4.65527-1.67578,4.65527-4.33008,0-2.51367-1.62988-4.37598-5.44727-5.63281-2.93262,1.39648-4.14258,3.07324-4.14258,5.35352ZM67.17871,57.08789c0-1.8623-1.07129-4.0498-4.05078-4.0498-2.1875,0-4.70117,1.20996-4.70117,3.91016,0,2.04883,1.48926,3.58496,5.12109,4.88867,1.72168-.60547,3.63086-2.60742,3.63086-4.74902Z"/>
    </g>
  </symbol>
</svg>
