<?xml version="1.0" encoding="UTF-8"?>
<svg xmlns="http://www.w3.org/2000/svg" xmlns:xlink="http://www.w3.org/1999/xlink">
  <!-- DIC-361 -->
  <symbol id="S" viewBox="0 0 100 100">
    <circle fill="#9fb01c" cx="50" cy="50" r="50"/>
    <circle fill="#fff" cx="50" cy="50" r="27.15"/>
    <path fill="#231815" d="M57.14746,42.41406c-.89746-.72852-1.79395-1.26758-2.69141-1.61865-.89746-.3501-1.76562-.52539-2.60645-.52539-1.06494,0-1.93359.25195-2.60645.75684-.67236.50439-1.00879,1.16309-1.00879,1.97607,0,.56104.16797,1.02344.50439,1.38721.33643.36475.77783.67969,1.32422.9458.54688.26709,1.1626.49805,1.8501.69385.68652.19629,1.36621.40674,2.03906.63086,2.69043.89697,4.65918,2.09521,5.90723,3.59424,1.24609,1.5,1.87012,3.45508,1.87012,5.86523,0,1.62598-.27344,3.09668-.81934,4.41406-.54688,1.31738-1.3457,2.44629-2.39648,3.38477-1.05078.93945-2.34082,1.66797-3.86816,2.18652-1.52832.51758-3.25781.77734-5.19189.77734-4.0083,0-7.72217-1.19043-11.14111-3.57324l3.53125-6.64355c1.2334,1.09375,2.45264,1.90625,3.65771,2.43848,1.20508.5332,2.39648.79883,3.57373.79883,1.34521,0,2.34668-.30762,3.00586-.9248.6582-.61621.98828-1.31738.98828-2.10156,0-.47656-.08398-.88965-.25293-1.24023-.16797-.35059-.44824-.67285-.84082-.96777-.39258-.29395-.90332-.56738-1.53418-.81934-.63037-.25195-1.39453-.53223-2.29102-.84082-1.06543-.33691-2.10938-.70801-3.13232-1.11426-1.02344-.40625-1.93408-.9458-2.73291-1.61865-.79883-.67236-1.44385-1.52002-1.93359-2.54346-.49072-1.02295-.73584-2.31885-.73584-3.88867,0-1.56934.25879-2.9917.77783-4.26758.51807-1.2749,1.24658-2.36816,2.18604-3.2793.93896-.91064,2.08789-1.61865,3.44775-2.12305,1.35889-.50439,2.87988-.75684,4.56152-.75684,1.56934,0,3.20898.21729,4.91895.65186,1.70898.43457,3.34863,1.07178,4.91895,1.9126l-3.2793,6.43262Z"/>  
  </symbol>
  <symbol id="S01" viewBox="0 0 100 100">
    <circle fill="#9fb01c" cx="50" cy="50" r="50"/>
    <circle fill="#fff" cx="50" cy="50" r="42.5"/>
    <path fill="#231815" d="M55.59082,18.84766c-.70215-.56982-1.40332-.9917-2.10449-1.26611-.70215-.27393-1.38184-.41113-2.03906-.41113-.83398,0-1.51318.19727-2.03955.5918-.52637.39502-.78906.91016-.78906,1.5459,0,.43896.13135.80078.39453,1.08545.26318.28516.6084.53223,1.03613.74023.42725.2085.90967.38965,1.44678.54248.53711.15381,1.06934.31836,1.5957.49365,2.10449.70166,3.64453,1.63916,4.62109,2.81201.97559,1.17334,1.46387,2.70264,1.46387,4.58838,0,1.27197-.21387,2.42334-.6416,3.45361-.42773,1.03076-1.05273,1.91357-1.875,2.64795s-1.83105,1.30469-3.02637,1.70996-2.54883.6084-4.06152.6084c-3.13574,0-6.04102-.93164-8.71631-2.7959l2.76318-5.19629c.96436.85498,1.91846,1.49121,2.86133,1.90771.94238.4165,1.875.625,2.7959.625,1.05225,0,1.83594-.24121,2.35156-.72363.51465-.48242.77246-1.03076.77246-1.64453,0-.37305-.06543-.69629-.19727-.9707-.13086-.27393-.35059-.52588-.65723-.75635-.30762-.22998-.70752-.44385-1.20068-.64111-.49316-.19775-1.09082-.4165-1.79248-.6582-.8335-.26318-1.65039-.55322-2.45068-.87158-.80029-.31738-1.5127-.73975-2.1377-1.26611s-1.12988-1.18945-1.51318-1.99023c-.38379-.7998-.57568-1.81396-.57568-3.04199s.20264-2.34082.60889-3.33887c.40527-.99756.9751-1.85254,1.70996-2.56543.73486-.7124,1.6333-1.26611,2.69727-1.66113,1.06348-.39453,2.25293-.5918,3.56885-.5918,1.22705,0,2.51025.16992,3.84814.50977,1.33691.34033,2.62012.83887,3.84766,1.49658l-2.56543,5.03223Z"/>
    <g>
      <path fill="#231815" d="M22.07764,62.00781c0-2.53906.33105-4.84473.99414-6.91797.6626-2.07324,1.59326-3.84277,2.79248-5.30908,1.19824-1.46631,2.62305-2.60205,4.27295-3.40576s3.47607-1.20605,5.479-1.20605c1.97363,0,3.79297.40234,5.45752,1.20605,1.66406.80371,3.08838,1.93945,4.27295,3.40576,1.18506,1.46631,2.1084,3.23584,2.77148,5.30908.66211,2.07324.99414,4.37891.99414,6.91797,0,2.53809-.33203,4.84375-.99414,6.91699-.66309,2.07324-1.58643,3.84961-2.77148,5.33105-1.18457,1.48047-2.60889,2.62305-4.27295,3.42676-1.66455.80371-3.48389,1.20605-5.45752,1.20605-2.00293,0-3.8291-.40234-5.479-1.20605s-3.07471-1.94629-4.27295-3.42676c-1.19922-1.48145-2.12988-3.25781-2.79248-5.33105-.66309-2.07324-.99414-4.37891-.99414-6.91699ZM30.28516,62.00781c0,1.41016.12695,2.69336.38086,3.84961.25391,1.15723.61377,2.15723,1.0791,3.00391.46533.8457,1.02197,1.50195,1.6709,1.9668.64844.46582,1.38184.69824,2.2002.69824.78906,0,1.51562-.23242,2.17871-.69824.6626-.46484,1.21973-1.12109,1.67139-1.9668.45068-.84668.80371-1.84668,1.05762-3.00391.25391-1.15625.38086-2.43945.38086-3.84961,0-1.38184-.12695-2.6582-.38086-3.8291-.25391-1.16992-.60693-2.17188-1.05762-3.00391-.45166-.83203-1.00879-1.48047-1.67139-1.94629-.66309-.46582-1.38965-.69824-2.17871-.69824-.81836,0-1.55176.23242-2.2002.69824-.64893.46582-1.20557,1.11426-1.6709,1.94629s-.8252,1.83398-1.0791,3.00391c-.25391,1.1709-.38086,2.44727-.38086,3.8291Z"/>
      <path fill="#231815" d="M61.21191,53.12305h-4.6543v-7.02295h12.94629v31.8999h-8.29199v-24.87695Z"/>
    </g>
  </symbol>
  <symbol id="S02" viewBox="0 0 100 100">
    <circle fill="#9fb01c" cx="50" cy="50" r="50"/>
    <circle fill="#fff" cx="50" cy="50" r="42.5"/>
    <path fill="#231815" d="M55.59082,18.84766c-.70215-.56982-1.40332-.9917-2.10449-1.26611-.70215-.27393-1.38184-.41113-2.03906-.41113-.83398,0-1.51318.19727-2.03955.5918-.52637.39502-.78906.91016-.78906,1.5459,0,.43896.13135.80078.39453,1.08545.26318.28516.6084.53223,1.03613.74023.42725.2085.90967.38965,1.44678.54248.53711.15381,1.06934.31836,1.5957.49365,2.10449.70166,3.64453,1.63916,4.62109,2.81201.97559,1.17334,1.46387,2.70264,1.46387,4.58838,0,1.27197-.21387,2.42334-.6416,3.45361-.42773,1.03076-1.05273,1.91357-1.875,2.64795s-1.83105,1.30469-3.02637,1.70996-2.54883.6084-4.06152.6084c-3.13574,0-6.04102-.93164-8.71631-2.7959l2.76318-5.19629c.96436.85498,1.91846,1.49121,2.86133,1.90771.94238.4165,1.875.625,2.7959.625,1.05225,0,1.83594-.24121,2.35156-.72363.51465-.48242.77246-1.03076.77246-1.64453,0-.37305-.06543-.69629-.19727-.9707-.13086-.27393-.35059-.52588-.65723-.75635-.30762-.22998-.70752-.44385-1.20068-.64111-.49316-.19775-1.09082-.4165-1.79248-.6582-.8335-.26318-1.65039-.55322-2.45068-.87158-.80029-.31738-1.5127-.73975-2.1377-1.26611s-1.12988-1.18945-1.51318-1.99023c-.38379-.7998-.57568-1.81396-.57568-3.04199s.20264-2.34082.60889-3.33887c.40527-.99756.9751-1.85254,1.70996-2.56543.73486-.7124,1.6333-1.26611,2.69727-1.66113,1.06348-.39453,2.25293-.5918,3.56885-.5918,1.22705,0,2.51025.16992,3.84814.50977,1.33691.34033,2.62012.83887,3.84766,1.49658l-2.56543,5.03223Z"/>
    <g>
      <path fill="#231815" d="M22.07764,62.00781c0-2.53906.33105-4.84473.99414-6.91797.6626-2.07324,1.59326-3.84277,2.79248-5.30908,1.19824-1.46631,2.62305-2.60205,4.27295-3.40576s3.47607-1.20605,5.479-1.20605c1.97363,0,3.79297.40234,5.45752,1.20605,1.66406.80371,3.08838,1.93945,4.27295,3.40576,1.18506,1.46631,2.1084,3.23584,2.77148,5.30908.66211,2.07324.99414,4.37891.99414,6.91797,0,2.53809-.33203,4.84375-.99414,6.91699-.66309,2.07324-1.58643,3.84961-2.77148,5.33105-1.18457,1.48047-2.60889,2.62305-4.27295,3.42676-1.66455.80371-3.48389,1.20605-5.45752,1.20605-2.00293,0-3.8291-.40234-5.479-1.20605s-3.07471-1.94629-4.27295-3.42676c-1.19922-1.48145-2.12988-3.25781-2.79248-5.33105-.66309-2.07324-.99414-4.37891-.99414-6.91699ZM30.28516,62.00781c0,1.41016.12695,2.69336.38086,3.84961.25391,1.15723.61377,2.15723,1.0791,3.00391.46533.8457,1.02197,1.50195,1.6709,1.9668.64844.46582,1.38184.69824,2.2002.69824.78906,0,1.51562-.23242,2.17871-.69824.6626-.46484,1.21973-1.12109,1.67139-1.9668.45068-.84668.80371-1.84668,1.05762-3.00391.25391-1.15625.38086-2.43945.38086-3.84961,0-1.38184-.12695-2.6582-.38086-3.8291-.25391-1.16992-.60693-2.17188-1.05762-3.00391-.45166-.83203-1.00879-1.48047-1.67139-1.94629-.66309-.46582-1.38965-.69824-2.17871-.69824-.81836,0-1.55176.23242-2.2002.69824-.64893.46582-1.20557,1.11426-1.6709,1.94629s-.8252,1.83398-1.0791,3.00391c-.25391,1.1709-.38086,2.44727-.38086,3.8291Z"/>
      <path fill="#231815" d="M76.86523,78h-25.68066l7.91211-8.20801c2.08691-2.17188,3.72266-4.01172,4.90723-5.52148,1.18457-1.50781,2.06641-2.78516,2.64453-3.82812.57812-1.04395.9375-1.88965,1.0791-2.53906.14062-.64844.21094-1.19824.21094-1.64941,0-.47949-.07812-.94531-.23242-1.39648-.15527-.45117-.3877-.85254-.69824-1.20605-.31055-.35254-.68359-.63477-1.12109-.8457-.4375-.21191-.95215-.31738-1.54395-.31738-1.12891,0-2.00977.36719-2.64453,1.09961-.63477.73438-.95215,1.65039-.95215,2.75,0,.31055.04297.76172.12695,1.35449h-9.05371c0-1.8623.30273-3.55469.91016-5.07715.60547-1.52344,1.45898-2.83447,2.55957-3.93457,1.09961-1.1001,2.4043-1.94629,3.91309-2.53857s3.16602-.88818,4.97168-.88818c1.77637,0,3.41895.28223,4.92871.84619,1.50781.56445,2.81348,1.35352,3.91309,2.36914,1.09961,1.01514,1.95996,2.22119,2.58105,3.6167.62012,1.39648.93066,2.91309.93066,4.54883,0,1.74902-.37402,3.36328-1.12109,4.84375-.74805,1.48047-1.93945,2.99707-3.5752,4.54785l-5.28809,4.9502h10.32227v7.02344Z"/>
    </g>
  </symbol>
  <symbol id="S03" viewBox="0 0 100 100">
    <circle fill="#9fb01c" cx="50" cy="50" r="50"/>
    <circle fill="#fff" cx="50" cy="50" r="42.5"/>
    <path fill="#231815" d="M55.59082,18.84766c-.70215-.56982-1.40332-.9917-2.10449-1.26611-.70215-.27393-1.38184-.41113-2.03906-.41113-.83398,0-1.51318.19727-2.03955.5918-.52637.39502-.78906.91016-.78906,1.5459,0,.43896.13135.80078.39453,1.08545.26318.28516.6084.53223,1.03613.74023.42725.2085.90967.38965,1.44678.54248.53711.15381,1.06934.31836,1.5957.49365,2.10449.70166,3.64453,1.63916,4.62109,2.81201.97559,1.17334,1.46387,2.70264,1.46387,4.58838,0,1.27197-.21387,2.42334-.6416,3.45361-.42773,1.03076-1.05273,1.91357-1.875,2.64795s-1.83105,1.30469-3.02637,1.70996-2.54883.6084-4.06152.6084c-3.13574,0-6.04102-.93164-8.71631-2.7959l2.76318-5.19629c.96436.85498,1.91846,1.49121,2.86133,1.90771.94238.4165,1.875.625,2.7959.625,1.05225,0,1.83594-.24121,2.35156-.72363.51465-.48242.77246-1.03076.77246-1.64453,0-.37305-.06543-.69629-.19727-.9707-.13086-.27393-.35059-.52588-.65723-.75635-.30762-.22998-.70752-.44385-1.20068-.64111-.49316-.19775-1.09082-.4165-1.79248-.6582-.8335-.26318-1.65039-.55322-2.45068-.87158-.80029-.31738-1.5127-.73975-2.1377-1.26611s-1.12988-1.18945-1.51318-1.99023c-.38379-.7998-.57568-1.81396-.57568-3.04199s.20264-2.34082.60889-3.33887c.40527-.99756.9751-1.85254,1.70996-2.56543.73486-.7124,1.6333-1.26611,2.69727-1.66113,1.06348-.39453,2.25293-.5918,3.56885-.5918,1.22705,0,2.51025.16992,3.84814.50977,1.33691.34033,2.62012.83887,3.84766,1.49658l-2.56543,5.03223Z"/>
    <g>
      <path fill="#231815" d="M22.07764,62.00781c0-2.53906.33105-4.84473.99414-6.91797.6626-2.07324,1.59326-3.84277,2.79248-5.30908,1.19824-1.46631,2.62305-2.60205,4.27295-3.40576s3.47607-1.20605,5.479-1.20605c1.97363,0,3.79297.40234,5.45752,1.20605,1.66406.80371,3.08838,1.93945,4.27295,3.40576,1.18506,1.46631,2.1084,3.23584,2.77148,5.30908.66211,2.07324.99414,4.37891.99414,6.91797,0,2.53809-.33203,4.84375-.99414,6.91699-.66309,2.07324-1.58643,3.84961-2.77148,5.33105-1.18457,1.48047-2.60889,2.62305-4.27295,3.42676-1.66455.80371-3.48389,1.20605-5.45752,1.20605-2.00293,0-3.8291-.40234-5.479-1.20605s-3.07471-1.94629-4.27295-3.42676c-1.19922-1.48145-2.12988-3.25781-2.79248-5.33105-.66309-2.07324-.99414-4.37891-.99414-6.91699ZM30.28516,62.00781c0,1.41016.12695,2.69336.38086,3.84961.25391,1.15723.61377,2.15723,1.0791,3.00391.46533.8457,1.02197,1.50195,1.6709,1.9668.64844.46582,1.38184.69824,2.2002.69824.78906,0,1.51562-.23242,2.17871-.69824.6626-.46484,1.21973-1.12109,1.67139-1.9668.45068-.84668.80371-1.84668,1.05762-3.00391.25391-1.15625.38086-2.43945.38086-3.84961,0-1.38184-.12695-2.6582-.38086-3.8291-.25391-1.16992-.60693-2.17188-1.05762-3.00391-.45166-.83203-1.00879-1.48047-1.67139-1.94629-.66309-.46582-1.38965-.69824-2.17871-.69824-.81836,0-1.55176.23242-2.2002.69824-.64893.46582-1.20557,1.11426-1.6709,1.94629s-.8252,1.83398-1.0791,3.00391c-.25391,1.1709-.38086,2.44727-.38086,3.8291Z"/>
      <path fill="#231815" d="M62.65039,58.53809c.22559.02832.41602.04199.57129.04199h.40137c1.04395,0,1.88965-.30957,2.53906-.93066.64844-.62012.97266-1.42383.97266-2.41113,0-.95898-.30371-1.73438-.90918-2.32715-.60742-.5918-1.38965-.88867-2.34863-.88867-1.01465,0-1.83398.33887-2.45312,1.01562-.62109.67676-.93164,1.55176-.93164,2.62305h-7.65723c.19727-1.66406.61328-3.14453,1.24805-4.44238.63477-1.29639,1.44531-2.39014,2.43262-3.27832.9873-.88867,2.14355-1.56543,3.46973-2.03076,1.3252-.46533,2.79199-.69824,4.39941-.69824,1.5791,0,3.01074.21875,4.29395.65576,1.2832.4375,2.38379,1.05762,3.30078,1.86133.91602.8042,1.62109,1.77734,2.11523,2.91943.49316,1.14209.74023,2.41846.74023,3.82861,0,1.52344-.29004,2.77148-.86719,3.74414-.57812.97363-1.40332,1.8125-2.47559,2.51758,1.63574.50781,2.91211,1.41699,3.8291,2.72852.91602,1.31152,1.375,2.92676,1.375,4.84473,0,1.58008-.31055,3.01855-.93066,4.31543-.62109,1.29785-1.48828,2.41113-2.60156,3.3418-1.11523.93164-2.44043,1.65039-3.97754,2.1582s-3.22266.76172-5.05566.76172c-2.4541,0-4.66797-.48047-6.64258-1.43848-1.97461-.95898-3.55371-2.48145-4.73828-4.56934-.53613-.93066-.89551-1.8623-1.07812-2.79297-.18457-.93066-.27539-1.875-.27539-2.83398h8.20801c.05566,1.49512.49316,2.62988,1.31152,3.40527.81738.77637,1.91699,1.16406,3.2998,1.16406,1.46582,0,2.53809-.39551,3.21484-1.18457.67773-.79004,1.01562-1.7627,1.01562-2.91992,0-1.38184-.40918-2.4248-1.22656-3.13086-.81836-.7041-1.79199-1.05762-2.91992-1.05762-.28223,0-.5498.02148-.80371.06348-.25391.04297-.53613.0918-.8457.14844v-5.2041Z"/>
    </g>
  </symbol>
  <symbol id="S04" viewBox="0 0 100 100">
    <circle fill="#9fb01c" cx="50" cy="50" r="50"/>
    <circle fill="#fff" cx="50" cy="50" r="42.5"/>
    <path fill="#231815" d="M55.59082,18.84766c-.70215-.56982-1.40332-.9917-2.10449-1.26611-.70215-.27393-1.38184-.41113-2.03906-.41113-.83398,0-1.51318.19727-2.03955.5918-.52637.39502-.78906.91016-.78906,1.5459,0,.43896.13135.80078.39453,1.08545.26318.28516.6084.53223,1.03613.74023.42725.2085.90967.38965,1.44678.54248.53711.15381,1.06934.31836,1.5957.49365,2.10449.70166,3.64453,1.63916,4.62109,2.81201.97559,1.17334,1.46387,2.70264,1.46387,4.58838,0,1.27197-.21387,2.42334-.6416,3.45361-.42773,1.03076-1.05273,1.91357-1.875,2.64795s-1.83105,1.30469-3.02637,1.70996-2.54883.6084-4.06152.6084c-3.13574,0-6.04102-.93164-8.71631-2.7959l2.76318-5.19629c.96436.85498,1.91846,1.49121,2.86133,1.90771.94238.4165,1.875.625,2.7959.625,1.05225,0,1.83594-.24121,2.35156-.72363.51465-.48242.77246-1.03076.77246-1.64453,0-.37305-.06543-.69629-.19727-.9707-.13086-.27393-.35059-.52588-.65723-.75635-.30762-.22998-.70752-.44385-1.20068-.64111-.49316-.19775-1.09082-.4165-1.79248-.6582-.8335-.26318-1.65039-.55322-2.45068-.87158-.80029-.31738-1.5127-.73975-2.1377-1.26611s-1.12988-1.18945-1.51318-1.99023c-.38379-.7998-.57568-1.81396-.57568-3.04199s.20264-2.34082.60889-3.33887c.40527-.99756.9751-1.85254,1.70996-2.56543.73486-.7124,1.6333-1.26611,2.69727-1.66113,1.06348-.39453,2.25293-.5918,3.56885-.5918,1.22705,0,2.51025.16992,3.84814.50977,1.33691.34033,2.62012.83887,3.84766,1.49658l-2.56543,5.03223Z"/>
    <g>
      <path fill="#231815" d="M22.07764,62.00781c0-2.53906.33105-4.84473.99414-6.91797.6626-2.07324,1.59326-3.84277,2.79248-5.30908,1.19824-1.46631,2.62305-2.60205,4.27295-3.40576s3.47607-1.20605,5.479-1.20605c1.97363,0,3.79297.40234,5.45752,1.20605,1.66406.80371,3.08838,1.93945,4.27295,3.40576,1.18506,1.46631,2.1084,3.23584,2.77148,5.30908.66211,2.07324.99414,4.37891.99414,6.91797,0,2.53809-.33203,4.84375-.99414,6.91699-.66309,2.07324-1.58643,3.84961-2.77148,5.33105-1.18457,1.48047-2.60889,2.62305-4.27295,3.42676-1.66455.80371-3.48389,1.20605-5.45752,1.20605-2.00293,0-3.8291-.40234-5.479-1.20605s-3.07471-1.94629-4.27295-3.42676c-1.19922-1.48145-2.12988-3.25781-2.79248-5.33105-.66309-2.07324-.99414-4.37891-.99414-6.91699ZM30.28516,62.00781c0,1.41016.12695,2.69336.38086,3.84961.25391,1.15723.61377,2.15723,1.0791,3.00391.46533.8457,1.02197,1.50195,1.6709,1.9668.64844.46582,1.38184.69824,2.2002.69824.78906,0,1.51562-.23242,2.17871-.69824.6626-.46484,1.21973-1.12109,1.67139-1.9668.45068-.84668.80371-1.84668,1.05762-3.00391.25391-1.15625.38086-2.43945.38086-3.84961,0-1.38184-.12695-2.6582-.38086-3.8291-.25391-1.16992-.60693-2.17188-1.05762-3.00391-.45166-.83203-1.00879-1.48047-1.67139-1.94629-.66309-.46582-1.38965-.69824-2.17871-.69824-.81836,0-1.55176.23242-2.2002.69824-.64893.46582-1.20557,1.11426-1.6709,1.94629s-.8252,1.83398-1.0791,3.00391c-.25391,1.1709-.38086,2.44727-.38086,3.8291Z"/>
      <path fill="#231815" d="M73.69238,65.0957h3.85059v6.34668h-3.85059v6.55762h-7.7002v-6.55762h-15.39941v-5.33105l12.18457-20.01123h10.91504v18.99561ZM65.99219,65.0957v-12.56543l-7.31836,12.56543h7.31836Z"/>
    </g>
  </symbol>
  <symbol id="S05" viewBox="0 0 100 100">
    <circle fill="#9fb01c" cx="50" cy="50" r="50"/>
    <circle fill="#fff" cx="50" cy="50" r="42.5"/>
    <path fill="#231815" d="M55.59082,18.84766c-.70215-.56982-1.40332-.9917-2.10449-1.26611-.70215-.27393-1.38184-.41113-2.03906-.41113-.83398,0-1.51318.19727-2.03955.5918-.52637.39502-.78906.91016-.78906,1.5459,0,.43896.13135.80078.39453,1.08545.26318.28516.6084.53223,1.03613.74023.42725.2085.90967.38965,1.44678.54248.53711.15381,1.06934.31836,1.5957.49365,2.10449.70166,3.64453,1.63916,4.62109,2.81201.97559,1.17334,1.46387,2.70264,1.46387,4.58838,0,1.27197-.21387,2.42334-.6416,3.45361-.42773,1.03076-1.05273,1.91357-1.875,2.64795s-1.83105,1.30469-3.02637,1.70996-2.54883.6084-4.06152.6084c-3.13574,0-6.04102-.93164-8.71631-2.7959l2.76318-5.19629c.96436.85498,1.91846,1.49121,2.86133,1.90771.94238.4165,1.875.625,2.7959.625,1.05225,0,1.83594-.24121,2.35156-.72363.51465-.48242.77246-1.03076.77246-1.64453,0-.37305-.06543-.69629-.19727-.9707-.13086-.27393-.35059-.52588-.65723-.75635-.30762-.22998-.70752-.44385-1.20068-.64111-.49316-.19775-1.09082-.4165-1.79248-.6582-.8335-.26318-1.65039-.55322-2.45068-.87158-.80029-.31738-1.5127-.73975-2.1377-1.26611s-1.12988-1.18945-1.51318-1.99023c-.38379-.7998-.57568-1.81396-.57568-3.04199s.20264-2.34082.60889-3.33887c.40527-.99756.9751-1.85254,1.70996-2.56543.73486-.7124,1.6333-1.26611,2.69727-1.66113,1.06348-.39453,2.25293-.5918,3.56885-.5918,1.22705,0,2.51025.16992,3.84814.50977,1.33691.34033,2.62012.83887,3.84766,1.49658l-2.56543,5.03223Z"/>
    <g>
      <path fill="#231815" d="M22.07764,62.00781c0-2.53906.33105-4.84473.99414-6.91797.6626-2.07324,1.59326-3.84277,2.79248-5.30908,1.19824-1.46631,2.62305-2.60205,4.27295-3.40576s3.47607-1.20605,5.479-1.20605c1.97363,0,3.79297.40234,5.45752,1.20605,1.66406.80371,3.08838,1.93945,4.27295,3.40576,1.18506,1.46631,2.1084,3.23584,2.77148,5.30908.66211,2.07324.99414,4.37891.99414,6.91797,0,2.53809-.33203,4.84375-.99414,6.91699-.66309,2.07324-1.58643,3.84961-2.77148,5.33105-1.18457,1.48047-2.60889,2.62305-4.27295,3.42676-1.66455.80371-3.48389,1.20605-5.45752,1.20605-2.00293,0-3.8291-.40234-5.479-1.20605s-3.07471-1.94629-4.27295-3.42676c-1.19922-1.48145-2.12988-3.25781-2.79248-5.33105-.66309-2.07324-.99414-4.37891-.99414-6.91699ZM30.28516,62.00781c0,1.41016.12695,2.69336.38086,3.84961.25391,1.15723.61377,2.15723,1.0791,3.00391.46533.8457,1.02197,1.50195,1.6709,1.9668.64844.46582,1.38184.69824,2.2002.69824.78906,0,1.51562-.23242,2.17871-.69824.6626-.46484,1.21973-1.12109,1.67139-1.9668.45068-.84668.80371-1.84668,1.05762-3.00391.25391-1.15625.38086-2.43945.38086-3.84961,0-1.38184-.12695-2.6582-.38086-3.8291-.25391-1.16992-.60693-2.17188-1.05762-3.00391-.45166-.83203-1.00879-1.48047-1.67139-1.94629-.66309-.46582-1.38965-.69824-2.17871-.69824-.81836,0-1.55176.23242-2.2002.69824-.64893.46582-1.20557,1.11426-1.6709,1.94629s-.8252,1.83398-1.0791,3.00391c-.25391,1.1709-.38086,2.44727-.38086,3.8291Z"/>
      <path fill="#231815" d="M73.69238,53.12305h-11.04199l-.5498,3.51172c.50781-.05664.97266-.10645,1.39551-.14844.42383-.04199.86035-.06348,1.31152-.06348,1.6084,0,3.10254.28223,4.48535.8457,1.38086.56445,2.56543,1.34082,3.55371,2.32715.98633.9873,1.76172,2.17285,2.32715,3.55371.56348,1.38281.8457,2.8916.8457,4.52734,0,1.7207-.31738,3.27246-.95215,4.65332-.63477,1.38281-1.53027,2.56055-2.68652,3.5332-1.15625.97363-2.56641,1.7207-4.23047,2.24219-1.66504.52148-3.51172.7832-5.54199.7832-1.91895,0-3.74512-.23242-5.47949-.69824s-3.36328-1.17773-4.88672-2.13672l1.22754-7.78516c1.41016,1.21387,2.84863,2.13672,4.31543,2.77148,1.46582.63477,2.8623.95215,4.18848.95215,1.69238,0,3.03125-.45801,4.01855-1.375.9873-.91602,1.48145-2.05176,1.48145-3.40625,0-1.5791-.66309-2.85547-1.98828-3.82812-1.32617-.97363-3.06152-1.45996-5.2041-1.45996-.95898,0-1.94629.10547-2.96191.31738-1.01562.21094-2.0166.54297-3.00391.99414l2.66602-17.13428h16.71094v7.02295Z"/>
    </g>
  </symbol>
  <symbol id="S06" viewBox="0 0 100 100">
    <circle fill="#9fb01c" cx="50" cy="50" r="50"/>
    <circle fill="#fff" cx="50" cy="50" r="42.5"/>
    <path fill="#231815" d="M55.59082,18.84766c-.70215-.56982-1.40332-.9917-2.10449-1.26611-.70215-.27393-1.38184-.41113-2.03906-.41113-.83398,0-1.51318.19727-2.03955.5918-.52637.39502-.78906.91016-.78906,1.5459,0,.43896.13135.80078.39453,1.08545.26318.28516.6084.53223,1.03613.74023.42725.2085.90967.38965,1.44678.54248.53711.15381,1.06934.31836,1.5957.49365,2.10449.70166,3.64453,1.63916,4.62109,2.81201.97559,1.17334,1.46387,2.70264,1.46387,4.58838,0,1.27197-.21387,2.42334-.6416,3.45361-.42773,1.03076-1.05273,1.91357-1.875,2.64795s-1.83105,1.30469-3.02637,1.70996-2.54883.6084-4.06152.6084c-3.13574,0-6.04102-.93164-8.71631-2.7959l2.76318-5.19629c.96436.85498,1.91846,1.49121,2.86133,1.90771.94238.4165,1.875.625,2.7959.625,1.05225,0,1.83594-.24121,2.35156-.72363.51465-.48242.77246-1.03076.77246-1.64453,0-.37305-.06543-.69629-.19727-.9707-.13086-.27393-.35059-.52588-.65723-.75635-.30762-.22998-.70752-.44385-1.20068-.64111-.49316-.19775-1.09082-.4165-1.79248-.6582-.8335-.26318-1.65039-.55322-2.45068-.87158-.80029-.31738-1.5127-.73975-2.1377-1.26611s-1.12988-1.18945-1.51318-1.99023c-.38379-.7998-.57568-1.81396-.57568-3.04199s.20264-2.34082.60889-3.33887c.40527-.99756.9751-1.85254,1.70996-2.56543.73486-.7124,1.6333-1.26611,2.69727-1.66113,1.06348-.39453,2.25293-.5918,3.56885-.5918,1.22705,0,2.51025.16992,3.84814.50977,1.33691.34033,2.62012.83887,3.84766,1.49658l-2.56543,5.03223Z"/>
    <g>
      <path fill="#231815" d="M22.07764,62.00781c0-2.53906.33105-4.84473.99414-6.91797.6626-2.07324,1.59326-3.84277,2.79248-5.30908,1.19824-1.46631,2.62305-2.60205,4.27295-3.40576s3.47607-1.20605,5.479-1.20605c1.97363,0,3.79297.40234,5.45752,1.20605,1.66406.80371,3.08838,1.93945,4.27295,3.40576,1.18506,1.46631,2.1084,3.23584,2.77148,5.30908.66211,2.07324.99414,4.37891.99414,6.91797,0,2.53809-.33203,4.84375-.99414,6.91699-.66309,2.07324-1.58643,3.84961-2.77148,5.33105-1.18457,1.48047-2.60889,2.62305-4.27295,3.42676-1.66455.80371-3.48389,1.20605-5.45752,1.20605-2.00293,0-3.8291-.40234-5.479-1.20605s-3.07471-1.94629-4.27295-3.42676c-1.19922-1.48145-2.12988-3.25781-2.79248-5.33105-.66309-2.07324-.99414-4.37891-.99414-6.91699ZM30.28516,62.00781c0,1.41016.12695,2.69336.38086,3.84961.25391,1.15723.61377,2.15723,1.0791,3.00391.46533.8457,1.02197,1.50195,1.6709,1.9668.64844.46582,1.38184.69824,2.2002.69824.78906,0,1.51562-.23242,2.17871-.69824.6626-.46484,1.21973-1.12109,1.67139-1.9668.45068-.84668.80371-1.84668,1.05762-3.00391.25391-1.15625.38086-2.43945.38086-3.84961,0-1.38184-.12695-2.6582-.38086-3.8291-.25391-1.16992-.60693-2.17188-1.05762-3.00391-.45166-.83203-1.00879-1.48047-1.67139-1.94629-.66309-.46582-1.38965-.69824-2.17871-.69824-.81836,0-1.55176.23242-2.2002.69824-.64893.46582-1.20557,1.11426-1.6709,1.94629s-.8252,1.83398-1.0791,3.00391c-.25391,1.1709-.38086,2.44727-.38086,3.8291Z"/>
      <path fill="#231815" d="M72.80371,46.1001l-9.05371,10.40771h.16992c.78906-.47949,1.43848-.76855,1.94531-.86816.50781-.09766.95898-.14746,1.35449-.14746,1.55078,0,2.97559.2959,4.27246.88867,1.29785.5918,2.42578,1.40332,3.38477,2.43262s1.70605,2.23535,2.24219,3.61719.80469,2.86328.80469,4.44238c0,1.69238-.31152,3.26465-.93164,4.7168-.62012,1.45312-1.51562,2.72266-2.68652,3.80859-1.16992,1.08594-2.58789,1.93945-4.25195,2.55957s-3.53906.93066-5.62695.93066c-2.11523,0-4.00488-.31055-5.66895-.93066s-3.08203-1.4668-4.25195-2.53906c-1.1709-1.07129-2.06641-2.31934-2.68652-3.74414-.62012-1.42383-.93018-2.94043-.93018-4.54785,0-1.80469.40186-3.75879,1.20557-5.86035.80371-2.10059,2.03711-4.16699,3.70215-6.19727l7.40332-8.96924h9.60352ZM59.09668,67.04199c0,.7334.14062,1.41699.42285,2.05176.28125.63477.66211,1.19238,1.14258,1.6709.47852.48047,1.03613.86133,1.6709,1.14258.63477.28223,1.31836.42285,2.05176.42285s1.41699-.14062,2.05176-.42285c.63477-.28125,1.19141-.66211,1.67188-1.14258.47852-.47852.85938-1.03613,1.1416-1.6709s.42383-1.31836.42383-2.05176-.1416-1.41699-.42383-2.05176-.66309-1.19141-1.1416-1.6709c-.48047-.47949-1.03711-.86035-1.67188-1.14258-.63477-.28125-1.31836-.42285-2.05176-.42285s-1.41699.1416-2.05176.42285c-.63477.28223-1.19238.66309-1.6709,1.14258-.48047.47949-.86133,1.03613-1.14258,1.6709-.28223.63477-.42285,1.31836-.42285,2.05176Z"/>
    </g>
  </symbol>
  <symbol id="S07" viewBox="0 0 100 100">
    <circle fill="#9fb01c" cx="50" cy="50" r="50"/>
    <circle fill="#fff" cx="50" cy="50" r="42.5"/>
    <path fill="#231815" d="M55.59082,18.84766c-.70215-.56982-1.40332-.9917-2.10449-1.26611-.70215-.27393-1.38184-.41113-2.03906-.41113-.83398,0-1.51318.19727-2.03955.5918-.52637.39502-.78906.91016-.78906,1.5459,0,.43896.13135.80078.39453,1.08545.26318.28516.6084.53223,1.03613.74023.42725.2085.90967.38965,1.44678.54248.53711.15381,1.06934.31836,1.5957.49365,2.10449.70166,3.64453,1.63916,4.62109,2.81201.97559,1.17334,1.46387,2.70264,1.46387,4.58838,0,1.27197-.21387,2.42334-.6416,3.45361-.42773,1.03076-1.05273,1.91357-1.875,2.64795s-1.83105,1.30469-3.02637,1.70996-2.54883.6084-4.06152.6084c-3.13574,0-6.04102-.93164-8.71631-2.7959l2.76318-5.19629c.96436.85498,1.91846,1.49121,2.86133,1.90771.94238.4165,1.875.625,2.7959.625,1.05225,0,1.83594-.24121,2.35156-.72363.51465-.48242.77246-1.03076.77246-1.64453,0-.37305-.06543-.69629-.19727-.9707-.13086-.27393-.35059-.52588-.65723-.75635-.30762-.22998-.70752-.44385-1.20068-.64111-.49316-.19775-1.09082-.4165-1.79248-.6582-.8335-.26318-1.65039-.55322-2.45068-.87158-.80029-.31738-1.5127-.73975-2.1377-1.26611s-1.12988-1.18945-1.51318-1.99023c-.38379-.7998-.57568-1.81396-.57568-3.04199s.20264-2.34082.60889-3.33887c.40527-.99756.9751-1.85254,1.70996-2.56543.73486-.7124,1.6333-1.26611,2.69727-1.66113,1.06348-.39453,2.25293-.5918,3.56885-.5918,1.22705,0,2.51025.16992,3.84814.50977,1.33691.34033,2.62012.83887,3.84766,1.49658l-2.56543,5.03223Z"/>
    <g>
      <path fill="#231815" d="M22.07764,62.00781c0-2.53906.33105-4.84473.99414-6.91797.6626-2.07324,1.59326-3.84277,2.79248-5.30908,1.19824-1.46631,2.62305-2.60205,4.27295-3.40576s3.47607-1.20605,5.479-1.20605c1.97363,0,3.79297.40234,5.45752,1.20605,1.66406.80371,3.08838,1.93945,4.27295,3.40576,1.18506,1.46631,2.1084,3.23584,2.77148,5.30908.66211,2.07324.99414,4.37891.99414,6.91797,0,2.53809-.33203,4.84375-.99414,6.91699-.66309,2.07324-1.58643,3.84961-2.77148,5.33105-1.18457,1.48047-2.60889,2.62305-4.27295,3.42676-1.66455.80371-3.48389,1.20605-5.45752,1.20605-2.00293,0-3.8291-.40234-5.479-1.20605s-3.07471-1.94629-4.27295-3.42676c-1.19922-1.48145-2.12988-3.25781-2.79248-5.33105-.66309-2.07324-.99414-4.37891-.99414-6.91699ZM30.28516,62.00781c0,1.41016.12695,2.69336.38086,3.84961.25391,1.15723.61377,2.15723,1.0791,3.00391.46533.8457,1.02197,1.50195,1.6709,1.9668.64844.46582,1.38184.69824,2.2002.69824.78906,0,1.51562-.23242,2.17871-.69824.6626-.46484,1.21973-1.12109,1.67139-1.9668.45068-.84668.80371-1.84668,1.05762-3.00391.25391-1.15625.38086-2.43945.38086-3.84961,0-1.38184-.12695-2.6582-.38086-3.8291-.25391-1.16992-.60693-2.17188-1.05762-3.00391-.45166-.83203-1.00879-1.48047-1.67139-1.94629-.66309-.46582-1.38965-.69824-2.17871-.69824-.81836,0-1.55176.23242-2.2002.69824-.64893.46582-1.20557,1.11426-1.6709,1.94629s-.8252,1.83398-1.0791,3.00391c-.25391,1.1709-.38086,2.44727-.38086,3.8291Z"/>
      <path fill="#231815" d="M66.71191,53.12305h-13.32715v-7.02295h26.18848l-18.27637,31.8999h-9.13867l14.55371-24.87695Z"/>
    </g>
  </symbol>
  <symbol id="S08" viewBox="0 0 100 100">
    <circle fill="#9fb01c" cx="50" cy="50" r="50"/>
    <circle fill="#fff" cx="50" cy="50" r="42.5"/>
    <path fill="#231815" d="M55.59082,18.84766c-.70215-.56982-1.40332-.9917-2.10449-1.26611-.70215-.27393-1.38184-.41113-2.03906-.41113-.83398,0-1.51318.19727-2.03955.5918-.52637.39502-.78906.91016-.78906,1.5459,0,.43896.13135.80078.39453,1.08545.26318.28516.6084.53223,1.03613.74023.42725.2085.90967.38965,1.44678.54248.53711.15381,1.06934.31836,1.5957.49365,2.10449.70166,3.64453,1.63916,4.62109,2.81201.97559,1.17334,1.46387,2.70264,1.46387,4.58838,0,1.27197-.21387,2.42334-.6416,3.45361-.42773,1.03076-1.05273,1.91357-1.875,2.64795s-1.83105,1.30469-3.02637,1.70996-2.54883.6084-4.06152.6084c-3.13574,0-6.04102-.93164-8.71631-2.7959l2.76318-5.19629c.96436.85498,1.91846,1.49121,2.86133,1.90771.94238.4165,1.875.625,2.7959.625,1.05225,0,1.83594-.24121,2.35156-.72363.51465-.48242.77246-1.03076.77246-1.64453,0-.37305-.06543-.69629-.19727-.9707-.13086-.27393-.35059-.52588-.65723-.75635-.30762-.22998-.70752-.44385-1.20068-.64111-.49316-.19775-1.09082-.4165-1.79248-.6582-.8335-.26318-1.65039-.55322-2.45068-.87158-.80029-.31738-1.5127-.73975-2.1377-1.26611s-1.12988-1.18945-1.51318-1.99023c-.38379-.7998-.57568-1.81396-.57568-3.04199s.20264-2.34082.60889-3.33887c.40527-.99756.9751-1.85254,1.70996-2.56543.73486-.7124,1.6333-1.26611,2.69727-1.66113,1.06348-.39453,2.25293-.5918,3.56885-.5918,1.22705,0,2.51025.16992,3.84814.50977,1.33691.34033,2.62012.83887,3.84766,1.49658l-2.56543,5.03223Z"/>
    <g>
      <path fill="#231815" d="M22.07764,62.00781c0-2.53906.33105-4.84473.99414-6.91797.6626-2.07324,1.59326-3.84277,2.79248-5.30908,1.19824-1.46631,2.62305-2.60205,4.27295-3.40576s3.47607-1.20605,5.479-1.20605c1.97363,0,3.79297.40234,5.45752,1.20605,1.66406.80371,3.08838,1.93945,4.27295,3.40576,1.18506,1.46631,2.1084,3.23584,2.77148,5.30908.66211,2.07324.99414,4.37891.99414,6.91797,0,2.53809-.33203,4.84375-.99414,6.91699-.66309,2.07324-1.58643,3.84961-2.77148,5.33105-1.18457,1.48047-2.60889,2.62305-4.27295,3.42676-1.66455.80371-3.48389,1.20605-5.45752,1.20605-2.00293,0-3.8291-.40234-5.479-1.20605s-3.07471-1.94629-4.27295-3.42676c-1.19922-1.48145-2.12988-3.25781-2.79248-5.33105-.66309-2.07324-.99414-4.37891-.99414-6.91699ZM30.28516,62.00781c0,1.41016.12695,2.69336.38086,3.84961.25391,1.15723.61377,2.15723,1.0791,3.00391.46533.8457,1.02197,1.50195,1.6709,1.9668.64844.46582,1.38184.69824,2.2002.69824.78906,0,1.51562-.23242,2.17871-.69824.6626-.46484,1.21973-1.12109,1.67139-1.9668.45068-.84668.80371-1.84668,1.05762-3.00391.25391-1.15625.38086-2.43945.38086-3.84961,0-1.38184-.12695-2.6582-.38086-3.8291-.25391-1.16992-.60693-2.17188-1.05762-3.00391-.45166-.83203-1.00879-1.48047-1.67139-1.94629-.66309-.46582-1.38965-.69824-2.17871-.69824-.81836,0-1.55176.23242-2.2002.69824-.64893.46582-1.20557,1.11426-1.6709,1.94629s-.8252,1.83398-1.0791,3.00391c-.25391,1.1709-.38086,2.44727-.38086,3.8291Z"/>
      <path fill="#231815" d="M58.50391,61.16113c-3.32812-1.38184-4.99219-3.72266-4.99219-7.02344,0-1.35352.26758-2.57324.80371-3.65869.53613-1.08594,1.27637-2.02393,2.22168-2.81348.94434-.78955,2.08691-1.39648,3.42676-1.81934,1.33887-.42334,2.81348-.63477,4.4209-.63477s3.08105.21143,4.4209.63477c1.33984.42285,2.48242,1.02979,3.42773,1.81934.94434.78955,1.68457,1.72754,2.2207,2.81348.53516,1.08545.80371,2.30518.80371,3.65869,0,.84668-.08398,1.60156-.25391,2.26367-.16895.66309-.45898,1.26953-.86719,1.81934-.40918.5498-.94531,1.06543-1.60742,1.54395-.66309.48047-1.48828.94531-2.47559,1.39648,4.34375,1.69238,6.51562,4.42871,6.51562,8.20801,0,1.35352-.30273,2.60938-.90918,3.76562-.60742,1.15625-1.45312,2.15723-2.53906,3.00391-1.08594.8457-2.36914,1.50879-3.84961,1.98828s-3.10938.71875-4.88672.71875c-1.7207,0-3.32129-.23242-4.80176-.69727-1.48047-.46582-2.77148-1.12109-3.87109-1.96777-1.10059-.8457-1.96094-1.84668-2.58105-3.00391-.62012-1.15625-.93066-2.42578-.93066-3.80762,0-3.86426,2.10059-6.60059,6.30371-8.20801ZM60.57715,68.35352c0,.53613.09863,1.04395.2959,1.52344s.46582.89551.80371,1.24805c.33887.35254.74121.63477,1.20605.8457.46582.21191.96582.31738,1.50195.31738.50781,0,.99414-.10547,1.45996-.31738.46484-.21094.87402-.49316,1.22656-.8457s.62793-.76172.8252-1.22754c.19727-.46484.2959-.96582.2959-1.50195,0-1.07129-.37402-1.98047-1.12109-2.72852-.74707-.74707-1.64355-1.12109-2.68652-1.12109-1.07227,0-1.97461.37402-2.70801,1.12109-.7334.74805-1.09961,1.64355-1.09961,2.68652ZM60.87305,54.22266c0,.9873.33887,1.82617,1.01562,2.51758s1.50879,1.03613,2.49609,1.03613c.50781,0,.97363-.09863,1.39648-.2959s.78906-.45801,1.09961-.78223.55664-.69824.74023-1.12207c.18359-.42285.27539-.85938.27539-1.31152,0-.95801-.33887-1.7832-1.01562-2.47461-.67676-.69043-1.50879-1.03613-2.49609-1.03613s-1.81934.33789-2.49609,1.01465c-.67676.67773-1.01562,1.49609-1.01562,2.4541Z"/>
    </g>
  </symbol>
  <symbol id="S09" viewBox="0 0 100 100">
    <circle fill="#9fb01c" cx="50" cy="50" r="50"/>
    <circle fill="#fff" cx="50" cy="50" r="42.5"/>
    <path fill="#231815" d="M55.59082,18.84766c-.70215-.56982-1.40332-.9917-2.10449-1.26611-.70215-.27393-1.38184-.41113-2.03906-.41113-.83398,0-1.51318.19727-2.03955.5918-.52637.39502-.78906.91016-.78906,1.5459,0,.43896.13135.80078.39453,1.08545.26318.28516.6084.53223,1.03613.74023.42725.2085.90967.38965,1.44678.54248.53711.15381,1.06934.31836,1.5957.49365,2.10449.70166,3.64453,1.63916,4.62109,2.81201.97559,1.17334,1.46387,2.70264,1.46387,4.58838,0,1.27197-.21387,2.42334-.6416,3.45361-.42773,1.03076-1.05273,1.91357-1.875,2.64795s-1.83105,1.30469-3.02637,1.70996-2.54883.6084-4.06152.6084c-3.13574,0-6.04102-.93164-8.71631-2.7959l2.76318-5.19629c.96436.85498,1.91846,1.49121,2.86133,1.90771.94238.4165,1.875.625,2.7959.625,1.05225,0,1.83594-.24121,2.35156-.72363.51465-.48242.77246-1.03076.77246-1.64453,0-.37305-.06543-.69629-.19727-.9707-.13086-.27393-.35059-.52588-.65723-.75635-.30762-.22998-.70752-.44385-1.20068-.64111-.49316-.19775-1.09082-.4165-1.79248-.6582-.8335-.26318-1.65039-.55322-2.45068-.87158-.80029-.31738-1.5127-.73975-2.1377-1.26611s-1.12988-1.18945-1.51318-1.99023c-.38379-.7998-.57568-1.81396-.57568-3.04199s.20264-2.34082.60889-3.33887c.40527-.99756.9751-1.85254,1.70996-2.56543.73486-.7124,1.6333-1.26611,2.69727-1.66113,1.06348-.39453,2.25293-.5918,3.56885-.5918,1.22705,0,2.51025.16992,3.84814.50977,1.33691.34033,2.62012.83887,3.84766,1.49658l-2.56543,5.03223Z"/>
    <g>
      <path fill="#231815" d="M22.07764,62.00781c0-2.53906.33105-4.84473.99414-6.91797.6626-2.07324,1.59326-3.84277,2.79248-5.30908,1.19824-1.46631,2.62305-2.60205,4.27295-3.40576s3.47607-1.20605,5.479-1.20605c1.97363,0,3.79297.40234,5.45752,1.20605,1.66406.80371,3.08838,1.93945,4.27295,3.40576,1.18506,1.46631,2.1084,3.23584,2.77148,5.30908.66211,2.07324.99414,4.37891.99414,6.91797,0,2.53809-.33203,4.84375-.99414,6.91699-.66309,2.07324-1.58643,3.84961-2.77148,5.33105-1.18457,1.48047-2.60889,2.62305-4.27295,3.42676-1.66455.80371-3.48389,1.20605-5.45752,1.20605-2.00293,0-3.8291-.40234-5.479-1.20605s-3.07471-1.94629-4.27295-3.42676c-1.19922-1.48145-2.12988-3.25781-2.79248-5.33105-.66309-2.07324-.99414-4.37891-.99414-6.91699ZM30.28516,62.00781c0,1.41016.12695,2.69336.38086,3.84961.25391,1.15723.61377,2.15723,1.0791,3.00391.46533.8457,1.02197,1.50195,1.6709,1.9668.64844.46582,1.38184.69824,2.2002.69824.78906,0,1.51562-.23242,2.17871-.69824.6626-.46484,1.21973-1.12109,1.67139-1.9668.45068-.84668.80371-1.84668,1.05762-3.00391.25391-1.15625.38086-2.43945.38086-3.84961,0-1.38184-.12695-2.6582-.38086-3.8291-.25391-1.16992-.60693-2.17188-1.05762-3.00391-.45166-.83203-1.00879-1.48047-1.67139-1.94629-.66309-.46582-1.38965-.69824-2.17871-.69824-.81836,0-1.55176.23242-2.2002.69824-.64893.46582-1.20557,1.11426-1.6709,1.94629s-.8252,1.83398-1.0791,3.00391c-.25391,1.1709-.38086,2.44727-.38086,3.8291Z"/>
      <path fill="#231815" d="M55.96582,78l9.05371-10.4082h-.16895c-.79004.48047-1.43848.76953-1.94629.86719-.50781.09961-.95898.14844-1.35449.14844-1.55078,0-2.98242-.2959-4.29395-.88867-1.31152-.5918-2.43945-1.40234-3.38477-2.43262-.94531-1.0293-1.68555-2.23535-2.2207-3.61719-.53613-1.38184-.80371-2.8623-.80371-4.44238,0-1.69238.30957-3.26465.93066-4.7168.62012-1.45312,1.51562-2.72168,2.68652-3.80811,1.16992-1.08545,2.58691-1.93848,4.25195-2.55957,1.66406-.62012,3.53906-.93066,5.62695-.93066,2.11523,0,4.00488.31055,5.66895.93066,1.66406.62109,3.08105,1.4668,4.25195,2.53857,1.16992,1.07227,2.06543,2.32031,2.68652,3.74414.62012,1.4248.93066,2.94043.93066,4.54785,0,1.80566-.40137,3.75879-1.20508,5.85938-.80469,2.10156-2.03809,4.16797-3.70215,6.19824l-7.4043,8.96973h-9.60352ZM69.67383,57.05762c0-.7334-.1416-1.41797-.42383-2.05176-.28223-.63477-.66309-1.19141-1.1416-1.67188-.48047-.47852-1.03711-.85938-1.67188-1.1416s-1.31836-.42383-2.05176-.42383-1.41699.1416-2.05176.42383-1.19238.66309-1.6709,1.1416c-.48047.48047-.86133,1.03711-1.14258,1.67188-.28223.63379-.42285,1.31836-.42285,2.05176s.14062,1.41699.42285,2.05176c.28125.63477.66211,1.19141,1.14258,1.6709.47852.48047,1.03613.86133,1.6709,1.14258.63477.28223,1.31836.42285,2.05176.42285s1.41699-.14062,2.05176-.42285c.63477-.28125,1.19141-.66211,1.67188-1.14258.47852-.47949.85938-1.03613,1.1416-1.6709s.42383-1.31836.42383-2.05176Z"/>
    </g>
  </symbol>
  <symbol id="S10" viewBox="0 0 100 100">
    <circle fill="#9fb01c" cx="50" cy="50" r="50"/>
    <circle fill="#fff" cx="50" cy="50" r="42.5"/>
    <path fill="#231815" d="M55.59082,18.84766c-.70215-.56982-1.40332-.9917-2.10449-1.26611-.70215-.27393-1.38184-.41113-2.03906-.41113-.83398,0-1.51318.19727-2.03955.5918-.52637.39502-.78906.91016-.78906,1.5459,0,.43896.13135.80078.39453,1.08545.26318.28516.6084.53223,1.03613.74023.42725.2085.90967.38965,1.44678.54248.53711.15381,1.06934.31836,1.5957.49365,2.10449.70166,3.64453,1.63916,4.62109,2.81201.97559,1.17334,1.46387,2.70264,1.46387,4.58838,0,1.27197-.21387,2.42334-.6416,3.45361-.42773,1.03076-1.05273,1.91357-1.875,2.64795s-1.83105,1.30469-3.02637,1.70996-2.54883.6084-4.06152.6084c-3.13574,0-6.04102-.93164-8.71631-2.7959l2.76318-5.19629c.96436.85498,1.91846,1.49121,2.86133,1.90771.94238.4165,1.875.625,2.7959.625,1.05225,0,1.83594-.24121,2.35156-.72363.51465-.48242.77246-1.03076.77246-1.64453,0-.37305-.06543-.69629-.19727-.9707-.13086-.27393-.35059-.52588-.65723-.75635-.30762-.22998-.70752-.44385-1.20068-.64111-.49316-.19775-1.09082-.4165-1.79248-.6582-.8335-.26318-1.65039-.55322-2.45068-.87158-.80029-.31738-1.5127-.73975-2.1377-1.26611s-1.12988-1.18945-1.51318-1.99023c-.38379-.7998-.57568-1.81396-.57568-3.04199s.20264-2.34082.60889-3.33887c.40527-.99756.9751-1.85254,1.70996-2.56543.73486-.7124,1.6333-1.26611,2.69727-1.66113,1.06348-.39453,2.25293-.5918,3.56885-.5918,1.22705,0,2.51025.16992,3.84814.50977,1.33691.34033,2.62012.83887,3.84766,1.49658l-2.56543,5.03223Z"/>
    <g>
      <path fill="#231815" d="M32.44287,53.12305h-4.65381v-7.02295h12.94629v31.8999h-8.29248v-24.87695Z"/>
      <path fill="#231815" d="M50.84668,62.00781c0-2.53906.33105-4.84473.99414-6.91797.66211-2.07324,1.59277-3.84277,2.79199-5.30908,1.19824-1.46631,2.62305-2.60205,4.27344-3.40576,1.64941-.80371,3.47559-1.20605,5.47852-1.20605,1.97363,0,3.79297.40234,5.45801,1.20605,1.66406.80371,3.08789,1.93945,4.27246,3.40576,1.18555,1.46631,2.1084,3.23584,2.77148,5.30908.66211,2.07324.99414,4.37891.99414,6.91797,0,2.53809-.33203,4.84375-.99414,6.91699-.66309,2.07324-1.58594,3.84961-2.77148,5.33105-1.18457,1.48047-2.6084,2.62305-4.27246,3.42676-1.66504.80371-3.48438,1.20605-5.45801,1.20605-2.00293,0-3.8291-.40234-5.47852-1.20605-1.65039-.80371-3.0752-1.94629-4.27344-3.42676-1.19922-1.48145-2.12988-3.25781-2.79199-5.33105-.66309-2.07324-.99414-4.37891-.99414-6.91699ZM59.05371,62.00781c0,1.41016.12695,2.69336.38086,3.84961.25391,1.15723.61426,2.15723,1.0791,3.00391.46582.8457,1.02246,1.50195,1.6709,1.9668.64844.46582,1.38184.69824,2.2002.69824.78906,0,1.51562-.23242,2.17871-.69824.66309-.46484,1.21973-1.12109,1.67188-1.9668.4502-.84668.80371-1.84668,1.05762-3.00391.25391-1.15625.38086-2.43945.38086-3.84961,0-1.38184-.12695-2.6582-.38086-3.8291-.25391-1.16992-.60742-2.17188-1.05762-3.00391-.45215-.83203-1.00879-1.48047-1.67188-1.94629s-1.38965-.69824-2.17871-.69824c-.81836,0-1.55176.23242-2.2002.69824s-1.20508,1.11426-1.6709,1.94629c-.46484.83203-.8252,1.83398-1.0791,3.00391-.25391,1.1709-.38086,2.44727-.38086,3.8291Z"/>
    </g>
  </symbol>
  <symbol id="S11" viewBox="0 0 100 100">
    <circle fill="#9fb01c" cx="50" cy="50" r="50"/>
    <circle fill="#fff" cx="50" cy="50" r="42.5"/>
    <path fill="#231815" d="M55.59082,18.84766c-.70215-.56982-1.40332-.9917-2.10449-1.26611-.70215-.27393-1.38184-.41113-2.03906-.41113-.83398,0-1.51318.19727-2.03955.5918-.52637.39502-.78906.91016-.78906,1.5459,0,.43896.13135.80078.39453,1.08545.26318.28516.6084.53223,1.03613.74023.42725.2085.90967.38965,1.44678.54248.53711.15381,1.06934.31836,1.5957.49365,2.10449.70166,3.64453,1.63916,4.62109,2.81201.97559,1.17334,1.46387,2.70264,1.46387,4.58838,0,1.27197-.21387,2.42334-.6416,3.45361-.42773,1.03076-1.05273,1.91357-1.875,2.64795s-1.83105,1.30469-3.02637,1.70996-2.54883.6084-4.06152.6084c-3.13574,0-6.04102-.93164-8.71631-2.7959l2.76318-5.19629c.96436.85498,1.91846,1.49121,2.86133,1.90771.94238.4165,1.875.625,2.7959.625,1.05225,0,1.83594-.24121,2.35156-.72363.51465-.48242.77246-1.03076.77246-1.64453,0-.37305-.06543-.69629-.19727-.9707-.13086-.27393-.35059-.52588-.65723-.75635-.30762-.22998-.70752-.44385-1.20068-.64111-.49316-.19775-1.09082-.4165-1.79248-.6582-.8335-.26318-1.65039-.55322-2.45068-.87158-.80029-.31738-1.5127-.73975-2.1377-1.26611s-1.12988-1.18945-1.51318-1.99023c-.38379-.7998-.57568-1.81396-.57568-3.04199s.20264-2.34082.60889-3.33887c.40527-.99756.9751-1.85254,1.70996-2.56543.73486-.7124,1.6333-1.26611,2.69727-1.66113,1.06348-.39453,2.25293-.5918,3.56885-.5918,1.22705,0,2.51025.16992,3.84814.50977,1.33691.34033,2.62012.83887,3.84766,1.49658l-2.56543,5.03223Z"/>
    <g>
      <path fill="#231815" d="M32.44287,53.12305h-4.65381v-7.02295h12.94629v31.8999h-8.29248v-24.87695Z"/>
      <path fill="#231815" d="M61.21191,53.12305h-4.6543v-7.02295h12.94629v31.8999h-8.29199v-24.87695Z"/>
    </g>
  </symbol>
  <symbol id="S12" viewBox="0 0 100 100">
    <circle fill="#9fb01c" cx="50" cy="50" r="50"/>
    <circle fill="#fff" cx="50" cy="50" r="42.5"/>
    <path fill="#231815" d="M55.59082,18.84766c-.70215-.56982-1.40332-.9917-2.10449-1.26611-.70215-.27393-1.38184-.41113-2.03906-.41113-.83398,0-1.51318.19727-2.03955.5918-.52637.39502-.78906.91016-.78906,1.5459,0,.43896.13135.80078.39453,1.08545.26318.28516.6084.53223,1.03613.74023.42725.2085.90967.38965,1.44678.54248.53711.15381,1.06934.31836,1.5957.49365,2.10449.70166,3.64453,1.63916,4.62109,2.81201.97559,1.17334,1.46387,2.70264,1.46387,4.58838,0,1.27197-.21387,2.42334-.6416,3.45361-.42773,1.03076-1.05273,1.91357-1.875,2.64795s-1.83105,1.30469-3.02637,1.70996-2.54883.6084-4.06152.6084c-3.13574,0-6.04102-.93164-8.71631-2.7959l2.76318-5.19629c.96436.85498,1.91846,1.49121,2.86133,1.90771.94238.4165,1.875.625,2.7959.625,1.05225,0,1.83594-.24121,2.35156-.72363.51465-.48242.77246-1.03076.77246-1.64453,0-.37305-.06543-.69629-.19727-.9707-.13086-.27393-.35059-.52588-.65723-.75635-.30762-.22998-.70752-.44385-1.20068-.64111-.49316-.19775-1.09082-.4165-1.79248-.6582-.8335-.26318-1.65039-.55322-2.45068-.87158-.80029-.31738-1.5127-.73975-2.1377-1.26611s-1.12988-1.18945-1.51318-1.99023c-.38379-.7998-.57568-1.81396-.57568-3.04199s.20264-2.34082.60889-3.33887c.40527-.99756.9751-1.85254,1.70996-2.56543.73486-.7124,1.6333-1.26611,2.69727-1.66113,1.06348-.39453,2.25293-.5918,3.56885-.5918,1.22705,0,2.51025.16992,3.84814.50977,1.33691.34033,2.62012.83887,3.84766,1.49658l-2.56543,5.03223Z"/>
    <g>
      <path fill="#231815" d="M32.44287,53.12305h-4.65381v-7.02295h12.94629v31.8999h-8.29248v-24.87695Z"/>
      <path fill="#231815" d="M76.86523,78h-25.68066l7.91211-8.20801c2.08691-2.17188,3.72266-4.01172,4.90723-5.52148,1.18457-1.50781,2.06641-2.78516,2.64453-3.82812.57812-1.04395.9375-1.88965,1.0791-2.53906.14062-.64844.21094-1.19824.21094-1.64941,0-.47949-.07812-.94531-.23242-1.39648-.15527-.45117-.3877-.85254-.69824-1.20605-.31055-.35254-.68359-.63477-1.12109-.8457-.4375-.21191-.95215-.31738-1.54395-.31738-1.12891,0-2.00977.36719-2.64453,1.09961-.63477.73438-.95215,1.65039-.95215,2.75,0,.31055.04297.76172.12695,1.35449h-9.05371c0-1.8623.30273-3.55469.91016-5.07715.60547-1.52344,1.45898-2.83447,2.55957-3.93457,1.09961-1.1001,2.4043-1.94629,3.91309-2.53857s3.16602-.88818,4.97168-.88818c1.77637,0,3.41895.28223,4.92871.84619,1.50781.56445,2.81348,1.35352,3.91309,2.36914,1.09961,1.01514,1.95996,2.22119,2.58105,3.6167.62012,1.39648.93066,2.91309.93066,4.54883,0,1.74902-.37402,3.36328-1.12109,4.84375-.74805,1.48047-1.93945,2.99707-3.5752,4.54785l-5.28809,4.9502h10.32227v7.02344Z"/>
    </g>
  </symbol>
  <symbol id="S13" viewBox="0 0 100 100">
    <circle fill="#9fb01c" cx="50" cy="50" r="50"/>
    <circle fill="#fff" cx="50" cy="50" r="42.5"/>
    <path fill="#231815" d="M55.59082,18.84766c-.70215-.56982-1.40332-.9917-2.10449-1.26611-.70215-.27393-1.38184-.41113-2.03906-.41113-.83398,0-1.51318.19727-2.03955.5918-.52637.39502-.78906.91016-.78906,1.5459,0,.43896.13135.80078.39453,1.08545.26318.28516.6084.53223,1.03613.74023.42725.2085.90967.38965,1.44678.54248.53711.15381,1.06934.31836,1.5957.49365,2.10449.70166,3.64453,1.63916,4.62109,2.81201.97559,1.17334,1.46387,2.70264,1.46387,4.58838,0,1.27197-.21387,2.42334-.6416,3.45361-.42773,1.03076-1.05273,1.91357-1.875,2.64795s-1.83105,1.30469-3.02637,1.70996-2.54883.6084-4.06152.6084c-3.13574,0-6.04102-.93164-8.71631-2.7959l2.76318-5.19629c.96436.85498,1.91846,1.49121,2.86133,1.90771.94238.4165,1.875.625,2.7959.625,1.05225,0,1.83594-.24121,2.35156-.72363.51465-.48242.77246-1.03076.77246-1.64453,0-.37305-.06543-.69629-.19727-.9707-.13086-.27393-.35059-.52588-.65723-.75635-.30762-.22998-.70752-.44385-1.20068-.64111-.49316-.19775-1.09082-.4165-1.79248-.6582-.8335-.26318-1.65039-.55322-2.45068-.87158-.80029-.31738-1.5127-.73975-2.1377-1.26611s-1.12988-1.18945-1.51318-1.99023c-.38379-.7998-.57568-1.81396-.57568-3.04199s.20264-2.34082.60889-3.33887c.40527-.99756.9751-1.85254,1.70996-2.56543.73486-.7124,1.6333-1.26611,2.69727-1.66113,1.06348-.39453,2.25293-.5918,3.56885-.5918,1.22705,0,2.51025.16992,3.84814.50977,1.33691.34033,2.62012.83887,3.84766,1.49658l-2.56543,5.03223Z"/>
    <g>
      <path fill="#231815" d="M32.44287,53.12305h-4.65381v-7.02295h12.94629v31.8999h-8.29248v-24.87695Z"/>
      <path fill="#231815" d="M62.65039,58.53809c.22559.02832.41602.04199.57129.04199h.40137c1.04395,0,1.88965-.30957,2.53906-.93066.64844-.62012.97266-1.42383.97266-2.41113,0-.95898-.30371-1.73438-.90918-2.32715-.60742-.5918-1.38965-.88867-2.34863-.88867-1.01465,0-1.83398.33887-2.45312,1.01562-.62109.67676-.93164,1.55176-.93164,2.62305h-7.65723c.19727-1.66406.61328-3.14453,1.24805-4.44238.63477-1.29639,1.44531-2.39014,2.43262-3.27832.9873-.88867,2.14355-1.56543,3.46973-2.03076,1.3252-.46533,2.79199-.69824,4.39941-.69824,1.5791,0,3.01074.21875,4.29395.65576,1.2832.4375,2.38379,1.05762,3.30078,1.86133.91602.8042,1.62109,1.77734,2.11523,2.91943.49316,1.14209.74023,2.41846.74023,3.82861,0,1.52344-.29004,2.77148-.86719,3.74414-.57812.97363-1.40332,1.8125-2.47559,2.51758,1.63574.50781,2.91211,1.41699,3.8291,2.72852.91602,1.31152,1.375,2.92676,1.375,4.84473,0,1.58008-.31055,3.01855-.93066,4.31543-.62109,1.29785-1.48828,2.41113-2.60156,3.3418-1.11523.93164-2.44043,1.65039-3.97754,2.1582s-3.22266.76172-5.05566.76172c-2.4541,0-4.66797-.48047-6.64258-1.43848-1.97461-.95898-3.55371-2.48145-4.73828-4.56934-.53613-.93066-.89551-1.8623-1.07812-2.79297-.18457-.93066-.27539-1.875-.27539-2.83398h8.20801c.05566,1.49512.49316,2.62988,1.31152,3.40527.81738.77637,1.91699,1.16406,3.2998,1.16406,1.46582,0,2.53809-.39551,3.21484-1.18457.67773-.79004,1.01562-1.7627,1.01562-2.91992,0-1.38184-.40918-2.4248-1.22656-3.13086-.81836-.7041-1.79199-1.05762-2.91992-1.05762-.28223,0-.5498.02148-.80371.06348-.25391.04297-.53613.0918-.8457.14844v-5.2041Z"/>
    </g>
  </symbol>
  <symbol id="S14" viewBox="0 0 100 100">
    <circle fill="#9fb01c" cx="50" cy="50" r="50"/>
    <circle fill="#fff" cx="50" cy="50" r="42.5"/>
    <path fill="#231815" d="M55.59082,18.84766c-.70215-.56982-1.40332-.9917-2.10449-1.26611-.70215-.27393-1.38184-.41113-2.03906-.41113-.83398,0-1.51318.19727-2.03955.5918-.52637.39502-.78906.91016-.78906,1.5459,0,.43896.13135.80078.39453,1.08545.26318.28516.6084.53223,1.03613.74023.42725.2085.90967.38965,1.44678.54248.53711.15381,1.06934.31836,1.5957.49365,2.10449.70166,3.64453,1.63916,4.62109,2.81201.97559,1.17334,1.46387,2.70264,1.46387,4.58838,0,1.27197-.21387,2.42334-.6416,3.45361-.42773,1.03076-1.05273,1.91357-1.875,2.64795s-1.83105,1.30469-3.02637,1.70996-2.54883.6084-4.06152.6084c-3.13574,0-6.04102-.93164-8.71631-2.7959l2.76318-5.19629c.96436.85498,1.91846,1.49121,2.86133,1.90771.94238.4165,1.875.625,2.7959.625,1.05225,0,1.83594-.24121,2.35156-.72363.51465-.48242.77246-1.03076.77246-1.64453,0-.37305-.06543-.69629-.19727-.9707-.13086-.27393-.35059-.52588-.65723-.75635-.30762-.22998-.70752-.44385-1.20068-.64111-.49316-.19775-1.09082-.4165-1.79248-.6582-.8335-.26318-1.65039-.55322-2.45068-.87158-.80029-.31738-1.5127-.73975-2.1377-1.26611s-1.12988-1.18945-1.51318-1.99023c-.38379-.7998-.57568-1.81396-.57568-3.04199s.20264-2.34082.60889-3.33887c.40527-.99756.9751-1.85254,1.70996-2.56543.73486-.7124,1.6333-1.26611,2.69727-1.66113,1.06348-.39453,2.25293-.5918,3.56885-.5918,1.22705,0,2.51025.16992,3.84814.50977,1.33691.34033,2.62012.83887,3.84766,1.49658l-2.56543,5.03223Z"/>
    <g>
      <path fill="#231815" d="M32.44287,53.12305h-4.65381v-7.02295h12.94629v31.8999h-8.29248v-24.87695Z"/>
      <path fill="#231815" d="M73.69238,65.0957h3.85059v6.34668h-3.85059v6.55762h-7.7002v-6.55762h-15.39941v-5.33105l12.18457-20.01123h10.91504v18.99561ZM65.99219,65.0957v-12.56543l-7.31836,12.56543h7.31836Z"/>
    </g>
  </symbol>
  <symbol id="S15" viewBox="0 0 100 100">
    <circle fill="#9fb01c" cx="50" cy="50" r="50"/>
    <circle fill="#fff" cx="50" cy="50" r="42.5"/>
    <path fill="#231815" d="M55.59082,18.84766c-.70215-.56982-1.40332-.9917-2.10449-1.26611-.70215-.27393-1.38184-.41113-2.03906-.41113-.83398,0-1.51318.19727-2.03955.5918-.52637.39502-.78906.91016-.78906,1.5459,0,.43896.13135.80078.39453,1.08545.26318.28516.6084.53223,1.03613.74023.42725.2085.90967.38965,1.44678.54248.53711.15381,1.06934.31836,1.5957.49365,2.10449.70166,3.64453,1.63916,4.62109,2.81201.97559,1.17334,1.46387,2.70264,1.46387,4.58838,0,1.27197-.21387,2.42334-.6416,3.45361-.42773,1.03076-1.05273,1.91357-1.875,2.64795s-1.83105,1.30469-3.02637,1.70996-2.54883.6084-4.06152.6084c-3.13574,0-6.04102-.93164-8.71631-2.7959l2.76318-5.19629c.96436.85498,1.91846,1.49121,2.86133,1.90771.94238.4165,1.875.625,2.7959.625,1.05225,0,1.83594-.24121,2.35156-.72363.51465-.48242.77246-1.03076.77246-1.64453,0-.37305-.06543-.69629-.19727-.9707-.13086-.27393-.35059-.52588-.65723-.75635-.30762-.22998-.70752-.44385-1.20068-.64111-.49316-.19775-1.09082-.4165-1.79248-.6582-.8335-.26318-1.65039-.55322-2.45068-.87158-.80029-.31738-1.5127-.73975-2.1377-1.26611s-1.12988-1.18945-1.51318-1.99023c-.38379-.7998-.57568-1.81396-.57568-3.04199s.20264-2.34082.60889-3.33887c.40527-.99756.9751-1.85254,1.70996-2.56543.73486-.7124,1.6333-1.26611,2.69727-1.66113,1.06348-.39453,2.25293-.5918,3.56885-.5918,1.22705,0,2.51025.16992,3.84814.50977,1.33691.34033,2.62012.83887,3.84766,1.49658l-2.56543,5.03223Z"/>
    <g>
      <path fill="#231815" d="M32.44287,53.12305h-4.65381v-7.02295h12.94629v31.8999h-8.29248v-24.87695Z"/>
      <path fill="#231815" d="M73.69238,53.12305h-11.04199l-.5498,3.51172c.50781-.05664.97266-.10645,1.39551-.14844.42383-.04199.86035-.06348,1.31152-.06348,1.6084,0,3.10254.28223,4.48535.8457,1.38086.56445,2.56543,1.34082,3.55371,2.32715.98633.9873,1.76172,2.17285,2.32715,3.55371.56348,1.38281.8457,2.8916.8457,4.52734,0,1.7207-.31738,3.27246-.95215,4.65332-.63477,1.38281-1.53027,2.56055-2.68652,3.5332-1.15625.97363-2.56641,1.7207-4.23047,2.24219-1.66504.52148-3.51172.7832-5.54199.7832-1.91895,0-3.74512-.23242-5.47949-.69824s-3.36328-1.17773-4.88672-2.13672l1.22754-7.78516c1.41016,1.21387,2.84863,2.13672,4.31543,2.77148,1.46582.63477,2.8623.95215,4.18848.95215,1.69238,0,3.03125-.45801,4.01855-1.375.9873-.91602,1.48145-2.05176,1.48145-3.40625,0-1.5791-.66309-2.85547-1.98828-3.82812-1.32617-.97363-3.06152-1.45996-5.2041-1.45996-.95898,0-1.94629.10547-2.96191.31738-1.01562.21094-2.0166.54297-3.00391.99414l2.66602-17.13428h16.71094v7.02295Z"/>
    </g>
  </symbol>
  <symbol id="S16" viewBox="0 0 100 100">
    <circle fill="#9fb01c" cx="50" cy="50" r="50"/>
    <circle fill="#fff" cx="50" cy="50" r="42.5"/>
    <path fill="#231815" d="M55.59082,18.84766c-.70215-.56982-1.40332-.9917-2.10449-1.26611-.70215-.27393-1.38184-.41113-2.03906-.41113-.83398,0-1.51318.19727-2.03955.5918-.52637.39502-.78906.91016-.78906,1.5459,0,.43896.13135.80078.39453,1.08545.26318.28516.6084.53223,1.03613.74023.42725.2085.90967.38965,1.44678.54248.53711.15381,1.06934.31836,1.5957.49365,2.10449.70166,3.64453,1.63916,4.62109,2.81201.97559,1.17334,1.46387,2.70264,1.46387,4.58838,0,1.27197-.21387,2.42334-.6416,3.45361-.42773,1.03076-1.05273,1.91357-1.875,2.64795s-1.83105,1.30469-3.02637,1.70996-2.54883.6084-4.06152.6084c-3.13574,0-6.04102-.93164-8.71631-2.7959l2.76318-5.19629c.96436.85498,1.91846,1.49121,2.86133,1.90771.94238.4165,1.875.625,2.7959.625,1.05225,0,1.83594-.24121,2.35156-.72363.51465-.48242.77246-1.03076.77246-1.64453,0-.37305-.06543-.69629-.19727-.9707-.13086-.27393-.35059-.52588-.65723-.75635-.30762-.22998-.70752-.44385-1.20068-.64111-.49316-.19775-1.09082-.4165-1.79248-.6582-.8335-.26318-1.65039-.55322-2.45068-.87158-.80029-.31738-1.5127-.73975-2.1377-1.26611s-1.12988-1.18945-1.51318-1.99023c-.38379-.7998-.57568-1.81396-.57568-3.04199s.20264-2.34082.60889-3.33887c.40527-.99756.9751-1.85254,1.70996-2.56543.73486-.7124,1.6333-1.26611,2.69727-1.66113,1.06348-.39453,2.25293-.5918,3.56885-.5918,1.22705,0,2.51025.16992,3.84814.50977,1.33691.34033,2.62012.83887,3.84766,1.49658l-2.56543,5.03223Z"/>
    <g>
      <path fill="#231815" d="M32.44287,53.12305h-4.65381v-7.02295h12.94629v31.8999h-8.29248v-24.87695Z"/>
      <path fill="#231815" d="M72.80371,46.1001l-9.05371,10.40771h.16992c.78906-.47949,1.43848-.76855,1.94531-.86816.50781-.09766.95898-.14746,1.35449-.14746,1.55078,0,2.97559.2959,4.27246.88867,1.29785.5918,2.42578,1.40332,3.38477,2.43262s1.70605,2.23535,2.24219,3.61719.80469,2.86328.80469,4.44238c0,1.69238-.31152,3.26465-.93164,4.7168-.62012,1.45312-1.51562,2.72266-2.68652,3.80859-1.16992,1.08594-2.58789,1.93945-4.25195,2.55957s-3.53906.93066-5.62695.93066c-2.11523,0-4.00488-.31055-5.66895-.93066s-3.08203-1.4668-4.25195-2.53906c-1.1709-1.07129-2.06641-2.31934-2.68652-3.74414-.62012-1.42383-.93018-2.94043-.93018-4.54785,0-1.80469.40186-3.75879,1.20557-5.86035.80371-2.10059,2.03711-4.16699,3.70215-6.19727l7.40332-8.96924h9.60352ZM59.09668,67.04199c0,.7334.14062,1.41699.42285,2.05176.28125.63477.66211,1.19238,1.14258,1.6709.47852.48047,1.03613.86133,1.6709,1.14258.63477.28223,1.31836.42285,2.05176.42285s1.41699-.14062,2.05176-.42285c.63477-.28125,1.19141-.66211,1.67188-1.14258.47852-.47852.85938-1.03613,1.1416-1.6709s.42383-1.31836.42383-2.05176-.1416-1.41699-.42383-2.05176-.66309-1.19141-1.1416-1.6709c-.48047-.47949-1.03711-.86035-1.67188-1.14258-.63477-.28125-1.31836-.42285-2.05176-.42285s-1.41699.1416-2.05176.42285c-.63477.28223-1.19238.66309-1.6709,1.14258-.48047.47949-.86133,1.03613-1.14258,1.6709-.28223.63477-.42285,1.31836-.42285,2.05176Z"/>
    </g>
  </symbol>
  <symbol id="S17" viewBox="0 0 100 100">
    <circle fill="#9fb01c" cx="50" cy="50" r="50"/>
    <circle fill="#fff" cx="50" cy="50" r="42.5"/>
    <path fill="#231815" d="M55.59082,18.84766c-.70215-.56982-1.40332-.9917-2.10449-1.26611-.70215-.27393-1.38184-.41113-2.03906-.41113-.83398,0-1.51318.19727-2.03955.5918-.52637.39502-.78906.91016-.78906,1.5459,0,.43896.13135.80078.39453,1.08545.26318.28516.6084.53223,1.03613.74023.42725.2085.90967.38965,1.44678.54248.53711.15381,1.06934.31836,1.5957.49365,2.10449.70166,3.64453,1.63916,4.62109,2.81201.97559,1.17334,1.46387,2.70264,1.46387,4.58838,0,1.27197-.21387,2.42334-.6416,3.45361-.42773,1.03076-1.05273,1.91357-1.875,2.64795s-1.83105,1.30469-3.02637,1.70996-2.54883.6084-4.06152.6084c-3.13574,0-6.04102-.93164-8.71631-2.7959l2.76318-5.19629c.96436.85498,1.91846,1.49121,2.86133,1.90771.94238.4165,1.875.625,2.7959.625,1.05225,0,1.83594-.24121,2.35156-.72363.51465-.48242.77246-1.03076.77246-1.64453,0-.37305-.06543-.69629-.19727-.9707-.13086-.27393-.35059-.52588-.65723-.75635-.30762-.22998-.70752-.44385-1.20068-.64111-.49316-.19775-1.09082-.4165-1.79248-.6582-.8335-.26318-1.65039-.55322-2.45068-.87158-.80029-.31738-1.5127-.73975-2.1377-1.26611s-1.12988-1.18945-1.51318-1.99023c-.38379-.7998-.57568-1.81396-.57568-3.04199s.20264-2.34082.60889-3.33887c.40527-.99756.9751-1.85254,1.70996-2.56543.73486-.7124,1.6333-1.26611,2.69727-1.66113,1.06348-.39453,2.25293-.5918,3.56885-.5918,1.22705,0,2.51025.16992,3.84814.50977,1.33691.34033,2.62012.83887,3.84766,1.49658l-2.56543,5.03223Z"/>
    <g>
      <path fill="#231815" d="M32.44287,53.12305h-4.65381v-7.02295h12.94629v31.8999h-8.29248v-24.87695Z"/>
      <path fill="#231815" d="M66.71191,53.12305h-13.32715v-7.02295h26.18848l-18.27637,31.8999h-9.13867l14.55371-24.87695Z"/>
    </g>
  </symbol>
  <symbol id="S18" viewBox="0 0 100 100">
    <circle fill="#9fb01c" cx="50" cy="50" r="50"/>
    <circle fill="#fff" cx="50" cy="50" r="42.5"/>
    <path fill="#231815" d="M55.59082,18.84766c-.70215-.56982-1.40332-.9917-2.10449-1.26611-.70215-.27393-1.38184-.41113-2.03906-.41113-.83398,0-1.51318.19727-2.03955.5918-.52637.39502-.78906.91016-.78906,1.5459,0,.43896.13135.80078.39453,1.08545.26318.28516.6084.53223,1.03613.74023.42725.2085.90967.38965,1.44678.54248.53711.15381,1.06934.31836,1.5957.49365,2.10449.70166,3.64453,1.63916,4.62109,2.81201.97559,1.17334,1.46387,2.70264,1.46387,4.58838,0,1.27197-.21387,2.42334-.6416,3.45361-.42773,1.03076-1.05273,1.91357-1.875,2.64795s-1.83105,1.30469-3.02637,1.70996-2.54883.6084-4.06152.6084c-3.13574,0-6.04102-.93164-8.71631-2.7959l2.76318-5.19629c.96436.85498,1.91846,1.49121,2.86133,1.90771.94238.4165,1.875.625,2.7959.625,1.05225,0,1.83594-.24121,2.35156-.72363.51465-.48242.77246-1.03076.77246-1.64453,0-.37305-.06543-.69629-.19727-.9707-.13086-.27393-.35059-.52588-.65723-.75635-.30762-.22998-.70752-.44385-1.20068-.64111-.49316-.19775-1.09082-.4165-1.79248-.6582-.8335-.26318-1.65039-.55322-2.45068-.87158-.80029-.31738-1.5127-.73975-2.1377-1.26611s-1.12988-1.18945-1.51318-1.99023c-.38379-.7998-.57568-1.81396-.57568-3.04199s.20264-2.34082.60889-3.33887c.40527-.99756.9751-1.85254,1.70996-2.56543.73486-.7124,1.6333-1.26611,2.69727-1.66113,1.06348-.39453,2.25293-.5918,3.56885-.5918,1.22705,0,2.51025.16992,3.84814.50977,1.33691.34033,2.62012.83887,3.84766,1.49658l-2.56543,5.03223Z"/>
    <g>
      <path fill="#231815" d="M32.44287,53.12305h-4.65381v-7.02295h12.94629v31.8999h-8.29248v-24.87695Z"/>
      <path fill="#231815" d="M58.50391,61.16113c-3.32812-1.38184-4.99219-3.72266-4.99219-7.02344,0-1.35352.26758-2.57324.80371-3.65869.53613-1.08594,1.27637-2.02393,2.22168-2.81348.94434-.78955,2.08691-1.39648,3.42676-1.81934,1.33887-.42334,2.81348-.63477,4.4209-.63477s3.08105.21143,4.4209.63477c1.33984.42285,2.48242,1.02979,3.42773,1.81934.94434.78955,1.68457,1.72754,2.2207,2.81348.53516,1.08545.80371,2.30518.80371,3.65869,0,.84668-.08398,1.60156-.25391,2.26367-.16895.66309-.45898,1.26953-.86719,1.81934-.40918.5498-.94531,1.06543-1.60742,1.54395-.66309.48047-1.48828.94531-2.47559,1.39648,4.34375,1.69238,6.51562,4.42871,6.51562,8.20801,0,1.35352-.30273,2.60938-.90918,3.76562-.60742,1.15625-1.45312,2.15723-2.53906,3.00391-1.08594.8457-2.36914,1.50879-3.84961,1.98828s-3.10938.71875-4.88672.71875c-1.7207,0-3.32129-.23242-4.80176-.69727-1.48047-.46582-2.77148-1.12109-3.87109-1.96777-1.10059-.8457-1.96094-1.84668-2.58105-3.00391-.62012-1.15625-.93066-2.42578-.93066-3.80762,0-3.86426,2.10059-6.60059,6.30371-8.20801ZM60.57715,68.35352c0,.53613.09863,1.04395.2959,1.52344s.46582.89551.80371,1.24805c.33887.35254.74121.63477,1.20605.8457.46582.21191.96582.31738,1.50195.31738.50781,0,.99414-.10547,1.45996-.31738.46484-.21094.87402-.49316,1.22656-.8457s.62793-.76172.8252-1.22754c.19727-.46484.2959-.96582.2959-1.50195,0-1.07129-.37402-1.98047-1.12109-2.72852-.74707-.74707-1.64355-1.12109-2.68652-1.12109-1.07227,0-1.97461.37402-2.70801,1.12109-.7334.74805-1.09961,1.64355-1.09961,2.68652ZM60.87305,54.22266c0,.9873.33887,1.82617,1.01562,2.51758s1.50879,1.03613,2.49609,1.03613c.50781,0,.97363-.09863,1.39648-.2959s.78906-.45801,1.09961-.78223.55664-.69824.74023-1.12207c.18359-.42285.27539-.85938.27539-1.31152,0-.95801-.33887-1.7832-1.01562-2.47461-.67676-.69043-1.50879-1.03613-2.49609-1.03613s-1.81934.33789-2.49609,1.01465c-.67676.67773-1.01562,1.49609-1.01562,2.4541Z"/>
    </g>
  </symbol>
  <symbol id="S19" viewBox="0 0 100 100">
    <circle fill="#9fb01c" cx="50" cy="50" r="50"/>
    <circle fill="#fff" cx="50" cy="50" r="42.5"/>
    <path fill="#231815" d="M55.59082,18.84766c-.70215-.56982-1.40332-.9917-2.10449-1.26611-.70215-.27393-1.38184-.41113-2.03906-.41113-.83398,0-1.51318.19727-2.03955.5918-.52637.39502-.78906.91016-.78906,1.5459,0,.43896.13135.80078.39453,1.08545.26318.28516.6084.53223,1.03613.74023.42725.2085.90967.38965,1.44678.54248.53711.15381,1.06934.31836,1.5957.49365,2.10449.70166,3.64453,1.63916,4.62109,2.81201.97559,1.17334,1.46387,2.70264,1.46387,4.58838,0,1.27197-.21387,2.42334-.6416,3.45361-.42773,1.03076-1.05273,1.91357-1.875,2.64795s-1.83105,1.30469-3.02637,1.70996-2.54883.6084-4.06152.6084c-3.13574,0-6.04102-.93164-8.71631-2.7959l2.76318-5.19629c.96436.85498,1.91846,1.49121,2.86133,1.90771.94238.4165,1.875.625,2.7959.625,1.05225,0,1.83594-.24121,2.35156-.72363.51465-.48242.77246-1.03076.77246-1.64453,0-.37305-.06543-.69629-.19727-.9707-.13086-.27393-.35059-.52588-.65723-.75635-.30762-.22998-.70752-.44385-1.20068-.64111-.49316-.19775-1.09082-.4165-1.79248-.6582-.8335-.26318-1.65039-.55322-2.45068-.87158-.80029-.31738-1.5127-.73975-2.1377-1.26611s-1.12988-1.18945-1.51318-1.99023c-.38379-.7998-.57568-1.81396-.57568-3.04199s.20264-2.34082.60889-3.33887c.40527-.99756.9751-1.85254,1.70996-2.56543.73486-.7124,1.6333-1.26611,2.69727-1.66113,1.06348-.39453,2.25293-.5918,3.56885-.5918,1.22705,0,2.51025.16992,3.84814.50977,1.33691.34033,2.62012.83887,3.84766,1.49658l-2.56543,5.03223Z"/>
    <g>
      <path fill="#231815" d="M32.44287,53.12305h-4.65381v-7.02295h12.94629v31.8999h-8.29248v-24.87695Z"/>
      <path fill="#231815" d="M55.96582,78l9.05371-10.4082h-.16895c-.79004.48047-1.43848.76953-1.94629.86719-.50781.09961-.95898.14844-1.35449.14844-1.55078,0-2.98242-.2959-4.29395-.88867-1.31152-.5918-2.43945-1.40234-3.38477-2.43262-.94531-1.0293-1.68555-2.23535-2.2207-3.61719-.53613-1.38184-.80371-2.8623-.80371-4.44238,0-1.69238.30957-3.26465.93066-4.7168.62012-1.45312,1.51562-2.72168,2.68652-3.80811,1.16992-1.08545,2.58691-1.93848,4.25195-2.55957,1.66406-.62012,3.53906-.93066,5.62695-.93066,2.11523,0,4.00488.31055,5.66895.93066,1.66406.62109,3.08105,1.4668,4.25195,2.53857,1.16992,1.07227,2.06543,2.32031,2.68652,3.74414.62012,1.4248.93066,2.94043.93066,4.54785,0,1.80566-.40137,3.75879-1.20508,5.85938-.80469,2.10156-2.03809,4.16797-3.70215,6.19824l-7.4043,8.96973h-9.60352ZM69.67383,57.05762c0-.7334-.1416-1.41797-.42383-2.05176-.28223-.63477-.66309-1.19141-1.1416-1.67188-.48047-.47852-1.03711-.85938-1.67188-1.1416s-1.31836-.42383-2.05176-.42383-1.41699.1416-2.05176.42383-1.19238.66309-1.6709,1.1416c-.48047.48047-.86133,1.03711-1.14258,1.67188-.28223.63379-.42285,1.31836-.42285,2.05176s.14062,1.41699.42285,2.05176c.28125.63477.66211,1.19141,1.14258,1.6709.47852.48047,1.03613.86133,1.6709,1.14258.63477.28223,1.31836.42285,2.05176.42285s1.41699-.14062,2.05176-.42285c.63477-.28125,1.19141-.66211,1.67188-1.14258.47852-.47949.85938-1.03613,1.1416-1.6709s.42383-1.31836.42383-2.05176Z"/>
    </g>
  </symbol>
  <symbol id="S20" viewBox="0 0 100 100">
    <circle fill="#9fb01c" cx="50" cy="50" r="50"/>
    <circle fill="#fff" cx="50" cy="50" r="42.5"/>
    <path fill="#231815" d="M55.59082,18.84766c-.70215-.56982-1.40332-.9917-2.10449-1.26611-.70215-.27393-1.38184-.41113-2.03906-.41113-.83398,0-1.51318.19727-2.03955.5918-.52637.39502-.78906.91016-.78906,1.5459,0,.43896.13135.80078.39453,1.08545.26318.28516.6084.53223,1.03613.74023.42725.2085.90967.38965,1.44678.54248.53711.15381,1.06934.31836,1.5957.49365,2.10449.70166,3.64453,1.63916,4.62109,2.81201.97559,1.17334,1.46387,2.70264,1.46387,4.58838,0,1.27197-.21387,2.42334-.6416,3.45361-.42773,1.03076-1.05273,1.91357-1.875,2.64795s-1.83105,1.30469-3.02637,1.70996-2.54883.6084-4.06152.6084c-3.13574,0-6.04102-.93164-8.71631-2.7959l2.76318-5.19629c.96436.85498,1.91846,1.49121,2.86133,1.90771.94238.4165,1.875.625,2.7959.625,1.05225,0,1.83594-.24121,2.35156-.72363.51465-.48242.77246-1.03076.77246-1.64453,0-.37305-.06543-.69629-.19727-.9707-.13086-.27393-.35059-.52588-.65723-.75635-.30762-.22998-.70752-.44385-1.20068-.64111-.49316-.19775-1.09082-.4165-1.79248-.6582-.8335-.26318-1.65039-.55322-2.45068-.87158-.80029-.31738-1.5127-.73975-2.1377-1.26611s-1.12988-1.18945-1.51318-1.99023c-.38379-.7998-.57568-1.81396-.57568-3.04199s.20264-2.34082.60889-3.33887c.40527-.99756.9751-1.85254,1.70996-2.56543.73486-.7124,1.6333-1.26611,2.69727-1.66113,1.06348-.39453,2.25293-.5918,3.56885-.5918,1.22705,0,2.51025.16992,3.84814.50977,1.33691.34033,2.62012.83887,3.84766,1.49658l-2.56543,5.03223Z"/>
    <g>
      <path fill="#231815" d="M48.09668,78h-25.68066l7.91162-8.20801c2.08691-2.17188,3.72314-4.01172,4.90771-5.52148,1.18457-1.50781,2.06592-2.78516,2.64404-3.82812.57812-1.04395.9375-1.88965,1.0791-2.53906.14062-.64844.21143-1.19824.21143-1.64941,0-.47949-.07812-.94531-.23242-1.39648-.15576-.45117-.38818-.85254-.69824-1.20605-.31055-.35254-.68408-.63477-1.12109-.8457-.43799-.21191-.95215-.31738-1.54443-.31738-1.12842,0-2.00977.36719-2.64404,1.09961-.63477.73438-.95215,1.65039-.95215,2.75,0,.31055.04248.76172.12695,1.35449h-9.05371c0-1.8623.30273-3.55469.90967-5.07715.60596-1.52344,1.45947-2.83447,2.55957-3.93457s2.4043-1.94629,3.91357-2.53857c1.5083-.59229,3.16553-.88818,4.97119-.88818,1.77686,0,3.41943.28223,4.92871.84619,1.5083.56445,2.81348,1.35352,3.91357,2.36914,1.09961,1.01514,1.95996,2.22119,2.58057,3.6167.62012,1.39648.93066,2.91309.93066,4.54883,0,1.74902-.37402,3.36328-1.12109,4.84375-.74756,1.48047-1.93945,2.99707-3.57471,4.54785l-5.28857,4.9502h10.32275v7.02344Z"/>
      <path fill="#231815" d="M50.84668,62.00781c0-2.53906.33105-4.84473.99414-6.91797.66211-2.07324,1.59277-3.84277,2.79199-5.30908,1.19824-1.46631,2.62305-2.60205,4.27344-3.40576,1.64941-.80371,3.47559-1.20605,5.47852-1.20605,1.97363,0,3.79297.40234,5.45801,1.20605,1.66406.80371,3.08789,1.93945,4.27246,3.40576,1.18555,1.46631,2.1084,3.23584,2.77148,5.30908.66211,2.07324.99414,4.37891.99414,6.91797,0,2.53809-.33203,4.84375-.99414,6.91699-.66309,2.07324-1.58594,3.84961-2.77148,5.33105-1.18457,1.48047-2.6084,2.62305-4.27246,3.42676-1.66504.80371-3.48438,1.20605-5.45801,1.20605-2.00293,0-3.8291-.40234-5.47852-1.20605-1.65039-.80371-3.0752-1.94629-4.27344-3.42676-1.19922-1.48145-2.12988-3.25781-2.79199-5.33105-.66309-2.07324-.99414-4.37891-.99414-6.91699ZM59.05371,62.00781c0,1.41016.12695,2.69336.38086,3.84961.25391,1.15723.61426,2.15723,1.0791,3.00391.46582.8457,1.02246,1.50195,1.6709,1.9668.64844.46582,1.38184.69824,2.2002.69824.78906,0,1.51562-.23242,2.17871-.69824.66309-.46484,1.21973-1.12109,1.67188-1.9668.4502-.84668.80371-1.84668,1.05762-3.00391.25391-1.15625.38086-2.43945.38086-3.84961,0-1.38184-.12695-2.6582-.38086-3.8291-.25391-1.16992-.60742-2.17188-1.05762-3.00391-.45215-.83203-1.00879-1.48047-1.67188-1.94629s-1.38965-.69824-2.17871-.69824c-.81836,0-1.55176.23242-2.2002.69824s-1.20508,1.11426-1.6709,1.94629c-.46484.83203-.8252,1.83398-1.0791,3.00391-.25391,1.1709-.38086,2.44727-.38086,3.8291Z"/>
    </g>
  </symbol>
  <symbol id="S21" viewBox="0 0 100 100">
    <circle fill="#9fb01c" cx="50" cy="50" r="50"/>
    <circle fill="#fff" cx="50" cy="50" r="42.5"/>
    <path fill="#231815" d="M55.59082,18.84766c-.70215-.56982-1.40332-.9917-2.10449-1.26611-.70215-.27393-1.38184-.41113-2.03906-.41113-.83398,0-1.51318.19727-2.03955.5918-.52637.39502-.78906.91016-.78906,1.5459,0,.43896.13135.80078.39453,1.08545.26318.28516.6084.53223,1.03613.74023.42725.2085.90967.38965,1.44678.54248.53711.15381,1.06934.31836,1.5957.49365,2.10449.70166,3.64453,1.63916,4.62109,2.81201.97559,1.17334,1.46387,2.70264,1.46387,4.58838,0,1.27197-.21387,2.42334-.6416,3.45361-.42773,1.03076-1.05273,1.91357-1.875,2.64795s-1.83105,1.30469-3.02637,1.70996-2.54883.6084-4.06152.6084c-3.13574,0-6.04102-.93164-8.71631-2.7959l2.76318-5.19629c.96436.85498,1.91846,1.49121,2.86133,1.90771.94238.4165,1.875.625,2.7959.625,1.05225,0,1.83594-.24121,2.35156-.72363.51465-.48242.77246-1.03076.77246-1.64453,0-.37305-.06543-.69629-.19727-.9707-.13086-.27393-.35059-.52588-.65723-.75635-.30762-.22998-.70752-.44385-1.20068-.64111-.49316-.19775-1.09082-.4165-1.79248-.6582-.8335-.26318-1.65039-.55322-2.45068-.87158-.80029-.31738-1.5127-.73975-2.1377-1.26611s-1.12988-1.18945-1.51318-1.99023c-.38379-.7998-.57568-1.81396-.57568-3.04199s.20264-2.34082.60889-3.33887c.40527-.99756.9751-1.85254,1.70996-2.56543.73486-.7124,1.6333-1.26611,2.69727-1.66113,1.06348-.39453,2.25293-.5918,3.56885-.5918,1.22705,0,2.51025.16992,3.84814.50977,1.33691.34033,2.62012.83887,3.84766,1.49658l-2.56543,5.03223Z"/>
    <g>
      <path fill="#231815" d="M48.09668,78h-25.68066l7.91162-8.20801c2.08691-2.17188,3.72314-4.01172,4.90771-5.52148,1.18457-1.50781,2.06592-2.78516,2.64404-3.82812.57812-1.04395.9375-1.88965,1.0791-2.53906.14062-.64844.21143-1.19824.21143-1.64941,0-.47949-.07812-.94531-.23242-1.39648-.15576-.45117-.38818-.85254-.69824-1.20605-.31055-.35254-.68408-.63477-1.12109-.8457-.43799-.21191-.95215-.31738-1.54443-.31738-1.12842,0-2.00977.36719-2.64404,1.09961-.63477.73438-.95215,1.65039-.95215,2.75,0,.31055.04248.76172.12695,1.35449h-9.05371c0-1.8623.30273-3.55469.90967-5.07715.60596-1.52344,1.45947-2.83447,2.55957-3.93457s2.4043-1.94629,3.91357-2.53857c1.5083-.59229,3.16553-.88818,4.97119-.88818,1.77686,0,3.41943.28223,4.92871.84619,1.5083.56445,2.81348,1.35352,3.91357,2.36914,1.09961,1.01514,1.95996,2.22119,2.58057,3.6167.62012,1.39648.93066,2.91309.93066,4.54883,0,1.74902-.37402,3.36328-1.12109,4.84375-.74756,1.48047-1.93945,2.99707-3.57471,4.54785l-5.28857,4.9502h10.32275v7.02344Z"/>
      <path fill="#231815" d="M61.21191,53.12305h-4.6543v-7.02295h12.94629v31.8999h-8.29199v-24.87695Z"/>
    </g>
  </symbol>
</svg>