<?xml version="1.0" encoding="UTF-8"?>
<svg xmlns="http://www.w3.org/2000/svg" xmlns:xlink="http://www.w3.org/1999/xlink">
  <!-- DIC-158 -->
  <symbol id="M" viewBox="0 0 100 100">
    <circle fill="#f62e36" cx="50" cy="50" r="50"/>
    <circle fill="#fff" cx="50" cy="50" r="27.15"/>
    <path fill="#231815" d="M30.13525,66l5.38135-31.7002h8.15625l6.34814,16.90137,6.30615-16.90137h8.15625l5.38184,31.7002h-8.19824l-2.7334-18.24658-7.4834,18.24658h-3.27881l-7.10547-18.24658-2.73242,18.24658h-8.19824Z"/>
  </symbol>
  <symbol id="M01" viewBox="0 0 100 100">
    <circle fill="#f62e36" cx="50" cy="50" r="50"/>
    <circle fill="#fff" cx="50" cy="50" r="37.8"/>
    <path fill="#231815" d="M34.45996,42.7002l4.21045-24.80029h6.38086l4.96631,13.22266,4.93359-13.22266h6.38086l4.20996,24.80029h-6.41406l-2.1377-14.2749-5.85449,14.2749h-2.56543l-5.55859-14.2749-2.1377,14.2749h-6.41406Z"/>
    <g>
      <path fill="#231815" d="M26.62891,63.01465c0-2.125.27734-4.05469.83252-5.79004.5542-1.73535,1.3335-3.2168,2.33691-4.44434s2.1958-2.17773,3.57666-2.85059,2.90918-1.00928,4.58594-1.00928c1.65186,0,3.1748.33643,4.56787,1.00928,1.39258.67285,2.58496,1.62305,3.57666,2.85059.99121,1.22754,1.76416,2.70898,2.31934,4.44434.5542,1.73535.83203,3.66504.83203,5.79004,0,2.12402-.27783,4.05371-.83203,5.78906-.55518,1.73535-1.32812,3.22266-2.31934,4.46191-.9917,1.23926-2.18408,2.19531-3.57666,2.86816-1.39307.67285-2.91602,1.00879-4.56787,1.00879-1.67676,0-3.20508-.33594-4.58594-1.00879s-2.57324-1.62891-3.57666-2.86816-1.78271-2.72656-2.33691-4.46191c-.55518-1.73535-.83252-3.66504-.83252-5.78906ZM33.49902,63.01465c0,1.18066.10596,2.25391.31836,3.22168.21289.96875.51367,1.80664.90332,2.51465s.85547,1.25684,1.39844,1.64648,1.15674.58398,1.8418.58398c.66064,0,1.26855-.19434,1.82324-.58398s1.021-.93848,1.39893-1.64648c.37744-.70801.67285-1.5459.88525-2.51465.2124-.96777.31885-2.04102.31885-3.22168,0-1.15723-.10645-2.22559-.31885-3.20508s-.50781-1.81738-.88525-2.51465c-.37793-.69531-.84424-1.23926-1.39893-1.62891s-1.1626-.58398-1.82324-.58398c-.68506,0-1.29883.19434-1.8418.58398s-1.00879.93359-1.39844,1.62891c-.38965.69727-.69043,1.53516-.90332,2.51465-.2124.97949-.31836,2.04785-.31836,3.20508Z"/>
      <path fill="#231815" d="M59.38379,55.57812h-3.89453v-5.87891h10.83594v26.7002h-6.94141v-20.82129Z"/>
    </g>
  </symbol>
  <symbol id="M02" viewBox="0 0 100 100">
    <circle fill="#f62e36" cx="50" cy="50" r="50"/>
    <circle fill="#fff" cx="50" cy="50" r="37.8"/>
    <path fill="#231815" d="M34.45996,42.7002l4.21045-24.80029h6.38086l4.96631,13.22266,4.93359-13.22266h6.38086l4.20996,24.80029h-6.41406l-2.1377-14.2749-5.85449,14.2749h-2.56543l-5.55859-14.2749-2.1377,14.2749h-6.41406Z"/>
    <g>
      <path fill="#231815" d="M26.62891,63.01465c0-2.125.27734-4.05469.83252-5.79004.5542-1.73535,1.3335-3.2168,2.33691-4.44434s2.1958-2.17773,3.57666-2.85059,2.90918-1.00928,4.58594-1.00928c1.65186,0,3.1748.33643,4.56787,1.00928,1.39258.67285,2.58496,1.62305,3.57666,2.85059.99121,1.22754,1.76416,2.70898,2.31934,4.44434.5542,1.73535.83203,3.66504.83203,5.79004,0,2.12402-.27783,4.05371-.83203,5.78906-.55518,1.73535-1.32812,3.22266-2.31934,4.46191-.9917,1.23926-2.18408,2.19531-3.57666,2.86816-1.39307.67285-2.91602,1.00879-4.56787,1.00879-1.67676,0-3.20508-.33594-4.58594-1.00879s-2.57324-1.62891-3.57666-2.86816-1.78271-2.72656-2.33691-4.46191c-.55518-1.73535-.83252-3.66504-.83252-5.78906ZM33.49902,63.01465c0,1.18066.10596,2.25391.31836,3.22168.21289.96875.51367,1.80664.90332,2.51465s.85547,1.25684,1.39844,1.64648,1.15674.58398,1.8418.58398c.66064,0,1.26855-.19434,1.82324-.58398s1.021-.93848,1.39893-1.64648c.37744-.70801.67285-1.5459.88525-2.51465.2124-.96777.31885-2.04102.31885-3.22168,0-1.15723-.10645-2.22559-.31885-3.20508s-.50781-1.81738-.88525-2.51465c-.37793-.69531-.84424-1.23926-1.39893-1.62891s-1.1626-.58398-1.82324-.58398c-.68506,0-1.29883.19434-1.8418.58398s-1.00879.93359-1.39844,1.62891c-.38965.69727-.69043,1.53516-.90332,2.51465-.2124.97949-.31836,2.04785-.31836,3.20508Z"/>
      <path fill="#231815" d="M72.48633,76.39941h-21.49414l6.62109-6.86914c1.74707-1.81836,3.11621-3.3584,4.1084-4.62109.99121-1.2627,1.72852-2.33105,2.21289-3.20508.4834-.87305.78418-1.58105.90332-2.125.11719-.54297.17676-1.00293.17676-1.38086,0-.40137-.06543-.79102-.19434-1.16895-.13086-.37695-.3252-.71289-.58496-1.00879-.25977-.29492-.57227-.53125-.93848-.70801-.36621-.17773-.79688-.26562-1.29199-.26562-.94434,0-1.68262.30664-2.21387.9209-.53027.61328-.7959,1.38086-.7959,2.30176,0,.25977.03516.63672.10547,1.13281h-7.57812c0-1.55859.25391-2.97461.76172-4.24902.50781-1.27539,1.22168-2.37305,2.14258-3.29395.9209-.92041,2.0127-1.62891,3.27539-2.12451,1.2627-.49609,2.64941-.74365,4.16113-.74365,1.4873,0,2.8623.23633,4.125.70801,1.2627.47266,2.35547,1.1333,3.27539,1.9834.9209.84961,1.64062,1.85938,2.16016,3.02734.51953,1.16895.7793,2.43848.7793,3.80664,0,1.46484-.31348,2.81543-.93848,4.05469-.62598,1.23926-1.62305,2.50879-2.99219,3.80664l-4.42676,4.14355h8.64062v5.87793Z"/>
    </g>
  </symbol>
  <symbol id="M03" viewBox="0 0 100 100">
    <circle fill="#f62e36" cx="50" cy="50" r="50"/>
    <circle fill="#fff" cx="50" cy="50" r="37.8"/>
    <path fill="#231815" d="M34.45996,42.7002l4.21045-24.80029h6.38086l4.96631,13.22266,4.93359-13.22266h6.38086l4.20996,24.80029h-6.41406l-2.1377-14.2749-5.85449,14.2749h-2.56543l-5.55859-14.2749-2.1377,14.2749h-6.41406Z"/>
    <g>
      <path fill="#231815" d="M26.62891,63.01465c0-2.125.27734-4.05469.83252-5.79004.5542-1.73535,1.3335-3.2168,2.33691-4.44434s2.1958-2.17773,3.57666-2.85059,2.90918-1.00928,4.58594-1.00928c1.65186,0,3.1748.33643,4.56787,1.00928,1.39258.67285,2.58496,1.62305,3.57666,2.85059.99121,1.22754,1.76416,2.70898,2.31934,4.44434.5542,1.73535.83203,3.66504.83203,5.79004,0,2.12402-.27783,4.05371-.83203,5.78906-.55518,1.73535-1.32812,3.22266-2.31934,4.46191-.9917,1.23926-2.18408,2.19531-3.57666,2.86816-1.39307.67285-2.91602,1.00879-4.56787,1.00879-1.67676,0-3.20508-.33594-4.58594-1.00879s-2.57324-1.62891-3.57666-2.86816-1.78271-2.72656-2.33691-4.46191c-.55518-1.73535-.83252-3.66504-.83252-5.78906ZM33.49902,63.01465c0,1.18066.10596,2.25391.31836,3.22168.21289.96875.51367,1.80664.90332,2.51465s.85547,1.25684,1.39844,1.64648,1.15674.58398,1.8418.58398c.66064,0,1.26855-.19434,1.82324-.58398s1.021-.93848,1.39893-1.64648c.37744-.70801.67285-1.5459.88525-2.51465.2124-.96777.31885-2.04102.31885-3.22168,0-1.15723-.10645-2.22559-.31885-3.20508s-.50781-1.81738-.88525-2.51465c-.37793-.69531-.84424-1.23926-1.39893-1.62891s-1.1626-.58398-1.82324-.58398c-.68506,0-1.29883.19434-1.8418.58398s-1.00879.93359-1.39844,1.62891c-.38965.69727-.69043,1.53516-.90332,2.51465-.2124.97949-.31836,2.04785-.31836,3.20508Z"/>
      <path fill="#231815" d="M60.58789,60.11035c.18945.02441.34863.03516.47852.03516h.33594c.87305,0,1.58203-.25879,2.125-.77832s.81445-1.19238.81445-2.01855c0-.80273-.25391-1.45215-.76172-1.94824-.50781-.49512-1.16309-.74316-1.96484-.74316-.84961,0-1.53516.2832-2.05371.84961-.51953.56641-.7793,1.29883-.7793,2.19531h-6.40918c.16504-1.39258.51367-2.63184,1.04395-3.71777.53125-1.08594,1.20996-2.00098,2.03613-2.74414.82617-.74414,1.79395-1.31055,2.9043-1.7002,1.10938-.38965,2.33691-.58447,3.68262-.58447,1.32227,0,2.51953.18311,3.59473.54883,1.07324.3667,1.99414.88525,2.76172,1.55811.7666.67285,1.35742,1.4873,1.77051,2.44336s.62012,2.02539.62012,3.20508c0,1.27441-.24316,2.31934-.72656,3.13379-.48438.81445-1.1748,1.51758-2.07129,2.10742,1.36914.4248,2.4375,1.18555,3.20508,2.28418.7666,1.09766,1.15039,2.44922,1.15039,4.05371,0,1.32324-.25977,2.52637-.7793,3.6123s-1.24512,2.01855-2.17773,2.79688c-.93262.7793-2.04199,1.38184-3.32812,1.80664-1.28711.4248-2.69727.63672-4.23242.63672-2.05371,0-3.90723-.40137-5.55957-1.20312-1.65234-.80273-2.97363-2.07715-3.96582-3.82422-.44824-.7793-.74902-1.55859-.90234-2.33789-.1543-.77832-.23047-1.56934-.23047-2.37207h6.87012c.04688,1.25195.41211,2.20117,1.09766,2.85059.68359.64941,1.60449.97363,2.76172.97363,1.22754,0,2.125-.33008,2.69141-.99121s.84961-1.47559.84961-2.44336c0-1.15625-.34277-2.03027-1.02637-2.62109-.68555-.58887-1.5-.88477-2.44336-.88477-.23633,0-.46094.01758-.67285.05273-.21289.03613-.44922.07715-.70898.12402v-4.35547Z"/>
    </g>
  </symbol>
  <symbol id="M04" viewBox="0 0 100 100">
    <circle fill="#f62e36" cx="50" cy="50" r="50"/>
    <circle fill="#fff" cx="50" cy="50" r="37.8"/>
    <path fill="#231815" d="M34.45996,42.7002l4.21045-24.80029h6.38086l4.96631,13.22266,4.93359-13.22266h6.38086l4.20996,24.80029h-6.41406l-2.1377-14.2749-5.85449,14.2749h-2.56543l-5.55859-14.2749-2.1377,14.2749h-6.41406Z"/>
    <g>
      <path fill="#231815" d="M26.62891,63.01465c0-2.125.27734-4.05469.83252-5.79004.5542-1.73535,1.3335-3.2168,2.33691-4.44434s2.1958-2.17773,3.57666-2.85059,2.90918-1.00928,4.58594-1.00928c1.65186,0,3.1748.33643,4.56787,1.00928,1.39258.67285,2.58496,1.62305,3.57666,2.85059.99121,1.22754,1.76416,2.70898,2.31934,4.44434.5542,1.73535.83203,3.66504.83203,5.79004,0,2.12402-.27783,4.05371-.83203,5.78906-.55518,1.73535-1.32812,3.22266-2.31934,4.46191-.9917,1.23926-2.18408,2.19531-3.57666,2.86816-1.39307.67285-2.91602,1.00879-4.56787,1.00879-1.67676,0-3.20508-.33594-4.58594-1.00879s-2.57324-1.62891-3.57666-2.86816-1.78271-2.72656-2.33691-4.46191c-.55518-1.73535-.83252-3.66504-.83252-5.78906ZM33.49902,63.01465c0,1.18066.10596,2.25391.31836,3.22168.21289.96875.51367,1.80664.90332,2.51465s.85547,1.25684,1.39844,1.64648,1.15674.58398,1.8418.58398c.66064,0,1.26855-.19434,1.82324-.58398s1.021-.93848,1.39893-1.64648c.37744-.70801.67285-1.5459.88525-2.51465.2124-.96777.31885-2.04102.31885-3.22168,0-1.15723-.10645-2.22559-.31885-3.20508s-.50781-1.81738-.88525-2.51465c-.37793-.69531-.84424-1.23926-1.39893-1.62891s-1.1626-.58398-1.82324-.58398c-.68506,0-1.29883.19434-1.8418.58398s-1.00879.93359-1.39844,1.62891c-.38965.69727-.69043,1.53516-.90332,2.51465-.2124.97949-.31836,2.04785-.31836,3.20508Z"/>
      <path fill="#231815" d="M69.83008,65.59961h3.22266v5.31152h-3.22266v5.48828h-6.44434v-5.48828h-12.88965v-4.46191l10.19824-16.75h9.13574v15.90039ZM63.38574,65.59961v-10.51758l-6.12598,10.51758h6.12598Z"/>
    </g>
  </symbol>
  <symbol id="M05" viewBox="0 0 100 100">
    <circle fill="#f62e36" cx="50" cy="50" r="50"/>
    <circle fill="#fff" cx="50" cy="50" r="37.8"/>
    <path fill="#231815" d="M34.45996,42.7002l4.21045-24.80029h6.38086l4.96631,13.22266,4.93359-13.22266h6.38086l4.20996,24.80029h-6.41406l-2.1377-14.2749-5.85449,14.2749h-2.56543l-5.55859-14.2749-2.1377,14.2749h-6.41406Z"/>
    <g>
      <path fill="#231815" d="M26.62891,63.01465c0-2.125.27734-4.05469.83252-5.79004.5542-1.73535,1.3335-3.2168,2.33691-4.44434s2.1958-2.17773,3.57666-2.85059,2.90918-1.00928,4.58594-1.00928c1.65186,0,3.1748.33643,4.56787,1.00928,1.39258.67285,2.58496,1.62305,3.57666,2.85059.99121,1.22754,1.76416,2.70898,2.31934,4.44434.5542,1.73535.83203,3.66504.83203,5.79004,0,2.12402-.27783,4.05371-.83203,5.78906-.55518,1.73535-1.32812,3.22266-2.31934,4.46191-.9917,1.23926-2.18408,2.19531-3.57666,2.86816-1.39307.67285-2.91602,1.00879-4.56787,1.00879-1.67676,0-3.20508-.33594-4.58594-1.00879s-2.57324-1.62891-3.57666-2.86816-1.78271-2.72656-2.33691-4.46191c-.55518-1.73535-.83252-3.66504-.83252-5.78906ZM33.49902,63.01465c0,1.18066.10596,2.25391.31836,3.22168.21289.96875.51367,1.80664.90332,2.51465s.85547,1.25684,1.39844,1.64648,1.15674.58398,1.8418.58398c.66064,0,1.26855-.19434,1.82324-.58398s1.021-.93848,1.39893-1.64648c.37744-.70801.67285-1.5459.88525-2.51465.2124-.96777.31885-2.04102.31885-3.22168,0-1.15723-.10645-2.22559-.31885-3.20508s-.50781-1.81738-.88525-2.51465c-.37793-.69531-.84424-1.23926-1.39893-1.62891s-1.1626-.58398-1.82324-.58398c-.68506,0-1.29883.19434-1.8418.58398s-1.00879.93359-1.39844,1.62891c-.38965.69727-.69043,1.53516-.90332,2.51465-.2124.97949-.31836,2.04785-.31836,3.20508Z"/>
      <path fill="#231815" d="M69.83008,55.57812h-9.24219l-.45996,2.93848c.4248-.04688.81445-.08789,1.16895-.12402.35352-.03516.71973-.05273,1.09766-.05273,1.3457,0,2.59668.23633,3.75293.70801,1.15625.47266,2.14844,1.12207,2.97461,1.94824s1.47559,1.81738,1.94824,2.97461c.47168,1.15625.70801,2.41992.70801,3.78906,0,1.43945-.26562,2.73828-.79688,3.89453-.53125,1.15723-1.28125,2.14258-2.24902,2.95703s-2.14844,1.44043-3.54102,1.87695-2.93848.6543-4.63867.6543c-1.60547,0-3.13379-.19434-4.58594-.58398-1.45117-.38965-2.81543-.98535-4.08984-1.78809l1.02734-6.51562c1.17969,1.01562,2.38379,1.78809,3.61133,2.31934s2.39648.79688,3.50586.79688c1.41699,0,2.53711-.38281,3.36426-1.15039.82617-.76758,1.23926-1.71777,1.23926-2.85059,0-1.32227-.55469-2.39062-1.66406-3.20508-1.11035-.81445-2.56152-1.22168-4.35547-1.22168-.80273,0-1.62891.08887-2.47949.26562-.84961.17676-1.6875.45508-2.51367.83203l2.23047-14.3418h13.9873v5.87891Z"/>
    </g>
  </symbol>
  <symbol id="M06" viewBox="0 0 100 100">
    <circle fill="#f62e36" cx="50" cy="50" r="50"/>
    <circle fill="#fff" cx="50" cy="50" r="37.8"/>
    <path fill="#231815" d="M34.45996,42.7002l4.21045-24.80029h6.38086l4.96631,13.22266,4.93359-13.22266h6.38086l4.20996,24.80029h-6.41406l-2.1377-14.2749-5.85449,14.2749h-2.56543l-5.55859-14.2749-2.1377,14.2749h-6.41406Z"/>
    <g>
      <path fill="#231815" d="M26.62891,63.01465c0-2.125.27734-4.05469.83252-5.79004.5542-1.73535,1.3335-3.2168,2.33691-4.44434s2.1958-2.17773,3.57666-2.85059,2.90918-1.00928,4.58594-1.00928c1.65186,0,3.1748.33643,4.56787,1.00928,1.39258.67285,2.58496,1.62305,3.57666,2.85059.99121,1.22754,1.76416,2.70898,2.31934,4.44434.5542,1.73535.83203,3.66504.83203,5.79004,0,2.12402-.27783,4.05371-.83203,5.78906-.55518,1.73535-1.32812,3.22266-2.31934,4.46191-.9917,1.23926-2.18408,2.19531-3.57666,2.86816-1.39307.67285-2.91602,1.00879-4.56787,1.00879-1.67676,0-3.20508-.33594-4.58594-1.00879s-2.57324-1.62891-3.57666-2.86816-1.78271-2.72656-2.33691-4.46191c-.55518-1.73535-.83252-3.66504-.83252-5.78906ZM33.49902,63.01465c0,1.18066.10596,2.25391.31836,3.22168.21289.96875.51367,1.80664.90332,2.51465s.85547,1.25684,1.39844,1.64648,1.15674.58398,1.8418.58398c.66064,0,1.26855-.19434,1.82324-.58398s1.021-.93848,1.39893-1.64648c.37744-.70801.67285-1.5459.88525-2.51465.2124-.96777.31885-2.04102.31885-3.22168,0-1.15723-.10645-2.22559-.31885-3.20508s-.50781-1.81738-.88525-2.51465c-.37793-.69531-.84424-1.23926-1.39893-1.62891s-1.1626-.58398-1.82324-.58398c-.68506,0-1.29883.19434-1.8418.58398s-1.00879.93359-1.39844,1.62891c-.38965.69727-.69043,1.53516-.90332,2.51465-.2124.97949-.31836,2.04785-.31836,3.20508Z"/>
      <path fill="#231815" d="M69.08691,49.69922l-7.57812,8.71191h.1416c.66113-.40137,1.2041-.64355,1.62891-.72656.4248-.08203.80273-.12402,1.13379-.12402,1.29785,0,2.49023.24805,3.57617.74414,1.08594.49512,2.03027,1.1748,2.83301,2.03613.80176.8623,1.42773,1.87109,1.87695,3.02734.44824,1.15723.67285,2.39648.67285,3.71875,0,1.41602-.26074,2.73242-.7793,3.94824-.51953,1.21582-1.26953,2.27832-2.24902,3.18652-.97949.90918-2.16602,1.62305-3.55859,2.14258-1.39355.51855-2.96289.77832-4.70996.77832-1.77051,0-3.35254-.25977-4.74512-.77832-1.39258-.51953-2.5791-1.22754-3.55859-2.125-.97949-.89648-1.72949-1.94141-2.24902-3.13379-.51953-1.19141-.77832-2.46094-.77832-3.80664,0-1.51074.33594-3.14551,1.00879-4.9043s1.70508-3.48828,3.09863-5.1875l6.19727-7.50781h8.03809ZM57.61328,67.22852c0,.61426.11816,1.18555.35449,1.7168.23535.53125.55469.99805.95605,1.39941s.86719.71973,1.39844.95605,1.10352.35352,1.71777.35352c.61328,0,1.18652-.11719,1.71777-.35352s.99707-.55469,1.39844-.95605.71973-.86816.95605-1.39941c.23535-.53125.35449-1.10254.35449-1.7168s-.11914-1.18652-.35449-1.71777c-.23633-.53125-.55469-.99707-.95605-1.39844s-.86719-.71973-1.39844-.95605-1.10449-.35449-1.71777-.35449c-.61426,0-1.18652.11816-1.71777.35449s-.99707.55469-1.39844.95605-.7207.86719-.95605,1.39844c-.23633.53125-.35449,1.10352-.35449,1.71777Z"/>
    </g>
  </symbol>
  <symbol id="M07" viewBox="0 0 100 100">
    <circle fill="#f62e36" cx="50" cy="50" r="50"/>
    <circle fill="#fff" cx="50" cy="50" r="37.8"/>
    <path fill="#231815" d="M34.45996,42.7002l4.21045-24.80029h6.38086l4.96631,13.22266,4.93359-13.22266h6.38086l4.20996,24.80029h-6.41406l-2.1377-14.2749-5.85449,14.2749h-2.56543l-5.55859-14.2749-2.1377,14.2749h-6.41406Z"/>
    <g>
      <path fill="#231815" d="M26.62891,63.01465c0-2.125.27734-4.05469.83252-5.79004.5542-1.73535,1.3335-3.2168,2.33691-4.44434s2.1958-2.17773,3.57666-2.85059,2.90918-1.00928,4.58594-1.00928c1.65186,0,3.1748.33643,4.56787,1.00928,1.39258.67285,2.58496,1.62305,3.57666,2.85059.99121,1.22754,1.76416,2.70898,2.31934,4.44434.5542,1.73535.83203,3.66504.83203,5.79004,0,2.12402-.27783,4.05371-.83203,5.78906-.55518,1.73535-1.32812,3.22266-2.31934,4.46191-.9917,1.23926-2.18408,2.19531-3.57666,2.86816-1.39307.67285-2.91602,1.00879-4.56787,1.00879-1.67676,0-3.20508-.33594-4.58594-1.00879s-2.57324-1.62891-3.57666-2.86816-1.78271-2.72656-2.33691-4.46191c-.55518-1.73535-.83252-3.66504-.83252-5.78906ZM33.49902,63.01465c0,1.18066.10596,2.25391.31836,3.22168.21289.96875.51367,1.80664.90332,2.51465s.85547,1.25684,1.39844,1.64648,1.15674.58398,1.8418.58398c.66064,0,1.26855-.19434,1.82324-.58398s1.021-.93848,1.39893-1.64648c.37744-.70801.67285-1.5459.88525-2.51465.2124-.96777.31885-2.04102.31885-3.22168,0-1.15723-.10645-2.22559-.31885-3.20508s-.50781-1.81738-.88525-2.51465c-.37793-.69531-.84424-1.23926-1.39893-1.62891s-1.1626-.58398-1.82324-.58398c-.68506,0-1.29883.19434-1.8418.58398s-1.00879.93359-1.39844,1.62891c-.38965.69727-.69043,1.53516-.90332,2.51465-.2124.97949-.31836,2.04785-.31836,3.20508Z"/>
      <path fill="#231815" d="M63.9873,55.57812h-11.1543v-5.87891h21.91992l-15.29785,26.7002h-7.64844l12.18066-20.82129Z"/>
    </g>
  </symbol>
  <symbol id="M08" viewBox="0 0 100 100">
    <circle fill="#f62e36" cx="50" cy="50" r="50"/>
    <circle fill="#fff" cx="50" cy="50" r="37.8"/>
    <path fill="#231815" d="M34.45996,42.7002l4.21045-24.80029h6.38086l4.96631,13.22266,4.93359-13.22266h6.38086l4.20996,24.80029h-6.41406l-2.1377-14.2749-5.85449,14.2749h-2.56543l-5.55859-14.2749-2.1377,14.2749h-6.41406Z"/>
    <g>
      <path fill="#231815" d="M26.62891,63.01465c0-2.125.27734-4.05469.83252-5.79004.5542-1.73535,1.3335-3.2168,2.33691-4.44434s2.1958-2.17773,3.57666-2.85059,2.90918-1.00928,4.58594-1.00928c1.65186,0,3.1748.33643,4.56787,1.00928,1.39258.67285,2.58496,1.62305,3.57666,2.85059.99121,1.22754,1.76416,2.70898,2.31934,4.44434.5542,1.73535.83203,3.66504.83203,5.79004,0,2.12402-.27783,4.05371-.83203,5.78906-.55518,1.73535-1.32812,3.22266-2.31934,4.46191-.9917,1.23926-2.18408,2.19531-3.57666,2.86816-1.39307.67285-2.91602,1.00879-4.56787,1.00879-1.67676,0-3.20508-.33594-4.58594-1.00879s-2.57324-1.62891-3.57666-2.86816-1.78271-2.72656-2.33691-4.46191c-.55518-1.73535-.83252-3.66504-.83252-5.78906ZM33.49902,63.01465c0,1.18066.10596,2.25391.31836,3.22168.21289.96875.51367,1.80664.90332,2.51465s.85547,1.25684,1.39844,1.64648,1.15674.58398,1.8418.58398c.66064,0,1.26855-.19434,1.82324-.58398s1.021-.93848,1.39893-1.64648c.37744-.70801.67285-1.5459.88525-2.51465.2124-.96777.31885-2.04102.31885-3.22168,0-1.15723-.10645-2.22559-.31885-3.20508s-.50781-1.81738-.88525-2.51465c-.37793-.69531-.84424-1.23926-1.39893-1.62891s-1.1626-.58398-1.82324-.58398c-.68506,0-1.29883.19434-1.8418.58398s-1.00879.93359-1.39844,1.62891c-.38965.69727-.69043,1.53516-.90332,2.51465-.2124.97949-.31836,2.04785-.31836,3.20508Z"/>
      <path fill="#231815" d="M57.11816,62.30566c-2.78613-1.15625-4.17871-3.11621-4.17871-5.87793,0-1.13281.22363-2.1543.67285-3.06348.44824-.9082,1.06738-1.69336,1.85938-2.35449.79004-.66064,1.74609-1.16895,2.86816-1.52295,1.12109-.354,2.35449-.53125,3.7002-.53125s2.5791.17725,3.7002.53125,2.07715.8623,2.86816,1.52295c.79102.66113,1.41113,1.44629,1.85938,2.35449.44824.90918.67285,1.93066.67285,3.06348,0,.70801-.07031,1.33984-.21191,1.89453s-.38477,1.0625-.72656,1.52246c-.34277.46094-.79102.8916-1.3457,1.29297s-1.24512.79102-2.07129,1.16797c3.63477,1.41699,5.45312,3.70703,5.45312,6.87012,0,1.13281-.25391,2.18359-.76074,3.15137-.50879.96875-1.2168,1.80566-2.125,2.51465-.90918.70801-1.9834,1.2627-3.22266,1.66406s-2.60254.60156-4.08984.60156c-1.44043,0-2.7793-.19434-4.01953-.58398-1.23926-.38965-2.31934-.93848-3.24023-1.64648-.91992-.70801-1.64062-1.5459-2.15918-2.51465-.51953-.9668-.7793-2.0293-.7793-3.18652,0-3.23438,1.75781-5.52441,5.27637-6.87012ZM58.85352,68.32617c0,.44824.08203.87305.24707,1.27441s.38965.75.67285,1.04492.62012.53125,1.00977.70801.80859.26562,1.25684.26562c.4248,0,.83203-.08887,1.22168-.26562s.73145-.41309,1.02734-.70801c.29492-.29492.52441-.6377.69043-1.02734.16504-.38965.24805-.80859.24805-1.25684,0-.89648-.31348-1.6582-.93848-2.28418-.62598-.625-1.37598-.93848-2.24902-.93848-.89746,0-1.65234.31348-2.2666.93848-.61426.62598-.91992,1.37598-.91992,2.24902ZM59.10059,56.49902c0,.82617.2832,1.52832.85059,2.10645.56641.5791,1.2627.86719,2.08887.86719.4248,0,.81445-.08203,1.16895-.24707.35352-.16504.66016-.38379.91992-.65527s.46582-.58496.62012-.93848c.15332-.35449.23047-.71973.23047-1.09766,0-.80273-.2832-1.49316-.85059-2.07227-.56641-.57812-1.2627-.86719-2.08887-.86719s-1.52246.2832-2.08887.84961c-.56738.56738-.85059,1.25195-.85059,2.05469Z"/>
    </g>
  </symbol>
  <symbol id="M09" viewBox="0 0 100 100">
    <circle fill="#f62e36" cx="50" cy="50" r="50"/>
    <circle fill="#fff" cx="50" cy="50" r="37.8"/>
    <path fill="#231815" d="M34.45996,42.7002l4.21045-24.80029h6.38086l4.96631,13.22266,4.93359-13.22266h6.38086l4.20996,24.80029h-6.41406l-2.1377-14.2749-5.85449,14.2749h-2.56543l-5.55859-14.2749-2.1377,14.2749h-6.41406Z"/>
    <g>
      <path fill="#231815" d="M26.62891,63.01465c0-2.125.27734-4.05469.83252-5.79004.5542-1.73535,1.3335-3.2168,2.33691-4.44434s2.1958-2.17773,3.57666-2.85059,2.90918-1.00928,4.58594-1.00928c1.65186,0,3.1748.33643,4.56787,1.00928,1.39258.67285,2.58496,1.62305,3.57666,2.85059.99121,1.22754,1.76416,2.70898,2.31934,4.44434.5542,1.73535.83203,3.66504.83203,5.79004,0,2.12402-.27783,4.05371-.83203,5.78906-.55518,1.73535-1.32812,3.22266-2.31934,4.46191-.9917,1.23926-2.18408,2.19531-3.57666,2.86816-1.39307.67285-2.91602,1.00879-4.56787,1.00879-1.67676,0-3.20508-.33594-4.58594-1.00879s-2.57324-1.62891-3.57666-2.86816-1.78271-2.72656-2.33691-4.46191c-.55518-1.73535-.83252-3.66504-.83252-5.78906ZM33.49902,63.01465c0,1.18066.10596,2.25391.31836,3.22168.21289.96875.51367,1.80664.90332,2.51465s.85547,1.25684,1.39844,1.64648,1.15674.58398,1.8418.58398c.66064,0,1.26855-.19434,1.82324-.58398s1.021-.93848,1.39893-1.64648c.37744-.70801.67285-1.5459.88525-2.51465.2124-.96777.31885-2.04102.31885-3.22168,0-1.15723-.10645-2.22559-.31885-3.20508s-.50781-1.81738-.88525-2.51465c-.37793-.69531-.84424-1.23926-1.39893-1.62891s-1.1626-.58398-1.82324-.58398c-.68506,0-1.29883.19434-1.8418.58398s-1.00879.93359-1.39844,1.62891c-.38965.69727-.69043,1.53516-.90332,2.51465-.2124.97949-.31836,2.04785-.31836,3.20508Z"/>
      <path fill="#231815" d="M54.99316,76.39941l7.57812-8.71094h-.1416c-.66113.40137-1.2041.64355-1.62891.72559-.4248.08301-.80273.12402-1.13281.12402-1.29883,0-2.49707-.24805-3.59473-.74316-1.09766-.49609-2.04199-1.17383-2.83301-2.03613-.79102-.86133-1.41113-1.87109-1.85938-3.02832-.44824-1.15625-.67236-2.39551-.67236-3.71777,0-1.41602.25977-2.73242.77881-3.94824.51953-1.21582,1.26855-2.27832,2.24902-3.1875.97949-.9082,2.16504-1.62256,3.55859-2.14209,1.39258-.51904,2.96289-.7793,4.70996-.7793,1.77051,0,3.35156.26025,4.74512.7793,1.39258.51953,2.5791,1.22754,3.55859,2.12451.97949.89746,1.72949,1.94238,2.24902,3.13379.51855,1.19238.77832,2.46191.77832,3.80664,0,1.51172-.33594,3.14648-1.00879,4.90527s-1.70605,3.4873-3.09863,5.1875l-6.19727,7.50684h-8.03809ZM66.4668,58.87109c0-.61328-.11914-1.18652-.35449-1.71777-.23633-.53125-.55469-.99707-.95605-1.39844s-.86719-.71973-1.39844-.95605c-.53125-.23535-1.10449-.35449-1.71777-.35449-.61426,0-1.18652.11914-1.71777.35449-.53125.23633-.99707.55469-1.39844.95605s-.7207.86719-.95605,1.39844c-.23633.53125-.35449,1.10449-.35449,1.71777,0,.61426.11816,1.18652.35449,1.71777.23535.53125.55469.99707.95605,1.39844s.86719.7207,1.39844.95605c.53125.23633,1.10352.35449,1.71777.35449.61328,0,1.18652-.11816,1.71777-.35449.53125-.23535.99707-.55469,1.39844-.95605s.71973-.86719.95605-1.39844c.23535-.53125.35449-1.10352.35449-1.71777Z"/>
    </g>
  </symbol>
  <symbol id="M10" viewBox="0 0 100 100">
    <circle fill="#f62e36" cx="50" cy="50" r="50"/>
    <circle fill="#fff" cx="50" cy="50" r="37.8"/>
    <path fill="#231815" d="M34.45996,42.7002l4.21045-24.80029h6.38086l4.96631,13.22266,4.93359-13.22266h6.38086l4.20996,24.80029h-6.41406l-2.1377-14.2749-5.85449,14.2749h-2.56543l-5.55859-14.2749-2.1377,14.2749h-6.41406Z"/>
    <g>
      <path fill="#231815" d="M35.30469,55.57812h-3.89502v-5.87891h10.83594v26.7002h-6.94092v-20.82129Z"/>
      <path fill="#231815" d="M50.7085,63.01465c0-2.125.27734-4.05469.83252-5.79004.55371-1.73535,1.33301-3.2168,2.33691-4.44434,1.00293-1.22754,2.19531-2.17773,3.57617-2.85059s2.90918-1.00928,4.58594-1.00928c1.65234,0,3.1748.33643,4.56836,1.00928,1.39258.67285,2.58496,1.62305,3.57617,2.85059s1.76465,2.70898,2.31934,4.44434.83203,3.66504.83203,5.79004c0,2.12402-.27734,4.05371-.83203,5.78906s-1.32812,3.22266-2.31934,4.46191-2.18359,2.19531-3.57617,2.86816c-1.39355.67285-2.91602,1.00879-4.56836,1.00879-1.67676,0-3.20508-.33594-4.58594-1.00879s-2.57324-1.62891-3.57617-2.86816c-1.00391-1.23926-1.7832-2.72656-2.33691-4.46191-.55518-1.73535-.83252-3.66504-.83252-5.78906ZM57.57812,63.01465c0,1.18066.10645,2.25391.31836,3.22168.21289.96875.51367,1.80664.90332,2.51465s.85547,1.25684,1.39844,1.64648,1.15723.58398,1.8418.58398c.66113,0,1.26855-.19434,1.82324-.58398s1.02148-.93848,1.39941-1.64648c.37695-.70801.67285-1.5459.88477-2.51465.21289-.96777.31934-2.04102.31934-3.22168,0-1.15723-.10645-2.22559-.31934-3.20508-.21191-.97949-.50781-1.81738-.88477-2.51465-.37793-.69531-.84473-1.23926-1.39941-1.62891s-1.16211-.58398-1.82324-.58398c-.68457,0-1.29883.19434-1.8418.58398s-1.00879.93359-1.39844,1.62891c-.38965.69727-.69043,1.53516-.90332,2.51465-.21191.97949-.31836,2.04785-.31836,3.20508Z"/>
    </g>
  </symbol>
  <symbol id="M11" viewBox="0 0 100 100">
    <circle fill="#f62e36" cx="50" cy="50" r="50"/>
    <circle fill="#fff" cx="50" cy="50" r="37.8"/>
    <path fill="#231815" d="M34.45996,42.7002l4.21045-24.80029h6.38086l4.96631,13.22266,4.93359-13.22266h6.38086l4.20996,24.80029h-6.41406l-2.1377-14.2749-5.85449,14.2749h-2.56543l-5.55859-14.2749-2.1377,14.2749h-6.41406Z"/>
    <g>
      <path fill="#231815" d="M35.30469,55.57812h-3.89502v-5.87891h10.83594v26.7002h-6.94092v-20.82129Z"/>
      <path fill="#231815" d="M59.38379,55.57812h-3.89453v-5.87891h10.83594v26.7002h-6.94141v-20.82129Z"/>
    </g>
  </symbol>
  <symbol id="M12" viewBox="0 0 100 100">
    <circle fill="#f62e36" cx="50" cy="50" r="50"/>
    <circle fill="#fff" cx="50" cy="50" r="37.8"/>
    <path fill="#231815" d="M34.45996,42.7002l4.21045-24.80029h6.38086l4.96631,13.22266,4.93359-13.22266h6.38086l4.20996,24.80029h-6.41406l-2.1377-14.2749-5.85449,14.2749h-2.56543l-5.55859-14.2749-2.1377,14.2749h-6.41406Z"/>
    <g>
      <path fill="#231815" d="M35.30469,55.57812h-3.89502v-5.87891h10.83594v26.7002h-6.94092v-20.82129Z"/>
      <path fill="#231815" d="M72.48633,76.39941h-21.49414l6.62109-6.86914c1.74707-1.81836,3.11621-3.3584,4.1084-4.62109.99121-1.2627,1.72852-2.33105,2.21289-3.20508.4834-.87305.78418-1.58105.90332-2.125.11719-.54297.17676-1.00293.17676-1.38086,0-.40137-.06543-.79102-.19434-1.16895-.13086-.37695-.3252-.71289-.58496-1.00879-.25977-.29492-.57227-.53125-.93848-.70801-.36621-.17773-.79688-.26562-1.29199-.26562-.94434,0-1.68262.30664-2.21387.9209-.53027.61328-.7959,1.38086-.7959,2.30176,0,.25977.03516.63672.10547,1.13281h-7.57812c0-1.55859.25391-2.97461.76172-4.24902.50781-1.27539,1.22168-2.37305,2.14258-3.29395.9209-.92041,2.0127-1.62891,3.27539-2.12451,1.2627-.49609,2.64941-.74365,4.16113-.74365,1.4873,0,2.8623.23633,4.125.70801,1.2627.47266,2.35547,1.1333,3.27539,1.9834.9209.84961,1.64062,1.85938,2.16016,3.02734.51953,1.16895.7793,2.43848.7793,3.80664,0,1.46484-.31348,2.81543-.93848,4.05469-.62598,1.23926-1.62305,2.50879-2.99219,3.80664l-4.42676,4.14355h8.64062v5.87793Z"/>
    </g>
  </symbol>
  <symbol id="M13" viewBox="0 0 100 100">
    <circle fill="#f62e36" cx="50" cy="50" r="50"/>
    <circle fill="#fff" cx="50" cy="50" r="37.8"/>
    <path fill="#231815" d="M34.45996,42.7002l4.21045-24.80029h6.38086l4.96631,13.22266,4.93359-13.22266h6.38086l4.20996,24.80029h-6.41406l-2.1377-14.2749-5.85449,14.2749h-2.56543l-5.55859-14.2749-2.1377,14.2749h-6.41406Z"/>
    <g>
      <path fill="#231815" d="M35.30469,55.57812h-3.89502v-5.87891h10.83594v26.7002h-6.94092v-20.82129Z"/>
      <path fill="#231815" d="M60.58789,60.11035c.18945.02441.34863.03516.47852.03516h.33594c.87305,0,1.58203-.25879,2.125-.77832s.81445-1.19238.81445-2.01855c0-.80273-.25391-1.45215-.76172-1.94824-.50781-.49512-1.16309-.74316-1.96484-.74316-.84961,0-1.53516.2832-2.05371.84961-.51953.56641-.7793,1.29883-.7793,2.19531h-6.40918c.16504-1.39258.51367-2.63184,1.04395-3.71777.53125-1.08594,1.20996-2.00098,2.03613-2.74414.82617-.74414,1.79395-1.31055,2.9043-1.7002,1.10938-.38965,2.33691-.58447,3.68262-.58447,1.32227,0,2.51953.18311,3.59473.54883,1.07324.3667,1.99414.88525,2.76172,1.55811.7666.67285,1.35742,1.4873,1.77051,2.44336s.62012,2.02539.62012,3.20508c0,1.27441-.24316,2.31934-.72656,3.13379-.48438.81445-1.1748,1.51758-2.07129,2.10742,1.36914.4248,2.4375,1.18555,3.20508,2.28418.7666,1.09766,1.15039,2.44922,1.15039,4.05371,0,1.32324-.25977,2.52637-.7793,3.6123s-1.24512,2.01855-2.17773,2.79688c-.93262.7793-2.04199,1.38184-3.32812,1.80664-1.28711.4248-2.69727.63672-4.23242.63672-2.05371,0-3.90723-.40137-5.55957-1.20312-1.65234-.80273-2.97363-2.07715-3.96582-3.82422-.44824-.7793-.74902-1.55859-.90234-2.33789-.1543-.77832-.23047-1.56934-.23047-2.37207h6.87012c.04688,1.25195.41211,2.20117,1.09766,2.85059.68359.64941,1.60449.97363,2.76172.97363,1.22754,0,2.125-.33008,2.69141-.99121s.84961-1.47559.84961-2.44336c0-1.15625-.34277-2.03027-1.02637-2.62109-.68555-.58887-1.5-.88477-2.44336-.88477-.23633,0-.46094.01758-.67285.05273-.21289.03613-.44922.07715-.70898.12402v-4.35547Z"/>
    </g>
  </symbol>
  <symbol id="M14" viewBox="0 0 100 100">
    <circle fill="#f62e36" cx="50" cy="50" r="50"/>
    <circle fill="#fff" cx="50" cy="50" r="37.8"/>
    <path fill="#231815" d="M34.45996,42.7002l4.21045-24.80029h6.38086l4.96631,13.22266,4.93359-13.22266h6.38086l4.20996,24.80029h-6.41406l-2.1377-14.2749-5.85449,14.2749h-2.56543l-5.55859-14.2749-2.1377,14.2749h-6.41406Z"/>
    <g>
      <path fill="#231815" d="M35.30469,55.57812h-3.89502v-5.87891h10.83594v26.7002h-6.94092v-20.82129Z"/>
      <path fill="#231815" d="M69.83008,65.59961h3.22266v5.31152h-3.22266v5.48828h-6.44434v-5.48828h-12.88965v-4.46191l10.19824-16.75h9.13574v15.90039ZM63.38574,65.59961v-10.51758l-6.12598,10.51758h6.12598Z"/>
    </g>
  </symbol>
  <symbol id="M15" viewBox="0 0 100 100">
    <circle fill="#f62e36" cx="50" cy="50" r="50"/>
    <circle fill="#fff" cx="50" cy="50" r="37.8"/>
    <path fill="#231815" d="M34.45996,42.7002l4.21045-24.80029h6.38086l4.96631,13.22266,4.93359-13.22266h6.38086l4.20996,24.80029h-6.41406l-2.1377-14.2749-5.85449,14.2749h-2.56543l-5.55859-14.2749-2.1377,14.2749h-6.41406Z"/>
    <g>
      <path fill="#231815" d="M35.30469,55.57812h-3.89502v-5.87891h10.83594v26.7002h-6.94092v-20.82129Z"/>
      <path fill="#231815" d="M69.83008,55.57812h-9.24219l-.45996,2.93848c.4248-.04688.81445-.08789,1.16895-.12402.35352-.03516.71973-.05273,1.09766-.05273,1.3457,0,2.59668.23633,3.75293.70801,1.15625.47266,2.14844,1.12207,2.97461,1.94824s1.47559,1.81738,1.94824,2.97461c.47168,1.15625.70801,2.41992.70801,3.78906,0,1.43945-.26562,2.73828-.79688,3.89453-.53125,1.15723-1.28125,2.14258-2.24902,2.95703s-2.14844,1.44043-3.54102,1.87695-2.93848.6543-4.63867.6543c-1.60547,0-3.13379-.19434-4.58594-.58398-1.45117-.38965-2.81543-.98535-4.08984-1.78809l1.02734-6.51562c1.17969,1.01562,2.38379,1.78809,3.61133,2.31934s2.39648.79688,3.50586.79688c1.41699,0,2.53711-.38281,3.36426-1.15039.82617-.76758,1.23926-1.71777,1.23926-2.85059,0-1.32227-.55469-2.39062-1.66406-3.20508-1.11035-.81445-2.56152-1.22168-4.35547-1.22168-.80273,0-1.62891.08887-2.47949.26562-.84961.17676-1.6875.45508-2.51367.83203l2.23047-14.3418h13.9873v5.87891Z"/>
    </g>
  </symbol>
  <symbol id="M16" viewBox="0 0 100 100">
    <circle fill="#f62e36" cx="50" cy="50" r="50"/>
    <circle fill="#fff" cx="50" cy="50" r="37.8"/>
    <path fill="#231815" d="M34.45996,42.7002l4.21045-24.80029h6.38086l4.96631,13.22266,4.93359-13.22266h6.38086l4.20996,24.80029h-6.41406l-2.1377-14.2749-5.85449,14.2749h-2.56543l-5.55859-14.2749-2.1377,14.2749h-6.41406Z"/>
    <g>
      <path fill="#231815" d="M35.30469,55.57812h-3.89502v-5.87891h10.83594v26.7002h-6.94092v-20.82129Z"/>
      <path fill="#231815" d="M69.08691,49.69922l-7.57812,8.71191h.1416c.66113-.40137,1.2041-.64355,1.62891-.72656.4248-.08203.80273-.12402,1.13379-.12402,1.29785,0,2.49023.24805,3.57617.74414,1.08594.49512,2.03027,1.1748,2.83301,2.03613.80176.8623,1.42773,1.87109,1.87695,3.02734.44824,1.15723.67285,2.39648.67285,3.71875,0,1.41602-.26074,2.73242-.7793,3.94824-.51953,1.21582-1.26953,2.27832-2.24902,3.18652-.97949.90918-2.16602,1.62305-3.55859,2.14258-1.39355.51855-2.96289.77832-4.70996.77832-1.77051,0-3.35254-.25977-4.74512-.77832-1.39258-.51953-2.5791-1.22754-3.55859-2.125-.97949-.89648-1.72949-1.94141-2.24902-3.13379-.51953-1.19141-.77832-2.46094-.77832-3.80664,0-1.51074.33594-3.14551,1.00879-4.9043s1.70508-3.48828,3.09863-5.1875l6.19727-7.50781h8.03809ZM57.61328,67.22852c0,.61426.11816,1.18555.35449,1.7168.23535.53125.55469.99805.95605,1.39941s.86719.71973,1.39844.95605,1.10352.35352,1.71777.35352c.61328,0,1.18652-.11719,1.71777-.35352s.99707-.55469,1.39844-.95605.71973-.86816.95605-1.39941c.23535-.53125.35449-1.10254.35449-1.7168s-.11914-1.18652-.35449-1.71777c-.23633-.53125-.55469-.99707-.95605-1.39844s-.86719-.71973-1.39844-.95605-1.10449-.35449-1.71777-.35449c-.61426,0-1.18652.11816-1.71777.35449s-.99707.55469-1.39844.95605-.7207.86719-.95605,1.39844c-.23633.53125-.35449,1.10352-.35449,1.71777Z"/>
    </g>
  </symbol>
  <symbol id="M17" viewBox="0 0 100 100">
    <circle fill="#f62e36" cx="50" cy="50" r="50"/>
    <circle fill="#fff" cx="50" cy="50" r="37.8"/>
    <path fill="#231815" d="M34.45996,42.7002l4.21045-24.80029h6.38086l4.96631,13.22266,4.93359-13.22266h6.38086l4.20996,24.80029h-6.41406l-2.1377-14.2749-5.85449,14.2749h-2.56543l-5.55859-14.2749-2.1377,14.2749h-6.41406Z"/>
    <g>
      <path fill="#231815" d="M35.30469,55.57812h-3.89502v-5.87891h10.83594v26.7002h-6.94092v-20.82129Z"/>
      <path fill="#231815" d="M63.9873,55.57812h-11.1543v-5.87891h21.91992l-15.29785,26.7002h-7.64844l12.18066-20.82129Z"/>
    </g>
  </symbol>
  <symbol id="M18" viewBox="0 0 100 100">
    <circle fill="#f62e36" cx="50" cy="50" r="50"/>
    <circle fill="#fff" cx="50" cy="50" r="37.8"/>
    <path fill="#231815" d="M34.45996,42.7002l4.21045-24.80029h6.38086l4.96631,13.22266,4.93359-13.22266h6.38086l4.20996,24.80029h-6.41406l-2.1377-14.2749-5.85449,14.2749h-2.56543l-5.55859-14.2749-2.1377,14.2749h-6.41406Z"/>
    <g>
      <path fill="#231815" d="M35.30469,55.57812h-3.89502v-5.87891h10.83594v26.7002h-6.94092v-20.82129Z"/>
      <path fill="#231815" d="M57.11816,62.30566c-2.78613-1.15625-4.17871-3.11621-4.17871-5.87793,0-1.13281.22363-2.1543.67285-3.06348.44824-.9082,1.06738-1.69336,1.85938-2.35449.79004-.66064,1.74609-1.16895,2.86816-1.52295,1.12109-.354,2.35449-.53125,3.7002-.53125s2.5791.17725,3.7002.53125,2.07715.8623,2.86816,1.52295c.79102.66113,1.41113,1.44629,1.85938,2.35449.44824.90918.67285,1.93066.67285,3.06348,0,.70801-.07031,1.33984-.21191,1.89453s-.38477,1.0625-.72656,1.52246c-.34277.46094-.79102.8916-1.3457,1.29297s-1.24512.79102-2.07129,1.16797c3.63477,1.41699,5.45312,3.70703,5.45312,6.87012,0,1.13281-.25391,2.18359-.76074,3.15137-.50879.96875-1.2168,1.80566-2.125,2.51465-.90918.70801-1.9834,1.2627-3.22266,1.66406s-2.60254.60156-4.08984.60156c-1.44043,0-2.7793-.19434-4.01953-.58398-1.23926-.38965-2.31934-.93848-3.24023-1.64648-.91992-.70801-1.64062-1.5459-2.15918-2.51465-.51953-.9668-.7793-2.0293-.7793-3.18652,0-3.23438,1.75781-5.52441,5.27637-6.87012ZM58.85352,68.32617c0,.44824.08203.87305.24707,1.27441s.38965.75.67285,1.04492.62012.53125,1.00977.70801.80859.26562,1.25684.26562c.4248,0,.83203-.08887,1.22168-.26562s.73145-.41309,1.02734-.70801c.29492-.29492.52441-.6377.69043-1.02734.16504-.38965.24805-.80859.24805-1.25684,0-.89648-.31348-1.6582-.93848-2.28418-.62598-.625-1.37598-.93848-2.24902-.93848-.89746,0-1.65234.31348-2.2666.93848-.61426.62598-.91992,1.37598-.91992,2.24902ZM59.10059,56.49902c0,.82617.2832,1.52832.85059,2.10645.56641.5791,1.2627.86719,2.08887.86719.4248,0,.81445-.08203,1.16895-.24707.35352-.16504.66016-.38379.91992-.65527s.46582-.58496.62012-.93848c.15332-.35449.23047-.71973.23047-1.09766,0-.80273-.2832-1.49316-.85059-2.07227-.56641-.57812-1.2627-.86719-2.08887-.86719s-1.52246.2832-2.08887.84961c-.56738.56738-.85059,1.25195-.85059,2.05469Z"/>
    </g>
  </symbol>
  <symbol id="M19" viewBox="0 0 100 100">
    <circle fill="#f62e36" cx="50" cy="50" r="50"/>
    <circle fill="#fff" cx="50" cy="50" r="37.8"/>
    <path fill="#231815" d="M34.45996,42.7002l4.21045-24.80029h6.38086l4.96631,13.22266,4.93359-13.22266h6.38086l4.20996,24.80029h-6.41406l-2.1377-14.2749-5.85449,14.2749h-2.56543l-5.55859-14.2749-2.1377,14.2749h-6.41406Z"/>
    <g>
      <path fill="#231815" d="M35.30469,55.57812h-3.89502v-5.87891h10.83594v26.7002h-6.94092v-20.82129Z"/>
      <path fill="#231815" d="M54.99316,76.39941l7.57812-8.71094h-.1416c-.66113.40137-1.2041.64355-1.62891.72559-.4248.08301-.80273.12402-1.13281.12402-1.29883,0-2.49707-.24805-3.59473-.74316-1.09766-.49609-2.04199-1.17383-2.83301-2.03613-.79102-.86133-1.41113-1.87109-1.85938-3.02832-.44824-1.15625-.67236-2.39551-.67236-3.71777,0-1.41602.25977-2.73242.77881-3.94824.51953-1.21582,1.26855-2.27832,2.24902-3.1875.97949-.9082,2.16504-1.62256,3.55859-2.14209,1.39258-.51904,2.96289-.7793,4.70996-.7793,1.77051,0,3.35156.26025,4.74512.7793,1.39258.51953,2.5791,1.22754,3.55859,2.12451.97949.89746,1.72949,1.94238,2.24902,3.13379.51855,1.19238.77832,2.46191.77832,3.80664,0,1.51172-.33594,3.14648-1.00879,4.90527s-1.70605,3.4873-3.09863,5.1875l-6.19727,7.50684h-8.03809ZM66.4668,58.87109c0-.61328-.11914-1.18652-.35449-1.71777-.23633-.53125-.55469-.99707-.95605-1.39844s-.86719-.71973-1.39844-.95605c-.53125-.23535-1.10449-.35449-1.71777-.35449-.61426,0-1.18652.11914-1.71777.35449-.53125.23633-.99707.55469-1.39844.95605s-.7207.86719-.95605,1.39844c-.23633.53125-.35449,1.10449-.35449,1.71777,0,.61426.11816,1.18652.35449,1.71777.23535.53125.55469.99707.95605,1.39844s.86719.7207,1.39844.95605c.53125.23633,1.10352.35449,1.71777.35449.61328,0,1.18652-.11816,1.71777-.35449.53125-.23535.99707-.55469,1.39844-.95605s.71973-.86719.95605-1.39844c.23535-.53125.35449-1.10352.35449-1.71777Z"/>
    </g>
  </symbol>
  <symbol id="M20" viewBox="0 0 100 100">
    <circle fill="#f62e36" cx="50" cy="50" r="50"/>
    <circle fill="#fff" cx="50" cy="50" r="37.8"/>
    <path fill="#231815" d="M34.45996,42.7002l4.21045-24.80029h6.38086l4.96631,13.22266,4.93359-13.22266h6.38086l4.20996,24.80029h-6.41406l-2.1377-14.2749-5.85449,14.2749h-2.56543l-5.55859-14.2749-2.1377,14.2749h-6.41406Z"/>
    <g>
      <path fill="#231815" d="M48.40723,76.39941h-21.49463l6.62158-6.86914c1.74707-1.81836,3.11621-3.3584,4.10791-4.62109.99121-1.2627,1.729-2.33105,2.21289-3.20508.48389-.87305.78467-1.58105.90332-2.125.11768-.54297.17676-1.00293.17676-1.38086,0-.40137-.06494-.79102-.19434-1.16895-.13037-.37695-.3252-.71289-.58447-1.00879-.26025-.29492-.57275-.53125-.93848-.70801-.36621-.17773-.79688-.26562-1.29248-.26562-.94434,0-1.68213.30664-2.21338.9209-.53076.61328-.79639,1.38086-.79639,2.30176,0,.25977.03516.63672.10596,1.13281h-7.57812c0-1.55859.25342-2.97461.76172-4.24902.50732-1.27539,1.22168-2.37305,2.14209-3.29395.9209-.92041,2.0127-1.62891,3.27588-2.12451,1.26221-.49609,2.64941-.74365,4.16064-.74365,1.4873,0,2.8623.23633,4.12549.70801,1.2627.47266,2.35498,1.1333,3.27539,1.9834.9209.84961,1.64062,1.85938,2.16016,3.02734.51904,1.16895.77881,2.43848.77881,3.80664,0,1.46484-.31299,2.81543-.93799,4.05469-.62598,1.23926-1.62354,2.50879-2.99268,3.80664l-4.42627,4.14355h8.64062v5.87793Z"/>
      <path fill="#231815" d="M50.7085,63.01465c0-2.125.27734-4.05469.83252-5.79004.55371-1.73535,1.33301-3.2168,2.33691-4.44434,1.00293-1.22754,2.19531-2.17773,3.57617-2.85059s2.90918-1.00928,4.58594-1.00928c1.65234,0,3.1748.33643,4.56836,1.00928,1.39258.67285,2.58496,1.62305,3.57617,2.85059s1.76465,2.70898,2.31934,4.44434.83203,3.66504.83203,5.79004c0,2.12402-.27734,4.05371-.83203,5.78906s-1.32812,3.22266-2.31934,4.46191-2.18359,2.19531-3.57617,2.86816c-1.39355.67285-2.91602,1.00879-4.56836,1.00879-1.67676,0-3.20508-.33594-4.58594-1.00879s-2.57324-1.62891-3.57617-2.86816c-1.00391-1.23926-1.7832-2.72656-2.33691-4.46191-.55518-1.73535-.83252-3.66504-.83252-5.78906ZM57.57812,63.01465c0,1.18066.10645,2.25391.31836,3.22168.21289.96875.51367,1.80664.90332,2.51465s.85547,1.25684,1.39844,1.64648,1.15723.58398,1.8418.58398c.66113,0,1.26855-.19434,1.82324-.58398s1.02148-.93848,1.39941-1.64648c.37695-.70801.67285-1.5459.88477-2.51465.21289-.96777.31934-2.04102.31934-3.22168,0-1.15723-.10645-2.22559-.31934-3.20508-.21191-.97949-.50781-1.81738-.88477-2.51465-.37793-.69531-.84473-1.23926-1.39941-1.62891s-1.16211-.58398-1.82324-.58398c-.68457,0-1.29883.19434-1.8418.58398s-1.00879.93359-1.39844,1.62891c-.38965.69727-.69043,1.53516-.90332,2.51465-.21191.97949-.31836,2.04785-.31836,3.20508Z"/>
    </g>
  </symbol>
  <symbol id="M21" viewBox="0 0 100 100">
    <circle fill="#f62e36" cx="50" cy="50" r="50"/>
    <circle fill="#fff" cx="50" cy="50" r="37.8"/>
    <path fill="#231815" d="M34.45996,42.7002l4.21045-24.80029h6.38086l4.96631,13.22266,4.93359-13.22266h6.38086l4.20996,24.80029h-6.41406l-2.1377-14.2749-5.85449,14.2749h-2.56543l-5.55859-14.2749-2.1377,14.2749h-6.41406Z"/>
    <g>
      <path fill="#231815" d="M48.40723,76.39941h-21.49463l6.62158-6.86914c1.74707-1.81836,3.11621-3.3584,4.10791-4.62109.99121-1.2627,1.729-2.33105,2.21289-3.20508.48389-.87305.78467-1.58105.90332-2.125.11768-.54297.17676-1.00293.17676-1.38086,0-.40137-.06494-.79102-.19434-1.16895-.13037-.37695-.3252-.71289-.58447-1.00879-.26025-.29492-.57275-.53125-.93848-.70801-.36621-.17773-.79688-.26562-1.29248-.26562-.94434,0-1.68213.30664-2.21338.9209-.53076.61328-.79639,1.38086-.79639,2.30176,0,.25977.03516.63672.10596,1.13281h-7.57812c0-1.55859.25342-2.97461.76172-4.24902.50732-1.27539,1.22168-2.37305,2.14209-3.29395.9209-.92041,2.0127-1.62891,3.27588-2.12451,1.26221-.49609,2.64941-.74365,4.16064-.74365,1.4873,0,2.8623.23633,4.12549.70801,1.2627.47266,2.35498,1.1333,3.27539,1.9834.9209.84961,1.64062,1.85938,2.16016,3.02734.51904,1.16895.77881,2.43848.77881,3.80664,0,1.46484-.31299,2.81543-.93799,4.05469-.62598,1.23926-1.62354,2.50879-2.99268,3.80664l-4.42627,4.14355h8.64062v5.87793Z"/>
      <path fill="#231815" d="M59.38379,55.57812h-3.89453v-5.87891h10.83594v26.7002h-6.94141v-20.82129Z"/>
    </g>
  </symbol>
  <symbol id="M22" viewBox="0 0 100 100">
    <circle fill="#f62e36" cx="50" cy="50" r="50"/>
    <circle fill="#fff" cx="50" cy="50" r="37.8"/>
    <path fill="#231815" d="M34.45996,42.7002l4.21045-24.80029h6.38086l4.96631,13.22266,4.93359-13.22266h6.38086l4.20996,24.80029h-6.41406l-2.1377-14.2749-5.85449,14.2749h-2.56543l-5.55859-14.2749-2.1377,14.2749h-6.41406Z"/>
    <g>
      <path fill="#231815" d="M48.40723,76.39941h-21.49463l6.62158-6.86914c1.74707-1.81836,3.11621-3.3584,4.10791-4.62109.99121-1.2627,1.729-2.33105,2.21289-3.20508.48389-.87305.78467-1.58105.90332-2.125.11768-.54297.17676-1.00293.17676-1.38086,0-.40137-.06494-.79102-.19434-1.16895-.13037-.37695-.3252-.71289-.58447-1.00879-.26025-.29492-.57275-.53125-.93848-.70801-.36621-.17773-.79688-.26562-1.29248-.26562-.94434,0-1.68213.30664-2.21338.9209-.53076.61328-.79639,1.38086-.79639,2.30176,0,.25977.03516.63672.10596,1.13281h-7.57812c0-1.55859.25342-2.97461.76172-4.24902.50732-1.27539,1.22168-2.37305,2.14209-3.29395.9209-.92041,2.0127-1.62891,3.27588-2.12451,1.26221-.49609,2.64941-.74365,4.16064-.74365,1.4873,0,2.8623.23633,4.12549.70801,1.2627.47266,2.35498,1.1333,3.27539,1.9834.9209.84961,1.64062,1.85938,2.16016,3.02734.51904,1.16895.77881,2.43848.77881,3.80664,0,1.46484-.31299,2.81543-.93799,4.05469-.62598,1.23926-1.62354,2.50879-2.99268,3.80664l-4.42627,4.14355h8.64062v5.87793Z"/>
      <path fill="#231815" d="M72.48633,76.39941h-21.49414l6.62109-6.86914c1.74707-1.81836,3.11621-3.3584,4.1084-4.62109.99121-1.2627,1.72852-2.33105,2.21289-3.20508.4834-.87305.78418-1.58105.90332-2.125.11719-.54297.17676-1.00293.17676-1.38086,0-.40137-.06543-.79102-.19434-1.16895-.13086-.37695-.3252-.71289-.58496-1.00879-.25977-.29492-.57227-.53125-.93848-.70801-.36621-.17773-.79688-.26562-1.29199-.26562-.94434,0-1.68262.30664-2.21387.9209-.53027.61328-.7959,1.38086-.7959,2.30176,0,.25977.03516.63672.10547,1.13281h-7.57812c0-1.55859.25391-2.97461.76172-4.24902.50781-1.27539,1.22168-2.37305,2.14258-3.29395.9209-.92041,2.0127-1.62891,3.27539-2.12451,1.2627-.49609,2.64941-.74365,4.16113-.74365,1.4873,0,2.8623.23633,4.125.70801,1.2627.47266,2.35547,1.1333,3.27539,1.9834.9209.84961,1.64062,1.85938,2.16016,3.02734.51953,1.16895.7793,2.43848.7793,3.80664,0,1.46484-.31348,2.81543-.93848,4.05469-.62598,1.23926-1.62305,2.50879-2.99219,3.80664l-4.42676,4.14355h8.64062v5.87793Z"/>
    </g>
  </symbol>
  <symbol id="M23" viewBox="0 0 100 100">
    <circle fill="#f62e36" cx="50" cy="50" r="50"/>
    <circle fill="#fff" cx="50" cy="50" r="37.8"/>
    <path fill="#231815" d="M34.45996,42.7002l4.21045-24.80029h6.38086l4.96631,13.22266,4.93359-13.22266h6.38086l4.20996,24.80029h-6.41406l-2.1377-14.2749-5.85449,14.2749h-2.56543l-5.55859-14.2749-2.1377,14.2749h-6.41406Z"/>
    <g>
      <path fill="#231815" d="M48.40723,76.39941h-21.49463l6.62158-6.86914c1.74707-1.81836,3.11621-3.3584,4.10791-4.62109.99121-1.2627,1.729-2.33105,2.21289-3.20508.48389-.87305.78467-1.58105.90332-2.125.11768-.54297.17676-1.00293.17676-1.38086,0-.40137-.06494-.79102-.19434-1.16895-.13037-.37695-.3252-.71289-.58447-1.00879-.26025-.29492-.57275-.53125-.93848-.70801-.36621-.17773-.79688-.26562-1.29248-.26562-.94434,0-1.68213.30664-2.21338.9209-.53076.61328-.79639,1.38086-.79639,2.30176,0,.25977.03516.63672.10596,1.13281h-7.57812c0-1.55859.25342-2.97461.76172-4.24902.50732-1.27539,1.22168-2.37305,2.14209-3.29395.9209-.92041,2.0127-1.62891,3.27588-2.12451,1.26221-.49609,2.64941-.74365,4.16064-.74365,1.4873,0,2.8623.23633,4.12549.70801,1.2627.47266,2.35498,1.1333,3.27539,1.9834.9209.84961,1.64062,1.85938,2.16016,3.02734.51904,1.16895.77881,2.43848.77881,3.80664,0,1.46484-.31299,2.81543-.93799,4.05469-.62598,1.23926-1.62354,2.50879-2.99268,3.80664l-4.42627,4.14355h8.64062v5.87793Z"/>
      <path fill="#231815" d="M60.58789,60.11035c.18945.02441.34863.03516.47852.03516h.33594c.87305,0,1.58203-.25879,2.125-.77832s.81445-1.19238.81445-2.01855c0-.80273-.25391-1.45215-.76172-1.94824-.50781-.49512-1.16309-.74316-1.96484-.74316-.84961,0-1.53516.2832-2.05371.84961-.51953.56641-.7793,1.29883-.7793,2.19531h-6.40918c.16504-1.39258.51367-2.63184,1.04395-3.71777.53125-1.08594,1.20996-2.00098,2.03613-2.74414.82617-.74414,1.79395-1.31055,2.9043-1.7002,1.10938-.38965,2.33691-.58447,3.68262-.58447,1.32227,0,2.51953.18311,3.59473.54883,1.07324.3667,1.99414.88525,2.76172,1.55811.7666.67285,1.35742,1.4873,1.77051,2.44336s.62012,2.02539.62012,3.20508c0,1.27441-.24316,2.31934-.72656,3.13379-.48438.81445-1.1748,1.51758-2.07129,2.10742,1.36914.4248,2.4375,1.18555,3.20508,2.28418.7666,1.09766,1.15039,2.44922,1.15039,4.05371,0,1.32324-.25977,2.52637-.7793,3.6123s-1.24512,2.01855-2.17773,2.79688c-.93262.7793-2.04199,1.38184-3.32812,1.80664-1.28711.4248-2.69727.63672-4.23242.63672-2.05371,0-3.90723-.40137-5.55957-1.20312-1.65234-.80273-2.97363-2.07715-3.96582-3.82422-.44824-.7793-.74902-1.55859-.90234-2.33789-.1543-.77832-.23047-1.56934-.23047-2.37207h6.87012c.04688,1.25195.41211,2.20117,1.09766,2.85059.68359.64941,1.60449.97363,2.76172.97363,1.22754,0,2.125-.33008,2.69141-.99121s.84961-1.47559.84961-2.44336c0-1.15625-.34277-2.03027-1.02637-2.62109-.68555-.58887-1.5-.88477-2.44336-.88477-.23633,0-.46094.01758-.67285.05273-.21289.03613-.44922.07715-.70898.12402v-4.35547Z"/>
    </g>
  </symbol>
  <symbol id="M24" viewBox="0 0 100 100">
    <circle fill="#f62e36" cx="50" cy="50" r="50"/>
    <circle fill="#fff" cx="50" cy="50" r="37.8"/>
    <path fill="#231815" d="M34.45996,42.7002l4.21045-24.80029h6.38086l4.96631,13.22266,4.93359-13.22266h6.38086l4.20996,24.80029h-6.41406l-2.1377-14.2749-5.85449,14.2749h-2.56543l-5.55859-14.2749-2.1377,14.2749h-6.41406Z"/>
    <g>
      <path fill="#231815" d="M48.40723,76.39941h-21.49463l6.62158-6.86914c1.74707-1.81836,3.11621-3.3584,4.10791-4.62109.99121-1.2627,1.729-2.33105,2.21289-3.20508.48389-.87305.78467-1.58105.90332-2.125.11768-.54297.17676-1.00293.17676-1.38086,0-.40137-.06494-.79102-.19434-1.16895-.13037-.37695-.3252-.71289-.58447-1.00879-.26025-.29492-.57275-.53125-.93848-.70801-.36621-.17773-.79688-.26562-1.29248-.26562-.94434,0-1.68213.30664-2.21338.9209-.53076.61328-.79639,1.38086-.79639,2.30176,0,.25977.03516.63672.10596,1.13281h-7.57812c0-1.55859.25342-2.97461.76172-4.24902.50732-1.27539,1.22168-2.37305,2.14209-3.29395.9209-.92041,2.0127-1.62891,3.27588-2.12451,1.26221-.49609,2.64941-.74365,4.16064-.74365,1.4873,0,2.8623.23633,4.12549.70801,1.2627.47266,2.35498,1.1333,3.27539,1.9834.9209.84961,1.64062,1.85938,2.16016,3.02734.51904,1.16895.77881,2.43848.77881,3.80664,0,1.46484-.31299,2.81543-.93799,4.05469-.62598,1.23926-1.62354,2.50879-2.99268,3.80664l-4.42627,4.14355h8.64062v5.87793Z"/>
      <path fill="#231815" d="M69.83008,65.59961h3.22266v5.31152h-3.22266v5.48828h-6.44434v-5.48828h-12.88965v-4.46191l10.19824-16.75h9.13574v15.90039ZM63.38574,65.59961v-10.51758l-6.12598,10.51758h6.12598Z"/>
    </g>
  </symbol>
  <symbol id="M25" viewBox="0 0 100 100">
    <circle fill="#f62e36" cx="50" cy="50" r="50"/>
    <circle fill="#fff" cx="50" cy="50" r="37.8"/>
    <path fill="#231815" d="M34.45996,42.7002l4.21045-24.80029h6.38086l4.96631,13.22266,4.93359-13.22266h6.38086l4.20996,24.80029h-6.41406l-2.1377-14.2749-5.85449,14.2749h-2.56543l-5.55859-14.2749-2.1377,14.2749h-6.41406Z"/>
    <g>
      <path fill="#231815" d="M48.40723,76.39941h-21.49463l6.62158-6.86914c1.74707-1.81836,3.11621-3.3584,4.10791-4.62109.99121-1.2627,1.729-2.33105,2.21289-3.20508.48389-.87305.78467-1.58105.90332-2.125.11768-.54297.17676-1.00293.17676-1.38086,0-.40137-.06494-.79102-.19434-1.16895-.13037-.37695-.3252-.71289-.58447-1.00879-.26025-.29492-.57275-.53125-.93848-.70801-.36621-.17773-.79688-.26562-1.29248-.26562-.94434,0-1.68213.30664-2.21338.9209-.53076.61328-.79639,1.38086-.79639,2.30176,0,.25977.03516.63672.10596,1.13281h-7.57812c0-1.55859.25342-2.97461.76172-4.24902.50732-1.27539,1.22168-2.37305,2.14209-3.29395.9209-.92041,2.0127-1.62891,3.27588-2.12451,1.26221-.49609,2.64941-.74365,4.16064-.74365,1.4873,0,2.8623.23633,4.12549.70801,1.2627.47266,2.35498,1.1333,3.27539,1.9834.9209.84961,1.64062,1.85938,2.16016,3.02734.51904,1.16895.77881,2.43848.77881,3.80664,0,1.46484-.31299,2.81543-.93799,4.05469-.62598,1.23926-1.62354,2.50879-2.99268,3.80664l-4.42627,4.14355h8.64062v5.87793Z"/>
      <path fill="#231815" d="M69.83008,55.57812h-9.24219l-.45996,2.93848c.4248-.04688.81445-.08789,1.16895-.12402.35352-.03516.71973-.05273,1.09766-.05273,1.3457,0,2.59668.23633,3.75293.70801,1.15625.47266,2.14844,1.12207,2.97461,1.94824s1.47559,1.81738,1.94824,2.97461c.47168,1.15625.70801,2.41992.70801,3.78906,0,1.43945-.26562,2.73828-.79688,3.89453-.53125,1.15723-1.28125,2.14258-2.24902,2.95703s-2.14844,1.44043-3.54102,1.87695-2.93848.6543-4.63867.6543c-1.60547,0-3.13379-.19434-4.58594-.58398-1.45117-.38965-2.81543-.98535-4.08984-1.78809l1.02734-6.51562c1.17969,1.01562,2.38379,1.78809,3.61133,2.31934s2.39648.79688,3.50586.79688c1.41699,0,2.53711-.38281,3.36426-1.15039.82617-.76758,1.23926-1.71777,1.23926-2.85059,0-1.32227-.55469-2.39062-1.66406-3.20508-1.11035-.81445-2.56152-1.22168-4.35547-1.22168-.80273,0-1.62891.08887-2.47949.26562-.84961.17676-1.6875.45508-2.51367.83203l2.23047-14.3418h13.9873v5.87891Z"/>
    </g>
  </symbol>
  <symbol id="Mb03" viewBox="0 0 100 100">
    <circle fill="#f62e36" cx="50" cy="50" r="50"/>
    <circle fill="#fff" cx="50" cy="50" r="37.8"/>
    <g>
      <path fill="#231815" d="M25.63867,42.7002l3.78906-22.31982h5.74268l4.47021,11.8999,4.44043-11.8999h5.74268l3.78857,22.31982h-5.77197l-1.92432-12.84717-5.26904,12.84717h-2.30908l-5.00244-12.84717-1.92432,12.84717h-5.77246Z"/>
      <path fill="#231815" d="M62.1377,18.13037v10.89355c1.2627-1.32178,2.8418-1.9834,4.73633-1.9834,1.125,0,2.15527.2124,3.09277.63672s1.73633.99658,2.39844,1.7168c.66113.7207,1.17871,1.56885,1.55371,2.5459.375.97656.5625,2.01807.5625,3.12305,0,1.12451-.19238,2.18066-.57715,3.16748-.38477.9873-.92285,1.8457-1.61328,2.5752-.69141.73047-1.50488,1.30762-2.44238,1.73145-.9375.4248-1.94922.63672-3.03418.63672-1.97363,0-3.53223-.71973-4.67676-2.16113v1.6875h-5.3584v-24.56982h5.3584ZM68.88672,35.15186c0-.47363-.08887-.92236-.2666-1.34717-.17773-.42432-.4248-.79395-.74023-1.10986-.31543-.31543-.68066-.56738-1.09473-.75488-.41504-.1875-.86914-.28125-1.3623-.28125-.47363,0-.91699.08887-1.33203.26611-.41406.17773-.77441.4248-1.08008.74023-.30664.31592-.55273.68604-.74023,1.10986-.1875.4248-.28125.87354-.28125,1.34717s.08887.91748.2666,1.33203.42383.7749.74023,1.08057c.31543.30615.68555.55273,1.11035.74023.42383.1875.87305.28076,1.34668.28076s.91699-.08838,1.33203-.26611c.41406-.17773.77441-.42432,1.08008-.74023.30566-.31543.55273-.68066.74023-1.09521s.28125-.84814.28125-1.30225Z"/>
    </g>
    <g>
      <path fill="#231815" d="M26.62891,63.01465c0-2.125.27734-4.05469.83252-5.79004.5542-1.73535,1.3335-3.2168,2.33691-4.44434s2.1958-2.17773,3.57666-2.85059,2.90918-1.00928,4.58594-1.00928c1.65186,0,3.1748.33643,4.56787,1.00928,1.39258.67285,2.58496,1.62305,3.57666,2.85059.99121,1.22754,1.76416,2.70898,2.31934,4.44434.5542,1.73535.83203,3.66504.83203,5.79004,0,2.12402-.27783,4.05371-.83203,5.78906-.55518,1.73535-1.32812,3.22266-2.31934,4.46191-.9917,1.23926-2.18408,2.19531-3.57666,2.86816-1.39307.67285-2.91602,1.00879-4.56787,1.00879-1.67676,0-3.20508-.33594-4.58594-1.00879s-2.57324-1.62891-3.57666-2.86816-1.78271-2.72656-2.33691-4.46191c-.55518-1.73535-.83252-3.66504-.83252-5.78906ZM33.49902,63.01465c0,1.18066.10596,2.25391.31836,3.22168.21289.96875.51367,1.80664.90332,2.51465s.85547,1.25684,1.39844,1.64648,1.15674.58398,1.8418.58398c.66064,0,1.26855-.19434,1.82324-.58398s1.021-.93848,1.39893-1.64648c.37744-.70801.67285-1.5459.88525-2.51465.2124-.96777.31885-2.04102.31885-3.22168,0-1.15723-.10645-2.22559-.31885-3.20508s-.50781-1.81738-.88525-2.51465c-.37793-.69531-.84424-1.23926-1.39893-1.62891s-1.1626-.58398-1.82324-.58398c-.68506,0-1.29883.19434-1.8418.58398s-1.00879.93359-1.39844,1.62891c-.38965.69727-.69043,1.53516-.90332,2.51465-.2124.97949-.31836,2.04785-.31836,3.20508Z"/>
      <path fill="#231815" d="M60.58789,60.11035c.18945.02441.34863.03516.47852.03516h.33594c.87305,0,1.58203-.25879,2.125-.77832s.81445-1.19238.81445-2.01855c0-.80273-.25391-1.45215-.76172-1.94824-.50781-.49512-1.16309-.74316-1.96484-.74316-.84961,0-1.53516.2832-2.05371.84961-.51953.56641-.7793,1.29883-.7793,2.19531h-6.40918c.16504-1.39258.51367-2.63184,1.04395-3.71777.53125-1.08594,1.20996-2.00098,2.03613-2.74414.82617-.74414,1.79395-1.31055,2.9043-1.7002,1.10938-.38965,2.33691-.58447,3.68262-.58447,1.32227,0,2.51953.18311,3.59473.54883,1.07324.3667,1.99414.88525,2.76172,1.55811.7666.67285,1.35742,1.4873,1.77051,2.44336s.62012,2.02539.62012,3.20508c0,1.27441-.24316,2.31934-.72656,3.13379-.48438.81445-1.1748,1.51758-2.07129,2.10742,1.36914.4248,2.4375,1.18555,3.20508,2.28418.7666,1.09766,1.15039,2.44922,1.15039,4.05371,0,1.32324-.25977,2.52637-.7793,3.6123s-1.24512,2.01855-2.17773,2.79688c-.93262.7793-2.04199,1.38184-3.32812,1.80664-1.28711.4248-2.69727.63672-4.23242.63672-2.05371,0-3.90723-.40137-5.55957-1.20312-1.65234-.80273-2.97363-2.07715-3.96582-3.82422-.44824-.7793-.74902-1.55859-.90234-2.33789-.1543-.77832-.23047-1.56934-.23047-2.37207h6.87012c.04688,1.25195.41211,2.20117,1.09766,2.85059.68359.64941,1.60449.97363,2.76172.97363,1.22754,0,2.125-.33008,2.69141-.99121s.84961-1.47559.84961-2.44336c0-1.15625-.34277-2.03027-1.02637-2.62109-.68555-.58887-1.5-.88477-2.44336-.88477-.23633,0-.46094.01758-.67285.05273-.21289.03613-.44922.07715-.70898.12402v-4.35547Z"/>
    </g>
  </symbol>
  <symbol id="Mb04" viewBox="0 0 100 100">
    <circle fill="#f62e36" cx="50" cy="50" r="50"/>
    <circle fill="#fff" cx="50" cy="50" r="37.8"/>
    <g>
      <path fill="#231815" d="M25.63867,42.7002l3.78906-22.31982h5.74268l4.47021,11.8999,4.44043-11.8999h5.74268l3.78857,22.31982h-5.77197l-1.92432-12.84717-5.26904,12.84717h-2.30908l-5.00244-12.84717-1.92432,12.84717h-5.77246Z"/>
      <path fill="#231815" d="M62.1377,18.13037v10.89355c1.2627-1.32178,2.8418-1.9834,4.73633-1.9834,1.125,0,2.15527.2124,3.09277.63672s1.73633.99658,2.39844,1.7168c.66113.7207,1.17871,1.56885,1.55371,2.5459.375.97656.5625,2.01807.5625,3.12305,0,1.12451-.19238,2.18066-.57715,3.16748-.38477.9873-.92285,1.8457-1.61328,2.5752-.69141.73047-1.50488,1.30762-2.44238,1.73145-.9375.4248-1.94922.63672-3.03418.63672-1.97363,0-3.53223-.71973-4.67676-2.16113v1.6875h-5.3584v-24.56982h5.3584ZM68.88672,35.15186c0-.47363-.08887-.92236-.2666-1.34717-.17773-.42432-.4248-.79395-.74023-1.10986-.31543-.31543-.68066-.56738-1.09473-.75488-.41504-.1875-.86914-.28125-1.3623-.28125-.47363,0-.91699.08887-1.33203.26611-.41406.17773-.77441.4248-1.08008.74023-.30664.31592-.55273.68604-.74023,1.10986-.1875.4248-.28125.87354-.28125,1.34717s.08887.91748.2666,1.33203.42383.7749.74023,1.08057c.31543.30615.68555.55273,1.11035.74023.42383.1875.87305.28076,1.34668.28076s.91699-.08838,1.33203-.26611c.41406-.17773.77441-.42432,1.08008-.74023.30566-.31543.55273-.68066.74023-1.09521s.28125-.84814.28125-1.30225Z"/>
    </g>
    <g>
      <path fill="#231815" d="M26.62891,63.01465c0-2.125.27734-4.05469.83252-5.79004.5542-1.73535,1.3335-3.2168,2.33691-4.44434s2.1958-2.17773,3.57666-2.85059,2.90918-1.00928,4.58594-1.00928c1.65186,0,3.1748.33643,4.56787,1.00928,1.39258.67285,2.58496,1.62305,3.57666,2.85059.99121,1.22754,1.76416,2.70898,2.31934,4.44434.5542,1.73535.83203,3.66504.83203,5.79004,0,2.12402-.27783,4.05371-.83203,5.78906-.55518,1.73535-1.32812,3.22266-2.31934,4.46191-.9917,1.23926-2.18408,2.19531-3.57666,2.86816-1.39307.67285-2.91602,1.00879-4.56787,1.00879-1.67676,0-3.20508-.33594-4.58594-1.00879s-2.57324-1.62891-3.57666-2.86816-1.78271-2.72656-2.33691-4.46191c-.55518-1.73535-.83252-3.66504-.83252-5.78906ZM33.49902,63.01465c0,1.18066.10596,2.25391.31836,3.22168.21289.96875.51367,1.80664.90332,2.51465s.85547,1.25684,1.39844,1.64648,1.15674.58398,1.8418.58398c.66064,0,1.26855-.19434,1.82324-.58398s1.021-.93848,1.39893-1.64648c.37744-.70801.67285-1.5459.88525-2.51465.2124-.96777.31885-2.04102.31885-3.22168,0-1.15723-.10645-2.22559-.31885-3.20508s-.50781-1.81738-.88525-2.51465c-.37793-.69531-.84424-1.23926-1.39893-1.62891s-1.1626-.58398-1.82324-.58398c-.68506,0-1.29883.19434-1.8418.58398s-1.00879.93359-1.39844,1.62891c-.38965.69727-.69043,1.53516-.90332,2.51465-.2124.97949-.31836,2.04785-.31836,3.20508Z"/>
      <path fill="#231815" d="M69.83008,65.59961h3.22266v5.31152h-3.22266v5.48828h-6.44434v-5.48828h-12.88965v-4.46191l10.19824-16.75h9.13574v15.90039ZM63.38574,65.59961v-10.51758l-6.12598,10.51758h6.12598Z"/>
    </g>
  </symbol>
  <symbol id="Mb05" viewBox="0 0 100 100">
    <circle fill="#f62e36" cx="50" cy="50" r="50"/>
    <circle fill="#fff" cx="50" cy="50" r="37.8"/>
    <g>
      <path fill="#231815" d="M25.63867,42.7002l3.78906-22.31982h5.74268l4.47021,11.8999,4.44043-11.8999h5.74268l3.78857,22.31982h-5.77197l-1.92432-12.84717-5.26904,12.84717h-2.30908l-5.00244-12.84717-1.92432,12.84717h-5.77246Z"/>
      <path fill="#231815" d="M62.1377,18.13037v10.89355c1.2627-1.32178,2.8418-1.9834,4.73633-1.9834,1.125,0,2.15527.2124,3.09277.63672s1.73633.99658,2.39844,1.7168c.66113.7207,1.17871,1.56885,1.55371,2.5459.375.97656.5625,2.01807.5625,3.12305,0,1.12451-.19238,2.18066-.57715,3.16748-.38477.9873-.92285,1.8457-1.61328,2.5752-.69141.73047-1.50488,1.30762-2.44238,1.73145-.9375.4248-1.94922.63672-3.03418.63672-1.97363,0-3.53223-.71973-4.67676-2.16113v1.6875h-5.3584v-24.56982h5.3584ZM68.88672,35.15186c0-.47363-.08887-.92236-.2666-1.34717-.17773-.42432-.4248-.79395-.74023-1.10986-.31543-.31543-.68066-.56738-1.09473-.75488-.41504-.1875-.86914-.28125-1.3623-.28125-.47363,0-.91699.08887-1.33203.26611-.41406.17773-.77441.4248-1.08008.74023-.30664.31592-.55273.68604-.74023,1.10986-.1875.4248-.28125.87354-.28125,1.34717s.08887.91748.2666,1.33203.42383.7749.74023,1.08057c.31543.30615.68555.55273,1.11035.74023.42383.1875.87305.28076,1.34668.28076s.91699-.08838,1.33203-.26611c.41406-.17773.77441-.42432,1.08008-.74023.30566-.31543.55273-.68066.74023-1.09521s.28125-.84814.28125-1.30225Z"/>
    </g>
    <g>
      <path fill="#231815" d="M26.62891,63.01465c0-2.125.27734-4.05469.83252-5.79004.5542-1.73535,1.3335-3.2168,2.33691-4.44434s2.1958-2.17773,3.57666-2.85059,2.90918-1.00928,4.58594-1.00928c1.65186,0,3.1748.33643,4.56787,1.00928,1.39258.67285,2.58496,1.62305,3.57666,2.85059.99121,1.22754,1.76416,2.70898,2.31934,4.44434.5542,1.73535.83203,3.66504.83203,5.79004,0,2.12402-.27783,4.05371-.83203,5.78906-.55518,1.73535-1.32812,3.22266-2.31934,4.46191-.9917,1.23926-2.18408,2.19531-3.57666,2.86816-1.39307.67285-2.91602,1.00879-4.56787,1.00879-1.67676,0-3.20508-.33594-4.58594-1.00879s-2.57324-1.62891-3.57666-2.86816-1.78271-2.72656-2.33691-4.46191c-.55518-1.73535-.83252-3.66504-.83252-5.78906ZM33.49902,63.01465c0,1.18066.10596,2.25391.31836,3.22168.21289.96875.51367,1.80664.90332,2.51465s.85547,1.25684,1.39844,1.64648,1.15674.58398,1.8418.58398c.66064,0,1.26855-.19434,1.82324-.58398s1.021-.93848,1.39893-1.64648c.37744-.70801.67285-1.5459.88525-2.51465.2124-.96777.31885-2.04102.31885-3.22168,0-1.15723-.10645-2.22559-.31885-3.20508s-.50781-1.81738-.88525-2.51465c-.37793-.69531-.84424-1.23926-1.39893-1.62891s-1.1626-.58398-1.82324-.58398c-.68506,0-1.29883.19434-1.8418.58398s-1.00879.93359-1.39844,1.62891c-.38965.69727-.69043,1.53516-.90332,2.51465-.2124.97949-.31836,2.04785-.31836,3.20508Z"/>
      <path fill="#231815" d="M69.83008,55.57812h-9.24219l-.45996,2.93848c.4248-.04688.81445-.08789,1.16895-.12402.35352-.03516.71973-.05273,1.09766-.05273,1.3457,0,2.59668.23633,3.75293.70801,1.15625.47266,2.14844,1.12207,2.97461,1.94824s1.47559,1.81738,1.94824,2.97461c.47168,1.15625.70801,2.41992.70801,3.78906,0,1.43945-.26562,2.73828-.79688,3.89453-.53125,1.15723-1.28125,2.14258-2.24902,2.95703s-2.14844,1.44043-3.54102,1.87695-2.93848.6543-4.63867.6543c-1.60547,0-3.13379-.19434-4.58594-.58398-1.45117-.38965-2.81543-.98535-4.08984-1.78809l1.02734-6.51562c1.17969,1.01562,2.38379,1.78809,3.61133,2.31934s2.39648.79688,3.50586.79688c1.41699,0,2.53711-.38281,3.36426-1.15039.82617-.76758,1.23926-1.71777,1.23926-2.85059,0-1.32227-.55469-2.39062-1.66406-3.20508-1.11035-.81445-2.56152-1.22168-4.35547-1.22168-.80273,0-1.62891.08887-2.47949.26562-.84961.17676-1.6875.45508-2.51367.83203l2.23047-14.3418h13.9873v5.87891Z"/>
    </g>
  </symbol>
</svg>