<?xml version="1.0" encoding="UTF-8"?>
<svg xmlns="http://www.w3.org/2000/svg" xmlns:xlink="http://www.w3.org/1999/xlink">
  <symbol id="KD" viewBox="0 0 100 100">
    <rect fill="#0071be" width="100" height="100" rx="17.5" ry="17.5"/>
    <g>
      <path fill="#fff" d="M15.06299,30.00391h8.96094v17.67969h.14893c.87646-1.51416,1.83252-2.96094,2.74561-4.35938l9.05518-13.32031h11.11426l-13.23242,17.02148,13.93115,22.97461h-10.52539l-9.8418-17.24414-3.39551,4.18359v13.06055h-8.96094V30.00391Z"/>
      <path fill="#fff" d="M51.50195,30.55273c3.32812-.53955,7.66211-.86035,12.19336-.86035,7.58887,0,12.5459,1.3999,16.37793,4.29248,4.15527,3.10107,6.7627,7.979,6.7627,15.0498,0,7.66455-2.77246,12.96338-6.61426,16.20264-4.20605,3.50684-10.65039,5.17969-18.44727,5.17969-4.7002,0-8.0498-.28223-10.27246-.59082V30.55273ZM60.5332,63.19238c.79004.14746,2.05078.15625,3.1543.15625,8.19141.07031,13.5752-4.4541,13.5752-14.0166.01855-8.31055-4.84668-12.67969-12.62207-12.67969-1.97754,0-3.30762.16797-4.10742.34521v26.19482Z"/>
    </g>
  </symbol>
  <symbol id="KD01" viewBox="0 0 100 100">
    <rect fill="#0071be" width="100" height="100" rx="17.5" ry="17.5"/>
    <g>
      <path fill="#fff" d="M27.00781,10.54688h5.89844v11.6377h.09814c.57715-.99658,1.20605-1.94873,1.80713-2.86914l5.96094-8.76855h7.31592l-8.71045,11.20459,9.17041,15.12354h-6.92822l-6.47852-11.35107-2.23535,2.75342v8.59766h-5.89844V10.54688Z"/>
      <path fill="#fff" d="M50.98926,10.9082c2.19043-.35498,5.04297-.56641,8.02637-.56641,4.99512,0,8.25781.92139,10.78027,2.82568,2.73535,2.04102,4.45215,5.25244,4.45215,9.90674,0,5.04541-1.8252,8.53369-4.35449,10.66602-2.76855,2.30762-7.01074,3.40918-12.14258,3.40918-3.09473,0-5.29883-.18555-6.76172-.38867V10.9082ZM56.93359,32.39355c.52051.09668,1.35059.10303,2.07617.10303,5.39258.04639,8.93652-2.93213,8.93652-9.22656.0127-5.4707-3.19043-8.34668-8.30859-8.34668-1.30176,0-2.17773.11035-2.7041.22705v17.24316Z"/>
    </g>
    <g>
      <path fill="#fff" d="M47.94385,68.08887c0,12.62695-5.12451,21.35449-15.5708,21.35449-10.60107,0-15.28125-9.50195-15.32129-21.09473,0-11.90625,4.99658-21.27441,15.5957-21.27441,10.95752,0,15.29639,9.77832,15.29639,21.01465ZM26.64551,68.30859c-.0249,9.43359,2.25586,13.89551,5.92285,13.89551,3.73291,0,5.78174-4.68164,5.78174-13.99512,0-9.08398-1.98389-13.8584-5.80273-13.8584-3.52637,0-5.91406,4.41992-5.90186,13.95801Z"/>
      <path fill="#fff" d="M64.86719,56.30762h-.12598l-7.79297,3.70117-1.58594-7.19141,10.86621-5.04932h7.91016v40.98193h-9.27148v-32.44238Z"/>
    </g>
  </symbol>
  <symbol id="KD02" viewBox="0 0 100 100">
    <rect fill="#0071be" width="100" height="100" rx="17.5" ry="17.5"/>
    <g>
      <path fill="#fff" d="M27.00781,10.54688h5.89844v11.6377h.09814c.57715-.99658,1.20605-1.94873,1.80713-2.86914l5.96094-8.76855h7.31592l-8.71045,11.20459,9.17041,15.12354h-6.92822l-6.47852-11.35107-2.23535,2.75342v8.59766h-5.89844V10.54688Z"/>
      <path fill="#fff" d="M50.98926,10.9082c2.19043-.35498,5.04297-.56641,8.02637-.56641,4.99512,0,8.25781.92139,10.78027,2.82568,2.73535,2.04102,4.45215,5.25244,4.45215,9.90674,0,5.04541-1.8252,8.53369-4.35449,10.66602-2.76855,2.30762-7.01074,3.40918-12.14258,3.40918-3.09473,0-5.29883-.18555-6.76172-.38867V10.9082ZM56.93359,32.39355c.52051.09668,1.35059.10303,2.07617.10303,5.39258.04639,8.93652-2.93213,8.93652-9.22656.0127-5.4707-3.19043-8.34668-8.30859-8.34668-1.30176,0-2.17773.11035-2.7041.22705v17.24316Z"/>
    </g>
    <g>
      <path fill="#fff" d="M47.94385,68.08887c0,12.62695-5.12451,21.35449-15.5708,21.35449-10.60107,0-15.28125-9.50195-15.32129-21.09473,0-11.90625,4.99658-21.27441,15.5957-21.27441,10.95752,0,15.29639,9.77832,15.29639,21.01465ZM26.64551,68.30859c-.0249,9.43359,2.25586,13.89551,5.92285,13.89551,3.73291,0,5.78174-4.68164,5.78174-13.99512,0-9.08398-1.98389-13.8584-5.80273-13.8584-3.52637,0-5.91406,4.41992-5.90186,13.95801Z"/>
      <path fill="#fff" d="M52.66406,88.75v-5.80371l5.27441-4.76367c8.96875-8.05176,13.33496-12.63086,13.41016-17.42383,0-3.32617-1.96191-5.97754-6.70898-5.97754-3.5293,0-6.6123,1.76953-8.77246,3.36914l-2.68945-6.84668c3.05859-2.32471,7.88281-4.22949,13.39062-4.22949,9.30762,0,14.36328,5.42773,14.36328,12.84277,0,6.87695-4.92383,12.39844-10.89648,17.66113l-3.7959,3.14648v.12695h15.50488v7.89844h-29.08008Z"/>
    </g>
  </symbol>
  <symbol id="KD03" viewBox="0 0 100 100">
    <rect fill="#0071be" width="100" height="100" rx="17.5" ry="17.5"/>
    <g>
      <path fill="#fff" d="M27.00781,10.54688h5.89844v11.6377h.09814c.57715-.99658,1.20605-1.94873,1.80713-2.86914l5.96094-8.76855h7.31592l-8.71045,11.20459,9.17041,15.12354h-6.92822l-6.47852-11.35107-2.23535,2.75342v8.59766h-5.89844V10.54688Z"/>
      <path fill="#fff" d="M50.98926,10.9082c2.19043-.35498,5.04297-.56641,8.02637-.56641,4.99512,0,8.25781.92139,10.78027,2.82568,2.73535,2.04102,4.45215,5.25244,4.45215,9.90674,0,5.04541-1.8252,8.53369-4.35449,10.66602-2.76855,2.30762-7.01074,3.40918-12.14258,3.40918-3.09473,0-5.29883-.18555-6.76172-.38867V10.9082ZM56.93359,32.39355c.52051.09668,1.35059.10303,2.07617.10303,5.39258.04639,8.93652-2.93213,8.93652-9.22656.0127-5.4707-3.19043-8.34668-8.30859-8.34668-1.30176,0-2.17773.11035-2.7041.22705v17.24316Z"/>
    </g>
    <g>
      <path fill="#fff" d="M47.94385,68.08887c0,12.62695-5.12451,21.35449-15.5708,21.35449-10.60107,0-15.28125-9.50195-15.32129-21.09473,0-11.90625,4.99658-21.27441,15.5957-21.27441,10.95752,0,15.29639,9.77832,15.29639,21.01465ZM26.64551,68.30859c-.0249,9.43359,2.25586,13.89551,5.92285,13.89551,3.73291,0,5.78174-4.68164,5.78174-13.99512,0-9.08398-1.98389-13.8584-5.80273-13.8584-3.52637,0-5.91406,4.41992-5.90186,13.95801Z"/>
      <path fill="#fff" d="M54.3584,79.36621c1.67188.90039,5.63281,2.49512,9.53516,2.49512,4.96777,0,7.49805-2.38574,7.48828-5.44531-.02051-4.0625-4.03223-5.89844-8.26367-5.91113h-3.90625v-6.87891h3.74316c3.20898-.01172,7.25977-1.25488,7.25977-4.70703,0-2.44727-1.98535-4.28711-6.02637-4.28711-3.37109,0-6.89062,1.44629-8.55371,2.45508l-1.96875-6.90869c2.47656-1.59229,7.36523-3.104,12.67773-3.104,8.76465,0,13.60156,4.60059,13.60156,10.22852,0,4.30469-2.47461,7.74512-7.48926,9.50488v.12695c4.91211.88379,8.87988,4.59082,8.87988,9.9834,0,7.23438-6.37988,12.52539-16.76074,12.52539-5.31738,0-9.78613-1.36621-12.16016-2.87012l1.94336-7.20703Z"/>
    </g>
  </symbol>
</svg>
