<?xml version="1.0" encoding="UTF-8"?>
<svg xmlns="http://www.w3.org/2000/svg" xmlns:xlink="http://www.w3.org/1999/xlink">
  <symbol id="DT" viewBox="0 0 100 100">
    <rect fill="#00aa8d" width="100" height="100" rx="17.5" ry="17.5"/>
    <g>
      <path fill="#fff" d="M17.85254,30.55273c3.32812-.53955,7.66162-.86035,12.19336-.86035,7.58838,0,12.54541,1.3999,16.37695,4.29248,4.15527,3.10107,6.7627,7.979,6.7627,15.0498,0,7.66455-2.77197,12.96338-6.61377,16.20264-4.20654,3.50684-10.65088,5.17969-18.44678,5.17969-4.70068,0-8.0498-.28223-10.27246-.59082V30.55273ZM26.88379,63.19238c.78955.14746,2.05078.15625,3.15381.15625,8.19141.07031,13.5752-4.4541,13.5752-14.0166.01855-8.31055-4.84668-12.67969-12.62207-12.67969-1.97705,0-3.30713.16797-4.10693.34521v26.19482Z"/>
      <path fill="#fff" d="M65.21777,37.5957h-10.79395v-7.5918h30.7832v7.5918h-10.94629v32.4043h-9.04297v-32.4043Z"/>
    </g>
  </symbol>
  <symbol id="DT01" viewBox="0 0 100 100">
    <rect fill="#00aa8d" width="100" height="100" rx="17.5" ry="17.5"/>
    <g>
      <path fill="#fff" d="M28.84375,10.9082c2.19092-.35498,5.04297-.56641,8.02637-.56641,4.99512,0,8.2583.92139,10.78027,2.82568,2.73535,2.04102,4.45215,5.25244,4.45215,9.90674,0,5.04541-1.8252,8.53369-4.354,10.66602-2.76904,2.30762-7.01123,3.40918-12.14307,3.40918-3.09424,0-5.29883-.18555-6.76172-.38867V10.9082ZM34.78857,32.39355c.51953.09668,1.3501.10303,2.07617.10303,5.3916.04639,8.93604-2.93213,8.93604-9.22656.01221-5.4707-3.19043-8.34668-8.30859-8.34668-1.30176,0-2.17725.11035-2.70361.22705v17.24316Z"/>
      <path fill="#fff" d="M60.0166,15.54395h-7.10449v-4.99707h20.2627v4.99707h-7.20508v21.33105h-5.95312V15.54395Z"/>
    </g>
    <g>
      <path fill="#fff" d="M47.94385,68.08887c0,12.62695-5.12451,21.35449-15.5708,21.35449-10.60107,0-15.28125-9.50195-15.32129-21.09473,0-11.90625,4.99658-21.27441,15.5957-21.27441,10.95752,0,15.29639,9.77832,15.29639,21.01465ZM26.64551,68.30859c-.0249,9.43359,2.25586,13.89551,5.92285,13.89551,3.73291,0,5.78174-4.68164,5.78174-13.99512,0-9.08398-1.98389-13.8584-5.80273-13.8584-3.52637,0-5.91406,4.41992-5.90186,13.95801Z"/>
      <path fill="#fff" d="M64.86719,56.30762h-.12598l-7.79297,3.70117-1.58594-7.19141,10.86621-5.04932h7.91016v40.98193h-9.27148v-32.44238Z"/>
    </g>
  </symbol>
  <symbol id="DT02" viewBox="0 0 100 100">
    <rect fill="#00aa8d" width="100" height="100" rx="17.5" ry="17.5"/>
    <g>
      <path fill="#fff" d="M28.84375,10.9082c2.19092-.35498,5.04297-.56641,8.02637-.56641,4.99512,0,8.2583.92139,10.78027,2.82568,2.73535,2.04102,4.45215,5.25244,4.45215,9.90674,0,5.04541-1.8252,8.53369-4.354,10.66602-2.76904,2.30762-7.01123,3.40918-12.14307,3.40918-3.09424,0-5.29883-.18555-6.76172-.38867V10.9082ZM34.78857,32.39355c.51953.09668,1.3501.10303,2.07617.10303,5.3916.04639,8.93604-2.93213,8.93604-9.22656.01221-5.4707-3.19043-8.34668-8.30859-8.34668-1.30176,0-2.17725.11035-2.70361.22705v17.24316Z"/>
      <path fill="#fff" d="M60.0166,15.54395h-7.10449v-4.99707h20.2627v4.99707h-7.20508v21.33105h-5.95312V15.54395Z"/>
    </g>
    <g>
      <path fill="#fff" d="M47.94385,68.08887c0,12.62695-5.12451,21.35449-15.5708,21.35449-10.60107,0-15.28125-9.50195-15.32129-21.09473,0-11.90625,4.99658-21.27441,15.5957-21.27441,10.95752,0,15.29639,9.77832,15.29639,21.01465ZM26.64551,68.30859c-.0249,9.43359,2.25586,13.89551,5.92285,13.89551,3.73291,0,5.78174-4.68164,5.78174-13.99512,0-9.08398-1.98389-13.8584-5.80273-13.8584-3.52637,0-5.91406,4.41992-5.90186,13.95801Z"/>
      <path fill="#fff" d="M52.66406,88.75v-5.80371l5.27441-4.76367c8.96875-8.05176,13.33496-12.63086,13.41016-17.42383,0-3.32617-1.96191-5.97754-6.70898-5.97754-3.5293,0-6.6123,1.76953-8.77246,3.36914l-2.68945-6.84668c3.05859-2.32471,7.88281-4.22949,13.39062-4.22949,9.30762,0,14.36328,5.42773,14.36328,12.84277,0,6.87695-4.92383,12.39844-10.89648,17.66113l-3.7959,3.14648v.12695h15.50488v7.89844h-29.08008Z"/>
    </g>
  </symbol>
  <symbol id="DT03" viewBox="0 0 100 100">
    <rect fill="#00aa8d" width="100" height="100" rx="17.5" ry="17.5"/>
    <g>
      <path fill="#fff" d="M28.84375,10.9082c2.19092-.35498,5.04297-.56641,8.02637-.56641,4.99512,0,8.2583.92139,10.78027,2.82568,2.73535,2.04102,4.45215,5.25244,4.45215,9.90674,0,5.04541-1.8252,8.53369-4.354,10.66602-2.76904,2.30762-7.01123,3.40918-12.14307,3.40918-3.09424,0-5.29883-.18555-6.76172-.38867V10.9082ZM34.78857,32.39355c.51953.09668,1.3501.10303,2.07617.10303,5.3916.04639,8.93604-2.93213,8.93604-9.22656.01221-5.4707-3.19043-8.34668-8.30859-8.34668-1.30176,0-2.17725.11035-2.70361.22705v17.24316Z"/>
      <path fill="#fff" d="M60.0166,15.54395h-7.10449v-4.99707h20.2627v4.99707h-7.20508v21.33105h-5.95312V15.54395Z"/>
    </g>
    <g>
      <path fill="#fff" d="M47.94385,68.08887c0,12.62695-5.12451,21.35449-15.5708,21.35449-10.60107,0-15.28125-9.50195-15.32129-21.09473,0-11.90625,4.99658-21.27441,15.5957-21.27441,10.95752,0,15.29639,9.77832,15.29639,21.01465ZM26.64551,68.30859c-.0249,9.43359,2.25586,13.89551,5.92285,13.89551,3.73291,0,5.78174-4.68164,5.78174-13.99512,0-9.08398-1.98389-13.8584-5.80273-13.8584-3.52637,0-5.91406,4.41992-5.90186,13.95801Z"/>
      <path fill="#fff" d="M54.3584,79.36621c1.67188.90039,5.63281,2.49512,9.53516,2.49512,4.96777,0,7.49805-2.38574,7.48828-5.44531-.02051-4.0625-4.03223-5.89844-8.26367-5.91113h-3.90625v-6.87891h3.74316c3.20898-.01172,7.25977-1.25488,7.25977-4.70703,0-2.44727-1.98535-4.28711-6.02637-4.28711-3.37109,0-6.89062,1.44629-8.55371,2.45508l-1.96875-6.90869c2.47656-1.59229,7.36523-3.104,12.67773-3.104,8.76465,0,13.60156,4.60059,13.60156,10.22852,0,4.30469-2.47461,7.74512-7.48926,9.50488v.12695c4.91211.88379,8.87988,4.59082,8.87988,9.9834,0,7.23438-6.37988,12.52539-16.76074,12.52539-5.31738,0-9.78613-1.36621-12.16016-2.87012l1.94336-7.20703Z"/>
    </g>
  </symbol>
  <symbol id="DT04" viewBox="0 0 100 100">
    <rect fill="#00aa8d" width="100" height="100" rx="17.5" ry="17.5"/>
    <g>
      <path fill="#fff" d="M28.84375,10.9082c2.19092-.35498,5.04297-.56641,8.02637-.56641,4.99512,0,8.2583.92139,10.78027,2.82568,2.73535,2.04102,4.45215,5.25244,4.45215,9.90674,0,5.04541-1.8252,8.53369-4.354,10.66602-2.76904,2.30762-7.01123,3.40918-12.14307,3.40918-3.09424,0-5.29883-.18555-6.76172-.38867V10.9082ZM34.78857,32.39355c.51953.09668,1.3501.10303,2.07617.10303,5.3916.04639,8.93604-2.93213,8.93604-9.22656.01221-5.4707-3.19043-8.34668-8.30859-8.34668-1.30176,0-2.17725.11035-2.70361.22705v17.24316Z"/>
      <path fill="#fff" d="M60.0166,15.54395h-7.10449v-4.99707h20.2627v4.99707h-7.20508v21.33105h-5.95312V15.54395Z"/>
    </g>
    <g>
      <path fill="#fff" d="M47.94385,68.08887c0,12.62695-5.12451,21.35449-15.5708,21.35449-10.60107,0-15.28125-9.50195-15.32129-21.09473,0-11.90625,4.99658-21.27441,15.5957-21.27441,10.95752,0,15.29639,9.77832,15.29639,21.01465ZM26.64551,68.30859c-.0249,9.43359,2.25586,13.89551,5.92285,13.89551,3.73291,0,5.78174-4.68164,5.78174-13.99512,0-9.08398-1.98389-13.8584-5.80273-13.8584-3.52637,0-5.91406,4.41992-5.90186,13.95801Z"/>
      <path fill="#fff" d="M69.63184,88.75v-9.79297h-18.16797v-6.21875l15.4834-24.97021h11.73535v24.01807h4.89355v7.1709h-4.89355v9.79297h-9.05078ZM69.63184,71.78613v-9.06152c0-2.46094.13086-4.99902.27344-7.63867l-.23047-.00977c-1.31055,2.6748-2.41406,5.04297-3.80176,7.60645l-5.46191,8.97754-.03711.12598h9.25781Z"/>
    </g>
  </symbol>
  <symbol id="DT05" viewBox="0 0 100 100">
    <rect fill="#00aa8d" width="100" height="100" rx="17.5" ry="17.5"/>
    <g>
      <path fill="#fff" d="M28.84375,10.9082c2.19092-.35498,5.04297-.56641,8.02637-.56641,4.99512,0,8.2583.92139,10.78027,2.82568,2.73535,2.04102,4.45215,5.25244,4.45215,9.90674,0,5.04541-1.8252,8.53369-4.354,10.66602-2.76904,2.30762-7.01123,3.40918-12.14307,3.40918-3.09424,0-5.29883-.18555-6.76172-.38867V10.9082ZM34.78857,32.39355c.51953.09668,1.3501.10303,2.07617.10303,5.3916.04639,8.93604-2.93213,8.93604-9.22656.01221-5.4707-3.19043-8.34668-8.30859-8.34668-1.30176,0-2.17725.11035-2.70361.22705v17.24316Z"/>
      <path fill="#fff" d="M60.0166,15.54395h-7.10449v-4.99707h20.2627v4.99707h-7.20508v21.33105h-5.95312V15.54395Z"/>
    </g>
    <g>
      <path fill="#fff" d="M47.94385,68.08887c0,12.62695-5.12451,21.35449-15.5708,21.35449-10.60107,0-15.28125-9.50195-15.32129-21.09473,0-11.90625,4.99658-21.27441,15.5957-21.27441,10.95752,0,15.29639,9.77832,15.29639,21.01465ZM26.64551,68.30859c-.0249,9.43359,2.25586,13.89551,5.92285,13.89551,3.73291,0,5.78174-4.68164,5.78174-13.99512,0-9.08398-1.98389-13.8584-5.80273-13.8584-3.52637,0-5.91406,4.41992-5.90186,13.95801Z"/>
      <path fill="#fff" d="M79.99805,55.66113h-15.90039l-.88281,6.27539c.9082-.10449,1.6709-.13477,2.6543-.13477,3.91113.0127,7.92773.91211,10.81152,2.95898,3.08203,2.11035,4.9668,5.52246,4.9668,10.30762,0,7.65234-6.5498,14.375-17.5957,14.375-4.9668,0-9.1123-1.14062-11.41602-2.3252l1.74512-7.20605c1.81543.89746,5.5332,2.04883,9.22852,2.04883,3.98828,0,8.21289-1.9082,8.20312-6.2666-.01074-4.19922-3.36914-6.80762-11.53711-6.80762-2.24805,0-3.85059.1582-5.51758.37891l2.66016-21.49756h22.58008v7.89307Z"/>
    </g>
  </symbol>
  <symbol id="DT06" viewBox="0 0 100 100">
    <rect fill="#00aa8d" width="100" height="100" rx="17.5" ry="17.5"/>
    <g>
      <path fill="#fff" d="M28.84375,10.9082c2.19092-.35498,5.04297-.56641,8.02637-.56641,4.99512,0,8.2583.92139,10.78027,2.82568,2.73535,2.04102,4.45215,5.25244,4.45215,9.90674,0,5.04541-1.8252,8.53369-4.354,10.66602-2.76904,2.30762-7.01123,3.40918-12.14307,3.40918-3.09424,0-5.29883-.18555-6.76172-.38867V10.9082ZM34.78857,32.39355c.51953.09668,1.3501.10303,2.07617.10303,5.3916.04639,8.93604-2.93213,8.93604-9.22656.01221-5.4707-3.19043-8.34668-8.30859-8.34668-1.30176,0-2.17725.11035-2.70361.22705v17.24316Z"/>
      <path fill="#fff" d="M60.0166,15.54395h-7.10449v-4.99707h20.2627v4.99707h-7.20508v21.33105h-5.95312V15.54395Z"/>
    </g>
    <g>
      <path fill="#fff" d="M47.94385,68.08887c0,12.62695-5.12451,21.35449-15.5708,21.35449-10.60107,0-15.28125-9.50195-15.32129-21.09473,0-11.90625,4.99658-21.27441,15.5957-21.27441,10.95752,0,15.29639,9.77832,15.29639,21.01465ZM26.64551,68.30859c-.0249,9.43359,2.25586,13.89551,5.92285,13.89551,3.73291,0,5.78174-4.68164,5.78174-13.99512,0-9.08398-1.98389-13.8584-5.80273-13.8584-3.52637,0-5.91406,4.41992-5.90186,13.95801Z"/>
      <path fill="#fff" d="M78.8252,54.60547c-1.10156-.06152-2.23926-.02051-3.74316.10254-8.52441.68555-12.28613,5.01953-13.37598,9.80176h.18848c2.05273-2.02832,4.89746-3.24805,8.69727-3.24805,6.87891,0,12.68848,4.84863,12.68848,13.38574,0,8.13477-6.23535,14.7959-15.10449,14.7959-10.93262,0-16.27246-8.14355-16.27246-17.87695,0-7.7373,2.82617-14.15527,7.26562-18.26758,4.07812-3.72949,9.3916-5.72998,15.78418-6.0376,1.76855-.14453,2.94336-.09668,3.8623-.0376l.00977,7.38184ZM73.56152,75.14844c-.0127-3.7998-1.99609-7.0625-6.08789-7.0625-2.5752,0-4.74121,1.56543-5.66016,3.62012-.27539.54785-.41992,1.29297-.41992,2.43945.19043,4.32812,2.27246,8.24805,6.6416,8.24805,3.39844,0,5.52637-3.07617,5.52637-7.24512Z"/>
    </g>
  </symbol>
  <symbol id="DT07" viewBox="0 0 100 100">
    <rect fill="#00aa8d" width="100" height="100" rx="17.5" ry="17.5"/>
    <g>
      <path fill="#fff" d="M28.84375,10.9082c2.19092-.35498,5.04297-.56641,8.02637-.56641,4.99512,0,8.2583.92139,10.78027,2.82568,2.73535,2.04102,4.45215,5.25244,4.45215,9.90674,0,5.04541-1.8252,8.53369-4.354,10.66602-2.76904,2.30762-7.01123,3.40918-12.14307,3.40918-3.09424,0-5.29883-.18555-6.76172-.38867V10.9082ZM34.78857,32.39355c.51953.09668,1.3501.10303,2.07617.10303,5.3916.04639,8.93604-2.93213,8.93604-9.22656.01221-5.4707-3.19043-8.34668-8.30859-8.34668-1.30176,0-2.17725.11035-2.70361.22705v17.24316Z"/>
      <path fill="#fff" d="M60.0166,15.54395h-7.10449v-4.99707h20.2627v4.99707h-7.20508v21.33105h-5.95312V15.54395Z"/>
    </g>
    <g>
      <path fill="#fff" d="M47.94385,68.08887c0,12.62695-5.12451,21.35449-15.5708,21.35449-10.60107,0-15.28125-9.50195-15.32129-21.09473,0-11.90625,4.99658-21.27441,15.5957-21.27441,10.95752,0,15.29639,9.77832,15.29639,21.01465ZM26.64551,68.30859c-.0249,9.43359,2.25586,13.89551,5.92285,13.89551,3.73291,0,5.78174-4.68164,5.78174-13.99512,0-9.08398-1.98389-13.8584-5.80273-13.8584-3.52637,0-5.91406,4.41992-5.90186,13.95801Z"/>
      <path fill="#fff" d="M82.04102,47.76807v6.03174l-16.8916,34.9502h-10.16895l16.88867-32.95801v-.12598h-18.78906v-7.89795h28.96094Z"/>
    </g>
  </symbol>
  <symbol id="DT08" viewBox="0 0 100 100">
    <rect fill="#00aa8d" width="100" height="100" rx="17.5" ry="17.5"/>
    <g>
      <path fill="#fff" d="M28.84375,10.9082c2.19092-.35498,5.04297-.56641,8.02637-.56641,4.99512,0,8.2583.92139,10.78027,2.82568,2.73535,2.04102,4.45215,5.25244,4.45215,9.90674,0,5.04541-1.8252,8.53369-4.354,10.66602-2.76904,2.30762-7.01123,3.40918-12.14307,3.40918-3.09424,0-5.29883-.18555-6.76172-.38867V10.9082ZM34.78857,32.39355c.51953.09668,1.3501.10303,2.07617.10303,5.3916.04639,8.93604-2.93213,8.93604-9.22656.01221-5.4707-3.19043-8.34668-8.30859-8.34668-1.30176,0-2.17725.11035-2.70361.22705v17.24316Z"/>
      <path fill="#fff" d="M60.0166,15.54395h-7.10449v-4.99707h20.2627v4.99707h-7.20508v21.33105h-5.95312V15.54395Z"/>
    </g>
    <g>
      <path fill="#fff" d="M47.94385,68.08887c0,12.62695-5.12451,21.35449-15.5708,21.35449-10.60107,0-15.28125-9.50195-15.32129-21.09473,0-11.90625,4.99658-21.27441,15.5957-21.27441,10.95752,0,15.29639,9.77832,15.29639,21.01465ZM26.64551,68.30859c-.0249,9.43359,2.25586,13.89551,5.92285,13.89551,3.73291,0,5.78174-4.68164,5.78174-13.99512,0-9.08398-1.98389-13.8584-5.80273-13.8584-3.52637,0-5.91406,4.41992-5.90186,13.95801Z"/>
      <path fill="#fff" d="M52.01953,78.05469c0-4.96973,2.82715-8.33105,7.30664-10.3125l-.00391-.14648c-3.97949-2.05664-5.92773-5.40527-5.92773-9.00098,0-6.94629,6.24023-11.52051,14.43848-11.52051,9.60742,0,13.58594,5.55664,13.58594,10.5127,0,3.53906-1.90918,7.0127-5.96387,9.05371v.14941c3.97949,1.54883,7.53809,4.90625,7.53809,10.20312,0,7.44336-6.24121,12.4502-15.7666,12.4502-10.41895,0-15.20703-5.83984-15.20703-11.38867ZM73.22363,77.69336c0-3.5625-2.69824-5.7002-6.46191-6.70898-3.1377.87207-4.96191,3.13477-4.96191,6.08203-.05078,2.97852,2.21387,5.77148,5.82129,5.77148,3.35742,0,5.60254-2.21094,5.60254-5.14453ZM62.44824,58.27734c-.00977,2.77051,2.46387,4.57422,5.78711,5.5791,2.19727-.61816,4.15918-2.66895,4.15918-5.22168,0-2.5293-1.45801-5.08984-5.00098-5.08984-3.26855,0-4.94531,2.19141-4.94531,4.73242Z"/>
    </g>
  </symbol>
  <symbol id="DT09" viewBox="0 0 100 100">
    <rect fill="#00aa8d" width="100" height="100" rx="17.5" ry="17.5"/>
    <g>
      <path fill="#fff" d="M28.84375,10.9082c2.19092-.35498,5.04297-.56641,8.02637-.56641,4.99512,0,8.2583.92139,10.78027,2.82568,2.73535,2.04102,4.45215,5.25244,4.45215,9.90674,0,5.04541-1.8252,8.53369-4.354,10.66602-2.76904,2.30762-7.01123,3.40918-12.14307,3.40918-3.09424,0-5.29883-.18555-6.76172-.38867V10.9082ZM34.78857,32.39355c.51953.09668,1.3501.10303,2.07617.10303,5.3916.04639,8.93604-2.93213,8.93604-9.22656.01221-5.4707-3.19043-8.34668-8.30859-8.34668-1.30176,0-2.17725.11035-2.70361.22705v17.24316Z"/>
      <path fill="#fff" d="M60.0166,15.54395h-7.10449v-4.99707h20.2627v4.99707h-7.20508v21.33105h-5.95312V15.54395Z"/>
    </g>
    <g>
      <path fill="#fff" d="M47.94385,68.08887c0,12.62695-5.12451,21.35449-15.5708,21.35449-10.60107,0-15.28125-9.50195-15.32129-21.09473,0-11.90625,4.99658-21.27441,15.5957-21.27441,10.95752,0,15.29639,9.77832,15.29639,21.01465ZM26.64551,68.30859c-.0249,9.43359,2.25586,13.89551,5.92285,13.89551,3.73291,0,5.78174-4.68164,5.78174-13.99512,0-9.08398-1.98389-13.8584-5.80273-13.8584-3.52637,0-5.91406,4.41992-5.90186,13.95801Z"/>
      <path fill="#fff" d="M55.65332,81.83691c1.24023.13184,2.28223.09277,4.16992-.02051,2.92578-.16309,5.8916-1.01172,8.06738-2.51953,2.69238-1.81055,4.44629-4.50098,5.16016-7.59082l-.14844-.06445c-1.83984,1.8877-4.5166,2.95996-8.24316,2.95996-6.93262,0-12.74902-4.8125-12.74902-12.77246,0-8.00391,6.43164-14.75488,15.44238-14.75488,10.53125,0,15.49902,8.07812,15.49902,17.63672,0,8.54688-2.7002,14.75977-7.17578,18.88477-3.90723,3.53809-9.29297,5.46094-15.67773,5.70898-1.58496.12402-3.25684.07422-4.34473-.01074v-7.45703ZM61.44629,61.23633c.0127,3.53223,1.94336,6.56543,5.7998,6.56543,2.64355,0,4.44727-1.21875,5.35254-2.67578.30273-.57324.44629-1.22754.44629-2.40625.03711-4.36523-1.6123-8.63281-5.9834-8.63281-3.25586,0-5.63965,2.89844-5.61523,7.14941Z"/>
    </g>
  </symbol>
  <symbol id="DT10" viewBox="0 0 100 100">
    <rect fill="#00aa8d" width="100" height="100" rx="17.5" ry="17.5"/>
    <g>
      <path fill="#fff" d="M28.84375,10.9082c2.19092-.35498,5.04297-.56641,8.02637-.56641,4.99512,0,8.2583.92139,10.78027,2.82568,2.73535,2.04102,4.45215,5.25244,4.45215,9.90674,0,5.04541-1.8252,8.53369-4.354,10.66602-2.76904,2.30762-7.01123,3.40918-12.14307,3.40918-3.09424,0-5.29883-.18555-6.76172-.38867V10.9082ZM34.78857,32.39355c.51953.09668,1.3501.10303,2.07617.10303,5.3916.04639,8.93604-2.93213,8.93604-9.22656.01221-5.4707-3.19043-8.34668-8.30859-8.34668-1.30176,0-2.17725.11035-2.70361.22705v17.24316Z"/>
      <path fill="#fff" d="M60.0166,15.54395h-7.10449v-4.99707h20.2627v4.99707h-7.20508v21.33105h-5.95312V15.54395Z"/>
    </g>
    <g>
      <path fill="#fff" d="M29.87109,56.30762h-.12598l-7.79297,3.70117-1.58594-7.19141,10.86572-5.04932h7.91064v40.98193h-9.27148v-32.44238Z"/>
      <path fill="#fff" d="M82.93945,68.08887c0,12.62695-5.12402,21.35449-15.57031,21.35449-10.60156,0-15.28125-9.50195-15.32129-21.09473,0-11.90625,4.99707-21.27441,15.5957-21.27441,10.95703,0,15.2959,9.77832,15.2959,21.01465ZM61.6416,68.30859c-.02441,9.43359,2.25586,13.89551,5.92285,13.89551,3.7334,0,5.78125-4.68164,5.78125-13.99512,0-9.08398-1.9834-13.8584-5.80176-13.8584-3.52637,0-5.91504,4.41992-5.90234,13.95801Z"/>
    </g>
  </symbol>
  <symbol id="DT11" viewBox="0 0 100 100">
    <rect fill="#00aa8d" width="100" height="100" rx="17.5" ry="17.5"/>
    <g>
      <path fill="#fff" d="M28.84375,10.9082c2.19092-.35498,5.04297-.56641,8.02637-.56641,4.99512,0,8.2583.92139,10.78027,2.82568,2.73535,2.04102,4.45215,5.25244,4.45215,9.90674,0,5.04541-1.8252,8.53369-4.354,10.66602-2.76904,2.30762-7.01123,3.40918-12.14307,3.40918-3.09424,0-5.29883-.18555-6.76172-.38867V10.9082ZM34.78857,32.39355c.51953.09668,1.3501.10303,2.07617.10303,5.3916.04639,8.93604-2.93213,8.93604-9.22656.01221-5.4707-3.19043-8.34668-8.30859-8.34668-1.30176,0-2.17725.11035-2.70361.22705v17.24316Z"/>
      <path fill="#fff" d="M60.0166,15.54395h-7.10449v-4.99707h20.2627v4.99707h-7.20508v21.33105h-5.95312V15.54395Z"/>
    </g>
    <g>
      <path fill="#fff" d="M29.87109,56.30762h-.12598l-7.79297,3.70117-1.58594-7.19141,10.86572-5.04932h7.91064v40.98193h-9.27148v-32.44238Z"/>
      <path fill="#fff" d="M64.86719,56.30762h-.12598l-7.79297,3.70117-1.58594-7.19141,10.86621-5.04932h7.91016v40.98193h-9.27148v-32.44238Z"/>
    </g>
  </symbol>
  <symbol id="DT12" viewBox="0 0 100 100">
    <rect fill="#00aa8d" width="100" height="100" rx="17.5" ry="17.5"/>
    <g>
      <path fill="#fff" d="M28.84375,10.9082c2.19092-.35498,5.04297-.56641,8.02637-.56641,4.99512,0,8.2583.92139,10.78027,2.82568,2.73535,2.04102,4.45215,5.25244,4.45215,9.90674,0,5.04541-1.8252,8.53369-4.354,10.66602-2.76904,2.30762-7.01123,3.40918-12.14307,3.40918-3.09424,0-5.29883-.18555-6.76172-.38867V10.9082ZM34.78857,32.39355c.51953.09668,1.3501.10303,2.07617.10303,5.3916.04639,8.93604-2.93213,8.93604-9.22656.01221-5.4707-3.19043-8.34668-8.30859-8.34668-1.30176,0-2.17725.11035-2.70361.22705v17.24316Z"/>
      <path fill="#fff" d="M60.0166,15.54395h-7.10449v-4.99707h20.2627v4.99707h-7.20508v21.33105h-5.95312V15.54395Z"/>
    </g>
    <g>
      <path fill="#fff" d="M29.87109,56.30762h-.12598l-7.79297,3.70117-1.58594-7.19141,10.86572-5.04932h7.91064v40.98193h-9.27148v-32.44238Z"/>
      <path fill="#fff" d="M52.66406,88.75v-5.80371l5.27441-4.76367c8.96875-8.05176,13.33496-12.63086,13.41016-17.42383,0-3.32617-1.96191-5.97754-6.70898-5.97754-3.5293,0-6.6123,1.76953-8.77246,3.36914l-2.68945-6.84668c3.05859-2.32471,7.88281-4.22949,13.39062-4.22949,9.30762,0,14.36328,5.42773,14.36328,12.84277,0,6.87695-4.92383,12.39844-10.89648,17.66113l-3.7959,3.14648v.12695h15.50488v7.89844h-29.08008Z"/>
    </g>
  </symbol>
  <symbol id="DT13" viewBox="0 0 100 100">
    <rect fill="#00aa8d" width="100" height="100" rx="17.5" ry="17.5"/>
    <g>
      <path fill="#fff" d="M28.84375,10.9082c2.19092-.35498,5.04297-.56641,8.02637-.56641,4.99512,0,8.2583.92139,10.78027,2.82568,2.73535,2.04102,4.45215,5.25244,4.45215,9.90674,0,5.04541-1.8252,8.53369-4.354,10.66602-2.76904,2.30762-7.01123,3.40918-12.14307,3.40918-3.09424,0-5.29883-.18555-6.76172-.38867V10.9082ZM34.78857,32.39355c.51953.09668,1.3501.10303,2.07617.10303,5.3916.04639,8.93604-2.93213,8.93604-9.22656.01221-5.4707-3.19043-8.34668-8.30859-8.34668-1.30176,0-2.17725.11035-2.70361.22705v17.24316Z"/>
      <path fill="#fff" d="M60.0166,15.54395h-7.10449v-4.99707h20.2627v4.99707h-7.20508v21.33105h-5.95312V15.54395Z"/>
    </g>
    <g>
      <path fill="#fff" d="M29.87109,56.30762h-.12598l-7.79297,3.70117-1.58594-7.19141,10.86572-5.04932h7.91064v40.98193h-9.27148v-32.44238Z"/>
      <path fill="#fff" d="M54.3584,79.36621c1.67188.90039,5.63281,2.49512,9.53516,2.49512,4.96777,0,7.49805-2.38574,7.48828-5.44531-.02051-4.0625-4.03223-5.89844-8.26367-5.91113h-3.90625v-6.87891h3.74316c3.20898-.01172,7.25977-1.25488,7.25977-4.70703,0-2.44727-1.98535-4.28711-6.02637-4.28711-3.37109,0-6.89062,1.44629-8.55371,2.45508l-1.96875-6.90869c2.47656-1.59229,7.36523-3.104,12.67773-3.104,8.76465,0,13.60156,4.60059,13.60156,10.22852,0,4.30469-2.47461,7.74512-7.48926,9.50488v.12695c4.91211.88379,8.87988,4.59082,8.87988,9.9834,0,7.23438-6.37988,12.52539-16.76074,12.52539-5.31738,0-9.78613-1.36621-12.16016-2.87012l1.94336-7.20703Z"/>
    </g>
  </symbol>
  <symbol id="DT14" viewBox="0 0 100 100">
    <rect fill="#00aa8d" width="100" height="100" rx="17.5" ry="17.5"/>
    <g>
      <path fill="#fff" d="M28.84375,10.9082c2.19092-.35498,5.04297-.56641,8.02637-.56641,4.99512,0,8.2583.92139,10.78027,2.82568,2.73535,2.04102,4.45215,5.25244,4.45215,9.90674,0,5.04541-1.8252,8.53369-4.354,10.66602-2.76904,2.30762-7.01123,3.40918-12.14307,3.40918-3.09424,0-5.29883-.18555-6.76172-.38867V10.9082ZM34.78857,32.39355c.51953.09668,1.3501.10303,2.07617.10303,5.3916.04639,8.93604-2.93213,8.93604-9.22656.01221-5.4707-3.19043-8.34668-8.30859-8.34668-1.30176,0-2.17725.11035-2.70361.22705v17.24316Z"/>
      <path fill="#fff" d="M60.0166,15.54395h-7.10449v-4.99707h20.2627v4.99707h-7.20508v21.33105h-5.95312V15.54395Z"/>
    </g>
    <g>
      <path fill="#fff" d="M29.87109,56.30762h-.12598l-7.79297,3.70117-1.58594-7.19141,10.86572-5.04932h7.91064v40.98193h-9.27148v-32.44238Z"/>
      <path fill="#fff" d="M69.63184,88.75v-9.79297h-18.16797v-6.21875l15.4834-24.97021h11.73535v24.01807h4.89355v7.1709h-4.89355v9.79297h-9.05078ZM69.63184,71.78613v-9.06152c0-2.46094.13086-4.99902.27344-7.63867l-.23047-.00977c-1.31055,2.6748-2.41406,5.04297-3.80176,7.60645l-5.46191,8.97754-.03711.12598h9.25781Z"/>
    </g>
  </symbol>
  <symbol id="DT15" viewBox="0 0 100 100">
    <rect fill="#00aa8d" width="100" height="100" rx="17.5" ry="17.5"/>
    <g>
      <path fill="#fff" d="M28.84375,10.9082c2.19092-.35498,5.04297-.56641,8.02637-.56641,4.99512,0,8.2583.92139,10.78027,2.82568,2.73535,2.04102,4.45215,5.25244,4.45215,9.90674,0,5.04541-1.8252,8.53369-4.354,10.66602-2.76904,2.30762-7.01123,3.40918-12.14307,3.40918-3.09424,0-5.29883-.18555-6.76172-.38867V10.9082ZM34.78857,32.39355c.51953.09668,1.3501.10303,2.07617.10303,5.3916.04639,8.93604-2.93213,8.93604-9.22656.01221-5.4707-3.19043-8.34668-8.30859-8.34668-1.30176,0-2.17725.11035-2.70361.22705v17.24316Z"/>
      <path fill="#fff" d="M60.0166,15.54395h-7.10449v-4.99707h20.2627v4.99707h-7.20508v21.33105h-5.95312V15.54395Z"/>
    </g>
    <g>
      <path fill="#fff" d="M29.87109,56.30762h-.12598l-7.79297,3.70117-1.58594-7.19141,10.86572-5.04932h7.91064v40.98193h-9.27148v-32.44238Z"/>
      <path fill="#fff" d="M79.99805,55.66113h-15.90039l-.88281,6.27539c.9082-.10449,1.6709-.13477,2.6543-.13477,3.91113.0127,7.92773.91211,10.81152,2.95898,3.08203,2.11035,4.9668,5.52246,4.9668,10.30762,0,7.65234-6.5498,14.375-17.5957,14.375-4.9668,0-9.1123-1.14062-11.41602-2.3252l1.74512-7.20605c1.81543.89746,5.5332,2.04883,9.22852,2.04883,3.98828,0,8.21289-1.9082,8.20312-6.2666-.01074-4.19922-3.36914-6.80762-11.53711-6.80762-2.24805,0-3.85059.1582-5.51758.37891l2.66016-21.49756h22.58008v7.89307Z"/>
    </g>
  </symbol>
  <symbol id="DT16" viewBox="0 0 100 100">
    <rect fill="#00aa8d" width="100" height="100" rx="17.5" ry="17.5"/>
    <g>
      <path fill="#fff" d="M28.84375,10.9082c2.19092-.35498,5.04297-.56641,8.02637-.56641,4.99512,0,8.2583.92139,10.78027,2.82568,2.73535,2.04102,4.45215,5.25244,4.45215,9.90674,0,5.04541-1.8252,8.53369-4.354,10.66602-2.76904,2.30762-7.01123,3.40918-12.14307,3.40918-3.09424,0-5.29883-.18555-6.76172-.38867V10.9082ZM34.78857,32.39355c.51953.09668,1.3501.10303,2.07617.10303,5.3916.04639,8.93604-2.93213,8.93604-9.22656.01221-5.4707-3.19043-8.34668-8.30859-8.34668-1.30176,0-2.17725.11035-2.70361.22705v17.24316Z"/>
      <path fill="#fff" d="M60.0166,15.54395h-7.10449v-4.99707h20.2627v4.99707h-7.20508v21.33105h-5.95312V15.54395Z"/>
    </g>
    <g>
      <path fill="#fff" d="M29.87109,56.30762h-.12598l-7.79297,3.70117-1.58594-7.19141,10.86572-5.04932h7.91064v40.98193h-9.27148v-32.44238Z"/>
      <path fill="#fff" d="M78.8252,54.60547c-1.10156-.06152-2.23926-.02051-3.74316.10254-8.52441.68555-12.28613,5.01953-13.37598,9.80176h.18848c2.05273-2.02832,4.89746-3.24805,8.69727-3.24805,6.87891,0,12.68848,4.84863,12.68848,13.38574,0,8.13477-6.23535,14.7959-15.10449,14.7959-10.93262,0-16.27246-8.14355-16.27246-17.87695,0-7.7373,2.82617-14.15527,7.26562-18.26758,4.07812-3.72949,9.3916-5.72998,15.78418-6.0376,1.76855-.14453,2.94336-.09668,3.8623-.0376l.00977,7.38184ZM73.56152,75.14844c-.0127-3.7998-1.99609-7.0625-6.08789-7.0625-2.5752,0-4.74121,1.56543-5.66016,3.62012-.27539.54785-.41992,1.29297-.41992,2.43945.19043,4.32812,2.27246,8.24805,6.6416,8.24805,3.39844,0,5.52637-3.07617,5.52637-7.24512Z"/>
    </g>
  </symbol>
  <symbol id="DT17" viewBox="0 0 100 100">
    <rect fill="#00aa8d" width="100" height="100" rx="17.5" ry="17.5"/>
    <g>
      <path fill="#fff" d="M28.84375,10.9082c2.19092-.35498,5.04297-.56641,8.02637-.56641,4.99512,0,8.2583.92139,10.78027,2.82568,2.73535,2.04102,4.45215,5.25244,4.45215,9.90674,0,5.04541-1.8252,8.53369-4.354,10.66602-2.76904,2.30762-7.01123,3.40918-12.14307,3.40918-3.09424,0-5.29883-.18555-6.76172-.38867V10.9082ZM34.78857,32.39355c.51953.09668,1.3501.10303,2.07617.10303,5.3916.04639,8.93604-2.93213,8.93604-9.22656.01221-5.4707-3.19043-8.34668-8.30859-8.34668-1.30176,0-2.17725.11035-2.70361.22705v17.24316Z"/>
      <path fill="#fff" d="M60.0166,15.54395h-7.10449v-4.99707h20.2627v4.99707h-7.20508v21.33105h-5.95312V15.54395Z"/>
    </g>
    <g>
      <path fill="#fff" d="M29.87109,56.30762h-.12598l-7.79297,3.70117-1.58594-7.19141,10.86572-5.04932h7.91064v40.98193h-9.27148v-32.44238Z"/>
      <path fill="#fff" d="M82.04102,47.76807v6.03174l-16.8916,34.9502h-10.16895l16.88867-32.95801v-.12598h-18.78906v-7.89795h28.96094Z"/>
    </g>
  </symbol>
  <symbol id="DT18" viewBox="0 0 100 100">
    <rect fill="#00aa8d" width="100" height="100" rx="17.5" ry="17.5"/>
    <g>
      <path fill="#fff" d="M28.84375,10.9082c2.19092-.35498,5.04297-.56641,8.02637-.56641,4.99512,0,8.2583.92139,10.78027,2.82568,2.73535,2.04102,4.45215,5.25244,4.45215,9.90674,0,5.04541-1.8252,8.53369-4.354,10.66602-2.76904,2.30762-7.01123,3.40918-12.14307,3.40918-3.09424,0-5.29883-.18555-6.76172-.38867V10.9082ZM34.78857,32.39355c.51953.09668,1.3501.10303,2.07617.10303,5.3916.04639,8.93604-2.93213,8.93604-9.22656.01221-5.4707-3.19043-8.34668-8.30859-8.34668-1.30176,0-2.17725.11035-2.70361.22705v17.24316Z"/>
      <path fill="#fff" d="M60.0166,15.54395h-7.10449v-4.99707h20.2627v4.99707h-7.20508v21.33105h-5.95312V15.54395Z"/>
    </g>
    <g>
      <path fill="#fff" d="M29.87109,56.30762h-.12598l-7.79297,3.70117-1.58594-7.19141,10.86572-5.04932h7.91064v40.98193h-9.27148v-32.44238Z"/>
      <path fill="#fff" d="M52.01953,78.05469c0-4.96973,2.82715-8.33105,7.30664-10.3125l-.00391-.14648c-3.97949-2.05664-5.92773-5.40527-5.92773-9.00098,0-6.94629,6.24023-11.52051,14.43848-11.52051,9.60742,0,13.58594,5.55664,13.58594,10.5127,0,3.53906-1.90918,7.0127-5.96387,9.05371v.14941c3.97949,1.54883,7.53809,4.90625,7.53809,10.20312,0,7.44336-6.24121,12.4502-15.7666,12.4502-10.41895,0-15.20703-5.83984-15.20703-11.38867ZM73.22363,77.69336c0-3.5625-2.69824-5.7002-6.46191-6.70898-3.1377.87207-4.96191,3.13477-4.96191,6.08203-.05078,2.97852,2.21387,5.77148,5.82129,5.77148,3.35742,0,5.60254-2.21094,5.60254-5.14453ZM62.44824,58.27734c-.00977,2.77051,2.46387,4.57422,5.78711,5.5791,2.19727-.61816,4.15918-2.66895,4.15918-5.22168,0-2.5293-1.45801-5.08984-5.00098-5.08984-3.26855,0-4.94531,2.19141-4.94531,4.73242Z"/>
    </g>
  </symbol>
  <symbol id="DT19" viewBox="0 0 100 100">
    <rect fill="#00aa8d" width="100" height="100" rx="17.5" ry="17.5"/>
    <g>
      <path fill="#fff" d="M28.84375,10.9082c2.19092-.35498,5.04297-.56641,8.02637-.56641,4.99512,0,8.2583.92139,10.78027,2.82568,2.73535,2.04102,4.45215,5.25244,4.45215,9.90674,0,5.04541-1.8252,8.53369-4.354,10.66602-2.76904,2.30762-7.01123,3.40918-12.14307,3.40918-3.09424,0-5.29883-.18555-6.76172-.38867V10.9082ZM34.78857,32.39355c.51953.09668,1.3501.10303,2.07617.10303,5.3916.04639,8.93604-2.93213,8.93604-9.22656.01221-5.4707-3.19043-8.34668-8.30859-8.34668-1.30176,0-2.17725.11035-2.70361.22705v17.24316Z"/>
      <path fill="#fff" d="M60.0166,15.54395h-7.10449v-4.99707h20.2627v4.99707h-7.20508v21.33105h-5.95312V15.54395Z"/>
    </g>
    <g>
      <path fill="#fff" d="M29.87109,56.30762h-.12598l-7.79297,3.70117-1.58594-7.19141,10.86572-5.04932h7.91064v40.98193h-9.27148v-32.44238Z"/>
      <path fill="#fff" d="M55.65332,81.83691c1.24023.13184,2.28223.09277,4.16992-.02051,2.92578-.16309,5.8916-1.01172,8.06738-2.51953,2.69238-1.81055,4.44629-4.50098,5.16016-7.59082l-.14844-.06445c-1.83984,1.8877-4.5166,2.95996-8.24316,2.95996-6.93262,0-12.74902-4.8125-12.74902-12.77246,0-8.00391,6.43164-14.75488,15.44238-14.75488,10.53125,0,15.49902,8.07812,15.49902,17.63672,0,8.54688-2.7002,14.75977-7.17578,18.88477-3.90723,3.53809-9.29297,5.46094-15.67773,5.70898-1.58496.12402-3.25684.07422-4.34473-.01074v-7.45703ZM61.44629,61.23633c.0127,3.53223,1.94336,6.56543,5.7998,6.56543,2.64355,0,4.44727-1.21875,5.35254-2.67578.30273-.57324.44629-1.22754.44629-2.40625.03711-4.36523-1.6123-8.63281-5.9834-8.63281-3.25586,0-5.63965,2.89844-5.61523,7.14941Z"/>
    </g>
  </symbol>
  <symbol id="DT20" viewBox="0 0 100 100">
    <rect fill="#00aa8d" width="100" height="100" rx="17.5" ry="17.5"/>
    <g>
      <path fill="#fff" d="M28.84375,10.9082c2.19092-.35498,5.04297-.56641,8.02637-.56641,4.99512,0,8.2583.92139,10.78027,2.82568,2.73535,2.04102,4.45215,5.25244,4.45215,9.90674,0,5.04541-1.8252,8.53369-4.354,10.66602-2.76904,2.30762-7.01123,3.40918-12.14307,3.40918-3.09424,0-5.29883-.18555-6.76172-.38867V10.9082ZM34.78857,32.39355c.51953.09668,1.3501.10303,2.07617.10303,5.3916.04639,8.93604-2.93213,8.93604-9.22656.01221-5.4707-3.19043-8.34668-8.30859-8.34668-1.30176,0-2.17725.11035-2.70361.22705v17.24316Z"/>
      <path fill="#fff" d="M60.0166,15.54395h-7.10449v-4.99707h20.2627v4.99707h-7.20508v21.33105h-5.95312V15.54395Z"/>
    </g>
    <g>
      <path fill="#fff" d="M17.66797,88.75v-5.80371l5.27441-4.76367c8.96924-8.05176,13.33496-12.63086,13.40967-17.42383,0-3.32617-1.96094-5.97754-6.70898-5.97754-3.5293,0-6.61182,1.76953-8.77197,3.36914l-2.68945-6.84668c3.05811-2.32471,7.88281-4.22949,13.39062-4.22949,9.30713,0,14.36377,5.42773,14.36377,12.84277,0,6.87695-4.9248,12.39844-10.89746,17.66113l-3.79541,3.14648v.12695h15.50439v7.89844h-29.07959Z"/>
      <path fill="#fff" d="M82.93945,68.08887c0,12.62695-5.12402,21.35449-15.57031,21.35449-10.60156,0-15.28125-9.50195-15.32129-21.09473,0-11.90625,4.99707-21.27441,15.5957-21.27441,10.95703,0,15.2959,9.77832,15.2959,21.01465ZM61.6416,68.30859c-.02441,9.43359,2.25586,13.89551,5.92285,13.89551,3.7334,0,5.78125-4.68164,5.78125-13.99512,0-9.08398-1.9834-13.8584-5.80176-13.8584-3.52637,0-5.91504,4.41992-5.90234,13.95801Z"/>
    </g>
  </symbol>
  <symbol id="DT21" viewBox="0 0 100 100">
    <rect fill="#00aa8d" width="100" height="100" rx="17.5" ry="17.5"/>
    <g>
      <path fill="#fff" d="M28.84375,10.9082c2.19092-.35498,5.04297-.56641,8.02637-.56641,4.99512,0,8.2583.92139,10.78027,2.82568,2.73535,2.04102,4.45215,5.25244,4.45215,9.90674,0,5.04541-1.8252,8.53369-4.354,10.66602-2.76904,2.30762-7.01123,3.40918-12.14307,3.40918-3.09424,0-5.29883-.18555-6.76172-.38867V10.9082ZM34.78857,32.39355c.51953.09668,1.3501.10303,2.07617.10303,5.3916.04639,8.93604-2.93213,8.93604-9.22656.01221-5.4707-3.19043-8.34668-8.30859-8.34668-1.30176,0-2.17725.11035-2.70361.22705v17.24316Z"/>
      <path fill="#fff" d="M60.0166,15.54395h-7.10449v-4.99707h20.2627v4.99707h-7.20508v21.33105h-5.95312V15.54395Z"/>
    </g>
    <g>
      <path fill="#fff" d="M17.66797,88.75v-5.80371l5.27441-4.76367c8.96924-8.05176,13.33496-12.63086,13.40967-17.42383,0-3.32617-1.96094-5.97754-6.70898-5.97754-3.5293,0-6.61182,1.76953-8.77197,3.36914l-2.68945-6.84668c3.05811-2.32471,7.88281-4.22949,13.39062-4.22949,9.30713,0,14.36377,5.42773,14.36377,12.84277,0,6.87695-4.9248,12.39844-10.89746,17.66113l-3.79541,3.14648v.12695h15.50439v7.89844h-29.07959Z"/>
      <path fill="#fff" d="M64.86719,56.30762h-.12598l-7.79297,3.70117-1.58594-7.19141,10.86621-5.04932h7.91016v40.98193h-9.27148v-32.44238Z"/>
    </g>
  </symbol>
  <symbol id="DT22" viewBox="0 0 100 100">
    <rect fill="#00aa8d" width="100" height="100" rx="17.5" ry="17.5"/>
    <g>
      <path fill="#fff" d="M28.84375,10.9082c2.19092-.35498,5.04297-.56641,8.02637-.56641,4.99512,0,8.2583.92139,10.78027,2.82568,2.73535,2.04102,4.45215,5.25244,4.45215,9.90674,0,5.04541-1.8252,8.53369-4.354,10.66602-2.76904,2.30762-7.01123,3.40918-12.14307,3.40918-3.09424,0-5.29883-.18555-6.76172-.38867V10.9082ZM34.78857,32.39355c.51953.09668,1.3501.10303,2.07617.10303,5.3916.04639,8.93604-2.93213,8.93604-9.22656.01221-5.4707-3.19043-8.34668-8.30859-8.34668-1.30176,0-2.17725.11035-2.70361.22705v17.24316Z"/>
      <path fill="#fff" d="M60.0166,15.54395h-7.10449v-4.99707h20.2627v4.99707h-7.20508v21.33105h-5.95312V15.54395Z"/>
    </g>
    <g>
      <path fill="#fff" d="M17.66797,88.75v-5.80371l5.27441-4.76367c8.96924-8.05176,13.33496-12.63086,13.40967-17.42383,0-3.32617-1.96094-5.97754-6.70898-5.97754-3.5293,0-6.61182,1.76953-8.77197,3.36914l-2.68945-6.84668c3.05811-2.32471,7.88281-4.22949,13.39062-4.22949,9.30713,0,14.36377,5.42773,14.36377,12.84277,0,6.87695-4.9248,12.39844-10.89746,17.66113l-3.79541,3.14648v.12695h15.50439v7.89844h-29.07959Z"/>
      <path fill="#fff" d="M52.66406,88.75v-5.80371l5.27441-4.76367c8.96875-8.05176,13.33496-12.63086,13.41016-17.42383,0-3.32617-1.96191-5.97754-6.70898-5.97754-3.5293,0-6.6123,1.76953-8.77246,3.36914l-2.68945-6.84668c3.05859-2.32471,7.88281-4.22949,13.39062-4.22949,9.30762,0,14.36328,5.42773,14.36328,12.84277,0,6.87695-4.92383,12.39844-10.89648,17.66113l-3.7959,3.14648v.12695h15.50488v7.89844h-29.08008Z"/>
    </g>
  </symbol>
  <symbol id="DT23" viewBox="0 0 100 100">
    <rect fill="#00aa8d" width="100" height="100" rx="17.5" ry="17.5"/>
    <g>
      <path fill="#fff" d="M28.84375,10.9082c2.19092-.35498,5.04297-.56641,8.02637-.56641,4.99512,0,8.2583.92139,10.78027,2.82568,2.73535,2.04102,4.45215,5.25244,4.45215,9.90674,0,5.04541-1.8252,8.53369-4.354,10.66602-2.76904,2.30762-7.01123,3.40918-12.14307,3.40918-3.09424,0-5.29883-.18555-6.76172-.38867V10.9082ZM34.78857,32.39355c.51953.09668,1.3501.10303,2.07617.10303,5.3916.04639,8.93604-2.93213,8.93604-9.22656.01221-5.4707-3.19043-8.34668-8.30859-8.34668-1.30176,0-2.17725.11035-2.70361.22705v17.24316Z"/>
      <path fill="#fff" d="M60.0166,15.54395h-7.10449v-4.99707h20.2627v4.99707h-7.20508v21.33105h-5.95312V15.54395Z"/>
    </g>
    <g>
      <path fill="#fff" d="M17.66797,88.75v-5.80371l5.27441-4.76367c8.96924-8.05176,13.33496-12.63086,13.40967-17.42383,0-3.32617-1.96094-5.97754-6.70898-5.97754-3.5293,0-6.61182,1.76953-8.77197,3.36914l-2.68945-6.84668c3.05811-2.32471,7.88281-4.22949,13.39062-4.22949,9.30713,0,14.36377,5.42773,14.36377,12.84277,0,6.87695-4.9248,12.39844-10.89746,17.66113l-3.79541,3.14648v.12695h15.50439v7.89844h-29.07959Z"/>
      <path fill="#fff" d="M54.3584,79.36621c1.67188.90039,5.63281,2.49512,9.53516,2.49512,4.96777,0,7.49805-2.38574,7.48828-5.44531-.02051-4.0625-4.03223-5.89844-8.26367-5.91113h-3.90625v-6.87891h3.74316c3.20898-.01172,7.25977-1.25488,7.25977-4.70703,0-2.44727-1.98535-4.28711-6.02637-4.28711-3.37109,0-6.89062,1.44629-8.55371,2.45508l-1.96875-6.90869c2.47656-1.59229,7.36523-3.104,12.67773-3.104,8.76465,0,13.60156,4.60059,13.60156,10.22852,0,4.30469-2.47461,7.74512-7.48926,9.50488v.12695c4.91211.88379,8.87988,4.59082,8.87988,9.9834,0,7.23438-6.37988,12.52539-16.76074,12.52539-5.31738,0-9.78613-1.36621-12.16016-2.87012l1.94336-7.20703Z"/>
    </g>
  </symbol>
  <symbol id="DT24" viewBox="0 0 100 100">
    <rect fill="#00aa8d" width="100" height="100" rx="17.5" ry="17.5"/>
    <g>
      <path fill="#fff" d="M28.84375,10.9082c2.19092-.35498,5.04297-.56641,8.02637-.56641,4.99512,0,8.2583.92139,10.78027,2.82568,2.73535,2.04102,4.45215,5.25244,4.45215,9.90674,0,5.04541-1.8252,8.53369-4.354,10.66602-2.76904,2.30762-7.01123,3.40918-12.14307,3.40918-3.09424,0-5.29883-.18555-6.76172-.38867V10.9082ZM34.78857,32.39355c.51953.09668,1.3501.10303,2.07617.10303,5.3916.04639,8.93604-2.93213,8.93604-9.22656.01221-5.4707-3.19043-8.34668-8.30859-8.34668-1.30176,0-2.17725.11035-2.70361.22705v17.24316Z"/>
      <path fill="#fff" d="M60.0166,15.54395h-7.10449v-4.99707h20.2627v4.99707h-7.20508v21.33105h-5.95312V15.54395Z"/>
    </g>
    <g>
      <path fill="#fff" d="M17.66797,88.75v-5.80371l5.27441-4.76367c8.96924-8.05176,13.33496-12.63086,13.40967-17.42383,0-3.32617-1.96094-5.97754-6.70898-5.97754-3.5293,0-6.61182,1.76953-8.77197,3.36914l-2.68945-6.84668c3.05811-2.32471,7.88281-4.22949,13.39062-4.22949,9.30713,0,14.36377,5.42773,14.36377,12.84277,0,6.87695-4.9248,12.39844-10.89746,17.66113l-3.79541,3.14648v.12695h15.50439v7.89844h-29.07959Z"/>
      <path fill="#fff" d="M69.63184,88.75v-9.79297h-18.16797v-6.21875l15.4834-24.97021h11.73535v24.01807h4.89355v7.1709h-4.89355v9.79297h-9.05078ZM69.63184,71.78613v-9.06152c0-2.46094.13086-4.99902.27344-7.63867l-.23047-.00977c-1.31055,2.6748-2.41406,5.04297-3.80176,7.60645l-5.46191,8.97754-.03711.12598h9.25781Z"/>
    </g>
  </symbol>
  <symbol id="DT25" viewBox="0 0 100 100">
    <rect fill="#00aa8d" width="100" height="100" rx="17.5" ry="17.5"/>
    <g>
      <path fill="#fff" d="M28.84375,10.9082c2.19092-.35498,5.04297-.56641,8.02637-.56641,4.99512,0,8.2583.92139,10.78027,2.82568,2.73535,2.04102,4.45215,5.25244,4.45215,9.90674,0,5.04541-1.8252,8.53369-4.354,10.66602-2.76904,2.30762-7.01123,3.40918-12.14307,3.40918-3.09424,0-5.29883-.18555-6.76172-.38867V10.9082ZM34.78857,32.39355c.51953.09668,1.3501.10303,2.07617.10303,5.3916.04639,8.93604-2.93213,8.93604-9.22656.01221-5.4707-3.19043-8.34668-8.30859-8.34668-1.30176,0-2.17725.11035-2.70361.22705v17.24316Z"/>
      <path fill="#fff" d="M60.0166,15.54395h-7.10449v-4.99707h20.2627v4.99707h-7.20508v21.33105h-5.95312V15.54395Z"/>
    </g>
    <g>
      <path fill="#fff" d="M17.66797,88.75v-5.80371l5.27441-4.76367c8.96924-8.05176,13.33496-12.63086,13.40967-17.42383,0-3.32617-1.96094-5.97754-6.70898-5.97754-3.5293,0-6.61182,1.76953-8.77197,3.36914l-2.68945-6.84668c3.05811-2.32471,7.88281-4.22949,13.39062-4.22949,9.30713,0,14.36377,5.42773,14.36377,12.84277,0,6.87695-4.9248,12.39844-10.89746,17.66113l-3.79541,3.14648v.12695h15.50439v7.89844h-29.07959Z"/>
      <path fill="#fff" d="M79.99805,55.66113h-15.90039l-.88281,6.27539c.9082-.10449,1.6709-.13477,2.6543-.13477,3.91113.0127,7.92773.91211,10.81152,2.95898,3.08203,2.11035,4.9668,5.52246,4.9668,10.30762,0,7.65234-6.5498,14.375-17.5957,14.375-4.9668,0-9.1123-1.14062-11.41602-2.3252l1.74512-7.20605c1.81543.89746,5.5332,2.04883,9.22852,2.04883,3.98828,0,8.21289-1.9082,8.20312-6.2666-.01074-4.19922-3.36914-6.80762-11.53711-6.80762-2.24805,0-3.85059.1582-5.51758.37891l2.66016-21.49756h22.58008v7.89307Z"/>
    </g>
  </symbol>
  <symbol id="DT26" viewBox="0 0 100 100">
    <rect fill="#00aa8d" width="100" height="100" rx="17.5" ry="17.5"/>
    <g>
      <path fill="#fff" d="M28.84375,10.9082c2.19092-.35498,5.04297-.56641,8.02637-.56641,4.99512,0,8.2583.92139,10.78027,2.82568,2.73535,2.04102,4.45215,5.25244,4.45215,9.90674,0,5.04541-1.8252,8.53369-4.354,10.66602-2.76904,2.30762-7.01123,3.40918-12.14307,3.40918-3.09424,0-5.29883-.18555-6.76172-.38867V10.9082ZM34.78857,32.39355c.51953.09668,1.3501.10303,2.07617.10303,5.3916.04639,8.93604-2.93213,8.93604-9.22656.01221-5.4707-3.19043-8.34668-8.30859-8.34668-1.30176,0-2.17725.11035-2.70361.22705v17.24316Z"/>
      <path fill="#fff" d="M60.0166,15.54395h-7.10449v-4.99707h20.2627v4.99707h-7.20508v21.33105h-5.95312V15.54395Z"/>
    </g>
    <g>
      <path fill="#fff" d="M17.66797,88.75v-5.80371l5.27441-4.76367c8.96924-8.05176,13.33496-12.63086,13.40967-17.42383,0-3.32617-1.96094-5.97754-6.70898-5.97754-3.5293,0-6.61182,1.76953-8.77197,3.36914l-2.68945-6.84668c3.05811-2.32471,7.88281-4.22949,13.39062-4.22949,9.30713,0,14.36377,5.42773,14.36377,12.84277,0,6.87695-4.9248,12.39844-10.89746,17.66113l-3.79541,3.14648v.12695h15.50439v7.89844h-29.07959Z"/>
      <path fill="#fff" d="M78.8252,54.60547c-1.10156-.06152-2.23926-.02051-3.74316.10254-8.52441.68555-12.28613,5.01953-13.37598,9.80176h.18848c2.05273-2.02832,4.89746-3.24805,8.69727-3.24805,6.87891,0,12.68848,4.84863,12.68848,13.38574,0,8.13477-6.23535,14.7959-15.10449,14.7959-10.93262,0-16.27246-8.14355-16.27246-17.87695,0-7.7373,2.82617-14.15527,7.26562-18.26758,4.07812-3.72949,9.3916-5.72998,15.78418-6.0376,1.76855-.14453,2.94336-.09668,3.8623-.0376l.00977,7.38184ZM73.56152,75.14844c-.0127-3.7998-1.99609-7.0625-6.08789-7.0625-2.5752,0-4.74121,1.56543-5.66016,3.62012-.27539.54785-.41992,1.29297-.41992,2.43945.19043,4.32812,2.27246,8.24805,6.6416,8.24805,3.39844,0,5.52637-3.07617,5.52637-7.24512Z"/>
    </g>
  </symbol>
  <symbol id="DT27" viewBox="0 0 100 100">
    <rect fill="#00aa8d" width="100" height="100" rx="17.5" ry="17.5"/>
    <g>
      <path fill="#fff" d="M28.84375,10.9082c2.19092-.35498,5.04297-.56641,8.02637-.56641,4.99512,0,8.2583.92139,10.78027,2.82568,2.73535,2.04102,4.45215,5.25244,4.45215,9.90674,0,5.04541-1.8252,8.53369-4.354,10.66602-2.76904,2.30762-7.01123,3.40918-12.14307,3.40918-3.09424,0-5.29883-.18555-6.76172-.38867V10.9082ZM34.78857,32.39355c.51953.09668,1.3501.10303,2.07617.10303,5.3916.04639,8.93604-2.93213,8.93604-9.22656.01221-5.4707-3.19043-8.34668-8.30859-8.34668-1.30176,0-2.17725.11035-2.70361.22705v17.24316Z"/>
      <path fill="#fff" d="M60.0166,15.54395h-7.10449v-4.99707h20.2627v4.99707h-7.20508v21.33105h-5.95312V15.54395Z"/>
    </g>
    <g>
      <path fill="#fff" d="M17.66797,88.75v-5.80371l5.27441-4.76367c8.96924-8.05176,13.33496-12.63086,13.40967-17.42383,0-3.32617-1.96094-5.97754-6.70898-5.97754-3.5293,0-6.61182,1.76953-8.77197,3.36914l-2.68945-6.84668c3.05811-2.32471,7.88281-4.22949,13.39062-4.22949,9.30713,0,14.36377,5.42773,14.36377,12.84277,0,6.87695-4.9248,12.39844-10.89746,17.66113l-3.79541,3.14648v.12695h15.50439v7.89844h-29.07959Z"/>
      <path fill="#fff" d="M82.04102,47.76807v6.03174l-16.8916,34.9502h-10.16895l16.88867-32.95801v-.12598h-18.78906v-7.89795h28.96094Z"/>
    </g>
  </symbol>
</svg>
