<?xml version="1.0" encoding="UTF-8"?>
<svg xmlns="http://www.w3.org/2000/svg" xmlns:xlink="http://www.w3.org/1999/xlink">
  <symbol id="SH" viewBox="0 0 100 100">
    <rect fill="#7f268a" width="100" height="100" rx="17.5" ry="17.5"/>
    <g>
      <path fill="#fff" d="M17.76172,60.66602c2.39551,1.28516,6.15723,2.51172,10.0249,2.51172,4.15381,0,6.35547-1.72461,6.35547-4.35742,0-2.45605-1.90771-3.90332-6.69629-5.58984-6.67236-2.36719-11.03271-6.00293-11.03271-11.84521,0-6.81934,5.72559-12.00439,15.12891-12.00439,4.56104,0,7.854.90576,10.21289,2.0127l-1.99854,7.25244c-1.58594-.75684-4.46533-1.89893-8.34863-1.89893-3.93799,0-5.81738,1.82227-5.81738,3.86768,0,2.54053,2.21533,3.66406,7.40381,5.62305,7.08105,2.64697,10.35986,6.32275,10.35986,11.97705,0,6.67773-5.11328,12.4082-16.12354,12.4082-4.5332,0-9.06836-1.23242-11.29736-2.48633l1.82861-7.4707Z"/>
      <path fill="#fff" d="M58.55664,30.00391v15.3833h14.91211v-15.3833h9.04297v39.99609h-9.04297v-16.73633h-14.91211v16.73633h-9.04248V30.00391h9.04248Z"/>
    </g>
  </symbol>
  <symbol id="SH01" viewBox="0 0 100 100">
    <rect fill="#7f268a" width="100" height="100" rx="17.5" ry="17.5"/>
    <g>
      <path fill="#fff" d="M28.78369,30.73047c1.57715.84619,4.05322,1.65332,6.59912,1.65332,2.73438,0,4.18359-1.13477,4.18359-2.86768,0-1.6167-1.25586-2.56982-4.40771-3.68018-4.39258-1.55811-7.2627-3.95117-7.2627-7.79688,0-4.48926,3.76904-7.90234,9.95898-7.90234,3.00195,0,5.16992.59619,6.72266,1.3252l-1.31543,4.77393c-1.04395-.49805-2.93945-1.25-5.49561-1.25-2.59229,0-3.82959,1.19971-3.82959,2.5459,0,1.67236,1.4585,2.41162,4.87354,3.70166,4.66162,1.74219,6.81982,4.16162,6.81982,7.88379,0,4.39551-3.36572,8.16797-10.61377,8.16797-2.98389,0-5.96924-.81152-7.43652-1.63672l1.20361-4.91797Z"/>
      <path fill="#fff" d="M55.63281,10.54688v10.12646h9.81641v-10.12646h5.95312v26.32812h-5.95312v-11.01758h-9.81641v11.01758h-5.95166V10.54688h5.95166Z"/>
    </g>
    <g>
      <path fill="#fff" d="M47.94385,68.08887c0,12.62695-5.12451,21.35449-15.5708,21.35449-10.60107,0-15.28125-9.50195-15.32129-21.09473,0-11.90625,4.99658-21.27441,15.5957-21.27441,10.95752,0,15.29639,9.77832,15.29639,21.01465ZM26.64551,68.30859c-.0249,9.43359,2.25586,13.89551,5.92285,13.89551,3.73291,0,5.78174-4.68164,5.78174-13.99512,0-9.08398-1.98389-13.8584-5.80273-13.8584-3.52637,0-5.91406,4.41992-5.90186,13.95801Z"/>
      <path fill="#fff" d="M64.86719,56.30762h-.12598l-7.79297,3.70117-1.58594-7.19141,10.86621-5.04932h7.91016v40.98193h-9.27148v-32.44238Z"/>
    </g>
  </symbol>
  <symbol id="SH02" viewBox="0 0 100 100">
    <rect fill="#7f268a" width="100" height="100" rx="17.5" ry="17.5"/>
    <g>
      <path fill="#fff" d="M28.78369,30.73047c1.57715.84619,4.05322,1.65332,6.59912,1.65332,2.73438,0,4.18359-1.13477,4.18359-2.86768,0-1.6167-1.25586-2.56982-4.40771-3.68018-4.39258-1.55811-7.2627-3.95117-7.2627-7.79688,0-4.48926,3.76904-7.90234,9.95898-7.90234,3.00195,0,5.16992.59619,6.72266,1.3252l-1.31543,4.77393c-1.04395-.49805-2.93945-1.25-5.49561-1.25-2.59229,0-3.82959,1.19971-3.82959,2.5459,0,1.67236,1.4585,2.41162,4.87354,3.70166,4.66162,1.74219,6.81982,4.16162,6.81982,7.88379,0,4.39551-3.36572,8.16797-10.61377,8.16797-2.98389,0-5.96924-.81152-7.43652-1.63672l1.20361-4.91797Z"/>
      <path fill="#fff" d="M55.63281,10.54688v10.12646h9.81641v-10.12646h5.95312v26.32812h-5.95312v-11.01758h-9.81641v11.01758h-5.95166V10.54688h5.95166Z"/>
    </g>
    <g>
      <path fill="#fff" d="M47.94385,68.08887c0,12.62695-5.12451,21.35449-15.5708,21.35449-10.60107,0-15.28125-9.50195-15.32129-21.09473,0-11.90625,4.99658-21.27441,15.5957-21.27441,10.95752,0,15.29639,9.77832,15.29639,21.01465ZM26.64551,68.30859c-.0249,9.43359,2.25586,13.89551,5.92285,13.89551,3.73291,0,5.78174-4.68164,5.78174-13.99512,0-9.08398-1.98389-13.8584-5.80273-13.8584-3.52637,0-5.91406,4.41992-5.90186,13.95801Z"/>
      <path fill="#fff" d="M52.66406,88.75v-5.80371l5.27441-4.76367c8.96875-8.05176,13.33496-12.63086,13.41016-17.42383,0-3.32617-1.96191-5.97754-6.70898-5.97754-3.5293,0-6.6123,1.76953-8.77246,3.36914l-2.68945-6.84668c3.05859-2.32471,7.88281-4.22949,13.39062-4.22949,9.30762,0,14.36328,5.42773,14.36328,12.84277,0,6.87695-4.92383,12.39844-10.89648,17.66113l-3.7959,3.14648v.12695h15.50488v7.89844h-29.08008Z"/>
    </g>
  </symbol>
  <symbol id="SH03" viewBox="0 0 100 100">
    <rect fill="#7f268a" width="100" height="100" rx="17.5" ry="17.5"/>
    <g>
      <path fill="#fff" d="M28.78369,30.73047c1.57715.84619,4.05322,1.65332,6.59912,1.65332,2.73438,0,4.18359-1.13477,4.18359-2.86768,0-1.6167-1.25586-2.56982-4.40771-3.68018-4.39258-1.55811-7.2627-3.95117-7.2627-7.79688,0-4.48926,3.76904-7.90234,9.95898-7.90234,3.00195,0,5.16992.59619,6.72266,1.3252l-1.31543,4.77393c-1.04395-.49805-2.93945-1.25-5.49561-1.25-2.59229,0-3.82959,1.19971-3.82959,2.5459,0,1.67236,1.4585,2.41162,4.87354,3.70166,4.66162,1.74219,6.81982,4.16162,6.81982,7.88379,0,4.39551-3.36572,8.16797-10.61377,8.16797-2.98389,0-5.96924-.81152-7.43652-1.63672l1.20361-4.91797Z"/>
      <path fill="#fff" d="M55.63281,10.54688v10.12646h9.81641v-10.12646h5.95312v26.32812h-5.95312v-11.01758h-9.81641v11.01758h-5.95166V10.54688h5.95166Z"/>
    </g>
    <g>
      <path fill="#fff" d="M47.94385,68.08887c0,12.62695-5.12451,21.35449-15.5708,21.35449-10.60107,0-15.28125-9.50195-15.32129-21.09473,0-11.90625,4.99658-21.27441,15.5957-21.27441,10.95752,0,15.29639,9.77832,15.29639,21.01465ZM26.64551,68.30859c-.0249,9.43359,2.25586,13.89551,5.92285,13.89551,3.73291,0,5.78174-4.68164,5.78174-13.99512,0-9.08398-1.98389-13.8584-5.80273-13.8584-3.52637,0-5.91406,4.41992-5.90186,13.95801Z"/>
      <path fill="#fff" d="M54.3584,79.36621c1.67188.90039,5.63281,2.49512,9.53516,2.49512,4.96777,0,7.49805-2.38574,7.48828-5.44531-.02051-4.0625-4.03223-5.89844-8.26367-5.91113h-3.90625v-6.87891h3.74316c3.20898-.01172,7.25977-1.25488,7.25977-4.70703,0-2.44727-1.98535-4.28711-6.02637-4.28711-3.37109,0-6.89062,1.44629-8.55371,2.45508l-1.96875-6.90869c2.47656-1.59229,7.36523-3.104,12.67773-3.104,8.76465,0,13.60156,4.60059,13.60156,10.22852,0,4.30469-2.47461,7.74512-7.48926,9.50488v.12695c4.91211.88379,8.87988,4.59082,8.87988,9.9834,0,7.23438-6.37988,12.52539-16.76074,12.52539-5.31738,0-9.78613-1.36621-12.16016-2.87012l1.94336-7.20703Z"/>
    </g>
  </symbol>
</svg>
