<?xml version="1.0" encoding="UTF-8"?>
<svg xmlns="http://www.w3.org/2000/svg" xmlns:xlink="http://www.w3.org/1999/xlink">
  <!-- DIC-163 -->
  <symbol id="G" viewBox="0 0 100 100">
    <circle fill="#ff9500" cx="50" cy="50" r="50"/>
    <circle fill="#fff" cx="50" cy="50" r="27.15"/>
    <path fill="#231815" d="M50.25244,48.25781h16.354c0,1.68213-.07031,3.20996-.20996,4.58301-.14062,1.37305-.41992,2.64844-.84082,3.8252-.58887,1.6543-1.3877,3.11914-2.39648,4.39355-1.00879,1.27637-2.19336,2.34082-3.55273,3.19531-1.35938.85547-2.85254,1.50684-4.47754,1.95508-1.62598.44824-3.33594.67285-5.12891.67285-2.46631,0-4.71582-.40625-6.74756-1.21875-2.03271-.81348-3.77734-1.95508-5.23438-3.42676-1.45752-1.47168-2.59277-3.2373-3.40527-5.29785-.81348-2.05957-1.21924-4.33691-1.21924-6.83154,0-2.46582.39941-4.72998,1.19824-6.79004s1.93359-3.81836,3.40527-5.27637c1.47168-1.45703,3.24365-2.5918,5.31836-3.40527,2.07373-.8125,4.38623-1.21924,6.93701-1.21924,3.30713,0,6.20752.71484,8.70264,2.14404,2.49414,1.42969,4.4707,3.64404,5.92773,6.64307l-7.81934,3.2373c-.72949-1.73779-1.67578-2.98535-2.83789-3.74219-1.16406-.75635-2.48828-1.13477-3.97314-1.13477-1.23389,0-2.35449.23096-3.36328.69336-1.00928.4624-1.87109,1.12158-2.58594,1.97607-.71436.85547-1.27539,1.88525-1.68164,3.09033s-.60938,2.55078-.60938,4.03613c0,1.34473.1748,2.59277.52539,3.74121.3501,1.14941.87549,2.14453,1.57666,2.98535.7002.84082,1.56934,1.49219,2.60645,1.95508,1.03662.46191,2.24219.69336,3.61572.69336.81201,0,1.59717-.09082,2.354-.27344.75684-.18164,1.43652-.47559,2.03906-.88281.60254-.40625,1.09961-.93164,1.49316-1.57617.3916-.64453.6582-1.42969.79883-2.35449h-6.76904v-6.39062Z"/>
  </symbol>
  <symbol id="G01" viewBox="0 0 100 100">
    <circle fill="#ff9500" cx="50" cy="50" r="50"/>
    <circle fill="#fff" cx="50" cy="50" r="37.8"/>
    <path fill="#231815" d="M50.19824,28.81982h12.79492c0,1.31592-.05566,2.51123-.16504,3.58545-.10938,1.07471-.3291,2.07227-.65723,2.99316-.46094,1.29395-1.08594,2.43945-1.875,3.43701-.78906.99854-1.71582,1.83154-2.7793,2.49951-1.06445.66895-2.23145,1.17871-3.50293,1.5293-1.27246.35059-2.61035.52637-4.0127.52637-1.92969,0-3.68945-.31738-5.27881-.95312-1.59033-.63574-2.95508-1.53027-4.09521-2.68066-1.14062-1.15186-2.02832-2.5332-2.66406-4.14453-.63623-1.61182-.9541-3.39307-.9541-5.34521,0-1.9292.3125-3.7002.9375-5.31201.625-1.61133,1.51318-2.9873,2.66406-4.12744,1.15137-1.14014,2.53809-2.02832,4.16113-2.66455,1.62207-.63574,3.43115-.95361,5.42676-.95361,2.58691,0,4.85645.55908,6.80859,1.67725,1.95117,1.11865,3.49707,2.85107,4.6377,5.19678l-6.11816,2.53271c-.57031-1.35938-1.31055-2.33496-2.21973-2.92725-.91016-.5918-1.94629-.88818-3.1084-.88818-.96484,0-1.8418.18115-2.63135.54297-.78906.36182-1.46338.87695-2.02246,1.5459-.55957.66895-.99805,1.4751-1.31592,2.41748-.31787.94287-.47705,1.99561-.47705,3.15771,0,1.05225.13672,2.02832.41113,2.92725.27393.89941.68506,1.67725,1.2334,2.33496.54785.6582,1.22803,1.16797,2.03955,1.52979.81104.36182,1.75391.54248,2.82861.54248.63574,0,1.24951-.0708,1.84131-.21387.59277-.14209,1.12402-.37256,1.5957-.69043.4707-.31787.86035-.729,1.16797-1.2334.30664-.50439.51465-1.11865.62402-1.84229h-5.29492v-4.99951Z"/>
    <g>
      <path fill="#231815" d="M26.62891,63.01465c0-2.125.27734-4.05469.83252-5.79004.5542-1.73535,1.3335-3.2168,2.33691-4.44434s2.1958-2.17773,3.57666-2.85059,2.90918-1.00928,4.58594-1.00928c1.65186,0,3.1748.33643,4.56787,1.00928,1.39258.67285,2.58496,1.62305,3.57666,2.85059.99121,1.22754,1.76416,2.70898,2.31934,4.44434.5542,1.73535.83203,3.66504.83203,5.79004,0,2.12402-.27783,4.05371-.83203,5.78906-.55518,1.73535-1.32812,3.22266-2.31934,4.46191-.9917,1.23926-2.18408,2.19531-3.57666,2.86816-1.39307.67285-2.91602,1.00879-4.56787,1.00879-1.67676,0-3.20508-.33594-4.58594-1.00879s-2.57324-1.62891-3.57666-2.86816-1.78271-2.72656-2.33691-4.46191c-.55518-1.73535-.83252-3.66504-.83252-5.78906ZM33.49902,63.01465c0,1.18066.10596,2.25391.31836,3.22168.21289.96875.51367,1.80664.90332,2.51465s.85547,1.25684,1.39844,1.64648,1.15674.58398,1.8418.58398c.66064,0,1.26855-.19434,1.82324-.58398s1.021-.93848,1.39893-1.64648c.37744-.70801.67285-1.5459.88525-2.51465.2124-.96777.31885-2.04102.31885-3.22168,0-1.15723-.10645-2.22559-.31885-3.20508s-.50781-1.81738-.88525-2.51465c-.37793-.69531-.84424-1.23926-1.39893-1.62891s-1.1626-.58398-1.82324-.58398c-.68506,0-1.29883.19434-1.8418.58398s-1.00879.93359-1.39844,1.62891c-.38965.69727-.69043,1.53516-.90332,2.51465-.2124.97949-.31836,2.04785-.31836,3.20508Z"/>
      <path fill="#231815" d="M59.38379,55.57812h-3.89453v-5.87891h10.83594v26.7002h-6.94141v-20.82129Z"/>
    </g>
  </symbol>
  <symbol id="G02" viewBox="0 0 100 100">
    <circle fill="#ff9500" cx="50" cy="50" r="50"/>
    <circle fill="#fff" cx="50" cy="50" r="37.8"/>
    <path fill="#231815" d="M50.19824,28.81982h12.79492c0,1.31592-.05566,2.51123-.16504,3.58545-.10938,1.07471-.3291,2.07227-.65723,2.99316-.46094,1.29395-1.08594,2.43945-1.875,3.43701-.78906.99854-1.71582,1.83154-2.7793,2.49951-1.06445.66895-2.23145,1.17871-3.50293,1.5293-1.27246.35059-2.61035.52637-4.0127.52637-1.92969,0-3.68945-.31738-5.27881-.95312-1.59033-.63574-2.95508-1.53027-4.09521-2.68066-1.14062-1.15186-2.02832-2.5332-2.66406-4.14453-.63623-1.61182-.9541-3.39307-.9541-5.34521,0-1.9292.3125-3.7002.9375-5.31201.625-1.61133,1.51318-2.9873,2.66406-4.12744,1.15137-1.14014,2.53809-2.02832,4.16113-2.66455,1.62207-.63574,3.43115-.95361,5.42676-.95361,2.58691,0,4.85645.55908,6.80859,1.67725,1.95117,1.11865,3.49707,2.85107,4.6377,5.19678l-6.11816,2.53271c-.57031-1.35938-1.31055-2.33496-2.21973-2.92725-.91016-.5918-1.94629-.88818-3.1084-.88818-.96484,0-1.8418.18115-2.63135.54297-.78906.36182-1.46338.87695-2.02246,1.5459-.55957.66895-.99805,1.4751-1.31592,2.41748-.31787.94287-.47705,1.99561-.47705,3.15771,0,1.05225.13672,2.02832.41113,2.92725.27393.89941.68506,1.67725,1.2334,2.33496.54785.6582,1.22803,1.16797,2.03955,1.52979.81104.36182,1.75391.54248,2.82861.54248.63574,0,1.24951-.0708,1.84131-.21387.59277-.14209,1.12402-.37256,1.5957-.69043.4707-.31787.86035-.729,1.16797-1.2334.30664-.50439.51465-1.11865.62402-1.84229h-5.29492v-4.99951Z"/>
    <g>
      <path fill="#231815" d="M26.62891,63.01465c0-2.125.27734-4.05469.83252-5.79004.5542-1.73535,1.3335-3.2168,2.33691-4.44434s2.1958-2.17773,3.57666-2.85059,2.90918-1.00928,4.58594-1.00928c1.65186,0,3.1748.33643,4.56787,1.00928,1.39258.67285,2.58496,1.62305,3.57666,2.85059.99121,1.22754,1.76416,2.70898,2.31934,4.44434.5542,1.73535.83203,3.66504.83203,5.79004,0,2.12402-.27783,4.05371-.83203,5.78906-.55518,1.73535-1.32812,3.22266-2.31934,4.46191-.9917,1.23926-2.18408,2.19531-3.57666,2.86816-1.39307.67285-2.91602,1.00879-4.56787,1.00879-1.67676,0-3.20508-.33594-4.58594-1.00879s-2.57324-1.62891-3.57666-2.86816-1.78271-2.72656-2.33691-4.46191c-.55518-1.73535-.83252-3.66504-.83252-5.78906ZM33.49902,63.01465c0,1.18066.10596,2.25391.31836,3.22168.21289.96875.51367,1.80664.90332,2.51465s.85547,1.25684,1.39844,1.64648,1.15674.58398,1.8418.58398c.66064,0,1.26855-.19434,1.82324-.58398s1.021-.93848,1.39893-1.64648c.37744-.70801.67285-1.5459.88525-2.51465.2124-.96777.31885-2.04102.31885-3.22168,0-1.15723-.10645-2.22559-.31885-3.20508s-.50781-1.81738-.88525-2.51465c-.37793-.69531-.84424-1.23926-1.39893-1.62891s-1.1626-.58398-1.82324-.58398c-.68506,0-1.29883.19434-1.8418.58398s-1.00879.93359-1.39844,1.62891c-.38965.69727-.69043,1.53516-.90332,2.51465-.2124.97949-.31836,2.04785-.31836,3.20508Z"/>
      <path fill="#231815" d="M72.48633,76.39941h-21.49414l6.62109-6.86914c1.74707-1.81836,3.11621-3.3584,4.1084-4.62109.99121-1.2627,1.72852-2.33105,2.21289-3.20508.4834-.87305.78418-1.58105.90332-2.125.11719-.54297.17676-1.00293.17676-1.38086,0-.40137-.06543-.79102-.19434-1.16895-.13086-.37695-.3252-.71289-.58496-1.00879-.25977-.29492-.57227-.53125-.93848-.70801-.36621-.17773-.79688-.26562-1.29199-.26562-.94434,0-1.68262.30664-2.21387.9209-.53027.61328-.7959,1.38086-.7959,2.30176,0,.25977.03516.63672.10547,1.13281h-7.57812c0-1.55859.25391-2.97461.76172-4.24902.50781-1.27539,1.22168-2.37305,2.14258-3.29395.9209-.92041,2.0127-1.62891,3.27539-2.12451,1.2627-.49609,2.64941-.74365,4.16113-.74365,1.4873,0,2.8623.23633,4.125.70801,1.2627.47266,2.35547,1.1333,3.27539,1.9834.9209.84961,1.64062,1.85938,2.16016,3.02734.51953,1.16895.7793,2.43848.7793,3.80664,0,1.46484-.31348,2.81543-.93848,4.05469-.62598,1.23926-1.62305,2.50879-2.99219,3.80664l-4.42676,4.14355h8.64062v5.87793Z"/>
    </g>
  </symbol>
  <symbol id="G03" viewBox="0 0 100 100">
    <circle fill="#ff9500" cx="50" cy="50" r="50"/>
    <circle fill="#fff" cx="50" cy="50" r="37.8"/>
    <path fill="#231815" d="M50.19824,28.81982h12.79492c0,1.31592-.05566,2.51123-.16504,3.58545-.10938,1.07471-.3291,2.07227-.65723,2.99316-.46094,1.29395-1.08594,2.43945-1.875,3.43701-.78906.99854-1.71582,1.83154-2.7793,2.49951-1.06445.66895-2.23145,1.17871-3.50293,1.5293-1.27246.35059-2.61035.52637-4.0127.52637-1.92969,0-3.68945-.31738-5.27881-.95312-1.59033-.63574-2.95508-1.53027-4.09521-2.68066-1.14062-1.15186-2.02832-2.5332-2.66406-4.14453-.63623-1.61182-.9541-3.39307-.9541-5.34521,0-1.9292.3125-3.7002.9375-5.31201.625-1.61133,1.51318-2.9873,2.66406-4.12744,1.15137-1.14014,2.53809-2.02832,4.16113-2.66455,1.62207-.63574,3.43115-.95361,5.42676-.95361,2.58691,0,4.85645.55908,6.80859,1.67725,1.95117,1.11865,3.49707,2.85107,4.6377,5.19678l-6.11816,2.53271c-.57031-1.35938-1.31055-2.33496-2.21973-2.92725-.91016-.5918-1.94629-.88818-3.1084-.88818-.96484,0-1.8418.18115-2.63135.54297-.78906.36182-1.46338.87695-2.02246,1.5459-.55957.66895-.99805,1.4751-1.31592,2.41748-.31787.94287-.47705,1.99561-.47705,3.15771,0,1.05225.13672,2.02832.41113,2.92725.27393.89941.68506,1.67725,1.2334,2.33496.54785.6582,1.22803,1.16797,2.03955,1.52979.81104.36182,1.75391.54248,2.82861.54248.63574,0,1.24951-.0708,1.84131-.21387.59277-.14209,1.12402-.37256,1.5957-.69043.4707-.31787.86035-.729,1.16797-1.2334.30664-.50439.51465-1.11865.62402-1.84229h-5.29492v-4.99951Z"/>
    <g>
      <path fill="#231815" d="M26.62891,63.01465c0-2.125.27734-4.05469.83252-5.79004.5542-1.73535,1.3335-3.2168,2.33691-4.44434s2.1958-2.17773,3.57666-2.85059,2.90918-1.00928,4.58594-1.00928c1.65186,0,3.1748.33643,4.56787,1.00928,1.39258.67285,2.58496,1.62305,3.57666,2.85059.99121,1.22754,1.76416,2.70898,2.31934,4.44434.5542,1.73535.83203,3.66504.83203,5.79004,0,2.12402-.27783,4.05371-.83203,5.78906-.55518,1.73535-1.32812,3.22266-2.31934,4.46191-.9917,1.23926-2.18408,2.19531-3.57666,2.86816-1.39307.67285-2.91602,1.00879-4.56787,1.00879-1.67676,0-3.20508-.33594-4.58594-1.00879s-2.57324-1.62891-3.57666-2.86816-1.78271-2.72656-2.33691-4.46191c-.55518-1.73535-.83252-3.66504-.83252-5.78906ZM33.49902,63.01465c0,1.18066.10596,2.25391.31836,3.22168.21289.96875.51367,1.80664.90332,2.51465s.85547,1.25684,1.39844,1.64648,1.15674.58398,1.8418.58398c.66064,0,1.26855-.19434,1.82324-.58398s1.021-.93848,1.39893-1.64648c.37744-.70801.67285-1.5459.88525-2.51465.2124-.96777.31885-2.04102.31885-3.22168,0-1.15723-.10645-2.22559-.31885-3.20508s-.50781-1.81738-.88525-2.51465c-.37793-.69531-.84424-1.23926-1.39893-1.62891s-1.1626-.58398-1.82324-.58398c-.68506,0-1.29883.19434-1.8418.58398s-1.00879.93359-1.39844,1.62891c-.38965.69727-.69043,1.53516-.90332,2.51465-.2124.97949-.31836,2.04785-.31836,3.20508Z"/>
      <path fill="#231815" d="M60.58789,60.11035c.18945.02441.34863.03516.47852.03516h.33594c.87305,0,1.58203-.25879,2.125-.77832s.81445-1.19238.81445-2.01855c0-.80273-.25391-1.45215-.76172-1.94824-.50781-.49512-1.16309-.74316-1.96484-.74316-.84961,0-1.53516.2832-2.05371.84961-.51953.56641-.7793,1.29883-.7793,2.19531h-6.40918c.16504-1.39258.51367-2.63184,1.04395-3.71777.53125-1.08594,1.20996-2.00098,2.03613-2.74414.82617-.74414,1.79395-1.31055,2.9043-1.7002,1.10938-.38965,2.33691-.58447,3.68262-.58447,1.32227,0,2.51953.18311,3.59473.54883,1.07324.3667,1.99414.88525,2.76172,1.55811.7666.67285,1.35742,1.4873,1.77051,2.44336s.62012,2.02539.62012,3.20508c0,1.27441-.24316,2.31934-.72656,3.13379-.48438.81445-1.1748,1.51758-2.07129,2.10742,1.36914.4248,2.4375,1.18555,3.20508,2.28418.7666,1.09766,1.15039,2.44922,1.15039,4.05371,0,1.32324-.25977,2.52637-.7793,3.6123s-1.24512,2.01855-2.17773,2.79688c-.93262.7793-2.04199,1.38184-3.32812,1.80664-1.28711.4248-2.69727.63672-4.23242.63672-2.05371,0-3.90723-.40137-5.55957-1.20312-1.65234-.80273-2.97363-2.07715-3.96582-3.82422-.44824-.7793-.74902-1.55859-.90234-2.33789-.1543-.77832-.23047-1.56934-.23047-2.37207h6.87012c.04688,1.25195.41211,2.20117,1.09766,2.85059.68359.64941,1.60449.97363,2.76172.97363,1.22754,0,2.125-.33008,2.69141-.99121s.84961-1.47559.84961-2.44336c0-1.15625-.34277-2.03027-1.02637-2.62109-.68555-.58887-1.5-.88477-2.44336-.88477-.23633,0-.46094.01758-.67285.05273-.21289.03613-.44922.07715-.70898.12402v-4.35547Z"/>
    </g>
  </symbol>
  <symbol id="G04" viewBox="0 0 100 100">
    <circle fill="#ff9500" cx="50" cy="50" r="50"/>
    <circle fill="#fff" cx="50" cy="50" r="37.8"/>
    <path fill="#231815" d="M50.19824,28.81982h12.79492c0,1.31592-.05566,2.51123-.16504,3.58545-.10938,1.07471-.3291,2.07227-.65723,2.99316-.46094,1.29395-1.08594,2.43945-1.875,3.43701-.78906.99854-1.71582,1.83154-2.7793,2.49951-1.06445.66895-2.23145,1.17871-3.50293,1.5293-1.27246.35059-2.61035.52637-4.0127.52637-1.92969,0-3.68945-.31738-5.27881-.95312-1.59033-.63574-2.95508-1.53027-4.09521-2.68066-1.14062-1.15186-2.02832-2.5332-2.66406-4.14453-.63623-1.61182-.9541-3.39307-.9541-5.34521,0-1.9292.3125-3.7002.9375-5.31201.625-1.61133,1.51318-2.9873,2.66406-4.12744,1.15137-1.14014,2.53809-2.02832,4.16113-2.66455,1.62207-.63574,3.43115-.95361,5.42676-.95361,2.58691,0,4.85645.55908,6.80859,1.67725,1.95117,1.11865,3.49707,2.85107,4.6377,5.19678l-6.11816,2.53271c-.57031-1.35938-1.31055-2.33496-2.21973-2.92725-.91016-.5918-1.94629-.88818-3.1084-.88818-.96484,0-1.8418.18115-2.63135.54297-.78906.36182-1.46338.87695-2.02246,1.5459-.55957.66895-.99805,1.4751-1.31592,2.41748-.31787.94287-.47705,1.99561-.47705,3.15771,0,1.05225.13672,2.02832.41113,2.92725.27393.89941.68506,1.67725,1.2334,2.33496.54785.6582,1.22803,1.16797,2.03955,1.52979.81104.36182,1.75391.54248,2.82861.54248.63574,0,1.24951-.0708,1.84131-.21387.59277-.14209,1.12402-.37256,1.5957-.69043.4707-.31787.86035-.729,1.16797-1.2334.30664-.50439.51465-1.11865.62402-1.84229h-5.29492v-4.99951Z"/>
    <g>
      <path fill="#231815" d="M26.62891,63.01465c0-2.125.27734-4.05469.83252-5.79004.5542-1.73535,1.3335-3.2168,2.33691-4.44434s2.1958-2.17773,3.57666-2.85059,2.90918-1.00928,4.58594-1.00928c1.65186,0,3.1748.33643,4.56787,1.00928,1.39258.67285,2.58496,1.62305,3.57666,2.85059.99121,1.22754,1.76416,2.70898,2.31934,4.44434.5542,1.73535.83203,3.66504.83203,5.79004,0,2.12402-.27783,4.05371-.83203,5.78906-.55518,1.73535-1.32812,3.22266-2.31934,4.46191-.9917,1.23926-2.18408,2.19531-3.57666,2.86816-1.39307.67285-2.91602,1.00879-4.56787,1.00879-1.67676,0-3.20508-.33594-4.58594-1.00879s-2.57324-1.62891-3.57666-2.86816-1.78271-2.72656-2.33691-4.46191c-.55518-1.73535-.83252-3.66504-.83252-5.78906ZM33.49902,63.01465c0,1.18066.10596,2.25391.31836,3.22168.21289.96875.51367,1.80664.90332,2.51465s.85547,1.25684,1.39844,1.64648,1.15674.58398,1.8418.58398c.66064,0,1.26855-.19434,1.82324-.58398s1.021-.93848,1.39893-1.64648c.37744-.70801.67285-1.5459.88525-2.51465.2124-.96777.31885-2.04102.31885-3.22168,0-1.15723-.10645-2.22559-.31885-3.20508s-.50781-1.81738-.88525-2.51465c-.37793-.69531-.84424-1.23926-1.39893-1.62891s-1.1626-.58398-1.82324-.58398c-.68506,0-1.29883.19434-1.8418.58398s-1.00879.93359-1.39844,1.62891c-.38965.69727-.69043,1.53516-.90332,2.51465-.2124.97949-.31836,2.04785-.31836,3.20508Z"/>
      <path fill="#231815" d="M69.83008,65.59961h3.22266v5.31152h-3.22266v5.48828h-6.44434v-5.48828h-12.88965v-4.46191l10.19824-16.75h9.13574v15.90039ZM63.38574,65.59961v-10.51758l-6.12598,10.51758h6.12598Z"/>
    </g>
  </symbol>
  <symbol id="G05" viewBox="0 0 100 100">
    <circle fill="#ff9500" cx="50" cy="50" r="50"/>
    <circle fill="#fff" cx="50" cy="50" r="37.8"/>
    <path fill="#231815" d="M50.19824,28.81982h12.79492c0,1.31592-.05566,2.51123-.16504,3.58545-.10938,1.07471-.3291,2.07227-.65723,2.99316-.46094,1.29395-1.08594,2.43945-1.875,3.43701-.78906.99854-1.71582,1.83154-2.7793,2.49951-1.06445.66895-2.23145,1.17871-3.50293,1.5293-1.27246.35059-2.61035.52637-4.0127.52637-1.92969,0-3.68945-.31738-5.27881-.95312-1.59033-.63574-2.95508-1.53027-4.09521-2.68066-1.14062-1.15186-2.02832-2.5332-2.66406-4.14453-.63623-1.61182-.9541-3.39307-.9541-5.34521,0-1.9292.3125-3.7002.9375-5.31201.625-1.61133,1.51318-2.9873,2.66406-4.12744,1.15137-1.14014,2.53809-2.02832,4.16113-2.66455,1.62207-.63574,3.43115-.95361,5.42676-.95361,2.58691,0,4.85645.55908,6.80859,1.67725,1.95117,1.11865,3.49707,2.85107,4.6377,5.19678l-6.11816,2.53271c-.57031-1.35938-1.31055-2.33496-2.21973-2.92725-.91016-.5918-1.94629-.88818-3.1084-.88818-.96484,0-1.8418.18115-2.63135.54297-.78906.36182-1.46338.87695-2.02246,1.5459-.55957.66895-.99805,1.4751-1.31592,2.41748-.31787.94287-.47705,1.99561-.47705,3.15771,0,1.05225.13672,2.02832.41113,2.92725.27393.89941.68506,1.67725,1.2334,2.33496.54785.6582,1.22803,1.16797,2.03955,1.52979.81104.36182,1.75391.54248,2.82861.54248.63574,0,1.24951-.0708,1.84131-.21387.59277-.14209,1.12402-.37256,1.5957-.69043.4707-.31787.86035-.729,1.16797-1.2334.30664-.50439.51465-1.11865.62402-1.84229h-5.29492v-4.99951Z"/>
    <g>
      <path fill="#231815" d="M26.62891,63.01465c0-2.125.27734-4.05469.83252-5.79004.5542-1.73535,1.3335-3.2168,2.33691-4.44434s2.1958-2.17773,3.57666-2.85059,2.90918-1.00928,4.58594-1.00928c1.65186,0,3.1748.33643,4.56787,1.00928,1.39258.67285,2.58496,1.62305,3.57666,2.85059.99121,1.22754,1.76416,2.70898,2.31934,4.44434.5542,1.73535.83203,3.66504.83203,5.79004,0,2.12402-.27783,4.05371-.83203,5.78906-.55518,1.73535-1.32812,3.22266-2.31934,4.46191-.9917,1.23926-2.18408,2.19531-3.57666,2.86816-1.39307.67285-2.91602,1.00879-4.56787,1.00879-1.67676,0-3.20508-.33594-4.58594-1.00879s-2.57324-1.62891-3.57666-2.86816-1.78271-2.72656-2.33691-4.46191c-.55518-1.73535-.83252-3.66504-.83252-5.78906ZM33.49902,63.01465c0,1.18066.10596,2.25391.31836,3.22168.21289.96875.51367,1.80664.90332,2.51465s.85547,1.25684,1.39844,1.64648,1.15674.58398,1.8418.58398c.66064,0,1.26855-.19434,1.82324-.58398s1.021-.93848,1.39893-1.64648c.37744-.70801.67285-1.5459.88525-2.51465.2124-.96777.31885-2.04102.31885-3.22168,0-1.15723-.10645-2.22559-.31885-3.20508s-.50781-1.81738-.88525-2.51465c-.37793-.69531-.84424-1.23926-1.39893-1.62891s-1.1626-.58398-1.82324-.58398c-.68506,0-1.29883.19434-1.8418.58398s-1.00879.93359-1.39844,1.62891c-.38965.69727-.69043,1.53516-.90332,2.51465-.2124.97949-.31836,2.04785-.31836,3.20508Z"/>
      <path fill="#231815" d="M69.83008,55.57812h-9.24219l-.45996,2.93848c.4248-.04688.81445-.08789,1.16895-.12402.35352-.03516.71973-.05273,1.09766-.05273,1.3457,0,2.59668.23633,3.75293.70801,1.15625.47266,2.14844,1.12207,2.97461,1.94824s1.47559,1.81738,1.94824,2.97461c.47168,1.15625.70801,2.41992.70801,3.78906,0,1.43945-.26562,2.73828-.79688,3.89453-.53125,1.15723-1.28125,2.14258-2.24902,2.95703s-2.14844,1.44043-3.54102,1.87695-2.93848.6543-4.63867.6543c-1.60547,0-3.13379-.19434-4.58594-.58398-1.45117-.38965-2.81543-.98535-4.08984-1.78809l1.02734-6.51562c1.17969,1.01562,2.38379,1.78809,3.61133,2.31934s2.39648.79688,3.50586.79688c1.41699,0,2.53711-.38281,3.36426-1.15039.82617-.76758,1.23926-1.71777,1.23926-2.85059,0-1.32227-.55469-2.39062-1.66406-3.20508-1.11035-.81445-2.56152-1.22168-4.35547-1.22168-.80273,0-1.62891.08887-2.47949.26562-.84961.17676-1.6875.45508-2.51367.83203l2.23047-14.3418h13.9873v5.87891Z"/>
    </g>
  </symbol>
  <symbol id="G06" viewBox="0 0 100 100">
    <circle fill="#ff9500" cx="50" cy="50" r="50"/>
    <circle fill="#fff" cx="50" cy="50" r="37.8"/>
    <path fill="#231815" d="M50.19824,28.81982h12.79492c0,1.31592-.05566,2.51123-.16504,3.58545-.10938,1.07471-.3291,2.07227-.65723,2.99316-.46094,1.29395-1.08594,2.43945-1.875,3.43701-.78906.99854-1.71582,1.83154-2.7793,2.49951-1.06445.66895-2.23145,1.17871-3.50293,1.5293-1.27246.35059-2.61035.52637-4.0127.52637-1.92969,0-3.68945-.31738-5.27881-.95312-1.59033-.63574-2.95508-1.53027-4.09521-2.68066-1.14062-1.15186-2.02832-2.5332-2.66406-4.14453-.63623-1.61182-.9541-3.39307-.9541-5.34521,0-1.9292.3125-3.7002.9375-5.31201.625-1.61133,1.51318-2.9873,2.66406-4.12744,1.15137-1.14014,2.53809-2.02832,4.16113-2.66455,1.62207-.63574,3.43115-.95361,5.42676-.95361,2.58691,0,4.85645.55908,6.80859,1.67725,1.95117,1.11865,3.49707,2.85107,4.6377,5.19678l-6.11816,2.53271c-.57031-1.35938-1.31055-2.33496-2.21973-2.92725-.91016-.5918-1.94629-.88818-3.1084-.88818-.96484,0-1.8418.18115-2.63135.54297-.78906.36182-1.46338.87695-2.02246,1.5459-.55957.66895-.99805,1.4751-1.31592,2.41748-.31787.94287-.47705,1.99561-.47705,3.15771,0,1.05225.13672,2.02832.41113,2.92725.27393.89941.68506,1.67725,1.2334,2.33496.54785.6582,1.22803,1.16797,2.03955,1.52979.81104.36182,1.75391.54248,2.82861.54248.63574,0,1.24951-.0708,1.84131-.21387.59277-.14209,1.12402-.37256,1.5957-.69043.4707-.31787.86035-.729,1.16797-1.2334.30664-.50439.51465-1.11865.62402-1.84229h-5.29492v-4.99951Z"/>
    <g>
      <path fill="#231815" d="M26.62891,63.01465c0-2.125.27734-4.05469.83252-5.79004.5542-1.73535,1.3335-3.2168,2.33691-4.44434s2.1958-2.17773,3.57666-2.85059,2.90918-1.00928,4.58594-1.00928c1.65186,0,3.1748.33643,4.56787,1.00928,1.39258.67285,2.58496,1.62305,3.57666,2.85059.99121,1.22754,1.76416,2.70898,2.31934,4.44434.5542,1.73535.83203,3.66504.83203,5.79004,0,2.12402-.27783,4.05371-.83203,5.78906-.55518,1.73535-1.32812,3.22266-2.31934,4.46191-.9917,1.23926-2.18408,2.19531-3.57666,2.86816-1.39307.67285-2.91602,1.00879-4.56787,1.00879-1.67676,0-3.20508-.33594-4.58594-1.00879s-2.57324-1.62891-3.57666-2.86816-1.78271-2.72656-2.33691-4.46191c-.55518-1.73535-.83252-3.66504-.83252-5.78906ZM33.49902,63.01465c0,1.18066.10596,2.25391.31836,3.22168.21289.96875.51367,1.80664.90332,2.51465s.85547,1.25684,1.39844,1.64648,1.15674.58398,1.8418.58398c.66064,0,1.26855-.19434,1.82324-.58398s1.021-.93848,1.39893-1.64648c.37744-.70801.67285-1.5459.88525-2.51465.2124-.96777.31885-2.04102.31885-3.22168,0-1.15723-.10645-2.22559-.31885-3.20508s-.50781-1.81738-.88525-2.51465c-.37793-.69531-.84424-1.23926-1.39893-1.62891s-1.1626-.58398-1.82324-.58398c-.68506,0-1.29883.19434-1.8418.58398s-1.00879.93359-1.39844,1.62891c-.38965.69727-.69043,1.53516-.90332,2.51465-.2124.97949-.31836,2.04785-.31836,3.20508Z"/>
      <path fill="#231815" d="M69.08691,49.69922l-7.57812,8.71191h.1416c.66113-.40137,1.2041-.64355,1.62891-.72656.4248-.08203.80273-.12402,1.13379-.12402,1.29785,0,2.49023.24805,3.57617.74414,1.08594.49512,2.03027,1.1748,2.83301,2.03613.80176.8623,1.42773,1.87109,1.87695,3.02734.44824,1.15723.67285,2.39648.67285,3.71875,0,1.41602-.26074,2.73242-.7793,3.94824-.51953,1.21582-1.26953,2.27832-2.24902,3.18652-.97949.90918-2.16602,1.62305-3.55859,2.14258-1.39355.51855-2.96289.77832-4.70996.77832-1.77051,0-3.35254-.25977-4.74512-.77832-1.39258-.51953-2.5791-1.22754-3.55859-2.125-.97949-.89648-1.72949-1.94141-2.24902-3.13379-.51953-1.19141-.77832-2.46094-.77832-3.80664,0-1.51074.33594-3.14551,1.00879-4.9043s1.70508-3.48828,3.09863-5.1875l6.19727-7.50781h8.03809ZM57.61328,67.22852c0,.61426.11816,1.18555.35449,1.7168.23535.53125.55469.99805.95605,1.39941s.86719.71973,1.39844.95605,1.10352.35352,1.71777.35352c.61328,0,1.18652-.11719,1.71777-.35352s.99707-.55469,1.39844-.95605.71973-.86816.95605-1.39941c.23535-.53125.35449-1.10254.35449-1.7168s-.11914-1.18652-.35449-1.71777c-.23633-.53125-.55469-.99707-.95605-1.39844s-.86719-.71973-1.39844-.95605-1.10449-.35449-1.71777-.35449c-.61426,0-1.18652.11816-1.71777.35449s-.99707.55469-1.39844.95605-.7207.86719-.95605,1.39844c-.23633.53125-.35449,1.10352-.35449,1.71777Z"/>
    </g>
  </symbol>
  <symbol id="G07" viewBox="0 0 100 100">
    <circle fill="#ff9500" cx="50" cy="50" r="50"/>
    <circle fill="#fff" cx="50" cy="50" r="37.8"/>
    <path fill="#231815" d="M50.19824,28.81982h12.79492c0,1.31592-.05566,2.51123-.16504,3.58545-.10938,1.07471-.3291,2.07227-.65723,2.99316-.46094,1.29395-1.08594,2.43945-1.875,3.43701-.78906.99854-1.71582,1.83154-2.7793,2.49951-1.06445.66895-2.23145,1.17871-3.50293,1.5293-1.27246.35059-2.61035.52637-4.0127.52637-1.92969,0-3.68945-.31738-5.27881-.95312-1.59033-.63574-2.95508-1.53027-4.09521-2.68066-1.14062-1.15186-2.02832-2.5332-2.66406-4.14453-.63623-1.61182-.9541-3.39307-.9541-5.34521,0-1.9292.3125-3.7002.9375-5.31201.625-1.61133,1.51318-2.9873,2.66406-4.12744,1.15137-1.14014,2.53809-2.02832,4.16113-2.66455,1.62207-.63574,3.43115-.95361,5.42676-.95361,2.58691,0,4.85645.55908,6.80859,1.67725,1.95117,1.11865,3.49707,2.85107,4.6377,5.19678l-6.11816,2.53271c-.57031-1.35938-1.31055-2.33496-2.21973-2.92725-.91016-.5918-1.94629-.88818-3.1084-.88818-.96484,0-1.8418.18115-2.63135.54297-.78906.36182-1.46338.87695-2.02246,1.5459-.55957.66895-.99805,1.4751-1.31592,2.41748-.31787.94287-.47705,1.99561-.47705,3.15771,0,1.05225.13672,2.02832.41113,2.92725.27393.89941.68506,1.67725,1.2334,2.33496.54785.6582,1.22803,1.16797,2.03955,1.52979.81104.36182,1.75391.54248,2.82861.54248.63574,0,1.24951-.0708,1.84131-.21387.59277-.14209,1.12402-.37256,1.5957-.69043.4707-.31787.86035-.729,1.16797-1.2334.30664-.50439.51465-1.11865.62402-1.84229h-5.29492v-4.99951Z"/>
    <g>
      <path fill="#231815" d="M26.62891,63.01465c0-2.125.27734-4.05469.83252-5.79004.5542-1.73535,1.3335-3.2168,2.33691-4.44434s2.1958-2.17773,3.57666-2.85059,2.90918-1.00928,4.58594-1.00928c1.65186,0,3.1748.33643,4.56787,1.00928,1.39258.67285,2.58496,1.62305,3.57666,2.85059.99121,1.22754,1.76416,2.70898,2.31934,4.44434.5542,1.73535.83203,3.66504.83203,5.79004,0,2.12402-.27783,4.05371-.83203,5.78906-.55518,1.73535-1.32812,3.22266-2.31934,4.46191-.9917,1.23926-2.18408,2.19531-3.57666,2.86816-1.39307.67285-2.91602,1.00879-4.56787,1.00879-1.67676,0-3.20508-.33594-4.58594-1.00879s-2.57324-1.62891-3.57666-2.86816-1.78271-2.72656-2.33691-4.46191c-.55518-1.73535-.83252-3.66504-.83252-5.78906ZM33.49902,63.01465c0,1.18066.10596,2.25391.31836,3.22168.21289.96875.51367,1.80664.90332,2.51465s.85547,1.25684,1.39844,1.64648,1.15674.58398,1.8418.58398c.66064,0,1.26855-.19434,1.82324-.58398s1.021-.93848,1.39893-1.64648c.37744-.70801.67285-1.5459.88525-2.51465.2124-.96777.31885-2.04102.31885-3.22168,0-1.15723-.10645-2.22559-.31885-3.20508s-.50781-1.81738-.88525-2.51465c-.37793-.69531-.84424-1.23926-1.39893-1.62891s-1.1626-.58398-1.82324-.58398c-.68506,0-1.29883.19434-1.8418.58398s-1.00879.93359-1.39844,1.62891c-.38965.69727-.69043,1.53516-.90332,2.51465-.2124.97949-.31836,2.04785-.31836,3.20508Z"/>
      <path fill="#231815" d="M63.9873,55.57812h-11.1543v-5.87891h21.91992l-15.29785,26.7002h-7.64844l12.18066-20.82129Z"/>
    </g>
  </symbol>
  <symbol id="G08" viewBox="0 0 100 100">
    <circle fill="#ff9500" cx="50" cy="50" r="50"/>
    <circle fill="#fff" cx="50" cy="50" r="37.8"/>
    <path fill="#231815" d="M50.19824,28.81982h12.79492c0,1.31592-.05566,2.51123-.16504,3.58545-.10938,1.07471-.3291,2.07227-.65723,2.99316-.46094,1.29395-1.08594,2.43945-1.875,3.43701-.78906.99854-1.71582,1.83154-2.7793,2.49951-1.06445.66895-2.23145,1.17871-3.50293,1.5293-1.27246.35059-2.61035.52637-4.0127.52637-1.92969,0-3.68945-.31738-5.27881-.95312-1.59033-.63574-2.95508-1.53027-4.09521-2.68066-1.14062-1.15186-2.02832-2.5332-2.66406-4.14453-.63623-1.61182-.9541-3.39307-.9541-5.34521,0-1.9292.3125-3.7002.9375-5.31201.625-1.61133,1.51318-2.9873,2.66406-4.12744,1.15137-1.14014,2.53809-2.02832,4.16113-2.66455,1.62207-.63574,3.43115-.95361,5.42676-.95361,2.58691,0,4.85645.55908,6.80859,1.67725,1.95117,1.11865,3.49707,2.85107,4.6377,5.19678l-6.11816,2.53271c-.57031-1.35938-1.31055-2.33496-2.21973-2.92725-.91016-.5918-1.94629-.88818-3.1084-.88818-.96484,0-1.8418.18115-2.63135.54297-.78906.36182-1.46338.87695-2.02246,1.5459-.55957.66895-.99805,1.4751-1.31592,2.41748-.31787.94287-.47705,1.99561-.47705,3.15771,0,1.05225.13672,2.02832.41113,2.92725.27393.89941.68506,1.67725,1.2334,2.33496.54785.6582,1.22803,1.16797,2.03955,1.52979.81104.36182,1.75391.54248,2.82861.54248.63574,0,1.24951-.0708,1.84131-.21387.59277-.14209,1.12402-.37256,1.5957-.69043.4707-.31787.86035-.729,1.16797-1.2334.30664-.50439.51465-1.11865.62402-1.84229h-5.29492v-4.99951Z"/>
    <g>
      <path fill="#231815" d="M26.62891,63.01465c0-2.125.27734-4.05469.83252-5.79004.5542-1.73535,1.3335-3.2168,2.33691-4.44434s2.1958-2.17773,3.57666-2.85059,2.90918-1.00928,4.58594-1.00928c1.65186,0,3.1748.33643,4.56787,1.00928,1.39258.67285,2.58496,1.62305,3.57666,2.85059.99121,1.22754,1.76416,2.70898,2.31934,4.44434.5542,1.73535.83203,3.66504.83203,5.79004,0,2.12402-.27783,4.05371-.83203,5.78906-.55518,1.73535-1.32812,3.22266-2.31934,4.46191-.9917,1.23926-2.18408,2.19531-3.57666,2.86816-1.39307.67285-2.91602,1.00879-4.56787,1.00879-1.67676,0-3.20508-.33594-4.58594-1.00879s-2.57324-1.62891-3.57666-2.86816-1.78271-2.72656-2.33691-4.46191c-.55518-1.73535-.83252-3.66504-.83252-5.78906ZM33.49902,63.01465c0,1.18066.10596,2.25391.31836,3.22168.21289.96875.51367,1.80664.90332,2.51465s.85547,1.25684,1.39844,1.64648,1.15674.58398,1.8418.58398c.66064,0,1.26855-.19434,1.82324-.58398s1.021-.93848,1.39893-1.64648c.37744-.70801.67285-1.5459.88525-2.51465.2124-.96777.31885-2.04102.31885-3.22168,0-1.15723-.10645-2.22559-.31885-3.20508s-.50781-1.81738-.88525-2.51465c-.37793-.69531-.84424-1.23926-1.39893-1.62891s-1.1626-.58398-1.82324-.58398c-.68506,0-1.29883.19434-1.8418.58398s-1.00879.93359-1.39844,1.62891c-.38965.69727-.69043,1.53516-.90332,2.51465-.2124.97949-.31836,2.04785-.31836,3.20508Z"/>
      <path fill="#231815" d="M57.11816,62.30566c-2.78613-1.15625-4.17871-3.11621-4.17871-5.87793,0-1.13281.22363-2.1543.67285-3.06348.44824-.9082,1.06738-1.69336,1.85938-2.35449.79004-.66064,1.74609-1.16895,2.86816-1.52295,1.12109-.354,2.35449-.53125,3.7002-.53125s2.5791.17725,3.7002.53125,2.07715.8623,2.86816,1.52295c.79102.66113,1.41113,1.44629,1.85938,2.35449.44824.90918.67285,1.93066.67285,3.06348,0,.70801-.07031,1.33984-.21191,1.89453s-.38477,1.0625-.72656,1.52246c-.34277.46094-.79102.8916-1.3457,1.29297s-1.24512.79102-2.07129,1.16797c3.63477,1.41699,5.45312,3.70703,5.45312,6.87012,0,1.13281-.25391,2.18359-.76074,3.15137-.50879.96875-1.2168,1.80566-2.125,2.51465-.90918.70801-1.9834,1.2627-3.22266,1.66406s-2.60254.60156-4.08984.60156c-1.44043,0-2.7793-.19434-4.01953-.58398-1.23926-.38965-2.31934-.93848-3.24023-1.64648-.91992-.70801-1.64062-1.5459-2.15918-2.51465-.51953-.9668-.7793-2.0293-.7793-3.18652,0-3.23438,1.75781-5.52441,5.27637-6.87012ZM58.85352,68.32617c0,.44824.08203.87305.24707,1.27441s.38965.75.67285,1.04492.62012.53125,1.00977.70801.80859.26562,1.25684.26562c.4248,0,.83203-.08887,1.22168-.26562s.73145-.41309,1.02734-.70801c.29492-.29492.52441-.6377.69043-1.02734.16504-.38965.24805-.80859.24805-1.25684,0-.89648-.31348-1.6582-.93848-2.28418-.62598-.625-1.37598-.93848-2.24902-.93848-.89746,0-1.65234.31348-2.2666.93848-.61426.62598-.91992,1.37598-.91992,2.24902ZM59.10059,56.49902c0,.82617.2832,1.52832.85059,2.10645.56641.5791,1.2627.86719,2.08887.86719.4248,0,.81445-.08203,1.16895-.24707.35352-.16504.66016-.38379.91992-.65527s.46582-.58496.62012-.93848c.15332-.35449.23047-.71973.23047-1.09766,0-.80273-.2832-1.49316-.85059-2.07227-.56641-.57812-1.2627-.86719-2.08887-.86719s-1.52246.2832-2.08887.84961c-.56738.56738-.85059,1.25195-.85059,2.05469Z"/>
    </g>
  </symbol>
  <symbol id="G09" viewBox="0 0 100 100">
    <circle fill="#ff9500" cx="50" cy="50" r="50"/>
    <circle fill="#fff" cx="50" cy="50" r="37.8"/>
    <path fill="#231815" d="M50.19824,28.81982h12.79492c0,1.31592-.05566,2.51123-.16504,3.58545-.10938,1.07471-.3291,2.07227-.65723,2.99316-.46094,1.29395-1.08594,2.43945-1.875,3.43701-.78906.99854-1.71582,1.83154-2.7793,2.49951-1.06445.66895-2.23145,1.17871-3.50293,1.5293-1.27246.35059-2.61035.52637-4.0127.52637-1.92969,0-3.68945-.31738-5.27881-.95312-1.59033-.63574-2.95508-1.53027-4.09521-2.68066-1.14062-1.15186-2.02832-2.5332-2.66406-4.14453-.63623-1.61182-.9541-3.39307-.9541-5.34521,0-1.9292.3125-3.7002.9375-5.31201.625-1.61133,1.51318-2.9873,2.66406-4.12744,1.15137-1.14014,2.53809-2.02832,4.16113-2.66455,1.62207-.63574,3.43115-.95361,5.42676-.95361,2.58691,0,4.85645.55908,6.80859,1.67725,1.95117,1.11865,3.49707,2.85107,4.6377,5.19678l-6.11816,2.53271c-.57031-1.35938-1.31055-2.33496-2.21973-2.92725-.91016-.5918-1.94629-.88818-3.1084-.88818-.96484,0-1.8418.18115-2.63135.54297-.78906.36182-1.46338.87695-2.02246,1.5459-.55957.66895-.99805,1.4751-1.31592,2.41748-.31787.94287-.47705,1.99561-.47705,3.15771,0,1.05225.13672,2.02832.41113,2.92725.27393.89941.68506,1.67725,1.2334,2.33496.54785.6582,1.22803,1.16797,2.03955,1.52979.81104.36182,1.75391.54248,2.82861.54248.63574,0,1.24951-.0708,1.84131-.21387.59277-.14209,1.12402-.37256,1.5957-.69043.4707-.31787.86035-.729,1.16797-1.2334.30664-.50439.51465-1.11865.62402-1.84229h-5.29492v-4.99951Z"/>
    <g>
      <path fill="#231815" d="M26.62891,63.01465c0-2.125.27734-4.05469.83252-5.79004.5542-1.73535,1.3335-3.2168,2.33691-4.44434s2.1958-2.17773,3.57666-2.85059,2.90918-1.00928,4.58594-1.00928c1.65186,0,3.1748.33643,4.56787,1.00928,1.39258.67285,2.58496,1.62305,3.57666,2.85059.99121,1.22754,1.76416,2.70898,2.31934,4.44434.5542,1.73535.83203,3.66504.83203,5.79004,0,2.12402-.27783,4.05371-.83203,5.78906-.55518,1.73535-1.32812,3.22266-2.31934,4.46191-.9917,1.23926-2.18408,2.19531-3.57666,2.86816-1.39307.67285-2.91602,1.00879-4.56787,1.00879-1.67676,0-3.20508-.33594-4.58594-1.00879s-2.57324-1.62891-3.57666-2.86816-1.78271-2.72656-2.33691-4.46191c-.55518-1.73535-.83252-3.66504-.83252-5.78906ZM33.49902,63.01465c0,1.18066.10596,2.25391.31836,3.22168.21289.96875.51367,1.80664.90332,2.51465s.85547,1.25684,1.39844,1.64648,1.15674.58398,1.8418.58398c.66064,0,1.26855-.19434,1.82324-.58398s1.021-.93848,1.39893-1.64648c.37744-.70801.67285-1.5459.88525-2.51465.2124-.96777.31885-2.04102.31885-3.22168,0-1.15723-.10645-2.22559-.31885-3.20508s-.50781-1.81738-.88525-2.51465c-.37793-.69531-.84424-1.23926-1.39893-1.62891s-1.1626-.58398-1.82324-.58398c-.68506,0-1.29883.19434-1.8418.58398s-1.00879.93359-1.39844,1.62891c-.38965.69727-.69043,1.53516-.90332,2.51465-.2124.97949-.31836,2.04785-.31836,3.20508Z"/>
      <path fill="#231815" d="M54.99316,76.39941l7.57812-8.71094h-.1416c-.66113.40137-1.2041.64355-1.62891.72559-.4248.08301-.80273.12402-1.13281.12402-1.29883,0-2.49707-.24805-3.59473-.74316-1.09766-.49609-2.04199-1.17383-2.83301-2.03613-.79102-.86133-1.41113-1.87109-1.85938-3.02832-.44824-1.15625-.67236-2.39551-.67236-3.71777,0-1.41602.25977-2.73242.77881-3.94824.51953-1.21582,1.26855-2.27832,2.24902-3.1875.97949-.9082,2.16504-1.62256,3.55859-2.14209,1.39258-.51904,2.96289-.7793,4.70996-.7793,1.77051,0,3.35156.26025,4.74512.7793,1.39258.51953,2.5791,1.22754,3.55859,2.12451.97949.89746,1.72949,1.94238,2.24902,3.13379.51855,1.19238.77832,2.46191.77832,3.80664,0,1.51172-.33594,3.14648-1.00879,4.90527s-1.70605,3.4873-3.09863,5.1875l-6.19727,7.50684h-8.03809ZM66.4668,58.87109c0-.61328-.11914-1.18652-.35449-1.71777-.23633-.53125-.55469-.99707-.95605-1.39844s-.86719-.71973-1.39844-.95605c-.53125-.23535-1.10449-.35449-1.71777-.35449-.61426,0-1.18652.11914-1.71777.35449-.53125.23633-.99707.55469-1.39844.95605s-.7207.86719-.95605,1.39844c-.23633.53125-.35449,1.10449-.35449,1.71777,0,.61426.11816,1.18652.35449,1.71777.23535.53125.55469.99707.95605,1.39844s.86719.7207,1.39844.95605c.53125.23633,1.10352.35449,1.71777.35449.61328,0,1.18652-.11816,1.71777-.35449.53125-.23535.99707-.55469,1.39844-.95605s.71973-.86719.95605-1.39844c.23535-.53125.35449-1.10352.35449-1.71777Z"/>
    </g>
  </symbol>
  <symbol id="G10" viewBox="0 0 100 100">
    <circle fill="#ff9500" cx="50" cy="50" r="50"/>
    <circle fill="#fff" cx="50" cy="50" r="37.8"/>
    <path fill="#231815" d="M50.19824,28.81982h12.79492c0,1.31592-.05566,2.51123-.16504,3.58545-.10938,1.07471-.3291,2.07227-.65723,2.99316-.46094,1.29395-1.08594,2.43945-1.875,3.43701-.78906.99854-1.71582,1.83154-2.7793,2.49951-1.06445.66895-2.23145,1.17871-3.50293,1.5293-1.27246.35059-2.61035.52637-4.0127.52637-1.92969,0-3.68945-.31738-5.27881-.95312-1.59033-.63574-2.95508-1.53027-4.09521-2.68066-1.14062-1.15186-2.02832-2.5332-2.66406-4.14453-.63623-1.61182-.9541-3.39307-.9541-5.34521,0-1.9292.3125-3.7002.9375-5.31201.625-1.61133,1.51318-2.9873,2.66406-4.12744,1.15137-1.14014,2.53809-2.02832,4.16113-2.66455,1.62207-.63574,3.43115-.95361,5.42676-.95361,2.58691,0,4.85645.55908,6.80859,1.67725,1.95117,1.11865,3.49707,2.85107,4.6377,5.19678l-6.11816,2.53271c-.57031-1.35938-1.31055-2.33496-2.21973-2.92725-.91016-.5918-1.94629-.88818-3.1084-.88818-.96484,0-1.8418.18115-2.63135.54297-.78906.36182-1.46338.87695-2.02246,1.5459-.55957.66895-.99805,1.4751-1.31592,2.41748-.31787.94287-.47705,1.99561-.47705,3.15771,0,1.05225.13672,2.02832.41113,2.92725.27393.89941.68506,1.67725,1.2334,2.33496.54785.6582,1.22803,1.16797,2.03955,1.52979.81104.36182,1.75391.54248,2.82861.54248.63574,0,1.24951-.0708,1.84131-.21387.59277-.14209,1.12402-.37256,1.5957-.69043.4707-.31787.86035-.729,1.16797-1.2334.30664-.50439.51465-1.11865.62402-1.84229h-5.29492v-4.99951Z"/>
    <g>
      <path fill="#231815" d="M35.30469,55.57812h-3.89502v-5.87891h10.83594v26.7002h-6.94092v-20.82129Z"/>
      <path fill="#231815" d="M50.7085,63.01465c0-2.125.27734-4.05469.83252-5.79004.55371-1.73535,1.33301-3.2168,2.33691-4.44434,1.00293-1.22754,2.19531-2.17773,3.57617-2.85059s2.90918-1.00928,4.58594-1.00928c1.65234,0,3.1748.33643,4.56836,1.00928,1.39258.67285,2.58496,1.62305,3.57617,2.85059s1.76465,2.70898,2.31934,4.44434.83203,3.66504.83203,5.79004c0,2.12402-.27734,4.05371-.83203,5.78906s-1.32812,3.22266-2.31934,4.46191-2.18359,2.19531-3.57617,2.86816c-1.39355.67285-2.91602,1.00879-4.56836,1.00879-1.67676,0-3.20508-.33594-4.58594-1.00879s-2.57324-1.62891-3.57617-2.86816c-1.00391-1.23926-1.7832-2.72656-2.33691-4.46191-.55518-1.73535-.83252-3.66504-.83252-5.78906ZM57.57812,63.01465c0,1.18066.10645,2.25391.31836,3.22168.21289.96875.51367,1.80664.90332,2.51465s.85547,1.25684,1.39844,1.64648,1.15723.58398,1.8418.58398c.66113,0,1.26855-.19434,1.82324-.58398s1.02148-.93848,1.39941-1.64648c.37695-.70801.67285-1.5459.88477-2.51465.21289-.96777.31934-2.04102.31934-3.22168,0-1.15723-.10645-2.22559-.31934-3.20508-.21191-.97949-.50781-1.81738-.88477-2.51465-.37793-.69531-.84473-1.23926-1.39941-1.62891s-1.16211-.58398-1.82324-.58398c-.68457,0-1.29883.19434-1.8418.58398s-1.00879.93359-1.39844,1.62891c-.38965.69727-.69043,1.53516-.90332,2.51465-.21191.97949-.31836,2.04785-.31836,3.20508Z"/>
    </g>
  </symbol>
   <symbol id="G11" viewBox="0 0 100 100">
    <circle fill="#ff9500" cx="50" cy="50" r="50"/>
    <circle fill="#fff" cx="50" cy="50" r="37.8"/>
    <path fill="#231815" d="M50.19824,28.81982h12.79492c0,1.31592-.05566,2.51123-.16504,3.58545-.10938,1.07471-.3291,2.07227-.65723,2.99316-.46094,1.29395-1.08594,2.43945-1.875,3.43701-.78906.99854-1.71582,1.83154-2.7793,2.49951-1.06445.66895-2.23145,1.17871-3.50293,1.5293-1.27246.35059-2.61035.52637-4.0127.52637-1.92969,0-3.68945-.31738-5.27881-.95312-1.59033-.63574-2.95508-1.53027-4.09521-2.68066-1.14062-1.15186-2.02832-2.5332-2.66406-4.14453-.63623-1.61182-.9541-3.39307-.9541-5.34521,0-1.9292.3125-3.7002.9375-5.31201.625-1.61133,1.51318-2.9873,2.66406-4.12744,1.15137-1.14014,2.53809-2.02832,4.16113-2.66455,1.62207-.63574,3.43115-.95361,5.42676-.95361,2.58691,0,4.85645.55908,6.80859,1.67725,1.95117,1.11865,3.49707,2.85107,4.6377,5.19678l-6.11816,2.53271c-.57031-1.35938-1.31055-2.33496-2.21973-2.92725-.91016-.5918-1.94629-.88818-3.1084-.88818-.96484,0-1.8418.18115-2.63135.54297-.78906.36182-1.46338.87695-2.02246,1.5459-.55957.66895-.99805,1.4751-1.31592,2.41748-.31787.94287-.47705,1.99561-.47705,3.15771,0,1.05225.13672,2.02832.41113,2.92725.27393.89941.68506,1.67725,1.2334,2.33496.54785.6582,1.22803,1.16797,2.03955,1.52979.81104.36182,1.75391.54248,2.82861.54248.63574,0,1.24951-.0708,1.84131-.21387.59277-.14209,1.12402-.37256,1.5957-.69043.4707-.31787.86035-.729,1.16797-1.2334.30664-.50439.51465-1.11865.62402-1.84229h-5.29492v-4.99951Z"/>
    <g>
      <path fill="#231815" d="M35.30469,55.57812h-3.89502v-5.87891h10.83594v26.7002h-6.94092v-20.82129Z"/>
      <path fill="#231815" d="M59.38379,55.57812h-3.89453v-5.87891h10.83594v26.7002h-6.94141v-20.82129Z"/>
    </g>
  </symbol>
  <symbol id="G12" viewBox="0 0 100 100">
    <circle fill="#ff9500" cx="50" cy="50" r="50"/>
    <circle fill="#fff" cx="50" cy="50" r="37.8"/>
    <path fill="#231815" d="M50.19824,28.81982h12.79492c0,1.31592-.05566,2.51123-.16504,3.58545-.10938,1.07471-.3291,2.07227-.65723,2.99316-.46094,1.29395-1.08594,2.43945-1.875,3.43701-.78906.99854-1.71582,1.83154-2.7793,2.49951-1.06445.66895-2.23145,1.17871-3.50293,1.5293-1.27246.35059-2.61035.52637-4.0127.52637-1.92969,0-3.68945-.31738-5.27881-.95312-1.59033-.63574-2.95508-1.53027-4.09521-2.68066-1.14062-1.15186-2.02832-2.5332-2.66406-4.14453-.63623-1.61182-.9541-3.39307-.9541-5.34521,0-1.9292.3125-3.7002.9375-5.31201.625-1.61133,1.51318-2.9873,2.66406-4.12744,1.15137-1.14014,2.53809-2.02832,4.16113-2.66455,1.62207-.63574,3.43115-.95361,5.42676-.95361,2.58691,0,4.85645.55908,6.80859,1.67725,1.95117,1.11865,3.49707,2.85107,4.6377,5.19678l-6.11816,2.53271c-.57031-1.35938-1.31055-2.33496-2.21973-2.92725-.91016-.5918-1.94629-.88818-3.1084-.88818-.96484,0-1.8418.18115-2.63135.54297-.78906.36182-1.46338.87695-2.02246,1.5459-.55957.66895-.99805,1.4751-1.31592,2.41748-.31787.94287-.47705,1.99561-.47705,3.15771,0,1.05225.13672,2.02832.41113,2.92725.27393.89941.68506,1.67725,1.2334,2.33496.54785.6582,1.22803,1.16797,2.03955,1.52979.81104.36182,1.75391.54248,2.82861.54248.63574,0,1.24951-.0708,1.84131-.21387.59277-.14209,1.12402-.37256,1.5957-.69043.4707-.31787.86035-.729,1.16797-1.2334.30664-.50439.51465-1.11865.62402-1.84229h-5.29492v-4.99951Z"/>
    <g>
      <path fill="#231815" d="M35.30469,55.57812h-3.89502v-5.87891h10.83594v26.7002h-6.94092v-20.82129Z"/>
      <path fill="#231815" d="M72.48633,76.39941h-21.49414l6.62109-6.86914c1.74707-1.81836,3.11621-3.3584,4.1084-4.62109.99121-1.2627,1.72852-2.33105,2.21289-3.20508.4834-.87305.78418-1.58105.90332-2.125.11719-.54297.17676-1.00293.17676-1.38086,0-.40137-.06543-.79102-.19434-1.16895-.13086-.37695-.3252-.71289-.58496-1.00879-.25977-.29492-.57227-.53125-.93848-.70801-.36621-.17773-.79688-.26562-1.29199-.26562-.94434,0-1.68262.30664-2.21387.9209-.53027.61328-.7959,1.38086-.7959,2.30176,0,.25977.03516.63672.10547,1.13281h-7.57812c0-1.55859.25391-2.97461.76172-4.24902.50781-1.27539,1.22168-2.37305,2.14258-3.29395.9209-.92041,2.0127-1.62891,3.27539-2.12451,1.2627-.49609,2.64941-.74365,4.16113-.74365,1.4873,0,2.8623.23633,4.125.70801,1.2627.47266,2.35547,1.1333,3.27539,1.9834.9209.84961,1.64062,1.85938,2.16016,3.02734.51953,1.16895.7793,2.43848.7793,3.80664,0,1.46484-.31348,2.81543-.93848,4.05469-.62598,1.23926-1.62305,2.50879-2.99219,3.80664l-4.42676,4.14355h8.64062v5.87793Z"/>
    </g>
  </symbol>
  <symbol id="G13" viewBox="0 0 100 100">
    <circle fill="#ff9500" cx="50" cy="50" r="50"/>
    <circle fill="#fff" cx="50" cy="50" r="37.8"/>
    <path fill="#231815" d="M50.19824,28.81982h12.79492c0,1.31592-.05566,2.51123-.16504,3.58545-.10938,1.07471-.3291,2.07227-.65723,2.99316-.46094,1.29395-1.08594,2.43945-1.875,3.43701-.78906.99854-1.71582,1.83154-2.7793,2.49951-1.06445.66895-2.23145,1.17871-3.50293,1.5293-1.27246.35059-2.61035.52637-4.0127.52637-1.92969,0-3.68945-.31738-5.27881-.95312-1.59033-.63574-2.95508-1.53027-4.09521-2.68066-1.14062-1.15186-2.02832-2.5332-2.66406-4.14453-.63623-1.61182-.9541-3.39307-.9541-5.34521,0-1.9292.3125-3.7002.9375-5.31201.625-1.61133,1.51318-2.9873,2.66406-4.12744,1.15137-1.14014,2.53809-2.02832,4.16113-2.66455,1.62207-.63574,3.43115-.95361,5.42676-.95361,2.58691,0,4.85645.55908,6.80859,1.67725,1.95117,1.11865,3.49707,2.85107,4.6377,5.19678l-6.11816,2.53271c-.57031-1.35938-1.31055-2.33496-2.21973-2.92725-.91016-.5918-1.94629-.88818-3.1084-.88818-.96484,0-1.8418.18115-2.63135.54297-.78906.36182-1.46338.87695-2.02246,1.5459-.55957.66895-.99805,1.4751-1.31592,2.41748-.31787.94287-.47705,1.99561-.47705,3.15771,0,1.05225.13672,2.02832.41113,2.92725.27393.89941.68506,1.67725,1.2334,2.33496.54785.6582,1.22803,1.16797,2.03955,1.52979.81104.36182,1.75391.54248,2.82861.54248.63574,0,1.24951-.0708,1.84131-.21387.59277-.14209,1.12402-.37256,1.5957-.69043.4707-.31787.86035-.729,1.16797-1.2334.30664-.50439.51465-1.11865.62402-1.84229h-5.29492v-4.99951Z"/>
    <g>
      <path fill="#231815" d="M35.30469,55.57812h-3.89502v-5.87891h10.83594v26.7002h-6.94092v-20.82129Z"/>
      <path fill="#231815" d="M60.58789,60.11035c.18945.02441.34863.03516.47852.03516h.33594c.87305,0,1.58203-.25879,2.125-.77832s.81445-1.19238.81445-2.01855c0-.80273-.25391-1.45215-.76172-1.94824-.50781-.49512-1.16309-.74316-1.96484-.74316-.84961,0-1.53516.2832-2.05371.84961-.51953.56641-.7793,1.29883-.7793,2.19531h-6.40918c.16504-1.39258.51367-2.63184,1.04395-3.71777.53125-1.08594,1.20996-2.00098,2.03613-2.74414.82617-.74414,1.79395-1.31055,2.9043-1.7002,1.10938-.38965,2.33691-.58447,3.68262-.58447,1.32227,0,2.51953.18311,3.59473.54883,1.07324.3667,1.99414.88525,2.76172,1.55811.7666.67285,1.35742,1.4873,1.77051,2.44336s.62012,2.02539.62012,3.20508c0,1.27441-.24316,2.31934-.72656,3.13379-.48438.81445-1.1748,1.51758-2.07129,2.10742,1.36914.4248,2.4375,1.18555,3.20508,2.28418.7666,1.09766,1.15039,2.44922,1.15039,4.05371,0,1.32324-.25977,2.52637-.7793,3.6123s-1.24512,2.01855-2.17773,2.79688c-.93262.7793-2.04199,1.38184-3.32812,1.80664-1.28711.4248-2.69727.63672-4.23242.63672-2.05371,0-3.90723-.40137-5.55957-1.20312-1.65234-.80273-2.97363-2.07715-3.96582-3.82422-.44824-.7793-.74902-1.55859-.90234-2.33789-.1543-.77832-.23047-1.56934-.23047-2.37207h6.87012c.04688,1.25195.41211,2.20117,1.09766,2.85059.68359.64941,1.60449.97363,2.76172.97363,1.22754,0,2.125-.33008,2.69141-.99121s.84961-1.47559.84961-2.44336c0-1.15625-.34277-2.03027-1.02637-2.62109-.68555-.58887-1.5-.88477-2.44336-.88477-.23633,0-.46094.01758-.67285.05273-.21289.03613-.44922.07715-.70898.12402v-4.35547Z"/>
    </g>
  </symbol>
  <symbol id="G14" viewBox="0 0 100 100">
    <circle fill="#ff9500" cx="50" cy="50" r="50"/>
    <circle fill="#fff" cx="50" cy="50" r="37.8"/>
    <path fill="#231815" d="M50.19824,28.81982h12.79492c0,1.31592-.05566,2.51123-.16504,3.58545-.10938,1.07471-.3291,2.07227-.65723,2.99316-.46094,1.29395-1.08594,2.43945-1.875,3.43701-.78906.99854-1.71582,1.83154-2.7793,2.49951-1.06445.66895-2.23145,1.17871-3.50293,1.5293-1.27246.35059-2.61035.52637-4.0127.52637-1.92969,0-3.68945-.31738-5.27881-.95312-1.59033-.63574-2.95508-1.53027-4.09521-2.68066-1.14062-1.15186-2.02832-2.5332-2.66406-4.14453-.63623-1.61182-.9541-3.39307-.9541-5.34521,0-1.9292.3125-3.7002.9375-5.31201.625-1.61133,1.51318-2.9873,2.66406-4.12744,1.15137-1.14014,2.53809-2.02832,4.16113-2.66455,1.62207-.63574,3.43115-.95361,5.42676-.95361,2.58691,0,4.85645.55908,6.80859,1.67725,1.95117,1.11865,3.49707,2.85107,4.6377,5.19678l-6.11816,2.53271c-.57031-1.35938-1.31055-2.33496-2.21973-2.92725-.91016-.5918-1.94629-.88818-3.1084-.88818-.96484,0-1.8418.18115-2.63135.54297-.78906.36182-1.46338.87695-2.02246,1.5459-.55957.66895-.99805,1.4751-1.31592,2.41748-.31787.94287-.47705,1.99561-.47705,3.15771,0,1.05225.13672,2.02832.41113,2.92725.27393.89941.68506,1.67725,1.2334,2.33496.54785.6582,1.22803,1.16797,2.03955,1.52979.81104.36182,1.75391.54248,2.82861.54248.63574,0,1.24951-.0708,1.84131-.21387.59277-.14209,1.12402-.37256,1.5957-.69043.4707-.31787.86035-.729,1.16797-1.2334.30664-.50439.51465-1.11865.62402-1.84229h-5.29492v-4.99951Z"/>
    <g>
      <path fill="#231815" d="M35.30469,55.57812h-3.89502v-5.87891h10.83594v26.7002h-6.94092v-20.82129Z"/>
      <path fill="#231815" d="M69.83008,65.59961h3.22266v5.31152h-3.22266v5.48828h-6.44434v-5.48828h-12.88965v-4.46191l10.19824-16.75h9.13574v15.90039ZM63.38574,65.59961v-10.51758l-6.12598,10.51758h6.12598Z"/>
    </g>
  </symbol>
  <symbol id="G15" viewBox="0 0 100 100">
    <circle fill="#ff9500" cx="50" cy="50" r="50"/>
    <circle fill="#fff" cx="50" cy="50" r="37.8"/>
    <path fill="#231815" d="M50.19824,28.81982h12.79492c0,1.31592-.05566,2.51123-.16504,3.58545-.10938,1.07471-.3291,2.07227-.65723,2.99316-.46094,1.29395-1.08594,2.43945-1.875,3.43701-.78906.99854-1.71582,1.83154-2.7793,2.49951-1.06445.66895-2.23145,1.17871-3.50293,1.5293-1.27246.35059-2.61035.52637-4.0127.52637-1.92969,0-3.68945-.31738-5.27881-.95312-1.59033-.63574-2.95508-1.53027-4.09521-2.68066-1.14062-1.15186-2.02832-2.5332-2.66406-4.14453-.63623-1.61182-.9541-3.39307-.9541-5.34521,0-1.9292.3125-3.7002.9375-5.31201.625-1.61133,1.51318-2.9873,2.66406-4.12744,1.15137-1.14014,2.53809-2.02832,4.16113-2.66455,1.62207-.63574,3.43115-.95361,5.42676-.95361,2.58691,0,4.85645.55908,6.80859,1.67725,1.95117,1.11865,3.49707,2.85107,4.6377,5.19678l-6.11816,2.53271c-.57031-1.35938-1.31055-2.33496-2.21973-2.92725-.91016-.5918-1.94629-.88818-3.1084-.88818-.96484,0-1.8418.18115-2.63135.54297-.78906.36182-1.46338.87695-2.02246,1.5459-.55957.66895-.99805,1.4751-1.31592,2.41748-.31787.94287-.47705,1.99561-.47705,3.15771,0,1.05225.13672,2.02832.41113,2.92725.27393.89941.68506,1.67725,1.2334,2.33496.54785.6582,1.22803,1.16797,2.03955,1.52979.81104.36182,1.75391.54248,2.82861.54248.63574,0,1.24951-.0708,1.84131-.21387.59277-.14209,1.12402-.37256,1.5957-.69043.4707-.31787.86035-.729,1.16797-1.2334.30664-.50439.51465-1.11865.62402-1.84229h-5.29492v-4.99951Z"/>
    <g>
      <path fill="#231815" d="M35.30469,55.57812h-3.89502v-5.87891h10.83594v26.7002h-6.94092v-20.82129Z"/>
      <path fill="#231815" d="M69.83008,55.57812h-9.24219l-.45996,2.93848c.4248-.04688.81445-.08789,1.16895-.12402.35352-.03516.71973-.05273,1.09766-.05273,1.3457,0,2.59668.23633,3.75293.70801,1.15625.47266,2.14844,1.12207,2.97461,1.94824s1.47559,1.81738,1.94824,2.97461c.47168,1.15625.70801,2.41992.70801,3.78906,0,1.43945-.26562,2.73828-.79688,3.89453-.53125,1.15723-1.28125,2.14258-2.24902,2.95703s-2.14844,1.44043-3.54102,1.87695-2.93848.6543-4.63867.6543c-1.60547,0-3.13379-.19434-4.58594-.58398-1.45117-.38965-2.81543-.98535-4.08984-1.78809l1.02734-6.51562c1.17969,1.01562,2.38379,1.78809,3.61133,2.31934s2.39648.79688,3.50586.79688c1.41699,0,2.53711-.38281,3.36426-1.15039.82617-.76758,1.23926-1.71777,1.23926-2.85059,0-1.32227-.55469-2.39062-1.66406-3.20508-1.11035-.81445-2.56152-1.22168-4.35547-1.22168-.80273,0-1.62891.08887-2.47949.26562-.84961.17676-1.6875.45508-2.51367.83203l2.23047-14.3418h13.9873v5.87891Z"/>
    </g>
  </symbol>
  <symbol id="G16" viewBox="0 0 100 100">
    <circle fill="#ff9500" cx="50" cy="50" r="50"/>
    <circle fill="#fff" cx="50" cy="50" r="37.8"/>
    <path fill="#231815" d="M50.19824,28.81982h12.79492c0,1.31592-.05566,2.51123-.16504,3.58545-.10938,1.07471-.3291,2.07227-.65723,2.99316-.46094,1.29395-1.08594,2.43945-1.875,3.43701-.78906.99854-1.71582,1.83154-2.7793,2.49951-1.06445.66895-2.23145,1.17871-3.50293,1.5293-1.27246.35059-2.61035.52637-4.0127.52637-1.92969,0-3.68945-.31738-5.27881-.95312-1.59033-.63574-2.95508-1.53027-4.09521-2.68066-1.14062-1.15186-2.02832-2.5332-2.66406-4.14453-.63623-1.61182-.9541-3.39307-.9541-5.34521,0-1.9292.3125-3.7002.9375-5.31201.625-1.61133,1.51318-2.9873,2.66406-4.12744,1.15137-1.14014,2.53809-2.02832,4.16113-2.66455,1.62207-.63574,3.43115-.95361,5.42676-.95361,2.58691,0,4.85645.55908,6.80859,1.67725,1.95117,1.11865,3.49707,2.85107,4.6377,5.19678l-6.11816,2.53271c-.57031-1.35938-1.31055-2.33496-2.21973-2.92725-.91016-.5918-1.94629-.88818-3.1084-.88818-.96484,0-1.8418.18115-2.63135.54297-.78906.36182-1.46338.87695-2.02246,1.5459-.55957.66895-.99805,1.4751-1.31592,2.41748-.31787.94287-.47705,1.99561-.47705,3.15771,0,1.05225.13672,2.02832.41113,2.92725.27393.89941.68506,1.67725,1.2334,2.33496.54785.6582,1.22803,1.16797,2.03955,1.52979.81104.36182,1.75391.54248,2.82861.54248.63574,0,1.24951-.0708,1.84131-.21387.59277-.14209,1.12402-.37256,1.5957-.69043.4707-.31787.86035-.729,1.16797-1.2334.30664-.50439.51465-1.11865.62402-1.84229h-5.29492v-4.99951Z"/>
    <g>
      <path fill="#231815" d="M35.30469,55.57812h-3.89502v-5.87891h10.83594v26.7002h-6.94092v-20.82129Z"/>
      <path fill="#231815" d="M69.08691,49.69922l-7.57812,8.71191h.1416c.66113-.40137,1.2041-.64355,1.62891-.72656.4248-.08203.80273-.12402,1.13379-.12402,1.29785,0,2.49023.24805,3.57617.74414,1.08594.49512,2.03027,1.1748,2.83301,2.03613.80176.8623,1.42773,1.87109,1.87695,3.02734.44824,1.15723.67285,2.39648.67285,3.71875,0,1.41602-.26074,2.73242-.7793,3.94824-.51953,1.21582-1.26953,2.27832-2.24902,3.18652-.97949.90918-2.16602,1.62305-3.55859,2.14258-1.39355.51855-2.96289.77832-4.70996.77832-1.77051,0-3.35254-.25977-4.74512-.77832-1.39258-.51953-2.5791-1.22754-3.55859-2.125-.97949-.89648-1.72949-1.94141-2.24902-3.13379-.51953-1.19141-.77832-2.46094-.77832-3.80664,0-1.51074.33594-3.14551,1.00879-4.9043s1.70508-3.48828,3.09863-5.1875l6.19727-7.50781h8.03809ZM57.61328,67.22852c0,.61426.11816,1.18555.35449,1.7168.23535.53125.55469.99805.95605,1.39941s.86719.71973,1.39844.95605,1.10352.35352,1.71777.35352c.61328,0,1.18652-.11719,1.71777-.35352s.99707-.55469,1.39844-.95605.71973-.86816.95605-1.39941c.23535-.53125.35449-1.10254.35449-1.7168s-.11914-1.18652-.35449-1.71777c-.23633-.53125-.55469-.99707-.95605-1.39844s-.86719-.71973-1.39844-.95605-1.10449-.35449-1.71777-.35449c-.61426,0-1.18652.11816-1.71777.35449s-.99707.55469-1.39844.95605-.7207.86719-.95605,1.39844c-.23633.53125-.35449,1.10352-.35449,1.71777Z"/>
    </g>
  </symbol>
  <symbol id="G17" viewBox="0 0 100 100">
    <circle fill="#ff9500" cx="50" cy="50" r="50"/>
    <circle fill="#fff" cx="50" cy="50" r="37.8"/>
    <path fill="#231815" d="M50.19824,28.81982h12.79492c0,1.31592-.05566,2.51123-.16504,3.58545-.10938,1.07471-.3291,2.07227-.65723,2.99316-.46094,1.29395-1.08594,2.43945-1.875,3.43701-.78906.99854-1.71582,1.83154-2.7793,2.49951-1.06445.66895-2.23145,1.17871-3.50293,1.5293-1.27246.35059-2.61035.52637-4.0127.52637-1.92969,0-3.68945-.31738-5.27881-.95312-1.59033-.63574-2.95508-1.53027-4.09521-2.68066-1.14062-1.15186-2.02832-2.5332-2.66406-4.14453-.63623-1.61182-.9541-3.39307-.9541-5.34521,0-1.9292.3125-3.7002.9375-5.31201.625-1.61133,1.51318-2.9873,2.66406-4.12744,1.15137-1.14014,2.53809-2.02832,4.16113-2.66455,1.62207-.63574,3.43115-.95361,5.42676-.95361,2.58691,0,4.85645.55908,6.80859,1.67725,1.95117,1.11865,3.49707,2.85107,4.6377,5.19678l-6.11816,2.53271c-.57031-1.35938-1.31055-2.33496-2.21973-2.92725-.91016-.5918-1.94629-.88818-3.1084-.88818-.96484,0-1.8418.18115-2.63135.54297-.78906.36182-1.46338.87695-2.02246,1.5459-.55957.66895-.99805,1.4751-1.31592,2.41748-.31787.94287-.47705,1.99561-.47705,3.15771,0,1.05225.13672,2.02832.41113,2.92725.27393.89941.68506,1.67725,1.2334,2.33496.54785.6582,1.22803,1.16797,2.03955,1.52979.81104.36182,1.75391.54248,2.82861.54248.63574,0,1.24951-.0708,1.84131-.21387.59277-.14209,1.12402-.37256,1.5957-.69043.4707-.31787.86035-.729,1.16797-1.2334.30664-.50439.51465-1.11865.62402-1.84229h-5.29492v-4.99951Z"/>
    <g>
      <path fill="#231815" d="M35.30469,55.57812h-3.89502v-5.87891h10.83594v26.7002h-6.94092v-20.82129Z"/>
      <path fill="#231815" d="M63.9873,55.57812h-11.1543v-5.87891h21.91992l-15.29785,26.7002h-7.64844l12.18066-20.82129Z"/>
    </g>
  </symbol>
  <symbol id="G18" viewBox="0 0 100 100">
    <circle fill="#ff9500" cx="50" cy="50" r="50"/>
    <circle fill="#fff" cx="50" cy="50" r="37.8"/>
    <path fill="#231815" d="M50.19824,28.81982h12.79492c0,1.31592-.05566,2.51123-.16504,3.58545-.10938,1.07471-.3291,2.07227-.65723,2.99316-.46094,1.29395-1.08594,2.43945-1.875,3.43701-.78906.99854-1.71582,1.83154-2.7793,2.49951-1.06445.66895-2.23145,1.17871-3.50293,1.5293-1.27246.35059-2.61035.52637-4.0127.52637-1.92969,0-3.68945-.31738-5.27881-.95312-1.59033-.63574-2.95508-1.53027-4.09521-2.68066-1.14062-1.15186-2.02832-2.5332-2.66406-4.14453-.63623-1.61182-.9541-3.39307-.9541-5.34521,0-1.9292.3125-3.7002.9375-5.31201.625-1.61133,1.51318-2.9873,2.66406-4.12744,1.15137-1.14014,2.53809-2.02832,4.16113-2.66455,1.62207-.63574,3.43115-.95361,5.42676-.95361,2.58691,0,4.85645.55908,6.80859,1.67725,1.95117,1.11865,3.49707,2.85107,4.6377,5.19678l-6.11816,2.53271c-.57031-1.35938-1.31055-2.33496-2.21973-2.92725-.91016-.5918-1.94629-.88818-3.1084-.88818-.96484,0-1.8418.18115-2.63135.54297-.78906.36182-1.46338.87695-2.02246,1.5459-.55957.66895-.99805,1.4751-1.31592,2.41748-.31787.94287-.47705,1.99561-.47705,3.15771,0,1.05225.13672,2.02832.41113,2.92725.27393.89941.68506,1.67725,1.2334,2.33496.54785.6582,1.22803,1.16797,2.03955,1.52979.81104.36182,1.75391.54248,2.82861.54248.63574,0,1.24951-.0708,1.84131-.21387.59277-.14209,1.12402-.37256,1.5957-.69043.4707-.31787.86035-.729,1.16797-1.2334.30664-.50439.51465-1.11865.62402-1.84229h-5.29492v-4.99951Z"/>
    <g>
      <path fill="#231815" d="M35.30469,55.57812h-3.89502v-5.87891h10.83594v26.7002h-6.94092v-20.82129Z"/>
      <path fill="#231815" d="M57.11816,62.30566c-2.78613-1.15625-4.17871-3.11621-4.17871-5.87793,0-1.13281.22363-2.1543.67285-3.06348.44824-.9082,1.06738-1.69336,1.85938-2.35449.79004-.66064,1.74609-1.16895,2.86816-1.52295,1.12109-.354,2.35449-.53125,3.7002-.53125s2.5791.17725,3.7002.53125,2.07715.8623,2.86816,1.52295c.79102.66113,1.41113,1.44629,1.85938,2.35449.44824.90918.67285,1.93066.67285,3.06348,0,.70801-.07031,1.33984-.21191,1.89453s-.38477,1.0625-.72656,1.52246c-.34277.46094-.79102.8916-1.3457,1.29297s-1.24512.79102-2.07129,1.16797c3.63477,1.41699,5.45312,3.70703,5.45312,6.87012,0,1.13281-.25391,2.18359-.76074,3.15137-.50879.96875-1.2168,1.80566-2.125,2.51465-.90918.70801-1.9834,1.2627-3.22266,1.66406s-2.60254.60156-4.08984.60156c-1.44043,0-2.7793-.19434-4.01953-.58398-1.23926-.38965-2.31934-.93848-3.24023-1.64648-.91992-.70801-1.64062-1.5459-2.15918-2.51465-.51953-.9668-.7793-2.0293-.7793-3.18652,0-3.23438,1.75781-5.52441,5.27637-6.87012ZM58.85352,68.32617c0,.44824.08203.87305.24707,1.27441s.38965.75.67285,1.04492.62012.53125,1.00977.70801.80859.26562,1.25684.26562c.4248,0,.83203-.08887,1.22168-.26562s.73145-.41309,1.02734-.70801c.29492-.29492.52441-.6377.69043-1.02734.16504-.38965.24805-.80859.24805-1.25684,0-.89648-.31348-1.6582-.93848-2.28418-.62598-.625-1.37598-.93848-2.24902-.93848-.89746,0-1.65234.31348-2.2666.93848-.61426.62598-.91992,1.37598-.91992,2.24902ZM59.10059,56.49902c0,.82617.2832,1.52832.85059,2.10645.56641.5791,1.2627.86719,2.08887.86719.4248,0,.81445-.08203,1.16895-.24707.35352-.16504.66016-.38379.91992-.65527s.46582-.58496.62012-.93848c.15332-.35449.23047-.71973.23047-1.09766,0-.80273-.2832-1.49316-.85059-2.07227-.56641-.57812-1.2627-.86719-2.08887-.86719s-1.52246.2832-2.08887.84961c-.56738.56738-.85059,1.25195-.85059,2.05469Z"/>
    </g>
  </symbol>
  <symbol id="G19" viewBox="0 0 100 100">
    <circle fill="#ff9500" cx="50" cy="50" r="50"/>
    <circle fill="#fff" cx="50" cy="50" r="37.8"/>
    <path fill="#231815" d="M50.19824,28.81982h12.79492c0,1.31592-.05566,2.51123-.16504,3.58545-.10938,1.07471-.3291,2.07227-.65723,2.99316-.46094,1.29395-1.08594,2.43945-1.875,3.43701-.78906.99854-1.71582,1.83154-2.7793,2.49951-1.06445.66895-2.23145,1.17871-3.50293,1.5293-1.27246.35059-2.61035.52637-4.0127.52637-1.92969,0-3.68945-.31738-5.27881-.95312-1.59033-.63574-2.95508-1.53027-4.09521-2.68066-1.14062-1.15186-2.02832-2.5332-2.66406-4.14453-.63623-1.61182-.9541-3.39307-.9541-5.34521,0-1.9292.3125-3.7002.9375-5.31201.625-1.61133,1.51318-2.9873,2.66406-4.12744,1.15137-1.14014,2.53809-2.02832,4.16113-2.66455,1.62207-.63574,3.43115-.95361,5.42676-.95361,2.58691,0,4.85645.55908,6.80859,1.67725,1.95117,1.11865,3.49707,2.85107,4.6377,5.19678l-6.11816,2.53271c-.57031-1.35938-1.31055-2.33496-2.21973-2.92725-.91016-.5918-1.94629-.88818-3.1084-.88818-.96484,0-1.8418.18115-2.63135.54297-.78906.36182-1.46338.87695-2.02246,1.5459-.55957.66895-.99805,1.4751-1.31592,2.41748-.31787.94287-.47705,1.99561-.47705,3.15771,0,1.05225.13672,2.02832.41113,2.92725.27393.89941.68506,1.67725,1.2334,2.33496.54785.6582,1.22803,1.16797,2.03955,1.52979.81104.36182,1.75391.54248,2.82861.54248.63574,0,1.24951-.0708,1.84131-.21387.59277-.14209,1.12402-.37256,1.5957-.69043.4707-.31787.86035-.729,1.16797-1.2334.30664-.50439.51465-1.11865.62402-1.84229h-5.29492v-4.99951Z"/>
    <g>
      <path fill="#231815" d="M35.30469,55.57812h-3.89502v-5.87891h10.83594v26.7002h-6.94092v-20.82129Z"/>
      <path fill="#231815" d="M54.99316,76.39941l7.57812-8.71094h-.1416c-.66113.40137-1.2041.64355-1.62891.72559-.4248.08301-.80273.12402-1.13281.12402-1.29883,0-2.49707-.24805-3.59473-.74316-1.09766-.49609-2.04199-1.17383-2.83301-2.03613-.79102-.86133-1.41113-1.87109-1.85938-3.02832-.44824-1.15625-.67236-2.39551-.67236-3.71777,0-1.41602.25977-2.73242.77881-3.94824.51953-1.21582,1.26855-2.27832,2.24902-3.1875.97949-.9082,2.16504-1.62256,3.55859-2.14209,1.39258-.51904,2.96289-.7793,4.70996-.7793,1.77051,0,3.35156.26025,4.74512.7793,1.39258.51953,2.5791,1.22754,3.55859,2.12451.97949.89746,1.72949,1.94238,2.24902,3.13379.51855,1.19238.77832,2.46191.77832,3.80664,0,1.51172-.33594,3.14648-1.00879,4.90527s-1.70605,3.4873-3.09863,5.1875l-6.19727,7.50684h-8.03809ZM66.4668,58.87109c0-.61328-.11914-1.18652-.35449-1.71777-.23633-.53125-.55469-.99707-.95605-1.39844s-.86719-.71973-1.39844-.95605c-.53125-.23535-1.10449-.35449-1.71777-.35449-.61426,0-1.18652.11914-1.71777.35449-.53125.23633-.99707.55469-1.39844.95605s-.7207.86719-.95605,1.39844c-.23633.53125-.35449,1.10449-.35449,1.71777,0,.61426.11816,1.18652.35449,1.71777.23535.53125.55469.99707.95605,1.39844s.86719.7207,1.39844.95605c.53125.23633,1.10352.35449,1.71777.35449.61328,0,1.18652-.11816,1.71777-.35449.53125-.23535.99707-.55469,1.39844-.95605s.71973-.86719.95605-1.39844c.23535-.53125.35449-1.10352.35449-1.71777Z"/>
    </g>
  </symbol>
</svg>