<?xml version="1.0" encoding="UTF-8"?>
<svg xmlns="http://www.w3.org/2000/svg" xmlns:xlink="http://www.w3.org/1999/xlink">
  <symbol id="TM" viewBox="0 0 100 100">
    <rect fill="#ae0079" width="100" height="100" rx="17.5" ry="17.5"/>
    <g>
      <path fill="#fff" d="M20.41064,37.5957h-10.79395v-7.5918h30.78271v7.5918h-10.9458v32.4043h-9.04297v-32.4043Z"/>
      <path fill="#fff" d="M78.77637,54.70215c-.18652-4.84668-.36914-10.61377-.34766-16.47607h-.16309c-1.27539,5.11865-2.95703,10.80371-4.46094,15.52393l-4.89844,15.59473h-7.02734l-4.30957-15.45605c-1.29004-4.70996-2.61816-10.39062-3.61035-15.6626h-.125c-.19727,5.43994-.41992,11.61377-.66113,16.59521l-.74609,15.17871h-8.3667l2.56006-39.99609h12.05566l3.90137,13.36719c1.26367,4.58545,2.49805,9.61133,3.3916,14.2998h.19141c1.09375-4.62988,2.44824-9.90625,3.80469-14.36084l4.24805-13.30615h11.83008l2.14648,39.99609h-8.79102l-.62207-15.29785Z"/>
    </g>
  </symbol>
  <symbol id="TM01" viewBox="0 0 100 100">
    <rect fill="#ae0079" width="100" height="100" rx="17.5" ry="17.5"/>
    <g>
      <path fill="#fff" d="M30.52832,15.54395h-7.10547v-4.99707h20.26318v4.99707h-7.20508v21.33105h-5.95264V15.54395Z"/>
      <path fill="#fff" d="M68.94336,26.80518c-.12207-3.19092-.24219-6.98682-.22852-10.84619h-.10742c-.83984,3.36963-1.94629,7.11182-2.93652,10.21924l-3.22461,10.26562h-4.62598l-2.83594-10.17432c-.84961-3.10059-1.72461-6.83984-2.37695-10.31055h-.08203c-.12988,3.58105-.27734,7.64502-.43555,10.92432l-.49121,9.9917h-5.50732l1.68506-26.32812h7.93555l2.56836,8.79883c.83203,3.01855,1.64453,6.32764,2.23242,9.41357h.12598c.7207-3.04785,1.61133-6.521,2.50488-9.45312l2.7959-8.75928h7.78711l1.41309,26.32812h-5.78613l-.41016-10.06982Z"/>
    </g>
    <g>
      <path fill="#fff" d="M47.94385,68.08887c0,12.62695-5.12451,21.35449-15.5708,21.35449-10.60107,0-15.28125-9.50195-15.32129-21.09473,0-11.90625,4.99658-21.27441,15.5957-21.27441,10.95752,0,15.29639,9.77832,15.29639,21.01465ZM26.64551,68.30859c-.0249,9.43359,2.25586,13.89551,5.92285,13.89551,3.73291,0,5.78174-4.68164,5.78174-13.99512,0-9.08398-1.98389-13.8584-5.80273-13.8584-3.52637,0-5.91406,4.41992-5.90186,13.95801Z"/>
      <path fill="#fff" d="M64.86719,56.30762h-.12598l-7.79297,3.70117-1.58594-7.19141,10.86621-5.04932h7.91016v40.98193h-9.27148v-32.44238Z"/>
    </g>
  </symbol>
  <symbol id="TM02" viewBox="0 0 100 100">
    <rect fill="#ae0079" width="100" height="100" rx="17.5" ry="17.5"/>
    <g>
      <path fill="#fff" d="M30.52832,15.54395h-7.10547v-4.99707h20.26318v4.99707h-7.20508v21.33105h-5.95264V15.54395Z"/>
      <path fill="#fff" d="M68.94336,26.80518c-.12207-3.19092-.24219-6.98682-.22852-10.84619h-.10742c-.83984,3.36963-1.94629,7.11182-2.93652,10.21924l-3.22461,10.26562h-4.62598l-2.83594-10.17432c-.84961-3.10059-1.72461-6.83984-2.37695-10.31055h-.08203c-.12988,3.58105-.27734,7.64502-.43555,10.92432l-.49121,9.9917h-5.50732l1.68506-26.32812h7.93555l2.56836,8.79883c.83203,3.01855,1.64453,6.32764,2.23242,9.41357h.12598c.7207-3.04785,1.61133-6.521,2.50488-9.45312l2.7959-8.75928h7.78711l1.41309,26.32812h-5.78613l-.41016-10.06982Z"/>
    </g>
    <g>
      <path fill="#fff" d="M47.94385,68.08887c0,12.62695-5.12451,21.35449-15.5708,21.35449-10.60107,0-15.28125-9.50195-15.32129-21.09473,0-11.90625,4.99658-21.27441,15.5957-21.27441,10.95752,0,15.29639,9.77832,15.29639,21.01465ZM26.64551,68.30859c-.0249,9.43359,2.25586,13.89551,5.92285,13.89551,3.73291,0,5.78174-4.68164,5.78174-13.99512,0-9.08398-1.98389-13.8584-5.80273-13.8584-3.52637,0-5.91406,4.41992-5.90186,13.95801Z"/>
      <path fill="#fff" d="M52.66406,88.75v-5.80371l5.27441-4.76367c8.96875-8.05176,13.33496-12.63086,13.41016-17.42383,0-3.32617-1.96191-5.97754-6.70898-5.97754-3.5293,0-6.6123,1.76953-8.77246,3.36914l-2.68945-6.84668c3.05859-2.32471,7.88281-4.22949,13.39062-4.22949,9.30762,0,14.36328,5.42773,14.36328,12.84277,0,6.87695-4.92383,12.39844-10.89648,17.66113l-3.7959,3.14648v.12695h15.50488v7.89844h-29.08008Z"/>
    </g>
  </symbol>
  <symbol id="TM03" viewBox="0 0 100 100">
    <rect fill="#ae0079" width="100" height="100" rx="17.5" ry="17.5"/>
    <g>
      <path fill="#fff" d="M30.52832,15.54395h-7.10547v-4.99707h20.26318v4.99707h-7.20508v21.33105h-5.95264V15.54395Z"/>
      <path fill="#fff" d="M68.94336,26.80518c-.12207-3.19092-.24219-6.98682-.22852-10.84619h-.10742c-.83984,3.36963-1.94629,7.11182-2.93652,10.21924l-3.22461,10.26562h-4.62598l-2.83594-10.17432c-.84961-3.10059-1.72461-6.83984-2.37695-10.31055h-.08203c-.12988,3.58105-.27734,7.64502-.43555,10.92432l-.49121,9.9917h-5.50732l1.68506-26.32812h7.93555l2.56836,8.79883c.83203,3.01855,1.64453,6.32764,2.23242,9.41357h.12598c.7207-3.04785,1.61133-6.521,2.50488-9.45312l2.7959-8.75928h7.78711l1.41309,26.32812h-5.78613l-.41016-10.06982Z"/>
    </g>
    <g>
      <path fill="#fff" d="M47.94385,68.08887c0,12.62695-5.12451,21.35449-15.5708,21.35449-10.60107,0-15.28125-9.50195-15.32129-21.09473,0-11.90625,4.99658-21.27441,15.5957-21.27441,10.95752,0,15.29639,9.77832,15.29639,21.01465ZM26.64551,68.30859c-.0249,9.43359,2.25586,13.89551,5.92285,13.89551,3.73291,0,5.78174-4.68164,5.78174-13.99512,0-9.08398-1.98389-13.8584-5.80273-13.8584-3.52637,0-5.91406,4.41992-5.90186,13.95801Z"/>
      <path fill="#fff" d="M54.3584,79.36621c1.67188.90039,5.63281,2.49512,9.53516,2.49512,4.96777,0,7.49805-2.38574,7.48828-5.44531-.02051-4.0625-4.03223-5.89844-8.26367-5.91113h-3.90625v-6.87891h3.74316c3.20898-.01172,7.25977-1.25488,7.25977-4.70703,0-2.44727-1.98535-4.28711-6.02637-4.28711-3.37109,0-6.89062,1.44629-8.55371,2.45508l-1.96875-6.90869c2.47656-1.59229,7.36523-3.104,12.67773-3.104,8.76465,0,13.60156,4.60059,13.60156,10.22852,0,4.30469-2.47461,7.74512-7.48926,9.50488v.12695c4.91211.88379,8.87988,4.59082,8.87988,9.9834,0,7.23438-6.37988,12.52539-16.76074,12.52539-5.31738,0-9.78613-1.36621-12.16016-2.87012l1.94336-7.20703Z"/>
    </g>
  </symbol>
  <symbol id="TM04" viewBox="0 0 100 100">
    <rect fill="#ae0079" width="100" height="100" rx="17.5" ry="17.5"/>
    <g>
      <path fill="#fff" d="M30.52832,15.54395h-7.10547v-4.99707h20.26318v4.99707h-7.20508v21.33105h-5.95264V15.54395Z"/>
      <path fill="#fff" d="M68.94336,26.80518c-.12207-3.19092-.24219-6.98682-.22852-10.84619h-.10742c-.83984,3.36963-1.94629,7.11182-2.93652,10.21924l-3.22461,10.26562h-4.62598l-2.83594-10.17432c-.84961-3.10059-1.72461-6.83984-2.37695-10.31055h-.08203c-.12988,3.58105-.27734,7.64502-.43555,10.92432l-.49121,9.9917h-5.50732l1.68506-26.32812h7.93555l2.56836,8.79883c.83203,3.01855,1.64453,6.32764,2.23242,9.41357h.12598c.7207-3.04785,1.61133-6.521,2.50488-9.45312l2.7959-8.75928h7.78711l1.41309,26.32812h-5.78613l-.41016-10.06982Z"/>
    </g>
    <g>
      <path fill="#fff" d="M47.94385,68.08887c0,12.62695-5.12451,21.35449-15.5708,21.35449-10.60107,0-15.28125-9.50195-15.32129-21.09473,0-11.90625,4.99658-21.27441,15.5957-21.27441,10.95752,0,15.29639,9.77832,15.29639,21.01465ZM26.64551,68.30859c-.0249,9.43359,2.25586,13.89551,5.92285,13.89551,3.73291,0,5.78174-4.68164,5.78174-13.99512,0-9.08398-1.98389-13.8584-5.80273-13.8584-3.52637,0-5.91406,4.41992-5.90186,13.95801Z"/>
      <path fill="#fff" d="M69.63184,88.75v-9.79297h-18.16797v-6.21875l15.4834-24.97021h11.73535v24.01807h4.89355v7.1709h-4.89355v9.79297h-9.05078ZM69.63184,71.78613v-9.06152c0-2.46094.13086-4.99902.27344-7.63867l-.23047-.00977c-1.31055,2.6748-2.41406,5.04297-3.80176,7.60645l-5.46191,8.97754-.03711.12598h9.25781Z"/>
    </g>
  </symbol>
  <symbol id="TM05" viewBox="0 0 100 100">
    <rect fill="#ae0079" width="100" height="100" rx="17.5" ry="17.5"/>
    <g>
      <path fill="#fff" d="M30.52832,15.54395h-7.10547v-4.99707h20.26318v4.99707h-7.20508v21.33105h-5.95264V15.54395Z"/>
      <path fill="#fff" d="M68.94336,26.80518c-.12207-3.19092-.24219-6.98682-.22852-10.84619h-.10742c-.83984,3.36963-1.94629,7.11182-2.93652,10.21924l-3.22461,10.26562h-4.62598l-2.83594-10.17432c-.84961-3.10059-1.72461-6.83984-2.37695-10.31055h-.08203c-.12988,3.58105-.27734,7.64502-.43555,10.92432l-.49121,9.9917h-5.50732l1.68506-26.32812h7.93555l2.56836,8.79883c.83203,3.01855,1.64453,6.32764,2.23242,9.41357h.12598c.7207-3.04785,1.61133-6.521,2.50488-9.45312l2.7959-8.75928h7.78711l1.41309,26.32812h-5.78613l-.41016-10.06982Z"/>
    </g>
    <g>
      <path fill="#fff" d="M47.94385,68.08887c0,12.62695-5.12451,21.35449-15.5708,21.35449-10.60107,0-15.28125-9.50195-15.32129-21.09473,0-11.90625,4.99658-21.27441,15.5957-21.27441,10.95752,0,15.29639,9.77832,15.29639,21.01465ZM26.64551,68.30859c-.0249,9.43359,2.25586,13.89551,5.92285,13.89551,3.73291,0,5.78174-4.68164,5.78174-13.99512,0-9.08398-1.98389-13.8584-5.80273-13.8584-3.52637,0-5.91406,4.41992-5.90186,13.95801Z"/>
      <path fill="#fff" d="M79.99805,55.66113h-15.90039l-.88281,6.27539c.9082-.10449,1.6709-.13477,2.6543-.13477,3.91113.0127,7.92773.91211,10.81152,2.95898,3.08203,2.11035,4.9668,5.52246,4.9668,10.30762,0,7.65234-6.5498,14.375-17.5957,14.375-4.9668,0-9.1123-1.14062-11.41602-2.3252l1.74512-7.20605c1.81543.89746,5.5332,2.04883,9.22852,2.04883,3.98828,0,8.21289-1.9082,8.20312-6.2666-.01074-4.19922-3.36914-6.80762-11.53711-6.80762-2.24805,0-3.85059.1582-5.51758.37891l2.66016-21.49756h22.58008v7.89307Z"/>
    </g>
  </symbol>
  <symbol id="TM06" viewBox="0 0 100 100">
    <rect fill="#ae0079" width="100" height="100" rx="17.5" ry="17.5"/>
    <g>
      <path fill="#fff" d="M30.52832,15.54395h-7.10547v-4.99707h20.26318v4.99707h-7.20508v21.33105h-5.95264V15.54395Z"/>
      <path fill="#fff" d="M68.94336,26.80518c-.12207-3.19092-.24219-6.98682-.22852-10.84619h-.10742c-.83984,3.36963-1.94629,7.11182-2.93652,10.21924l-3.22461,10.26562h-4.62598l-2.83594-10.17432c-.84961-3.10059-1.72461-6.83984-2.37695-10.31055h-.08203c-.12988,3.58105-.27734,7.64502-.43555,10.92432l-.49121,9.9917h-5.50732l1.68506-26.32812h7.93555l2.56836,8.79883c.83203,3.01855,1.64453,6.32764,2.23242,9.41357h.12598c.7207-3.04785,1.61133-6.521,2.50488-9.45312l2.7959-8.75928h7.78711l1.41309,26.32812h-5.78613l-.41016-10.06982Z"/>
    </g>
    <g>
      <path fill="#fff" d="M47.94385,68.08887c0,12.62695-5.12451,21.35449-15.5708,21.35449-10.60107,0-15.28125-9.50195-15.32129-21.09473,0-11.90625,4.99658-21.27441,15.5957-21.27441,10.95752,0,15.29639,9.77832,15.29639,21.01465ZM26.64551,68.30859c-.0249,9.43359,2.25586,13.89551,5.92285,13.89551,3.73291,0,5.78174-4.68164,5.78174-13.99512,0-9.08398-1.98389-13.8584-5.80273-13.8584-3.52637,0-5.91406,4.41992-5.90186,13.95801Z"/>
      <path fill="#fff" d="M78.8252,54.60547c-1.10156-.06152-2.23926-.02051-3.74316.10254-8.52441.68555-12.28613,5.01953-13.37598,9.80176h.18848c2.05273-2.02832,4.89746-3.24805,8.69727-3.24805,6.87891,0,12.68848,4.84863,12.68848,13.38574,0,8.13477-6.23535,14.7959-15.10449,14.7959-10.93262,0-16.27246-8.14355-16.27246-17.87695,0-7.7373,2.82617-14.15527,7.26562-18.26758,4.07812-3.72949,9.3916-5.72998,15.78418-6.0376,1.76855-.14453,2.94336-.09668,3.8623-.0376l.00977,7.38184ZM73.56152,75.14844c-.0127-3.7998-1.99609-7.0625-6.08789-7.0625-2.5752,0-4.74121,1.56543-5.66016,3.62012-.27539.54785-.41992,1.29297-.41992,2.43945.19043,4.32812,2.27246,8.24805,6.6416,8.24805,3.39844,0,5.52637-3.07617,5.52637-7.24512Z"/>
    </g>
  </symbol>
  <symbol id="TM07" viewBox="0 0 100 100">
    <rect fill="#ae0079" width="100" height="100" rx="17.5" ry="17.5"/>
    <g>
      <path fill="#fff" d="M30.52832,15.54395h-7.10547v-4.99707h20.26318v4.99707h-7.20508v21.33105h-5.95264V15.54395Z"/>
      <path fill="#fff" d="M68.94336,26.80518c-.12207-3.19092-.24219-6.98682-.22852-10.84619h-.10742c-.83984,3.36963-1.94629,7.11182-2.93652,10.21924l-3.22461,10.26562h-4.62598l-2.83594-10.17432c-.84961-3.10059-1.72461-6.83984-2.37695-10.31055h-.08203c-.12988,3.58105-.27734,7.64502-.43555,10.92432l-.49121,9.9917h-5.50732l1.68506-26.32812h7.93555l2.56836,8.79883c.83203,3.01855,1.64453,6.32764,2.23242,9.41357h.12598c.7207-3.04785,1.61133-6.521,2.50488-9.45312l2.7959-8.75928h7.78711l1.41309,26.32812h-5.78613l-.41016-10.06982Z"/>
    </g>
    <g>
      <path fill="#fff" d="M47.94385,68.08887c0,12.62695-5.12451,21.35449-15.5708,21.35449-10.60107,0-15.28125-9.50195-15.32129-21.09473,0-11.90625,4.99658-21.27441,15.5957-21.27441,10.95752,0,15.29639,9.77832,15.29639,21.01465ZM26.64551,68.30859c-.0249,9.43359,2.25586,13.89551,5.92285,13.89551,3.73291,0,5.78174-4.68164,5.78174-13.99512,0-9.08398-1.98389-13.8584-5.80273-13.8584-3.52637,0-5.91406,4.41992-5.90186,13.95801Z"/>
      <path fill="#fff" d="M82.04102,47.76807v6.03174l-16.8916,34.9502h-10.16895l16.88867-32.95801v-.12598h-18.78906v-7.89795h28.96094Z"/>
    </g>
  </symbol>
</svg>
