<?xml version="1.0" encoding="UTF-8"?>
<svg xmlns="http://www.w3.org/2000/svg" xmlns:xlink="http://www.w3.org/1999/xlink">
  <symbol id="Main" viewBox="0 0 100 100">
    <rect fill="#3a7abb" width="100" height="100" rx="17.5" ry="17.5"/>
    <rect fill="#fff" x="6.25" y="6.25" width="87.5" height="87.5" rx="11.25" ry="11.25"/>
    <path fill="#3a7abb" d="M29.5166,34.24316v-9.24414h40.96777v9.24414h-14.98633v40.75684h-10.99512v-40.75684h-14.98633Z"/>
  </symbol>
  <symbol id="Tateyama" viewBox="0 0 100 100">
    <rect fill="#78b72d" width="100" height="100" rx="17.5" ry="17.5"/>
    <rect fill="#fff" x="6.25" y="6.25" width="87.5" height="87.5" rx="11.25" ry="11.25"/>
    <path fill="#78b72d" d="M29.5166,34.24316v-9.24414h40.96777v9.24414h-14.98633v40.75684h-10.99512v-40.75684h-14.98633Z"/>
  </symbol>
  <symbol id="FujikoshiKamidaki" viewBox="0 0 100 100">
    <rect fill="#e26b36" width="100" height="100" rx="17.5" ry="17.5"/>
    <rect fill="#fff" x="6.25" y="6.25" width="87.5" height="87.5" rx="11.25" ry="11.25"/>
    <path fill="#e26b36" d="M29.5166,34.24316v-9.24414h40.96777v9.24414h-14.98633v40.75684h-10.99512v-40.75684h-14.98633Z"/>
  </symbol>
  <symbol id="T01" viewBox="0 0 100 100">
    <rect fill="#3a7abb" width="100" height="100" rx="17.5" ry="17.5"/>
    <rect fill="#fff" x="6.25" y="6.25" width="87.5" height="87.5" rx="11.25" ry="11.25"/>
    <path fill="#3a7abb" d="M37.71045,15.5459v-5.54639h24.58057v5.54639h-8.99219v24.4541h-6.59668V15.5459h-8.9917Z"/>
    <g>
      <path fill="#3a7abb" d="M20.32227,67.96973c0-12.71191,4.69727-21.66504,14.09277-21.66504,9.83789,0,13.65137,9.72656,13.65137,21.33301,0,13.81641-5.14014,21.71973-13.92773,21.71973-9.72705,0-13.81641-9.72656-13.81641-21.3877ZM34.24951,82.8916c3.7583,0,5.63721-5.30566,5.63721-15.08789,0-9.45117-1.71338-15.0332-5.58203-15.0332-3.53711,0-5.80322,5.08496-5.80322,15.0332,0,9.89258,2.04492,15.08789,5.69287,15.08789h.05518Z"/>
      <path fill="#3a7abb" d="M63.70605,88.75v-34.4873h-.11035l-7.18457,3.75879-1.76855-5.8584,10.16895-5.19531h6.85352v41.78223h-7.95898Z"/>
    </g>
  </symbol>
  <symbol id="T02" viewBox="0 0 100 100">
    <rect fill="#3a7abb" width="100" height="100" rx="17.5" ry="17.5"/>
    <rect fill="#fff" x="6.25" y="6.25" width="87.5" height="87.5" rx="11.25" ry="11.25"/>
    <path fill="#3a7abb" d="M37.71045,15.5459v-5.54639h24.58057v5.54639h-8.99219v24.4541h-6.59668V15.5459h-8.9917Z"/>
    <g>
      <path fill="#3a7abb" d="M20.32227,67.96973c0-12.71191,4.69727-21.66504,14.09277-21.66504,9.83789,0,13.65137,9.72656,13.65137,21.33301,0,13.81641-5.14014,21.71973-13.92773,21.71973-9.72705,0-13.81641-9.72656-13.81641-21.3877ZM34.24951,82.8916c3.7583,0,5.63721-5.30566,5.63721-15.08789,0-9.45117-1.71338-15.0332-5.58203-15.0332-3.53711,0-5.80322,5.08496-5.80322,15.0332,0,9.89258,2.04492,15.08789,5.69287,15.08789h.05518Z"/>
      <path fill="#3a7abb" d="M78.51855,88.75h-26.1416v-5.0293l4.64258-4.97461c7.90332-8.17969,12.54492-13.54004,12.54492-19.17773,0-3.64746-1.93359-6.6875-6.52148-6.6875-3.03906,0-5.8584,1.60352-7.79199,3.04004l-2.2666-5.85791c2.59766-1.98975,6.90918-3.7583,11.7168-3.7583,8.95312,0,13.04297,5.69238,13.04297,12.49023,0,7.40625-5.0293,13.48535-11.1084,19.62012l-3.48145,3.42676v.11035h15.36426v6.79785Z"/>
    </g>
  </symbol>
  <symbol id="T03" viewBox="0 0 100 100">
    <rect fill="#3a7abb" width="100" height="100" rx="17.5" ry="17.5"/>
    <rect fill="#fff" x="6.25" y="6.25" width="87.5" height="87.5" rx="11.25" ry="11.25"/>
    <path fill="#3a7abb" d="M37.71045,15.5459v-5.54639h24.58057v5.54639h-8.99219v24.4541h-6.59668V15.5459h-8.9917Z"/>
    <g>
      <path fill="#3a7abb" d="M20.32227,67.96973c0-12.71191,4.69727-21.66504,14.09277-21.66504,9.83789,0,13.65137,9.72656,13.65137,21.33301,0,13.81641-5.14014,21.71973-13.92773,21.71973-9.72705,0-13.81641-9.72656-13.81641-21.3877ZM34.24951,82.8916c3.7583,0,5.63721-5.30566,5.63721-15.08789,0-9.45117-1.71338-15.0332-5.58203-15.0332-3.53711,0-5.80322,5.08496-5.80322,15.0332,0,9.89258,2.04492,15.08789,5.69287,15.08789h.05518Z"/>
      <path fill="#3a7abb" d="M69.39941,66.25586c4.64258,1.0498,8.51074,4.80859,8.51074,10.50098,0,6.96387-5.58203,12.60059-15.30859,12.60059-4.42188,0-8.40137-1.16016-10.50098-2.54199l1.82324-6.19043c1.54785.99512,4.91895,2.2666,8.125,2.2666,5.0293,0,7.51562-3.09473,7.51562-6.52148,0-4.69824-4.08984-6.9082-8.56641-6.9082h-2.81836v-5.74805h2.65332c3.26074,0,7.46094-1.82422,7.46094-5.8584,0-2.92969-1.93457-5.08496-5.80371-5.08496-2.87305,0-5.69238,1.27148-7.29492,2.2666l-1.71289-5.8584c2.15527-1.43701,6.41113-2.87402,10.8877-2.87402,8.01367,0,12.21387,4.69727,12.21387,10.22461,0,4.31055-2.59766,7.90332-7.18457,9.61621v.11035Z"/>
    </g>
  </symbol>
  <symbol id="T04" viewBox="0 0 100 100">
    <rect fill="#3a7abb" width="100" height="100" rx="17.5" ry="17.5"/>
    <rect fill="#fff" x="6.25" y="6.25" width="87.5" height="87.5" rx="11.25" ry="11.25"/>
    <path fill="#3a7abb" d="M37.71045,15.5459v-5.54639h24.58057v5.54639h-8.99219v24.4541h-6.59668V15.5459h-8.9917Z"/>
    <g>
      <path fill="#3a7abb" d="M20.32227,67.96973c0-12.71191,4.69727-21.66504,14.09277-21.66504,9.83789,0,13.65137,9.72656,13.65137,21.33301,0,13.81641-5.14014,21.71973-13.92773,21.71973-9.72705,0-13.81641-9.72656-13.81641-21.3877ZM34.24951,82.8916c3.7583,0,5.63721-5.30566,5.63721-15.08789,0-9.45117-1.71338-15.0332-5.58203-15.0332-3.53711,0-5.80322,5.08496-5.80322,15.0332,0,9.89258,2.04492,15.08789,5.69287,15.08789h.05518Z"/>
      <path fill="#3a7abb" d="M75.64453,88.75h-7.57227v-10.33496h-16.85645v-5.30566l15.19922-26.1416h9.22949v25.25684h4.80762v6.19043h-4.80762v10.33496ZM58.51172,72.22461h9.56055v-10.38965c0-2.43262.16602-5.08496.33203-7.57227h-.2207c-1.27148,2.65332-2.2666,4.97461-3.53711,7.35059l-6.13477,10.50098v.11035Z"/>
    </g>
  </symbol>
  <symbol id="T05" viewBox="0 0 100 100">
    <rect fill="#3a7abb" width="100" height="100" rx="17.5" ry="17.5"/>
    <rect fill="#fff" x="6.25" y="6.25" width="87.5" height="87.5" rx="11.25" ry="11.25"/>
    <path fill="#3a7abb" d="M37.71045,15.5459v-5.54639h24.58057v5.54639h-8.99219v24.4541h-6.59668V15.5459h-8.9917Z"/>
    <g>
      <path fill="#3a7abb" d="M20.32227,67.96973c0-12.71191,4.69727-21.66504,14.09277-21.66504,9.83789,0,13.65137,9.72656,13.65137,21.33301,0,13.81641-5.14014,21.71973-13.92773,21.71973-9.72705,0-13.81641-9.72656-13.81641-21.3877ZM34.24951,82.8916c3.7583,0,5.63721-5.30566,5.63721-15.08789,0-9.45117-1.71338-15.0332-5.58203-15.0332-3.53711,0-5.80322,5.08496-5.80322,15.0332,0,9.89258,2.04492,15.08789,5.69287,15.08789h.05518Z"/>
      <path fill="#3a7abb" d="M77.08105,46.9126v6.74268h-14.20312l-1.10547,8.17969c.77344-.11133,1.43652-.16602,2.32129-.16602,7.29492,0,14.14844,4.08984,14.14844,13.09863,0,8.01367-6.13477,14.58984-15.97266,14.58984-4.14453,0-7.90332-1.0498-9.94824-2.15527l1.60254-6.18945c1.6582.88379,4.69824,1.93359,7.90332,1.93359,4.25586,0,8.17969-2.70801,8.17969-7.51562,0-5.0293-3.70312-7.84863-10.77734-7.84863-1.87891,0-3.31543.11133-4.69727.27637l2.54199-20.9458h20.00684Z"/>
    </g>
  </symbol>
  <symbol id="T06" viewBox="0 0 100 100">
    <rect fill="#3a7abb" width="100" height="100" rx="17.5" ry="17.5"/>
    <rect fill="#fff" x="6.25" y="6.25" width="87.5" height="87.5" rx="11.25" ry="11.25"/>
    <path fill="#3a7abb" d="M37.71045,15.5459v-5.54639h24.58057v5.54639h-8.99219v24.4541h-6.59668V15.5459h-8.9917Z"/>
    <g>
      <path fill="#3a7abb" d="M20.32227,67.96973c0-12.71191,4.69727-21.66504,14.09277-21.66504,9.83789,0,13.65137,9.72656,13.65137,21.33301,0,13.81641-5.14014,21.71973-13.92773,21.71973-9.72705,0-13.81641-9.72656-13.81641-21.3877ZM34.24951,82.8916c3.7583,0,5.63721-5.30566,5.63721-15.08789,0-9.45117-1.71338-15.0332-5.58203-15.0332-3.53711,0-5.80322,5.08496-5.80322,15.0332,0,9.89258,2.04492,15.08789,5.69287,15.08789h.05518Z"/>
      <path fill="#3a7abb" d="M60.22461,64.92969c1.82422-2.21094,4.69824-3.70312,8.29004-3.70312,6.4668,0,11.44043,4.91895,11.44043,13.26465,0,7.90234-5.13965,14.86621-13.5957,14.86621-9.45117,0-14.53516-7.57129-14.53516-17.7959,0-9.56152,4.31055-25.20166,24.20703-25.20166v6.30029c-1.0498,0-2.21094.11035-3.59277.27637-7.68164,1.0498-11.3291,6.46582-12.37988,11.99316h.16602ZM71.83105,74.87793c0-4.36621-2.10059-7.95898-5.91406-7.95898-2.43164,0-5.96875,2.10059-5.96875,6.79785.11035,5.41602,2.32129,9.72754,6.35547,9.72754,3.59277,0,5.52734-3.86914,5.52734-8.56641Z"/>
    </g>
  </symbol>
  <symbol id="T07" viewBox="0 0 100 100">
    <rect fill="#3a7abb" width="100" height="100" rx="17.5" ry="17.5"/>
    <rect fill="#fff" x="6.25" y="6.25" width="87.5" height="87.5" rx="11.25" ry="11.25"/>
    <path fill="#3a7abb" d="M37.71045,15.5459v-5.54639h24.58057v5.54639h-8.99219v24.4541h-6.59668V15.5459h-8.9917Z"/>
    <g>
      <path fill="#3a7abb" d="M20.32227,67.96973c0-12.71191,4.69727-21.66504,14.09277-21.66504,9.83789,0,13.65137,9.72656,13.65137,21.33301,0,13.81641-5.14014,21.71973-13.92773,21.71973-9.72705,0-13.81641-9.72656-13.81641-21.3877ZM34.24951,82.8916c3.7583,0,5.63721-5.30566,5.63721-15.08789,0-9.45117-1.71338-15.0332-5.58203-15.0332-3.53711,0-5.80322,5.08496-5.80322,15.0332,0,9.89258,2.04492,15.08789,5.69287,15.08789h.05518Z"/>
      <path fill="#3a7abb" d="M52.98438,46.96777h26.03125v5.08496l-15.80664,36.69727h-8.40039l15.86133-34.92871v-.11133h-17.68555v-6.74219Z"/>
    </g>
  </symbol>
  <symbol id="T08" viewBox="0 0 100 100">
    <rect fill="#3a7abb" width="100" height="100" rx="17.5" ry="17.5"/>
    <rect fill="#fff" x="6.25" y="6.25" width="87.5" height="87.5" rx="11.25" ry="11.25"/>
    <path fill="#3a7abb" d="M37.71045,15.5459v-5.54639h24.58057v5.54639h-8.99219v24.4541h-6.59668V15.5459h-8.9917Z"/>
    <g>
      <path fill="#3a7abb" d="M20.32227,67.96973c0-12.71191,4.69727-21.66504,14.09277-21.66504,9.83789,0,13.65137,9.72656,13.65137,21.33301,0,13.81641-5.14014,21.71973-13.92773,21.71973-9.72705,0-13.81641-9.72656-13.81641-21.3877ZM34.24951,82.8916c3.7583,0,5.63721-5.30566,5.63721-15.08789,0-9.45117-1.71338-15.0332-5.58203-15.0332-3.53711,0-5.80322,5.08496-5.80322,15.0332,0,9.89258,2.04492,15.08789,5.69287,15.08789h.05518Z"/>
      <path fill="#3a7abb" d="M59.1748,66.80859c-3.86914-2.15527-5.91406-5.6377-5.91406-9.1748,0-6.90771,5.69238-11.3291,12.93262-11.3291,8.29004,0,12.21387,5.25,12.21387,10.50098,0,3.37109-1.87891,7.07422-6.13379,9.39551v.11035c4.08887,1.87891,7.46094,5.4707,7.46094,10.66602,0,7.46094-5.8584,12.37988-14.14844,12.37988-8.89844,0-13.65137-5.4707-13.65137-11.44043,0-5.13965,3.04004-8.84277,7.24023-10.94238v-.16602ZM71.55469,77.64062c0-4.08984-2.76367-6.68652-6.41113-7.90234-3.15039,1.16016-5.0293,4.08887-5.0293,7.40527,0,3.53711,2.15527,6.63184,5.69238,6.63184,3.70312,0,5.74805-2.87402,5.74805-6.13477ZM60.94336,57.24707c0,3.20605,2.32129,5.41699,5.58203,6.63281,2.32129-.94043,4.25488-3.53711,4.25488-6.35645,0-2.87402-1.38086-5.74707-4.86328-5.74707-3.5918,0-4.97363,2.81836-4.97363,5.4707Z"/>
    </g>
  </symbol>
  <symbol id="T09" viewBox="0 0 100 100">
    <rect fill="#3a7abb" width="100" height="100" rx="17.5" ry="17.5"/>
    <rect fill="#fff" x="6.25" y="6.25" width="87.5" height="87.5" rx="11.25" ry="11.25"/>
    <path fill="#3a7abb" d="M37.71045,15.5459v-5.54639h24.58057v5.54639h-8.99219v24.4541h-6.59668V15.5459h-8.9917Z"/>
    <g>
      <path fill="#3a7abb" d="M20.32227,67.96973c0-12.71191,4.69727-21.66504,14.09277-21.66504,9.83789,0,13.65137,9.72656,13.65137,21.33301,0,13.81641-5.14014,21.71973-13.92773,21.71973-9.72705,0-13.81641-9.72656-13.81641-21.3877ZM34.24951,82.8916c3.7583,0,5.63721-5.30566,5.63721-15.08789,0-9.45117-1.71338-15.0332-5.58203-15.0332-3.53711,0-5.80322,5.08496-5.80322,15.0332,0,9.89258,2.04492,15.08789,5.69287,15.08789h.05518Z"/>
      <path fill="#3a7abb" d="M71.33301,70.56641c-1.76855,1.99023-4.36523,3.26074-7.84766,3.26074-6.46582,0-11.55078-4.91797-11.55078-12.71094s5.41602-14.81152,13.92773-14.81152c9.11914,0,13.81641,7.62695,13.81641,17.62988,0,14.48047-7.5166,26.1416-24.31738,25.36816v-6.41113c1.27051.11035,2.09961,0,4.03418-.16602,6.9082-.71875,10.8877-5.74805,12.10352-12.10352l-.16602-.05566ZM60.05859,60.39746c0,4.91895,2.32129,7.90332,5.6377,7.90332,2.4873,0,4.36621-1.54785,5.25-3.15039.33203-.60742.44238-1.43652.44238-3.03906,0-5.58203-1.87891-10.00391-5.80273-10.00391-3.31641,0-5.52734,3.53711-5.52734,8.29004Z"/>
    </g>
  </symbol>
  <symbol id="T10" viewBox="0 0 100 100">
    <rect fill="#3a7abb" width="100" height="100" rx="17.5" ry="17.5"/>
    <rect fill="#fff" x="6.25" y="6.25" width="87.5" height="87.5" rx="11.25" ry="11.25"/>
    <path fill="#3a7abb" d="M37.71045,15.5459v-5.54639h24.58057v5.54639h-8.99219v24.4541h-6.59668V15.5459h-8.9917Z"/>
    <g>
      <path fill="#3a7abb" d="M32.09375,88.75v-34.4873h-.11035l-7.18457,3.75879-1.76855-5.8584,10.16895-5.19531h6.85352v41.78223h-7.95898Z"/>
      <path fill="#3a7abb" d="M51.93457,67.96973c0-12.71191,4.69727-21.66504,14.09277-21.66504,9.83789,0,13.65137,9.72656,13.65137,21.33301,0,13.81641-5.13965,21.71973-13.92773,21.71973-9.72656,0-13.81641-9.72656-13.81641-21.3877ZM65.8623,82.8916c3.75781,0,5.63672-5.30566,5.63672-15.08789,0-9.45117-1.71289-15.0332-5.58203-15.0332-3.53711,0-5.80273,5.08496-5.80273,15.0332,0,9.89258,2.04492,15.08789,5.69238,15.08789h.05566Z"/>
    </g>
  </symbol>
  <symbol id="T11" viewBox="0 0 100 100">
    <rect fill="#3a7abb" width="100" height="100" rx="17.5" ry="17.5"/>
    <rect fill="#fff" x="6.25" y="6.25" width="87.5" height="87.5" rx="11.25" ry="11.25"/>
    <path fill="#3a7abb" d="M37.71045,15.5459v-5.54639h24.58057v5.54639h-8.99219v24.4541h-6.59668V15.5459h-8.9917Z"/>
    <g>
      <path fill="#3a7abb" d="M32.09375,88.75v-34.4873h-.11035l-7.18457,3.75879-1.76855-5.8584,10.16895-5.19531h6.85352v41.78223h-7.95898Z"/>
      <path fill="#3a7abb" d="M63.70605,88.75v-34.4873h-.11035l-7.18457,3.75879-1.76855-5.8584,10.16895-5.19531h6.85352v41.78223h-7.95898Z"/>
    </g>
  </symbol>
  <symbol id="T12" viewBox="0 0 100 100">
    <rect fill="#3a7abb" width="100" height="100" rx="17.5" ry="17.5"/>
    <rect fill="#fff" x="6.25" y="6.25" width="87.5" height="87.5" rx="11.25" ry="11.25"/>
    <path fill="#3a7abb" d="M37.71045,15.5459v-5.54639h24.58057v5.54639h-8.99219v24.4541h-6.59668V15.5459h-8.9917Z"/>
    <g>
      <path fill="#3a7abb" d="M32.09375,88.75v-34.4873h-.11035l-7.18457,3.75879-1.76855-5.8584,10.16895-5.19531h6.85352v41.78223h-7.95898Z"/>
      <path fill="#3a7abb" d="M78.51855,88.75h-26.1416v-5.0293l4.64258-4.97461c7.90332-8.17969,12.54492-13.54004,12.54492-19.17773,0-3.64746-1.93359-6.6875-6.52148-6.6875-3.03906,0-5.8584,1.60352-7.79199,3.04004l-2.2666-5.85791c2.59766-1.98975,6.90918-3.7583,11.7168-3.7583,8.95312,0,13.04297,5.69238,13.04297,12.49023,0,7.40625-5.0293,13.48535-11.1084,19.62012l-3.48145,3.42676v.11035h15.36426v6.79785Z"/>
    </g>
  </symbol>
  <symbol id="T13" viewBox="0 0 100 100">
    <rect fill="#3a7abb" width="100" height="100" rx="17.5" ry="17.5"/>
    <rect fill="#fff" x="6.25" y="6.25" width="87.5" height="87.5" rx="11.25" ry="11.25"/>
    <path fill="#3a7abb" d="M37.71045,15.5459v-5.54639h24.58057v5.54639h-8.99219v24.4541h-6.59668V15.5459h-8.9917Z"/>
    <g>
      <path fill="#3a7abb" d="M32.09375,88.75v-34.4873h-.11035l-7.18457,3.75879-1.76855-5.8584,10.16895-5.19531h6.85352v41.78223h-7.95898Z"/>
      <path fill="#3a7abb" d="M69.39941,66.25586c4.64258,1.0498,8.51074,4.80859,8.51074,10.50098,0,6.96387-5.58203,12.60059-15.30859,12.60059-4.42188,0-8.40137-1.16016-10.50098-2.54199l1.82324-6.19043c1.54785.99512,4.91895,2.2666,8.125,2.2666,5.0293,0,7.51562-3.09473,7.51562-6.52148,0-4.69824-4.08984-6.9082-8.56641-6.9082h-2.81836v-5.74805h2.65332c3.26074,0,7.46094-1.82422,7.46094-5.8584,0-2.92969-1.93457-5.08496-5.80371-5.08496-2.87305,0-5.69238,1.27148-7.29492,2.2666l-1.71289-5.8584c2.15527-1.43701,6.41113-2.87402,10.8877-2.87402,8.01367,0,12.21387,4.69727,12.21387,10.22461,0,4.31055-2.59766,7.90332-7.18457,9.61621v.11035Z"/>
    </g>
  </symbol>
  <symbol id="T14" viewBox="0 0 100 100">
    <rect fill="#3a7abb" width="100" height="100" rx="17.5" ry="17.5"/>
    <rect fill="#fff" x="6.25" y="6.25" width="87.5" height="87.5" rx="11.25" ry="11.25"/>
    <path fill="#3a7abb" d="M37.71045,15.5459v-5.54639h24.58057v5.54639h-8.99219v24.4541h-6.59668V15.5459h-8.9917Z"/>
    <g>
      <path fill="#3a7abb" d="M32.09375,88.75v-34.4873h-.11035l-7.18457,3.75879-1.76855-5.8584,10.16895-5.19531h6.85352v41.78223h-7.95898Z"/>
      <path fill="#3a7abb" d="M75.64453,88.75h-7.57227v-10.33496h-16.85645v-5.30566l15.19922-26.1416h9.22949v25.25684h4.80762v6.19043h-4.80762v10.33496ZM58.51172,72.22461h9.56055v-10.38965c0-2.43262.16602-5.08496.33203-7.57227h-.2207c-1.27148,2.65332-2.2666,4.97461-3.53711,7.35059l-6.13477,10.50098v.11035Z"/>
    </g>
  </symbol>
  <symbol id="T15" viewBox="0 0 100 100">
    <rect fill="#3a7abb" width="100" height="100" rx="17.5" ry="17.5"/>
    <rect fill="#fff" x="6.25" y="6.25" width="87.5" height="87.5" rx="11.25" ry="11.25"/>
    <path fill="#3a7abb" d="M37.71045,15.5459v-5.54639h24.58057v5.54639h-8.99219v24.4541h-6.59668V15.5459h-8.9917Z"/>
    <g>
      <path fill="#3a7abb" d="M32.09375,88.75v-34.4873h-.11035l-7.18457,3.75879-1.76855-5.8584,10.16895-5.19531h6.85352v41.78223h-7.95898Z"/>
      <path fill="#3a7abb" d="M77.08105,46.9126v6.74268h-14.20312l-1.10547,8.17969c.77344-.11133,1.43652-.16602,2.32129-.16602,7.29492,0,14.14844,4.08984,14.14844,13.09863,0,8.01367-6.13477,14.58984-15.97266,14.58984-4.14453,0-7.90332-1.0498-9.94824-2.15527l1.60254-6.18945c1.6582.88379,4.69824,1.93359,7.90332,1.93359,4.25586,0,8.17969-2.70801,8.17969-7.51562,0-5.0293-3.70312-7.84863-10.77734-7.84863-1.87891,0-3.31543.11133-4.69727.27637l2.54199-20.9458h20.00684Z"/>
    </g>
  </symbol>
  <symbol id="T16" viewBox="0 0 100 100">
    <rect fill="#3a7abb" width="100" height="100" rx="17.5" ry="17.5"/>
    <rect fill="#fff" x="6.25" y="6.25" width="87.5" height="87.5" rx="11.25" ry="11.25"/>
    <path fill="#3a7abb" d="M37.71045,15.5459v-5.54639h24.58057v5.54639h-8.99219v24.4541h-6.59668V15.5459h-8.9917Z"/>
    <g>
      <path fill="#3a7abb" d="M32.09375,88.75v-34.4873h-.11035l-7.18457,3.75879-1.76855-5.8584,10.16895-5.19531h6.85352v41.78223h-7.95898Z"/>
      <path fill="#3a7abb" d="M60.22461,64.92969c1.82422-2.21094,4.69824-3.70312,8.29004-3.70312,6.4668,0,11.44043,4.91895,11.44043,13.26465,0,7.90234-5.13965,14.86621-13.5957,14.86621-9.45117,0-14.53516-7.57129-14.53516-17.7959,0-9.56152,4.31055-25.20166,24.20703-25.20166v6.30029c-1.0498,0-2.21094.11035-3.59277.27637-7.68164,1.0498-11.3291,6.46582-12.37988,11.99316h.16602ZM71.83105,74.87793c0-4.36621-2.10059-7.95898-5.91406-7.95898-2.43164,0-5.96875,2.10059-5.96875,6.79785.11035,5.41602,2.32129,9.72754,6.35547,9.72754,3.59277,0,5.52734-3.86914,5.52734-8.56641Z"/>
    </g>
  </symbol>
  <symbol id="T17" viewBox="0 0 100 100">
    <rect fill="#3a7abb" width="100" height="100" rx="17.5" ry="17.5"/>
    <rect fill="#fff" x="6.25" y="6.25" width="87.5" height="87.5" rx="11.25" ry="11.25"/>
    <path fill="#3a7abb" d="M37.71045,15.5459v-5.54639h24.58057v5.54639h-8.99219v24.4541h-6.59668V15.5459h-8.9917Z"/>
    <g>
      <path fill="#3a7abb" d="M32.09375,88.75v-34.4873h-.11035l-7.18457,3.75879-1.76855-5.8584,10.16895-5.19531h6.85352v41.78223h-7.95898Z"/>
      <path fill="#3a7abb" d="M52.98438,46.96777h26.03125v5.08496l-15.80664,36.69727h-8.40039l15.86133-34.92871v-.11133h-17.68555v-6.74219Z"/>
    </g>
  </symbol>
  <symbol id="T18" viewBox="0 0 100 100">
    <rect fill="#3a7abb" width="100" height="100" rx="17.5" ry="17.5"/>
    <rect fill="#fff" x="6.25" y="6.25" width="87.5" height="87.5" rx="11.25" ry="11.25"/>
    <path fill="#3a7abb" d="M37.71045,15.5459v-5.54639h24.58057v5.54639h-8.99219v24.4541h-6.59668V15.5459h-8.9917Z"/>
    <g>
      <path fill="#3a7abb" d="M32.09375,88.75v-34.4873h-.11035l-7.18457,3.75879-1.76855-5.8584,10.16895-5.19531h6.85352v41.78223h-7.95898Z"/>
      <path fill="#3a7abb" d="M59.1748,66.80859c-3.86914-2.15527-5.91406-5.6377-5.91406-9.1748,0-6.90771,5.69238-11.3291,12.93262-11.3291,8.29004,0,12.21387,5.25,12.21387,10.50098,0,3.37109-1.87891,7.07422-6.13379,9.39551v.11035c4.08887,1.87891,7.46094,5.4707,7.46094,10.66602,0,7.46094-5.8584,12.37988-14.14844,12.37988-8.89844,0-13.65137-5.4707-13.65137-11.44043,0-5.13965,3.04004-8.84277,7.24023-10.94238v-.16602ZM71.55469,77.64062c0-4.08984-2.76367-6.68652-6.41113-7.90234-3.15039,1.16016-5.0293,4.08887-5.0293,7.40527,0,3.53711,2.15527,6.63184,5.69238,6.63184,3.70312,0,5.74805-2.87402,5.74805-6.13477ZM60.94336,57.24707c0,3.20605,2.32129,5.41699,5.58203,6.63281,2.32129-.94043,4.25488-3.53711,4.25488-6.35645,0-2.87402-1.38086-5.74707-4.86328-5.74707-3.5918,0-4.97363,2.81836-4.97363,5.4707Z"/>
    </g>
  </symbol>
  <symbol id="T19" viewBox="0 0 100 100">
    <rect fill="#3a7abb" width="100" height="100" rx="17.5" ry="17.5"/>
    <rect fill="#fff" x="6.25" y="6.25" width="87.5" height="87.5" rx="11.25" ry="11.25"/>
    <path fill="#3a7abb" d="M37.71045,15.5459v-5.54639h24.58057v5.54639h-8.99219v24.4541h-6.59668V15.5459h-8.9917Z"/>
    <g>
      <path fill="#3a7abb" d="M32.09375,88.75v-34.4873h-.11035l-7.18457,3.75879-1.76855-5.8584,10.16895-5.19531h6.85352v41.78223h-7.95898Z"/>
      <path fill="#3a7abb" d="M71.33301,70.56641c-1.76855,1.99023-4.36523,3.26074-7.84766,3.26074-6.46582,0-11.55078-4.91797-11.55078-12.71094s5.41602-14.81152,13.92773-14.81152c9.11914,0,13.81641,7.62695,13.81641,17.62988,0,14.48047-7.5166,26.1416-24.31738,25.36816v-6.41113c1.27051.11035,2.09961,0,4.03418-.16602,6.9082-.71875,10.8877-5.74805,12.10352-12.10352l-.16602-.05566ZM60.05859,60.39746c0,4.91895,2.32129,7.90332,5.6377,7.90332,2.4873,0,4.36621-1.54785,5.25-3.15039.33203-.60742.44238-1.43652.44238-3.03906,0-5.58203-1.87891-10.00391-5.80273-10.00391-3.31641,0-5.52734,3.53711-5.52734,8.29004Z"/>
    </g>
  </symbol>
  <symbol id="T20" viewBox="0 0 100 100">
    <rect fill="#3a7abb" width="100" height="100" rx="17.5" ry="17.5"/>
    <rect fill="#fff" x="6.25" y="6.25" width="87.5" height="87.5" rx="11.25" ry="11.25"/>
    <path fill="#3a7abb" d="M37.71045,15.5459v-5.54639h24.58057v5.54639h-8.99219v24.4541h-6.59668V15.5459h-8.9917Z"/>
    <g>
      <path fill="#3a7abb" d="M46.90576,88.75h-26.1416v-5.0293l4.64258-4.97461c7.90332-8.17969,12.54541-13.54004,12.54541-19.17773,0-3.64746-1.93408-6.6875-6.52148-6.6875-3.03955,0-5.8584,1.60352-7.79248,3.04004l-2.26611-5.85791c2.59766-1.98975,6.90869-3.7583,11.7168-3.7583,8.95312,0,13.04297,5.69238,13.04297,12.49023,0,7.40625-5.0293,13.48535-11.10889,19.62012l-3.48145,3.42676v.11035h15.36426v6.79785Z"/>
      <path fill="#3a7abb" d="M51.93457,67.96973c0-12.71191,4.69727-21.66504,14.09277-21.66504,9.83789,0,13.65137,9.72656,13.65137,21.33301,0,13.81641-5.13965,21.71973-13.92773,21.71973-9.72656,0-13.81641-9.72656-13.81641-21.3877ZM65.8623,82.8916c3.75781,0,5.63672-5.30566,5.63672-15.08789,0-9.45117-1.71289-15.0332-5.58203-15.0332-3.53711,0-5.80273,5.08496-5.80273,15.0332,0,9.89258,2.04492,15.08789,5.69238,15.08789h.05566Z"/>
    </g>
  </symbol>
  <symbol id="T21" viewBox="0 0 100 100">
    <rect fill="#3a7abb" width="100" height="100" rx="17.5" ry="17.5"/>
    <rect fill="#fff" x="6.25" y="6.25" width="87.5" height="87.5" rx="11.25" ry="11.25"/>
    <path fill="#3a7abb" d="M37.71045,15.5459v-5.54639h24.58057v5.54639h-8.99219v24.4541h-6.59668V15.5459h-8.9917Z"/>
    <g>
      <path fill="#3a7abb" d="M46.90576,88.75h-26.1416v-5.0293l4.64258-4.97461c7.90332-8.17969,12.54541-13.54004,12.54541-19.17773,0-3.64746-1.93408-6.6875-6.52148-6.6875-3.03955,0-5.8584,1.60352-7.79248,3.04004l-2.26611-5.85791c2.59766-1.98975,6.90869-3.7583,11.7168-3.7583,8.95312,0,13.04297,5.69238,13.04297,12.49023,0,7.40625-5.0293,13.48535-11.10889,19.62012l-3.48145,3.42676v.11035h15.36426v6.79785Z"/>
      <path fill="#3a7abb" d="M63.70605,88.75v-34.4873h-.11035l-7.18457,3.75879-1.76855-5.8584,10.16895-5.19531h6.85352v41.78223h-7.95898Z"/>
    </g>
  </symbol>
  <symbol id="T22" viewBox="0 0 100 100">
    <rect fill="#3a7abb" width="100" height="100" rx="17.5" ry="17.5"/>
    <rect fill="#fff" x="6.25" y="6.25" width="87.5" height="87.5" rx="11.25" ry="11.25"/>
    <path fill="#3a7abb" d="M37.71045,15.5459v-5.54639h24.58057v5.54639h-8.99219v24.4541h-6.59668V15.5459h-8.9917Z"/>
    <g>
      <path fill="#3a7abb" d="M46.90576,88.75h-26.1416v-5.0293l4.64258-4.97461c7.90332-8.17969,12.54541-13.54004,12.54541-19.17773,0-3.64746-1.93408-6.6875-6.52148-6.6875-3.03955,0-5.8584,1.60352-7.79248,3.04004l-2.26611-5.85791c2.59766-1.98975,6.90869-3.7583,11.7168-3.7583,8.95312,0,13.04297,5.69238,13.04297,12.49023,0,7.40625-5.0293,13.48535-11.10889,19.62012l-3.48145,3.42676v.11035h15.36426v6.79785Z"/>
      <path fill="#3a7abb" d="M78.51855,88.75h-26.1416v-5.0293l4.64258-4.97461c7.90332-8.17969,12.54492-13.54004,12.54492-19.17773,0-3.64746-1.93359-6.6875-6.52148-6.6875-3.03906,0-5.8584,1.60352-7.79199,3.04004l-2.2666-5.85791c2.59766-1.98975,6.90918-3.7583,11.7168-3.7583,8.95312,0,13.04297,5.69238,13.04297,12.49023,0,7.40625-5.0293,13.48535-11.1084,19.62012l-3.48145,3.42676v.11035h15.36426v6.79785Z"/>
    </g>
  </symbol>
  <symbol id="T23" viewBox="0 0 100 100">
    <rect fill="#3a7abb" width="100" height="100" rx="17.5" ry="17.5"/>
    <rect fill="#fff" x="6.25" y="6.25" width="87.5" height="87.5" rx="11.25" ry="11.25"/>
    <path fill="#3a7abb" d="M37.71045,15.5459v-5.54639h24.58057v5.54639h-8.99219v24.4541h-6.59668V15.5459h-8.9917Z"/>
    <g>
      <path fill="#3a7abb" d="M46.90576,88.75h-26.1416v-5.0293l4.64258-4.97461c7.90332-8.17969,12.54541-13.54004,12.54541-19.17773,0-3.64746-1.93408-6.6875-6.52148-6.6875-3.03955,0-5.8584,1.60352-7.79248,3.04004l-2.26611-5.85791c2.59766-1.98975,6.90869-3.7583,11.7168-3.7583,8.95312,0,13.04297,5.69238,13.04297,12.49023,0,7.40625-5.0293,13.48535-11.10889,19.62012l-3.48145,3.42676v.11035h15.36426v6.79785Z"/>
      <path fill="#3a7abb" d="M69.39941,66.25586c4.64258,1.0498,8.51074,4.80859,8.51074,10.50098,0,6.96387-5.58203,12.60059-15.30859,12.60059-4.42188,0-8.40137-1.16016-10.50098-2.54199l1.82324-6.19043c1.54785.99512,4.91895,2.2666,8.125,2.2666,5.0293,0,7.51562-3.09473,7.51562-6.52148,0-4.69824-4.08984-6.9082-8.56641-6.9082h-2.81836v-5.74805h2.65332c3.26074,0,7.46094-1.82422,7.46094-5.8584,0-2.92969-1.93457-5.08496-5.80371-5.08496-2.87305,0-5.69238,1.27148-7.29492,2.2666l-1.71289-5.8584c2.15527-1.43701,6.41113-2.87402,10.8877-2.87402,8.01367,0,12.21387,4.69727,12.21387,10.22461,0,4.31055-2.59766,7.90332-7.18457,9.61621v.11035Z"/>
    </g>
  </symbol>
  <symbol id="T24" viewBox="0 0 100 100">
    <rect fill="#3a7abb" width="100" height="100" rx="17.5" ry="17.5"/>
    <rect fill="#fff" x="6.25" y="6.25" width="87.5" height="87.5" rx="11.25" ry="11.25"/>
    <path fill="#3a7abb" d="M37.71045,15.5459v-5.54639h24.58057v5.54639h-8.99219v24.4541h-6.59668V15.5459h-8.9917Z"/>
    <g>
      <path fill="#3a7abb" d="M46.90576,88.75h-26.1416v-5.0293l4.64258-4.97461c7.90332-8.17969,12.54541-13.54004,12.54541-19.17773,0-3.64746-1.93408-6.6875-6.52148-6.6875-3.03955,0-5.8584,1.60352-7.79248,3.04004l-2.26611-5.85791c2.59766-1.98975,6.90869-3.7583,11.7168-3.7583,8.95312,0,13.04297,5.69238,13.04297,12.49023,0,7.40625-5.0293,13.48535-11.10889,19.62012l-3.48145,3.42676v.11035h15.36426v6.79785Z"/>
      <path fill="#3a7abb" d="M75.64453,88.75h-7.57227v-10.33496h-16.85645v-5.30566l15.19922-26.1416h9.22949v25.25684h4.80762v6.19043h-4.80762v10.33496ZM58.51172,72.22461h9.56055v-10.38965c0-2.43262.16602-5.08496.33203-7.57227h-.2207c-1.27148,2.65332-2.2666,4.97461-3.53711,7.35059l-6.13477,10.50098v.11035Z"/>
    </g>
  </symbol>
  <symbol id="T25" viewBox="0 0 100 100">
    <rect fill="#3a7abb" width="100" height="100" rx="17.5" ry="17.5"/>
    <rect fill="#fff" x="6.25" y="6.25" width="87.5" height="87.5" rx="11.25" ry="11.25"/>
    <path fill="#3a7abb" d="M37.71045,15.5459v-5.54639h24.58057v5.54639h-8.99219v24.4541h-6.59668V15.5459h-8.9917Z"/>
    <g>
      <path fill="#3a7abb" d="M46.90576,88.75h-26.1416v-5.0293l4.64258-4.97461c7.90332-8.17969,12.54541-13.54004,12.54541-19.17773,0-3.64746-1.93408-6.6875-6.52148-6.6875-3.03955,0-5.8584,1.60352-7.79248,3.04004l-2.26611-5.85791c2.59766-1.98975,6.90869-3.7583,11.7168-3.7583,8.95312,0,13.04297,5.69238,13.04297,12.49023,0,7.40625-5.0293,13.48535-11.10889,19.62012l-3.48145,3.42676v.11035h15.36426v6.79785Z"/>
      <path fill="#3a7abb" d="M77.08105,46.9126v6.74268h-14.20312l-1.10547,8.17969c.77344-.11133,1.43652-.16602,2.32129-.16602,7.29492,0,14.14844,4.08984,14.14844,13.09863,0,8.01367-6.13477,14.58984-15.97266,14.58984-4.14453,0-7.90332-1.0498-9.94824-2.15527l1.60254-6.18945c1.6582.88379,4.69824,1.93359,7.90332,1.93359,4.25586,0,8.17969-2.70801,8.17969-7.51562,0-5.0293-3.70312-7.84863-10.77734-7.84863-1.87891,0-3.31543.11133-4.69727.27637l2.54199-20.9458h20.00684Z"/>
    </g>
  </symbol>
  <symbol id="T26" viewBox="0 0 100 100">
    <rect fill="#3a7abb" width="100" height="100" rx="17.5" ry="17.5"/>
    <rect fill="#fff" x="6.25" y="6.25" width="87.5" height="87.5" rx="11.25" ry="11.25"/>
    <path fill="#3a7abb" d="M37.71045,15.5459v-5.54639h24.58057v5.54639h-8.99219v24.4541h-6.59668V15.5459h-8.9917Z"/>
    <g>
      <path fill="#3a7abb" d="M46.90576,88.75h-26.1416v-5.0293l4.64258-4.97461c7.90332-8.17969,12.54541-13.54004,12.54541-19.17773,0-3.64746-1.93408-6.6875-6.52148-6.6875-3.03955,0-5.8584,1.60352-7.79248,3.04004l-2.26611-5.85791c2.59766-1.98975,6.90869-3.7583,11.7168-3.7583,8.95312,0,13.04297,5.69238,13.04297,12.49023,0,7.40625-5.0293,13.48535-11.10889,19.62012l-3.48145,3.42676v.11035h15.36426v6.79785Z"/>
      <path fill="#3a7abb" d="M60.22461,64.92969c1.82422-2.21094,4.69824-3.70312,8.29004-3.70312,6.4668,0,11.44043,4.91895,11.44043,13.26465,0,7.90234-5.13965,14.86621-13.5957,14.86621-9.45117,0-14.53516-7.57129-14.53516-17.7959,0-9.56152,4.31055-25.20166,24.20703-25.20166v6.30029c-1.0498,0-2.21094.11035-3.59277.27637-7.68164,1.0498-11.3291,6.46582-12.37988,11.99316h.16602ZM71.83105,74.87793c0-4.36621-2.10059-7.95898-5.91406-7.95898-2.43164,0-5.96875,2.10059-5.96875,6.79785.11035,5.41602,2.32129,9.72754,6.35547,9.72754,3.59277,0,5.52734-3.86914,5.52734-8.56641Z"/>
    </g>
  </symbol>
  <symbol id="T27" viewBox="0 0 100 100">
    <rect fill="#3a7abb" width="100" height="100" rx="17.5" ry="17.5"/>
    <rect fill="#fff" x="6.25" y="6.25" width="87.5" height="87.5" rx="11.25" ry="11.25"/>
    <path fill="#3a7abb" d="M37.71045,15.5459v-5.54639h24.58057v5.54639h-8.99219v24.4541h-6.59668V15.5459h-8.9917Z"/>
    <g>
      <path fill="#3a7abb" d="M46.90576,88.75h-26.1416v-5.0293l4.64258-4.97461c7.90332-8.17969,12.54541-13.54004,12.54541-19.17773,0-3.64746-1.93408-6.6875-6.52148-6.6875-3.03955,0-5.8584,1.60352-7.79248,3.04004l-2.26611-5.85791c2.59766-1.98975,6.90869-3.7583,11.7168-3.7583,8.95312,0,13.04297,5.69238,13.04297,12.49023,0,7.40625-5.0293,13.48535-11.10889,19.62012l-3.48145,3.42676v.11035h15.36426v6.79785Z"/>
      <path fill="#3a7abb" d="M52.98438,46.96777h26.03125v5.08496l-15.80664,36.69727h-8.40039l15.86133-34.92871v-.11133h-17.68555v-6.74219Z"/>
    </g>
  </symbol>
  <symbol id="T28" viewBox="0 0 100 100">
    <rect fill="#3a7abb" width="100" height="100" rx="17.5" ry="17.5"/>
    <rect fill="#fff" x="6.25" y="6.25" width="87.5" height="87.5" rx="11.25" ry="11.25"/>
    <path fill="#3a7abb" d="M37.71045,15.5459v-5.54639h24.58057v5.54639h-8.99219v24.4541h-6.59668V15.5459h-8.9917Z"/>
    <g>
      <path fill="#3a7abb" d="M46.90576,88.75h-26.1416v-5.0293l4.64258-4.97461c7.90332-8.17969,12.54541-13.54004,12.54541-19.17773,0-3.64746-1.93408-6.6875-6.52148-6.6875-3.03955,0-5.8584,1.60352-7.79248,3.04004l-2.26611-5.85791c2.59766-1.98975,6.90869-3.7583,11.7168-3.7583,8.95312,0,13.04297,5.69238,13.04297,12.49023,0,7.40625-5.0293,13.48535-11.10889,19.62012l-3.48145,3.42676v.11035h15.36426v6.79785Z"/>
      <path fill="#3a7abb" d="M59.1748,66.80859c-3.86914-2.15527-5.91406-5.6377-5.91406-9.1748,0-6.90771,5.69238-11.3291,12.93262-11.3291,8.29004,0,12.21387,5.25,12.21387,10.50098,0,3.37109-1.87891,7.07422-6.13379,9.39551v.11035c4.08887,1.87891,7.46094,5.4707,7.46094,10.66602,0,7.46094-5.8584,12.37988-14.14844,12.37988-8.89844,0-13.65137-5.4707-13.65137-11.44043,0-5.13965,3.04004-8.84277,7.24023-10.94238v-.16602ZM71.55469,77.64062c0-4.08984-2.76367-6.68652-6.41113-7.90234-3.15039,1.16016-5.0293,4.08887-5.0293,7.40527,0,3.53711,2.15527,6.63184,5.69238,6.63184,3.70312,0,5.74805-2.87402,5.74805-6.13477ZM60.94336,57.24707c0,3.20605,2.32129,5.41699,5.58203,6.63281,2.32129-.94043,4.25488-3.53711,4.25488-6.35645,0-2.87402-1.38086-5.74707-4.86328-5.74707-3.5918,0-4.97363,2.81836-4.97363,5.4707Z"/>
    </g>
  </symbol>
  <symbol id="T29" viewBox="0 0 100 100">
    <rect fill="#3a7abb" width="100" height="100" rx="17.5" ry="17.5"/>
    <rect fill="#fff" x="6.25" y="6.25" width="87.5" height="87.5" rx="11.25" ry="11.25"/>
    <path fill="#3a7abb" d="M37.71045,15.5459v-5.54639h24.58057v5.54639h-8.99219v24.4541h-6.59668V15.5459h-8.9917Z"/>
    <g>
      <path fill="#3a7abb" d="M46.90576,88.75h-26.1416v-5.0293l4.64258-4.97461c7.90332-8.17969,12.54541-13.54004,12.54541-19.17773,0-3.64746-1.93408-6.6875-6.52148-6.6875-3.03955,0-5.8584,1.60352-7.79248,3.04004l-2.26611-5.85791c2.59766-1.98975,6.90869-3.7583,11.7168-3.7583,8.95312,0,13.04297,5.69238,13.04297,12.49023,0,7.40625-5.0293,13.48535-11.10889,19.62012l-3.48145,3.42676v.11035h15.36426v6.79785Z"/>
      <path fill="#3a7abb" d="M71.33301,70.56641c-1.76855,1.99023-4.36523,3.26074-7.84766,3.26074-6.46582,0-11.55078-4.91797-11.55078-12.71094s5.41602-14.81152,13.92773-14.81152c9.11914,0,13.81641,7.62695,13.81641,17.62988,0,14.48047-7.5166,26.1416-24.31738,25.36816v-6.41113c1.27051.11035,2.09961,0,4.03418-.16602,6.9082-.71875,10.8877-5.74805,12.10352-12.10352l-.16602-.05566ZM60.05859,60.39746c0,4.91895,2.32129,7.90332,5.6377,7.90332,2.4873,0,4.36621-1.54785,5.25-3.15039.33203-.60742.44238-1.43652.44238-3.03906,0-5.58203-1.87891-10.00391-5.80273-10.00391-3.31641,0-5.52734,3.53711-5.52734,8.29004Z"/>
    </g>
  </symbol>
  <symbol id="T30" viewBox="0 0 100 100">
    <rect fill="#3a7abb" width="100" height="100" rx="17.5" ry="17.5"/>
    <rect fill="#fff" x="6.25" y="6.25" width="87.5" height="87.5" rx="11.25" ry="11.25"/>
    <path fill="#3a7abb" d="M37.71045,15.5459v-5.54639h24.58057v5.54639h-8.99219v24.4541h-6.59668V15.5459h-8.9917Z"/>
    <g>
      <path fill="#3a7abb" d="M37.78662,66.25586c4.64258,1.0498,8.51123,4.80859,8.51123,10.50098,0,6.96387-5.58203,12.60059-15.30908,12.60059-4.42139,0-8.40088-1.16016-10.50098-2.54199l1.82373-6.19043c1.54785.99512,4.91895,2.2666,8.12451,2.2666,5.0293,0,7.51611-3.09473,7.51611-6.52148,0-4.69824-4.08984-6.9082-8.56641-6.9082h-2.81836v-5.74805h2.65283c3.26074,0,7.46094-1.82422,7.46094-5.8584,0-2.92969-1.93408-5.08496-5.80322-5.08496-2.87354,0-5.69238,1.27148-7.29492,2.2666l-1.71338-5.8584c2.15527-1.43701,6.41113-2.87402,10.8877-2.87402,8.01367,0,12.21387,4.69727,12.21387,10.22461,0,4.31055-2.59766,7.90332-7.18457,9.61621v.11035Z"/>
      <path fill="#3a7abb" d="M51.93457,67.96973c0-12.71191,4.69727-21.66504,14.09277-21.66504,9.83789,0,13.65137,9.72656,13.65137,21.33301,0,13.81641-5.13965,21.71973-13.92773,21.71973-9.72656,0-13.81641-9.72656-13.81641-21.3877ZM65.8623,82.8916c3.75781,0,5.63672-5.30566,5.63672-15.08789,0-9.45117-1.71289-15.0332-5.58203-15.0332-3.53711,0-5.80273,5.08496-5.80273,15.0332,0,9.89258,2.04492,15.08789,5.69238,15.08789h.05566Z"/>
    </g>
  </symbol>
  <symbol id="T31" viewBox="0 0 100 100">
    <rect fill="#3a7abb" width="100" height="100" rx="17.5" ry="17.5"/>
    <rect fill="#fff" x="6.25" y="6.25" width="87.5" height="87.5" rx="11.25" ry="11.25"/>
    <path fill="#3a7abb" d="M37.71045,15.5459v-5.54639h24.58057v5.54639h-8.99219v24.4541h-6.59668V15.5459h-8.9917Z"/>
    <g>
      <path fill="#3a7abb" d="M37.78662,66.25586c4.64258,1.0498,8.51123,4.80859,8.51123,10.50098,0,6.96387-5.58203,12.60059-15.30908,12.60059-4.42139,0-8.40088-1.16016-10.50098-2.54199l1.82373-6.19043c1.54785.99512,4.91895,2.2666,8.12451,2.2666,5.0293,0,7.51611-3.09473,7.51611-6.52148,0-4.69824-4.08984-6.9082-8.56641-6.9082h-2.81836v-5.74805h2.65283c3.26074,0,7.46094-1.82422,7.46094-5.8584,0-2.92969-1.93408-5.08496-5.80322-5.08496-2.87354,0-5.69238,1.27148-7.29492,2.2666l-1.71338-5.8584c2.15527-1.43701,6.41113-2.87402,10.8877-2.87402,8.01367,0,12.21387,4.69727,12.21387,10.22461,0,4.31055-2.59766,7.90332-7.18457,9.61621v.11035Z"/>
      <path fill="#3a7abb" d="M63.70605,88.75v-34.4873h-.11035l-7.18457,3.75879-1.76855-5.8584,10.16895-5.19531h6.85352v41.78223h-7.95898Z"/>
    </g>
  </symbol>
  <symbol id="T32" viewBox="0 0 100 100">
    <rect fill="#3a7abb" width="100" height="100" rx="17.5" ry="17.5"/>
    <rect fill="#fff" x="6.25" y="6.25" width="87.5" height="87.5" rx="11.25" ry="11.25"/>
    <path fill="#3a7abb" d="M37.71045,15.5459v-5.54639h24.58057v5.54639h-8.99219v24.4541h-6.59668V15.5459h-8.9917Z"/>
    <g>
      <path fill="#3a7abb" d="M37.78662,66.25586c4.64258,1.0498,8.51123,4.80859,8.51123,10.50098,0,6.96387-5.58203,12.60059-15.30908,12.60059-4.42139,0-8.40088-1.16016-10.50098-2.54199l1.82373-6.19043c1.54785.99512,4.91895,2.2666,8.12451,2.2666,5.0293,0,7.51611-3.09473,7.51611-6.52148,0-4.69824-4.08984-6.9082-8.56641-6.9082h-2.81836v-5.74805h2.65283c3.26074,0,7.46094-1.82422,7.46094-5.8584,0-2.92969-1.93408-5.08496-5.80322-5.08496-2.87354,0-5.69238,1.27148-7.29492,2.2666l-1.71338-5.8584c2.15527-1.43701,6.41113-2.87402,10.8877-2.87402,8.01367,0,12.21387,4.69727,12.21387,10.22461,0,4.31055-2.59766,7.90332-7.18457,9.61621v.11035Z"/>
      <path fill="#3a7abb" d="M78.51855,88.75h-26.1416v-5.0293l4.64258-4.97461c7.90332-8.17969,12.54492-13.54004,12.54492-19.17773,0-3.64746-1.93359-6.6875-6.52148-6.6875-3.03906,0-5.8584,1.60352-7.79199,3.04004l-2.2666-5.85791c2.59766-1.98975,6.90918-3.7583,11.7168-3.7583,8.95312,0,13.04297,5.69238,13.04297,12.49023,0,7.40625-5.0293,13.48535-11.1084,19.62012l-3.48145,3.42676v.11035h15.36426v6.79785Z"/>
    </g>
  </symbol>
  <symbol id="T33" viewBox="0 0 100 100">
    <rect fill="#3a7abb" width="100" height="100" rx="17.5" ry="17.5"/>
    <rect fill="#fff" x="6.25" y="6.25" width="87.5" height="87.5" rx="11.25" ry="11.25"/>
    <path fill="#3a7abb" d="M37.71045,15.5459v-5.54639h24.58057v5.54639h-8.99219v24.4541h-6.59668V15.5459h-8.9917Z"/>
    <g>
      <path fill="#3a7abb" d="M37.78662,66.25586c4.64258,1.0498,8.51123,4.80859,8.51123,10.50098,0,6.96387-5.58203,12.60059-15.30908,12.60059-4.42139,0-8.40088-1.16016-10.50098-2.54199l1.82373-6.19043c1.54785.99512,4.91895,2.2666,8.12451,2.2666,5.0293,0,7.51611-3.09473,7.51611-6.52148,0-4.69824-4.08984-6.9082-8.56641-6.9082h-2.81836v-5.74805h2.65283c3.26074,0,7.46094-1.82422,7.46094-5.8584,0-2.92969-1.93408-5.08496-5.80322-5.08496-2.87354,0-5.69238,1.27148-7.29492,2.2666l-1.71338-5.8584c2.15527-1.43701,6.41113-2.87402,10.8877-2.87402,8.01367,0,12.21387,4.69727,12.21387,10.22461,0,4.31055-2.59766,7.90332-7.18457,9.61621v.11035Z"/>
      <path fill="#3a7abb" d="M69.39941,66.25586c4.64258,1.0498,8.51074,4.80859,8.51074,10.50098,0,6.96387-5.58203,12.60059-15.30859,12.60059-4.42188,0-8.40137-1.16016-10.50098-2.54199l1.82324-6.19043c1.54785.99512,4.91895,2.2666,8.125,2.2666,5.0293,0,7.51562-3.09473,7.51562-6.52148,0-4.69824-4.08984-6.9082-8.56641-6.9082h-2.81836v-5.74805h2.65332c3.26074,0,7.46094-1.82422,7.46094-5.8584,0-2.92969-1.93457-5.08496-5.80371-5.08496-2.87305,0-5.69238,1.27148-7.29492,2.2666l-1.71289-5.8584c2.15527-1.43701,6.41113-2.87402,10.8877-2.87402,8.01367,0,12.21387,4.69727,12.21387,10.22461,0,4.31055-2.59766,7.90332-7.18457,9.61621v.11035Z"/>
    </g>
  </symbol>
  <symbol id="T34" viewBox="0 0 100 100">
    <rect fill="#3a7abb" width="100" height="100" rx="17.5" ry="17.5"/>
    <rect fill="#fff" x="6.25" y="6.25" width="87.5" height="87.5" rx="11.25" ry="11.25"/>
    <path fill="#3a7abb" d="M37.71045,15.5459v-5.54639h24.58057v5.54639h-8.99219v24.4541h-6.59668V15.5459h-8.9917Z"/>
    <g>
      <path fill="#3a7abb" d="M37.78662,66.25586c4.64258,1.0498,8.51123,4.80859,8.51123,10.50098,0,6.96387-5.58203,12.60059-15.30908,12.60059-4.42139,0-8.40088-1.16016-10.50098-2.54199l1.82373-6.19043c1.54785.99512,4.91895,2.2666,8.12451,2.2666,5.0293,0,7.51611-3.09473,7.51611-6.52148,0-4.69824-4.08984-6.9082-8.56641-6.9082h-2.81836v-5.74805h2.65283c3.26074,0,7.46094-1.82422,7.46094-5.8584,0-2.92969-1.93408-5.08496-5.80322-5.08496-2.87354,0-5.69238,1.27148-7.29492,2.2666l-1.71338-5.8584c2.15527-1.43701,6.41113-2.87402,10.8877-2.87402,8.01367,0,12.21387,4.69727,12.21387,10.22461,0,4.31055-2.59766,7.90332-7.18457,9.61621v.11035Z"/>
      <path fill="#3a7abb" d="M75.64453,88.75h-7.57227v-10.33496h-16.85645v-5.30566l15.19922-26.1416h9.22949v25.25684h4.80762v6.19043h-4.80762v10.33496ZM58.51172,72.22461h9.56055v-10.38965c0-2.43262.16602-5.08496.33203-7.57227h-.2207c-1.27148,2.65332-2.2666,4.97461-3.53711,7.35059l-6.13477,10.50098v.11035Z"/>
    </g>
  </symbol>
  <symbol id="T35" viewBox="0 0 100 100">
    <rect fill="#3a7abb" width="100" height="100" rx="17.5" ry="17.5"/>
    <rect fill="#fff" x="6.25" y="6.25" width="87.5" height="87.5" rx="11.25" ry="11.25"/>
    <path fill="#3a7abb" d="M37.71045,15.5459v-5.54639h24.58057v5.54639h-8.99219v24.4541h-6.59668V15.5459h-8.9917Z"/>
    <g>
      <path fill="#3a7abb" d="M37.78662,66.25586c4.64258,1.0498,8.51123,4.80859,8.51123,10.50098,0,6.96387-5.58203,12.60059-15.30908,12.60059-4.42139,0-8.40088-1.16016-10.50098-2.54199l1.82373-6.19043c1.54785.99512,4.91895,2.2666,8.12451,2.2666,5.0293,0,7.51611-3.09473,7.51611-6.52148,0-4.69824-4.08984-6.9082-8.56641-6.9082h-2.81836v-5.74805h2.65283c3.26074,0,7.46094-1.82422,7.46094-5.8584,0-2.92969-1.93408-5.08496-5.80322-5.08496-2.87354,0-5.69238,1.27148-7.29492,2.2666l-1.71338-5.8584c2.15527-1.43701,6.41113-2.87402,10.8877-2.87402,8.01367,0,12.21387,4.69727,12.21387,10.22461,0,4.31055-2.59766,7.90332-7.18457,9.61621v.11035Z"/>
      <path fill="#3a7abb" d="M77.08105,46.9126v6.74268h-14.20312l-1.10547,8.17969c.77344-.11133,1.43652-.16602,2.32129-.16602,7.29492,0,14.14844,4.08984,14.14844,13.09863,0,8.01367-6.13477,14.58984-15.97266,14.58984-4.14453,0-7.90332-1.0498-9.94824-2.15527l1.60254-6.18945c1.6582.88379,4.69824,1.93359,7.90332,1.93359,4.25586,0,8.17969-2.70801,8.17969-7.51562,0-5.0293-3.70312-7.84863-10.77734-7.84863-1.87891,0-3.31543.11133-4.69727.27637l2.54199-20.9458h20.00684Z"/>
    </g>
  </symbol>
  <symbol id="T36" viewBox="0 0 100 100">
    <rect fill="#3a7abb" width="100" height="100" rx="17.5" ry="17.5"/>
    <rect fill="#fff" x="6.25" y="6.25" width="87.5" height="87.5" rx="11.25" ry="11.25"/>
    <path fill="#3a7abb" d="M37.71045,15.5459v-5.54639h24.58057v5.54639h-8.99219v24.4541h-6.59668V15.5459h-8.9917Z"/>
    <g>
      <path fill="#3a7abb" d="M37.78662,66.25586c4.64258,1.0498,8.51123,4.80859,8.51123,10.50098,0,6.96387-5.58203,12.60059-15.30908,12.60059-4.42139,0-8.40088-1.16016-10.50098-2.54199l1.82373-6.19043c1.54785.99512,4.91895,2.2666,8.12451,2.2666,5.0293,0,7.51611-3.09473,7.51611-6.52148,0-4.69824-4.08984-6.9082-8.56641-6.9082h-2.81836v-5.74805h2.65283c3.26074,0,7.46094-1.82422,7.46094-5.8584,0-2.92969-1.93408-5.08496-5.80322-5.08496-2.87354,0-5.69238,1.27148-7.29492,2.2666l-1.71338-5.8584c2.15527-1.43701,6.41113-2.87402,10.8877-2.87402,8.01367,0,12.21387,4.69727,12.21387,10.22461,0,4.31055-2.59766,7.90332-7.18457,9.61621v.11035Z"/>
      <path fill="#3a7abb" d="M60.22461,64.92969c1.82422-2.21094,4.69824-3.70312,8.29004-3.70312,6.4668,0,11.44043,4.91895,11.44043,13.26465,0,7.90234-5.13965,14.86621-13.5957,14.86621-9.45117,0-14.53516-7.57129-14.53516-17.7959,0-9.56152,4.31055-25.20166,24.20703-25.20166v6.30029c-1.0498,0-2.21094.11035-3.59277.27637-7.68164,1.0498-11.3291,6.46582-12.37988,11.99316h.16602ZM71.83105,74.87793c0-4.36621-2.10059-7.95898-5.91406-7.95898-2.43164,0-5.96875,2.10059-5.96875,6.79785.11035,5.41602,2.32129,9.72754,6.35547,9.72754,3.59277,0,5.52734-3.86914,5.52734-8.56641Z"/>
    </g>
  </symbol>
  <symbol id="T37" viewBox="0 0 100 100">
    <rect fill="#3a7abb" width="100" height="100" rx="17.5" ry="17.5"/>
    <rect fill="#fff" x="6.25" y="6.25" width="87.5" height="87.5" rx="11.25" ry="11.25"/>
    <path fill="#3a7abb" d="M37.71045,15.5459v-5.54639h24.58057v5.54639h-8.99219v24.4541h-6.59668V15.5459h-8.9917Z"/>
    <g>
      <path fill="#3a7abb" d="M37.78662,66.25586c4.64258,1.0498,8.51123,4.80859,8.51123,10.50098,0,6.96387-5.58203,12.60059-15.30908,12.60059-4.42139,0-8.40088-1.16016-10.50098-2.54199l1.82373-6.19043c1.54785.99512,4.91895,2.2666,8.12451,2.2666,5.0293,0,7.51611-3.09473,7.51611-6.52148,0-4.69824-4.08984-6.9082-8.56641-6.9082h-2.81836v-5.74805h2.65283c3.26074,0,7.46094-1.82422,7.46094-5.8584,0-2.92969-1.93408-5.08496-5.80322-5.08496-2.87354,0-5.69238,1.27148-7.29492,2.2666l-1.71338-5.8584c2.15527-1.43701,6.41113-2.87402,10.8877-2.87402,8.01367,0,12.21387,4.69727,12.21387,10.22461,0,4.31055-2.59766,7.90332-7.18457,9.61621v.11035Z"/>
      <path fill="#3a7abb" d="M52.98438,46.96777h26.03125v5.08496l-15.80664,36.69727h-8.40039l15.86133-34.92871v-.11133h-17.68555v-6.74219Z"/>
    </g>
  </symbol>
  <symbol id="T38" viewBox="0 0 100 100">
    <rect fill="#3a7abb" width="100" height="100" rx="17.5" ry="17.5"/>
    <rect fill="#fff" x="6.25" y="6.25" width="87.5" height="87.5" rx="11.25" ry="11.25"/>
    <path fill="#3a7abb" d="M37.71045,15.5459v-5.54639h24.58057v5.54639h-8.99219v24.4541h-6.59668V15.5459h-8.9917Z"/>
    <g>
      <path fill="#3a7abb" d="M37.78662,66.25586c4.64258,1.0498,8.51123,4.80859,8.51123,10.50098,0,6.96387-5.58203,12.60059-15.30908,12.60059-4.42139,0-8.40088-1.16016-10.50098-2.54199l1.82373-6.19043c1.54785.99512,4.91895,2.2666,8.12451,2.2666,5.0293,0,7.51611-3.09473,7.51611-6.52148,0-4.69824-4.08984-6.9082-8.56641-6.9082h-2.81836v-5.74805h2.65283c3.26074,0,7.46094-1.82422,7.46094-5.8584,0-2.92969-1.93408-5.08496-5.80322-5.08496-2.87354,0-5.69238,1.27148-7.29492,2.2666l-1.71338-5.8584c2.15527-1.43701,6.41113-2.87402,10.8877-2.87402,8.01367,0,12.21387,4.69727,12.21387,10.22461,0,4.31055-2.59766,7.90332-7.18457,9.61621v.11035Z"/>
      <path fill="#3a7abb" d="M59.1748,66.80859c-3.86914-2.15527-5.91406-5.6377-5.91406-9.1748,0-6.90771,5.69238-11.3291,12.93262-11.3291,8.29004,0,12.21387,5.25,12.21387,10.50098,0,3.37109-1.87891,7.07422-6.13379,9.39551v.11035c4.08887,1.87891,7.46094,5.4707,7.46094,10.66602,0,7.46094-5.8584,12.37988-14.14844,12.37988-8.89844,0-13.65137-5.4707-13.65137-11.44043,0-5.13965,3.04004-8.84277,7.24023-10.94238v-.16602ZM71.55469,77.64062c0-4.08984-2.76367-6.68652-6.41113-7.90234-3.15039,1.16016-5.0293,4.08887-5.0293,7.40527,0,3.53711,2.15527,6.63184,5.69238,6.63184,3.70312,0,5.74805-2.87402,5.74805-6.13477ZM60.94336,57.24707c0,3.20605,2.32129,5.41699,5.58203,6.63281,2.32129-.94043,4.25488-3.53711,4.25488-6.35645,0-2.87402-1.38086-5.74707-4.86328-5.74707-3.5918,0-4.97363,2.81836-4.97363,5.4707Z"/>
    </g>
  </symbol>
  <symbol id="T39" viewBox="0 0 100 100">
    <rect fill="#3a7abb" width="100" height="100" rx="17.5" ry="17.5"/>
    <rect fill="#fff" x="6.25" y="6.25" width="87.5" height="87.5" rx="11.25" ry="11.25"/>
    <path fill="#3a7abb" d="M37.71045,15.5459v-5.54639h24.58057v5.54639h-8.99219v24.4541h-6.59668V15.5459h-8.9917Z"/>
    <g>
      <path fill="#3a7abb" d="M37.78662,66.25586c4.64258,1.0498,8.51123,4.80859,8.51123,10.50098,0,6.96387-5.58203,12.60059-15.30908,12.60059-4.42139,0-8.40088-1.16016-10.50098-2.54199l1.82373-6.19043c1.54785.99512,4.91895,2.2666,8.12451,2.2666,5.0293,0,7.51611-3.09473,7.51611-6.52148,0-4.69824-4.08984-6.9082-8.56641-6.9082h-2.81836v-5.74805h2.65283c3.26074,0,7.46094-1.82422,7.46094-5.8584,0-2.92969-1.93408-5.08496-5.80322-5.08496-2.87354,0-5.69238,1.27148-7.29492,2.2666l-1.71338-5.8584c2.15527-1.43701,6.41113-2.87402,10.8877-2.87402,8.01367,0,12.21387,4.69727,12.21387,10.22461,0,4.31055-2.59766,7.90332-7.18457,9.61621v.11035Z"/>
      <path fill="#3a7abb" d="M71.33301,70.56641c-1.76855,1.99023-4.36523,3.26074-7.84766,3.26074-6.46582,0-11.55078-4.91797-11.55078-12.71094s5.41602-14.81152,13.92773-14.81152c9.11914,0,13.81641,7.62695,13.81641,17.62988,0,14.48047-7.5166,26.1416-24.31738,25.36816v-6.41113c1.27051.11035,2.09961,0,4.03418-.16602,6.9082-.71875,10.8877-5.74805,12.10352-12.10352l-.16602-.05566ZM60.05859,60.39746c0,4.91895,2.32129,7.90332,5.6377,7.90332,2.4873,0,4.36621-1.54785,5.25-3.15039.33203-.60742.44238-1.43652.44238-3.03906,0-5.58203-1.87891-10.00391-5.80273-10.00391-3.31641,0-5.52734,3.53711-5.52734,8.29004Z"/>
    </g>
  </symbol>
  <symbol id="T40" viewBox="0 0 100 100">
    <rect fill="#3a7abb" width="100" height="100" rx="17.5" ry="17.5"/>
    <rect fill="#fff" x="6.25" y="6.25" width="87.5" height="87.5" rx="11.25" ry="11.25"/>
    <path fill="#3a7abb" d="M37.71045,15.5459v-5.54639h24.58057v5.54639h-8.99219v24.4541h-6.59668V15.5459h-8.9917Z"/>
    <g>
      <path fill="#3a7abb" d="M44.03174,88.75h-7.57178v-10.33496h-16.85645v-5.30566l15.19873-26.1416h9.22949v25.25684h4.80811v6.19043h-4.80811v10.33496ZM26.89893,72.22461h9.56104v-10.38965c0-2.43262.16602-5.08496.33154-7.57227h-.2207c-1.27148,2.65332-2.26611,4.97461-3.53711,7.35059l-6.13477,10.50098v.11035Z"/>
      <path fill="#3a7abb" d="M51.93457,67.96973c0-12.71191,4.69727-21.66504,14.09277-21.66504,9.83789,0,13.65137,9.72656,13.65137,21.33301,0,13.81641-5.13965,21.71973-13.92773,21.71973-9.72656,0-13.81641-9.72656-13.81641-21.3877ZM65.8623,82.8916c3.75781,0,5.63672-5.30566,5.63672-15.08789,0-9.45117-1.71289-15.0332-5.58203-15.0332-3.53711,0-5.80273,5.08496-5.80273,15.0332,0,9.89258,2.04492,15.08789,5.69238,15.08789h.05566Z"/>
    </g>
  </symbol>
  <symbol id="T41" viewBox="0 0 100 100">
    <rect fill="#3a7abb" width="100" height="100" rx="17.5" ry="17.5"/>
    <rect fill="#fff" x="6.25" y="6.25" width="87.5" height="87.5" rx="11.25" ry="11.25"/>
    <path fill="#3a7abb" d="M37.71045,15.5459v-5.54639h24.58057v5.54639h-8.99219v24.4541h-6.59668V15.5459h-8.9917Z"/>
    <g>
      <path fill="#3a7abb" d="M44.03174,88.75h-7.57178v-10.33496h-16.85645v-5.30566l15.19873-26.1416h9.22949v25.25684h4.80811v6.19043h-4.80811v10.33496ZM26.89893,72.22461h9.56104v-10.38965c0-2.43262.16602-5.08496.33154-7.57227h-.2207c-1.27148,2.65332-2.26611,4.97461-3.53711,7.35059l-6.13477,10.50098v.11035Z"/>
      <path fill="#3a7abb" d="M63.70605,88.75v-34.4873h-.11035l-7.18457,3.75879-1.76855-5.8584,10.16895-5.19531h6.85352v41.78223h-7.95898Z"/>
    </g>
  </symbol>
  <symbol id="T44" viewBox="0 0 100 100">
    <rect fill="#78b72d" width="100" height="100" rx="17.5" ry="17.5"/>
    <rect fill="#fff" x="6.25" y="6.25" width="87.5" height="87.5" rx="11.25" ry="11.25"/>
    <path fill="#78b72d" d="M37.71045,15.5459v-5.54639h24.58057v5.54639h-8.99219v24.4541h-6.59668V15.5459h-8.9917Z"/>
    <g>
      <path fill="#78b72d" d="M44.03174,88.75h-7.57178v-10.33496h-16.85645v-5.30566l15.19873-26.1416h9.22949v25.25684h4.80811v6.19043h-4.80811v10.33496ZM26.89893,72.22461h9.56104v-10.38965c0-2.43262.16602-5.08496.33154-7.57227h-.2207c-1.27148,2.65332-2.26611,4.97461-3.53711,7.35059l-6.13477,10.50098v.11035Z"/>
      <path fill="#78b72d" d="M75.64453,88.75h-7.57227v-10.33496h-16.85645v-5.30566l15.19922-26.1416h9.22949v25.25684h4.80762v6.19043h-4.80762v10.33496ZM58.51172,72.22461h9.56055v-10.38965c0-2.43262.16602-5.08496.33203-7.57227h-.2207c-1.27148,2.65332-2.2666,4.97461-3.53711,7.35059l-6.13477,10.50098v.11035Z"/>
    </g>
  </symbol>
  <symbol id="T45" viewBox="0 0 100 100">
    <rect fill="#78b72d" width="100" height="100" rx="17.5" ry="17.5"/>
    <rect fill="#fff" x="6.25" y="6.25" width="87.5" height="87.5" rx="11.25" ry="11.25"/>
    <path fill="#78b72d" d="M37.71045,15.5459v-5.54639h24.58057v5.54639h-8.99219v24.4541h-6.59668V15.5459h-8.9917Z"/>
    <g>
      <path fill="#78b72d" d="M44.03174,88.75h-7.57178v-10.33496h-16.85645v-5.30566l15.19873-26.1416h9.22949v25.25684h4.80811v6.19043h-4.80811v10.33496ZM26.89893,72.22461h9.56104v-10.38965c0-2.43262.16602-5.08496.33154-7.57227h-.2207c-1.27148,2.65332-2.26611,4.97461-3.53711,7.35059l-6.13477,10.50098v.11035Z"/>
      <path fill="#78b72d" d="M77.08105,46.9126v6.74268h-14.20312l-1.10547,8.17969c.77344-.11133,1.43652-.16602,2.32129-.16602,7.29492,0,14.14844,4.08984,14.14844,13.09863,0,8.01367-6.13477,14.58984-15.97266,14.58984-4.14453,0-7.90332-1.0498-9.94824-2.15527l1.60254-6.18945c1.6582.88379,4.69824,1.93359,7.90332,1.93359,4.25586,0,8.17969-2.70801,8.17969-7.51562,0-5.0293-3.70312-7.84863-10.77734-7.84863-1.87891,0-3.31543.11133-4.69727.27637l2.54199-20.9458h20.00684Z"/>
    </g>
  </symbol>
  <symbol id="T46" viewBox="0 0 100 100">
    <rect fill="#78b72d" width="100" height="100" rx="17.5" ry="17.5"/>
    <rect fill="#fff" x="6.25" y="6.25" width="87.5" height="87.5" rx="11.25" ry="11.25"/>
    <path fill="#78b72d" d="M37.71045,15.5459v-5.54639h24.58057v5.54639h-8.99219v24.4541h-6.59668V15.5459h-8.9917Z"/>
    <g>
      <path fill="#78b72d" d="M44.03174,88.75h-7.57178v-10.33496h-16.85645v-5.30566l15.19873-26.1416h9.22949v25.25684h4.80811v6.19043h-4.80811v10.33496ZM26.89893,72.22461h9.56104v-10.38965c0-2.43262.16602-5.08496.33154-7.57227h-.2207c-1.27148,2.65332-2.26611,4.97461-3.53711,7.35059l-6.13477,10.50098v.11035Z"/>
      <path fill="#78b72d" d="M60.22461,64.92969c1.82422-2.21094,4.69824-3.70312,8.29004-3.70312,6.4668,0,11.44043,4.91895,11.44043,13.26465,0,7.90234-5.13965,14.86621-13.5957,14.86621-9.45117,0-14.53516-7.57129-14.53516-17.7959,0-9.56152,4.31055-25.20166,24.20703-25.20166v6.30029c-1.0498,0-2.21094.11035-3.59277.27637-7.68164,1.0498-11.3291,6.46582-12.37988,11.99316h.16602ZM71.83105,74.87793c0-4.36621-2.10059-7.95898-5.91406-7.95898-2.43164,0-5.96875,2.10059-5.96875,6.79785.11035,5.41602,2.32129,9.72754,6.35547,9.72754,3.59277,0,5.52734-3.86914,5.52734-8.56641Z"/>
    </g>
  </symbol>
  <symbol id="T47" viewBox="0 0 100 100">
    <rect fill="#78b72d" width="100" height="100" rx="17.5" ry="17.5"/>
    <rect fill="#fff" x="6.25" y="6.25" width="87.5" height="87.5" rx="11.25" ry="11.25"/>
    <path fill="#78b72d" d="M37.71045,15.5459v-5.54639h24.58057v5.54639h-8.99219v24.4541h-6.59668V15.5459h-8.9917Z"/>
    <g>
      <path fill="#78b72d" d="M44.03174,88.75h-7.57178v-10.33496h-16.85645v-5.30566l15.19873-26.1416h9.22949v25.25684h4.80811v6.19043h-4.80811v10.33496ZM26.89893,72.22461h9.56104v-10.38965c0-2.43262.16602-5.08496.33154-7.57227h-.2207c-1.27148,2.65332-2.26611,4.97461-3.53711,7.35059l-6.13477,10.50098v.11035Z"/>
      <path fill="#78b72d" d="M52.98438,46.96777h26.03125v5.08496l-15.80664,36.69727h-8.40039l15.86133-34.92871v-.11133h-17.68555v-6.74219Z"/>
    </g>
  </symbol>
  <symbol id="T48" viewBox="0 0 100 100">
    <rect fill="#78b72d" width="100" height="100" rx="17.5" ry="17.5"/>
    <rect fill="#fff" x="6.25" y="6.25" width="87.5" height="87.5" rx="11.25" ry="11.25"/>
    <path fill="#78b72d" d="M37.71045,15.5459v-5.54639h24.58057v5.54639h-8.99219v24.4541h-6.59668V15.5459h-8.9917Z"/>
    <g>
      <path fill="#78b72d" d="M44.03174,88.75h-7.57178v-10.33496h-16.85645v-5.30566l15.19873-26.1416h9.22949v25.25684h4.80811v6.19043h-4.80811v10.33496ZM26.89893,72.22461h9.56104v-10.38965c0-2.43262.16602-5.08496.33154-7.57227h-.2207c-1.27148,2.65332-2.26611,4.97461-3.53711,7.35059l-6.13477,10.50098v.11035Z"/>
      <path fill="#78b72d" d="M59.1748,66.80859c-3.86914-2.15527-5.91406-5.6377-5.91406-9.1748,0-6.90771,5.69238-11.3291,12.93262-11.3291,8.29004,0,12.21387,5.25,12.21387,10.50098,0,3.37109-1.87891,7.07422-6.13379,9.39551v.11035c4.08887,1.87891,7.46094,5.4707,7.46094,10.66602,0,7.46094-5.8584,12.37988-14.14844,12.37988-8.89844,0-13.65137-5.4707-13.65137-11.44043,0-5.13965,3.04004-8.84277,7.24023-10.94238v-.16602ZM71.55469,77.64062c0-4.08984-2.76367-6.68652-6.41113-7.90234-3.15039,1.16016-5.0293,4.08887-5.0293,7.40527,0,3.53711,2.15527,6.63184,5.69238,6.63184,3.70312,0,5.74805-2.87402,5.74805-6.13477ZM60.94336,57.24707c0,3.20605,2.32129,5.41699,5.58203,6.63281,2.32129-.94043,4.25488-3.53711,4.25488-6.35645,0-2.87402-1.38086-5.74707-4.86328-5.74707-3.5918,0-4.97363,2.81836-4.97363,5.4707Z"/>
    </g>
  </symbol>
  <symbol id="T49" viewBox="0 0 100 100">
    <rect fill="#78b72d" width="100" height="100" rx="17.5" ry="17.5"/>
    <rect fill="#fff" x="6.25" y="6.25" width="87.5" height="87.5" rx="11.25" ry="11.25"/>
    <path fill="#78b72d" d="M37.71045,15.5459v-5.54639h24.58057v5.54639h-8.99219v24.4541h-6.59668V15.5459h-8.9917Z"/>
    <g>
      <path fill="#78b72d" d="M44.03174,88.75h-7.57178v-10.33496h-16.85645v-5.30566l15.19873-26.1416h9.22949v25.25684h4.80811v6.19043h-4.80811v10.33496ZM26.89893,72.22461h9.56104v-10.38965c0-2.43262.16602-5.08496.33154-7.57227h-.2207c-1.27148,2.65332-2.26611,4.97461-3.53711,7.35059l-6.13477,10.50098v.11035Z"/>
      <path fill="#78b72d" d="M71.33301,70.56641c-1.76855,1.99023-4.36523,3.26074-7.84766,3.26074-6.46582,0-11.55078-4.91797-11.55078-12.71094s5.41602-14.81152,13.92773-14.81152c9.11914,0,13.81641,7.62695,13.81641,17.62988,0,14.48047-7.5166,26.1416-24.31738,25.36816v-6.41113c1.27051.11035,2.09961,0,4.03418-.16602,6.9082-.71875,10.8877-5.74805,12.10352-12.10352l-.16602-.05566ZM60.05859,60.39746c0,4.91895,2.32129,7.90332,5.6377,7.90332,2.4873,0,4.36621-1.54785,5.25-3.15039.33203-.60742.44238-1.43652.44238-3.03906,0-5.58203-1.87891-10.00391-5.80273-10.00391-3.31641,0-5.52734,3.53711-5.52734,8.29004Z"/>
    </g>
  </symbol>
  <symbol id="T50" viewBox="0 0 100 100">
    <rect fill="#78b72d" width="100" height="100" rx="17.5" ry="17.5"/>
    <rect fill="#fff" x="6.25" y="6.25" width="87.5" height="87.5" rx="11.25" ry="11.25"/>
    <path fill="#78b72d" d="M37.71045,15.5459v-5.54639h24.58057v5.54639h-8.99219v24.4541h-6.59668V15.5459h-8.9917Z"/>
    <g>
      <path fill="#78b72d" d="M45.46875,46.9126v6.74268h-14.20361l-1.10547,8.17969c.77393-.11133,1.43701-.16602,2.32129-.16602,7.29541,0,14.14844,4.08984,14.14844,13.09863,0,8.01367-6.13477,14.58984-15.97217,14.58984-4.14502,0-7.90332-1.0498-9.94824-2.15527l1.60254-6.18945c1.6582.88379,4.69775,1.93359,7.90332,1.93359,4.25586,0,8.17969-2.70801,8.17969-7.51562,0-5.0293-3.70312-7.84863-10.77734-7.84863-1.87891,0-3.31592.11133-4.69775.27637l2.54248-20.9458h20.00684Z"/>
      <path fill="#78b72d" d="M51.93457,67.96973c0-12.71191,4.69727-21.66504,14.09277-21.66504,9.83789,0,13.65137,9.72656,13.65137,21.33301,0,13.81641-5.13965,21.71973-13.92773,21.71973-9.72656,0-13.81641-9.72656-13.81641-21.3877ZM65.8623,82.8916c3.75781,0,5.63672-5.30566,5.63672-15.08789,0-9.45117-1.71289-15.0332-5.58203-15.0332-3.53711,0-5.80273,5.08496-5.80273,15.0332,0,9.89258,2.04492,15.08789,5.69238,15.08789h.05566Z"/>
    </g>
  </symbol>
  <symbol id="T51" viewBox="0 0 100 100">
    <rect fill="#78b72d" width="100" height="100" rx="17.5" ry="17.5"/>
    <rect fill="#fff" x="6.25" y="6.25" width="87.5" height="87.5" rx="11.25" ry="11.25"/>
    <path fill="#78b72d" d="M37.71045,15.5459v-5.54639h24.58057v5.54639h-8.99219v24.4541h-6.59668V15.5459h-8.9917Z"/>
    <g>
      <path fill="#78b72d" d="M45.46875,46.9126v6.74268h-14.20361l-1.10547,8.17969c.77393-.11133,1.43701-.16602,2.32129-.16602,7.29541,0,14.14844,4.08984,14.14844,13.09863,0,8.01367-6.13477,14.58984-15.97217,14.58984-4.14502,0-7.90332-1.0498-9.94824-2.15527l1.60254-6.18945c1.6582.88379,4.69775,1.93359,7.90332,1.93359,4.25586,0,8.17969-2.70801,8.17969-7.51562,0-5.0293-3.70312-7.84863-10.77734-7.84863-1.87891,0-3.31592.11133-4.69775.27637l2.54248-20.9458h20.00684Z"/>
      <path fill="#78b72d" d="M63.70605,88.75v-34.4873h-.11035l-7.18457,3.75879-1.76855-5.8584,10.16895-5.19531h6.85352v41.78223h-7.95898Z"/>
    </g>
  </symbol>
  <symbol id="T52" viewBox="0 0 100 100">
    <rect fill="#78b72d" width="100" height="100" rx="17.5" ry="17.5"/>
    <rect fill="#fff" x="6.25" y="6.25" width="87.5" height="87.5" rx="11.25" ry="11.25"/>
    <path fill="#78b72d" d="M37.71045,15.5459v-5.54639h24.58057v5.54639h-8.99219v24.4541h-6.59668V15.5459h-8.9917Z"/>
    <g>
      <path fill="#78b72d" d="M45.46875,46.9126v6.74268h-14.20361l-1.10547,8.17969c.77393-.11133,1.43701-.16602,2.32129-.16602,7.29541,0,14.14844,4.08984,14.14844,13.09863,0,8.01367-6.13477,14.58984-15.97217,14.58984-4.14502,0-7.90332-1.0498-9.94824-2.15527l1.60254-6.18945c1.6582.88379,4.69775,1.93359,7.90332,1.93359,4.25586,0,8.17969-2.70801,8.17969-7.51562,0-5.0293-3.70312-7.84863-10.77734-7.84863-1.87891,0-3.31592.11133-4.69775.27637l2.54248-20.9458h20.00684Z"/>
      <path fill="#78b72d" d="M78.51855,88.75h-26.1416v-5.0293l4.64258-4.97461c7.90332-8.17969,12.54492-13.54004,12.54492-19.17773,0-3.64746-1.93359-6.6875-6.52148-6.6875-3.03906,0-5.8584,1.60352-7.79199,3.04004l-2.2666-5.85791c2.59766-1.98975,6.90918-3.7583,11.7168-3.7583,8.95312,0,13.04297,5.69238,13.04297,12.49023,0,7.40625-5.0293,13.48535-11.1084,19.62012l-3.48145,3.42676v.11035h15.36426v6.79785Z"/>
    </g>
  </symbol>
  <symbol id="T53" viewBox="0 0 100 100">
    <rect fill="#78b72d" width="100" height="100" rx="17.5" ry="17.5"/>
    <rect fill="#fff" x="6.25" y="6.25" width="87.5" height="87.5" rx="11.25" ry="11.25"/>
    <path fill="#78b72d" d="M37.71045,15.5459v-5.54639h24.58057v5.54639h-8.99219v24.4541h-6.59668V15.5459h-8.9917Z"/>
    <g>
      <path fill="#78b72d" d="M45.46875,46.9126v6.74268h-14.20361l-1.10547,8.17969c.77393-.11133,1.43701-.16602,2.32129-.16602,7.29541,0,14.14844,4.08984,14.14844,13.09863,0,8.01367-6.13477,14.58984-15.97217,14.58984-4.14502,0-7.90332-1.0498-9.94824-2.15527l1.60254-6.18945c1.6582.88379,4.69775,1.93359,7.90332,1.93359,4.25586,0,8.17969-2.70801,8.17969-7.51562,0-5.0293-3.70312-7.84863-10.77734-7.84863-1.87891,0-3.31592.11133-4.69775.27637l2.54248-20.9458h20.00684Z"/>
      <path fill="#78b72d" d="M69.39941,66.25586c4.64258,1.0498,8.51074,4.80859,8.51074,10.50098,0,6.96387-5.58203,12.60059-15.30859,12.60059-4.42188,0-8.40137-1.16016-10.50098-2.54199l1.82324-6.19043c1.54785.99512,4.91895,2.2666,8.125,2.2666,5.0293,0,7.51562-3.09473,7.51562-6.52148,0-4.69824-4.08984-6.9082-8.56641-6.9082h-2.81836v-5.74805h2.65332c3.26074,0,7.46094-1.82422,7.46094-5.8584,0-2.92969-1.93457-5.08496-5.80371-5.08496-2.87305,0-5.69238,1.27148-7.29492,2.2666l-1.71289-5.8584c2.15527-1.43701,6.41113-2.87402,10.8877-2.87402,8.01367,0,12.21387,4.69727,12.21387,10.22461,0,4.31055-2.59766,7.90332-7.18457,9.61621v.11035Z"/>
    </g>
  </symbol>
  <symbol id="T54" viewBox="0 0 100 100">
    <rect fill="#78b72d" width="100" height="100" rx="17.5" ry="17.5"/>
    <rect fill="#fff" x="6.25" y="6.25" width="87.5" height="87.5" rx="11.25" ry="11.25"/>
    <path fill="#78b72d" d="M37.71045,15.5459v-5.54639h24.58057v5.54639h-8.99219v24.4541h-6.59668V15.5459h-8.9917Z"/>
    <g>
      <path fill="#78b72d" d="M45.46875,46.9126v6.74268h-14.20361l-1.10547,8.17969c.77393-.11133,1.43701-.16602,2.32129-.16602,7.29541,0,14.14844,4.08984,14.14844,13.09863,0,8.01367-6.13477,14.58984-15.97217,14.58984-4.14502,0-7.90332-1.0498-9.94824-2.15527l1.60254-6.18945c1.6582.88379,4.69775,1.93359,7.90332,1.93359,4.25586,0,8.17969-2.70801,8.17969-7.51562,0-5.0293-3.70312-7.84863-10.77734-7.84863-1.87891,0-3.31592.11133-4.69775.27637l2.54248-20.9458h20.00684Z"/>
      <path fill="#78b72d" d="M75.64453,88.75h-7.57227v-10.33496h-16.85645v-5.30566l15.19922-26.1416h9.22949v25.25684h4.80762v6.19043h-4.80762v10.33496ZM58.51172,72.22461h9.56055v-10.38965c0-2.43262.16602-5.08496.33203-7.57227h-.2207c-1.27148,2.65332-2.2666,4.97461-3.53711,7.35059l-6.13477,10.50098v.11035Z"/>
    </g>
  </symbol>
  <symbol id="T55" viewBox="0 0 100 100">
    <rect fill="#78b72d" width="100" height="100" rx="17.5" ry="17.5"/>
    <rect fill="#fff" x="6.25" y="6.25" width="87.5" height="87.5" rx="11.25" ry="11.25"/>
    <path fill="#78b72d" d="M37.71045,15.5459v-5.54639h24.58057v5.54639h-8.99219v24.4541h-6.59668V15.5459h-8.9917Z"/>
    <g>
      <path fill="#78b72d" d="M45.46875,46.9126v6.74268h-14.20361l-1.10547,8.17969c.77393-.11133,1.43701-.16602,2.32129-.16602,7.29541,0,14.14844,4.08984,14.14844,13.09863,0,8.01367-6.13477,14.58984-15.97217,14.58984-4.14502,0-7.90332-1.0498-9.94824-2.15527l1.60254-6.18945c1.6582.88379,4.69775,1.93359,7.90332,1.93359,4.25586,0,8.17969-2.70801,8.17969-7.51562,0-5.0293-3.70312-7.84863-10.77734-7.84863-1.87891,0-3.31592.11133-4.69775.27637l2.54248-20.9458h20.00684Z"/>
      <path fill="#78b72d" d="M77.08105,46.9126v6.74268h-14.20312l-1.10547,8.17969c.77344-.11133,1.43652-.16602,2.32129-.16602,7.29492,0,14.14844,4.08984,14.14844,13.09863,0,8.01367-6.13477,14.58984-15.97266,14.58984-4.14453,0-7.90332-1.0498-9.94824-2.15527l1.60254-6.18945c1.6582.88379,4.69824,1.93359,7.90332,1.93359,4.25586,0,8.17969-2.70801,8.17969-7.51562,0-5.0293-3.70312-7.84863-10.77734-7.84863-1.87891,0-3.31543.11133-4.69727.27637l2.54199-20.9458h20.00684Z"/>
    </g>
  </symbol>
  <symbol id="T56" viewBox="0 0 100 100">
    <rect fill="#78b72d" width="100" height="100" rx="17.5" ry="17.5"/>
    <rect fill="#fff" x="6.25" y="6.25" width="87.5" height="87.5" rx="11.25" ry="11.25"/>
    <path fill="#78b72d" d="M37.71045,15.5459v-5.54639h24.58057v5.54639h-8.99219v24.4541h-6.59668V15.5459h-8.9917Z"/>
    <g>
      <path fill="#78b72d" d="M45.46875,46.9126v6.74268h-14.20361l-1.10547,8.17969c.77393-.11133,1.43701-.16602,2.32129-.16602,7.29541,0,14.14844,4.08984,14.14844,13.09863,0,8.01367-6.13477,14.58984-15.97217,14.58984-4.14502,0-7.90332-1.0498-9.94824-2.15527l1.60254-6.18945c1.6582.88379,4.69775,1.93359,7.90332,1.93359,4.25586,0,8.17969-2.70801,8.17969-7.51562,0-5.0293-3.70312-7.84863-10.77734-7.84863-1.87891,0-3.31592.11133-4.69775.27637l2.54248-20.9458h20.00684Z"/>
      <path fill="#78b72d" d="M60.22461,64.92969c1.82422-2.21094,4.69824-3.70312,8.29004-3.70312,6.4668,0,11.44043,4.91895,11.44043,13.26465,0,7.90234-5.13965,14.86621-13.5957,14.86621-9.45117,0-14.53516-7.57129-14.53516-17.7959,0-9.56152,4.31055-25.20166,24.20703-25.20166v6.30029c-1.0498,0-2.21094.11035-3.59277.27637-7.68164,1.0498-11.3291,6.46582-12.37988,11.99316h.16602ZM71.83105,74.87793c0-4.36621-2.10059-7.95898-5.91406-7.95898-2.43164,0-5.96875,2.10059-5.96875,6.79785.11035,5.41602,2.32129,9.72754,6.35547,9.72754,3.59277,0,5.52734-3.86914,5.52734-8.56641Z"/>
    </g>
  </symbol>
  <symbol id="T58" viewBox="0 0 100 100">
    <rect fill="#e26b36" width="100" height="100" rx="17.5" ry="17.5"/>
    <rect fill="#fff" x="6.25" y="6.25" width="87.5" height="87.5" rx="11.25" ry="11.25"/>
    <path fill="#e26b36" d="M37.71045,15.5459v-5.54639h24.58057v5.54639h-8.99219v24.4541h-6.59668V15.5459h-8.9917Z"/>
    <g>
      <path fill="#e26b36" d="M45.46875,46.9126v6.74268h-14.20361l-1.10547,8.17969c.77393-.11133,1.43701-.16602,2.32129-.16602,7.29541,0,14.14844,4.08984,14.14844,13.09863,0,8.01367-6.13477,14.58984-15.97217,14.58984-4.14502,0-7.90332-1.0498-9.94824-2.15527l1.60254-6.18945c1.6582.88379,4.69775,1.93359,7.90332,1.93359,4.25586,0,8.17969-2.70801,8.17969-7.51562,0-5.0293-3.70312-7.84863-10.77734-7.84863-1.87891,0-3.31592.11133-4.69775.27637l2.54248-20.9458h20.00684Z"/>
      <path fill="#e26b36" d="M59.1748,66.80859c-3.86914-2.15527-5.91406-5.6377-5.91406-9.1748,0-6.90771,5.69238-11.3291,12.93262-11.3291,8.29004,0,12.21387,5.25,12.21387,10.50098,0,3.37109-1.87891,7.07422-6.13379,9.39551v.11035c4.08887,1.87891,7.46094,5.4707,7.46094,10.66602,0,7.46094-5.8584,12.37988-14.14844,12.37988-8.89844,0-13.65137-5.4707-13.65137-11.44043,0-5.13965,3.04004-8.84277,7.24023-10.94238v-.16602ZM71.55469,77.64062c0-4.08984-2.76367-6.68652-6.41113-7.90234-3.15039,1.16016-5.0293,4.08887-5.0293,7.40527,0,3.53711,2.15527,6.63184,5.69238,6.63184,3.70312,0,5.74805-2.87402,5.74805-6.13477ZM60.94336,57.24707c0,3.20605,2.32129,5.41699,5.58203,6.63281,2.32129-.94043,4.25488-3.53711,4.25488-6.35645,0-2.87402-1.38086-5.74707-4.86328-5.74707-3.5918,0-4.97363,2.81836-4.97363,5.4707Z"/>
    </g>
  </symbol>
  <symbol id="T59" viewBox="0 0 100 100">
    <rect fill="#e26b36" width="100" height="100" rx="17.5" ry="17.5"/>
    <rect fill="#fff" x="6.25" y="6.25" width="87.5" height="87.5" rx="11.25" ry="11.25"/>
    <path fill="#e26b36" d="M37.71045,15.5459v-5.54639h24.58057v5.54639h-8.99219v24.4541h-6.59668V15.5459h-8.9917Z"/>
    <g>
      <path fill="#e26b36" d="M45.46875,46.9126v6.74268h-14.20361l-1.10547,8.17969c.77393-.11133,1.43701-.16602,2.32129-.16602,7.29541,0,14.14844,4.08984,14.14844,13.09863,0,8.01367-6.13477,14.58984-15.97217,14.58984-4.14502,0-7.90332-1.0498-9.94824-2.15527l1.60254-6.18945c1.6582.88379,4.69775,1.93359,7.90332,1.93359,4.25586,0,8.17969-2.70801,8.17969-7.51562,0-5.0293-3.70312-7.84863-10.77734-7.84863-1.87891,0-3.31592.11133-4.69775.27637l2.54248-20.9458h20.00684Z"/>
      <path fill="#e26b36" d="M71.33301,70.56641c-1.76855,1.99023-4.36523,3.26074-7.84766,3.26074-6.46582,0-11.55078-4.91797-11.55078-12.71094s5.41602-14.81152,13.92773-14.81152c9.11914,0,13.81641,7.62695,13.81641,17.62988,0,14.48047-7.5166,26.1416-24.31738,25.36816v-6.41113c1.27051.11035,2.09961,0,4.03418-.16602,6.9082-.71875,10.8877-5.74805,12.10352-12.10352l-.16602-.05566ZM60.05859,60.39746c0,4.91895,2.32129,7.90332,5.6377,7.90332,2.4873,0,4.36621-1.54785,5.25-3.15039.33203-.60742.44238-1.43652.44238-3.03906,0-5.58203-1.87891-10.00391-5.80273-10.00391-3.31641,0-5.52734,3.53711-5.52734,8.29004Z"/>
    </g>
  </symbol>
  <symbol id="T60" viewBox="0 0 100 100">
    <rect fill="#e26b36" width="100" height="100" rx="17.5" ry="17.5"/>
    <rect fill="#fff" x="6.25" y="6.25" width="87.5" height="87.5" rx="11.25" ry="11.25"/>
    <path fill="#e26b36" d="M37.71045,15.5459v-5.54639h24.58057v5.54639h-8.99219v24.4541h-6.59668V15.5459h-8.9917Z"/>
    <g>
      <path fill="#e26b36" d="M28.6123,64.92969c1.82373-2.21094,4.69775-3.70312,8.29004-3.70312,6.46631,0,11.44043,4.91895,11.44043,13.26465,0,7.90234-5.14014,14.86621-13.5957,14.86621-9.45117,0-14.53564-7.57129-14.53564-17.7959,0-9.56152,4.31104-25.20166,24.20703-25.20166v6.30029c-1.0498,0-2.21045.11035-3.59229.27637-7.68213,1.0498-11.32959,6.46582-12.37988,11.99316h.16602ZM40.21826,74.87793c0-4.36621-2.1001-7.95898-5.91357-7.95898-2.43164,0-5.96875,2.10059-5.96875,6.79785.11035,5.41602,2.32129,9.72754,6.35547,9.72754,3.59277,0,5.52686-3.86914,5.52686-8.56641Z"/>
      <path fill="#e26b36" d="M51.93457,67.96973c0-12.71191,4.69727-21.66504,14.09277-21.66504,9.83789,0,13.65137,9.72656,13.65137,21.33301,0,13.81641-5.13965,21.71973-13.92773,21.71973-9.72656,0-13.81641-9.72656-13.81641-21.3877ZM65.8623,82.8916c3.75781,0,5.63672-5.30566,5.63672-15.08789,0-9.45117-1.71289-15.0332-5.58203-15.0332-3.53711,0-5.80273,5.08496-5.80273,15.0332,0,9.89258,2.04492,15.08789,5.69238,15.08789h.05566Z"/>
    </g>
  </symbol>
  <symbol id="T61" viewBox="0 0 100 100">
    <rect fill="#e26b36" width="100" height="100" rx="17.5" ry="17.5"/>
    <rect fill="#fff" x="6.25" y="6.25" width="87.5" height="87.5" rx="11.25" ry="11.25"/>
    <path fill="#e26b36" d="M37.71045,15.5459v-5.54639h24.58057v5.54639h-8.99219v24.4541h-6.59668V15.5459h-8.9917Z"/>
    <g>
      <path fill="#e26b36" d="M28.6123,64.92969c1.82373-2.21094,4.69775-3.70312,8.29004-3.70312,6.46631,0,11.44043,4.91895,11.44043,13.26465,0,7.90234-5.14014,14.86621-13.5957,14.86621-9.45117,0-14.53564-7.57129-14.53564-17.7959,0-9.56152,4.31104-25.20166,24.20703-25.20166v6.30029c-1.0498,0-2.21045.11035-3.59229.27637-7.68213,1.0498-11.32959,6.46582-12.37988,11.99316h.16602ZM40.21826,74.87793c0-4.36621-2.1001-7.95898-5.91357-7.95898-2.43164,0-5.96875,2.10059-5.96875,6.79785.11035,5.41602,2.32129,9.72754,6.35547,9.72754,3.59277,0,5.52686-3.86914,5.52686-8.56641Z"/>
      <path fill="#e26b36" d="M63.70605,88.75v-34.4873h-.11035l-7.18457,3.75879-1.76855-5.8584,10.16895-5.19531h6.85352v41.78223h-7.95898Z"/>
    </g>
  </symbol>
  <symbol id="T62" viewBox="0 0 100 100">
    <rect fill="#e26b36" width="100" height="100" rx="17.5" ry="17.5"/>
    <rect fill="#fff" x="6.25" y="6.25" width="87.5" height="87.5" rx="11.25" ry="11.25"/>
    <path fill="#e26b36" d="M37.71045,15.5459v-5.54639h24.58057v5.54639h-8.99219v24.4541h-6.59668V15.5459h-8.9917Z"/>
    <g>
      <path fill="#e26b36" d="M28.6123,64.92969c1.82373-2.21094,4.69775-3.70312,8.29004-3.70312,6.46631,0,11.44043,4.91895,11.44043,13.26465,0,7.90234-5.14014,14.86621-13.5957,14.86621-9.45117,0-14.53564-7.57129-14.53564-17.7959,0-9.56152,4.31104-25.20166,24.20703-25.20166v6.30029c-1.0498,0-2.21045.11035-3.59229.27637-7.68213,1.0498-11.32959,6.46582-12.37988,11.99316h.16602ZM40.21826,74.87793c0-4.36621-2.1001-7.95898-5.91357-7.95898-2.43164,0-5.96875,2.10059-5.96875,6.79785.11035,5.41602,2.32129,9.72754,6.35547,9.72754,3.59277,0,5.52686-3.86914,5.52686-8.56641Z"/>
      <path fill="#e26b36" d="M78.51855,88.75h-26.1416v-5.0293l4.64258-4.97461c7.90332-8.17969,12.54492-13.54004,12.54492-19.17773,0-3.64746-1.93359-6.6875-6.52148-6.6875-3.03906,0-5.8584,1.60352-7.79199,3.04004l-2.2666-5.85791c2.59766-1.98975,6.90918-3.7583,11.7168-3.7583,8.95312,0,13.04297,5.69238,13.04297,12.49023,0,7.40625-5.0293,13.48535-11.1084,19.62012l-3.48145,3.42676v.11035h15.36426v6.79785Z"/>
    </g>
  </symbol>
  <symbol id="T63" viewBox="0 0 100 100">
    <rect fill="#e26b36" width="100" height="100" rx="17.5" ry="17.5"/>
    <rect fill="#fff" x="6.25" y="6.25" width="87.5" height="87.5" rx="11.25" ry="11.25"/>
    <path fill="#e26b36" d="M37.71045,15.5459v-5.54639h24.58057v5.54639h-8.99219v24.4541h-6.59668V15.5459h-8.9917Z"/>
    <g>
      <path fill="#e26b36" d="M28.6123,64.92969c1.82373-2.21094,4.69775-3.70312,8.29004-3.70312,6.46631,0,11.44043,4.91895,11.44043,13.26465,0,7.90234-5.14014,14.86621-13.5957,14.86621-9.45117,0-14.53564-7.57129-14.53564-17.7959,0-9.56152,4.31104-25.20166,24.20703-25.20166v6.30029c-1.0498,0-2.21045.11035-3.59229.27637-7.68213,1.0498-11.32959,6.46582-12.37988,11.99316h.16602ZM40.21826,74.87793c0-4.36621-2.1001-7.95898-5.91357-7.95898-2.43164,0-5.96875,2.10059-5.96875,6.79785.11035,5.41602,2.32129,9.72754,6.35547,9.72754,3.59277,0,5.52686-3.86914,5.52686-8.56641Z"/>
      <path fill="#e26b36" d="M69.39941,66.25586c4.64258,1.0498,8.51074,4.80859,8.51074,10.50098,0,6.96387-5.58203,12.60059-15.30859,12.60059-4.42188,0-8.40137-1.16016-10.50098-2.54199l1.82324-6.19043c1.54785.99512,4.91895,2.2666,8.125,2.2666,5.0293,0,7.51562-3.09473,7.51562-6.52148,0-4.69824-4.08984-6.9082-8.56641-6.9082h-2.81836v-5.74805h2.65332c3.26074,0,7.46094-1.82422,7.46094-5.8584,0-2.92969-1.93457-5.08496-5.80371-5.08496-2.87305,0-5.69238,1.27148-7.29492,2.2666l-1.71289-5.8584c2.15527-1.43701,6.41113-2.87402,10.8877-2.87402,8.01367,0,12.21387,4.69727,12.21387,10.22461,0,4.31055-2.59766,7.90332-7.18457,9.61621v.11035Z"/>
    </g>
  </symbol>
  <symbol id="T64" viewBox="0 0 100 100">
    <rect fill="#e26b36" width="100" height="100" rx="17.5" ry="17.5"/>
    <rect fill="#fff" x="6.25" y="6.25" width="87.5" height="87.5" rx="11.25" ry="11.25"/>
    <path fill="#e26b36" d="M37.71045,15.5459v-5.54639h24.58057v5.54639h-8.99219v24.4541h-6.59668V15.5459h-8.9917Z"/>
    <g>
      <path fill="#e26b36" d="M28.6123,64.92969c1.82373-2.21094,4.69775-3.70312,8.29004-3.70312,6.46631,0,11.44043,4.91895,11.44043,13.26465,0,7.90234-5.14014,14.86621-13.5957,14.86621-9.45117,0-14.53564-7.57129-14.53564-17.7959,0-9.56152,4.31104-25.20166,24.20703-25.20166v6.30029c-1.0498,0-2.21045.11035-3.59229.27637-7.68213,1.0498-11.32959,6.46582-12.37988,11.99316h.16602ZM40.21826,74.87793c0-4.36621-2.1001-7.95898-5.91357-7.95898-2.43164,0-5.96875,2.10059-5.96875,6.79785.11035,5.41602,2.32129,9.72754,6.35547,9.72754,3.59277,0,5.52686-3.86914,5.52686-8.56641Z"/>
      <path fill="#e26b36" d="M75.64453,88.75h-7.57227v-10.33496h-16.85645v-5.30566l15.19922-26.1416h9.22949v25.25684h4.80762v6.19043h-4.80762v10.33496ZM58.51172,72.22461h9.56055v-10.38965c0-2.43262.16602-5.08496.33203-7.57227h-.2207c-1.27148,2.65332-2.2666,4.97461-3.53711,7.35059l-6.13477,10.50098v.11035Z"/>
    </g>
  </symbol>
  <symbol id="T65" viewBox="0 0 100 100">
    <rect fill="#e26b36" width="100" height="100" rx="17.5" ry="17.5"/>
    <rect fill="#fff" x="6.25" y="6.25" width="87.5" height="87.5" rx="11.25" ry="11.25"/>
    <path fill="#e26b36" d="M37.71045,15.5459v-5.54639h24.58057v5.54639h-8.99219v24.4541h-6.59668V15.5459h-8.9917Z"/>
    <g>
      <path fill="#e26b36" d="M28.6123,64.92969c1.82373-2.21094,4.69775-3.70312,8.29004-3.70312,6.46631,0,11.44043,4.91895,11.44043,13.26465,0,7.90234-5.14014,14.86621-13.5957,14.86621-9.45117,0-14.53564-7.57129-14.53564-17.7959,0-9.56152,4.31104-25.20166,24.20703-25.20166v6.30029c-1.0498,0-2.21045.11035-3.59229.27637-7.68213,1.0498-11.32959,6.46582-12.37988,11.99316h.16602ZM40.21826,74.87793c0-4.36621-2.1001-7.95898-5.91357-7.95898-2.43164,0-5.96875,2.10059-5.96875,6.79785.11035,5.41602,2.32129,9.72754,6.35547,9.72754,3.59277,0,5.52686-3.86914,5.52686-8.56641Z"/>
      <path fill="#e26b36" d="M77.08105,46.9126v6.74268h-14.20312l-1.10547,8.17969c.77344-.11133,1.43652-.16602,2.32129-.16602,7.29492,0,14.14844,4.08984,14.14844,13.09863,0,8.01367-6.13477,14.58984-15.97266,14.58984-4.14453,0-7.90332-1.0498-9.94824-2.15527l1.60254-6.18945c1.6582.88379,4.69824,1.93359,7.90332,1.93359,4.25586,0,8.17969-2.70801,8.17969-7.51562,0-5.0293-3.70312-7.84863-10.77734-7.84863-1.87891,0-3.31543.11133-4.69727.27637l2.54199-20.9458h20.00684Z"/>
    </g>
  </symbol>
  <symbol id="T66" viewBox="0 0 100 100">
    <rect fill="#e26b36" width="100" height="100" rx="17.5" ry="17.5"/>
    <rect fill="#fff" x="6.25" y="6.25" width="87.5" height="87.5" rx="11.25" ry="11.25"/>
    <path fill="#e26b36" d="M37.71045,15.5459v-5.54639h24.58057v5.54639h-8.99219v24.4541h-6.59668V15.5459h-8.9917Z"/>
    <g>
      <path fill="#e26b36" d="M28.6123,64.92969c1.82373-2.21094,4.69775-3.70312,8.29004-3.70312,6.46631,0,11.44043,4.91895,11.44043,13.26465,0,7.90234-5.14014,14.86621-13.5957,14.86621-9.45117,0-14.53564-7.57129-14.53564-17.7959,0-9.56152,4.31104-25.20166,24.20703-25.20166v6.30029c-1.0498,0-2.21045.11035-3.59229.27637-7.68213,1.0498-11.32959,6.46582-12.37988,11.99316h.16602ZM40.21826,74.87793c0-4.36621-2.1001-7.95898-5.91357-7.95898-2.43164,0-5.96875,2.10059-5.96875,6.79785.11035,5.41602,2.32129,9.72754,6.35547,9.72754,3.59277,0,5.52686-3.86914,5.52686-8.56641Z"/>
      <path fill="#e26b36" d="M60.22461,64.92969c1.82422-2.21094,4.69824-3.70312,8.29004-3.70312,6.4668,0,11.44043,4.91895,11.44043,13.26465,0,7.90234-5.13965,14.86621-13.5957,14.86621-9.45117,0-14.53516-7.57129-14.53516-17.7959,0-9.56152,4.31055-25.20166,24.20703-25.20166v6.30029c-1.0498,0-2.21094.11035-3.59277.27637-7.68164,1.0498-11.3291,6.46582-12.37988,11.99316h.16602ZM71.83105,74.87793c0-4.36621-2.10059-7.95898-5.91406-7.95898-2.43164,0-5.96875,2.10059-5.96875,6.79785.11035,5.41602,2.32129,9.72754,6.35547,9.72754,3.59277,0,5.52734-3.86914,5.52734-8.56641Z"/>
    </g>
  </symbol>
  <symbol id="T67" viewBox="0 0 100 100">
    <rect fill="#e26b36" width="100" height="100" rx="17.5" ry="17.5"/>
    <rect fill="#fff" x="6.25" y="6.25" width="87.5" height="87.5" rx="11.25" ry="11.25"/>
    <path fill="#e26b36" d="M37.71045,15.5459v-5.54639h24.58057v5.54639h-8.99219v24.4541h-6.59668V15.5459h-8.9917Z"/>
    <g>
      <path fill="#e26b36" d="M28.6123,64.92969c1.82373-2.21094,4.69775-3.70312,8.29004-3.70312,6.46631,0,11.44043,4.91895,11.44043,13.26465,0,7.90234-5.14014,14.86621-13.5957,14.86621-9.45117,0-14.53564-7.57129-14.53564-17.7959,0-9.56152,4.31104-25.20166,24.20703-25.20166v6.30029c-1.0498,0-2.21045.11035-3.59229.27637-7.68213,1.0498-11.32959,6.46582-12.37988,11.99316h.16602ZM40.21826,74.87793c0-4.36621-2.1001-7.95898-5.91357-7.95898-2.43164,0-5.96875,2.10059-5.96875,6.79785.11035,5.41602,2.32129,9.72754,6.35547,9.72754,3.59277,0,5.52686-3.86914,5.52686-8.56641Z"/>
      <path fill="#e26b36" d="M52.98438,46.96777h26.03125v5.08496l-15.80664,36.69727h-8.40039l15.86133-34.92871v-.11133h-17.68555v-6.74219Z"/>
    </g>
  </symbol>
  <symbol id="T68" viewBox="0 0 100 100">
    <rect fill="#e26b36" width="100" height="100" rx="17.5" ry="17.5"/>
    <rect fill="#fff" x="6.25" y="6.25" width="87.5" height="87.5" rx="11.25" ry="11.25"/>
    <path fill="#e26b36" d="M37.71045,15.5459v-5.54639h24.58057v5.54639h-8.99219v24.4541h-6.59668V15.5459h-8.9917Z"/>
    <g>
      <path fill="#e26b36" d="M28.6123,64.92969c1.82373-2.21094,4.69775-3.70312,8.29004-3.70312,6.46631,0,11.44043,4.91895,11.44043,13.26465,0,7.90234-5.14014,14.86621-13.5957,14.86621-9.45117,0-14.53564-7.57129-14.53564-17.7959,0-9.56152,4.31104-25.20166,24.20703-25.20166v6.30029c-1.0498,0-2.21045.11035-3.59229.27637-7.68213,1.0498-11.32959,6.46582-12.37988,11.99316h.16602ZM40.21826,74.87793c0-4.36621-2.1001-7.95898-5.91357-7.95898-2.43164,0-5.96875,2.10059-5.96875,6.79785.11035,5.41602,2.32129,9.72754,6.35547,9.72754,3.59277,0,5.52686-3.86914,5.52686-8.56641Z"/>
      <path fill="#e26b36" d="M59.1748,66.80859c-3.86914-2.15527-5.91406-5.6377-5.91406-9.1748,0-6.90771,5.69238-11.3291,12.93262-11.3291,8.29004,0,12.21387,5.25,12.21387,10.50098,0,3.37109-1.87891,7.07422-6.13379,9.39551v.11035c4.08887,1.87891,7.46094,5.4707,7.46094,10.66602,0,7.46094-5.8584,12.37988-14.14844,12.37988-8.89844,0-13.65137-5.4707-13.65137-11.44043,0-5.13965,3.04004-8.84277,7.24023-10.94238v-.16602ZM71.55469,77.64062c0-4.08984-2.76367-6.68652-6.41113-7.90234-3.15039,1.16016-5.0293,4.08887-5.0293,7.40527,0,3.53711,2.15527,6.63184,5.69238,6.63184,3.70312,0,5.74805-2.87402,5.74805-6.13477ZM60.94336,57.24707c0,3.20605,2.32129,5.41699,5.58203,6.63281,2.32129-.94043,4.25488-3.53711,4.25488-6.35645,0-2.87402-1.38086-5.74707-4.86328-5.74707-3.5918,0-4.97363,2.81836-4.97363,5.4707Z"/>
    </g>
  </symbol>
  <symbol id="T69" viewBox="0 0 100 100">
    <rect fill="#e26b36" width="100" height="100" rx="17.5" ry="17.5"/>
    <rect fill="#fff" x="6.25" y="6.25" width="87.5" height="87.5" rx="11.25" ry="11.25"/>
    <path fill="#e26b36" d="M37.71045,15.5459v-5.54639h24.58057v5.54639h-8.99219v24.4541h-6.59668V15.5459h-8.9917Z"/>
    <g>
      <path fill="#e26b36" d="M28.6123,64.92969c1.82373-2.21094,4.69775-3.70312,8.29004-3.70312,6.46631,0,11.44043,4.91895,11.44043,13.26465,0,7.90234-5.14014,14.86621-13.5957,14.86621-9.45117,0-14.53564-7.57129-14.53564-17.7959,0-9.56152,4.31104-25.20166,24.20703-25.20166v6.30029c-1.0498,0-2.21045.11035-3.59229.27637-7.68213,1.0498-11.32959,6.46582-12.37988,11.99316h.16602ZM40.21826,74.87793c0-4.36621-2.1001-7.95898-5.91357-7.95898-2.43164,0-5.96875,2.10059-5.96875,6.79785.11035,5.41602,2.32129,9.72754,6.35547,9.72754,3.59277,0,5.52686-3.86914,5.52686-8.56641Z"/>
      <path fill="#e26b36" d="M71.33301,70.56641c-1.76855,1.99023-4.36523,3.26074-7.84766,3.26074-6.46582,0-11.55078-4.91797-11.55078-12.71094s5.41602-14.81152,13.92773-14.81152c9.11914,0,13.81641,7.62695,13.81641,17.62988,0,14.48047-7.5166,26.1416-24.31738,25.36816v-6.41113c1.27051.11035,2.09961,0,4.03418-.16602,6.9082-.71875,10.8877-5.74805,12.10352-12.10352l-.16602-.05566ZM60.05859,60.39746c0,4.91895,2.32129,7.90332,5.6377,7.90332,2.4873,0,4.36621-1.54785,5.25-3.15039.33203-.60742.44238-1.43652.44238-3.03906,0-5.58203-1.87891-10.00391-5.80273-10.00391-3.31641,0-5.52734,3.53711-5.52734,8.29004Z"/>
    </g>
  </symbol>
  <symbol id="T70" viewBox="0 0 100 100">
    <rect fill="#e26b36" width="100" height="100" rx="17.5" ry="17.5"/>
    <rect fill="#fff" x="6.25" y="6.25" width="87.5" height="87.5" rx="11.25" ry="11.25"/>
    <path fill="#e26b36" d="M37.71045,15.5459v-5.54639h24.58057v5.54639h-8.99219v24.4541h-6.59668V15.5459h-8.9917Z"/>
    <g>
      <path fill="#e26b36" d="M21.37207,46.96777h26.03076v5.08496l-15.80615,36.69727h-8.40088l15.86182-34.92871v-.11133h-17.68555v-6.74219Z"/>
      <path fill="#e26b36" d="M51.93457,67.96973c0-12.71191,4.69727-21.66504,14.09277-21.66504,9.83789,0,13.65137,9.72656,13.65137,21.33301,0,13.81641-5.13965,21.71973-13.92773,21.71973-9.72656,0-13.81641-9.72656-13.81641-21.3877ZM65.8623,82.8916c3.75781,0,5.63672-5.30566,5.63672-15.08789,0-9.45117-1.71289-15.0332-5.58203-15.0332-3.53711,0-5.80273,5.08496-5.80273,15.0332,0,9.89258,2.04492,15.08789,5.69238,15.08789h.05566Z"/>
    </g>
  </symbol>
</svg>