<?xml version="1.0" encoding="UTF-8"?>
<svg xmlns="http://www.w3.org/2000/svg" xmlns:xlink="http://www.w3.org/1999/xlink">
  <symbol id="BE" viewBox="0 0 100 100">
    <circle fill="#5669b3" cx="50" cy="50" r="50"/>
    <circle fill="#fff" cx="50" cy="50" r="46.25"/>
    <circle fill="#5669b3" cx="50" cy="50" r="40"/>
    <g>
      <path fill="#fff" d="M37.12744,67.5h-15.85547v-34.9873h16.99512c4.28809.06348,7.32666,1.30566,9.11475,3.72656,1.07617,1.4873,1.61426,3.26758,1.61426,5.34082,0,2.13574-.53809,3.85352-1.61426,5.15039-.60156.72852-1.4873,1.39258-2.6582,1.99414,1.78809.64941,3.13672,1.67773,4.04688,3.08594.90918,1.4082,1.36426,3.11719,1.36426,5.12695,0,2.07324-.52148,3.93262-1.56641,5.57812-.66406,1.0918-1.49512,2.00977-2.49219,2.75293-1.12402.85449-2.44922,1.44043-3.97559,1.75684-1.52734.31641-3.18506.47461-4.97314.47461ZM40.59326,45.4248c.94922-.56934,1.42383-1.58984,1.42383-3.06152,0-1.62988-.63281-2.70605-1.89844-3.22852-1.09229-.36328-2.48486-.5459-4.17773-.5459h-7.69092v7.71484h8.59277c1.53467,0,2.78516-.29297,3.75049-.87891ZM36.96143,52.09473h-8.71143v9.3291h8.59277c1.53467,0,2.72949-.20605,3.58398-.61719,1.55078-.75977,2.32617-2.21582,2.32617-4.36816,0-1.81934-.75146-3.06934-2.25488-3.75-.83887-.37988-2.01758-.57715-3.53662-.59375Z"/>
      <path fill="#fff" d="M78.18262,52.21387h-16.99512v8.99609h19.36816v6.29004h-26.51367v-34.9873h25.65918v6.19531h-18.51367v7.42969h16.99512v6.07617Z"/>
    </g>
  </symbol>
  <symbol id="BE01" viewBox="0 0 100 100">
    <circle fill="#5669b3" cx="50" cy="50" r="50"/>
    <circle fill="#fff" cx="50" cy="50" r="46.25"/>
    <circle fill="#5669b3" cx="50" cy="50" r="40"/>
    <g>
      <path fill="#fff" d="M41.7251,41.25h-10.19336v-22.49219h10.92578c2.75635.04102,4.70947.83984,5.85986,2.39551.69141.95703,1.03711,2.10156,1.03711,3.43359,0,1.37305-.3457,2.47754-1.03711,3.31152-.38672.46777-.95703.89551-1.70996,1.28125,1.14941.41797,2.0166,1.0791,2.60254,1.98438.58398.90527.87695,2.00391.87695,3.2959,0,1.33301-.33594,2.52734-1.00684,3.58594-.42773.70117-.96191,1.29199-1.60254,1.76953-.72266.5498-1.57422.92578-2.55566,1.12891-.98242.2041-2.04736.30566-3.19678.30566ZM43.95312,27.05859c.61035-.36621.91504-1.02148.91504-1.96777,0-1.04785-.40723-1.73926-1.2207-2.0752-.70166-.23438-1.59717-.35156-2.68555-.35156h-4.94385v4.95996h5.52393c.98633,0,1.79004-.18848,2.41113-.56543ZM41.61816,31.34668h-5.6001v5.99707h5.52393c.98633,0,1.75488-.13184,2.30371-.39648.99707-.48828,1.49609-1.4248,1.49609-2.80762,0-1.16992-.4834-1.97363-1.4502-2.41113-.53906-.24414-1.29688-.37109-2.27344-.38184Z"/>
      <path fill="#fff" d="M68.11719,31.42285h-10.92578v5.7832h12.45215v4.04395h-17.04492v-22.49219h16.49512v3.9834h-11.90234v4.77539h10.92578v3.90625Z"/>
    </g>
    <g>
      <path fill="#fff" d="M39.70508,82.04395c-4.07031,0-6.9248-1.42578-8.56299-4.27637-1.63867-2.85059-2.45752-6.91309-2.45752-12.18848s.81885-9.3457,2.45752-12.21094c1.63818-2.86523,4.49268-4.29785,8.56299-4.29785,4.06982,0,6.92773,1.43262,8.57422,4.29785,1.63086,2.86523,2.44531,6.93555,2.44531,12.21094s-.81836,9.33789-2.45703,12.18848-4.49268,4.27637-8.5625,4.27637ZM43.38574,73.99902c.57324-1.94043.85986-4.74609.85986-8.41992,0-3.84961-.29053-6.7002-.87061-8.55176-.58105-1.85156-1.8042-2.77734-3.66992-2.77734-1.86621,0-3.10059.92578-3.70312,2.77734s-.90332,4.70215-.90332,8.55176c0,3.67383.30078,6.4834.90332,8.43066s1.83691,2.91992,3.70312,2.91992c1.86572,0,3.09277-.97656,3.68066-2.93066Z"/>
      <path fill="#fff" d="M67.20312,81.25h-6.43652v-22.04102h-7.51562v-4.27539c1.9834-.08887,3.37207-.2207,4.16602-.39746,1.26367-.27832,2.29199-.83691,3.08496-1.6748.54395-.57324.95508-1.33691,1.23438-2.29199.16211-.57324.24316-.99902.24316-1.27832h5.22363v31.95898Z"/>
    </g>
  </symbol>
  <symbol id="BE02" viewBox="0 0 100 100">
    <circle fill="#5669b3" cx="50" cy="50" r="50"/>
    <circle fill="#fff" cx="50" cy="50" r="46.25"/>
    <circle fill="#5669b3" cx="50" cy="50" r="40"/>
    <g>
      <path fill="#fff" d="M41.7251,41.25h-10.19336v-22.49219h10.92578c2.75635.04102,4.70947.83984,5.85986,2.39551.69141.95703,1.03711,2.10156,1.03711,3.43359,0,1.37305-.3457,2.47754-1.03711,3.31152-.38672.46777-.95703.89551-1.70996,1.28125,1.14941.41797,2.0166,1.0791,2.60254,1.98438.58398.90527.87695,2.00391.87695,3.2959,0,1.33301-.33594,2.52734-1.00684,3.58594-.42773.70117-.96191,1.29199-1.60254,1.76953-.72266.5498-1.57422.92578-2.55566,1.12891-.98242.2041-2.04736.30566-3.19678.30566ZM43.95312,27.05859c.61035-.36621.91504-1.02148.91504-1.96777,0-1.04785-.40723-1.73926-1.2207-2.0752-.70166-.23438-1.59717-.35156-2.68555-.35156h-4.94385v4.95996h5.52393c.98633,0,1.79004-.18848,2.41113-.56543ZM41.61816,31.34668h-5.6001v5.99707h5.52393c.98633,0,1.75488-.13184,2.30371-.39648.99707-.48828,1.49609-1.4248,1.49609-2.80762,0-1.16992-.4834-1.97363-1.4502-2.41113-.53906-.24414-1.29688-.37109-2.27344-.38184Z"/>
      <path fill="#fff" d="M68.11719,31.42285h-10.92578v5.7832h12.45215v4.04395h-17.04492v-22.49219h16.49512v3.9834h-11.90234v4.77539h10.92578v3.90625Z"/>
    </g>
    <g>
      <path fill="#fff" d="M39.70508,82.04395c-4.07031,0-6.9248-1.42578-8.56299-4.27637-1.63867-2.85059-2.45752-6.91309-2.45752-12.18848s.81885-9.3457,2.45752-12.21094c1.63818-2.86523,4.49268-4.29785,8.56299-4.29785,4.06982,0,6.92773,1.43262,8.57422,4.29785,1.63086,2.86523,2.44531,6.93555,2.44531,12.21094s-.81836,9.33789-2.45703,12.18848-4.49268,4.27637-8.5625,4.27637ZM43.38574,73.99902c.57324-1.94043.85986-4.74609.85986-8.41992,0-3.84961-.29053-6.7002-.87061-8.55176-.58105-1.85156-1.8042-2.77734-3.66992-2.77734-1.86621,0-3.10059.92578-3.70312,2.77734s-.90332,4.70215-.90332,8.55176c0,3.67383.30078,6.4834.90332,8.43066s1.83691,2.91992,3.70312,2.91992c1.86572,0,3.09277-.97656,3.68066-2.93066Z"/>
      <path fill="#fff" d="M65.81445,55.79297c-.75-.89648-1.82227-1.34473-3.21777-1.34473-1.91113,0-3.21094.71289-3.90137,2.1377-.39746.82324-.63184,2.13086-.70605,3.92383h-6.10449c.10254-2.71875.59473-4.91504,1.47656-6.59082,1.6748-3.18848,4.65039-4.78223,8.92676-4.78223,3.37891,0,6.06836.93652,8.06641,2.80957,1.99805,1.87402,2.99805,4.35352,2.99805,7.43945,0,2.36523-.70605,4.4668-2.11621,6.30371-.92578,1.21973-2.44629,2.57812-4.5625,4.07715l-2.5127,1.78516c-1.57227,1.11719-2.64844,1.92578-3.22852,2.4248-.58105.5-1.06934,1.08008-1.46582,1.74121h13.95117v5.53223h-21.88672c.05859-2.29199.55176-4.38574,1.47754-6.28125.89551-2.13086,3.01172-4.38672,6.34766-6.7666,2.89453-2.07227,4.76758-3.55664,5.62012-4.45215,1.30762-1.39648,1.96191-2.9248,1.96191-4.58496,0-1.35156-.375-2.47559-1.12402-3.37207Z"/>
    </g>
  </symbol>
  <symbol id="BE03" viewBox="0 0 100 100">
    <circle fill="#5669b3" cx="50" cy="50" r="50"/>
    <circle fill="#fff" cx="50" cy="50" r="46.25"/>
    <circle fill="#5669b3" cx="50" cy="50" r="40"/>
    <g>
      <path fill="#fff" d="M41.7251,41.25h-10.19336v-22.49219h10.92578c2.75635.04102,4.70947.83984,5.85986,2.39551.69141.95703,1.03711,2.10156,1.03711,3.43359,0,1.37305-.3457,2.47754-1.03711,3.31152-.38672.46777-.95703.89551-1.70996,1.28125,1.14941.41797,2.0166,1.0791,2.60254,1.98438.58398.90527.87695,2.00391.87695,3.2959,0,1.33301-.33594,2.52734-1.00684,3.58594-.42773.70117-.96191,1.29199-1.60254,1.76953-.72266.5498-1.57422.92578-2.55566,1.12891-.98242.2041-2.04736.30566-3.19678.30566ZM43.95312,27.05859c.61035-.36621.91504-1.02148.91504-1.96777,0-1.04785-.40723-1.73926-1.2207-2.0752-.70166-.23438-1.59717-.35156-2.68555-.35156h-4.94385v4.95996h5.52393c.98633,0,1.79004-.18848,2.41113-.56543ZM41.61816,31.34668h-5.6001v5.99707h5.52393c.98633,0,1.75488-.13184,2.30371-.39648.99707-.48828,1.49609-1.4248,1.49609-2.80762,0-1.16992-.4834-1.97363-1.4502-2.41113-.53906-.24414-1.29688-.37109-2.27344-.38184Z"/>
      <path fill="#fff" d="M68.11719,31.42285h-10.92578v5.7832h12.45215v4.04395h-17.04492v-22.49219h16.49512v3.9834h-11.90234v4.77539h10.92578v3.90625Z"/>
    </g>
    <g>
      <path fill="#fff" d="M39.70508,82.04395c-4.07031,0-6.9248-1.42578-8.56299-4.27637-1.63867-2.85059-2.45752-6.91309-2.45752-12.18848s.81885-9.3457,2.45752-12.21094c1.63818-2.86523,4.49268-4.29785,8.56299-4.29785,4.06982,0,6.92773,1.43262,8.57422,4.29785,1.63086,2.86523,2.44531,6.93555,2.44531,12.21094s-.81836,9.33789-2.45703,12.18848-4.49268,4.27637-8.5625,4.27637ZM43.38574,73.99902c.57324-1.94043.85986-4.74609.85986-8.41992,0-3.84961-.29053-6.7002-.87061-8.55176-.58105-1.85156-1.8042-2.77734-3.66992-2.77734-1.86621,0-3.10059.92578-3.70312,2.77734s-.90332,4.70215-.90332,8.55176c0,3.67383.30078,6.4834.90332,8.43066s1.83691,2.91992,3.70312,2.91992c1.86572,0,3.09277-.97656,3.68066-2.93066Z"/>
      <path fill="#fff" d="M58.76074,55.66016c-.70508.94043-1.04297,2.19727-1.01367,3.76953h-5.8623c.05859-1.58691.33008-3.09277.81543-4.51855.51367-1.24902,1.32227-2.40234,2.42383-3.45996.82324-.75,1.7998-1.32324,2.93164-1.71973s2.52051-.59473,4.16602-.59473c3.05566,0,5.52148.79004,7.39453,2.36914,1.87402,1.58008,2.81055,3.69922,2.81055,6.3584,0,1.88184-.55859,3.46875-1.67578,4.76074-.70508.80859-1.43945,1.35938-2.2041,1.65332.57324,0,1.39648.49219,2.46875,1.47656,1.60156,1.48438,2.40234,3.5127,2.40234,6.08398,0,2.70312-.93652,5.08008-2.80957,7.12988-1.87402,2.0498-4.64746,3.0752-8.32031,3.0752-4.52637,0-7.6709-1.47754-9.43359-4.43066-.92578-1.57227-1.44043-3.62891-1.54297-6.17188h6.1709c0,1.27832.20605,2.33691.61719,3.17383.76367,1.54297,2.15234,2.31445,4.16602,2.31445,1.23438,0,2.31055-.42188,3.22852-1.2666.91895-.8457,1.37793-2.06152,1.37793-3.64844,0-2.10059-.85254-3.50391-2.55664-4.20996-.96973-.39648-2.49805-.59473-4.58496-.59473v-4.49609c2.04297-.0293,3.46777-.22754,4.27637-.5957,1.39551-.61719,2.09375-1.86523,2.09375-3.74707,0-1.21875-.35645-2.21094-1.06836-2.97461-.71289-.76465-1.71582-1.14648-3.00879-1.14648-1.48438,0-2.57227.4707-3.2627,1.41016Z"/>
    </g>
  </symbol>
  <symbol id="BE04" viewBox="0 0 100 100">
    <circle fill="#5669b3" cx="50" cy="50" r="50"/>
    <circle fill="#fff" cx="50" cy="50" r="46.25"/>
    <circle fill="#5669b3" cx="50" cy="50" r="40"/>
    <g>
      <path fill="#fff" d="M41.7251,41.25h-10.19336v-22.49219h10.92578c2.75635.04102,4.70947.83984,5.85986,2.39551.69141.95703,1.03711,2.10156,1.03711,3.43359,0,1.37305-.3457,2.47754-1.03711,3.31152-.38672.46777-.95703.89551-1.70996,1.28125,1.14941.41797,2.0166,1.0791,2.60254,1.98438.58398.90527.87695,2.00391.87695,3.2959,0,1.33301-.33594,2.52734-1.00684,3.58594-.42773.70117-.96191,1.29199-1.60254,1.76953-.72266.5498-1.57422.92578-2.55566,1.12891-.98242.2041-2.04736.30566-3.19678.30566ZM43.95312,27.05859c.61035-.36621.91504-1.02148.91504-1.96777,0-1.04785-.40723-1.73926-1.2207-2.0752-.70166-.23438-1.59717-.35156-2.68555-.35156h-4.94385v4.95996h5.52393c.98633,0,1.79004-.18848,2.41113-.56543ZM41.61816,31.34668h-5.6001v5.99707h5.52393c.98633,0,1.75488-.13184,2.30371-.39648.99707-.48828,1.49609-1.4248,1.49609-2.80762,0-1.16992-.4834-1.97363-1.4502-2.41113-.53906-.24414-1.29688-.37109-2.27344-.38184Z"/>
      <path fill="#fff" d="M68.11719,31.42285h-10.92578v5.7832h12.45215v4.04395h-17.04492v-22.49219h16.49512v3.9834h-11.90234v4.77539h10.92578v3.90625Z"/>
    </g>
    <g>
      <path fill="#fff" d="M39.70508,82.04395c-4.07031,0-6.9248-1.42578-8.56299-4.27637-1.63867-2.85059-2.45752-6.91309-2.45752-12.18848s.81885-9.3457,2.45752-12.21094c1.63818-2.86523,4.49268-4.29785,8.56299-4.29785,4.06982,0,6.92773,1.43262,8.57422,4.29785,1.63086,2.86523,2.44531,6.93555,2.44531,12.21094s-.81836,9.33789-2.45703,12.18848-4.49268,4.27637-8.5625,4.27637ZM43.38574,73.99902c.57324-1.94043.85986-4.74609.85986-8.41992,0-3.84961-.29053-6.7002-.87061-8.55176-.58105-1.85156-1.8042-2.77734-3.66992-2.77734-1.86621,0-3.10059.92578-3.70312,2.77734s-.90332,4.70215-.90332,8.55176c0,3.67383.30078,6.4834.90332,8.43066s1.83691,2.91992,3.70312,2.91992c1.86572,0,3.09277-.97656,3.68066-2.93066Z"/>
      <path fill="#fff" d="M73.72656,69.45801v4.91504h-3.61426v6.87695h-6.14941v-6.87695h-12.65137v-5.48828l11.74805-19.39551h7.05273v19.96875h3.61426ZM55.96191,69.45801h8.00098v-13.79785l-8.00098,13.79785Z"/>
    </g>
  </symbol>
  <symbol id="BE05" viewBox="0 0 100 100">
    <circle fill="#5669b3" cx="50" cy="50" r="50"/>
    <circle fill="#fff" cx="50" cy="50" r="46.25"/>
    <circle fill="#5669b3" cx="50" cy="50" r="40"/>
    <g>
      <path fill="#fff" d="M41.7251,41.25h-10.19336v-22.49219h10.92578c2.75635.04102,4.70947.83984,5.85986,2.39551.69141.95703,1.03711,2.10156,1.03711,3.43359,0,1.37305-.3457,2.47754-1.03711,3.31152-.38672.46777-.95703.89551-1.70996,1.28125,1.14941.41797,2.0166,1.0791,2.60254,1.98438.58398.90527.87695,2.00391.87695,3.2959,0,1.33301-.33594,2.52734-1.00684,3.58594-.42773.70117-.96191,1.29199-1.60254,1.76953-.72266.5498-1.57422.92578-2.55566,1.12891-.98242.2041-2.04736.30566-3.19678.30566ZM43.95312,27.05859c.61035-.36621.91504-1.02148.91504-1.96777,0-1.04785-.40723-1.73926-1.2207-2.0752-.70166-.23438-1.59717-.35156-2.68555-.35156h-4.94385v4.95996h5.52393c.98633,0,1.79004-.18848,2.41113-.56543ZM41.61816,31.34668h-5.6001v5.99707h5.52393c.98633,0,1.75488-.13184,2.30371-.39648.99707-.48828,1.49609-1.4248,1.49609-2.80762,0-1.16992-.4834-1.97363-1.4502-2.41113-.53906-.24414-1.29688-.37109-2.27344-.38184Z"/>
      <path fill="#fff" d="M68.11719,31.42285h-10.92578v5.7832h12.45215v4.04395h-17.04492v-22.49219h16.49512v3.9834h-11.90234v4.77539h10.92578v3.90625Z"/>
    </g>
    <g>
      <path fill="#fff" d="M39.70508,82.04395c-4.07031,0-6.9248-1.42578-8.56299-4.27637-1.63867-2.85059-2.45752-6.91309-2.45752-12.18848s.81885-9.3457,2.45752-12.21094c1.63818-2.86523,4.49268-4.29785,8.56299-4.29785,4.06982,0,6.92773,1.43262,8.57422,4.29785,1.63086,2.86523,2.44531,6.93555,2.44531,12.21094s-.81836,9.33789-2.45703,12.18848-4.49268,4.27637-8.5625,4.27637ZM43.38574,73.99902c.57324-1.94043.85986-4.74609.85986-8.41992,0-3.84961-.29053-6.7002-.87061-8.55176-.58105-1.85156-1.8042-2.77734-3.66992-2.77734-1.86621,0-3.10059.92578-3.70312,2.77734s-.90332,4.70215-.90332,8.55176c0,3.67383.30078,6.4834.90332,8.43066s1.83691,2.91992,3.70312,2.91992c1.86572,0,3.09277-.97656,3.68066-2.93066Z"/>
      <path fill="#fff" d="M62.15527,65.38086c-.76367,0-1.4248.0957-1.9834.28613-.98438.35254-1.72656,1.00684-2.22656,1.96191l-5.64258-.26465,2.24902-17.65527h17.61035v5.33398h-13.07031l-1.14648,6.9873c.96973-.63184,1.72656-1.05078,2.27051-1.25586.91113-.33789,2.02051-.50781,3.32812-.50781,2.64453,0,4.95215.88965,6.9209,2.66699,1.96875,1.77832,2.95312,4.36426,2.95312,7.75879,0,2.95312-.94727,5.59082-2.84277,7.91309-1.89551,2.32129-4.73145,3.48242-8.50781,3.48242-3.04199,0-5.54004-.81543-7.49414-2.44727-1.9541-1.63086-3.04199-3.94531-3.26172-6.94238h6.25977c.24902,1.36621.72656,2.4209,1.43262,3.16309.70508.74219,1.7334,1.1123,3.08496,1.1123,1.55762,0,2.74414-.54688,3.55957-1.6416.81641-1.09473,1.22363-2.47168,1.22363-4.13281,0-1.63086-.38184-3.00879-1.14648-4.13281-.76367-1.12402-1.9541-1.68555-3.57031-1.68555Z"/>
    </g>
  </symbol>
  <symbol id="BE06" viewBox="0 0 100 100">
    <circle fill="#5669b3" cx="50" cy="50" r="50"/>
    <circle fill="#fff" cx="50" cy="50" r="46.25"/>
    <circle fill="#5669b3" cx="50" cy="50" r="40"/>
    <g>
      <path fill="#fff" d="M41.7251,41.25h-10.19336v-22.49219h10.92578c2.75635.04102,4.70947.83984,5.85986,2.39551.69141.95703,1.03711,2.10156,1.03711,3.43359,0,1.37305-.3457,2.47754-1.03711,3.31152-.38672.46777-.95703.89551-1.70996,1.28125,1.14941.41797,2.0166,1.0791,2.60254,1.98438.58398.90527.87695,2.00391.87695,3.2959,0,1.33301-.33594,2.52734-1.00684,3.58594-.42773.70117-.96191,1.29199-1.60254,1.76953-.72266.5498-1.57422.92578-2.55566,1.12891-.98242.2041-2.04736.30566-3.19678.30566ZM43.95312,27.05859c.61035-.36621.91504-1.02148.91504-1.96777,0-1.04785-.40723-1.73926-1.2207-2.0752-.70166-.23438-1.59717-.35156-2.68555-.35156h-4.94385v4.95996h5.52393c.98633,0,1.79004-.18848,2.41113-.56543ZM41.61816,31.34668h-5.6001v5.99707h5.52393c.98633,0,1.75488-.13184,2.30371-.39648.99707-.48828,1.49609-1.4248,1.49609-2.80762,0-1.16992-.4834-1.97363-1.4502-2.41113-.53906-.24414-1.29688-.37109-2.27344-.38184Z"/>
      <path fill="#fff" d="M68.11719,31.42285h-10.92578v5.7832h12.45215v4.04395h-17.04492v-22.49219h16.49512v3.9834h-11.90234v4.77539h10.92578v3.90625Z"/>
    </g>
    <g>
      <path fill="#fff" d="M39.70508,82.04395c-4.07031,0-6.9248-1.42578-8.56299-4.27637-1.63867-2.85059-2.45752-6.91309-2.45752-12.18848s.81885-9.3457,2.45752-12.21094c1.63818-2.86523,4.49268-4.29785,8.56299-4.29785,4.06982,0,6.92773,1.43262,8.57422,4.29785,1.63086,2.86523,2.44531,6.93555,2.44531,12.21094s-.81836,9.33789-2.45703,12.18848-4.49268,4.27637-8.5625,4.27637ZM43.38574,73.99902c.57324-1.94043.85986-4.74609.85986-8.41992,0-3.84961-.29053-6.7002-.87061-8.55176-.58105-1.85156-1.8042-2.77734-3.66992-2.77734-1.86621,0-3.10059.92578-3.70312,2.77734s-.90332,4.70215-.90332,8.55176c0,3.67383.30078,6.4834.90332,8.43066s1.83691,2.91992,3.70312,2.91992c1.86572,0,3.09277-.97656,3.68066-2.93066Z"/>
      <path fill="#fff" d="M63.91895,60.50977c2.83594,0,5.16113.96191,6.97559,2.88672,1.81445,1.92578,2.72168,4.38672,2.72168,7.38379,0,2.9834-.88867,5.61328-2.66602,7.89062-1.77832,2.27832-4.54102,3.41699-8.28809,3.41699-4.02637,0-6.99414-1.68262-8.9043-5.04785-1.48438-2.62988-2.22656-6.02441-2.22656-10.18262,0-2.43945.10352-4.42285.30859-5.95117.36719-2.71875,1.08008-4.98145,2.13867-6.78906.91113-1.54199,2.10449-2.78418,3.58105-3.72461,1.47754-.94043,3.24414-1.41016,5.30078-1.41016,2.96875,0,5.33398.75977,7.09766,2.28125,1.7627,1.52051,2.75488,3.54492,2.97559,6.07227h-6.25977c0-.51465-.19824-1.08008-.59473-1.69727-.67676-.99902-1.69727-1.49902-3.06445-1.49902-2.04199,0-3.49707,1.14648-4.36328,3.43848-.4707,1.26367-.79395,3.12988-.9707,5.59863.7793-.92578,1.68262-1.60156,2.71191-2.02832,1.02832-.42578,2.2041-.63867,3.52637-.63867ZM59.68652,66.50488c-1.23438.95508-1.85156,2.49805-1.85156,4.62793,0,1.71973.46289,3.12305,1.38867,4.20996.92578,1.08789,2.10156,1.63086,3.52734,1.63086,1.39551,0,2.49316-.52441,3.29492-1.5752.80078-1.05078,1.20117-2.41406,1.20117-4.08887,0-1.86621-.45605-3.29492-1.36719-4.28711s-2.02734-1.4873-3.34961-1.4873c-1.07324,0-2.02051.32324-2.84375.96973Z"/>
    </g>
  </symbol>
  <symbol id="BE07" viewBox="0 0 100 100">
    <circle fill="#5669b3" cx="50" cy="50" r="50"/>
    <circle fill="#fff" cx="50" cy="50" r="46.25"/>
    <circle fill="#5669b3" cx="50" cy="50" r="40"/>
    <g>
      <path fill="#fff" d="M41.7251,41.25h-10.19336v-22.49219h10.92578c2.75635.04102,4.70947.83984,5.85986,2.39551.69141.95703,1.03711,2.10156,1.03711,3.43359,0,1.37305-.3457,2.47754-1.03711,3.31152-.38672.46777-.95703.89551-1.70996,1.28125,1.14941.41797,2.0166,1.0791,2.60254,1.98438.58398.90527.87695,2.00391.87695,3.2959,0,1.33301-.33594,2.52734-1.00684,3.58594-.42773.70117-.96191,1.29199-1.60254,1.76953-.72266.5498-1.57422.92578-2.55566,1.12891-.98242.2041-2.04736.30566-3.19678.30566ZM43.95312,27.05859c.61035-.36621.91504-1.02148.91504-1.96777,0-1.04785-.40723-1.73926-1.2207-2.0752-.70166-.23438-1.59717-.35156-2.68555-.35156h-4.94385v4.95996h5.52393c.98633,0,1.79004-.18848,2.41113-.56543ZM41.61816,31.34668h-5.6001v5.99707h5.52393c.98633,0,1.75488-.13184,2.30371-.39648.99707-.48828,1.49609-1.4248,1.49609-2.80762,0-1.16992-.4834-1.97363-1.4502-2.41113-.53906-.24414-1.29688-.37109-2.27344-.38184Z"/>
      <path fill="#fff" d="M68.11719,31.42285h-10.92578v5.7832h12.45215v4.04395h-17.04492v-22.49219h16.49512v3.9834h-11.90234v4.77539h10.92578v3.90625Z"/>
    </g>
    <g>
      <path fill="#fff" d="M39.70508,82.04395c-4.07031,0-6.9248-1.42578-8.56299-4.27637-1.63867-2.85059-2.45752-6.91309-2.45752-12.18848s.81885-9.3457,2.45752-12.21094c1.63818-2.86523,4.49268-4.29785,8.56299-4.29785,4.06982,0,6.92773,1.43262,8.57422,4.29785,1.63086,2.86523,2.44531,6.93555,2.44531,12.21094s-.81836,9.33789-2.45703,12.18848-4.49268,4.27637-8.5625,4.27637ZM43.38574,73.99902c.57324-1.94043.85986-4.74609.85986-8.41992,0-3.84961-.29053-6.7002-.87061-8.55176-.58105-1.85156-1.8042-2.77734-3.66992-2.77734-1.86621,0-3.10059.92578-3.70312,2.77734s-.90332,4.70215-.90332,8.55176c0,3.67383.30078,6.4834.90332,8.43066s1.83691,2.91992,3.70312,2.91992c1.86572,0,3.09277-.97656,3.68066-2.93066Z"/>
      <path fill="#fff" d="M70.00195,59.56152c-1.6748,2.38086-3.07812,4.83496-4.20996,7.3623-.89648,1.9834-1.7041,4.4082-2.42383,7.27344-.7207,2.86523-1.08008,5.21582-1.08008,7.05273h-6.52441c.19043-5.73047,2.07129-11.68848,5.64258-17.875,2.30664-3.83496,4.23926-6.50977,5.79688-8.02344h-15.93555l.08789-5.64258h22.56934v4.91602c-.94043.92578-2.24805,2.57129-3.92285,4.93652Z"/>
    </g>
  </symbol>
  <symbol id="BE08" viewBox="0 0 100 100">
    <circle fill="#5669b3" cx="50" cy="50" r="50"/>
    <circle fill="#fff" cx="50" cy="50" r="46.25"/>
    <circle fill="#5669b3" cx="50" cy="50" r="40"/>
    <g>
      <path fill="#fff" d="M41.7251,41.25h-10.19336v-22.49219h10.92578c2.75635.04102,4.70947.83984,5.85986,2.39551.69141.95703,1.03711,2.10156,1.03711,3.43359,0,1.37305-.3457,2.47754-1.03711,3.31152-.38672.46777-.95703.89551-1.70996,1.28125,1.14941.41797,2.0166,1.0791,2.60254,1.98438.58398.90527.87695,2.00391.87695,3.2959,0,1.33301-.33594,2.52734-1.00684,3.58594-.42773.70117-.96191,1.29199-1.60254,1.76953-.72266.5498-1.57422.92578-2.55566,1.12891-.98242.2041-2.04736.30566-3.19678.30566ZM43.95312,27.05859c.61035-.36621.91504-1.02148.91504-1.96777,0-1.04785-.40723-1.73926-1.2207-2.0752-.70166-.23438-1.59717-.35156-2.68555-.35156h-4.94385v4.95996h5.52393c.98633,0,1.79004-.18848,2.41113-.56543ZM41.61816,31.34668h-5.6001v5.99707h5.52393c.98633,0,1.75488-.13184,2.30371-.39648.99707-.48828,1.49609-1.4248,1.49609-2.80762,0-1.16992-.4834-1.97363-1.4502-2.41113-.53906-.24414-1.29688-.37109-2.27344-.38184Z"/>
      <path fill="#fff" d="M68.11719,31.42285h-10.92578v5.7832h12.45215v4.04395h-17.04492v-22.49219h16.49512v3.9834h-11.90234v4.77539h10.92578v3.90625Z"/>
    </g>
    <g>
      <path fill="#fff" d="M39.70508,82.04395c-4.07031,0-6.9248-1.42578-8.56299-4.27637-1.63867-2.85059-2.45752-6.91309-2.45752-12.18848s.81885-9.3457,2.45752-12.21094c1.63818-2.86523,4.49268-4.29785,8.56299-4.29785,4.06982,0,6.92773,1.43262,8.57422,4.29785,1.63086,2.86523,2.44531,6.93555,2.44531,12.21094s-.81836,9.33789-2.45703,12.18848-4.49268,4.27637-8.5625,4.27637ZM43.38574,73.99902c.57324-1.94043.85986-4.74609.85986-8.41992,0-3.84961-.29053-6.7002-.87061-8.55176-.58105-1.85156-1.8042-2.77734-3.66992-2.77734-1.86621,0-3.10059.92578-3.70312,2.77734s-.90332,4.70215-.90332,8.55176c0,3.67383.30078,6.4834.90332,8.43066s1.83691,2.91992,3.70312,2.91992c1.86572,0,3.09277-.97656,3.68066-2.93066Z"/>
      <path fill="#fff" d="M54.06641,79.24414c-1.83691-1.88086-2.75488-4.16602-2.75488-6.85449,0-1.79297.40723-3.41602,1.22266-4.87109s2.00977-2.54883,3.58203-3.28418c-1.54297-1.02832-2.5459-2.1416-3.00879-3.33887s-.69434-2.31836-.69434-3.36133c0-2.32129.87402-4.30176,2.62305-5.94043,1.74902-1.6377,4.2168-2.45703,7.40625-2.45703,3.1875,0,5.65625.81934,7.40527,2.45703,1.74805,1.63867,2.62305,3.61914,2.62305,5.94043,0,1.04297-.23145,2.16406-.69434,3.36133s-1.46582,2.2373-3.00879,3.11816c1.57227.88184,2.75488,2.0498,3.54883,3.50488.79297,1.45508,1.19043,3.07812,1.19043,4.87109,0,2.68848-.99609,4.97754-2.9873,6.86523-1.99121,1.88867-4.77148,2.83301-8.3418,2.83301-3.57129,0-6.27441-.94824-8.11133-2.84375ZM57.83496,71.9707c0,1.57227.4082,2.79199,1.22363,3.65918s1.94336,1.2998,3.38379,1.2998c1.43945,0,2.56738-.43262,3.38281-1.2998s1.22363-2.08691,1.22363-3.65918c0-1.63086-.41602-2.86914-1.24609-3.71387s-1.9502-1.26758-3.36035-1.26758c-1.41113,0-2.53125.42285-3.36133,1.26758-.83105.84473-1.24609,2.08301-1.24609,3.71387ZM59.48828,61.08301c.70508.73438,1.68945,1.10156,2.9541,1.10156,1.27832,0,2.26562-.36719,2.96387-1.10156.69824-.73535,1.04688-1.68262,1.04688-2.84375,0-1.26367-.34863-2.25195-1.04688-2.96484-.69824-.71191-1.68555-1.06836-2.96387-1.06836-1.26465,0-2.25195.35645-2.96484,1.06836-.71289.71289-1.06934,1.70117-1.06934,2.96484,0,1.16113.36035,2.1084,1.08008,2.84375Z"/>
    </g>
  </symbol>
  <symbol id="BE09" viewBox="0 0 100 100">
    <circle fill="#5669b3" cx="50" cy="50" r="50"/>
    <circle fill="#fff" cx="50" cy="50" r="46.25"/>
    <circle fill="#5669b3" cx="50" cy="50" r="40"/>
    <g>
      <path fill="#fff" d="M41.7251,41.25h-10.19336v-22.49219h10.92578c2.75635.04102,4.70947.83984,5.85986,2.39551.69141.95703,1.03711,2.10156,1.03711,3.43359,0,1.37305-.3457,2.47754-1.03711,3.31152-.38672.46777-.95703.89551-1.70996,1.28125,1.14941.41797,2.0166,1.0791,2.60254,1.98438.58398.90527.87695,2.00391.87695,3.2959,0,1.33301-.33594,2.52734-1.00684,3.58594-.42773.70117-.96191,1.29199-1.60254,1.76953-.72266.5498-1.57422.92578-2.55566,1.12891-.98242.2041-2.04736.30566-3.19678.30566ZM43.95312,27.05859c.61035-.36621.91504-1.02148.91504-1.96777,0-1.04785-.40723-1.73926-1.2207-2.0752-.70166-.23438-1.59717-.35156-2.68555-.35156h-4.94385v4.95996h5.52393c.98633,0,1.79004-.18848,2.41113-.56543ZM41.61816,31.34668h-5.6001v5.99707h5.52393c.98633,0,1.75488-.13184,2.30371-.39648.99707-.48828,1.49609-1.4248,1.49609-2.80762,0-1.16992-.4834-1.97363-1.4502-2.41113-.53906-.24414-1.29688-.37109-2.27344-.38184Z"/>
      <path fill="#fff" d="M68.11719,31.42285h-10.92578v5.7832h12.45215v4.04395h-17.04492v-22.49219h16.49512v3.9834h-11.90234v4.77539h10.92578v3.90625Z"/>
    </g>
    <g>
      <path fill="#fff" d="M39.70508,82.04395c-4.07031,0-6.9248-1.42578-8.56299-4.27637-1.63867-2.85059-2.45752-6.91309-2.45752-12.18848s.81885-9.3457,2.45752-12.21094c1.63818-2.86523,4.49268-4.29785,8.56299-4.29785,4.06982,0,6.92773,1.43262,8.57422,4.29785,1.63086,2.86523,2.44531,6.93555,2.44531,12.21094s-.81836,9.33789-2.45703,12.18848-4.49268,4.27637-8.5625,4.27637ZM43.38574,73.99902c.57324-1.94043.85986-4.74609.85986-8.41992,0-3.84961-.29053-6.7002-.87061-8.55176-.58105-1.85156-1.8042-2.77734-3.66992-2.77734-1.86621,0-3.10059.92578-3.70312,2.77734s-.90332,4.70215-.90332,8.55176c0,3.67383.30078,6.4834.90332,8.43066s1.83691,2.91992,3.70312,2.91992c1.86572,0,3.09277-.97656,3.68066-2.93066Z"/>
      <path fill="#fff" d="M61.84668,82.17578c-2.39551,0-4.54785-.70898-6.45801-2.12695s-3.00488-3.48633-3.28418-6.2041h6.25977c.14648.94043.54395,1.7041,1.19043,2.29199s1.50586.88184,2.5791.88184c2.07129,0,3.52637-1.14648,4.36328-3.43848.45605-1.26367.74219-3.1084.86035-5.53223-.57324.71973-1.18359,1.27051-1.83008,1.65234-1.17578.70605-2.62207,1.05859-4.3418,1.05859-2.54199,0-4.79785-.87793-6.7666-2.63379s-2.95312-4.28711-2.95312-7.59375c0-3.42285.98828-6.19629,2.96387-8.32031,1.97656-2.12305,4.54395-3.18457,7.7041-3.18457,4.86328,0,8.19922,2.15234,10.00586,6.45801,1.02832,2.43945,1.54297,5.64941,1.54297,9.63184,0,3.86426-.49219,7.08984-1.47656,9.67578-1.88086,4.92285-5.33398,7.38379-10.35938,7.38379ZM59.64258,55.17578c-1.20508.94043-1.80762,2.53418-1.80762,4.78223,0,1.89551.38574,3.31738,1.15723,4.26562.77148.94727,1.95801,1.42188,3.55957,1.42188.86719,0,1.68262-.25,2.44727-.75,1.4248-.91113,2.1377-2.49023,2.1377-4.73828,0-1.80762-.42285-3.24023-1.26758-4.29883-.84473-1.05762-2.00195-1.58691-3.47168-1.58691-1.07227,0-1.99121.30176-2.75488.9043Z"/>
    </g>
  </symbol>
  <symbol id="BE10" viewBox="0 0 100 100">
    <circle fill="#5669b3" cx="50" cy="50" r="50"/>
    <circle fill="#fff" cx="50" cy="50" r="46.25"/>
    <circle fill="#5669b3" cx="50" cy="50" r="40"/>
    <g>
      <path fill="#fff" d="M41.7251,41.25h-10.19336v-22.49219h10.92578c2.75635.04102,4.70947.83984,5.85986,2.39551.69141.95703,1.03711,2.10156,1.03711,3.43359,0,1.37305-.3457,2.47754-1.03711,3.31152-.38672.46777-.95703.89551-1.70996,1.28125,1.14941.41797,2.0166,1.0791,2.60254,1.98438.58398.90527.87695,2.00391.87695,3.2959,0,1.33301-.33594,2.52734-1.00684,3.58594-.42773.70117-.96191,1.29199-1.60254,1.76953-.72266.5498-1.57422.92578-2.55566,1.12891-.98242.2041-2.04736.30566-3.19678.30566ZM43.95312,27.05859c.61035-.36621.91504-1.02148.91504-1.96777,0-1.04785-.40723-1.73926-1.2207-2.0752-.70166-.23438-1.59717-.35156-2.68555-.35156h-4.94385v4.95996h5.52393c.98633,0,1.79004-.18848,2.41113-.56543ZM41.61816,31.34668h-5.6001v5.99707h5.52393c.98633,0,1.75488-.13184,2.30371-.39648.99707-.48828,1.49609-1.4248,1.49609-2.80762,0-1.16992-.4834-1.97363-1.4502-2.41113-.53906-.24414-1.29688-.37109-2.27344-.38184Z"/>
      <path fill="#fff" d="M68.11719,31.42285h-10.92578v5.7832h12.45215v4.04395h-17.04492v-22.49219h16.49512v3.9834h-11.90234v4.77539h10.92578v3.90625Z"/>
    </g>
    <g>
      <path fill="#fff" d="M44.35547,81.25h-6.43555v-22.04102h-7.51611v-4.27539c1.9834-.08887,3.37207-.2207,4.16553-.39746,1.26367-.27832,2.29248-.83691,3.08594-1.6748.54346-.57324.95508-1.33691,1.23438-2.29199.16113-.57324.24219-.99902.24219-1.27832h5.22363v31.95898Z"/>
      <path fill="#fff" d="M62.55176,82.04395c-4.07031,0-6.92383-1.42578-8.5625-4.27637s-2.45801-6.91309-2.45801-12.18848.81934-9.3457,2.45801-12.21094,4.49219-4.29785,8.5625-4.29785,6.92871,1.43262,8.57422,4.29785c1.63086,2.86523,2.44629,6.93555,2.44629,12.21094s-.81934,9.33789-2.45703,12.18848c-1.63867,2.85059-4.49316,4.27637-8.56348,4.27637ZM66.2334,73.99902c.57227-1.94043.85938-4.74609.85938-8.41992,0-3.84961-.29004-6.7002-.87109-8.55176-.58008-1.85156-1.80371-2.77734-3.66992-2.77734s-3.10059.92578-3.70215,2.77734c-.60254,1.85156-.9043,4.70215-.9043,8.55176,0,3.67383.30176,6.4834.9043,8.43066.60156,1.94727,1.83594,2.91992,3.70215,2.91992s3.09375-.97656,3.68164-2.93066Z"/>
    </g>
  </symbol>
  <symbol id="BE11" viewBox="0 0 100 100">
    <circle fill="#5669b3" cx="50" cy="50" r="50"/>
    <circle fill="#fff" cx="50" cy="50" r="46.25"/>
    <circle fill="#5669b3" cx="50" cy="50" r="40"/>
    <g>
      <path fill="#fff" d="M41.7251,41.25h-10.19336v-22.49219h10.92578c2.75635.04102,4.70947.83984,5.85986,2.39551.69141.95703,1.03711,2.10156,1.03711,3.43359,0,1.37305-.3457,2.47754-1.03711,3.31152-.38672.46777-.95703.89551-1.70996,1.28125,1.14941.41797,2.0166,1.0791,2.60254,1.98438.58398.90527.87695,2.00391.87695,3.2959,0,1.33301-.33594,2.52734-1.00684,3.58594-.42773.70117-.96191,1.29199-1.60254,1.76953-.72266.5498-1.57422.92578-2.55566,1.12891-.98242.2041-2.04736.30566-3.19678.30566ZM43.95312,27.05859c.61035-.36621.91504-1.02148.91504-1.96777,0-1.04785-.40723-1.73926-1.2207-2.0752-.70166-.23438-1.59717-.35156-2.68555-.35156h-4.94385v4.95996h5.52393c.98633,0,1.79004-.18848,2.41113-.56543ZM41.61816,31.34668h-5.6001v5.99707h5.52393c.98633,0,1.75488-.13184,2.30371-.39648.99707-.48828,1.49609-1.4248,1.49609-2.80762,0-1.16992-.4834-1.97363-1.4502-2.41113-.53906-.24414-1.29688-.37109-2.27344-.38184Z"/>
      <path fill="#fff" d="M68.11719,31.42285h-10.92578v5.7832h12.45215v4.04395h-17.04492v-22.49219h16.49512v3.9834h-11.90234v4.77539h10.92578v3.90625Z"/>
    </g>
    <g>
      <path fill="#fff" d="M44.35547,81.25h-6.43555v-22.04102h-7.51611v-4.27539c1.9834-.08887,3.37207-.2207,4.16553-.39746,1.26367-.27832,2.29248-.83691,3.08594-1.6748.54346-.57324.95508-1.33691,1.23438-2.29199.16113-.57324.24219-.99902.24219-1.27832h5.22363v31.95898Z"/>
      <path fill="#fff" d="M67.20312,81.25h-6.43652v-22.04102h-7.51562v-4.27539c1.9834-.08887,3.37207-.2207,4.16602-.39746,1.26367-.27832,2.29199-.83691,3.08496-1.6748.54395-.57324.95508-1.33691,1.23438-2.29199.16211-.57324.24316-.99902.24316-1.27832h5.22363v31.95898Z"/>
    </g>
  </symbol>
  <symbol id="BE12" viewBox="0 0 100 100">
    <circle fill="#5669b3" cx="50" cy="50" r="50"/>
    <circle fill="#fff" cx="50" cy="50" r="46.25"/>
    <circle fill="#5669b3" cx="50" cy="50" r="40"/>
    <g>
      <path fill="#fff" d="M41.7251,41.25h-10.19336v-22.49219h10.92578c2.75635.04102,4.70947.83984,5.85986,2.39551.69141.95703,1.03711,2.10156,1.03711,3.43359,0,1.37305-.3457,2.47754-1.03711,3.31152-.38672.46777-.95703.89551-1.70996,1.28125,1.14941.41797,2.0166,1.0791,2.60254,1.98438.58398.90527.87695,2.00391.87695,3.2959,0,1.33301-.33594,2.52734-1.00684,3.58594-.42773.70117-.96191,1.29199-1.60254,1.76953-.72266.5498-1.57422.92578-2.55566,1.12891-.98242.2041-2.04736.30566-3.19678.30566ZM43.95312,27.05859c.61035-.36621.91504-1.02148.91504-1.96777,0-1.04785-.40723-1.73926-1.2207-2.0752-.70166-.23438-1.59717-.35156-2.68555-.35156h-4.94385v4.95996h5.52393c.98633,0,1.79004-.18848,2.41113-.56543ZM41.61816,31.34668h-5.6001v5.99707h5.52393c.98633,0,1.75488-.13184,2.30371-.39648.99707-.48828,1.49609-1.4248,1.49609-2.80762,0-1.16992-.4834-1.97363-1.4502-2.41113-.53906-.24414-1.29688-.37109-2.27344-.38184Z"/>
      <path fill="#fff" d="M68.11719,31.42285h-10.92578v5.7832h12.45215v4.04395h-17.04492v-22.49219h16.49512v3.9834h-11.90234v4.77539h10.92578v3.90625Z"/>
    </g>
    <g>
      <path fill="#fff" d="M44.35547,81.25h-6.43555v-22.04102h-7.51611v-4.27539c1.9834-.08887,3.37207-.2207,4.16553-.39746,1.26367-.27832,2.29248-.83691,3.08594-1.6748.54346-.57324.95508-1.33691,1.23438-2.29199.16113-.57324.24219-.99902.24219-1.27832h5.22363v31.95898Z"/>
      <path fill="#fff" d="M65.81445,55.79297c-.75-.89648-1.82227-1.34473-3.21777-1.34473-1.91113,0-3.21094.71289-3.90137,2.1377-.39746.82324-.63184,2.13086-.70605,3.92383h-6.10449c.10254-2.71875.59473-4.91504,1.47656-6.59082,1.6748-3.18848,4.65039-4.78223,8.92676-4.78223,3.37891,0,6.06836.93652,8.06641,2.80957,1.99805,1.87402,2.99805,4.35352,2.99805,7.43945,0,2.36523-.70605,4.4668-2.11621,6.30371-.92578,1.21973-2.44629,2.57812-4.5625,4.07715l-2.5127,1.78516c-1.57227,1.11719-2.64844,1.92578-3.22852,2.4248-.58105.5-1.06934,1.08008-1.46582,1.74121h13.95117v5.53223h-21.88672c.05859-2.29199.55176-4.38574,1.47754-6.28125.89551-2.13086,3.01172-4.38672,6.34766-6.7666,2.89453-2.07227,4.76758-3.55664,5.62012-4.45215,1.30762-1.39648,1.96191-2.9248,1.96191-4.58496,0-1.35156-.375-2.47559-1.12402-3.37207Z"/>
    </g>
  </symbol>
  <symbol id="BE13" viewBox="0 0 100 100">
    <circle fill="#5669b3" cx="50" cy="50" r="50"/>
    <circle fill="#fff" cx="50" cy="50" r="46.25"/>
    <circle fill="#5669b3" cx="50" cy="50" r="40"/>
    <g>
      <path fill="#fff" d="M41.7251,41.25h-10.19336v-22.49219h10.92578c2.75635.04102,4.70947.83984,5.85986,2.39551.69141.95703,1.03711,2.10156,1.03711,3.43359,0,1.37305-.3457,2.47754-1.03711,3.31152-.38672.46777-.95703.89551-1.70996,1.28125,1.14941.41797,2.0166,1.0791,2.60254,1.98438.58398.90527.87695,2.00391.87695,3.2959,0,1.33301-.33594,2.52734-1.00684,3.58594-.42773.70117-.96191,1.29199-1.60254,1.76953-.72266.5498-1.57422.92578-2.55566,1.12891-.98242.2041-2.04736.30566-3.19678.30566ZM43.95312,27.05859c.61035-.36621.91504-1.02148.91504-1.96777,0-1.04785-.40723-1.73926-1.2207-2.0752-.70166-.23438-1.59717-.35156-2.68555-.35156h-4.94385v4.95996h5.52393c.98633,0,1.79004-.18848,2.41113-.56543ZM41.61816,31.34668h-5.6001v5.99707h5.52393c.98633,0,1.75488-.13184,2.30371-.39648.99707-.48828,1.49609-1.4248,1.49609-2.80762,0-1.16992-.4834-1.97363-1.4502-2.41113-.53906-.24414-1.29688-.37109-2.27344-.38184Z"/>
      <path fill="#fff" d="M68.11719,31.42285h-10.92578v5.7832h12.45215v4.04395h-17.04492v-22.49219h16.49512v3.9834h-11.90234v4.77539h10.92578v3.90625Z"/>
    </g>
    <g>
      <path fill="#fff" d="M44.35547,81.25h-6.43555v-22.04102h-7.51611v-4.27539c1.9834-.08887,3.37207-.2207,4.16553-.39746,1.26367-.27832,2.29248-.83691,3.08594-1.6748.54346-.57324.95508-1.33691,1.23438-2.29199.16113-.57324.24219-.99902.24219-1.27832h5.22363v31.95898Z"/>
      <path fill="#fff" d="M58.76074,55.66016c-.70508.94043-1.04297,2.19727-1.01367,3.76953h-5.8623c.05859-1.58691.33008-3.09277.81543-4.51855.51367-1.24902,1.32227-2.40234,2.42383-3.45996.82324-.75,1.7998-1.32324,2.93164-1.71973s2.52051-.59473,4.16602-.59473c3.05566,0,5.52148.79004,7.39453,2.36914,1.87402,1.58008,2.81055,3.69922,2.81055,6.3584,0,1.88184-.55859,3.46875-1.67578,4.76074-.70508.80859-1.43945,1.35938-2.2041,1.65332.57324,0,1.39648.49219,2.46875,1.47656,1.60156,1.48438,2.40234,3.5127,2.40234,6.08398,0,2.70312-.93652,5.08008-2.80957,7.12988-1.87402,2.0498-4.64746,3.0752-8.32031,3.0752-4.52637,0-7.6709-1.47754-9.43359-4.43066-.92578-1.57227-1.44043-3.62891-1.54297-6.17188h6.1709c0,1.27832.20605,2.33691.61719,3.17383.76367,1.54297,2.15234,2.31445,4.16602,2.31445,1.23438,0,2.31055-.42188,3.22852-1.2666.91895-.8457,1.37793-2.06152,1.37793-3.64844,0-2.10059-.85254-3.50391-2.55664-4.20996-.96973-.39648-2.49805-.59473-4.58496-.59473v-4.49609c2.04297-.0293,3.46777-.22754,4.27637-.5957,1.39551-.61719,2.09375-1.86523,2.09375-3.74707,0-1.21875-.35645-2.21094-1.06836-2.97461-.71289-.76465-1.71582-1.14648-3.00879-1.14648-1.48438,0-2.57227.4707-3.2627,1.41016Z"/>
    </g>
  </symbol>
  <symbol id="BE14" viewBox="0 0 100 100">
    <circle fill="#5669b3" cx="50" cy="50" r="50"/>
    <circle fill="#fff" cx="50" cy="50" r="46.25"/>
    <circle fill="#5669b3" cx="50" cy="50" r="40"/>
    <g>
      <path fill="#fff" d="M41.7251,41.25h-10.19336v-22.49219h10.92578c2.75635.04102,4.70947.83984,5.85986,2.39551.69141.95703,1.03711,2.10156,1.03711,3.43359,0,1.37305-.3457,2.47754-1.03711,3.31152-.38672.46777-.95703.89551-1.70996,1.28125,1.14941.41797,2.0166,1.0791,2.60254,1.98438.58398.90527.87695,2.00391.87695,3.2959,0,1.33301-.33594,2.52734-1.00684,3.58594-.42773.70117-.96191,1.29199-1.60254,1.76953-.72266.5498-1.57422.92578-2.55566,1.12891-.98242.2041-2.04736.30566-3.19678.30566ZM43.95312,27.05859c.61035-.36621.91504-1.02148.91504-1.96777,0-1.04785-.40723-1.73926-1.2207-2.0752-.70166-.23438-1.59717-.35156-2.68555-.35156h-4.94385v4.95996h5.52393c.98633,0,1.79004-.18848,2.41113-.56543ZM41.61816,31.34668h-5.6001v5.99707h5.52393c.98633,0,1.75488-.13184,2.30371-.39648.99707-.48828,1.49609-1.4248,1.49609-2.80762,0-1.16992-.4834-1.97363-1.4502-2.41113-.53906-.24414-1.29688-.37109-2.27344-.38184Z"/>
      <path fill="#fff" d="M68.11719,31.42285h-10.92578v5.7832h12.45215v4.04395h-17.04492v-22.49219h16.49512v3.9834h-11.90234v4.77539h10.92578v3.90625Z"/>
    </g>
    <g>
      <path fill="#fff" d="M44.35547,81.25h-6.43555v-22.04102h-7.51611v-4.27539c1.9834-.08887,3.37207-.2207,4.16553-.39746,1.26367-.27832,2.29248-.83691,3.08594-1.6748.54346-.57324.95508-1.33691,1.23438-2.29199.16113-.57324.24219-.99902.24219-1.27832h5.22363v31.95898Z"/>
      <path fill="#fff" d="M73.72656,69.45801v4.91504h-3.61426v6.87695h-6.14941v-6.87695h-12.65137v-5.48828l11.74805-19.39551h7.05273v19.96875h3.61426ZM55.96191,69.45801h8.00098v-13.79785l-8.00098,13.79785Z"/>
    </g>
  </symbol>
  <symbol id="BE15" viewBox="0 0 100 100">
    <circle fill="#5669b3" cx="50" cy="50" r="50"/>
    <circle fill="#fff" cx="50" cy="50" r="46.25"/>
    <circle fill="#5669b3" cx="50" cy="50" r="40"/>
    <g>
      <path fill="#fff" d="M41.7251,41.25h-10.19336v-22.49219h10.92578c2.75635.04102,4.70947.83984,5.85986,2.39551.69141.95703,1.03711,2.10156,1.03711,3.43359,0,1.37305-.3457,2.47754-1.03711,3.31152-.38672.46777-.95703.89551-1.70996,1.28125,1.14941.41797,2.0166,1.0791,2.60254,1.98438.58398.90527.87695,2.00391.87695,3.2959,0,1.33301-.33594,2.52734-1.00684,3.58594-.42773.70117-.96191,1.29199-1.60254,1.76953-.72266.5498-1.57422.92578-2.55566,1.12891-.98242.2041-2.04736.30566-3.19678.30566ZM43.95312,27.05859c.61035-.36621.91504-1.02148.91504-1.96777,0-1.04785-.40723-1.73926-1.2207-2.0752-.70166-.23438-1.59717-.35156-2.68555-.35156h-4.94385v4.95996h5.52393c.98633,0,1.79004-.18848,2.41113-.56543ZM41.61816,31.34668h-5.6001v5.99707h5.52393c.98633,0,1.75488-.13184,2.30371-.39648.99707-.48828,1.49609-1.4248,1.49609-2.80762,0-1.16992-.4834-1.97363-1.4502-2.41113-.53906-.24414-1.29688-.37109-2.27344-.38184Z"/>
      <path fill="#fff" d="M68.11719,31.42285h-10.92578v5.7832h12.45215v4.04395h-17.04492v-22.49219h16.49512v3.9834h-11.90234v4.77539h10.92578v3.90625Z"/>
    </g>
    <g>
      <path fill="#fff" d="M44.35547,81.25h-6.43555v-22.04102h-7.51611v-4.27539c1.9834-.08887,3.37207-.2207,4.16553-.39746,1.26367-.27832,2.29248-.83691,3.08594-1.6748.54346-.57324.95508-1.33691,1.23438-2.29199.16113-.57324.24219-.99902.24219-1.27832h5.22363v31.95898Z"/>
      <path fill="#fff" d="M62.15527,65.38086c-.76367,0-1.4248.0957-1.9834.28613-.98438.35254-1.72656,1.00684-2.22656,1.96191l-5.64258-.26465,2.24902-17.65527h17.61035v5.33398h-13.07031l-1.14648,6.9873c.96973-.63184,1.72656-1.05078,2.27051-1.25586.91113-.33789,2.02051-.50781,3.32812-.50781,2.64453,0,4.95215.88965,6.9209,2.66699,1.96875,1.77832,2.95312,4.36426,2.95312,7.75879,0,2.95312-.94727,5.59082-2.84277,7.91309-1.89551,2.32129-4.73145,3.48242-8.50781,3.48242-3.04199,0-5.54004-.81543-7.49414-2.44727-1.9541-1.63086-3.04199-3.94531-3.26172-6.94238h6.25977c.24902,1.36621.72656,2.4209,1.43262,3.16309.70508.74219,1.7334,1.1123,3.08496,1.1123,1.55762,0,2.74414-.54688,3.55957-1.6416.81641-1.09473,1.22363-2.47168,1.22363-4.13281,0-1.63086-.38184-3.00879-1.14648-4.13281-.76367-1.12402-1.9541-1.68555-3.57031-1.68555Z"/>
    </g>
  </symbol>
</svg>