<?xml version="1.0" encoding="UTF-8"?>
<svg xmlns="http://www.w3.org/2000/svg" xmlns:xlink="http://www.w3.org/1999/xlink">
  <symbol id="G" viewBox="0 0 100 100">
    <circle fill="#00b050" cx="50" cy="50" r="50"/>
    <path fill="#fff" d="M69.34277,77.31055c-3.80859,1.36426-11.1377,3.28027-18.98779,3.28027-9.9502,0-17.5415-2.50098-23.10791-7.8584-5.26367-5.02051-8.30176-12.76465-8.27686-21.66016.0498-18.70459,13.354-30.63379,32.86768-30.63379,7.25488,0,12.9082,1.46875,15.65332,2.77441l-2.38965,8.67139c-3.21191-1.41846-7.16406-2.51221-13.4082-2.51221-12.55225,0-21.42139,7.44336-21.42139,21.14551,0,13.42188,8.26172,21.32617,20.47461,21.32617,3.8999,0,6.76416-.50781,8.14209-1.17188v-14.7207h-10.38525v-8.46338h20.83936v29.82275Z"/>
  </symbol>
  <symbol id="G01" viewBox="0 0 100 100">
    <circle fill="#00b050" cx="50" cy="50" r="50"/>
    <path fill="#fff" d="M63.91406,38.46289c-2.17676.78027-6.36523,1.875-10.85156,1.875-5.68604,0-10.0249-1.4292-13.20605-4.49072-3.0083-2.86914-4.74463-7.29492-4.73047-12.37891.02881-10.68994,7.63184-17.50732,18.7832-17.50732,4.14648,0,7.37793.83936,8.94629,1.58545l-1.36523,4.95605c-1.83594-.81104-4.09473-1.43604-7.66309-1.43604-7.17285,0-12.24219,4.25391-12.24219,12.08496,0,7.67041,4.72168,12.18799,11.70117,12.18799,2.22852,0,3.86523-.29053,4.65332-.66992v-8.41309h-5.93457v-4.83691h11.90918v17.04346Z"/>
    <g>
      <path fill="#fff" d="M47.96777,65.23438c0,12.5625-4.90967,20.42578-14.25439,20.42578-8.9751,0-13.75439-8.18262-13.83203-20.04785,0-12.12988,5.15967-20.27051,14.271-20.27051,9.43262,0,13.81543,8.42285,13.81543,19.89258ZM27.29199,65.59766c-.01709,9.51367,2.58447,14.43164,6.65967,14.43164,4.37598,0,6.60547-5.28223,6.60547-14.625,0-9.08594-2.13477-14.40625-6.59863-14.40625-3.91211,0-6.67529,4.85156-6.6665,14.59961Z"/>
      <path fill="#fff" d="M64.15137,52.67578h-.12012l-7.12598,3.58105-1.28516-5.56836,9.51953-4.68701h6.1543v38.99854h-7.14258v-32.32422Z"/>
    </g>
  </symbol>
  <symbol id="G02" viewBox="0 0 100 100">
    <circle fill="#00b050" cx="50" cy="50" r="50"/>
    <path fill="#fff" d="M63.91406,38.46289c-2.17676.78027-6.36523,1.875-10.85156,1.875-5.68604,0-10.0249-1.4292-13.20605-4.49072-3.0083-2.86914-4.74463-7.29492-4.73047-12.37891.02881-10.68994,7.63184-17.50732,18.7832-17.50732,4.14648,0,7.37793.83936,8.94629,1.58545l-1.36523,4.95605c-1.83594-.81104-4.09473-1.43604-7.66309-1.43604-7.17285,0-12.24219,4.25391-12.24219,12.08496,0,7.67041,4.72168,12.18799,11.70117,12.18799,2.22852,0,3.86523-.29053,4.65332-.66992v-8.41309h-5.93457v-4.83691h11.90918v17.04346Z"/>
    <g>
      <path fill="#fff" d="M47.96777,65.23438c0,12.5625-4.90967,20.42578-14.25439,20.42578-8.9751,0-13.75439-8.18262-13.83203-20.04785,0-12.12988,5.15967-20.27051,14.271-20.27051,9.43262,0,13.81543,8.42285,13.81543,19.89258ZM27.29199,65.59766c-.01709,9.51367,2.58447,14.43164,6.65967,14.43164,4.37598,0,6.60547-5.28223,6.60547-14.625,0-9.08594-2.13477-14.40625-6.59863-14.40625-3.91211,0-6.67529,4.85156-6.6665,14.59961Z"/>
      <path fill="#fff" d="M52.59766,85v-4.48242l4.62402-4.30176c9.17383-8.48535,13.5-13.16309,13.55078-18.31543,0-3.52441-1.87207-6.56445-6.96973-6.56445-3.45117,0-6.37793,1.74902-8.32422,3.24902l-2.16504-5.24512c2.80176-2.23535,7.06738-3.99805,11.97266-3.99805,8.64551,0,12.87793,5.43457,12.87793,11.81348,0,6.85938-4.92676,12.36719-11.74609,18.66602l-3.375,2.95898v.11914h15.97949v6.10059h-26.4248Z"/>
    </g>
  </symbol>
  <symbol id="G03" viewBox="0 0 100 100">
    <circle fill="#00b050" cx="50" cy="50" r="50"/>
    <path fill="#fff" d="M63.91406,38.46289c-2.17676.78027-6.36523,1.875-10.85156,1.875-5.68604,0-10.0249-1.4292-13.20605-4.49072-3.0083-2.86914-4.74463-7.29492-4.73047-12.37891.02881-10.68994,7.63184-17.50732,18.7832-17.50732,4.14648,0,7.37793.83936,8.94629,1.58545l-1.36523,4.95605c-1.83594-.81104-4.09473-1.43604-7.66309-1.43604-7.17285,0-12.24219,4.25391-12.24219,12.08496,0,7.67041,4.72168,12.18799,11.70117,12.18799,2.22852,0,3.86523-.29053,4.65332-.66992v-8.41309h-5.93457v-4.83691h11.90918v17.04346Z"/>
    <g>
      <path fill="#fff" d="M47.96777,65.23438c0,12.5625-4.90967,20.42578-14.25439,20.42578-8.9751,0-13.75439-8.18262-13.83203-20.04785,0-12.12988,5.15967-20.27051,14.271-20.27051,9.43262,0,13.81543,8.42285,13.81543,19.89258ZM27.29199,65.59766c-.01709,9.51367,2.58447,14.43164,6.65967,14.43164,4.37598,0,6.60547-5.28223,6.60547-14.625,0-9.08594-2.13477-14.40625-6.59863-14.40625-3.91211,0-6.67529,4.85156-6.6665,14.59961Z"/>
      <path fill="#fff" d="M54.0625,77.375c1.54395.88965,5.17871,2.39355,8.88574,2.39355,5.63184,0,7.9082-3.17871,7.88965-6.24902-.03906-4.59277-4.36426-6.59668-8.86523-6.60547h-3.37109v-5.38281h3.28809c3.40723-.00879,7.71191-1.54688,7.71191-5.4248,0-2.69141-1.93457-4.89062-6.23828-4.89062-3.1582,0-6.35547,1.37402-7.97754,2.44238l-1.66992-5.3335c2.21875-1.51514,6.56055-2.98291,11.22852-2.98291,8.05957,0,12.16211,4.45312,12.16211,9.5459,0,4.06738-2.40039,7.40625-7.15918,9.10742v.12012c4.72949.875,8.54883,4.45117,8.54883,9.72461,0,6.58789-5.53809,11.82031-15.17578,11.82031-4.75391,0-8.8125-1.32617-10.91016-2.70215l1.65234-5.58301Z"/>
    </g>
  </symbol>
  <symbol id="G04" viewBox="0 0 100 100">
    <circle fill="#00b050" cx="50" cy="50" r="50"/>
    <path fill="#fff" d="M63.91406,38.46289c-2.17676.78027-6.36523,1.875-10.85156,1.875-5.68604,0-10.0249-1.4292-13.20605-4.49072-3.0083-2.86914-4.74463-7.29492-4.73047-12.37891.02881-10.68994,7.63184-17.50732,18.7832-17.50732,4.14648,0,7.37793.83936,8.94629,1.58545l-1.36523,4.95605c-1.83594-.81104-4.09473-1.43604-7.66309-1.43604-7.17285,0-12.24219,4.25391-12.24219,12.08496,0,7.67041,4.72168,12.18799,11.70117,12.18799,2.22852,0,3.86523-.29053,4.65332-.66992v-8.41309h-5.93457v-4.83691h11.90918v17.04346Z"/>
    <g>
      <path fill="#fff" d="M47.96777,65.23438c0,12.5625-4.90967,20.42578-14.25439,20.42578-8.9751,0-13.75439-8.18262-13.83203-20.04785,0-12.12988,5.15967-20.27051,14.271-20.27051,9.43262,0,13.81543,8.42285,13.81543,19.89258ZM27.29199,65.59766c-.01709,9.51367,2.58447,14.43164,6.65967,14.43164,4.37598,0,6.60547-5.28223,6.60547-14.625,0-9.08594-2.13477-14.40625-6.59863-14.40625-3.91211,0-6.67529,4.85156-6.6665,14.59961Z"/>
      <path fill="#fff" d="M68.83008,85v-9.91406h-17.6582v-4.80566l15.92285-24.27881h8.71484v23.4917h5.02148v5.59277h-5.02148v9.91406h-6.97949ZM68.83008,69.49316v-10.61523c0-2.20312.09863-4.44727.2334-6.74805l-.21191-.01953c-1.23438,2.44629-2.23828,4.44043-3.4502,6.59277l-7.13672,10.66992-.02539.12012h10.59082Z"/>
    </g>
  </symbol>
  <symbol id="G05" viewBox="0 0 100 100">
    <circle fill="#00b050" cx="50" cy="50" r="50"/>
    <path fill="#fff" d="M63.91406,38.46289c-2.17676.78027-6.36523,1.875-10.85156,1.875-5.68604,0-10.0249-1.4292-13.20605-4.49072-3.0083-2.86914-4.74463-7.29492-4.73047-12.37891.02881-10.68994,7.63184-17.50732,18.7832-17.50732,4.14648,0,7.37793.83936,8.94629,1.58545l-1.36523,4.95605c-1.83594-.81104-4.09473-1.43604-7.66309-1.43604-7.17285,0-12.24219,4.25391-12.24219,12.08496,0,7.67041,4.72168,12.18799,11.70117,12.18799,2.22852,0,3.86523-.29053,4.65332-.66992v-8.41309h-5.93457v-4.83691h11.90918v17.04346Z"/>
    <g>
      <path fill="#fff" d="M47.96777,65.23438c0,12.5625-4.90967,20.42578-14.25439,20.42578-8.9751,0-13.75439-8.18262-13.83203-20.04785,0-12.12988,5.15967-20.27051,14.271-20.27051,9.43262,0,13.81543,8.42285,13.81543,19.89258ZM27.29199,65.59766c-.01709,9.51367,2.58447,14.43164,6.65967,14.43164,4.37598,0,6.60547-5.28223,6.60547-14.625,0-9.08594-2.13477-14.40625-6.59863-14.40625-3.91211,0-6.67529,4.85156-6.6665,14.59961Z"/>
      <path fill="#fff" d="M77.38086,52.12402h-15.00195l-1.13672,7.7959c.87402-.10938,1.65234-.16797,2.8125-.16797,3.41211.00879,6.84277.77246,9.44434,2.49902,2.97266,1.86719,5.10156,5.18262,5.10156,9.90137,0,7.42969-6.14648,13.50781-15.73633,13.50781-4.52539,0-8.29883-1.13867-10.35254-2.29785l1.51562-5.58301c1.66797.90039,5.04785,2.05762,8.58789,2.05762,4.30859,0,8.4541-2.4707,8.43457-7.1084-.01953-4.4541-3.29492-7.42676-11.07031-7.42676-2.19531,0-3.80957.16699-5.33008.37695l2.52832-19.67725h20.20312v6.12256Z"/>
    </g>
  </symbol>
  <symbol id="G06" viewBox="0 0 100 100">
    <circle fill="#00b050" cx="50" cy="50" r="50"/>
    <path fill="#fff" d="M63.91406,38.46289c-2.17676.78027-6.36523,1.875-10.85156,1.875-5.68604,0-10.0249-1.4292-13.20605-4.49072-3.0083-2.86914-4.74463-7.29492-4.73047-12.37891.02881-10.68994,7.63184-17.50732,18.7832-17.50732,4.14648,0,7.37793.83936,8.94629,1.58545l-1.36523,4.95605c-1.83594-.81104-4.09473-1.43604-7.66309-1.43604-7.17285,0-12.24219,4.25391-12.24219,12.08496,0,7.67041,4.72168,12.18799,11.70117,12.18799,2.22852,0,3.86523-.29053,4.65332-.66992v-8.41309h-5.93457v-4.83691h11.90918v17.04346Z"/>
    <g>
      <path fill="#fff" d="M47.96777,65.23438c0,12.5625-4.90967,20.42578-14.25439,20.42578-8.9751,0-13.75439-8.18262-13.83203-20.04785,0-12.12988,5.15967-20.27051,14.271-20.27051,9.43262,0,13.81543,8.42285,13.81543,19.89258ZM27.29199,65.59766c-.01709,9.51367,2.58447,14.43164,6.65967,14.43164,4.37598,0,6.60547-5.28223,6.60547-14.625,0-9.08594-2.13477-14.40625-6.59863-14.40625-3.91211,0-6.67529,4.85156-6.6665,14.59961Z"/>
      <path fill="#fff" d="M76.32129,51.24414c-1.07812-.04199-2.27344.00684-3.75684.18359-8.18848.9541-12.11914,5.95215-13.08105,11.36523h.16309c1.91113-2.19043,4.85742-3.74609,8.78613-3.74609,6.72363,0,11.94922,4.7959,11.94922,12.67871,0,7.47754-5.45898,13.93457-13.75391,13.93457-9.46191,0-14.71094-7.18262-14.71094-16.82715,0-7.50098,2.70898-13.5957,6.77148-17.47559,3.58203-3.38818,8.31152-5.32129,13.875-5.76221,1.62402-.18701,2.82715-.1875,3.73828-.15137l.01953,5.80029ZM72.88574,72.13574c-.00879-4.50488-2.48535-7.71777-6.79492-7.71777-2.78223,0-5.25488,1.69727-6.38281,4.04785-.28516.56348-.47266,1.29199-.47266,2.31836.13477,5.15527,2.55469,9.3623,7.33691,9.3623,3.82031,0,6.31348-3.31836,6.31348-8.01074Z"/>
    </g>
  </symbol>
  <symbol id="G07" viewBox="0 0 100 100">
    <circle fill="#00b050" cx="50" cy="50" r="50"/>
    <path fill="#fff" d="M63.91406,38.46289c-2.17676.78027-6.36523,1.875-10.85156,1.875-5.68604,0-10.0249-1.4292-13.20605-4.49072-3.0083-2.86914-4.74463-7.29492-4.73047-12.37891.02881-10.68994,7.63184-17.50732,18.7832-17.50732,4.14648,0,7.37793.83936,8.94629,1.58545l-1.36523,4.95605c-1.83594-.81104-4.09473-1.43604-7.66309-1.43604-7.17285,0-12.24219,4.25391-12.24219,12.08496,0,7.67041,4.72168,12.18799,11.70117,12.18799,2.22852,0,3.86523-.29053,4.65332-.66992v-8.41309h-5.93457v-4.83691h11.90918v17.04346Z"/>
    <g>
      <path fill="#fff" d="M47.96777,65.23438c0,12.5625-4.90967,20.42578-14.25439,20.42578-8.9751,0-13.75439-8.18262-13.83203-20.04785,0-12.12988,5.15967-20.27051,14.271-20.27051,9.43262,0,13.81543,8.42285,13.81543,19.89258ZM27.29199,65.59766c-.01709,9.51367,2.58447,14.43164,6.65967,14.43164,4.37598,0,6.60547-5.28223,6.60547-14.625,0-9.08594-2.13477-14.40625-6.59863-14.40625-3.91211,0-6.67529,4.85156-6.6665,14.59961Z"/>
      <path fill="#fff" d="M79.38086,46.00146v4.72266l-16.48926,34.27588h-7.76367l16.43652-32.77734v-.12012h-18.41016v-6.10107h26.22656Z"/>
    </g>
  </symbol>
  <symbol id="G08" viewBox="0 0 100 100">
    <circle fill="#00b050" cx="50" cy="50" r="50"/>
    <path fill="#fff" d="M63.91406,38.46289c-2.17676.78027-6.36523,1.875-10.85156,1.875-5.68604,0-10.0249-1.4292-13.20605-4.49072-3.0083-2.86914-4.74463-7.29492-4.73047-12.37891.02881-10.68994,7.63184-17.50732,18.7832-17.50732,4.14648,0,7.37793.83936,8.94629,1.58545l-1.36523,4.95605c-1.83594-.81104-4.09473-1.43604-7.66309-1.43604-7.17285,0-12.24219,4.25391-12.24219,12.08496,0,7.67041,4.72168,12.18799,11.70117,12.18799,2.22852,0,3.86523-.29053,4.65332-.66992v-8.41309h-5.93457v-4.83691h11.90918v17.04346Z"/>
    <g>
      <path fill="#fff" d="M47.96777,65.23438c0,12.5625-4.90967,20.42578-14.25439,20.42578-8.9751,0-13.75439-8.18262-13.83203-20.04785,0-12.12988,5.15967-20.27051,14.271-20.27051,9.43262,0,13.81543,8.42285,13.81543,19.89258ZM27.29199,65.59766c-.01709,9.51367,2.58447,14.43164,6.65967,14.43164,4.37598,0,6.60547-5.28223,6.60547-14.625,0-9.08594-2.13477-14.40625-6.59863-14.40625-3.91211,0-6.67529,4.85156-6.6665,14.59961Z"/>
      <path fill="#fff" d="M52.06348,74.9541c0-4.81152,2.80566-8.13867,7.28906-10.1123l-.00684-.15918c-4.04395-1.98047-5.9082-5.23535-5.9082-8.64453,0-6.40283,5.62598-10.69629,13.00977-10.69629,8.41699,0,12.20996,5.03027,12.20996,9.81641,0,3.34473-1.74121,6.76562-6.00781,8.83887v.16504c4.26074,1.66504,7.47363,4.98535,7.47363,9.87207,0,6.95996-5.87695,11.62598-14.23047,11.62598-9.10547,0-13.8291-5.2373-13.8291-10.70605ZM72.60352,74.64355c0-3.9834-2.89648-6.13574-7.23926-7.3291-3.68652,1.03711-5.7627,3.58887-5.7627,6.79883-.09668,3.33105,2.42676,6.35156,6.55762,6.35156,3.89648,0,6.44434-2.4834,6.44434-5.82129ZM60.43945,55.70312c-.01855,3.20996,2.61523,5.10352,6.36719,6.16504,2.65625-.8252,4.84375-2.98047,4.84375-5.92383,0-2.70996-1.59863-5.51221-5.58887-5.51221-3.67676,0-5.62207,2.44482-5.62207,5.271Z"/>
    </g>
  </symbol>
  <symbol id="G09" viewBox="0 0 100 100">
    <circle fill="#00b050" cx="50" cy="50" r="50"/>
    <path fill="#fff" d="M63.91406,38.46289c-2.17676.78027-6.36523,1.875-10.85156,1.875-5.68604,0-10.0249-1.4292-13.20605-4.49072-3.0083-2.86914-4.74463-7.29492-4.73047-12.37891.02881-10.68994,7.63184-17.50732,18.7832-17.50732,4.14648,0,7.37793.83936,8.94629,1.58545l-1.36523,4.95605c-1.83594-.81104-4.09473-1.43604-7.66309-1.43604-7.17285,0-12.24219,4.25391-12.24219,12.08496,0,7.67041,4.72168,12.18799,11.70117,12.18799,2.22852,0,3.86523-.29053,4.65332-.66992v-8.41309h-5.93457v-4.83691h11.90918v17.04346Z"/>
    <g>
      <path fill="#fff" d="M47.96777,65.23438c0,12.5625-4.90967,20.42578-14.25439,20.42578-8.9751,0-13.75439-8.18262-13.83203-20.04785,0-12.12988,5.15967-20.27051,14.271-20.27051,9.43262,0,13.81543,8.42285,13.81543,19.89258ZM27.29199,65.59766c-.01709,9.51367,2.58447,14.43164,6.65967,14.43164,4.37598,0,6.60547-5.28223,6.60547-14.625,0-9.08594-2.13477-14.40625-6.59863-14.40625-3.91211,0-6.67529,4.85156-6.6665,14.59961Z"/>
      <path fill="#fff" d="M55.56055,79.70605c1.16113.11621,2.29395.05566,4.08789-.10156,2.90234-.25391,5.75684-1.2627,7.90723-3.00391,2.55762-2.01562,4.30957-4.96094,5.00781-8.64844l-.14746-.03223c-1.94824,2.18164-4.74219,3.43555-8.4668,3.43555-6.78125,0-11.84863-4.89551-11.84863-12.06543,0-7.4873,5.77832-13.94824,14.08301-13.94824,9.08984,0,13.91211,7.13379,13.91211,16.6416,0,8.32422-2.71387,14.26855-6.78516,18.1123-3.38867,3.15625-8.07227,4.98633-13.30957,5.32812-1.67285.19336-3.3252.2041-4.44043.13379v-5.85156ZM59.44727,58.8418c.00879,4.0332,2.33691,7.16016,6.4209,7.16016,2.96387,0,5.1543-1.43066,6.25684-3.24512.27344-.51855.44336-1.11816.44336-2.12891.02539-5.28906-1.95898-9.79834-6.73047-9.79834-3.73145,0-6.40723,3.30127-6.39062,8.01221Z"/>
    </g>
  </symbol>
  <symbol id="G10" viewBox="0 0 100 100">
    <circle fill="#00b050" cx="50" cy="50" r="50"/>
    <path fill="#fff" d="M63.91406,38.46289c-2.17676.78027-6.36523,1.875-10.85156,1.875-5.68604,0-10.0249-1.4292-13.20605-4.49072-3.0083-2.86914-4.74463-7.29492-4.73047-12.37891.02881-10.68994,7.63184-17.50732,18.7832-17.50732,4.14648,0,7.37793.83936,8.94629,1.58545l-1.36523,4.95605c-1.83594-.81104-4.09473-1.43604-7.66309-1.43604-7.17285,0-12.24219,4.25391-12.24219,12.08496,0,7.67041,4.72168,12.18799,11.70117,12.18799,2.22852,0,3.86523-.29053,4.65332-.66992v-8.41309h-5.93457v-4.83691h11.90918v17.04346Z"/>
    <g>
      <path fill="#fff" d="M31.99121,52.67578h-.12012l-7.12598,3.58105-1.28516-5.56836,9.52002-4.68701h6.1543v38.99854h-7.14307v-32.32422Z"/>
      <path fill="#fff" d="M80.12793,65.23438c0,12.5625-4.91016,20.42578-14.25488,20.42578-8.97461,0-13.75391-8.18262-13.83203-20.04785,0-12.12988,5.16016-20.27051,14.27148-20.27051,9.43262,0,13.81543,8.42285,13.81543,19.89258ZM59.45215,65.59766c-.01758,9.51367,2.58398,14.43164,6.65918,14.43164,4.37598,0,6.60547-5.28223,6.60547-14.625,0-9.08594-2.13477-14.40625-6.59863-14.40625-3.91211,0-6.6748,4.85156-6.66602,14.59961Z"/>
    </g>
  </symbol>
</svg>