<?xml version="1.0" encoding="utf-8"?>
<!-- Generator: Adobe Illustrator 27.9.0, SVG Export Plug-In . SVG Version: 6.00 Build 0)  -->
<svg version="1.1" id="图层_1" xmlns="http://www.w3.org/2000/svg" xmlns:xlink="http://www.w3.org/1999/xlink" x="0px" y="0px"
	 viewBox="0 0 100 100" style="enable-background:new 0 0 100 100;" xml:space="preserve">
<style type="text/css">
	.st0{fill:#E60012;}
</style>
<g>
	<path class="st0" d="M37.8,46.5c0-2.5,1.9-4.7,4.5-4.9c2.5-0.2,5.1-0.3,7.7-0.3s5.2,0.1,7.7,0.3c2.5,0.2,4.5,2.3,4.5,4.9l0,6.3
		l-6.9,2c-1.5,0.4-2.5,1.8-2.5,3.3v19.8c0,2.3,1.6,4.3,3.9,4.8l14.8,3c0.7,0.1,1.1,0.7,1.1,1.4v3H27.4v-3c0-0.7,0.5-1.2,1.1-1.4
		l14.8-3c2.3-0.5,3.9-2.5,3.9-4.8V58.1c0-1.6-1-2.9-2.5-3.3l-6.9-2L37.8,46.5z"/>
	<path class="st0" d="M56.9,14.2c0.3-1.9-1.1-3.8-3-4c-2.6-0.3-5.2-0.3-7.8,0c-1.9,0.2-3.3,2-3,4c-31.4,6.4-38,48.7-10.1,64.4
		l4.9-6.4C13.4,59.5,21.5,22.5,49.4,21.5C78,21.2,87.1,59.2,62.1,72.1l4.9,6.4C94.9,62.9,88.3,20.6,56.9,14.2z"/>
</g>
</svg>
