<svg version="1.1" viewBox="0 0 100 100" xmlns="http://www.w3.org/2000/svg">
  <circle fill="#000" cx="50" cy="50" r="40"/>
  <circle fill="#fff" cx="50" cy="50" r="39"/>
  <path fill="#094" d="M85.59939,55.37073c.26218-1.75241.40061-3.54529.40061-5.37073,0-15.45807-9.74487-28.63648-23.42483-33.73778.01028,2.9025.02483,8.85819.02483,19.33778,0,10.66711,12.29067,19.55351,22.99939,19.77073Z"/>
  <path fill="#00a0e9" d="M77.60935,73.09559c2.09417-2.5008,3.84952-5.29189,5.20849-8.30175-12.01012-3.16608-23.81783-11.69376-23.81783-25.59384V15.13427c-1.17756-.30309-2.37902-.54628-3.6-.72993v28.39566c0,14.86283,8.1454,24.71251,22.20935,30.29559Z"/>
  <path fill="#00a0e9" d="M51.8,14.04553c-.59643-.02936-1.19632-.04553-1.8-.04553s-1.20357.01617-1.8.04553v31.95447c0,12.55403-6.69208,26.6738-15.12141,35.77708,5.04505,2.69218,10.8036,4.22292,16.92141,4.22292s11.87635-1.53075,16.92141-4.22292c-8.42933-9.10327-15.12141-23.22304-15.12141-35.77708V14.04553Z"/>
  <path fill="#00a0e9" d="M44.6,42.8V14.40434c-1.22098.18365-2.42244.42684-3.6.72993v24.06573c0,13.90012-11.80767,22.42775-23.81783,25.59384,1.35896,3.00986,3.11427,5.80096,5.20849,8.30175,14.06399-5.58308,22.20935-15.43276,22.20935-30.29559Z"/>
  <path fill="#094" d="M37.4,35.6c0-10.47959.01455-16.43528.02483-19.33778-13.67996,5.1013-23.42483,18.27971-23.42483,33.73778,0,1.82544.13843,3.61833.40061,5.37073,10.70873-.21722,22.99939-9.10362,22.99939-19.77073Z"/>
</svg>