<?xml version="1.0" encoding="UTF-8"?>
<svg id="_图层_1" data-name="图层_1" xmlns="http://www.w3.org/2000/svg" version="1.1" viewBox="0 0 100 100">
  <!-- Generator: Adobe Illustrator 29.8.3, SVG Export Plug-In . SVG Version: 2.1.1 Build 3)  -->
  <defs>
    <style>
      .st0 {
        fill: #007bc6;
      }

      .st1 {
        fill: #00994b;
      }
    </style>
  </defs>
  <path class="st0" d="M45.68015,41.26528l2.40161-.71961c-.01923-.15544-.01442-.28128-.00802-.68674.0024-2.24295-.7172-4.11248-2.19887-5.63822-.1819-.1883-.22517-.31253-.28527-.46797l-1.0177.82697c1.15233.75409,1.59787,3.43855,1.10825,6.68558"/>
  <path class="st0" d="M89.91426,42.09049c-4.41538,1.36786-8.38521,2.20285-12.24766,2.61477.14024-.17788.26685-.39666.37022-.67075.38705-1.19956,1.24929-2.3439,2.3311-3.23098l.66511-.35978-.53369-.63465-.50644.46474c-1.44802.8927-2.34071,1.63554-2.89283,2.38641-.03045.04245-.09696.05527-.11139.05527s-.02965-.10736-.02805-.27883c.03767-1.95527.28608-3.49143.93917-5.9331l.93516-3.48746c.16668-.62585.24521-.86062.45276-1.35984-.51607.06251-.69316.06251-1.22525.06251h-8.49097c-.54571,0-.7765-.01682-1.20602-.06251-.04487.4375-.10097.76607-.21316,1.17315l-.04808.18669-1.00167,3.73827c-.96321,3.59321-1.91841,5.85216-3.30792,7.77299-1.50812-.17153-3.05791-.38306-4.66459-.63226,2.34471-1.06902,3.66852-2.73337,4.36889-5.34173.98805-3.69098-.73563-5.99082-4.50432-5.99082-3.94499,0-7.45244,2.81588-8.53425,6.85226-.31573,1.17555-.27166,2.23973.05449,3.01221-3.37042-.50323-6.68636-.76446-10.0055-.77488.29088-.39827.58577-.85264.88146-1.36947.22198-.3903.26845-.45276.55773-.76691l-.69876-.4688c-.16828.4688-.40547.86067-.87506,1.45365-.54812.70357-.96482,1.06579-1.3134,1.16195-.11459.00401-.23078.00401-.34538.00641-.41589-.10418-.6595-.62746-.7228-1.55861-.11139-1.34463.15866-2.68207.9616-5.67026l.17469-.65632c.10096-.37582.25963-.86062.39426-1.14268l-2.05864-.11059c-.03846.29889-.09456.56413-.20755.98641l-.19232.72044c-1.04014,3.87928-1.30939,5.37216-1.05857,7.0774.02244.16668.04968.32373.08494.47359-1.36228.08975-2.73177.22518-4.10766.40307.28608-.47839.51286-1.00568.66992-1.58747.34217-1.28374.20995-2.31744-.4159-3.11316-.80534-1.01693-2.0987-1.45604-4.36649-1.45604-.25242,0-.32374,0-.45997.01604.13142-.43676.37743-1.14273.56815-1.62752h4.62292c.29329,0,.50484.03282.79413.11059l.27246-1.01693c-.32615.06251-.6002.09376-.85022.09376h-4.54679c.27646-.81254.68434-1.73566.91913-2.11153l-2.02338-.14179c-.00881.14179-.02564.20513-.05609.3141-.04087.15627-.10978.359-.18591.53209-.0601.17148-.06892.20273-.24762.64106-.07132.21877-.15946.43833-.23719.67231l-.04167.09376h-3.45697c-.25082,0-.50725-.03125-.79894-.09376l-.27486,1.01693c.33256-.07777.57616-.11059.85583-.11059h3.38485l-.0593.17309c-.42471,1.25165-.46798,1.36067-.58418,1.73649-1.03613.29727-1.66518.56413-2.41123,1.03371-1.5554.96881-2.65644,2.39198-3.07714,3.95622-.43593,1.6307-.03526,2.85438.9608,3.21655-3.52589,1.03136-7.15195,2.34234-10.93827,3.95861l.10417.30451c12.94883-3.93137,22.11534-3.27265,36.18844-.6595,14.40085,2.67488,27.63655,1.14111,43.70739-5.80007l-.08574-.25242ZM26.66864,38.49004c.15626-.57694.34538-1.23404.50564-1.71967.10738-.01599.2981-.01599.43112-.01599.64828,0,1.1379.09533,1.65316.31332-1.01449,1.31577-2.12034,2.58112-3.03707,3.53628.0601-.50084.20835-1.2204.44715-2.11393M21.71236,41.38531c.50084-1.86312,1.71406-3.31755,3.46178-4.12931l-.03446.12663c-.21476.68513-.24681.81176-.3598,1.23566-.42791,1.59544-.6571,2.9385-.66351,3.9546-1.01209.81577-1.56261,1.11148-2.00415,1.11148-.58898,0-.75246-.98407-.39987-2.29905M30.68735,40.63523c-.18912.70362-.50164,1.33426-.92314,1.88078-2.03299.33176-4.08923.76769-6.17672,1.29895.20114-.14424.41109-.30529.63787-.4888,1.81102-1.48647,3.53711-3.31755,5.60696-5.92909,1.03213.76446,1.27413,1.6732.85503,3.23817M52.78986,42.80125c-.19713-.03443-.39426-.0697-.59059-.10173-.36301-.45036-.359-1.72691.05128-3.25426.49283-1.8463,1.28294-3.31594,2.37517-4.36486.83339-.79655,1.51133-1.18841,2.89363-1.62513-.08575.31253-.55693,1.7517-.82458,2.4697-.61222,1.73811-1.31981,3.33198-2.00976,4.53878-.69396,1.2405-1.40074,2.10033-1.89516,2.3375M57.53699,43.63946c-1.12588-.18591-2.28461-.39025-3.4738-.60663.66591-.46396,1.33984-1.16435,1.99373-2.08586,1.30779-1.86072,2.3928-4.31683,3.36643-7.61672,1.13309.21794,1.76534.71878,2.10752,1.68763.31012.87744.28127,2.08106-.07613,3.42652-.58497,2.17399-1.90878,4.03472-3.58198,5.00675-.117.06891-.22838.13059-.33577.1883M72.74479,44.48086l-.10738.52407c-1.70525.02485-3.41851-.0248-5.17023-.14262,1.6219-.33014,3.79754-.86306,5.36656-1.319-.03205.45354-.07292.76769-.08895.93755M70.82558,39.83712h-.72281l.65469-2.44006h.72121l-.65309,2.44006ZM75.05905,43.5906c.07052.55694.20674.99683.39105,1.30457-.81577.05287-1.62993.08814-2.44408.10574l1.8575-.78368-.21235-.42312c-.18511-.73404-.45115-1.5009-.89189-2.48653l-.08494-.3454-.8422.39187.07773.31253c.01282.34374-.00561.73399-.01122,1.03371l-1.25169.10819.58338-2.17326h1.47206c.33896,0,.46718.01443.9544.06172.0601-.43833.10497-.71878.20114-1.07939l.03446-.12501.04568-.17231.37663-1.40714c.17148-.64267.24521-.86062.45676-1.3775-.51687.06329-.69396.06329-1.22364.06329h-1.23646l.42391-1.58101c1.00648-.07694,1.06658-.07694,1.7974-.1707l.66832-.01604-.51125-1.93844-.6627.32618c-1.99533.64267-3.63167,1.081-4.69985,1.2204l-.59299.01682.01763.81337.47038-.04725c.60582-.01526.78692-.03125,1.22284-.06334l.5978-.03042-.39346,1.47042h-1.19319c-.54411,0-.7773-.01599-1.20521-.06329-.0593.54813-.09857.75003-.26604,1.3775l-.37823,1.40714c-.16748.62585-.24841.87666-.47118,1.37671.44153-.0473.6635-.06172,1.03373-.06172h1.39673l-.60982,2.28223-.24201.01604c-.62905.04646-1.16835.07772-2.26618.10897l-.71079-.03125-.04808,1.79499c-.66351-.05209-1.33663-.1146-2.01296-.18512,1.97851-1.9336,3.36001-4.49149,4.26953-7.88196l1.13229-4.22385h7.02053l-1.077,4.02034c-.90471,3.37923-1.18839,5.42825-.9624,7.05499M72.41383,39.83712l.65309-2.44006h.75165l-.65389,2.44006h-.75085Z"/>
  <path class="st1" d="M76.11361,54.85228c-.12501.37421-.28688.80212-.40548,1.05934l-.03286.07855h-1.20601c-.47279,0-.68114-.01281-1.02332-.05287-.05529.42708-.0633.56574-.20674,1.0946l-1.2565,4.92986c-.12821.47917-.19953.69794-.3566,1.06017.41029-.03766.53529-.05052.81577-.05052h4.74151c.29249,0,.39907.01286.79092.05052.03767-.37426.08815-.60585.20915-1.06017l1.25811-4.92986c.12741-.4776.19231-.73242.35098-1.0946-.4143.05287-.55934.05287-1.01049.05287h-2.29183c.4191-.33577.98805-.82697,1.31339-1.13789h2.17724c.20835,0,.363.01203.49202.02563l.16428.02646.12981.01281.2412-.83421c-.35419.05047-.54171.06412-.82057.06412h-1.56822c.50244-.33577.86064-.58178,1.24928-.85343.04808-.03688.10978-.08975.13863-.10256l.64348-.45276-1.60508-.77571-.25403.54251c-.20915.41348-.67393,1.15153-1.02491,1.64195h-1.92161l1.22846-.7244-.40788-.33415c-.14985-.13064-.20834-.18111-.36461-.32457-.11379-.11538-.2444-.22039-.37343-.33738-.11619-.10173-.12421-.11376-.25242-.23076l-.14744-.21956-.58098.34858.12742.29649c.07693.43994.10898.81577.12821,1.3839v.14184h-1.08421c-.26765,0-.43433-.01365-.79813-.06412l-.2404.83421c.40307-.05287.52728-.0649.83098-.0649h2.20289ZM74.38112,58.83011h2.94572l-.33816,1.33421h-2.94492l.33737-1.33421ZM73.52208,62.23018l.33496-1.32541h2.94492l-.33736,1.32541h-2.94252ZM77.85732,56.729l-.34297,1.35906h-2.94413l.34217-1.35906h2.94492ZM70.11639,53.52046l-.22196-.34941.60821-.45036.3005.29649c.48962.38869.96401.80295,1.39754,1.26774l.41669.3478-1.81023,1.39593-.1234-.58261c-.09296-.55532-.24361-1.0858-.56735-1.92558M38.31368,52.51957c-.20434-.12022-.359-.1122-.51286-.13142l.62424-.95198c.09456.06168.15626.0673.43352.16346.78852.27086,1.1347.39749,1.70845.69799.03446.01839.3566.17788.48081.22596l-1.13389,1.46485c-.4199-.56574-.88628-1.04496-1.60027-1.46886M83.52679,62.51708c-1.43279.44552-2.80949.82134-4.14692,1.1371-1.98732.43192-3.47621.43349-4.62613.43349-2.91286,0-3.93858-.71399-4.26472-1.58262l1.14591-4.32641c.14264-.52808.23639-.80056.41189-1.22685-.42792.04886-.6579.0585-1.09623.0585h-1.39833c-.26765,0-.44634-.01365-.78371-.06412l-.24521.87989c.38864-.05131.52648-.06412.81896-.06412h.75406l-1.28375,4.84408c-.39746.16111-.66912.25003-1.16674.31014l-.67793.08496.58097,1.60669.61703-.40708c.7148-.40713.95199-.55615,1.66598-1.10345.14024.75727.62985,1.40714,1.24528,1.79577-3.54272.20674-7.05258.00161-10.90381-.50084,1.7357-1.06095,2.97377-2.91845,3.83521-4.46586-.20114,1.60268.17228,3.05794.76207,4.02596l.30772.43989,1.40234-1.73248-.34458-.25643c-.94958-.90708-1.40715-2.11633-1.28775-3.65488h1.52094c.31573,0,.37262.01203.77329.0649l.2356-.87666c-.36781.05126-.52809.06251-.80775.06251h-1.59466l.62504-2.3263h1.19079c.31573,0,.37182.0112.78771.06329l.2356-.87583c-.4175.05209-.51767.0649-.82137.0649h-1.1948l.51446-1.91521c.07373-.27086.10898-.36061.3021-.85181h-1.7325l-.01923.11699-.03205.25883c-.02965.15465-.0585.31092-.10418.47599l-.51125,1.91521h-.87988c.2396-.40067.52408-.95922.73643-1.43443l.26925-.50563-1.59146-.29649-.14104.56897c-.32054,1.24206-.80214,2.60753-1.40795,3.73104l-.31092.38942.49203.29488.27245-.42547c.42471-.45198.85663-.92958,1.2597-1.57465h1.09864l-.62344,2.3263h-1.60348c-.25563,0-.4207-.01125-.77329-.06251l-.23559.87666c.39025-.05287.52888-.0649.80694-.0649h1.53055c-.71159,1.90797-2.20608,4.41137-3.82318,5.52519-.98485-.13861-1.99373-.29405-3.03066-.46635,1.0778-.35577,2.25176-.78691,3.10278-1.16435l.48161-.16668.00561-.60663-.50484.15387c-.40868.11621-.86865.20757-1.35266.28451q-.0633.0136-.10017.0136l.96561-3.71822h.70037c.20835,0,.37423.01365.50404.02485l.16347.02406.13142.01443.23639-.88551c-.39506.06412-.54411.07855-.8374.07855h-.69797l.359-1.33905h.35259c.31653,0,.14104.01443.88388.06573l.10257-.37905,1.15392-1.61549-.43673-.2332c-.54331-.42468-.84701-.81577-1.16835-1.42318l.359-.47917-1.55059-.43916-.27406.62023c-.70357,1.35588-1.68441,2.55872-2.68448,3.49148l-.40628.22596.28688.53449.38944-.32373c.2949-.19476.39666-.25805.65469-.43672l-.12421.45755c.40307-.05131.52969-.06573.83419-.06573h.15706l-.3598,1.33905h-1.01049c-.27887,0-.38465-.01443-.76768-.07855l-.23719.88551c.37663-.04969.52808-.06334.80614-.06334h1.01049l-1.01129,3.88652c-.29088.03927-1.00648.07694-1.22925.09053l-.71239.02563.01202.88952c-.56013-.09938-1.12508-.20195-1.70044-.30935-1.48408-.27326-2.95133-.49521-4.40816-.66351.32214-.36056.56254-.80931.70919-1.35666l.1226-.42869c.24521.10657.49923.21877.76608.34697,1.16674.55532,2.10992,1.24691,2.3367,1.49292l1.30217-1.81988c-.20354-.0649-.39265-.11777-.5441-.17387-.48401-.17788-1.69964-.54891-2.92088-.86624-.21957-.0585-.4199-.10897-.60902-.15544l.60421-2.14841h2.79747c.21877,0,.38545.02646.66191.07933l.2412-.91031c-.27967.05126-.50644.07772-.70037.07772h-2.80067l.58337-2.13795h2.71493c.22037,0,.38384.02401.6595.0761l.24601-.92073c-.25963.06329-.49763.08975-.70437.08975h-2.71333l.26685-1.01209c.0577-.22117.14504-.45198.26765-.72602h-1.90959c-.02965.29811-.0593.49282-.1218.72602l-.26524,1.01209h-3.36883c-.21876,0-.44394-.02646-.6555-.08975l-.25402.94797c.27806-.07933.45275-.10335.70838-.10335h3.36963l-.58578,2.13795h-3.46498c-.19473,0-.4175-.02646-.6595-.07772l-.24281.91031c.29409-.05287.50564-.07933.70277-.07933h3.46579l-.51606,1.83265c-.38545-.04167-.76528-.0585-1.20841-.0585-1.95607,0-3.69337.79816-4.07401,2.22613-.07212.26602-.07292.51287-.01682.73961-2.27099-.02724-4.54359.08735-6.83782.34941.0032-.04891.00561-.09777.00801-.14585.16347-1.92401.33496-4.29438.44715-6.47884l1.5538-.34858c.74925-.16908,1.40956-.27165,1.76214-.27165.90712,0,1.76855.21956,1.45603,1.38552-.18831.70518-.70277,1.49532-1.54418,1.49532-.32774,0-.63546-.03927-.83339-.11621-.18751-.06573-.32535-.14345-.42952-.25966l-.44314.83582c.2949.03688.33897.05047.48241.10256.363.14345.81816.21877,1.3775.21877,1.4352,0,2.7542-1.01048,3.12362-2.3936.35018-1.30619-.7765-2.23014-2.18525-2.23014-.37583,0-1.08902.11699-1.98011.31014l-2.31747.51688c.03286-.84061.04889-2.00256.0585-2.49538-.01202-.31972.01122-.4888.03926-.68435l-1.8591.42713c.02485.1819.03687.27165.02885.56975.0016.21794-.03286,1.85989-.05689,2.54424l-2.17964.51928c-.15466.03766-.32935.04886-.51286.04886l-.01362.89911c.19873-.10496.26524-.12902.51125-.18273l2.17884-.51605c-.07292,1.81666-.31733,5.19989-.44795,6.47884-1.09463.16184-2.19486.35738-3.30472.58574v-.00318c-2.40722.46156-3.0563.57293-4.66619.58178-1.57623.0088-4.2503.00157-4.2503-1.88797,0-1.55783.82378-2.43449,2.47133-3.12524,2.0378-.85499,4.22065-1.48647,5.65504-1.577l.02885-.96323c-.27806.13064-.49683.22039-.64909.24602-1.22525.25722-2.33029.56814-3.54031.95599-.1803-1.09944-.2404-4.15572-.08574-5.13978l-1.85991.49203c.07292.27086.10738.50402.09376.69716-.04087,1.19081.05449,3.57638.21316,4.53154l-.0577.02724-.17469.06334c-.1787.07933-.26204.11777-.26204.11777l-.03927.01365c-2.76702,1.21243-3.74465,2.45209-3.74465,4.3248,0,1.70123,1.27092,2.48095,3.00502,2.79588-2.06665.69638-4.17738,1.50412-6.3474,2.43287l.08574.25404c10.87656-3.30312,18.57582-2.7478,30.39716-.55293,12.09941,2.24613,23.21557.95761,36.71893-4.87137l-.07694-.21393ZM57.56584,55.76337c.79894-.61861,1.6155-1.35505,2.24775-2.16998.08173.738.31492,1.50329.70678,2.12513l-.04968.00802c-.30451.03683-.46478.05209-.73162.05209h-1.75172c-.18191,0-.29329,0-.4215-.01526M56.43996,61.55625l-1.58264.46557.19072-.53126c.14744-.59381.25402-1.17638.36942-1.92401v-.36301l.6563-.16747.00561.34775c.11219.58256.20033,1.21644.26204,1.74451l.09857.42791ZM59.54594,58.85897l1.30137.45193-.37343.43916c-.33576.53126-.87667,1.22925-1.28534,1.66836l-.23159.36139-.57536-.20752.21235-.33493c.26524-.54334.45276-.96885.77008-1.78462l.18191-.59377ZM47.3055,61.10271c-.33176,1.24128-.92554,1.79582-2.00815,1.79582-1.18037,0-1.77897-.58017-1.53697-1.4849.24201-.9063,1.15874-1.46084,2.38719-1.46084.42791,0,.8999.07454,1.42238.21476l-.26444.93516Z"/>
</svg>