<svg version="1.1" viewBox="0 0 370 370" xmlns="http://www.w3.org/2000/svg">
  <path fill="#13add8" d="M231.25,186.25v-18.75h31.95871c3.37386,0,5.03167-4.1075,2.60301-6.44942l-28.31172-27.30058h17.59995c3.18253,0,4.9183-3.71459,2.87654-6.15583l-23.60149-28.21917h11.91217c2.96045,0,4.75352-3.26951,3.1621-5.76584l-25.03717-39.274c-1.47404-2.31221-4.85017-2.31221-6.3242,0l-25.03717,39.274c-1.59141,2.49633.20165,5.76584,3.1621,5.76584h11.91217l-23.60149,28.21917c-2.04177,2.44124-.30599,6.15583,2.87654,6.15583h17.59995l-28.31172,27.30058c-2.42866,2.34192-.77086,6.44942,2.60301,6.44942h31.95871v32.75c0,3.31371,2.68629,6,6,6h47.75c5.52285,0,10,4.47715,10,10v43.75c0,5.52285-4.47715,10-10,10H105c-5.52285,0-10-4.47715-10-10v-43.75c0-5.52285,4.47715-10,10-10h84c3.31371,0,6-2.68629,6-6v-8c0-3.31371-2.68629-6-6-6h-46.5v-18.75h21.90438c3.38122,0,5.03549-4.12273,2.59208-6.45991l-21.99646-21.04009h13.28812c3.17186,0,4.91121-3.69292,2.89111-6.13831l-18.67923-22.61169h8.76915c2.9642,0,4.75659-3.2769,3.15762-5.77285l-18.76915-29.29818c-1.47527-2.30287-4.83997-2.30287-6.31524,0l-18.76915,29.29818c-1.59897,2.49595.19342,5.77285,3.15762,5.77285h8.76915l-18.67923,22.61169c-2.0201,2.44538-.28076,6.13831,2.89111,6.13831h13.28812l-21.99646,21.04009c-2.44341,2.33717-.78913,6.45991,2.59208,6.45991h21.90438v18.75h-17.5c-16.56854,0-30,13.43146-30,30v43.75c0,16.56854,13.43146,30,30,30h160c16.56854,0,30-13.43146,30-30v-43.75c0-16.56854-13.43146-30-30-30h-33.75Z"/>
  <rect fill="#13add8" x="113.125" y="220" width="40" height="20" rx="6" ry="6"/>
  <rect fill="#13add8" x="165" y="220" width="40" height="20" rx="6" ry="6"/>
  <rect fill="#13add8" x="216.875" y="220" width="40" height="20" rx="6" ry="6"/>
  <circle fill="#13add8" cx="117.5" cy="290" r="12.5"/>
  <circle fill="#13add8" cx="148.75" cy="290" r="12.5"/>
  <circle fill="#13add8" cx="221.25" cy="290" r="12.5"/>
  <circle fill="#13add8" cx="252.5" cy="290" r="12.5"/>
</svg>

