<svg version="1.1" viewBox="0 0 100 100" xmlns="http://www.w3.org/2000/svg">
	<path class="st0" d="m37.8 46.5c0-2.5 1.9-4.7 4.5-4.9 2.5-0.2 5.1-0.3 7.7-0.3s5.2 0.1 7.7 0.3 4.5 2.3 4.5 4.9v6.3l-6.9 2c-1.5 0.4-2.5 1.8-2.5 3.3v19.8c0 2.3 1.6 4.3 3.9 4.8l14.8 3c0.7 0.1 1.1 0.7 1.1 1.4v3h-45.2v-3c0-0.7 0.5-1.2 1.1-1.4l14.8-3c2.3-0.5 3.9-2.5 3.9-4.8v-19.8c0-1.6-1-2.9-2.5-3.3l-6.9-2v-6.3z" fill="#165d9c"/>
	<path class="st0" d="m56.9 14.2c0.3-1.9-1.1-3.8-3-4-2.6-0.3-5.2-0.3-7.8 0-1.9 0.2-3.3 2-3 4-31.4 6.4-38 48.7-10.1 64.4l4.9-6.4c-24.5-12.7-16.4-49.7 11.5-50.7 28.6-0.3 37.7 37.7 12.7 50.6l4.9 6.4c27.9-15.6 21.3-57.9-10.1-64.3z" fill="#165d9c"/>
</svg>
