<?xml version="1.0" encoding="UTF-8"?>
<svg id="_图层_1" data-name="图层_1" xmlns="http://www.w3.org/2000/svg" version="1.1" viewBox="0 0 100 100">
  <!-- Generator: Adobe Illustrator 29.8.3, SVG Export Plug-In . SVG Version: 2.1.1 Build 3)  -->
  <defs>
    <style>
      .st0 {
        fill: #fff;
      }

      .st1 {
        fill: #e60012;
      }
    </style>
  </defs>
  <path class="st1" d="M23.16455,43.68432l6.24471-6.91447c.3375-.27724.675-.46082,1.09708-.46082.42181,0,.75931.18358,1.09679.46082l6.24472,6.91447-7.34151,8.02094-7.34179-8.02094Z"/>
  <path class="st0" d="M40.20978,62.30754l-7.34067-8.02094,7.34067-8.02094,2.36391-2.58134,6.32843-6.91447c.25348-.27724.675-.46082,1.09652-.46082.42437,0,.76045.18358,1.09935.46082l6.24301,6.91447-17.13122,18.62322Z"/>
  <path d="M40.20978,62.30754l-7.34067-8.02094,7.34067-8.02094,2.36391-2.58134,6.32843-6.91447c.25348-.27724.675-.46082,1.09652-.46082.42437,0,.76045.18358,1.09935.46082l6.24301,6.91447-17.13122,18.62322ZM23.16455,43.68432l6.24471-6.91447c.3375-.27724.675-.46082,1.09708-.46082.42181,0,.75931.18358,1.09679.46082l6.24472,6.91447-7.34151,8.02094-7.34179-8.02094ZM20.8015,46.26566l18.65069,20.37495c.42152.46097,1.18197.46097,1.60349,0l19.66032-21.48111,1.34998-1.47518,6.3313-6.91447c.25348-.27724.675-.46082,1.0965-.46082.33608,0,.76045.18358,1.09652.46082l13.83885,15.11962c.42152.55323,1.35.92195,2.02501.92195h3.54585l-1.18194-1.29067-15.86386-17.3338c-1.0139-1.01125-2.27846-1.56511-3.46043-1.56511-1.26738,0-2.53195.55386-3.46041,1.56511l-6.32845,6.91603-6.24586-6.91603c-.92846-1.01125-2.19302-1.56511-3.46041-1.56511-1.26456,0-2.5291.55386-3.45758,1.56511l-6.33128,6.91603-6.24359-6.91603c-.92848-1.01125-2.19416-1.56511-3.45985-1.56511-1.26599,0-2.53166.55386-3.46014,1.56511l-17.0462,18.62446h3.54429c.675,0,1.51889-.36872,2.02527-.92195l5.23193-5.62381Z"/>
  <path d="M55.06256,67.37816h6.32843c.59241,0,1.26741-.46099,1.35-1.10633.08544-.64536.25348-1.10634.25348-1.10634h-5.39997l.33892-1.936h4.218c.675,0,1.26741-.46113,1.43545-1.10647.08257-.64533.16801-1.19856.16801-1.19856h-5.31737l.33892-1.84391h4.21803c.59238,0,1.26738-.55292,1.34998-1.19825.17089-.64534.25348-1.10647.25348-1.10647h-7.42495l-2.11043,10.60233Z"/>
  <path d="M81.98264,59.08055h3.29239c.33608,0,.58956.09241.7576.36903.25348.27662.25348.55292.17089.92195,0,.46082-.25348.73743-.50696,1.01405-.33892.27662-.59241.36872-.92846.36872h-3.29239l.50694-2.67375ZM87.21457,67.37816l-1.26454-3.68785c.50412-.27662,1.01108-.73743,1.43258-1.19857.50696-.64533.84589-1.29066.92848-2.1202.25348-.92195.08544-1.8439-.42152-2.58165-.50696-.64533-1.26456-1.01405-2.19302-1.01405h-5.40282l-2.02498,10.60233h2.11043l.58956-3.31913h2.87087l.84304,2.39719c.16804.64536.59241.92193,1.26738.92193h1.26454Z"/>
  <path d="M73.2903,59.35717h2.61739c.58954,0,1.26454-.55292,1.34998-1.29067l.25348-1.29067h-9.8743l-.50696,2.58134h3.79933l-1.60346,8.02099h1.26456c.58954,0,1.18194-.55316,1.34998-1.19852l1.35-6.82247"/>
</svg>