<?xml version="1.0" encoding="UTF-8"?>
<svg id="_图层_1" data-name="图层_1" xmlns="http://www.w3.org/2000/svg" version="1.1" viewBox="0 0 100 100">
  <!-- Generator: Adobe Illustrator 29.8.3, SVG Export Plug-In . SVG Version: 2.1.1 Build 3)  -->
  <defs>
    <style>
      .st0 {
        fill: #b3966e;
      }
    </style>
  </defs>
  <path class="st0" d="M74.66422,43.90246c.19207.22408.38151.44548.57826.67563v1.89577c.15162.20221.30601.40607.48322.6423-.13816.22574-.26825.43837-.37204.60793.29861.57046.58302,1.112.91731,1.74988v1.99557c.17585.19172.37267.40538.61056.66418-.32885.28882-.63685.56004-.94485.83132h-.91325c-.21898-.19344-.4374-.3875-.65638-.58198h-1.0588c-.81552-.41718-.7737-1.38833-1.38025-1.8995v-.99206c-.36397-.65776-.72318-1.30344-1.11338-2.00875.03506-.36591.07681-.81545.11864-1.25555-.21636-.25107-.40711-.47343-.60994-.708v-2.469c-.4374-.83271-.79593-1.51338-1.15113-2.1957-.04445-.08599-.0303-.21905-.09296-.27232-1.05209-.89668-1.37287-2.37362-2.54352-3.18203-.44479-.30635-.7265-.75079-.73395-1.07294-.60386-.8748-1.09378-1.55347-1.54871-2.25436-.22512-.34679-.62815-.5786-.64431-1.07563-.00469-.14762-.24196-.29185-.38012-.43098-.44009-.44382-.92125-.85224-1.31552-1.33277-.63692-.77874-1.43753-1.33574-2.34132-1.69191-1.04465-.41145-2.00571-.89937-2.73759-1.83553-.45832.04886-.90511.09503-1.39709.14693-.26487-.19613-.57757-.42795-.85728-.63519-.31069.04113-.5648.07515-.84989.11187-.22167-.18199-.44679-.36563-.71303-.58364h-2.04747c-.21297-.18468-.43401-.37439-.67529-.5826h-4.55925c-.10849.87508-.0472,1.71986-.0539,2.56099-.00608.85389-.0007,1.70779-.0007,2.58459-.18937.21704-.38012.43809-.57625.66314v6.45344c.17184.19952.36259.4216.55065.64195v1.96086c-.06405.37205-.79392.50476-.4334,1.2906.04721.05425.23996.27198.4334.49234v7.15598c-.27025.25038-.55735.51732-.8768.8138h-1.08509c-.12602-.14355-.27294-.30966-.44347-.50372-.22512-.04217-.47716-.0893-.67391-.12609-.26756-.53713-.50821-1.02035-.77239-1.54871v-2.8242c-.14962-.24327-.3875-.62912-.54589-.88453v-2.50509c-.12064-.14858-.32215-.3953-.54657-.67156.21227-.24534.40165-.46301.65844-.76059-.05658-.74879-.14962-1.55817-.16914-2.37031-.01415-.54927.06804-1.1022.11925-1.65354.07081-.75514-.04513-1.43988-.76694-1.97024.2608-.36225.50076-.69654.76025-1.0561v-3.48134c-.17053-.20621-.37475-.45217-.60794-.73491.20559-.2325.39496-.44617.616-.69447-.06135-.90579.1058-1.84698-.11118-2.81413h-4.40631c-1.03657.54258-2.0879,1.09385-3.26256,1.70986-.06474-.01753-.28109-.0735-.50145-.1294-.45085.22574-.90309.4512-1.35534.67895-.02084-.03602-.04175-.07177-.06267-.10676-.21835.19579-.43539.39089-.6443.57888h-1.51033c-.40573.38785-.80738.7717-1.20096,1.14809h-.8795c-.47854.22581-.84444.3973-1.40047.65983-.16715.17757-.48185.51249-.80876.86093-.22374.04382-.44548.08558-.67329.1294-.21836.18468-.44071.37274-.67529.57053-.2345-.06301-.45286-.12098-.73864-.19613-.55735.54423-1.14099,1.11469-1.74753,1.70779-.24465.01953-.50214.04044-.81684.06639-.04113.26956-.08426.55127-.14016.91725-.64499.60352-1.33919,1.25285-2.03602,1.90392.03299.02629.06605.05321.09904.08019-.23382.45962-.46839.9189-.76355,1.50157.02084.2746.05252.69109.07411.9728-.39088.75417-.72918,1.40689-1.08508,2.09301v.93001c-.87474.54051-1.18343,1.54402-1.74015,2.41206v1.8915c-.26687.45424-.50945.86466-.77094,1.3091-.33499.19751-.72118.42325-1.16259.6824-.16715-.14251-.3835-.32719-.60924-.51794h-1.56762c-.26895-.26252-.5715-.55735-.8229-.80165v-2.05085c.49737-.42691.50076-1.16693.91863-1.72262.37604-.50137.54789-1.15044.84243-1.71924.3107-.60013.65707-1.18039.99537-1.78294v-.80234c.57556-.7481.74409-1.80316,1.61345-2.28031.34713-1.02608.69013-1.9396,1.45912-2.65705,1.10593-1.02877,2.14181-2.13304,3.22151-3.19183.39697-.3882.8303-.7383,1.24817-1.10731.28233.05935.53105.11187.78985.16611.20351-.1873.39626-.36225.48322-.44278.73188-.32008,1.33781-.58633,1.94298-.8512-.01214-.01684-.02422-.03437-.03775-.05155.80407-.54085,1.61007-1.08232,2.35347-1.58273.32284.07143.54251.11994.76831.17053.23651-.20662.45694-.4.67598-.5931h1.10862c.21428-.19613.42995-.39461.63961-.58806h.85928c.65437-.37032,1.269-.71739,1.99487-1.1278.08765.02015.30193.07074.618.14589.26487-.16611.5911-.37239.955-.60186h.87073c.20351-.18903.41856-.38654.63153-.5853h3.28348c.21836-.18702.44009-.37881.61532-.5294.77977,0,1.50157-.03402,2.21731.0158.33491.0236.56135-.05763.8512-.3804-.08696-.97218-.337-2.03974.01208-3.05974-.34568-.70096-.96846-.26087-1.51166-.46031-.12739-.11187-.32415-.28343-.54727-.4775-.19875.17046-.39088.33595-.60986.52298h-2.11557c-.17185-.1432-.39627-.32891-.65707-.54589h-6.00423c-.29724-.37978-.64299-.82056-.94962-1.21076-.4374.04886-.7198.08054-1.00151.11187-.86466-.64934-1.89847-1.76037-2.16202-2.33759.06805-.0913.14424-.19275.23996-.31849h3.50114c.13009.15134.29317.34272.48661.56853.24934-.0472.49668-.09434.79729-.15134.23588.15134.50883.32657.78309.50041.18399-.12698.37004-.25473.58502-.40165.22843.15569.44009.29924.69213.47073h2.63448c.17053.19344.33899.38516.5129.57998h5.39023c.2096-.18537.44955-.398.64969-.5746.55735-.11622.68612.40069,1.06956.58267h9.24865c.96576.49434,1.05271,1.3071.91255,2.32379-.05059.05963-.19413.22912-.37543.44444h-7.78144v3.71315h2.31302c.22712.18564.45017.37101.7198.59344h2.12159c.17923.21056.34438.404.53643.62981,1.12483-.10317,2.27528.09199,3.4614-.17157.67667.39392,1.39647.8138,2.14587,1.2512.53851-.04113,1.11877-.08489,1.6465-.12436.54319.26591,1.03111.50414,1.51973.74306.0256-.03437.04989-.06943.07549-.10242.32685.36825.65307.73726.97184,1.09516h1.12684c.25473.32043.53913.67901.79662,1.00282.58902-.01415.97045.17488,1.3142.52298.73256.74402,1.50627,1.44733,2.35409,2.25402.05058.00711.24334.03133.49398.06301.10918.27129.2292.56853.38219.94858.22712.2029.51891.4637.72718.64906.26149.5196.47778.95196.75749,1.50827v1.00455c.90579.25707,1.73546.63788,1.79405,1.80413.28779.24734.58772.50483.86535.74271.05259.27398.09503.49606.13278.69551q1.04803,1.12014,1.17335,1.77114c.13885.14596.29724.31138.45562.4775.15839.16612.31608.33264.47846.50214v.92056c.18199.2187.36936.44078.58095.69289v1.06383Z"/>
  <path class="st0" d="M48.24808,55.15607c.4704.51594.93546,1.02505,1.35327,1.4837.33968.06977.58902.12063.77977.16073.07343.07716.11456.09972.11594.12533.04313.57826.51014.97556.65099,1.49688.09303.34472.26963.58799.50483.81545.56541.54761,1.1376,1.08943,1.67541,1.60372v1.61441c.5971.49669.65714,1.18819.6187,1.93153-.03844.75417-.00807,1.51034-.00807,2.30122-.17253.20455-.36128.42864-.62947.74741v1.7759c-.32353.07005-.57218.12429-.90717.19779-.43533.47411-.92463,1.00454-1.37149,1.48743-.36659.02257-.62338.04009-.94215.05928-.04245.31504-.08496.62677-.13748,1.01662-.76631.22953-1.55686.05093-2.37231.12774-.21097.18903-.45024.40269-.65107.58295-.59709.05597-.71573-.49869-1.13222-.69986h-1.07702c-.42456,1.11435-.29654,1.88804.42795,2.63883.52437.54388,1.04465,1.09516,1.60137,1.60433.32484.29758.57419.60724.5964,1.01331.84513.44782,1.63774.86604,2.55292,1.34892h.6403c.53575.28371.98937.52498,1.66666.88384.461.46204,1.04057,1.29302,2.15664.67736.32553.20621.62608.39696.99136.63147h3.19253c.1766.18737.35182.3744.53919.57391h1.02843c.21366.18026.45893.38847.66521.56542.55197.12601.70558-.36059.98798-.51794.62747-.25411.83098.32891,1.18482.50918.52904.15397.69013-.33595,1.05133-.53547h3.66767c.70158-.38681,1.37149-.75617,2.08791-1.1514.35652.05051.77232.11014,1.20026.17149.2844-.25376.54997-.48999.84312-.75079.23789.0472.48661.09634.75687.14859.20221-.1715.40096-.33761.6443-.54216.16984-.02629.39158-.06301.60116-.09641.54859-.54755,1.08102-1.08136,1.63698-1.63767.23796-.04582.4853-.09303.78453-.15065.02422-.29213.04783-.57218.07343-.88184.30663-.03002.56073-.05624.73526-.07343.99275-.40441.89503-1.56458,1.7004-2.11924.13955-.01215.3316-.02967.52229-.04886.43947-.26425.7158-.6494.93816-1.106.18399-.37439.43877-.72283.70965-1.04126.31946-.3744.70228-.69282,1.03657-1.05334.41519-.44451.88627-.80841,1.11607-1.44906.17385-.48792.68205-.86059,1.05942-1.26831.13078-.14361.31477-.23996.41718-.31339v-1.03926c.17999-.57218.74472-.23996,1.03995-.553.29247-.27667.02492-.58799-.00876-.91187.19005-.24831.38613-.50207.60116-.78212-.15299-.24327-.28717-.45659-.43002-.68405.29793-.5216.59779-1.04458.97792-1.7071v-1.47763c.47177-.23892.91592-.46404,1.3614-.68944.28778-.13147.56073-.17426.85183.12602.25071.2588.66591.35686,1.07362.55631v3.85835c-.10579.09807-.27095.25038-.32891.30262-.26419.58295-.47579,1.05003-.77163,1.70441v.67901c-.337.36225-.66991.72084-1.0069,1.08136v.88357c-.19681.41145-.58164.65306-.65712,1.1777-.06061.41656-.5459.78081-.86935,1.14271-.14831.16646-.35991.27667-.56212.42698-.11725.55293-.37874,1.02035-.80331,1.41559-.20359.19075-.29993.49703-.45093.74741-.19945.32891-.40434.65245-.59841.96583-.34106.02795-.59848.05086-.87957.07509-.03837.07012-.12532.15403-.12332.23457.01352.50414-.2345.87142-.57419,1.204-.56211.55127-1.11469,1.11469-1.68488,1.65892-.37474.35859-.72787.74168-1.29667.83637-.19614.03133-.37336.2521-.53581.4111-.34976.34472-.68474.70703-1.0817.98329-.83498.42698-1.67073.85223-2.58053,1.31627-.16714-.02464-.42056-.06301-.72449-.10855-.11726.10483-.24734.24672-.40441.35148-.18261.1227-.4421.34844-.5735.29585-.54657-.22036-.84044.14865-1.22056.38316-.36998.22912-.78847.37812-1.15043.67025h-2.19371c-.21228.18026-.43471.36936-.66314.56176h-1.5238c-.19813.17315-.41649.36556-.66321.58095h-5.87883c-.29047-.25376-.58026-.50752-.90241-.78923-.2804.24162-.51967.44617-.79392.6824-.19883-.15942-.37274-.29758-.57487-.46031h-1.45438c-.2305-.18875-.45831-.37439-.70165-.57391h-1.61275c-.19676-.16777-.41719-.35514-.66383-.5668h-.91794c-.99536-.73326-.87812-.68944-1.93622-.44817-.48798-.23416-1.0042-.4795-1.51979-.7258-.55197-.25411-.7285-.94692-1.45906-1.06755-.52975-.0893-.88357-.85928-1.53732-.39392-.86328-.66314-1.3472-1.73912-2.55022-1.7779-.51015-.62809-1.33443-1.03215-1.26969-1.7846-.52905-.64768-.94554-1.15686-1.36211-1.66603-.2109-.47411-.50338-.93271-.95223-1.29495-.1011-.08226-.17999-.19241-.27971-.27633-.67467-.57218-.90717-1.26334-.56073-2.07714-.09034-.18026-.16308-.32553-.2548-.51083h-2.16472c-1.04327-.6423-2.12289-1.09012-2.78342-2.17686-.46501.04886-.83167-.1786-1.14567-.55134-.27501-.32512-.60324-.60352-.89371-.91691-.41173-.44279-.86466-.79592-1.49413-.76287-.22105-.94657-.65375-1.72704-1.24678-2.47072v-3.72357c.17047-.18902.34506-.3835.55597-.61704v-.70862c.31139-.6187.52573-1.04568.83912-1.67038q.7541-.78384,1.01829-1.69198c.57894-.33092,1.21786-.69482,1.94366-1.10931h1.3129c.29447-.1884.6207-.39565.83167-.53043,1.4247.04382,2.71399.08426,3.99314.12436.24804-.22243.4637-.41815.67798-.61062h2.84007c.17791.16176.3922.35521.67459.61235.58702-.05259,1.22995-.11194,1.90592-.17322.34438.32008.77839.4933,1.23602.6746.39835.15838.70228.56784,1.25223.49806ZM34.27641,56.75433c.08358.99309-.90379,1.30006-1.21448,1.96962v2.01848c-.2049.23692-.39496.45728-.5668.65879v1.54305c.18806.20656.38419.42188.5675.62305v.90979c.26886.54962.4953,1.01331.66245,1.35637.8512.88019,1.62628,1.68149,2.3467,2.4269h2.19309c.19675-.21704.52698-.57722.80599-.88357v-2.59874c-.12464-.36025-.42325-.72415-.88619-.85189-.62684-.17322-1.09454-.62843-1.726-.81883-.77509-.23458-1.47529-.71235-2.24022-1.10089.18261-.41656.37136-.84513.60724-1.38564h2.3042c.48999.29282,1.09116.65065,1.73408,1.03416.09504-.10449.19752-.21705.26357-.29082-.05867-.37874-.10856-.69385-.15369-.98667.22373-.23623.40303-.42525.55333-.58467.06936-.28771.12802-.53374.17523-.72953.11856-.07177.17315-.13478.22912-.13478.88557-.00607,1.77114-.00435,2.69784-.00435.16509.14962.35784.3245.52837.4795.27564.05693.51897.10579.8748.17922-.21635.30262-.37204.51966-.53581.74913v1.37349c.31539,1.06051,1.24885,1.04803,1.82911,1.54001.20827-.15769.3848-.29254.54995-.41649.35722.2187.68267.41815.9597.58799.69281-.15231,1.29805-.27667,1.91737-.05425.27833.09938.51359-.00538.69013-.30124v-.90986c-.22843-.45659-.39827-.80303-.57419-1.14602-.27701-.54589-.47246-1.16362-.85796-1.61682-.80869-.94692-1.71855-1.80585-2.53808-2.64933h-1.78867c-.2325-.20117-.45424-.3922-.72318-.62304-2.23745.2345-4.50535.2345-6.83245.05424-.20628.17322-.45362.37812-.69828.58364h-1.15375ZM49.98554,65.58311c-.70428-.32015-1.43216-.11559-2.12973-.15031-.68875-.03333-1.38025-.02629-2.07038.00173-.70428.02961-1.40655.1051-2.1452.16273-.20621.42153-.44347.90648-.79861,1.63436-.1051.3147.55465.48115.69082,1.09716v1.36845c.11525.07854.19406.17999.27426.17999,1.04733.01242,2.09536.00703,3.00991.00703.57218-.2746,1.03581-.49875,1.40786-.67901.42395-.40062.78247-.7383,1.0062-.94823.31408-.62305.54658-1.08301.80738-1.5993-.01415-.29752-.03168-.65272-.05252-1.0746Z"/>
  <path class="st0" d="M51.48574,44.1545c.29785-.34375.4893-.56514.69551-.80503v-1.4837c.56611-.64058.65037-1.63974,1.57232-2.09736h1.92752c.73932.67632,1.73138,1.22056,2.07038,2.39287.09503.32719.37942.59951.55803.86804v1.28088c-.16177.19779-.34575.42353-.55127.67729-.04183.21704-.09103.46639-.13147.6726-.41718.37909-.8788.06943-1.37818.25576-.13754.12132-.35652.31408-.58502.51594h-2.03194c-.63554-.76024-1.4915-1.37418-2.14587-2.27728Z"/>
  <path class="st0" d="M29.74208,38.70561c.4677.24396.97784.51083,1.48874.7777.41381.24672.13547.59751.08558.95803.17253.26052.35244.53009.57149.861v.72008c.19545.22312.38619.44009.64093.72857-.37198.3737-.73188.73595-1.13899,1.1454-.03975.19779-.08827.44886-.15162.77266-.17653.19779-.39289.43637-.5931.65948-.94685-.53954-1.6855-1.27376-2.64456-1.23167-.57826-.29048-1.06148-.53209-1.58038-.79123.13746-.99709.21089-1.99288-.08896-3.11026.51152-.42594,1.0621-.88522,1.78798-1.48977h1.62289Z"/>
  <path class="st0" d="M29.583,34.72289c-.42525.22139-.8512.44244-1.36679.71131h-.89433c-.18668.13885-.38951.29117-.54859.41014-.4866-.04548-.73864-.41718-.81075-1.11441.39288-.45962.79523-.92932,1.19757-1.40013.24265-.0401.46508-.07515.63015-.10311.48592-.41214.93008-.78916,1.3196-1.1218,1.33173.20324,2.55898.16646,3.8914.04921.7784.38688,1.66334.8276,2.77334,1.37956.20752.20117.60587.58909,1.02843.99916v.76928c-.09841.0472-.18199.12132-.26756.12236-.68675.01042-1.37487.00607-2.10543.00607-.20152-.17557-.42057-.36632-.66653-.57998h-.87211c-.07005-.03333-.17453-.05424-.24196-.11725-.21159-.19676-.41042-.40876-.61262-.61497-.61194-.62477-1.36879-.59509-1.90723.07785-.14155.17757-.27771.36059-.41719.54051-.04244-.00504-.08557-.00877-.1294-.0138Z"/>
  <path class="st0" d="M55.01186,35.42613h-1.87224c-.21636.17964-.44078.36597-.71372.59344-.28241-.0283-.60117-.05797-1.0089-.09703-.16376.15466-.39896.3777-.65713.62104-.79793.21767-1.3472-.12774-1.75161-.79696.22242-.42733.42864-.81918.66991-1.28287h.9759c.22912-.21428.41919-.39089.65376-.6089.14216-.01415.33491-.03133.56341-.05259.20352-.16611.43133-.35148.6706-.54589h.92331c.16377.14624.35714.31842.5998.53547.20759-.17322.42118-.35348.6463-.54258h.4846c.22036.19682.43803.39026.64493.57425h1.01903c.23788.30255.52029.66149.73395.9327.80599.1109,1.31351.43202,1.69902,1.00524v1.09281c-.5196.54389-1.16659-.06674-1.69364.36894-.68612-.90641-1.68756-1.25451-2.58729-1.79709Z"/>
</svg>