<svg version="1.1" viewBox="0 0 100 100" xmlns="http://www.w3.org/2000/svg">
	<style type="text/css">.st0{fill:#1E2B65;}
	.st1{fill:#E51835;}</style>
	<path class="st0" d="m43.755 29.068c-18.332 11.533-25.434 26.466-19.789 35.814 3.5814 5.888 11.837 8.6196 21.913 7.2234l0.97122-3.0958c-9.4694 0.42491-14.69-2.2459-17.603-7.2841-5.3417-9.2266 2.3066-23.673 18.271-32.9 15.964-9.2266 33.993-10.501 39.759-0.1214 3.2779 5.9487 1.4568 14.204-5.7059 21.792h1.5175s2.3673-2.7923 4.4919-6.6164c-1.214 3.3386-3.5207 6.6164-3.5207 6.6164h1.5175c4.674-7.7697 5.7059-16.632 2.7923-22.035-6.6771-12.322-30.108-12.444-51.596 0.0607-21.063 12.322-31.747 31.625-24.523 43.766 4.9168 8.2554 18.575 10.38 31.504 6.9806l1.1533-3.7028c-12.14 2.2459-22.945 0.1821-27.012-7.2234-5.9487-10.926 4.0063-28.651 22.702-39.577 11.655-6.7985 22.52-9.6515 34.053-8.134-12.504-0.48561-23.127 3.5207-30.897 8.4375"/>
	<path class="st1" d="m78.719 49.402-1.6396 5.2201h-5.341l3.3386 2.428h5.948l-2.9129 2.1245 4.9166 3.7037-1.578-5.0387 4.4305-3.2176h-5.4631zm-9.5913 1.0931-2.428 7.2841h-7.4655l4.8561 3.3386h8.133l-4.1874 3.0351 7.162 5.0991-2.3059-7.1027 6.191-4.37h-7.6481zm-12.808 1.7606-3.0955 9.6505h-9.9552l8.0121 6.0701-3.2164 9.7122 8.376-6.0701 8.1342 6.0096-3.2164-9.8331 8.2551-5.8887h-10.198z"/>
</svg>
