<svg version="1.1" viewBox="0 0 100 100" xmlns="http://www.w3.org/2000/svg">
  <path fill="#00a7e3" d="M10,50.00146c0,1.19041.0552,2.36774.15707,3.53175,6.48293-7.21496,19.23067-22.36914,31.66347-42.69481-18.16827,3.77575-31.82053,19.87446-31.82053,39.16306ZM44.5504,10.37093c-6.24773,20.43047-17.30533,47.40469-26.12773,64.18261,2.73946,3.51765,6.04481,6.55527,9.7808,8.98856,3.76133-10.64644,12.06853-36.35559,19.064-73.44744-.91466.06187-1.82053.15413-2.71707.27627h0ZM57.7992,49.7708s12.66373-3.16614,11.7592-11.12644c-.93493-8.22829-13.9224-9.0699-13.9224-9.0699l-.64107-8.75043c16.28213.63334,25.23733,9.0459,25.23733,17.82059s-6.4224,12.93551-6.4224,12.93551c3.97867,6.99575,10.19067,12.11631,12.9624,14.18405,2.07628-4.83708,3.22774-10.1651,3.22774-15.76245,0-22.09234-17.90827-40.00173-39.99973-40.00173l-.0328.00027v79.99946l.0328.00027c9.9352,0,19.02266-3.62374,26.0176-9.61896-13.50347-13.81445-18.21867-30.6105-18.21867-30.6105v.00026Z"/>
</svg>