<svg version="1.1" viewBox="0 0 100 100" xmlns="http://www.w3.org/2000/svg">
  <polygon fill="#0e459b" points="28.615 54.842 35.185 39.669 24.235 39.669 10 72.831 20.95 72.831 28.302 55.624 19.699 56.563 28.615 54.842"/>
  <polygon fill="#0e459b" points="31.9 33.568 35.967 37.479 36.124 31.222 42.537 27.311 36.124 27.311 36.124 21.054 31.744 27.311 25.486 27.311 29.241 31.222 25.174 37.479 31.9 33.568"/>
  <path fill="#0e459b" d="M66.001,51.557l-18.459,2.034-4.067,7.665,10.95-.939c-1.721,4.224-4.693,4.067-7.039,4.067-5.631,0-7.039-2.816-7.039-2.816-.782-1.251-.626-2.816.313-4.693.626-.939,1.251-1.877,2.19-2.816l-13.296,1.408c-.156.313-.313.626-.469.939-1.721,5.006-1.564,9.073.782,12.045,2.19,2.816,5.475,4.224,10.011,4.38h17.051l6.101-14.391,2.972-6.883Z"/>
  <path fill="#0e459b" d="M87.901,53.904c1.095-1.877,1.877-4.849,1.877-4.849.939-4.849-1.408-6.57-1.408-6.57,0,0-2.033-2.816-8.291-2.816h-23.151c-19.866,0-25.967,12.201-27.062,14.861l38.012-7.196,2.972-6.883,2.034,5.788,7.665-1.564-6.257,5.006,2.346,6.101-6.726-2.503,8.447,19.554h10.794l-6.101-14.391c2.659-.939,4.849-4.536,4.849-4.536Z"/>
</svg>

