<?xml version="1.0" encoding="UTF-8"?>
<svg id="_图层_1" data-name="图层_1" xmlns="http://www.w3.org/2000/svg" version="1.1" viewBox="0 0 100 100">
  <!-- Generator: Adobe Illustrator 29.8.3, SVG Export Plug-In . SVG Version: 2.1.1 Build 3)  -->
  <defs>
    <style>
      .st0 {
        fill: #0065b1;
      }
    </style>
  </defs>
  <path class="st0" d="M80.49946,55.54083c2.55668-.01662,4.93944-1.29749,6.36364-3.42083,1.84685-2.92426,2.80571-6.3215,2.76033-9.77983-.06495-3.44819-1.07434-6.81252-2.91835-9.72694-1.55661-2.30696-4.15454-3.69345-6.93752-3.70248h-38.54082v28.55736c0,2.64066-2.35504,3.58545-3.25686,3.8195-2.39999.64555-4.87217.98412-7.35736,1.0076-2.31898-.012-4.62791-.30572-6.87603-.87471-1.74347-.47339-3.05653-1.72628-3.05653-3.71107v-11.32959h-10.32926v14.01322c0,8.60694,11.8195,11.30116,20.6043,11.30116s20.6076-2.69422,20.6076-11.30116v-22.20297h24.67967c1.07101-.00823,2.06503.55557,2.6076,1.47901.75612,1.67329.75154,3.59183-.01256,5.26149-.55327.89713-1.53045,1.44509-2.58446,1.44926h-19.2086l19.68661,24.70942h13.61983l-13.37454-15.54843h3.5233"/>
</svg>