<?xml version="1.0" encoding="UTF-8"?>
<svg id="_图层_1" data-name="图层_1" xmlns="http://www.w3.org/2000/svg" version="1.1" viewBox="0 0 100 100">
  <!-- Generator: Adobe Illustrator 29.8.3, SVG Export Plug-In . SVG Version: 2.1.1 Build 3)  -->
  <defs>
    <style>
      .st0 {
        fill: #ed6c00;
      }
    </style>
  </defs>
  <path class="st0" d="M40.90886,28.72709h38.10804c6.73658-.01971,10.52092,5.54076,10.52092,13.68423,0,8.13651-3.78435,13.31469-10.54095,13.31469h-2.11992l13.58522,15.54693h-13.97534l-19.79342-25.0833h19.33762c1.51958,0,3.20342-.29093,3.20342-3.77825,0-3.50704-1.70404-3.81439-3.50679-3.81439h-24.68783v22.09587c0,3.19664-2.3249,11.22089-20.28902,11.22089-18.01654,0-20.28865-8.02412-20.28865-11.16833v-14.56946h10.16444v11.84859c0,2.72088,3.36132,4.37828,10.0979,4.37828,6.71046,0,10.18416-1.69018,10.18416-4.37828l.00019-29.29745Z"/>
</svg>