<?xml version="1.0" encoding="UTF-8"?>
<svg id="_图层_1" data-name="图层_1" xmlns="http://www.w3.org/2000/svg" version="1.1" viewBox="0 0 100 100">
  <!-- Generator: Adobe Illustrator 29.8.3, SVG Export Plug-In . SVG Version: 2.1.1 Build 3)  -->
  <defs>
    <style>
      .st0 {
        fill: #45b035;
      }
    </style>
  </defs>
  <path class="st0" d="M24.16669,61.95266c1.1151.34029,3.39134.50813,6.83123.50813,6.82871,0,10.24531-1.8394,10.24531-5.52049v-27.97729h38.00219c3.68099,0,6.41949,1.40484,8.21045,4.21453,1.45331,2.32684,2.18193,5.42623,2.18193,9.30277,0,8.71876-3.46487,13.07814-10.39238,13.07814h-2.17969l13.29647,15.47856h-13.4413l-19.83805-24.70775h19.1114c1.35648,0,2.26473-.2897,2.72447-.87141.46002-.57942.68989-1.57269.68989-2.97753s-.22987-2.39812-.68989-2.97983c-.45974-.58171-1.36799-.87141-2.72447-.87141h-24.56061v20.2725c0,8.52562-6.87951,12.78842-20.63572,12.78842s-20.63572-4.2628-20.63572-12.78842v-12.57231h10.39013v10.61105c0,2.61655,1.13812,4.2881,3.41435,5.01237"/>
</svg>