<?xml version="1.0" encoding="UTF-8"?>
<svg id="_图层_1" data-name="图层_1" xmlns="http://www.w3.org/2000/svg" version="1.1" viewBox="0 0 100 100">
  <!-- Generator: Adobe Illustrator 29.8.3, SVG Export Plug-In . SVG Version: 2.1.1 Build 3)  -->
  <defs>
    <style>
      .st0 {
        fill: #0a8c0d;
      }
    </style>
  </defs>
  <path id="_パス_40" class="st0" d="M89.76974,71.18297l-13.19576-15.90616,3.09814.05333c3.016,0,4.49334-.23627,6.48055-2.2144,2.42774-2.42987,3.68267-5.52001,3.84001-10.44002.09973-3.18081-.8064-7.63468-3.49121-10.90349-1.77014-2.1456-4.63307-2.95574-7.92374-2.95574h-37.3958v29.46672c-.1968,3.11201-4.01014,4.33228-11.33549,4.33228-6.69014,0-10.25442-1.01334-10.25442-6.04054v-10.43148h-9.59202v11.72962c0,3.03361.17013,5.68268,3.19467,8.77762,3.23307,3.31147,9.39628,5.18614,17.27097,5.18614,5.48748,0,13.12002-.78454,17.37497-5.03788,2.0576-2.0576,2.92907-3.40801,2.92907-7.99308v-20.72377h25.72165c1.85654,0,3.35094,1.02453,3.35094,4.27094,0,4.27094-2.67574,4.27094-3.31147,4.27094h-18.94883l19.74137,24.55951h12.44696l-.00055-.00053Z"/>
</svg>