<svg version="1.1" viewBox="0 0 100 100" xmlns="http://www.w3.org/2000/svg">
  <path fill="#00a0ea" d="M72.17497,32.3043l8.62553-11.08873s3.02157-3.87054,6.80216-1.23377c3.5464,2.46116,2.44233,5.54539,1.2107,7.59674-1.22953,2.04918-25.26393,35.53298-25.26393,35.53298,0,0-3.23275,5.44303,3.0801,5.54552,5.26524.08577,8.03586,0,8.03586,0,0,0,5.1105.07734,5.1105,5.75457,0,5.49102-4.41627,5.54335-4.41627,5.54335h-9.34694s-11.50281.30937-13.81341-11.39415c-1.15843-5.87364,3.38958-11.93771,7.59884-17.15905,3.85378-4.77593,5.54962-12.11332.4663-17.66305-5.64999-6.16017-12.68215-4.66923-15.95881-.47043-1.79203,2.28758-22.45148,30.25523-22.45148,30.25523,0,0-2.67235,3.48792-.40775,5.54335,2.26041,2.05135,4.51246-.61682,5.33842-1.64358.82178-1.0288,21.15504-28.96084,21.15504-28.96084,0,0,3.0801-3.89773,6.57004-1.02459,3.48995,2.87722,1.64356,6.98617,1.64356,6.98617l-24.09087,32.12254s-8.75935,9.76307-17.96411.42449c-7.21409-7.31238-3.1282-15.09111-1.07689-18.38031,2.0534-3.28295,24.64707-34.0922,24.64707-34.0922,0,0,8.11324-9.34701,22.18383-3.69914,10.66639,4.2866,12.3225,11.50493,12.3225,11.50493"/>
</svg>