<svg version="1.1" viewBox="0 0 100 100" xmlns="http://www.w3.org/2000/svg">
  <path fill="#81c7ed" d="M77.08559,29c-4.81926-1.77552-10-2.5-14-2.5-13,0-23,8.57291-23,23.5s10,23.5,23,23.5c4,0,9.18074-.72448,14-2.5,2,9,2,19-19.25074,19-20.74926,0-40.74926-12-40.74926-40S37.08559,10,57.83485,10c21.25074,0,21.25074,10,19.25074,19Z"/>
  <path fill="#0067b2" d="M73.60108,13.5c-13.51549-7.5-39.51549,2.5-39.51549,28.5,0,22,15,31.5,29,31.5-20,0-38.25-11.5-38.25-33.5,0-18.54275,12.25-30,32.99926-30,7.80272,0,12.74048,1.34817,15.76623,3.49999h0Z"/>
  <path fill="#1c2d47" d="M63.08559,73.5c-13,0-23-8.57291-23-23.5s10-23.5,23-23.5c4,0,9.18074.72448,14,2.5,1.26565-5.69543,1.73037-11.79133-3.48451-15.50001h0c-13.51549-7.49999-39.51549,2.50001-39.51549,28.50001,0,22,15,31.5,29,31.5Z"/>
  <path fill="#0d9bd5" d="M17.08559,50c6,26,38,36,60,21,2,9,2,19-19.25074,19-20.74926,0-40.74926-12-40.74926-40Z"/>
</svg>