<?xml version="1.0" encoding="UTF-8"?>
<svg id="_图层_1" data-name="图层_1" xmlns="http://www.w3.org/2000/svg" version="1.1" viewBox="0 0 107.5 107.5">
  <!-- Generator: Adobe Illustrator 29.8.1, SVG Export Plug-In . SVG Version: 2.1.1 Build 2)  -->
  <defs>
    <style>
      .st0 {
        fill: #b29baa;
      }

      .st1 {
        fill: #4c2f48;
      }
    </style>
  </defs>
  <path class="st0" d="M40.9647,43.25l-.8387.83877v21.92083h4.7292l.8387-.8387h-4.7292v-21.9209Z"/>
  <path class="st0" d="M58.0907,51.7744l-.8387,1.273v12.9622h4.7946l.8388-.8388h-4.7947v-13.3964Z"/>
  <path class="st0" d="M47.46,55.7488l3.5632,5.4133.7912-.7912-4.3544-6.6209v1.9988Z"/>
  <path class="st0" d="M13.08876,43.25l-.83876.83877v21.92083h16.692l.8388-.8387H13.08876v-21.9209Z"/>
  <path class="st1" d="M14.85547,41.48926h16.53733v4.289h-11.74864v4.44961h10.33284v4.28903h-10.33284v4.6042h11.89734v4.289H14.85547v-21.92084Z"/>
  <path class="st0" d="M28.2106,56.2773h-8.56607v.8388h7.73327l.8328-.8388Z"/>
  <path class="st1" d="M42.7314,41.48926h5.1992l5.7643,9.26804,5.7642-9.26804h5.1992v21.92084h-4.7887v-14.31248l-6.2342,9.45838-6.1748-9.3632v14.2173h-4.7292v-21.92084Z"/>
  <path class="st0" d="M29.4717,47.69434h-9.82717v.84471h8.98247l.8447-.84471Z"/>
  <path class="st0" d="M74.2235,43.25l-.8387.83877v21.92083h4.8243l.8388-.8387h-4.8244v-21.9209Z"/>
  <path class="st0" d="M82.837,58.1572h-2.0225v.8388h1.1837l4.6995,7.0135h5.6334l.8388-.8388-5.6334.006-4.6995-7.0195Z"/>
  <path class="st1" d="M75.9903,41.48926h10.0236c2.7899,0,4.9493.78522,6.3888,2.2248,1.2195,1.21948,1.8798,2.9446,1.8798,5.0088v.06543c0,3.53951-1.9095,5.76431-4.6994,6.79341l5.3538,7.8284h-5.6394l-4.6994-7.0134h-3.7893v7.0134h-4.8244v-21.92084h.0059ZM85.6986,52.1314c2.3497,0,3.6941-1.25512,3.6941-3.09921v-.06544c0-2.06419-1.4396-3.12901-3.7893-3.12901h-4.7887v6.29366h4.8839Z"/>
  <path class="st0" d="M83.6758,47.69434h-2.8613v.83876h2.1831c2.4092,0,3.7298,1.05886,3.7298,3.0398v.0654c0,.119-.00591.2499-.0237.3867l-.006.0238c.2498-.0476.4818-.1071.696-.1844.0773-.2915.1249-.6009.1249-.89829v-.06544c.006-2.0285-1.3979-3.20633-3.8428-3.20633Z"/>
</svg>