<svg version="1.1" viewBox="0 0 100 100" xmlns="http://www.w3.org/2000/svg">
	<path d="m90 50c0 22.116-17.884 40-40 40-22.116 0-40-17.884-40-40 0-22.116 17.884-40 40-40 22.116 0 40 17.952 40 40zm-20.41 16.86v-21.57c0-10.785-8.7372-19.522-19.522-19.522-10.785 0-19.522 8.7373-19.522 19.522v21.57c0 1.4335 1.1605 2.5938 2.5938 2.5938 1.4335 0 2.594-1.1603 2.594-2.5938v-21.57c0-7.918 6.4845-14.403 14.403-14.403 7.918 0 14.403 6.4847 14.403 14.403v21.57c0 1.4335 1.1605 2.5938 2.5938 2.5938 1.297 0 2.4573-1.1603 2.4573-2.5938z" fill="#262262"/>
</svg>
