<svg version="1.1" viewBox="0 0 100 100" xmlns="http://www.w3.org/2000/svg">
  <defs>
    <style>
      .st0 {
        fill: #00205b;
      }

      .st1 {
        fill: #8d9093;
      }
    </style>
  </defs>
  <path class="st0" d="M38.83026,61.42163c-.49249.37878-.64404,1.02283-.3031,1.43951.3031.37885.94708.37885,1.43958,0,.45459-.37885.60608-1.02283.30304-1.43951-.30304-.41675-.94708-.41675-1.43951,0Z"/>
  <path class="st0" d="M41.86084,58.76984c-.53033.41669-.64398,1.09857-.30304,1.55316s1.06067.45459,1.55316,0c.53033-.41669.64398-1.13647.30304-1.55316-.34094-.41675-1.06067-.45459-1.55316,0Z"/>
  <path class="st0" d="M45.11877,56.08014c-.56824.45459-.71979,1.21228-.34094,1.70471.41669.49249,1.17432.49249,1.70471,0,.56824-.45459.71973-1.21222.34094-1.70471-.37885-.45459-1.13647-.45459-1.70471,0Z"/>
  <path class="st0" d="M44.96722,52.25403c.56824-.45459.71979-1.21228.34094-1.70477-.37885-.45459-1.13647-.45459-1.70471,0-.56824.49249-.71979,1.25018-.34094,1.70477.37878.45459,1.13647.45459,1.70471,0Z"/>
  <path class="st0" d="M42.58063,50.54926c-.37885-.45459-1.13647-.45459-1.70471,0s-.71979,1.21228-.34094,1.70477c.37878.45459,1.13647.45459,1.70471,0s.71973-1.21228.34094-1.70477Z"/>
  <path class="st0" d="M39.89093,50.62506c-.34094-.41675-1.06073-.45459-1.55316,0-.49249.41669-.64404,1.13647-.3031,1.55316.34094.41675,1.06073.41675,1.55322,0,.53033-.41669.64398-1.13647.30304-1.55316Z"/>
  <path class="st0" d="M41.59564,54.98157c.5304-.41675.64404-1.13647.3031-1.55322-.34094-.41669-1.06073-.45459-1.55322,0-.53033.41675-.64398,1.13647-.30304,1.55322.34094.41669,1.06073.41669,1.55316,0Z"/>
  <path class="st0" d="M35.72388,64.07336c-.41675.34094-.5304.94708-.2652,1.28802.30304.34094.87128.37885,1.28802,0,.41669-.34094.53033-.94708.26514-1.28802-.30304-.37878-.87128-.37878-1.28796,0Z"/>
  <path class="st0" d="M39.28485,53.42834c-.341-.41669-1.06073-.45459-1.55322,0-.49249.41675-.64398,1.13647-.30304,1.55322.34094.41669,1.06067.41669,1.55316,0,.5304-.41675.64404-1.13647.3031-1.55322Z"/>
  <path class="st0" d="M35.79962,57.6712c.45459-.41669.56824-1.02283.2652-1.43951-.3031-.41675-.94708-.41675-1.43958,0-.45459.37885-.60614,1.02283-.26514,1.43951.30304.37885.94702.41675,1.43951,0Z"/>
  <path class="st0" d="M36.63306,53.50415c-.3031-.37885-.94708-.41675-1.43958,0-.45459.37878-.60608,1.02283-.26514,1.43951.30304.37885.94702.41669,1.43951,0,.45459-.37885.60614-1.02283.2652-1.43951Z"/>
  <path class="st0" d="M38.37561,57.6712c.45459-.37878.60614-1.02283.3031-1.43951-.3031-.37885-.94708-.37885-1.43958,0-.49243.37878-.60608,1.02283-.30304,1.43951.30304.37885.94708.37885,1.43951,0Z"/>
  <path class="st0" d="M42.39117,56.15588c-.53033.41675-.64398,1.13654-.30304,1.55322s1.06073.45459,1.55316,0c.49249-.41669.64404-1.09863.3031-1.55322-.34094-.41669-1.06073-.41669-1.55322,0Z"/>
  <path class="st0" d="M35.76172,50.62506c-.53033.41669-.64398,1.13647-.30304,1.55316.34094.41675,1.06073.41675,1.55316,0,.5304-.41669.64404-1.13647.3031-1.55316-.34094-.41675-1.06073-.41675-1.55322,0Z"/>
  <path class="st0" d="M34.0191,53.50415c-.30304-.37885-.94702-.37885-1.43951,0-.45459.37878-.60614,1.02283-.30304,1.43951.30304.37885.94702.41669,1.43951,0s.64404-1.02283.30304-1.43951Z"/>
  <path class="st0" d="M33.37512,56.30743c-.30304-.37885-.87128-.37885-1.28802,0-.45459.34094-.56824.90918-.26514,1.28802.30304.37885.87128.37885,1.28796,0,.41675-.34094.5304-.94708.2652-1.28802Z"/>
  <path class="st0" d="M36.25421,61.49738c-.41669.34094-.53033.94708-.2652,1.28802.3031.34094.87134.37878,1.28802,0,.45459-.34094.56824-.94708.2652-1.28802-.3031-.34094-.87134-.37885-1.28802,0Z"/>
  <path class="st0" d="M35.45868,58.88348c-.30304-.37885-.87134-.37885-1.28802,0-.45459.37878-.56824.94702-.2652,1.28796.3031.341.87134.341,1.28802,0,.41675-.34094.5304-.94702.2652-1.28796Z"/>
  <path class="st0" d="M41.2926,56.19379c-.34094-.41669-1.06073-.45459-1.55316,0-.5304.41675-.64404,1.13647-.3031,1.55322.34094.41669,1.02283.41669,1.55322,0,.53033-.41675.64398-1.13647.30304-1.55322Z"/>
  <path class="st0" d="M39.28479,58.84558c-.49243.37885-.60608,1.02283-.30304,1.43951.30304.41675.94708.41675,1.43958,0,.49243-.41669.64398-1.06067.30304-1.43951-.30304-.37885-.94708-.37885-1.43958,0Z"/>
  <path class="st0" d="M44.58838,53.3526c-.37878-.45459-1.13647-.49249-1.70471,0-.56824.45459-.71979,1.21222-.34094,1.70471.37885.45459,1.13647.49249,1.70471,0,.56824-.45459.71979-1.21222.34094-1.70471Z"/>
  <path class="st0" d="M36.7088,58.84558c-.49249.37885-.60614,1.02283-.2652,1.43951.3031.37885.94708.41675,1.43958,0,.45459-.41669.56824-1.06067.26514-1.43951-.30304-.37885-.94702-.41669-1.43951,0Z"/>
  <path class="st0" d="M32.65533,66.72516c-.37878.34094-.49243.83344-.22729,1.17438.2652.34094.79553.34094,1.17438,0,.37885-.30304.49249-.83344.22729-1.17438s-.79553-.34094-1.17438,0Z"/>
  <path class="st0" d="M18.29785,74.75629c-.18945.18939-.2652.49249-.11365.64404.15149.18939.41669.18939.64398,0,.22729-.18945.2652-.45465.11365-.64404s-.41669-.18939-.64398,0Z"/>
  <path class="st0" d="M14.77472,69.56635c-.15149-.18939-.41669-.18939-.64398,0-.18939.18945-.2652.49249-.11365.64404.15155.18939.45459.18939.64398,0,.22729-.18945.2652-.45459.11365-.64404Z"/>
  <path class="st0" d="M16.21429,72.1803c-.18939.18939-.2652.45459-.11365.64398s.41669.18939.64398,0,.2652-.45459.11365-.64398c-.15149-.18945-.41669-.18945-.64398,0Z"/>
  <path class="st0" d="M17.8811,77.40808c-.18939.15155-.22729.41669-.11365.53033.11365.15155.34094.15155.5304,0,.18939-.15149.22729-.37878.11365-.53033s-.34094-.15155-.5304,0Z"/>
  <path class="st0" d="M17.35077,80.02197c-.18939.15155-.22729.37885-.11365.5304.11365.15149.34094.15149.53033,0,.18945-.15155.22729-.37885.11365-.5304-.11365-.15149-.34094-.15149-.53033,0Z"/>
  <path class="st0" d="M15.79761,74.83203c-.18945.15155-.22729.37885-.11365.5304.11365.15149.34094.15149.53033,0,.18939-.15155.22729-.37885.11365-.5304-.11365-.15149-.34094-.15149-.53033,0Z"/>
  <path class="st0" d="M13.71405,72.21814c-.18945.15155-.2652.37885-.11365.5304.11365.15149.34094.15149.53033,0,.18939-.15155.22729-.37885.11365-.5304-.11365-.15149-.34094-.15149-.53033,0Z"/>
  <path class="st0" d="M17.84326,67.71014c.26514-.22729.34094-.56824.15149-.79553-.18939-.22729-.53033-.22729-.79553,0-.22729.22729-.30304.56824-.15149.79553.18939.22729.53033.22729.79553,0Z"/>
  <path class="st0" d="M20.38141,77.37018c-.18945.18945-.22729.45459-.11365.64404.15149.18939.41669.18939.64398,0,.22729-.18945.2652-.45459.11365-.64404-.15155-.18939-.41669-.18939-.64398,0Z"/>
  <path class="st0" d="M33.64032,61.49738c-.41675.34094-.5304.90918-.2652,1.28802.30304.37878.87128.37878,1.28802,0,.41669-.34094.53033-.94708.2652-1.28802-.3031-.37885-.87134-.37885-1.28802,0Z"/>
  <path class="st0" d="M19.28278,69.4906c-.22729.22729-.30304.60614-.15155.79553.15155.22729.5304.22729.79559,0,.26514-.22729.34094-.56824.15149-.79553-.18939-.22729-.53033-.22729-.79553,0Z"/>
  <path class="st0" d="M17.27502,70.24823c.22729-.18939.26514-.45459.11365-.64398-.15155-.18939-.41675-.18939-.64404,0-.18939.15155-.26514.45459-.11365.64398.15155.18945.41675.18945.64404,0Z"/>
  <path class="st0" d="M18.82819,72.1803c-.18939.18939-.2652.45459-.11365.64398s.41669.18939.64398,0,.2652-.45459.11365-.64398c-.15149-.18945-.41669-.18945-.64398,0Z"/>
  <path class="st0" d="M21.40424,72.10449c-.2652.22729-.34094.56824-.15155.79553s.53033.22729.79553,0,.34094-.56824.15155-.79553c-.18945-.22729-.5304-.22729-.79553,0Z"/>
  <path class="st0" d="M10.11517,77.52173c-.11365.07574-.15155.2652-.07574.34094.07574.11365.22729.11365.37885,0,.11365-.11365.15149-.2652.07574-.34094-.07574-.11365-.2652-.11365-.37885,0Z"/>
  <path class="st0" d="M12.19873,80.13562c-.11365.07574-.15155.22729-.07574.34094.07574.11365.26514.11365.37878,0s.15155-.2652.07581-.34094c-.07581-.11365-.2652-.11365-.37885,0Z"/>
  <path class="st0" d="M15.26721,77.40808c-.18939.15155-.22729.41669-.11365.53033.11365.15155.34094.15155.5304,0,.18939-.15149.22729-.37878.11365-.53033s-.34094-.15155-.5304,0Z"/>
  <path class="st0" d="M11.10016,72.21814c-.18945.15155-.22729.41675-.11365.5304.11365.15149.34094.15149.53033,0,.18939-.15155.22729-.37885.11365-.5304-.11365-.15149-.34094-.15149-.53033,0Z"/>
  <path class="st0" d="M13.18365,74.83203c-.18939.15155-.22729.37885-.11365.5304.11365.15149.34094.15149.5304,0,.18939-.15155.22729-.37885.11365-.5304-.11365-.15149-.34094-.15149-.5304,0Z"/>
  <path class="st0" d="M10.64557,74.94568c-.15155.07581-.15155.22736-.07581.34094.07581.11371.22729.11371.37885,0,.11365-.11365.15155-.26514.07574-.34094-.07574-.11365-.26514-.11365-.37878,0Z"/>
  <path class="st0" d="M12.72906,77.52173c-.15149.07574-.15149.2652-.07574.34094.07574.11365.22729.11365.37885,0,.11365-.11365.15149-.2652.07574-.34094-.07574-.11365-.2652-.07574-.37885,0Z"/>
  <path class="st0" d="M14.81262,80.13562c-.11365.07574-.15155.22729-.07574.34094.07574.11365.22729.11365.37885,0,.11365-.11365.15149-.2652.07574-.34094-.07574-.11365-.2652-.11365-.37885,0Z"/>
  <path class="st0" d="M20.91174,74.75629c-.18939.18939-.2652.49249-.11365.64404.15155.18939.41669.18939.64398,0,.22729-.18945.2652-.45465.11365-.64404-.15149-.18939-.41669-.18939-.64398,0Z"/>
  <path class="st0" d="M28.07153,64.18701c-.37878.3031-.49243.75769-.22729,1.06073.22729.30304.68188.30304,1.02283,0s.45459-.75763.22729-1.06073c-.22729-.30304-.68188-.30304-1.02283,0Z"/>
  <path class="st0" d="M29.4353,62.70959c.37885-.34094.49249-.83337.22729-1.17432-.26514-.34094-.79553-.34094-1.17432,0-.37885.34094-.49249.87128-.22729,1.17432.26514.34094.79553.34094,1.17432,0Z"/>
  <path class="st0" d="M27.5791,58.95923c-.2652-.34094-.79553-.34094-1.17438,0-.37885.30304-.49249.83344-.22729,1.17438s.79553.34094,1.17438,0c.37878-.34094.49243-.83344.22729-1.17438Z"/>
  <path class="st0" d="M30.11725,66.80096c-.341.26514-.45465.75763-.22729,1.02283.22729.30304.68188.30304,1.02283,0,.34094-.3031.45459-.75769.22729-1.02283-.22729-.3031-.68188-.3031-1.02283,0Z"/>
  <path class="st0" d="M25.72284,62.67175c.22729.26514.68188.30304,1.02283,0,.34094-.3031.45459-.75769.22729-1.02283-.22729-.3031-.68188-.3031-1.02283,0-.34094.26514-.45459.71973-.22729,1.02283Z"/>
  <path class="st0" d="M29.58685,69.41486c-.34094.26514-.41669.71973-.18939,1.02283.22729.30304.68188.30304,1.02283,0,.34094-.3031.45459-.75769.22729-1.02283-.22729-.3031-.68188-.3031-1.06073,0Z"/>
  <path class="st0" d="M27.5033,66.80096c-.34094.26514-.41669.75763-.18939,1.02283.22729.30304.68188.30304,1.02283,0,.34094-.3031.45459-.75769.18939-1.02283-.22729-.3031-.68188-.3031-1.02283,0Z"/>
  <path class="st0" d="M30.76123,56.30743c-.30304-.37885-.87128-.37885-1.28802,0-.41669.34094-.53033.90918-.2652,1.28802.3031.37885.87134.37885,1.28802,0,.41675-.34094.5304-.94708.2652-1.28802Z"/>
  <path class="st0" d="M33.18573,64.14917c-.37885.30304-.49249.83337-.22729,1.17432.26514.341.79553.341,1.17432,0,.37885-.34094.49249-.83337.22729-1.17432-.26514-.3031-.79553-.34094-1.17432,0Z"/>
  <path class="st0" d="M32.57959,60.17145c.41669-.34094.53033-.94702.2652-1.28796-.3031-.37885-.87134-.37885-1.28802,0-.41669.37878-.53033.94702-.2652,1.28796.3031.341.87134.37885,1.28802,0Z"/>
  <path class="st0" d="M30.57184,64.14917c-.37885.30304-.49249.83337-.22729,1.17432.26514.341.79553.341,1.17432,0,.37885-.30304.49249-.83337.22729-1.17432-.26514-.34094-.79553-.34094-1.17432,0Z"/>
  <path class="st0" d="M32.27655,61.53528c-.2652-.34094-.79553-.34094-1.17438,0s-.49249.87128-.22729,1.17432c.2652.34094.79553.34094,1.17438,0,.37878-.30304.49243-.83337.22729-1.17432Z"/>
  <path class="st0" d="M30.19299,58.95923c-.2652-.34094-.79553-.34094-1.17438,0-.37885.30304-.49249.83344-.22729,1.17438s.79553.34094,1.17438,0c.37885-.3031.49249-.83344.22729-1.17438Z"/>
  <path class="st0" d="M23.29834,66.87671c-.18939-.2652-.60614-.2652-.90918,0-.30304.22729-.41669.64398-.18939.90918.18939.2652.60608.2652.90918,0,.30304-.2652.37878-.64398.18939-.90918Z"/>
  <path class="st0" d="M23.98022,72.10449c-.2652.22729-.30304.56824-.15155.79553.18945.22729.5304.22729.79553,0,.2652-.22729.341-.56824.15155-.79553-.18939-.22729-.53033-.22729-.79553,0Z"/>
  <path class="st0" d="M24.47272,69.4527c-.3031.2652-.41675.64404-.18945.90918.18945.2652.60614.2652.90924,0,.30304-.26514.37878-.64398.18939-.90918-.18939-.26514-.60614-.26514-.90918,0Z"/>
  <path class="st0" d="M20.3056,64.26282c-.34094.26514-.41669.68188-.18939.90918.18939.26514.60614.26514.90918,0,.30304-.2652.37885-.64404.18939-.90918-.18939-.2652-.60608-.2652-.90918,0Z"/>
  <path class="st0" d="M23.44989,74.68054c-.22729.22729-.3031.60608-.15155.79553.18939.22729.53033.22729.79553,0s.34094-.56824.15155-.79553c-.18945-.22729-.5304-.22729-.79553,0Z"/>
  <path class="st0" d="M21.89667,69.4906c-.26514.22729-.34094.60614-.15149.79553.18939.22729.53033.22729.79553,0,.26514-.22729.34094-.56824.15149-.79553-.18939-.22729-.53033-.22729-.79553,0Z"/>
  <path class="st0" d="M20.45715,67.71014c.2652-.22729.34094-.56824.15155-.79553-.18945-.22729-.5304-.22729-.79559,0-.26514.22729-.34094.56824-.15149.79553.15149.22729.53033.22729.79553,0Z"/>
  <path class="st0" d="M22.88165,64.26282c-.3031.26514-.37885.68188-.18945.90918.18945.26514.60614.26514.90918,0,.3031-.2652.37885-.64404.18945-.90918-.18945-.2652-.60614-.2652-.90918,0Z"/>
  <path class="st0" d="M26.55627,72.02875c-.3031.2652-.41675.68188-.18945.90918.18945.2652.60614.2652.90918,0,.3031-.2652.37885-.64398.18945-.90918-.18945-.2652-.60614-.2652-.90918,0Z"/>
  <path class="st0" d="M24.35907,61.57312c-.22729-.30304-.68188-.30304-1.02283,0-.34094.34094-.41675.79553-.18945,1.06073.22729.30304.68188.30304,1.02283,0,.341-.30304.45465-.75763.18945-1.06073Z"/>
  <path class="st0" d="M27.04871,69.4527c-.30304.2652-.37878.64404-.18939.90918.18939.2652.60614.2652.90918,0,.30304-.26514.37885-.64398.18939-.90918-.18939-.26514-.60608-.26514-.90918,0Z"/>
  <path class="st0" d="M26.44263,64.22491c-.22729-.30304-.68188-.30304-1.02283,0-.34094.2652-.41675.71979-.18945,1.02283s.68188.30304,1.02283,0,.45459-.75763.18945-1.02283Z"/>
  <path class="st0" d="M24.96521,66.87671c-.3031.22729-.37885.64398-.18945.90918.18945.2652.60614.2652.90918,0,.3031-.2652.37885-.64398.18945-.90918-.18945-.2652-.60614-.2652-.90918,0Z"/>
  <path class="st0" d="M44.77783,38.57837c.45459-.37885.56824-1.02283.26514-1.43951-.30304-.37885-.94708-.37885-1.40167,0-.45459.41669-.56824,1.06067-.26514,1.43951.30304.37885.94708.37885,1.40167,0Z"/>
  <path class="st0" d="M47.05078,41.23016c.53033-.41675.64398-1.13647.30304-1.55322-.34094-.41669-1.06073-.41669-1.55316,0-.5304.41675-.64404,1.13647-.3031,1.55322.34094.41669,1.06073.41669,1.55322,0Z"/>
  <path class="st0" d="M49.43738,43.9198c.56824-.45459.68188-1.21222.34094-1.70471-.37885-.49243-1.13647-.49243-1.70471,0-.56824.45459-.68188,1.21228-.34094,1.70471.37878.45459,1.13647.45459,1.70471,0Z"/>
  <path class="st0" d="M45.8764,47.74597c-.37885-.45459-1.13647-.45459-1.70471,0-.60614.49249-.71979,1.21222-.34094,1.70471.37885.45459,1.13647.45459,1.70471,0s.71979-1.21222.34094-1.70471Z"/>
  <path class="st0" d="M43.07306,47.74597c-.37878-.45459-1.13647-.45459-1.70471,0s-.71973,1.21222-.34094,1.70471c.45459.45459,1.21228.45459,1.74261,0,.56824-.45459.68188-1.21222.30304-1.70471Z"/>
  <path class="st0" d="M40.11823,49.37494c.5304-.41675.64404-1.13647.3031-1.55322-.34094-.41669-1.06073-.41669-1.55322,0-.53033.41675-.64398,1.13647-.30304,1.55322.34094.41669,1.06073.41669,1.55316,0Z"/>
  <path class="st0" d="M42.08813,45.01843c-.53033.41669-.68188,1.13647-.30304,1.55316.34094.41675,1.06067.41675,1.55316,0,.53033-.41669.64398-1.13647.30304-1.55316-.34094-.41675-1.06067-.41675-1.55316,0Z"/>
  <path class="st0" d="M42.61847,35.92657c.41675-.37885.5304-.94708.2652-1.28802-.30304-.34094-.87128-.34094-1.28802,0-.41669.34094-.53033.90918-.26514,1.28802.30304.34094.87128.34094,1.28796,0Z"/>
  <path class="st0" d="M41.0274,45.01843c-.34094-.41675-1.06067-.41675-1.55316,0-.5304.41669-.64398,1.13647-.3031,1.55316.341.41675,1.06073.41675,1.55322,0,.53033-.41669.64398-1.13647.30304-1.55316Z"/>
  <path class="st0" d="M37.16339,43.76831c.30304.37878.94708.37878,1.43951,0,.49249-.41675.60614-1.06073.2652-1.43958-.30304-.37878-.94708-.37878-1.43951,0-.45459.37885-.60614,1.02283-.2652,1.43958Z"/>
  <path class="st0" d="M38.33777,45.05627c-.3031-.37878-.94708-.37878-1.43958,0-.45459.41675-.56824,1.06073-.26514,1.43958.30304.37885.94702.37885,1.43951,0,.45459-.41675.60614-1.02283.2652-1.43958Z"/>
  <path class="st0" d="M39.77728,43.76831c.3031.37878.94708.37878,1.43958,0,.45459-.37885.60608-1.02283.26514-1.43958-.30304-.37878-.94702-.37878-1.43951,0-.45459.41675-.56824,1.06073-.2652,1.43958Z"/>
  <path class="st0" d="M45.00513,43.80615c.34094.41675,1.06067.41675,1.55316,0,.53033-.41669.68188-1.09857.30304-1.55316-.34094-.41669-1.06067-.41669-1.55316,0s-.64398,1.13647-.30304,1.55316Z"/>
  <path class="st0" d="M37.80737,47.82172c-.34094-.41669-1.06067-.41669-1.55316,0-.49249.41675-.64398,1.13647-.30304,1.55322.34094.41669,1.06067.41669,1.55316,0,.53033-.41675.64398-1.13647.30304-1.55322Z"/>
  <path class="st0" d="M35.45868,46.49585c.49249-.37885.60614-1.02283.2652-1.43958-.3031-.37878-.94708-.37878-1.43958,0-.45459.37885-.60614,1.02283-.2652,1.43958.3031.37885.94708.37885,1.43958,0Z"/>
  <path class="st0" d="M36.21631,42.40454c-.30304-.34094-.87128-.34094-1.28796,0-.45465.34094-.5683.94702-.2652,1.28796.30304.34094.87128.34094,1.28802,0,.41669-.37878.53033-.94702.26514-1.28796Z"/>
  <path class="st0" d="M40.83801,38.50262c.30304.34094.87128.34094,1.28802,0,.45459-.34094.56824-.94708.26514-1.28802-.30304-.34094-.87128-.34094-1.28796,0-.41675.37885-.5304.94708-.2652,1.28802Z"/>
  <path class="st0" d="M37.73163,41.11652c.30304.34094.87128.34094,1.28802,0,.41669-.37885.53033-.94708.22729-1.28802-.3031-.34094-.87134-.34094-1.28802,0-.37885.34094-.49249.90918-.22729,1.28802Z"/>
  <path class="st0" d="M44.17169,42.25299c-.34094-.41669-1.06073-.41669-1.55322,0-.53033.41669-.64398,1.13647-.30304,1.55316.34094.41675,1.06073.41675,1.55316,0,.5304-.41669.64404-1.13647.3031-1.55316Z"/>
  <path class="st0" d="M42.88367,41.19226c.30304.37885.94708.37885,1.43958,0,.45459-.41669.56824-1.06073.26514-1.43951-.30304-.37885-.94708-.37885-1.43951,0-.45459.41669-.60614,1.02283-.2652,1.43951Z"/>
  <path class="st0" d="M46.33099,44.94263c-.34094-.45459-1.09857-.45459-1.66681,0s-.71979,1.21228-.34094,1.70477c.37878.45459,1.13647.45459,1.70471,0,.56824-.45465.71973-1.21228.30304-1.70477Z"/>
  <path class="st0" d="M40.53497,39.75275c-.45459.37878-.60614,1.02283-.2652,1.43951.30304.37885.94708.37885,1.43951,0,.45459-.41669.60614-1.06073.2652-1.43951-.30304-.37885-.94708-.37885-1.43951,0Z"/>
  <path class="st0" d="M40.49707,33.27478c.37885-.34094.49249-.83337.22729-1.17432-.2652-.3031-.79553-.341-1.17438,0-.41669.30304-.49249.83337-.22729,1.17432.2652.3031.79553.3031,1.17438,0Z"/>
  <path class="st0" d="M28.71558,25.20581c.22729-.18945.26514-.45459.11365-.64404-.15155-.18939-.41675-.18939-.64404,0-.18939.18945-.22729.49249-.11365.64404.15155.18939.41675.18939.64404,0Z"/>
  <path class="st0" d="M22.54071,30.39569c.22729-.18939.26514-.45459.11365-.64398-.15155-.18939-.45459-.18939-.64404,0-.22729.18939-.26514.49249-.11365.64398.15155.18945.41675.18945.64404,0Z"/>
  <path class="st0" d="M25.64709,27.8197c.22729-.18939.26514-.45459.11365-.64404-.15155-.18939-.45459-.18939-.64404,0-.22729.18945-.2652.45465-.11365.64404s.41675.18939.64404,0Z"/>
  <path class="st0" d="M29.17017,22.55402c.18939-.15155.22729-.37885.11365-.5304-.11365-.15149-.34094-.15149-.5304,0-.15149.15155-.22729.41675-.11365.5304.11365.15155.34094.15155.5304,0Z"/>
  <path class="st0" d="M29.7005,19.97797c.18945-.15149.22729-.37878.11365-.53033s-.34094-.15155-.53033,0c-.18945.15155-.2652.37885-.11365.53033.11365.15155.34094.15155.53033,0Z"/>
  <path class="st0" d="M26.10168,25.16791c.18939-.15155.22729-.37885.11365-.53033-.11365-.15155-.34094-.15155-.5304,0-.18939.15149-.22729.37878-.11365.53033s.34094.15155.5304,0Z"/>
  <path class="st0" d="M22.9953,27.74396c.15149-.15155.22729-.37885.11365-.5304-.11365-.15149-.34094-.15149-.5304,0-.18939.15155-.22729.41675-.11365.5304.11365.15149.34094.15149.5304,0Z"/>
  <path class="st0" d="M24.85156,32.28986c-.18945-.22729-.5304-.22729-.79559,0-.22729.22729-.30304.56824-.15149.79553.18939.22729.53033.22729.79553,0s.34094-.56824.15155-.79553Z"/>
  <path class="st0" d="M31.82196,22.62976c.22729-.18939.30304-.49249.15149-.64398-.15149-.18945-.41669-.18945-.64398,0-.22729.18939-.30304.45459-.15155.64398.15155.18945.45459.18945.64404,0Z"/>
  <path class="st0" d="M38.45142,37.2146c-.37885.37885-.49249.94708-.22729,1.28802.30304.34094.87128.34094,1.28802,0,.41669-.37885.53033-.94708.22729-1.28802-.3031-.34094-.87134-.34094-1.28802,0Z"/>
  <path class="st0" d="M27.01086,30.4715c.18939.22729.53033.22729.79553,0,.26514-.22729.34094-.56824.15149-.79553-.18939-.22729-.53033-.22729-.79553,0-.26514.22729-.30304.60608-.15149.79553Z"/>
  <path class="st0" d="M24.51056,30.39569c.15155.18945.41675.18945.64404,0,.22729-.18939.2652-.45459.11365-.64398s-.41669-.18939-.64404,0c-.22729.18939-.26514.49249-.11365.64398Z"/>
  <path class="st0" d="M28.22308,27.8197c.22729-.18939.2652-.45459.11365-.64404-.15155-.18939-.45459-.18939-.64398,0-.18945.18945-.22729.45465-.11365.64404.15149.18939.41669.18939.64398,0Z"/>
  <path class="st0" d="M30.91278,27.89545c.26514-.22729.34094-.56824.15149-.79553-.18939-.22729-.53033-.22729-.79553,0-.26514.22729-.30304.56824-.15149.79553.18939.22729.53033.22729.79553,0Z"/>
  <path class="st0" d="M21.32843,22.47827c.11365-.11365.15155-.2652.0379-.341-.07574-.11365-.2652-.07574-.37885,0-.11365.07581-.11365.2652-.03784.341.07574.11365.26514.11365.37878,0Z"/>
  <path class="st0" d="M24.43481,19.86432c.11365-.11365.15155-.26514.07574-.34094-.07574-.11365-.26514-.11365-.37878,0-.15155.11365-.18945.2652-.07581.34094.07581.11365.2652.11365.37885,0Z"/>
  <path class="st0" d="M26.59412,22.55402c.18945-.15155.22729-.37885.11365-.5304-.11365-.15149-.34094-.15149-.53033,0-.18939.15155-.22729.37885-.11365.5304s.34094.15155.53033,0Z"/>
  <path class="st0" d="M20.38141,27.74396c.18939-.15155.22729-.37885.11365-.5304-.11365-.15149-.34094-.15149-.5304,0-.18939.15155-.22729.41675-.11365.5304.11365.15149.34094.15149.5304,0Z"/>
  <path class="st0" d="M23.48773,25.16791c.18945-.15155.22729-.37885.11365-.53033-.11365-.15155-.34094-.15155-.53033,0-.18939.15149-.22729.37878-.11365.53033s.34094.15155.53033,0Z"/>
  <path class="st0" d="M20.836,25.09216c.11365-.11365.15149-.2652.07574-.34094-.07574-.11365-.2652-.07581-.37885,0-.15149.07574-.18939.22729-.07574.34094.07574.11365.2652.11365.37885,0Z"/>
  <path class="st0" d="M23.90448,22.47827c.11365-.11365.15149-.2652.07574-.341-.07574-.11365-.2652-.11365-.37885,0-.11365.07581-.15149.22736-.07574.341s.2652.11365.37885,0Z"/>
  <path class="st0" d="M27.01086,19.86432c.11365-.11365.15149-.26514.07574-.34094-.07574-.11365-.2652-.11365-.37885,0s-.15149.2652-.07574.34094c.07574.07581.2652.11365.37885,0Z"/>
  <path class="st0" d="M31.32947,25.20581c.22729-.18945.2652-.45459.11365-.64404-.15155-.18939-.45459-.18939-.64398,0-.18945.18945-.2652.49249-.11365.64404.15149.18939.41669.18939.64398,0Z"/>
  <path class="st0" d="M33.86761,34.7901c-.34094.2652-.41675.71979-.18945,1.02283s.68195.30304,1.02289,0,.41669-.75763.18939-1.02283c-.22729-.30304-.68188-.30304-1.02283,0Z"/>
  <path class="st0" d="M33.10992,38.46472c.2652.34094.79553.30304,1.17438,0s.49249-.83344.22729-1.17438c-.2652-.30304-.79553-.30304-1.17438,0-.37878.3031-.49243.83344-.22729,1.17438Z"/>
  <path class="st0" d="M31.40521,39.86639c-.26514-.34094-.79553-.3031-1.17432,0-.37885.34094-.49249.87128-.22729,1.17432.26514.3031.79553.3031,1.17432,0,.37885-.34094.49249-.83337.22729-1.17432Z"/>
  <path class="st0" d="M37.80737,33.19904c.34094-.30304.41675-.75763.18945-1.02283-.22729-.3031-.68188-.3031-1.02283,0-.34094.2652-.41675.75763-.18945,1.02283.22729.30304.68188.30304,1.02283,0Z"/>
  <path class="st0" d="M30.57184,38.38898c.22729.30304.68188.26514,1.06067,0,.34094-.3031.41675-.75769.18945-1.06073s-.71979-.2652-1.02283,0c-.34094.30304-.45459.75763-.22729,1.06073Z"/>
  <path class="st0" d="M38.33777,30.62299c.34094-.30304.41669-.75763.18939-1.06067-.22729-.2652-.68188-.2652-1.02283,0-.37885.30304-.45459.75763-.22729,1.06067.22729.3031.68188.3031,1.06073,0Z"/>
  <path class="st0" d="M34.17065,33.19904c.22729.30304.68188.30304,1.02283,0s.41675-.75763.18945-1.02283c-.22729-.3031-.68188-.2652-1.02283,0-.3031.2652-.41675.75763-.18945,1.02283Z"/>
  <path class="st0" d="M32.31439,42.40454c-.45459.34094-.56824.94702-.26514,1.28796.30304.34094.87128.34094,1.28796,0,.41675-.37878.5304-.94702.2652-1.28796-.30304-.34094-.87128-.34094-1.28802,0Z"/>
  <path class="st0" d="M40.00458,35.85083c.37885-.34094.49249-.83344.22729-1.17438-.26514-.34094-.79553-.34094-1.17438,0-.41669.34094-.49243.87128-.22729,1.17438.2652.30304.79559.30304,1.17438,0Z"/>
  <path class="st0" d="M35.15564,41.11652c.30304.37878.87128.34094,1.28796,0,.41675-.34094.5304-.94708.22729-1.28802-.30304-.34094-.87128-.34094-1.28796,0-.41675.34094-.5304.90918-.22729,1.28802Z"/>
  <path class="st0" d="M36.21631,35.85083c.2652.30304.79553.34094,1.17438,0s.49249-.83344.22729-1.17438-.79553-.30304-1.17438,0c-.37878.34094-.49243.87128-.22729,1.17438Z"/>
  <path class="st0" d="M35.95117,37.29034c-.37885.3031-.49249.83344-.22729,1.17438.26514.34094.79553.30304,1.17432,0,.37885-.34094.49249-.83344.22729-1.17438-.26514-.34094-.79553-.30304-1.17432,0Z"/>
  <path class="st0" d="M32.61749,41.04071c.26514.3031.79553.3031,1.17432,0,.37885-.34094.49249-.83337.22729-1.17432-.26514-.34094-.79553-.34094-1.17432,0-.37885.34094-.49249.87128-.22729,1.17432Z"/>
  <path class="st0" d="M29.05652,33.12329c.18939.26514.60608.26514.90918,0,.30304-.2652.37885-.64404.18939-.90918-.18939-.2652-.60608-.2652-.90918,0-.30304.26514-.41669.68188-.18939.90918Z"/>
  <path class="st0" d="M33.52667,27.89545c.26514-.22729.34094-.56824.15149-.79553-.18939-.22729-.53033-.22729-.79553,0-.26514.22729-.34094.56824-.15149.79553.18939.22729.53033.22729.79553,0Z"/>
  <path class="st0" d="M32.1629,30.54724c.18939.2652.60608.2652.90918,0,.30304-.2652.37878-.64398.18939-.90918s-.60614-.2652-.90918,0c-.34094.2652-.41669.64398-.18939.90918Z"/>
  <path class="st0" d="M25.95013,35.73718c.18939.26514.60614.26514.90918,0,.30304-.2652.37885-.64404.18939-.90918-.18939-.2652-.60608-.2652-.90918,0-.30304.22729-.37878.64398-.18939.90918Z"/>
  <path class="st0" d="M34.0191,25.28156c.2652-.22729.34094-.56824.15155-.79553s-.53033-.22729-.79553,0-.34094.60614-.15155.79553c.18945.22729.5304.22729.79553,0Z"/>
  <path class="st0" d="M29.77631,29.67596c-.2652.22729-.341.60608-.15155.79553.18939.22729.53033.22729.79553,0s.34094-.56824.15155-.79553c-.18945-.22729-.5304-.22729-.79553,0Z"/>
  <path class="st0" d="M27.3139,33.08539c.2652-.22729.30304-.56824.15155-.79553-.18945-.22729-.5304-.22729-.79553,0-.2652.22729-.3031.56824-.15155.79553.18939.22729.53033.22729.79553,0Z"/>
  <path class="st0" d="M28.56403,35.73718c.18939.26514.60614.26514.90918,0,.3031-.2652.37885-.68188.18945-.90918-.18945-.2652-.60614-.2652-.90924,0-.34094.22729-.41669.64398-.18939.90918Z"/>
  <path class="st0" d="M36.14056,27.97125c.30304-.2652.37885-.64404.18939-.90924-.18939-.26514-.60608-.26514-.90918,0-.30304.22736-.37878.64404-.18939.90924.18939.26514.60614.26514.90918,0Z"/>
  <path class="st0" d="M27.99579,38.38898c.22729.30304.71979.30304,1.06073,0,.34094-.3031.41669-.75769.18939-1.06073-.22729-.2652-.68188-.2652-1.02283,0-.37885.30304-.45459.75763-.22729,1.06073Z"/>
  <path class="st0" d="M35.64807,30.54724c.3031-.2652.37885-.64398.18945-.90918-.18945-.2652-.60614-.2652-.90918,0-.3031.2652-.37885.64398-.18945.90918.18945.2652.60614.2652.90918,0Z"/>
  <path class="st0" d="M31.06427,35.81293c.22729.30304.68188.30304,1.06073,0,.34094-.30304.41669-.75763.18939-1.02283-.22729-.30304-.68188-.30304-1.02283,0-.34094.2652-.45459.71979-.22729,1.02283Z"/>
  <path class="st0" d="M31.8598,32.21411c-.34094.26514-.41669.68188-.18939.90918.18939.26514.60614.26514.90918,0,.30304-.2652.37885-.68188.18939-.90918-.18939-.2652-.60608-.2652-.90918,0Z"/>
  <path class="st0" d="M49.74042,46.68524c.41675.49249,1.21228.49249,1.81836,0,.60614-.49249.75769-1.32587.37885-1.81836-.41669-.49249-1.21222-.49249-1.81836,0s-.75763,1.32587-.37885,1.81836Z"/>
  <path class="st0" d="M50.19501,53.3147c-.41669-.49243-1.21222-.49243-1.81836,0-.60614.49249-.75763,1.32593-.34094,1.81836.41669.49249,1.21222.49249,1.81836,0,.60614-.49243.75769-1.32587.34094-1.81836Z"/>
  <path class="st0" d="M50.4223,52.32977c.60614-.49249.75769-1.32587.34094-1.81836-.37878-.5304-1.21222-.5304-1.81836,0-.60614.49249-.75763,1.32587-.34094,1.81836.41675.49249,1.21228.49249,1.81836,0Z"/>
  <path class="st0" d="M50.99054,49.48859c.60614-.49249.75769-1.32593.34094-1.81836-.37878-.49249-1.21222-.49249-1.81836,0-.60608.49243-.75763,1.32587-.34094,1.81836.41675.49243,1.21228.49243,1.81836,0Z"/>
  <path class="st0" d="M48.07361,50.51141c-.37885-.5304-1.21228-.5304-1.81836,0-.60614.49249-.75769,1.32587-.34094,1.81836.41669.49249,1.21222.49249,1.81836,0,.60608-.49249.75763-1.32587.34094-1.81836Z"/>
  <path class="st0" d="M48.33875,49.48859c.60614-.49249.75769-1.32593.341-1.81836-.41675-.49249-1.21228-.49249-1.81842,0-.60608.49243-.75763,1.32587-.34094,1.81836.41675.49243,1.21228.49243,1.81836,0Z"/>
  <path class="st0" d="M47.42957,44.86688c-.60608.49249-.75763,1.32587-.34094,1.81836.41675.49249,1.21228.49249,1.81842,0,.60608-.49249.75763-1.32587.34094-1.81836-.37885-.49249-1.21228-.49249-1.81842,0Z"/>
  <path class="st0" d="M45.68701,53.3147c-.60614.49249-.75769,1.32593-.34094,1.81836.41669.49249,1.21222.49249,1.81836,0,.60608-.49243.75763-1.32587.34094-1.81836-.41675-.53033-1.21228-.49243-1.81836,0Z"/>
  <path class="st1" d="M61.18097,38.57837c.49249-.37885.64404-1.02283.3031-1.43951-.3031-.37885-.94708-.41675-1.43958,0-.49249.37878-.60614,1.02283-.30304,1.43951.30304.37885.94708.41669,1.43951,0Z"/>
  <path class="st1" d="M58.07458,41.23016c.49249-.41675.64404-1.13647.3031-1.55322-.34094-.41669-1.06073-.41669-1.55322,0-.53033.41675-.64398,1.13647-.30304,1.55322.34094.41669,1.06073.45459,1.55316,0Z"/>
  <path class="st1" d="M55.04401,47.74597c-.56824.45459-.71979,1.21222-.34094,1.70471.37885.45459,1.13647.49249,1.70471,0s.71979-1.21222.34094-1.70471c-.37885-.45459-1.13647-.45459-1.70471,0Z"/>
  <path class="st1" d="M57.3927,49.45068c.37885.45459,1.13654.45459,1.70477,0s.71973-1.21222.34094-1.70471c-.37885-.45459-1.13654-.45459-1.70477,0s-.71973,1.21222-.34094,1.70471Z"/>
  <path class="st1" d="M60.1203,49.37494c.34094.41669,1.06067.45459,1.55316,0,.49249-.41675.64398-1.13647.30304-1.55322-.34094-.41669-1.06067-.41669-1.55316,0-.53033.41675-.64398,1.13647-.30304,1.55322Z"/>
  <path class="st1" d="M58.41553,45.01843c-.53033.41669-.64398,1.13647-.30304,1.55316.34094.41675,1.06073.45459,1.55322,0,.49243-.41669.64398-1.13647.30304-1.55316-.34094-.41675-1.06073-.41675-1.55322,0Z"/>
  <path class="st1" d="M64.24951,35.92657c.45459-.34094.56824-.94708.26514-1.28802-.30304-.37878-.87128-.37878-1.28802,0-.41669.34094-.53033.94708-.26514,1.28802.30304.37885.87128.37885,1.28802,0Z"/>
  <path class="st1" d="M60.68854,46.57159c.34094.41675,1.06067.45459,1.55316,0,.53033-.41669.64398-1.13647.30304-1.55316-.34094-.41675-1.06067-.41675-1.55316,0-.53033.41669-.64398,1.13647-.30304,1.55316Z"/>
  <path class="st1" d="M64.21161,42.32874c-.45459.37885-.56824,1.02283-.2652,1.43958.3031.41669.94708.41669,1.43958,0,.45459-.37885.60608-1.02283.26514-1.43958-.30304-.37878-.94702-.37878-1.43951,0Z"/>
  <path class="st1" d="M63.37817,46.49585c.3031.37885.94708.41669,1.43958,0,.45459-.37885.56824-1.02283.26514-1.43958-.30304-.41669-.94702-.41669-1.43951,0-.45459.37885-.60614,1.02283-.2652,1.43958Z"/>
  <path class="st1" d="M61.63556,42.32874c-.45459.37885-.60608,1.02283-.30304,1.43958.30304.37878.94708.41669,1.43951,0,.49249-.37885.60614-1.02283.3031-1.43958-.3031-.37878-.94708-.37878-1.43958,0Z"/>
  <path class="st1" d="M57.54425,43.84406c.53033-.41669.64398-1.13647.30304-1.55316-.34094-.41675-1.06067-.45465-1.55316,0-.53033.41669-.68188,1.09857-.30304,1.55316.34094.41669,1.06067.45459,1.55316,0Z"/>
  <path class="st1" d="M64.24951,49.37494c.53033-.41675.64398-1.13647.30304-1.55322-.34094-.41669-1.06073-.41669-1.55322,0-.53033.41675-.64398,1.13647-.30304,1.55322.34094.41669,1.02283.41669,1.55322,0Z"/>
  <path class="st1" d="M65.95422,46.49585c.30304.37885.94702.41669,1.43951,0,.45459-.37885.60614-1.02283.30304-1.43958-.30304-.41669-.94702-.41669-1.43951,0-.49249.41675-.60614,1.06073-.30304,1.43958Z"/>
  <path class="st1" d="M66.63611,43.6925c.30304.37885.87128.37885,1.28802,0,.41669-.34094.53033-.94702.26514-1.28796-.30304-.37885-.87128-.37885-1.28802,0-.41669.34094-.53033.94702-.26514,1.28796Z"/>
  <path class="st1" d="M63.75702,38.50262c.41669-.34094.53033-.94708.26514-1.28802-.30304-.34094-.87128-.37885-1.28796,0-.45459.34094-.56824.94708-.2652,1.28802s.87134.37878,1.28802,0Z"/>
  <path class="st1" d="M64.55255,41.07861c.30304.37885.87128.37885,1.28802,0,.41669-.34094.53033-.90918.26514-1.28802-.30304-.34094-.87128-.37878-1.28796,0-.41675.34094-.5304.94708-.2652,1.28802Z"/>
  <path class="st1" d="M58.68073,43.80615c.34094.41675,1.02283.45459,1.55322,0,.53033-.41669.64398-1.13647.30304-1.55316s-1.06073-.41669-1.55316,0c-.5304.41669-.64404,1.13647-.3031,1.55316Z"/>
  <path class="st1" d="M60.68854,41.15436c.49243-.37878.60608-1.02283.30304-1.43951-.30304-.37885-.94708-.41669-1.43951,0-.49249.41669-.60614,1.06073-.3031,1.43951.3031.37885.94708.41675,1.43958,0Z"/>
  <path class="st1" d="M55.3092,46.6474c.37878.45459,1.13647.49243,1.70471,0,.56824-.45465.71973-1.21228.34094-1.70477-.37885-.45459-1.13647-.45459-1.70471,0s-.71979,1.21228-.34094,1.70477Z"/>
  <path class="st1" d="M63.30243,41.15436c.49249-.37878.60614-1.02283.26514-1.43951-.30304-.37885-.94702-.41669-1.43951,0-.45459.41669-.56824,1.06073-.2652,1.43951.3031.37885.94708.41675,1.43958,0Z"/>
  <path class="st1" d="M67.35583,33.27478c.37885-.34094.45459-.87128.22729-1.17432-.26514-.341-.79553-.341-1.17432,0-.37885.30304-.49249.83337-.22729,1.17432.26514.34094.79553.34094,1.17432,0Z"/>
  <path class="st1" d="M81.14514,24.56177c-.22729.18945-.2652.45459-.11365.64404.15155.18939.41669.18939.64398,0,.22729-.15155.2652-.45459.11365-.64404-.15149-.18939-.41669-.18939-.64398,0Z"/>
  <path class="st1" d="M85.31226,29.75171c-.22729.18939-.2652.45459-.11365.64398.15149.18945.41669.18945.64398,0,.22729-.15149.2652-.45459.11365-.64398s-.41669-.18939-.64398,0Z"/>
  <path class="st1" d="M83.2287,27.17572c-.22729.18939-.2652.45459-.11365.64398s.41669.18939.64398,0,.2652-.45459.11365-.64398c-.15149-.18945-.41669-.18945-.64398,0Z"/>
  <path class="st1" d="M82.13007,22.55402c.18945-.11365.22729-.37885.11365-.5304-.11365-.15149-.34094-.15149-.53033,0-.18939.15155-.22729.37885-.11365.5304s.34094.15155.53033,0Z"/>
  <path class="st1" d="M82.66046,19.97797c.18939-.15149.22729-.37878.11365-.53033s-.34094-.15155-.53033,0c-.18945.15155-.22736.37885-.11365.53033.11365.15155.34094.15155.53033,0Z"/>
  <path class="st1" d="M83.79694,24.63757c-.18939.15149-.22729.37878-.11365.53033s.34094.15155.53033,0c.18945-.15155.22729-.37885.11365-.53033-.11365-.15155-.34094-.15155-.53033,0Z"/>
  <path class="st1" d="M85.88049,27.25146c-.18945.15155-.22729.37885-.11365.53033.11365.15155.34094.15155.53033,0,.18939-.15149.22729-.41669.11365-.53033-.11365-.15155-.34094-.15155-.53033,0Z"/>
  <path class="st1" d="M82.13007,32.28986c-.26514.22729-.34094.56824-.15149.79553.18939.22729.53033.22729.79553,0s.34094-.56824.15155-.79553c-.18945-.22729-.5304-.22729-.79559,0Z"/>
  <path class="st1" d="M79.59198,22.62976c.22729-.18939.26514-.45459.11365-.64398-.15155-.18945-.41675-.18945-.64404,0-.22729.18939-.26514.45459-.11365.64398.15155.18945.41675.18945.64404,0Z"/>
  <path class="st1" d="M66.33301,38.50262c.45459-.34094.56824-.90918.2652-1.28802-.30304-.34094-.87128-.37885-1.28802,0-.41669.34094-.53033.94708-.26514,1.28802.30304.37878.87128.37878,1.28796,0Z"/>
  <path class="st1" d="M80.04657,29.71381c-.2652.22729-.34094.56824-.15155.79553s.53033.22729.79553,0,.34094-.60608.15155-.79553c-.15155-.22729-.5304-.22729-.79553,0Z"/>
  <path class="st1" d="M82.73621,29.75171c-.22729.18939-.26514.45459-.11365.64398.15155.18945.45459.18945.64404,0,.18939-.15149.26514-.45459.11365-.64398-.15155-.18939-.41675-.18939-.64404,0Z"/>
  <path class="st1" d="M80.65265,27.17572c-.22729.18939-.26514.45459-.11365.64398.15155.18939.41675.18939.64404,0,.18939-.18939.26514-.45459.11365-.64398-.15155-.18945-.41675-.18945-.64404,0Z"/>
  <path class="st1" d="M78.60699,27.89545c.2652-.22729.34094-.56824.15155-.79553s-.53033-.22729-.79553,0-.34094.56824-.15155.79553c.18945.22729.5304.22729.79553,0Z"/>
  <path class="st1" d="M89.9339,22.13727c-.07574-.11365-.22729-.11365-.37878,0-.11365.11365-.15155.2652-.07581.341.07581.11365.2652.11365.37885,0,.15155-.11365.18939-.2652.07574-.341Z"/>
  <path class="st1" d="M87.47156,19.52338c-.11365.11365-.15155.2652-.07574.34094.07574.11365.26514.11365.37878,0,.15155-.07574.18945-.22729.07581-.34094-.07581-.11365-.2652-.11365-.37885,0Z"/>
  <path class="st1" d="M84.32727,22.02362c-.18939.15155-.22729.37885-.11365.5304s.34094.15155.5304,0c.15149-.15155.22729-.37885.11365-.5304-.11365-.15149-.34094-.15149-.5304,0Z"/>
  <path class="st1" d="M88.49438,27.25146c-.18939.15155-.22729.37885-.11365.53033.11365.15155.34094.15155.53033,0,.18945-.15149.22729-.41669.11365-.53033-.11365-.15155-.34094-.15155-.53033,0Z"/>
  <path class="st1" d="M86.41083,24.63757c-.18939.15149-.22729.37878-.11365.53033s.34094.15155.53033,0c.18945-.15155.22736-.37885.11371-.53033-.11371-.15155-.34094-.15155-.5304,0Z"/>
  <path class="st1" d="M89.06262,24.71332c-.11365.11365-.15155.2652-.07574.34094.07574.11365.26514.11365.37878,0,.11365-.07574.15155-.22729.07581-.34094-.07581-.11365-.22729-.11365-.37885,0Z"/>
  <path class="st1" d="M86.97906,22.13727c-.11365.11365-.15155.2652-.07574.341.07574.11365.26514.11365.37878,0,.11371-.11365.15155-.2652.07581-.341-.07581-.11365-.22729-.11365-.37885,0Z"/>
  <path class="st1" d="M85.27435,19.52338c-.07574-.11365-.22729-.11365-.37885,0-.11365.11365-.15149.2652-.07574.34094.07574.11365.2652.07581.37885,0,.11365-.07574.15149-.22729.07574-.34094Z"/>
  <path class="st1" d="M79.09949,25.20581c.18939-.15155.22729-.45459.11365-.64404-.15155-.18939-.41669-.18939-.64398,0-.22729.18945-.2652.45459-.11365.64404.15149.18939.41669.18939.64398,0Z"/>
  <path class="st1" d="M71.97754,35.77502c.34094-.26514.41675-.71973.18939-1.02283-.22729-.30304-.68188-.30304-1.02283,0-.34094.3031-.45459.75769-.22729,1.02283.22729.3031.68188.3031,1.06073,0Z"/>
  <path class="st1" d="M71.52295,38.46472c.37885-.34094.45459-.87128.22729-1.17438-.2652-.34094-.79553-.34094-1.17438,0-.37878.3031-.49243.83344-.22729,1.17438.2652.34094.79553.34094,1.17438,0Z"/>
  <path class="st1" d="M73.60651,41.04071c.37885-.30304.45459-.83337.22729-1.17432-.2652-.34094-.79553-.34094-1.17438,0s-.49249.83337-.22729,1.17432.79553.34094,1.17438,0Z"/>
  <path class="st1" d="M69.89398,33.19904c.34094-.2652.41675-.75763.18945-1.02283-.22729-.30304-.68188-.30304-1.02283,0s-.45459.75763-.18945,1.02283c.22729.30304.68188.30304,1.02283,0Z"/>
  <path class="st1" d="M74.25049,37.32825c-.22729-.2652-.68188-.30304-1.02283,0s-.45459.75763-.18939,1.02283c.22729.30304.68188.30304,1.02283,0,.34094-.2652.41669-.71979.18939-1.02283Z"/>
  <path class="st1" d="M70.42438,30.62299c.30304-.30304.41669-.75763.18939-1.06067-.22729-.3031-.68188-.3031-1.02283,0-.34094.30304-.45459.75763-.18939,1.06067.22729.3031.68188.3031,1.02283,0Z"/>
  <path class="st1" d="M72.50787,33.19904c.3031-.2652.41675-.75763.18945-1.02283-.22729-.30304-.68188-.30304-1.02283,0s-.45459.75763-.22729,1.02283c.22729.30304.68188.30304,1.06067,0Z"/>
  <path class="st1" d="M69.2121,43.6925c.3031.37885.87134.37885,1.28802,0,.45459-.34094.56824-.94702.2652-1.28796-.3031-.37885-.87134-.37885-1.28802,0-.41669.34094-.53033.94702-.2652,1.28796Z"/>
  <path class="st1" d="M66.8255,35.85083c.37885-.3031.49249-.83344.22729-1.17438s-.79553-.34094-1.17438,0c-.37878.34094-.49243.83344-.22729,1.17438.2652.34094.79553.34094,1.17438,0Z"/>
  <path class="st1" d="M67.39374,39.79059c-.41669.34094-.53033.94708-.2652,1.28802.3031.34094.87134.37885,1.28802,0,.45459-.34094.56824-.90918.2652-1.28802-.3031-.37878-.87134-.37878-1.28802,0Z"/>
  <path class="st1" d="M69.43939,35.85083c.37885-.3031.45459-.83344.22729-1.17438-.26514-.34094-.79553-.34094-1.17438,0-.37878.30304-.49243.83344-.22729,1.17438.2652.34094.79559.34094,1.17438,0Z"/>
  <path class="st1" d="M67.73468,38.46472c.2652.34094.79553.34094,1.17438,0s.49249-.87128.22729-1.17438c-.2652-.34094-.79553-.34094-1.17438,0-.37885.3031-.49249.83344-.22729,1.17438Z"/>
  <path class="st1" d="M69.81824,41.04071c.2652.34094.79553.34094,1.17438,0,.37878-.30304.49243-.83337.22729-1.17432-.2652-.34094-.79553-.34094-1.17438,0-.37885.30304-.49249.83337-.22729,1.17432Z"/>
  <path class="st1" d="M77.81146,32.21411c-.18939-.2652-.60614-.2652-.90918,0-.30304.26514-.37885.64398-.18939.90918.18939.26514.60614.26514.90918,0,.30304-.22729.37885-.64404.18939-.90918Z"/>
  <path class="st1" d="M76.03101,27.89545c.22729-.22729.30304-.56824.15149-.79553-.18939-.22729-.53033-.22729-.79553,0-.26514.22729-.34094.56824-.15149.79553.18939.22729.53033.22729.79553,0Z"/>
  <path class="st1" d="M75.53851,30.54724c.30304-.2652.37885-.64398.18939-.90918-.18939-.2652-.60608-.2652-.90918,0-.30304.2652-.37878.64398-.18939.90918s.60614.2652.90918,0Z"/>
  <path class="st1" d="M78.79645,35.73718c.18939.26514.60608.26514.90918,0,.30304-.2652.37878-.68188.18939-.90918-.18939-.2652-.60614-.2652-.90918,0-.30304.26514-.37885.64398-.18939.90918Z"/>
  <path class="st1" d="M76.52344,25.31946c.2652-.22729.34094-.60614.15155-.79553-.18939-.22729-.53033-.22729-.79553,0s-.34094.56824-.15155.79553c.18945.22729.5304.22729.79553,0Z"/>
  <path class="st1" d="M77.47052,29.71381c-.2652.22729-.34094.56824-.15155.79553.18945.22729.5304.22729.79559,0,.22729-.22729.30304-.60608.15149-.79553-.18939-.22729-.53033-.22729-.79553,0Z"/>
  <path class="st1" d="M79.55408,32.28986c-.2652.22729-.34094.56824-.15155.79553.18945.22729.5304.22729.79553,0,.22729-.22729.3031-.56824.15155-.79553s-.53033-.22729-.79553,0Z"/>
  <path class="st1" d="M77.28113,34.828c-.18945-.2652-.60614-.2652-.90918,0-.3031.26514-.37885.64398-.18945.90918.18945.26514.60614.26514.90918,0,.34094-.2652.41675-.68188.18945-.90918Z"/>
  <path class="st1" d="M73.45496,27.93335c.3031-.22729.37885-.64404.18945-.90918-.18945-.2652-.60614-.2652-.90918,0-.3031.2652-.37885.64398-.18945.90918.18945.2652.60614.2652.90918,0Z"/>
  <path class="st1" d="M76.86438,37.32825c-.22729-.30304-.68188-.30304-1.02283,0s-.45459.75763-.18939,1.06073c.22729.30304.68188.30304,1.02283,0,.30304-.3031.41669-.75769.18939-1.06073Z"/>
  <path class="st1" d="M72.92462,30.54724c.34094-.2652.41669-.64398.18939-.90918-.18939-.2652-.60614-.2652-.90918,0s-.37885.64398-.18939.90918c.18939.2652.60614.2652.90918,0Z"/>
  <path class="st1" d="M73.53076,35.77502c.22729.3031.68188.3031,1.06067,0,.3031-.26514.41675-.71973.18945-1.02283-.22729-.30304-.68188-.30304-1.02283,0-.34094.3031-.45459.75769-.22729,1.02283Z"/>
  <path class="st1" d="M75.00818,33.12329c.34094-.22729.41669-.64404.18939-.90918-.18939-.2652-.60614-.2652-.90918,0-.30304.26514-.37885.64398-.18939.90918.18939.26514.60608.26514.90918,0Z"/>
  <path class="st1" d="M55.15765,61.42163c-.45459.37878-.60614,1.02283-.2652,1.43951.3031.37885.94708.37885,1.43958,0,.45459-.41669.56824-1.06073.26514-1.43951-.30304-.37885-.94702-.37885-1.43951,0Z"/>
  <path class="st1" d="M52.92255,58.76984c-.53033.41669-.64398,1.13647-.30304,1.55316s1.06073.41669,1.55322,0c.53033-.45459.64398-1.13647.30304-1.55316-.34094-.41675-1.06073-.41675-1.55322,0Z"/>
  <path class="st1" d="M54.13483,52.25403c.37885.45459,1.13647.45459,1.70471,0s.71979-1.21228.34094-1.70477c-.37885-.45459-1.13647-.45459-1.70471,0s-.71979,1.21228-.34094,1.70477Z"/>
  <path class="st1" d="M56.86237,52.25403c.37885.45459,1.13647.45459,1.70471,0s.71979-1.21228.34094-1.70477c-.41669-.45459-1.17438-.45459-1.74261,0s-.68188,1.21228-.30304,1.70477Z"/>
  <path class="st1" d="M61.40826,50.62506c-.34094-.41675-1.06067-.41675-1.55316,0-.49249.41669-.64398,1.13647-.3031,1.55316.34094.41675,1.06073.41675,1.55322,0,.49249-.41669.64398-1.13647.30304-1.55316Z"/>
  <path class="st0" d="M51.86188,49.48859c.41669.53033,1.21222.53033,1.81836,0,.60614-.49249.75763-1.32593.37885-1.81836-.41675-.49249-1.21228-.49249-1.81842,0-.60608.49243-.75763,1.32587-.37878,1.81836Z"/>
  <path class="st0" d="M53.45294,50.51141c-.41675-.5304-1.21228-.5304-1.81836,0-.60614.49249-.75769,1.32587-.34094,1.81836.41669.49249,1.21222.49249,1.81836,0s.75763-1.32587.34094-1.81836Z"/>
  <path class="st1" d="M54.81671,43.9198c.56824-.45459.71979-1.21222.34094-1.70471-.37885-.49243-1.13647-.49243-1.70471,0-.56824.45459-.71979,1.21228-.34094,1.70471.37878.45459,1.13647.49249,1.70471,0Z"/>
  <path class="st1" d="M54.28638,46.68524c.60608-.49249.75763-1.32587.37878-1.81836-.41669-.49249-1.21222-.49249-1.81836,0-.64398.49249-.79553,1.32587-.37885,1.81836.41675.49249,1.21228.49249,1.81842,0Z"/>
  <path class="st1" d="M52.27856,56.08014c-.37885-.45459-1.13647-.45459-1.70471,0s-.68188,1.21228-.30304,1.70471c.34094.49249,1.09857.49249,1.66681,0,.56824-.45459.71979-1.21222.34094-1.70471Z"/>
  <path class="st1" d="M52.50586,55.13306c.60614-.49243.75769-1.32587.34094-1.81836-.41669-.49243-1.21222-.49243-1.81836,0-.56824.49249-.71979,1.32593-.34094,1.81836.41669.49249,1.21222.49249,1.81836,0Z"/>
  <path class="st1" d="M56.63507,53.42834c-.53033.41675-.64398,1.13647-.30304,1.55322.34094.41669,1.06067.41669,1.55316,0,.53033-.41675.68188-1.13647.30304-1.55322-.34094-.41669-1.06067-.41669-1.55316,0Z"/>
  <path class="st1" d="M57.35486,64.07336c-.41675.34094-.5304.94708-.2652,1.28802.30304.34094.87128.34094,1.28802,0,.41669-.34094.53033-.94708.26514-1.28802-.30304-.34094-.87128-.34094-1.28796,0Z"/>
  <path class="st1" d="M59.24896,53.42834c-.53033.41675-.64398,1.13647-.30304,1.55322.34094.41669,1.06073.41669,1.55316,0,.5304-.41675.64404-1.13647.3031-1.55322-.34094-.41669-1.06073-.41669-1.55322,0Z"/>
  <path class="st1" d="M62.80994,56.23169c-.30304-.37885-.94708-.37885-1.43951,0-.49249.41669-.60614,1.06073-.2652,1.43951.30304.37885.94708.37885,1.43951,0,.45459-.41669.60614-1.02283.2652-1.43951Z"/>
  <path class="st1" d="M63.07513,54.94366c.45459-.41669.56824-1.06073.2652-1.43951-.3031-.37885-.94708-.37885-1.43958,0-.45459.37878-.60614,1.02283-.2652,1.43951.3031.41669.94708.37885,1.43958,0Z"/>
  <path class="st1" d="M60.19604,56.23169c-.30304-.37885-.94708-.37885-1.43951,0-.45465.41669-.60614,1.02283-.2652,1.43951.30304.37885.94708.37885,1.43951,0,.45459-.41669.56824-1.06067.2652-1.43951Z"/>
  <path class="st1" d="M54.96826,56.19379c-.34094-.41669-1.06073-.41669-1.55322,0-.53033.41675-.64398,1.09863-.30304,1.55322.34094.41669,1.06073.41669,1.55316,0,.5304-.41675.64404-1.13647.3031-1.55322Z"/>
  <path class="st1" d="M63.98431,50.62506c-.34094-.41675-1.06073-.41675-1.55322,0-.53033.41669-.64398,1.13647-.30304,1.55316.34094.41675,1.06073.41675,1.55322,0,.53033-.41669.64398-1.13647.30304-1.55316Z"/>
  <path class="st1" d="M65.95422,53.50415c-.3031-.37885-.94708-.37885-1.43958,0-.49249.41669-.60614,1.06067-.26514,1.43951.30304.37885.94702.37885,1.43951,0,.45459-.37885.60614-1.02283.2652-1.43951Z"/>
  <path class="st1" d="M65.04504,57.59546c.45459-.37885.56824-.94708.26514-1.28802-.30304-.34094-.87128-.34094-1.28796,0-.41675.37885-.5304.94708-.2652,1.28802.30304.34094.87128.34094,1.28802,0Z"/>
  <path class="st1" d="M59.13531,61.49738c-.30304-.34094-.87128-.34094-1.28802,0-.45459.34094-.56824.94708-.26514,1.28802.30304.34094.87128.34094,1.28802,0,.41669-.37885.53033-.94708.26514-1.28802Z"/>
  <path class="st1" d="M62.2417,58.88348c-.30304-.34094-.87128-.34094-1.28802,0-.41669.37878-.53033.94702-.26514,1.28796.30304.341.87128.341,1.28796,0,.41675-.34094.5304-.90918.2652-1.28796Z"/>
  <path class="st1" d="M57.35486,57.74701c.53033-.41675.64398-1.13647.30304-1.55322-.34094-.41669-1.06073-.41669-1.55316,0-.49249.41675-.64404,1.13647-.3031,1.55322.34094.41669,1.06073.41669,1.55322,0Z"/>
  <path class="st1" d="M57.08966,58.80768c-.30304-.37878-.94708-.37878-1.43951,0-.45459.41675-.56824,1.06073-.2652,1.43958.30304.37878.94708.37878,1.43951,0,.45459-.37885.60614-1.02283.2652-1.43958Z"/>
  <path class="st1" d="M55.2713,55.05731c.56824-.45459.71979-1.21222.34094-1.70471-.37885-.45459-1.13647-.45459-1.70471,0s-.71979,1.21222-.3031,1.70471c.341.49249,1.09863.45459,1.66687,0Z"/>
  <path class="st1" d="M59.43842,60.24725c.45459-.37885.60608-1.02283.26514-1.43958-.30304-.37878-.94702-.37878-1.43951,0-.45459.41675-.60614,1.06073-.2652,1.43958.30304.37878.94708.37878,1.43958,0Z"/>
  <path class="st1" d="M59.47626,66.72516c-.37885.34094-.49249.83344-.22729,1.17438.2652.30304.79553.30304,1.17438,0,.41669-.34094.49249-.83344.22729-1.17438-.2652-.30304-.79553-.30304-1.17438,0Z"/>
  <path class="st1" d="M71.25775,74.75629c-.22729.18939-.26514.45459-.11365.64404.15155.18939.41675.18939.64404,0,.18939-.15155.22729-.45465.11365-.64404-.15155-.18939-.45459-.18939-.64404,0Z"/>
  <path class="st1" d="M77.43262,69.56635c-.22729.18945-.26514.45459-.11365.64404.15155.18939.45459.18939.64404,0,.22729-.15155.26514-.45459.11365-.64404-.15155-.18939-.41675-.18939-.64404,0Z"/>
  <path class="st1" d="M74.32629,72.1803c-.22729.18939-.2652.45459-.11365.64398.15149.18939.45459.18939.64398,0,.22729-.18939.2652-.45459.11365-.64398-.15155-.18945-.41669-.18945-.64398,0Z"/>
  <path class="st1" d="M70.80316,77.44598c-.18939.15149-.22729.37878-.11365.53033s.34094.15155.5304,0c.15149-.15155.22729-.41669.11365-.53033-.11365-.15155-.34094-.15155-.5304,0Z"/>
  <path class="st1" d="M70.27283,80.02197c-.18939.15155-.22729.37885-.11365.53033.11365.15155.34094.15155.53033,0,.18945-.15149.22729-.37878.11365-.53033s-.34094-.15155-.53033,0Z"/>
  <path class="st1" d="M73.8717,74.83203c-.18945.15155-.22729.37885-.11365.5304.11365.15149.34094.15149.53033,0,.18939-.15155.22729-.37885.11365-.5304-.11365-.15149-.34094-.15149-.53033,0Z"/>
  <path class="st1" d="M76.97803,72.25604c-.18939.15155-.22729.37885-.11365.53033.11365.15155.34094.15155.5304,0,.18939-.18939.22729-.41669.11365-.53033-.11365-.15155-.34094-.15155-.5304,0Z"/>
  <path class="st1" d="M75.27332,66.91461c-.26514.22729-.34094.56824-.15149.79553.18939.22729.53033.22729.79553,0,.22729-.22729.30304-.56824.15149-.79553-.18939-.22729-.53033-.22729-.79553,0Z"/>
  <path class="st1" d="M68.15143,77.37018c-.22736.18945-.2652.45459-.11371.64404.15155.18939.41675.18939.64404,0,.18939-.18945.22729-.45459.11365-.64404-.15155-.18939-.45459-.18939-.64398,0Z"/>
  <path class="st1" d="M61.44617,62.7854c.45459-.37885.56824-.94708.2652-1.28802-.3031-.34094-.87134-.34094-1.28802,0-.41669.37885-.53033.94708-.2652,1.28802.3031.34094.87134.34094,1.28802,0Z"/>
  <path class="st1" d="M72.96246,69.5285c-.18939-.22729-.53033-.22729-.79553,0-.26514.22729-.34094.56824-.15149.79553.18939.22729.53033.22729.75763,0,.3031-.22729.34094-.60614.18939-.79553Z"/>
  <path class="st1" d="M75.46277,69.56635c-.15155-.18939-.41675-.18939-.64404,0-.22729.18945-.26514.45459-.11365.64404.15155.18939.45459.18939.64404,0,.22729-.15155.26514-.45459.11365-.64404Z"/>
  <path class="st1" d="M71.75024,72.1803c-.22729.18939-.2652.45459-.11365.64398s.41669.18939.64398,0c.18945-.18939.22729-.45459.11365-.64398-.15149-.18945-.41669-.18945-.64398,0Z"/>
  <path class="st1" d="M69.06061,72.10449c-.2652.22729-.34094.56824-.15155.79553s.53033.22729.79553,0,.34094-.56824.15155-.79553c-.18945-.22729-.5304-.22729-.79553,0Z"/>
  <path class="st1" d="M78.6449,77.52173c-.11365.11365-.15155.2652-.07574.34094.07574.11365.26514.11365.37878,0,.15155-.07574.15155-.2652.07581-.34094-.07581-.07574-.2652-.11365-.37885,0Z"/>
  <path class="st1" d="M75.53851,80.13562c-.11365.11365-.15155.2652-.07574.34094.07574.11365.26514.11365.37878,0,.15155-.11365.18945-.2652.07581-.34094-.07581-.11365-.2652-.11365-.37885,0Z"/>
  <path class="st1" d="M73.37921,77.44598c-.18939.15149-.22729.37878-.11365.53033s.34094.15155.53033,0c.18945-.15155.22729-.41669.11365-.53033-.11365-.15155-.34094-.15155-.53033,0Z"/>
  <path class="st1" d="M79.59198,72.25604c-.18945.15155-.22729.37885-.11365.53033.11365.15155.34094.15155.53033,0,.18939-.15149.22729-.41669.11365-.53033-.11365-.15155-.34094-.15155-.53033,0Z"/>
  <path class="st1" d="M76.4856,74.83203c-.18945.15155-.22729.37885-.11365.5304.11365.15149.34094.15149.53033,0,.18939-.15155.22729-.37885.11365-.5304-.11365-.15149-.34094-.15149-.53033,0Z"/>
  <path class="st1" d="M79.13739,74.90784c-.11365.11365-.15155.26514-.07581.34094.07581.11365.2652.11365.37885,0,.15155-.07581.18939-.22729.07574-.34094-.07574-.11365-.26514-.11365-.37878,0Z"/>
  <path class="st1" d="M76.06885,77.52173c-.11365.11365-.15149.2652-.07574.34094.07574.11365.2652.11365.37885,0,.11365-.07574.15149-.22729.07574-.34094s-.2652-.11365-.37885,0Z"/>
  <path class="st1" d="M72.96246,80.13562c-.11365.11365-.15149.2652-.07574.34094.07574.11365.2652.07574.37885,0,.11365-.11365.15149-.2652.07574-.34094-.07574-.11365-.26514-.11365-.37885,0Z"/>
  <path class="st1" d="M68.64386,74.75629c-.22729.18939-.26514.45459-.11365.64404.15155.18939.41675.18939.64404,0,.18939-.15155.26514-.45465.11365-.64404-.15155-.18939-.41675-.18939-.64404,0Z"/>
  <path class="st1" d="M66.10571,65.24774c.34094-.30304.41675-.75763.18945-1.06073-.22729-.30304-.68188-.30304-1.02283,0-.34094.3031-.41675.75769-.18945,1.06073.22729.3031.68188.2652,1.02283,0Z"/>
  <path class="st1" d="M66.8634,61.53528c-.2652-.3031-.79553-.3031-1.17438,0-.37885.34094-.49249.83337-.22729,1.17432.2652.3031.79553.3031,1.17438,0,.37878-.30304.49243-.83337.22729-1.17432Z"/>
  <path class="st1" d="M68.56812,60.13361c.26514.30304.79553.30304,1.17438,0,.37878-.34094.49243-.87134.22729-1.17438-.2652-.34094-.79553-.34094-1.17438,0-.37885.30304-.49249.83344-.22729,1.17438Z"/>
  <path class="st1" d="M62.12805,66.80096c-.34094.30304-.41669.75763-.18939,1.02283.22729.30304.68188.30304,1.06067,0,.34094-.2652.41675-.75769.18945-1.02283-.22729-.3031-.68188-.3031-1.06073,0Z"/>
  <path class="st1" d="M69.40155,61.61102c-.22729-.3031-.71979-.3031-1.06073,0-.34094.30304-.41675.75763-.18939,1.06073.22729.30304.71973.26514,1.02283,0,.34094-.3031.45459-.75769.22729-1.06073Z"/>
  <path class="st1" d="M61.67346,69.37695c-.34094.30304-.41669.75769-.18939,1.02283.22729.3031.68188.3031,1.02283,0,.34094-.26514.41669-.71979.18939-1.02283s-.68188-.30304-1.02283,0Z"/>
  <path class="st1" d="M65.80267,66.80096c-.22729-.3031-.68188-.3031-1.02283,0-.34094.30304-.41669.75763-.18939,1.02283.22729.30304.68188.30304,1.02283,0,.30304-.2652.41669-.75769.18939-1.02283Z"/>
  <path class="st1" d="M66.63611,56.30743c-.41675.37885-.5304.94708-.2652,1.28802.30304.34094.87128.34094,1.28802,0,.45459-.37885.56824-.94708.26514-1.28802-.30304-.34094-.87128-.34094-1.28796,0Z"/>
  <path class="st1" d="M59.96875,64.14917c-.37885.34094-.49249.83337-.22729,1.17432.2652.341.79553.3031,1.17438,0,.41669-.34094.49243-.87128.22729-1.17432-.2652-.34094-.79553-.3031-1.17438,0Z"/>
  <path class="st1" d="M64.81775,58.88348c-.3031-.34094-.87134-.34094-1.28802,0-.41675.34094-.53033.94702-.2652,1.28796.3031.37885.87134.341,1.28802,0,.45459-.34094.56824-.90918.2652-1.28796Z"/>
  <path class="st1" d="M63.75702,64.14917c-.2652-.3031-.79553-.3031-1.17438,0-.37885.34094-.49249.83337-.22729,1.17432.2652.3031.79553.3031,1.17438,0,.37878-.34094.49243-.87128.22729-1.17432Z"/>
  <path class="st1" d="M64.02216,62.70959c.37885-.30304.49249-.83337.22736-1.17432-.2652-.3031-.79559-.3031-1.17438,0-.37885.30304-.49249.83337-.22729,1.17432.26514.34094.79553.34094,1.17432,0Z"/>
  <path class="st1" d="M67.35583,58.95923c-.26514-.30304-.79553-.30304-1.17432,0-.37885.34094-.49249.83344-.22729,1.17438.26514.34094.79553.34094,1.17432,0,.37885-.34094.49249-.87134.22729-1.17438Z"/>
  <path class="st1" d="M70.91681,66.87671c-.18939-.2652-.60608-.2652-.90918,0-.30304.2652-.37878.64398-.18939.90918s.60614.2652.90918,0,.41669-.68188.18939-.90918Z"/>
  <path class="st1" d="M66.44666,72.10449c-.26514.22729-.34094.56824-.15149.79553.18939.22729.53033.22729.79553,0s.34094-.56824.15149-.79553c-.18939-.22729-.53033-.22729-.79553,0Z"/>
  <path class="st1" d="M66.90125,69.4527c-.30304.2652-.37878.64404-.18939.90918.18939.2652.60614.2652.90918,0,.34094-.26514.41675-.64398.18945-.90918-.18945-.26514-.60614-.26514-.90924,0Z"/>
  <path class="st1" d="M74.02319,64.26282c-.18939-.2652-.60614-.2652-.90918,0-.30304.26514-.37878.64398-.18939.90918.18939.26514.60614.26514.90918,0,.30304-.22729.37885-.64404.18939-.90918Z"/>
  <path class="st1" d="M65.95422,74.71838c-.2652.22729-.34094.56824-.15155.79559.18939.22729.53033.22729.79553,0,.2652-.22736.34094-.60614.15155-.79559-.18945-.22729-.5304-.22729-.79553,0Z"/>
  <path class="st1" d="M70.19708,70.32404c.26514-.22729.34094-.60614.15149-.79553-.18939-.22729-.53033-.22729-.79553,0-.26514.22729-.30304.56824-.15149.79553.18939.22729.53033.22729.79553,0Z"/>
  <path class="st1" d="M73.30347,67.71014c.26514-.22729.30304-.56824.15149-.79553-.18939-.22729-.53033-.22729-.79553,0s-.34094.56824-.15155.79553c.18945.22729.5304.22729.79559,0Z"/>
  <path class="st1" d="M71.4093,64.26282c-.18939-.2652-.60614-.2652-.90918,0-.30304.26514-.37885.64398-.15155.90918.18945.26514.60614.26514.90918,0,.3031-.22729.37885-.64404.15155-.90918Z"/>
  <path class="st1" d="M63.83276,72.02875c-.30304.2652-.37878.64398-.18939.90918s.60614.2652.90918,0c.30304-.22729.37885-.64398.18939-.90918-.18939-.2652-.60608-.2652-.90918,0Z"/>
  <path class="st1" d="M71.97754,61.61102c-.22729-.3031-.71979-.3031-1.06073,0-.34094.30304-.41669.75763-.18939,1.06073.22729.26514.68188.26514,1.02283,0,.37885-.3031.45459-.79553.22729-1.06073Z"/>
  <path class="st1" d="M64.32526,69.4527c-.30304.2652-.37885.64404-.18939.90918.18939.2652.60608.2652.90918,0,.30304-.26514.37878-.64398.18939-.90918-.18939-.26514-.60614-.26514-.90918,0Z"/>
  <path class="st1" d="M68.90906,64.18701c-.22729-.30304-.68188-.30304-1.06073,0-.34094.3031-.41669.75769-.18939,1.02283.22729.3031.68188.2652,1.02283,0,.34094-.26514.45459-.71973.22729-1.02283Z"/>
  <path class="st1" d="M68.11353,67.74799c.34094-.22729.41669-.64398.18939-.90918-.18939-.26514-.60614-.26514-.90918,0-.30304.2652-.37885.64404-.18939.90918.18939.2652.60614.2652.90918,0Z"/>
</svg>