<svg version="1.1" viewBox="0 0 100 100" xmlns="http://www.w3.org/2000/svg">
  <path fill="#ed6c00" d="M86.45239,40.40616l-4.83447-4.75032c0-.00473-10.23816-6.47969-10.23816-6.47969l-11.08629,4.44775s-3.07674,2.90844-3.15049,2.86022c-5.30629-.68929-8.85012-4.07332-12.94236-6.09864-1.75679,1.02211-3.51546,2.03761-5.24861,3.04648-1.02495.89541-2.03761,1.80028-3.05027,2.69853-3.98823-1.01455-7.98591-2.0291-11.97414-3.05594-3.22235,2.08488-6.44187,4.1518-9.66044,6.23952-1.40411,3.58543-2.84698,7.1548-4.26716,10.74874,1.02589,2.88669,2.04139,5.78,3.04743,8.66102-.1163,2.15958-.23922,4.31349-.35835,6.47969,3.13158,1.42018,6.27546,2.84225,9.40515,4.26716,3.28948-.12481,6.59315-.23922,9.88264-.37064,1.51473-2.18605,2.45553-3.78777,2.45553-3.78777,0,0,2.43378-2.32032,2.48106-2.33262.76399.27137,1.3833.58717,2.16242.87934.26758,1.45328.56164,2.92357.85097,4.39007,3.9315,1.01455,7.21909,2.59168,12.33155,2.57467,1.62252-2.36476,3.56936-5.06896,5.18999-7.42616.04444.03877,5.66465,1.37291,5.68356,1.33887,0,.04444,1.65278,3.50318,2.19267,4.73614h10.62487c3.66486-3.61663,7.32972-7.24368,10.99363-10.87922,1.01171-1.90618,2.03572-3.81614,3.05689-5.73461-1.02211-1.99412-2.04517-3.97593-3.05689-5.97194-.1579-2.17188-.33282-4.31823-.49073-6.48065M72.90111,58.12247c-2.71082,1.8485-7.186,1.79177-9.76823-.13805-1.37574-1.03819-2.18984-3.98728-5.1361-3.29327-2.94531.69212-2.864,4.92241-8.66858,5.61454-7.23611.87934-7.06024-5.76582-10.75063-5.00183-2.38273.48884-3.33582,3.08336-5.13326,4.26148-4.91863,3.28949-10.49345.48789-12.3306-4.01187-2.70042-6.64516,2.21064-15.79595,9.90155-15.14827,4.69075.39334,5.38288,5.06235,7.80343,5.13137,3.80196.09644,4.31254-5.38004,9.40893-5.74029,7.78073-.55786,7.29852,5.02736,10.68728,5.02736,2.81672,0,3.36796-3.2006,6.41161-4.78625.96822-.33566,1.95724-.65525,2.93018-.96633,11.52029-.41887,11.60633,14.26988,4.64443,19.0514"/>
</svg>