<svg version="1.1" viewBox="0 0 100 100" xmlns="http://www.w3.org/2000/svg">
  <path fill="#006baf" d="M69.78758,56.04552h-5.97256l2.64704-3.56958h5.94728l-2.62176,3.56958ZM56.82369,56.04552l-5.95232.02633,2.02529-2.76959s.25925-.37772.92658-.62987c.64808-.24607,1.68402-.19848,1.68402-.19848h3.91692l-2.6005,3.5716ZM86.16611,52.46581l3.83389-5.29512h-6.68245l6.44245-8.90216h-33.97427c-2.84754.08709-4.90423.05974-8.20849,1.11694-2.59339.82936-5.26778,2.96806-6.41915,4.29058-.76254.87695-6.86879,8.28546-7.29409,8.71685-1.1362,1.15137-2.25113,2.24807-3.79844,2.84756-1.63544.63493-2.72606.56809-4.9792.67442-3.03692.13873-10.1801.11139-10.93149.10734l-4.15488,5.70423s14.78868.01721,15.95525-.01215c1.6992-.04152,3.15135.03949,4.87586-.28455,2.3139-.43544,4.14376-1.35694,6.24297-3.52603,1.01669-1.05112,7.12903-8.87178,7.5432-9.39532,2.00199-2.52452,4.46274-4.41007,9.17354-4.54374l2.05771-.06481,22.82197-.00608-2.40401,3.30325s-17.92078-.03747-18.96686,0c-1.04503.0405-3.40247.04962-5.31435.54581-2.0425.52962-3.33668,1.77821-3.81667,2.34934-.47999.57215-4.17512,5.35487-4.51537,5.9179-.33824.55999-1.24658,2.29668-.19645,4.00096,1.08759,1.76808,4.00095,1.70732,4.00095,1.70732h32.65274l4.12351-5.67284h-7.39434l2.60958-3.5797h6.71687Z"/>
</svg>