<?xml version="1.0" encoding="UTF-8"?>
<svg id="_图层_1" data-name="图层_1" xmlns="http://www.w3.org/2000/svg" version="1.1" viewBox="0 0 100 100">
  <!-- Generator: Adobe Illustrator 29.8.3, SVG Export Plug-In . SVG Version: 2.1.1 Build 3)  -->
  <defs>
    <style>
      .st0 {
        fill: #f29600;
      }

      .st1 {
        fill: #004da0;
      }
    </style>
  </defs>
  <path class="st1" d="M72.45196,10v23.30989c-17.68147,1.70181-29.85999,8.24944-29.85999,14.92997,0,7.07062,11.00092,14.01205,17.80941,16.76348-30.14072,0-38.76283-10.25929-38.76283-22.2627,0-15.89271,13.62071-28.02773,50.81341-32.74065"/>
  <path class="st0" d="M82.21888,56.18087c-2.50427-6.88676-11.09781-10.57363-21.818-10.35497v19.17835c-16.34113,0-26.35326-3.01611-32.10091-7.69301-8.65689,6.78122-13.07167,15.31141-10.52019,22.32487,3.76386,10.33632,21.23913,13.4679,39.03363,6.99109,17.79451-6.4756,29.17057-20.10871,25.40547-30.44632"/>
</svg>