<svg version="1.1" viewBox="0 0 100 100" xmlns="http://www.w3.org/2000/svg">
  <path fill="#ff6200" d="M90,31.17678l-7.94108,29.3024c-1.1963,4.60711-5.93982,8.34403-10.61246,8.34403H10l7.94077-29.25662c1.19003-4.6093,5.90438-8.37539,10.5764-8.37539,0,0,52.34546-.01442,61.48284-.01442h0Z"/>
  <path fill="#fff" d="M46.23062,52.72563c.2794-2.12324-.54469-3.83539-3.50801-4.93793-1.66667-.61775-4.3321-.69865-4.15649-2.04234.15867-1.17686,1.39355-1.44811,2.31515-1.44811.62873,0,1.1894.09627,1.55598.38978.36312.30135.55127.7482.42458,1.47602h5.07434c.69709-4.3945-2.55504-5.8194-6.35531-5.8194-.19442,0-.38852,0-.57354.01443h-.03543c-.09784,0-.19787.0207-.30198.0207-2.58389.14801-17.6614.56632-17.6614.56632l12.51588,1.37442-12.93702.22076,11.56888,1.29383-12.01698.30166,11.34561,1.21261-11.79904.43243,11.55884,1.08781-11.98374.53653,12.26628,1.03575-12.68773.53653,13.82257.94231-14.28949.76356,17.76144.77987c1.39762.05833,2.94137.83663,2.79179,1.90311-.14237,1.18376-1.54626,1.72657-2.62622,1.72657-.90436,0-1.54281-.05174-1.95485-.44089-.27908-.32236-.42804-.71308-.4572-1.26435,0-.02132,0-.05017.01631-.07369.11006-1.35153.32424-1.70493.32424-1.70493l-16.24779.5011,10.58988.7714-11.03736.83005,10.969.69865-11.38731.90279,11.75702.60364-12.19792.98401,13.29011.51521.0232.01474-13.76393,1.10882s15.85832.31013,18.63099.32487c.10693.00627.20696.00627.31107.00627,3.87145,0,8.48545-1.85168,9.06557-6.1449h0Z"/>
  <path fill="#fff" d="M59.51508,40.76978h-8.95612l-4.87305,17.85925h5.35657l1.48798-5.41046h3.14551c4.70776,0,7.99878-3.10101,8.48132-6.70148.50299-3.94769-1.3775-5.74731-4.64221-5.74731ZM58.72736,46.94324c-.14642,1.19751-.97931,2.0282-3.19159,2.0282h-1.84729l.99219-3.62311h1.89337c1.15082,0,2.33429.21234,2.15332,1.59491Z"/>
  <polygon fill="#fff" points="81.375 40.7698 66.00242 40.7698 64.76409 45.34837 69.66032 45.34837 66.03189 58.62907 71.52423 58.62907 75.15892 45.34837 80.13919 45.34837 81.375 40.7698"/>
</svg>