<svg version="1.1" viewBox="0 0 100 100" xmlns="http://www.w3.org/2000/svg">
<defs>
    <style>
      .st0 {
        fill: none;
      }

      .st1 {
        fill: url(#grad);
      }

      .st2 {
        fill: #00926c;
      }

      .st3 {
        fill: #231815;
      }

      .st4 {
        fill: #fff;
      }

      .st5 {
        fill: #a4a9aa;
      }

      .st6 {
        clip-path: url(#clippath);
      }

      .st7 {
        fill: #3a4241;
      }
    </style>
    <clipPath id="clippath">
      <rect class="st0" x="10" y="65.23992" width="80" height="1.87437"/>
    </clipPath>
    <linearGradient id="grad" x1="-243.60588" y1="475.0348" x2="-242.76233" y2="475.0348" gradientTransform="translate(23112.83354 45117.01864) scale(94.83693 -94.83693)" gradientUnits="userSpaceOnUse">
      <stop offset="0" stop-color="#00926c"/>
      <stop offset=".54173" stop-color="#fff23f"/>
      <stop offset="1" stop-color="#00926c"/>
    </linearGradient>
  </defs>
  <path class="st4" d="M12.07059,65.43714c-.29609.44371-.59049.24801-.59049.24801,0,0,6.01706-7.20057,7.89059-9.17617,1.87437-1.97307,7.79274-6.80663,9.07663-7.93783,1.2822-1.13627,3.10681-3.06125,4.83187-4.98371,1.72675-1.92414,5.22834-6.65901,6.36376-8.18499,1.13374-1.53189,1.33113-1.77652,1.62806-2.27.29693-.49601,1.08313-.14678,1.52852.19739.4437.34333.88573.73895,1.52851.83765.6411.0987.5424.0987.93803-.15015.3931-.24294.88742-.88489,1.3809-.59048.49263.29524,2.02031,1.7276,3.60028,3.15826,1.57913,1.42814,7.20141,5.96729,8.38492,6.75601,1.18266.79125,2.56271,1.43066,3.2055,1.53021.6411.09785,1.67445.34248,2.31723.78619.63942.44455,1.77568,1.77736,2.07008,2.26916.29693.49601.74233.39647,1.0865.4454.34417.05061,3.60197-.34501,4.34177.3931.73979.73979,2.46739,3.25358,2.90857,4.39069.4454,1.13373.54156,1.62721.88826,1.8246.34585.1957,1.23243-.10038,1.57828.64194.34502.7398,5.08072,5.32535,5.87028,5.91921.78704.59049,3.89553,2.26831,4.29031,2.61333.39394.34501,1.50405,1.47453,1.50405,1.47453l-76.62242-.19233Z"/>
  <path class="st5" d="M11.4801,65.68473s6.01706-7.20057,7.89059-9.17532c1.87437-1.97391,7.79274-6.80747,9.07663-7.93867,1.2822-1.13627,3.10681-3.06041,4.83187-4.98371,1.72675-1.92415,5.22834-6.65901,6.36376-8.18499,1.13374-1.53189,1.33113-1.77652,1.62806-2.27.29693-.49516,1.08312-.14677,1.52851.19824.44371.34332.88573.73811,1.52852.83681.6411.09954.5424.09954.93803-.15015.3931-.24294.88742-.88489,1.3809-.58965.49263.29525,2.02031,1.7276,3.60028,3.15742,1.57913,1.42898,7.20141,5.96729,8.38492,6.75601,1.18266.79125,2.56271,1.43151,3.2055,1.5302.6411.09785,1.67445.34248,2.31724.78704.63942.44371,1.77568,1.77652,2.07008,2.26831.29693.49601.74232.39647,1.08649.4454.34417.05061,3.60197-.34417,4.34177.3931.73979.7398,2.46739,3.25358,2.90857,4.39154.4454,1.13373.54156,1.62637.88826,1.8246.34586.19571,1.23243-.10123,1.57829.64194.34501.73979,5.08071,5.32535,5.87028,5.91921.78703.58964,3.89552,2.26747,4.29031,2.61248.39394.34501.88658.93719.88658.93719,0,0-1.43066-1.0342-2.01947-1.33197-.5947-.29693-2.66394-1.27967-3.15741-1.72591-.49432-.44371-2.07345-1.72844-2.36785-1.92246-.29524-.1957-4.5864-3.99591-5.22919-4.58808-.64194-.59302-1.72422-2.81325-2.16877-3.40289-.44455-.59133-1.03672-1.77483-1.23496-1.97476-.19739-.1957-.73727-.59049-1.92246-.68665-1.18266-.10123-3.25527-.49517-3.79852-.88826-.54241-.39731-1.57998-1.58082-2.17046-1.9756-.59049-.39225-1.27967-.4454-1.6753-.49348-.39647-.04724-2.41678-1.03588-2.86049-1.28051-.4437-.24632-4.63785-3.05704-5.18026-3.74959-.5424-.69171-3.05956-2.76179-3.3042-3.05788-.24632-.29524-1.13627-1.03504-1.33197-1.18435-.19571-.14762-.39478-.64026-.39478-.39226,0,.24463.24547.98274.74064,1.87269.49348.88658,1.33113,2.46571,2.61417,3.8466,1.2822,1.38258,3.30504,3.60281,3.65174,4.24307.34164.64025.68918,1.28304.68918,1.28304,0,0-2.41594-2.56693-3.05872-3.25442-.64026-.69425-3.25696-3.50496-4.09461-4.83524-.83764-1.33366-2.21938-3.35312-2.76095-4.04315-.5424-.69256-.83849-.44371-.98611-.2497-.14846.19824-.74148.49348-.84017.79041-.09786.29609-.04724.64363.54325,1.57744.59386.93719,1.62806,3.10765,2.31724,3.89637.69171.79041,1.92499,3.10933,2.66478,4.09376.74148.98696,4.83356,6.21698,5.07988,6.55862.24547.3467,4.43793,5.42826,5.08071,6.11998.6411.68918,1.32944,1.57744,2.21939,1.92161-2.07177-1.57829-5.82304-4.78547-6.51223-5.37849-.68834-.58964-3.15657-3.30335-3.99338-4.58471-.84018-1.2822-1.52851-2.16877-1.67782-2.46402-.14762-.29862-.34586-.34755-.5424-.39647-.19655-.04808-1.08565-.6411-1.77652-1.38005-.68834-.73979-4.24054-6.26591-4.97949-8.23729-.73979-1.97138-1.53105-2.96002-1.62721-3.15741-.09954-.19739-.69256-.34417-1.13542.1493-.44371.49095-2.21938,3.10681-2.85964,4.53747-.64279,1.42898-1.48212,2.90941-1.82629,3.30504-.34501.39394-1.03588,1.27967-1.8246,2.02199-.78872.73727-3.35312,2.76095-3.74875,3.25274-.39394.49601-.73895,1.48043-.73895,2.02368,0,.54409-.24716,1.03672-.74064,1.43319-.49432.3931-4.38985,2.56103-5.57335,3.44929-1.1835.88826-2.96003,2.46739-3.05872,2.86133-.09785.39394,0,.8891-.29525,1.23412-.29609.34501-1.28135,1.08312-2.12069,1.57576-.83849.49517-2.02284,1.0865-2.71202,1.5302-.69087.44624-3.00895,2.95834-3.30588,3.40289-.29609.44371-.59049.24801-.59049.24801"/>
  <path class="st5" d="M27.45985,64.20505s3.35397-4.68678,4.48854-5.96729c1.13374-1.28304,5.27642-5.42742,6.2153-6.61092.93719-1.18519,4.43709-5.22749,5.12712-6.9534-.14678,1.67951-.19571,2.11985-.19571,2.46402,0,.3467-.09954.64278-.04892.98864.04892.34417.64025,2.11901.78872,3.35228.14762,1.23496.14762,2.22107.14762,2.71624,0,.49095.84017,1.97054,1.13374,2.46317.29693.49179.88741.79041,1.2822.93719.39647.14593.93887.34501,1.08734.83596.14677.49685,1.72506,3.35734,2.51463,4.29284-.88826-.24379-3.69897-3.35143-3.99506-4.04315-.29609-.69171-1.72676-3.10596-2.26916-3.45266l-.54241-.34839s-.09869-2.75757-.04977-3.49652c.04977-.73979-.39478-2.41762-.39478-2.8124,0-.39731-.24632-.6934-.49348-.34839-.24547.34839-1.97222,2.7154-2.31808,3.55389-.34501.83849-.69002.88742-1.08565.93719-.3931.04808-1.57745.44371-1.97138.69002-.39478.24463-2.07176,1.62637-2.36785,2.51632-.29525.88489-.98696,2.26831-1.23328,2.61248-.24632.34501-1.4779,1.2822-1.9233,1.72591-.44287.4454-2.81325,2.76095-2.90857,3.00979-.10123.24463-.9878.93719-.9878.93719"/>
  <path class="st5" d="M63.4162,57.59481s-1.23327-2.16962-2.27-3.69813c-1.03419-1.53105-1.97138-3.69898-2.11901-3.94698-.15015-.24801,2.02116,3.00811,2.51463,3.69813.49432.6934,1.37837,1.82714,1.72591,2.17215.34586.34586.34417.44371.2944.73979-.04724.29525-.14593,1.03504-.14593,1.03504"/>
  <path class="st3" d="M10.13598,44.29029s1.03588.10966,2.36617-.18643c1.33197-.29356,2.36785-.70352,2.59139-.8503,0-.25981-.11135-.40659,0-.96165.10966.22185.25813.40659.73895.66556.48082.25982.66472.51963.66472.74148,0,.22017-.62676.51625-1.40367.88573-.77776.37201-3.51424,1.48128-4.95756-.2944"/>
  <path class="st3" d="M14.61137,41.55237s-.36948-.55506-.36948-.95996c0-.40828-1.03504-.29946-1.33197.18305-.29525.48082-.18558,1.48044-.14678,2.18143.03627.70352,0,6.84458,0,8.50976,0,1.66602.03627,1.44163-.0388,1.66602-.07339.22101-.6276.22101-.99877.18305-.25981-.02615-.88657-.48251-.7398-.96334.14847-.47914,1.18266-1.43995,3.40458-2.66225,2.21939-1.22062,3.73525-1.81279,4.54928-1.03504.81319.77607.92538,1.58926.77691,2.81156-.14846,1.21978-.77691,1.96042-1.21978,2.03381-.44371.07423-1.48128.14678-1.66602-.03796-.18474-.18305-.14678.3332.29609.55674.44371.22017,2.25566.84946,3.219.22017.96165-.62676,1.03504-2.40328.92622-3.91999-.11304-1.5167-1.8516-2.95834-3.40542-2.88495-1.55383.07508-3.8466.96081-5.84413,2.29362-1.99922,1.33028-1.99922,3.068-1.84991,3.43916.14762.37032.85115,1.22146,2.25735,1.29401,1.40451.07423,1.70145-.96081,1.70145-1.77483,0-.81319-.18558-6.43546-.14846-7.91421.03712-1.48128.07508-2.36954.07508-2.66478v-.47998l-.03796-.18643s.22185.11135.59133.11135"/>
  <path class="st3" d="M18.57033,41.25662s1.36909.63014,1.44079,1.07216c0,.22354-.59049.44371-.59049.44371.81403-.07423.99877-.03712,1.55467.03712.55253.07423.77607-.62845.33236-1.03504-.4454-.40828-1.1835-.85114-2.73733-.51794"/>
  <path class="st3" d="M27.74379,41.21917s-.73979.81319-1.03673,3.77405c-.2944,2.95918-.55337,6.24988-.07339,8.39504.4454,1.44416.92537,1.44416,1.29401,1.51755.37117.07507.4454-.5171.40659-1.36824-.03543-.8503.0388-3.80948.48167-4.32743-.59133.51794-.99792,1.51502-.99792,1.51502-.07423-.92369-.25897-2.6631-.0388-4.6969.2227-2.03465.29777-4.32743-.03543-4.80909"/>
  <path class="st3" d="M30.88763,46.32435c.02193.29862.92538-.10966,1.99838-.48082,1.07131-.36948,3.36578-.8503,4.29031-.8503s1.44416-.29609,1.44416-.59302c0-.29609-.26066-.51626-.81571-.88742-.55422-.37032-1.55298-1.48044-1.73856-2.21685-.18389-.74148-1.18435-.59471-1.3674.21848-.18558.81487.14762,3.6627.14762,5.73447,0,2.07261.07339,3.92252-.70352,4.77282-.77691.84946-1.03588.84946-1.40452.81234-.37116-.03796-.96249-.36779-.96249-.88657,0-.51963.51794-.40828,1.14723-.25897.62929.14762,2.44209.29609,3.32866.81234.88742.51879,1.40451.88742,1.96126.96165.55337.07508.59133-.59133,0-1.10927-.59302-.5171-2.84784-1.33197-4.36454-1.55298-1.51839-.22101-2.59055-.2944-3.03426.55506-.44455.85114.25897,1.33197,1.03504,2.03296.77691.70437,2.36785.29862,3.07053-.14678s1.25774-1.81364,1.29401-2.9963c.03796-1.1835-.26994-5.30004-.23282-6.44643.03628-1.14723-.21004-1.44332.01181-1.2957.22101.14846.3408.11472.74655.59639.40659.48167.32561.71111.28849.93044-.03543.2227-.07423.18558-.51794.26066-.44371.07339-2.62598.36863-3.95711.59133-1.33197.2227-1.70144.92538-1.66517,1.44247"/>
  <path class="st3" d="M37.9534,41.51416s.62845.55674.99961,1.03841c.36863.47998.9608.22017,1.10843-.0388.14677-.25813-.48082-1.73772-2.10804-.99961"/>
  <path class="st3" d="M39.10071,40.48072s1.14639.8503,1.29401,1.18266c.14678.3332.96166.14846.88742-.48082-.07339-.62845-1.59094-1.14723-2.18143-.70184"/>
  <path class="st3" d="M44.94501,41.6633s.85115.40744,2.14515.59217c1.29401.18389,2.146.62845,2.21938.99877.07424.36863-.14846.99792-.59217,1.22146-.44455.22101-.70268.48082-.70268.48082,0,0,2.10804-.5559,2.77445-.5559.66556,0,1.81364.03712,1.7006-.96165-.1105-.99961-1.81195-1.77568-3.73357-1.84907-1.92414-.07592-3.5522-.1105-3.81117.07339"/>
  <path class="st3" d="M45.24161,47.91495s-1.36993,1.10843-1.22231,2.92291c.1493,1.81111,2.4792,3.58932,4.99299,3.58932,2.51716,0,3.07222-.07508,3.62727-.44455.55506-.37032.22101-.8503-1.03672-1.1118-1.25689-.25644-4.43962-.99708-5.36415-1.66349-.92453-.66556-.99708-1.95957-.92453-2.40412.07424-.4454-.07254-.88826-.07254-.88826"/>
  <g class="st6">
    <rect class="st1" x="10" y="65.23992" width="80" height="1.87437"/>
  </g>
  <g>
    <path class="st2" d="M13.77599,58.52928l-1.43503,2.83875v2.00179h-.93129v-1.97049l-1.37242-2.87006h1.03879l.47821,1.18954c.1384.34681.25167.64832.36535.98195h.01236c.09432-.32045.21418-.63514.35258-.98771l.46585-1.18377h1.02561Z"/>
    <path class="st2" d="M17.75238,61.36227c0,1.41608-.67344,2.07675-1.76866,2.07675-1.08904,0-1.70564-.64832-1.70564-2.07099v-2.84452h.93129v2.9269c0,.84932.32086,1.22084.79948,1.22084.50333,0,.81184-.35917.81184-1.22084v-2.9269h.9317v2.83875Z"/>
    <path class="st2" d="M20.98573,61.08465c.33981.13263.52887.45967.64214.95064.1384.57253.26443,1.15165.35876,1.33453h-.95682c-.0692-.1384-.18865-.56017-.30192-1.14588-.12604-.62278-.32127-.81802-.76159-.81802h-.3151v1.9639h-.92511v-4.77711c.32086-.05684.77435-.1005,1.24638-.1005.61042,0,1.84404.07496,1.84404,1.3716,0,.59148-.3777,1.02643-.83078,1.20272v.01812ZM20.0355,60.71395c.52846,0,.84973-.30892.84973-.76859,0-.62278-.46585-.74223-.80566-.74223-.208,0-.35258.01236-.42837.03789v1.47292h.38429Z"/>
    <path class="st2" d="M22.63288,58.52928h.9317v4.84054h-.9317v-4.84054Z"/>
    <path class="st2" d="M29.43567,63.36983h-1.0635l-1.12076-2.14019-.35876.48521v1.65498h-.92511v-4.84054h.92511v2.19044h.01895c.10091-.18865.208-.3707.30851-.55358l1.03838-1.63685h1.10799l-1.46015,2.07099,1.52935,2.76955Z"/>
    <path class="st2" d="M33.75805,60.89024c0,1.68628-.85591,2.54878-2.05822,2.54878-1.27769,0-2.00179-1.07009-2.00179-2.47382,0-1.44738.79948-2.51089,2.06481-2.51089,1.34071,0,1.9952,1.14506,1.9952,2.43592ZM30.67382,60.94626c0,.95064.37153,1.73159,1.05732,1.73159.69239,0,1.05115-.77435,1.05115-1.75054,0-.88721-.33363-1.71182-1.04456-1.71182-.73028,0-1.06391.84355-1.06391,1.73077Z"/>
    <path class="st2" d="M38.0166,63.18118c-.28297.10709-.83078.2389-1.37819.2389-.73646,0-1.29663-.18865-1.70564-.59148-.4156-.40942-.65491-1.07009-.65491-1.83786,0-1.63685,1.08904-2.51171,2.48-2.51171.49097,0,.89998.08814,1.13311.20183l-.19524.76776c-.22036-.1005-.49715-.17629-.92511-.17629-.8625,0-1.51699.52887-1.51699,1.69946,0,1.12034.59807,1.68711,1.39713,1.68711.22695,0,.39665-.03213.47862-.0692v-1.18377h-.69857v-.73646h1.58578v2.51171Z"/>
    <path class="st2" d="M41.60252,63.36983h-2.70654v-4.84054h2.60603v.78095h-1.67434v1.17059h1.5796v.76117h-1.5796v1.34771h1.77484v.78012Z"/>
    <path class="st2" d="M45.89401,63.36983h-.9317l-1.03838-2.00179c-.25826-.49674-.54164-1.09481-.74305-1.62367h-.02513c.03789.59807.05684,1.27769.05684,2.14019v1.48528h-.84355v-4.84054h1.00707l1.01984,1.9639c.25784.48521.52846,1.07668.72369,1.58001h.01277c-.05684-.61701-.08197-1.30322-.08197-2.08993v-1.45398h.84355v4.84054Z"/>
    <path class="st2" d="M50.55497,61.08465c.33981.13263.52887.45967.64214.95064.1384.57253.26443,1.15165.35876,1.33453h-.95682c-.0692-.1384-.18865-.56017-.30192-1.14588-.12604-.62278-.32127-.81802-.762-.81802h-.31468v1.9639h-.92511v-4.77711c.32086-.05684.77435-.1005,1.24638-.1005.61042,0,1.84404.07496,1.84404,1.3716,0,.59148-.3777,1.02643-.83078,1.20272v.01812ZM49.60474,60.71395c.52846,0,.84973-.30892.84973-.76859,0-.62278-.46585-.74223-.80566-.74223-.208,0-.35258.01236-.42837.03789v1.47292h.38429Z"/>
    <path class="st2" d="M55.74603,63.36983h-.97536l-.3464-1.27769h-1.29663l-.33322,1.27769h-.94447l1.37242-4.84054h1.17059l1.35306,4.84054ZM54.29205,61.38698l-.28915-1.1014c-.07579-.30233-.15775-.69198-.22036-.98771h-.01895c-.06302.3015-.14499.69857-.21418.98112l-.28956,1.10799h1.0322Z"/>
    <path class="st2" d="M56.41741,58.52928h.9317v4.84054h-.9317v-4.84054Z"/>
    <path class="st2" d="M61.00505,63.36983h-2.66246v-4.84054h.9317v4.05383h1.73077v.78671Z"/>
    <path class="st2" d="M66.92681,58.52928l-1.14588,4.84054h-.98813l-.41519-2.05204c-.10709-.50333-.18247-.9943-.24549-1.54212h-.01277c-.08155.54781-.1697,1.0322-.28956,1.54212l-.47203,2.05204h-.98195l-1.0635-4.84054h.98813l.37153,2.08993c.1005.57912.19482,1.17718.26402,1.69287h.01895c.0692-.54122.18906-1.1014.31468-1.70523l.44072-2.07758h.91893l.40901,2.10229c.10709.56676.20141,1.1014.26443,1.66816h.01895c.07538-.57253.17011-1.12034.27061-1.69946l.39665-2.07099h.93788Z"/>
    <path class="st2" d="M71.07785,63.36983h-.97536l-.3464-1.27769h-1.29663l-.33322,1.27769h-.94447l1.37242-4.84054h1.17059l1.35306,4.84054ZM69.62387,61.38698l-.28915-1.1014c-.07579-.30233-.15734-.69198-.22036-.98771h-.01895c-.06302.3015-.14499.69857-.21418.98112l-.28956,1.10799h1.0322Z"/>
    <path class="st2" d="M75.04765,58.52928l-1.43503,2.83875v2.00179h-.93129v-1.97049l-1.37242-2.87006h1.03879l.47821,1.18954c.1384.34681.25167.64832.36494.98195h.01277c.09432-.32045.21418-.63514.35258-.98771l.46585-1.18377h1.02561Z"/>
  </g>
  <path class="st7" d="M79.93861,64.99234s-3.30588-8.67847-3.94614-9.56673c.5441-.83933.64363-.98611.69171-1.52851-.54577-.54325-1.43151-.93719-2.31893-1.47875-.88741-.54493-2.96002-2.12322-3.35481-3.06041-.39394-.9355.15015-4.33923.15015-5.72182,0-1.38005.29524-4.58471.34417-5.1288.04892-.54409.09954-.93719.54325-1.08734.44456-.14509,3.3042-1.97054,6.26254-2.90688,1.97222-.69171,2.36785-.29609,2.95919-.09785.59217.19655,3.8002,1.28304,7.84419,4.83356.54156.78619.59133,2.02115.59133,3.35397,0,1.32859-.59133,5.07987-1.08565,6.36123-.49432,1.28051-1.77568,2.31724-4.29031,4.28946.29609.39394.93719,1.77652.93719,1.77652,0,0-2.17215,3.89806-2.32061,4.34176-.14678.44286-3.00727,5.62059-3.00727,5.62059"/>
  <path class="st4" d="M78.01548,54.43806s3.00727.39478,4.88248-.19908c-.88826,1.68036-2.76348,4.39238-2.76348,4.83609-.59218-1.97307-1.871-4.19499-2.11901-4.63701"/>
  <path class="st4" d="M75.10329,52.21674s-1.77399-3.45182-1.62468-5.9656c-.59301.93634-1.2822,1.92246-1.82545,2.51379-.09954.29609.63942.84186.83934.93719.19655.09954,2.11732,2.12322,2.6108,2.51463"/>
  <path class="st4" d="M71.60406,47.97991s.34501-8.13944.44371-8.87839c.09785-.73979,0-1.03757.44455-1.18603.44202-.14678,4.09123-2.17215,6.45992-2.91026.78872-.24632,1.23243-.1957,1.97222.04893.74064.24547,4.44047,1.67951,7.59451,4.63954.59471.39225.44624.83596.54409,1.57575.09869.73811-.39647,6.36376-.78956,7.3988-.49263-1.33281-.69087-1.67783-1.52936-3.30504-.83764-1.6289-1.97138-3.84913-2.11816-4.14437-.14846-.29524-.49432-.19402-.49432-.19402v.19402c0,.19824.34586,1.03673.34586,1.03673,0,0-6.21446-.19655-8.83031.39562.59386-.79125.44371-.64363.59386-.79125.14509-.14762-.29693-.53987-.64363,0-.34502.54325-3.45182,5.52696-3.99338,6.11998"/>
  <path class="st4" d="M73.92155,45.16708s.04892,2.90857.64026,4.53494c.59217,1.62806,1.52936,3.9453,4.98118,4.43877,3.25611.49517,5.96898-2.21602,6.56115-4.97949.54072-1.97391.54072-2.56524.54072-2.56524,0,0-.39394-1.38258-1.03504-2.07261-1.28052-.49348-9.17364-.58964-11.68827.64363"/>
  <path class="st4" d="M86.9417,47.03977s-.29693,3.25527-1.57745,4.83356c1.23328-.78788,2.21855-1.9233,2.51463-2.66309-.09785-.63942-.93719-2.17046-.93719-2.17046"/>
  <path class="st7" d="M75.43497,45.9483c-.12147,0-.23535-.07592-.2809-.19655-.05483-.15437.02446-.32561.17883-.38213.37707-.1375.82078-.17462,1.13542-.09448.15943.03965.25391.2033.21595.36188-.03965.16027-.20246.25813-.36104.21342-.17293-.04218-.49263-.02699-.78619.07845-.03459.01265-.06833.0194-.10207.0194"/>
  <path class="st7" d="M83.49824,45.63559c-.12063,0-.23535-.07508-.27922-.19486-.05483-.1569.02446-.32646.18052-.38297.30114-.10797.74908-.1181,1.13711-.01856.15943.03965.25559.20161.21679.3602-.04133.16112-.20414.25813-.36357.2151-.30705-.07676-.62676-.05652-.79041.00253-.0329.01181-.06496.01856-.10123.01856"/>
  <path class="st7" d="M77.06151,48.28342l-1.69216-.05652c-.13076,0-.18558-.09448-.14257-.23872.05399-.18474.38297-.74401,1.02745-.69931.64532.04555.91778.46902.97093.65544.05483.18221.01097.37201-.16365.33911"/>
  <path class="st7" d="M83.1291,48.28342l1.69386-.05652c.13328,0,.18473-.09448.14172-.23872-.05483-.18474-.38213-.74401-1.02576-.69931-.64785.04555-.91863.46902-.97346.65544-.05315.18221-.00928.37201.16365.33911"/>
  <path class="st7" d="M80.07013,51.10848c-.40491-.2615-.72799-.05061-.95237.11641,0,0,.28259.53228.94815.56855h.0135c.66472-.03627.94647-.56855.94647-.56855-.22439-.16702-.54662-.37791-.95575-.11641"/>
</svg>