<?xml version="1.0" encoding="UTF-8"?>
<svg xmlns="http://www.w3.org/2000/svg" xmlns:xlink="http://www.w3.org/1999/xlink">
  <defs>
    <style>
      .w {
        fill: #fff;
      }

      .b {
        fill: #231815;
      }

      .l {
        fill: #009bbf;
        <!-- DIC-138 -->
      }
    </style>
  </defs>
  <symbol id="T" viewBox="0 0 100 100">
    <path class="w" d="M16.7605,93.66971h66.479c10.27991-9.15771,16.7605-22.48901,16.7605-37.33948,0-27.61426-22.38574-50-50-50S0,28.71597,0,56.33023c0,14.85046,6.48059,28.18176,16.7605,37.33948Z"/>
    <path class="l" d="M100,56.33029v-.00011c0-27.61421-22.38574-49.99995-49.99995-49.99995h-.0001C22.38574,6.33023,0,28.71597,0,56.33018v.00011c0,14.85046,6.48053,28.18182,16.76044,37.33948l11.33966-11.33966c-7.39685-6.23688-12.1001-15.56708-12.1001-25.99982v-.00011c0-18.77765,15.2223-33.99995,33.99995-33.99995h.0001c18.77765,0,33.99995,15.2223,33.99995,33.99995v.00005c0,10.43274-4.70331,19.76294-12.10016,25.99982l11.33972,11.33972c10.27991-9.15765,16.76044-22.48901,16.76044-37.33948Z"/>
    <path class="b" d="M45.68359,46.41504h-10.11963v-7.11719h28.85986v7.11719h-10.2627v30.37988h-8.47754v-30.37988Z"/>
  </symbol>
  <symbol id="T01" viewBox="0 0 100 100">
    <circle class="l" cx="50" cy="50" r="50"/>
    <circle class="w" cx="50" cy="50" r="40"/>
    <path class="b" d="M47.12354,22.74414h-6.74756v-4.74561h19.24316v4.74561h-6.84277v20.25586h-5.65283v-20.25586Z"/>
    <g>
      <path class="b" d="M48.55078,65.41504c0,8.91406-3.61768,15.07422-10.99219,15.07422-7.48389,0-10.7876-6.70703-10.81592-14.8916,0-8.40527,3.52734-15.01855,11.00977-15.01855,7.73535,0,10.79834,6.90332,10.79834,14.83594ZM33.51514,65.56934c-.01709,6.66016,1.59277,9.81055,4.18115,9.81055,2.63574,0,4.08203-3.30566,4.08203-9.88086,0-6.41309-1.40088-9.7832-4.09668-9.7832-2.48926,0-4.1748,3.12012-4.1665,9.85352Z"/>
      <path class="b" d="M60.49609,57.09766h-.08887l-5.50195,2.6123-1.11914-5.07617,7.6709-3.56543h5.58398v28.93164h-6.54492v-22.90234Z"/>
    </g>
  </symbol>
  <symbol id="T02" viewBox="0 0 100 100">
    <circle class="l" cx="50" cy="50" r="50"/>
    <circle class="w" cx="50" cy="50" r="40"/>
    <path class="b" d="M47.12354,22.74414h-6.74756v-4.74561h19.24316v4.74561h-6.84277v20.25586h-5.65283v-20.25586Z"/>
    <g>
      <path class="b" d="M48.55078,65.41504c0,8.91406-3.61768,15.07422-10.99219,15.07422-7.48389,0-10.7876-6.70703-10.81592-14.8916,0-8.40527,3.52734-15.01855,11.00977-15.01855,7.73535,0,10.79834,6.90332,10.79834,14.83594ZM33.51514,65.56934c-.01709,6.66016,1.59277,9.81055,4.18115,9.81055,2.63574,0,4.08203-3.30566,4.08203-9.88086,0-6.41309-1.40088-9.7832-4.09668-9.7832-2.48926,0-4.1748,3.12012-4.1665,9.85352Z"/>
      <path class="b" d="M51.88086,80v-4.09668l3.72363-3.36328c6.33203-5.68457,9.41406-8.91699,9.4668-12.2998,0-2.34863-1.38477-4.21973-4.73633-4.21973-2.49121,0-4.66797,1.24805-6.19238,2.37793l-1.89941-4.83398c2.15918-1.64062,5.56543-2.98535,9.45312-2.98535,6.57129,0,10.14062,3.83203,10.14062,9.06641,0,4.85547-3.47656,8.75293-7.69336,12.46777l-2.67871,2.22168v.08887h10.94531v5.57617h-20.5293Z"/>
    </g>
  </symbol>
  <symbol id="T03" viewBox="0 0 100 100">
    <circle class="l" cx="50" cy="50" r="50"/>
    <circle class="w" cx="50" cy="50" r="40"/>
    <path class="b" d="M47.12354,22.74414h-6.74756v-4.74561h19.24316v4.74561h-6.84277v20.25586h-5.65283v-20.25586Z"/>
    <g>
      <path class="b" d="M48.55078,65.41504c0,8.91406-3.61768,15.07422-10.99219,15.07422-7.48389,0-10.7876-6.70703-10.81592-14.8916,0-8.40527,3.52734-15.01855,11.00977-15.01855,7.73535,0,10.79834,6.90332,10.79834,14.83594ZM33.51514,65.56934c-.01709,6.66016,1.59277,9.81055,4.18115,9.81055,2.63574,0,4.08203-3.30566,4.08203-9.88086,0-6.41309-1.40088-9.7832-4.09668-9.7832-2.48926,0-4.1748,3.12012-4.1665,9.85352Z"/>
      <path class="b" d="M53.07715,73.37598c1.17969.63574,3.97656,1.76172,6.73145,1.76172,3.50684,0,5.29297-1.68457,5.28613-3.84473-.01465-2.86816-2.84668-4.16406-5.83398-4.17285h-2.75684v-4.85547h2.6416c2.26562-.00879,5.125-.88672,5.125-3.32422,0-1.72754-1.40137-3.02637-4.25391-3.02637-2.37988,0-4.86426,1.02148-6.03809,1.7334l-1.39062-4.87695c1.74902-1.12402,5.2002-2.19141,8.9502-2.19141,6.1875,0,9.60254,3.24805,9.60254,7.22168,0,3.03809-1.74707,5.4668-5.28711,6.70996v.08887c3.4668.62402,6.26855,3.24121,6.26855,7.04785,0,5.10645-4.50391,8.8418-11.83203,8.8418-3.75391,0-6.90918-.96387-8.58496-2.02637l1.37207-5.08691Z"/>
    </g>
  </symbol>
  <symbol id="T04" viewBox="0 0 100 100">
    <circle class="l" cx="50" cy="50" r="50"/>
    <circle class="w" cx="50" cy="50" r="40"/>
    <path class="b" d="M47.12354,22.74414h-6.74756v-4.74561h19.24316v4.74561h-6.84277v20.25586h-5.65283v-20.25586Z"/>
    <g>
      <path class="b" d="M48.55078,65.41504c0,8.91406-3.61768,15.07422-10.99219,15.07422-7.48389,0-10.7876-6.70703-10.81592-14.8916,0-8.40527,3.52734-15.01855,11.00977-15.01855,7.73535,0,10.79834,6.90332,10.79834,14.83594ZM33.51514,65.56934c-.01709,6.66016,1.59277,9.81055,4.18115,9.81055,2.63574,0,4.08203-3.30566,4.08203-9.88086,0-6.41309-1.40088-9.7832-4.09668-9.7832-2.48926,0-4.1748,3.12012-4.1665,9.85352Z"/>
      <path class="b" d="M63.85938,80v-6.91309h-12.82617v-4.38965l10.93066-17.62891h8.28516v16.95605h3.4541v5.0625h-3.4541v6.91309h-6.38965ZM63.85938,68.02441v-6.39648c0-1.7373.09277-3.5293.19336-5.39258l-.16309-.00684c-.9248,1.8877-1.7041,3.56055-2.68359,5.36914l-3.85547,6.33789-.02637.08887h6.53516Z"/>
    </g>
  </symbol>
  <symbol id="T05" viewBox="0 0 100 100">
    <circle class="l" cx="50" cy="50" r="50"/>
    <circle class="w" cx="50" cy="50" r="40"/>
    <path class="b" d="M47.12354,22.74414h-6.74756v-4.74561h19.24316v4.74561h-6.84277v20.25586h-5.65283v-20.25586Z"/>
    <g>
      <path class="b" d="M48.55078,65.41504c0,8.91406-3.61768,15.07422-10.99219,15.07422-7.48389,0-10.7876-6.70703-10.81592-14.8916,0-8.40527,3.52734-15.01855,11.00977-15.01855,7.73535,0,10.79834,6.90332,10.79834,14.83594ZM33.51514,65.56934c-.01709,6.66016,1.59277,9.81055,4.18115,9.81055,2.63574,0,4.08203-3.30566,4.08203-9.88086,0-6.41309-1.40088-9.7832-4.09668-9.7832-2.48926,0-4.1748,3.12012-4.1665,9.85352Z"/>
      <path class="b" d="M71.17773,56.6416h-11.22461l-.62402,4.42969c.6416-.07422,1.17969-.09473,1.87402-.09473,2.76074.00879,5.59668.64355,7.63184,2.08887,2.17578,1.48926,3.50684,3.89844,3.50684,7.27637,0,5.40234-4.62402,10.14746-12.42188,10.14746-3.50684,0-6.43262-.80469-8.05859-1.64062l1.23145-5.08789c1.28223.63379,3.90625,1.44629,6.51562,1.44629,2.81445,0,5.79688-1.34668,5.79004-4.42383-.00684-2.96387-2.37793-4.80566-8.14453-4.80566-1.58594,0-2.71777.1123-3.89551.26758l1.87891-15.17676h15.94043v5.57324Z"/>
    </g>
  </symbol>
  <symbol id="T06" viewBox="0 0 100 100">
    <circle class="l" cx="50" cy="50" r="50"/>
    <circle class="w" cx="50" cy="50" r="40"/>
    <path class="b" d="M47.12354,22.74414h-6.74756v-4.74561h19.24316v4.74561h-6.84277v20.25586h-5.65283v-20.25586Z"/>
    <g>
      <path class="b" d="M48.55078,65.41504c0,8.91406-3.61768,15.07422-10.99219,15.07422-7.48389,0-10.7876-6.70703-10.81592-14.8916,0-8.40527,3.52734-15.01855,11.00977-15.01855,7.73535,0,10.79834,6.90332,10.79834,14.83594ZM33.51514,65.56934c-.01709,6.66016,1.59277,9.81055,4.18115,9.81055,2.63574,0,4.08203-3.30566,4.08203-9.88086,0-6.41309-1.40088-9.7832-4.09668-9.7832-2.48926,0-4.1748,3.12012-4.1665,9.85352Z"/>
      <path class="b" d="M70.34961,55.89648c-.77734-.04395-1.58105-.01465-2.64258.07227-6.01855.4834-8.67383,3.54395-9.44238,6.91895h.13281c1.44922-1.43164,3.45703-2.29297,6.13965-2.29297,4.85645,0,8.95703,3.42383,8.95703,9.4502,0,5.74219-4.40137,10.44434-10.66309,10.44434-7.7168,0-11.4873-5.74805-11.4873-12.62012,0-5.46191,1.99512-9.99219,5.12891-12.89551,2.87988-2.63281,6.62988-4.04541,11.14355-4.2627,1.24902-.10205,2.07715-.06836,2.72656-.02686l.00684,5.2124ZM66.63379,70.39844c-.00879-2.68262-1.40918-4.98633-4.29785-4.98633-1.81836,0-3.34766,1.10547-3.99609,2.55566-.19434.38672-.2959.91309-.2959,1.72266.13379,3.05566,1.60352,5.82227,4.6875,5.82227,2.39941,0,3.90234-2.17188,3.90234-5.11426Z"/>
    </g>
  </symbol>
  <symbol id="T07" viewBox="0 0 100 100">
    <circle class="l" cx="50" cy="50" r="50"/>
    <circle class="w" cx="50" cy="50" r="40"/>
    <path class="b" d="M47.12354,22.74414h-6.74756v-4.74561h19.24316v4.74561h-6.84277v20.25586h-5.65283v-20.25586Z"/>
    <g>
      <path class="b" d="M48.55078,65.41504c0,8.91406-3.61768,15.07422-10.99219,15.07422-7.48389,0-10.7876-6.70703-10.81592-14.8916,0-8.40527,3.52734-15.01855,11.00977-15.01855,7.73535,0,10.79834,6.90332,10.79834,14.83594ZM33.51514,65.56934c-.01709,6.66016,1.59277,9.81055,4.18115,9.81055,2.63574,0,4.08203-3.30566,4.08203-9.88086,0-6.41309-1.40088-9.7832-4.09668-9.7832-2.48926,0-4.1748,3.12012-4.1665,9.85352Z"/>
      <path class="b" d="M72.62012,51.06836v4.25879l-11.9248,24.67285h-7.17969l11.92285-23.2666v-.08887h-13.26465v-5.57617h20.44629Z"/>
    </g>
  </symbol>
  <symbol id="T08" viewBox="0 0 100 100">
    <circle class="l" cx="50" cy="50" r="50"/>
    <circle class="w" cx="50" cy="50" r="40"/>
    <path class="b" d="M47.12354,22.74414h-6.74756v-4.74561h19.24316v4.74561h-6.84277v20.25586h-5.65283v-20.25586Z"/>
    <g>
      <path class="b" d="M48.55078,65.41504c0,8.91406-3.61768,15.07422-10.99219,15.07422-7.48389,0-10.7876-6.70703-10.81592-14.8916,0-8.40527,3.52734-15.01855,11.00977-15.01855,7.73535,0,10.79834,6.90332,10.79834,14.83594ZM33.51514,65.56934c-.01709,6.66016,1.59277,9.81055,4.18115,9.81055,2.63574,0,4.08203-3.30566,4.08203-9.88086,0-6.41309-1.40088-9.7832-4.09668-9.7832-2.48926,0-4.1748,3.12012-4.1665,9.85352Z"/>
      <path class="b" d="M51.42578,72.4502c0-3.50879,1.99609-5.88184,5.1582-7.28027l-.00293-.10352c-2.80957-1.45215-4.18457-3.81543-4.18457-6.35449,0-4.90332,4.40527-8.13281,10.19336-8.13281,6.78223,0,9.59082,3.92285,9.59082,7.42188,0,2.49805-1.34766,4.9502-4.20996,6.39062v.10547c2.80859,1.09375,5.32129,3.46387,5.32129,7.2041,0,5.25391-4.40625,8.78809-11.13086,8.78809-7.35547,0-10.73535-4.12207-10.73535-8.03906ZM66.39453,72.19531c0-2.51562-1.9043-4.02441-4.56152-4.7373-2.21484.61621-3.50293,2.21387-3.50293,4.29492-.03516,2.10156,1.56348,4.07422,4.10938,4.07422,2.37012,0,3.95508-1.56152,3.95508-3.63184ZM58.78809,58.48828c-.00684,1.95605,1.73926,3.22949,4.08594,3.93848,1.55078-.43652,2.93555-1.88379,2.93555-3.68652,0-1.78516-1.0293-3.59277-3.53027-3.59277-2.30762,0-3.49121,1.54688-3.49121,3.34082Z"/>
    </g>
  </symbol>
  <symbol id="T09" viewBox="0 0 100 100">
    <circle class="l" cx="50" cy="50" r="50"/>
    <circle class="w" cx="50" cy="50" r="40"/>
    <path class="b" d="M47.12354,22.74414h-6.74756v-4.74561h19.24316v4.74561h-6.84277v20.25586h-5.65283v-20.25586Z"/>
    <g>
      <path class="b" d="M48.55078,65.41504c0,8.91406-3.61768,15.07422-10.99219,15.07422-7.48389,0-10.7876-6.70703-10.81592-14.8916,0-8.40527,3.52734-15.01855,11.00977-15.01855,7.73535,0,10.79834,6.90332,10.79834,14.83594ZM33.51514,65.56934c-.01709,6.66016,1.59277,9.81055,4.18115,9.81055,2.63574,0,4.08203-3.30566,4.08203-9.88086,0-6.41309-1.40088-9.7832-4.09668-9.7832-2.48926,0-4.1748,3.12012-4.1665,9.85352Z"/>
      <path class="b" d="M53.99121,75.12012c.87598.09277,1.61133.06543,2.94434-.01465,2.06543-.11426,4.1582-.71484,5.69434-1.7793,1.90039-1.27734,3.13965-3.17676,3.64258-5.35742l-.10449-.0459c-1.29883,1.33203-3.18848,2.08887-5.81934,2.08887-4.89453,0-9-3.39648-9-9.0166,0-5.64941,4.54004-10.41602,10.90137-10.41602,7.43555,0,10.94141,5.70312,10.94141,12.45117,0,6.0332-1.90527,10.41895-5.06543,13.33105-2.75781,2.49805-6.55957,3.85547-11.06738,4.03125-1.11914.08691-2.29883.05176-3.06738-.00781v-5.26465ZM58.08105,60.57715c.00879,2.49414,1.37207,4.63477,4.09375,4.63477,1.86719,0,3.14062-.86035,3.7793-1.88965.21289-.40332.31445-.86523.31445-1.69824.02637-3.08105-1.1377-6.09375-4.22363-6.09375-2.29883,0-3.98145,2.0459-3.96387,5.04688Z"/>
    </g>
  </symbol>
  <symbol id="T10" viewBox="0 0 100 100">
    <circle class="l" cx="50" cy="50" r="50"/>
    <circle class="w" cx="50" cy="50" r="40"/>
    <path class="b" d="M47.12354,22.74414h-6.74756v-4.74561h19.24316v4.74561h-6.84277v20.25586h-5.65283v-20.25586Z"/>
    <g>
      <path class="b" d="M35.79248,57.09766h-.08887l-5.50146,2.6123-1.11963-5.07617,7.6709-3.56543h5.58398v28.93164h-6.54492v-22.90234Z"/>
      <path class="b" d="M73.25391,65.41504c0,8.91406-3.61719,15.07422-10.99219,15.07422-7.4834,0-10.78711-6.70703-10.81543-14.8916,0-8.40527,3.52734-15.01855,11.00977-15.01855,7.73535,0,10.79785,6.90332,10.79785,14.83594ZM58.21875,65.56934c-.01758,6.66016,1.59277,9.81055,4.18066,9.81055,2.63574,0,4.08203-3.30566,4.08203-9.88086,0-6.41309-1.40039-9.7832-4.09668-9.7832-2.48926,0-4.1748,3.12012-4.16602,9.85352Z"/>
    </g>
  </symbol>
  <symbol id="T11" viewBox="0 0 100 100">
    <circle class="l" cx="50" cy="50" r="50"/>
    <circle class="w" cx="50" cy="50" r="40"/>
    <path class="b" d="M47.12354,22.74414h-6.74756v-4.74561h19.24316v4.74561h-6.84277v20.25586h-5.65283v-20.25586Z"/>
    <g>
      <path class="b" d="M35.79248,57.09766h-.08887l-5.50146,2.6123-1.11963-5.07617,7.6709-3.56543h5.58398v28.93164h-6.54492v-22.90234Z"/>
      <path class="b" d="M60.49609,57.09766h-.08887l-5.50195,2.6123-1.11914-5.07617,7.6709-3.56543h5.58398v28.93164h-6.54492v-22.90234Z"/>
    </g>
  </symbol>
  <symbol id="T12" viewBox="0 0 100 100">
    <circle class="l" cx="50" cy="50" r="50"/>
    <circle class="w" cx="50" cy="50" r="40"/>
    <path class="b" d="M47.12354,22.74414h-6.74756v-4.74561h19.24316v4.74561h-6.84277v20.25586h-5.65283v-20.25586Z"/>
    <g>
      <path class="b" d="M35.79248,57.09766h-.08887l-5.50146,2.6123-1.11963-5.07617,7.6709-3.56543h5.58398v28.93164h-6.54492v-22.90234Z"/>
      <path class="b" d="M51.88086,80v-4.09668l3.72363-3.36328c6.33203-5.68457,9.41406-8.91699,9.4668-12.2998,0-2.34863-1.38477-4.21973-4.73633-4.21973-2.49121,0-4.66797,1.24805-6.19238,2.37793l-1.89941-4.83398c2.15918-1.64062,5.56543-2.98535,9.45312-2.98535,6.57129,0,10.14062,3.83203,10.14062,9.06641,0,4.85547-3.47656,8.75293-7.69336,12.46777l-2.67871,2.22168v.08887h10.94531v5.57617h-20.5293Z"/>
    </g>
  </symbol>
  <symbol id="T13" viewBox="0 0 100 100">
    <circle class="l" cx="50" cy="50" r="50"/>
    <circle class="w" cx="50" cy="50" r="40"/>
    <path class="b" d="M47.12354,22.74414h-6.74756v-4.74561h19.24316v4.74561h-6.84277v20.25586h-5.65283v-20.25586Z"/>
    <g>
      <path class="b" d="M35.79248,57.09766h-.08887l-5.50146,2.6123-1.11963-5.07617,7.6709-3.56543h5.58398v28.93164h-6.54492v-22.90234Z"/>
      <path class="b" d="M53.07715,73.37598c1.17969.63574,3.97656,1.76172,6.73145,1.76172,3.50684,0,5.29297-1.68457,5.28613-3.84473-.01465-2.86816-2.84668-4.16406-5.83398-4.17285h-2.75684v-4.85547h2.6416c2.26562-.00879,5.125-.88672,5.125-3.32422,0-1.72754-1.40137-3.02637-4.25391-3.02637-2.37988,0-4.86426,1.02148-6.03809,1.7334l-1.39062-4.87695c1.74902-1.12402,5.2002-2.19141,8.9502-2.19141,6.1875,0,9.60254,3.24805,9.60254,7.22168,0,3.03809-1.74707,5.4668-5.28711,6.70996v.08887c3.4668.62402,6.26855,3.24121,6.26855,7.04785,0,5.10645-4.50391,8.8418-11.83203,8.8418-3.75391,0-6.90918-.96387-8.58496-2.02637l1.37207-5.08691Z"/>
    </g>
  </symbol>
  <symbol id="T14" viewBox="0 0 100 100">
    <circle class="l" cx="50" cy="50" r="50"/>
    <circle class="w" cx="50" cy="50" r="40"/>
    <path class="b" d="M47.12354,22.74414h-6.74756v-4.74561h19.24316v4.74561h-6.84277v20.25586h-5.65283v-20.25586Z"/>
    <g>
      <path class="b" d="M35.79248,57.09766h-.08887l-5.50146,2.6123-1.11963-5.07617,7.6709-3.56543h5.58398v28.93164h-6.54492v-22.90234Z"/>
      <path class="b" d="M63.85938,80v-6.91309h-12.82617v-4.38965l10.93066-17.62891h8.28516v16.95605h3.4541v5.0625h-3.4541v6.91309h-6.38965ZM63.85938,68.02441v-6.39648c0-1.7373.09277-3.5293.19336-5.39258l-.16309-.00684c-.9248,1.8877-1.7041,3.56055-2.68359,5.36914l-3.85547,6.33789-.02637.08887h6.53516Z"/>
    </g>
  </symbol>
  <symbol id="T15" viewBox="0 0 100 100">
    <circle class="l" cx="50" cy="50" r="50"/>
    <circle class="w" cx="50" cy="50" r="40"/>
    <path class="b" d="M47.12354,22.74414h-6.74756v-4.74561h19.24316v4.74561h-6.84277v20.25586h-5.65283v-20.25586Z"/>
    <g>
      <path class="b" d="M35.79248,57.09766h-.08887l-5.50146,2.6123-1.11963-5.07617,7.6709-3.56543h5.58398v28.93164h-6.54492v-22.90234Z"/>
      <path class="b" d="M71.17773,56.6416h-11.22461l-.62402,4.42969c.6416-.07422,1.17969-.09473,1.87402-.09473,2.76074.00879,5.59668.64355,7.63184,2.08887,2.17578,1.48926,3.50684,3.89844,3.50684,7.27637,0,5.40234-4.62402,10.14746-12.42188,10.14746-3.50684,0-6.43262-.80469-8.05859-1.64062l1.23145-5.08789c1.28223.63379,3.90625,1.44629,6.51562,1.44629,2.81445,0,5.79688-1.34668,5.79004-4.42383-.00684-2.96387-2.37793-4.80566-8.14453-4.80566-1.58594,0-2.71777.1123-3.89551.26758l1.87891-15.17676h15.94043v5.57324Z"/>
    </g>
  </symbol>
  <symbol id="T16" viewBox="0 0 100 100">
    <circle class="l" cx="50" cy="50" r="50"/>
    <circle class="w" cx="50" cy="50" r="40"/>
    <path class="b" d="M47.12354,22.74414h-6.74756v-4.74561h19.24316v4.74561h-6.84277v20.25586h-5.65283v-20.25586Z"/>
    <g>
      <path class="b" d="M35.79248,57.09766h-.08887l-5.50146,2.6123-1.11963-5.07617,7.6709-3.56543h5.58398v28.93164h-6.54492v-22.90234Z"/>
      <path class="b" d="M70.34961,55.89648c-.77734-.04395-1.58105-.01465-2.64258.07227-6.01855.4834-8.67383,3.54395-9.44238,6.91895h.13281c1.44922-1.43164,3.45703-2.29297,6.13965-2.29297,4.85645,0,8.95703,3.42383,8.95703,9.4502,0,5.74219-4.40137,10.44434-10.66309,10.44434-7.7168,0-11.4873-5.74805-11.4873-12.62012,0-5.46191,1.99512-9.99219,5.12891-12.89551,2.87988-2.63281,6.62988-4.04541,11.14355-4.2627,1.24902-.10205,2.07715-.06836,2.72656-.02686l.00684,5.2124ZM66.63379,70.39844c-.00879-2.68262-1.40918-4.98633-4.29785-4.98633-1.81836,0-3.34766,1.10547-3.99609,2.55566-.19434.38672-.2959.91309-.2959,1.72266.13379,3.05566,1.60352,5.82227,4.6875,5.82227,2.39941,0,3.90234-2.17188,3.90234-5.11426Z"/>
    </g>
  </symbol>
  <symbol id="T17" viewBox="0 0 100 100">
    <circle class="l" cx="50" cy="50" r="50"/>
    <circle class="w" cx="50" cy="50" r="40"/>
    <path class="b" d="M47.12354,22.74414h-6.74756v-4.74561h19.24316v4.74561h-6.84277v20.25586h-5.65283v-20.25586Z"/>
    <g>
      <path class="b" d="M35.79248,57.09766h-.08887l-5.50146,2.6123-1.11963-5.07617,7.6709-3.56543h5.58398v28.93164h-6.54492v-22.90234Z"/>
      <path class="b" d="M72.62012,51.06836v4.25879l-11.9248,24.67285h-7.17969l11.92285-23.2666v-.08887h-13.26465v-5.57617h20.44629Z"/>
    </g>
  </symbol>
  <symbol id="T18" viewBox="0 0 100 100">
    <circle class="l" cx="50" cy="50" r="50"/>
    <circle class="w" cx="50" cy="50" r="40"/>
    <path class="b" d="M47.12354,22.74414h-6.74756v-4.74561h19.24316v4.74561h-6.84277v20.25586h-5.65283v-20.25586Z"/>
    <g>
      <path class="b" d="M35.79248,57.09766h-.08887l-5.50146,2.6123-1.11963-5.07617,7.6709-3.56543h5.58398v28.93164h-6.54492v-22.90234Z"/>
      <path class="b" d="M51.42578,72.4502c0-3.50879,1.99609-5.88184,5.1582-7.28027l-.00293-.10352c-2.80957-1.45215-4.18457-3.81543-4.18457-6.35449,0-4.90332,4.40527-8.13281,10.19336-8.13281,6.78223,0,9.59082,3.92285,9.59082,7.42188,0,2.49805-1.34766,4.9502-4.20996,6.39062v.10547c2.80859,1.09375,5.32129,3.46387,5.32129,7.2041,0,5.25391-4.40625,8.78809-11.13086,8.78809-7.35547,0-10.73535-4.12207-10.73535-8.03906ZM66.39453,72.19531c0-2.51562-1.9043-4.02441-4.56152-4.7373-2.21484.61621-3.50293,2.21387-3.50293,4.29492-.03516,2.10156,1.56348,4.07422,4.10938,4.07422,2.37012,0,3.95508-1.56152,3.95508-3.63184ZM58.78809,58.48828c-.00684,1.95605,1.73926,3.22949,4.08594,3.93848,1.55078-.43652,2.93555-1.88379,2.93555-3.68652,0-1.78516-1.0293-3.59277-3.53027-3.59277-2.30762,0-3.49121,1.54688-3.49121,3.34082Z"/>
    </g>
  </symbol>
  <symbol id="T19" viewBox="0 0 100 100">
    <circle class="l" cx="50" cy="50" r="50"/>
    <circle class="w" cx="50" cy="50" r="40"/>
    <path class="b" d="M47.12354,22.74414h-6.74756v-4.74561h19.24316v4.74561h-6.84277v20.25586h-5.65283v-20.25586Z"/>
    <g>
      <path class="b" d="M35.79248,57.09766h-.08887l-5.50146,2.6123-1.11963-5.07617,7.6709-3.56543h5.58398v28.93164h-6.54492v-22.90234Z"/>
      <path class="b" d="M53.99121,75.12012c.87598.09277,1.61133.06543,2.94434-.01465,2.06543-.11426,4.1582-.71484,5.69434-1.7793,1.90039-1.27734,3.13965-3.17676,3.64258-5.35742l-.10449-.0459c-1.29883,1.33203-3.18848,2.08887-5.81934,2.08887-4.89453,0-9-3.39648-9-9.0166,0-5.64941,4.54004-10.41602,10.90137-10.41602,7.43555,0,10.94141,5.70312,10.94141,12.45117,0,6.0332-1.90527,10.41895-5.06543,13.33105-2.75781,2.49805-6.55957,3.85547-11.06738,4.03125-1.11914.08691-2.29883.05176-3.06738-.00781v-5.26465ZM58.08105,60.57715c.00879,2.49414,1.37207,4.63477,4.09375,4.63477,1.86719,0,3.14062-.86035,3.7793-1.88965.21289-.40332.31445-.86523.31445-1.69824.02637-3.08105-1.1377-6.09375-4.22363-6.09375-2.29883,0-3.98145,2.0459-3.96387,5.04688Z"/>
    </g>
  </symbol>
  <symbol id="T20" viewBox="0 0 100 100">
    <circle class="l" cx="50" cy="50" r="50"/>
    <circle class="w" cx="50" cy="50" r="40"/>
    <path class="b" d="M47.12354,22.74414h-6.74756v-4.74561h19.24316v4.74561h-6.84277v20.25586h-5.65283v-20.25586Z"/>
    <g>
      <path class="b" d="M27.17773,80v-4.09668l3.72363-3.36328c6.33154-5.68457,9.41357-8.91699,9.46631-12.2998,0-2.34863-1.38428-4.21973-4.73633-4.21973-2.49121,0-4.66748,1.24805-6.19238,2.37793l-1.89893-4.83398c2.15918-1.64062,5.56494-2.98535,9.45312-2.98535,6.5708,0,10.14014,3.83203,10.14014,9.06641,0,4.85547-3.47656,8.75293-7.69287,12.46777l-2.6792,2.22168v.08887h10.94531v5.57617h-20.52881Z"/>
      <path class="b" d="M73.25391,65.41504c0,8.91406-3.61719,15.07422-10.99219,15.07422-7.4834,0-10.78711-6.70703-10.81543-14.8916,0-8.40527,3.52734-15.01855,11.00977-15.01855,7.73535,0,10.79785,6.90332,10.79785,14.83594ZM58.21875,65.56934c-.01758,6.66016,1.59277,9.81055,4.18066,9.81055,2.63574,0,4.08203-3.30566,4.08203-9.88086,0-6.41309-1.40039-9.7832-4.09668-9.7832-2.48926,0-4.1748,3.12012-4.16602,9.85352Z"/>
    </g>
  </symbol>
</svg>