<?xml version="1.0" encoding="UTF-8"?>
<svg xmlns="http://www.w3.org/2000/svg" xmlns:xlink="http://www.w3.org/1999/xlink">
  <defs>
    <style>
      .w {
        fill: #fff;
      }

      .b {
        fill: #231815;
      }

      .l {
        fill: #b074d6;
        <!-- DIC-106 -->
      }
    </style>
  </defs>
  <symbol id="E" viewBox="0 0 100 100">
    <path class="w" d="M16.7605,93.66971h66.479c10.27991-9.15771,16.7605-22.48901,16.7605-37.33948,0-27.61426-22.38574-50-50-50S0,28.71597,0,56.33023c0,14.85046,6.48059,28.18176,16.7605,37.33948Z"/>
    <path class="l" d="M100,56.33029v-.00011c0-27.61421-22.38574-49.99995-49.99995-49.99995h-.0001C22.38574,6.33023,0,28.71597,0,56.33018v.00011c0,14.85046,6.48053,28.18182,16.76044,37.33948l11.33966-11.33966c-7.39685-6.23688-12.1001-15.56708-12.1001-25.99982v-.00011c0-18.77765,15.2223-33.99995,33.99995-33.99995h.0001c18.77765,0,33.99995,15.2223,33.99995,33.99995v.00005c0,10.43274-4.70331,19.76294-12.10016,25.99982l11.33972,11.33972c10.27991-9.15765,16.76044-22.48901,16.76044-37.33948Z"/>
    <path class="b" d="M61.10938,59.05762h-13.79736v8.91797h15.42432v6.94434h-23.90234v-37.49707h23.09961v6.94482h-14.62158v7.81104h13.79736v6.87891Z"/>
  </symbol>
  <symbol id="E01" viewBox="0 0 100 100">
    <circle class="l" cx="50" cy="50" r="50"/>
    <circle class="w" cx="50" cy="50" r="40"/>
    <path class="b" d="M57.40918,32.42383h-9.19971v5.9458h10.28467v4.63037h-15.9375v-25.00146h15.40234v4.63037h-9.74951v5.2085h9.19971v4.58643Z"/>
    <g>
      <path class="b" d="M48.55078,65.41504c0,8.91406-3.61768,15.07422-10.99219,15.07422-7.48389,0-10.7876-6.70703-10.81592-14.8916,0-8.40527,3.52734-15.01855,11.00977-15.01855,7.73535,0,10.79834,6.90332,10.79834,14.83594ZM33.51514,65.56934c-.01709,6.66016,1.59277,9.81055,4.18115,9.81055,2.63574,0,4.08203-3.30566,4.08203-9.88086,0-6.41309-1.40088-9.7832-4.09668-9.7832-2.48926,0-4.1748,3.12012-4.1665,9.85352Z"/>
      <path class="b" d="M60.49609,57.09766h-.08887l-5.50195,2.6123-1.11914-5.07617,7.6709-3.56543h5.58398v28.93164h-6.54492v-22.90234Z"/>
    </g>
  </symbol>
  <symbol id="E02" viewBox="0 0 100 100">
    <circle class="l" cx="50" cy="50" r="50"/>
    <circle class="w" cx="50" cy="50" r="40"/>
    <path class="b" d="M57.40918,32.42383h-9.19971v5.9458h10.28467v4.63037h-15.9375v-25.00146h15.40234v4.63037h-9.74951v5.2085h9.19971v4.58643Z"/>
    <g>
      <path class="b" d="M48.55078,65.41504c0,8.91406-3.61768,15.07422-10.99219,15.07422-7.48389,0-10.7876-6.70703-10.81592-14.8916,0-8.40527,3.52734-15.01855,11.00977-15.01855,7.73535,0,10.79834,6.90332,10.79834,14.83594ZM33.51514,65.56934c-.01709,6.66016,1.59277,9.81055,4.18115,9.81055,2.63574,0,4.08203-3.30566,4.08203-9.88086,0-6.41309-1.40088-9.7832-4.09668-9.7832-2.48926,0-4.1748,3.12012-4.1665,9.85352Z"/>
      <path class="b" d="M51.88086,80v-4.09668l3.72363-3.36328c6.33203-5.68457,9.41406-8.91699,9.4668-12.2998,0-2.34863-1.38477-4.21973-4.73633-4.21973-2.49121,0-4.66797,1.24805-6.19238,2.37793l-1.89941-4.83398c2.15918-1.64062,5.56543-2.98535,9.45312-2.98535,6.57129,0,10.14062,3.83203,10.14062,9.06641,0,4.85547-3.47656,8.75293-7.69336,12.46777l-2.67871,2.22168v.08887h10.94531v5.57617h-20.5293Z"/>
    </g>
  </symbol>
  <symbol id="E03" viewBox="0 0 100 100">
    <circle class="l" cx="50" cy="50" r="50"/>
    <circle class="w" cx="50" cy="50" r="40"/>
    <path class="b" d="M57.40918,32.42383h-9.19971v5.9458h10.28467v4.63037h-15.9375v-25.00146h15.40234v4.63037h-9.74951v5.2085h9.19971v4.58643Z"/>
    <g>
      <path class="b" d="M48.55078,65.41504c0,8.91406-3.61768,15.07422-10.99219,15.07422-7.48389,0-10.7876-6.70703-10.81592-14.8916,0-8.40527,3.52734-15.01855,11.00977-15.01855,7.73535,0,10.79834,6.90332,10.79834,14.83594ZM33.51514,65.56934c-.01709,6.66016,1.59277,9.81055,4.18115,9.81055,2.63574,0,4.08203-3.30566,4.08203-9.88086,0-6.41309-1.40088-9.7832-4.09668-9.7832-2.48926,0-4.1748,3.12012-4.1665,9.85352Z"/>
      <path class="b" d="M53.07715,73.37598c1.17969.63574,3.97656,1.76172,6.73145,1.76172,3.50684,0,5.29297-1.68457,5.28613-3.84473-.01465-2.86816-2.84668-4.16406-5.83398-4.17285h-2.75684v-4.85547h2.6416c2.26562-.00879,5.125-.88672,5.125-3.32422,0-1.72754-1.40137-3.02637-4.25391-3.02637-2.37988,0-4.86426,1.02148-6.03809,1.7334l-1.39062-4.87695c1.74902-1.12402,5.2002-2.19141,8.9502-2.19141,6.1875,0,9.60254,3.24805,9.60254,7.22168,0,3.03809-1.74707,5.4668-5.28711,6.70996v.08887c3.4668.62402,6.26855,3.24121,6.26855,7.04785,0,5.10645-4.50391,8.8418-11.83203,8.8418-3.75391,0-6.90918-.96387-8.58496-2.02637l1.37207-5.08691Z"/>
    </g>
  </symbol>
  <symbol id="E04" viewBox="0 0 100 100">
    <circle class="l" cx="50" cy="50" r="50"/>
    <circle class="w" cx="50" cy="50" r="40"/>
    <path class="b" d="M57.40918,32.42383h-9.19971v5.9458h10.28467v4.63037h-15.9375v-25.00146h15.40234v4.63037h-9.74951v5.2085h9.19971v4.58643Z"/>
    <g>
      <path class="b" d="M48.55078,65.41504c0,8.91406-3.61768,15.07422-10.99219,15.07422-7.48389,0-10.7876-6.70703-10.81592-14.8916,0-8.40527,3.52734-15.01855,11.00977-15.01855,7.73535,0,10.79834,6.90332,10.79834,14.83594ZM33.51514,65.56934c-.01709,6.66016,1.59277,9.81055,4.18115,9.81055,2.63574,0,4.08203-3.30566,4.08203-9.88086,0-6.41309-1.40088-9.7832-4.09668-9.7832-2.48926,0-4.1748,3.12012-4.1665,9.85352Z"/>
      <path class="b" d="M63.85938,80v-6.91309h-12.82617v-4.38965l10.93066-17.62891h8.28516v16.95605h3.4541v5.0625h-3.4541v6.91309h-6.38965ZM63.85938,68.02441v-6.39648c0-1.7373.09277-3.5293.19336-5.39258l-.16309-.00684c-.9248,1.8877-1.7041,3.56055-2.68359,5.36914l-3.85547,6.33789-.02637.08887h6.53516Z"/>
    </g>
  </symbol>
  <symbol id="E05" viewBox="0 0 100 100">
    <circle class="l" cx="50" cy="50" r="50"/>
    <circle class="w" cx="50" cy="50" r="40"/>
    <path class="b" d="M57.40918,32.42383h-9.19971v5.9458h10.28467v4.63037h-15.9375v-25.00146h15.40234v4.63037h-9.74951v5.2085h9.19971v4.58643Z"/>
    <g>
      <path class="b" d="M48.55078,65.41504c0,8.91406-3.61768,15.07422-10.99219,15.07422-7.48389,0-10.7876-6.70703-10.81592-14.8916,0-8.40527,3.52734-15.01855,11.00977-15.01855,7.73535,0,10.79834,6.90332,10.79834,14.83594ZM33.51514,65.56934c-.01709,6.66016,1.59277,9.81055,4.18115,9.81055,2.63574,0,4.08203-3.30566,4.08203-9.88086,0-6.41309-1.40088-9.7832-4.09668-9.7832-2.48926,0-4.1748,3.12012-4.1665,9.85352Z"/>
      <path class="b" d="M71.17773,56.6416h-11.22461l-.62402,4.42969c.6416-.07422,1.17969-.09473,1.87402-.09473,2.76074.00879,5.59668.64355,7.63184,2.08887,2.17578,1.48926,3.50684,3.89844,3.50684,7.27637,0,5.40234-4.62402,10.14746-12.42188,10.14746-3.50684,0-6.43262-.80469-8.05859-1.64062l1.23145-5.08789c1.28223.63379,3.90625,1.44629,6.51562,1.44629,2.81445,0,5.79688-1.34668,5.79004-4.42383-.00684-2.96387-2.37793-4.80566-8.14453-4.80566-1.58594,0-2.71777.1123-3.89551.26758l1.87891-15.17676h15.94043v5.57324Z"/>
    </g>
  </symbol>
  <symbol id="E06" viewBox="0 0 100 100">
    <circle class="l" cx="50" cy="50" r="50"/>
    <circle class="w" cx="50" cy="50" r="40"/>
    <path class="b" d="M57.40918,32.42383h-9.19971v5.9458h10.28467v4.63037h-15.9375v-25.00146h15.40234v4.63037h-9.74951v5.2085h9.19971v4.58643Z"/>
    <g>
      <path class="b" d="M48.55078,65.41504c0,8.91406-3.61768,15.07422-10.99219,15.07422-7.48389,0-10.7876-6.70703-10.81592-14.8916,0-8.40527,3.52734-15.01855,11.00977-15.01855,7.73535,0,10.79834,6.90332,10.79834,14.83594ZM33.51514,65.56934c-.01709,6.66016,1.59277,9.81055,4.18115,9.81055,2.63574,0,4.08203-3.30566,4.08203-9.88086,0-6.41309-1.40088-9.7832-4.09668-9.7832-2.48926,0-4.1748,3.12012-4.1665,9.85352Z"/>
      <path class="b" d="M70.34961,55.89648c-.77734-.04395-1.58105-.01465-2.64258.07227-6.01855.4834-8.67383,3.54395-9.44238,6.91895h.13281c1.44922-1.43164,3.45703-2.29297,6.13965-2.29297,4.85645,0,8.95703,3.42383,8.95703,9.4502,0,5.74219-4.40137,10.44434-10.66309,10.44434-7.7168,0-11.4873-5.74805-11.4873-12.62012,0-5.46191,1.99512-9.99219,5.12891-12.89551,2.87988-2.63281,6.62988-4.04541,11.14355-4.2627,1.24902-.10205,2.07715-.06836,2.72656-.02686l.00684,5.2124ZM66.63379,70.39844c-.00879-2.68262-1.40918-4.98633-4.29785-4.98633-1.81836,0-3.34766,1.10547-3.99609,2.55566-.19434.38672-.2959.91309-.2959,1.72266.13379,3.05566,1.60352,5.82227,4.6875,5.82227,2.39941,0,3.90234-2.17188,3.90234-5.11426Z"/>
    </g>
  </symbol>
  <symbol id="E07" viewBox="0 0 100 100">
    <circle class="l" cx="50" cy="50" r="50"/>
    <circle class="w" cx="50" cy="50" r="40"/>
    <path class="b" d="M57.40918,32.42383h-9.19971v5.9458h10.28467v4.63037h-15.9375v-25.00146h15.40234v4.63037h-9.74951v5.2085h9.19971v4.58643Z"/>
    <g>
      <path class="b" d="M48.55078,65.41504c0,8.91406-3.61768,15.07422-10.99219,15.07422-7.48389,0-10.7876-6.70703-10.81592-14.8916,0-8.40527,3.52734-15.01855,11.00977-15.01855,7.73535,0,10.79834,6.90332,10.79834,14.83594ZM33.51514,65.56934c-.01709,6.66016,1.59277,9.81055,4.18115,9.81055,2.63574,0,4.08203-3.30566,4.08203-9.88086,0-6.41309-1.40088-9.7832-4.09668-9.7832-2.48926,0-4.1748,3.12012-4.1665,9.85352Z"/>
      <path class="b" d="M72.62012,51.06836v4.25879l-11.9248,24.67285h-7.17969l11.92285-23.2666v-.08887h-13.26465v-5.57617h20.44629Z"/>
    </g>
  </symbol>
</svg>