<?xml version="1.0" encoding="UTF-8"?>
<svg xmlns="http://www.w3.org/2000/svg" xmlns:xlink="http://www.w3.org/1999/xlink">
  <defs>
    <style>
      .w {
        fill: #fff;
      }

      .b {
        fill: #231815;
      }

      .l {
        fill: #ec78b4;
        <!-- DIC-F180 -->
      }
    </style>
  </defs>
  <symbol id="K" viewBox="0 0 100 100">
    <path class="w" d="M16.7605,93.66971h66.479c10.27991-9.15771,16.7605-22.48901,16.7605-37.33948,0-27.61426-22.38574-50-50-50S0,28.71597,0,56.33023c0,14.85046,6.48059,28.18176,16.7605,37.33948Z"/>
    <path class="l" d="M100,56.33029v-.00011c0-27.61421-22.38574-49.99995-49.99995-49.99995h-.0001C22.38574,6.33023,0,28.71597,0,56.33018v.00011c0,14.85046,6.48053,28.18182,16.76044,37.33948l11.33966-11.33966c-7.39685-6.23688-12.1001-15.56708-12.1001-25.99982v-.00011c0-18.77765,15.2223-33.99995,33.99995-33.99995h.0001c18.77765,0,33.99995,15.2223,33.99995,33.99995v.00005c0,10.43274-4.70331,19.76294-12.10016,25.99982l11.33972,11.33972c10.27991-9.15765,16.76044-22.48901,16.76044-37.33948Z"/>
    <path class="b" d="M36.6084,37.42285h8.40088v16.5752h.14014c.82178-1.41992,1.71777-2.77539,2.57373-4.08691l8.48877-12.48828h10.41992l-12.40527,15.95801,13.06055,21.53906h-9.86719l-9.22705-16.16602-3.18359,3.9209v12.24512h-8.40088v-37.49707Z"/>
  </symbol>
  <symbol id="K01" viewBox="0 0 100 100">
    <circle class="l" cx="50" cy="50" r="50"/>
    <circle class="w" cx="50" cy="50" r="40"/>
    <path class="b" d="M41.07275,17.99854h5.60156v11.05127h.09326c.54785-.94629,1.14551-1.85059,1.71582-2.72461l5.66113-8.32666h6.94727l-8.27148,10.64014,8.70801,14.36133h-6.5791l-6.15234-10.77881-2.12256,2.61426v8.16455h-5.60156v-25.00146Z"/>
    <g>
      <path class="b" d="M48.55078,65.41504c0,8.91406-3.61768,15.07422-10.99219,15.07422-7.48389,0-10.7876-6.70703-10.81592-14.8916,0-8.40527,3.52734-15.01855,11.00977-15.01855,7.73535,0,10.79834,6.90332,10.79834,14.83594ZM33.51514,65.56934c-.01709,6.66016,1.59277,9.81055,4.18115,9.81055,2.63574,0,4.08203-3.30566,4.08203-9.88086,0-6.41309-1.40088-9.7832-4.09668-9.7832-2.48926,0-4.1748,3.12012-4.1665,9.85352Z"/>
      <path class="b" d="M60.49609,57.09766h-.08887l-5.50195,2.6123-1.11914-5.07617,7.6709-3.56543h5.58398v28.93164h-6.54492v-22.90234Z"/>
    </g>
  </symbol>
  <symbol id="K02" viewBox="0 0 100 100">
    <circle class="l" cx="50" cy="50" r="50"/>
    <circle class="w" cx="50" cy="50" r="40"/>
    <path class="b" d="M41.07275,17.99854h5.60156v11.05127h.09326c.54785-.94629,1.14551-1.85059,1.71582-2.72461l5.66113-8.32666h6.94727l-8.27148,10.64014,8.70801,14.36133h-6.5791l-6.15234-10.77881-2.12256,2.61426v8.16455h-5.60156v-25.00146Z"/>
    <g>
      <path class="b" d="M48.55078,65.41504c0,8.91406-3.61768,15.07422-10.99219,15.07422-7.48389,0-10.7876-6.70703-10.81592-14.8916,0-8.40527,3.52734-15.01855,11.00977-15.01855,7.73535,0,10.79834,6.90332,10.79834,14.83594ZM33.51514,65.56934c-.01709,6.66016,1.59277,9.81055,4.18115,9.81055,2.63574,0,4.08203-3.30566,4.08203-9.88086,0-6.41309-1.40088-9.7832-4.09668-9.7832-2.48926,0-4.1748,3.12012-4.1665,9.85352Z"/>
      <path class="b" d="M51.88086,80v-4.09668l3.72363-3.36328c6.33203-5.68457,9.41406-8.91699,9.4668-12.2998,0-2.34863-1.38477-4.21973-4.73633-4.21973-2.49121,0-4.66797,1.24805-6.19238,2.37793l-1.89941-4.83398c2.15918-1.64062,5.56543-2.98535,9.45312-2.98535,6.57129,0,10.14062,3.83203,10.14062,9.06641,0,4.85547-3.47656,8.75293-7.69336,12.46777l-2.67871,2.22168v.08887h10.94531v5.57617h-20.5293Z"/>
    </g>
  </symbol>
</svg>