<svg version="1.1" viewBox="0 0 20 20" xmlns="http://www.w3.org/2000/svg">
	<path d="m19 9.7309a6.4433 6.4433 0 0 0-2.2326-4.9087c-1.4134-1.2344-3.3923-1.9472-5.6935-1.9472-5.9957 0-10.074 4.6247-10.074 4.6247l1.1489 1.8227s0.63605 0.05384 0.29952-1.0204c0.29009-0.54855 0.85951-1.2876 1.9701-2.1404v12.142c-0.47855 0.13529-1.1119 0.38903-0.6798 0.82115h3.3007c0.43615-0.43615-0.25038-0.69865-0.66903-0.82115v-2.8639s2.2635 0.88778 4.7034 0.88778c2.1444 0 4.095-0.6374 5.5461-1.789 1.4505-1.1442 2.3854-2.8538 2.38-4.8077m-2.4096-0.03096c-0.0054 1.5804-0.56874 2.8821-1.5723 3.8803-1.0029 0.99009-2.4621 1.616-4.1454 1.6154-1.8779 0-3.4582-0.36278-4.5015-0.87634v-9.11c1.1442-0.81307 3.0019-1.3138 4.5015-1.3105 1.822 0.0014 3.253 0.68922 4.2202 1.7332 0.96586 1.0507 1.4935 2.4459 1.4983 4.068" fill="#0096fa"/>
</svg>
