<svg version="1.1" viewBox="0 0 100 100" xmlns="http://www.w3.org/2000/svg">
	<style type="text/css">
		.st1{fill:#fff;}
		.st0{fill:currentcolor;}
	</style>
	<path class="st0" d="M7.5,91.25c-3.446,0-6.25-2.804-6.25-6.25V68.75h15v-7.5h-15V60c0-3.446,2.804-6.25,6.25-6.25h10    c3.446,0,6.25,2.804,6.25,6.25v15.75h-15v8h82.5v7.5H7.5z"/>
	<path class="st1" d="m17.5 55c2.761 0 5 2.239 5 5v14.5h-15v10.5h82.5v5h-82.5c-2.761 0-5-2.239-5-5v-15h15v-10h-15c0-2.761 2.239-5 5-5h10m0-2.5h-10c-4.136 0-7.5 3.365-7.5 7.5v2.5h15v5h-15v17.5c0 4.136 3.364 7.5 7.5 7.5h85v-10h-82.5v-5.5h15v-17c0-4.135-3.364-7.5-7.5-7.5z"/>
	<path class="st0" d="m32.5 91.25c-3.446 0-6.25-2.804-6.25-6.25v-25c0-3.446 2.804-6.25 6.25-6.25h10c3.446 0 6.25 2.804 6.25 6.25v25c0 3.446-2.804 6.25-6.25 6.25h-10zm8.75-7.5v-22.5h-7.5v22.5h7.5z"/>
	<path class="st1" d="m42.5 55c2.761 0 5 2.239 5 5v25c0 2.761-2.239 5-5 5h-10c-2.761 0-5-2.239-5-5v-25c0-2.761 2.239-5 5-5h10m-10 30h10v-25h-10v25m10-32.5h-10c-4.136 0-7.5 3.364-7.5 7.5v25c0 4.136 3.364 7.5 7.5 7.5h10c4.136 0 7.5-3.364 7.5-7.5v-25c0-4.135-3.364-7.5-7.5-7.5zm-7.5 10h5v20h-5v-20z"/>
	<path class="st0" d="m57.5 91.25c-3.446 0-6.25-2.804-6.25-6.25v-25c0-3.446 2.804-6.25 6.25-6.25h10c3.446 0 6.25 2.804 6.25 6.25v25c0 3.446-2.804 6.25-6.25 6.25h-10zm8.75-7.5v-22.5h-7.5v22.5h7.5z"/>
	<path class="st1" d="m67.5 55c2.761 0 5 2.239 5 5v25c0 2.761-2.239 5-5 5h-10c-2.761 0-5-2.239-5-5v-25c0-2.761 2.239-5 5-5h10m-10 30h10v-25h-10v25m10-32.5h-10c-4.136 0-7.5 3.364-7.5 7.5v25c0 4.136 3.364 7.5 7.5 7.5h10c4.136 0 7.5-3.364 7.5-7.5v-25c0-4.135-3.364-7.5-7.5-7.5zm-7.5 10h5v20h-5v-20z"/>
	<path class="st0" d="m91.25 91.25v-15h-8.75c-3.446 0-6.25-2.804-6.25-6.25v-16.25h7.5v15h7.5v-15h1.25c3.446 0 6.25 2.804 6.25 6.25v25c0 3.446-2.804 6.25-6.25 6.25h-1.25z"/>
	<path class="st1" d="m92.5 55c2.761 0 5 2.239 5 5v25c0 2.761-2.239 5-5 5v-15h-10c-2.761 0-5-2.239-5-5v-15h5v15h10v-15m-17.5-2.5v2.5 15c0 4.136 3.365 7.5 7.5 7.5h7.5v12.5 2.5h2.5c2.003 0 3.887-0.78 5.303-2.197s2.197-3.3 2.197-5.303v-25c0-4.135-3.364-7.5-7.5-7.5h-2.5v2.5 12.5h-5v-12.5-2.5h-2.5-5-2.5z"/>
	<path class="st0" d="m55.396 51.25-9.146-23.375v23.375h-40.548c-1.163 0-2.24-0.525-2.956-1.441-0.716-0.917-0.965-2.09-0.683-3.218l1.96-7.841h7.577l-1.25 5h20.9v-10h-25.976l4.83-19.318c0.836-3.346 3.828-5.682 7.276-5.682h29.724l9.129 23.331-0.061-23.331h26.448c3.448 0 6.44 2.336 7.276 5.682l8.04 32.159c0.282 1.128 0.033 2.301-0.683 3.217-0.716 0.917-1.793 1.442-2.956 1.442h-38.901zm34.503-7.5-6.875-27.5h-19.274v22.5h7.5v5h18.649zm-51.149-17.5v-10h-21.524l-2.5 10h24.024z"/>
	<path class="st1" d="m82.62 10c2.868 0 5.368 1.952 6.063 4.734l8.04 32.16c0.395 1.578-0.799 3.106-2.425 3.106h-29.298v-10h5v5h21.5l-7.5-30h-21.5v35h-6.25l-11.25-28.75v28.75h-5v-35h-23.75l-3.125 12.5h24.375v22.5h-31.798c-1.626 0-2.82-1.528-2.425-3.106l1.723-6.894h5l-1.25 5h23.75v-12.5h-25.625l4.441-17.766c0.696-2.782 3.196-4.734 6.064-4.734h28.87l11.25 28.75-0.075-28.75h25.195m0-2.5h-27.702l7e-3 2.507 0.04 15.405-6.387-16.323-0.622-1.589h-30.576c-4.022 0-7.513 2.725-8.489 6.628l-4.441 17.766-0.777 3.106h26.327v7.5h-18.048l0.473-1.894 0.777-3.106h-10.154l-0.473 1.894-1.723 6.894c-0.376 1.504-0.044 3.068 0.91 4.29 0.953 1.221 2.39 1.922 3.94 1.922h41.798v-18l6.422 16.411 0.622 1.589h39.754c1.55 0 2.987-0.701 3.941-1.923s1.286-2.786 0.91-4.29l-8.04-32.16c-0.976-3.902-4.466-6.627-8.489-6.627zm-17.62 10h17.048l6.25 25h-15.798v-5h-7.5v-20zm-46.798 0h19.298v7.5h-21.173l1.875-7.5z"/>
</svg>
