<svg version="1.1" viewBox="0 0 100 100" xmlns="http://www.w3.org/2000/svg">
  <g fill="#152649">
    <path d="M22.46079,44.7191v-3.20173h3.20173v3.20173h-3.20173ZM22.46079,59.47303v-13.49919h3.20173v13.49919h-3.20173Z"/>
    <path d="M30.20552,59.47303h-3.20173v-13.49919h3.1152v2.50947c.99513-1.47107,2.42293-2.76906,4.36993-2.76906.34613,0,.56247.04327.73553.08653v3.02866c-.2596-.04327-.73553-.04327-.95187-.04327-1.47107,0-4.11033,1.38453-4.11033,4.06706v6.61979h.04327Z"/>
    <path d="M36.13305,59.47303v-17.95565h5.75446c1.51433,0,6.66306,0,6.66306,4.36993,0,3.02866-2.3364,3.80746-3.54786,4.24013,1.38453.34613,3.98053,1.08167,3.98053,4.4132,0,2.7258-2.03353,4.9324-6.66306,4.9324h-6.18713ZM39.50784,48.82943h2.37966c3.07193,0,3.33153-1.8172,3.33153-2.42293,0-2.24986-2.3364-2.24986-3.02866-2.24986h-2.68253v4.6728ZM39.50784,56.83376h2.12007c2.24986,0,3.85073-.73553,3.85073-2.68253,0-1.25473-.69227-2.7258-3.6344-2.7258h-2.3364v5.40833Z"/>
    <path d="M58.06923,59.47303l-.34613-1.4278c-.7788.69227-2.0768,1.73067-4.06706,1.73067-2.42293,0-4.1536-1.5576-4.1536-3.72093,0-1.38453.5192-3.02866,3.46133-4.06706l3.85073-1.298c.56247-.17307.60573-.21633.60573-.60573v-.56247c0-1.12493-1.0384-1.47107-2.29313-1.47107-2.12007,0-4.06706,1.298-4.84586,1.8172v-2.81233c.86533-.47593,2.50947-1.4278,5.3218-1.4278,4.19686,0,5.01893,2.12007,5.01893,4.6728v9.12926l-2.55273.04327h0ZM54.56463,53.6753c-1.34126.47593-1.8172,1.12493-1.8172,2.0768,0,1.34126,1.1682,1.64413,1.73067,1.64413.5192,0,1.64413-.17307,2.94213-1.51433v-3.33153c-.17307.1298-.2596.17307-.82207.3894l-2.03353.73553Z"/>
    <path d="M18.52353,59.47303l-.34613-1.4278c-.7788.69227-2.03353,1.73067-4.06706,1.73067-2.42293,0-4.11033-1.5576-4.11033-3.72093,0-1.38453.47593-3.02866,3.46133-4.06706l3.894-1.298c.56247-.17307.60573-.21633.60573-.60573v-.56247c0-1.12493-1.0384-1.47107-2.29313-1.47107-2.12007,0-4.06706,1.298-4.84586,1.8172v-2.81233c.86533-.47593,2.50946-1.4278,5.3218-1.4278,4.19686,0,5.01893,2.12007,5.01893,4.6728v9.12926l-2.63927.04327h0ZM15.0622,53.6753c-1.34127.47593-1.8172,1.12493-1.8172,2.0768,0,1.34126,1.1682,1.64413,1.73067,1.64413.5192,0,1.64413-.17307,2.94213-1.51433v-3.33153c-.17307.1298-.2596.17307-.82207.3894l-2.03353.73553Z"/>
    <path d="M61.96322,59.47303v-17.95565h3.20173v17.95565h-3.20173Z"/>
    <path d="M67.89075,48.39677h-1.947v-2.4662h1.947v-4.45646h3.20173v4.45646h2.42293v2.4662h-2.42293v6.83613c0,.99513.1298,1.90373,1.60086,1.90373.3894,0,.69227-.04327.95186-.08653v2.42293c-.43267.04327-.86533.08653-1.51433.08653-3.59113,0-4.24013-1.77393-4.24013-4.1536v-7.00919h0Z"/>
    <path d="M74.77015,44.7191v-3.245h3.20173v3.245h-3.20173ZM74.77015,59.47303v-13.49919h3.20173v13.49919h-3.20173Z"/>
    <path d="M89.69713,49.60823c-.649-.56247-1.6874-1.38453-3.5046-1.38453-2.76906,0-3.894,2.29313-3.894,4.49973,0,.95187.2596,4.49973,3.80746,4.49973,1.86047,0,3.02866-.82207,3.894-1.4278v2.8556c-.649.34613-2.12006,1.08167-4.4132,1.08167-4.58627,0-6.53326-3.46133-6.53326-7.05246,0-3.72093,2.12006-7.05246,6.66306-7.05246,2.2066,0,3.41806.69227,3.98053.99513v2.9854h0Z"/>
  </g>  
</svg>