<svg version="1.1" viewBox="0 0 100 100" xmlns="http://www.w3.org/2000/svg">
	<path fill="#faaf41" d="M20,80c8.5-11.5,4-24-2-30,0,0-8,6-8,16,0,9,6,14.5,6,14.5h0s3.5,3.5,3.5,3.5c0,0,5.5,6,14.5,6,10,0,16-8,16-8-6-6-18.5-10.5-30-2"/>
	<path fill="#ea6957" d="M20,20c11.5,8.5,24,4,30-2,0,0-6-8-16-8-9,0-14.5,6-14.5,6h0s-3.5,3.5-3.5,3.5c0,0-6,5.5-6,14.5,0,10,8,16,8,16,6-6,10.5-18.5,2-30"/>
	<path fill="#4bc1c4" d="M80,20c-8.5,11.5-4,24,2,30,0,0,8-6,8-16,0-9-6-14.5-6-14.5h0s-3.5-3.5-3.5-3.5c0,0-5.5-6-14.5-6-10,0-16,8-16,8,6,6,18.5,10.5,30,2"/>
	<path fill="#9ebc3b" d="M80,80c-11.5-8.5-24-4-30,2,0,0,6,8,16,8,9,0,14.5-6,14.5-6h0s3.5-3.5,3.5-3.5c0,0,6-5.5,6-14.5,0-10-8-16-8-16-6,6-10.5,18.5-2,30"/>
</svg>